<?xml version="1.0" encoding="UTF-8" standalone="no"?>
<!DOCTYPE svg PUBLIC "-//W3C//DTD SVG 1.1//EN"
 "http://www.w3.org/Graphics/SVG/1.1/DTD/svg11.dtd">
<!-- Generated by graphviz version 2.49.3 (0)
 -->
<!-- Title: vanetza::security::v2::NullCertificateValidator Pages: 1 -->
<svg width="138pt" height="209pt"
 viewBox="0.00 0.00 138.00 209.00" xmlns="http://www.w3.org/2000/svg" xmlns:xlink="http://www.w3.org/1999/xlink">
<g id="graph0" class="graph" transform="scale(1 1) rotate(0) translate(4 205)">
<title>vanetza::security::v2::NullCertificateValidator</title>
<!-- Node1 -->
<g id="Node000001" class="node">
<title>Node1</title>
<g id="a_Node000001"><a xlink:title=" ">
<polygon fill="#999999" stroke="transparent" points="130,-90 0,-90 0,0 130,0 130,-90"/>
<text text-anchor="start" x="6" y="-78" font-family="Helvetica,sans-Serif" font-size="10.00">vanetza::security::</text>
<text text-anchor="start" x="6" y="-67" font-family="Helvetica,sans-Serif" font-size="10.00">v2::NullCertificateValidator</text>
<text text-anchor="start" x="5.5" y="-52" font-family="Helvetica,sans-Serif" font-size="10.00">&#45;</text>
<text text-anchor="start" x="15" y="-52" font-family="Helvetica,sans-Serif" font-size="10.00">m_check_result</text>
<text text-anchor="start" x="4" y="-37" font-family="Helvetica,sans-Serif" font-size="10.00">+</text>
<text text-anchor="start" x="15" y="-37" font-family="Helvetica,sans-Serif" font-size="10.00">NullCertificateValidator()</text>
<text text-anchor="start" x="4" y="-22" font-family="Helvetica,sans-Serif" font-size="10.00">+</text>
<text text-anchor="start" x="15" y="-22" font-family="Helvetica,sans-Serif" font-size="10.00">check_certificate()</text>
<text text-anchor="start" x="4" y="-7" font-family="Helvetica,sans-Serif" font-size="10.00">+</text>
<text text-anchor="start" x="15" y="-7" font-family="Helvetica,sans-Serif" font-size="10.00">certificate_check_result()</text>
<polygon fill="#666666" stroke="#666666" points="0,-62 0,-62 130,-62 130,-62 0,-62"/>
<polygon fill="#666666" stroke="#666666" points="0,-47 0,-47 13,-47 13,-47 0,-47"/>
<polygon fill="#666666" stroke="#666666" points="13,-47 13,-47 130,-47 130,-47 13,-47"/>
<polygon fill="none" stroke="#666666" points="0,0 0,-90 130,-90 130,0 0,0"/>
</a>
</g>
</g>
<!-- Node2 -->
<g id="Node000002" class="node">
<title>Node2</title>
<g id="a_Node000002"><a xlink:href="../../d0/d13/classvanetza_1_1security_1_1v2_1_1CertificateValidator.html" target="_top" xlink:title=" ">
<polygon fill="white" stroke="transparent" points="122.5,-201 7.5,-201 7.5,-126 122.5,-126 122.5,-201"/>
<text text-anchor="start" x="15.5" y="-188.5" font-family="Helvetica,sans-Serif" font-size="10.00">vanetza::security::</text>
<text text-anchor="start" x="15.5" y="-177.5" font-family="Helvetica,sans-Serif" font-size="10.00">v2::CertificateValidator</text>
<text text-anchor="start" x="63.5" y="-162.5" font-family="Helvetica,sans-Serif" font-size="10.00"> </text>
<text text-anchor="start" x="12" y="-147.5" font-family="Helvetica,sans-Serif" font-size="10.00">+</text>
<text text-anchor="start" x="23" y="-147.5" font-family="Helvetica,sans-Serif" font-size="10.00">check_certificate()</text>
<text text-anchor="start" x="12" y="-132.5" font-family="Helvetica,sans-Serif" font-size="10.00">+</text>
<text text-anchor="start" x="23" y="-132.5" font-family="Helvetica,sans-Serif" font-size="10.00">~CertificateValidator()</text>
<polygon fill="#bfbfbf" stroke="#bfbfbf" points="8,-172.5 8,-172.5 123,-172.5 123,-172.5 8,-172.5"/>
<polygon fill="#bfbfbf" stroke="#bfbfbf" points="8,-157.5 8,-157.5 123,-157.5 123,-157.5 8,-157.5"/>
<polygon fill="none" stroke="#bfbfbf" points="7.5,-126 7.5,-201 122.5,-201 122.5,-126 7.5,-126"/>
</a>
</g>
</g>
<!-- Node2&#45;&gt;Node1 -->
<g id="edge1_Node000001_Node000002" class="edge">
<title>Node2&#45;&gt;Node1</title>
<g id="a_edge1_Node000001_Node000002"><a xlink:title=" ">
<path fill="none" stroke="#63b8ff" d="M65,-115.85C65,-107.38 65,-98.58 65,-90.18"/>
<polygon fill="none" stroke="#63b8ff" points="61.5,-115.96 65,-125.96 68.5,-115.96 61.5,-115.96"/>
</a>
</g>
</g>
</g>
</svg>
