<?xml version="1.0" encoding="UTF-8" standalone="no"?>
<!DOCTYPE svg PUBLIC "-//W3C//DTD SVG 1.1//EN"
 "http://www.w3.org/Graphics/SVG/1.1/DTD/svg11.dtd">
<!-- Generated by graphviz version 2.49.3 (0)
 -->
<!-- Title: vanetza::dcc::Active Pages: 1 -->
<svg width="126pt" height="232pt"
 viewBox="0.00 0.00 126.00 232.00" xmlns="http://www.w3.org/2000/svg" xmlns:xlink="http://www.w3.org/1999/xlink">

<svg id="main" version="1.1" xmlns="http://www.w3.org/2000/svg" xmlns:xlink="http://www.w3.org/1999/xlink" xml:space="preserve">

<style type="text/css"><![CDATA[
.node, .edge {opacity: 0.7;}
.node.selected, .edge.selected {opacity: 1;}
.edge:hover path { stroke: red; }
.edge:hover polygon { stroke: red; fill: red; }
]]></style>
<script type="application/ecmascript" xlink:href="../../svg.min.js"/>
<svg id="graph" class="graph">
<g id="graph0" class="graph" transform="scale(1 1) rotate(0) translate(4 228)">
<title>vanetza::dcc::Active</title>
<!-- Node1 -->
<g id="Node000001" class="node">
<title>Node1</title>
<g id="a_Node000001"><a xlink:title=" ">
<polygon fill="#999999" stroke="transparent" points="118,-109 0,-109 0,0 118,0 118,-109"/>
<text text-anchor="start" x="14.5" y="-96.5" font-family="Helvetica,sans-Serif" font-size="10.00">vanetza::dcc::Active</text>
<text text-anchor="start" x="5.5" y="-81.5" font-family="Helvetica,sans-Serif" font-size="10.00">&#45;</text>
<text text-anchor="start" x="15" y="-81.5" font-family="Helvetica,sans-Serif" font-size="10.00">m_substate</text>
<text text-anchor="start" x="5.5" y="-66.5" font-family="Helvetica,sans-Serif" font-size="10.00">&#45;</text>
<text text-anchor="start" x="15" y="-66.5" font-family="Helvetica,sans-Serif" font-size="10.00">sc_substates</text>
<text text-anchor="start" x="4" y="-51.5" font-family="Helvetica,sans-Serif" font-size="10.00">+</text>
<text text-anchor="start" x="15" y="-51.5" font-family="Helvetica,sans-Serif" font-size="10.00">Active()</text>
<text text-anchor="start" x="4" y="-36.5" font-family="Helvetica,sans-Serif" font-size="10.00">+</text>
<text text-anchor="start" x="15" y="-36.5" font-family="Helvetica,sans-Serif" font-size="10.00">update()</text>
<text text-anchor="start" x="4" y="-21.5" font-family="Helvetica,sans-Serif" font-size="10.00">+</text>
<text text-anchor="start" x="15" y="-21.5" font-family="Helvetica,sans-Serif" font-size="10.00">transmission_interval()</text>
<text text-anchor="start" x="4" y="-6.5" font-family="Helvetica,sans-Serif" font-size="10.00">+</text>
<text text-anchor="start" x="15" y="-6.5" font-family="Helvetica,sans-Serif" font-size="10.00">name()</text>
<polygon fill="#666666" stroke="#666666" points="0,-91.5 0,-91.5 118,-91.5 118,-91.5 0,-91.5"/>
<polygon fill="#666666" stroke="#666666" points="0,-61.5 0,-61.5 13,-61.5 13,-61.5 0,-61.5"/>
<polygon fill="#666666" stroke="#666666" points="13,-61.5 13,-61.5 118,-61.5 118,-61.5 13,-61.5"/>
<polygon fill="none" stroke="#666666" points="0,0 0,-109 118,-109 118,0 0,0"/>
</a>
</g>
</g>
<!-- Node2 -->
<g id="Node000002" class="node">
<title>Node2</title>
<g id="a_Node000002"><a xlink:href="../../d9/d97/classvanetza_1_1dcc_1_1State.html" target="_top" xlink:title=" ">
<polygon fill="white" stroke="transparent" points="118,-224 0,-224 0,-145 118,-145 118,-224"/>
<text text-anchor="start" x="16.5" y="-211.5" font-family="Helvetica,sans-Serif" font-size="10.00">vanetza::dcc::State</text>
<text text-anchor="start" x="57" y="-196.5" font-family="Helvetica,sans-Serif" font-size="10.00"> </text>
<text text-anchor="start" x="4" y="-181.5" font-family="Helvetica,sans-Serif" font-size="10.00">+</text>
<text text-anchor="start" x="15" y="-181.5" font-family="Helvetica,sans-Serif" font-size="10.00">transmission_interval()</text>
<text text-anchor="start" x="4" y="-166.5" font-family="Helvetica,sans-Serif" font-size="10.00">+</text>
<text text-anchor="start" x="15" y="-166.5" font-family="Helvetica,sans-Serif" font-size="10.00">name()</text>
<text text-anchor="start" x="4" y="-151.5" font-family="Helvetica,sans-Serif" font-size="10.00">+</text>
<text text-anchor="start" x="15" y="-151.5" font-family="Helvetica,sans-Serif" font-size="10.00">~State()</text>
<polygon fill="#bfbfbf" stroke="#bfbfbf" points="0,-206.5 0,-206.5 118,-206.5 118,-206.5 0,-206.5"/>
<polygon fill="#bfbfbf" stroke="#bfbfbf" points="0,-191.5 0,-191.5 118,-191.5 118,-191.5 0,-191.5"/>
<polygon fill="none" stroke="#bfbfbf" points="0,-145 0,-224 118,-224 118,-145 0,-145"/>
</a>
</g>
</g>
<!-- Node2&#45;&gt;Node1 -->
<g id="edge1_Node000001_Node000002" class="edge">
<title>Node2&#45;&gt;Node1</title>
<g id="a_edge1_Node000001_Node000002"><a xlink:title=" ">
<path fill="none" stroke="#63b8ff" d="M59,-134.51C59,-126.24 59,-117.62 59,-109.23"/>
<polygon fill="none" stroke="#63b8ff" points="55.5,-134.75 59,-144.75 62.5,-134.75 55.5,-134.75"/>
</a>
</g>
</g>
</g>
</svg>
</svg>

<style type='text/css'>
<![CDATA[
[data-mouse-over-selected='false'] { opacity: 0.7; }
[data-mouse-over-selected='true']  { opacity: 1.0; }
]]>
</style>
<script type="application/ecmascript"><![CDATA[
document.addEventListener('DOMContentLoaded', (event) => {
  highlightEdges();
  highlightAdjacentNodes();
});
]]></script>
</svg>
