<?xml version="1.0" encoding="UTF-8" standalone="no"?>
<!DOCTYPE svg PUBLIC "-//W3C//DTD SVG 1.1//EN"
 "http://www.w3.org/Graphics/SVG/1.1/DTD/svg11.dtd">
<!-- Generated by graphviz version 14.1.2 (0)
 -->
<!-- Title: vanetza::dcc::Active Pages: 1 -->
<svg width="142pt" height="253pt"
 viewBox="0.00 0.00 142.00 253.00" xmlns="http://www.w3.org/2000/svg" xmlns:xlink="http://www.w3.org/1999/xlink">
<g id="graph0" class="graph" transform="scale(1 1) rotate(0) translate(4 249)">
<title>vanetza::dcc::Active</title>
<!-- Node1 -->
<g id="Node000001" class="node">
<title>Node1</title>
<g id="a_Node000001"><a xlink:title=" ">
<polygon fill="#999999" stroke="none" points="133.5,-121.25 0,-121.25 0,0 133.5,0 133.5,-121.25"/>
<text xml:space="preserve" text-anchor="start" x="17.62" y="-107.75" font-family="Helvetica,sans-Serif" font-size="10.00">vanetza::dcc::Active</text>
<text xml:space="preserve" text-anchor="start" x="6.25" y="-91" font-family="Helvetica,sans-Serif" font-size="10.00">&#45;</text>
<text xml:space="preserve" text-anchor="start" x="16.25" y="-91" font-family="Helvetica,sans-Serif" font-size="10.00">m_substate</text>
<text xml:space="preserve" text-anchor="start" x="6.25" y="-74.25" font-family="Helvetica,sans-Serif" font-size="10.00">&#45;</text>
<text xml:space="preserve" text-anchor="start" x="16.25" y="-74.25" font-family="Helvetica,sans-Serif" font-size="10.00">sc_substates</text>
<text xml:space="preserve" text-anchor="start" x="4" y="-57.5" font-family="Helvetica,sans-Serif" font-size="10.00">+</text>
<text xml:space="preserve" text-anchor="start" x="16.25" y="-57.5" font-family="Helvetica,sans-Serif" font-size="10.00">Active()</text>
<text xml:space="preserve" text-anchor="start" x="4" y="-40.75" font-family="Helvetica,sans-Serif" font-size="10.00">+</text>
<text xml:space="preserve" text-anchor="start" x="16.25" y="-40.75" font-family="Helvetica,sans-Serif" font-size="10.00">update()</text>
<text xml:space="preserve" text-anchor="start" x="4" y="-24" font-family="Helvetica,sans-Serif" font-size="10.00">+</text>
<text xml:space="preserve" text-anchor="start" x="16.25" y="-24" font-family="Helvetica,sans-Serif" font-size="10.00">transmission_interval()</text>
<text xml:space="preserve" text-anchor="start" x="4" y="-7.25" font-family="Helvetica,sans-Serif" font-size="10.00">+</text>
<text xml:space="preserve" text-anchor="start" x="16.25" y="-7.25" font-family="Helvetica,sans-Serif" font-size="10.00">name()</text>
<polygon fill="#666666" stroke="#666666" points="0,-102.5 0,-102.5 133.5,-102.5 133.5,-102.5 0,-102.5"/>
<polygon fill="#666666" stroke="#666666" points="0,-69 0,-69 14.25,-69 14.25,-69 0,-69"/>
<polygon fill="#666666" stroke="#666666" points="14.25,-69 14.25,-69 133.5,-69 133.5,-69 14.25,-69"/>
<polygon fill="none" stroke="#666666" points="0,0 0,-121.25 133.5,-121.25 133.5,0 0,0"/>
</a>
</g>
</g>
<!-- Node2 -->
<g id="Node000002" class="node">
<title>Node2</title>
<g id="a_Node000002"><a xlink:href="../../d9/d97/classvanetza_1_1dcc_1_1State.html" target="_top" xlink:title=" ">
<polygon fill="white" stroke="none" points="133.5,-245 0,-245 0,-157.25 133.5,-157.25 133.5,-245"/>
<text xml:space="preserve" text-anchor="start" x="20.25" y="-231.5" font-family="Helvetica,sans-Serif" font-size="10.00">vanetza::dcc::State</text>
<text xml:space="preserve" text-anchor="start" x="65.25" y="-214.75" font-family="Helvetica,sans-Serif" font-size="10.00"> </text>
<text xml:space="preserve" text-anchor="start" x="4" y="-198" font-family="Helvetica,sans-Serif" font-size="10.00">+</text>
<text xml:space="preserve" text-anchor="start" x="16.25" y="-198" font-family="Helvetica,sans-Serif" font-size="10.00">transmission_interval()</text>
<text xml:space="preserve" text-anchor="start" x="4" y="-181.25" font-family="Helvetica,sans-Serif" font-size="10.00">+</text>
<text xml:space="preserve" text-anchor="start" x="16.25" y="-181.25" font-family="Helvetica,sans-Serif" font-size="10.00">name()</text>
<text xml:space="preserve" text-anchor="start" x="4" y="-164.5" font-family="Helvetica,sans-Serif" font-size="10.00">+</text>
<text xml:space="preserve" text-anchor="start" x="16.25" y="-164.5" font-family="Helvetica,sans-Serif" font-size="10.00">~State()</text>
<polygon fill="#bfbfbf" stroke="#bfbfbf" points="0,-226.25 0,-226.25 133.5,-226.25 133.5,-226.25 0,-226.25"/>
<polygon fill="#bfbfbf" stroke="#bfbfbf" points="0,-209.5 0,-209.5 133.5,-209.5 133.5,-209.5 0,-209.5"/>
<polygon fill="none" stroke="#bfbfbf" points="0,-157.25 0,-245 133.5,-245 133.5,-157.25 0,-157.25"/>
</a>
</g>
</g>
<!-- Node2&#45;&gt;Node1 -->
<g id="edge1_Node000001_Node000002" class="edge">
<title>Node2&#45;&gt;Node1</title>
<g id="a_edge1_Node000001_Node000002"><a xlink:title=" ">
<path fill="none" stroke="#63b8ff" d="M66.75,-146.14C66.75,-137.97 66.75,-129.51 66.75,-121.23"/>
<polygon fill="none" stroke="#63b8ff" points="63.25,-145.93 66.75,-155.93 70.25,-145.93 63.25,-145.93"/>
</a>
</g>
</g>
</g>
</svg>
