<?xml version="1.0" encoding="UTF-8" standalone="no"?>
<!DOCTYPE svg PUBLIC "-//W3C//DTD SVG 1.1//EN"
 "http://www.w3.org/Graphics/SVG/1.1/DTD/svg11.dtd">
<!-- Generated by graphviz version 2.49.3 (0)
 -->
<!-- Title: vanetza::security::v2::IntX Pages: 1 -->
<svg width="284pt" height="269pt"
 viewBox="0.00 0.00 284.00 269.00" xmlns="http://www.w3.org/2000/svg" xmlns:xlink="http://www.w3.org/1999/xlink">

<svg id="main" version="1.1" xmlns="http://www.w3.org/2000/svg" xmlns:xlink="http://www.w3.org/1999/xlink" xml:space="preserve">

<style type="text/css"><![CDATA[
.node, .edge {opacity: 0.7;}
.node.selected, .edge.selected {opacity: 1;}
.edge:hover path { stroke: red; }
.edge:hover polygon { stroke: red; fill: red; }
]]></style>
<script type="application/ecmascript" xlink:href="../../svg.min.js"/>
<svg id="graph" class="graph">
<g id="graph0" class="graph" transform="scale(1 1) rotate(0) translate(4 265)">
<title>vanetza::security::v2::IntX</title>
<!-- Node1 -->
<g id="Node000001" class="node">
<title>Node1</title>
<g id="a_Node000001"><a xlink:title="IntX specified in TS 103 097 v1.2.1, section 4.2.1.">
<polygon fill="#999999" stroke="transparent" points="182.5,-165 92.5,-165 92.5,0 182.5,0 182.5,-165"/>
<text text-anchor="start" x="97.5" y="-152.5" font-family="Helvetica,sans-Serif" font-size="10.00">vanetza::security::</text>
<text text-anchor="start" x="120" y="-141.5" font-family="Helvetica,sans-Serif" font-size="10.00">v2::IntX</text>
<text text-anchor="start" x="102" y="-126.5" font-family="Helvetica,sans-Serif" font-size="10.00">&#45;</text>
<text text-anchor="start" x="115.5" y="-126.5" font-family="Helvetica,sans-Serif" font-size="10.00">m_value</text>
<text text-anchor="start" x="100.5" y="-111.5" font-family="Helvetica,sans-Serif" font-size="10.00">+</text>
<text text-anchor="start" x="115.5" y="-111.5" font-family="Helvetica,sans-Serif" font-size="10.00">IntX()</text>
<text text-anchor="start" x="100.5" y="-96.5" font-family="Helvetica,sans-Serif" font-size="10.00">+</text>
<text text-anchor="start" x="115.5" y="-96.5" font-family="Helvetica,sans-Serif" font-size="10.00">IntX()</text>
<text text-anchor="start" x="100.5" y="-81.5" font-family="Helvetica,sans-Serif" font-size="10.00">+</text>
<text text-anchor="start" x="115.5" y="-81.5" font-family="Helvetica,sans-Serif" font-size="10.00">set()</text>
<text text-anchor="start" x="100.5" y="-66.5" font-family="Helvetica,sans-Serif" font-size="10.00">+</text>
<text text-anchor="start" x="115.5" y="-66.5" font-family="Helvetica,sans-Serif" font-size="10.00">get()</text>
<text text-anchor="start" x="100.5" y="-51.5" font-family="Helvetica,sans-Serif" font-size="10.00">+</text>
<text text-anchor="start" x="115.5" y="-51.5" font-family="Helvetica,sans-Serif" font-size="10.00">operator==()</text>
<text text-anchor="start" x="100.5" y="-36.5" font-family="Helvetica,sans-Serif" font-size="10.00">+</text>
<text text-anchor="start" x="115.5" y="-36.5" font-family="Helvetica,sans-Serif" font-size="10.00">operator==()</text>
<text text-anchor="start" x="100.5" y="-21.5" font-family="Helvetica,sans-Serif" font-size="10.00">+</text>
<text text-anchor="start" x="115.5" y="-21.5" font-family="Helvetica,sans-Serif" font-size="10.00">encode()</text>
<text text-anchor="start" x="100.5" y="-6.5" font-family="Helvetica,sans-Serif" font-size="10.00">+</text>
<text text-anchor="start" x="115.5" y="-6.5" font-family="Helvetica,sans-Serif" font-size="10.00">decode()</text>
<polygon fill="#666666" stroke="#666666" points="92.5,-136.5 92.5,-136.5 182.5,-136.5 182.5,-136.5 92.5,-136.5"/>
<polygon fill="#666666" stroke="#666666" points="92.5,-121.5 92.5,-121.5 113.5,-121.5 113.5,-121.5 92.5,-121.5"/>
<polygon fill="#666666" stroke="#666666" points="113.5,-121.5 113.5,-121.5 182.5,-121.5 182.5,-121.5 113.5,-121.5"/>
<polygon fill="none" stroke="#666666" points="92.5,0 92.5,-165 182.5,-165 182.5,0 92.5,0"/>
</a>
</g>
</g>
<!-- Node2 -->
<g id="Node000002" class="node">
<title>Node2</title>
<g id="a_Node000002"><a xlink:title=" ">
<polygon fill="white" stroke="transparent" points="129,-261 0,-261 0,-201 129,-201 129,-261"/>
<text text-anchor="start" x="5.5" y="-249" font-family="Helvetica,sans-Serif" font-size="10.00">boost::equality_comparable</text>
<text text-anchor="start" x="46.5" y="-238" font-family="Helvetica,sans-Serif" font-size="10.00">&lt; IntX &gt;</text>
<text text-anchor="start" x="63" y="-223" font-family="Helvetica,sans-Serif" font-size="10.00"> </text>
<text text-anchor="start" x="63" y="-208" font-family="Helvetica,sans-Serif" font-size="10.00"> </text>
<polygon fill="#bfbfbf" stroke="#bfbfbf" points="0.5,-233 0.5,-233 129.5,-233 129.5,-233 0.5,-233"/>
<polygon fill="#bfbfbf" stroke="#bfbfbf" points="0.5,-218 0.5,-218 129.5,-218 129.5,-218 0.5,-218"/>
<polygon fill="none" stroke="#bfbfbf" points="0,-201 0,-261 129,-261 129,-201 0,-201"/>
</a>
</g>
</g>
<!-- Node2&#45;&gt;Node1 -->
<g id="edge1_Node000001_Node000002" class="edge">
<title>Node2&#45;&gt;Node1</title>
<g id="a_edge1_Node000001_Node000002"><a xlink:title=" ">
<path fill="none" stroke="#63b8ff" d="M83.56,-191.75C87.67,-183.5 92.17,-174.48 96.76,-165.27"/>
<polygon fill="none" stroke="#63b8ff" points="80.42,-190.19 79.1,-200.71 86.69,-193.32 80.42,-190.19"/>
</a>
</g>
</g>
<!-- Node3 -->
<g id="Node000003" class="node">
<title>Node3</title>
<g id="a_Node000003"><a xlink:title=" ">
<polygon fill="white" stroke="transparent" points="276,-261 147,-261 147,-201 276,-201 276,-261"/>
<text text-anchor="start" x="152.5" y="-249" font-family="Helvetica,sans-Serif" font-size="10.00">boost::equality_comparable</text>
<text text-anchor="start" x="159.5" y="-238" font-family="Helvetica,sans-Serif" font-size="10.00">&lt; IntX, std::uintmax_t &gt;</text>
<text text-anchor="start" x="210" y="-223" font-family="Helvetica,sans-Serif" font-size="10.00"> </text>
<text text-anchor="start" x="210" y="-208" font-family="Helvetica,sans-Serif" font-size="10.00"> </text>
<polygon fill="#bfbfbf" stroke="#bfbfbf" points="147.5,-233 147.5,-233 276.5,-233 276.5,-233 147.5,-233"/>
<polygon fill="#bfbfbf" stroke="#bfbfbf" points="147.5,-218 147.5,-218 276.5,-218 276.5,-218 147.5,-218"/>
<polygon fill="none" stroke="#bfbfbf" points="147,-201 147,-261 276,-261 276,-201 147,-201"/>
</a>
</g>
</g>
<!-- Node3&#45;&gt;Node1 -->
<g id="edge2_Node000001_Node000003" class="edge">
<title>Node3&#45;&gt;Node1</title>
<g id="a_edge2_Node000001_Node000003"><a xlink:title=" ">
<path fill="none" stroke="#63b8ff" d="M192.18,-191.75C188.01,-183.5 183.45,-174.48 178.8,-165.27"/>
<polygon fill="none" stroke="#63b8ff" points="189.07,-193.36 196.7,-200.71 195.32,-190.2 189.07,-193.36"/>
</a>
</g>
</g>
</g>
</svg>
</svg>

<style type='text/css'>
<![CDATA[
[data-mouse-over-selected='false'] { opacity: 0.7; }
[data-mouse-over-selected='true']  { opacity: 1.0; }
]]>
</style>
<script type="application/ecmascript"><![CDATA[
document.addEventListener('DOMContentLoaded', (event) => {
  highlightEdges();
  highlightAdjacentNodes();
});
]]></script>
</svg>
