<?xml version="1.0" encoding="UTF-8" standalone="no"?>
<!DOCTYPE svg PUBLIC "-//W3C//DTD SVG 1.1//EN"
 "http://www.w3.org/Graphics/SVG/1.1/DTD/svg11.dtd">
<!-- Generated by graphviz version 2.49.3 (0)
 -->
<!-- Title: vanetza::security::v2::IntX Pages: 1 -->
<svg width="296pt" height="259pt"
 viewBox="0.00 0.00 296.00 259.00" xmlns="http://www.w3.org/2000/svg" xmlns:xlink="http://www.w3.org/1999/xlink">
<g id="graph0" class="graph" transform="scale(1 1) rotate(0) translate(4 255)">
<title>vanetza::security::v2::IntX</title>
<polygon fill="white" stroke="transparent" points="-4,4 -4,-255 292,-255 292,4 -4,4"/>
<!-- Node1 -->
<g id="node1" class="node">
<title>Node1</title>
<g id="a_node1"><a xlink:title="IntX specified in TS 103 097 v1.2.1, section 4.2.1.">
<polygon fill="#bfbfbf" stroke="black" points="95.5,-0.5 95.5,-145.5 191.5,-145.5 191.5,-0.5 95.5,-0.5"/>
<text text-anchor="start" x="103.5" y="-133.5" font-family="Helvetica,sans-Serif" font-size="10.00">vanetza::security::</text>
<text text-anchor="middle" x="143.5" y="-122.5" font-family="Helvetica,sans-Serif" font-size="10.00">v2::IntX</text>
<polyline fill="none" stroke="black" points="95.5,-115.5 191.5,-115.5 "/>
<text text-anchor="start" x="103.5" y="-103.5" font-family="Helvetica,sans-Serif" font-size="10.00">&#45; m_value</text>
<polyline fill="none" stroke="black" points="95.5,-96.5 191.5,-96.5 "/>
<text text-anchor="start" x="103.5" y="-84.5" font-family="Helvetica,sans-Serif" font-size="10.00">+ IntX()</text>
<text text-anchor="start" x="103.5" y="-73.5" font-family="Helvetica,sans-Serif" font-size="10.00">+ IntX()</text>
<text text-anchor="start" x="103.5" y="-62.5" font-family="Helvetica,sans-Serif" font-size="10.00">+ set()</text>
<text text-anchor="start" x="103.5" y="-51.5" font-family="Helvetica,sans-Serif" font-size="10.00">+ get()</text>
<text text-anchor="start" x="103.5" y="-40.5" font-family="Helvetica,sans-Serif" font-size="10.00">+ operator==()</text>
<text text-anchor="start" x="103.5" y="-29.5" font-family="Helvetica,sans-Serif" font-size="10.00">+ operator==()</text>
<text text-anchor="start" x="103.5" y="-18.5" font-family="Helvetica,sans-Serif" font-size="10.00">+ encode()</text>
<text text-anchor="start" x="103.5" y="-7.5" font-family="Helvetica,sans-Serif" font-size="10.00">+ decode()</text>
</a>
</g>
</g>
<!-- Node2 -->
<g id="node2" class="node">
<title>Node2</title>
<g id="a_node2"><a xlink:title=" ">
<polygon fill="white" stroke="#bfbfbf" points="0,-182.5 0,-250.5 135,-250.5 135,-182.5 0,-182.5"/>
<text text-anchor="start" x="8" y="-238.5" font-family="Helvetica,sans-Serif" font-size="10.00">boost::equality_comparable</text>
<text text-anchor="middle" x="67.5" y="-227.5" font-family="Helvetica,sans-Serif" font-size="10.00">&lt; IntX &gt;</text>
<polyline fill="none" stroke="#bfbfbf" points="0,-220.5 135,-220.5 "/>
<text text-anchor="middle" x="67.5" y="-208.5" font-family="Helvetica,sans-Serif" font-size="10.00"> </text>
<polyline fill="none" stroke="#bfbfbf" points="0,-201.5 135,-201.5 "/>
<text text-anchor="middle" x="67.5" y="-189.5" font-family="Helvetica,sans-Serif" font-size="10.00"> </text>
</a>
</g>
</g>
<!-- Node2&#45;&gt;Node1 -->
<g id="edge1" class="edge">
<title>Node2&#45;&gt;Node1</title>
<path fill="none" stroke="midnightblue" d="M90.07,-173.48C94.77,-164.72 99.86,-155.26 104.95,-145.77"/>
<polygon fill="none" stroke="midnightblue" points="86.97,-171.86 85.32,-182.32 93.13,-175.17 86.97,-171.86"/>
</g>
<!-- Node3 -->
<g id="node3" class="node">
<title>Node3</title>
<g id="a_node3"><a xlink:title=" ">
<polygon fill="white" stroke="#bfbfbf" points="153,-182.5 153,-250.5 288,-250.5 288,-182.5 153,-182.5"/>
<text text-anchor="start" x="161" y="-238.5" font-family="Helvetica,sans-Serif" font-size="10.00">boost::equality_comparable</text>
<text text-anchor="middle" x="220.5" y="-227.5" font-family="Helvetica,sans-Serif" font-size="10.00">&lt; IntX, std::uintmax_t &gt;</text>
<polyline fill="none" stroke="#bfbfbf" points="153,-220.5 288,-220.5 "/>
<text text-anchor="middle" x="220.5" y="-208.5" font-family="Helvetica,sans-Serif" font-size="10.00"> </text>
<polyline fill="none" stroke="#bfbfbf" points="153,-201.5 288,-201.5 "/>
<text text-anchor="middle" x="220.5" y="-189.5" font-family="Helvetica,sans-Serif" font-size="10.00"> </text>
</a>
</g>
</g>
<!-- Node3&#45;&gt;Node1 -->
<g id="edge2" class="edge">
<title>Node3&#45;&gt;Node1</title>
<path fill="none" stroke="midnightblue" d="M197.64,-173.48C192.87,-164.72 187.72,-155.26 182.55,-145.77"/>
<polygon fill="none" stroke="midnightblue" points="194.59,-175.21 202.45,-182.32 200.74,-171.87 194.59,-175.21"/>
</g>
</g>
</svg>
