<?xml version="1.0" encoding="UTF-8" standalone="no"?>
<!DOCTYPE svg PUBLIC "-//W3C//DTD SVG 1.1//EN"
 "http://www.w3.org/Graphics/SVG/1.1/DTD/svg11.dtd">
<!-- Generated by graphviz version 14.1.2 (0)
 -->
<!-- Title: vanetza::security::SignService Pages: 1 -->
<!--zoomable 262 -->

<svg id="main" version="1.1" xmlns="http://www.w3.org/2000/svg" xmlns:xlink="http://www.w3.org/1999/xlink" xml:space="preserve" onload="init(evt)">

<style type="text/css"><![CDATA[
.node, .edge {opacity: 0.7;}
.node.selected, .edge.selected {opacity: 1;}
.edge:hover path { stroke: red; }
.edge:hover polygon { stroke: red; fill: red; }
]]></style>

<defs>
  <circle id="rim" cx="0" cy="0" r="7"/>
  <circle id="rim2" cx="0" cy="0" r="3.5"/>
  <g id="zoomPlus">
    <use xlink:href="#rim" fill="#404040"><set attributeName="fill" to="#808080" begin="zoomplus.mouseover" end="zoomplus.mouseout"/></use>
    <path d="M-4,0h8M0,-4v8" fill="none" stroke="white" stroke-width="1.5" pointer-events="none"/>
  </g>
  <g id="zoomMin">
    <use xlink:href="#rim" fill="#404040"><set attributeName="fill" to="#808080" begin="zoomminus.mouseover" end="zoomminus.mouseout"/></use>
    <path d="M-4,0h8" fill="none" stroke="white" stroke-width="1.5" pointer-events="none"/>
  </g>
  <g id="arrowUp" transform="translate(30 24)">
    <use xlink:href="#rim"/>
    <path pointer-events="none" fill="none" stroke="white" stroke-width="1.5" d="M0,-3.0v7 M-2.5,-0.5L0,-3.0L2.5,-0.5"/>
  </g>
  <g id="arrowRight" transform="rotate(90) translate(36 -43)">
    <use xlink:href="#rim"/>
    <path pointer-events="none" fill="none" stroke="white" stroke-width="1.5" d="M0,-3.0v7 M-2.5,-0.5L0,-3.0L2.5,-0.5"/>
  </g>
  <g id="arrowDown" transform="rotate(180) translate(-30 -48)">
    <use xlink:href="#rim"/>
    <path pointer-events="none" fill="none" stroke="white" stroke-width="1.5" d="M0,-3.0v7 M-2.5,-0.5L0,-3.0L2.5,-0.5"/>
  </g>
  <g id="arrowLeft" transform="rotate(270) translate(-36 17)">
    <use xlink:href="#rim"/>
    <path pointer-events="none" fill="none" stroke="white" stroke-width="1.5" d="M0,-3.0v7 M-2.5,-0.5L0,-3.0L2.5,-0.5"/>
  </g>
  <g id="resetDef">
    <use xlink:href="#rim2" fill="#404040"><set attributeName="fill" to="#808080" begin="reset.mouseover" end="reset.mouseout"/></use>
  </g>
</defs>
<script type="application/ecmascript">
var viewWidth = 700;
var viewHeight = 262;
var sectionId = 'dynsection-0';
</script>
<script type="application/ecmascript" xlink:href="../../svg.min.js"/>
<svg id="graph" class="graph">
<g id="viewport">
<title>vanetza::security::SignService</title>
<!-- Node1 -->
<g id="Node000001" class="node">
<title>Node1</title>
<g id="a_Node000001"><a xlink:title=" ">
<polygon fill="#999999" stroke="none" points="397.38,-253.75 300.12,-253.75 300.12,-170 397.38,-170 397.38,-253.75"/>
<text xml:space="preserve" text-anchor="start" x="304.12" y="-240.25" font-family="Helvetica,sans-Serif" font-size="10.00">vanetza::security::</text>
<text xml:space="preserve" text-anchor="start" x="320.25" y="-227.5" font-family="Helvetica,sans-Serif" font-size="10.00">SignService</text>
<text xml:space="preserve" text-anchor="start" x="347.25" y="-210.75" font-family="Helvetica,sans-Serif" font-size="10.00"> </text>
<text xml:space="preserve" text-anchor="start" x="305.19" y="-194" font-family="Helvetica,sans-Serif" font-size="10.00">+</text>
<text xml:space="preserve" text-anchor="start" x="318.5" y="-194" font-family="Helvetica,sans-Serif" font-size="10.00">~SignService()</text>
<text xml:space="preserve" text-anchor="start" x="305.19" y="-177.25" font-family="Helvetica,sans-Serif" font-size="10.00">+</text>
<text xml:space="preserve" text-anchor="start" x="318.5" y="-177.25" font-family="Helvetica,sans-Serif" font-size="10.00">sign()</text>
<polygon fill="#666666" stroke="#666666" points="300.12,-222.25 300.12,-222.25 397.38,-222.25 397.38,-222.25 300.12,-222.25"/>
<polygon fill="#666666" stroke="#666666" points="300.12,-205.5 300.12,-205.5 397.38,-205.5 397.38,-205.5 300.12,-205.5"/>
<polygon fill="none" stroke="#666666" points="300.12,-170 300.12,-253.75 397.38,-253.75 397.38,-170 300.12,-170"/>
</a>
</g>
</g>
<!-- Node2 -->
<g id="Node000002" class="node">
<title>Node2</title>
<g id="a_Node000002"><a xlink:href="../../d3/d37/classvanetza_1_1security_1_1v2_1_1DeferredSignService.html" target="_top" xlink:title=" ">
<polygon fill="white" stroke="none" points="127.5,-125.62 0,-125.62 0,-8.37 127.5,-8.37 127.5,-125.62"/>
<text xml:space="preserve" text-anchor="start" x="4.88" y="-112.12" font-family="Helvetica,sans-Serif" font-size="10.00">vanetza::security::</text>
<text xml:space="preserve" text-anchor="start" x="4.88" y="-99.38" font-family="Helvetica,sans-Serif" font-size="10.00">v2::DeferredSignService</text>
<text xml:space="preserve" text-anchor="start" x="6.25" y="-82.62" font-family="Helvetica,sans-Serif" font-size="10.00">&#45;</text>
<text xml:space="preserve" text-anchor="start" x="16.25" y="-82.62" font-family="Helvetica,sans-Serif" font-size="10.00">m_certificates</text>
<text xml:space="preserve" text-anchor="start" x="6.25" y="-65.88" font-family="Helvetica,sans-Serif" font-size="10.00">&#45;</text>
<text xml:space="preserve" text-anchor="start" x="16.25" y="-65.88" font-family="Helvetica,sans-Serif" font-size="10.00">m_backend</text>
<text xml:space="preserve" text-anchor="start" x="6.25" y="-49.12" font-family="Helvetica,sans-Serif" font-size="10.00">&#45;</text>
<text xml:space="preserve" text-anchor="start" x="16.25" y="-49.12" font-family="Helvetica,sans-Serif" font-size="10.00">m_policy</text>
<text xml:space="preserve" text-anchor="start" x="4" y="-32.38" font-family="Helvetica,sans-Serif" font-size="10.00">+</text>
<text xml:space="preserve" text-anchor="start" x="16.25" y="-32.38" font-family="Helvetica,sans-Serif" font-size="10.00">DeferredSignService()</text>
<text xml:space="preserve" text-anchor="start" x="4" y="-15.62" font-family="Helvetica,sans-Serif" font-size="10.00">+</text>
<text xml:space="preserve" text-anchor="start" x="16.25" y="-15.62" font-family="Helvetica,sans-Serif" font-size="10.00">sign()</text>
<polygon fill="#666666" stroke="#666666" points="0,-94.12 0,-94.12 127.5,-94.12 127.5,-94.12 0,-94.12"/>
<polygon fill="#666666" stroke="#666666" points="0,-43.88 0,-43.88 14.25,-43.88 14.25,-43.88 0,-43.88"/>
<polygon fill="#666666" stroke="#666666" points="14.25,-43.88 14.25,-43.88 127.5,-43.88 127.5,-43.88 14.25,-43.88"/>
<polygon fill="none" stroke="#666666" points="0,-8.38 0,-125.62 127.5,-125.62 127.5,-8.38 0,-8.38"/>
</a>
</g>
</g>
<!-- Node1&#45;&gt;Node2 -->
<g id="edge1_Node000001_Node000002" class="edge">
<title>Node1&#45;&gt;Node2</title>
<g id="a_edge1_Node000001_Node000002"><a xlink:title=" ">
<path fill="none" stroke="#63b8ff" d="M289.67,-196.12C245.55,-183.56 184.84,-162.93 136.75,-134 132.36,-131.36 127.99,-128.43 123.71,-125.32"/>
<polygon fill="none" stroke="#63b8ff" points="288.48,-199.42 299.05,-198.74 290.35,-192.68 288.48,-199.42"/>
</a>
</g>
</g>
<!-- Node3 -->
<g id="Node000003" class="node">
<title>Node3</title>
<g id="a_Node000003"><a xlink:href="../../dd/d92/classvanetza_1_1security_1_1v2_1_1DummySignService.html" target="_top" xlink:title=" ">
<polygon fill="white" stroke="none" points="269.62,-117.25 145.88,-117.25 145.88,-16.75 269.62,-16.75 269.62,-117.25"/>
<text xml:space="preserve" text-anchor="start" x="150.75" y="-103.75" font-family="Helvetica,sans-Serif" font-size="10.00">vanetza::security::</text>
<text xml:space="preserve" text-anchor="start" x="150.75" y="-91" font-family="Helvetica,sans-Serif" font-size="10.00">v2::DummySignService</text>
<text xml:space="preserve" text-anchor="start" x="152.12" y="-74.25" font-family="Helvetica,sans-Serif" font-size="10.00">&#45;</text>
<text xml:space="preserve" text-anchor="start" x="162.12" y="-74.25" font-family="Helvetica,sans-Serif" font-size="10.00">m_runtime</text>
<text xml:space="preserve" text-anchor="start" x="152.12" y="-57.5" font-family="Helvetica,sans-Serif" font-size="10.00">&#45;</text>
<text xml:space="preserve" text-anchor="start" x="162.12" y="-57.5" font-family="Helvetica,sans-Serif" font-size="10.00">m_signer_info</text>
<text xml:space="preserve" text-anchor="start" x="149.88" y="-40.75" font-family="Helvetica,sans-Serif" font-size="10.00">+</text>
<text xml:space="preserve" text-anchor="start" x="162.12" y="-40.75" font-family="Helvetica,sans-Serif" font-size="10.00">DummySignService()</text>
<text xml:space="preserve" text-anchor="start" x="149.88" y="-24" font-family="Helvetica,sans-Serif" font-size="10.00">+</text>
<text xml:space="preserve" text-anchor="start" x="162.12" y="-24" font-family="Helvetica,sans-Serif" font-size="10.00">sign()</text>
<polygon fill="#666666" stroke="#666666" points="145.88,-85.75 145.88,-85.75 269.62,-85.75 269.62,-85.75 145.88,-85.75"/>
<polygon fill="#666666" stroke="#666666" points="145.88,-52.25 145.88,-52.25 160.12,-52.25 160.12,-52.25 145.88,-52.25"/>
<polygon fill="#666666" stroke="#666666" points="160.12,-52.25 160.12,-52.25 269.62,-52.25 269.62,-52.25 160.12,-52.25"/>
<polygon fill="none" stroke="#666666" points="145.88,-16.75 145.88,-117.25 269.62,-117.25 269.62,-16.75 145.88,-16.75"/>
</a>
</g>
</g>
<!-- Node1&#45;&gt;Node3 -->
<g id="edge2_Node000001_Node000003" class="edge">
<title>Node1&#45;&gt;Node3</title>
<g id="a_edge2_Node000001_Node000003"><a xlink:title=" ">
<path fill="none" stroke="#63b8ff" d="M300.87,-162.36C286.44,-147.74 270.6,-131.69 256.14,-117.04"/>
<polygon fill="none" stroke="#63b8ff" points="298.14,-164.58 307.66,-169.24 303.13,-159.66 298.14,-164.58"/>
</a>
</g>
</g>
<!-- Node4 -->
<g id="Node000004" class="node">
<title>Node4</title>
<g id="a_Node000004"><a xlink:href="../../d7/d8c/classvanetza_1_1security_1_1v2_1_1StraightSignService.html" target="_top" xlink:title=" ">
<polygon fill="white" stroke="none" points="410.25,-125.62 287.25,-125.62 287.25,-8.37 410.25,-8.37 410.25,-125.62"/>
<text xml:space="preserve" text-anchor="start" x="292.12" y="-112.12" font-family="Helvetica,sans-Serif" font-size="10.00">vanetza::security::</text>
<text xml:space="preserve" text-anchor="start" x="292.12" y="-99.38" font-family="Helvetica,sans-Serif" font-size="10.00">v2::StraightSignService</text>
<text xml:space="preserve" text-anchor="start" x="293.5" y="-82.62" font-family="Helvetica,sans-Serif" font-size="10.00">&#45;</text>
<text xml:space="preserve" text-anchor="start" x="303.5" y="-82.62" font-family="Helvetica,sans-Serif" font-size="10.00">m_certificates</text>
<text xml:space="preserve" text-anchor="start" x="293.5" y="-65.88" font-family="Helvetica,sans-Serif" font-size="10.00">&#45;</text>
<text xml:space="preserve" text-anchor="start" x="303.5" y="-65.88" font-family="Helvetica,sans-Serif" font-size="10.00">m_backend</text>
<text xml:space="preserve" text-anchor="start" x="293.5" y="-49.12" font-family="Helvetica,sans-Serif" font-size="10.00">&#45;</text>
<text xml:space="preserve" text-anchor="start" x="303.5" y="-49.12" font-family="Helvetica,sans-Serif" font-size="10.00">m_policy</text>
<text xml:space="preserve" text-anchor="start" x="291.25" y="-32.38" font-family="Helvetica,sans-Serif" font-size="10.00">+</text>
<text xml:space="preserve" text-anchor="start" x="303.5" y="-32.38" font-family="Helvetica,sans-Serif" font-size="10.00">StraightSignService()</text>
<text xml:space="preserve" text-anchor="start" x="291.25" y="-15.62" font-family="Helvetica,sans-Serif" font-size="10.00">+</text>
<text xml:space="preserve" text-anchor="start" x="303.5" y="-15.62" font-family="Helvetica,sans-Serif" font-size="10.00">sign()</text>
<polygon fill="#666666" stroke="#666666" points="287.25,-94.12 287.25,-94.12 410.25,-94.12 410.25,-94.12 287.25,-94.12"/>
<polygon fill="#666666" stroke="#666666" points="287.25,-43.88 287.25,-43.88 301.5,-43.88 301.5,-43.88 287.25,-43.88"/>
<polygon fill="#666666" stroke="#666666" points="301.5,-43.88 301.5,-43.88 410.25,-43.88 410.25,-43.88 301.5,-43.88"/>
<polygon fill="none" stroke="#666666" points="287.25,-8.38 287.25,-125.62 410.25,-125.62 410.25,-8.38 287.25,-8.38"/>
</a>
</g>
</g>
<!-- Node1&#45;&gt;Node4 -->
<g id="edge3_Node000001_Node000004" class="edge">
<title>Node1&#45;&gt;Node4</title>
<g id="a_edge3_Node000001_Node000004"><a xlink:title=" ">
<path fill="none" stroke="#63b8ff" d="M348.75,-158.85C348.75,-147.99 348.75,-136.5 348.75,-125.46"/>
<polygon fill="none" stroke="#63b8ff" points="345.25,-158.8 348.75,-168.8 352.25,-158.8 345.25,-158.8"/>
</a>
</g>
</g>
<!-- Node5 -->
<g id="Node000005" class="node">
<title>Node5</title>
<g id="a_Node000005"><a xlink:href="../../d4/d1f/classvanetza_1_1security_1_1v3_1_1DummySignService.html" target="_top" xlink:title=" ">
<polygon fill="white" stroke="none" points="551.62,-108.88 427.88,-108.88 427.88,-25.12 551.62,-25.12 551.62,-108.88"/>
<text xml:space="preserve" text-anchor="start" x="432.75" y="-95.38" font-family="Helvetica,sans-Serif" font-size="10.00">vanetza::security::</text>
<text xml:space="preserve" text-anchor="start" x="432.75" y="-82.62" font-family="Helvetica,sans-Serif" font-size="10.00">v3::DummySignService</text>
<text xml:space="preserve" text-anchor="start" x="434.12" y="-65.88" font-family="Helvetica,sans-Serif" font-size="10.00">&#45;</text>
<text xml:space="preserve" text-anchor="start" x="444.12" y="-65.88" font-family="Helvetica,sans-Serif" font-size="10.00">m_runtime</text>
<text xml:space="preserve" text-anchor="start" x="431.88" y="-49.12" font-family="Helvetica,sans-Serif" font-size="10.00">+</text>
<text xml:space="preserve" text-anchor="start" x="444.12" y="-49.12" font-family="Helvetica,sans-Serif" font-size="10.00">DummySignService()</text>
<text xml:space="preserve" text-anchor="start" x="431.88" y="-32.38" font-family="Helvetica,sans-Serif" font-size="10.00">+</text>
<text xml:space="preserve" text-anchor="start" x="444.12" y="-32.38" font-family="Helvetica,sans-Serif" font-size="10.00">sign()</text>
<polygon fill="#666666" stroke="#666666" points="427.88,-77.38 427.88,-77.38 551.62,-77.38 551.62,-77.38 427.88,-77.38"/>
<polygon fill="#666666" stroke="#666666" points="427.88,-60.62 427.88,-60.62 442.12,-60.62 442.12,-60.62 427.88,-60.62"/>
<polygon fill="#666666" stroke="#666666" points="442.12,-60.62 442.12,-60.62 551.62,-60.62 551.62,-60.62 442.12,-60.62"/>
<polygon fill="none" stroke="#666666" points="427.88,-25.12 427.88,-108.88 551.62,-108.88 551.62,-25.12 427.88,-25.12"/>
</a>
</g>
</g>
<!-- Node1&#45;&gt;Node5 -->
<g id="edge4_Node000001_Node000005" class="edge">
<title>Node1&#45;&gt;Node5</title>
<g id="a_edge4_Node000001_Node000005"><a xlink:title=" ">
<path fill="none" stroke="#63b8ff" d="M396.55,-162.44C413.8,-144.96 433.09,-125.41 449.62,-108.66"/>
<polygon fill="none" stroke="#63b8ff" points="394.37,-159.66 389.84,-169.24 399.36,-164.58 394.37,-159.66"/>
</a>
</g>
</g>
<!-- Node6 -->
<g id="Node000006" class="node">
<title>Node6</title>
<g id="a_Node000006"><a xlink:href="../../d8/d79/classvanetza_1_1security_1_1v3_1_1StraightSignService.html" target="_top" xlink:title=" ">
<polygon fill="white" stroke="none" points="692.25,-134 569.25,-134 569.25,0 692.25,0 692.25,-134"/>
<text xml:space="preserve" text-anchor="start" x="574.12" y="-120.5" font-family="Helvetica,sans-Serif" font-size="10.00">vanetza::security::</text>
<text xml:space="preserve" text-anchor="start" x="574.12" y="-107.75" font-family="Helvetica,sans-Serif" font-size="10.00">v3::StraightSignService</text>
<text xml:space="preserve" text-anchor="start" x="575.5" y="-91" font-family="Helvetica,sans-Serif" font-size="10.00">&#45;</text>
<text xml:space="preserve" text-anchor="start" x="585.5" y="-91" font-family="Helvetica,sans-Serif" font-size="10.00">m_certificates</text>
<text xml:space="preserve" text-anchor="start" x="575.5" y="-74.25" font-family="Helvetica,sans-Serif" font-size="10.00">&#45;</text>
<text xml:space="preserve" text-anchor="start" x="585.5" y="-74.25" font-family="Helvetica,sans-Serif" font-size="10.00">m_backend</text>
<text xml:space="preserve" text-anchor="start" x="575.5" y="-57.5" font-family="Helvetica,sans-Serif" font-size="10.00">&#45;</text>
<text xml:space="preserve" text-anchor="start" x="585.5" y="-57.5" font-family="Helvetica,sans-Serif" font-size="10.00">m_policy</text>
<text xml:space="preserve" text-anchor="start" x="575.5" y="-40.75" font-family="Helvetica,sans-Serif" font-size="10.00">&#45;</text>
<text xml:space="preserve" text-anchor="start" x="585.5" y="-40.75" font-family="Helvetica,sans-Serif" font-size="10.00">m_validator</text>
<text xml:space="preserve" text-anchor="start" x="573.25" y="-24" font-family="Helvetica,sans-Serif" font-size="10.00">+</text>
<text xml:space="preserve" text-anchor="start" x="585.5" y="-24" font-family="Helvetica,sans-Serif" font-size="10.00">StraightSignService()</text>
<text xml:space="preserve" text-anchor="start" x="573.25" y="-7.25" font-family="Helvetica,sans-Serif" font-size="10.00">+</text>
<text xml:space="preserve" text-anchor="start" x="585.5" y="-7.25" font-family="Helvetica,sans-Serif" font-size="10.00">sign()</text>
<polygon fill="#666666" stroke="#666666" points="569.25,-102.5 569.25,-102.5 692.25,-102.5 692.25,-102.5 569.25,-102.5"/>
<polygon fill="#666666" stroke="#666666" points="569.25,-35.5 569.25,-35.5 583.5,-35.5 583.5,-35.5 569.25,-35.5"/>
<polygon fill="#666666" stroke="#666666" points="583.5,-35.5 583.5,-35.5 692.25,-35.5 692.25,-35.5 583.5,-35.5"/>
<polygon fill="none" stroke="#666666" points="569.25,0 569.25,-134 692.25,-134 692.25,0 569.25,0"/>
</a>
</g>
</g>
<!-- Node1&#45;&gt;Node6 -->
<g id="edge5_Node000001_Node000006" class="edge">
<title>Node1&#45;&gt;Node6</title>
<g id="a_edge5_Node000001_Node000006"><a xlink:title=" ">
<path fill="none" stroke="#63b8ff" d="M408.01,-196.41C452.22,-184 512.96,-163.43 560.75,-134 563.74,-132.16 566.7,-130.18 569.64,-128.09"/>
<polygon fill="none" stroke="#63b8ff" points="407.33,-192.97 398.61,-198.99 409.18,-199.72 407.33,-192.97"/>
</a>
</g>
</g>
</g>
</svg>

<g id="navigator" transform="translate(0 0)" fill="#404254">
  <rect fill="#f2f5e9" fill-opacity="0.5" stroke="#606060" stroke-width=".5" x="0" y="0" width="60" height="60"/>
  <use id="zoomplus" xlink:href="#zoomPlus" x="17" y="9" onmousedown="handleZoom(evt,'in')"/>
  <use id="zoomminus" xlink:href="#zoomMin" x="42" y="9" onmousedown="handleZoom(evt,'out')"/>
  <use id="reset" xlink:href="#resetDef" x="30" y="36" onmousedown="handleReset()"/>
   <use id="arrowup" xlink:href="#arrowUp" x="0" y="0" onmousedown="handlePan(0,-1)"/>
  <use id="arrowright" xlink:href="#arrowRight" x="0" y="0" onmousedown="handlePan(1,0)"/>
  <use id="arrowdown" xlink:href="#arrowDown" x="0" y="0" onmousedown="handlePan(0,1)"/>
  <use id="arrowleft" xlink:href="#arrowLeft" x="0" y="0" onmousedown="handlePan(-1,0)"/>
</g>
<svg viewBox="0 0 15 15" width="100%" height="30px" preserveAspectRatio="xMaxYMin meet">
 <g id="arrow_out" transform="scale(0.3 0.3)">
  <a xlink:href="classvanetza_1_1security_1_1SignService__inherit__graph_org.svg" target="_base">
   <rect id="button" ry="5" rx="5" y="6" x="6" height="38" width="38"
        fill="#f2f5e9" fill-opacity="0.5" stroke="#606060" stroke-width="1.0"/>
   <path id="arrow"
     d="M 11.500037,31.436501 C 11.940474,20.09759 22.043105,11.32322 32.158766,21.979434 L 37.068811,17.246167 C 37.068811,17.246167 37.088388,32 37.088388,32 L 22.160133,31.978069 C 22.160133,31.978069 26.997745,27.140456 26.997745,27.140456 C 18.528582,18.264221 13.291696,25.230495 11.500037,31.436501 z"
     style="fill:#404040;"/>
  </a>
 </g>
</svg>

<style type='text/css'>
<![CDATA[
[data-mouse-over-selected='false'] { opacity: 0.7; }
[data-mouse-over-selected='true']  { opacity: 1.0; }
]]>
</style>
<script type="application/ecmascript"><![CDATA[
document.addEventListener('DOMContentLoaded', (event) => {
  highlightEdges();
  highlightAdjacentNodes();
});
]]></script>
</svg>
