<?xml version="1.0" encoding="UTF-8" standalone="no"?>
<!DOCTYPE svg PUBLIC "-//W3C//DTD SVG 1.1//EN"
 "http://www.w3.org/Graphics/SVG/1.1/DTD/svg11.dtd">
<!-- Generated by graphviz version 2.49.3 (0)
 -->
<!-- Title: vanetza::security::SignService Pages: 1 -->
<!--zoomable 239 -->

<svg id="main" version="1.1" xmlns="http://www.w3.org/2000/svg" xmlns:xlink="http://www.w3.org/1999/xlink" xml:space="preserve" onload="init(evt)">

<style type="text/css"><![CDATA[
.node, .edge {opacity: 0.7;}
.node.selected, .edge.selected {opacity: 1;}
.edge:hover path { stroke: red; }
.edge:hover polygon { stroke: red; fill: red; }
]]></style>

<defs>
  <circle id="rim" cx="0" cy="0" r="7"/>
  <circle id="rim2" cx="0" cy="0" r="3.5"/>
  <g id="zoomPlus">
    <use xlink:href="#rim" fill="#404040"><set attributeName="fill" to="#808080" begin="zoomplus.mouseover" end="zoomplus.mouseout"/></use>
    <path d="M-4,0h8M0,-4v8" fill="none" stroke="white" stroke-width="1.5" pointer-events="none"/>
  </g>
  <g id="zoomMin">
    <use xlink:href="#rim" fill="#404040"><set attributeName="fill" to="#808080" begin="zoomminus.mouseover" end="zoomminus.mouseout"/></use>
    <path d="M-4,0h8" fill="none" stroke="white" stroke-width="1.5" pointer-events="none"/>
  </g>
  <g id="arrowUp" transform="translate(30 24)">
    <use xlink:href="#rim"/>
    <path pointer-events="none" fill="none" stroke="white" stroke-width="1.5" d="M0,-3.0v7 M-2.5,-0.5L0,-3.0L2.5,-0.5"/>
  </g>
  <g id="arrowRight" transform="rotate(90) translate(36 -43)">
    <use xlink:href="#rim"/>
    <path pointer-events="none" fill="none" stroke="white" stroke-width="1.5" d="M0,-3.0v7 M-2.5,-0.5L0,-3.0L2.5,-0.5"/>
  </g>
  <g id="arrowDown" transform="rotate(180) translate(-30 -48)">
    <use xlink:href="#rim"/>
    <path pointer-events="none" fill="none" stroke="white" stroke-width="1.5" d="M0,-3.0v7 M-2.5,-0.5L0,-3.0L2.5,-0.5"/>
  </g>
  <g id="arrowLeft" transform="rotate(270) translate(-36 17)">
    <use xlink:href="#rim"/>
    <path pointer-events="none" fill="none" stroke="white" stroke-width="1.5" d="M0,-3.0v7 M-2.5,-0.5L0,-3.0L2.5,-0.5"/>
  </g>
  <g id="resetDef">
    <use xlink:href="#rim2" fill="#404040"><set attributeName="fill" to="#808080" begin="reset.mouseover" end="reset.mouseout"/></use>
  </g>
</defs>
<script type="application/ecmascript">
var viewWidth = 658;
var viewHeight = 239;
var sectionId = 'dynsection-0';
</script>
<script type="application/ecmascript" xlink:href="../../svg.min.js"/>
<svg id="graph" class="graph">
<g id="viewport">
<title>vanetza::security::SignService</title>
<!-- Node1 -->
<g id="Node000001" class="node">
<title>Node1</title>
<g id="a_Node000001"><a xlink:title=" ">
<polygon fill="#999999" stroke="transparent" points="372,-231 282,-231 282,-156 372,-156 372,-231"/>
<text text-anchor="start" x="287" y="-218.5" font-family="Helvetica,sans-Serif" font-size="10.00">vanetza::security::</text>
<text text-anchor="start" x="300" y="-207.5" font-family="Helvetica,sans-Serif" font-size="10.00">SignService</text>
<text text-anchor="start" x="325" y="-192.5" font-family="Helvetica,sans-Serif" font-size="10.00"> </text>
<text text-anchor="start" x="287" y="-177.5" font-family="Helvetica,sans-Serif" font-size="10.00">+</text>
<text text-anchor="start" x="299" y="-177.5" font-family="Helvetica,sans-Serif" font-size="10.00">~SignService()</text>
<text text-anchor="start" x="287" y="-162.5" font-family="Helvetica,sans-Serif" font-size="10.00">+</text>
<text text-anchor="start" x="299" y="-162.5" font-family="Helvetica,sans-Serif" font-size="10.00">sign()</text>
<polygon fill="#666666" stroke="#666666" points="282,-202.5 282,-202.5 372,-202.5 372,-202.5 282,-202.5"/>
<polygon fill="#666666" stroke="#666666" points="282,-187.5 282,-187.5 372,-187.5 372,-187.5 282,-187.5"/>
<polygon fill="none" stroke="#666666" points="282,-156 282,-231 372,-231 372,-156 282,-156"/>
</a>
</g>
</g>
<!-- Node2 -->
<g id="Node000002" class="node">
<title>Node2</title>
<g id="a_Node000002"><a xlink:href="../../d3/d37/classvanetza_1_1security_1_1v2_1_1DeferredSignService.html" target="_top" xlink:title=" ">
<polygon fill="white" stroke="transparent" points="118,-112.5 0,-112.5 0,-7.5 118,-7.5 118,-112.5"/>
<text text-anchor="start" x="5" y="-100" font-family="Helvetica,sans-Serif" font-size="10.00">vanetza::security::</text>
<text text-anchor="start" x="5" y="-89" font-family="Helvetica,sans-Serif" font-size="10.00">v2::DeferredSignService</text>
<text text-anchor="start" x="6" y="-74" font-family="Helvetica,sans-Serif" font-size="10.00">&#45;</text>
<text text-anchor="start" x="16" y="-74" font-family="Helvetica,sans-Serif" font-size="10.00">m_certificates</text>
<text text-anchor="start" x="6" y="-59" font-family="Helvetica,sans-Serif" font-size="10.00">&#45;</text>
<text text-anchor="start" x="16" y="-59" font-family="Helvetica,sans-Serif" font-size="10.00">m_backend</text>
<text text-anchor="start" x="6" y="-44" font-family="Helvetica,sans-Serif" font-size="10.00">&#45;</text>
<text text-anchor="start" x="16" y="-44" font-family="Helvetica,sans-Serif" font-size="10.00">m_policy</text>
<text text-anchor="start" x="4.5" y="-29" font-family="Helvetica,sans-Serif" font-size="10.00">+</text>
<text text-anchor="start" x="16" y="-29" font-family="Helvetica,sans-Serif" font-size="10.00">DeferredSignService()</text>
<text text-anchor="start" x="4.5" y="-14" font-family="Helvetica,sans-Serif" font-size="10.00">+</text>
<text text-anchor="start" x="16" y="-14" font-family="Helvetica,sans-Serif" font-size="10.00">sign()</text>
<polygon fill="#666666" stroke="#666666" points="0,-84 0,-84 118,-84 118,-84 0,-84"/>
<polygon fill="#666666" stroke="#666666" points="0,-39 0,-39 14,-39 14,-39 0,-39"/>
<polygon fill="#666666" stroke="#666666" points="14,-39 14,-39 118,-39 118,-39 14,-39"/>
<polygon fill="none" stroke="#666666" points="0,-7.5 0,-112.5 118,-112.5 118,-7.5 0,-7.5"/>
</a>
</g>
</g>
<!-- Node1&#45;&gt;Node2 -->
<g id="edge1_Node000001_Node000002" class="edge">
<title>Node1&#45;&gt;Node2</title>
<g id="a_edge1_Node000001_Node000002"><a xlink:title=" ">
<path fill="none" stroke="#63b8ff" d="M271.95,-178.47C230.37,-166.5 172.84,-146.93 127,-120 123.23,-117.78 119.47,-115.35 115.76,-112.76"/>
<polygon fill="none" stroke="#63b8ff" points="271.05,-181.86 281.62,-181.2 272.95,-175.12 271.05,-181.86"/>
</a>
</g>
</g>
<!-- Node3 -->
<g id="Node000003" class="node">
<title>Node3</title>
<g id="a_Node000003"><a xlink:href="../../dd/d92/classvanetza_1_1security_1_1v2_1_1DummySignService.html" target="_top" xlink:title=" ">
<polygon fill="white" stroke="transparent" points="251.5,-105 136.5,-105 136.5,-15 251.5,-15 251.5,-105"/>
<text text-anchor="start" x="142" y="-93" font-family="Helvetica,sans-Serif" font-size="10.00">vanetza::security::</text>
<text text-anchor="start" x="142" y="-82" font-family="Helvetica,sans-Serif" font-size="10.00">v2::DummySignService</text>
<text text-anchor="start" x="143" y="-67" font-family="Helvetica,sans-Serif" font-size="10.00">&#45;</text>
<text text-anchor="start" x="153" y="-67" font-family="Helvetica,sans-Serif" font-size="10.00">m_runtime</text>
<text text-anchor="start" x="143" y="-52" font-family="Helvetica,sans-Serif" font-size="10.00">&#45;</text>
<text text-anchor="start" x="153" y="-52" font-family="Helvetica,sans-Serif" font-size="10.00">m_signer_info</text>
<text text-anchor="start" x="141.5" y="-37" font-family="Helvetica,sans-Serif" font-size="10.00">+</text>
<text text-anchor="start" x="153" y="-37" font-family="Helvetica,sans-Serif" font-size="10.00">DummySignService()</text>
<text text-anchor="start" x="141.5" y="-22" font-family="Helvetica,sans-Serif" font-size="10.00">+</text>
<text text-anchor="start" x="153" y="-22" font-family="Helvetica,sans-Serif" font-size="10.00">sign()</text>
<polygon fill="#666666" stroke="#666666" points="137,-77 137,-77 252,-77 252,-77 137,-77"/>
<polygon fill="#666666" stroke="#666666" points="137,-47 137,-47 151,-47 151,-47 137,-47"/>
<polygon fill="#666666" stroke="#666666" points="151,-47 151,-47 252,-47 252,-47 151,-47"/>
<polygon fill="none" stroke="#666666" points="136.5,-15 136.5,-105 251.5,-105 251.5,-15 136.5,-15"/>
</a>
</g>
</g>
<!-- Node1&#45;&gt;Node3 -->
<g id="edge2_Node000001_Node000003" class="edge">
<title>Node1&#45;&gt;Node3</title>
<g id="a_edge2_Node000001_Node000003"><a xlink:title=" ">
<path fill="none" stroke="#63b8ff" d="M282.73,-148.73C268.63,-134.79 253.03,-119.36 238.89,-105.38"/>
<polygon fill="none" stroke="#63b8ff" points="280.38,-151.33 289.95,-155.87 285.3,-146.35 280.38,-151.33"/>
</a>
</g>
</g>
<!-- Node4 -->
<g id="Node000004" class="node">
<title>Node4</title>
<g id="a_Node000004"><a xlink:href="../../d7/d8c/classvanetza_1_1security_1_1v2_1_1StraightSignService.html" target="_top" xlink:title=" ">
<polygon fill="white" stroke="transparent" points="384,-112.5 270,-112.5 270,-7.5 384,-7.5 384,-112.5"/>
<text text-anchor="start" x="275" y="-100" font-family="Helvetica,sans-Serif" font-size="10.00">vanetza::security::</text>
<text text-anchor="start" x="275" y="-89" font-family="Helvetica,sans-Serif" font-size="10.00">v2::StraightSignService</text>
<text text-anchor="start" x="275.5" y="-74" font-family="Helvetica,sans-Serif" font-size="10.00">&#45;</text>
<text text-anchor="start" x="285" y="-74" font-family="Helvetica,sans-Serif" font-size="10.00">m_certificates</text>
<text text-anchor="start" x="275.5" y="-59" font-family="Helvetica,sans-Serif" font-size="10.00">&#45;</text>
<text text-anchor="start" x="285" y="-59" font-family="Helvetica,sans-Serif" font-size="10.00">m_backend</text>
<text text-anchor="start" x="275.5" y="-44" font-family="Helvetica,sans-Serif" font-size="10.00">&#45;</text>
<text text-anchor="start" x="285" y="-44" font-family="Helvetica,sans-Serif" font-size="10.00">m_policy</text>
<text text-anchor="start" x="274" y="-29" font-family="Helvetica,sans-Serif" font-size="10.00">+</text>
<text text-anchor="start" x="285" y="-29" font-family="Helvetica,sans-Serif" font-size="10.00">StraightSignService()</text>
<text text-anchor="start" x="274" y="-14" font-family="Helvetica,sans-Serif" font-size="10.00">+</text>
<text text-anchor="start" x="285" y="-14" font-family="Helvetica,sans-Serif" font-size="10.00">sign()</text>
<polygon fill="#666666" stroke="#666666" points="270,-84 270,-84 384,-84 384,-84 270,-84"/>
<polygon fill="#666666" stroke="#666666" points="270,-39 270,-39 283,-39 283,-39 270,-39"/>
<polygon fill="#666666" stroke="#666666" points="283,-39 283,-39 384,-39 384,-39 283,-39"/>
<polygon fill="none" stroke="#666666" points="270,-7.5 270,-112.5 384,-112.5 384,-7.5 270,-7.5"/>
</a>
</g>
</g>
<!-- Node1&#45;&gt;Node4 -->
<g id="edge3_Node000001_Node000004" class="edge">
<title>Node1&#45;&gt;Node4</title>
<g id="a_edge3_Node000001_Node000004"><a xlink:title=" ">
<path fill="none" stroke="#63b8ff" d="M327,-145.84C327,-135.1 327,-123.61 327,-112.67"/>
<polygon fill="none" stroke="#63b8ff" points="323.5,-145.87 327,-155.87 330.5,-145.87 323.5,-145.87"/>
</a>
</g>
</g>
<!-- Node5 -->
<g id="Node000005" class="node">
<title>Node5</title>
<g id="a_Node000005"><a xlink:href="../../d4/d1f/classvanetza_1_1security_1_1v3_1_1DummySignService.html" target="_top" xlink:title=" ">
<polygon fill="white" stroke="transparent" points="517.5,-97.5 402.5,-97.5 402.5,-22.5 517.5,-22.5 517.5,-97.5"/>
<text text-anchor="start" x="408" y="-85" font-family="Helvetica,sans-Serif" font-size="10.00">vanetza::security::</text>
<text text-anchor="start" x="408" y="-74" font-family="Helvetica,sans-Serif" font-size="10.00">v3::DummySignService</text>
<text text-anchor="start" x="409" y="-59" font-family="Helvetica,sans-Serif" font-size="10.00">&#45;</text>
<text text-anchor="start" x="419" y="-59" font-family="Helvetica,sans-Serif" font-size="10.00">m_runtime</text>
<text text-anchor="start" x="407.5" y="-44" font-family="Helvetica,sans-Serif" font-size="10.00">+</text>
<text text-anchor="start" x="419" y="-44" font-family="Helvetica,sans-Serif" font-size="10.00">DummySignService()</text>
<text text-anchor="start" x="407.5" y="-29" font-family="Helvetica,sans-Serif" font-size="10.00">+</text>
<text text-anchor="start" x="419" y="-29" font-family="Helvetica,sans-Serif" font-size="10.00">sign()</text>
<polygon fill="#666666" stroke="#666666" points="403,-69 403,-69 518,-69 518,-69 403,-69"/>
<polygon fill="#666666" stroke="#666666" points="403,-54 403,-54 417,-54 417,-54 403,-54"/>
<polygon fill="#666666" stroke="#666666" points="417,-54 417,-54 518,-54 518,-54 417,-54"/>
<polygon fill="none" stroke="#666666" points="402.5,-22.5 402.5,-97.5 517.5,-97.5 517.5,-22.5 402.5,-22.5"/>
</a>
</g>
</g>
<!-- Node1&#45;&gt;Node5 -->
<g id="edge4_Node000001_Node000005" class="edge">
<title>Node1&#45;&gt;Node5</title>
<g id="a_edge4_Node000001_Node000005"><a xlink:title=" ">
<path fill="none" stroke="#63b8ff" d="M371.52,-148.49C388.13,-132.06 406.8,-113.6 422.69,-97.89"/>
<polygon fill="none" stroke="#63b8ff" points="368.7,-146.35 364.05,-155.87 373.62,-151.33 368.7,-146.35"/>
</a>
</g>
</g>
<!-- Node6 -->
<g id="Node000006" class="node">
<title>Node6</title>
<g id="a_Node000006"><a xlink:href="../../d8/d79/classvanetza_1_1security_1_1v3_1_1StraightSignService.html" target="_top" xlink:title=" ">
<polygon fill="white" stroke="transparent" points="650,-120 536,-120 536,0 650,0 650,-120"/>
<text text-anchor="start" x="541" y="-108" font-family="Helvetica,sans-Serif" font-size="10.00">vanetza::security::</text>
<text text-anchor="start" x="541" y="-97" font-family="Helvetica,sans-Serif" font-size="10.00">v3::StraightSignService</text>
<text text-anchor="start" x="541.5" y="-82" font-family="Helvetica,sans-Serif" font-size="10.00">&#45;</text>
<text text-anchor="start" x="551" y="-82" font-family="Helvetica,sans-Serif" font-size="10.00">m_certificates</text>
<text text-anchor="start" x="541.5" y="-67" font-family="Helvetica,sans-Serif" font-size="10.00">&#45;</text>
<text text-anchor="start" x="551" y="-67" font-family="Helvetica,sans-Serif" font-size="10.00">m_backend</text>
<text text-anchor="start" x="541.5" y="-52" font-family="Helvetica,sans-Serif" font-size="10.00">&#45;</text>
<text text-anchor="start" x="551" y="-52" font-family="Helvetica,sans-Serif" font-size="10.00">m_policy</text>
<text text-anchor="start" x="541.5" y="-37" font-family="Helvetica,sans-Serif" font-size="10.00">&#45;</text>
<text text-anchor="start" x="551" y="-37" font-family="Helvetica,sans-Serif" font-size="10.00">m_validator</text>
<text text-anchor="start" x="540" y="-22" font-family="Helvetica,sans-Serif" font-size="10.00">+</text>
<text text-anchor="start" x="551" y="-22" font-family="Helvetica,sans-Serif" font-size="10.00">StraightSignService()</text>
<text text-anchor="start" x="540" y="-7" font-family="Helvetica,sans-Serif" font-size="10.00">+</text>
<text text-anchor="start" x="551" y="-7" font-family="Helvetica,sans-Serif" font-size="10.00">sign()</text>
<polygon fill="#666666" stroke="#666666" points="536,-92 536,-92 650,-92 650,-92 536,-92"/>
<polygon fill="#666666" stroke="#666666" points="536,-32 536,-32 549,-32 549,-32 536,-32"/>
<polygon fill="#666666" stroke="#666666" points="549,-32 549,-32 650,-32 650,-32 549,-32"/>
<polygon fill="none" stroke="#666666" points="536,0 536,-120 650,-120 650,0 536,0"/>
</a>
</g>
</g>
<!-- Node1&#45;&gt;Node6 -->
<g id="edge5_Node000001_Node000006" class="edge">
<title>Node1&#45;&gt;Node6</title>
<g id="a_edge5_Node000001_Node000006"><a xlink:title=" ">
<path fill="none" stroke="#63b8ff" d="M381.77,-178.78C423.43,-166.92 481.21,-147.36 527,-120 529.9,-118.27 532.79,-116.39 535.65,-114.42"/>
<polygon fill="none" stroke="#63b8ff" points="380.76,-175.43 372.07,-181.48 382.64,-182.17 380.76,-175.43"/>
</a>
</g>
</g>
</g>
</svg>

<g id="navigator" transform="translate(0 0)" fill="#404254">
  <rect fill="#f2f5e9" fill-opacity="0.5" stroke="#606060" stroke-width=".5" x="0" y="0" width="60" height="60"/>
  <use id="zoomplus" xlink:href="#zoomPlus" x="17" y="9" onmousedown="handleZoom(evt,'in')"/>
  <use id="zoomminus" xlink:href="#zoomMin" x="42" y="9" onmousedown="handleZoom(evt,'out')"/>
  <use id="reset" xlink:href="#resetDef" x="30" y="36" onmousedown="handleReset()"/>
   <use id="arrowup" xlink:href="#arrowUp" x="0" y="0" onmousedown="handlePan(0,-1)"/>
  <use id="arrowright" xlink:href="#arrowRight" x="0" y="0" onmousedown="handlePan(1,0)"/>
  <use id="arrowdown" xlink:href="#arrowDown" x="0" y="0" onmousedown="handlePan(0,1)"/>
  <use id="arrowleft" xlink:href="#arrowLeft" x="0" y="0" onmousedown="handlePan(-1,0)"/>
</g>
<svg viewBox="0 0 15 15" width="100%" height="30px" preserveAspectRatio="xMaxYMin meet">
 <g id="arrow_out" transform="scale(0.3 0.3)">
  <a xlink:href="classvanetza_1_1security_1_1SignService__inherit__graph_org.svg" target="_base">
   <rect id="button" ry="5" rx="5" y="6" x="6" height="38" width="38"
        fill="#f2f5e9" fill-opacity="0.5" stroke="#606060" stroke-width="1.0"/>
   <path id="arrow"
     d="M 11.500037,31.436501 C 11.940474,20.09759 22.043105,11.32322 32.158766,21.979434 L 37.068811,17.246167 C 37.068811,17.246167 37.088388,32 37.088388,32 L 22.160133,31.978069 C 22.160133,31.978069 26.997745,27.140456 26.997745,27.140456 C 18.528582,18.264221 13.291696,25.230495 11.500037,31.436501 z"
     style="fill:#404040;"/>
  </a>
 </g>
</svg>

<style type='text/css'>
<![CDATA[
[data-mouse-over-selected='false'] { opacity: 0.7; }
[data-mouse-over-selected='true']  { opacity: 1.0; }
]]>
</style>
<script type="application/ecmascript"><![CDATA[
document.addEventListener('DOMContentLoaded', (event) => {
  highlightEdges();
  highlightAdjacentNodes();
});
]]></script>
</svg>
