<?xml version="1.0" encoding="UTF-8" standalone="no"?>
<!DOCTYPE svg PUBLIC "-//W3C//DTD SVG 1.1//EN"
 "http://www.w3.org/Graphics/SVG/1.1/DTD/svg11.dtd">
<!-- Generated by graphviz version 14.1.2 (0)
 -->
<!-- Title: vanetza::security::v3::DefaultCertificateValidator Pages: 1 -->
<svg width="164pt" height="409pt"
 viewBox="0.00 0.00 164.00 409.00" xmlns="http://www.w3.org/2000/svg" xmlns:xlink="http://www.w3.org/1999/xlink">
<g id="graph0" class="graph" transform="scale(1 1) rotate(0) translate(4 404.5)">
<title>vanetza::security::v3::DefaultCertificateValidator</title>
<!-- Node1 -->
<g id="Node000001" class="node">
<title>Node1</title>
<g id="a_Node000001"><a xlink:title=" ">
<polygon fill="#999999" stroke="none" points="155.75,-280.75 0,-280.75 0,0 155.75,0 155.75,-280.75"/>
<text xml:space="preserve" text-anchor="start" x="4" y="-267.25" font-family="Helvetica,sans-Serif" font-size="10.00">vanetza::security::</text>
<text xml:space="preserve" text-anchor="start" x="4" y="-254.5" font-family="Helvetica,sans-Serif" font-size="10.00">v3::DefaultCertificateValidator</text>
<text xml:space="preserve" text-anchor="start" x="8.62" y="-237.75" font-family="Helvetica,sans-Serif" font-size="10.00">&#45;</text>
<text xml:space="preserve" text-anchor="start" x="21" y="-237.75" font-family="Helvetica,sans-Serif" font-size="10.00">m_runtime</text>
<text xml:space="preserve" text-anchor="start" x="8.62" y="-221" font-family="Helvetica,sans-Serif" font-size="10.00">&#45;</text>
<text xml:space="preserve" text-anchor="start" x="21" y="-221" font-family="Helvetica,sans-Serif" font-size="10.00">m_position_provider</text>
<text xml:space="preserve" text-anchor="start" x="8.62" y="-204.25" font-family="Helvetica,sans-Serif" font-size="10.00">&#45;</text>
<text xml:space="preserve" text-anchor="start" x="21" y="-204.25" font-family="Helvetica,sans-Serif" font-size="10.00">m_certificate_cache</text>
<text xml:space="preserve" text-anchor="start" x="8.62" y="-187.5" font-family="Helvetica,sans-Serif" font-size="10.00">&#45;</text>
<text xml:space="preserve" text-anchor="start" x="21" y="-187.5" font-family="Helvetica,sans-Serif" font-size="10.00">m_location_checker</text>
<text xml:space="preserve" text-anchor="start" x="8.62" y="-170.75" font-family="Helvetica,sans-Serif" font-size="10.00">&#45;</text>
<text xml:space="preserve" text-anchor="start" x="21" y="-170.75" font-family="Helvetica,sans-Serif" font-size="10.00">m_disable_time_checks</text>
<text xml:space="preserve" text-anchor="start" x="8.62" y="-154" font-family="Helvetica,sans-Serif" font-size="10.00">&#45;</text>
<text xml:space="preserve" text-anchor="start" x="21" y="-154" font-family="Helvetica,sans-Serif" font-size="10.00">m_disable_location</text>
<text xml:space="preserve" text-anchor="start" x="21" y="-141.25" font-family="Helvetica,sans-Serif" font-size="10.00">_checks</text>
<text xml:space="preserve" text-anchor="start" x="6.38" y="-124.5" font-family="Helvetica,sans-Serif" font-size="10.00">+</text>
<text xml:space="preserve" text-anchor="start" x="21" y="-124.5" font-family="Helvetica,sans-Serif" font-size="10.00">valid_for_signing()</text>
<text xml:space="preserve" text-anchor="start" x="6.38" y="-107.75" font-family="Helvetica,sans-Serif" font-size="10.00">+</text>
<text xml:space="preserve" text-anchor="start" x="21" y="-107.75" font-family="Helvetica,sans-Serif" font-size="10.00">use_runtime()</text>
<text xml:space="preserve" text-anchor="start" x="6.38" y="-91" font-family="Helvetica,sans-Serif" font-size="10.00">+</text>
<text xml:space="preserve" text-anchor="start" x="21" y="-91" font-family="Helvetica,sans-Serif" font-size="10.00">use_position_provider()</text>
<text xml:space="preserve" text-anchor="start" x="6.38" y="-74.25" font-family="Helvetica,sans-Serif" font-size="10.00">+</text>
<text xml:space="preserve" text-anchor="start" x="21" y="-74.25" font-family="Helvetica,sans-Serif" font-size="10.00">use_certificate_cache()</text>
<text xml:space="preserve" text-anchor="start" x="6.38" y="-57.5" font-family="Helvetica,sans-Serif" font-size="10.00">+</text>
<text xml:space="preserve" text-anchor="start" x="21" y="-57.5" font-family="Helvetica,sans-Serif" font-size="10.00">use_location_checker()</text>
<text xml:space="preserve" text-anchor="start" x="6.38" y="-40.75" font-family="Helvetica,sans-Serif" font-size="10.00">+</text>
<text xml:space="preserve" text-anchor="start" x="21" y="-40.75" font-family="Helvetica,sans-Serif" font-size="10.00">disable_time_checks()</text>
<text xml:space="preserve" text-anchor="start" x="6.38" y="-24" font-family="Helvetica,sans-Serif" font-size="10.00">+</text>
<text xml:space="preserve" text-anchor="start" x="21" y="-24" font-family="Helvetica,sans-Serif" font-size="10.00">disable_location_checks()</text>
<text xml:space="preserve" text-anchor="start" x="8.62" y="-7.25" font-family="Helvetica,sans-Serif" font-size="10.00">&#45;</text>
<text xml:space="preserve" text-anchor="start" x="21" y="-7.25" font-family="Helvetica,sans-Serif" font-size="10.00">find_issuer_certificate()</text>
<polygon fill="#666666" stroke="#666666" points="0,-249.25 0,-249.25 155.75,-249.25 155.75,-249.25 0,-249.25"/>
<polygon fill="#666666" stroke="#666666" points="0,-136 0,-136 19,-136 19,-136 0,-136"/>
<polygon fill="#666666" stroke="#666666" points="19,-136 19,-136 155.75,-136 155.75,-136 19,-136"/>
<polygon fill="none" stroke="#666666" points="0,0 0,-280.75 155.75,-280.75 155.75,0 0,0"/>
</a>
</g>
</g>
<!-- Node2 -->
<g id="Node000002" class="node">
<title>Node2</title>
<g id="a_Node000002"><a xlink:href="../../d6/da0/classvanetza_1_1security_1_1v3_1_1CertificateValidator.html" target="_top" xlink:title=" ">
<polygon fill="white" stroke="none" points="142.75,-400.5 13,-400.5 13,-316.75 142.75,-316.75 142.75,-400.5"/>
<text xml:space="preserve" text-anchor="start" x="22" y="-387" font-family="Helvetica,sans-Serif" font-size="10.00">vanetza::security::</text>
<text xml:space="preserve" text-anchor="start" x="22" y="-374.25" font-family="Helvetica,sans-Serif" font-size="10.00">v3::CertificateValidator</text>
<text xml:space="preserve" text-anchor="start" x="76.38" y="-357.5" font-family="Helvetica,sans-Serif" font-size="10.00"> </text>
<text xml:space="preserve" text-anchor="start" x="17" y="-340.75" font-family="Helvetica,sans-Serif" font-size="10.00">+</text>
<text xml:space="preserve" text-anchor="start" x="29.25" y="-340.75" font-family="Helvetica,sans-Serif" font-size="10.00">valid_for_signing()</text>
<text xml:space="preserve" text-anchor="start" x="17" y="-324" font-family="Helvetica,sans-Serif" font-size="10.00">+</text>
<text xml:space="preserve" text-anchor="start" x="29.25" y="-324" font-family="Helvetica,sans-Serif" font-size="10.00">~CertificateValidator()</text>
<polygon fill="#bfbfbf" stroke="#bfbfbf" points="13,-369 13,-369 142.75,-369 142.75,-369 13,-369"/>
<polygon fill="#bfbfbf" stroke="#bfbfbf" points="13,-352.25 13,-352.25 142.75,-352.25 142.75,-352.25 13,-352.25"/>
<polygon fill="none" stroke="#bfbfbf" points="13,-316.75 13,-400.5 142.75,-400.5 142.75,-316.75 13,-316.75"/>
</a>
</g>
</g>
<!-- Node2&#45;&gt;Node1 -->
<g id="edge1_Node000001_Node000002" class="edge">
<title>Node2&#45;&gt;Node1</title>
<g id="a_edge1_Node000001_Node000002"><a xlink:title=" ">
<path fill="none" stroke="#63b8ff" d="M77.88,-305.49C77.88,-297.65 77.88,-289.26 77.88,-280.58"/>
<polygon fill="none" stroke="#63b8ff" points="74.38,-305.44 77.88,-315.44 81.38,-305.44 74.38,-305.44"/>
</a>
</g>
</g>
</g>
</svg>
