<?xml version="1.0" encoding="UTF-8" standalone="no"?>
<!DOCTYPE svg PUBLIC "-//W3C//DTD SVG 1.1//EN"
 "http://www.w3.org/Graphics/SVG/1.1/DTD/svg11.dtd">
<!-- Generated by graphviz version 2.42.1 (0)
 -->
<!-- Title: vanetza::dcc::LimericTransmitRateControl Pages: 1 -->
<svg width="304pt" height="353pt"
 viewBox="0.00 0.00 304.00 353.00" xmlns="http://www.w3.org/2000/svg" xmlns:xlink="http://www.w3.org/1999/xlink">
<g id="graph0" class="graph" transform="scale(1 1) rotate(0) translate(4 349)">
<title>vanetza::dcc::LimericTransmitRateControl</title>
<polygon fill="white" stroke="transparent" points="-4,4 -4,-349 300,-349 300,4 -4,4"/>
<!-- Node0 -->
<g id="node1" class="node">
<title>Node0</title>
<g id="a_node1"><a xlink:title=" ">
<polygon fill="#bfbfbf" stroke="black" points="70,-0.5 70,-112.5 224,-112.5 224,-0.5 70,-0.5"/>
<text text-anchor="start" x="78" y="-100.5" font-family="Helvetica,sans-Serif" font-size="10.00">vanetza::dcc::LimericTransmit</text>
<text text-anchor="middle" x="147" y="-89.5" font-family="Helvetica,sans-Serif" font-size="10.00">RateControl</text>
<polyline fill="none" stroke="black" points="70,-82.5 224,-82.5 "/>
<text text-anchor="start" x="78" y="-70.5" font-family="Helvetica,sans-Serif" font-size="10.00">&#45; m_budget</text>
<polyline fill="none" stroke="black" points="70,-63.5 224,-63.5 "/>
<text text-anchor="start" x="78" y="-51.5" font-family="Helvetica,sans-Serif" font-size="10.00">+ LimericTransmitRateControl()</text>
<text text-anchor="start" x="78" y="-40.5" font-family="Helvetica,sans-Serif" font-size="10.00">+ delay()</text>
<text text-anchor="start" x="78" y="-29.5" font-family="Helvetica,sans-Serif" font-size="10.00">+ interval()</text>
<text text-anchor="start" x="78" y="-18.5" font-family="Helvetica,sans-Serif" font-size="10.00">+ notify()</text>
<text text-anchor="start" x="78" y="-7.5" font-family="Helvetica,sans-Serif" font-size="10.00">+ update()</text>
</a>
</g>
</g>
<!-- Node1 -->
<g id="node2" class="node">
<title>Node1</title>
<g id="a_node2"><a xlink:href="../../de/d9c/classvanetza_1_1dcc_1_1TransmitRateControl.html" target="_top" xlink:title=" ">
<polygon fill="white" stroke="black" points="78,-149.5 78,-217.5 216,-217.5 216,-149.5 78,-149.5"/>
<text text-anchor="start" x="86" y="-205.5" font-family="Helvetica,sans-Serif" font-size="10.00">vanetza::dcc::TransmitRate</text>
<text text-anchor="middle" x="147" y="-194.5" font-family="Helvetica,sans-Serif" font-size="10.00">Control</text>
<polyline fill="none" stroke="black" points="78,-187.5 216,-187.5 "/>
<text text-anchor="middle" x="147" y="-175.5" font-family="Helvetica,sans-Serif" font-size="10.00"> </text>
<polyline fill="none" stroke="black" points="78,-168.5 216,-168.5 "/>
<text text-anchor="middle" x="147" y="-156.5" font-family="Helvetica,sans-Serif" font-size="10.00"> </text>
</a>
</g>
</g>
<!-- Node1&#45;&gt;Node0 -->
<g id="edge1" class="edge">
<title>Node1&#45;&gt;Node0</title>
<path fill="none" stroke="midnightblue" d="M147,-139.18C147,-130.6 147,-121.49 147,-112.59"/>
<polygon fill="none" stroke="midnightblue" points="143.5,-139.33 147,-149.33 150.5,-139.33 143.5,-139.33"/>
</g>
<!-- Node2 -->
<g id="node3" class="node">
<title>Node2</title>
<g id="a_node3"><a xlink:href="../../dd/dbf/classvanetza_1_1dcc_1_1TransmitRateThrottle.html" target="_top" xlink:title=" ">
<polygon fill="white" stroke="black" points="0,-254.5 0,-344.5 138,-344.5 138,-254.5 0,-254.5"/>
<text text-anchor="start" x="8" y="-332.5" font-family="Helvetica,sans-Serif" font-size="10.00">vanetza::dcc::TransmitRate</text>
<text text-anchor="middle" x="69" y="-321.5" font-family="Helvetica,sans-Serif" font-size="10.00">Throttle</text>
<polyline fill="none" stroke="black" points="0,-314.5 138,-314.5 "/>
<text text-anchor="middle" x="69" y="-302.5" font-family="Helvetica,sans-Serif" font-size="10.00"> </text>
<polyline fill="none" stroke="black" points="0,-295.5 138,-295.5 "/>
<text text-anchor="start" x="8" y="-283.5" font-family="Helvetica,sans-Serif" font-size="10.00">+ delay()</text>
<text text-anchor="start" x="8" y="-272.5" font-family="Helvetica,sans-Serif" font-size="10.00">+ interval()</text>
<text text-anchor="start" x="8" y="-261.5" font-family="Helvetica,sans-Serif" font-size="10.00">+ ~TransmitRateThrottle()</text>
</a>
</g>
</g>
<!-- Node2&#45;&gt;Node1 -->
<g id="edge2" class="edge">
<title>Node2&#45;&gt;Node1</title>
<path fill="none" stroke="midnightblue" d="M104.88,-246.06C111.44,-236.47 118.13,-226.7 124.18,-217.85"/>
<polygon fill="none" stroke="midnightblue" points="101.92,-244.2 99.16,-254.42 107.69,-248.15 101.92,-244.2"/>
</g>
<!-- Node3 -->
<g id="node4" class="node">
<title>Node3</title>
<g id="a_node4"><a xlink:href="../../d2/d13/classvanetza_1_1dcc_1_1TransmitRateFeedback.html" target="_top" xlink:title=" ">
<polygon fill="white" stroke="black" points="156,-260 156,-339 296,-339 296,-260 156,-260"/>
<text text-anchor="start" x="164" y="-327" font-family="Helvetica,sans-Serif" font-size="10.00">vanetza::dcc::TransmitRate</text>
<text text-anchor="middle" x="226" y="-316" font-family="Helvetica,sans-Serif" font-size="10.00">Feedback</text>
<polyline fill="none" stroke="black" points="156,-309 296,-309 "/>
<text text-anchor="middle" x="226" y="-297" font-family="Helvetica,sans-Serif" font-size="10.00"> </text>
<polyline fill="none" stroke="black" points="156,-290 296,-290 "/>
<text text-anchor="start" x="164" y="-278" font-family="Helvetica,sans-Serif" font-size="10.00">+ notify()</text>
<text text-anchor="start" x="164" y="-267" font-family="Helvetica,sans-Serif" font-size="10.00">+ ~TransmitRateFeedback()</text>
</a>
</g>
</g>
<!-- Node3&#45;&gt;Node1 -->
<g id="edge3" class="edge">
<title>Node3&#45;&gt;Node1</title>
<path fill="none" stroke="midnightblue" d="M193.36,-251.39C185.52,-240.09 177.32,-228.25 170.02,-217.72"/>
<polygon fill="none" stroke="midnightblue" points="190.68,-253.68 199.25,-259.9 196.44,-249.69 190.68,-253.68"/>
</g>
</g>
</svg>
