<?xml version="1.0" encoding="UTF-8" standalone="no"?>
<!DOCTYPE svg PUBLIC "-//W3C//DTD SVG 1.1//EN"
 "http://www.w3.org/Graphics/SVG/1.1/DTD/svg11.dtd">
<!-- Generated by graphviz version 2.49.3 (0)
 -->
<!-- Title: vanetza::dcc::LimericTransmitRateControl Pages: 1 -->
<svg width="300pt" height="353pt"
 viewBox="0.00 0.00 300.00 353.00" xmlns="http://www.w3.org/2000/svg" xmlns:xlink="http://www.w3.org/1999/xlink">
<g id="graph0" class="graph" transform="scale(1 1) rotate(0) translate(4 349)">
<title>vanetza::dcc::LimericTransmitRateControl</title>
<polygon fill="white" stroke="transparent" points="-4,4 -4,-349 296,-349 296,4 -4,4"/>
<!-- Node1 -->
<g id="node1" class="node">
<title>Node1</title>
<g id="a_node1"><a xlink:title=" ">
<polygon fill="#bfbfbf" stroke="black" points="69,-0.5 69,-112.5 221,-112.5 221,-0.5 69,-0.5"/>
<text text-anchor="start" x="77" y="-100.5" font-family="Helvetica,sans-Serif" font-size="10.00">vanetza::dcc::LimericTransmit</text>
<text text-anchor="middle" x="145" y="-89.5" font-family="Helvetica,sans-Serif" font-size="10.00">RateControl</text>
<polyline fill="none" stroke="black" points="69,-82.5 221,-82.5 "/>
<text text-anchor="start" x="77" y="-70.5" font-family="Helvetica,sans-Serif" font-size="10.00">&#45; m_budget</text>
<polyline fill="none" stroke="black" points="69,-63.5 221,-63.5 "/>
<text text-anchor="start" x="77" y="-51.5" font-family="Helvetica,sans-Serif" font-size="10.00">+ LimericTransmitRateControl()</text>
<text text-anchor="start" x="77" y="-40.5" font-family="Helvetica,sans-Serif" font-size="10.00">+ delay()</text>
<text text-anchor="start" x="77" y="-29.5" font-family="Helvetica,sans-Serif" font-size="10.00">+ interval()</text>
<text text-anchor="start" x="77" y="-18.5" font-family="Helvetica,sans-Serif" font-size="10.00">+ notify()</text>
<text text-anchor="start" x="77" y="-7.5" font-family="Helvetica,sans-Serif" font-size="10.00">+ update()</text>
</a>
</g>
</g>
<!-- Node2 -->
<g id="node2" class="node">
<title>Node2</title>
<g id="a_node2"><a xlink:href="../../de/d9c/classvanetza_1_1dcc_1_1TransmitRateControl.html" target="_top" xlink:title=" ">
<polygon fill="white" stroke="#bfbfbf" points="77,-149.5 77,-217.5 213,-217.5 213,-149.5 77,-149.5"/>
<text text-anchor="start" x="85" y="-205.5" font-family="Helvetica,sans-Serif" font-size="10.00">vanetza::dcc::TransmitRate</text>
<text text-anchor="middle" x="145" y="-194.5" font-family="Helvetica,sans-Serif" font-size="10.00">Control</text>
<polyline fill="none" stroke="#bfbfbf" points="77,-187.5 213,-187.5 "/>
<text text-anchor="middle" x="145" y="-175.5" font-family="Helvetica,sans-Serif" font-size="10.00"> </text>
<polyline fill="none" stroke="#bfbfbf" points="77,-168.5 213,-168.5 "/>
<text text-anchor="middle" x="145" y="-156.5" font-family="Helvetica,sans-Serif" font-size="10.00"> </text>
</a>
</g>
</g>
<!-- Node2&#45;&gt;Node1 -->
<g id="edge1" class="edge">
<title>Node2&#45;&gt;Node1</title>
<path fill="none" stroke="midnightblue" d="M145,-139.18C145,-130.6 145,-121.49 145,-112.59"/>
<polygon fill="none" stroke="midnightblue" points="141.5,-139.33 145,-149.33 148.5,-139.33 141.5,-139.33"/>
</g>
<!-- Node3 -->
<g id="node3" class="node">
<title>Node3</title>
<g id="a_node3"><a xlink:href="../../dd/dbf/classvanetza_1_1dcc_1_1TransmitRateThrottle.html" target="_top" xlink:title=" ">
<polygon fill="white" stroke="#bfbfbf" points="0,-254.5 0,-344.5 136,-344.5 136,-254.5 0,-254.5"/>
<text text-anchor="start" x="8" y="-332.5" font-family="Helvetica,sans-Serif" font-size="10.00">vanetza::dcc::TransmitRate</text>
<text text-anchor="middle" x="68" y="-321.5" font-family="Helvetica,sans-Serif" font-size="10.00">Throttle</text>
<polyline fill="none" stroke="#bfbfbf" points="0,-314.5 136,-314.5 "/>
<text text-anchor="middle" x="68" y="-302.5" font-family="Helvetica,sans-Serif" font-size="10.00"> </text>
<polyline fill="none" stroke="#bfbfbf" points="0,-295.5 136,-295.5 "/>
<text text-anchor="start" x="8" y="-283.5" font-family="Helvetica,sans-Serif" font-size="10.00">+ delay()</text>
<text text-anchor="start" x="8" y="-272.5" font-family="Helvetica,sans-Serif" font-size="10.00">+ interval()</text>
<text text-anchor="start" x="8" y="-261.5" font-family="Helvetica,sans-Serif" font-size="10.00">+ ~TransmitRateThrottle()</text>
</a>
</g>
</g>
<!-- Node3&#45;&gt;Node2 -->
<g id="edge2" class="edge">
<title>Node3&#45;&gt;Node2</title>
<path fill="none" stroke="midnightblue" d="M103.42,-246.06C109.9,-236.47 116.5,-226.7 122.48,-217.85"/>
<polygon fill="none" stroke="midnightblue" points="100.47,-244.18 97.77,-254.42 106.27,-248.1 100.47,-244.18"/>
</g>
<!-- Node4 -->
<g id="node4" class="node">
<title>Node4</title>
<g id="a_node4"><a xlink:href="../../d2/d13/classvanetza_1_1dcc_1_1TransmitRateFeedback.html" target="_top" xlink:title=" ">
<polygon fill="white" stroke="#bfbfbf" points="154,-260 154,-339 292,-339 292,-260 154,-260"/>
<text text-anchor="start" x="162" y="-327" font-family="Helvetica,sans-Serif" font-size="10.00">vanetza::dcc::TransmitRate</text>
<text text-anchor="middle" x="223" y="-316" font-family="Helvetica,sans-Serif" font-size="10.00">Feedback</text>
<polyline fill="none" stroke="#bfbfbf" points="154,-309 292,-309 "/>
<text text-anchor="middle" x="223" y="-297" font-family="Helvetica,sans-Serif" font-size="10.00"> </text>
<polyline fill="none" stroke="#bfbfbf" points="154,-290 292,-290 "/>
<text text-anchor="start" x="162" y="-278" font-family="Helvetica,sans-Serif" font-size="10.00">+ notify()</text>
<text text-anchor="start" x="162" y="-267" font-family="Helvetica,sans-Serif" font-size="10.00">+ ~TransmitRateFeedback()</text>
</a>
</g>
</g>
<!-- Node4&#45;&gt;Node2 -->
<g id="edge3" class="edge">
<title>Node4&#45;&gt;Node2</title>
<path fill="none" stroke="midnightblue" d="M190.77,-251.39C183.03,-240.09 174.93,-228.25 167.73,-217.72"/>
<polygon fill="none" stroke="midnightblue" points="188.06,-253.63 196.59,-259.9 193.83,-249.68 188.06,-253.63"/>
</g>
</g>
</svg>
