<?xml version="1.0" encoding="UTF-8" standalone="no"?>
<!DOCTYPE svg PUBLIC "-//W3C//DTD SVG 1.1//EN"
 "http://www.w3.org/Graphics/SVG/1.1/DTD/svg11.dtd">
<!-- Generated by graphviz version 2.49.3 (0)
 -->
<!-- Title: vanetza::dcc::LimericTransmitRateControl Pages: 1 -->
<svg width="288pt" height="350pt"
 viewBox="0.00 0.00 288.00 350.00" xmlns="http://www.w3.org/2000/svg" xmlns:xlink="http://www.w3.org/1999/xlink">
<g id="graph0" class="graph" transform="scale(1 1) rotate(0) translate(4 346)">
<title>vanetza::dcc::LimericTransmitRateControl</title>
<!-- Node1 -->
<g id="Node000001" class="node">
<title>Node1</title>
<g id="a_Node000001"><a xlink:title=" ">
<polygon fill="#999999" stroke="transparent" points="212,-120 66,-120 66,0 212,0 212,-120"/>
<text text-anchor="start" x="73.5" y="-108" font-family="Helvetica,sans-Serif" font-size="10.00">vanetza::dcc::LimericTransmit</text>
<text text-anchor="start" x="113" y="-97" font-family="Helvetica,sans-Serif" font-size="10.00">RateControl</text>
<text text-anchor="start" x="71.5" y="-82" font-family="Helvetica,sans-Serif" font-size="10.00">&#45;</text>
<text text-anchor="start" x="81" y="-82" font-family="Helvetica,sans-Serif" font-size="10.00">m_budget</text>
<text text-anchor="start" x="70" y="-67" font-family="Helvetica,sans-Serif" font-size="10.00">+</text>
<text text-anchor="start" x="81" y="-67" font-family="Helvetica,sans-Serif" font-size="10.00">LimericTransmitRateControl()</text>
<text text-anchor="start" x="70" y="-52" font-family="Helvetica,sans-Serif" font-size="10.00">+</text>
<text text-anchor="start" x="81" y="-52" font-family="Helvetica,sans-Serif" font-size="10.00">delay()</text>
<text text-anchor="start" x="70" y="-37" font-family="Helvetica,sans-Serif" font-size="10.00">+</text>
<text text-anchor="start" x="81" y="-37" font-family="Helvetica,sans-Serif" font-size="10.00">interval()</text>
<text text-anchor="start" x="70" y="-22" font-family="Helvetica,sans-Serif" font-size="10.00">+</text>
<text text-anchor="start" x="81" y="-22" font-family="Helvetica,sans-Serif" font-size="10.00">notify()</text>
<text text-anchor="start" x="70" y="-7" font-family="Helvetica,sans-Serif" font-size="10.00">+</text>
<text text-anchor="start" x="81" y="-7" font-family="Helvetica,sans-Serif" font-size="10.00">update()</text>
<polygon fill="#666666" stroke="#666666" points="66,-92 66,-92 212,-92 212,-92 66,-92"/>
<polygon fill="#666666" stroke="#666666" points="66,-77 66,-77 79,-77 79,-77 66,-77"/>
<polygon fill="#666666" stroke="#666666" points="79,-77 79,-77 212,-77 212,-77 79,-77"/>
<polygon fill="none" stroke="#666666" points="66,0 66,-120 212,-120 212,0 66,0"/>
</a>
</g>
</g>
<!-- Node2 -->
<g id="Node000002" class="node">
<title>Node2</title>
<g id="a_Node000002"><a xlink:href="../../de/d9c/classvanetza_1_1dcc_1_1TransmitRateControl.html" target="_top" xlink:title=" ">
<polygon fill="white" stroke="transparent" points="204,-216 74,-216 74,-156 204,-156 204,-216"/>
<text text-anchor="start" x="79" y="-204" font-family="Helvetica,sans-Serif" font-size="10.00">vanetza::dcc::TransmitRate</text>
<text text-anchor="start" x="123" y="-193" font-family="Helvetica,sans-Serif" font-size="10.00">Control</text>
<text text-anchor="start" x="137" y="-178" font-family="Helvetica,sans-Serif" font-size="10.00"> </text>
<text text-anchor="start" x="137" y="-163" font-family="Helvetica,sans-Serif" font-size="10.00"> </text>
<polygon fill="#bfbfbf" stroke="#bfbfbf" points="74,-188 74,-188 204,-188 204,-188 74,-188"/>
<polygon fill="#bfbfbf" stroke="#bfbfbf" points="74,-173 74,-173 204,-173 204,-173 74,-173"/>
<polygon fill="none" stroke="#bfbfbf" points="74,-156 74,-216 204,-216 204,-156 74,-156"/>
</a>
</g>
</g>
<!-- Node2&#45;&gt;Node1 -->
<g id="edge1_Node000001_Node000002" class="edge">
<title>Node2&#45;&gt;Node1</title>
<g id="a_edge1_Node000001_Node000002"><a xlink:title=" ">
<path fill="none" stroke="#63b8ff" d="M139,-145.93C139,-137.73 139,-128.9 139,-120.16"/>
<polygon fill="none" stroke="#63b8ff" points="135.5,-145.93 139,-155.93 142.5,-145.93 135.5,-145.93"/>
</a>
</g>
</g>
<!-- Node3 -->
<g id="Node000003" class="node">
<title>Node3</title>
<g id="a_Node000003"><a xlink:href="../../dd/dbf/classvanetza_1_1dcc_1_1TransmitRateThrottle.html" target="_top" xlink:title=" ">
<polygon fill="white" stroke="transparent" points="130,-342 0,-342 0,-252 130,-252 130,-342"/>
<text text-anchor="start" x="5" y="-330" font-family="Helvetica,sans-Serif" font-size="10.00">vanetza::dcc::TransmitRate</text>
<text text-anchor="start" x="48" y="-319" font-family="Helvetica,sans-Serif" font-size="10.00">Throttle</text>
<text text-anchor="start" x="63" y="-304" font-family="Helvetica,sans-Serif" font-size="10.00"> </text>
<text text-anchor="start" x="6" y="-289" font-family="Helvetica,sans-Serif" font-size="10.00">+</text>
<text text-anchor="start" x="19" y="-289" font-family="Helvetica,sans-Serif" font-size="10.00">delay()</text>
<text text-anchor="start" x="6" y="-274" font-family="Helvetica,sans-Serif" font-size="10.00">+</text>
<text text-anchor="start" x="19" y="-274" font-family="Helvetica,sans-Serif" font-size="10.00">interval()</text>
<text text-anchor="start" x="6" y="-259" font-family="Helvetica,sans-Serif" font-size="10.00">+</text>
<text text-anchor="start" x="19" y="-259" font-family="Helvetica,sans-Serif" font-size="10.00">~TransmitRateThrottle()</text>
<polygon fill="#bfbfbf" stroke="#bfbfbf" points="0,-314 0,-314 130,-314 130,-314 0,-314"/>
<polygon fill="#bfbfbf" stroke="#bfbfbf" points="0,-299 0,-299 130,-299 130,-299 0,-299"/>
<polygon fill="none" stroke="#bfbfbf" points="0,-252 0,-342 130,-342 130,-252 0,-252"/>
</a>
</g>
</g>
<!-- Node3&#45;&gt;Node2 -->
<g id="edge2_Node000002_Node000003" class="edge">
<title>Node3&#45;&gt;Node2</title>
<g id="a_edge2_Node000002_Node000003"><a xlink:title=" ">
<path fill="none" stroke="#63b8ff" d="M100.7,-243.42C107.06,-234.04 113.48,-224.59 119.2,-216.17"/>
<polygon fill="none" stroke="#63b8ff" points="97.61,-241.74 94.89,-251.98 103.4,-245.67 97.61,-241.74"/>
</a>
</g>
</g>
<!-- Node4 -->
<g id="Node000004" class="node">
<title>Node4</title>
<g id="a_Node000004"><a xlink:href="../../d2/d13/classvanetza_1_1dcc_1_1TransmitRateFeedback.html" target="_top" xlink:title=" ">
<polygon fill="white" stroke="transparent" points="280,-334.5 148,-334.5 148,-259.5 280,-259.5 280,-334.5"/>
<text text-anchor="start" x="154" y="-322" font-family="Helvetica,sans-Serif" font-size="10.00">vanetza::dcc::TransmitRate</text>
<text text-anchor="start" x="192.5" y="-311" font-family="Helvetica,sans-Serif" font-size="10.00">Feedback</text>
<text text-anchor="start" x="212" y="-296" font-family="Helvetica,sans-Serif" font-size="10.00"> </text>
<text text-anchor="start" x="152" y="-281" font-family="Helvetica,sans-Serif" font-size="10.00">+</text>
<text text-anchor="start" x="163" y="-281" font-family="Helvetica,sans-Serif" font-size="10.00">notify()</text>
<text text-anchor="start" x="152" y="-266" font-family="Helvetica,sans-Serif" font-size="10.00">+</text>
<text text-anchor="start" x="163" y="-266" font-family="Helvetica,sans-Serif" font-size="10.00">~TransmitRateFeedback()</text>
<polygon fill="#bfbfbf" stroke="#bfbfbf" points="148,-306 148,-306 280,-306 280,-306 148,-306"/>
<polygon fill="#bfbfbf" stroke="#bfbfbf" points="148,-291 148,-291 280,-291 280,-291 148,-291"/>
<polygon fill="none" stroke="#bfbfbf" points="148,-259.5 148,-334.5 280,-334.5 280,-259.5 148,-259.5"/>
</a>
</g>
</g>
<!-- Node4&#45;&gt;Node2 -->
<g id="edge3_Node000002_Node000004" class="edge">
<title>Node4&#45;&gt;Node2</title>
<g id="a_edge3_Node000002_Node000004"><a xlink:title=" ">
<path fill="none" stroke="#63b8ff" d="M183.01,-250.97C174.91,-239.19 166.39,-226.8 159.02,-216.1"/>
<polygon fill="none" stroke="#63b8ff" points="180.27,-253.15 188.82,-259.4 186.03,-249.18 180.27,-253.15"/>
</a>
</g>
</g>
</g>
</svg>
