<?xml version="1.0" encoding="UTF-8" standalone="no"?>
<!DOCTYPE svg PUBLIC "-//W3C//DTD SVG 1.1//EN"
 "http://www.w3.org/Graphics/SVG/1.1/DTD/svg11.dtd">
<!-- Generated by graphviz version 14.1.2 (0)
 -->
<!-- Title: vanetza::geonet::Pdu Pages: 1 -->
<svg width="823pt" height="999pt"
 viewBox="0.00 0.00 823.00 999.00" xmlns="http://www.w3.org/2000/svg" xmlns:xlink="http://www.w3.org/1999/xlink">
<g id="graph0" class="graph" transform="scale(1 1) rotate(0) translate(4 995)">
<title>vanetza::geonet::Pdu</title>
<!-- Node1 -->
<g id="Node000001" class="node">
<title>Node1</title>
<g id="a_Node000001"><a xlink:title=" ">
<polygon fill="#999999" stroke="none" points="592.62,-816 481.88,-816 481.88,-661.25 592.62,-661.25 592.62,-816"/>
<text xml:space="preserve" text-anchor="start" x="485.88" y="-802.5" font-family="Helvetica,sans-Serif" font-size="10.00">vanetza::geonet::Pdu</text>
<text xml:space="preserve" text-anchor="start" x="535.75" y="-785.75" font-family="Helvetica,sans-Serif" font-size="10.00"> </text>
<text xml:space="preserve" text-anchor="start" x="495.94" y="-769" font-family="Helvetica,sans-Serif" font-size="10.00">+</text>
<text xml:space="preserve" text-anchor="start" x="518.25" y="-769" font-family="Helvetica,sans-Serif" font-size="10.00">basic()</text>
<text xml:space="preserve" text-anchor="start" x="495.94" y="-752.25" font-family="Helvetica,sans-Serif" font-size="10.00">+</text>
<text xml:space="preserve" text-anchor="start" x="518.25" y="-752.25" font-family="Helvetica,sans-Serif" font-size="10.00">common()</text>
<text xml:space="preserve" text-anchor="start" x="495.94" y="-735.5" font-family="Helvetica,sans-Serif" font-size="10.00">+</text>
<text xml:space="preserve" text-anchor="start" x="518.25" y="-735.5" font-family="Helvetica,sans-Serif" font-size="10.00">secured()</text>
<text xml:space="preserve" text-anchor="start" x="495.94" y="-718.75" font-family="Helvetica,sans-Serif" font-size="10.00">+</text>
<text xml:space="preserve" text-anchor="start" x="518.25" y="-718.75" font-family="Helvetica,sans-Serif" font-size="10.00">secured()</text>
<text xml:space="preserve" text-anchor="start" x="495.94" y="-702" font-family="Helvetica,sans-Serif" font-size="10.00">+</text>
<text xml:space="preserve" text-anchor="start" x="518.25" y="-702" font-family="Helvetica,sans-Serif" font-size="10.00">basic()</text>
<text xml:space="preserve" text-anchor="start" x="495.94" y="-685.25" font-family="Helvetica,sans-Serif" font-size="10.00">+</text>
<text xml:space="preserve" text-anchor="start" x="518.25" y="-685.25" font-family="Helvetica,sans-Serif" font-size="10.00">common()</text>
<text xml:space="preserve" text-anchor="start" x="495.94" y="-668.5" font-family="Helvetica,sans-Serif" font-size="10.00">+</text>
<text xml:space="preserve" text-anchor="start" x="518.25" y="-668.5" font-family="Helvetica,sans-Serif" font-size="10.00">secured()</text>
<polygon fill="#666666" stroke="#666666" points="481.88,-797.25 481.88,-797.25 592.62,-797.25 592.62,-797.25 481.88,-797.25"/>
<polygon fill="#666666" stroke="#666666" points="481.88,-780.5 481.88,-780.5 592.62,-780.5 592.62,-780.5 481.88,-780.5"/>
<polygon fill="none" stroke="#666666" points="481.88,-661.25 481.88,-816 592.62,-816 592.62,-661.25 481.88,-661.25"/>
</a>
</g>
</g>
<!-- Node3 -->
<g id="Node000003" class="node">
<title>Node3</title>
<g id="a_Node000003"><a xlink:href="../../d9/d6e/classvanetza_1_1geonet_1_1ExtendedPdu.html" target="_top" xlink:title=" ">
<polygon fill="white" stroke="none" points="299.5,-284.75 161,-284.75 161,0 299.5,0 299.5,-284.75"/>
<text xml:space="preserve" text-anchor="start" x="165" y="-271.25" font-family="Helvetica,sans-Serif" font-size="10.00">vanetza::geonet::Extended</text>
<text xml:space="preserve" text-anchor="start" x="183.38" y="-258.5" font-family="Helvetica,sans-Serif" font-size="10.00">Pdu&lt; ShbHeader &gt;</text>
<text xml:space="preserve" text-anchor="start" x="179" y="-241.75" font-family="Helvetica,sans-Serif" font-size="10.00">&#45;</text>
<text xml:space="preserve" text-anchor="start" x="200.75" y="-241.75" font-family="Helvetica,sans-Serif" font-size="10.00">m_basic</text>
<text xml:space="preserve" text-anchor="start" x="179" y="-225" font-family="Helvetica,sans-Serif" font-size="10.00">&#45;</text>
<text xml:space="preserve" text-anchor="start" x="200.75" y="-225" font-family="Helvetica,sans-Serif" font-size="10.00">m_common</text>
<text xml:space="preserve" text-anchor="start" x="179" y="-208.25" font-family="Helvetica,sans-Serif" font-size="10.00">&#45;</text>
<text xml:space="preserve" text-anchor="start" x="200.75" y="-208.25" font-family="Helvetica,sans-Serif" font-size="10.00">m_extended</text>
<text xml:space="preserve" text-anchor="start" x="179" y="-191.5" font-family="Helvetica,sans-Serif" font-size="10.00">&#45;</text>
<text xml:space="preserve" text-anchor="start" x="200.75" y="-191.5" font-family="Helvetica,sans-Serif" font-size="10.00">m_secured</text>
<text xml:space="preserve" text-anchor="start" x="176.75" y="-174.75" font-family="Helvetica,sans-Serif" font-size="10.00">+</text>
<text xml:space="preserve" text-anchor="start" x="200.75" y="-174.75" font-family="Helvetica,sans-Serif" font-size="10.00">ExtendedPdu()</text>
<text xml:space="preserve" text-anchor="start" x="176.75" y="-158" font-family="Helvetica,sans-Serif" font-size="10.00">+</text>
<text xml:space="preserve" text-anchor="start" x="200.75" y="-158" font-family="Helvetica,sans-Serif" font-size="10.00">ExtendedPdu()</text>
<text xml:space="preserve" text-anchor="start" x="176.75" y="-141.25" font-family="Helvetica,sans-Serif" font-size="10.00">+</text>
<text xml:space="preserve" text-anchor="start" x="200.75" y="-141.25" font-family="Helvetica,sans-Serif" font-size="10.00">operator=()</text>
<text xml:space="preserve" text-anchor="start" x="176.75" y="-124.5" font-family="Helvetica,sans-Serif" font-size="10.00">+</text>
<text xml:space="preserve" text-anchor="start" x="200.75" y="-124.5" font-family="Helvetica,sans-Serif" font-size="10.00">ExtendedPdu()</text>
<text xml:space="preserve" text-anchor="start" x="176.75" y="-107.75" font-family="Helvetica,sans-Serif" font-size="10.00">+</text>
<text xml:space="preserve" text-anchor="start" x="200.75" y="-107.75" font-family="Helvetica,sans-Serif" font-size="10.00">ExtendedPdu()</text>
<text xml:space="preserve" text-anchor="start" x="176.75" y="-91" font-family="Helvetica,sans-Serif" font-size="10.00">+</text>
<text xml:space="preserve" text-anchor="start" x="200.75" y="-91" font-family="Helvetica,sans-Serif" font-size="10.00">ExtendedPdu()</text>
<text xml:space="preserve" text-anchor="start" x="176.75" y="-74.25" font-family="Helvetica,sans-Serif" font-size="10.00">+</text>
<text xml:space="preserve" text-anchor="start" x="200.75" y="-74.25" font-family="Helvetica,sans-Serif" font-size="10.00">ExtendedPdu()</text>
<text xml:space="preserve" text-anchor="start" x="176.75" y="-57.5" font-family="Helvetica,sans-Serif" font-size="10.00">+</text>
<text xml:space="preserve" text-anchor="start" x="200.75" y="-57.5" font-family="Helvetica,sans-Serif" font-size="10.00">ExtendedPdu()</text>
<text xml:space="preserve" text-anchor="start" x="176.75" y="-40.75" font-family="Helvetica,sans-Serif" font-size="10.00">+</text>
<text xml:space="preserve" text-anchor="start" x="200.75" y="-40.75" font-family="Helvetica,sans-Serif" font-size="10.00">basic()</text>
<text xml:space="preserve" text-anchor="start" x="176.75" y="-24" font-family="Helvetica,sans-Serif" font-size="10.00">+</text>
<text xml:space="preserve" text-anchor="start" x="200.75" y="-24" font-family="Helvetica,sans-Serif" font-size="10.00">basic()</text>
<text xml:space="preserve" text-anchor="start" x="200.75" y="-7.25" font-family="Helvetica,sans-Serif" font-size="10.00">and 10 more...</text>
<polygon fill="#bfbfbf" stroke="#bfbfbf" points="161,-253.25 161,-253.25 299.5,-253.25 299.5,-253.25 161,-253.25"/>
<polygon fill="#bfbfbf" stroke="#bfbfbf" points="161,-186.25 161,-186.25 198.75,-186.25 198.75,-186.25 161,-186.25"/>
<polygon fill="#bfbfbf" stroke="#bfbfbf" points="198.75,-186.25 198.75,-186.25 299.5,-186.25 299.5,-186.25 198.75,-186.25"/>
<polygon fill="none" stroke="#bfbfbf" points="161,0 161,-284.75 299.5,-284.75 299.5,0 161,0"/>
</a>
</g>
</g>
<!-- Node1&#45;&gt;Node3 -->
<g id="edge2_Node000001_Node000003" class="edge">
<title>Node1&#45;&gt;Node3</title>
<g id="a_edge2_Node000001_Node000003"><a xlink:title=" ">
<path fill="none" stroke="#63b8ff" d="M470.74,-725.88C409.1,-711.75 318.68,-682.28 262.25,-624.25 156.46,-515.45 111.17,-450.15 147.25,-302.75 150.63,-288.96 155.42,-275.04 161.03,-261.47"/>
<polygon fill="none" stroke="#63b8ff" points="469.9,-729.28 480.42,-728.02 471.41,-722.45 469.9,-729.28"/>
</a>
</g>
</g>
<!-- Node4 -->
<g id="Node000004" class="node">
<title>Node4</title>
<g id="a_Node000004"><a xlink:href="../../d9/d6e/classvanetza_1_1geonet_1_1ExtendedPdu.html" target="_top" xlink:title=" ">
<polygon fill="white" stroke="none" points="138.5,-284.75 0,-284.75 0,0 138.5,0 138.5,-284.75"/>
<text xml:space="preserve" text-anchor="start" x="4" y="-271.25" font-family="Helvetica,sans-Serif" font-size="10.00">vanetza::geonet::Extended</text>
<text xml:space="preserve" text-anchor="start" x="23.5" y="-258.5" font-family="Helvetica,sans-Serif" font-size="10.00">Pdu&lt; TsbHeader &gt;</text>
<text xml:space="preserve" text-anchor="start" x="18" y="-241.75" font-family="Helvetica,sans-Serif" font-size="10.00">&#45;</text>
<text xml:space="preserve" text-anchor="start" x="39.75" y="-241.75" font-family="Helvetica,sans-Serif" font-size="10.00">m_basic</text>
<text xml:space="preserve" text-anchor="start" x="18" y="-225" font-family="Helvetica,sans-Serif" font-size="10.00">&#45;</text>
<text xml:space="preserve" text-anchor="start" x="39.75" y="-225" font-family="Helvetica,sans-Serif" font-size="10.00">m_common</text>
<text xml:space="preserve" text-anchor="start" x="18" y="-208.25" font-family="Helvetica,sans-Serif" font-size="10.00">&#45;</text>
<text xml:space="preserve" text-anchor="start" x="39.75" y="-208.25" font-family="Helvetica,sans-Serif" font-size="10.00">m_extended</text>
<text xml:space="preserve" text-anchor="start" x="18" y="-191.5" font-family="Helvetica,sans-Serif" font-size="10.00">&#45;</text>
<text xml:space="preserve" text-anchor="start" x="39.75" y="-191.5" font-family="Helvetica,sans-Serif" font-size="10.00">m_secured</text>
<text xml:space="preserve" text-anchor="start" x="15.75" y="-174.75" font-family="Helvetica,sans-Serif" font-size="10.00">+</text>
<text xml:space="preserve" text-anchor="start" x="39.75" y="-174.75" font-family="Helvetica,sans-Serif" font-size="10.00">ExtendedPdu()</text>
<text xml:space="preserve" text-anchor="start" x="15.75" y="-158" font-family="Helvetica,sans-Serif" font-size="10.00">+</text>
<text xml:space="preserve" text-anchor="start" x="39.75" y="-158" font-family="Helvetica,sans-Serif" font-size="10.00">ExtendedPdu()</text>
<text xml:space="preserve" text-anchor="start" x="15.75" y="-141.25" font-family="Helvetica,sans-Serif" font-size="10.00">+</text>
<text xml:space="preserve" text-anchor="start" x="39.75" y="-141.25" font-family="Helvetica,sans-Serif" font-size="10.00">operator=()</text>
<text xml:space="preserve" text-anchor="start" x="15.75" y="-124.5" font-family="Helvetica,sans-Serif" font-size="10.00">+</text>
<text xml:space="preserve" text-anchor="start" x="39.75" y="-124.5" font-family="Helvetica,sans-Serif" font-size="10.00">ExtendedPdu()</text>
<text xml:space="preserve" text-anchor="start" x="15.75" y="-107.75" font-family="Helvetica,sans-Serif" font-size="10.00">+</text>
<text xml:space="preserve" text-anchor="start" x="39.75" y="-107.75" font-family="Helvetica,sans-Serif" font-size="10.00">ExtendedPdu()</text>
<text xml:space="preserve" text-anchor="start" x="15.75" y="-91" font-family="Helvetica,sans-Serif" font-size="10.00">+</text>
<text xml:space="preserve" text-anchor="start" x="39.75" y="-91" font-family="Helvetica,sans-Serif" font-size="10.00">ExtendedPdu()</text>
<text xml:space="preserve" text-anchor="start" x="15.75" y="-74.25" font-family="Helvetica,sans-Serif" font-size="10.00">+</text>
<text xml:space="preserve" text-anchor="start" x="39.75" y="-74.25" font-family="Helvetica,sans-Serif" font-size="10.00">ExtendedPdu()</text>
<text xml:space="preserve" text-anchor="start" x="15.75" y="-57.5" font-family="Helvetica,sans-Serif" font-size="10.00">+</text>
<text xml:space="preserve" text-anchor="start" x="39.75" y="-57.5" font-family="Helvetica,sans-Serif" font-size="10.00">ExtendedPdu()</text>
<text xml:space="preserve" text-anchor="start" x="15.75" y="-40.75" font-family="Helvetica,sans-Serif" font-size="10.00">+</text>
<text xml:space="preserve" text-anchor="start" x="39.75" y="-40.75" font-family="Helvetica,sans-Serif" font-size="10.00">basic()</text>
<text xml:space="preserve" text-anchor="start" x="15.75" y="-24" font-family="Helvetica,sans-Serif" font-size="10.00">+</text>
<text xml:space="preserve" text-anchor="start" x="39.75" y="-24" font-family="Helvetica,sans-Serif" font-size="10.00">basic()</text>
<text xml:space="preserve" text-anchor="start" x="39.75" y="-7.25" font-family="Helvetica,sans-Serif" font-size="10.00">and 10 more...</text>
<polygon fill="#bfbfbf" stroke="#bfbfbf" points="0,-253.25 0,-253.25 138.5,-253.25 138.5,-253.25 0,-253.25"/>
<polygon fill="#bfbfbf" stroke="#bfbfbf" points="0,-186.25 0,-186.25 37.75,-186.25 37.75,-186.25 0,-186.25"/>
<polygon fill="#bfbfbf" stroke="#bfbfbf" points="37.75,-186.25 37.75,-186.25 138.5,-186.25 138.5,-186.25 37.75,-186.25"/>
<polygon fill="none" stroke="#bfbfbf" points="0,0 0,-284.75 138.5,-284.75 138.5,0 0,0"/>
</a>
</g>
</g>
<!-- Node1&#45;&gt;Node4 -->
<g id="edge3_Node000001_Node000004" class="edge">
<title>Node1&#45;&gt;Node4</title>
<g id="a_edge3_Node000001_Node000004"><a xlink:title=" ">
<path fill="none" stroke="#63b8ff" d="M470.81,-728.07C367.48,-711.78 175.5,-675.39 131.25,-624.25 51.52,-532.11 42.13,-390.43 49.03,-284.69"/>
<polygon fill="none" stroke="#63b8ff" points="470.13,-731.5 480.55,-729.58 471.2,-724.58 470.13,-731.5"/>
</a>
</g>
</g>
<!-- Node5 -->
<g id="Node000005" class="node">
<title>Node5</title>
<g id="a_Node000005"><a xlink:href="../../d9/d6e/classvanetza_1_1geonet_1_1ExtendedPdu.html" target="_top" xlink:title=" ">
<polygon fill="white" stroke="none" points="684.5,-284.75 546,-284.75 546,0 684.5,0 684.5,-284.75"/>
<text xml:space="preserve" text-anchor="start" x="550" y="-271.25" font-family="Helvetica,sans-Serif" font-size="10.00">vanetza::geonet::Extended</text>
<text xml:space="preserve" text-anchor="start" x="559.38" y="-258.5" font-family="Helvetica,sans-Serif" font-size="10.00">Pdu&lt; BeaconHeader &gt;</text>
<text xml:space="preserve" text-anchor="start" x="564" y="-241.75" font-family="Helvetica,sans-Serif" font-size="10.00">&#45;</text>
<text xml:space="preserve" text-anchor="start" x="585.75" y="-241.75" font-family="Helvetica,sans-Serif" font-size="10.00">m_basic</text>
<text xml:space="preserve" text-anchor="start" x="564" y="-225" font-family="Helvetica,sans-Serif" font-size="10.00">&#45;</text>
<text xml:space="preserve" text-anchor="start" x="585.75" y="-225" font-family="Helvetica,sans-Serif" font-size="10.00">m_common</text>
<text xml:space="preserve" text-anchor="start" x="564" y="-208.25" font-family="Helvetica,sans-Serif" font-size="10.00">&#45;</text>
<text xml:space="preserve" text-anchor="start" x="585.75" y="-208.25" font-family="Helvetica,sans-Serif" font-size="10.00">m_extended</text>
<text xml:space="preserve" text-anchor="start" x="564" y="-191.5" font-family="Helvetica,sans-Serif" font-size="10.00">&#45;</text>
<text xml:space="preserve" text-anchor="start" x="585.75" y="-191.5" font-family="Helvetica,sans-Serif" font-size="10.00">m_secured</text>
<text xml:space="preserve" text-anchor="start" x="561.75" y="-174.75" font-family="Helvetica,sans-Serif" font-size="10.00">+</text>
<text xml:space="preserve" text-anchor="start" x="585.75" y="-174.75" font-family="Helvetica,sans-Serif" font-size="10.00">ExtendedPdu()</text>
<text xml:space="preserve" text-anchor="start" x="561.75" y="-158" font-family="Helvetica,sans-Serif" font-size="10.00">+</text>
<text xml:space="preserve" text-anchor="start" x="585.75" y="-158" font-family="Helvetica,sans-Serif" font-size="10.00">ExtendedPdu()</text>
<text xml:space="preserve" text-anchor="start" x="561.75" y="-141.25" font-family="Helvetica,sans-Serif" font-size="10.00">+</text>
<text xml:space="preserve" text-anchor="start" x="585.75" y="-141.25" font-family="Helvetica,sans-Serif" font-size="10.00">operator=()</text>
<text xml:space="preserve" text-anchor="start" x="561.75" y="-124.5" font-family="Helvetica,sans-Serif" font-size="10.00">+</text>
<text xml:space="preserve" text-anchor="start" x="585.75" y="-124.5" font-family="Helvetica,sans-Serif" font-size="10.00">ExtendedPdu()</text>
<text xml:space="preserve" text-anchor="start" x="561.75" y="-107.75" font-family="Helvetica,sans-Serif" font-size="10.00">+</text>
<text xml:space="preserve" text-anchor="start" x="585.75" y="-107.75" font-family="Helvetica,sans-Serif" font-size="10.00">ExtendedPdu()</text>
<text xml:space="preserve" text-anchor="start" x="561.75" y="-91" font-family="Helvetica,sans-Serif" font-size="10.00">+</text>
<text xml:space="preserve" text-anchor="start" x="585.75" y="-91" font-family="Helvetica,sans-Serif" font-size="10.00">ExtendedPdu()</text>
<text xml:space="preserve" text-anchor="start" x="561.75" y="-74.25" font-family="Helvetica,sans-Serif" font-size="10.00">+</text>
<text xml:space="preserve" text-anchor="start" x="585.75" y="-74.25" font-family="Helvetica,sans-Serif" font-size="10.00">ExtendedPdu()</text>
<text xml:space="preserve" text-anchor="start" x="561.75" y="-57.5" font-family="Helvetica,sans-Serif" font-size="10.00">+</text>
<text xml:space="preserve" text-anchor="start" x="585.75" y="-57.5" font-family="Helvetica,sans-Serif" font-size="10.00">ExtendedPdu()</text>
<text xml:space="preserve" text-anchor="start" x="561.75" y="-40.75" font-family="Helvetica,sans-Serif" font-size="10.00">+</text>
<text xml:space="preserve" text-anchor="start" x="585.75" y="-40.75" font-family="Helvetica,sans-Serif" font-size="10.00">basic()</text>
<text xml:space="preserve" text-anchor="start" x="561.75" y="-24" font-family="Helvetica,sans-Serif" font-size="10.00">+</text>
<text xml:space="preserve" text-anchor="start" x="585.75" y="-24" font-family="Helvetica,sans-Serif" font-size="10.00">basic()</text>
<text xml:space="preserve" text-anchor="start" x="585.75" y="-7.25" font-family="Helvetica,sans-Serif" font-size="10.00">and 10 more...</text>
<polygon fill="#bfbfbf" stroke="#bfbfbf" points="546,-253.25 546,-253.25 684.5,-253.25 684.5,-253.25 546,-253.25"/>
<polygon fill="#bfbfbf" stroke="#bfbfbf" points="546,-186.25 546,-186.25 583.75,-186.25 583.75,-186.25 546,-186.25"/>
<polygon fill="#bfbfbf" stroke="#bfbfbf" points="583.75,-186.25 583.75,-186.25 684.5,-186.25 684.5,-186.25 583.75,-186.25"/>
<polygon fill="none" stroke="#bfbfbf" points="546,0 546,-284.75 684.5,-284.75 684.5,0 546,0"/>
</a>
</g>
</g>
<!-- Node1&#45;&gt;Node5 -->
<g id="edge4_Node000001_Node000005" class="edge">
<title>Node1&#45;&gt;Node5</title>
<g id="a_edge4_Node000001_Node000005"><a xlink:title=" ">
<path fill="none" stroke="#63b8ff" d="M599.38,-675.77C606.61,-665.59 612.94,-654.63 617.25,-643.25 660.83,-528.33 655.58,-387.57 642.19,-284.74"/>
<polygon fill="none" stroke="#63b8ff" points="596.65,-673.58 593.43,-683.67 602.24,-677.79 596.65,-673.58"/>
</a>
</g>
</g>
<!-- Node6 -->
<g id="Node000006" class="node">
<title>Node6</title>
<g id="a_Node000006"><a xlink:href="../../d9/d6e/classvanetza_1_1geonet_1_1ExtendedPdu.html" target="_top" xlink:title=" ">
<polygon fill="white" stroke="none" points="508.25,-284.75 356.25,-284.75 356.25,0 508.25,0 508.25,-284.75"/>
<text xml:space="preserve" text-anchor="start" x="360.25" y="-271.25" font-family="Helvetica,sans-Serif" font-size="10.00">vanetza::geonet::Extended</text>
<text xml:space="preserve" text-anchor="start" x="360.25" y="-258.5" font-family="Helvetica,sans-Serif" font-size="10.00">Pdu&lt; GeoBroadcastHeader &gt;</text>
<text xml:space="preserve" text-anchor="start" x="377.62" y="-241.75" font-family="Helvetica,sans-Serif" font-size="10.00">&#45;</text>
<text xml:space="preserve" text-anchor="start" x="402.75" y="-241.75" font-family="Helvetica,sans-Serif" font-size="10.00">m_basic</text>
<text xml:space="preserve" text-anchor="start" x="377.62" y="-225" font-family="Helvetica,sans-Serif" font-size="10.00">&#45;</text>
<text xml:space="preserve" text-anchor="start" x="402.75" y="-225" font-family="Helvetica,sans-Serif" font-size="10.00">m_common</text>
<text xml:space="preserve" text-anchor="start" x="377.62" y="-208.25" font-family="Helvetica,sans-Serif" font-size="10.00">&#45;</text>
<text xml:space="preserve" text-anchor="start" x="402.75" y="-208.25" font-family="Helvetica,sans-Serif" font-size="10.00">m_extended</text>
<text xml:space="preserve" text-anchor="start" x="377.62" y="-191.5" font-family="Helvetica,sans-Serif" font-size="10.00">&#45;</text>
<text xml:space="preserve" text-anchor="start" x="402.75" y="-191.5" font-family="Helvetica,sans-Serif" font-size="10.00">m_secured</text>
<text xml:space="preserve" text-anchor="start" x="375.38" y="-174.75" font-family="Helvetica,sans-Serif" font-size="10.00">+</text>
<text xml:space="preserve" text-anchor="start" x="402.75" y="-174.75" font-family="Helvetica,sans-Serif" font-size="10.00">ExtendedPdu()</text>
<text xml:space="preserve" text-anchor="start" x="375.38" y="-158" font-family="Helvetica,sans-Serif" font-size="10.00">+</text>
<text xml:space="preserve" text-anchor="start" x="402.75" y="-158" font-family="Helvetica,sans-Serif" font-size="10.00">ExtendedPdu()</text>
<text xml:space="preserve" text-anchor="start" x="375.38" y="-141.25" font-family="Helvetica,sans-Serif" font-size="10.00">+</text>
<text xml:space="preserve" text-anchor="start" x="402.75" y="-141.25" font-family="Helvetica,sans-Serif" font-size="10.00">operator=()</text>
<text xml:space="preserve" text-anchor="start" x="375.38" y="-124.5" font-family="Helvetica,sans-Serif" font-size="10.00">+</text>
<text xml:space="preserve" text-anchor="start" x="402.75" y="-124.5" font-family="Helvetica,sans-Serif" font-size="10.00">ExtendedPdu()</text>
<text xml:space="preserve" text-anchor="start" x="375.38" y="-107.75" font-family="Helvetica,sans-Serif" font-size="10.00">+</text>
<text xml:space="preserve" text-anchor="start" x="402.75" y="-107.75" font-family="Helvetica,sans-Serif" font-size="10.00">ExtendedPdu()</text>
<text xml:space="preserve" text-anchor="start" x="375.38" y="-91" font-family="Helvetica,sans-Serif" font-size="10.00">+</text>
<text xml:space="preserve" text-anchor="start" x="402.75" y="-91" font-family="Helvetica,sans-Serif" font-size="10.00">ExtendedPdu()</text>
<text xml:space="preserve" text-anchor="start" x="375.38" y="-74.25" font-family="Helvetica,sans-Serif" font-size="10.00">+</text>
<text xml:space="preserve" text-anchor="start" x="402.75" y="-74.25" font-family="Helvetica,sans-Serif" font-size="10.00">ExtendedPdu()</text>
<text xml:space="preserve" text-anchor="start" x="375.38" y="-57.5" font-family="Helvetica,sans-Serif" font-size="10.00">+</text>
<text xml:space="preserve" text-anchor="start" x="402.75" y="-57.5" font-family="Helvetica,sans-Serif" font-size="10.00">ExtendedPdu()</text>
<text xml:space="preserve" text-anchor="start" x="375.38" y="-40.75" font-family="Helvetica,sans-Serif" font-size="10.00">+</text>
<text xml:space="preserve" text-anchor="start" x="402.75" y="-40.75" font-family="Helvetica,sans-Serif" font-size="10.00">basic()</text>
<text xml:space="preserve" text-anchor="start" x="375.38" y="-24" font-family="Helvetica,sans-Serif" font-size="10.00">+</text>
<text xml:space="preserve" text-anchor="start" x="402.75" y="-24" font-family="Helvetica,sans-Serif" font-size="10.00">basic()</text>
<text xml:space="preserve" text-anchor="start" x="402.75" y="-7.25" font-family="Helvetica,sans-Serif" font-size="10.00">and 10 more...</text>
<polygon fill="#bfbfbf" stroke="#bfbfbf" points="356.25,-253.25 356.25,-253.25 508.25,-253.25 508.25,-253.25 356.25,-253.25"/>
<polygon fill="#bfbfbf" stroke="#bfbfbf" points="356.25,-186.25 356.25,-186.25 400.75,-186.25 400.75,-186.25 356.25,-186.25"/>
<polygon fill="#bfbfbf" stroke="#bfbfbf" points="400.75,-186.25 400.75,-186.25 508.25,-186.25 508.25,-186.25 400.75,-186.25"/>
<polygon fill="none" stroke="#bfbfbf" points="356.25,0 356.25,-284.75 508.25,-284.75 508.25,0 356.25,0"/>
</a>
</g>
</g>
<!-- Node1&#45;&gt;Node6 -->
<g id="edge5_Node000001_Node000006" class="edge">
<title>Node1&#45;&gt;Node6</title>
<g id="a_edge5_Node000001_Node000006"><a xlink:title=" ">
<path fill="none" stroke="#63b8ff" d="M563.19,-650.52C593.82,-539.72 635.9,-356.31 596.25,-302.75 579.94,-280.72 559.66,-300.55 537.25,-284.75 526.88,-277.44 517.11,-268.78 508.03,-259.41"/>
<polygon fill="none" stroke="#63b8ff" points="559.89,-649.3 560.57,-659.88 566.63,-651.19 559.89,-649.3"/>
</a>
</g>
</g>
<!-- Node7 -->
<g id="Node000007" class="node">
<title>Node7</title>
<g id="a_Node000007"><a xlink:href="../../d9/d6e/classvanetza_1_1geonet_1_1ExtendedPdu.html" target="_top" xlink:title=" ">
<polygon fill="white" stroke="none" points="409.5,-624.25 271,-624.25 271,-339.5 409.5,-339.5 409.5,-624.25"/>
<text xml:space="preserve" text-anchor="start" x="275" y="-610.75" font-family="Helvetica,sans-Serif" font-size="10.00">vanetza::geonet::Extended</text>
<text xml:space="preserve" text-anchor="start" x="299.75" y="-598" font-family="Helvetica,sans-Serif" font-size="10.00">Pdu&lt; HEADER &gt;</text>
<text xml:space="preserve" text-anchor="start" x="289" y="-581.25" font-family="Helvetica,sans-Serif" font-size="10.00">&#45;</text>
<text xml:space="preserve" text-anchor="start" x="310.75" y="-581.25" font-family="Helvetica,sans-Serif" font-size="10.00">m_basic</text>
<text xml:space="preserve" text-anchor="start" x="289" y="-564.5" font-family="Helvetica,sans-Serif" font-size="10.00">&#45;</text>
<text xml:space="preserve" text-anchor="start" x="310.75" y="-564.5" font-family="Helvetica,sans-Serif" font-size="10.00">m_common</text>
<text xml:space="preserve" text-anchor="start" x="289" y="-547.75" font-family="Helvetica,sans-Serif" font-size="10.00">&#45;</text>
<text xml:space="preserve" text-anchor="start" x="310.75" y="-547.75" font-family="Helvetica,sans-Serif" font-size="10.00">m_extended</text>
<text xml:space="preserve" text-anchor="start" x="289" y="-531" font-family="Helvetica,sans-Serif" font-size="10.00">&#45;</text>
<text xml:space="preserve" text-anchor="start" x="310.75" y="-531" font-family="Helvetica,sans-Serif" font-size="10.00">m_secured</text>
<text xml:space="preserve" text-anchor="start" x="286.75" y="-514.25" font-family="Helvetica,sans-Serif" font-size="10.00">+</text>
<text xml:space="preserve" text-anchor="start" x="310.75" y="-514.25" font-family="Helvetica,sans-Serif" font-size="10.00">ExtendedPdu()</text>
<text xml:space="preserve" text-anchor="start" x="286.75" y="-497.5" font-family="Helvetica,sans-Serif" font-size="10.00">+</text>
<text xml:space="preserve" text-anchor="start" x="310.75" y="-497.5" font-family="Helvetica,sans-Serif" font-size="10.00">ExtendedPdu()</text>
<text xml:space="preserve" text-anchor="start" x="286.75" y="-480.75" font-family="Helvetica,sans-Serif" font-size="10.00">+</text>
<text xml:space="preserve" text-anchor="start" x="310.75" y="-480.75" font-family="Helvetica,sans-Serif" font-size="10.00">operator=()</text>
<text xml:space="preserve" text-anchor="start" x="286.75" y="-464" font-family="Helvetica,sans-Serif" font-size="10.00">+</text>
<text xml:space="preserve" text-anchor="start" x="310.75" y="-464" font-family="Helvetica,sans-Serif" font-size="10.00">ExtendedPdu()</text>
<text xml:space="preserve" text-anchor="start" x="286.75" y="-447.25" font-family="Helvetica,sans-Serif" font-size="10.00">+</text>
<text xml:space="preserve" text-anchor="start" x="310.75" y="-447.25" font-family="Helvetica,sans-Serif" font-size="10.00">ExtendedPdu()</text>
<text xml:space="preserve" text-anchor="start" x="286.75" y="-430.5" font-family="Helvetica,sans-Serif" font-size="10.00">+</text>
<text xml:space="preserve" text-anchor="start" x="310.75" y="-430.5" font-family="Helvetica,sans-Serif" font-size="10.00">ExtendedPdu()</text>
<text xml:space="preserve" text-anchor="start" x="286.75" y="-413.75" font-family="Helvetica,sans-Serif" font-size="10.00">+</text>
<text xml:space="preserve" text-anchor="start" x="310.75" y="-413.75" font-family="Helvetica,sans-Serif" font-size="10.00">ExtendedPdu()</text>
<text xml:space="preserve" text-anchor="start" x="286.75" y="-397" font-family="Helvetica,sans-Serif" font-size="10.00">+</text>
<text xml:space="preserve" text-anchor="start" x="310.75" y="-397" font-family="Helvetica,sans-Serif" font-size="10.00">ExtendedPdu()</text>
<text xml:space="preserve" text-anchor="start" x="286.75" y="-380.25" font-family="Helvetica,sans-Serif" font-size="10.00">+</text>
<text xml:space="preserve" text-anchor="start" x="310.75" y="-380.25" font-family="Helvetica,sans-Serif" font-size="10.00">basic()</text>
<text xml:space="preserve" text-anchor="start" x="286.75" y="-363.5" font-family="Helvetica,sans-Serif" font-size="10.00">+</text>
<text xml:space="preserve" text-anchor="start" x="310.75" y="-363.5" font-family="Helvetica,sans-Serif" font-size="10.00">basic()</text>
<text xml:space="preserve" text-anchor="start" x="310.75" y="-346.75" font-family="Helvetica,sans-Serif" font-size="10.00">and 9 more...</text>
<polygon fill="#bfbfbf" stroke="#bfbfbf" points="271,-592.75 271,-592.75 409.5,-592.75 409.5,-592.75 271,-592.75"/>
<polygon fill="#bfbfbf" stroke="#bfbfbf" points="271,-525.75 271,-525.75 308.75,-525.75 308.75,-525.75 271,-525.75"/>
<polygon fill="#bfbfbf" stroke="#bfbfbf" points="308.75,-525.75 308.75,-525.75 409.5,-525.75 409.5,-525.75 308.75,-525.75"/>
<polygon fill="none" stroke="#bfbfbf" points="271,-339.5 271,-624.25 409.5,-624.25 409.5,-339.5 271,-339.5"/>
</a>
</g>
</g>
<!-- Node1&#45;&gt;Node7 -->
<g id="edge6_Node000001_Node000007" class="edge">
<title>Node1&#45;&gt;Node7</title>
<g id="a_edge6_Node000001_Node000007"><a xlink:title=" ">
<path fill="none" stroke="#63b8ff" d="M475.14,-657.3C454.25,-630.3 430.83,-600.01 409.44,-572.35"/>
<polygon fill="none" stroke="#63b8ff" points="472.3,-659.36 481.19,-665.13 477.84,-655.08 472.3,-659.36"/>
</a>
</g>
</g>
<!-- Node8 -->
<g id="Node000008" class="node">
<title>Node8</title>
<g id="a_Node000008"><a xlink:href="../../d7/d84/classvanetza_1_1geonet_1_1VariantPdu.html" target="_top" xlink:title=" ">
<polygon fill="white" stroke="none" points="814.88,-617.88 669.62,-617.88 669.62,-345.88 814.88,-345.88 814.88,-617.88"/>
<text xml:space="preserve" text-anchor="start" x="673.62" y="-604.38" font-family="Helvetica,sans-Serif" font-size="10.00">vanetza::geonet::VariantPdu</text>
<text xml:space="preserve" text-anchor="start" x="683.88" y="-587.62" font-family="Helvetica,sans-Serif" font-size="10.00">&#45;</text>
<text xml:space="preserve" text-anchor="start" x="701.88" y="-587.62" font-family="Helvetica,sans-Serif" font-size="10.00">m_basic</text>
<text xml:space="preserve" text-anchor="start" x="683.88" y="-570.88" font-family="Helvetica,sans-Serif" font-size="10.00">&#45;</text>
<text xml:space="preserve" text-anchor="start" x="701.88" y="-570.88" font-family="Helvetica,sans-Serif" font-size="10.00">m_common</text>
<text xml:space="preserve" text-anchor="start" x="683.88" y="-554.12" font-family="Helvetica,sans-Serif" font-size="10.00">&#45;</text>
<text xml:space="preserve" text-anchor="start" x="701.88" y="-554.12" font-family="Helvetica,sans-Serif" font-size="10.00">m_extended</text>
<text xml:space="preserve" text-anchor="start" x="683.88" y="-537.38" font-family="Helvetica,sans-Serif" font-size="10.00">&#45;</text>
<text xml:space="preserve" text-anchor="start" x="701.88" y="-537.38" font-family="Helvetica,sans-Serif" font-size="10.00">m_secured</text>
<text xml:space="preserve" text-anchor="start" x="681.62" y="-520.62" font-family="Helvetica,sans-Serif" font-size="10.00">+</text>
<text xml:space="preserve" text-anchor="start" x="701.88" y="-520.62" font-family="Helvetica,sans-Serif" font-size="10.00">VariantPdu()</text>
<text xml:space="preserve" text-anchor="start" x="681.62" y="-503.88" font-family="Helvetica,sans-Serif" font-size="10.00">+</text>
<text xml:space="preserve" text-anchor="start" x="701.88" y="-503.88" font-family="Helvetica,sans-Serif" font-size="10.00">VariantPdu()</text>
<text xml:space="preserve" text-anchor="start" x="681.62" y="-487.12" font-family="Helvetica,sans-Serif" font-size="10.00">+</text>
<text xml:space="preserve" text-anchor="start" x="701.88" y="-487.12" font-family="Helvetica,sans-Serif" font-size="10.00">operator=()</text>
<text xml:space="preserve" text-anchor="start" x="681.62" y="-470.38" font-family="Helvetica,sans-Serif" font-size="10.00">+</text>
<text xml:space="preserve" text-anchor="start" x="701.88" y="-470.38" font-family="Helvetica,sans-Serif" font-size="10.00">VariantPdu()</text>
<text xml:space="preserve" text-anchor="start" x="681.62" y="-453.62" font-family="Helvetica,sans-Serif" font-size="10.00">+</text>
<text xml:space="preserve" text-anchor="start" x="701.88" y="-453.62" font-family="Helvetica,sans-Serif" font-size="10.00">operator=()</text>
<text xml:space="preserve" text-anchor="start" x="681.62" y="-436.88" font-family="Helvetica,sans-Serif" font-size="10.00">+</text>
<text xml:space="preserve" text-anchor="start" x="701.88" y="-436.88" font-family="Helvetica,sans-Serif" font-size="10.00">basic()</text>
<text xml:space="preserve" text-anchor="start" x="681.62" y="-420.12" font-family="Helvetica,sans-Serif" font-size="10.00">+</text>
<text xml:space="preserve" text-anchor="start" x="701.88" y="-420.12" font-family="Helvetica,sans-Serif" font-size="10.00">basic()</text>
<text xml:space="preserve" text-anchor="start" x="681.62" y="-403.38" font-family="Helvetica,sans-Serif" font-size="10.00">+</text>
<text xml:space="preserve" text-anchor="start" x="701.88" y="-403.38" font-family="Helvetica,sans-Serif" font-size="10.00">common()</text>
<text xml:space="preserve" text-anchor="start" x="681.62" y="-386.62" font-family="Helvetica,sans-Serif" font-size="10.00">+</text>
<text xml:space="preserve" text-anchor="start" x="701.88" y="-386.62" font-family="Helvetica,sans-Serif" font-size="10.00">common()</text>
<text xml:space="preserve" text-anchor="start" x="681.62" y="-369.88" font-family="Helvetica,sans-Serif" font-size="10.00">+</text>
<text xml:space="preserve" text-anchor="start" x="701.88" y="-369.88" font-family="Helvetica,sans-Serif" font-size="10.00">extended_variant()</text>
<text xml:space="preserve" text-anchor="start" x="701.88" y="-353.12" font-family="Helvetica,sans-Serif" font-size="10.00">and 6 more...</text>
<polygon fill="#bfbfbf" stroke="#bfbfbf" points="669.62,-599.12 669.62,-599.12 814.88,-599.12 814.88,-599.12 669.62,-599.12"/>
<polygon fill="#bfbfbf" stroke="#bfbfbf" points="669.62,-532.12 669.62,-532.12 699.88,-532.12 699.88,-532.12 669.62,-532.12"/>
<polygon fill="#bfbfbf" stroke="#bfbfbf" points="699.88,-532.12 699.88,-532.12 814.88,-532.12 814.88,-532.12 699.88,-532.12"/>
<polygon fill="none" stroke="#bfbfbf" points="669.62,-345.88 669.62,-617.88 814.88,-617.88 814.88,-345.88 669.62,-345.88"/>
</a>
</g>
</g>
<!-- Node1&#45;&gt;Node8 -->
<g id="edge11_Node000001_Node000008" class="edge">
<title>Node1&#45;&gt;Node8</title>
<g id="a_edge11_Node000001_Node000008"><a xlink:title=" ">
<path fill="none" stroke="#63b8ff" d="M601.45,-693.82C620.19,-679.14 639.77,-661.75 655.25,-643.25 661.96,-635.23 668.38,-626.62 674.48,-617.69"/>
<polygon fill="none" stroke="#63b8ff" points="599.34,-691.03 593.54,-699.89 603.6,-696.58 599.34,-691.03"/>
</a>
</g>
</g>
<!-- Node2 -->
<g id="Node000002" class="node">
<title>Node2</title>
<g id="a_Node000002"><a xlink:href="../../da/dcb/classvanetza_1_1geonet_1_1ConstAccessiblePdu.html" target="_top" xlink:title=" ">
<polygon fill="white" stroke="none" points="632.38,-991 442.12,-991 442.12,-853 632.38,-853 632.38,-991"/>
<text xml:space="preserve" text-anchor="start" x="446.12" y="-977.5" font-family="Helvetica,sans-Serif" font-size="10.00">vanetza::geonet::ConstAccessiblePdu</text>
<text xml:space="preserve" text-anchor="start" x="535.75" y="-960.75" font-family="Helvetica,sans-Serif" font-size="10.00"> </text>
<text xml:space="preserve" text-anchor="start" x="460.31" y="-944" font-family="Helvetica,sans-Serif" font-size="10.00">+</text>
<text xml:space="preserve" text-anchor="start" x="486.75" y="-944" font-family="Helvetica,sans-Serif" font-size="10.00">basic()</text>
<text xml:space="preserve" text-anchor="start" x="460.31" y="-927.25" font-family="Helvetica,sans-Serif" font-size="10.00">+</text>
<text xml:space="preserve" text-anchor="start" x="486.75" y="-927.25" font-family="Helvetica,sans-Serif" font-size="10.00">common()</text>
<text xml:space="preserve" text-anchor="start" x="460.31" y="-910.5" font-family="Helvetica,sans-Serif" font-size="10.00">+</text>
<text xml:space="preserve" text-anchor="start" x="486.75" y="-910.5" font-family="Helvetica,sans-Serif" font-size="10.00">secured()</text>
<text xml:space="preserve" text-anchor="start" x="460.31" y="-893.75" font-family="Helvetica,sans-Serif" font-size="10.00">+</text>
<text xml:space="preserve" text-anchor="start" x="486.75" y="-893.75" font-family="Helvetica,sans-Serif" font-size="10.00">extended_variant()</text>
<text xml:space="preserve" text-anchor="start" x="460.31" y="-877" font-family="Helvetica,sans-Serif" font-size="10.00">+</text>
<text xml:space="preserve" text-anchor="start" x="486.75" y="-877" font-family="Helvetica,sans-Serif" font-size="10.00">clone()</text>
<text xml:space="preserve" text-anchor="start" x="460.31" y="-860.25" font-family="Helvetica,sans-Serif" font-size="10.00">+</text>
<text xml:space="preserve" text-anchor="start" x="486.75" y="-860.25" font-family="Helvetica,sans-Serif" font-size="10.00">~ConstAccessiblePdu()</text>
<polygon fill="#bfbfbf" stroke="#bfbfbf" points="442.12,-972.25 442.12,-972.25 632.38,-972.25 632.38,-972.25 442.12,-972.25"/>
<polygon fill="#bfbfbf" stroke="#bfbfbf" points="442.12,-955.5 442.12,-955.5 632.38,-955.5 632.38,-955.5 442.12,-955.5"/>
<polygon fill="none" stroke="#bfbfbf" points="442.12,-853 442.12,-991 632.38,-991 632.38,-853 442.12,-853"/>
</a>
</g>
</g>
<!-- Node2&#45;&gt;Node1 -->
<g id="edge1_Node000001_Node000002" class="edge">
<title>Node2&#45;&gt;Node1</title>
<g id="a_edge1_Node000001_Node000002"><a xlink:title=" ">
<path fill="none" stroke="#63b8ff" d="M537.25,-841.94C537.25,-833.29 537.25,-824.49 537.25,-815.87"/>
<polygon fill="none" stroke="#63b8ff" points="533.75,-841.69 537.25,-851.69 540.75,-841.69 533.75,-841.69"/>
</a>
</g>
</g>
<!-- Node7&#45;&gt;Node3 -->
<g id="edge7_Node000007_Node000003" class="edge">
<title>Node7&#45;&gt;Node3</title>
<g id="a_edge7_Node000007_Node000003"><a xlink:title=" ">
<path fill="none" stroke="orange" d="M266.36,-357.13C261.09,-345.33 256.35,-333.35 252.5,-321.5 248.65,-309.64 245.46,-297.14 242.82,-284.49"/>
<polygon fill="orange" stroke="orange" points="263.12,-358.45 270.49,-366.06 269.47,-355.51 263.12,-358.45"/>
</a>
</g>
<text xml:space="preserve" text-anchor="start" x="255.5" y="-309" font-family="Helvetica,sans-Serif" font-size="10.00" fill="grey">&lt; ShbHeader &gt;</text>
</g>
<!-- Node7&#45;&gt;Node4 -->
<g id="edge8_Node000007_Node000004" class="edge">
<title>Node7&#45;&gt;Node4</title>
<g id="a_edge8_Node000007_Node000004"><a xlink:title=" ">
<path fill="none" stroke="orange" d="M262.51,-420.94C229.51,-393.03 192.17,-357.97 163.75,-321.5 154.71,-309.9 146.1,-297.32 138.01,-284.38"/>
<polygon fill="orange" stroke="orange" points="260.17,-423.54 270.09,-427.27 264.66,-418.17 260.17,-423.54"/>
</a>
</g>
<text xml:space="preserve" text-anchor="start" x="166.75" y="-309" font-family="Helvetica,sans-Serif" font-size="10.00" fill="grey">&lt; TsbHeader &gt;</text>
</g>
<!-- Node7&#45;&gt;Node5 -->
<g id="edge9_Node000007_Node000005" class="edge">
<title>Node7&#45;&gt;Node5</title>
<g id="a_edge9_Node000007_Node000005"><a xlink:title=" ">
<path fill="none" stroke="orange" d="M416.98,-400.57C449.03,-365.84 486,-324.18 517.25,-284.75 526.9,-272.58 536.67,-259.52 546.11,-246.43"/>
<polygon fill="orange" stroke="orange" points="414.62,-397.95 410.4,-407.67 419.76,-402.71 414.62,-397.95"/>
</a>
</g>
<text xml:space="preserve" text-anchor="start" x="502.22" y="-309" font-family="Helvetica,sans-Serif" font-size="10.00" fill="grey">&lt; BeaconHeader &gt;</text>
</g>
<!-- Node7&#45;&gt;Node6 -->
<g id="edge10_Node000007_Node000006" class="edge">
<title>Node7&#45;&gt;Node6</title>
<g id="a_edge10_Node000007_Node000006"><a xlink:title=" ">
<path fill="none" stroke="orange" d="M335.86,-328.7C337.22,-319.85 339,-311.15 341.25,-302.75 344.97,-288.9 350.19,-275 356.27,-261.49"/>
<polygon fill="orange" stroke="orange" points="332.41,-328.07 334.54,-338.45 339.35,-329.01 332.41,-328.07"/>
</a>
</g>
<text xml:space="preserve" text-anchor="start" x="344.25" y="-309" font-family="Helvetica,sans-Serif" font-size="10.00" fill="grey">&lt; GeoBroadcastHeader &gt;</text>
</g>
</g>
</svg>
