<?xml version="1.0" encoding="UTF-8" standalone="no"?>
<!DOCTYPE svg PUBLIC "-//W3C//DTD SVG 1.1//EN"
 "http://www.w3.org/Graphics/SVG/1.1/DTD/svg11.dtd">
<!-- Generated by graphviz version 2.42.1 (0)
 -->
<!-- Title: vanetza::geonet::Pdu Pages: 1 -->
<svg width="300pt" height="562pt"
 viewBox="0.00 0.00 300.00 562.00" xmlns="http://www.w3.org/2000/svg" xmlns:xlink="http://www.w3.org/1999/xlink">
<g id="graph0" class="graph" transform="scale(1 1) rotate(0) translate(4 558)">
<title>vanetza::geonet::Pdu</title>
<polygon fill="white" stroke="transparent" points="-4,4 -4,-558 296,-558 296,4 -4,4"/>
<!-- Node0 -->
<g id="node1" class="node">
<title>Node0</title>
<g id="a_node1"><a xlink:title=" ">
<polygon fill="#bfbfbf" stroke="black" points="89,-270.5 89,-404.5 199,-404.5 199,-270.5 89,-270.5"/>
<text text-anchor="middle" x="144" y="-392.5" font-family="Helvetica,sans-Serif" font-size="10.00">vanetza::geonet::Pdu</text>
<polyline fill="none" stroke="black" points="89,-385.5 199,-385.5 "/>
<text text-anchor="middle" x="144" y="-373.5" font-family="Helvetica,sans-Serif" font-size="10.00"> </text>
<polyline fill="none" stroke="black" points="89,-366.5 199,-366.5 "/>
<text text-anchor="start" x="97" y="-354.5" font-family="Helvetica,sans-Serif" font-size="10.00">+ basic()</text>
<text text-anchor="start" x="97" y="-343.5" font-family="Helvetica,sans-Serif" font-size="10.00">+ common()</text>
<text text-anchor="start" x="97" y="-332.5" font-family="Helvetica,sans-Serif" font-size="10.00">+ secured()</text>
<text text-anchor="start" x="97" y="-321.5" font-family="Helvetica,sans-Serif" font-size="10.00">+ secured()</text>
<text text-anchor="start" x="97" y="-310.5" font-family="Helvetica,sans-Serif" font-size="10.00">+ secured()</text>
<text text-anchor="start" x="97" y="-299.5" font-family="Helvetica,sans-Serif" font-size="10.00">+ basic()</text>
<text text-anchor="start" x="97" y="-288.5" font-family="Helvetica,sans-Serif" font-size="10.00">+ common()</text>
<text text-anchor="start" x="97" y="-277.5" font-family="Helvetica,sans-Serif" font-size="10.00">+ secured()</text>
</a>
</g>
</g>
<!-- Node2 -->
<g id="node3" class="node">
<title>Node2</title>
<g id="a_node3"><a xlink:href="../../d9/d6e/classvanetza_1_1geonet_1_1ExtendedPdu.html" target="_top" xlink:title=" ">
<polygon fill="white" stroke="black" points="0,-11.5 0,-222.5 134,-222.5 134,-11.5 0,-11.5"/>
<text text-anchor="start" x="8" y="-210.5" font-family="Helvetica,sans-Serif" font-size="10.00">vanetza::geonet::Extended</text>
<text text-anchor="middle" x="67" y="-199.5" font-family="Helvetica,sans-Serif" font-size="10.00">Pdu&lt; HEADER &gt;</text>
<polyline fill="none" stroke="black" points="0,-192.5 134,-192.5 "/>
<text text-anchor="start" x="8" y="-180.5" font-family="Helvetica,sans-Serif" font-size="10.00">&#45; m_basic</text>
<text text-anchor="start" x="8" y="-169.5" font-family="Helvetica,sans-Serif" font-size="10.00">&#45; m_common</text>
<text text-anchor="start" x="8" y="-158.5" font-family="Helvetica,sans-Serif" font-size="10.00">&#45; m_extended</text>
<text text-anchor="start" x="8" y="-147.5" font-family="Helvetica,sans-Serif" font-size="10.00">&#45; m_secured</text>
<polyline fill="none" stroke="black" points="0,-140.5 134,-140.5 "/>
<text text-anchor="start" x="8" y="-128.5" font-family="Helvetica,sans-Serif" font-size="10.00">+ ExtendedPdu()</text>
<text text-anchor="start" x="8" y="-117.5" font-family="Helvetica,sans-Serif" font-size="10.00">+ ExtendedPdu()</text>
<text text-anchor="start" x="8" y="-106.5" font-family="Helvetica,sans-Serif" font-size="10.00">+ operator=()</text>
<text text-anchor="start" x="8" y="-95.5" font-family="Helvetica,sans-Serif" font-size="10.00">+ ExtendedPdu()</text>
<text text-anchor="start" x="8" y="-84.5" font-family="Helvetica,sans-Serif" font-size="10.00">+ ExtendedPdu()</text>
<text text-anchor="start" x="8" y="-73.5" font-family="Helvetica,sans-Serif" font-size="10.00">+ ExtendedPdu()</text>
<text text-anchor="start" x="8" y="-62.5" font-family="Helvetica,sans-Serif" font-size="10.00">+ ExtendedPdu()</text>
<text text-anchor="start" x="8" y="-51.5" font-family="Helvetica,sans-Serif" font-size="10.00">+ ExtendedPdu()</text>
<text text-anchor="start" x="8" y="-40.5" font-family="Helvetica,sans-Serif" font-size="10.00">+ basic()</text>
<text text-anchor="start" x="8" y="-29.5" font-family="Helvetica,sans-Serif" font-size="10.00">+ basic()</text>
<text text-anchor="start" x="8" y="-18.5" font-family="Helvetica,sans-Serif" font-size="10.00">and 10 more...</text>
</a>
</g>
</g>
<!-- Node0&#45;&gt;Node2 -->
<g id="edge2" class="edge">
<title>Node0&#45;&gt;Node2</title>
<path fill="none" stroke="midnightblue" d="M117.27,-260.65C112.94,-248.37 108.4,-235.48 103.88,-222.66"/>
<polygon fill="none" stroke="midnightblue" points="114.06,-262.08 120.69,-270.35 120.67,-259.76 114.06,-262.08"/>
</g>
<!-- Node3 -->
<g id="node4" class="node">
<title>Node3</title>
<g id="a_node4"><a xlink:href="../../d7/d84/classvanetza_1_1geonet_1_1VariantPdu.html" target="_top" xlink:title=" ">
<polygon fill="white" stroke="black" points="152,-0.5 152,-233.5 292,-233.5 292,-0.5 152,-0.5"/>
<text text-anchor="middle" x="222" y="-221.5" font-family="Helvetica,sans-Serif" font-size="10.00">vanetza::geonet::VariantPdu</text>
<polyline fill="none" stroke="black" points="152,-214.5 292,-214.5 "/>
<text text-anchor="start" x="160" y="-202.5" font-family="Helvetica,sans-Serif" font-size="10.00">&#45; m_basic</text>
<text text-anchor="start" x="160" y="-191.5" font-family="Helvetica,sans-Serif" font-size="10.00">&#45; m_common</text>
<text text-anchor="start" x="160" y="-180.5" font-family="Helvetica,sans-Serif" font-size="10.00">&#45; m_extended</text>
<text text-anchor="start" x="160" y="-169.5" font-family="Helvetica,sans-Serif" font-size="10.00">&#45; m_secured</text>
<polyline fill="none" stroke="black" points="152,-162.5 292,-162.5 "/>
<text text-anchor="start" x="160" y="-150.5" font-family="Helvetica,sans-Serif" font-size="10.00">+ VariantPdu()</text>
<text text-anchor="start" x="160" y="-139.5" font-family="Helvetica,sans-Serif" font-size="10.00">+ VariantPdu()</text>
<text text-anchor="start" x="160" y="-128.5" font-family="Helvetica,sans-Serif" font-size="10.00">+ operator=()</text>
<text text-anchor="start" x="160" y="-117.5" font-family="Helvetica,sans-Serif" font-size="10.00">+ basic()</text>
<text text-anchor="start" x="160" y="-106.5" font-family="Helvetica,sans-Serif" font-size="10.00">+ basic()</text>
<text text-anchor="start" x="160" y="-95.5" font-family="Helvetica,sans-Serif" font-size="10.00">+ common()</text>
<text text-anchor="start" x="160" y="-84.5" font-family="Helvetica,sans-Serif" font-size="10.00">+ common()</text>
<text text-anchor="start" x="160" y="-73.5" font-family="Helvetica,sans-Serif" font-size="10.00">+ extended_variant()</text>
<text text-anchor="start" x="160" y="-62.5" font-family="Helvetica,sans-Serif" font-size="10.00">+ extended_variant()</text>
<text text-anchor="start" x="160" y="-51.5" font-family="Helvetica,sans-Serif" font-size="10.00">+ secured()</text>
<text text-anchor="start" x="160" y="-40.5" font-family="Helvetica,sans-Serif" font-size="10.00">+ secured()</text>
<text text-anchor="start" x="160" y="-29.5" font-family="Helvetica,sans-Serif" font-size="10.00">+ secured()</text>
<text text-anchor="start" x="160" y="-18.5" font-family="Helvetica,sans-Serif" font-size="10.00">+ secured()</text>
<text text-anchor="start" x="160" y="-7.5" font-family="Helvetica,sans-Serif" font-size="10.00">+ clone()</text>
</a>
</g>
</g>
<!-- Node0&#45;&gt;Node3 -->
<g id="edge3" class="edge">
<title>Node0&#45;&gt;Node3</title>
<path fill="none" stroke="midnightblue" d="M170.99,-260.89C174.15,-252.04 177.43,-242.86 180.72,-233.63"/>
<polygon fill="none" stroke="midnightblue" points="167.68,-259.76 167.61,-270.35 174.27,-262.11 167.68,-259.76"/>
</g>
<!-- Node1 -->
<g id="node2" class="node">
<title>Node1</title>
<g id="a_node2"><a xlink:href="../../da/dcb/classvanetza_1_1geonet_1_1ConstAccessiblePdu.html" target="_top" xlink:title=" ">
<polygon fill="white" stroke="black" points="52,-441.5 52,-553.5 236,-553.5 236,-441.5 52,-441.5"/>
<text text-anchor="middle" x="144" y="-541.5" font-family="Helvetica,sans-Serif" font-size="10.00">vanetza::geonet::ConstAccessiblePdu</text>
<polyline fill="none" stroke="black" points="52,-534.5 236,-534.5 "/>
<text text-anchor="middle" x="144" y="-522.5" font-family="Helvetica,sans-Serif" font-size="10.00"> </text>
<polyline fill="none" stroke="black" points="52,-515.5 236,-515.5 "/>
<text text-anchor="start" x="60" y="-503.5" font-family="Helvetica,sans-Serif" font-size="10.00">+ basic()</text>
<text text-anchor="start" x="60" y="-492.5" font-family="Helvetica,sans-Serif" font-size="10.00">+ common()</text>
<text text-anchor="start" x="60" y="-481.5" font-family="Helvetica,sans-Serif" font-size="10.00">+ secured()</text>
<text text-anchor="start" x="60" y="-470.5" font-family="Helvetica,sans-Serif" font-size="10.00">+ extended_variant()</text>
<text text-anchor="start" x="60" y="-459.5" font-family="Helvetica,sans-Serif" font-size="10.00">+ clone()</text>
<text text-anchor="start" x="60" y="-448.5" font-family="Helvetica,sans-Serif" font-size="10.00">+ ~ConstAccessiblePdu()</text>
</a>
</g>
</g>
<!-- Node1&#45;&gt;Node0 -->
<g id="edge1" class="edge">
<title>Node1&#45;&gt;Node0</title>
<path fill="none" stroke="midnightblue" d="M144,-431.09C144,-422.34 144,-413.35 144,-404.59"/>
<polygon fill="none" stroke="midnightblue" points="140.5,-431.24 144,-441.24 147.5,-431.24 140.5,-431.24"/>
</g>
</g>
</svg>
