<?xml version="1.0" encoding="UTF-8" standalone="no"?>
<!DOCTYPE svg PUBLIC "-//W3C//DTD SVG 1.1//EN"
 "http://www.w3.org/Graphics/SVG/1.1/DTD/svg11.dtd">
<!-- Generated by graphviz version 2.49.3 (0)
 -->
<!-- Title: vanetza::geonet::Pdu Pages: 1 -->
<svg width="758pt" height="908pt"
 viewBox="0.00 0.00 758.00 908.00" xmlns="http://www.w3.org/2000/svg" xmlns:xlink="http://www.w3.org/1999/xlink">
<g id="graph0" class="graph" transform="scale(1 1) rotate(0) translate(4 904)">
<title>vanetza::geonet::Pdu</title>
<!-- Node1 -->
<g id="Node000001" class="node">
<title>Node1</title>
<g id="a_Node000001"><a xlink:title=" ">
<polygon fill="#999999" stroke="transparent" points="537,-739 435,-739 435,-600 537,-600 537,-739"/>
<text text-anchor="start" x="440" y="-726.5" font-family="Helvetica,sans-Serif" font-size="10.00">vanetza::geonet::Pdu</text>
<text text-anchor="start" x="484" y="-711.5" font-family="Helvetica,sans-Serif" font-size="10.00"> </text>
<text text-anchor="start" x="448.5" y="-696.5" font-family="Helvetica,sans-Serif" font-size="10.00">+</text>
<text text-anchor="start" x="469" y="-696.5" font-family="Helvetica,sans-Serif" font-size="10.00">basic()</text>
<text text-anchor="start" x="448.5" y="-681.5" font-family="Helvetica,sans-Serif" font-size="10.00">+</text>
<text text-anchor="start" x="469" y="-681.5" font-family="Helvetica,sans-Serif" font-size="10.00">common()</text>
<text text-anchor="start" x="448.5" y="-666.5" font-family="Helvetica,sans-Serif" font-size="10.00">+</text>
<text text-anchor="start" x="469" y="-666.5" font-family="Helvetica,sans-Serif" font-size="10.00">secured()</text>
<text text-anchor="start" x="448.5" y="-651.5" font-family="Helvetica,sans-Serif" font-size="10.00">+</text>
<text text-anchor="start" x="469" y="-651.5" font-family="Helvetica,sans-Serif" font-size="10.00">secured()</text>
<text text-anchor="start" x="448.5" y="-636.5" font-family="Helvetica,sans-Serif" font-size="10.00">+</text>
<text text-anchor="start" x="469" y="-636.5" font-family="Helvetica,sans-Serif" font-size="10.00">basic()</text>
<text text-anchor="start" x="448.5" y="-621.5" font-family="Helvetica,sans-Serif" font-size="10.00">+</text>
<text text-anchor="start" x="469" y="-621.5" font-family="Helvetica,sans-Serif" font-size="10.00">common()</text>
<text text-anchor="start" x="448.5" y="-606.5" font-family="Helvetica,sans-Serif" font-size="10.00">+</text>
<text text-anchor="start" x="469" y="-606.5" font-family="Helvetica,sans-Serif" font-size="10.00">secured()</text>
<polygon fill="#666666" stroke="#666666" points="435,-721.5 435,-721.5 537,-721.5 537,-721.5 435,-721.5"/>
<polygon fill="#666666" stroke="#666666" points="435,-706.5 435,-706.5 537,-706.5 537,-706.5 435,-706.5"/>
<polygon fill="none" stroke="#666666" points="435,-600 435,-739 537,-739 537,-600 435,-600"/>
</a>
</g>
</g>
<!-- Node3 -->
<g id="Node000003" class="node">
<title>Node3</title>
<g id="a_Node000003"><a xlink:href="../../d9/d6e/classvanetza_1_1geonet_1_1ExtendedPdu.html" target="_top" xlink:title=" ">
<polygon fill="white" stroke="transparent" points="275,-255 149,-255 149,0 275,0 275,-255"/>
<text text-anchor="start" x="154" y="-242.5" font-family="Helvetica,sans-Serif" font-size="10.00">vanetza::geonet::Extended</text>
<text text-anchor="start" x="169.5" y="-231.5" font-family="Helvetica,sans-Serif" font-size="10.00">Pdu&lt; ShbHeader &gt;</text>
<text text-anchor="start" x="165" y="-216.5" font-family="Helvetica,sans-Serif" font-size="10.00">&#45;</text>
<text text-anchor="start" x="185" y="-216.5" font-family="Helvetica,sans-Serif" font-size="10.00">m_basic</text>
<text text-anchor="start" x="165" y="-201.5" font-family="Helvetica,sans-Serif" font-size="10.00">&#45;</text>
<text text-anchor="start" x="185" y="-201.5" font-family="Helvetica,sans-Serif" font-size="10.00">m_common</text>
<text text-anchor="start" x="165" y="-186.5" font-family="Helvetica,sans-Serif" font-size="10.00">&#45;</text>
<text text-anchor="start" x="185" y="-186.5" font-family="Helvetica,sans-Serif" font-size="10.00">m_extended</text>
<text text-anchor="start" x="165" y="-171.5" font-family="Helvetica,sans-Serif" font-size="10.00">&#45;</text>
<text text-anchor="start" x="185" y="-171.5" font-family="Helvetica,sans-Serif" font-size="10.00">m_secured</text>
<text text-anchor="start" x="163.5" y="-156.5" font-family="Helvetica,sans-Serif" font-size="10.00">+</text>
<text text-anchor="start" x="185" y="-156.5" font-family="Helvetica,sans-Serif" font-size="10.00">ExtendedPdu()</text>
<text text-anchor="start" x="163.5" y="-141.5" font-family="Helvetica,sans-Serif" font-size="10.00">+</text>
<text text-anchor="start" x="185" y="-141.5" font-family="Helvetica,sans-Serif" font-size="10.00">ExtendedPdu()</text>
<text text-anchor="start" x="163.5" y="-126.5" font-family="Helvetica,sans-Serif" font-size="10.00">+</text>
<text text-anchor="start" x="185" y="-126.5" font-family="Helvetica,sans-Serif" font-size="10.00">operator=()</text>
<text text-anchor="start" x="163.5" y="-111.5" font-family="Helvetica,sans-Serif" font-size="10.00">+</text>
<text text-anchor="start" x="185" y="-111.5" font-family="Helvetica,sans-Serif" font-size="10.00">ExtendedPdu()</text>
<text text-anchor="start" x="163.5" y="-96.5" font-family="Helvetica,sans-Serif" font-size="10.00">+</text>
<text text-anchor="start" x="185" y="-96.5" font-family="Helvetica,sans-Serif" font-size="10.00">ExtendedPdu()</text>
<text text-anchor="start" x="163.5" y="-81.5" font-family="Helvetica,sans-Serif" font-size="10.00">+</text>
<text text-anchor="start" x="185" y="-81.5" font-family="Helvetica,sans-Serif" font-size="10.00">ExtendedPdu()</text>
<text text-anchor="start" x="163.5" y="-66.5" font-family="Helvetica,sans-Serif" font-size="10.00">+</text>
<text text-anchor="start" x="185" y="-66.5" font-family="Helvetica,sans-Serif" font-size="10.00">ExtendedPdu()</text>
<text text-anchor="start" x="163.5" y="-51.5" font-family="Helvetica,sans-Serif" font-size="10.00">+</text>
<text text-anchor="start" x="185" y="-51.5" font-family="Helvetica,sans-Serif" font-size="10.00">ExtendedPdu()</text>
<text text-anchor="start" x="163.5" y="-36.5" font-family="Helvetica,sans-Serif" font-size="10.00">+</text>
<text text-anchor="start" x="185" y="-36.5" font-family="Helvetica,sans-Serif" font-size="10.00">basic()</text>
<text text-anchor="start" x="163.5" y="-21.5" font-family="Helvetica,sans-Serif" font-size="10.00">+</text>
<text text-anchor="start" x="185" y="-21.5" font-family="Helvetica,sans-Serif" font-size="10.00">basic()</text>
<text text-anchor="start" x="185" y="-6.5" font-family="Helvetica,sans-Serif" font-size="10.00">and 10 more...</text>
<polygon fill="#bfbfbf" stroke="#bfbfbf" points="149,-226.5 149,-226.5 275,-226.5 275,-226.5 149,-226.5"/>
<polygon fill="#bfbfbf" stroke="#bfbfbf" points="149,-166.5 149,-166.5 183,-166.5 183,-166.5 149,-166.5"/>
<polygon fill="#bfbfbf" stroke="#bfbfbf" points="183,-166.5 183,-166.5 275,-166.5 275,-166.5 183,-166.5"/>
<polygon fill="none" stroke="#bfbfbf" points="149,0 149,-255 275,-255 275,0 149,0"/>
</a>
</g>
</g>
<!-- Node1&#45;&gt;Node3 -->
<g id="edge2_Node000001_Node000003" class="edge">
<title>Node1&#45;&gt;Node3</title>
<g id="a_edge2_Node000001_Node000003"><a xlink:title=" ">
<path fill="none" stroke="#63b8ff" d="M424.94,-656.33C370.26,-642.47 291.33,-614.72 242,-563 147.6,-464.02 107.3,-406.05 139,-273 141.51,-262.47 144.91,-251.85 148.89,-241.38"/>
<polygon fill="none" stroke="#63b8ff" points="424.3,-659.78 434.85,-658.76 425.97,-652.98 424.3,-659.78"/>
</a>
</g>
</g>
<!-- Node4 -->
<g id="Node000004" class="node">
<title>Node4</title>
<g id="a_Node000004"><a xlink:href="../../d9/d6e/classvanetza_1_1geonet_1_1ExtendedPdu.html" target="_top" xlink:title=" ">
<polygon fill="white" stroke="transparent" points="126,-255 0,-255 0,0 126,0 126,-255"/>
<text text-anchor="start" x="5" y="-242.5" font-family="Helvetica,sans-Serif" font-size="10.00">vanetza::geonet::Extended</text>
<text text-anchor="start" x="21.5" y="-231.5" font-family="Helvetica,sans-Serif" font-size="10.00">Pdu&lt; TsbHeader &gt;</text>
<text text-anchor="start" x="16" y="-216.5" font-family="Helvetica,sans-Serif" font-size="10.00">&#45;</text>
<text text-anchor="start" x="36" y="-216.5" font-family="Helvetica,sans-Serif" font-size="10.00">m_basic</text>
<text text-anchor="start" x="16" y="-201.5" font-family="Helvetica,sans-Serif" font-size="10.00">&#45;</text>
<text text-anchor="start" x="36" y="-201.5" font-family="Helvetica,sans-Serif" font-size="10.00">m_common</text>
<text text-anchor="start" x="16" y="-186.5" font-family="Helvetica,sans-Serif" font-size="10.00">&#45;</text>
<text text-anchor="start" x="36" y="-186.5" font-family="Helvetica,sans-Serif" font-size="10.00">m_extended</text>
<text text-anchor="start" x="16" y="-171.5" font-family="Helvetica,sans-Serif" font-size="10.00">&#45;</text>
<text text-anchor="start" x="36" y="-171.5" font-family="Helvetica,sans-Serif" font-size="10.00">m_secured</text>
<text text-anchor="start" x="14.5" y="-156.5" font-family="Helvetica,sans-Serif" font-size="10.00">+</text>
<text text-anchor="start" x="36" y="-156.5" font-family="Helvetica,sans-Serif" font-size="10.00">ExtendedPdu()</text>
<text text-anchor="start" x="14.5" y="-141.5" font-family="Helvetica,sans-Serif" font-size="10.00">+</text>
<text text-anchor="start" x="36" y="-141.5" font-family="Helvetica,sans-Serif" font-size="10.00">ExtendedPdu()</text>
<text text-anchor="start" x="14.5" y="-126.5" font-family="Helvetica,sans-Serif" font-size="10.00">+</text>
<text text-anchor="start" x="36" y="-126.5" font-family="Helvetica,sans-Serif" font-size="10.00">operator=()</text>
<text text-anchor="start" x="14.5" y="-111.5" font-family="Helvetica,sans-Serif" font-size="10.00">+</text>
<text text-anchor="start" x="36" y="-111.5" font-family="Helvetica,sans-Serif" font-size="10.00">ExtendedPdu()</text>
<text text-anchor="start" x="14.5" y="-96.5" font-family="Helvetica,sans-Serif" font-size="10.00">+</text>
<text text-anchor="start" x="36" y="-96.5" font-family="Helvetica,sans-Serif" font-size="10.00">ExtendedPdu()</text>
<text text-anchor="start" x="14.5" y="-81.5" font-family="Helvetica,sans-Serif" font-size="10.00">+</text>
<text text-anchor="start" x="36" y="-81.5" font-family="Helvetica,sans-Serif" font-size="10.00">ExtendedPdu()</text>
<text text-anchor="start" x="14.5" y="-66.5" font-family="Helvetica,sans-Serif" font-size="10.00">+</text>
<text text-anchor="start" x="36" y="-66.5" font-family="Helvetica,sans-Serif" font-size="10.00">ExtendedPdu()</text>
<text text-anchor="start" x="14.5" y="-51.5" font-family="Helvetica,sans-Serif" font-size="10.00">+</text>
<text text-anchor="start" x="36" y="-51.5" font-family="Helvetica,sans-Serif" font-size="10.00">ExtendedPdu()</text>
<text text-anchor="start" x="14.5" y="-36.5" font-family="Helvetica,sans-Serif" font-size="10.00">+</text>
<text text-anchor="start" x="36" y="-36.5" font-family="Helvetica,sans-Serif" font-size="10.00">basic()</text>
<text text-anchor="start" x="14.5" y="-21.5" font-family="Helvetica,sans-Serif" font-size="10.00">+</text>
<text text-anchor="start" x="36" y="-21.5" font-family="Helvetica,sans-Serif" font-size="10.00">basic()</text>
<text text-anchor="start" x="36" y="-6.5" font-family="Helvetica,sans-Serif" font-size="10.00">and 10 more...</text>
<polygon fill="#bfbfbf" stroke="#bfbfbf" points="0,-226.5 0,-226.5 126,-226.5 126,-226.5 0,-226.5"/>
<polygon fill="#bfbfbf" stroke="#bfbfbf" points="0,-166.5 0,-166.5 34,-166.5 34,-166.5 0,-166.5"/>
<polygon fill="#bfbfbf" stroke="#bfbfbf" points="34,-166.5 34,-166.5 126,-166.5 126,-166.5 34,-166.5"/>
<polygon fill="none" stroke="#bfbfbf" points="0,0 0,-255 126,-255 126,0 0,0"/>
</a>
</g>
</g>
<!-- Node1&#45;&gt;Node4 -->
<g id="edge3_Node000001_Node000004" class="edge">
<title>Node1&#45;&gt;Node4</title>
<g id="a_edge3_Node000001_Node000004"><a xlink:title=" ">
<path fill="none" stroke="#63b8ff" d="M424.79,-658.77C332.48,-642.8 164.21,-608.24 125,-563 52.51,-479.36 42.32,-350.76 47.07,-255.14"/>
<polygon fill="none" stroke="#63b8ff" points="424.4,-662.25 434.84,-660.49 425.57,-655.35 424.4,-662.25"/>
</a>
</g>
</g>
<!-- Node5 -->
<g id="Node000005" class="node">
<title>Node5</title>
<g id="a_Node000005"><a xlink:href="../../d9/d6e/classvanetza_1_1geonet_1_1ExtendedPdu.html" target="_top" xlink:title=" ">
<polygon fill="white" stroke="transparent" points="629,-255 503,-255 503,0 629,0 629,-255"/>
<text text-anchor="start" x="508" y="-242.5" font-family="Helvetica,sans-Serif" font-size="10.00">vanetza::geonet::Extended</text>
<text text-anchor="start" x="516" y="-231.5" font-family="Helvetica,sans-Serif" font-size="10.00">Pdu&lt; BeaconHeader &gt;</text>
<text text-anchor="start" x="519" y="-216.5" font-family="Helvetica,sans-Serif" font-size="10.00">&#45;</text>
<text text-anchor="start" x="539" y="-216.5" font-family="Helvetica,sans-Serif" font-size="10.00">m_basic</text>
<text text-anchor="start" x="519" y="-201.5" font-family="Helvetica,sans-Serif" font-size="10.00">&#45;</text>
<text text-anchor="start" x="539" y="-201.5" font-family="Helvetica,sans-Serif" font-size="10.00">m_common</text>
<text text-anchor="start" x="519" y="-186.5" font-family="Helvetica,sans-Serif" font-size="10.00">&#45;</text>
<text text-anchor="start" x="539" y="-186.5" font-family="Helvetica,sans-Serif" font-size="10.00">m_extended</text>
<text text-anchor="start" x="519" y="-171.5" font-family="Helvetica,sans-Serif" font-size="10.00">&#45;</text>
<text text-anchor="start" x="539" y="-171.5" font-family="Helvetica,sans-Serif" font-size="10.00">m_secured</text>
<text text-anchor="start" x="517.5" y="-156.5" font-family="Helvetica,sans-Serif" font-size="10.00">+</text>
<text text-anchor="start" x="539" y="-156.5" font-family="Helvetica,sans-Serif" font-size="10.00">ExtendedPdu()</text>
<text text-anchor="start" x="517.5" y="-141.5" font-family="Helvetica,sans-Serif" font-size="10.00">+</text>
<text text-anchor="start" x="539" y="-141.5" font-family="Helvetica,sans-Serif" font-size="10.00">ExtendedPdu()</text>
<text text-anchor="start" x="517.5" y="-126.5" font-family="Helvetica,sans-Serif" font-size="10.00">+</text>
<text text-anchor="start" x="539" y="-126.5" font-family="Helvetica,sans-Serif" font-size="10.00">operator=()</text>
<text text-anchor="start" x="517.5" y="-111.5" font-family="Helvetica,sans-Serif" font-size="10.00">+</text>
<text text-anchor="start" x="539" y="-111.5" font-family="Helvetica,sans-Serif" font-size="10.00">ExtendedPdu()</text>
<text text-anchor="start" x="517.5" y="-96.5" font-family="Helvetica,sans-Serif" font-size="10.00">+</text>
<text text-anchor="start" x="539" y="-96.5" font-family="Helvetica,sans-Serif" font-size="10.00">ExtendedPdu()</text>
<text text-anchor="start" x="517.5" y="-81.5" font-family="Helvetica,sans-Serif" font-size="10.00">+</text>
<text text-anchor="start" x="539" y="-81.5" font-family="Helvetica,sans-Serif" font-size="10.00">ExtendedPdu()</text>
<text text-anchor="start" x="517.5" y="-66.5" font-family="Helvetica,sans-Serif" font-size="10.00">+</text>
<text text-anchor="start" x="539" y="-66.5" font-family="Helvetica,sans-Serif" font-size="10.00">ExtendedPdu()</text>
<text text-anchor="start" x="517.5" y="-51.5" font-family="Helvetica,sans-Serif" font-size="10.00">+</text>
<text text-anchor="start" x="539" y="-51.5" font-family="Helvetica,sans-Serif" font-size="10.00">ExtendedPdu()</text>
<text text-anchor="start" x="517.5" y="-36.5" font-family="Helvetica,sans-Serif" font-size="10.00">+</text>
<text text-anchor="start" x="539" y="-36.5" font-family="Helvetica,sans-Serif" font-size="10.00">basic()</text>
<text text-anchor="start" x="517.5" y="-21.5" font-family="Helvetica,sans-Serif" font-size="10.00">+</text>
<text text-anchor="start" x="539" y="-21.5" font-family="Helvetica,sans-Serif" font-size="10.00">basic()</text>
<text text-anchor="start" x="539" y="-6.5" font-family="Helvetica,sans-Serif" font-size="10.00">and 10 more...</text>
<polygon fill="#bfbfbf" stroke="#bfbfbf" points="503,-226.5 503,-226.5 629,-226.5 629,-226.5 503,-226.5"/>
<polygon fill="#bfbfbf" stroke="#bfbfbf" points="503,-166.5 503,-166.5 537,-166.5 537,-166.5 503,-166.5"/>
<polygon fill="#bfbfbf" stroke="#bfbfbf" points="537,-166.5 537,-166.5 629,-166.5 629,-166.5 537,-166.5"/>
<polygon fill="none" stroke="#bfbfbf" points="503,0 503,-255 629,-255 629,0 503,0"/>
</a>
</g>
</g>
<!-- Node1&#45;&gt;Node5 -->
<g id="edge4_Node000001_Node000005" class="edge">
<title>Node1&#45;&gt;Node5</title>
<g id="a_edge4_Node000001_Node000005"><a xlink:title=" ">
<path fill="none" stroke="#63b8ff" d="M543.77,-617.73C552.78,-606.89 560.81,-594.81 566,-582 608.23,-477.84 603.36,-348.84 590.79,-255.08"/>
<polygon fill="none" stroke="#63b8ff" points="541.02,-615.56 537.07,-625.39 546.29,-620.17 541.02,-615.56"/>
</a>
</g>
</g>
<!-- Node6 -->
<g id="Node000006" class="node">
<title>Node6</title>
<g id="a_Node000006"><a xlink:href="../../d9/d6e/classvanetza_1_1geonet_1_1ExtendedPdu.html" target="_top" xlink:title=" ">
<polygon fill="white" stroke="transparent" points="468,-255 328,-255 328,0 468,0 468,-255"/>
<text text-anchor="start" x="333" y="-242.5" font-family="Helvetica,sans-Serif" font-size="10.00">vanetza::geonet::Extended</text>
<text text-anchor="start" x="333" y="-231.5" font-family="Helvetica,sans-Serif" font-size="10.00">Pdu&lt; GeoBroadcastHeader &gt;</text>
<text text-anchor="start" x="347.5" y="-216.5" font-family="Helvetica,sans-Serif" font-size="10.00">&#45;</text>
<text text-anchor="start" x="371" y="-216.5" font-family="Helvetica,sans-Serif" font-size="10.00">m_basic</text>
<text text-anchor="start" x="347.5" y="-201.5" font-family="Helvetica,sans-Serif" font-size="10.00">&#45;</text>
<text text-anchor="start" x="371" y="-201.5" font-family="Helvetica,sans-Serif" font-size="10.00">m_common</text>
<text text-anchor="start" x="347.5" y="-186.5" font-family="Helvetica,sans-Serif" font-size="10.00">&#45;</text>
<text text-anchor="start" x="371" y="-186.5" font-family="Helvetica,sans-Serif" font-size="10.00">m_extended</text>
<text text-anchor="start" x="347.5" y="-171.5" font-family="Helvetica,sans-Serif" font-size="10.00">&#45;</text>
<text text-anchor="start" x="371" y="-171.5" font-family="Helvetica,sans-Serif" font-size="10.00">m_secured</text>
<text text-anchor="start" x="346" y="-156.5" font-family="Helvetica,sans-Serif" font-size="10.00">+</text>
<text text-anchor="start" x="371" y="-156.5" font-family="Helvetica,sans-Serif" font-size="10.00">ExtendedPdu()</text>
<text text-anchor="start" x="346" y="-141.5" font-family="Helvetica,sans-Serif" font-size="10.00">+</text>
<text text-anchor="start" x="371" y="-141.5" font-family="Helvetica,sans-Serif" font-size="10.00">ExtendedPdu()</text>
<text text-anchor="start" x="346" y="-126.5" font-family="Helvetica,sans-Serif" font-size="10.00">+</text>
<text text-anchor="start" x="371" y="-126.5" font-family="Helvetica,sans-Serif" font-size="10.00">operator=()</text>
<text text-anchor="start" x="346" y="-111.5" font-family="Helvetica,sans-Serif" font-size="10.00">+</text>
<text text-anchor="start" x="371" y="-111.5" font-family="Helvetica,sans-Serif" font-size="10.00">ExtendedPdu()</text>
<text text-anchor="start" x="346" y="-96.5" font-family="Helvetica,sans-Serif" font-size="10.00">+</text>
<text text-anchor="start" x="371" y="-96.5" font-family="Helvetica,sans-Serif" font-size="10.00">ExtendedPdu()</text>
<text text-anchor="start" x="346" y="-81.5" font-family="Helvetica,sans-Serif" font-size="10.00">+</text>
<text text-anchor="start" x="371" y="-81.5" font-family="Helvetica,sans-Serif" font-size="10.00">ExtendedPdu()</text>
<text text-anchor="start" x="346" y="-66.5" font-family="Helvetica,sans-Serif" font-size="10.00">+</text>
<text text-anchor="start" x="371" y="-66.5" font-family="Helvetica,sans-Serif" font-size="10.00">ExtendedPdu()</text>
<text text-anchor="start" x="346" y="-51.5" font-family="Helvetica,sans-Serif" font-size="10.00">+</text>
<text text-anchor="start" x="371" y="-51.5" font-family="Helvetica,sans-Serif" font-size="10.00">ExtendedPdu()</text>
<text text-anchor="start" x="346" y="-36.5" font-family="Helvetica,sans-Serif" font-size="10.00">+</text>
<text text-anchor="start" x="371" y="-36.5" font-family="Helvetica,sans-Serif" font-size="10.00">basic()</text>
<text text-anchor="start" x="346" y="-21.5" font-family="Helvetica,sans-Serif" font-size="10.00">+</text>
<text text-anchor="start" x="371" y="-21.5" font-family="Helvetica,sans-Serif" font-size="10.00">basic()</text>
<text text-anchor="start" x="371" y="-6.5" font-family="Helvetica,sans-Serif" font-size="10.00">and 10 more...</text>
<polygon fill="#bfbfbf" stroke="#bfbfbf" points="328,-226.5 328,-226.5 468,-226.5 468,-226.5 328,-226.5"/>
<polygon fill="#bfbfbf" stroke="#bfbfbf" points="328,-166.5 328,-166.5 369,-166.5 369,-166.5 328,-166.5"/>
<polygon fill="#bfbfbf" stroke="#bfbfbf" points="369,-166.5 369,-166.5 468,-166.5 468,-166.5 369,-166.5"/>
<polygon fill="none" stroke="#bfbfbf" points="328,0 328,-255 468,-255 468,0 328,0"/>
</a>
</g>
</g>
<!-- Node1&#45;&gt;Node6 -->
<g id="edge5_Node000001_Node000006" class="edge">
<title>Node1&#45;&gt;Node6</title>
<g id="a_edge5_Node000001_Node000006"><a xlink:title=" ">
<path fill="none" stroke="#63b8ff" d="M510.44,-589.95C539.55,-489.52 580.12,-322.64 545,-273 531.12,-253.38 513.42,-269.17 494,-255 484.87,-248.34 476.2,-240.56 468.08,-232.2"/>
<polygon fill="none" stroke="#63b8ff" points="507.02,-589.18 507.57,-599.76 513.73,-591.14 507.02,-589.18"/>
</a>
</g>
</g>
<!-- Node7 -->
<g id="Node000007" class="node">
<title>Node7</title>
<g id="a_Node000007"><a xlink:href="../../d9/d6e/classvanetza_1_1geonet_1_1ExtendedPdu.html" target="_top" xlink:title=" ">
<polygon fill="white" stroke="transparent" points="377,-563 251,-563 251,-308 377,-308 377,-563"/>
<text text-anchor="start" x="256" y="-550.5" font-family="Helvetica,sans-Serif" font-size="10.00">vanetza::geonet::Extended</text>
<text text-anchor="start" x="274.5" y="-539.5" font-family="Helvetica,sans-Serif" font-size="10.00">Pdu&lt; HEADER &gt;</text>
<text text-anchor="start" x="267" y="-524.5" font-family="Helvetica,sans-Serif" font-size="10.00">&#45;</text>
<text text-anchor="start" x="287" y="-524.5" font-family="Helvetica,sans-Serif" font-size="10.00">m_basic</text>
<text text-anchor="start" x="267" y="-509.5" font-family="Helvetica,sans-Serif" font-size="10.00">&#45;</text>
<text text-anchor="start" x="287" y="-509.5" font-family="Helvetica,sans-Serif" font-size="10.00">m_common</text>
<text text-anchor="start" x="267" y="-494.5" font-family="Helvetica,sans-Serif" font-size="10.00">&#45;</text>
<text text-anchor="start" x="287" y="-494.5" font-family="Helvetica,sans-Serif" font-size="10.00">m_extended</text>
<text text-anchor="start" x="267" y="-479.5" font-family="Helvetica,sans-Serif" font-size="10.00">&#45;</text>
<text text-anchor="start" x="287" y="-479.5" font-family="Helvetica,sans-Serif" font-size="10.00">m_secured</text>
<text text-anchor="start" x="265.5" y="-464.5" font-family="Helvetica,sans-Serif" font-size="10.00">+</text>
<text text-anchor="start" x="287" y="-464.5" font-family="Helvetica,sans-Serif" font-size="10.00">ExtendedPdu()</text>
<text text-anchor="start" x="265.5" y="-449.5" font-family="Helvetica,sans-Serif" font-size="10.00">+</text>
<text text-anchor="start" x="287" y="-449.5" font-family="Helvetica,sans-Serif" font-size="10.00">ExtendedPdu()</text>
<text text-anchor="start" x="265.5" y="-434.5" font-family="Helvetica,sans-Serif" font-size="10.00">+</text>
<text text-anchor="start" x="287" y="-434.5" font-family="Helvetica,sans-Serif" font-size="10.00">operator=()</text>
<text text-anchor="start" x="265.5" y="-419.5" font-family="Helvetica,sans-Serif" font-size="10.00">+</text>
<text text-anchor="start" x="287" y="-419.5" font-family="Helvetica,sans-Serif" font-size="10.00">ExtendedPdu()</text>
<text text-anchor="start" x="265.5" y="-404.5" font-family="Helvetica,sans-Serif" font-size="10.00">+</text>
<text text-anchor="start" x="287" y="-404.5" font-family="Helvetica,sans-Serif" font-size="10.00">ExtendedPdu()</text>
<text text-anchor="start" x="265.5" y="-389.5" font-family="Helvetica,sans-Serif" font-size="10.00">+</text>
<text text-anchor="start" x="287" y="-389.5" font-family="Helvetica,sans-Serif" font-size="10.00">ExtendedPdu()</text>
<text text-anchor="start" x="265.5" y="-374.5" font-family="Helvetica,sans-Serif" font-size="10.00">+</text>
<text text-anchor="start" x="287" y="-374.5" font-family="Helvetica,sans-Serif" font-size="10.00">ExtendedPdu()</text>
<text text-anchor="start" x="265.5" y="-359.5" font-family="Helvetica,sans-Serif" font-size="10.00">+</text>
<text text-anchor="start" x="287" y="-359.5" font-family="Helvetica,sans-Serif" font-size="10.00">ExtendedPdu()</text>
<text text-anchor="start" x="265.5" y="-344.5" font-family="Helvetica,sans-Serif" font-size="10.00">+</text>
<text text-anchor="start" x="287" y="-344.5" font-family="Helvetica,sans-Serif" font-size="10.00">basic()</text>
<text text-anchor="start" x="265.5" y="-329.5" font-family="Helvetica,sans-Serif" font-size="10.00">+</text>
<text text-anchor="start" x="287" y="-329.5" font-family="Helvetica,sans-Serif" font-size="10.00">basic()</text>
<text text-anchor="start" x="287" y="-314.5" font-family="Helvetica,sans-Serif" font-size="10.00">and 9 more...</text>
<polygon fill="#bfbfbf" stroke="#bfbfbf" points="251,-534.5 251,-534.5 377,-534.5 377,-534.5 251,-534.5"/>
<polygon fill="#bfbfbf" stroke="#bfbfbf" points="251,-474.5 251,-474.5 285,-474.5 285,-474.5 251,-474.5"/>
<polygon fill="#bfbfbf" stroke="#bfbfbf" points="285,-474.5 285,-474.5 377,-474.5 377,-474.5 285,-474.5"/>
<polygon fill="none" stroke="#bfbfbf" points="251,-308 251,-563 377,-563 377,-308 251,-308"/>
</a>
</g>
</g>
<!-- Node1&#45;&gt;Node7 -->
<g id="edge6_Node000001_Node000007" class="edge">
<title>Node1&#45;&gt;Node7</title>
<g id="a_edge6_Node000001_Node000007"><a xlink:title=" ">
<path fill="none" stroke="#63b8ff" d="M429.06,-591.7C412.47,-569.32 394.24,-544.74 377.29,-521.86"/>
<polygon fill="none" stroke="#63b8ff" points="426.33,-593.89 435.09,-599.83 431.95,-589.72 426.33,-593.89"/>
</a>
</g>
</g>
<!-- Node8 -->
<g id="Node000008" class="node">
<title>Node8</title>
<g id="a_Node000008"><a xlink:href="../../d7/d84/classvanetza_1_1geonet_1_1VariantPdu.html" target="_top" xlink:title=" ">
<polygon fill="white" stroke="transparent" points="750,-557.5 618,-557.5 618,-313.5 750,-313.5 750,-557.5"/>
<text text-anchor="start" x="623" y="-545.5" font-family="Helvetica,sans-Serif" font-size="10.00">vanetza::geonet::VariantPdu</text>
<text text-anchor="start" x="631.5" y="-530.5" font-family="Helvetica,sans-Serif" font-size="10.00">&#45;</text>
<text text-anchor="start" x="649" y="-530.5" font-family="Helvetica,sans-Serif" font-size="10.00">m_basic</text>
<text text-anchor="start" x="631.5" y="-515.5" font-family="Helvetica,sans-Serif" font-size="10.00">&#45;</text>
<text text-anchor="start" x="649" y="-515.5" font-family="Helvetica,sans-Serif" font-size="10.00">m_common</text>
<text text-anchor="start" x="631.5" y="-500.5" font-family="Helvetica,sans-Serif" font-size="10.00">&#45;</text>
<text text-anchor="start" x="649" y="-500.5" font-family="Helvetica,sans-Serif" font-size="10.00">m_extended</text>
<text text-anchor="start" x="631.5" y="-485.5" font-family="Helvetica,sans-Serif" font-size="10.00">&#45;</text>
<text text-anchor="start" x="649" y="-485.5" font-family="Helvetica,sans-Serif" font-size="10.00">m_secured</text>
<text text-anchor="start" x="630" y="-470.5" font-family="Helvetica,sans-Serif" font-size="10.00">+</text>
<text text-anchor="start" x="649" y="-470.5" font-family="Helvetica,sans-Serif" font-size="10.00">VariantPdu()</text>
<text text-anchor="start" x="630" y="-455.5" font-family="Helvetica,sans-Serif" font-size="10.00">+</text>
<text text-anchor="start" x="649" y="-455.5" font-family="Helvetica,sans-Serif" font-size="10.00">VariantPdu()</text>
<text text-anchor="start" x="630" y="-440.5" font-family="Helvetica,sans-Serif" font-size="10.00">+</text>
<text text-anchor="start" x="649" y="-440.5" font-family="Helvetica,sans-Serif" font-size="10.00">operator=()</text>
<text text-anchor="start" x="630" y="-425.5" font-family="Helvetica,sans-Serif" font-size="10.00">+</text>
<text text-anchor="start" x="649" y="-425.5" font-family="Helvetica,sans-Serif" font-size="10.00">VariantPdu()</text>
<text text-anchor="start" x="630" y="-410.5" font-family="Helvetica,sans-Serif" font-size="10.00">+</text>
<text text-anchor="start" x="649" y="-410.5" font-family="Helvetica,sans-Serif" font-size="10.00">operator=()</text>
<text text-anchor="start" x="630" y="-395.5" font-family="Helvetica,sans-Serif" font-size="10.00">+</text>
<text text-anchor="start" x="649" y="-395.5" font-family="Helvetica,sans-Serif" font-size="10.00">basic()</text>
<text text-anchor="start" x="630" y="-380.5" font-family="Helvetica,sans-Serif" font-size="10.00">+</text>
<text text-anchor="start" x="649" y="-380.5" font-family="Helvetica,sans-Serif" font-size="10.00">basic()</text>
<text text-anchor="start" x="630" y="-365.5" font-family="Helvetica,sans-Serif" font-size="10.00">+</text>
<text text-anchor="start" x="649" y="-365.5" font-family="Helvetica,sans-Serif" font-size="10.00">common()</text>
<text text-anchor="start" x="630" y="-350.5" font-family="Helvetica,sans-Serif" font-size="10.00">+</text>
<text text-anchor="start" x="649" y="-350.5" font-family="Helvetica,sans-Serif" font-size="10.00">common()</text>
<text text-anchor="start" x="630" y="-335.5" font-family="Helvetica,sans-Serif" font-size="10.00">+</text>
<text text-anchor="start" x="649" y="-335.5" font-family="Helvetica,sans-Serif" font-size="10.00">extended_variant()</text>
<text text-anchor="start" x="649" y="-320.5" font-family="Helvetica,sans-Serif" font-size="10.00">and 6 more...</text>
<polygon fill="#bfbfbf" stroke="#bfbfbf" points="618,-540.5 618,-540.5 750,-540.5 750,-540.5 618,-540.5"/>
<polygon fill="#bfbfbf" stroke="#bfbfbf" points="618,-480.5 618,-480.5 647,-480.5 647,-480.5 618,-480.5"/>
<polygon fill="#bfbfbf" stroke="#bfbfbf" points="647,-480.5 647,-480.5 750,-480.5 750,-480.5 647,-480.5"/>
<polygon fill="none" stroke="#bfbfbf" points="618,-313.5 618,-557.5 750,-557.5 750,-313.5 618,-313.5"/>
</a>
</g>
</g>
<!-- Node1&#45;&gt;Node8 -->
<g id="edge11_Node000001_Node000008" class="edge">
<title>Node1&#45;&gt;Node8</title>
<g id="a_edge11_Node000001_Node000008"><a xlink:title=" ">
<path fill="none" stroke="#63b8ff" d="M545.53,-632.44C565.68,-618.38 587.28,-601.04 604,-582 610.66,-574.42 616.99,-566.19 622.96,-557.63"/>
<polygon fill="none" stroke="#63b8ff" points="543.29,-629.74 537.01,-638.27 547.24,-635.52 543.29,-629.74"/>
</a>
</g>
</g>
<!-- Node2 -->
<g id="Node000002" class="node">
<title>Node2</title>
<g id="a_Node000002"><a xlink:href="../../da/dcb/classvanetza_1_1geonet_1_1ConstAccessiblePdu.html" target="_top" xlink:title=" ">
<polygon fill="white" stroke="transparent" points="574,-900 398,-900 398,-776 574,-776 574,-900"/>
<text text-anchor="start" x="403" y="-888" font-family="Helvetica,sans-Serif" font-size="10.00">vanetza::geonet::ConstAccessiblePdu</text>
<text text-anchor="start" x="484" y="-873" font-family="Helvetica,sans-Serif" font-size="10.00"> </text>
<text text-anchor="start" x="415" y="-858" font-family="Helvetica,sans-Serif" font-size="10.00">+</text>
<text text-anchor="start" x="439" y="-858" font-family="Helvetica,sans-Serif" font-size="10.00">basic()</text>
<text text-anchor="start" x="415" y="-843" font-family="Helvetica,sans-Serif" font-size="10.00">+</text>
<text text-anchor="start" x="439" y="-843" font-family="Helvetica,sans-Serif" font-size="10.00">common()</text>
<text text-anchor="start" x="415" y="-828" font-family="Helvetica,sans-Serif" font-size="10.00">+</text>
<text text-anchor="start" x="439" y="-828" font-family="Helvetica,sans-Serif" font-size="10.00">secured()</text>
<text text-anchor="start" x="415" y="-813" font-family="Helvetica,sans-Serif" font-size="10.00">+</text>
<text text-anchor="start" x="439" y="-813" font-family="Helvetica,sans-Serif" font-size="10.00">extended_variant()</text>
<text text-anchor="start" x="415" y="-798" font-family="Helvetica,sans-Serif" font-size="10.00">+</text>
<text text-anchor="start" x="439" y="-798" font-family="Helvetica,sans-Serif" font-size="10.00">clone()</text>
<text text-anchor="start" x="415" y="-783" font-family="Helvetica,sans-Serif" font-size="10.00">+</text>
<text text-anchor="start" x="439" y="-783" font-family="Helvetica,sans-Serif" font-size="10.00">~ConstAccessiblePdu()</text>
<polygon fill="#bfbfbf" stroke="#bfbfbf" points="398,-883 398,-883 574,-883 574,-883 398,-883"/>
<polygon fill="#bfbfbf" stroke="#bfbfbf" points="398,-868 398,-868 574,-868 574,-868 398,-868"/>
<polygon fill="none" stroke="#bfbfbf" points="398,-776 398,-900 574,-900 574,-776 398,-776"/>
</a>
</g>
</g>
<!-- Node2&#45;&gt;Node1 -->
<g id="edge1_Node000001_Node000002" class="edge">
<title>Node2&#45;&gt;Node1</title>
<g id="a_edge1_Node000001_Node000002"><a xlink:title=" ">
<path fill="none" stroke="#63b8ff" d="M486,-765.71C486,-756.9 486,-747.91 486,-739.14"/>
<polygon fill="none" stroke="#63b8ff" points="482.5,-765.95 486,-775.95 489.5,-765.95 482.5,-765.95"/>
</a>
</g>
</g>
<!-- Node7&#45;&gt;Node3 -->
<g id="edge7_Node000007_Node000003" class="edge">
<title>Node7&#45;&gt;Node3</title>
<g id="a_edge7_Node000007_Node000003"><a xlink:title=" ">
<path fill="none" stroke="orange" d="M246.71,-317.82C242.71,-308.57 239.07,-299.23 236,-290 232.29,-278.84 229.14,-267.05 226.49,-255.13"/>
<polygon fill="orange" stroke="orange" points="243.55,-319.33 250.82,-327.04 249.94,-316.48 243.55,-319.33"/>
</a>
</g>
<text text-anchor="start" x="239.5" y="-278.5" font-family="Helvetica,sans-Serif" font-size="10.00" fill="grey">&lt; ShbHeader &gt;</text>
</g>
<!-- Node7&#45;&gt;Node4 -->
<g id="edge8_Node000007_Node000004" class="edge">
<title>Node7&#45;&gt;Node4</title>
<g id="a_edge8_Node000007_Node000004"><a xlink:title=" ">
<path fill="none" stroke="orange" d="M243,-378.46C213.71,-353.29 180.69,-322.07 155,-290 144.91,-277.41 135.25,-263.58 126.25,-249.46"/>
<polygon fill="orange" stroke="orange" points="240.87,-381.25 250.75,-385.06 245.41,-375.91 240.87,-381.25"/>
</a>
</g>
<text text-anchor="start" x="158" y="-278.5" font-family="Helvetica,sans-Serif" font-size="10.00" fill="grey">&lt; TsbHeader &gt;</text>
</g>
<!-- Node7&#45;&gt;Node5 -->
<g id="edge9_Node000007_Node000005" class="edge">
<title>Node7&#45;&gt;Node5</title>
<g id="a_edge9_Node000007_Node000005"><a xlink:title=" ">
<path fill="none" stroke="orange" d="M384.2,-361.36C413.79,-329.49 448.01,-291.2 477,-255 485.64,-244.21 494.41,-232.63 502.9,-221.04"/>
<polygon fill="orange" stroke="orange" points="381.44,-359.19 377.18,-368.9 386.56,-363.96 381.44,-359.19"/>
</a>
</g>
<text text-anchor="start" x="464.5" y="-278.5" font-family="Helvetica,sans-Serif" font-size="10.00" fill="grey">&lt; BeaconHeader &gt;</text>
</g>
<!-- Node7&#45;&gt;Node6 -->
<g id="edge10_Node000007_Node000006" class="edge">
<title>Node7&#45;&gt;Node6</title>
<g id="a_edge10_Node000007_Node000006"><a xlink:title=" ">
<path fill="none" stroke="orange" d="M309.9,-297.67C311.17,-289.26 312.85,-280.98 315,-273 318.24,-260.99 322.74,-248.94 327.97,-237.2"/>
<polygon fill="orange" stroke="orange" points="306.43,-297.21 308.59,-307.58 313.37,-298.13 306.43,-297.21"/>
</a>
</g>
<text text-anchor="start" x="318" y="-278.5" font-family="Helvetica,sans-Serif" font-size="10.00" fill="grey">&lt; GeoBroadcastHeader &gt;</text>
</g>
</g>
</svg>
