<?xml version="1.0" encoding="UTF-8" standalone="no"?>
<!DOCTYPE svg PUBLIC "-//W3C//DTD SVG 1.1//EN"
 "http://www.w3.org/Graphics/SVG/1.1/DTD/svg11.dtd">
<!-- Generated by graphviz version 2.49.3 (0)
 -->
<!-- Title: vanetza::security::serialization_error Pages: 1 -->
<svg width="104pt" height="265pt"
 viewBox="0.00 0.00 104.00 265.00" xmlns="http://www.w3.org/2000/svg" xmlns:xlink="http://www.w3.org/1999/xlink">
<g id="graph0" class="graph" transform="scale(1 1) rotate(0) translate(4 261)">
<title>vanetza::security::serialization_error</title>
<!-- Node1 -->
<g id="node1" class="node">
<title>Node1</title>
<g id="a_node1"><a xlink:title="thrown when a serialization error occurred">
<polygon fill="#999999" stroke="#666666" points="0,-0.5 0,-68.5 96,-68.5 96,-0.5 0,-0.5"/>
<text text-anchor="start" x="8" y="-56.5" font-family="Helvetica,sans-Serif" font-size="10.00">vanetza::security::</text>
<text text-anchor="middle" x="48" y="-45.5" font-family="Helvetica,sans-Serif" font-size="10.00">serialization_error</text>
<polyline fill="none" stroke="#666666" points="0,-38.5 96,-38.5 "/>
<text text-anchor="middle" x="48" y="-26.5" font-family="Helvetica,sans-Serif" font-size="10.00"> </text>
<polyline fill="none" stroke="#666666" points="0,-19.5 96,-19.5 "/>
<text text-anchor="middle" x="48" y="-7.5" font-family="Helvetica,sans-Serif" font-size="10.00"> </text>
</a>
</g>
</g>
<!-- Node2 -->
<g id="node2" class="node">
<title>Node2</title>
<g id="a_node2"><a xlink:title=" ">
<polygon fill="white" stroke="#666666" points="1.5,-105.5 1.5,-162.5 94.5,-162.5 94.5,-105.5 1.5,-105.5"/>
<text text-anchor="middle" x="48" y="-150.5" font-family="Helvetica,sans-Serif" font-size="10.00">std::runtime_error</text>
<polyline fill="none" stroke="#666666" points="1.5,-143.5 94.5,-143.5 "/>
<text text-anchor="middle" x="48" y="-131.5" font-family="Helvetica,sans-Serif" font-size="10.00"> </text>
<polyline fill="none" stroke="#666666" points="1.5,-124.5 94.5,-124.5 "/>
<text text-anchor="middle" x="48" y="-112.5" font-family="Helvetica,sans-Serif" font-size="10.00"> </text>
</a>
</g>
</g>
<!-- Node2&#45;&gt;Node1 -->
<g id="edge1" class="edge">
<title>Node2&#45;&gt;Node1</title>
<path fill="none" stroke="#63b8ff" d="M48,-95.06C48,-86.39 48,-77.24 48,-68.79"/>
<polygon fill="none" stroke="#63b8ff" points="44.5,-95.32 48,-105.32 51.5,-95.32 44.5,-95.32"/>
</g>
<!-- Node3 -->
<g id="node3" class="node">
<title>Node3</title>
<g id="a_node3"><a xlink:title=" ">
<polygon fill="white" stroke="#666666" points="9.5,-199.5 9.5,-256.5 86.5,-256.5 86.5,-199.5 9.5,-199.5"/>
<text text-anchor="middle" x="48" y="-244.5" font-family="Helvetica,sans-Serif" font-size="10.00">std::exception</text>
<polyline fill="none" stroke="#666666" points="9.5,-237.5 86.5,-237.5 "/>
<text text-anchor="middle" x="48" y="-225.5" font-family="Helvetica,sans-Serif" font-size="10.00"> </text>
<polyline fill="none" stroke="#666666" points="9.5,-218.5 86.5,-218.5 "/>
<text text-anchor="middle" x="48" y="-206.5" font-family="Helvetica,sans-Serif" font-size="10.00"> </text>
</a>
</g>
</g>
<!-- Node3&#45;&gt;Node2 -->
<g id="edge2" class="edge">
<title>Node3&#45;&gt;Node2</title>
<path fill="none" stroke="#63b8ff" d="M48,-189.21C48,-180.29 48,-170.95 48,-162.58"/>
<polygon fill="none" stroke="#63b8ff" points="44.5,-189.4 48,-199.4 51.5,-189.4 44.5,-189.4"/>
</g>
</g>
</svg>
