<?xml version="1.0" encoding="UTF-8" standalone="no"?>
<!DOCTYPE svg PUBLIC "-//W3C//DTD SVG 1.1//EN"
 "http://www.w3.org/Graphics/SVG/1.1/DTD/svg11.dtd">
<!-- Generated by graphviz version 2.42.1 (0)
 -->
<!-- Title: vanetza::dcc::TransmitRateControl Pages: 1 -->
<!--zoomable 364 -->
<svg id="main" version="1.1" xmlns="http://www.w3.org/2000/svg" xmlns:xlink="http://www.w3.org/1999/xlink" xml:space="preserve" onload="init(evt)">
<style type="text/css"><![CDATA[
.edge:hover path { stroke: red; }
.edge:hover polygon { stroke: red; fill: red; }
]]></style>
<script type="text/javascript"><![CDATA[
var edges = document.getElementsByTagName('g');
if (edges && edges.length) {
  for (var i=0;i<edges.length;i++) {
    if (edges[i].id.substr(0,4)=='edge') {
      edges[i].setAttribute('class','edge');
    }
  }
}
]]></script>
        <defs>
                <circle id="rim" cx="0" cy="0" r="7"/>
                <circle id="rim2" cx="0" cy="0" r="3.5"/>
                <g id="zoomPlus">
                        <use xlink:href="#rim" fill="#404040">
                                <set attributeName="fill" to="#808080" begin="zoomplus.mouseover" end="zoomplus.mouseout"/>
                        </use>
                        <path d="M-4,0h8M0,-4v8" fill="none" stroke="white" stroke-width="1.5" pointer-events="none"/>
                </g>
                <g id="zoomMin">
                        <use xlink:href="#rim" fill="#404040">
                                <set attributeName="fill" to="#808080" begin="zoomminus.mouseover" end="zoomminus.mouseout"/>
                        </use>
                        <path d="M-4,0h8" fill="none" stroke="white" stroke-width="1.5" pointer-events="none"/>
                </g>
                <g id="dirArrow">
                        <path fill="none" stroke="white" stroke-width="1.5" d="M0,-3.0v7 M-2.5,-0.5L0,-3.0L2.5,-0.5"/>
                </g>
               <g id="resetDef">
                       <use xlink:href="#rim2" fill="#404040">
                               <set attributeName="fill" to="#808080" begin="reset.mouseover" end="reset.mouseout"/>
                       </use>
               </g>
        </defs>

<script type="text/javascript">
var viewWidth = 501;
var viewHeight = 364;
var sectionId = 'dynsection-0';
</script>
<script xlink:href="../../svgpan.js"/>
<svg id="graph" class="graph">
<g id="viewport">
<title>vanetza::dcc::TransmitRateControl</title>
<polygon fill="white" stroke="transparent" points="-4,4 -4,-360 497,-360 497,4 -4,4"/>
<!-- Node0 -->
<g id="node1" class="node">
<title>Node0</title>
<g id="a_node1"><a xlink:title=" ">
<polygon fill="#bfbfbf" stroke="black" points="177.5,-160.5 177.5,-228.5 315.5,-228.5 315.5,-160.5 177.5,-160.5"/>
<text text-anchor="start" x="185.5" y="-216.5" font-family="Helvetica,sans-Serif" font-size="10.00">vanetza::dcc::TransmitRate</text>
<text text-anchor="middle" x="246.5" y="-205.5" font-family="Helvetica,sans-Serif" font-size="10.00">Control</text>
<polyline fill="none" stroke="black" points="177.5,-198.5 315.5,-198.5 "/>
<text text-anchor="middle" x="246.5" y="-186.5" font-family="Helvetica,sans-Serif" font-size="10.00"> </text>
<polyline fill="none" stroke="black" points="177.5,-179.5 315.5,-179.5 "/>
<text text-anchor="middle" x="246.5" y="-167.5" font-family="Helvetica,sans-Serif" font-size="10.00"> </text>
</a>
</g>
</g>
<!-- Node3 -->
<g id="node4" class="node">
<title>Node3</title>
<g id="a_node4"><a xlink:href="../../d1/d1c/classvanetza_1_1dcc_1_1BurstyTransmitRateControl.html" target="_top" xlink:title=" ">
<polygon fill="white" stroke="black" points="0,-0.5 0,-123.5 151,-123.5 151,-0.5 0,-0.5"/>
<text text-anchor="start" x="8" y="-111.5" font-family="Helvetica,sans-Serif" font-size="10.00">vanetza::dcc::BurstyTransmit</text>
<text text-anchor="middle" x="75.5" y="-100.5" font-family="Helvetica,sans-Serif" font-size="10.00">RateControl</text>
<polyline fill="none" stroke="black" points="0,-93.5 151,-93.5 "/>
<text text-anchor="start" x="8" y="-81.5" font-family="Helvetica,sans-Serif" font-size="10.00">&#45; m_burst_budget</text>
<text text-anchor="start" x="8" y="-70.5" font-family="Helvetica,sans-Serif" font-size="10.00">&#45; m_fsm_budget</text>
<text text-anchor="start" x="8" y="-59.5" font-family="Helvetica,sans-Serif" font-size="10.00">&#45; m_fsm</text>
<polyline fill="none" stroke="black" points="0,-52.5 151,-52.5 "/>
<text text-anchor="start" x="8" y="-40.5" font-family="Helvetica,sans-Serif" font-size="10.00">+ BurstyTransmitRateControl()</text>
<text text-anchor="start" x="8" y="-29.5" font-family="Helvetica,sans-Serif" font-size="10.00">+ delay()</text>
<text text-anchor="start" x="8" y="-18.5" font-family="Helvetica,sans-Serif" font-size="10.00">+ interval()</text>
<text text-anchor="start" x="8" y="-7.5" font-family="Helvetica,sans-Serif" font-size="10.00">+ notify()</text>
</a>
</g>
</g>
<!-- Node0&#45;&gt;Node3 -->
<g id="edge3" class="edge">
<title>Node0&#45;&gt;Node3</title>
<path fill="none" stroke="midnightblue" d="M194.59,-153.88C180.92,-143.45 165.89,-131.98 151.24,-120.8"/>
<polygon fill="none" stroke="midnightblue" points="192.83,-156.95 202.91,-160.23 197.08,-151.38 192.83,-156.95"/>
</g>
<!-- Node4 -->
<g id="node5" class="node">
<title>Node4</title>
<g id="a_node5"><a xlink:href="../../df/d62/classvanetza_1_1dcc_1_1LimericTransmitRateControl.html" target="_top" xlink:title=" ">
<polygon fill="white" stroke="black" points="169.5,-6 169.5,-118 323.5,-118 323.5,-6 169.5,-6"/>
<text text-anchor="start" x="177.5" y="-106" font-family="Helvetica,sans-Serif" font-size="10.00">vanetza::dcc::LimericTransmit</text>
<text text-anchor="middle" x="246.5" y="-95" font-family="Helvetica,sans-Serif" font-size="10.00">RateControl</text>
<polyline fill="none" stroke="black" points="169.5,-88 323.5,-88 "/>
<text text-anchor="start" x="177.5" y="-76" font-family="Helvetica,sans-Serif" font-size="10.00">&#45; m_budget</text>
<polyline fill="none" stroke="black" points="169.5,-69 323.5,-69 "/>
<text text-anchor="start" x="177.5" y="-57" font-family="Helvetica,sans-Serif" font-size="10.00">+ LimericTransmitRateControl()</text>
<text text-anchor="start" x="177.5" y="-46" font-family="Helvetica,sans-Serif" font-size="10.00">+ delay()</text>
<text text-anchor="start" x="177.5" y="-35" font-family="Helvetica,sans-Serif" font-size="10.00">+ interval()</text>
<text text-anchor="start" x="177.5" y="-24" font-family="Helvetica,sans-Serif" font-size="10.00">+ notify()</text>
<text text-anchor="start" x="177.5" y="-13" font-family="Helvetica,sans-Serif" font-size="10.00">+ update()</text>
</a>
</g>
</g>
<!-- Node0&#45;&gt;Node4 -->
<g id="edge4" class="edge">
<title>Node0&#45;&gt;Node4</title>
<path fill="none" stroke="midnightblue" d="M246.5,-149.91C246.5,-139.69 246.5,-128.66 246.5,-118.01"/>
<polygon fill="none" stroke="midnightblue" points="243,-150.23 246.5,-160.23 250,-150.23 243,-150.23"/>
</g>
<!-- Node5 -->
<g id="node6" class="node">
<title>Node5</title>
<g id="a_node6"><a xlink:href="../../dc/d2b/classvanetza_1_1dcc_1_1SingleReactiveTransmitRateControl.html" target="_top" xlink:title=" ">
<polygon fill="white" stroke="black" points="342,-0.5 342,-123.5 493,-123.5 493,-0.5 342,-0.5"/>
<text text-anchor="start" x="350" y="-111.5" font-family="Helvetica,sans-Serif" font-size="10.00">vanetza::dcc::SingleReactive</text>
<text text-anchor="middle" x="417.5" y="-100.5" font-family="Helvetica,sans-Serif" font-size="10.00">TransmitRateControl</text>
<polyline fill="none" stroke="black" points="342,-93.5 493,-93.5 "/>
<text text-anchor="start" x="350" y="-81.5" font-family="Helvetica,sans-Serif" font-size="10.00">&#45; m_fsm</text>
<text text-anchor="start" x="350" y="-70.5" font-family="Helvetica,sans-Serif" font-size="10.00">&#45; m_fsm_budget</text>
<polyline fill="none" stroke="black" points="342,-63.5 493,-63.5 "/>
<text text-anchor="start" x="350" y="-51.5" font-family="Helvetica,sans-Serif" font-size="10.00">+ SingleReactiveTransmitRate</text>
<text text-anchor="start" x="350" y="-40.5" font-family="Helvetica,sans-Serif" font-size="10.00">Control()</text>
<text text-anchor="start" x="350" y="-29.5" font-family="Helvetica,sans-Serif" font-size="10.00">+ delay()</text>
<text text-anchor="start" x="350" y="-18.5" font-family="Helvetica,sans-Serif" font-size="10.00">+ interval()</text>
<text text-anchor="start" x="350" y="-7.5" font-family="Helvetica,sans-Serif" font-size="10.00">+ notify()</text>
</a>
</g>
</g>
<!-- Node0&#45;&gt;Node5 -->
<g id="edge5" class="edge">
<title>Node0&#45;&gt;Node5</title>
<path fill="none" stroke="midnightblue" d="M298.41,-153.88C312.08,-143.45 327.11,-131.98 341.76,-120.8"/>
<polygon fill="none" stroke="midnightblue" points="295.92,-151.38 290.09,-160.23 300.17,-156.95 295.92,-151.38"/>
</g>
<!-- Node1 -->
<g id="node2" class="node">
<title>Node1</title>
<g id="a_node2"><a xlink:href="../../dd/dbf/classvanetza_1_1dcc_1_1TransmitRateThrottle.html" target="_top" xlink:title=" ">
<polygon fill="white" stroke="black" points="99.5,-265.5 99.5,-355.5 237.5,-355.5 237.5,-265.5 99.5,-265.5"/>
<text text-anchor="start" x="107.5" y="-343.5" font-family="Helvetica,sans-Serif" font-size="10.00">vanetza::dcc::TransmitRate</text>
<text text-anchor="middle" x="168.5" y="-332.5" font-family="Helvetica,sans-Serif" font-size="10.00">Throttle</text>
<polyline fill="none" stroke="black" points="99.5,-325.5 237.5,-325.5 "/>
<text text-anchor="middle" x="168.5" y="-313.5" font-family="Helvetica,sans-Serif" font-size="10.00"> </text>
<polyline fill="none" stroke="black" points="99.5,-306.5 237.5,-306.5 "/>
<text text-anchor="start" x="107.5" y="-294.5" font-family="Helvetica,sans-Serif" font-size="10.00">+ delay()</text>
<text text-anchor="start" x="107.5" y="-283.5" font-family="Helvetica,sans-Serif" font-size="10.00">+ interval()</text>
<text text-anchor="start" x="107.5" y="-272.5" font-family="Helvetica,sans-Serif" font-size="10.00">+ ~TransmitRateThrottle()</text>
</a>
</g>
</g>
<!-- Node1&#45;&gt;Node0 -->
<g id="edge1" class="edge">
<title>Node1&#45;&gt;Node0</title>
<path fill="none" stroke="midnightblue" d="M204.38,-257.06C210.94,-247.47 217.63,-237.7 223.68,-228.85"/>
<polygon fill="none" stroke="midnightblue" points="201.42,-255.2 198.66,-265.42 207.19,-259.15 201.42,-255.2"/>
</g>
<!-- Node2 -->
<g id="node3" class="node">
<title>Node2</title>
<g id="a_node3"><a xlink:href="../../d2/d13/classvanetza_1_1dcc_1_1TransmitRateFeedback.html" target="_top" xlink:title=" ">
<polygon fill="white" stroke="black" points="255.5,-271 255.5,-350 395.5,-350 395.5,-271 255.5,-271"/>
<text text-anchor="start" x="263.5" y="-338" font-family="Helvetica,sans-Serif" font-size="10.00">vanetza::dcc::TransmitRate</text>
<text text-anchor="middle" x="325.5" y="-327" font-family="Helvetica,sans-Serif" font-size="10.00">Feedback</text>
<polyline fill="none" stroke="black" points="255.5,-320 395.5,-320 "/>
<text text-anchor="middle" x="325.5" y="-308" font-family="Helvetica,sans-Serif" font-size="10.00"> </text>
<polyline fill="none" stroke="black" points="255.5,-301 395.5,-301 "/>
<text text-anchor="start" x="263.5" y="-289" font-family="Helvetica,sans-Serif" font-size="10.00">+ notify()</text>
<text text-anchor="start" x="263.5" y="-278" font-family="Helvetica,sans-Serif" font-size="10.00">+ ~TransmitRateFeedback()</text>
</a>
</g>
</g>
<!-- Node2&#45;&gt;Node0 -->
<g id="edge2" class="edge">
<title>Node2&#45;&gt;Node0</title>
<path fill="none" stroke="midnightblue" d="M292.86,-262.39C285.02,-251.09 276.82,-239.25 269.52,-228.72"/>
<polygon fill="none" stroke="midnightblue" points="290.18,-264.68 298.75,-270.9 295.94,-260.69 290.18,-264.68"/>
</g>
</g>
</svg>
        <g id="navigator" transform="translate(0 0)" fill="#404254">
                <rect fill="#f2f5e9" fill-opacity="0.5" stroke="#606060" stroke-width=".5" x="0" y="0" width="60" height="60"/>
                <use id="zoomplus" xlink:href="#zoomPlus" x="17" y="9" onmousedown="handleZoom(evt,'in')"/>
                <use id="zoomminus" xlink:href="#zoomMin" x="42" y="9" onmousedown="handleZoom(evt,'out')"/>
                <use id="reset" xlink:href="#resetDef" x="30" y="36" onmousedown="handleReset()"/>
                <g id="arrowUp" xlink:href="#dirArrow" transform="translate(30 24)" onmousedown="handlePan(0,-1)">
                  <use xlink:href="#rim" fill="#404040">
                        <set attributeName="fill" to="#808080" begin="arrowUp.mouseover" end="arrowUp.mouseout"/>
                  </use>
                  <path fill="none" stroke="white" stroke-width="1.5" d="M0,-3.0v7 M-2.5,-0.5L0,-3.0L2.5,-0.5"/>
                </g>
                <g id="arrowRight" xlink:href="#dirArrow" transform="rotate(90) translate(36 -43)" onmousedown="handlePan(1,0)">
                  <use xlink:href="#rim" fill="#404040">
                        <set attributeName="fill" to="#808080" begin="arrowRight.mouseover" end="arrowRight.mouseout"/>
                  </use>
                  <path fill="none" stroke="white" stroke-width="1.5" d="M0,-3.0v7 M-2.5,-0.5L0,-3.0L2.5,-0.5"/>
                </g>
                <g id="arrowDown" xlink:href="#dirArrow" transform="rotate(180) translate(-30 -48)" onmousedown="handlePan(0,1)">
                  <use xlink:href="#rim" fill="#404040">
                        <set attributeName="fill" to="#808080" begin="arrowDown.mouseover" end="arrowDown.mouseout"/>
                  </use>
                  <path fill="none" stroke="white" stroke-width="1.5" d="M0,-3.0v7 M-2.5,-0.5L0,-3.0L2.5,-0.5"/>
                </g>
                <g id="arrowLeft" xlink:href="#dirArrow" transform="rotate(270) translate(-36 17)" onmousedown="handlePan(-1,0)">
                  <use xlink:href="#rim" fill="#404040">
                        <set attributeName="fill" to="#808080" begin="arrowLeft.mouseover" end="arrowLeft.mouseout"/>
                  </use>
                  <path fill="none" stroke="white" stroke-width="1.5" d="M0,-3.0v7 M-2.5,-0.5L0,-3.0L2.5,-0.5"/>
                </g>
        </g>
        <svg viewBox="0 0 15 15" width="100%" height="30px" preserveAspectRatio="xMaxYMin meet">
         <g id="arrow_out" transform="scale(0.3 0.3)">
          <a xlink:href="classvanetza_1_1dcc_1_1TransmitRateControl__inherit__graph_org.svg" target="_base">
           <rect id="button" ry="5" rx="5" y="6" x="6" height="38" width="38"
                fill="#f2f5e9" fill-opacity="0.5" stroke="#606060" stroke-width="1.0"/>
           <path id="arrow"
             d="M 11.500037,31.436501 C 11.940474,20.09759 22.043105,11.32322 32.158766,21.979434 L 37.068811,17.246167 C 37.068811,17.246167 37.088388,32 37.088388,32 L 22.160133,31.978069 C 22.160133,31.978069 26.997745,27.140456 26.997745,27.140456 C 18.528582,18.264221 13.291696,25.230495 11.500037,31.436501 z"
             style="fill:#404040;"/>
          </a>
         </g>
        </svg>
</svg>
