<?xml version="1.0" encoding="UTF-8" standalone="no"?>
<!DOCTYPE svg PUBLIC "-//W3C//DTD SVG 1.1//EN"
 "http://www.w3.org/Graphics/SVG/1.1/DTD/svg11.dtd">
<!-- Generated by graphviz version 2.49.3 (0)
 -->
<!-- Title: vanetza::dcc::TransmitRateControl Pages: 1 -->
<svg width="494pt" height="364pt"
 viewBox="0.00 0.00 493.50 364.00" xmlns="http://www.w3.org/2000/svg" xmlns:xlink="http://www.w3.org/1999/xlink">
<g id="graph0" class="graph" transform="scale(1 1) rotate(0) translate(4 360)">
<title>vanetza::dcc::TransmitRateControl</title>
<!-- Node1 -->
<g id="node1" class="node">
<title>Node1</title>
<g id="a_node1"><a xlink:title=" ">
<polygon fill="#999999" stroke="#666666" points="175.5,-160.5 175.5,-228.5 311.5,-228.5 311.5,-160.5 175.5,-160.5"/>
<text text-anchor="start" x="183.5" y="-216.5" font-family="Helvetica,sans-Serif" font-size="10.00">vanetza::dcc::TransmitRate</text>
<text text-anchor="middle" x="243.5" y="-205.5" font-family="Helvetica,sans-Serif" font-size="10.00">Control</text>
<polyline fill="none" stroke="#666666" points="175.5,-198.5 311.5,-198.5 "/>
<text text-anchor="middle" x="243.5" y="-186.5" font-family="Helvetica,sans-Serif" font-size="10.00"> </text>
<polyline fill="none" stroke="#666666" points="175.5,-179.5 311.5,-179.5 "/>
<text text-anchor="middle" x="243.5" y="-167.5" font-family="Helvetica,sans-Serif" font-size="10.00"> </text>
</a>
</g>
</g>
<!-- Node4 -->
<g id="node4" class="node">
<title>Node4</title>
<g id="a_node4"><a xlink:href="../../d1/d1c/classvanetza_1_1dcc_1_1BurstyTransmitRateControl.html" target="_top" xlink:title=" ">
<polygon fill="white" stroke="#666666" points="0,-0.5 0,-123.5 149,-123.5 149,-0.5 0,-0.5"/>
<text text-anchor="start" x="8" y="-111.5" font-family="Helvetica,sans-Serif" font-size="10.00">vanetza::dcc::BurstyTransmit</text>
<text text-anchor="middle" x="74.5" y="-100.5" font-family="Helvetica,sans-Serif" font-size="10.00">RateControl</text>
<polyline fill="none" stroke="#666666" points="0,-93.5 149,-93.5 "/>
<text text-anchor="start" x="8" y="-81.5" font-family="Helvetica,sans-Serif" font-size="10.00">&#45; m_burst_budget</text>
<text text-anchor="start" x="8" y="-70.5" font-family="Helvetica,sans-Serif" font-size="10.00">&#45; m_fsm_budget</text>
<text text-anchor="start" x="8" y="-59.5" font-family="Helvetica,sans-Serif" font-size="10.00">&#45; m_fsm</text>
<polyline fill="none" stroke="#666666" points="0,-52.5 149,-52.5 "/>
<text text-anchor="start" x="8" y="-40.5" font-family="Helvetica,sans-Serif" font-size="10.00">+ BurstyTransmitRateControl()</text>
<text text-anchor="start" x="8" y="-29.5" font-family="Helvetica,sans-Serif" font-size="10.00">+ delay()</text>
<text text-anchor="start" x="8" y="-18.5" font-family="Helvetica,sans-Serif" font-size="10.00">+ interval()</text>
<text text-anchor="start" x="8" y="-7.5" font-family="Helvetica,sans-Serif" font-size="10.00">+ notify()</text>
</a>
</g>
</g>
<!-- Node1&#45;&gt;Node4 -->
<g id="edge3" class="edge">
<title>Node1&#45;&gt;Node4</title>
<path fill="none" stroke="#63b8ff" d="M192.14,-153.84C178.54,-143.34 163.58,-131.79 149.03,-120.55"/>
<polygon fill="none" stroke="#63b8ff" points="190.36,-156.89 200.42,-160.23 194.64,-151.35 190.36,-156.89"/>
</g>
<!-- Node5 -->
<g id="node5" class="node">
<title>Node5</title>
<g id="a_node5"><a xlink:href="../../df/d62/classvanetza_1_1dcc_1_1LimericTransmitRateControl.html" target="_top" xlink:title=" ">
<polygon fill="white" stroke="#666666" points="167.5,-6 167.5,-118 319.5,-118 319.5,-6 167.5,-6"/>
<text text-anchor="start" x="175.5" y="-106" font-family="Helvetica,sans-Serif" font-size="10.00">vanetza::dcc::LimericTransmit</text>
<text text-anchor="middle" x="243.5" y="-95" font-family="Helvetica,sans-Serif" font-size="10.00">RateControl</text>
<polyline fill="none" stroke="#666666" points="167.5,-88 319.5,-88 "/>
<text text-anchor="start" x="175.5" y="-76" font-family="Helvetica,sans-Serif" font-size="10.00">&#45; m_budget</text>
<polyline fill="none" stroke="#666666" points="167.5,-69 319.5,-69 "/>
<text text-anchor="start" x="175.5" y="-57" font-family="Helvetica,sans-Serif" font-size="10.00">+ LimericTransmitRateControl()</text>
<text text-anchor="start" x="175.5" y="-46" font-family="Helvetica,sans-Serif" font-size="10.00">+ delay()</text>
<text text-anchor="start" x="175.5" y="-35" font-family="Helvetica,sans-Serif" font-size="10.00">+ interval()</text>
<text text-anchor="start" x="175.5" y="-24" font-family="Helvetica,sans-Serif" font-size="10.00">+ notify()</text>
<text text-anchor="start" x="175.5" y="-13" font-family="Helvetica,sans-Serif" font-size="10.00">+ update()</text>
</a>
</g>
</g>
<!-- Node1&#45;&gt;Node5 -->
<g id="edge4" class="edge">
<title>Node1&#45;&gt;Node5</title>
<path fill="none" stroke="#63b8ff" d="M243.5,-149.91C243.5,-139.69 243.5,-128.66 243.5,-118.01"/>
<polygon fill="none" stroke="#63b8ff" points="240,-150.23 243.5,-160.23 247,-150.23 240,-150.23"/>
</g>
<!-- Node6 -->
<g id="node6" class="node">
<title>Node6</title>
<g id="a_node6"><a xlink:href="../../dc/d2b/classvanetza_1_1dcc_1_1SingleReactiveTransmitRateControl.html" target="_top" xlink:title=" ">
<polygon fill="white" stroke="#666666" points="337.5,-0.5 337.5,-123.5 485.5,-123.5 485.5,-0.5 337.5,-0.5"/>
<text text-anchor="start" x="345.5" y="-111.5" font-family="Helvetica,sans-Serif" font-size="10.00">vanetza::dcc::SingleReactive</text>
<text text-anchor="middle" x="411.5" y="-100.5" font-family="Helvetica,sans-Serif" font-size="10.00">TransmitRateControl</text>
<polyline fill="none" stroke="#666666" points="337.5,-93.5 485.5,-93.5 "/>
<text text-anchor="start" x="345.5" y="-81.5" font-family="Helvetica,sans-Serif" font-size="10.00">&#45; m_fsm</text>
<text text-anchor="start" x="345.5" y="-70.5" font-family="Helvetica,sans-Serif" font-size="10.00">&#45; m_fsm_budget</text>
<polyline fill="none" stroke="#666666" points="337.5,-63.5 485.5,-63.5 "/>
<text text-anchor="start" x="345.5" y="-51.5" font-family="Helvetica,sans-Serif" font-size="10.00">+ SingleReactiveTransmitRate</text>
<text text-anchor="start" x="345.5" y="-40.5" font-family="Helvetica,sans-Serif" font-size="10.00">Control()</text>
<text text-anchor="start" x="345.5" y="-29.5" font-family="Helvetica,sans-Serif" font-size="10.00">+ delay()</text>
<text text-anchor="start" x="345.5" y="-18.5" font-family="Helvetica,sans-Serif" font-size="10.00">+ interval()</text>
<text text-anchor="start" x="345.5" y="-7.5" font-family="Helvetica,sans-Serif" font-size="10.00">+ notify()</text>
</a>
</g>
</g>
<!-- Node1&#45;&gt;Node6 -->
<g id="edge5" class="edge">
<title>Node1&#45;&gt;Node6</title>
<path fill="none" stroke="#63b8ff" d="M294.55,-153.84C308.07,-143.34 322.94,-131.79 337.42,-120.55"/>
<polygon fill="none" stroke="#63b8ff" points="292.08,-151.33 286.33,-160.23 296.37,-156.86 292.08,-151.33"/>
</g>
<!-- Node2 -->
<g id="node2" class="node">
<title>Node2</title>
<g id="a_node2"><a xlink:href="../../dd/dbf/classvanetza_1_1dcc_1_1TransmitRateThrottle.html" target="_top" xlink:title=" ">
<polygon fill="white" stroke="#bfbfbf" points="98.5,-265.5 98.5,-355.5 234.5,-355.5 234.5,-265.5 98.5,-265.5"/>
<text text-anchor="start" x="106.5" y="-343.5" font-family="Helvetica,sans-Serif" font-size="10.00">vanetza::dcc::TransmitRate</text>
<text text-anchor="middle" x="166.5" y="-332.5" font-family="Helvetica,sans-Serif" font-size="10.00">Throttle</text>
<polyline fill="none" stroke="#bfbfbf" points="98.5,-325.5 234.5,-325.5 "/>
<text text-anchor="middle" x="166.5" y="-313.5" font-family="Helvetica,sans-Serif" font-size="10.00"> </text>
<polyline fill="none" stroke="#bfbfbf" points="98.5,-306.5 234.5,-306.5 "/>
<text text-anchor="start" x="106.5" y="-294.5" font-family="Helvetica,sans-Serif" font-size="10.00">+ delay()</text>
<text text-anchor="start" x="106.5" y="-283.5" font-family="Helvetica,sans-Serif" font-size="10.00">+ interval()</text>
<text text-anchor="start" x="106.5" y="-272.5" font-family="Helvetica,sans-Serif" font-size="10.00">+ ~TransmitRateThrottle()</text>
</a>
</g>
</g>
<!-- Node2&#45;&gt;Node1 -->
<g id="edge1" class="edge">
<title>Node2&#45;&gt;Node1</title>
<path fill="none" stroke="#63b8ff" d="M201.92,-257.06C208.4,-247.47 215,-237.7 220.98,-228.85"/>
<polygon fill="none" stroke="#63b8ff" points="198.97,-255.18 196.27,-265.42 204.77,-259.1 198.97,-255.18"/>
</g>
<!-- Node3 -->
<g id="node3" class="node">
<title>Node3</title>
<g id="a_node3"><a xlink:href="../../d2/d13/classvanetza_1_1dcc_1_1TransmitRateFeedback.html" target="_top" xlink:title=" ">
<polygon fill="white" stroke="#bfbfbf" points="252.5,-271 252.5,-350 390.5,-350 390.5,-271 252.5,-271"/>
<text text-anchor="start" x="260.5" y="-338" font-family="Helvetica,sans-Serif" font-size="10.00">vanetza::dcc::TransmitRate</text>
<text text-anchor="middle" x="321.5" y="-327" font-family="Helvetica,sans-Serif" font-size="10.00">Feedback</text>
<polyline fill="none" stroke="#bfbfbf" points="252.5,-320 390.5,-320 "/>
<text text-anchor="middle" x="321.5" y="-308" font-family="Helvetica,sans-Serif" font-size="10.00"> </text>
<polyline fill="none" stroke="#bfbfbf" points="252.5,-301 390.5,-301 "/>
<text text-anchor="start" x="260.5" y="-289" font-family="Helvetica,sans-Serif" font-size="10.00">+ notify()</text>
<text text-anchor="start" x="260.5" y="-278" font-family="Helvetica,sans-Serif" font-size="10.00">+ ~TransmitRateFeedback()</text>
</a>
</g>
</g>
<!-- Node3&#45;&gt;Node1 -->
<g id="edge2" class="edge">
<title>Node3&#45;&gt;Node1</title>
<path fill="none" stroke="#63b8ff" d="M289.27,-262.39C281.53,-251.09 273.43,-239.25 266.23,-228.72"/>
<polygon fill="none" stroke="#63b8ff" points="286.56,-264.63 295.09,-270.9 292.33,-260.68 286.56,-264.63"/>
</g>
</g>
</svg>
