<?xml version="1.0" encoding="UTF-8" standalone="no"?>
<!DOCTYPE svg PUBLIC "-//W3C//DTD SVG 1.1//EN"
 "http://www.w3.org/Graphics/SVG/1.1/DTD/svg11.dtd">
<!-- Generated by graphviz version 14.1.2 (0)
 -->
<!-- Title: vanetza::convertible::byte_buffer_impl&lt; btp::HeaderB &gt; Pages: 1 -->
<svg width="232pt" height="531pt"
 viewBox="0.00 0.00 232.00 531.00" xmlns="http://www.w3.org/2000/svg" xmlns:xlink="http://www.w3.org/1999/xlink">
<g id="graph0" class="graph" transform="scale(1 1) rotate(0) translate(4 527.25)">
<title>vanetza::convertible::byte_buffer_impl&lt; btp::HeaderB &gt;</title>
<!-- Node1 -->
<g id="Node000001" class="node">
<title>Node1</title>
<g id="a_Node000001"><a xlink:title=" ">
<polygon fill="#999999" stroke="none" points="123.5,-163.5 0,-163.5 0,0 123.5,0 123.5,-163.5"/>
<text xml:space="preserve" text-anchor="start" x="4" y="-150" font-family="Helvetica,sans-Serif" font-size="10.00">vanetza::convertible</text>
<text xml:space="preserve" text-anchor="start" x="4" y="-137.25" font-family="Helvetica,sans-Serif" font-size="10.00">::byte_buffer_impl&lt; btp</text>
<text xml:space="preserve" text-anchor="start" x="32.12" y="-124.5" font-family="Helvetica,sans-Serif" font-size="10.00">::HeaderB &gt;</text>
<text xml:space="preserve" text-anchor="start" x="7.31" y="-107.75" font-family="Helvetica,sans-Serif" font-size="10.00">+</text>
<text xml:space="preserve" text-anchor="start" x="22.88" y="-107.75" font-family="Helvetica,sans-Serif" font-size="10.00">m_header</text>
<text xml:space="preserve" text-anchor="start" x="9.56" y="-91" font-family="Helvetica,sans-Serif" font-size="10.00">&#45;</text>
<text xml:space="preserve" text-anchor="start" x="22.88" y="-91" font-family="Helvetica,sans-Serif" font-size="10.00">m_wrapper</text>
<text xml:space="preserve" text-anchor="start" x="7.31" y="-74.25" font-family="Helvetica,sans-Serif" font-size="10.00">+</text>
<text xml:space="preserve" text-anchor="start" x="22.88" y="-74.25" font-family="Helvetica,sans-Serif" font-size="10.00">byte_buffer_impl()</text>
<text xml:space="preserve" text-anchor="start" x="7.31" y="-57.5" font-family="Helvetica,sans-Serif" font-size="10.00">+</text>
<text xml:space="preserve" text-anchor="start" x="22.88" y="-57.5" font-family="Helvetica,sans-Serif" font-size="10.00">convert()</text>
<text xml:space="preserve" text-anchor="start" x="7.31" y="-40.75" font-family="Helvetica,sans-Serif" font-size="10.00">+</text>
<text xml:space="preserve" text-anchor="start" x="22.88" y="-40.75" font-family="Helvetica,sans-Serif" font-size="10.00">size()</text>
<text xml:space="preserve" text-anchor="start" x="7.31" y="-24" font-family="Helvetica,sans-Serif" font-size="10.00">+</text>
<text xml:space="preserve" text-anchor="start" x="22.88" y="-24" font-family="Helvetica,sans-Serif" font-size="10.00">duplicate()</text>
<text xml:space="preserve" text-anchor="start" x="7.31" y="-7.25" font-family="Helvetica,sans-Serif" font-size="10.00">+</text>
<text xml:space="preserve" text-anchor="start" x="22.88" y="-7.25" font-family="Helvetica,sans-Serif" font-size="10.00">wrapper()</text>
<polygon fill="#666666" stroke="#666666" points="0,-119.25 0,-119.25 123.5,-119.25 123.5,-119.25 0,-119.25"/>
<polygon fill="#666666" stroke="#666666" points="0,-85.75 0,-85.75 20.88,-85.75 20.88,-85.75 0,-85.75"/>
<polygon fill="#666666" stroke="#666666" points="20.88,-85.75 20.88,-85.75 123.5,-85.75 123.5,-85.75 20.88,-85.75"/>
<polygon fill="none" stroke="#666666" points="0,0 0,-163.5 123.5,-163.5 123.5,0 0,0"/>
</a>
</g>
</g>
<!-- Node2 -->
<g id="Node000002" class="node">
<title>Node2</title>
<g id="a_Node000002"><a xlink:href="../../d4/dce/structvanetza_1_1convertible_1_1byte__buffer.html" target="_top" xlink:title=" ">
<polygon fill="white" stroke="none" points="115.62,-523.25 7.88,-523.25 7.88,-406 115.62,-406 115.62,-523.25"/>
<text xml:space="preserve" text-anchor="start" x="11.88" y="-509.75" font-family="Helvetica,sans-Serif" font-size="10.00">vanetza::convertible</text>
<text xml:space="preserve" text-anchor="start" x="31" y="-497" font-family="Helvetica,sans-Serif" font-size="10.00">::byte_buffer</text>
<text xml:space="preserve" text-anchor="start" x="60.25" y="-480.25" font-family="Helvetica,sans-Serif" font-size="10.00"> </text>
<text xml:space="preserve" text-anchor="start" x="15.94" y="-463.5" font-family="Helvetica,sans-Serif" font-size="10.00">+</text>
<text xml:space="preserve" text-anchor="start" x="32.25" y="-463.5" font-family="Helvetica,sans-Serif" font-size="10.00">convert()</text>
<text xml:space="preserve" text-anchor="start" x="15.94" y="-446.75" font-family="Helvetica,sans-Serif" font-size="10.00">+</text>
<text xml:space="preserve" text-anchor="start" x="32.25" y="-446.75" font-family="Helvetica,sans-Serif" font-size="10.00">size()</text>
<text xml:space="preserve" text-anchor="start" x="15.94" y="-430" font-family="Helvetica,sans-Serif" font-size="10.00">+</text>
<text xml:space="preserve" text-anchor="start" x="32.25" y="-430" font-family="Helvetica,sans-Serif" font-size="10.00">duplicate()</text>
<text xml:space="preserve" text-anchor="start" x="15.94" y="-413.25" font-family="Helvetica,sans-Serif" font-size="10.00">+</text>
<text xml:space="preserve" text-anchor="start" x="32.25" y="-413.25" font-family="Helvetica,sans-Serif" font-size="10.00">~byte_buffer()</text>
<polygon fill="#bfbfbf" stroke="#bfbfbf" points="7.88,-491.75 7.88,-491.75 115.62,-491.75 115.62,-491.75 7.88,-491.75"/>
<polygon fill="#bfbfbf" stroke="#bfbfbf" points="7.88,-475 7.88,-475 115.62,-475 115.62,-475 7.88,-475"/>
<polygon fill="none" stroke="#bfbfbf" points="7.88,-406 7.88,-523.25 115.62,-523.25 115.62,-406 7.88,-406"/>
</a>
</g>
</g>
<!-- Node2&#45;&gt;Node1 -->
<g id="edge1_Node000001_Node000002" class="edge">
<title>Node2&#45;&gt;Node1</title>
<g id="a_edge1_Node000001_Node000002"><a xlink:title=" ">
<path fill="none" stroke="#63b8ff" d="M56.41,-394.83C54.63,-329.72 54.53,-231.98 56.12,-163.27"/>
<polygon fill="none" stroke="#63b8ff" points="52.91,-394.79 56.71,-404.68 59.91,-394.58 52.91,-394.79"/>
</a>
</g>
</g>
<!-- Node2&#45;&gt;Node1 -->
<g id="edge2_Node000001_Node000002" class="edge">
<title>Node2&#45;&gt;Node1</title>
<g id="a_edge2_Node000001_Node000002"><a xlink:title=" ">
<path fill="none" stroke="#63b8ff" d="M67.09,-394.83C68.87,-329.72 68.97,-231.98 67.38,-163.27"/>
<polygon fill="none" stroke="#63b8ff" points="63.59,-394.58 66.79,-404.68 70.59,-394.79 63.59,-394.58"/>
</a>
</g>
</g>
<!-- Node3 -->
<g id="Node000003" class="node">
<title>Node3</title>
<g id="a_Node000003"><a xlink:href="../../d7/deb/structvanetza_1_1convertible_1_1byte__buffer__impl.html" target="_top" xlink:title=" ">
<polygon fill="white" stroke="none" points="224.25,-369 99.25,-369 99.25,-218.25 224.25,-218.25 224.25,-369"/>
<text xml:space="preserve" text-anchor="start" x="103.25" y="-355.5" font-family="Helvetica,sans-Serif" font-size="10.00">vanetza::convertible</text>
<text xml:space="preserve" text-anchor="start" x="103.25" y="-342.75" font-family="Helvetica,sans-Serif" font-size="10.00">::byte_buffer_impl&lt; T &gt;</text>
<text xml:space="preserve" text-anchor="start" x="109.19" y="-326" font-family="Helvetica,sans-Serif" font-size="10.00">&#45;</text>
<text xml:space="preserve" text-anchor="start" x="122.88" y="-326" font-family="Helvetica,sans-Serif" font-size="10.00">m_wrapper</text>
<text xml:space="preserve" text-anchor="start" x="106.94" y="-309.25" font-family="Helvetica,sans-Serif" font-size="10.00">+</text>
<text xml:space="preserve" text-anchor="start" x="122.88" y="-309.25" font-family="Helvetica,sans-Serif" font-size="10.00">byte_buffer_impl()</text>
<text xml:space="preserve" text-anchor="start" x="106.94" y="-292.5" font-family="Helvetica,sans-Serif" font-size="10.00">+</text>
<text xml:space="preserve" text-anchor="start" x="122.88" y="-292.5" font-family="Helvetica,sans-Serif" font-size="10.00">byte_buffer_impl()</text>
<text xml:space="preserve" text-anchor="start" x="106.94" y="-275.75" font-family="Helvetica,sans-Serif" font-size="10.00">+</text>
<text xml:space="preserve" text-anchor="start" x="122.88" y="-275.75" font-family="Helvetica,sans-Serif" font-size="10.00">convert()</text>
<text xml:space="preserve" text-anchor="start" x="106.94" y="-259" font-family="Helvetica,sans-Serif" font-size="10.00">+</text>
<text xml:space="preserve" text-anchor="start" x="122.88" y="-259" font-family="Helvetica,sans-Serif" font-size="10.00">duplicate()</text>
<text xml:space="preserve" text-anchor="start" x="106.94" y="-242.25" font-family="Helvetica,sans-Serif" font-size="10.00">+</text>
<text xml:space="preserve" text-anchor="start" x="122.88" y="-242.25" font-family="Helvetica,sans-Serif" font-size="10.00">size()</text>
<text xml:space="preserve" text-anchor="start" x="106.94" y="-225.5" font-family="Helvetica,sans-Serif" font-size="10.00">+</text>
<text xml:space="preserve" text-anchor="start" x="122.88" y="-225.5" font-family="Helvetica,sans-Serif" font-size="10.00">wrapper()</text>
<polygon fill="#bfbfbf" stroke="#bfbfbf" points="99.25,-337.5 99.25,-337.5 224.25,-337.5 224.25,-337.5 99.25,-337.5"/>
<polygon fill="#bfbfbf" stroke="#bfbfbf" points="99.25,-320.75 99.25,-320.75 120.88,-320.75 120.88,-320.75 99.25,-320.75"/>
<polygon fill="#bfbfbf" stroke="#bfbfbf" points="120.88,-320.75 120.88,-320.75 224.25,-320.75 224.25,-320.75 120.88,-320.75"/>
<polygon fill="none" stroke="#bfbfbf" points="99.25,-218.25 99.25,-369 224.25,-369 224.25,-218.25 99.25,-218.25"/>
</a>
</g>
</g>
<!-- Node2&#45;&gt;Node3 -->
<g id="edge4_Node000003_Node000002" class="edge">
<title>Node2&#45;&gt;Node3</title>
<g id="a_edge4_Node000003_Node000002"><a xlink:title=" ">
<path fill="none" stroke="#63b8ff" d="M101.39,-396.64C106.79,-387.51 112.35,-378.1 117.82,-368.86"/>
<polygon fill="none" stroke="#63b8ff" points="98.46,-394.72 96.38,-405.11 104.48,-398.28 98.46,-394.72"/>
</a>
</g>
</g>
<!-- Node3&#45;&gt;Node1 -->
<g id="edge3_Node000001_Node000003" class="edge">
<title>Node3&#45;&gt;Node1</title>
<g id="a_edge3_Node000001_Node000003"><a xlink:title=" ">
<path fill="none" stroke="orange" d="M121.52,-208.2C114.47,-193.4 107.16,-178.04 100.16,-163.36"/>
<polygon fill="orange" stroke="orange" points="118.24,-209.45 125.7,-216.97 124.56,-206.44 118.24,-209.45"/>
</a>
</g>
<text xml:space="preserve" text-anchor="start" x="117.75" y="-187.75" font-family="Helvetica,sans-Serif" font-size="10.00" fill="grey">&lt; btp::HeaderB &gt;</text>
</g>
</g>
</svg>
