<?xml version="1.0" encoding="UTF-8" standalone="no"?>
<!DOCTYPE svg PUBLIC "-//W3C//DTD SVG 1.1//EN"
 "http://www.w3.org/Graphics/SVG/1.1/DTD/svg11.dtd">
<!-- Generated by graphviz version 2.49.3 (0)
 -->
<!-- Title: vanetza::dcc::Transmission Pages: 1 -->
<svg width="310pt" height="270pt"
 viewBox="0.00 0.00 309.50 270.00" xmlns="http://www.w3.org/2000/svg" xmlns:xlink="http://www.w3.org/1999/xlink">
<g id="graph0" class="graph" transform="scale(1 1) rotate(0) translate(4 266)">
<title>vanetza::dcc::Transmission</title>
<!-- Node1 -->
<g id="node1" class="node">
<title>Node1</title>
<g id="a_node1"><a xlink:title=" ">
<polygon fill="#999999" stroke="#666666" points="77.5,-160.5 77.5,-261.5 213.5,-261.5 213.5,-160.5 77.5,-160.5"/>
<text text-anchor="middle" x="145.5" y="-249.5" font-family="Helvetica,sans-Serif" font-size="10.00">vanetza::dcc::Transmission</text>
<polyline fill="none" stroke="#666666" points="77.5,-242.5 213.5,-242.5 "/>
<text text-anchor="middle" x="145.5" y="-230.5" font-family="Helvetica,sans-Serif" font-size="10.00"> </text>
<polyline fill="none" stroke="#666666" points="77.5,-223.5 213.5,-223.5 "/>
<text text-anchor="start" x="85.5" y="-211.5" font-family="Helvetica,sans-Serif" font-size="10.00">+ profile()</text>
<text text-anchor="start" x="85.5" y="-200.5" font-family="Helvetica,sans-Serif" font-size="10.00">+ data_rate()</text>
<text text-anchor="start" x="85.5" y="-189.5" font-family="Helvetica,sans-Serif" font-size="10.00">+ body_length()</text>
<text text-anchor="start" x="85.5" y="-178.5" font-family="Helvetica,sans-Serif" font-size="10.00">+ channel_occupancy()</text>
<text text-anchor="start" x="85.5" y="-167.5" font-family="Helvetica,sans-Serif" font-size="10.00">+ ~Transmission()</text>
</a>
</g>
</g>
<!-- Node2 -->
<g id="node2" class="node">
<title>Node2</title>
<g id="a_node2"><a xlink:href="../../d2/d56/structvanetza_1_1dcc_1_1FlowControl_1_1PendingTransmission.html" target="_top" xlink:title=" ">
<polygon fill="white" stroke="#bfbfbf" points="0,-0.5 0,-123.5 131,-123.5 131,-0.5 0,-0.5"/>
<text text-anchor="start" x="8" y="-111.5" font-family="Helvetica,sans-Serif" font-size="10.00">vanetza::dcc::FlowControl</text>
<text text-anchor="middle" x="65.5" y="-100.5" font-family="Helvetica,sans-Serif" font-size="10.00">::PendingTransmission</text>
<polyline fill="none" stroke="#bfbfbf" points="0,-93.5 131,-93.5 "/>
<text text-anchor="start" x="8" y="-81.5" font-family="Helvetica,sans-Serif" font-size="10.00">+ expiry</text>
<text text-anchor="start" x="8" y="-70.5" font-family="Helvetica,sans-Serif" font-size="10.00">+ request</text>
<text text-anchor="start" x="8" y="-59.5" font-family="Helvetica,sans-Serif" font-size="10.00">+ packet</text>
<polyline fill="none" stroke="#bfbfbf" points="0,-52.5 131,-52.5 "/>
<text text-anchor="start" x="8" y="-40.5" font-family="Helvetica,sans-Serif" font-size="10.00">+ PendingTransmission()</text>
<text text-anchor="start" x="8" y="-29.5" font-family="Helvetica,sans-Serif" font-size="10.00">+ profile()</text>
<text text-anchor="start" x="8" y="-18.5" font-family="Helvetica,sans-Serif" font-size="10.00">+ data_rate()</text>
<text text-anchor="start" x="8" y="-7.5" font-family="Helvetica,sans-Serif" font-size="10.00">+ body_length()</text>
</a>
</g>
</g>
<!-- Node1&#45;&gt;Node2 -->
<g id="edge1" class="edge">
<title>Node1&#45;&gt;Node2</title>
<path fill="none" stroke="#63b8ff" d="M113.54,-151.28C108.6,-142.19 103.48,-132.8 98.52,-123.67"/>
<polygon fill="none" stroke="#63b8ff" points="110.56,-153.12 118.42,-160.23 116.71,-149.78 110.56,-153.12"/>
</g>
<!-- Node3 -->
<g id="node3" class="node">
<title>Node3</title>
<g id="a_node3"><a xlink:href="../../dc/da1/structvanetza_1_1dcc_1_1TransmissionLite.html" target="_top" xlink:title=" ">
<polygon fill="white" stroke="#bfbfbf" points="149.5,-6 149.5,-118 301.5,-118 301.5,-6 149.5,-6"/>
<text text-anchor="middle" x="225.5" y="-106" font-family="Helvetica,sans-Serif" font-size="10.00">vanetza::dcc::TransmissionLite</text>
<polyline fill="none" stroke="#bfbfbf" points="149.5,-99 301.5,-99 "/>
<text text-anchor="start" x="157.5" y="-87" font-family="Helvetica,sans-Serif" font-size="10.00">+ m_profile</text>
<text text-anchor="start" x="157.5" y="-76" font-family="Helvetica,sans-Serif" font-size="10.00">+ m_length</text>
<text text-anchor="start" x="157.5" y="-65" font-family="Helvetica,sans-Serif" font-size="10.00">+ m_data_rate</text>
<polyline fill="none" stroke="#bfbfbf" points="149.5,-58 301.5,-58 "/>
<text text-anchor="start" x="157.5" y="-46" font-family="Helvetica,sans-Serif" font-size="10.00">+ TransmissionLite()</text>
<text text-anchor="start" x="157.5" y="-35" font-family="Helvetica,sans-Serif" font-size="10.00">+ profile()</text>
<text text-anchor="start" x="157.5" y="-24" font-family="Helvetica,sans-Serif" font-size="10.00">+ data_rate()</text>
<text text-anchor="start" x="157.5" y="-13" font-family="Helvetica,sans-Serif" font-size="10.00">+ body_length()</text>
</a>
</g>
</g>
<!-- Node1&#45;&gt;Node3 -->
<g id="edge2" class="edge">
<title>Node1&#45;&gt;Node3</title>
<path fill="none" stroke="#63b8ff" d="M177.52,-151.17C183.47,-140.23 189.67,-128.84 195.56,-118.02"/>
<polygon fill="none" stroke="#63b8ff" points="174.29,-149.78 172.58,-160.23 180.44,-153.12 174.29,-149.78"/>
</g>
</g>
</svg>
