<?xml version="1.0" encoding="UTF-8" standalone="no"?>
<!DOCTYPE svg PUBLIC "-//W3C//DTD SVG 1.1//EN"
 "http://www.w3.org/Graphics/SVG/1.1/DTD/svg11.dtd">
<!-- Generated by graphviz version 14.1.2 (0)
 -->
<!-- Title: vanetza::dcc::Transmission Pages: 1 -->
<svg width="318pt" height="316pt"
 viewBox="0.00 0.00 318.00 316.00" xmlns="http://www.w3.org/2000/svg" xmlns:xlink="http://www.w3.org/1999/xlink">

<svg id="main" version="1.1" xmlns="http://www.w3.org/2000/svg" xmlns:xlink="http://www.w3.org/1999/xlink" xml:space="preserve">

<style type="text/css"><![CDATA[
.node, .edge {opacity: 0.7;}
.node.selected, .edge.selected {opacity: 1;}
.edge:hover path { stroke: red; }
.edge:hover polygon { stroke: red; fill: red; }
]]></style>
<script type="application/ecmascript" xlink:href="../../svg.min.js"/>
<svg id="graph" class="graph">
<g id="graph0" class="graph" transform="scale(1 1) rotate(0) translate(4 312)">
<title>vanetza::dcc::Transmission</title>
<!-- Node1 -->
<g id="Node000001" class="node">
<title>Node1</title>
<g id="a_Node000001"><a xlink:title=" ">
<polygon fill="#999999" stroke="none" points="218.62,-308 79.38,-308 79.38,-186.75 218.62,-186.75 218.62,-308"/>
<text xml:space="preserve" text-anchor="start" x="83.38" y="-294.5" font-family="Helvetica,sans-Serif" font-size="10.00">vanetza::dcc::Transmission</text>
<text xml:space="preserve" text-anchor="start" x="147.5" y="-277.75" font-family="Helvetica,sans-Serif" font-size="10.00"> </text>
<text xml:space="preserve" text-anchor="start" x="87.44" y="-261" font-family="Helvetica,sans-Serif" font-size="10.00">+</text>
<text xml:space="preserve" text-anchor="start" x="103.75" y="-261" font-family="Helvetica,sans-Serif" font-size="10.00">profile()</text>
<text xml:space="preserve" text-anchor="start" x="87.44" y="-244.25" font-family="Helvetica,sans-Serif" font-size="10.00">+</text>
<text xml:space="preserve" text-anchor="start" x="103.75" y="-244.25" font-family="Helvetica,sans-Serif" font-size="10.00">data_rate()</text>
<text xml:space="preserve" text-anchor="start" x="87.44" y="-227.5" font-family="Helvetica,sans-Serif" font-size="10.00">+</text>
<text xml:space="preserve" text-anchor="start" x="103.75" y="-227.5" font-family="Helvetica,sans-Serif" font-size="10.00">body_length()</text>
<text xml:space="preserve" text-anchor="start" x="87.44" y="-210.75" font-family="Helvetica,sans-Serif" font-size="10.00">+</text>
<text xml:space="preserve" text-anchor="start" x="103.75" y="-210.75" font-family="Helvetica,sans-Serif" font-size="10.00">channel_occupancy()</text>
<text xml:space="preserve" text-anchor="start" x="87.44" y="-194" font-family="Helvetica,sans-Serif" font-size="10.00">+</text>
<text xml:space="preserve" text-anchor="start" x="103.75" y="-194" font-family="Helvetica,sans-Serif" font-size="10.00">~Transmission()</text>
<polygon fill="#666666" stroke="#666666" points="79.38,-289.25 79.38,-289.25 218.62,-289.25 218.62,-289.25 79.38,-289.25"/>
<polygon fill="#666666" stroke="#666666" points="79.38,-272.5 79.38,-272.5 218.62,-272.5 218.62,-272.5 79.38,-272.5"/>
<polygon fill="none" stroke="#666666" points="79.38,-186.75 79.38,-308 218.62,-308 218.62,-186.75 79.38,-186.75"/>
</a>
</g>
</g>
<!-- Node2 -->
<g id="Node000002" class="node">
<title>Node2</title>
<g id="a_Node000002"><a xlink:href="../../d2/d56/structvanetza_1_1dcc_1_1FlowControl_1_1PendingTransmission.html" target="_top" xlink:title=" ">
<polygon fill="white" stroke="none" points="134,-150.75 0,-150.75 0,0 134,0 134,-150.75"/>
<text xml:space="preserve" text-anchor="start" x="4" y="-137.25" font-family="Helvetica,sans-Serif" font-size="10.00">vanetza::dcc::FlowControl</text>
<text xml:space="preserve" text-anchor="start" x="12.62" y="-124.5" font-family="Helvetica,sans-Serif" font-size="10.00">::PendingTransmission</text>
<text xml:space="preserve" text-anchor="start" x="4.88" y="-107.75" font-family="Helvetica,sans-Serif" font-size="10.00">+</text>
<text xml:space="preserve" text-anchor="start" x="18" y="-107.75" font-family="Helvetica,sans-Serif" font-size="10.00">expiry</text>
<text xml:space="preserve" text-anchor="start" x="4.88" y="-91" font-family="Helvetica,sans-Serif" font-size="10.00">+</text>
<text xml:space="preserve" text-anchor="start" x="18" y="-91" font-family="Helvetica,sans-Serif" font-size="10.00">request</text>
<text xml:space="preserve" text-anchor="start" x="4.88" y="-74.25" font-family="Helvetica,sans-Serif" font-size="10.00">+</text>
<text xml:space="preserve" text-anchor="start" x="18" y="-74.25" font-family="Helvetica,sans-Serif" font-size="10.00">packet</text>
<text xml:space="preserve" text-anchor="start" x="4.88" y="-57.5" font-family="Helvetica,sans-Serif" font-size="10.00">+</text>
<text xml:space="preserve" text-anchor="start" x="18" y="-57.5" font-family="Helvetica,sans-Serif" font-size="10.00">PendingTransmission()</text>
<text xml:space="preserve" text-anchor="start" x="4.88" y="-40.75" font-family="Helvetica,sans-Serif" font-size="10.00">+</text>
<text xml:space="preserve" text-anchor="start" x="18" y="-40.75" font-family="Helvetica,sans-Serif" font-size="10.00">profile()</text>
<text xml:space="preserve" text-anchor="start" x="4.88" y="-24" font-family="Helvetica,sans-Serif" font-size="10.00">+</text>
<text xml:space="preserve" text-anchor="start" x="18" y="-24" font-family="Helvetica,sans-Serif" font-size="10.00">data_rate()</text>
<text xml:space="preserve" text-anchor="start" x="4.88" y="-7.25" font-family="Helvetica,sans-Serif" font-size="10.00">+</text>
<text xml:space="preserve" text-anchor="start" x="18" y="-7.25" font-family="Helvetica,sans-Serif" font-size="10.00">body_length()</text>
<polygon fill="#bfbfbf" stroke="#bfbfbf" points="0,-119.25 0,-119.25 134,-119.25 134,-119.25 0,-119.25"/>
<polygon fill="#bfbfbf" stroke="#bfbfbf" points="0,-69 0,-69 16,-69 16,-69 0,-69"/>
<polygon fill="#bfbfbf" stroke="#bfbfbf" points="16,-69 16,-69 134,-69 134,-69 16,-69"/>
<polygon fill="none" stroke="#bfbfbf" points="0,0 0,-150.75 134,-150.75 134,0 0,0"/>
</a>
</g>
</g>
<!-- Node1&#45;&gt;Node2 -->
<g id="edge1_Node000001_Node000002" class="edge">
<title>Node1&#45;&gt;Node2</title>
<g id="a_edge1_Node000001_Node000002"><a xlink:title=" ">
<path fill="none" stroke="#63b8ff" d="M115.36,-176.63C111.24,-168.1 107.02,-159.35 102.87,-150.75"/>
<polygon fill="none" stroke="#63b8ff" points="112.17,-178.07 119.66,-185.55 118.47,-175.03 112.17,-178.07"/>
</a>
</g>
</g>
<!-- Node3 -->
<g id="Node000003" class="node">
<title>Node3</title>
<g id="a_Node000003"><a xlink:href="../../dc/da1/structvanetza_1_1dcc_1_1TransmissionLite.html" target="_top" xlink:title=" ">
<polygon fill="white" stroke="none" points="309.62,-144.38 152.38,-144.38 152.38,-6.38 309.62,-6.38 309.62,-144.38"/>
<text xml:space="preserve" text-anchor="start" x="156.38" y="-130.88" font-family="Helvetica,sans-Serif" font-size="10.00">vanetza::dcc::TransmissionLite</text>
<text xml:space="preserve" text-anchor="start" x="168.31" y="-114.12" font-family="Helvetica,sans-Serif" font-size="10.00">+</text>
<text xml:space="preserve" text-anchor="start" x="192.5" y="-114.12" font-family="Helvetica,sans-Serif" font-size="10.00">m_profile</text>
<text xml:space="preserve" text-anchor="start" x="168.31" y="-97.38" font-family="Helvetica,sans-Serif" font-size="10.00">+</text>
<text xml:space="preserve" text-anchor="start" x="192.5" y="-97.38" font-family="Helvetica,sans-Serif" font-size="10.00">m_length</text>
<text xml:space="preserve" text-anchor="start" x="168.31" y="-80.62" font-family="Helvetica,sans-Serif" font-size="10.00">+</text>
<text xml:space="preserve" text-anchor="start" x="192.5" y="-80.62" font-family="Helvetica,sans-Serif" font-size="10.00">m_data_rate</text>
<text xml:space="preserve" text-anchor="start" x="168.31" y="-63.88" font-family="Helvetica,sans-Serif" font-size="10.00">+</text>
<text xml:space="preserve" text-anchor="start" x="192.5" y="-63.88" font-family="Helvetica,sans-Serif" font-size="10.00">TransmissionLite()</text>
<text xml:space="preserve" text-anchor="start" x="168.31" y="-47.12" font-family="Helvetica,sans-Serif" font-size="10.00">+</text>
<text xml:space="preserve" text-anchor="start" x="192.5" y="-47.12" font-family="Helvetica,sans-Serif" font-size="10.00">profile()</text>
<text xml:space="preserve" text-anchor="start" x="168.31" y="-30.38" font-family="Helvetica,sans-Serif" font-size="10.00">+</text>
<text xml:space="preserve" text-anchor="start" x="192.5" y="-30.38" font-family="Helvetica,sans-Serif" font-size="10.00">data_rate()</text>
<text xml:space="preserve" text-anchor="start" x="168.31" y="-13.62" font-family="Helvetica,sans-Serif" font-size="10.00">+</text>
<text xml:space="preserve" text-anchor="start" x="192.5" y="-13.62" font-family="Helvetica,sans-Serif" font-size="10.00">body_length()</text>
<polygon fill="#bfbfbf" stroke="#bfbfbf" points="152.38,-125.62 152.38,-125.62 309.62,-125.62 309.62,-125.62 152.38,-125.62"/>
<polygon fill="#bfbfbf" stroke="#bfbfbf" points="152.38,-75.38 152.38,-75.38 190.5,-75.38 190.5,-75.38 152.38,-75.38"/>
<polygon fill="#bfbfbf" stroke="#bfbfbf" points="190.5,-75.38 190.5,-75.38 309.62,-75.38 309.62,-75.38 190.5,-75.38"/>
<polygon fill="none" stroke="#bfbfbf" points="152.38,-6.38 152.38,-144.38 309.62,-144.38 309.62,-6.38 152.38,-6.38"/>
</a>
</g>
</g>
<!-- Node1&#45;&gt;Node3 -->
<g id="edge2_Node000001_Node000003" class="edge">
<title>Node1&#45;&gt;Node3</title>
<g id="a_edge2_Node000001_Node000003"><a xlink:title=" ">
<path fill="none" stroke="#63b8ff" d="M182.58,-176.75C187.76,-166.01 193.11,-154.93 198.27,-144.24"/>
<polygon fill="none" stroke="#63b8ff" points="179.53,-175.03 178.34,-185.55 185.83,-178.07 179.53,-175.03"/>
</a>
</g>
</g>
</g>
</svg>
</svg>

<style type='text/css'>
<![CDATA[
[data-mouse-over-selected='false'] { opacity: 0.7; }
[data-mouse-over-selected='true']  { opacity: 1.0; }
]]>
</style>
<script type="application/ecmascript"><![CDATA[
document.addEventListener('DOMContentLoaded', (event) => {
  highlightEdges();
  highlightAdjacentNodes();
});
]]></script>
</svg>
