<?xml version="1.0" encoding="UTF-8" standalone="no"?>
<!DOCTYPE svg PUBLIC "-//W3C//DTD SVG 1.1//EN"
 "http://www.w3.org/Graphics/SVG/1.1/DTD/svg11.dtd">
<!-- Generated by graphviz version 2.49.3 (0)
 -->
<!-- Title: vanetza::geonet::DccInformationSharing Pages: 1 -->
<svg width="160pt" height="359pt"
 viewBox="0.00 0.00 160.00 359.00" xmlns="http://www.w3.org/2000/svg" xmlns:xlink="http://www.w3.org/1999/xlink">

<svg id="main" version="1.1" xmlns="http://www.w3.org/2000/svg" xmlns:xlink="http://www.w3.org/1999/xlink" xml:space="preserve">

<style type="text/css"><![CDATA[
.node, .edge {opacity: 0.7;}
.node.selected, .edge.selected {opacity: 1;}
.edge:hover path { stroke: red; }
.edge:hover polygon { stroke: red; fill: red; }
]]></style>
<script type="application/ecmascript" xlink:href="../../svg.min.js"/>
<svg id="graph" class="graph">
<g id="graph0" class="graph" transform="scale(1 1) rotate(0) translate(4 355)">
<title>vanetza::geonet::DccInformationSharing</title>
<!-- Node1 -->
<g id="Node000001" class="node">
<title>Node1</title>
<g id="a_Node000001"><a xlink:title=" ">
<polygon fill="#999999" stroke="transparent" points="152,-240 0,-240 0,0 152,0 152,-240"/>
<text text-anchor="start" x="5" y="-228" font-family="Helvetica,sans-Serif" font-size="10.00">vanetza::geonet::DccInformation</text>
<text text-anchor="start" x="59" y="-217" font-family="Helvetica,sans-Serif" font-size="10.00">Sharing</text>
<text text-anchor="start" x="10.5" y="-202" font-family="Helvetica,sans-Serif" font-size="10.00">+</text>
<text text-anchor="start" x="28" y="-202" font-family="Helvetica,sans-Serif" font-size="10.00">on_global_cbr_update</text>
<text text-anchor="start" x="12" y="-187" font-family="Helvetica,sans-Serif" font-size="10.00">&#45;</text>
<text text-anchor="start" x="28" y="-187" font-family="Helvetica,sans-Serif" font-size="10.00">m_runtime</text>
<text text-anchor="start" x="12" y="-172" font-family="Helvetica,sans-Serif" font-size="10.00">&#45;</text>
<text text-anchor="start" x="28" y="-172" font-family="Helvetica,sans-Serif" font-size="10.00">m_location_table</text>
<text text-anchor="start" x="12" y="-157" font-family="Helvetica,sans-Serif" font-size="10.00">&#45;</text>
<text text-anchor="start" x="28" y="-157" font-family="Helvetica,sans-Serif" font-size="10.00">m_cbr_target</text>
<text text-anchor="start" x="12" y="-142" font-family="Helvetica,sans-Serif" font-size="10.00">&#45;</text>
<text text-anchor="start" x="28" y="-142" font-family="Helvetica,sans-Serif" font-size="10.00">m_cbr_local</text>
<text text-anchor="start" x="12" y="-127" font-family="Helvetica,sans-Serif" font-size="10.00">&#45;</text>
<text text-anchor="start" x="28" y="-127" font-family="Helvetica,sans-Serif" font-size="10.00">m_aggregator</text>
<text text-anchor="start" x="12" y="-112" font-family="Helvetica,sans-Serif" font-size="10.00">&#45;</text>
<text text-anchor="start" x="28" y="-112" font-family="Helvetica,sans-Serif" font-size="10.00">m_trigger_interval</text>
<text text-anchor="start" x="12" y="-97" font-family="Helvetica,sans-Serif" font-size="10.00">&#45;</text>
<text text-anchor="start" x="28" y="-97" font-family="Helvetica,sans-Serif" font-size="10.00">m_last_aggregation</text>
<text text-anchor="start" x="12" y="-82" font-family="Helvetica,sans-Serif" font-size="10.00">&#45;</text>
<text text-anchor="start" x="28" y="-82" font-family="Helvetica,sans-Serif" font-size="10.00">m_update_hook</text>
<text text-anchor="start" x="10.5" y="-67" font-family="Helvetica,sans-Serif" font-size="10.00">+</text>
<text text-anchor="start" x="28" y="-67" font-family="Helvetica,sans-Serif" font-size="10.00">DccInformationSharing()</text>
<text text-anchor="start" x="10.5" y="-52" font-family="Helvetica,sans-Serif" font-size="10.00">+</text>
<text text-anchor="start" x="28" y="-52" font-family="Helvetica,sans-Serif" font-size="10.00">DccInformationSharing()</text>
<text text-anchor="start" x="10.5" y="-37" font-family="Helvetica,sans-Serif" font-size="10.00">+</text>
<text text-anchor="start" x="28" y="-37" font-family="Helvetica,sans-Serif" font-size="10.00">generate_dcc_field()</text>
<text text-anchor="start" x="10.5" y="-22" font-family="Helvetica,sans-Serif" font-size="10.00">+</text>
<text text-anchor="start" x="28" y="-22" font-family="Helvetica,sans-Serif" font-size="10.00">update_local_cbr()</text>
<text text-anchor="start" x="12" y="-7" font-family="Helvetica,sans-Serif" font-size="10.00">&#45;</text>
<text text-anchor="start" x="28" y="-7" font-family="Helvetica,sans-Serif" font-size="10.00">trigger()</text>
<polygon fill="#666666" stroke="#666666" points="0,-212 0,-212 152,-212 152,-212 0,-212"/>
<polygon fill="#666666" stroke="#666666" points="0,-77 0,-77 26,-77 26,-77 0,-77"/>
<polygon fill="#666666" stroke="#666666" points="26,-77 26,-77 152,-77 152,-77 26,-77"/>
<polygon fill="none" stroke="#666666" points="0,0 0,-240 152,-240 152,0 0,0"/>
</a>
</g>
</g>
<!-- Node2 -->
<g id="Node000002" class="node">
<title>Node2</title>
<g id="a_Node000002"><a xlink:href="../../d2/d6f/classvanetza_1_1geonet_1_1DccFieldGenerator.html" target="_top" xlink:title=" ">
<polygon fill="white" stroke="transparent" points="138,-351 14,-351 14,-276 138,-276 138,-351"/>
<text text-anchor="start" x="19" y="-338.5" font-family="Helvetica,sans-Serif" font-size="10.00">vanetza::geonet::DccField</text>
<text text-anchor="start" x="54.5" y="-327.5" font-family="Helvetica,sans-Serif" font-size="10.00">Generator</text>
<text text-anchor="start" x="74" y="-312.5" font-family="Helvetica,sans-Serif" font-size="10.00"> </text>
<text text-anchor="start" x="20.5" y="-297.5" font-family="Helvetica,sans-Serif" font-size="10.00">+</text>
<text text-anchor="start" x="34" y="-297.5" font-family="Helvetica,sans-Serif" font-size="10.00">generate_dcc_field()</text>
<text text-anchor="start" x="20.5" y="-282.5" font-family="Helvetica,sans-Serif" font-size="10.00">+</text>
<text text-anchor="start" x="34" y="-282.5" font-family="Helvetica,sans-Serif" font-size="10.00">~DccFieldGenerator()</text>
<polygon fill="#bfbfbf" stroke="#bfbfbf" points="14,-322.5 14,-322.5 138,-322.5 138,-322.5 14,-322.5"/>
<polygon fill="#bfbfbf" stroke="#bfbfbf" points="14,-307.5 14,-307.5 138,-307.5 138,-307.5 14,-307.5"/>
<polygon fill="none" stroke="#bfbfbf" points="14,-276 14,-351 138,-351 138,-276 14,-276"/>
</a>
</g>
</g>
<!-- Node2&#45;&gt;Node1 -->
<g id="edge1_Node000001_Node000002" class="edge">
<title>Node2&#45;&gt;Node1</title>
<g id="a_edge1_Node000001_Node000002"><a xlink:title=" ">
<path fill="none" stroke="#63b8ff" d="M76,-265.53C76,-257.61 76,-249.07 76,-240.26"/>
<polygon fill="none" stroke="#63b8ff" points="72.5,-265.58 76,-275.58 79.5,-265.58 72.5,-265.58"/>
</a>
</g>
</g>
</g>
</svg>
</svg>

<style type='text/css'>
<![CDATA[
[data-mouse-over-selected='false'] { opacity: 0.7; }
[data-mouse-over-selected='true']  { opacity: 1.0; }
]]>
</style>
<script type="application/ecmascript"><![CDATA[
document.addEventListener('DOMContentLoaded', (event) => {
  highlightEdges();
  highlightAdjacentNodes();
});
]]></script>
</svg>
