<?xml version="1.0" encoding="UTF-8" standalone="no"?>
<!DOCTYPE svg PUBLIC "-//W3C//DTD SVG 1.1//EN"
 "http://www.w3.org/Graphics/SVG/1.1/DTD/svg11.dtd">
<!-- Generated by graphviz version 2.49.3 (0)
 -->
<!-- Title: vanetza::dcc::Relaxed Pages: 1 -->
<svg width="126pt" height="187pt"
 viewBox="0.00 0.00 126.00 187.00" xmlns="http://www.w3.org/2000/svg" xmlns:xlink="http://www.w3.org/1999/xlink">

<svg id="main" version="1.1" xmlns="http://www.w3.org/2000/svg" xmlns:xlink="http://www.w3.org/1999/xlink" xml:space="preserve">

<style type="text/css"><![CDATA[
.node, .edge {opacity: 0.7;}
.node.selected, .edge.selected {opacity: 1;}
.edge:hover path { stroke: red; }
.edge:hover polygon { stroke: red; fill: red; }
]]></style>
<script type="application/ecmascript" xlink:href="../../svg.min.js"/>
<svg id="graph" class="graph">
<g id="graph0" class="graph" transform="scale(1 1) rotate(0) translate(4 183)">
<title>vanetza::dcc::Relaxed</title>
<!-- Node1 -->
<g id="Node000001" class="node">
<title>Node1</title>
<g id="a_Node000001"><a xlink:title=" ">
<polygon fill="#999999" stroke="transparent" points="118,-64 0,-64 0,0 118,0 118,-64"/>
<text text-anchor="start" x="10.5" y="-52" font-family="Helvetica,sans-Serif" font-size="10.00">vanetza::dcc::Relaxed</text>
<text text-anchor="start" x="57" y="-37" font-family="Helvetica,sans-Serif" font-size="10.00"> </text>
<text text-anchor="start" x="4" y="-22" font-family="Helvetica,sans-Serif" font-size="10.00">+</text>
<text text-anchor="start" x="15" y="-22" font-family="Helvetica,sans-Serif" font-size="10.00">transmission_interval()</text>
<text text-anchor="start" x="4" y="-7" font-family="Helvetica,sans-Serif" font-size="10.00">+</text>
<text text-anchor="start" x="15" y="-7" font-family="Helvetica,sans-Serif" font-size="10.00">name()</text>
<polygon fill="#666666" stroke="#666666" points="0,-47 0,-47 118,-47 118,-47 0,-47"/>
<polygon fill="#666666" stroke="#666666" points="0,-32 0,-32 118,-32 118,-32 0,-32"/>
<polygon fill="none" stroke="#666666" points="0,0 0,-64 118,-64 118,0 0,0"/>
</a>
</g>
</g>
<!-- Node2 -->
<g id="Node000002" class="node">
<title>Node2</title>
<g id="a_Node000002"><a xlink:href="../../d9/d97/classvanetza_1_1dcc_1_1State.html" target="_top" xlink:title=" ">
<polygon fill="white" stroke="transparent" points="118,-179 0,-179 0,-100 118,-100 118,-179"/>
<text text-anchor="start" x="16.5" y="-166.5" font-family="Helvetica,sans-Serif" font-size="10.00">vanetza::dcc::State</text>
<text text-anchor="start" x="57" y="-151.5" font-family="Helvetica,sans-Serif" font-size="10.00"> </text>
<text text-anchor="start" x="4" y="-136.5" font-family="Helvetica,sans-Serif" font-size="10.00">+</text>
<text text-anchor="start" x="15" y="-136.5" font-family="Helvetica,sans-Serif" font-size="10.00">transmission_interval()</text>
<text text-anchor="start" x="4" y="-121.5" font-family="Helvetica,sans-Serif" font-size="10.00">+</text>
<text text-anchor="start" x="15" y="-121.5" font-family="Helvetica,sans-Serif" font-size="10.00">name()</text>
<text text-anchor="start" x="4" y="-106.5" font-family="Helvetica,sans-Serif" font-size="10.00">+</text>
<text text-anchor="start" x="15" y="-106.5" font-family="Helvetica,sans-Serif" font-size="10.00">~State()</text>
<polygon fill="#bfbfbf" stroke="#bfbfbf" points="0,-161.5 0,-161.5 118,-161.5 118,-161.5 0,-161.5"/>
<polygon fill="#bfbfbf" stroke="#bfbfbf" points="0,-146.5 0,-146.5 118,-146.5 118,-146.5 0,-146.5"/>
<polygon fill="none" stroke="#bfbfbf" points="0,-100 0,-179 118,-179 118,-100 0,-100"/>
</a>
</g>
</g>
<!-- Node2&#45;&gt;Node1 -->
<g id="edge1_Node000001_Node000002" class="edge">
<title>Node2&#45;&gt;Node1</title>
<g id="a_edge1_Node000001_Node000002"><a xlink:title=" ">
<path fill="none" stroke="#63b8ff" d="M59,-89.71C59,-81 59,-72.14 59,-64.09"/>
<polygon fill="none" stroke="#63b8ff" points="55.5,-89.81 59,-99.81 62.5,-89.81 55.5,-89.81"/>
</a>
</g>
</g>
</g>
</svg>
</svg>

<style type='text/css'>
<![CDATA[
[data-mouse-over-selected='false'] { opacity: 0.7; }
[data-mouse-over-selected='true']  { opacity: 1.0; }
]]>
</style>
<script type="application/ecmascript"><![CDATA[
document.addEventListener('DOMContentLoaded', (event) => {
  highlightEdges();
  highlightAdjacentNodes();
});
]]></script>
</svg>
