<?xml version="1.0" encoding="UTF-8" standalone="no"?>
<!DOCTYPE svg PUBLIC "-//W3C//DTD SVG 1.1//EN"
 "http://www.w3.org/Graphics/SVG/1.1/DTD/svg11.dtd">
<!-- Generated by graphviz version 2.49.3 (0)
 -->
<!-- Title: vanetza::security::v2::NaiveCertificateProvider Pages: 1 -->
<svg width="142pt" height="441pt"
 viewBox="0.00 0.00 142.00 441.00" xmlns="http://www.w3.org/2000/svg" xmlns:xlink="http://www.w3.org/1999/xlink">
<g id="graph0" class="graph" transform="scale(1 1) rotate(0) translate(4 437)">
<title>vanetza::security::v2::NaiveCertificateProvider</title>
<!-- Node1 -->
<g id="Node000001" class="node">
<title>Node1</title>
<g id="a_Node000001"><a xlink:title="A very simplistic certificate provider.">
<polygon fill="#999999" stroke="transparent" points="134,-292 0,-292 0,0 134,0 134,-292"/>
<text text-anchor="start" x="5" y="-280" font-family="Helvetica,sans-Serif" font-size="10.00">vanetza::security::</text>
<text text-anchor="start" x="5" y="-269" font-family="Helvetica,sans-Serif" font-size="10.00">v2::NaiveCertificateProvider</text>
<text text-anchor="start" x="5.5" y="-254" font-family="Helvetica,sans-Serif" font-size="10.00">&#45;</text>
<text text-anchor="start" x="15" y="-254" font-family="Helvetica,sans-Serif" font-size="10.00">m_crypto_backend</text>
<text text-anchor="start" x="5.5" y="-239" font-family="Helvetica,sans-Serif" font-size="10.00">&#45;</text>
<text text-anchor="start" x="15" y="-239" font-family="Helvetica,sans-Serif" font-size="10.00">m_runtime</text>
<text text-anchor="start" x="5.5" y="-224" font-family="Helvetica,sans-Serif" font-size="10.00">&#45;</text>
<text text-anchor="start" x="15" y="-224" font-family="Helvetica,sans-Serif" font-size="10.00">m_own_key_pair</text>
<text text-anchor="start" x="5.5" y="-209" font-family="Helvetica,sans-Serif" font-size="10.00">&#45;</text>
<text text-anchor="start" x="15" y="-209" font-family="Helvetica,sans-Serif" font-size="10.00">m_own_certificate</text>
<text text-anchor="start" x="4" y="-194" font-family="Helvetica,sans-Serif" font-size="10.00">+</text>
<text text-anchor="start" x="15" y="-194" font-family="Helvetica,sans-Serif" font-size="10.00">NaiveCertificateProvider()</text>
<text text-anchor="start" x="4" y="-179" font-family="Helvetica,sans-Serif" font-size="10.00">+</text>
<text text-anchor="start" x="15" y="-179" font-family="Helvetica,sans-Serif" font-size="10.00">own_certificate()</text>
<text text-anchor="start" x="4" y="-164" font-family="Helvetica,sans-Serif" font-size="10.00">+</text>
<text text-anchor="start" x="15" y="-164" font-family="Helvetica,sans-Serif" font-size="10.00">own_chain()</text>
<text text-anchor="start" x="4" y="-149" font-family="Helvetica,sans-Serif" font-size="10.00">+</text>
<text text-anchor="start" x="15" y="-149" font-family="Helvetica,sans-Serif" font-size="10.00">own_private_key()</text>
<text text-anchor="start" x="4" y="-134" font-family="Helvetica,sans-Serif" font-size="10.00">+</text>
<text text-anchor="start" x="15" y="-134" font-family="Helvetica,sans-Serif" font-size="10.00">aa_certificate()</text>
<text text-anchor="start" x="4" y="-119" font-family="Helvetica,sans-Serif" font-size="10.00">+</text>
<text text-anchor="start" x="15" y="-119" font-family="Helvetica,sans-Serif" font-size="10.00">root_certificate()</text>
<text text-anchor="start" x="4" y="-104" font-family="Helvetica,sans-Serif" font-size="10.00">+</text>
<text text-anchor="start" x="15" y="-104" font-family="Helvetica,sans-Serif" font-size="10.00">generate_authorization</text>
<text text-anchor="start" x="15" y="-93" font-family="Helvetica,sans-Serif" font-size="10.00">_ticket()</text>
<text text-anchor="start" x="4" y="-78" font-family="Helvetica,sans-Serif" font-size="10.00">+</text>
<text text-anchor="start" x="15" y="-78" font-family="Helvetica,sans-Serif" font-size="10.00">sign_authorization</text>
<text text-anchor="start" x="15" y="-67" font-family="Helvetica,sans-Serif" font-size="10.00">_ticket()</text>
<text text-anchor="start" x="5.5" y="-52" font-family="Helvetica,sans-Serif" font-size="10.00">&#45;</text>
<text text-anchor="start" x="15" y="-52" font-family="Helvetica,sans-Serif" font-size="10.00">aa_key_pair()</text>
<text text-anchor="start" x="5.5" y="-37" font-family="Helvetica,sans-Serif" font-size="10.00">&#45;</text>
<text text-anchor="start" x="15" y="-37" font-family="Helvetica,sans-Serif" font-size="10.00">root_key_pair()</text>
<text text-anchor="start" x="5.5" y="-22" font-family="Helvetica,sans-Serif" font-size="10.00">&#45;</text>
<text text-anchor="start" x="15" y="-22" font-family="Helvetica,sans-Serif" font-size="10.00">generate_aa_certificate()</text>
<text text-anchor="start" x="5.5" y="-7" font-family="Helvetica,sans-Serif" font-size="10.00">&#45;</text>
<text text-anchor="start" x="15" y="-7" font-family="Helvetica,sans-Serif" font-size="10.00">generate_root_certificate()</text>
<polygon fill="#666666" stroke="#666666" points="0,-264 0,-264 134,-264 134,-264 0,-264"/>
<polygon fill="#666666" stroke="#666666" points="0,-204 0,-204 13,-204 13,-204 0,-204"/>
<polygon fill="#666666" stroke="#666666" points="13,-204 13,-204 134,-204 134,-204 13,-204"/>
<polygon fill="none" stroke="#666666" points="0,0 0,-292 134,-292 134,0 0,0"/>
</a>
</g>
</g>
<!-- Node2 -->
<g id="Node000002" class="node">
<title>Node2</title>
<g id="a_Node000002"><a xlink:href="../../dd/d76/classvanetza_1_1security_1_1v2_1_1CertificateProvider.html" target="_top" xlink:title=" ">
<polygon fill="white" stroke="transparent" points="123.5,-433 10.5,-433 10.5,-328 123.5,-328 123.5,-433"/>
<text text-anchor="start" x="18" y="-420.5" font-family="Helvetica,sans-Serif" font-size="10.00">vanetza::security::</text>
<text text-anchor="start" x="18" y="-409.5" font-family="Helvetica,sans-Serif" font-size="10.00">v2::CertificateProvider</text>
<text text-anchor="start" x="65.5" y="-394.5" font-family="Helvetica,sans-Serif" font-size="10.00"> </text>
<text text-anchor="start" x="15" y="-379.5" font-family="Helvetica,sans-Serif" font-size="10.00">+</text>
<text text-anchor="start" x="26" y="-379.5" font-family="Helvetica,sans-Serif" font-size="10.00">own_certificate()</text>
<text text-anchor="start" x="15" y="-364.5" font-family="Helvetica,sans-Serif" font-size="10.00">+</text>
<text text-anchor="start" x="26" y="-364.5" font-family="Helvetica,sans-Serif" font-size="10.00">own_chain()</text>
<text text-anchor="start" x="15" y="-349.5" font-family="Helvetica,sans-Serif" font-size="10.00">+</text>
<text text-anchor="start" x="26" y="-349.5" font-family="Helvetica,sans-Serif" font-size="10.00">own_private_key()</text>
<text text-anchor="start" x="15" y="-334.5" font-family="Helvetica,sans-Serif" font-size="10.00">+</text>
<text text-anchor="start" x="26" y="-334.5" font-family="Helvetica,sans-Serif" font-size="10.00">~CertificateProvider()</text>
<polygon fill="#bfbfbf" stroke="#bfbfbf" points="11,-404.5 11,-404.5 124,-404.5 124,-404.5 11,-404.5"/>
<polygon fill="#bfbfbf" stroke="#bfbfbf" points="11,-389.5 11,-389.5 124,-389.5 124,-389.5 11,-389.5"/>
<polygon fill="none" stroke="#bfbfbf" points="10.5,-328 10.5,-433 123.5,-433 123.5,-328 10.5,-328"/>
</a>
</g>
</g>
<!-- Node2&#45;&gt;Node1 -->
<g id="edge1_Node000001_Node000002" class="edge">
<title>Node2&#45;&gt;Node1</title>
<g id="a_edge1_Node000001_Node000002"><a xlink:title=" ">
<path fill="none" stroke="#63b8ff" d="M67,-317.85C67,-309.71 67,-301.1 67,-292.25"/>
<polygon fill="none" stroke="#63b8ff" points="63.5,-317.9 67,-327.9 70.5,-317.9 63.5,-317.9"/>
</a>
</g>
</g>
</g>
</svg>
