<?xml version="1.0" encoding="UTF-8" standalone="no"?>
<!DOCTYPE svg PUBLIC "-//W3C//DTD SVG 1.1//EN"
 "http://www.w3.org/Graphics/SVG/1.1/DTD/svg11.dtd">
<!-- Generated by graphviz version 14.1.2 (0)
 -->
<!-- Title: vanetza::geonet::CbfCounterImmortal Pages: 1 -->
<svg width="156pt" height="402pt"
 viewBox="0.00 0.00 156.00 402.00" xmlns="http://www.w3.org/2000/svg" xmlns:xlink="http://www.w3.org/1999/xlink">
<g id="graph0" class="graph" transform="scale(1 1) rotate(0) translate(4 398.25)">
<title>vanetza::geonet::CbfCounterImmortal</title>
<!-- Node1 -->
<g id="Node000001" class="node">
<title>Node1</title>
<g id="a_Node000001"><a xlink:title=" ">
<polygon fill="#999999" stroke="none" points="147.5,-237 0,-237 0,-119.75 147.5,-119.75 147.5,-237"/>
<text xml:space="preserve" text-anchor="start" x="4" y="-223.5" font-family="Helvetica,sans-Serif" font-size="10.00">vanetza::geonet::CbfCounter</text>
<text xml:space="preserve" text-anchor="start" x="51.25" y="-210.75" font-family="Helvetica,sans-Serif" font-size="10.00">Immortal</text>
<text xml:space="preserve" text-anchor="start" x="21.56" y="-194" font-family="Helvetica,sans-Serif" font-size="10.00">#</text>
<text xml:space="preserve" text-anchor="start" x="51.38" y="-194" font-family="Helvetica,sans-Serif" font-size="10.00">m_counters</text>
<text xml:space="preserve" text-anchor="start" x="21.56" y="-177.25" font-family="Helvetica,sans-Serif" font-size="10.00">+</text>
<text xml:space="preserve" text-anchor="start" x="51.38" y="-177.25" font-family="Helvetica,sans-Serif" font-size="10.00">add()</text>
<text xml:space="preserve" text-anchor="start" x="21.56" y="-160.5" font-family="Helvetica,sans-Serif" font-size="10.00">+</text>
<text xml:space="preserve" text-anchor="start" x="51.38" y="-160.5" font-family="Helvetica,sans-Serif" font-size="10.00">remove()</text>
<text xml:space="preserve" text-anchor="start" x="21.56" y="-143.75" font-family="Helvetica,sans-Serif" font-size="10.00">+</text>
<text xml:space="preserve" text-anchor="start" x="51.38" y="-143.75" font-family="Helvetica,sans-Serif" font-size="10.00">increment()</text>
<text xml:space="preserve" text-anchor="start" x="21.56" y="-127" font-family="Helvetica,sans-Serif" font-size="10.00">+</text>
<text xml:space="preserve" text-anchor="start" x="51.38" y="-127" font-family="Helvetica,sans-Serif" font-size="10.00">counter()</text>
<polygon fill="#666666" stroke="#666666" points="0,-205.5 0,-205.5 147.5,-205.5 147.5,-205.5 0,-205.5"/>
<polygon fill="#666666" stroke="#666666" points="0,-188.75 0,-188.75 49.38,-188.75 49.38,-188.75 0,-188.75"/>
<polygon fill="#666666" stroke="#666666" points="49.38,-188.75 49.38,-188.75 147.5,-188.75 147.5,-188.75 49.38,-188.75"/>
<polygon fill="none" stroke="#666666" points="0,-119.75 0,-237 147.5,-237 147.5,-119.75 0,-119.75"/>
</a>
</g>
</g>
<!-- Node3 -->
<g id="Node000003" class="node">
<title>Node3</title>
<g id="a_Node000003"><a xlink:href="../../da/d5f/classvanetza_1_1geonet_1_1CbfCounterContending.html" target="_top" xlink:title=" ">
<polygon fill="white" stroke="none" points="147.5,-83.75 0,-83.75 0,0 147.5,0 147.5,-83.75"/>
<text xml:space="preserve" text-anchor="start" x="4" y="-70.25" font-family="Helvetica,sans-Serif" font-size="10.00">vanetza::geonet::CbfCounter</text>
<text xml:space="preserve" text-anchor="start" x="46" y="-57.5" font-family="Helvetica,sans-Serif" font-size="10.00">Contending</text>
<text xml:space="preserve" text-anchor="start" x="72.25" y="-40.75" font-family="Helvetica,sans-Serif" font-size="10.00"> </text>
<text xml:space="preserve" text-anchor="start" x="24.56" y="-24" font-family="Helvetica,sans-Serif" font-size="10.00">+</text>
<text xml:space="preserve" text-anchor="start" x="57.38" y="-24" font-family="Helvetica,sans-Serif" font-size="10.00">add()</text>
<text xml:space="preserve" text-anchor="start" x="24.56" y="-7.25" font-family="Helvetica,sans-Serif" font-size="10.00">+</text>
<text xml:space="preserve" text-anchor="start" x="57.38" y="-7.25" font-family="Helvetica,sans-Serif" font-size="10.00">remove()</text>
<polygon fill="#666666" stroke="#666666" points="0,-52.25 0,-52.25 147.5,-52.25 147.5,-52.25 0,-52.25"/>
<polygon fill="#666666" stroke="#666666" points="0,-35.5 0,-35.5 147.5,-35.5 147.5,-35.5 0,-35.5"/>
<polygon fill="none" stroke="#666666" points="0,0 0,-83.75 147.5,-83.75 147.5,0 0,0"/>
</a>
</g>
</g>
<!-- Node1&#45;&gt;Node3 -->
<g id="edge2_Node000001_Node000003" class="edge">
<title>Node1&#45;&gt;Node3</title>
<g id="a_edge2_Node000001_Node000003"><a xlink:title=" ">
<path fill="none" stroke="#8b1a1a" d="M73.75,-108.64C73.75,-100.02 73.75,-91.44 73.75,-83.45"/>
<polygon fill="none" stroke="#8b1a1a" points="70.25,-108.43 73.75,-118.43 77.25,-108.43 70.25,-108.43"/>
</a>
</g>
</g>
<!-- Node2 -->
<g id="Node000002" class="node">
<title>Node2</title>
<g id="a_Node000002"><a xlink:href="../../db/d2d/classvanetza_1_1geonet_1_1CbfCounter.html" target="_top" xlink:title=" ">
<polygon fill="white" stroke="none" points="147.5,-394.25 0,-394.25 0,-273 147.5,-273 147.5,-394.25"/>
<text xml:space="preserve" text-anchor="start" x="4" y="-380.75" font-family="Helvetica,sans-Serif" font-size="10.00">vanetza::geonet::CbfCounter</text>
<text xml:space="preserve" text-anchor="start" x="72.25" y="-364" font-family="Helvetica,sans-Serif" font-size="10.00"> </text>
<text xml:space="preserve" text-anchor="start" x="18.19" y="-347.25" font-family="Helvetica,sans-Serif" font-size="10.00">+</text>
<text xml:space="preserve" text-anchor="start" x="44.62" y="-347.25" font-family="Helvetica,sans-Serif" font-size="10.00">add()</text>
<text xml:space="preserve" text-anchor="start" x="18.19" y="-330.5" font-family="Helvetica,sans-Serif" font-size="10.00">+</text>
<text xml:space="preserve" text-anchor="start" x="44.62" y="-330.5" font-family="Helvetica,sans-Serif" font-size="10.00">remove()</text>
<text xml:space="preserve" text-anchor="start" x="18.19" y="-313.75" font-family="Helvetica,sans-Serif" font-size="10.00">+</text>
<text xml:space="preserve" text-anchor="start" x="44.62" y="-313.75" font-family="Helvetica,sans-Serif" font-size="10.00">increment()</text>
<text xml:space="preserve" text-anchor="start" x="18.19" y="-297" font-family="Helvetica,sans-Serif" font-size="10.00">+</text>
<text xml:space="preserve" text-anchor="start" x="44.62" y="-297" font-family="Helvetica,sans-Serif" font-size="10.00">counter()</text>
<text xml:space="preserve" text-anchor="start" x="18.19" y="-280.25" font-family="Helvetica,sans-Serif" font-size="10.00">+</text>
<text xml:space="preserve" text-anchor="start" x="44.62" y="-280.25" font-family="Helvetica,sans-Serif" font-size="10.00">~CbfCounter()</text>
<polygon fill="#666666" stroke="#666666" points="0,-375.5 0,-375.5 147.5,-375.5 147.5,-375.5 0,-375.5"/>
<polygon fill="#666666" stroke="#666666" points="0,-358.75 0,-358.75 147.5,-358.75 147.5,-358.75 0,-358.75"/>
<polygon fill="none" stroke="#666666" points="0,-273 0,-394.25 147.5,-394.25 147.5,-273 0,-273"/>
</a>
</g>
</g>
<!-- Node2&#45;&gt;Node1 -->
<g id="edge1_Node000001_Node000002" class="edge">
<title>Node2&#45;&gt;Node1</title>
<g id="a_edge1_Node000001_Node000002"><a xlink:title=" ">
<path fill="none" stroke="#63b8ff" d="M73.75,-262.03C73.75,-253.63 73.75,-245.14 73.75,-236.96"/>
<polygon fill="none" stroke="#63b8ff" points="70.25,-261.86 73.75,-271.86 77.25,-261.86 70.25,-261.86"/>
</a>
</g>
</g>
</g>
</svg>
