<?xml version="1.0" encoding="UTF-8" standalone="no"?>
<!DOCTYPE svg PUBLIC "-//W3C//DTD SVG 1.1//EN"
 "http://www.w3.org/Graphics/SVG/1.1/DTD/svg11.dtd">
<!-- Generated by graphviz version 14.1.2 (0)
 -->
<!-- Title: vanetza::security::v3::DefaultLocationChecker Pages: 1 -->
<svg width="150pt" height="195pt"
 viewBox="0.00 0.00 150.00 195.00" xmlns="http://www.w3.org/2000/svg" xmlns:xlink="http://www.w3.org/1999/xlink">
<g id="graph0" class="graph" transform="scale(1 1) rotate(0) translate(4 190.75)">
<title>vanetza::security::v3::DefaultLocationChecker</title>
<!-- Node1 -->
<g id="Node000001" class="node">
<title>Node1</title>
<g id="a_Node000001"><a xlink:title=" ">
<polygon fill="#999999" stroke="none" points="142.25,-67 0,-67 0,0 142.25,0 142.25,-67"/>
<text xml:space="preserve" text-anchor="start" x="4" y="-53.5" font-family="Helvetica,sans-Serif" font-size="10.00">vanetza::security::</text>
<text xml:space="preserve" text-anchor="start" x="4" y="-40.75" font-family="Helvetica,sans-Serif" font-size="10.00">v3::DefaultLocationChecker</text>
<text xml:space="preserve" text-anchor="start" x="69.62" y="-24" font-family="Helvetica,sans-Serif" font-size="10.00"> </text>
<text xml:space="preserve" text-anchor="start" x="11.81" y="-7.25" font-family="Helvetica,sans-Serif" font-size="10.00">+</text>
<text xml:space="preserve" text-anchor="start" x="31.88" y="-7.25" font-family="Helvetica,sans-Serif" font-size="10.00">valid_at_location()</text>
<polygon fill="#666666" stroke="#666666" points="0,-35.5 0,-35.5 142.25,-35.5 142.25,-35.5 0,-35.5"/>
<polygon fill="#666666" stroke="#666666" points="0,-18.75 0,-18.75 142.25,-18.75 142.25,-18.75 0,-18.75"/>
<polygon fill="none" stroke="#666666" points="0,0 0,-67 142.25,-67 142.25,0 0,0"/>
</a>
</g>
</g>
<!-- Node2 -->
<g id="Node000002" class="node">
<title>Node2</title>
<g id="a_Node000002"><a xlink:href="../../d2/dce/classvanetza_1_1security_1_1v3_1_1LocationChecker.html" target="_top" xlink:title=" ">
<polygon fill="white" stroke="none" points="129.25,-186.75 13,-186.75 13,-103 129.25,-103 129.25,-186.75"/>
<text xml:space="preserve" text-anchor="start" x="22" y="-173.25" font-family="Helvetica,sans-Serif" font-size="10.00">vanetza::security::</text>
<text xml:space="preserve" text-anchor="start" x="22" y="-160.5" font-family="Helvetica,sans-Serif" font-size="10.00">v3::LocationChecker</text>
<text xml:space="preserve" text-anchor="start" x="69.62" y="-143.75" font-family="Helvetica,sans-Serif" font-size="10.00"> </text>
<text xml:space="preserve" text-anchor="start" x="17" y="-127" font-family="Helvetica,sans-Serif" font-size="10.00">+</text>
<text xml:space="preserve" text-anchor="start" x="29.25" y="-127" font-family="Helvetica,sans-Serif" font-size="10.00">valid_at_location()</text>
<text xml:space="preserve" text-anchor="start" x="17" y="-110.25" font-family="Helvetica,sans-Serif" font-size="10.00">+</text>
<text xml:space="preserve" text-anchor="start" x="29.25" y="-110.25" font-family="Helvetica,sans-Serif" font-size="10.00">~LocationChecker()</text>
<polygon fill="#666666" stroke="#666666" points="13,-155.25 13,-155.25 129.25,-155.25 129.25,-155.25 13,-155.25"/>
<polygon fill="#666666" stroke="#666666" points="13,-138.5 13,-138.5 129.25,-138.5 129.25,-138.5 13,-138.5"/>
<polygon fill="none" stroke="#666666" points="13,-103 13,-186.75 129.25,-186.75 129.25,-103 13,-103"/>
</a>
</g>
</g>
<!-- Node2&#45;&gt;Node1 -->
<g id="edge1_Node000001_Node000002" class="edge">
<title>Node2&#45;&gt;Node1</title>
<g id="a_edge1_Node000001_Node000002"><a xlink:title=" ">
<path fill="none" stroke="#63b8ff" d="M71.12,-91.67C71.12,-83.16 71.12,-74.57 71.12,-66.72"/>
<polygon fill="none" stroke="#63b8ff" points="67.63,-91.63 71.13,-101.63 74.63,-91.63 67.63,-91.63"/>
</a>
</g>
</g>
</g>
</svg>
