<?xml version="1.0" encoding="UTF-8" standalone="no"?>
<!DOCTYPE svg PUBLIC "-//W3C//DTD SVG 1.1//EN"
 "http://www.w3.org/Graphics/SVG/1.1/DTD/svg11.dtd">
<!-- Generated by graphviz version 14.1.2 (0)
 -->
<!-- Title: vanetza::geonet::IndicationContext Pages: 1 -->
<svg width="663pt" height="650pt"
 viewBox="0.00 0.00 663.00 650.00" xmlns="http://www.w3.org/2000/svg" xmlns:xlink="http://www.w3.org/1999/xlink">
<g id="graph0" class="graph" transform="scale(1 1) rotate(0) translate(4 645.5)">
<title>vanetza::geonet::IndicationContext</title>
<!-- Node1 -->
<g id="Node000001" class="node">
<title>Node1</title>
<g id="a_Node000001"><a xlink:title=" ">
<polygon fill="#999999" stroke="none" points="400.75,-641.5 260,-641.5 260,-423.75 400.75,-423.75 400.75,-641.5"/>
<text xml:space="preserve" text-anchor="start" x="264" y="-628" font-family="Helvetica,sans-Serif" font-size="10.00">vanetza::geonet::Indication</text>
<text xml:space="preserve" text-anchor="start" x="311.25" y="-615.25" font-family="Helvetica,sans-Serif" font-size="10.00">Context</text>
<text xml:space="preserve" text-anchor="start" x="328.88" y="-598.5" font-family="Helvetica,sans-Serif" font-size="10.00"> </text>
<text xml:space="preserve" text-anchor="start" x="268.62" y="-581.75" font-family="Helvetica,sans-Serif" font-size="10.00">+</text>
<text xml:space="preserve" text-anchor="start" x="285.5" y="-581.75" font-family="Helvetica,sans-Serif" font-size="10.00">parse_basic()</text>
<text xml:space="preserve" text-anchor="start" x="268.62" y="-565" font-family="Helvetica,sans-Serif" font-size="10.00">+</text>
<text xml:space="preserve" text-anchor="start" x="285.5" y="-565" font-family="Helvetica,sans-Serif" font-size="10.00">parse_common()</text>
<text xml:space="preserve" text-anchor="start" x="268.62" y="-548.25" font-family="Helvetica,sans-Serif" font-size="10.00">+</text>
<text xml:space="preserve" text-anchor="start" x="285.5" y="-548.25" font-family="Helvetica,sans-Serif" font-size="10.00">parse_secured()</text>
<text xml:space="preserve" text-anchor="start" x="268.62" y="-531.5" font-family="Helvetica,sans-Serif" font-size="10.00">+</text>
<text xml:space="preserve" text-anchor="start" x="285.5" y="-531.5" font-family="Helvetica,sans-Serif" font-size="10.00">parse_extended()</text>
<text xml:space="preserve" text-anchor="start" x="268.62" y="-514.75" font-family="Helvetica,sans-Serif" font-size="10.00">+</text>
<text xml:space="preserve" text-anchor="start" x="285.5" y="-514.75" font-family="Helvetica,sans-Serif" font-size="10.00">pdu()</text>
<text xml:space="preserve" text-anchor="start" x="268.62" y="-498" font-family="Helvetica,sans-Serif" font-size="10.00">+</text>
<text xml:space="preserve" text-anchor="start" x="285.5" y="-498" font-family="Helvetica,sans-Serif" font-size="10.00">pdu()</text>
<text xml:space="preserve" text-anchor="start" x="268.62" y="-481.25" font-family="Helvetica,sans-Serif" font-size="10.00">+</text>
<text xml:space="preserve" text-anchor="start" x="285.5" y="-481.25" font-family="Helvetica,sans-Serif" font-size="10.00">link_layer()</text>
<text xml:space="preserve" text-anchor="start" x="268.62" y="-464.5" font-family="Helvetica,sans-Serif" font-size="10.00">+</text>
<text xml:space="preserve" text-anchor="start" x="285.5" y="-464.5" font-family="Helvetica,sans-Serif" font-size="10.00">service_primitive()</text>
<text xml:space="preserve" text-anchor="start" x="268.62" y="-447.75" font-family="Helvetica,sans-Serif" font-size="10.00">+</text>
<text xml:space="preserve" text-anchor="start" x="285.5" y="-447.75" font-family="Helvetica,sans-Serif" font-size="10.00">finish()</text>
<text xml:space="preserve" text-anchor="start" x="268.62" y="-431" font-family="Helvetica,sans-Serif" font-size="10.00">+</text>
<text xml:space="preserve" text-anchor="start" x="285.5" y="-431" font-family="Helvetica,sans-Serif" font-size="10.00">~IndicationContext()</text>
<polygon fill="#666666" stroke="#666666" points="260,-610 260,-610 400.75,-610 400.75,-610 260,-610"/>
<polygon fill="#666666" stroke="#666666" points="260,-593.25 260,-593.25 400.75,-593.25 400.75,-593.25 260,-593.25"/>
<polygon fill="none" stroke="#666666" points="260,-423.75 260,-641.5 400.75,-641.5 400.75,-423.75 260,-423.75"/>
</a>
</g>
</g>
<!-- Node2 -->
<g id="Node000002" class="node">
<title>Node2</title>
<g id="a_Node000002"><a xlink:href="../../d6/d4a/classvanetza_1_1geonet_1_1IndicationContextBasic.html" target="_top" xlink:title=" ">
<polygon fill="white" stroke="none" points="313.75,-387.75 173,-387.75 173,-220.25 313.75,-220.25 313.75,-387.75"/>
<text xml:space="preserve" text-anchor="start" x="177" y="-374.25" font-family="Helvetica,sans-Serif" font-size="10.00">vanetza::geonet::Indication</text>
<text xml:space="preserve" text-anchor="start" x="211.12" y="-361.5" font-family="Helvetica,sans-Serif" font-size="10.00">ContextBasic</text>
<text xml:space="preserve" text-anchor="start" x="177.12" y="-344.75" font-family="Helvetica,sans-Serif" font-size="10.00">#</text>
<text xml:space="preserve" text-anchor="start" x="189.5" y="-344.75" font-family="Helvetica,sans-Serif" font-size="10.00">m_link_layer</text>
<text xml:space="preserve" text-anchor="start" x="177.12" y="-328" font-family="Helvetica,sans-Serif" font-size="10.00">#</text>
<text xml:space="preserve" text-anchor="start" x="189.5" y="-328" font-family="Helvetica,sans-Serif" font-size="10.00">m_service_primitive</text>
<text xml:space="preserve" text-anchor="start" x="177.12" y="-311.25" font-family="Helvetica,sans-Serif" font-size="10.00">#</text>
<text xml:space="preserve" text-anchor="start" x="189.5" y="-311.25" font-family="Helvetica,sans-Serif" font-size="10.00">m_pdu</text>
<text xml:space="preserve" text-anchor="start" x="177.12" y="-294.5" font-family="Helvetica,sans-Serif" font-size="10.00">+</text>
<text xml:space="preserve" text-anchor="start" x="189.5" y="-294.5" font-family="Helvetica,sans-Serif" font-size="10.00">IndicationContextBasic()</text>
<text xml:space="preserve" text-anchor="start" x="177.12" y="-277.75" font-family="Helvetica,sans-Serif" font-size="10.00">+</text>
<text xml:space="preserve" text-anchor="start" x="189.5" y="-277.75" font-family="Helvetica,sans-Serif" font-size="10.00">link_layer()</text>
<text xml:space="preserve" text-anchor="start" x="177.12" y="-261" font-family="Helvetica,sans-Serif" font-size="10.00">+</text>
<text xml:space="preserve" text-anchor="start" x="189.5" y="-261" font-family="Helvetica,sans-Serif" font-size="10.00">service_primitive()</text>
<text xml:space="preserve" text-anchor="start" x="177.12" y="-244.25" font-family="Helvetica,sans-Serif" font-size="10.00">+</text>
<text xml:space="preserve" text-anchor="start" x="189.5" y="-244.25" font-family="Helvetica,sans-Serif" font-size="10.00">pdu()</text>
<text xml:space="preserve" text-anchor="start" x="177.12" y="-227.5" font-family="Helvetica,sans-Serif" font-size="10.00">+</text>
<text xml:space="preserve" text-anchor="start" x="189.5" y="-227.5" font-family="Helvetica,sans-Serif" font-size="10.00">pdu()</text>
<polygon fill="#666666" stroke="#666666" points="173,-356.25 173,-356.25 313.75,-356.25 313.75,-356.25 173,-356.25"/>
<polygon fill="#666666" stroke="#666666" points="173,-306 173,-306 187.5,-306 187.5,-306 173,-306"/>
<polygon fill="#666666" stroke="#666666" points="187.5,-306 187.5,-306 313.75,-306 313.75,-306 187.5,-306"/>
<polygon fill="none" stroke="#666666" points="173,-220.25 173,-387.75 313.75,-387.75 313.75,-220.25 173,-220.25"/>
</a>
</g>
</g>
<!-- Node1&#45;&gt;Node2 -->
<g id="edge1_Node000001_Node000002" class="edge">
<title>Node1&#45;&gt;Node2</title>
<g id="a_edge1_Node000001_Node000002"><a xlink:title=" ">
<path fill="none" stroke="#63b8ff" d="M284.97,-413.35C281.63,-404.66 278.31,-396.01 275.09,-387.6"/>
<polygon fill="none" stroke="#63b8ff" points="281.65,-414.46 288.5,-422.54 288.18,-411.95 281.65,-414.46"/>
</a>
</g>
</g>
<!-- Node5 -->
<g id="Node000005" class="node">
<title>Node5</title>
<g id="a_Node000005"><a xlink:href="../../db/d97/classvanetza_1_1geonet_1_1IndicationContextSecured.html" target="_top" xlink:title=" ">
<polygon fill="white" stroke="none" points="494.88,-387.75 341.88,-387.75 341.88,-220.25 494.88,-220.25 494.88,-387.75"/>
<text xml:space="preserve" text-anchor="start" x="352" y="-374.25" font-family="Helvetica,sans-Serif" font-size="10.00">vanetza::geonet::Indication</text>
<text xml:space="preserve" text-anchor="start" x="379.75" y="-361.5" font-family="Helvetica,sans-Serif" font-size="10.00">ContextSecured</text>
<text xml:space="preserve" text-anchor="start" x="345.88" y="-344.75" font-family="Helvetica,sans-Serif" font-size="10.00">#</text>
<text xml:space="preserve" text-anchor="start" x="358.12" y="-344.75" font-family="Helvetica,sans-Serif" font-size="10.00">m_parent</text>
<text xml:space="preserve" text-anchor="start" x="345.88" y="-328" font-family="Helvetica,sans-Serif" font-size="10.00">+</text>
<text xml:space="preserve" text-anchor="start" x="358.12" y="-328" font-family="Helvetica,sans-Serif" font-size="10.00">IndicationContextSecured()</text>
<text xml:space="preserve" text-anchor="start" x="345.88" y="-311.25" font-family="Helvetica,sans-Serif" font-size="10.00">+</text>
<text xml:space="preserve" text-anchor="start" x="358.12" y="-311.25" font-family="Helvetica,sans-Serif" font-size="10.00">link_layer()</text>
<text xml:space="preserve" text-anchor="start" x="345.88" y="-294.5" font-family="Helvetica,sans-Serif" font-size="10.00">+</text>
<text xml:space="preserve" text-anchor="start" x="358.12" y="-294.5" font-family="Helvetica,sans-Serif" font-size="10.00">service_primitive()</text>
<text xml:space="preserve" text-anchor="start" x="345.88" y="-277.75" font-family="Helvetica,sans-Serif" font-size="10.00">+</text>
<text xml:space="preserve" text-anchor="start" x="358.12" y="-277.75" font-family="Helvetica,sans-Serif" font-size="10.00">pdu()</text>
<text xml:space="preserve" text-anchor="start" x="345.88" y="-261" font-family="Helvetica,sans-Serif" font-size="10.00">+</text>
<text xml:space="preserve" text-anchor="start" x="358.12" y="-261" font-family="Helvetica,sans-Serif" font-size="10.00">pdu()</text>
<text xml:space="preserve" text-anchor="start" x="345.88" y="-244.25" font-family="Helvetica,sans-Serif" font-size="10.00">+</text>
<text xml:space="preserve" text-anchor="start" x="358.12" y="-244.25" font-family="Helvetica,sans-Serif" font-size="10.00">parse_basic()</text>
<text xml:space="preserve" text-anchor="start" x="345.88" y="-227.5" font-family="Helvetica,sans-Serif" font-size="10.00">+</text>
<text xml:space="preserve" text-anchor="start" x="358.12" y="-227.5" font-family="Helvetica,sans-Serif" font-size="10.00">parse_secured()</text>
<polygon fill="#666666" stroke="#666666" points="341.88,-356.25 341.88,-356.25 494.88,-356.25 494.88,-356.25 341.88,-356.25"/>
<polygon fill="#666666" stroke="#666666" points="341.88,-339.5 341.88,-339.5 356.12,-339.5 356.12,-339.5 341.88,-339.5"/>
<polygon fill="#666666" stroke="#666666" points="356.12,-339.5 356.12,-339.5 494.88,-339.5 494.88,-339.5 356.12,-339.5"/>
<polygon fill="none" stroke="#666666" points="341.88,-220.25 341.88,-387.75 494.88,-387.75 494.88,-220.25 341.88,-220.25"/>
</a>
</g>
</g>
<!-- Node1&#45;&gt;Node5 -->
<g id="edge4_Node000001_Node000005" class="edge">
<title>Node1&#45;&gt;Node5</title>
<g id="a_edge4_Node000001_Node000005"><a xlink:title=" ">
<path fill="none" stroke="#63b8ff" d="M376.3,-413.35C379.68,-404.66 383.04,-396.01 386.3,-387.6"/>
<polygon fill="none" stroke="#63b8ff" points="373.09,-411.95 372.73,-422.54 379.61,-414.49 373.09,-411.95"/>
</a>
</g>
</g>
<!-- Node3 -->
<g id="Node000003" class="node">
<title>Node3</title>
<g id="a_Node000003"><a xlink:href="../../dc/dad/classvanetza_1_1geonet_1_1IndicationContextCast.html" target="_top" xlink:title=" ">
<polygon fill="white" stroke="none" points="140.75,-167.5 0,-167.5 0,-16.75 140.75,-16.75 140.75,-167.5"/>
<text xml:space="preserve" text-anchor="start" x="4" y="-154" font-family="Helvetica,sans-Serif" font-size="10.00">vanetza::geonet::Indication</text>
<text xml:space="preserve" text-anchor="start" x="40.38" y="-141.25" font-family="Helvetica,sans-Serif" font-size="10.00">ContextCast</text>
<text xml:space="preserve" text-anchor="start" x="7.5" y="-124.5" font-family="Helvetica,sans-Serif" font-size="10.00">&#45;</text>
<text xml:space="preserve" text-anchor="start" x="18.75" y="-124.5" font-family="Helvetica,sans-Serif" font-size="10.00">m_packet</text>
<text xml:space="preserve" text-anchor="start" x="5.25" y="-107.75" font-family="Helvetica,sans-Serif" font-size="10.00">+</text>
<text xml:space="preserve" text-anchor="start" x="18.75" y="-107.75" font-family="Helvetica,sans-Serif" font-size="10.00">IndicationContextCast()</text>
<text xml:space="preserve" text-anchor="start" x="5.25" y="-91" font-family="Helvetica,sans-Serif" font-size="10.00">+</text>
<text xml:space="preserve" text-anchor="start" x="18.75" y="-91" font-family="Helvetica,sans-Serif" font-size="10.00">parse_basic()</text>
<text xml:space="preserve" text-anchor="start" x="5.25" y="-74.25" font-family="Helvetica,sans-Serif" font-size="10.00">+</text>
<text xml:space="preserve" text-anchor="start" x="18.75" y="-74.25" font-family="Helvetica,sans-Serif" font-size="10.00">parse_common()</text>
<text xml:space="preserve" text-anchor="start" x="5.25" y="-57.5" font-family="Helvetica,sans-Serif" font-size="10.00">+</text>
<text xml:space="preserve" text-anchor="start" x="18.75" y="-57.5" font-family="Helvetica,sans-Serif" font-size="10.00">parse_secured()</text>
<text xml:space="preserve" text-anchor="start" x="5.25" y="-40.75" font-family="Helvetica,sans-Serif" font-size="10.00">+</text>
<text xml:space="preserve" text-anchor="start" x="18.75" y="-40.75" font-family="Helvetica,sans-Serif" font-size="10.00">parse_extended()</text>
<text xml:space="preserve" text-anchor="start" x="5.25" y="-24" font-family="Helvetica,sans-Serif" font-size="10.00">+</text>
<text xml:space="preserve" text-anchor="start" x="18.75" y="-24" font-family="Helvetica,sans-Serif" font-size="10.00">finish()</text>
<polygon fill="#bfbfbf" stroke="#bfbfbf" points="0,-136 0,-136 140.75,-136 140.75,-136 0,-136"/>
<polygon fill="#bfbfbf" stroke="#bfbfbf" points="0,-119.25 0,-119.25 16.75,-119.25 16.75,-119.25 0,-119.25"/>
<polygon fill="#bfbfbf" stroke="#bfbfbf" points="16.75,-119.25 16.75,-119.25 140.75,-119.25 140.75,-119.25 16.75,-119.25"/>
<polygon fill="none" stroke="#bfbfbf" points="0,-16.75 0,-167.5 140.75,-167.5 140.75,-16.75 0,-16.75"/>
</a>
</g>
</g>
<!-- Node2&#45;&gt;Node3 -->
<g id="edge2_Node000002_Node000003" class="edge">
<title>Node2&#45;&gt;Node3</title>
<g id="a_edge2_Node000002_Node000003"><a xlink:title=" ">
<path fill="none" stroke="#63b8ff" d="M168.08,-211.65C155.83,-196.79 143.27,-181.56 131.41,-167.17"/>
<polygon fill="none" stroke="#63b8ff" points="165.23,-213.7 174.29,-219.19 170.63,-209.24 165.23,-213.7"/>
</a>
</g>
</g>
<!-- Node4 -->
<g id="Node000004" class="node">
<title>Node4</title>
<g id="a_Node000004"><a xlink:href="../../dd/d8e/classvanetza_1_1geonet_1_1IndicationContextDeserialize.html" target="_top" xlink:title=" ">
<polygon fill="white" stroke="none" points="327.75,-184.25 159,-184.25 159,0 327.75,0 327.75,-184.25"/>
<text xml:space="preserve" text-anchor="start" x="177" y="-170.75" font-family="Helvetica,sans-Serif" font-size="10.00">vanetza::geonet::Indication</text>
<text xml:space="preserve" text-anchor="start" x="196.88" y="-158" font-family="Helvetica,sans-Serif" font-size="10.00">ContextDeserialize</text>
<text xml:space="preserve" text-anchor="start" x="165.25" y="-141.25" font-family="Helvetica,sans-Serif" font-size="10.00">&#45;</text>
<text xml:space="preserve" text-anchor="start" x="175.25" y="-141.25" font-family="Helvetica,sans-Serif" font-size="10.00">m_packet</text>
<text xml:space="preserve" text-anchor="start" x="165.25" y="-124.5" font-family="Helvetica,sans-Serif" font-size="10.00">&#45;</text>
<text xml:space="preserve" text-anchor="start" x="175.25" y="-124.5" font-family="Helvetica,sans-Serif" font-size="10.00">m_cohesive_packet</text>
<text xml:space="preserve" text-anchor="start" x="165.25" y="-107.75" font-family="Helvetica,sans-Serif" font-size="10.00">&#45;</text>
<text xml:space="preserve" text-anchor="start" x="175.25" y="-107.75" font-family="Helvetica,sans-Serif" font-size="10.00">m_parser</text>
<text xml:space="preserve" text-anchor="start" x="163" y="-91" font-family="Helvetica,sans-Serif" font-size="10.00">+</text>
<text xml:space="preserve" text-anchor="start" x="175.25" y="-91" font-family="Helvetica,sans-Serif" font-size="10.00">IndicationContextDeserialize()</text>
<text xml:space="preserve" text-anchor="start" x="163" y="-74.25" font-family="Helvetica,sans-Serif" font-size="10.00">+</text>
<text xml:space="preserve" text-anchor="start" x="175.25" y="-74.25" font-family="Helvetica,sans-Serif" font-size="10.00">parse_basic()</text>
<text xml:space="preserve" text-anchor="start" x="163" y="-57.5" font-family="Helvetica,sans-Serif" font-size="10.00">+</text>
<text xml:space="preserve" text-anchor="start" x="175.25" y="-57.5" font-family="Helvetica,sans-Serif" font-size="10.00">parse_common()</text>
<text xml:space="preserve" text-anchor="start" x="163" y="-40.75" font-family="Helvetica,sans-Serif" font-size="10.00">+</text>
<text xml:space="preserve" text-anchor="start" x="175.25" y="-40.75" font-family="Helvetica,sans-Serif" font-size="10.00">parse_secured()</text>
<text xml:space="preserve" text-anchor="start" x="163" y="-24" font-family="Helvetica,sans-Serif" font-size="10.00">+</text>
<text xml:space="preserve" text-anchor="start" x="175.25" y="-24" font-family="Helvetica,sans-Serif" font-size="10.00">parse_extended()</text>
<text xml:space="preserve" text-anchor="start" x="163" y="-7.25" font-family="Helvetica,sans-Serif" font-size="10.00">+</text>
<text xml:space="preserve" text-anchor="start" x="175.25" y="-7.25" font-family="Helvetica,sans-Serif" font-size="10.00">finish()</text>
<polygon fill="#bfbfbf" stroke="#bfbfbf" points="159,-152.75 159,-152.75 327.75,-152.75 327.75,-152.75 159,-152.75"/>
<polygon fill="#bfbfbf" stroke="#bfbfbf" points="159,-102.5 159,-102.5 173.25,-102.5 173.25,-102.5 159,-102.5"/>
<polygon fill="#bfbfbf" stroke="#bfbfbf" points="173.25,-102.5 173.25,-102.5 327.75,-102.5 327.75,-102.5 173.25,-102.5"/>
<polygon fill="none" stroke="#bfbfbf" points="159,0 159,-184.25 327.75,-184.25 327.75,0 159,0"/>
</a>
</g>
</g>
<!-- Node2&#45;&gt;Node4 -->
<g id="edge3_Node000002_Node000004" class="edge">
<title>Node2&#45;&gt;Node4</title>
<g id="a_edge3_Node000002_Node000004"><a xlink:title=" ">
<path fill="none" stroke="#63b8ff" d="M243.38,-209.07C243.38,-200.74 243.38,-192.32 243.38,-184.01"/>
<polygon fill="none" stroke="#63b8ff" points="239.88,-208.84 243.38,-218.84 246.88,-208.84 239.88,-208.84"/>
</a>
</g>
</g>
<!-- Node6 -->
<g id="Node000006" class="node">
<title>Node6</title>
<g id="a_Node000006"><a xlink:href="../../db/d0c/classvanetza_1_1geonet_1_1IndicationContextSecuredCast.html" target="_top" xlink:title=" ">
<polygon fill="white" stroke="none" points="491.12,-157.12 345.62,-157.12 345.62,-27.12 491.12,-27.12 491.12,-157.12"/>
<text xml:space="preserve" text-anchor="start" x="352" y="-143.62" font-family="Helvetica,sans-Serif" font-size="10.00">vanetza::geonet::Indication</text>
<text xml:space="preserve" text-anchor="start" x="368.88" y="-130.88" font-family="Helvetica,sans-Serif" font-size="10.00">ContextSecuredCast</text>
<text xml:space="preserve" text-anchor="start" x="351.88" y="-114.12" font-family="Helvetica,sans-Serif" font-size="10.00">&#45;</text>
<text xml:space="preserve" text-anchor="start" x="361.88" y="-114.12" font-family="Helvetica,sans-Serif" font-size="10.00">m_packet</text>
<text xml:space="preserve" text-anchor="start" x="349.62" y="-97.38" font-family="Helvetica,sans-Serif" font-size="10.00">+</text>
<text xml:space="preserve" text-anchor="start" x="361.88" y="-97.38" font-family="Helvetica,sans-Serif" font-size="10.00">IndicationContextSecured</text>
<text xml:space="preserve" text-anchor="start" x="361.88" y="-84.62" font-family="Helvetica,sans-Serif" font-size="10.00">Cast()</text>
<text xml:space="preserve" text-anchor="start" x="349.62" y="-67.88" font-family="Helvetica,sans-Serif" font-size="10.00">+</text>
<text xml:space="preserve" text-anchor="start" x="361.88" y="-67.88" font-family="Helvetica,sans-Serif" font-size="10.00">parse_common()</text>
<text xml:space="preserve" text-anchor="start" x="349.62" y="-51.12" font-family="Helvetica,sans-Serif" font-size="10.00">+</text>
<text xml:space="preserve" text-anchor="start" x="361.88" y="-51.12" font-family="Helvetica,sans-Serif" font-size="10.00">parse_extended()</text>
<text xml:space="preserve" text-anchor="start" x="349.62" y="-34.38" font-family="Helvetica,sans-Serif" font-size="10.00">+</text>
<text xml:space="preserve" text-anchor="start" x="361.88" y="-34.38" font-family="Helvetica,sans-Serif" font-size="10.00">finish()</text>
<polygon fill="#bfbfbf" stroke="#bfbfbf" points="345.62,-125.62 345.62,-125.62 491.12,-125.62 491.12,-125.62 345.62,-125.62"/>
<polygon fill="#bfbfbf" stroke="#bfbfbf" points="345.62,-108.88 345.62,-108.88 359.88,-108.88 359.88,-108.88 345.62,-108.88"/>
<polygon fill="#bfbfbf" stroke="#bfbfbf" points="359.88,-108.88 359.88,-108.88 491.12,-108.88 491.12,-108.88 359.88,-108.88"/>
<polygon fill="none" stroke="#bfbfbf" points="345.62,-27.12 345.62,-157.12 491.12,-157.12 491.12,-27.12 345.62,-27.12"/>
</a>
</g>
</g>
<!-- Node5&#45;&gt;Node6 -->
<g id="edge5_Node000005_Node000006" class="edge">
<title>Node5&#45;&gt;Node6</title>
<g id="a_edge5_Node000005_Node000006"><a xlink:title=" ">
<path fill="none" stroke="#63b8ff" d="M418.38,-208.87C418.38,-191.28 418.38,-173.29 418.38,-156.88"/>
<polygon fill="none" stroke="#63b8ff" points="414.88,-208.84 418.38,-218.84 421.88,-208.84 414.88,-208.84"/>
</a>
</g>
</g>
<!-- Node7 -->
<g id="Node000007" class="node">
<title>Node7</title>
<g id="a_Node000007"><a xlink:href="../../d4/d6d/classvanetza_1_1geonet_1_1IndicationContextSecuredDeserialize.html" target="_top" xlink:title=" ">
<polygon fill="white" stroke="none" points="655.12,-165.5 509.62,-165.5 509.62,-18.75 655.12,-18.75 655.12,-165.5"/>
<text xml:space="preserve" text-anchor="start" x="516" y="-152" font-family="Helvetica,sans-Serif" font-size="10.00">vanetza::geonet::Indication</text>
<text xml:space="preserve" text-anchor="start" x="516.38" y="-139.25" font-family="Helvetica,sans-Serif" font-size="10.00">ContextSecuredDeserialize</text>
<text xml:space="preserve" text-anchor="start" x="515.88" y="-122.5" font-family="Helvetica,sans-Serif" font-size="10.00">&#45;</text>
<text xml:space="preserve" text-anchor="start" x="525.88" y="-122.5" font-family="Helvetica,sans-Serif" font-size="10.00">m_packet</text>
<text xml:space="preserve" text-anchor="start" x="515.88" y="-105.75" font-family="Helvetica,sans-Serif" font-size="10.00">&#45;</text>
<text xml:space="preserve" text-anchor="start" x="525.88" y="-105.75" font-family="Helvetica,sans-Serif" font-size="10.00">m_parser</text>
<text xml:space="preserve" text-anchor="start" x="513.62" y="-89" font-family="Helvetica,sans-Serif" font-size="10.00">+</text>
<text xml:space="preserve" text-anchor="start" x="525.88" y="-89" font-family="Helvetica,sans-Serif" font-size="10.00">IndicationContextSecured</text>
<text xml:space="preserve" text-anchor="start" x="525.88" y="-76.25" font-family="Helvetica,sans-Serif" font-size="10.00">Deserialize()</text>
<text xml:space="preserve" text-anchor="start" x="513.62" y="-59.5" font-family="Helvetica,sans-Serif" font-size="10.00">+</text>
<text xml:space="preserve" text-anchor="start" x="525.88" y="-59.5" font-family="Helvetica,sans-Serif" font-size="10.00">parse_common()</text>
<text xml:space="preserve" text-anchor="start" x="513.62" y="-42.75" font-family="Helvetica,sans-Serif" font-size="10.00">+</text>
<text xml:space="preserve" text-anchor="start" x="525.88" y="-42.75" font-family="Helvetica,sans-Serif" font-size="10.00">parse_extended()</text>
<text xml:space="preserve" text-anchor="start" x="513.62" y="-26" font-family="Helvetica,sans-Serif" font-size="10.00">+</text>
<text xml:space="preserve" text-anchor="start" x="525.88" y="-26" font-family="Helvetica,sans-Serif" font-size="10.00">finish()</text>
<polygon fill="#bfbfbf" stroke="#bfbfbf" points="509.62,-134 509.62,-134 655.12,-134 655.12,-134 509.62,-134"/>
<polygon fill="#bfbfbf" stroke="#bfbfbf" points="509.62,-100.5 509.62,-100.5 523.88,-100.5 523.88,-100.5 509.62,-100.5"/>
<polygon fill="#bfbfbf" stroke="#bfbfbf" points="523.88,-100.5 523.88,-100.5 655.12,-100.5 655.12,-100.5 523.88,-100.5"/>
<polygon fill="none" stroke="#bfbfbf" points="509.62,-18.75 509.62,-165.5 655.12,-165.5 655.12,-18.75 509.62,-18.75"/>
</a>
</g>
</g>
<!-- Node5&#45;&gt;Node7 -->
<g id="edge6_Node000005_Node000007" class="edge">
<title>Node5&#45;&gt;Node7</title>
<g id="a_edge6_Node000005_Node000007"><a xlink:title=" ">
<path fill="none" stroke="#63b8ff" d="M489.98,-211.37C501.98,-196.01 514.28,-180.27 525.83,-165.49"/>
<polygon fill="none" stroke="#63b8ff" points="487.29,-209.13 483.89,-219.16 492.8,-213.44 487.29,-209.13"/>
</a>
</g>
</g>
</g>
</svg>
