<?xml version="1.0" encoding="UTF-8" standalone="no"?>
<!DOCTYPE svg PUBLIC "-//W3C//DTD SVG 1.1//EN"
 "http://www.w3.org/Graphics/SVG/1.1/DTD/svg11.dtd">
<!-- Generated by graphviz version 2.49.3 (0)
 -->
<!-- Title: vanetza::geonet::IndicationContext Pages: 1 -->
<svg width="605pt" height="590pt"
 viewBox="0.00 0.00 604.50 590.00" xmlns="http://www.w3.org/2000/svg" xmlns:xlink="http://www.w3.org/1999/xlink">
<g id="graph0" class="graph" transform="scale(1 1) rotate(0) translate(4 586)">
<title>vanetza::geonet::IndicationContext</title>
<!-- Node1 -->
<g id="Node000001" class="node">
<title>Node1</title>
<g id="a_Node000001"><a xlink:title=" ">
<polygon fill="#999999" stroke="transparent" points="364,-582 237,-582 237,-387 364,-387 364,-582"/>
<text text-anchor="start" x="242.5" y="-569.5" font-family="Helvetica,sans-Serif" font-size="10.00">vanetza::geonet::Indication</text>
<text text-anchor="start" x="283.5" y="-558.5" font-family="Helvetica,sans-Serif" font-size="10.00">Context</text>
<text text-anchor="start" x="299" y="-543.5" font-family="Helvetica,sans-Serif" font-size="10.00"> </text>
<text text-anchor="start" x="246" y="-528.5" font-family="Helvetica,sans-Serif" font-size="10.00">+</text>
<text text-anchor="start" x="261.5" y="-528.5" font-family="Helvetica,sans-Serif" font-size="10.00">parse_basic()</text>
<text text-anchor="start" x="246" y="-513.5" font-family="Helvetica,sans-Serif" font-size="10.00">+</text>
<text text-anchor="start" x="261.5" y="-513.5" font-family="Helvetica,sans-Serif" font-size="10.00">parse_common()</text>
<text text-anchor="start" x="246" y="-498.5" font-family="Helvetica,sans-Serif" font-size="10.00">+</text>
<text text-anchor="start" x="261.5" y="-498.5" font-family="Helvetica,sans-Serif" font-size="10.00">parse_secured()</text>
<text text-anchor="start" x="246" y="-483.5" font-family="Helvetica,sans-Serif" font-size="10.00">+</text>
<text text-anchor="start" x="261.5" y="-483.5" font-family="Helvetica,sans-Serif" font-size="10.00">parse_extended()</text>
<text text-anchor="start" x="246" y="-468.5" font-family="Helvetica,sans-Serif" font-size="10.00">+</text>
<text text-anchor="start" x="261.5" y="-468.5" font-family="Helvetica,sans-Serif" font-size="10.00">pdu()</text>
<text text-anchor="start" x="246" y="-453.5" font-family="Helvetica,sans-Serif" font-size="10.00">+</text>
<text text-anchor="start" x="261.5" y="-453.5" font-family="Helvetica,sans-Serif" font-size="10.00">pdu()</text>
<text text-anchor="start" x="246" y="-438.5" font-family="Helvetica,sans-Serif" font-size="10.00">+</text>
<text text-anchor="start" x="261.5" y="-438.5" font-family="Helvetica,sans-Serif" font-size="10.00">link_layer()</text>
<text text-anchor="start" x="246" y="-423.5" font-family="Helvetica,sans-Serif" font-size="10.00">+</text>
<text text-anchor="start" x="261.5" y="-423.5" font-family="Helvetica,sans-Serif" font-size="10.00">service_primitive()</text>
<text text-anchor="start" x="246" y="-408.5" font-family="Helvetica,sans-Serif" font-size="10.00">+</text>
<text text-anchor="start" x="261.5" y="-408.5" font-family="Helvetica,sans-Serif" font-size="10.00">finish()</text>
<text text-anchor="start" x="246" y="-393.5" font-family="Helvetica,sans-Serif" font-size="10.00">+</text>
<text text-anchor="start" x="261.5" y="-393.5" font-family="Helvetica,sans-Serif" font-size="10.00">~IndicationContext()</text>
<polygon fill="#666666" stroke="#666666" points="237.5,-553.5 237.5,-553.5 364.5,-553.5 364.5,-553.5 237.5,-553.5"/>
<polygon fill="#666666" stroke="#666666" points="237.5,-538.5 237.5,-538.5 364.5,-538.5 364.5,-538.5 237.5,-538.5"/>
<polygon fill="none" stroke="#666666" points="237,-387 237,-582 364,-582 364,-387 237,-387"/>
</a>
</g>
</g>
<!-- Node2 -->
<g id="Node000002" class="node">
<title>Node2</title>
<g id="a_Node000002"><a xlink:href="../../d6/d4a/classvanetza_1_1geonet_1_1IndicationContextBasic.html" target="_top" xlink:title=" ">
<polygon fill="white" stroke="transparent" points="284,-351 157,-351 157,-201 284,-201 284,-351"/>
<text text-anchor="start" x="162.5" y="-339" font-family="Helvetica,sans-Serif" font-size="10.00">vanetza::geonet::Indication</text>
<text text-anchor="start" x="191" y="-328" font-family="Helvetica,sans-Serif" font-size="10.00">ContextBasic</text>
<text text-anchor="start" x="162" y="-313" font-family="Helvetica,sans-Serif" font-size="10.00">#</text>
<text text-anchor="start" x="172.5" y="-313" font-family="Helvetica,sans-Serif" font-size="10.00">m_link_layer</text>
<text text-anchor="start" x="162" y="-298" font-family="Helvetica,sans-Serif" font-size="10.00">#</text>
<text text-anchor="start" x="172.5" y="-298" font-family="Helvetica,sans-Serif" font-size="10.00">m_service_primitive</text>
<text text-anchor="start" x="162" y="-283" font-family="Helvetica,sans-Serif" font-size="10.00">#</text>
<text text-anchor="start" x="172.5" y="-283" font-family="Helvetica,sans-Serif" font-size="10.00">m_pdu</text>
<text text-anchor="start" x="161.5" y="-268" font-family="Helvetica,sans-Serif" font-size="10.00">+</text>
<text text-anchor="start" x="172.5" y="-268" font-family="Helvetica,sans-Serif" font-size="10.00">IndicationContextBasic()</text>
<text text-anchor="start" x="161.5" y="-253" font-family="Helvetica,sans-Serif" font-size="10.00">+</text>
<text text-anchor="start" x="172.5" y="-253" font-family="Helvetica,sans-Serif" font-size="10.00">link_layer()</text>
<text text-anchor="start" x="161.5" y="-238" font-family="Helvetica,sans-Serif" font-size="10.00">+</text>
<text text-anchor="start" x="172.5" y="-238" font-family="Helvetica,sans-Serif" font-size="10.00">service_primitive()</text>
<text text-anchor="start" x="161.5" y="-223" font-family="Helvetica,sans-Serif" font-size="10.00">+</text>
<text text-anchor="start" x="172.5" y="-223" font-family="Helvetica,sans-Serif" font-size="10.00">pdu()</text>
<text text-anchor="start" x="161.5" y="-208" font-family="Helvetica,sans-Serif" font-size="10.00">+</text>
<text text-anchor="start" x="172.5" y="-208" font-family="Helvetica,sans-Serif" font-size="10.00">pdu()</text>
<polygon fill="#666666" stroke="#666666" points="157.5,-323 157.5,-323 284.5,-323 284.5,-323 157.5,-323"/>
<polygon fill="#666666" stroke="#666666" points="157.5,-278 157.5,-278 170.5,-278 170.5,-278 157.5,-278"/>
<polygon fill="#666666" stroke="#666666" points="170.5,-278 170.5,-278 284.5,-278 284.5,-278 170.5,-278"/>
<polygon fill="none" stroke="#666666" points="157,-201 157,-351 284,-351 284,-201 157,-201"/>
</a>
</g>
</g>
<!-- Node1&#45;&gt;Node2 -->
<g id="edge1_Node000001_Node000002" class="edge">
<title>Node1&#45;&gt;Node2</title>
<g id="a_edge1_Node000001_Node000002"><a xlink:title=" ">
<path fill="none" stroke="#63b8ff" d="M259.38,-377.35C255.97,-368.55 252.57,-359.78 249.28,-351.29"/>
<polygon fill="none" stroke="#63b8ff" points="256.2,-378.84 263.08,-386.9 262.73,-376.31 256.2,-378.84"/>
</a>
</g>
</g>
<!-- Node5 -->
<g id="Node000005" class="node">
<title>Node5</title>
<g id="a_Node000005"><a xlink:href="../../db/d97/classvanetza_1_1geonet_1_1IndicationContextSecured.html" target="_top" xlink:title=" ">
<polygon fill="white" stroke="transparent" points="449.5,-351 311.5,-351 311.5,-201 449.5,-201 449.5,-351"/>
<text text-anchor="start" x="322" y="-339" font-family="Helvetica,sans-Serif" font-size="10.00">vanetza::geonet::Indication</text>
<text text-anchor="start" x="345" y="-328" font-family="Helvetica,sans-Serif" font-size="10.00">ContextSecured</text>
<text text-anchor="start" x="316" y="-313" font-family="Helvetica,sans-Serif" font-size="10.00">#</text>
<text text-anchor="start" x="326.5" y="-313" font-family="Helvetica,sans-Serif" font-size="10.00">m_parent</text>
<text text-anchor="start" x="315.5" y="-298" font-family="Helvetica,sans-Serif" font-size="10.00">+</text>
<text text-anchor="start" x="326.5" y="-298" font-family="Helvetica,sans-Serif" font-size="10.00">IndicationContextSecured()</text>
<text text-anchor="start" x="315.5" y="-283" font-family="Helvetica,sans-Serif" font-size="10.00">+</text>
<text text-anchor="start" x="326.5" y="-283" font-family="Helvetica,sans-Serif" font-size="10.00">link_layer()</text>
<text text-anchor="start" x="315.5" y="-268" font-family="Helvetica,sans-Serif" font-size="10.00">+</text>
<text text-anchor="start" x="326.5" y="-268" font-family="Helvetica,sans-Serif" font-size="10.00">service_primitive()</text>
<text text-anchor="start" x="315.5" y="-253" font-family="Helvetica,sans-Serif" font-size="10.00">+</text>
<text text-anchor="start" x="326.5" y="-253" font-family="Helvetica,sans-Serif" font-size="10.00">pdu()</text>
<text text-anchor="start" x="315.5" y="-238" font-family="Helvetica,sans-Serif" font-size="10.00">+</text>
<text text-anchor="start" x="326.5" y="-238" font-family="Helvetica,sans-Serif" font-size="10.00">pdu()</text>
<text text-anchor="start" x="315.5" y="-223" font-family="Helvetica,sans-Serif" font-size="10.00">+</text>
<text text-anchor="start" x="326.5" y="-223" font-family="Helvetica,sans-Serif" font-size="10.00">parse_basic()</text>
<text text-anchor="start" x="315.5" y="-208" font-family="Helvetica,sans-Serif" font-size="10.00">+</text>
<text text-anchor="start" x="326.5" y="-208" font-family="Helvetica,sans-Serif" font-size="10.00">parse_secured()</text>
<polygon fill="#666666" stroke="#666666" points="311.5,-323 311.5,-323 449.5,-323 449.5,-323 311.5,-323"/>
<polygon fill="#666666" stroke="#666666" points="311.5,-308 311.5,-308 324.5,-308 324.5,-308 311.5,-308"/>
<polygon fill="#666666" stroke="#666666" points="324.5,-308 324.5,-308 449.5,-308 449.5,-308 324.5,-308"/>
<polygon fill="none" stroke="#666666" points="311.5,-201 311.5,-351 449.5,-351 449.5,-201 311.5,-201"/>
</a>
</g>
</g>
<!-- Node1&#45;&gt;Node5 -->
<g id="edge4_Node000001_Node000005" class="edge">
<title>Node1&#45;&gt;Node5</title>
<g id="a_edge4_Node000001_Node000005"><a xlink:title=" ">
<path fill="none" stroke="#63b8ff" d="M341.62,-377.35C345.03,-368.55 348.43,-359.78 351.72,-351.29"/>
<polygon fill="none" stroke="#63b8ff" points="338.27,-376.31 337.92,-386.9 344.8,-378.84 338.27,-376.31"/>
</a>
</g>
</g>
<!-- Node3 -->
<g id="Node000003" class="node">
<title>Node3</title>
<g id="a_Node000003"><a xlink:href="../../dc/dad/classvanetza_1_1geonet_1_1IndicationContextCast.html" target="_top" xlink:title=" ">
<polygon fill="white" stroke="transparent" points="127,-150 0,-150 0,-15 127,-15 127,-150"/>
<text text-anchor="start" x="5.5" y="-137.5" font-family="Helvetica,sans-Serif" font-size="10.00">vanetza::geonet::Indication</text>
<text text-anchor="start" x="36" y="-126.5" font-family="Helvetica,sans-Serif" font-size="10.00">ContextCast</text>
<text text-anchor="start" x="7" y="-111.5" font-family="Helvetica,sans-Serif" font-size="10.00">&#45;</text>
<text text-anchor="start" x="17.5" y="-111.5" font-family="Helvetica,sans-Serif" font-size="10.00">m_packet</text>
<text text-anchor="start" x="5.5" y="-96.5" font-family="Helvetica,sans-Serif" font-size="10.00">+</text>
<text text-anchor="start" x="17.5" y="-96.5" font-family="Helvetica,sans-Serif" font-size="10.00">IndicationContextCast()</text>
<text text-anchor="start" x="5.5" y="-81.5" font-family="Helvetica,sans-Serif" font-size="10.00">+</text>
<text text-anchor="start" x="17.5" y="-81.5" font-family="Helvetica,sans-Serif" font-size="10.00">parse_basic()</text>
<text text-anchor="start" x="5.5" y="-66.5" font-family="Helvetica,sans-Serif" font-size="10.00">+</text>
<text text-anchor="start" x="17.5" y="-66.5" font-family="Helvetica,sans-Serif" font-size="10.00">parse_common()</text>
<text text-anchor="start" x="5.5" y="-51.5" font-family="Helvetica,sans-Serif" font-size="10.00">+</text>
<text text-anchor="start" x="17.5" y="-51.5" font-family="Helvetica,sans-Serif" font-size="10.00">parse_secured()</text>
<text text-anchor="start" x="5.5" y="-36.5" font-family="Helvetica,sans-Serif" font-size="10.00">+</text>
<text text-anchor="start" x="17.5" y="-36.5" font-family="Helvetica,sans-Serif" font-size="10.00">parse_extended()</text>
<text text-anchor="start" x="5.5" y="-21.5" font-family="Helvetica,sans-Serif" font-size="10.00">+</text>
<text text-anchor="start" x="17.5" y="-21.5" font-family="Helvetica,sans-Serif" font-size="10.00">finish()</text>
<polygon fill="#bfbfbf" stroke="#bfbfbf" points="0.5,-121.5 0.5,-121.5 127.5,-121.5 127.5,-121.5 0.5,-121.5"/>
<polygon fill="#bfbfbf" stroke="#bfbfbf" points="0.5,-106.5 0.5,-106.5 15.5,-106.5 15.5,-106.5 0.5,-106.5"/>
<polygon fill="#bfbfbf" stroke="#bfbfbf" points="15.5,-106.5 15.5,-106.5 127.5,-106.5 127.5,-106.5 15.5,-106.5"/>
<polygon fill="none" stroke="#bfbfbf" points="0,-15 0,-150 127,-150 127,-15 0,-15"/>
</a>
</g>
</g>
<!-- Node2&#45;&gt;Node3 -->
<g id="edge2_Node000002_Node000003" class="edge">
<title>Node2&#45;&gt;Node3</title>
<g id="a_edge2_Node000002_Node000003"><a xlink:title=" ">
<path fill="none" stroke="#63b8ff" d="M153.32,-193.06C141.58,-178.74 129.49,-163.99 118.14,-150.15"/>
<polygon fill="none" stroke="#63b8ff" points="150.75,-195.45 159.8,-200.96 156.17,-191.01 150.75,-195.45"/>
</a>
</g>
</g>
<!-- Node4 -->
<g id="Node000004" class="node">
<title>Node4</title>
<g id="a_Node000004"><a xlink:href="../../dd/d8e/classvanetza_1_1geonet_1_1IndicationContextDeserialize.html" target="_top" xlink:title=" ">
<polygon fill="white" stroke="transparent" points="296,-165 145,-165 145,0 296,0 296,-165"/>
<text text-anchor="start" x="162.5" y="-152.5" font-family="Helvetica,sans-Serif" font-size="10.00">vanetza::geonet::Indication</text>
<text text-anchor="start" x="179" y="-141.5" font-family="Helvetica,sans-Serif" font-size="10.00">ContextDeserialize</text>
<text text-anchor="start" x="151" y="-126.5" font-family="Helvetica,sans-Serif" font-size="10.00">&#45;</text>
<text text-anchor="start" x="160.5" y="-126.5" font-family="Helvetica,sans-Serif" font-size="10.00">m_packet</text>
<text text-anchor="start" x="151" y="-111.5" font-family="Helvetica,sans-Serif" font-size="10.00">&#45;</text>
<text text-anchor="start" x="160.5" y="-111.5" font-family="Helvetica,sans-Serif" font-size="10.00">m_cohesive_packet</text>
<text text-anchor="start" x="151" y="-96.5" font-family="Helvetica,sans-Serif" font-size="10.00">&#45;</text>
<text text-anchor="start" x="160.5" y="-96.5" font-family="Helvetica,sans-Serif" font-size="10.00">m_parser</text>
<text text-anchor="start" x="149.5" y="-81.5" font-family="Helvetica,sans-Serif" font-size="10.00">+</text>
<text text-anchor="start" x="160.5" y="-81.5" font-family="Helvetica,sans-Serif" font-size="10.00">IndicationContextDeserialize()</text>
<text text-anchor="start" x="149.5" y="-66.5" font-family="Helvetica,sans-Serif" font-size="10.00">+</text>
<text text-anchor="start" x="160.5" y="-66.5" font-family="Helvetica,sans-Serif" font-size="10.00">parse_basic()</text>
<text text-anchor="start" x="149.5" y="-51.5" font-family="Helvetica,sans-Serif" font-size="10.00">+</text>
<text text-anchor="start" x="160.5" y="-51.5" font-family="Helvetica,sans-Serif" font-size="10.00">parse_common()</text>
<text text-anchor="start" x="149.5" y="-36.5" font-family="Helvetica,sans-Serif" font-size="10.00">+</text>
<text text-anchor="start" x="160.5" y="-36.5" font-family="Helvetica,sans-Serif" font-size="10.00">parse_secured()</text>
<text text-anchor="start" x="149.5" y="-21.5" font-family="Helvetica,sans-Serif" font-size="10.00">+</text>
<text text-anchor="start" x="160.5" y="-21.5" font-family="Helvetica,sans-Serif" font-size="10.00">parse_extended()</text>
<text text-anchor="start" x="149.5" y="-6.5" font-family="Helvetica,sans-Serif" font-size="10.00">+</text>
<text text-anchor="start" x="160.5" y="-6.5" font-family="Helvetica,sans-Serif" font-size="10.00">finish()</text>
<polygon fill="#bfbfbf" stroke="#bfbfbf" points="145.5,-136.5 145.5,-136.5 296.5,-136.5 296.5,-136.5 145.5,-136.5"/>
<polygon fill="#bfbfbf" stroke="#bfbfbf" points="145.5,-91.5 145.5,-91.5 158.5,-91.5 158.5,-91.5 145.5,-91.5"/>
<polygon fill="#bfbfbf" stroke="#bfbfbf" points="158.5,-91.5 158.5,-91.5 296.5,-91.5 296.5,-91.5 158.5,-91.5"/>
<polygon fill="none" stroke="#bfbfbf" points="145,0 145,-165 296,-165 296,0 145,0"/>
</a>
</g>
</g>
<!-- Node2&#45;&gt;Node4 -->
<g id="edge3_Node000002_Node000004" class="edge">
<title>Node2&#45;&gt;Node4</title>
<g id="a_edge3_Node000002_Node000004"><a xlink:title=" ">
<path fill="none" stroke="#63b8ff" d="M220.5,-190.73C220.5,-182.29 220.5,-173.72 220.5,-165.29"/>
<polygon fill="none" stroke="#63b8ff" points="217,-190.96 220.5,-200.96 224,-190.96 217,-190.96"/>
</a>
</g>
</g>
<!-- Node6 -->
<g id="Node000006" class="node">
<title>Node6</title>
<g id="a_Node000006"><a xlink:href="../../db/d0c/classvanetza_1_1geonet_1_1IndicationContextSecuredCast.html" target="_top" xlink:title=" ">
<polygon fill="white" stroke="transparent" points="446.5,-140.5 314.5,-140.5 314.5,-24.5 446.5,-24.5 446.5,-140.5"/>
<text text-anchor="start" x="322" y="-128.5" font-family="Helvetica,sans-Serif" font-size="10.00">vanetza::geonet::Indication</text>
<text text-anchor="start" x="334.5" y="-117.5" font-family="Helvetica,sans-Serif" font-size="10.00">ContextSecuredCast</text>
<text text-anchor="start" x="320" y="-102.5" font-family="Helvetica,sans-Serif" font-size="10.00">&#45;</text>
<text text-anchor="start" x="329.5" y="-102.5" font-family="Helvetica,sans-Serif" font-size="10.00">m_packet</text>
<text text-anchor="start" x="318.5" y="-87.5" font-family="Helvetica,sans-Serif" font-size="10.00">+</text>
<text text-anchor="start" x="329.5" y="-87.5" font-family="Helvetica,sans-Serif" font-size="10.00">IndicationContextSecured</text>
<text text-anchor="start" x="329.5" y="-76.5" font-family="Helvetica,sans-Serif" font-size="10.00">Cast()</text>
<text text-anchor="start" x="318.5" y="-61.5" font-family="Helvetica,sans-Serif" font-size="10.00">+</text>
<text text-anchor="start" x="329.5" y="-61.5" font-family="Helvetica,sans-Serif" font-size="10.00">parse_common()</text>
<text text-anchor="start" x="318.5" y="-46.5" font-family="Helvetica,sans-Serif" font-size="10.00">+</text>
<text text-anchor="start" x="329.5" y="-46.5" font-family="Helvetica,sans-Serif" font-size="10.00">parse_extended()</text>
<text text-anchor="start" x="318.5" y="-31.5" font-family="Helvetica,sans-Serif" font-size="10.00">+</text>
<text text-anchor="start" x="329.5" y="-31.5" font-family="Helvetica,sans-Serif" font-size="10.00">finish()</text>
<polygon fill="#bfbfbf" stroke="#bfbfbf" points="314.5,-112.5 314.5,-112.5 446.5,-112.5 446.5,-112.5 314.5,-112.5"/>
<polygon fill="#bfbfbf" stroke="#bfbfbf" points="314.5,-97.5 314.5,-97.5 327.5,-97.5 327.5,-97.5 314.5,-97.5"/>
<polygon fill="#bfbfbf" stroke="#bfbfbf" points="327.5,-97.5 327.5,-97.5 446.5,-97.5 446.5,-97.5 327.5,-97.5"/>
<polygon fill="none" stroke="#bfbfbf" points="314.5,-24.5 314.5,-140.5 446.5,-140.5 446.5,-24.5 314.5,-24.5"/>
</a>
</g>
</g>
<!-- Node5&#45;&gt;Node6 -->
<g id="edge5_Node000005_Node000006" class="edge">
<title>Node5&#45;&gt;Node6</title>
<g id="a_edge5_Node000005_Node000006"><a xlink:title=" ">
<path fill="none" stroke="#63b8ff" d="M380.5,-190.55C380.5,-173.7 380.5,-156.38 380.5,-140.71"/>
<polygon fill="none" stroke="#63b8ff" points="377,-190.96 380.5,-200.96 384,-190.96 377,-190.96"/>
</a>
</g>
</g>
<!-- Node7 -->
<g id="Node000007" class="node">
<title>Node7</title>
<g id="a_Node000007"><a xlink:href="../../d4/d6d/classvanetza_1_1geonet_1_1IndicationContextSecuredDeserialize.html" target="_top" xlink:title=" ">
<polygon fill="white" stroke="transparent" points="596.5,-148 464.5,-148 464.5,-17 596.5,-17 596.5,-148"/>
<text text-anchor="start" x="470.5" y="-135.5" font-family="Helvetica,sans-Serif" font-size="10.00">vanetza::geonet::Indication</text>
<text text-anchor="start" x="470.5" y="-124.5" font-family="Helvetica,sans-Serif" font-size="10.00">ContextSecuredDeserialize</text>
<text text-anchor="start" x="470" y="-109.5" font-family="Helvetica,sans-Serif" font-size="10.00">&#45;</text>
<text text-anchor="start" x="479.5" y="-109.5" font-family="Helvetica,sans-Serif" font-size="10.00">m_packet</text>
<text text-anchor="start" x="470" y="-94.5" font-family="Helvetica,sans-Serif" font-size="10.00">&#45;</text>
<text text-anchor="start" x="479.5" y="-94.5" font-family="Helvetica,sans-Serif" font-size="10.00">m_parser</text>
<text text-anchor="start" x="468.5" y="-79.5" font-family="Helvetica,sans-Serif" font-size="10.00">+</text>
<text text-anchor="start" x="479.5" y="-79.5" font-family="Helvetica,sans-Serif" font-size="10.00">IndicationContextSecured</text>
<text text-anchor="start" x="479.5" y="-68.5" font-family="Helvetica,sans-Serif" font-size="10.00">Deserialize()</text>
<text text-anchor="start" x="468.5" y="-53.5" font-family="Helvetica,sans-Serif" font-size="10.00">+</text>
<text text-anchor="start" x="479.5" y="-53.5" font-family="Helvetica,sans-Serif" font-size="10.00">parse_common()</text>
<text text-anchor="start" x="468.5" y="-38.5" font-family="Helvetica,sans-Serif" font-size="10.00">+</text>
<text text-anchor="start" x="479.5" y="-38.5" font-family="Helvetica,sans-Serif" font-size="10.00">parse_extended()</text>
<text text-anchor="start" x="468.5" y="-23.5" font-family="Helvetica,sans-Serif" font-size="10.00">+</text>
<text text-anchor="start" x="479.5" y="-23.5" font-family="Helvetica,sans-Serif" font-size="10.00">finish()</text>
<polygon fill="#bfbfbf" stroke="#bfbfbf" points="464.5,-119.5 464.5,-119.5 596.5,-119.5 596.5,-119.5 464.5,-119.5"/>
<polygon fill="#bfbfbf" stroke="#bfbfbf" points="464.5,-89.5 464.5,-89.5 477.5,-89.5 477.5,-89.5 464.5,-89.5"/>
<polygon fill="#bfbfbf" stroke="#bfbfbf" points="477.5,-89.5 477.5,-89.5 596.5,-89.5 596.5,-89.5 477.5,-89.5"/>
<polygon fill="none" stroke="#bfbfbf" points="464.5,-17 464.5,-148 596.5,-148 596.5,-17 464.5,-17"/>
</a>
</g>
</g>
<!-- Node5&#45;&gt;Node7 -->
<g id="edge6_Node000005_Node000007" class="edge">
<title>Node5&#45;&gt;Node7</title>
<g id="a_edge6_Node000005_Node000007"><a xlink:title=" ">
<path fill="none" stroke="#63b8ff" d="M444.92,-192.76C456.57,-177.89 468.56,-162.58 479.75,-148.3"/>
<polygon fill="none" stroke="#63b8ff" points="441.9,-190.93 438.49,-200.96 447.42,-195.25 441.9,-190.93"/>
</a>
</g>
</g>
</g>
</svg>
