<?xml version="1.0" encoding="UTF-8" standalone="no"?>
<!DOCTYPE svg PUBLIC "-//W3C//DTD SVG 1.1//EN"
 "http://www.w3.org/Graphics/SVG/1.1/DTD/svg11.dtd">
<!-- Generated by graphviz version 2.42.1 (0)
 -->
<!-- Title: vanetza::geonet::IndicationContext Pages: 1 -->
<!--zoomable 529 -->
<svg id="main" version="1.1" xmlns="http://www.w3.org/2000/svg" xmlns:xlink="http://www.w3.org/1999/xlink" xml:space="preserve" onload="init(evt)">
<style type="text/css"><![CDATA[
.edge:hover path { stroke: red; }
.edge:hover polygon { stroke: red; fill: red; }
]]></style>
<script type="text/javascript"><![CDATA[
var edges = document.getElementsByTagName('g');
if (edges && edges.length) {
  for (var i=0;i<edges.length;i++) {
    if (edges[i].id.substr(0,4)=='edge') {
      edges[i].setAttribute('class','edge');
    }
  }
}
]]></script>
        <defs>
                <circle id="rim" cx="0" cy="0" r="7"/>
                <circle id="rim2" cx="0" cy="0" r="3.5"/>
                <g id="zoomPlus">
                        <use xlink:href="#rim" fill="#404040">
                                <set attributeName="fill" to="#808080" begin="zoomplus.mouseover" end="zoomplus.mouseout"/>
                        </use>
                        <path d="M-4,0h8M0,-4v8" fill="none" stroke="white" stroke-width="1.5" pointer-events="none"/>
                </g>
                <g id="zoomMin">
                        <use xlink:href="#rim" fill="#404040">
                                <set attributeName="fill" to="#808080" begin="zoomminus.mouseover" end="zoomminus.mouseout"/>
                        </use>
                        <path d="M-4,0h8" fill="none" stroke="white" stroke-width="1.5" pointer-events="none"/>
                </g>
                <g id="dirArrow">
                        <path fill="none" stroke="white" stroke-width="1.5" d="M0,-3.0v7 M-2.5,-0.5L0,-3.0L2.5,-0.5"/>
                </g>
               <g id="resetDef">
                       <use xlink:href="#rim2" fill="#404040">
                               <set attributeName="fill" to="#808080" begin="reset.mouseover" end="reset.mouseout"/>
                       </use>
               </g>
        </defs>

<script type="text/javascript">
var viewWidth = 657;
var viewHeight = 529;
var sectionId = 'dynsection-0';
</script>
<script xlink:href="../../svgpan.js"/>
<svg id="graph" class="graph">
<g id="viewport">
<title>vanetza::geonet::IndicationContext</title>
<polygon fill="white" stroke="transparent" points="-4,4 -4,-525 653,-525 653,4 -4,4"/>
<!-- Node0 -->
<g id="node1" class="node">
<title>Node0</title>
<g id="a_node1"><a xlink:title=" ">
<polygon fill="#bfbfbf" stroke="black" points="253,-353.5 253,-520.5 387,-520.5 387,-353.5 253,-353.5"/>
<text text-anchor="start" x="261" y="-508.5" font-family="Helvetica,sans-Serif" font-size="10.00">vanetza::geonet::Indication</text>
<text text-anchor="middle" x="320" y="-497.5" font-family="Helvetica,sans-Serif" font-size="10.00">Context</text>
<polyline fill="none" stroke="black" points="253,-490.5 387,-490.5 "/>
<text text-anchor="middle" x="320" y="-478.5" font-family="Helvetica,sans-Serif" font-size="10.00"> </text>
<polyline fill="none" stroke="black" points="253,-471.5 387,-471.5 "/>
<text text-anchor="start" x="261" y="-459.5" font-family="Helvetica,sans-Serif" font-size="10.00">+ parse_basic()</text>
<text text-anchor="start" x="261" y="-448.5" font-family="Helvetica,sans-Serif" font-size="10.00">+ parse_common()</text>
<text text-anchor="start" x="261" y="-437.5" font-family="Helvetica,sans-Serif" font-size="10.00">+ parse_secured()</text>
<text text-anchor="start" x="261" y="-426.5" font-family="Helvetica,sans-Serif" font-size="10.00">+ parse_extended()</text>
<text text-anchor="start" x="261" y="-415.5" font-family="Helvetica,sans-Serif" font-size="10.00">+ pdu()</text>
<text text-anchor="start" x="261" y="-404.5" font-family="Helvetica,sans-Serif" font-size="10.00">+ pdu()</text>
<text text-anchor="start" x="261" y="-393.5" font-family="Helvetica,sans-Serif" font-size="10.00">+ link_layer()</text>
<text text-anchor="start" x="261" y="-382.5" font-family="Helvetica,sans-Serif" font-size="10.00">+ service_primitive()</text>
<text text-anchor="start" x="261" y="-371.5" font-family="Helvetica,sans-Serif" font-size="10.00">+ finish()</text>
<text text-anchor="start" x="261" y="-360.5" font-family="Helvetica,sans-Serif" font-size="10.00">+ ~IndicationContext()</text>
</a>
</g>
</g>
<!-- Node1 -->
<g id="node2" class="node">
<title>Node1</title>
<g id="a_node2"><a xlink:href="../../d6/d4a/classvanetza_1_1geonet_1_1IndicationContextBasic.html" target="_top" xlink:title=" ">
<polygon fill="white" stroke="black" points="164,-182.5 164,-316.5 298,-316.5 298,-182.5 164,-182.5"/>
<text text-anchor="start" x="172" y="-304.5" font-family="Helvetica,sans-Serif" font-size="10.00">vanetza::geonet::Indication</text>
<text text-anchor="middle" x="231" y="-293.5" font-family="Helvetica,sans-Serif" font-size="10.00">ContextBasic</text>
<polyline fill="none" stroke="black" points="164,-286.5 298,-286.5 "/>
<text text-anchor="start" x="172" y="-274.5" font-family="Helvetica,sans-Serif" font-size="10.00"># m_link_layer</text>
<text text-anchor="start" x="172" y="-263.5" font-family="Helvetica,sans-Serif" font-size="10.00"># m_service_primitive</text>
<text text-anchor="start" x="172" y="-252.5" font-family="Helvetica,sans-Serif" font-size="10.00"># m_pdu</text>
<polyline fill="none" stroke="black" points="164,-245.5 298,-245.5 "/>
<text text-anchor="start" x="172" y="-233.5" font-family="Helvetica,sans-Serif" font-size="10.00">+ IndicationContextBasic()</text>
<text text-anchor="start" x="172" y="-222.5" font-family="Helvetica,sans-Serif" font-size="10.00">+ link_layer()</text>
<text text-anchor="start" x="172" y="-211.5" font-family="Helvetica,sans-Serif" font-size="10.00">+ service_primitive()</text>
<text text-anchor="start" x="172" y="-200.5" font-family="Helvetica,sans-Serif" font-size="10.00">+ pdu()</text>
<text text-anchor="start" x="172" y="-189.5" font-family="Helvetica,sans-Serif" font-size="10.00">+ pdu()</text>
</a>
</g>
</g>
<!-- Node0&#45;&gt;Node1 -->
<g id="edge1" class="edge">
<title>Node0&#45;&gt;Node1</title>
<path fill="none" stroke="midnightblue" d="M275.89,-344.05C271.45,-334.8 267,-325.54 262.73,-316.64"/>
<polygon fill="none" stroke="midnightblue" points="272.83,-345.78 280.32,-353.29 279.15,-342.76 272.83,-345.78"/>
</g>
<!-- Node4 -->
<g id="node5" class="node">
<title>Node4</title>
<g id="a_node5"><a xlink:href="../../db/d97/classvanetza_1_1geonet_1_1IndicationContextSecured.html" target="_top" xlink:title=" ">
<polygon fill="white" stroke="black" points="338,-182.5 338,-316.5 482,-316.5 482,-182.5 338,-182.5"/>
<text text-anchor="start" x="346" y="-304.5" font-family="Helvetica,sans-Serif" font-size="10.00">vanetza::geonet::Indication</text>
<text text-anchor="middle" x="410" y="-293.5" font-family="Helvetica,sans-Serif" font-size="10.00">ContextSecured</text>
<polyline fill="none" stroke="black" points="338,-286.5 482,-286.5 "/>
<text text-anchor="start" x="346" y="-274.5" font-family="Helvetica,sans-Serif" font-size="10.00"># m_parent</text>
<polyline fill="none" stroke="black" points="338,-267.5 482,-267.5 "/>
<text text-anchor="start" x="346" y="-255.5" font-family="Helvetica,sans-Serif" font-size="10.00">+ IndicationContextSecured()</text>
<text text-anchor="start" x="346" y="-244.5" font-family="Helvetica,sans-Serif" font-size="10.00">+ link_layer()</text>
<text text-anchor="start" x="346" y="-233.5" font-family="Helvetica,sans-Serif" font-size="10.00">+ service_primitive()</text>
<text text-anchor="start" x="346" y="-222.5" font-family="Helvetica,sans-Serif" font-size="10.00">+ pdu()</text>
<text text-anchor="start" x="346" y="-211.5" font-family="Helvetica,sans-Serif" font-size="10.00">+ pdu()</text>
<text text-anchor="start" x="346" y="-200.5" font-family="Helvetica,sans-Serif" font-size="10.00">+ parse_basic()</text>
<text text-anchor="start" x="346" y="-189.5" font-family="Helvetica,sans-Serif" font-size="10.00">+ parse_secured()</text>
</a>
</g>
</g>
<!-- Node0&#45;&gt;Node4 -->
<g id="edge4" class="edge">
<title>Node0&#45;&gt;Node4</title>
<path fill="none" stroke="midnightblue" d="M364.61,-344.05C369.1,-334.8 373.59,-325.54 377.91,-316.64"/>
<polygon fill="none" stroke="midnightblue" points="361.35,-342.76 360.13,-353.29 367.64,-345.82 361.35,-342.76"/>
</g>
<!-- Node2 -->
<g id="node3" class="node">
<title>Node2</title>
<g id="a_node3"><a xlink:href="../../dc/dad/classvanetza_1_1geonet_1_1IndicationContextCast.html" target="_top" xlink:title=" ">
<polygon fill="white" stroke="black" points="0,-11.5 0,-134.5 134,-134.5 134,-11.5 0,-11.5"/>
<text text-anchor="start" x="8" y="-122.5" font-family="Helvetica,sans-Serif" font-size="10.00">vanetza::geonet::Indication</text>
<text text-anchor="middle" x="67" y="-111.5" font-family="Helvetica,sans-Serif" font-size="10.00">ContextCast</text>
<polyline fill="none" stroke="black" points="0,-104.5 134,-104.5 "/>
<text text-anchor="start" x="8" y="-92.5" font-family="Helvetica,sans-Serif" font-size="10.00">&#45; m_packet</text>
<polyline fill="none" stroke="black" points="0,-85.5 134,-85.5 "/>
<text text-anchor="start" x="8" y="-73.5" font-family="Helvetica,sans-Serif" font-size="10.00">+ IndicationContextCast()</text>
<text text-anchor="start" x="8" y="-62.5" font-family="Helvetica,sans-Serif" font-size="10.00">+ parse_basic()</text>
<text text-anchor="start" x="8" y="-51.5" font-family="Helvetica,sans-Serif" font-size="10.00">+ parse_common()</text>
<text text-anchor="start" x="8" y="-40.5" font-family="Helvetica,sans-Serif" font-size="10.00">+ parse_secured()</text>
<text text-anchor="start" x="8" y="-29.5" font-family="Helvetica,sans-Serif" font-size="10.00">+ parse_extended()</text>
<text text-anchor="start" x="8" y="-18.5" font-family="Helvetica,sans-Serif" font-size="10.00">+ finish()</text>
</a>
</g>
</g>
<!-- Node1&#45;&gt;Node2 -->
<g id="edge2" class="edge">
<title>Node1&#45;&gt;Node2</title>
<path fill="none" stroke="midnightblue" d="M161.6,-174.66C149.04,-161.29 136.07,-147.49 123.91,-134.56"/>
<polygon fill="none" stroke="midnightblue" points="159.13,-177.14 168.53,-182.03 164.23,-172.35 159.13,-177.14"/>
</g>
<!-- Node3 -->
<g id="node4" class="node">
<title>Node3</title>
<g id="a_node4"><a xlink:href="../../dd/d8e/classvanetza_1_1geonet_1_1IndicationContextDeserialize.html" target="_top" xlink:title=" ">
<polygon fill="white" stroke="black" points="152.5,-0.5 152.5,-145.5 309.5,-145.5 309.5,-0.5 152.5,-0.5"/>
<text text-anchor="start" x="160.5" y="-133.5" font-family="Helvetica,sans-Serif" font-size="10.00">vanetza::geonet::Indication</text>
<text text-anchor="middle" x="231" y="-122.5" font-family="Helvetica,sans-Serif" font-size="10.00">ContextDeserialize</text>
<polyline fill="none" stroke="black" points="152.5,-115.5 309.5,-115.5 "/>
<text text-anchor="start" x="160.5" y="-103.5" font-family="Helvetica,sans-Serif" font-size="10.00">&#45; m_packet</text>
<text text-anchor="start" x="160.5" y="-92.5" font-family="Helvetica,sans-Serif" font-size="10.00">&#45; m_cohesive_packet</text>
<text text-anchor="start" x="160.5" y="-81.5" font-family="Helvetica,sans-Serif" font-size="10.00">&#45; m_parser</text>
<polyline fill="none" stroke="black" points="152.5,-74.5 309.5,-74.5 "/>
<text text-anchor="start" x="160.5" y="-62.5" font-family="Helvetica,sans-Serif" font-size="10.00">+ IndicationContextDeserialize()</text>
<text text-anchor="start" x="160.5" y="-51.5" font-family="Helvetica,sans-Serif" font-size="10.00">+ parse_basic()</text>
<text text-anchor="start" x="160.5" y="-40.5" font-family="Helvetica,sans-Serif" font-size="10.00">+ parse_common()</text>
<text text-anchor="start" x="160.5" y="-29.5" font-family="Helvetica,sans-Serif" font-size="10.00">+ parse_secured()</text>
<text text-anchor="start" x="160.5" y="-18.5" font-family="Helvetica,sans-Serif" font-size="10.00">+ parse_extended()</text>
<text text-anchor="start" x="160.5" y="-7.5" font-family="Helvetica,sans-Serif" font-size="10.00">+ finish()</text>
</a>
</g>
</g>
<!-- Node1&#45;&gt;Node3 -->
<g id="edge3" class="edge">
<title>Node1&#45;&gt;Node3</title>
<path fill="none" stroke="midnightblue" d="M231,-171.84C231,-163.09 231,-154.2 231,-145.51"/>
<polygon fill="none" stroke="midnightblue" points="227.5,-172.03 231,-182.03 234.5,-172.03 227.5,-172.03"/>
</g>
<!-- Node5 -->
<g id="node6" class="node">
<title>Node5</title>
<g id="a_node6"><a xlink:href="../../db/d0c/classvanetza_1_1geonet_1_1IndicationContextSecuredCast.html" target="_top" xlink:title=" ">
<polygon fill="white" stroke="black" points="327.5,-22.5 327.5,-123.5 492.5,-123.5 492.5,-22.5 327.5,-22.5"/>
<text text-anchor="start" x="335.5" y="-111.5" font-family="Helvetica,sans-Serif" font-size="10.00">vanetza::geonet::Indication</text>
<text text-anchor="middle" x="410" y="-100.5" font-family="Helvetica,sans-Serif" font-size="10.00">ContextSecuredCast</text>
<polyline fill="none" stroke="black" points="327.5,-93.5 492.5,-93.5 "/>
<text text-anchor="start" x="335.5" y="-81.5" font-family="Helvetica,sans-Serif" font-size="10.00">&#45; m_packet</text>
<polyline fill="none" stroke="black" points="327.5,-74.5 492.5,-74.5 "/>
<text text-anchor="start" x="335.5" y="-62.5" font-family="Helvetica,sans-Serif" font-size="10.00">+ IndicationContextSecuredCast()</text>
<text text-anchor="start" x="335.5" y="-51.5" font-family="Helvetica,sans-Serif" font-size="10.00">+ parse_common()</text>
<text text-anchor="start" x="335.5" y="-40.5" font-family="Helvetica,sans-Serif" font-size="10.00">+ parse_extended()</text>
<text text-anchor="start" x="335.5" y="-29.5" font-family="Helvetica,sans-Serif" font-size="10.00">+ finish()</text>
</a>
</g>
</g>
<!-- Node4&#45;&gt;Node5 -->
<g id="edge5" class="edge">
<title>Node4&#45;&gt;Node5</title>
<path fill="none" stroke="midnightblue" d="M410,-171.94C410,-155.6 410,-138.75 410,-123.73"/>
<polygon fill="none" stroke="midnightblue" points="406.5,-172.03 410,-182.03 413.5,-172.03 406.5,-172.03"/>
</g>
<!-- Node6 -->
<g id="node7" class="node">
<title>Node6</title>
<g id="a_node7"><a xlink:href="../../d4/d6d/classvanetza_1_1geonet_1_1IndicationContextSecuredDeserialize.html" target="_top" xlink:title=" ">
<polygon fill="white" stroke="black" points="511,-11.5 511,-134.5 649,-134.5 649,-11.5 511,-11.5"/>
<text text-anchor="start" x="519" y="-122.5" font-family="Helvetica,sans-Serif" font-size="10.00">vanetza::geonet::Indication</text>
<text text-anchor="middle" x="580" y="-111.5" font-family="Helvetica,sans-Serif" font-size="10.00">ContextSecuredDeserialize</text>
<polyline fill="none" stroke="black" points="511,-104.5 649,-104.5 "/>
<text text-anchor="start" x="519" y="-92.5" font-family="Helvetica,sans-Serif" font-size="10.00">&#45; m_packet</text>
<text text-anchor="start" x="519" y="-81.5" font-family="Helvetica,sans-Serif" font-size="10.00">&#45; m_parser</text>
<polyline fill="none" stroke="black" points="511,-74.5 649,-74.5 "/>
<text text-anchor="start" x="519" y="-62.5" font-family="Helvetica,sans-Serif" font-size="10.00">+ IndicationContextSecured</text>
<text text-anchor="start" x="519" y="-51.5" font-family="Helvetica,sans-Serif" font-size="10.00">Deserialize()</text>
<text text-anchor="start" x="519" y="-40.5" font-family="Helvetica,sans-Serif" font-size="10.00">+ parse_common()</text>
<text text-anchor="start" x="519" y="-29.5" font-family="Helvetica,sans-Serif" font-size="10.00">+ parse_extended()</text>
<text text-anchor="start" x="519" y="-18.5" font-family="Helvetica,sans-Serif" font-size="10.00">+ finish()</text>
</a>
</g>
</g>
<!-- Node4&#45;&gt;Node6 -->
<g id="edge6" class="edge">
<title>Node4&#45;&gt;Node6</title>
<path fill="none" stroke="midnightblue" d="M481.94,-174.66C494.96,-161.29 508.41,-147.49 521.01,-134.56"/>
<polygon fill="none" stroke="midnightblue" points="479.23,-172.43 474.75,-182.03 484.24,-177.31 479.23,-172.43"/>
</g>
</g>
</svg>
        <g id="navigator" transform="translate(0 0)" fill="#404254">
                <rect fill="#f2f5e9" fill-opacity="0.5" stroke="#606060" stroke-width=".5" x="0" y="0" width="60" height="60"/>
                <use id="zoomplus" xlink:href="#zoomPlus" x="17" y="9" onmousedown="handleZoom(evt,'in')"/>
                <use id="zoomminus" xlink:href="#zoomMin" x="42" y="9" onmousedown="handleZoom(evt,'out')"/>
                <use id="reset" xlink:href="#resetDef" x="30" y="36" onmousedown="handleReset()"/>
                <g id="arrowUp" xlink:href="#dirArrow" transform="translate(30 24)" onmousedown="handlePan(0,-1)">
                  <use xlink:href="#rim" fill="#404040">
                        <set attributeName="fill" to="#808080" begin="arrowUp.mouseover" end="arrowUp.mouseout"/>
                  </use>
                  <path fill="none" stroke="white" stroke-width="1.5" d="M0,-3.0v7 M-2.5,-0.5L0,-3.0L2.5,-0.5"/>
                </g>
                <g id="arrowRight" xlink:href="#dirArrow" transform="rotate(90) translate(36 -43)" onmousedown="handlePan(1,0)">
                  <use xlink:href="#rim" fill="#404040">
                        <set attributeName="fill" to="#808080" begin="arrowRight.mouseover" end="arrowRight.mouseout"/>
                  </use>
                  <path fill="none" stroke="white" stroke-width="1.5" d="M0,-3.0v7 M-2.5,-0.5L0,-3.0L2.5,-0.5"/>
                </g>
                <g id="arrowDown" xlink:href="#dirArrow" transform="rotate(180) translate(-30 -48)" onmousedown="handlePan(0,1)">
                  <use xlink:href="#rim" fill="#404040">
                        <set attributeName="fill" to="#808080" begin="arrowDown.mouseover" end="arrowDown.mouseout"/>
                  </use>
                  <path fill="none" stroke="white" stroke-width="1.5" d="M0,-3.0v7 M-2.5,-0.5L0,-3.0L2.5,-0.5"/>
                </g>
                <g id="arrowLeft" xlink:href="#dirArrow" transform="rotate(270) translate(-36 17)" onmousedown="handlePan(-1,0)">
                  <use xlink:href="#rim" fill="#404040">
                        <set attributeName="fill" to="#808080" begin="arrowLeft.mouseover" end="arrowLeft.mouseout"/>
                  </use>
                  <path fill="none" stroke="white" stroke-width="1.5" d="M0,-3.0v7 M-2.5,-0.5L0,-3.0L2.5,-0.5"/>
                </g>
        </g>
        <svg viewBox="0 0 15 15" width="100%" height="30px" preserveAspectRatio="xMaxYMin meet">
         <g id="arrow_out" transform="scale(0.3 0.3)">
          <a xlink:href="classvanetza_1_1geonet_1_1IndicationContext__inherit__graph_org.svg" target="_base">
           <rect id="button" ry="5" rx="5" y="6" x="6" height="38" width="38"
                fill="#f2f5e9" fill-opacity="0.5" stroke="#606060" stroke-width="1.0"/>
           <path id="arrow"
             d="M 11.500037,31.436501 C 11.940474,20.09759 22.043105,11.32322 32.158766,21.979434 L 37.068811,17.246167 C 37.068811,17.246167 37.088388,32 37.088388,32 L 22.160133,31.978069 C 22.160133,31.978069 26.997745,27.140456 26.997745,27.140456 C 18.528582,18.264221 13.291696,25.230495 11.500037,31.436501 z"
             style="fill:#404040;"/>
          </a>
         </g>
        </svg>
</svg>
