<?xml version="1.0" encoding="UTF-8" standalone="no"?>
<!DOCTYPE svg PUBLIC "-//W3C//DTD SVG 1.1//EN"
 "http://www.w3.org/Graphics/SVG/1.1/DTD/svg11.dtd">
<!-- Generated by graphviz version 2.42.3 (0)
 -->
<!-- Title: vanetza::convertible::byte_buffer_impl&lt; ByteBuffer &gt; Pages: 1 -->
<svg width="167pt" height="237pt"
 viewBox="0.00 0.00 167.00 237.00" xmlns="http://www.w3.org/2000/svg" xmlns:xlink="http://www.w3.org/1999/xlink">
<g id="graph0" class="graph" transform="scale(1 1) rotate(0) translate(4 233)">
<title>vanetza::convertible::byte_buffer_impl&lt; ByteBuffer &gt;</title>
<polygon fill="white" stroke="transparent" points="-4,4 -4,-233 163,-233 163,4 -4,4"/>
<!-- Node1 -->
<g id="node1" class="node">
<title>Node1</title>
<g id="a_node1"><a xlink:title=" ">
<polygon fill="#bfbfbf" stroke="black" points="0,-0.5 0,-90.5 159,-90.5 159,-0.5 0,-0.5"/>
<text text-anchor="start" x="8" y="-78.5" font-family="Helvetica,sans-Serif" font-size="10.00">vanetza::convertible</text>
<text text-anchor="middle" x="79.5" y="-67.5" font-family="Helvetica,sans-Serif" font-size="10.00">::byte_buffer_impl&lt; ByteBuffer &gt;</text>
<polyline fill="none" stroke="black" points="0,-60.5 159,-60.5 "/>
<text text-anchor="start" x="8" y="-48.5" font-family="Helvetica,sans-Serif" font-size="10.00">+ m_buffer</text>
<polyline fill="none" stroke="black" points="0,-41.5 159,-41.5 "/>
<text text-anchor="start" x="8" y="-29.5" font-family="Helvetica,sans-Serif" font-size="10.00">+ byte_buffer_impl()</text>
<text text-anchor="start" x="8" y="-18.5" font-family="Helvetica,sans-Serif" font-size="10.00">+ convert()</text>
<text text-anchor="start" x="8" y="-7.5" font-family="Helvetica,sans-Serif" font-size="10.00">+ size()</text>
</a>
</g>
</g>
<!-- Node2 -->
<g id="node2" class="node">
<title>Node2</title>
<g id="a_node2"><a xlink:href="../../d4/dce/structvanetza_1_1convertible_1_1byte__buffer.html" target="_top" xlink:title=" ">
<polygon fill="white" stroke="black" points="27.5,-127.5 27.5,-228.5 131.5,-228.5 131.5,-127.5 27.5,-127.5"/>
<text text-anchor="start" x="35.5" y="-216.5" font-family="Helvetica,sans-Serif" font-size="10.00">vanetza::convertible</text>
<text text-anchor="middle" x="79.5" y="-205.5" font-family="Helvetica,sans-Serif" font-size="10.00">::byte_buffer</text>
<polyline fill="none" stroke="black" points="27.5,-198.5 131.5,-198.5 "/>
<text text-anchor="middle" x="79.5" y="-186.5" font-family="Helvetica,sans-Serif" font-size="10.00"> </text>
<polyline fill="none" stroke="black" points="27.5,-179.5 131.5,-179.5 "/>
<text text-anchor="start" x="35.5" y="-167.5" font-family="Helvetica,sans-Serif" font-size="10.00">+ convert()</text>
<text text-anchor="start" x="35.5" y="-156.5" font-family="Helvetica,sans-Serif" font-size="10.00">+ size()</text>
<text text-anchor="start" x="35.5" y="-145.5" font-family="Helvetica,sans-Serif" font-size="10.00">+ duplicate()</text>
<text text-anchor="start" x="35.5" y="-134.5" font-family="Helvetica,sans-Serif" font-size="10.00">+ ~byte_buffer()</text>
</a>
</g>
</g>
<!-- Node2&#45;&gt;Node1 -->
<g id="edge1" class="edge">
<title>Node2&#45;&gt;Node1</title>
<path fill="none" stroke="midnightblue" d="M79.5,-117.23C79.5,-108.24 79.5,-99.1 79.5,-90.52"/>
<polygon fill="none" stroke="midnightblue" points="76,-117.29 79.5,-127.29 83,-117.29 76,-117.29"/>
</g>
</g>
</svg>
