<?xml version="1.0" encoding="UTF-8" standalone="no"?>
<!DOCTYPE svg PUBLIC "-//W3C//DTD SVG 1.1//EN"
 "http://www.w3.org/Graphics/SVG/1.1/DTD/svg11.dtd">
<!-- Generated by graphviz version 14.1.2 (0)
 -->
<!-- Title: vanetza::convertible::byte_buffer_impl&lt; ByteBuffer &gt; Pages: 1 -->
<svg width="256pt" height="519pt"
 viewBox="0.00 0.00 256.00 519.00" xmlns="http://www.w3.org/2000/svg" xmlns:xlink="http://www.w3.org/1999/xlink">
<g id="graph0" class="graph" transform="scale(1 1) rotate(0) translate(4 514.5)">
<title>vanetza::convertible::byte_buffer_impl&lt; ByteBuffer &gt;</title>
<!-- Node1 -->
<g id="Node000001" class="node">
<title>Node1</title>
<g id="a_Node000001"><a xlink:title=" ">
<polygon fill="#999999" stroke="none" points="170.75,-150.75 0,-150.75 0,0 170.75,0 170.75,-150.75"/>
<text xml:space="preserve" text-anchor="start" x="4" y="-137.25" font-family="Helvetica,sans-Serif" font-size="10.00">vanetza::convertible</text>
<text xml:space="preserve" text-anchor="start" x="4" y="-124.5" font-family="Helvetica,sans-Serif" font-size="10.00">::byte_buffer_impl&lt; ByteBuffer &gt;</text>
<text xml:space="preserve" text-anchor="start" x="19.12" y="-107.75" font-family="Helvetica,sans-Serif" font-size="10.00">+</text>
<text xml:space="preserve" text-anchor="start" x="46.5" y="-107.75" font-family="Helvetica,sans-Serif" font-size="10.00">m_buffer</text>
<text xml:space="preserve" text-anchor="start" x="21.38" y="-91" font-family="Helvetica,sans-Serif" font-size="10.00">&#45;</text>
<text xml:space="preserve" text-anchor="start" x="46.5" y="-91" font-family="Helvetica,sans-Serif" font-size="10.00">m_wrapper</text>
<text xml:space="preserve" text-anchor="start" x="19.12" y="-74.25" font-family="Helvetica,sans-Serif" font-size="10.00">+</text>
<text xml:space="preserve" text-anchor="start" x="46.5" y="-74.25" font-family="Helvetica,sans-Serif" font-size="10.00">byte_buffer_impl()</text>
<text xml:space="preserve" text-anchor="start" x="19.12" y="-57.5" font-family="Helvetica,sans-Serif" font-size="10.00">+</text>
<text xml:space="preserve" text-anchor="start" x="46.5" y="-57.5" font-family="Helvetica,sans-Serif" font-size="10.00">convert()</text>
<text xml:space="preserve" text-anchor="start" x="19.12" y="-40.75" font-family="Helvetica,sans-Serif" font-size="10.00">+</text>
<text xml:space="preserve" text-anchor="start" x="46.5" y="-40.75" font-family="Helvetica,sans-Serif" font-size="10.00">size()</text>
<text xml:space="preserve" text-anchor="start" x="19.12" y="-24" font-family="Helvetica,sans-Serif" font-size="10.00">+</text>
<text xml:space="preserve" text-anchor="start" x="46.5" y="-24" font-family="Helvetica,sans-Serif" font-size="10.00">duplicate()</text>
<text xml:space="preserve" text-anchor="start" x="19.12" y="-7.25" font-family="Helvetica,sans-Serif" font-size="10.00">+</text>
<text xml:space="preserve" text-anchor="start" x="46.5" y="-7.25" font-family="Helvetica,sans-Serif" font-size="10.00">wrapper()</text>
<polygon fill="#666666" stroke="#666666" points="0,-119.25 0,-119.25 170.75,-119.25 170.75,-119.25 0,-119.25"/>
<polygon fill="#666666" stroke="#666666" points="0,-85.75 0,-85.75 44.5,-85.75 44.5,-85.75 0,-85.75"/>
<polygon fill="#666666" stroke="#666666" points="44.5,-85.75 44.5,-85.75 170.75,-85.75 170.75,-85.75 44.5,-85.75"/>
<polygon fill="none" stroke="#666666" points="0,0 0,-150.75 170.75,-150.75 170.75,0 0,0"/>
</a>
</g>
</g>
<!-- Node2 -->
<g id="Node000002" class="node">
<title>Node2</title>
<g id="a_Node000002"><a xlink:href="../../d4/dce/structvanetza_1_1convertible_1_1byte__buffer.html" target="_top" xlink:title=" ">
<polygon fill="white" stroke="none" points="139.25,-510.5 31.5,-510.5 31.5,-393.25 139.25,-393.25 139.25,-510.5"/>
<text xml:space="preserve" text-anchor="start" x="35.5" y="-497" font-family="Helvetica,sans-Serif" font-size="10.00">vanetza::convertible</text>
<text xml:space="preserve" text-anchor="start" x="54.62" y="-484.25" font-family="Helvetica,sans-Serif" font-size="10.00">::byte_buffer</text>
<text xml:space="preserve" text-anchor="start" x="83.88" y="-467.5" font-family="Helvetica,sans-Serif" font-size="10.00"> </text>
<text xml:space="preserve" text-anchor="start" x="39.56" y="-450.75" font-family="Helvetica,sans-Serif" font-size="10.00">+</text>
<text xml:space="preserve" text-anchor="start" x="55.88" y="-450.75" font-family="Helvetica,sans-Serif" font-size="10.00">convert()</text>
<text xml:space="preserve" text-anchor="start" x="39.56" y="-434" font-family="Helvetica,sans-Serif" font-size="10.00">+</text>
<text xml:space="preserve" text-anchor="start" x="55.88" y="-434" font-family="Helvetica,sans-Serif" font-size="10.00">size()</text>
<text xml:space="preserve" text-anchor="start" x="39.56" y="-417.25" font-family="Helvetica,sans-Serif" font-size="10.00">+</text>
<text xml:space="preserve" text-anchor="start" x="55.88" y="-417.25" font-family="Helvetica,sans-Serif" font-size="10.00">duplicate()</text>
<text xml:space="preserve" text-anchor="start" x="39.56" y="-400.5" font-family="Helvetica,sans-Serif" font-size="10.00">+</text>
<text xml:space="preserve" text-anchor="start" x="55.88" y="-400.5" font-family="Helvetica,sans-Serif" font-size="10.00">~byte_buffer()</text>
<polygon fill="#bfbfbf" stroke="#bfbfbf" points="31.5,-479 31.5,-479 139.25,-479 139.25,-479 31.5,-479"/>
<polygon fill="#bfbfbf" stroke="#bfbfbf" points="31.5,-462.25 31.5,-462.25 139.25,-462.25 139.25,-462.25 31.5,-462.25"/>
<polygon fill="none" stroke="#bfbfbf" points="31.5,-393.25 31.5,-510.5 139.25,-510.5 139.25,-393.25 31.5,-393.25"/>
</a>
</g>
</g>
<!-- Node2&#45;&gt;Node1 -->
<g id="edge1_Node000001_Node000002" class="edge">
<title>Node2&#45;&gt;Node1</title>
<g id="a_edge1_Node000001_Node000002"><a xlink:title=" ">
<path fill="none" stroke="#63b8ff" d="M80.01,-382.13C78.21,-316.47 78.16,-217.8 79.87,-150.43"/>
<polygon fill="none" stroke="#63b8ff" points="76.51,-382.19 80.31,-392.08 83.51,-381.98 76.51,-382.19"/>
</a>
</g>
</g>
<!-- Node2&#45;&gt;Node1 -->
<g id="edge2_Node000001_Node000002" class="edge">
<title>Node2&#45;&gt;Node1</title>
<g id="a_edge2_Node000001_Node000002"><a xlink:title=" ">
<path fill="none" stroke="#63b8ff" d="M90.74,-382.13C92.54,-316.47 92.59,-217.8 90.88,-150.43"/>
<polygon fill="none" stroke="#63b8ff" points="87.24,-381.98 90.44,-392.08 94.24,-382.19 87.24,-381.98"/>
</a>
</g>
</g>
<!-- Node3 -->
<g id="Node000003" class="node">
<title>Node3</title>
<g id="a_Node000003"><a xlink:href="../../d7/deb/structvanetza_1_1convertible_1_1byte__buffer__impl.html" target="_top" xlink:title=" ">
<polygon fill="white" stroke="none" points="247.88,-356.25 122.88,-356.25 122.88,-205.5 247.88,-205.5 247.88,-356.25"/>
<text xml:space="preserve" text-anchor="start" x="126.88" y="-342.75" font-family="Helvetica,sans-Serif" font-size="10.00">vanetza::convertible</text>
<text xml:space="preserve" text-anchor="start" x="126.88" y="-330" font-family="Helvetica,sans-Serif" font-size="10.00">::byte_buffer_impl&lt; T &gt;</text>
<text xml:space="preserve" text-anchor="start" x="132.81" y="-313.25" font-family="Helvetica,sans-Serif" font-size="10.00">&#45;</text>
<text xml:space="preserve" text-anchor="start" x="146.5" y="-313.25" font-family="Helvetica,sans-Serif" font-size="10.00">m_wrapper</text>
<text xml:space="preserve" text-anchor="start" x="130.56" y="-296.5" font-family="Helvetica,sans-Serif" font-size="10.00">+</text>
<text xml:space="preserve" text-anchor="start" x="146.5" y="-296.5" font-family="Helvetica,sans-Serif" font-size="10.00">byte_buffer_impl()</text>
<text xml:space="preserve" text-anchor="start" x="130.56" y="-279.75" font-family="Helvetica,sans-Serif" font-size="10.00">+</text>
<text xml:space="preserve" text-anchor="start" x="146.5" y="-279.75" font-family="Helvetica,sans-Serif" font-size="10.00">byte_buffer_impl()</text>
<text xml:space="preserve" text-anchor="start" x="130.56" y="-263" font-family="Helvetica,sans-Serif" font-size="10.00">+</text>
<text xml:space="preserve" text-anchor="start" x="146.5" y="-263" font-family="Helvetica,sans-Serif" font-size="10.00">convert()</text>
<text xml:space="preserve" text-anchor="start" x="130.56" y="-246.25" font-family="Helvetica,sans-Serif" font-size="10.00">+</text>
<text xml:space="preserve" text-anchor="start" x="146.5" y="-246.25" font-family="Helvetica,sans-Serif" font-size="10.00">duplicate()</text>
<text xml:space="preserve" text-anchor="start" x="130.56" y="-229.5" font-family="Helvetica,sans-Serif" font-size="10.00">+</text>
<text xml:space="preserve" text-anchor="start" x="146.5" y="-229.5" font-family="Helvetica,sans-Serif" font-size="10.00">size()</text>
<text xml:space="preserve" text-anchor="start" x="130.56" y="-212.75" font-family="Helvetica,sans-Serif" font-size="10.00">+</text>
<text xml:space="preserve" text-anchor="start" x="146.5" y="-212.75" font-family="Helvetica,sans-Serif" font-size="10.00">wrapper()</text>
<polygon fill="#bfbfbf" stroke="#bfbfbf" points="122.88,-324.75 122.88,-324.75 247.88,-324.75 247.88,-324.75 122.88,-324.75"/>
<polygon fill="#bfbfbf" stroke="#bfbfbf" points="122.88,-308 122.88,-308 144.5,-308 144.5,-308 122.88,-308"/>
<polygon fill="#bfbfbf" stroke="#bfbfbf" points="144.5,-308 144.5,-308 247.88,-308 247.88,-308 144.5,-308"/>
<polygon fill="none" stroke="#bfbfbf" points="122.88,-205.5 122.88,-356.25 247.88,-356.25 247.88,-205.5 122.88,-205.5"/>
</a>
</g>
</g>
<!-- Node2&#45;&gt;Node3 -->
<g id="edge4_Node000003_Node000002" class="edge">
<title>Node2&#45;&gt;Node3</title>
<g id="a_edge4_Node000003_Node000002"><a xlink:title=" ">
<path fill="none" stroke="#63b8ff" d="M125.01,-383.89C130.41,-374.76 135.98,-365.35 141.45,-356.11"/>
<polygon fill="none" stroke="#63b8ff" points="122.08,-381.97 120,-392.36 128.11,-385.53 122.08,-381.97"/>
</a>
</g>
</g>
<!-- Node3&#45;&gt;Node1 -->
<g id="edge3_Node000001_Node000003" class="edge">
<title>Node3&#45;&gt;Node1</title>
<g id="a_edge3_Node000001_Node000003"><a xlink:title=" ">
<path fill="none" stroke="orange" d="M143.83,-195.34C136.52,-180.46 128.96,-165.07 121.8,-150.51"/>
<polygon fill="orange" stroke="orange" points="140.63,-196.75 148.18,-204.18 146.91,-193.67 140.63,-196.75"/>
</a>
</g>
<text xml:space="preserve" text-anchor="start" x="141.37" y="-175" font-family="Helvetica,sans-Serif" font-size="10.00" fill="grey">&lt; ByteBuffer &gt;</text>
</g>
</g>
</svg>
