<?xml version="1.0" encoding="UTF-8" standalone="no"?>
<!DOCTYPE svg PUBLIC "-//W3C//DTD SVG 1.1//EN"
 "http://www.w3.org/Graphics/SVG/1.1/DTD/svg11.dtd">
<!-- Generated by graphviz version 2.49.3 (0)
 -->
<!-- Title: vanetza::convertible::byte_buffer_impl&lt; ByteBuffer &gt; Pages: 1 -->
<svg width="235pt" height="473pt"
 viewBox="0.00 0.00 235.00 473.00" xmlns="http://www.w3.org/2000/svg" xmlns:xlink="http://www.w3.org/1999/xlink">
<g id="graph0" class="graph" transform="scale(1 1) rotate(0) translate(4 469)">
<title>vanetza::convertible::byte_buffer_impl&lt; ByteBuffer &gt;</title>
<!-- Node1 -->
<g id="Node000001" class="node">
<title>Node1</title>
<g id="a_Node000001"><a xlink:title=" ">
<polygon fill="#999999" stroke="transparent" points="153,-135 0,-135 0,0 153,0 153,-135"/>
<text text-anchor="start" x="5.5" y="-122.5" font-family="Helvetica,sans-Serif" font-size="10.00">vanetza::convertible</text>
<text text-anchor="start" x="5.5" y="-111.5" font-family="Helvetica,sans-Serif" font-size="10.00">::byte_buffer_impl&lt; ByteBuffer &gt;</text>
<text text-anchor="start" x="18" y="-96.5" font-family="Helvetica,sans-Serif" font-size="10.00">+</text>
<text text-anchor="start" x="42.5" y="-96.5" font-family="Helvetica,sans-Serif" font-size="10.00">m_buffer</text>
<text text-anchor="start" x="19.5" y="-81.5" font-family="Helvetica,sans-Serif" font-size="10.00">&#45;</text>
<text text-anchor="start" x="42.5" y="-81.5" font-family="Helvetica,sans-Serif" font-size="10.00">m_wrapper</text>
<text text-anchor="start" x="18" y="-66.5" font-family="Helvetica,sans-Serif" font-size="10.00">+</text>
<text text-anchor="start" x="42.5" y="-66.5" font-family="Helvetica,sans-Serif" font-size="10.00">byte_buffer_impl()</text>
<text text-anchor="start" x="18" y="-51.5" font-family="Helvetica,sans-Serif" font-size="10.00">+</text>
<text text-anchor="start" x="42.5" y="-51.5" font-family="Helvetica,sans-Serif" font-size="10.00">convert()</text>
<text text-anchor="start" x="18" y="-36.5" font-family="Helvetica,sans-Serif" font-size="10.00">+</text>
<text text-anchor="start" x="42.5" y="-36.5" font-family="Helvetica,sans-Serif" font-size="10.00">size()</text>
<text text-anchor="start" x="18" y="-21.5" font-family="Helvetica,sans-Serif" font-size="10.00">+</text>
<text text-anchor="start" x="42.5" y="-21.5" font-family="Helvetica,sans-Serif" font-size="10.00">duplicate()</text>
<text text-anchor="start" x="18" y="-6.5" font-family="Helvetica,sans-Serif" font-size="10.00">+</text>
<text text-anchor="start" x="42.5" y="-6.5" font-family="Helvetica,sans-Serif" font-size="10.00">wrapper()</text>
<polygon fill="#666666" stroke="#666666" points="0.5,-106.5 0.5,-106.5 153.5,-106.5 153.5,-106.5 0.5,-106.5"/>
<polygon fill="#666666" stroke="#666666" points="0.5,-76.5 0.5,-76.5 40.5,-76.5 40.5,-76.5 0.5,-76.5"/>
<polygon fill="#666666" stroke="#666666" points="40.5,-76.5 40.5,-76.5 153.5,-76.5 153.5,-76.5 40.5,-76.5"/>
<polygon fill="none" stroke="#666666" points="0,0 0,-135 153,-135 153,0 0,0"/>
</a>
</g>
</g>
<!-- Node2 -->
<g id="Node000002" class="node">
<title>Node2</title>
<g id="a_Node000002"><a xlink:href="../../d4/dce/structvanetza_1_1convertible_1_1byte__buffer.html" target="_top" xlink:title=" ">
<polygon fill="white" stroke="transparent" points="125.5,-465 27.5,-465 27.5,-360 125.5,-360 125.5,-465"/>
<text text-anchor="start" x="32.5" y="-452.5" font-family="Helvetica,sans-Serif" font-size="10.00">vanetza::convertible</text>
<text text-anchor="start" x="49" y="-441.5" font-family="Helvetica,sans-Serif" font-size="10.00">::byte_buffer</text>
<text text-anchor="start" x="74.5" y="-426.5" font-family="Helvetica,sans-Serif" font-size="10.00"> </text>
<text text-anchor="start" x="36" y="-411.5" font-family="Helvetica,sans-Serif" font-size="10.00">+</text>
<text text-anchor="start" x="51.5" y="-411.5" font-family="Helvetica,sans-Serif" font-size="10.00">convert()</text>
<text text-anchor="start" x="36" y="-396.5" font-family="Helvetica,sans-Serif" font-size="10.00">+</text>
<text text-anchor="start" x="51.5" y="-396.5" font-family="Helvetica,sans-Serif" font-size="10.00">size()</text>
<text text-anchor="start" x="36" y="-381.5" font-family="Helvetica,sans-Serif" font-size="10.00">+</text>
<text text-anchor="start" x="51.5" y="-381.5" font-family="Helvetica,sans-Serif" font-size="10.00">duplicate()</text>
<text text-anchor="start" x="36" y="-366.5" font-family="Helvetica,sans-Serif" font-size="10.00">+</text>
<text text-anchor="start" x="51.5" y="-366.5" font-family="Helvetica,sans-Serif" font-size="10.00">~byte_buffer()</text>
<polygon fill="#bfbfbf" stroke="#bfbfbf" points="27.5,-436.5 27.5,-436.5 125.5,-436.5 125.5,-436.5 27.5,-436.5"/>
<polygon fill="#bfbfbf" stroke="#bfbfbf" points="27.5,-421.5 27.5,-421.5 125.5,-421.5 125.5,-421.5 27.5,-421.5"/>
<polygon fill="none" stroke="#bfbfbf" points="27.5,-360 27.5,-465 125.5,-465 125.5,-360 27.5,-360"/>
</a>
</g>
</g>
<!-- Node2&#45;&gt;Node1 -->
<g id="edge1_Node000001_Node000002" class="edge">
<title>Node2&#45;&gt;Node1</title>
<g id="a_edge1_Node000001_Node000002"><a xlink:title=" ">
<path fill="none" stroke="#63b8ff" d="M71.17,-349.6C69.32,-289.07 69.28,-197.18 71.03,-135.09"/>
<polygon fill="none" stroke="#63b8ff" points="67.67,-349.9 71.5,-359.78 74.67,-349.67 67.67,-349.9"/>
</a>
</g>
</g>
<!-- Node2&#45;&gt;Node1 -->
<g id="edge2_Node000001_Node000002" class="edge">
<title>Node2&#45;&gt;Node1</title>
<g id="a_edge2_Node000001_Node000002"><a xlink:title=" ">
<path fill="none" stroke="#63b8ff" d="M81.83,-349.6C83.68,-289.07 83.72,-197.18 81.97,-135.09"/>
<polygon fill="none" stroke="#63b8ff" points="78.33,-349.67 81.5,-359.78 85.33,-349.9 78.33,-349.67"/>
</a>
</g>
</g>
<!-- Node3 -->
<g id="Node000003" class="node">
<title>Node3</title>
<g id="a_Node000003"><a xlink:href="../../d7/deb/structvanetza_1_1convertible_1_1byte__buffer__impl.html" target="_top" xlink:title=" ">
<polygon fill="white" stroke="transparent" points="227,-323 114,-323 114,-188 227,-188 227,-323"/>
<text text-anchor="start" x="119.5" y="-310.5" font-family="Helvetica,sans-Serif" font-size="10.00">vanetza::convertible</text>
<text text-anchor="start" x="119.5" y="-299.5" font-family="Helvetica,sans-Serif" font-size="10.00">::byte_buffer_impl&lt; T &gt;</text>
<text text-anchor="start" x="123.5" y="-284.5" font-family="Helvetica,sans-Serif" font-size="10.00">&#45;</text>
<text text-anchor="start" x="136.5" y="-284.5" font-family="Helvetica,sans-Serif" font-size="10.00">m_wrapper</text>
<text text-anchor="start" x="122" y="-269.5" font-family="Helvetica,sans-Serif" font-size="10.00">+</text>
<text text-anchor="start" x="136.5" y="-269.5" font-family="Helvetica,sans-Serif" font-size="10.00">byte_buffer_impl()</text>
<text text-anchor="start" x="122" y="-254.5" font-family="Helvetica,sans-Serif" font-size="10.00">+</text>
<text text-anchor="start" x="136.5" y="-254.5" font-family="Helvetica,sans-Serif" font-size="10.00">byte_buffer_impl()</text>
<text text-anchor="start" x="122" y="-239.5" font-family="Helvetica,sans-Serif" font-size="10.00">+</text>
<text text-anchor="start" x="136.5" y="-239.5" font-family="Helvetica,sans-Serif" font-size="10.00">convert()</text>
<text text-anchor="start" x="122" y="-224.5" font-family="Helvetica,sans-Serif" font-size="10.00">+</text>
<text text-anchor="start" x="136.5" y="-224.5" font-family="Helvetica,sans-Serif" font-size="10.00">duplicate()</text>
<text text-anchor="start" x="122" y="-209.5" font-family="Helvetica,sans-Serif" font-size="10.00">+</text>
<text text-anchor="start" x="136.5" y="-209.5" font-family="Helvetica,sans-Serif" font-size="10.00">size()</text>
<text text-anchor="start" x="122" y="-194.5" font-family="Helvetica,sans-Serif" font-size="10.00">+</text>
<text text-anchor="start" x="136.5" y="-194.5" font-family="Helvetica,sans-Serif" font-size="10.00">wrapper()</text>
<polygon fill="#bfbfbf" stroke="#bfbfbf" points="114.5,-294.5 114.5,-294.5 227.5,-294.5 227.5,-294.5 114.5,-294.5"/>
<polygon fill="#bfbfbf" stroke="#bfbfbf" points="114.5,-279.5 114.5,-279.5 134.5,-279.5 134.5,-279.5 114.5,-279.5"/>
<polygon fill="#bfbfbf" stroke="#bfbfbf" points="134.5,-279.5 134.5,-279.5 227.5,-279.5 227.5,-279.5 134.5,-279.5"/>
<polygon fill="none" stroke="#bfbfbf" points="114,-188 114,-323 227,-323 227,-188 114,-188"/>
</a>
</g>
</g>
<!-- Node2&#45;&gt;Node3 -->
<g id="edge4_Node000003_Node000002" class="edge">
<title>Node2&#45;&gt;Node3</title>
<g id="a_edge4_Node000003_Node000002"><a xlink:title=" ">
<path fill="none" stroke="#63b8ff" d="M113.09,-351.17C118.68,-341.95 124.47,-332.4 130.14,-323.05"/>
<polygon fill="none" stroke="#63b8ff" points="109.99,-349.52 107.8,-359.89 115.98,-353.15 109.99,-349.52"/>
</a>
</g>
</g>
<!-- Node3&#45;&gt;Node1 -->
<g id="edge3_Node000001_Node000003" class="edge">
<title>Node3&#45;&gt;Node1</title>
<g id="a_edge3_Node000001_Node000003"><a xlink:title=" ">
<path fill="none" stroke="orange" d="M132.12,-178.55C124.87,-164.21 117.34,-149.31 110.25,-135.28"/>
<polygon fill="orange" stroke="orange" points="129.2,-180.53 136.83,-187.88 135.44,-177.37 129.2,-180.53"/>
</a>
</g>
<text text-anchor="start" x="129" y="-158.5" font-family="Helvetica,sans-Serif" font-size="10.00" fill="grey">&lt; ByteBuffer &gt;</text>
</g>
</g>
</svg>
