<?xml version="1.0" encoding="UTF-8" standalone="no"?>
<!DOCTYPE svg PUBLIC "-//W3C//DTD SVG 1.1//EN"
 "http://www.w3.org/Graphics/SVG/1.1/DTD/svg11.dtd">
<!-- Generated by graphviz version 2.49.3 (0)
 -->
<!-- Title: vanetza::geonet::TsbDataRequest Pages: 1 -->
<svg width="150pt" height="258pt"
 viewBox="0.00 0.00 150.00 258.00" xmlns="http://www.w3.org/2000/svg" xmlns:xlink="http://www.w3.org/1999/xlink">

<svg id="main" version="1.1" xmlns="http://www.w3.org/2000/svg" xmlns:xlink="http://www.w3.org/1999/xlink" xml:space="preserve">

<style type="text/css"><![CDATA[
.node, .edge {opacity: 0.7;}
.node.selected, .edge.selected {opacity: 1;}
.edge:hover path { stroke: red; }
.edge:hover polygon { stroke: red; fill: red; }
]]></style>
<script type="application/ecmascript" xlink:href="../../svg.min.js"/>
<svg id="graph" class="graph">
<g id="graph0" class="graph" transform="scale(1 1) rotate(0) translate(4 254)">
<title>vanetza::geonet::TsbDataRequest</title>
<!-- Node1 -->
<g id="Node000001" class="node">
<title>Node1</title>
<g id="a_Node000001"><a xlink:title=" ">
<polygon fill="#999999" stroke="transparent" points="132,-60 10,-60 10,0 132,0 132,-60"/>
<text text-anchor="start" x="15" y="-48" font-family="Helvetica,sans-Serif" font-size="10.00">vanetza::geonet::TsbData</text>
<text text-anchor="start" x="52.5" y="-37" font-family="Helvetica,sans-Serif" font-size="10.00">Request</text>
<text text-anchor="start" x="69" y="-22" font-family="Helvetica,sans-Serif" font-size="10.00"> </text>
<text text-anchor="start" x="23.5" y="-7" font-family="Helvetica,sans-Serif" font-size="10.00">+</text>
<text text-anchor="start" x="44" y="-7" font-family="Helvetica,sans-Serif" font-size="10.00">DataRequest()</text>
<polygon fill="#666666" stroke="#666666" points="10,-32 10,-32 132,-32 132,-32 10,-32"/>
<polygon fill="#666666" stroke="#666666" points="10,-17 10,-17 132,-17 132,-17 10,-17"/>
<polygon fill="none" stroke="#666666" points="10,0 10,-60 132,-60 132,0 10,0"/>
</a>
</g>
</g>
<!-- Node2 -->
<g id="Node000002" class="node">
<title>Node2</title>
<g id="a_Node000002"><a xlink:href="../../d1/d1f/structvanetza_1_1geonet_1_1DataRequest.html" target="_top" xlink:title=" ">
<polygon fill="white" stroke="transparent" points="142,-250 0,-250 0,-96 142,-96 142,-250"/>
<text text-anchor="start" x="5" y="-238" font-family="Helvetica,sans-Serif" font-size="10.00">vanetza::geonet::DataRequest</text>
<text text-anchor="start" x="10" y="-223" font-family="Helvetica,sans-Serif" font-size="10.00">+</text>
<text text-anchor="start" x="27" y="-223" font-family="Helvetica,sans-Serif" font-size="10.00">upper_protocol</text>
<text text-anchor="start" x="10" y="-208" font-family="Helvetica,sans-Serif" font-size="10.00">+</text>
<text text-anchor="start" x="27" y="-208" font-family="Helvetica,sans-Serif" font-size="10.00">communication_profile</text>
<text text-anchor="start" x="10" y="-193" font-family="Helvetica,sans-Serif" font-size="10.00">+</text>
<text text-anchor="start" x="27" y="-193" font-family="Helvetica,sans-Serif" font-size="10.00">its_aid</text>
<text text-anchor="start" x="10" y="-178" font-family="Helvetica,sans-Serif" font-size="10.00">+</text>
<text text-anchor="start" x="27" y="-178" font-family="Helvetica,sans-Serif" font-size="10.00">permissions</text>
<text text-anchor="start" x="10" y="-163" font-family="Helvetica,sans-Serif" font-size="10.00">+</text>
<text text-anchor="start" x="27" y="-163" font-family="Helvetica,sans-Serif" font-size="10.00">maximum_lifetime</text>
<text text-anchor="start" x="10" y="-148" font-family="Helvetica,sans-Serif" font-size="10.00">+</text>
<text text-anchor="start" x="27" y="-148" font-family="Helvetica,sans-Serif" font-size="10.00">repetition</text>
<text text-anchor="start" x="10" y="-133" font-family="Helvetica,sans-Serif" font-size="10.00">+</text>
<text text-anchor="start" x="27" y="-133" font-family="Helvetica,sans-Serif" font-size="10.00">max_hop_limit</text>
<text text-anchor="start" x="10" y="-118" font-family="Helvetica,sans-Serif" font-size="10.00">+</text>
<text text-anchor="start" x="27" y="-118" font-family="Helvetica,sans-Serif" font-size="10.00">traffic_class</text>
<text text-anchor="start" x="10" y="-103" font-family="Helvetica,sans-Serif" font-size="10.00">+</text>
<text text-anchor="start" x="27" y="-103" font-family="Helvetica,sans-Serif" font-size="10.00">DataRequest()</text>
<polygon fill="#bfbfbf" stroke="#bfbfbf" points="0,-233 0,-233 142,-233 142,-233 0,-233"/>
<polygon fill="#bfbfbf" stroke="#bfbfbf" points="0,-113 0,-113 25,-113 25,-113 0,-113"/>
<polygon fill="#bfbfbf" stroke="#bfbfbf" points="25,-113 25,-113 142,-113 142,-113 25,-113"/>
<polygon fill="none" stroke="#bfbfbf" points="0,-96 0,-250 142,-250 142,-96 0,-96"/>
</a>
</g>
</g>
<!-- Node2&#45;&gt;Node1 -->
<g id="edge1_Node000001_Node000002" class="edge">
<title>Node2&#45;&gt;Node1</title>
<g id="a_edge1_Node000001_Node000002"><a xlink:title=" ">
<path fill="none" stroke="#63b8ff" d="M71,-85.48C71,-76.52 71,-67.93 71,-60.32"/>
<polygon fill="none" stroke="#63b8ff" points="67.5,-85.72 71,-95.72 74.5,-85.72 67.5,-85.72"/>
</a>
</g>
</g>
</g>
</svg>
</svg>

<style type='text/css'>
<![CDATA[
[data-mouse-over-selected='false'] { opacity: 0.7; }
[data-mouse-over-selected='true']  { opacity: 1.0; }
]]>
</style>
<script type="application/ecmascript"><![CDATA[
document.addEventListener('DOMContentLoaded', (event) => {
  highlightEdges();
  highlightAdjacentNodes();
});
]]></script>
</svg>
