<?xml version="1.0" encoding="UTF-8" standalone="no"?>
<!DOCTYPE svg PUBLIC "-//W3C//DTD SVG 1.1//EN"
 "http://www.w3.org/Graphics/SVG/1.1/DTD/svg11.dtd">
<!-- Generated by graphviz version 2.49.3 (0)
 -->
<!-- Title: vanetza::geonet::DccFieldGenerator Pages: 1 -->
<svg width="298pt" height="359pt"
 viewBox="0.00 0.00 298.00 359.00" xmlns="http://www.w3.org/2000/svg" xmlns:xlink="http://www.w3.org/1999/xlink">
<g id="graph0" class="graph" transform="scale(1 1) rotate(0) translate(4 355)">
<title>vanetza::geonet::DccFieldGenerator</title>
<!-- Node1 -->
<g id="Node000001" class="node">
<title>Node1</title>
<g id="a_Node000001"><a xlink:title=" ">
<polygon fill="#999999" stroke="transparent" points="215,-351 91,-351 91,-276 215,-276 215,-351"/>
<text text-anchor="start" x="96" y="-338.5" font-family="Helvetica,sans-Serif" font-size="10.00">vanetza::geonet::DccField</text>
<text text-anchor="start" x="131.5" y="-327.5" font-family="Helvetica,sans-Serif" font-size="10.00">Generator</text>
<text text-anchor="start" x="151" y="-312.5" font-family="Helvetica,sans-Serif" font-size="10.00"> </text>
<text text-anchor="start" x="97.5" y="-297.5" font-family="Helvetica,sans-Serif" font-size="10.00">+</text>
<text text-anchor="start" x="111" y="-297.5" font-family="Helvetica,sans-Serif" font-size="10.00">generate_dcc_field()</text>
<text text-anchor="start" x="97.5" y="-282.5" font-family="Helvetica,sans-Serif" font-size="10.00">+</text>
<text text-anchor="start" x="111" y="-282.5" font-family="Helvetica,sans-Serif" font-size="10.00">~DccFieldGenerator()</text>
<polygon fill="#666666" stroke="#666666" points="91,-322.5 91,-322.5 215,-322.5 215,-322.5 91,-322.5"/>
<polygon fill="#666666" stroke="#666666" points="91,-307.5 91,-307.5 215,-307.5 215,-307.5 91,-307.5"/>
<polygon fill="none" stroke="#666666" points="91,-276 91,-351 215,-351 215,-276 91,-276"/>
</a>
</g>
</g>
<!-- Node2 -->
<g id="Node000002" class="node">
<title>Node2</title>
<g id="a_Node000002"><a xlink:href="../../d4/d6e/classvanetza_1_1geonet_1_1DccInformationSharing.html" target="_top" xlink:title=" ">
<polygon fill="white" stroke="transparent" points="152,-240 0,-240 0,0 152,0 152,-240"/>
<text text-anchor="start" x="5" y="-228" font-family="Helvetica,sans-Serif" font-size="10.00">vanetza::geonet::DccInformation</text>
<text text-anchor="start" x="59" y="-217" font-family="Helvetica,sans-Serif" font-size="10.00">Sharing</text>
<text text-anchor="start" x="10.5" y="-202" font-family="Helvetica,sans-Serif" font-size="10.00">+</text>
<text text-anchor="start" x="28" y="-202" font-family="Helvetica,sans-Serif" font-size="10.00">on_global_cbr_update</text>
<text text-anchor="start" x="12" y="-187" font-family="Helvetica,sans-Serif" font-size="10.00">&#45;</text>
<text text-anchor="start" x="28" y="-187" font-family="Helvetica,sans-Serif" font-size="10.00">m_runtime</text>
<text text-anchor="start" x="12" y="-172" font-family="Helvetica,sans-Serif" font-size="10.00">&#45;</text>
<text text-anchor="start" x="28" y="-172" font-family="Helvetica,sans-Serif" font-size="10.00">m_location_table</text>
<text text-anchor="start" x="12" y="-157" font-family="Helvetica,sans-Serif" font-size="10.00">&#45;</text>
<text text-anchor="start" x="28" y="-157" font-family="Helvetica,sans-Serif" font-size="10.00">m_cbr_target</text>
<text text-anchor="start" x="12" y="-142" font-family="Helvetica,sans-Serif" font-size="10.00">&#45;</text>
<text text-anchor="start" x="28" y="-142" font-family="Helvetica,sans-Serif" font-size="10.00">m_cbr_local</text>
<text text-anchor="start" x="12" y="-127" font-family="Helvetica,sans-Serif" font-size="10.00">&#45;</text>
<text text-anchor="start" x="28" y="-127" font-family="Helvetica,sans-Serif" font-size="10.00">m_aggregator</text>
<text text-anchor="start" x="12" y="-112" font-family="Helvetica,sans-Serif" font-size="10.00">&#45;</text>
<text text-anchor="start" x="28" y="-112" font-family="Helvetica,sans-Serif" font-size="10.00">m_trigger_interval</text>
<text text-anchor="start" x="12" y="-97" font-family="Helvetica,sans-Serif" font-size="10.00">&#45;</text>
<text text-anchor="start" x="28" y="-97" font-family="Helvetica,sans-Serif" font-size="10.00">m_last_aggregation</text>
<text text-anchor="start" x="12" y="-82" font-family="Helvetica,sans-Serif" font-size="10.00">&#45;</text>
<text text-anchor="start" x="28" y="-82" font-family="Helvetica,sans-Serif" font-size="10.00">m_update_hook</text>
<text text-anchor="start" x="10.5" y="-67" font-family="Helvetica,sans-Serif" font-size="10.00">+</text>
<text text-anchor="start" x="28" y="-67" font-family="Helvetica,sans-Serif" font-size="10.00">DccInformationSharing()</text>
<text text-anchor="start" x="10.5" y="-52" font-family="Helvetica,sans-Serif" font-size="10.00">+</text>
<text text-anchor="start" x="28" y="-52" font-family="Helvetica,sans-Serif" font-size="10.00">DccInformationSharing()</text>
<text text-anchor="start" x="10.5" y="-37" font-family="Helvetica,sans-Serif" font-size="10.00">+</text>
<text text-anchor="start" x="28" y="-37" font-family="Helvetica,sans-Serif" font-size="10.00">generate_dcc_field()</text>
<text text-anchor="start" x="10.5" y="-22" font-family="Helvetica,sans-Serif" font-size="10.00">+</text>
<text text-anchor="start" x="28" y="-22" font-family="Helvetica,sans-Serif" font-size="10.00">update_local_cbr()</text>
<text text-anchor="start" x="12" y="-7" font-family="Helvetica,sans-Serif" font-size="10.00">&#45;</text>
<text text-anchor="start" x="28" y="-7" font-family="Helvetica,sans-Serif" font-size="10.00">trigger()</text>
<polygon fill="#666666" stroke="#666666" points="0,-212 0,-212 152,-212 152,-212 0,-212"/>
<polygon fill="#666666" stroke="#666666" points="0,-77 0,-77 26,-77 26,-77 0,-77"/>
<polygon fill="#666666" stroke="#666666" points="26,-77 26,-77 152,-77 152,-77 26,-77"/>
<polygon fill="none" stroke="#666666" points="0,0 0,-240 152,-240 152,0 0,0"/>
</a>
</g>
</g>
<!-- Node1&#45;&gt;Node2 -->
<g id="edge1_Node000001_Node000002" class="edge">
<title>Node1&#45;&gt;Node2</title>
<g id="a_edge1_Node000001_Node000002"><a xlink:title=" ">
<path fill="none" stroke="#63b8ff" d="M134.33,-266.07C131.08,-257.99 127.58,-249.27 123.95,-240.26"/>
<polygon fill="none" stroke="#63b8ff" points="131.18,-267.6 138.15,-275.58 137.67,-264.99 131.18,-267.6"/>
</a>
</g>
</g>
<!-- Node3 -->
<g id="Node000003" class="node">
<title>Node3</title>
<g id="a_Node000003"><a xlink:href="../../d1/dd1/classvanetza_1_1geonet_1_1NullDccFieldGenerator.html" target="_top" xlink:title=" ">
<polygon fill="white" stroke="transparent" points="290,-150 170,-150 170,-90 290,-90 290,-150"/>
<text text-anchor="start" x="175" y="-138" font-family="Helvetica,sans-Serif" font-size="10.00">vanetza::geonet::NullDcc</text>
<text text-anchor="start" x="198" y="-127" font-family="Helvetica,sans-Serif" font-size="10.00">FieldGenerator</text>
<text text-anchor="start" x="228" y="-112" font-family="Helvetica,sans-Serif" font-size="10.00"> </text>
<text text-anchor="start" x="177" y="-97" font-family="Helvetica,sans-Serif" font-size="10.00">+</text>
<text text-anchor="start" x="191" y="-97" font-family="Helvetica,sans-Serif" font-size="10.00">generate_dcc_field()</text>
<polygon fill="#bfbfbf" stroke="#bfbfbf" points="170,-122 170,-122 290,-122 290,-122 170,-122"/>
<polygon fill="#bfbfbf" stroke="#bfbfbf" points="170,-107 170,-107 290,-107 290,-107 170,-107"/>
<polygon fill="none" stroke="#bfbfbf" points="170,-90 170,-150 290,-150 290,-90 170,-90"/>
</a>
</g>
</g>
<!-- Node1&#45;&gt;Node3 -->
<g id="edge2_Node000001_Node000003" class="edge">
<title>Node1&#45;&gt;Node3</title>
<g id="a_edge2_Node000001_Node000003"><a xlink:title=" ">
<path fill="none" stroke="#63b8ff" d="M171.6,-266.24C186.11,-230.15 205.82,-181.14 218.22,-150.29"/>
<polygon fill="none" stroke="#63b8ff" points="168.33,-264.99 167.85,-275.58 174.82,-267.6 168.33,-264.99"/>
</a>
</g>
</g>
</g>
</svg>
