<?xml version="1.0" encoding="UTF-8" standalone="no"?>
<!DOCTYPE svg PUBLIC "-//W3C//DTD SVG 1.1//EN"
 "http://www.w3.org/Graphics/SVG/1.1/DTD/svg11.dtd">
<!-- Generated by graphviz version 2.42.1 (0)
 -->
<!-- Title: vanetza::geonet::DccFieldGenerator Pages: 1 -->
<svg width="314pt" height="325pt"
 viewBox="0.00 0.00 313.50 325.00" xmlns="http://www.w3.org/2000/svg" xmlns:xlink="http://www.w3.org/1999/xlink">
<g id="graph0" class="graph" transform="scale(1 1) rotate(0) translate(4 321)">
<title>vanetza::geonet::DccFieldGenerator</title>
<polygon fill="white" stroke="transparent" points="-4,4 -4,-321 309.5,-321 309.5,4 -4,4"/>
<!-- Node0 -->
<g id="node1" class="node">
<title>Node0</title>
<g id="a_node1"><a xlink:title=" ">
<polygon fill="#bfbfbf" stroke="black" points="95,-237.5 95,-316.5 226,-316.5 226,-237.5 95,-237.5"/>
<text text-anchor="start" x="103" y="-304.5" font-family="Helvetica,sans-Serif" font-size="10.00">vanetza::geonet::DccField</text>
<text text-anchor="middle" x="160.5" y="-293.5" font-family="Helvetica,sans-Serif" font-size="10.00">Generator</text>
<polyline fill="none" stroke="black" points="95,-286.5 226,-286.5 "/>
<text text-anchor="middle" x="160.5" y="-274.5" font-family="Helvetica,sans-Serif" font-size="10.00"> </text>
<polyline fill="none" stroke="black" points="95,-267.5 226,-267.5 "/>
<text text-anchor="start" x="103" y="-255.5" font-family="Helvetica,sans-Serif" font-size="10.00">+ generate_dcc_field()</text>
<text text-anchor="start" x="103" y="-244.5" font-family="Helvetica,sans-Serif" font-size="10.00">+ ~DccFieldGenerator()</text>
</a>
</g>
</g>
<!-- Node1 -->
<g id="node2" class="node">
<title>Node1</title>
<g id="a_node2"><a xlink:href="../../d4/d6e/classvanetza_1_1geonet_1_1DccInformationSharing.html" target="_top" xlink:title=" ">
<polygon fill="white" stroke="black" points="0,-0.5 0,-200.5 159,-200.5 159,-0.5 0,-0.5"/>
<text text-anchor="start" x="8" y="-188.5" font-family="Helvetica,sans-Serif" font-size="10.00">vanetza::geonet::DccInformation</text>
<text text-anchor="middle" x="79.5" y="-177.5" font-family="Helvetica,sans-Serif" font-size="10.00">Sharing</text>
<polyline fill="none" stroke="black" points="0,-170.5 159,-170.5 "/>
<text text-anchor="start" x="8" y="-158.5" font-family="Helvetica,sans-Serif" font-size="10.00">+ on_global_cbr_update</text>
<text text-anchor="start" x="8" y="-147.5" font-family="Helvetica,sans-Serif" font-size="10.00">&#45; m_runtime</text>
<text text-anchor="start" x="8" y="-136.5" font-family="Helvetica,sans-Serif" font-size="10.00">&#45; m_location_table</text>
<text text-anchor="start" x="8" y="-125.5" font-family="Helvetica,sans-Serif" font-size="10.00">&#45; m_cbr_target</text>
<text text-anchor="start" x="8" y="-114.5" font-family="Helvetica,sans-Serif" font-size="10.00">&#45; m_cbr_local</text>
<text text-anchor="start" x="8" y="-103.5" font-family="Helvetica,sans-Serif" font-size="10.00">&#45; m_aggregator</text>
<text text-anchor="start" x="8" y="-92.5" font-family="Helvetica,sans-Serif" font-size="10.00">&#45; m_trigger_interval</text>
<text text-anchor="start" x="8" y="-81.5" font-family="Helvetica,sans-Serif" font-size="10.00">&#45; m_last_aggregation</text>
<text text-anchor="start" x="8" y="-70.5" font-family="Helvetica,sans-Serif" font-size="10.00">&#45; m_update_hook</text>
<polyline fill="none" stroke="black" points="0,-63.5 159,-63.5 "/>
<text text-anchor="start" x="8" y="-51.5" font-family="Helvetica,sans-Serif" font-size="10.00">+ DccInformationSharing()</text>
<text text-anchor="start" x="8" y="-40.5" font-family="Helvetica,sans-Serif" font-size="10.00">+ DccInformationSharing()</text>
<text text-anchor="start" x="8" y="-29.5" font-family="Helvetica,sans-Serif" font-size="10.00">+ generate_dcc_field()</text>
<text text-anchor="start" x="8" y="-18.5" font-family="Helvetica,sans-Serif" font-size="10.00">+ update_local_cbr()</text>
<text text-anchor="start" x="8" y="-7.5" font-family="Helvetica,sans-Serif" font-size="10.00">&#45; trigger()</text>
</a>
</g>
</g>
<!-- Node0&#45;&gt;Node1 -->
<g id="edge1" class="edge">
<title>Node0&#45;&gt;Node1</title>
<path fill="none" stroke="midnightblue" d="M138.3,-228.17C134.29,-219.53 129.97,-210.23 125.56,-200.74"/>
<polygon fill="none" stroke="midnightblue" points="135.14,-229.68 142.52,-237.27 141.49,-226.73 135.14,-229.68"/>
</g>
<!-- Node2 -->
<g id="node3" class="node">
<title>Node2</title>
<g id="a_node3"><a xlink:href="../../d1/dd1/classvanetza_1_1geonet_1_1NullDccFieldGenerator.html" target="_top" xlink:title=" ">
<polygon fill="white" stroke="black" points="177.5,-66.5 177.5,-134.5 305.5,-134.5 305.5,-66.5 177.5,-66.5"/>
<text text-anchor="start" x="185.5" y="-122.5" font-family="Helvetica,sans-Serif" font-size="10.00">vanetza::geonet::NullDcc</text>
<text text-anchor="middle" x="241.5" y="-111.5" font-family="Helvetica,sans-Serif" font-size="10.00">FieldGenerator</text>
<polyline fill="none" stroke="black" points="177.5,-104.5 305.5,-104.5 "/>
<text text-anchor="middle" x="241.5" y="-92.5" font-family="Helvetica,sans-Serif" font-size="10.00"> </text>
<polyline fill="none" stroke="black" points="177.5,-85.5 305.5,-85.5 "/>
<text text-anchor="start" x="185.5" y="-73.5" font-family="Helvetica,sans-Serif" font-size="10.00">+ generate_dcc_field()</text>
</a>
</g>
</g>
<!-- Node0&#45;&gt;Node2 -->
<g id="edge2" class="edge">
<title>Node0&#45;&gt;Node2</title>
<path fill="none" stroke="midnightblue" d="M182.81,-227.93C196.59,-198.24 213.92,-160.92 226.16,-134.54"/>
<polygon fill="none" stroke="midnightblue" points="179.51,-226.73 178.48,-237.27 185.86,-229.68 179.51,-226.73"/>
</g>
</g>
</svg>
