<?xml version="1.0" encoding="UTF-8" standalone="no"?>
<!DOCTYPE svg PUBLIC "-//W3C//DTD SVG 1.1//EN"
 "http://www.w3.org/Graphics/SVG/1.1/DTD/svg11.dtd">
<!-- Generated by graphviz version 2.49.3 (0)
 -->
<!-- Title: vanetza::detail::EndianConverter&lt; T, FROM, TO &gt; Pages: 1 -->
<svg width="524pt" height="207pt"
 viewBox="0.00 0.00 524.00 207.00" xmlns="http://www.w3.org/2000/svg" xmlns:xlink="http://www.w3.org/1999/xlink">
<g id="graph0" class="graph" transform="scale(1 1) rotate(0) translate(4 203)">
<title>vanetza::detail::EndianConverter&lt; T, FROM, TO &gt;</title>
<!-- Node1 -->
<g id="Node000001" class="node">
<title>Node1</title>
<g id="a_Node000001"><a xlink:title=" ">
<polygon fill="#999999" stroke="transparent" points="322,-199 170,-199 170,-139 322,-139 322,-199"/>
<text text-anchor="start" x="175" y="-187" font-family="Helvetica,sans-Serif" font-size="10.00">vanetza::detail::EndianConverter</text>
<text text-anchor="start" x="207" y="-176" font-family="Helvetica,sans-Serif" font-size="10.00">&lt; T, FROM, TO &gt;</text>
<text text-anchor="start" x="244" y="-161" font-family="Helvetica,sans-Serif" font-size="10.00"> </text>
<text text-anchor="start" x="195" y="-146" font-family="Helvetica,sans-Serif" font-size="10.00">+</text>
<text text-anchor="start" x="227" y="-146" font-family="Helvetica,sans-Serif" font-size="10.00">operator()()</text>
<polygon fill="#666666" stroke="#666666" points="170,-171 170,-171 322,-171 322,-171 170,-171"/>
<polygon fill="#666666" stroke="#666666" points="170,-156 170,-156 322,-156 322,-156 170,-156"/>
<polygon fill="none" stroke="#666666" points="170,-139 170,-199 322,-199 322,-139 170,-139"/>
</a>
</g>
</g>
<!-- Node2 -->
<g id="Node000002" class="node">
<title>Node2</title>
<g id="a_Node000002"><a xlink:href="../../d2/dfe/structvanetza_1_1detail_1_1EndianConverter_3_01T_00_01ByteOrder_1_1BigEndian_00_01ByteOrder_1_1LittleEndian_01_4.html" target="_top" xlink:title=" ">
<polygon fill="white" stroke="transparent" points="152,-71 0,-71 0,0 152,0 152,-71"/>
<text text-anchor="start" x="5" y="-58.5" font-family="Helvetica,sans-Serif" font-size="10.00">vanetza::detail::EndianConverter</text>
<text text-anchor="start" x="5" y="-47.5" font-family="Helvetica,sans-Serif" font-size="10.00">&lt; T, ByteOrder::BigEndian,</text>
<text text-anchor="start" x="19" y="-36.5" font-family="Helvetica,sans-Serif" font-size="10.00"> ByteOrder::LittleEndian &gt;</text>
<text text-anchor="start" x="74" y="-21.5" font-family="Helvetica,sans-Serif" font-size="10.00"> </text>
<text text-anchor="start" x="25" y="-6.5" font-family="Helvetica,sans-Serif" font-size="10.00">+</text>
<text text-anchor="start" x="57" y="-6.5" font-family="Helvetica,sans-Serif" font-size="10.00">operator()()</text>
<polygon fill="#bfbfbf" stroke="#bfbfbf" points="0,-31.5 0,-31.5 152,-31.5 152,-31.5 0,-31.5"/>
<polygon fill="#bfbfbf" stroke="#bfbfbf" points="0,-16.5 0,-16.5 152,-16.5 152,-16.5 0,-16.5"/>
<polygon fill="none" stroke="#bfbfbf" points="0,0 0,-71 152,-71 152,0 0,0"/>
</a>
</g>
</g>
<!-- Node1&#45;&gt;Node2 -->
<g id="edge1_Node000001_Node000002" class="edge">
<title>Node1&#45;&gt;Node2</title>
<g id="a_edge1_Node000001_Node000002"><a xlink:title=" ">
<path fill="none" stroke="orange" d="M160.24,-147.81C144.25,-141.19 128.62,-132.47 116,-121 101.47,-107.79 91.74,-88.19 85.52,-71.19"/>
<polygon fill="orange" stroke="orange" points="159.09,-151.12 169.68,-151.47 161.62,-144.59 159.09,-151.12"/>
</a>
</g>
<text text-anchor="start" x="119" y="-110" font-family="Helvetica,sans-Serif" font-size="10.00" fill="grey">&lt; T, ByteOrder::BigEndian,</text>
<text text-anchor="start" x="119" y="-95" font-family="Helvetica,sans-Serif" font-size="10.00" fill="grey">   ByteOrder::LittleEndian &gt;</text>
</g>
<!-- Node3 -->
<g id="Node000003" class="node">
<title>Node3</title>
<g id="a_Node000003"><a xlink:href="../../de/de8/structvanetza_1_1detail_1_1EndianConverter_3_01T_00_01ByteOrder_1_1LittleEndian_00_01ByteOrder_1_1BigEndian_01_4.html" target="_top" xlink:title=" ">
<polygon fill="white" stroke="transparent" points="322,-71 170,-71 170,0 322,0 322,-71"/>
<text text-anchor="start" x="175" y="-58.5" font-family="Helvetica,sans-Serif" font-size="10.00">vanetza::detail::EndianConverter</text>
<text text-anchor="start" x="175" y="-47.5" font-family="Helvetica,sans-Serif" font-size="10.00">&lt; T, ByteOrder::LittleEndian,</text>
<text text-anchor="start" x="192.5" y="-36.5" font-family="Helvetica,sans-Serif" font-size="10.00"> ByteOrder::BigEndian &gt;</text>
<text text-anchor="start" x="244" y="-21.5" font-family="Helvetica,sans-Serif" font-size="10.00"> </text>
<text text-anchor="start" x="195" y="-6.5" font-family="Helvetica,sans-Serif" font-size="10.00">+</text>
<text text-anchor="start" x="227" y="-6.5" font-family="Helvetica,sans-Serif" font-size="10.00">operator()()</text>
<polygon fill="#bfbfbf" stroke="#bfbfbf" points="170,-31.5 170,-31.5 322,-31.5 322,-31.5 170,-31.5"/>
<polygon fill="#bfbfbf" stroke="#bfbfbf" points="170,-16.5 170,-16.5 322,-16.5 322,-16.5 170,-16.5"/>
<polygon fill="none" stroke="#bfbfbf" points="170,0 170,-71 322,-71 322,0 170,0"/>
</a>
</g>
</g>
<!-- Node1&#45;&gt;Node3 -->
<g id="edge2_Node000001_Node000003" class="edge">
<title>Node1&#45;&gt;Node3</title>
<g id="a_edge2_Node000001_Node000003"><a xlink:title=" ">
<path fill="none" stroke="orange" d="M246,-128.76C246,-110.47 246,-88.89 246,-71.2"/>
<polygon fill="orange" stroke="orange" points="242.5,-128.82 246,-138.82 249.5,-128.82 242.5,-128.82"/>
</a>
</g>
<text text-anchor="start" x="249.5" y="-110" font-family="Helvetica,sans-Serif" font-size="10.00" fill="grey">&lt; T, ByteOrder::LittleEndian,</text>
<text text-anchor="start" x="249.5" y="-95" font-family="Helvetica,sans-Serif" font-size="10.00" fill="grey">   ByteOrder::BigEndian &gt;</text>
</g>
<!-- Node4 -->
<g id="Node000004" class="node">
<title>Node4</title>
<g id="a_Node000004"><a xlink:href="../../dd/def/structvanetza_1_1detail_1_1EndianConverter_3_01T_00_01ORDER_00_01ORDER_01_4.html" target="_top" xlink:title=" ">
<polygon fill="white" stroke="transparent" points="492,-65.5 340,-65.5 340,-5.5 492,-5.5 492,-65.5"/>
<text text-anchor="start" x="345" y="-53.5" font-family="Helvetica,sans-Serif" font-size="10.00">vanetza::detail::EndianConverter</text>
<text text-anchor="start" x="361.5" y="-42.5" font-family="Helvetica,sans-Serif" font-size="10.00">&lt; T, ORDER, ORDER &gt;</text>
<text text-anchor="start" x="414" y="-27.5" font-family="Helvetica,sans-Serif" font-size="10.00"> </text>
<text text-anchor="start" x="365" y="-12.5" font-family="Helvetica,sans-Serif" font-size="10.00">+</text>
<text text-anchor="start" x="397" y="-12.5" font-family="Helvetica,sans-Serif" font-size="10.00">operator()()</text>
<polygon fill="#bfbfbf" stroke="#bfbfbf" points="340,-37.5 340,-37.5 492,-37.5 492,-37.5 340,-37.5"/>
<polygon fill="#bfbfbf" stroke="#bfbfbf" points="340,-22.5 340,-22.5 492,-22.5 492,-22.5 340,-22.5"/>
<polygon fill="none" stroke="#bfbfbf" points="340,-5.5 340,-65.5 492,-65.5 492,-5.5 340,-5.5"/>
</a>
</g>
</g>
<!-- Node1&#45;&gt;Node4 -->
<g id="edge3_Node000001_Node000004" class="edge">
<title>Node1&#45;&gt;Node4</title>
<g id="a_edge3_Node000001_Node000004"><a xlink:title=" ">
<path fill="none" stroke="orange" d="M332.07,-150.15C349.84,-143.33 367.3,-133.94 381,-121 396.47,-106.39 405.34,-83.93 410.27,-65.83"/>
<polygon fill="orange" stroke="orange" points="330.43,-147.02 322.19,-153.68 332.78,-153.62 330.43,-147.02"/>
</a>
</g>
<text text-anchor="start" x="404.5" y="-102" font-family="Helvetica,sans-Serif" font-size="10.00" fill="grey">&lt; T, ORDER, ORDER &gt;</text>
</g>
</g>
</svg>
