<?xml version="1.0" encoding="UTF-8" standalone="no"?>
<!DOCTYPE svg PUBLIC "-//W3C//DTD SVG 1.1//EN"
 "http://www.w3.org/Graphics/SVG/1.1/DTD/svg11.dtd">
<!-- Generated by graphviz version 14.1.2 (0)
 -->
<!-- Title: vanetza::detail::EndianConverter&lt; T, FROM, TO &gt; Pages: 1 -->
<svg width="565pt" height="226pt"
 viewBox="0.00 0.00 565.00 226.00" xmlns="http://www.w3.org/2000/svg" xmlns:xlink="http://www.w3.org/1999/xlink">
<g id="graph0" class="graph" transform="scale(1 1) rotate(0) translate(4 222.25)">
<title>vanetza::detail::EndianConverter&lt; T, FROM, TO &gt;</title>
<!-- Node1 -->
<g id="Node000001" class="node">
<title>Node1</title>
<g id="a_Node000001"><a xlink:title=" ">
<polygon fill="#999999" stroke="none" points="353.75,-218.25 186,-218.25 186,-151.25 353.75,-151.25 353.75,-218.25"/>
<text xml:space="preserve" text-anchor="start" x="190" y="-204.75" font-family="Helvetica,sans-Serif" font-size="10.00">vanetza::detail::EndianConverter</text>
<text xml:space="preserve" text-anchor="start" x="228.25" y="-192" font-family="Helvetica,sans-Serif" font-size="10.00">&lt; T, FROM, TO &gt;</text>
<text xml:space="preserve" text-anchor="start" x="268.38" y="-175.25" font-family="Helvetica,sans-Serif" font-size="10.00"> </text>
<text xml:space="preserve" text-anchor="start" x="212.81" y="-158.5" font-family="Helvetica,sans-Serif" font-size="10.00">+</text>
<text xml:space="preserve" text-anchor="start" x="247.88" y="-158.5" font-family="Helvetica,sans-Serif" font-size="10.00">operator()()</text>
<polygon fill="#666666" stroke="#666666" points="186,-186.75 186,-186.75 353.75,-186.75 353.75,-186.75 186,-186.75"/>
<polygon fill="#666666" stroke="#666666" points="186,-170 186,-170 353.75,-170 353.75,-170 186,-170"/>
<polygon fill="none" stroke="#666666" points="186,-151.25 186,-218.25 353.75,-218.25 353.75,-151.25 186,-151.25"/>
</a>
</g>
</g>
<!-- Node2 -->
<g id="Node000002" class="node">
<title>Node2</title>
<g id="a_Node000002"><a xlink:href="../../d2/dfe/structvanetza_1_1detail_1_1EndianConverter_3_01T_00_01ByteOrder_1_1BigEndian_00_01ByteOrder_1_1LittleEndian_01_4.html" target="_top" xlink:title=" ">
<polygon fill="white" stroke="none" points="167.75,-79.75 0,-79.75 0,0 167.75,0 167.75,-79.75"/>
<text xml:space="preserve" text-anchor="start" x="4" y="-66.25" font-family="Helvetica,sans-Serif" font-size="10.00">vanetza::detail::EndianConverter</text>
<text xml:space="preserve" text-anchor="start" x="4" y="-53.5" font-family="Helvetica,sans-Serif" font-size="10.00">&lt; T, ByteOrder::BigEndian,</text>
<text xml:space="preserve" text-anchor="start" x="20.12" y="-40.75" font-family="Helvetica,sans-Serif" font-size="10.00"> ByteOrder::LittleEndian &gt;</text>
<text xml:space="preserve" text-anchor="start" x="82.38" y="-24" font-family="Helvetica,sans-Serif" font-size="10.00"> </text>
<text xml:space="preserve" text-anchor="start" x="26.81" y="-7.25" font-family="Helvetica,sans-Serif" font-size="10.00">+</text>
<text xml:space="preserve" text-anchor="start" x="61.88" y="-7.25" font-family="Helvetica,sans-Serif" font-size="10.00">operator()()</text>
<polygon fill="#bfbfbf" stroke="#bfbfbf" points="0,-35.5 0,-35.5 167.75,-35.5 167.75,-35.5 0,-35.5"/>
<polygon fill="#bfbfbf" stroke="#bfbfbf" points="0,-18.75 0,-18.75 167.75,-18.75 167.75,-18.75 0,-18.75"/>
<polygon fill="none" stroke="#bfbfbf" points="0,0 0,-79.75 167.75,-79.75 167.75,0 0,0"/>
</a>
</g>
</g>
<!-- Node1&#45;&gt;Node2 -->
<g id="edge1_Node000001_Node000002" class="edge">
<title>Node1&#45;&gt;Node2</title>
<g id="a_edge1_Node000001_Node000002"><a xlink:title=" ">
<path fill="none" stroke="orange" d="M175.75,-162.8C157.88,-155.63 140.41,-146.04 126.38,-133.25 110.72,-118.98 100.4,-97.79 93.86,-79.31"/>
<polygon fill="orange" stroke="orange" points="174.28,-165.99 184.87,-166.23 176.74,-159.44 174.28,-165.99"/>
</a>
</g>
<text xml:space="preserve" text-anchor="start" x="129.38" y="-120.75" font-family="Helvetica,sans-Serif" font-size="10.00" fill="grey">&lt; T, ByteOrder::BigEndian,</text>
<text xml:space="preserve" text-anchor="start" x="129.38" y="-104" font-family="Helvetica,sans-Serif" font-size="10.00" fill="grey">   ByteOrder::LittleEndian &gt;</text>
</g>
<!-- Node3 -->
<g id="Node000003" class="node">
<title>Node3</title>
<g id="a_Node000003"><a xlink:href="../../de/de8/structvanetza_1_1detail_1_1EndianConverter_3_01T_00_01ByteOrder_1_1LittleEndian_00_01ByteOrder_1_1BigEndian_01_4.html" target="_top" xlink:title=" ">
<polygon fill="white" stroke="none" points="353.75,-79.75 186,-79.75 186,0 353.75,0 353.75,-79.75"/>
<text xml:space="preserve" text-anchor="start" x="190" y="-66.25" font-family="Helvetica,sans-Serif" font-size="10.00">vanetza::detail::EndianConverter</text>
<text xml:space="preserve" text-anchor="start" x="190" y="-53.5" font-family="Helvetica,sans-Serif" font-size="10.00">&lt; T, ByteOrder::LittleEndian,</text>
<text xml:space="preserve" text-anchor="start" x="210.62" y="-40.75" font-family="Helvetica,sans-Serif" font-size="10.00"> ByteOrder::BigEndian &gt;</text>
<text xml:space="preserve" text-anchor="start" x="268.38" y="-24" font-family="Helvetica,sans-Serif" font-size="10.00"> </text>
<text xml:space="preserve" text-anchor="start" x="212.81" y="-7.25" font-family="Helvetica,sans-Serif" font-size="10.00">+</text>
<text xml:space="preserve" text-anchor="start" x="247.88" y="-7.25" font-family="Helvetica,sans-Serif" font-size="10.00">operator()()</text>
<polygon fill="#bfbfbf" stroke="#bfbfbf" points="186,-35.5 186,-35.5 353.75,-35.5 353.75,-35.5 186,-35.5"/>
<polygon fill="#bfbfbf" stroke="#bfbfbf" points="186,-18.75 186,-18.75 353.75,-18.75 353.75,-18.75 186,-18.75"/>
<polygon fill="none" stroke="#bfbfbf" points="186,0 186,-79.75 353.75,-79.75 353.75,0 186,0"/>
</a>
</g>
</g>
<!-- Node1&#45;&gt;Node3 -->
<g id="edge2_Node000001_Node000003" class="edge">
<title>Node1&#45;&gt;Node3</title>
<g id="a_edge2_Node000001_Node000003"><a xlink:title=" ">
<path fill="none" stroke="orange" d="M269.88,-140.08C269.88,-120.75 269.88,-98.21 269.88,-79.51"/>
<polygon fill="orange" stroke="orange" points="266.38,-139.82 269.88,-149.82 273.38,-139.82 266.38,-139.82"/>
</a>
</g>
<text xml:space="preserve" text-anchor="start" x="272.88" y="-120.75" font-family="Helvetica,sans-Serif" font-size="10.00" fill="grey">&lt; T, ByteOrder::LittleEndian,</text>
<text xml:space="preserve" text-anchor="start" x="272.88" y="-104" font-family="Helvetica,sans-Serif" font-size="10.00" fill="grey">   ByteOrder::BigEndian &gt;</text>
</g>
<!-- Node4 -->
<g id="Node000004" class="node">
<title>Node4</title>
<g id="a_Node000004"><a xlink:href="../../dd/def/structvanetza_1_1detail_1_1EndianConverter_3_01T_00_01ORDER_00_01ORDER_01_4.html" target="_top" xlink:title=" ">
<polygon fill="white" stroke="none" points="539.75,-73.38 372,-73.38 372,-6.38 539.75,-6.38 539.75,-73.38"/>
<text xml:space="preserve" text-anchor="start" x="376" y="-59.88" font-family="Helvetica,sans-Serif" font-size="10.00">vanetza::detail::EndianConverter</text>
<text xml:space="preserve" text-anchor="start" x="401.12" y="-47.12" font-family="Helvetica,sans-Serif" font-size="10.00">&lt; T, ORDER, ORDER &gt;</text>
<text xml:space="preserve" text-anchor="start" x="454.38" y="-30.38" font-family="Helvetica,sans-Serif" font-size="10.00"> </text>
<text xml:space="preserve" text-anchor="start" x="398.81" y="-13.62" font-family="Helvetica,sans-Serif" font-size="10.00">+</text>
<text xml:space="preserve" text-anchor="start" x="433.88" y="-13.62" font-family="Helvetica,sans-Serif" font-size="10.00">operator()()</text>
<polygon fill="#bfbfbf" stroke="#bfbfbf" points="372,-41.88 372,-41.88 539.75,-41.88 539.75,-41.88 372,-41.88"/>
<polygon fill="#bfbfbf" stroke="#bfbfbf" points="372,-25.12 372,-25.12 539.75,-25.12 539.75,-25.12 372,-25.12"/>
<polygon fill="none" stroke="#bfbfbf" points="372,-6.38 372,-73.38 539.75,-73.38 539.75,-6.38 372,-6.38"/>
</a>
</g>
</g>
<!-- Node1&#45;&gt;Node4 -->
<g id="edge3_Node000001_Node000004" class="edge">
<title>Node1&#45;&gt;Node4</title>
<g id="a_edge3_Node000001_Node000004"><a xlink:title=" ">
<path fill="none" stroke="orange" d="M364.44,-165.79C384.61,-158.4 404.46,-147.96 419.88,-133.25 436.56,-117.33 445.64,-92.76 450.51,-72.97"/>
<polygon fill="orange" stroke="orange" points="363.33,-162.47 354.99,-169.01 365.58,-169.1 363.33,-162.47"/>
</a>
</g>
<text xml:space="preserve" text-anchor="start" x="444.71" y="-112.38" font-family="Helvetica,sans-Serif" font-size="10.00" fill="grey">&lt; T, ORDER, ORDER &gt;</text>
</g>
</g>
</svg>
