<?xml version="1.0" encoding="UTF-8" standalone="no"?>
<!DOCTYPE svg PUBLIC "-//W3C//DTD SVG 1.1//EN"
 "http://www.w3.org/Graphics/SVG/1.1/DTD/svg11.dtd">
<!-- Generated by graphviz version 14.1.2 (0)
 -->
<!-- Title: vanetza::detail::EndianConverter&lt; T, FROM, TO &gt; Pages: 1 -->
<!--zoomable 226 -->

<svg id="main" version="1.1" xmlns="http://www.w3.org/2000/svg" xmlns:xlink="http://www.w3.org/1999/xlink" xml:space="preserve" onload="init(evt)">

<style type="text/css"><![CDATA[
.node, .edge {opacity: 0.7;}
.node.selected, .edge.selected {opacity: 1;}
.edge:hover path { stroke: red; }
.edge:hover polygon { stroke: red; fill: red; }
]]></style>

<defs>
  <circle id="rim" cx="0" cy="0" r="7"/>
  <circle id="rim2" cx="0" cy="0" r="3.5"/>
  <g id="zoomPlus">
    <use xlink:href="#rim" fill="#404040"><set attributeName="fill" to="#808080" begin="zoomplus.mouseover" end="zoomplus.mouseout"/></use>
    <path d="M-4,0h8M0,-4v8" fill="none" stroke="white" stroke-width="1.5" pointer-events="none"/>
  </g>
  <g id="zoomMin">
    <use xlink:href="#rim" fill="#404040"><set attributeName="fill" to="#808080" begin="zoomminus.mouseover" end="zoomminus.mouseout"/></use>
    <path d="M-4,0h8" fill="none" stroke="white" stroke-width="1.5" pointer-events="none"/>
  </g>
  <g id="arrowUp" transform="translate(30 24)">
    <use xlink:href="#rim"/>
    <path pointer-events="none" fill="none" stroke="white" stroke-width="1.5" d="M0,-3.0v7 M-2.5,-0.5L0,-3.0L2.5,-0.5"/>
  </g>
  <g id="arrowRight" transform="rotate(90) translate(36 -43)">
    <use xlink:href="#rim"/>
    <path pointer-events="none" fill="none" stroke="white" stroke-width="1.5" d="M0,-3.0v7 M-2.5,-0.5L0,-3.0L2.5,-0.5"/>
  </g>
  <g id="arrowDown" transform="rotate(180) translate(-30 -48)">
    <use xlink:href="#rim"/>
    <path pointer-events="none" fill="none" stroke="white" stroke-width="1.5" d="M0,-3.0v7 M-2.5,-0.5L0,-3.0L2.5,-0.5"/>
  </g>
  <g id="arrowLeft" transform="rotate(270) translate(-36 17)">
    <use xlink:href="#rim"/>
    <path pointer-events="none" fill="none" stroke="white" stroke-width="1.5" d="M0,-3.0v7 M-2.5,-0.5L0,-3.0L2.5,-0.5"/>
  </g>
  <g id="resetDef">
    <use xlink:href="#rim2" fill="#404040"><set attributeName="fill" to="#808080" begin="reset.mouseover" end="reset.mouseout"/></use>
  </g>
</defs>
<script type="application/ecmascript">
var viewWidth = 565;
var viewHeight = 226;
var sectionId = 'dynsection-0';
</script>
<script type="application/ecmascript" xlink:href="../../svg.min.js"/>
<svg id="graph" class="graph">
<g id="viewport">
<title>vanetza::detail::EndianConverter&lt; T, FROM, TO &gt;</title>
<!-- Node1 -->
<g id="Node000001" class="node">
<title>Node1</title>
<g id="a_Node000001"><a xlink:title=" ">
<polygon fill="#999999" stroke="none" points="353.75,-218.25 186,-218.25 186,-151.25 353.75,-151.25 353.75,-218.25"/>
<text xml:space="preserve" text-anchor="start" x="190" y="-204.75" font-family="Helvetica,sans-Serif" font-size="10.00">vanetza::detail::EndianConverter</text>
<text xml:space="preserve" text-anchor="start" x="228.25" y="-192" font-family="Helvetica,sans-Serif" font-size="10.00">&lt; T, FROM, TO &gt;</text>
<text xml:space="preserve" text-anchor="start" x="268.38" y="-175.25" font-family="Helvetica,sans-Serif" font-size="10.00"> </text>
<text xml:space="preserve" text-anchor="start" x="212.81" y="-158.5" font-family="Helvetica,sans-Serif" font-size="10.00">+</text>
<text xml:space="preserve" text-anchor="start" x="247.88" y="-158.5" font-family="Helvetica,sans-Serif" font-size="10.00">operator()()</text>
<polygon fill="#666666" stroke="#666666" points="186,-186.75 186,-186.75 353.75,-186.75 353.75,-186.75 186,-186.75"/>
<polygon fill="#666666" stroke="#666666" points="186,-170 186,-170 353.75,-170 353.75,-170 186,-170"/>
<polygon fill="none" stroke="#666666" points="186,-151.25 186,-218.25 353.75,-218.25 353.75,-151.25 186,-151.25"/>
</a>
</g>
</g>
<!-- Node2 -->
<g id="Node000002" class="node">
<title>Node2</title>
<g id="a_Node000002"><a xlink:href="../../d2/dfe/structvanetza_1_1detail_1_1EndianConverter_3_01T_00_01ByteOrder_1_1BigEndian_00_01ByteOrder_1_1LittleEndian_01_4.html" target="_top" xlink:title=" ">
<polygon fill="white" stroke="none" points="167.75,-79.75 0,-79.75 0,0 167.75,0 167.75,-79.75"/>
<text xml:space="preserve" text-anchor="start" x="4" y="-66.25" font-family="Helvetica,sans-Serif" font-size="10.00">vanetza::detail::EndianConverter</text>
<text xml:space="preserve" text-anchor="start" x="4" y="-53.5" font-family="Helvetica,sans-Serif" font-size="10.00">&lt; T, ByteOrder::BigEndian,</text>
<text xml:space="preserve" text-anchor="start" x="20.12" y="-40.75" font-family="Helvetica,sans-Serif" font-size="10.00"> ByteOrder::LittleEndian &gt;</text>
<text xml:space="preserve" text-anchor="start" x="82.38" y="-24" font-family="Helvetica,sans-Serif" font-size="10.00"> </text>
<text xml:space="preserve" text-anchor="start" x="26.81" y="-7.25" font-family="Helvetica,sans-Serif" font-size="10.00">+</text>
<text xml:space="preserve" text-anchor="start" x="61.88" y="-7.25" font-family="Helvetica,sans-Serif" font-size="10.00">operator()()</text>
<polygon fill="#bfbfbf" stroke="#bfbfbf" points="0,-35.5 0,-35.5 167.75,-35.5 167.75,-35.5 0,-35.5"/>
<polygon fill="#bfbfbf" stroke="#bfbfbf" points="0,-18.75 0,-18.75 167.75,-18.75 167.75,-18.75 0,-18.75"/>
<polygon fill="none" stroke="#bfbfbf" points="0,0 0,-79.75 167.75,-79.75 167.75,0 0,0"/>
</a>
</g>
</g>
<!-- Node1&#45;&gt;Node2 -->
<g id="edge1_Node000001_Node000002" class="edge">
<title>Node1&#45;&gt;Node2</title>
<g id="a_edge1_Node000001_Node000002"><a xlink:title=" ">
<path fill="none" stroke="orange" d="M175.75,-162.8C157.88,-155.63 140.41,-146.04 126.38,-133.25 110.72,-118.98 100.4,-97.79 93.86,-79.31"/>
<polygon fill="orange" stroke="orange" points="174.28,-165.99 184.87,-166.23 176.74,-159.44 174.28,-165.99"/>
</a>
</g>
<text xml:space="preserve" text-anchor="start" x="129.38" y="-120.75" font-family="Helvetica,sans-Serif" font-size="10.00" fill="grey">&lt; T, ByteOrder::BigEndian,</text>
<text xml:space="preserve" text-anchor="start" x="129.38" y="-104" font-family="Helvetica,sans-Serif" font-size="10.00" fill="grey">   ByteOrder::LittleEndian &gt;</text>
</g>
<!-- Node3 -->
<g id="Node000003" class="node">
<title>Node3</title>
<g id="a_Node000003"><a xlink:href="../../de/de8/structvanetza_1_1detail_1_1EndianConverter_3_01T_00_01ByteOrder_1_1LittleEndian_00_01ByteOrder_1_1BigEndian_01_4.html" target="_top" xlink:title=" ">
<polygon fill="white" stroke="none" points="353.75,-79.75 186,-79.75 186,0 353.75,0 353.75,-79.75"/>
<text xml:space="preserve" text-anchor="start" x="190" y="-66.25" font-family="Helvetica,sans-Serif" font-size="10.00">vanetza::detail::EndianConverter</text>
<text xml:space="preserve" text-anchor="start" x="190" y="-53.5" font-family="Helvetica,sans-Serif" font-size="10.00">&lt; T, ByteOrder::LittleEndian,</text>
<text xml:space="preserve" text-anchor="start" x="210.62" y="-40.75" font-family="Helvetica,sans-Serif" font-size="10.00"> ByteOrder::BigEndian &gt;</text>
<text xml:space="preserve" text-anchor="start" x="268.38" y="-24" font-family="Helvetica,sans-Serif" font-size="10.00"> </text>
<text xml:space="preserve" text-anchor="start" x="212.81" y="-7.25" font-family="Helvetica,sans-Serif" font-size="10.00">+</text>
<text xml:space="preserve" text-anchor="start" x="247.88" y="-7.25" font-family="Helvetica,sans-Serif" font-size="10.00">operator()()</text>
<polygon fill="#bfbfbf" stroke="#bfbfbf" points="186,-35.5 186,-35.5 353.75,-35.5 353.75,-35.5 186,-35.5"/>
<polygon fill="#bfbfbf" stroke="#bfbfbf" points="186,-18.75 186,-18.75 353.75,-18.75 353.75,-18.75 186,-18.75"/>
<polygon fill="none" stroke="#bfbfbf" points="186,0 186,-79.75 353.75,-79.75 353.75,0 186,0"/>
</a>
</g>
</g>
<!-- Node1&#45;&gt;Node3 -->
<g id="edge2_Node000001_Node000003" class="edge">
<title>Node1&#45;&gt;Node3</title>
<g id="a_edge2_Node000001_Node000003"><a xlink:title=" ">
<path fill="none" stroke="orange" d="M269.88,-140.08C269.88,-120.75 269.88,-98.21 269.88,-79.51"/>
<polygon fill="orange" stroke="orange" points="266.38,-139.82 269.88,-149.82 273.38,-139.82 266.38,-139.82"/>
</a>
</g>
<text xml:space="preserve" text-anchor="start" x="272.88" y="-120.75" font-family="Helvetica,sans-Serif" font-size="10.00" fill="grey">&lt; T, ByteOrder::LittleEndian,</text>
<text xml:space="preserve" text-anchor="start" x="272.88" y="-104" font-family="Helvetica,sans-Serif" font-size="10.00" fill="grey">   ByteOrder::BigEndian &gt;</text>
</g>
<!-- Node4 -->
<g id="Node000004" class="node">
<title>Node4</title>
<g id="a_Node000004"><a xlink:href="../../dd/def/structvanetza_1_1detail_1_1EndianConverter_3_01T_00_01ORDER_00_01ORDER_01_4.html" target="_top" xlink:title=" ">
<polygon fill="white" stroke="none" points="539.75,-73.38 372,-73.38 372,-6.38 539.75,-6.38 539.75,-73.38"/>
<text xml:space="preserve" text-anchor="start" x="376" y="-59.88" font-family="Helvetica,sans-Serif" font-size="10.00">vanetza::detail::EndianConverter</text>
<text xml:space="preserve" text-anchor="start" x="401.12" y="-47.12" font-family="Helvetica,sans-Serif" font-size="10.00">&lt; T, ORDER, ORDER &gt;</text>
<text xml:space="preserve" text-anchor="start" x="454.38" y="-30.38" font-family="Helvetica,sans-Serif" font-size="10.00"> </text>
<text xml:space="preserve" text-anchor="start" x="398.81" y="-13.62" font-family="Helvetica,sans-Serif" font-size="10.00">+</text>
<text xml:space="preserve" text-anchor="start" x="433.88" y="-13.62" font-family="Helvetica,sans-Serif" font-size="10.00">operator()()</text>
<polygon fill="#bfbfbf" stroke="#bfbfbf" points="372,-41.88 372,-41.88 539.75,-41.88 539.75,-41.88 372,-41.88"/>
<polygon fill="#bfbfbf" stroke="#bfbfbf" points="372,-25.12 372,-25.12 539.75,-25.12 539.75,-25.12 372,-25.12"/>
<polygon fill="none" stroke="#bfbfbf" points="372,-6.38 372,-73.38 539.75,-73.38 539.75,-6.38 372,-6.38"/>
</a>
</g>
</g>
<!-- Node1&#45;&gt;Node4 -->
<g id="edge3_Node000001_Node000004" class="edge">
<title>Node1&#45;&gt;Node4</title>
<g id="a_edge3_Node000001_Node000004"><a xlink:title=" ">
<path fill="none" stroke="orange" d="M364.44,-165.79C384.61,-158.4 404.46,-147.96 419.88,-133.25 436.56,-117.33 445.64,-92.76 450.51,-72.97"/>
<polygon fill="orange" stroke="orange" points="363.33,-162.47 354.99,-169.01 365.58,-169.1 363.33,-162.47"/>
</a>
</g>
<text xml:space="preserve" text-anchor="start" x="444.71" y="-112.38" font-family="Helvetica,sans-Serif" font-size="10.00" fill="grey">&lt; T, ORDER, ORDER &gt;</text>
</g>
</g>
</svg>

<g id="navigator" transform="translate(0 0)" fill="#404254">
  <rect fill="#f2f5e9" fill-opacity="0.5" stroke="#606060" stroke-width=".5" x="0" y="0" width="60" height="60"/>
  <use id="zoomplus" xlink:href="#zoomPlus" x="17" y="9" onmousedown="handleZoom(evt,'in')"/>
  <use id="zoomminus" xlink:href="#zoomMin" x="42" y="9" onmousedown="handleZoom(evt,'out')"/>
  <use id="reset" xlink:href="#resetDef" x="30" y="36" onmousedown="handleReset()"/>
   <use id="arrowup" xlink:href="#arrowUp" x="0" y="0" onmousedown="handlePan(0,-1)"/>
  <use id="arrowright" xlink:href="#arrowRight" x="0" y="0" onmousedown="handlePan(1,0)"/>
  <use id="arrowdown" xlink:href="#arrowDown" x="0" y="0" onmousedown="handlePan(0,1)"/>
  <use id="arrowleft" xlink:href="#arrowLeft" x="0" y="0" onmousedown="handlePan(-1,0)"/>
</g>
<svg viewBox="0 0 15 15" width="100%" height="30px" preserveAspectRatio="xMaxYMin meet">
 <g id="arrow_out" transform="scale(0.3 0.3)">
  <a xlink:href="structvanetza_1_1detail_1_1EndianConverter__inherit__graph_org.svg" target="_base">
   <rect id="button" ry="5" rx="5" y="6" x="6" height="38" width="38"
        fill="#f2f5e9" fill-opacity="0.5" stroke="#606060" stroke-width="1.0"/>
   <path id="arrow"
     d="M 11.500037,31.436501 C 11.940474,20.09759 22.043105,11.32322 32.158766,21.979434 L 37.068811,17.246167 C 37.068811,17.246167 37.088388,32 37.088388,32 L 22.160133,31.978069 C 22.160133,31.978069 26.997745,27.140456 26.997745,27.140456 C 18.528582,18.264221 13.291696,25.230495 11.500037,31.436501 z"
     style="fill:#404040;"/>
  </a>
 </g>
</svg>

<style type='text/css'>
<![CDATA[
[data-mouse-over-selected='false'] { opacity: 0.7; }
[data-mouse-over-selected='true']  { opacity: 1.0; }
]]>
</style>
<script type="application/ecmascript"><![CDATA[
document.addEventListener('DOMContentLoaded', (event) => {
  highlightEdges();
  highlightAdjacentNodes();
});
]]></script>
</svg>
