<?xml version="1.0" encoding="UTF-8" standalone="no"?>
<!DOCTYPE svg PUBLIC "-//W3C//DTD SVG 1.1//EN"
 "http://www.w3.org/Graphics/SVG/1.1/DTD/svg11.dtd">
<!-- Generated by graphviz version 14.1.2 (0)
 -->
<!-- Title: vanetza::security::v3::DefaultSignHeaderPolicy Pages: 1 -->
<!--zoomable 472 -->

<svg id="main" version="1.1" xmlns="http://www.w3.org/2000/svg" xmlns:xlink="http://www.w3.org/1999/xlink" xml:space="preserve" onload="init(evt)">

<style type="text/css"><![CDATA[
.node, .edge {opacity: 0.7;}
.node.selected, .edge.selected {opacity: 1;}
.edge:hover path { stroke: red; }
.edge:hover polygon { stroke: red; fill: red; }
]]></style>

<defs>
  <circle id="rim" cx="0" cy="0" r="7"/>
  <circle id="rim2" cx="0" cy="0" r="3.5"/>
  <g id="zoomPlus">
    <use xlink:href="#rim" fill="#404040"><set attributeName="fill" to="#808080" begin="zoomplus.mouseover" end="zoomplus.mouseout"/></use>
    <path d="M-4,0h8M0,-4v8" fill="none" stroke="white" stroke-width="1.5" pointer-events="none"/>
  </g>
  <g id="zoomMin">
    <use xlink:href="#rim" fill="#404040"><set attributeName="fill" to="#808080" begin="zoomminus.mouseover" end="zoomminus.mouseout"/></use>
    <path d="M-4,0h8" fill="none" stroke="white" stroke-width="1.5" pointer-events="none"/>
  </g>
  <g id="arrowUp" transform="translate(30 24)">
    <use xlink:href="#rim"/>
    <path pointer-events="none" fill="none" stroke="white" stroke-width="1.5" d="M0,-3.0v7 M-2.5,-0.5L0,-3.0L2.5,-0.5"/>
  </g>
  <g id="arrowRight" transform="rotate(90) translate(36 -43)">
    <use xlink:href="#rim"/>
    <path pointer-events="none" fill="none" stroke="white" stroke-width="1.5" d="M0,-3.0v7 M-2.5,-0.5L0,-3.0L2.5,-0.5"/>
  </g>
  <g id="arrowDown" transform="rotate(180) translate(-30 -48)">
    <use xlink:href="#rim"/>
    <path pointer-events="none" fill="none" stroke="white" stroke-width="1.5" d="M0,-3.0v7 M-2.5,-0.5L0,-3.0L2.5,-0.5"/>
  </g>
  <g id="arrowLeft" transform="rotate(270) translate(-36 17)">
    <use xlink:href="#rim"/>
    <path pointer-events="none" fill="none" stroke="white" stroke-width="1.5" d="M0,-3.0v7 M-2.5,-0.5L0,-3.0L2.5,-0.5"/>
  </g>
  <g id="resetDef">
    <use xlink:href="#rim2" fill="#404040"><set attributeName="fill" to="#808080" begin="reset.mouseover" end="reset.mouseout"/></use>
  </g>
</defs>
<script type="application/ecmascript">
var viewWidth = 157;
var viewHeight = 472;
var sectionId = 'dynsection-0';
</script>
<script type="application/ecmascript" xlink:href="../../svg.min.js"/>
<svg id="graph" class="graph">
<g id="viewport">
<title>vanetza::security::v3::DefaultSignHeaderPolicy</title>
<!-- Node1 -->
<g id="Node000001" class="node">
<title>Node1</title>
<g id="a_Node000001"><a xlink:title=" ">
<polygon fill="#999999" stroke="none" points="149.25,-264 0,-264 0,0 149.25,0 149.25,-264"/>
<text xml:space="preserve" text-anchor="start" x="4.88" y="-250.5" font-family="Helvetica,sans-Serif" font-size="10.00">vanetza::security::</text>
<text xml:space="preserve" text-anchor="start" x="4.88" y="-237.75" font-family="Helvetica,sans-Serif" font-size="10.00">v3::DefaultSignHeaderPolicy</text>
<text xml:space="preserve" text-anchor="start" x="6.25" y="-221" font-family="Helvetica,sans-Serif" font-size="10.00">&#45;</text>
<text xml:space="preserve" text-anchor="start" x="16.25" y="-221" font-family="Helvetica,sans-Serif" font-size="10.00">m_runtime</text>
<text xml:space="preserve" text-anchor="start" x="6.25" y="-204.25" font-family="Helvetica,sans-Serif" font-size="10.00">&#45;</text>
<text xml:space="preserve" text-anchor="start" x="16.25" y="-204.25" font-family="Helvetica,sans-Serif" font-size="10.00">m_positioning</text>
<text xml:space="preserve" text-anchor="start" x="6.25" y="-187.5" font-family="Helvetica,sans-Serif" font-size="10.00">&#45;</text>
<text xml:space="preserve" text-anchor="start" x="16.25" y="-187.5" font-family="Helvetica,sans-Serif" font-size="10.00">m_cert_provider</text>
<text xml:space="preserve" text-anchor="start" x="6.25" y="-170.75" font-family="Helvetica,sans-Serif" font-size="10.00">&#45;</text>
<text xml:space="preserve" text-anchor="start" x="16.25" y="-170.75" font-family="Helvetica,sans-Serif" font-size="10.00">m_cam_next_certificate</text>
<text xml:space="preserve" text-anchor="start" x="6.25" y="-154" font-family="Helvetica,sans-Serif" font-size="10.00">&#45;</text>
<text xml:space="preserve" text-anchor="start" x="16.25" y="-154" font-family="Helvetica,sans-Serif" font-size="10.00">m_cert_requested</text>
<text xml:space="preserve" text-anchor="start" x="6.25" y="-137.25" font-family="Helvetica,sans-Serif" font-size="10.00">&#45;</text>
<text xml:space="preserve" text-anchor="start" x="16.25" y="-137.25" font-family="Helvetica,sans-Serif" font-size="10.00">m_incoming_requests</text>
<text xml:space="preserve" text-anchor="start" x="6.25" y="-120.5" font-family="Helvetica,sans-Serif" font-size="10.00">&#45;</text>
<text xml:space="preserve" text-anchor="start" x="16.25" y="-120.5" font-family="Helvetica,sans-Serif" font-size="10.00">m_outgoing_requests</text>
<text xml:space="preserve" text-anchor="start" x="4" y="-103.75" font-family="Helvetica,sans-Serif" font-size="10.00">+</text>
<text xml:space="preserve" text-anchor="start" x="16.25" y="-103.75" font-family="Helvetica,sans-Serif" font-size="10.00">DefaultSignHeaderPolicy()</text>
<text xml:space="preserve" text-anchor="start" x="4" y="-87" font-family="Helvetica,sans-Serif" font-size="10.00">+</text>
<text xml:space="preserve" text-anchor="start" x="16.25" y="-87" font-family="Helvetica,sans-Serif" font-size="10.00">prepare_header()</text>
<text xml:space="preserve" text-anchor="start" x="4" y="-70.25" font-family="Helvetica,sans-Serif" font-size="10.00">+</text>
<text xml:space="preserve" text-anchor="start" x="16.25" y="-70.25" font-family="Helvetica,sans-Serif" font-size="10.00">request_unrecognized</text>
<text xml:space="preserve" text-anchor="start" x="16.25" y="-57.5" font-family="Helvetica,sans-Serif" font-size="10.00">_certificate()</text>
<text xml:space="preserve" text-anchor="start" x="4" y="-40.75" font-family="Helvetica,sans-Serif" font-size="10.00">+</text>
<text xml:space="preserve" text-anchor="start" x="16.25" y="-40.75" font-family="Helvetica,sans-Serif" font-size="10.00">request_certificate()</text>
<text xml:space="preserve" text-anchor="start" x="4" y="-24" font-family="Helvetica,sans-Serif" font-size="10.00">+</text>
<text xml:space="preserve" text-anchor="start" x="16.25" y="-24" font-family="Helvetica,sans-Serif" font-size="10.00">enqueue_p2p_request()</text>
<text xml:space="preserve" text-anchor="start" x="4" y="-7.25" font-family="Helvetica,sans-Serif" font-size="10.00">+</text>
<text xml:space="preserve" text-anchor="start" x="16.25" y="-7.25" font-family="Helvetica,sans-Serif" font-size="10.00">discard_p2p_request()</text>
<polygon fill="#666666" stroke="#666666" points="0,-232.5 0,-232.5 149.25,-232.5 149.25,-232.5 0,-232.5"/>
<polygon fill="#666666" stroke="#666666" points="0,-115.25 0,-115.25 14.25,-115.25 14.25,-115.25 0,-115.25"/>
<polygon fill="#666666" stroke="#666666" points="14.25,-115.25 14.25,-115.25 149.25,-115.25 149.25,-115.25 14.25,-115.25"/>
<polygon fill="none" stroke="#666666" points="0,0 0,-264 149.25,-264 149.25,0 0,0"/>
</a>
</g>
</g>
<!-- Node2 -->
<g id="Node000002" class="node">
<title>Node2</title>
<g id="a_Node000002"><a xlink:href="../../d1/db1/classvanetza_1_1security_1_1v3_1_1SignHeaderPolicy.html" target="_top" xlink:title=" ">
<polygon fill="white" stroke="none" points="142.12,-463.5 7.12,-463.5 7.12,-300 142.12,-300 142.12,-463.5"/>
<text xml:space="preserve" text-anchor="start" x="22.88" y="-450" font-family="Helvetica,sans-Serif" font-size="10.00">vanetza::security::</text>
<text xml:space="preserve" text-anchor="start" x="22.88" y="-437.25" font-family="Helvetica,sans-Serif" font-size="10.00">v3::SignHeaderPolicy</text>
<text xml:space="preserve" text-anchor="start" x="73.12" y="-420.5" font-family="Helvetica,sans-Serif" font-size="10.00"> </text>
<text xml:space="preserve" text-anchor="start" x="11.12" y="-403.75" font-family="Helvetica,sans-Serif" font-size="10.00">+</text>
<text xml:space="preserve" text-anchor="start" x="23.38" y="-403.75" font-family="Helvetica,sans-Serif" font-size="10.00">prepare_header()</text>
<text xml:space="preserve" text-anchor="start" x="11.12" y="-387" font-family="Helvetica,sans-Serif" font-size="10.00">+</text>
<text xml:space="preserve" text-anchor="start" x="23.38" y="-387" font-family="Helvetica,sans-Serif" font-size="10.00">request_unrecognized</text>
<text xml:space="preserve" text-anchor="start" x="23.38" y="-374.25" font-family="Helvetica,sans-Serif" font-size="10.00">_certificate()</text>
<text xml:space="preserve" text-anchor="start" x="11.12" y="-357.5" font-family="Helvetica,sans-Serif" font-size="10.00">+</text>
<text xml:space="preserve" text-anchor="start" x="23.38" y="-357.5" font-family="Helvetica,sans-Serif" font-size="10.00">request_certificate()</text>
<text xml:space="preserve" text-anchor="start" x="11.12" y="-340.75" font-family="Helvetica,sans-Serif" font-size="10.00">+</text>
<text xml:space="preserve" text-anchor="start" x="23.38" y="-340.75" font-family="Helvetica,sans-Serif" font-size="10.00">enqueue_p2p_request()</text>
<text xml:space="preserve" text-anchor="start" x="11.12" y="-324" font-family="Helvetica,sans-Serif" font-size="10.00">+</text>
<text xml:space="preserve" text-anchor="start" x="23.38" y="-324" font-family="Helvetica,sans-Serif" font-size="10.00">discard_p2p_request()</text>
<text xml:space="preserve" text-anchor="start" x="11.12" y="-307.25" font-family="Helvetica,sans-Serif" font-size="10.00">+</text>
<text xml:space="preserve" text-anchor="start" x="23.38" y="-307.25" font-family="Helvetica,sans-Serif" font-size="10.00">~SignHeaderPolicy()</text>
<polygon fill="#666666" stroke="#666666" points="7.12,-432 7.12,-432 142.12,-432 142.12,-432 7.12,-432"/>
<polygon fill="#666666" stroke="#666666" points="7.12,-415.25 7.12,-415.25 142.12,-415.25 142.12,-415.25 7.12,-415.25"/>
<polygon fill="none" stroke="#666666" points="7.12,-300 7.12,-463.5 142.12,-463.5 142.12,-300 7.12,-300"/>
</a>
</g>
</g>
<!-- Node2&#45;&gt;Node1 -->
<g id="edge1_Node000001_Node000002" class="edge">
<title>Node2&#45;&gt;Node1</title>
<g id="a_edge1_Node000001_Node000002"><a xlink:title=" ">
<path fill="none" stroke="#63b8ff" d="M74.62,-288.88C74.62,-280.68 74.62,-272.29 74.62,-263.85"/>
<polygon fill="none" stroke="#63b8ff" points="71.13,-288.8 74.63,-298.8 78.13,-288.8 71.13,-288.8"/>
</a>
</g>
</g>
</g>
</svg>

<g id="navigator" transform="translate(0 0)" fill="#404254">
  <rect fill="#f2f5e9" fill-opacity="0.5" stroke="#606060" stroke-width=".5" x="0" y="0" width="60" height="60"/>
  <use id="zoomplus" xlink:href="#zoomPlus" x="17" y="9" onmousedown="handleZoom(evt,'in')"/>
  <use id="zoomminus" xlink:href="#zoomMin" x="42" y="9" onmousedown="handleZoom(evt,'out')"/>
  <use id="reset" xlink:href="#resetDef" x="30" y="36" onmousedown="handleReset()"/>
   <use id="arrowup" xlink:href="#arrowUp" x="0" y="0" onmousedown="handlePan(0,-1)"/>
  <use id="arrowright" xlink:href="#arrowRight" x="0" y="0" onmousedown="handlePan(1,0)"/>
  <use id="arrowdown" xlink:href="#arrowDown" x="0" y="0" onmousedown="handlePan(0,1)"/>
  <use id="arrowleft" xlink:href="#arrowLeft" x="0" y="0" onmousedown="handlePan(-1,0)"/>
</g>
<svg viewBox="0 0 15 15" width="100%" height="30px" preserveAspectRatio="xMaxYMin meet">
 <g id="arrow_out" transform="scale(0.3 0.3)">
  <a xlink:href="classvanetza_1_1security_1_1v3_1_1DefaultSignHeaderPolicy__inherit__graph_org.svg" target="_base">
   <rect id="button" ry="5" rx="5" y="6" x="6" height="38" width="38"
        fill="#f2f5e9" fill-opacity="0.5" stroke="#606060" stroke-width="1.0"/>
   <path id="arrow"
     d="M 11.500037,31.436501 C 11.940474,20.09759 22.043105,11.32322 32.158766,21.979434 L 37.068811,17.246167 C 37.068811,17.246167 37.088388,32 37.088388,32 L 22.160133,31.978069 C 22.160133,31.978069 26.997745,27.140456 26.997745,27.140456 C 18.528582,18.264221 13.291696,25.230495 11.500037,31.436501 z"
     style="fill:#404040;"/>
  </a>
 </g>
</svg>

<style type='text/css'>
<![CDATA[
[data-mouse-over-selected='false'] { opacity: 0.7; }
[data-mouse-over-selected='true']  { opacity: 1.0; }
]]>
</style>
<script type="application/ecmascript"><![CDATA[
document.addEventListener('DOMContentLoaded', (event) => {
  highlightEdges();
  highlightAdjacentNodes();
});
]]></script>
</svg>
