<?xml version="1.0" encoding="UTF-8" standalone="no"?>
<!DOCTYPE svg PUBLIC "-//W3C//DTD SVG 1.1//EN"
 "http://www.w3.org/Graphics/SVG/1.1/DTD/svg11.dtd">
<!-- Generated by graphviz version 2.49.3 (0)
 -->
<!-- Title: vanetza::security::v3::DefaultSignHeaderPolicy Pages: 1 -->
<svg width="145pt" height="426pt"
 viewBox="0.00 0.00 145.00 426.00" xmlns="http://www.w3.org/2000/svg" xmlns:xlink="http://www.w3.org/1999/xlink">
<g id="graph0" class="graph" transform="scale(1 1) rotate(0) translate(4 422)">
<title>vanetza::security::v3::DefaultSignHeaderPolicy</title>
<!-- Node1 -->
<g id="Node000001" class="node">
<title>Node1</title>
<g id="a_Node000001"><a xlink:title=" ">
<polygon fill="#999999" stroke="transparent" points="137,-236 0,-236 0,0 137,0 137,-236"/>
<text text-anchor="start" x="5.5" y="-224" font-family="Helvetica,sans-Serif" font-size="10.00">vanetza::security::</text>
<text text-anchor="start" x="5.5" y="-213" font-family="Helvetica,sans-Serif" font-size="10.00">v3::DefaultSignHeaderPolicy</text>
<text text-anchor="start" x="6.5" y="-198" font-family="Helvetica,sans-Serif" font-size="10.00">&#45;</text>
<text text-anchor="start" x="16.5" y="-198" font-family="Helvetica,sans-Serif" font-size="10.00">m_runtime</text>
<text text-anchor="start" x="6.5" y="-183" font-family="Helvetica,sans-Serif" font-size="10.00">&#45;</text>
<text text-anchor="start" x="16.5" y="-183" font-family="Helvetica,sans-Serif" font-size="10.00">m_positioning</text>
<text text-anchor="start" x="6.5" y="-168" font-family="Helvetica,sans-Serif" font-size="10.00">&#45;</text>
<text text-anchor="start" x="16.5" y="-168" font-family="Helvetica,sans-Serif" font-size="10.00">m_cert_provider</text>
<text text-anchor="start" x="6.5" y="-153" font-family="Helvetica,sans-Serif" font-size="10.00">&#45;</text>
<text text-anchor="start" x="16.5" y="-153" font-family="Helvetica,sans-Serif" font-size="10.00">m_cam_next_certificate</text>
<text text-anchor="start" x="6.5" y="-138" font-family="Helvetica,sans-Serif" font-size="10.00">&#45;</text>
<text text-anchor="start" x="16.5" y="-138" font-family="Helvetica,sans-Serif" font-size="10.00">m_cert_requested</text>
<text text-anchor="start" x="6.5" y="-123" font-family="Helvetica,sans-Serif" font-size="10.00">&#45;</text>
<text text-anchor="start" x="16.5" y="-123" font-family="Helvetica,sans-Serif" font-size="10.00">m_incoming_requests</text>
<text text-anchor="start" x="6.5" y="-108" font-family="Helvetica,sans-Serif" font-size="10.00">&#45;</text>
<text text-anchor="start" x="16.5" y="-108" font-family="Helvetica,sans-Serif" font-size="10.00">m_outgoing_requests</text>
<text text-anchor="start" x="5" y="-93" font-family="Helvetica,sans-Serif" font-size="10.00">+</text>
<text text-anchor="start" x="16.5" y="-93" font-family="Helvetica,sans-Serif" font-size="10.00">DefaultSignHeaderPolicy()</text>
<text text-anchor="start" x="5" y="-78" font-family="Helvetica,sans-Serif" font-size="10.00">+</text>
<text text-anchor="start" x="16.5" y="-78" font-family="Helvetica,sans-Serif" font-size="10.00">prepare_header()</text>
<text text-anchor="start" x="5" y="-63" font-family="Helvetica,sans-Serif" font-size="10.00">+</text>
<text text-anchor="start" x="16.5" y="-63" font-family="Helvetica,sans-Serif" font-size="10.00">request_unrecognized</text>
<text text-anchor="start" x="16.5" y="-52" font-family="Helvetica,sans-Serif" font-size="10.00">_certificate()</text>
<text text-anchor="start" x="5" y="-37" font-family="Helvetica,sans-Serif" font-size="10.00">+</text>
<text text-anchor="start" x="16.5" y="-37" font-family="Helvetica,sans-Serif" font-size="10.00">request_certificate()</text>
<text text-anchor="start" x="5" y="-22" font-family="Helvetica,sans-Serif" font-size="10.00">+</text>
<text text-anchor="start" x="16.5" y="-22" font-family="Helvetica,sans-Serif" font-size="10.00">enqueue_p2p_request()</text>
<text text-anchor="start" x="5" y="-7" font-family="Helvetica,sans-Serif" font-size="10.00">+</text>
<text text-anchor="start" x="16.5" y="-7" font-family="Helvetica,sans-Serif" font-size="10.00">discard_p2p_request()</text>
<polygon fill="#666666" stroke="#666666" points="0.5,-208 0.5,-208 137.5,-208 137.5,-208 0.5,-208"/>
<polygon fill="#666666" stroke="#666666" points="0.5,-103 0.5,-103 14.5,-103 14.5,-103 0.5,-103"/>
<polygon fill="#666666" stroke="#666666" points="14.5,-103 14.5,-103 137.5,-103 137.5,-103 14.5,-103"/>
<polygon fill="none" stroke="#666666" points="0,0 0,-236 137,-236 137,0 0,0"/>
</a>
</g>
</g>
<!-- Node2 -->
<g id="Node000002" class="node">
<title>Node2</title>
<g id="a_Node000002"><a xlink:href="../../d1/db1/classvanetza_1_1security_1_1v3_1_1SignHeaderPolicy.html" target="_top" xlink:title=" ">
<polygon fill="white" stroke="transparent" points="129,-418 8,-418 8,-272 129,-272 129,-418"/>
<text text-anchor="start" x="21.5" y="-406" font-family="Helvetica,sans-Serif" font-size="10.00">vanetza::security::</text>
<text text-anchor="start" x="21.5" y="-395" font-family="Helvetica,sans-Serif" font-size="10.00">v3::SignHeaderPolicy</text>
<text text-anchor="start" x="67" y="-380" font-family="Helvetica,sans-Serif" font-size="10.00"> </text>
<text text-anchor="start" x="12.5" y="-365" font-family="Helvetica,sans-Serif" font-size="10.00">+</text>
<text text-anchor="start" x="23.5" y="-365" font-family="Helvetica,sans-Serif" font-size="10.00">prepare_header()</text>
<text text-anchor="start" x="12.5" y="-350" font-family="Helvetica,sans-Serif" font-size="10.00">+</text>
<text text-anchor="start" x="23.5" y="-350" font-family="Helvetica,sans-Serif" font-size="10.00">request_unrecognized</text>
<text text-anchor="start" x="23.5" y="-339" font-family="Helvetica,sans-Serif" font-size="10.00">_certificate()</text>
<text text-anchor="start" x="12.5" y="-324" font-family="Helvetica,sans-Serif" font-size="10.00">+</text>
<text text-anchor="start" x="23.5" y="-324" font-family="Helvetica,sans-Serif" font-size="10.00">request_certificate()</text>
<text text-anchor="start" x="12.5" y="-309" font-family="Helvetica,sans-Serif" font-size="10.00">+</text>
<text text-anchor="start" x="23.5" y="-309" font-family="Helvetica,sans-Serif" font-size="10.00">enqueue_p2p_request()</text>
<text text-anchor="start" x="12.5" y="-294" font-family="Helvetica,sans-Serif" font-size="10.00">+</text>
<text text-anchor="start" x="23.5" y="-294" font-family="Helvetica,sans-Serif" font-size="10.00">discard_p2p_request()</text>
<text text-anchor="start" x="12.5" y="-279" font-family="Helvetica,sans-Serif" font-size="10.00">+</text>
<text text-anchor="start" x="23.5" y="-279" font-family="Helvetica,sans-Serif" font-size="10.00">~SignHeaderPolicy()</text>
<polygon fill="#666666" stroke="#666666" points="8.5,-390 8.5,-390 129.5,-390 129.5,-390 8.5,-390"/>
<polygon fill="#666666" stroke="#666666" points="8.5,-375 8.5,-375 129.5,-375 129.5,-375 8.5,-375"/>
<polygon fill="none" stroke="#666666" points="8,-272 8,-418 129,-418 129,-272 8,-272"/>
</a>
</g>
</g>
<!-- Node2&#45;&gt;Node1 -->
<g id="edge1_Node000001_Node000002" class="edge">
<title>Node2&#45;&gt;Node1</title>
<g id="a_edge1_Node000001_Node000002"><a xlink:title=" ">
<path fill="none" stroke="#63b8ff" d="M68.5,-261.81C68.5,-253.45 68.5,-244.84 68.5,-236.2"/>
<polygon fill="none" stroke="#63b8ff" points="65,-261.88 68.5,-271.88 72,-261.88 65,-261.88"/>
</a>
</g>
</g>
</g>
</svg>
