<?xml version="1.0" encoding="UTF-8" standalone="no"?>
<!DOCTYPE svg PUBLIC "-//W3C//DTD SVG 1.1//EN"
 "http://www.w3.org/Graphics/SVG/1.1/DTD/svg11.dtd">
<!-- Generated by graphviz version 2.49.3 (0)
 -->
<!-- Title: vanetza::convertible::byte_buffer_impl&lt; T &gt; Pages: 1 -->
<svg width="1104pt" height="499pt"
 viewBox="0.00 0.00 1104.00 499.00" xmlns="http://www.w3.org/2000/svg" xmlns:xlink="http://www.w3.org/1999/xlink">
<g id="graph0" class="graph" transform="scale(1 1) rotate(0) translate(4 495)">
<title>vanetza::convertible::byte_buffer_impl&lt; T &gt;</title>
<!-- Node1 -->
<g id="Node000001" class="node">
<title>Node1</title>
<g id="a_Node000001"><a xlink:title=" ">
<polygon fill="#999999" stroke="transparent" points="617,-349 504,-349 504,-214 617,-214 617,-349"/>
<text text-anchor="start" x="509.5" y="-336.5" font-family="Helvetica,sans-Serif" font-size="10.00">vanetza::convertible</text>
<text text-anchor="start" x="509.5" y="-325.5" font-family="Helvetica,sans-Serif" font-size="10.00">::byte_buffer_impl&lt; T &gt;</text>
<text text-anchor="start" x="513.5" y="-310.5" font-family="Helvetica,sans-Serif" font-size="10.00">&#45;</text>
<text text-anchor="start" x="526.5" y="-310.5" font-family="Helvetica,sans-Serif" font-size="10.00">m_wrapper</text>
<text text-anchor="start" x="512" y="-295.5" font-family="Helvetica,sans-Serif" font-size="10.00">+</text>
<text text-anchor="start" x="526.5" y="-295.5" font-family="Helvetica,sans-Serif" font-size="10.00">byte_buffer_impl()</text>
<text text-anchor="start" x="512" y="-280.5" font-family="Helvetica,sans-Serif" font-size="10.00">+</text>
<text text-anchor="start" x="526.5" y="-280.5" font-family="Helvetica,sans-Serif" font-size="10.00">byte_buffer_impl()</text>
<text text-anchor="start" x="512" y="-265.5" font-family="Helvetica,sans-Serif" font-size="10.00">+</text>
<text text-anchor="start" x="526.5" y="-265.5" font-family="Helvetica,sans-Serif" font-size="10.00">convert()</text>
<text text-anchor="start" x="512" y="-250.5" font-family="Helvetica,sans-Serif" font-size="10.00">+</text>
<text text-anchor="start" x="526.5" y="-250.5" font-family="Helvetica,sans-Serif" font-size="10.00">duplicate()</text>
<text text-anchor="start" x="512" y="-235.5" font-family="Helvetica,sans-Serif" font-size="10.00">+</text>
<text text-anchor="start" x="526.5" y="-235.5" font-family="Helvetica,sans-Serif" font-size="10.00">size()</text>
<text text-anchor="start" x="512" y="-220.5" font-family="Helvetica,sans-Serif" font-size="10.00">+</text>
<text text-anchor="start" x="526.5" y="-220.5" font-family="Helvetica,sans-Serif" font-size="10.00">wrapper()</text>
<polygon fill="#666666" stroke="#666666" points="504.5,-320.5 504.5,-320.5 617.5,-320.5 617.5,-320.5 504.5,-320.5"/>
<polygon fill="#666666" stroke="#666666" points="504.5,-305.5 504.5,-305.5 524.5,-305.5 524.5,-305.5 504.5,-305.5"/>
<polygon fill="#666666" stroke="#666666" points="524.5,-305.5 524.5,-305.5 617.5,-305.5 617.5,-305.5 524.5,-305.5"/>
<polygon fill="none" stroke="#666666" points="504,-214 504,-349 617,-349 617,-214 504,-214"/>
</a>
</g>
</g>
<!-- Node3 -->
<g id="Node000003" class="node">
<title>Node3</title>
<g id="a_Node000003"><a xlink:href="../../d9/d3a/structvanetza_1_1convertible_1_1byte__buffer__impl_3_01ByteBuffer_01_4.html" target="_top" xlink:title=" ">
<polygon fill="white" stroke="transparent" points="153,-140.5 0,-140.5 0,-5.5 153,-5.5 153,-140.5"/>
<text text-anchor="start" x="5.5" y="-128" font-family="Helvetica,sans-Serif" font-size="10.00">vanetza::convertible</text>
<text text-anchor="start" x="5.5" y="-117" font-family="Helvetica,sans-Serif" font-size="10.00">::byte_buffer_impl&lt; ByteBuffer &gt;</text>
<text text-anchor="start" x="18" y="-102" font-family="Helvetica,sans-Serif" font-size="10.00">+</text>
<text text-anchor="start" x="42.5" y="-102" font-family="Helvetica,sans-Serif" font-size="10.00">m_buffer</text>
<text text-anchor="start" x="19.5" y="-87" font-family="Helvetica,sans-Serif" font-size="10.00">&#45;</text>
<text text-anchor="start" x="42.5" y="-87" font-family="Helvetica,sans-Serif" font-size="10.00">m_wrapper</text>
<text text-anchor="start" x="18" y="-72" font-family="Helvetica,sans-Serif" font-size="10.00">+</text>
<text text-anchor="start" x="42.5" y="-72" font-family="Helvetica,sans-Serif" font-size="10.00">byte_buffer_impl()</text>
<text text-anchor="start" x="18" y="-57" font-family="Helvetica,sans-Serif" font-size="10.00">+</text>
<text text-anchor="start" x="42.5" y="-57" font-family="Helvetica,sans-Serif" font-size="10.00">convert()</text>
<text text-anchor="start" x="18" y="-42" font-family="Helvetica,sans-Serif" font-size="10.00">+</text>
<text text-anchor="start" x="42.5" y="-42" font-family="Helvetica,sans-Serif" font-size="10.00">size()</text>
<text text-anchor="start" x="18" y="-27" font-family="Helvetica,sans-Serif" font-size="10.00">+</text>
<text text-anchor="start" x="42.5" y="-27" font-family="Helvetica,sans-Serif" font-size="10.00">duplicate()</text>
<text text-anchor="start" x="18" y="-12" font-family="Helvetica,sans-Serif" font-size="10.00">+</text>
<text text-anchor="start" x="42.5" y="-12" font-family="Helvetica,sans-Serif" font-size="10.00">wrapper()</text>
<polygon fill="#bfbfbf" stroke="#bfbfbf" points="0.5,-112 0.5,-112 153.5,-112 153.5,-112 0.5,-112"/>
<polygon fill="#bfbfbf" stroke="#bfbfbf" points="0.5,-82 0.5,-82 40.5,-82 40.5,-82 0.5,-82"/>
<polygon fill="#bfbfbf" stroke="#bfbfbf" points="40.5,-82 40.5,-82 153.5,-82 153.5,-82 40.5,-82"/>
<polygon fill="none" stroke="#bfbfbf" points="0,-5.5 0,-140.5 153,-140.5 153,-5.5 0,-5.5"/>
</a>
</g>
</g>
<!-- Node1&#45;&gt;Node3 -->
<g id="edge2_Node000001_Node000003" class="edge">
<title>Node1&#45;&gt;Node3</title>
<g id="a_edge2_Node000001_Node000003"><a xlink:title=" ">
<path fill="none" stroke="orange" d="M493.81,-276.34C417.37,-269.12 290.43,-249.43 195.5,-196 170.62,-181.99 147.59,-161.21 128.54,-140.75"/>
<polygon fill="orange" stroke="orange" points="493.52,-279.83 503.79,-277.24 494.15,-272.86 493.52,-279.83"/>
</a>
</g>
<text text-anchor="start" x="199" y="-177" font-family="Helvetica,sans-Serif" font-size="10.00" fill="grey">&lt; ByteBuffer &gt;</text>
</g>
<!-- Node4 -->
<g id="Node000004" class="node">
<title>Node4</title>
<g id="a_Node000004"><a xlink:href="../../d2/d99/structvanetza_1_1convertible_1_1byte__buffer__impl_3_01btp_1_1HeaderA_01_4.html" target="_top" xlink:title=" ">
<polygon fill="white" stroke="transparent" points="282,-146 171,-146 171,0 282,0 282,-146"/>
<text text-anchor="start" x="176.5" y="-134" font-family="Helvetica,sans-Serif" font-size="10.00">vanetza::convertible</text>
<text text-anchor="start" x="176.5" y="-123" font-family="Helvetica,sans-Serif" font-size="10.00">::byte_buffer_impl&lt; btp</text>
<text text-anchor="start" x="200" y="-112" font-family="Helvetica,sans-Serif" font-size="10.00">::HeaderA &gt;</text>
<text text-anchor="start" x="178.5" y="-97" font-family="Helvetica,sans-Serif" font-size="10.00">+</text>
<text text-anchor="start" x="192.5" y="-97" font-family="Helvetica,sans-Serif" font-size="10.00">m_header</text>
<text text-anchor="start" x="180" y="-82" font-family="Helvetica,sans-Serif" font-size="10.00">&#45;</text>
<text text-anchor="start" x="192.5" y="-82" font-family="Helvetica,sans-Serif" font-size="10.00">m_wrapper</text>
<text text-anchor="start" x="178.5" y="-67" font-family="Helvetica,sans-Serif" font-size="10.00">+</text>
<text text-anchor="start" x="192.5" y="-67" font-family="Helvetica,sans-Serif" font-size="10.00">byte_buffer_impl()</text>
<text text-anchor="start" x="178.5" y="-52" font-family="Helvetica,sans-Serif" font-size="10.00">+</text>
<text text-anchor="start" x="192.5" y="-52" font-family="Helvetica,sans-Serif" font-size="10.00">convert()</text>
<text text-anchor="start" x="178.5" y="-37" font-family="Helvetica,sans-Serif" font-size="10.00">+</text>
<text text-anchor="start" x="192.5" y="-37" font-family="Helvetica,sans-Serif" font-size="10.00">size()</text>
<text text-anchor="start" x="178.5" y="-22" font-family="Helvetica,sans-Serif" font-size="10.00">+</text>
<text text-anchor="start" x="192.5" y="-22" font-family="Helvetica,sans-Serif" font-size="10.00">duplicate()</text>
<text text-anchor="start" x="178.5" y="-7" font-family="Helvetica,sans-Serif" font-size="10.00">+</text>
<text text-anchor="start" x="192.5" y="-7" font-family="Helvetica,sans-Serif" font-size="10.00">wrapper()</text>
<polygon fill="#bfbfbf" stroke="#bfbfbf" points="171.5,-107 171.5,-107 282.5,-107 282.5,-107 171.5,-107"/>
<polygon fill="#bfbfbf" stroke="#bfbfbf" points="171.5,-77 171.5,-77 190.5,-77 190.5,-77 171.5,-77"/>
<polygon fill="#bfbfbf" stroke="#bfbfbf" points="190.5,-77 190.5,-77 282.5,-77 282.5,-77 190.5,-77"/>
<polygon fill="none" stroke="#bfbfbf" points="171,0 171,-146 282,-146 282,0 171,0"/>
</a>
</g>
</g>
<!-- Node1&#45;&gt;Node4 -->
<g id="edge3_Node000001_Node000004" class="edge">
<title>Node1&#45;&gt;Node4</title>
<g id="a_edge3_Node000001_Node000004"><a xlink:title=" ">
<path fill="none" stroke="orange" d="M493.86,-272.44C436.83,-262.63 355.18,-241.35 298.5,-196 281.89,-182.71 268.28,-164.47 257.55,-146.15"/>
<polygon fill="orange" stroke="orange" points="493.42,-275.92 503.86,-274.09 494.56,-269.01 493.42,-275.92"/>
</a>
</g>
<text text-anchor="start" x="301.5" y="-177" font-family="Helvetica,sans-Serif" font-size="10.00" fill="grey">&lt; btp::HeaderA &gt;</text>
</g>
<!-- Node5 -->
<g id="Node000005" class="node">
<title>Node5</title>
<g id="a_Node000005"><a xlink:href="../../d8/dda/structvanetza_1_1convertible_1_1byte__buffer__impl_3_01btp_1_1HeaderB_01_4.html" target="_top" xlink:title=" ">
<polygon fill="white" stroke="transparent" points="411,-146 300,-146 300,0 411,0 411,-146"/>
<text text-anchor="start" x="305.5" y="-134" font-family="Helvetica,sans-Serif" font-size="10.00">vanetza::convertible</text>
<text text-anchor="start" x="305.5" y="-123" font-family="Helvetica,sans-Serif" font-size="10.00">::byte_buffer_impl&lt; btp</text>
<text text-anchor="start" x="329" y="-112" font-family="Helvetica,sans-Serif" font-size="10.00">::HeaderB &gt;</text>
<text text-anchor="start" x="307.5" y="-97" font-family="Helvetica,sans-Serif" font-size="10.00">+</text>
<text text-anchor="start" x="321.5" y="-97" font-family="Helvetica,sans-Serif" font-size="10.00">m_header</text>
<text text-anchor="start" x="309" y="-82" font-family="Helvetica,sans-Serif" font-size="10.00">&#45;</text>
<text text-anchor="start" x="321.5" y="-82" font-family="Helvetica,sans-Serif" font-size="10.00">m_wrapper</text>
<text text-anchor="start" x="307.5" y="-67" font-family="Helvetica,sans-Serif" font-size="10.00">+</text>
<text text-anchor="start" x="321.5" y="-67" font-family="Helvetica,sans-Serif" font-size="10.00">byte_buffer_impl()</text>
<text text-anchor="start" x="307.5" y="-52" font-family="Helvetica,sans-Serif" font-size="10.00">+</text>
<text text-anchor="start" x="321.5" y="-52" font-family="Helvetica,sans-Serif" font-size="10.00">convert()</text>
<text text-anchor="start" x="307.5" y="-37" font-family="Helvetica,sans-Serif" font-size="10.00">+</text>
<text text-anchor="start" x="321.5" y="-37" font-family="Helvetica,sans-Serif" font-size="10.00">size()</text>
<text text-anchor="start" x="307.5" y="-22" font-family="Helvetica,sans-Serif" font-size="10.00">+</text>
<text text-anchor="start" x="321.5" y="-22" font-family="Helvetica,sans-Serif" font-size="10.00">duplicate()</text>
<text text-anchor="start" x="307.5" y="-7" font-family="Helvetica,sans-Serif" font-size="10.00">+</text>
<text text-anchor="start" x="321.5" y="-7" font-family="Helvetica,sans-Serif" font-size="10.00">wrapper()</text>
<polygon fill="#bfbfbf" stroke="#bfbfbf" points="300.5,-107 300.5,-107 411.5,-107 411.5,-107 300.5,-107"/>
<polygon fill="#bfbfbf" stroke="#bfbfbf" points="300.5,-77 300.5,-77 319.5,-77 319.5,-77 300.5,-77"/>
<polygon fill="#bfbfbf" stroke="#bfbfbf" points="319.5,-77 319.5,-77 411.5,-77 411.5,-77 319.5,-77"/>
<polygon fill="none" stroke="#bfbfbf" points="300,0 300,-146 411,-146 411,0 300,0"/>
</a>
</g>
</g>
<!-- Node1&#45;&gt;Node5 -->
<g id="edge4_Node000001_Node000005" class="edge">
<title>Node1&#45;&gt;Node5</title>
<g id="a_edge4_Node000001_Node000005"><a xlink:title=" ">
<path fill="none" stroke="orange" d="M494.17,-257.22C463.16,-243.49 427.8,-223.38 403.5,-196 390.88,-181.79 381.39,-163.87 374.33,-146.17"/>
<polygon fill="orange" stroke="orange" points="493.06,-260.55 503.63,-261.27 495.82,-254.12 493.06,-260.55"/>
</a>
</g>
<text text-anchor="start" x="406.5" y="-177" font-family="Helvetica,sans-Serif" font-size="10.00" fill="grey">&lt; btp::HeaderB &gt;</text>
</g>
<!-- Node6 -->
<g id="Node000006" class="node">
<title>Node6</title>
<g id="a_Node000006"><a xlink:href="../../da/dac/structvanetza_1_1convertible_1_1byte__buffer__impl_3_01geonet_1_1SecuredPdu_01_4.html" target="_top" xlink:title=" ">
<polygon fill="white" stroke="transparent" points="556,-146 429,-146 429,0 556,0 556,-146"/>
<text text-anchor="start" x="434.5" y="-134" font-family="Helvetica,sans-Serif" font-size="10.00">vanetza::convertible</text>
<text text-anchor="start" x="434.5" y="-123" font-family="Helvetica,sans-Serif" font-size="10.00">::byte_buffer_impl&lt; geonet</text>
<text text-anchor="start" x="458.5" y="-112" font-family="Helvetica,sans-Serif" font-size="10.00">::SecuredPdu &gt;</text>
<text text-anchor="start" x="440.5" y="-97" font-family="Helvetica,sans-Serif" font-size="10.00">+</text>
<text text-anchor="start" x="458.5" y="-97" font-family="Helvetica,sans-Serif" font-size="10.00">pdu</text>
<text text-anchor="start" x="442" y="-82" font-family="Helvetica,sans-Serif" font-size="10.00">&#45;</text>
<text text-anchor="start" x="458.5" y="-82" font-family="Helvetica,sans-Serif" font-size="10.00">m_wrapper</text>
<text text-anchor="start" x="440.5" y="-67" font-family="Helvetica,sans-Serif" font-size="10.00">+</text>
<text text-anchor="start" x="458.5" y="-67" font-family="Helvetica,sans-Serif" font-size="10.00">byte_buffer_impl()</text>
<text text-anchor="start" x="440.5" y="-52" font-family="Helvetica,sans-Serif" font-size="10.00">+</text>
<text text-anchor="start" x="458.5" y="-52" font-family="Helvetica,sans-Serif" font-size="10.00">convert()</text>
<text text-anchor="start" x="440.5" y="-37" font-family="Helvetica,sans-Serif" font-size="10.00">+</text>
<text text-anchor="start" x="458.5" y="-37" font-family="Helvetica,sans-Serif" font-size="10.00">size()</text>
<text text-anchor="start" x="440.5" y="-22" font-family="Helvetica,sans-Serif" font-size="10.00">+</text>
<text text-anchor="start" x="458.5" y="-22" font-family="Helvetica,sans-Serif" font-size="10.00">duplicate()</text>
<text text-anchor="start" x="440.5" y="-7" font-family="Helvetica,sans-Serif" font-size="10.00">+</text>
<text text-anchor="start" x="458.5" y="-7" font-family="Helvetica,sans-Serif" font-size="10.00">wrapper()</text>
<polygon fill="#bfbfbf" stroke="#bfbfbf" points="429.5,-107 429.5,-107 556.5,-107 556.5,-107 429.5,-107"/>
<polygon fill="#bfbfbf" stroke="#bfbfbf" points="429.5,-77 429.5,-77 456.5,-77 456.5,-77 429.5,-77"/>
<polygon fill="#bfbfbf" stroke="#bfbfbf" points="456.5,-77 456.5,-77 556.5,-77 556.5,-77 456.5,-77"/>
<polygon fill="none" stroke="#bfbfbf" points="429,0 429,-146 556,-146 556,0 429,0"/>
</a>
</g>
</g>
<!-- Node1&#45;&gt;Node6 -->
<g id="edge5_Node000001_Node000006" class="edge">
<title>Node1&#45;&gt;Node6</title>
<g id="a_edge5_Node000001_Node000006"><a xlink:title=" ">
<path fill="none" stroke="orange" d="M499.3,-205.34C497.89,-202.26 496.61,-199.14 495.5,-196 489.95,-180.32 487.52,-162.79 486.82,-146.01"/>
<polygon fill="orange" stroke="orange" points="496.28,-207.12 503.92,-214.46 502.52,-203.96 496.28,-207.12"/>
</a>
</g>
<text text-anchor="start" x="498.5" y="-177" font-family="Helvetica,sans-Serif" font-size="10.00" fill="grey">&lt; geonet::SecuredPdu &gt;</text>
</g>
<!-- Node7 -->
<g id="Node000007" class="node">
<title>Node7</title>
<g id="a_Node000007"><a xlink:title=" ">
<polygon fill="white" stroke="transparent" points="685,-108.5 574,-108.5 574,-37.5 685,-37.5 685,-108.5"/>
<text text-anchor="start" x="579.5" y="-96" font-family="Helvetica,sans-Serif" font-size="10.00">vanetza::convertible</text>
<text text-anchor="start" x="579.5" y="-85" font-family="Helvetica,sans-Serif" font-size="10.00">::byte_buffer_impl&lt; std</text>
<text text-anchor="start" x="605" y="-74" font-family="Helvetica,sans-Serif" font-size="10.00">::nullptr_t &gt;</text>
<text text-anchor="start" x="628" y="-59" font-family="Helvetica,sans-Serif" font-size="10.00"> </text>
<text text-anchor="start" x="628" y="-44" font-family="Helvetica,sans-Serif" font-size="10.00"> </text>
<polygon fill="#bfbfbf" stroke="#bfbfbf" points="574.5,-69 574.5,-69 685.5,-69 685.5,-69 574.5,-69"/>
<polygon fill="#bfbfbf" stroke="#bfbfbf" points="574.5,-54 574.5,-54 685.5,-54 685.5,-54 574.5,-54"/>
<polygon fill="none" stroke="#bfbfbf" points="574,-37.5 574,-108.5 685,-108.5 685,-37.5 574,-37.5"/>
</a>
</g>
</g>
<!-- Node1&#45;&gt;Node7 -->
<g id="edge6_Node000001_Node000007" class="edge">
<title>Node1&#45;&gt;Node7</title>
<g id="a_edge6_Node000001_Node000007"><a xlink:title=" ">
<path fill="none" stroke="orange" d="M604.33,-204.26C605.46,-201.5 606.52,-198.74 607.5,-196 617.67,-167.52 623.3,-133.56 626.32,-108.7"/>
<polygon fill="orange" stroke="orange" points="601.03,-203.06 600.25,-213.63 607.45,-205.85 601.03,-203.06"/>
</a>
</g>
<text text-anchor="start" x="619" y="-177" font-family="Helvetica,sans-Serif" font-size="10.00" fill="grey">&lt; std::nullptr_t &gt;</text>
</g>
<!-- Node8 -->
<g id="Node000008" class="node">
<title>Node8</title>
<g id="a_Node000008"><a xlink:title=" ">
<polygon fill="white" stroke="transparent" points="814,-108.5 703,-108.5 703,-37.5 814,-37.5 814,-108.5"/>
<text text-anchor="start" x="708.5" y="-96" font-family="Helvetica,sans-Serif" font-size="10.00">vanetza::convertible</text>
<text text-anchor="start" x="708.5" y="-85" font-family="Helvetica,sans-Serif" font-size="10.00">::byte_buffer_impl&lt; std</text>
<text text-anchor="start" x="739" y="-74" font-family="Helvetica,sans-Serif" font-size="10.00">::string &gt;</text>
<text text-anchor="start" x="757" y="-59" font-family="Helvetica,sans-Serif" font-size="10.00"> </text>
<text text-anchor="start" x="757" y="-44" font-family="Helvetica,sans-Serif" font-size="10.00"> </text>
<polygon fill="#bfbfbf" stroke="#bfbfbf" points="703.5,-69 703.5,-69 814.5,-69 814.5,-69 703.5,-69"/>
<polygon fill="#bfbfbf" stroke="#bfbfbf" points="703.5,-54 703.5,-54 814.5,-54 814.5,-54 703.5,-54"/>
<polygon fill="none" stroke="#bfbfbf" points="703,-37.5 703,-108.5 814,-108.5 814,-37.5 703,-37.5"/>
</a>
</g>
</g>
<!-- Node1&#45;&gt;Node8 -->
<g id="edge7_Node000001_Node000008" class="edge">
<title>Node1&#45;&gt;Node8</title>
<g id="a_edge7_Node000001_Node000008"><a xlink:title=" ">
<path fill="none" stroke="orange" d="M626.15,-250.3C651.11,-236.42 678.36,-218.1 698.5,-196 721.56,-170.71 737.74,-134.93 747.45,-108.65"/>
<polygon fill="orange" stroke="orange" points="624.2,-247.37 617.07,-255.21 627.53,-253.53 624.2,-247.37"/>
</a>
</g>
<text text-anchor="start" x="722.5" y="-177" font-family="Helvetica,sans-Serif" font-size="10.00" fill="grey">&lt; std::string &gt;</text>
</g>
<!-- Node9 -->
<g id="Node000009" class="node">
<title>Node9</title>
<g id="a_Node000009"><a xlink:title=" ">
<polygon fill="white" stroke="transparent" points="967,-108.5 832,-108.5 832,-37.5 967,-37.5 967,-108.5"/>
<text text-anchor="start" x="837.5" y="-96" font-family="Helvetica,sans-Serif" font-size="10.00">vanetza::convertible</text>
<text text-anchor="start" x="837.5" y="-85" font-family="Helvetica,sans-Serif" font-size="10.00">::byte_buffer_impl&lt; std</text>
<text text-anchor="start" x="837.5" y="-74" font-family="Helvetica,sans-Serif" font-size="10.00">::unique_ptr&lt; ByteBuffer &gt; &gt;</text>
<text text-anchor="start" x="898" y="-59" font-family="Helvetica,sans-Serif" font-size="10.00"> </text>
<text text-anchor="start" x="898" y="-44" font-family="Helvetica,sans-Serif" font-size="10.00"> </text>
<polygon fill="#bfbfbf" stroke="#bfbfbf" points="832.5,-69 832.5,-69 967.5,-69 967.5,-69 832.5,-69"/>
<polygon fill="#bfbfbf" stroke="#bfbfbf" points="832.5,-54 832.5,-54 967.5,-54 967.5,-54 832.5,-54"/>
<polygon fill="none" stroke="#bfbfbf" points="832,-37.5 832,-108.5 967,-108.5 967,-37.5 832,-37.5"/>
</a>
</g>
</g>
<!-- Node1&#45;&gt;Node9 -->
<g id="edge8_Node000001_Node000009" class="edge">
<title>Node1&#45;&gt;Node9</title>
<g id="a_edge8_Node000001_Node000009"><a xlink:title=" ">
<path fill="none" stroke="orange" d="M627.11,-265.53C675.62,-252.49 741.33,-230.21 791.5,-196 825.97,-172.49 856.57,-135.57 876.32,-108.5"/>
<polygon fill="orange" stroke="orange" points="626.13,-262.17 617.34,-268.1 627.9,-268.94 626.13,-262.17"/>
</a>
</g>
<text text-anchor="start" x="831.5" y="-185" font-family="Helvetica,sans-Serif" font-size="10.00" fill="grey">&lt; std::unique_ptr&lt;</text>
<text text-anchor="start" x="831.5" y="-170" font-family="Helvetica,sans-Serif" font-size="10.00" fill="grey">   ByteBuffer &gt; &gt;</text>
</g>
<!-- Node10 -->
<g id="Node000010" class="node">
<title>Node10</title>
<g id="a_Node000010"><a xlink:title=" ">
<polygon fill="white" stroke="transparent" points="1096,-114 985,-114 985,-32 1096,-32 1096,-114"/>
<text text-anchor="start" x="990.5" y="-102" font-family="Helvetica,sans-Serif" font-size="10.00">vanetza::convertible</text>
<text text-anchor="start" x="990.5" y="-91" font-family="Helvetica,sans-Serif" font-size="10.00">::byte_buffer_impl&lt; std</text>
<text text-anchor="start" x="990.5" y="-80" font-family="Helvetica,sans-Serif" font-size="10.00">::unique_ptr&lt; vanetza::</text>
<text text-anchor="start" x="1006" y="-69" font-family="Helvetica,sans-Serif" font-size="10.00">geonet::Pdu &gt; &gt;</text>
<text text-anchor="start" x="1039" y="-54" font-family="Helvetica,sans-Serif" font-size="10.00"> </text>
<text text-anchor="start" x="1039" y="-39" font-family="Helvetica,sans-Serif" font-size="10.00"> </text>
<polygon fill="#bfbfbf" stroke="#bfbfbf" points="985.5,-64 985.5,-64 1096.5,-64 1096.5,-64 985.5,-64"/>
<polygon fill="#bfbfbf" stroke="#bfbfbf" points="985.5,-49 985.5,-49 1096.5,-49 1096.5,-49 985.5,-49"/>
<polygon fill="none" stroke="#bfbfbf" points="985,-32 985,-114 1096,-114 1096,-32 985,-32"/>
</a>
</g>
</g>
<!-- Node1&#45;&gt;Node10 -->
<g id="edge9_Node000001_Node000010" class="edge">
<title>Node1&#45;&gt;Node10</title>
<g id="a_edge9_Node000001_Node000010"><a xlink:title=" ">
<path fill="none" stroke="orange" d="M627.19,-274.36C701.65,-265.38 824.1,-244.15 918.5,-196 956.12,-176.81 989.31,-141.75 1011.54,-114.12"/>
<polygon fill="orange" stroke="orange" points="626.54,-270.91 617.01,-275.55 627.35,-277.87 626.54,-270.91"/>
</a>
</g>
<text text-anchor="start" x="964" y="-185" font-family="Helvetica,sans-Serif" font-size="10.00" fill="grey">&lt; std::unique_ptr&lt;</text>
<text text-anchor="start" x="964" y="-170" font-family="Helvetica,sans-Serif" font-size="10.00" fill="grey">   vanetza::geonet::Pdu &gt; &gt;</text>
</g>
<!-- Node2 -->
<g id="Node000002" class="node">
<title>Node2</title>
<g id="a_Node000002"><a xlink:href="../../d4/dce/structvanetza_1_1convertible_1_1byte__buffer.html" target="_top" xlink:title=" ">
<polygon fill="white" stroke="transparent" points="609.5,-491 511.5,-491 511.5,-386 609.5,-386 609.5,-491"/>
<text text-anchor="start" x="516.5" y="-478.5" font-family="Helvetica,sans-Serif" font-size="10.00">vanetza::convertible</text>
<text text-anchor="start" x="533" y="-467.5" font-family="Helvetica,sans-Serif" font-size="10.00">::byte_buffer</text>
<text text-anchor="start" x="558.5" y="-452.5" font-family="Helvetica,sans-Serif" font-size="10.00"> </text>
<text text-anchor="start" x="520" y="-437.5" font-family="Helvetica,sans-Serif" font-size="10.00">+</text>
<text text-anchor="start" x="535.5" y="-437.5" font-family="Helvetica,sans-Serif" font-size="10.00">convert()</text>
<text text-anchor="start" x="520" y="-422.5" font-family="Helvetica,sans-Serif" font-size="10.00">+</text>
<text text-anchor="start" x="535.5" y="-422.5" font-family="Helvetica,sans-Serif" font-size="10.00">size()</text>
<text text-anchor="start" x="520" y="-407.5" font-family="Helvetica,sans-Serif" font-size="10.00">+</text>
<text text-anchor="start" x="535.5" y="-407.5" font-family="Helvetica,sans-Serif" font-size="10.00">duplicate()</text>
<text text-anchor="start" x="520" y="-392.5" font-family="Helvetica,sans-Serif" font-size="10.00">+</text>
<text text-anchor="start" x="535.5" y="-392.5" font-family="Helvetica,sans-Serif" font-size="10.00">~byte_buffer()</text>
<polygon fill="#bfbfbf" stroke="#bfbfbf" points="511.5,-462.5 511.5,-462.5 609.5,-462.5 609.5,-462.5 511.5,-462.5"/>
<polygon fill="#bfbfbf" stroke="#bfbfbf" points="511.5,-447.5 511.5,-447.5 609.5,-447.5 609.5,-447.5 511.5,-447.5"/>
<polygon fill="none" stroke="#bfbfbf" points="511.5,-386 511.5,-491 609.5,-491 609.5,-386 511.5,-386"/>
</a>
</g>
</g>
<!-- Node2&#45;&gt;Node1 -->
<g id="edge1_Node000001_Node000002" class="edge">
<title>Node2&#45;&gt;Node1</title>
<g id="a_edge1_Node000001_Node000002"><a xlink:title=" ">
<path fill="none" stroke="#63b8ff" d="M560.5,-375.74C560.5,-366.97 560.5,-357.91 560.5,-349.05"/>
<polygon fill="none" stroke="#63b8ff" points="557,-375.89 560.5,-385.89 564,-375.89 557,-375.89"/>
</a>
</g>
</g>
</g>
</svg>
