<?xml version="1.0" encoding="UTF-8" standalone="no"?>
<!DOCTYPE svg PUBLIC "-//W3C//DTD SVG 1.1//EN"
 "http://www.w3.org/Graphics/SVG/1.1/DTD/svg11.dtd">
<!-- Generated by graphviz version 2.49.3 (0)
 -->
<!-- Title: vanetza::convertible::byte_buffer_impl&lt; T &gt; Pages: 1 -->
<svg width="127pt" height="270pt"
 viewBox="0.00 0.00 127.00 270.00" xmlns="http://www.w3.org/2000/svg" xmlns:xlink="http://www.w3.org/1999/xlink">
<g id="graph0" class="graph" transform="scale(1 1) rotate(0) translate(4 266)">
<title>vanetza::convertible::byte_buffer_impl&lt; T &gt;</title>
<polygon fill="white" stroke="transparent" points="-4,4 -4,-266 123,-266 123,4 -4,4"/>
<!-- Node1 -->
<g id="node1" class="node">
<title>Node1</title>
<g id="a_node1"><a xlink:title=" ">
<polygon fill="#bfbfbf" stroke="black" points="0,-0.5 0,-123.5 119,-123.5 119,-0.5 0,-0.5"/>
<text text-anchor="start" x="8" y="-111.5" font-family="Helvetica,sans-Serif" font-size="10.00">vanetza::convertible</text>
<text text-anchor="middle" x="59.5" y="-100.5" font-family="Helvetica,sans-Serif" font-size="10.00">::byte_buffer_impl&lt; T &gt;</text>
<polyline fill="none" stroke="black" points="0,-93.5 119,-93.5 "/>
<text text-anchor="start" x="8" y="-81.5" font-family="Helvetica,sans-Serif" font-size="10.00">&#45; m_wrapper</text>
<polyline fill="none" stroke="black" points="0,-74.5 119,-74.5 "/>
<text text-anchor="start" x="8" y="-62.5" font-family="Helvetica,sans-Serif" font-size="10.00">+ byte_buffer_impl()</text>
<text text-anchor="start" x="8" y="-51.5" font-family="Helvetica,sans-Serif" font-size="10.00">+ byte_buffer_impl()</text>
<text text-anchor="start" x="8" y="-40.5" font-family="Helvetica,sans-Serif" font-size="10.00">+ convert()</text>
<text text-anchor="start" x="8" y="-29.5" font-family="Helvetica,sans-Serif" font-size="10.00">+ duplicate()</text>
<text text-anchor="start" x="8" y="-18.5" font-family="Helvetica,sans-Serif" font-size="10.00">+ size()</text>
<text text-anchor="start" x="8" y="-7.5" font-family="Helvetica,sans-Serif" font-size="10.00">+ wrapper()</text>
</a>
</g>
</g>
<!-- Node2 -->
<g id="node2" class="node">
<title>Node2</title>
<g id="a_node2"><a xlink:href="../../d4/dce/structvanetza_1_1convertible_1_1byte__buffer.html" target="_top" xlink:title=" ">
<polygon fill="white" stroke="#bfbfbf" points="7.5,-160.5 7.5,-261.5 111.5,-261.5 111.5,-160.5 7.5,-160.5"/>
<text text-anchor="start" x="15.5" y="-249.5" font-family="Helvetica,sans-Serif" font-size="10.00">vanetza::convertible</text>
<text text-anchor="middle" x="59.5" y="-238.5" font-family="Helvetica,sans-Serif" font-size="10.00">::byte_buffer</text>
<polyline fill="none" stroke="#bfbfbf" points="7.5,-231.5 111.5,-231.5 "/>
<text text-anchor="middle" x="59.5" y="-219.5" font-family="Helvetica,sans-Serif" font-size="10.00"> </text>
<polyline fill="none" stroke="#bfbfbf" points="7.5,-212.5 111.5,-212.5 "/>
<text text-anchor="start" x="15.5" y="-200.5" font-family="Helvetica,sans-Serif" font-size="10.00">+ convert()</text>
<text text-anchor="start" x="15.5" y="-189.5" font-family="Helvetica,sans-Serif" font-size="10.00">+ size()</text>
<text text-anchor="start" x="15.5" y="-178.5" font-family="Helvetica,sans-Serif" font-size="10.00">+ duplicate()</text>
<text text-anchor="start" x="15.5" y="-167.5" font-family="Helvetica,sans-Serif" font-size="10.00">+ ~byte_buffer()</text>
</a>
</g>
</g>
<!-- Node2&#45;&gt;Node1 -->
<g id="edge1" class="edge">
<title>Node2&#45;&gt;Node1</title>
<path fill="none" stroke="midnightblue" d="M59.5,-150.14C59.5,-141.41 59.5,-132.42 59.5,-123.67"/>
<polygon fill="none" stroke="midnightblue" points="56,-150.23 59.5,-160.23 63,-150.23 56,-150.23"/>
</g>
</g>
</svg>
