<?xml version="1.0" encoding="UTF-8" standalone="no"?>
<!DOCTYPE svg PUBLIC "-//W3C//DTD SVG 1.1//EN"
 "http://www.w3.org/Graphics/SVG/1.1/DTD/svg11.dtd">
<!-- Generated by graphviz version 14.1.2 (0)
 -->
<!-- Title: vanetza::security::openssl::Signature Pages: 1 -->
<svg width="136pt" height="346pt"
 viewBox="0.00 0.00 136.00 346.00" xmlns="http://www.w3.org/2000/svg" xmlns:xlink="http://www.w3.org/1999/xlink">
<g id="graph0" class="graph" transform="scale(1 1) rotate(0) translate(4 341.5)">
<title>vanetza::security::openssl::Signature</title>
<!-- Node1 -->
<g id="Node000001" class="node">
<title>Node1</title>
<g id="a_Node000001"><a xlink:title=" ">
<polygon fill="#999999" stroke="none" points="127.5,-247.25 0,-247.25 0,0 127.5,0 127.5,-247.25"/>
<text xml:space="preserve" text-anchor="start" x="18.75" y="-233.75" font-family="Helvetica,sans-Serif" font-size="10.00">vanetza::security::</text>
<text xml:space="preserve" text-anchor="start" x="18.75" y="-221" font-family="Helvetica,sans-Serif" font-size="10.00">openssl::Signature</text>
<text xml:space="preserve" text-anchor="start" x="6.25" y="-204.25" font-family="Helvetica,sans-Serif" font-size="10.00">&#45;</text>
<text xml:space="preserve" text-anchor="start" x="16.25" y="-204.25" font-family="Helvetica,sans-Serif" font-size="10.00">signature</text>
<text xml:space="preserve" text-anchor="start" x="4" y="-187.5" font-family="Helvetica,sans-Serif" font-size="10.00">+</text>
<text xml:space="preserve" text-anchor="start" x="16.25" y="-187.5" font-family="Helvetica,sans-Serif" font-size="10.00">Signature()</text>
<text xml:space="preserve" text-anchor="start" x="4" y="-170.75" font-family="Helvetica,sans-Serif" font-size="10.00">+</text>
<text xml:space="preserve" text-anchor="start" x="16.25" y="-170.75" font-family="Helvetica,sans-Serif" font-size="10.00">Signature()</text>
<text xml:space="preserve" text-anchor="start" x="4" y="-154" font-family="Helvetica,sans-Serif" font-size="10.00">+</text>
<text xml:space="preserve" text-anchor="start" x="16.25" y="-154" font-family="Helvetica,sans-Serif" font-size="10.00">Signature()</text>
<text xml:space="preserve" text-anchor="start" x="4" y="-137.25" font-family="Helvetica,sans-Serif" font-size="10.00">+</text>
<text xml:space="preserve" text-anchor="start" x="16.25" y="-137.25" font-family="Helvetica,sans-Serif" font-size="10.00">Signature()</text>
<text xml:space="preserve" text-anchor="start" x="4" y="-120.5" font-family="Helvetica,sans-Serif" font-size="10.00">+</text>
<text xml:space="preserve" text-anchor="start" x="16.25" y="-120.5" font-family="Helvetica,sans-Serif" font-size="10.00">operator=()</text>
<text xml:space="preserve" text-anchor="start" x="4" y="-103.75" font-family="Helvetica,sans-Serif" font-size="10.00">+</text>
<text xml:space="preserve" text-anchor="start" x="16.25" y="-103.75" font-family="Helvetica,sans-Serif" font-size="10.00">~Signature()</text>
<text xml:space="preserve" text-anchor="start" x="4" y="-87" font-family="Helvetica,sans-Serif" font-size="10.00">+</text>
<text xml:space="preserve" text-anchor="start" x="16.25" y="-87" font-family="Helvetica,sans-Serif" font-size="10.00">operator const ECDSA</text>
<text xml:space="preserve" text-anchor="start" x="16.25" y="-74.25" font-family="Helvetica,sans-Serif" font-size="10.00">_SIG *()</text>
<text xml:space="preserve" text-anchor="start" x="4" y="-57.5" font-family="Helvetica,sans-Serif" font-size="10.00">+</text>
<text xml:space="preserve" text-anchor="start" x="16.25" y="-57.5" font-family="Helvetica,sans-Serif" font-size="10.00">operator&#45;&gt;()</text>
<text xml:space="preserve" text-anchor="start" x="4" y="-40.75" font-family="Helvetica,sans-Serif" font-size="10.00">+</text>
<text xml:space="preserve" text-anchor="start" x="16.25" y="-40.75" font-family="Helvetica,sans-Serif" font-size="10.00">operator&#45;&gt;()</text>
<text xml:space="preserve" text-anchor="start" x="4" y="-24" font-family="Helvetica,sans-Serif" font-size="10.00">+</text>
<text xml:space="preserve" text-anchor="start" x="16.25" y="-24" font-family="Helvetica,sans-Serif" font-size="10.00">operator bool()</text>
<text xml:space="preserve" text-anchor="start" x="6.25" y="-7.25" font-family="Helvetica,sans-Serif" font-size="10.00">&#45;</text>
<text xml:space="preserve" text-anchor="start" x="16.25" y="-7.25" font-family="Helvetica,sans-Serif" font-size="10.00">Signature()</text>
<polygon fill="#666666" stroke="#666666" points="0,-215.75 0,-215.75 127.5,-215.75 127.5,-215.75 0,-215.75"/>
<polygon fill="#666666" stroke="#666666" points="0,-199 0,-199 14.25,-199 14.25,-199 0,-199"/>
<polygon fill="#666666" stroke="#666666" points="14.25,-199 14.25,-199 127.5,-199 127.5,-199 14.25,-199"/>
<polygon fill="none" stroke="#666666" points="0,0 0,-247.25 127.5,-247.25 127.5,0 0,0"/>
</a>
</g>
</g>
<!-- Node2 -->
<g id="Node000002" class="node">
<title>Node2</title>
<g id="a_Node000002"><a xlink:title=" ">
<polygon fill="white" stroke="none" points="115.38,-337.5 12.12,-337.5 12.12,-283.25 115.38,-283.25 115.38,-337.5"/>
<text xml:space="preserve" text-anchor="start" x="16.12" y="-324" font-family="Helvetica,sans-Serif" font-size="10.00">boost::noncopyable</text>
<text xml:space="preserve" text-anchor="start" x="62.25" y="-307.25" font-family="Helvetica,sans-Serif" font-size="10.00"> </text>
<text xml:space="preserve" text-anchor="start" x="62.25" y="-290.5" font-family="Helvetica,sans-Serif" font-size="10.00"> </text>
<polygon fill="#bfbfbf" stroke="#bfbfbf" points="12.12,-318.75 12.12,-318.75 115.38,-318.75 115.38,-318.75 12.12,-318.75"/>
<polygon fill="#bfbfbf" stroke="#bfbfbf" points="12.12,-302 12.12,-302 115.38,-302 115.38,-302 12.12,-302"/>
<polygon fill="none" stroke="#bfbfbf" points="12.12,-283.25 12.12,-337.5 115.38,-337.5 115.38,-283.25 12.12,-283.25"/>
</a>
</g>
</g>
<!-- Node2&#45;&gt;Node1 -->
<g id="edge1_Node000001_Node000002" class="edge">
<title>Node2&#45;&gt;Node1</title>
<g id="a_edge1_Node000001_Node000002"><a xlink:title=" ">
<path fill="none" stroke="#8b1a1a" d="M63.75,-271.97C63.75,-264.31 63.75,-255.87 63.75,-247"/>
<polygon fill="none" stroke="#8b1a1a" points="60.25,-271.78 63.75,-281.78 67.25,-271.78 60.25,-271.78"/>
</a>
</g>
</g>
</g>
</svg>
