<?xml version="1.0" encoding="UTF-8" standalone="no"?>
<!DOCTYPE svg PUBLIC "-//W3C//DTD SVG 1.1//EN"
 "http://www.w3.org/Graphics/SVG/1.1/DTD/svg11.dtd">
<!-- Generated by graphviz version 2.42.3 (0)
 -->
<!-- Title: vanetza::security::v3::NinetyDegreeInt Pages: 1 -->
<!--zoomable 493 -->
<svg id="main" version="1.1" xmlns="http://www.w3.org/2000/svg" xmlns:xlink="http://www.w3.org/1999/xlink" xml:space="preserve" onload="init(evt)">
<style type="text/css"><![CDATA[
.edge:hover path { stroke: red; }
.edge:hover polygon { stroke: red; fill: red; }
]]></style>
<script type="text/javascript"><![CDATA[
var edges = document.getElementsByTagName('g');
if (edges && edges.length) {
  for (var i=0;i<edges.length;i++) {
    if (edges[i].id.substr(0,4)=='edge') {
      edges[i].setAttribute('class','edge');
    }
  }
}
]]></script>
        <defs>
                <circle id="rim" cx="0" cy="0" r="7"/>
                <circle id="rim2" cx="0" cy="0" r="3.5"/>
                <g id="zoomPlus">
                        <use xlink:href="#rim" fill="#404040">
                                <set attributeName="fill" to="#808080" begin="zoomplus.mouseover" end="zoomplus.mouseout"/>
                        </use>
                        <path d="M-4,0h8M0,-4v8" fill="none" stroke="white" stroke-width="1.5" pointer-events="none"/>
                </g>
                <g id="zoomMin">
                        <use xlink:href="#rim" fill="#404040">
                                <set attributeName="fill" to="#808080" begin="zoomminus.mouseover" end="zoomminus.mouseout"/>
                        </use>
                        <path d="M-4,0h8" fill="none" stroke="white" stroke-width="1.5" pointer-events="none"/>
                </g>
                <g id="dirArrow">
                        <path fill="none" stroke="white" stroke-width="1.5" d="M0,-3.0v7 M-2.5,-0.5L0,-3.0L2.5,-0.5"/>
                </g>
               <g id="resetDef">
                       <use xlink:href="#rim2" fill="#404040">
                               <set attributeName="fill" to="#808080" begin="reset.mouseover" end="reset.mouseout"/>
                       </use>
               </g>
        </defs>

<script type="text/javascript">
var viewWidth = 197;
var viewHeight = 493;
var sectionId = 'dynsection-0';
</script>
<script xlink:href="../../svgpan.js"/>
<svg id="graph" class="graph">
<g id="viewport">
<title>vanetza::security::v3::NinetyDegreeInt</title>
<polygon fill="white" stroke="transparent" points="-4,4 -4,-489 193,-489 193,4 -4,4"/>
<!-- Node1 -->
<g id="node1" class="node">
<title>Node1</title>
<g id="a_node1"><a xlink:title=" ">
<polygon fill="#bfbfbf" stroke="black" points="15,-0.5 15,-90.5 119,-90.5 119,-0.5 15,-0.5"/>
<text text-anchor="start" x="23" y="-78.5" font-family="Helvetica,sans-Serif" font-size="10.00">vanetza::security::</text>
<text text-anchor="middle" x="67" y="-67.5" font-family="Helvetica,sans-Serif" font-size="10.00">v3::NinetyDegreeInt</text>
<polyline fill="none" stroke="black" points="15,-60.5 119,-60.5 "/>
<text text-anchor="start" x="23" y="-48.5" font-family="Helvetica,sans-Serif" font-size="10.00">+ min</text>
<text text-anchor="start" x="23" y="-37.5" font-family="Helvetica,sans-Serif" font-size="10.00">+ max</text>
<text text-anchor="start" x="23" y="-26.5" font-family="Helvetica,sans-Serif" font-size="10.00">+ unknown</text>
<polyline fill="none" stroke="black" points="15,-19.5 119,-19.5 "/>
<text text-anchor="start" x="23" y="-7.5" font-family="Helvetica,sans-Serif" font-size="10.00">+ NinetyDegreeInt()</text>
</a>
</g>
</g>
<!-- Node2 -->
<g id="node2" class="node">
<title>Node2</title>
<g id="a_node2"><a xlink:href="../../d3/d3c/structvanetza_1_1security_1_1v3_1_1IntegerFixed.html" target="_top" xlink:title=" ">
<polygon fill="white" stroke="black" points="0,-128.5 0,-218.5 134,-218.5 134,-128.5 0,-128.5"/>
<text text-anchor="start" x="8" y="-206.5" font-family="Helvetica,sans-Serif" font-size="10.00">vanetza::security::</text>
<text text-anchor="middle" x="67" y="-195.5" font-family="Helvetica,sans-Serif" font-size="10.00">v3::IntegerFixed&lt; int32_t &gt;</text>
<polyline fill="none" stroke="black" points="0,-188.5 134,-188.5 "/>
<text text-anchor="start" x="8" y="-176.5" font-family="Helvetica,sans-Serif" font-size="10.00">+ value</text>
<polyline fill="none" stroke="black" points="0,-169.5 134,-169.5 "/>
<text text-anchor="start" x="8" y="-157.5" font-family="Helvetica,sans-Serif" font-size="10.00">+ IntegerFixed()</text>
<text text-anchor="start" x="8" y="-146.5" font-family="Helvetica,sans-Serif" font-size="10.00">+ IntegerFixed()</text>
<text text-anchor="start" x="8" y="-135.5" font-family="Helvetica,sans-Serif" font-size="10.00">+ IntegerFixed()</text>
</a>
</g>
</g>
<!-- Node2&#45;&gt;Node1 -->
<g id="edge1" class="edge">
<title>Node2&#45;&gt;Node1</title>
<path fill="none" stroke="midnightblue" d="M67,-118.23C67,-109.06 67,-99.63 67,-90.76"/>
<polygon fill="none" stroke="midnightblue" points="63.5,-118.43 67,-128.43 70.5,-118.43 63.5,-118.43"/>
</g>
<!-- Node3 -->
<g id="node3" class="node">
<title>Node3</title>
<g id="a_node3"><a xlink:href="../../d5/d5c/structvanetza_1_1security_1_1v3_1_1Integer.html" target="_top" xlink:title=" ">
<polygon fill="white" stroke="black" points="15,-394.5 15,-484.5 111,-484.5 111,-394.5 15,-394.5"/>
<text text-anchor="start" x="23" y="-472.5" font-family="Helvetica,sans-Serif" font-size="10.00">vanetza::security::</text>
<text text-anchor="middle" x="63" y="-461.5" font-family="Helvetica,sans-Serif" font-size="10.00">v3::Integer</text>
<polyline fill="none" stroke="black" points="15,-454.5 111,-454.5 "/>
<text text-anchor="start" x="23" y="-442.5" font-family="Helvetica,sans-Serif" font-size="10.00">+ Min</text>
<text text-anchor="start" x="23" y="-431.5" font-family="Helvetica,sans-Serif" font-size="10.00">+ Max</text>
<polyline fill="none" stroke="black" points="15,-424.5 111,-424.5 "/>
<text text-anchor="start" x="23" y="-412.5" font-family="Helvetica,sans-Serif" font-size="10.00">+ Integer()</text>
<text text-anchor="start" x="23" y="-401.5" font-family="Helvetica,sans-Serif" font-size="10.00">+ Integer()</text>
</a>
</g>
</g>
<!-- Node3&#45;&gt;Node2 -->
<g id="edge2" class="edge">
<title>Node3&#45;&gt;Node2</title>
<path fill="none" stroke="midnightblue" d="M63.82,-384.23C64.56,-335.35 65.64,-264.38 66.33,-218.83"/>
<polygon fill="none" stroke="midnightblue" points="60.32,-384.26 63.67,-394.31 67.32,-384.37 60.32,-384.26"/>
</g>
<!-- Node4 -->
<g id="node4" class="node">
<title>Node4</title>
<g id="a_node4"><a xlink:href="../../d3/d3c/structvanetza_1_1security_1_1v3_1_1IntegerFixed.html" target="_top" xlink:title=" ">
<polygon fill="white" stroke="black" points="79,-266.5 79,-356.5 189,-356.5 189,-266.5 79,-266.5"/>
<text text-anchor="start" x="87" y="-344.5" font-family="Helvetica,sans-Serif" font-size="10.00">vanetza::security::</text>
<text text-anchor="middle" x="134" y="-333.5" font-family="Helvetica,sans-Serif" font-size="10.00">v3::IntegerFixed&lt; T &gt;</text>
<polyline fill="none" stroke="black" points="79,-326.5 189,-326.5 "/>
<text text-anchor="start" x="87" y="-314.5" font-family="Helvetica,sans-Serif" font-size="10.00">+ value</text>
<polyline fill="none" stroke="black" points="79,-307.5 189,-307.5 "/>
<text text-anchor="start" x="87" y="-295.5" font-family="Helvetica,sans-Serif" font-size="10.00">+ IntegerFixed()</text>
<text text-anchor="start" x="87" y="-284.5" font-family="Helvetica,sans-Serif" font-size="10.00">+ IntegerFixed()</text>
<text text-anchor="start" x="87" y="-273.5" font-family="Helvetica,sans-Serif" font-size="10.00">+ IntegerFixed()</text>
</a>
</g>
</g>
<!-- Node3&#45;&gt;Node4 -->
<g id="edge4" class="edge">
<title>Node3&#45;&gt;Node4</title>
<path fill="none" stroke="midnightblue" d="M92.75,-385.7C98.18,-376.07 103.79,-366.11 109.06,-356.76"/>
<polygon fill="none" stroke="midnightblue" points="89.69,-384 87.83,-394.43 95.79,-387.44 89.69,-384"/>
</g>
<!-- Node4&#45;&gt;Node2 -->
<g id="edge3" class="edge">
<title>Node4&#45;&gt;Node2</title>
<path fill="none" stroke="orange" d="M107.77,-257.26C101.52,-244.56 94.91,-231.15 88.87,-218.9"/>
<polygon fill="orange" stroke="orange" points="104.69,-258.92 112.25,-266.34 110.97,-255.83 104.69,-258.92"/>
<text text-anchor="middle" x="127.5" y="-240" font-family="Helvetica,sans-Serif" font-size="10.00"> &lt; int32_t &gt;</text>
</g>
</g>
</svg>
        <g id="navigator" transform="translate(0 0)" fill="#404254">
                <rect fill="#f2f5e9" fill-opacity="0.5" stroke="#606060" stroke-width=".5" x="0" y="0" width="60" height="60"/>
                <use id="zoomplus" xlink:href="#zoomPlus" x="17" y="9" onmousedown="handleZoom(evt,'in')"/>
                <use id="zoomminus" xlink:href="#zoomMin" x="42" y="9" onmousedown="handleZoom(evt,'out')"/>
                <use id="reset" xlink:href="#resetDef" x="30" y="36" onmousedown="handleReset()"/>
                <g id="arrowUp" xlink:href="#dirArrow" transform="translate(30 24)" onmousedown="handlePan(0,-1)">
                  <use xlink:href="#rim" fill="#404040">
                        <set attributeName="fill" to="#808080" begin="arrowUp.mouseover" end="arrowUp.mouseout"/>
                  </use>
                  <path fill="none" stroke="white" stroke-width="1.5" d="M0,-3.0v7 M-2.5,-0.5L0,-3.0L2.5,-0.5"/>
                </g>
                <g id="arrowRight" xlink:href="#dirArrow" transform="rotate(90) translate(36 -43)" onmousedown="handlePan(1,0)">
                  <use xlink:href="#rim" fill="#404040">
                        <set attributeName="fill" to="#808080" begin="arrowRight.mouseover" end="arrowRight.mouseout"/>
                  </use>
                  <path fill="none" stroke="white" stroke-width="1.5" d="M0,-3.0v7 M-2.5,-0.5L0,-3.0L2.5,-0.5"/>
                </g>
                <g id="arrowDown" xlink:href="#dirArrow" transform="rotate(180) translate(-30 -48)" onmousedown="handlePan(0,1)">
                  <use xlink:href="#rim" fill="#404040">
                        <set attributeName="fill" to="#808080" begin="arrowDown.mouseover" end="arrowDown.mouseout"/>
                  </use>
                  <path fill="none" stroke="white" stroke-width="1.5" d="M0,-3.0v7 M-2.5,-0.5L0,-3.0L2.5,-0.5"/>
                </g>
                <g id="arrowLeft" xlink:href="#dirArrow" transform="rotate(270) translate(-36 17)" onmousedown="handlePan(-1,0)">
                  <use xlink:href="#rim" fill="#404040">
                        <set attributeName="fill" to="#808080" begin="arrowLeft.mouseover" end="arrowLeft.mouseout"/>
                  </use>
                  <path fill="none" stroke="white" stroke-width="1.5" d="M0,-3.0v7 M-2.5,-0.5L0,-3.0L2.5,-0.5"/>
                </g>
        </g>
        <svg viewBox="0 0 15 15" width="100%" height="30px" preserveAspectRatio="xMaxYMin meet">
         <g id="arrow_out" transform="scale(0.3 0.3)">
          <a xlink:href="structvanetza_1_1security_1_1v3_1_1NinetyDegreeInt__inherit__graph_org.svg" target="_base">
           <rect id="button" ry="5" rx="5" y="6" x="6" height="38" width="38"
                fill="#f2f5e9" fill-opacity="0.5" stroke="#606060" stroke-width="1.0"/>
           <path id="arrow"
             d="M 11.500037,31.436501 C 11.940474,20.09759 22.043105,11.32322 32.158766,21.979434 L 37.068811,17.246167 C 37.068811,17.246167 37.088388,32 37.088388,32 L 22.160133,31.978069 C 22.160133,31.978069 26.997745,27.140456 26.997745,27.140456 C 18.528582,18.264221 13.291696,25.230495 11.500037,31.436501 z"
             style="fill:#404040;"/>
          </a>
         </g>
        </svg>
</svg>
