<?xml version="1.0" encoding="UTF-8" standalone="no"?>
<!DOCTYPE svg PUBLIC "-//W3C//DTD SVG 1.1//EN"
 "http://www.w3.org/Graphics/SVG/1.1/DTD/svg11.dtd">
<!-- Generated by graphviz version 14.1.2 (0)
 -->
<!-- Title: vanetza::security::v2::header_field_type&lt; HeaderFieldType::Generation_Time &gt; Pages: 1 -->
<svg width="195pt" height="252pt"
 viewBox="0.00 0.00 195.00 252.00" xmlns="http://www.w3.org/2000/svg" xmlns:xlink="http://www.w3.org/1999/xlink">
<g id="graph0" class="graph" transform="scale(1 1) rotate(0) translate(4 247.75)">
<title>vanetza::security::v2::header_field_type&lt; HeaderFieldType::Generation_Time &gt;</title>
<!-- Node1 -->
<g id="Node000001" class="node">
<title>Node1</title>
<g id="a_Node000001"><a xlink:title=" ">
<polygon fill="#999999" stroke="none" points="160.25,-92.5 0,-92.5 0,0 160.25,0 160.25,-92.5"/>
<text xml:space="preserve" text-anchor="start" x="4" y="-79" font-family="Helvetica,sans-Serif" font-size="10.00">vanetza::security::</text>
<text xml:space="preserve" text-anchor="start" x="4" y="-66.25" font-family="Helvetica,sans-Serif" font-size="10.00">v2::header_field_type</text>
<text xml:space="preserve" text-anchor="start" x="4" y="-53.5" font-family="Helvetica,sans-Serif" font-size="10.00">&lt; HeaderFieldType::Generation</text>
<text xml:space="preserve" text-anchor="start" x="59.5" y="-40.75" font-family="Helvetica,sans-Serif" font-size="10.00">_Time &gt;</text>
<text xml:space="preserve" text-anchor="start" x="78.62" y="-24" font-family="Helvetica,sans-Serif" font-size="10.00"> </text>
<text xml:space="preserve" text-anchor="start" x="78.62" y="-7.25" font-family="Helvetica,sans-Serif" font-size="10.00"> </text>
<polygon fill="#666666" stroke="#666666" points="0,-35.5 0,-35.5 160.25,-35.5 160.25,-35.5 0,-35.5"/>
<polygon fill="#666666" stroke="#666666" points="0,-18.75 0,-18.75 160.25,-18.75 160.25,-18.75 0,-18.75"/>
<polygon fill="none" stroke="#666666" points="0,0 0,-92.5 160.25,-92.5 160.25,0 0,0"/>
</a>
</g>
</g>
<!-- Node2 -->
<g id="Node000002" class="node">
<title>Node2</title>
<g id="a_Node000002"><a xlink:href="../../d9/d3a/structvanetza_1_1security_1_1v2_1_1header__field__type.html" target="_top" xlink:title="resolve type for matching HeaderFieldType">
<polygon fill="white" stroke="none" points="136.62,-243.75 23.62,-243.75 23.62,-164 136.62,-164 136.62,-243.75"/>
<text xml:space="preserve" text-anchor="start" x="27.62" y="-230.25" font-family="Helvetica,sans-Serif" font-size="10.00">vanetza::security::</text>
<text xml:space="preserve" text-anchor="start" x="27.62" y="-217.5" font-family="Helvetica,sans-Serif" font-size="10.00">v2::header_field_type</text>
<text xml:space="preserve" text-anchor="start" x="28.38" y="-204.75" font-family="Helvetica,sans-Serif" font-size="10.00">&lt; HeaderFieldType &gt;</text>
<text xml:space="preserve" text-anchor="start" x="78.62" y="-188" font-family="Helvetica,sans-Serif" font-size="10.00"> </text>
<text xml:space="preserve" text-anchor="start" x="78.62" y="-171.25" font-family="Helvetica,sans-Serif" font-size="10.00"> </text>
<polygon fill="#666666" stroke="#666666" points="23.62,-199.5 23.62,-199.5 136.62,-199.5 136.62,-199.5 23.62,-199.5"/>
<polygon fill="#666666" stroke="#666666" points="23.62,-182.75 23.62,-182.75 136.62,-182.75 136.62,-182.75 23.62,-182.75"/>
<polygon fill="none" stroke="#666666" points="23.62,-164 23.62,-243.75 136.62,-243.75 136.62,-164 23.62,-164"/>
</a>
</g>
</g>
<!-- Node2&#45;&gt;Node1 -->
<g id="edge1_Node000001_Node000002" class="edge">
<title>Node2&#45;&gt;Node1</title>
<g id="a_edge1_Node000001_Node000002"><a xlink:title=" ">
<path fill="none" stroke="orange" d="M80.12,-152.61C80.12,-133.18 80.12,-111.13 80.12,-92.24"/>
<polygon fill="orange" stroke="orange" points="76.63,-152.49 80.13,-162.49 83.63,-152.49 76.63,-152.49"/>
</a>
</g>
<text xml:space="preserve" text-anchor="start" x="83.12" y="-133.5" font-family="Helvetica,sans-Serif" font-size="10.00" fill="grey">&lt; HeaderFieldType::</text>
<text xml:space="preserve" text-anchor="start" x="83.12" y="-116.75" font-family="Helvetica,sans-Serif" font-size="10.00" fill="grey">  Generation_Time &gt;</text>
</g>
</g>
</svg>
