<?xml version="1.0" encoding="UTF-8" standalone="no"?>
<!DOCTYPE svg PUBLIC "-//W3C//DTD SVG 1.1//EN"
 "http://www.w3.org/Graphics/SVG/1.1/DTD/svg11.dtd">
<!-- Generated by graphviz version 2.42.3 (0)
 -->
<!-- Title: vanetza::geonet::SequenceNumber Pages: 1 -->
<svg width="270pt" height="270pt"
 viewBox="0.00 0.00 270.00 270.00" xmlns="http://www.w3.org/2000/svg" xmlns:xlink="http://www.w3.org/1999/xlink">
<g id="graph0" class="graph" transform="scale(1 1) rotate(0) translate(4 266)">
<title>vanetza::geonet::SequenceNumber</title>
<polygon fill="white" stroke="transparent" points="-4,4 -4,-266 266,-266 266,4 -4,4"/>
<!-- Node1 -->
<g id="node1" class="node">
<title>Node1</title>
<g id="a_node1"><a xlink:title=" ">
<polygon fill="#bfbfbf" stroke="black" points="59.5,-0.5 59.5,-156.5 193.5,-156.5 193.5,-0.5 59.5,-0.5"/>
<text text-anchor="start" x="67.5" y="-144.5" font-family="Helvetica,sans-Serif" font-size="10.00">vanetza::geonet::Sequence</text>
<text text-anchor="middle" x="126.5" y="-133.5" font-family="Helvetica,sans-Serif" font-size="10.00">Number</text>
<polyline fill="none" stroke="black" points="59.5,-126.5 193.5,-126.5 "/>
<text text-anchor="start" x="67.5" y="-114.5" font-family="Helvetica,sans-Serif" font-size="10.00">+ max</text>
<text text-anchor="start" x="67.5" y="-103.5" font-family="Helvetica,sans-Serif" font-size="10.00">&#45; m_number</text>
<polyline fill="none" stroke="black" points="59.5,-96.5 193.5,-96.5 "/>
<text text-anchor="start" x="67.5" y="-84.5" font-family="Helvetica,sans-Serif" font-size="10.00">+ SequenceNumber()</text>
<text text-anchor="start" x="67.5" y="-73.5" font-family="Helvetica,sans-Serif" font-size="10.00">+ SequenceNumber()</text>
<text text-anchor="start" x="67.5" y="-62.5" font-family="Helvetica,sans-Serif" font-size="10.00">+ operator value_type()</text>
<text text-anchor="start" x="67.5" y="-51.5" font-family="Helvetica,sans-Serif" font-size="10.00">+ operator&lt;()</text>
<text text-anchor="start" x="67.5" y="-40.5" font-family="Helvetica,sans-Serif" font-size="10.00">+ operator==()</text>
<text text-anchor="start" x="67.5" y="-29.5" font-family="Helvetica,sans-Serif" font-size="10.00">+ operator+=()</text>
<text text-anchor="start" x="67.5" y="-18.5" font-family="Helvetica,sans-Serif" font-size="10.00">+ operator&#45;=()</text>
<text text-anchor="start" x="67.5" y="-7.5" font-family="Helvetica,sans-Serif" font-size="10.00">+ operator++()</text>
</a>
</g>
</g>
<!-- Node2 -->
<g id="node2" class="node">
<title>Node2</title>
<g id="a_node2"><a xlink:title=" ">
<polygon fill="white" stroke="#bfbfbf" points="0,-193.5 0,-261.5 113,-261.5 113,-193.5 0,-193.5"/>
<text text-anchor="start" x="8" y="-249.5" font-family="Helvetica,sans-Serif" font-size="10.00">boost::totally_ordered</text>
<text text-anchor="middle" x="56.5" y="-238.5" font-family="Helvetica,sans-Serif" font-size="10.00">&lt; SequenceNumber &gt;</text>
<polyline fill="none" stroke="#bfbfbf" points="0,-231.5 113,-231.5 "/>
<text text-anchor="middle" x="56.5" y="-219.5" font-family="Helvetica,sans-Serif" font-size="10.00"> </text>
<polyline fill="none" stroke="#bfbfbf" points="0,-212.5 113,-212.5 "/>
<text text-anchor="middle" x="56.5" y="-200.5" font-family="Helvetica,sans-Serif" font-size="10.00"> </text>
</a>
</g>
</g>
<!-- Node2&#45;&gt;Node1 -->
<g id="edge1" class="edge">
<title>Node2&#45;&gt;Node1</title>
<path fill="none" stroke="midnightblue" d="M76.69,-184.1C80.79,-175.49 85.22,-166.18 89.69,-156.79"/>
<polygon fill="none" stroke="midnightblue" points="73.52,-182.61 72.38,-193.14 79.84,-185.62 73.52,-182.61"/>
</g>
<!-- Node3 -->
<g id="node3" class="node">
<title>Node3</title>
<g id="a_node3"><a xlink:title=" ">
<polygon fill="white" stroke="#bfbfbf" points="131,-193.5 131,-261.5 262,-261.5 262,-193.5 131,-193.5"/>
<text text-anchor="start" x="139" y="-249.5" font-family="Helvetica,sans-Serif" font-size="10.00">boost::additive&lt; Sequence</text>
<text text-anchor="middle" x="196.5" y="-238.5" font-family="Helvetica,sans-Serif" font-size="10.00">Number &gt;</text>
<polyline fill="none" stroke="#bfbfbf" points="131,-231.5 262,-231.5 "/>
<text text-anchor="middle" x="196.5" y="-219.5" font-family="Helvetica,sans-Serif" font-size="10.00"> </text>
<polyline fill="none" stroke="#bfbfbf" points="131,-212.5 262,-212.5 "/>
<text text-anchor="middle" x="196.5" y="-200.5" font-family="Helvetica,sans-Serif" font-size="10.00"> </text>
</a>
</g>
</g>
<!-- Node3&#45;&gt;Node1 -->
<g id="edge2" class="edge">
<title>Node3&#45;&gt;Node1</title>
<path fill="none" stroke="midnightblue" d="M176.31,-184.1C172.21,-175.49 167.78,-166.18 163.31,-156.79"/>
<polygon fill="none" stroke="midnightblue" points="173.16,-185.62 180.62,-193.14 179.48,-182.61 173.16,-185.62"/>
</g>
</g>
</svg>
