<?xml version="1.0" encoding="UTF-8" standalone="no"?>
<!DOCTYPE svg PUBLIC "-//W3C//DTD SVG 1.1//EN"
 "http://www.w3.org/Graphics/SVG/1.1/DTD/svg11.dtd">
<!-- Generated by graphviz version 14.1.2 (0)
 -->
<!-- Title: vanetza::geonet::SequenceNumber Pages: 1 -->
<svg width="282pt" height="312pt"
 viewBox="0.00 0.00 282.00 312.00" xmlns="http://www.w3.org/2000/svg" xmlns:xlink="http://www.w3.org/1999/xlink">
<g id="graph0" class="graph" transform="scale(1 1) rotate(0) translate(4 308)">
<title>vanetza::geonet::SequenceNumber</title>
<!-- Node1 -->
<g id="Node000001" class="node">
<title>Node1</title>
<g id="a_Node000001"><a xlink:title=" ">
<polygon fill="#999999" stroke="none" points="201.38,-201 61.38,-201 61.38,0 201.38,0 201.38,-201"/>
<text xml:space="preserve" text-anchor="start" x="65.38" y="-187.5" font-family="Helvetica,sans-Serif" font-size="10.00">vanetza::geonet::Sequence</text>
<text xml:space="preserve" text-anchor="start" x="111.88" y="-174.75" font-family="Helvetica,sans-Serif" font-size="10.00">Number</text>
<text xml:space="preserve" text-anchor="start" x="68.88" y="-158" font-family="Helvetica,sans-Serif" font-size="10.00">+</text>
<text xml:space="preserve" text-anchor="start" x="84.62" y="-158" font-family="Helvetica,sans-Serif" font-size="10.00">max</text>
<text xml:space="preserve" text-anchor="start" x="71.12" y="-141.25" font-family="Helvetica,sans-Serif" font-size="10.00">&#45;</text>
<text xml:space="preserve" text-anchor="start" x="84.62" y="-141.25" font-family="Helvetica,sans-Serif" font-size="10.00">m_number</text>
<text xml:space="preserve" text-anchor="start" x="68.88" y="-124.5" font-family="Helvetica,sans-Serif" font-size="10.00">+</text>
<text xml:space="preserve" text-anchor="start" x="84.62" y="-124.5" font-family="Helvetica,sans-Serif" font-size="10.00">SequenceNumber()</text>
<text xml:space="preserve" text-anchor="start" x="68.88" y="-107.75" font-family="Helvetica,sans-Serif" font-size="10.00">+</text>
<text xml:space="preserve" text-anchor="start" x="84.62" y="-107.75" font-family="Helvetica,sans-Serif" font-size="10.00">SequenceNumber()</text>
<text xml:space="preserve" text-anchor="start" x="68.88" y="-91" font-family="Helvetica,sans-Serif" font-size="10.00">+</text>
<text xml:space="preserve" text-anchor="start" x="84.62" y="-91" font-family="Helvetica,sans-Serif" font-size="10.00">operator value_type()</text>
<text xml:space="preserve" text-anchor="start" x="68.88" y="-74.25" font-family="Helvetica,sans-Serif" font-size="10.00">+</text>
<text xml:space="preserve" text-anchor="start" x="84.62" y="-74.25" font-family="Helvetica,sans-Serif" font-size="10.00">operator&lt;()</text>
<text xml:space="preserve" text-anchor="start" x="68.88" y="-57.5" font-family="Helvetica,sans-Serif" font-size="10.00">+</text>
<text xml:space="preserve" text-anchor="start" x="84.62" y="-57.5" font-family="Helvetica,sans-Serif" font-size="10.00">operator==()</text>
<text xml:space="preserve" text-anchor="start" x="68.88" y="-40.75" font-family="Helvetica,sans-Serif" font-size="10.00">+</text>
<text xml:space="preserve" text-anchor="start" x="84.62" y="-40.75" font-family="Helvetica,sans-Serif" font-size="10.00">operator+=()</text>
<text xml:space="preserve" text-anchor="start" x="68.88" y="-24" font-family="Helvetica,sans-Serif" font-size="10.00">+</text>
<text xml:space="preserve" text-anchor="start" x="84.62" y="-24" font-family="Helvetica,sans-Serif" font-size="10.00">operator&#45;=()</text>
<text xml:space="preserve" text-anchor="start" x="68.88" y="-7.25" font-family="Helvetica,sans-Serif" font-size="10.00">+</text>
<text xml:space="preserve" text-anchor="start" x="84.62" y="-7.25" font-family="Helvetica,sans-Serif" font-size="10.00">operator++()</text>
<polygon fill="#666666" stroke="#666666" points="61.38,-169.5 61.38,-169.5 201.38,-169.5 201.38,-169.5 61.38,-169.5"/>
<polygon fill="#666666" stroke="#666666" points="61.38,-136 61.38,-136 82.62,-136 82.62,-136 61.38,-136"/>
<polygon fill="#666666" stroke="#666666" points="82.62,-136 82.62,-136 201.38,-136 201.38,-136 82.62,-136"/>
<polygon fill="none" stroke="#666666" points="61.38,0 61.38,-201 201.38,-201 201.38,0 61.38,0"/>
</a>
</g>
</g>
<!-- Node2 -->
<g id="Node000002" class="node">
<title>Node2</title>
<g id="a_Node000002"><a xlink:title=" ">
<polygon fill="white" stroke="none" points="116.75,-304 0,-304 0,-237 116.75,-237 116.75,-304"/>
<text xml:space="preserve" text-anchor="start" x="4" y="-290.5" font-family="Helvetica,sans-Serif" font-size="10.00">boost::totally_ordered</text>
<text xml:space="preserve" text-anchor="start" x="4" y="-277.75" font-family="Helvetica,sans-Serif" font-size="10.00">&lt; SequenceNumber &gt;</text>
<text xml:space="preserve" text-anchor="start" x="56.88" y="-261" font-family="Helvetica,sans-Serif" font-size="10.00"> </text>
<text xml:space="preserve" text-anchor="start" x="56.88" y="-244.25" font-family="Helvetica,sans-Serif" font-size="10.00"> </text>
<polygon fill="#bfbfbf" stroke="#bfbfbf" points="0,-272.5 0,-272.5 116.75,-272.5 116.75,-272.5 0,-272.5"/>
<polygon fill="#bfbfbf" stroke="#bfbfbf" points="0,-255.75 0,-255.75 116.75,-255.75 116.75,-255.75 0,-255.75"/>
<polygon fill="none" stroke="#bfbfbf" points="0,-237 0,-304 116.75,-304 116.75,-237 0,-237"/>
</a>
</g>
</g>
<!-- Node2&#45;&gt;Node1 -->
<g id="edge1_Node000001_Node000002" class="edge">
<title>Node2&#45;&gt;Node1</title>
<g id="a_edge1_Node000001_Node000002"><a xlink:title=" ">
<path fill="none" stroke="#63b8ff" d="M77.01,-226.6C80.51,-218.57 84.29,-209.87 88.17,-200.93"/>
<polygon fill="none" stroke="#63b8ff" points="73.83,-225.15 73.05,-235.72 80.25,-227.94 73.83,-225.15"/>
</a>
</g>
</g>
<!-- Node3 -->
<g id="Node000003" class="node">
<title>Node3</title>
<g id="a_Node000003"><a xlink:title=" ">
<polygon fill="white" stroke="none" points="274,-304 134.75,-304 134.75,-237 274,-237 274,-304"/>
<text xml:space="preserve" text-anchor="start" x="138.75" y="-290.5" font-family="Helvetica,sans-Serif" font-size="10.00">boost::additive&lt; Sequence</text>
<text xml:space="preserve" text-anchor="start" x="179.25" y="-277.75" font-family="Helvetica,sans-Serif" font-size="10.00">Number &gt;</text>
<text xml:space="preserve" text-anchor="start" x="202.88" y="-261" font-family="Helvetica,sans-Serif" font-size="10.00"> </text>
<text xml:space="preserve" text-anchor="start" x="202.88" y="-244.25" font-family="Helvetica,sans-Serif" font-size="10.00"> </text>
<polygon fill="#bfbfbf" stroke="#bfbfbf" points="134.75,-272.5 134.75,-272.5 274,-272.5 274,-272.5 134.75,-272.5"/>
<polygon fill="#bfbfbf" stroke="#bfbfbf" points="134.75,-255.75 134.75,-255.75 274,-255.75 274,-255.75 134.75,-255.75"/>
<polygon fill="none" stroke="#bfbfbf" points="134.75,-237 134.75,-304 274,-304 274,-237 134.75,-237"/>
</a>
</g>
</g>
<!-- Node3&#45;&gt;Node1 -->
<g id="edge2_Node000001_Node000003" class="edge">
<title>Node3&#45;&gt;Node1</title>
<g id="a_edge2_Node000001_Node000003"><a xlink:title=" ">
<path fill="none" stroke="#63b8ff" d="M185.74,-226.6C182.24,-218.57 178.46,-209.87 174.58,-200.93"/>
<polygon fill="none" stroke="#63b8ff" points="182.5,-227.94 189.7,-235.72 188.92,-225.15 182.5,-227.94"/>
</a>
</g>
</g>
</g>
</svg>
