<?xml version="1.0" encoding="UTF-8" standalone="no"?>
<!DOCTYPE svg PUBLIC "-//W3C//DTD SVG 1.1//EN"
 "http://www.w3.org/Graphics/SVG/1.1/DTD/svg11.dtd">
<!-- Generated by graphviz version 2.49.3 (0)
 -->
<!-- Title: vanetza::geonet::SequenceNumber Pages: 1 -->
<svg width="258pt" height="284pt"
 viewBox="0.00 0.00 258.00 284.00" xmlns="http://www.w3.org/2000/svg" xmlns:xlink="http://www.w3.org/1999/xlink">

<svg id="main" version="1.1" xmlns="http://www.w3.org/2000/svg" xmlns:xlink="http://www.w3.org/1999/xlink" xml:space="preserve">

<style type="text/css"><![CDATA[
.node, .edge {opacity: 0.7;}
.node.selected, .edge.selected {opacity: 1;}
.edge:hover path { stroke: red; }
.edge:hover polygon { stroke: red; fill: red; }
]]></style>
<script type="application/ecmascript" xlink:href="../../svg.min.js"/>
<svg id="graph" class="graph">
<g id="graph0" class="graph" transform="scale(1 1) rotate(0) translate(4 280)">
<title>vanetza::geonet::SequenceNumber</title>
<!-- Node1 -->
<g id="Node000001" class="node">
<title>Node1</title>
<g id="a_Node000001"><a xlink:title=" ">
<polygon fill="#999999" stroke="transparent" points="184.5,-180 56.5,-180 56.5,0 184.5,0 184.5,-180"/>
<text text-anchor="start" x="61.5" y="-168" font-family="Helvetica,sans-Serif" font-size="10.00">vanetza::geonet::Sequence</text>
<text text-anchor="start" x="103" y="-157" font-family="Helvetica,sans-Serif" font-size="10.00">Number</text>
<text text-anchor="start" x="65" y="-142" font-family="Helvetica,sans-Serif" font-size="10.00">+</text>
<text text-anchor="start" x="80.5" y="-142" font-family="Helvetica,sans-Serif" font-size="10.00">max</text>
<text text-anchor="start" x="66.5" y="-127" font-family="Helvetica,sans-Serif" font-size="10.00">&#45;</text>
<text text-anchor="start" x="80.5" y="-127" font-family="Helvetica,sans-Serif" font-size="10.00">m_number</text>
<text text-anchor="start" x="65" y="-112" font-family="Helvetica,sans-Serif" font-size="10.00">+</text>
<text text-anchor="start" x="80.5" y="-112" font-family="Helvetica,sans-Serif" font-size="10.00">SequenceNumber()</text>
<text text-anchor="start" x="65" y="-97" font-family="Helvetica,sans-Serif" font-size="10.00">+</text>
<text text-anchor="start" x="80.5" y="-97" font-family="Helvetica,sans-Serif" font-size="10.00">SequenceNumber()</text>
<text text-anchor="start" x="65" y="-82" font-family="Helvetica,sans-Serif" font-size="10.00">+</text>
<text text-anchor="start" x="80.5" y="-82" font-family="Helvetica,sans-Serif" font-size="10.00">operator value_type()</text>
<text text-anchor="start" x="65" y="-67" font-family="Helvetica,sans-Serif" font-size="10.00">+</text>
<text text-anchor="start" x="80.5" y="-67" font-family="Helvetica,sans-Serif" font-size="10.00">operator&lt;()</text>
<text text-anchor="start" x="65" y="-52" font-family="Helvetica,sans-Serif" font-size="10.00">+</text>
<text text-anchor="start" x="80.5" y="-52" font-family="Helvetica,sans-Serif" font-size="10.00">operator==()</text>
<text text-anchor="start" x="65" y="-37" font-family="Helvetica,sans-Serif" font-size="10.00">+</text>
<text text-anchor="start" x="80.5" y="-37" font-family="Helvetica,sans-Serif" font-size="10.00">operator+=()</text>
<text text-anchor="start" x="65" y="-22" font-family="Helvetica,sans-Serif" font-size="10.00">+</text>
<text text-anchor="start" x="80.5" y="-22" font-family="Helvetica,sans-Serif" font-size="10.00">operator&#45;=()</text>
<text text-anchor="start" x="65" y="-7" font-family="Helvetica,sans-Serif" font-size="10.00">+</text>
<text text-anchor="start" x="80.5" y="-7" font-family="Helvetica,sans-Serif" font-size="10.00">operator++()</text>
<polygon fill="#666666" stroke="#666666" points="56.5,-152 56.5,-152 184.5,-152 184.5,-152 56.5,-152"/>
<polygon fill="#666666" stroke="#666666" points="56.5,-122 56.5,-122 78.5,-122 78.5,-122 56.5,-122"/>
<polygon fill="#666666" stroke="#666666" points="78.5,-122 78.5,-122 184.5,-122 184.5,-122 78.5,-122"/>
<polygon fill="none" stroke="#666666" points="56.5,0 56.5,-180 184.5,-180 184.5,0 56.5,0"/>
</a>
</g>
</g>
<!-- Node2 -->
<g id="Node000002" class="node">
<title>Node2</title>
<g id="a_Node000002"><a xlink:title=" ">
<polygon fill="white" stroke="transparent" points="107,-276 0,-276 0,-216 107,-216 107,-276"/>
<text text-anchor="start" x="5.5" y="-264" font-family="Helvetica,sans-Serif" font-size="10.00">boost::totally_ordered</text>
<text text-anchor="start" x="5.5" y="-253" font-family="Helvetica,sans-Serif" font-size="10.00">&lt; SequenceNumber &gt;</text>
<text text-anchor="start" x="52" y="-238" font-family="Helvetica,sans-Serif" font-size="10.00"> </text>
<text text-anchor="start" x="52" y="-223" font-family="Helvetica,sans-Serif" font-size="10.00"> </text>
<polygon fill="#bfbfbf" stroke="#bfbfbf" points="0.5,-248 0.5,-248 107.5,-248 107.5,-248 0.5,-248"/>
<polygon fill="#bfbfbf" stroke="#bfbfbf" points="0.5,-233 0.5,-233 107.5,-233 107.5,-233 0.5,-233"/>
<polygon fill="none" stroke="#bfbfbf" points="0,-216 0,-276 107,-276 107,-216 0,-216"/>
</a>
</g>
</g>
<!-- Node2&#45;&gt;Node1 -->
<g id="edge1_Node000001_Node000002" class="edge">
<title>Node2&#45;&gt;Node1</title>
<g id="a_edge1_Node000001_Node000002"><a xlink:title=" ">
<path fill="none" stroke="#63b8ff" d="M70.25,-206.49C73.8,-198.34 77.69,-189.41 81.67,-180.24"/>
<polygon fill="none" stroke="#63b8ff" points="67.04,-205.11 66.26,-215.67 73.46,-207.9 67.04,-205.11"/>
</a>
</g>
</g>
<!-- Node3 -->
<g id="Node000003" class="node">
<title>Node3</title>
<g id="a_Node000003"><a xlink:title=" ">
<polygon fill="white" stroke="transparent" points="250,-276 125,-276 125,-216 250,-216 250,-276"/>
<text text-anchor="start" x="130.5" y="-264" font-family="Helvetica,sans-Serif" font-size="10.00">boost::additive&lt; Sequence</text>
<text text-anchor="start" x="166" y="-253" font-family="Helvetica,sans-Serif" font-size="10.00">Number &gt;</text>
<text text-anchor="start" x="186" y="-238" font-family="Helvetica,sans-Serif" font-size="10.00"> </text>
<text text-anchor="start" x="186" y="-223" font-family="Helvetica,sans-Serif" font-size="10.00"> </text>
<polygon fill="#bfbfbf" stroke="#bfbfbf" points="125.5,-248 125.5,-248 250.5,-248 250.5,-248 125.5,-248"/>
<polygon fill="#bfbfbf" stroke="#bfbfbf" points="125.5,-233 125.5,-233 250.5,-233 250.5,-233 125.5,-233"/>
<polygon fill="none" stroke="#bfbfbf" points="125,-216 125,-276 250,-276 250,-216 125,-216"/>
</a>
</g>
</g>
<!-- Node3&#45;&gt;Node1 -->
<g id="edge2_Node000001_Node000003" class="edge">
<title>Node3&#45;&gt;Node1</title>
<g id="a_edge2_Node000001_Node000003"><a xlink:title=" ">
<path fill="none" stroke="#63b8ff" d="M170.75,-206.49C167.2,-198.34 163.31,-189.41 159.33,-180.24"/>
<polygon fill="none" stroke="#63b8ff" points="167.54,-207.9 174.74,-215.67 173.96,-205.11 167.54,-207.9"/>
</a>
</g>
</g>
</g>
</svg>
</svg>

<style type='text/css'>
<![CDATA[
[data-mouse-over-selected='false'] { opacity: 0.7; }
[data-mouse-over-selected='true']  { opacity: 1.0; }
]]>
</style>
<script type="application/ecmascript"><![CDATA[
document.addEventListener('DOMContentLoaded', (event) => {
  highlightEdges();
  highlightAdjacentNodes();
});
]]></script>
</svg>
