<?xml version="1.0" encoding="UTF-8" standalone="no"?>
<!DOCTYPE svg PUBLIC "-//W3C//DTD SVG 1.1//EN"
 "http://www.w3.org/Graphics/SVG/1.1/DTD/svg11.dtd">
<!-- Generated by graphviz version 2.49.3 (0)
 -->
<!-- Title: vanetza::OutputArchive::Exception Pages: 1 -->
<svg width="120pt" height="238pt"
 viewBox="0.00 0.00 120.00 238.00" xmlns="http://www.w3.org/2000/svg" xmlns:xlink="http://www.w3.org/1999/xlink">

<svg id="main" version="1.1" xmlns="http://www.w3.org/2000/svg" xmlns:xlink="http://www.w3.org/1999/xlink" xml:space="preserve">

<style type="text/css"><![CDATA[
.node, .edge {opacity: 0.7;}
.node.selected, .edge.selected {opacity: 1;}
.edge:hover path { stroke: red; }
.edge:hover polygon { stroke: red; fill: red; }
]]></style>
<script type="application/ecmascript" xlink:href="../../svg.min.js"/>
<svg id="graph" class="graph">
<g id="graph0" class="graph" transform="scale(1 1) rotate(0) translate(4 234)">
<title>vanetza::OutputArchive::Exception</title>
<!-- Node1 -->
<g id="Node000001" class="node">
<title>Node1</title>
<g id="a_Node000001"><a xlink:title=" ">
<polygon fill="#999999" stroke="transparent" points="112,-60 0,-60 0,0 112,0 112,-60"/>
<text text-anchor="start" x="5" y="-48" font-family="Helvetica,sans-Serif" font-size="10.00">vanetza::OutputArchive</text>
<text text-anchor="start" x="31.5" y="-37" font-family="Helvetica,sans-Serif" font-size="10.00">::Exception</text>
<text text-anchor="start" x="54" y="-22" font-family="Helvetica,sans-Serif" font-size="10.00"> </text>
<text text-anchor="start" x="54" y="-7" font-family="Helvetica,sans-Serif" font-size="10.00"> </text>
<polygon fill="#666666" stroke="#666666" points="0,-32 0,-32 112,-32 112,-32 0,-32"/>
<polygon fill="#666666" stroke="#666666" points="0,-17 0,-17 112,-17 112,-17 0,-17"/>
<polygon fill="none" stroke="#666666" points="0,0 0,-60 112,-60 112,0 0,0"/>
</a>
</g>
</g>
<!-- Node2 -->
<g id="Node000002" class="node">
<title>Node2</title>
<g id="a_Node000002"><a xlink:title=" ">
<polygon fill="white" stroke="transparent" points="99.5,-145 12.5,-145 12.5,-96 99.5,-96 99.5,-145"/>
<text text-anchor="start" x="18" y="-132.5" font-family="Helvetica,sans-Serif" font-size="10.00">std::runtime_error</text>
<text text-anchor="start" x="54.5" y="-117.5" font-family="Helvetica,sans-Serif" font-size="10.00"> </text>
<text text-anchor="start" x="54.5" y="-102.5" font-family="Helvetica,sans-Serif" font-size="10.00"> </text>
<polygon fill="#666666" stroke="#666666" points="13,-127.5 13,-127.5 100,-127.5 100,-127.5 13,-127.5"/>
<polygon fill="#666666" stroke="#666666" points="13,-112.5 13,-112.5 100,-112.5 100,-112.5 13,-112.5"/>
<polygon fill="none" stroke="#666666" points="12.5,-96 12.5,-145 99.5,-145 99.5,-96 12.5,-96"/>
</a>
</g>
</g>
<!-- Node2&#45;&gt;Node1 -->
<g id="edge1_Node000001_Node000002" class="edge">
<title>Node2&#45;&gt;Node1</title>
<g id="a_edge1_Node000001_Node000002"><a xlink:title=" ">
<path fill="none" stroke="#63b8ff" d="M56,-85.55C56,-77.18 56,-68.28 56,-60.16"/>
<polygon fill="none" stroke="#63b8ff" points="52.5,-85.78 56,-95.78 59.5,-85.78 52.5,-85.78"/>
</a>
</g>
</g>
<!-- Node3 -->
<g id="Node000003" class="node">
<title>Node3</title>
<g id="a_Node000003"><a xlink:title=" ">
<polygon fill="white" stroke="transparent" points="91.5,-230 20.5,-230 20.5,-181 91.5,-181 91.5,-230"/>
<text text-anchor="start" x="26" y="-217.5" font-family="Helvetica,sans-Serif" font-size="10.00">std::exception</text>
<text text-anchor="start" x="54.5" y="-202.5" font-family="Helvetica,sans-Serif" font-size="10.00"> </text>
<text text-anchor="start" x="54.5" y="-187.5" font-family="Helvetica,sans-Serif" font-size="10.00"> </text>
<polygon fill="#666666" stroke="#666666" points="21,-212.5 21,-212.5 92,-212.5 92,-212.5 21,-212.5"/>
<polygon fill="#666666" stroke="#666666" points="21,-197.5 21,-197.5 92,-197.5 92,-197.5 21,-197.5"/>
<polygon fill="none" stroke="#666666" points="20.5,-181 20.5,-230 91.5,-230 91.5,-181 20.5,-181"/>
</a>
</g>
</g>
<!-- Node3&#45;&gt;Node2 -->
<g id="edge2_Node000002_Node000003" class="edge">
<title>Node3&#45;&gt;Node2</title>
<g id="a_edge2_Node000002_Node000003"><a xlink:title=" ">
<path fill="none" stroke="#63b8ff" d="M56,-170.77C56,-162.17 56,-153.1 56,-145.12"/>
<polygon fill="none" stroke="#63b8ff" points="52.5,-170.94 56,-180.94 59.5,-170.94 52.5,-170.94"/>
</a>
</g>
</g>
</g>
</svg>
</svg>

<style type='text/css'>
<![CDATA[
[data-mouse-over-selected='false'] { opacity: 0.7; }
[data-mouse-over-selected='true']  { opacity: 1.0; }
]]>
</style>
<script type="application/ecmascript"><![CDATA[
document.addEventListener('DOMContentLoaded', (event) => {
  highlightEdges();
  highlightAdjacentNodes();
});
]]></script>
</svg>
