<?xml version="1.0" encoding="UTF-8" standalone="no"?>
<!DOCTYPE svg PUBLIC "-//W3C//DTD SVG 1.1//EN"
 "http://www.w3.org/Graphics/SVG/1.1/DTD/svg11.dtd">
<!-- Generated by graphviz version 14.1.2 (0)
 -->
<!-- Title: vanetza::OutputArchive::Exception Pages: 1 -->
<svg width="131pt" height="165pt"
 viewBox="0.00 0.00 131.00 165.00" xmlns="http://www.w3.org/2000/svg" xmlns:xlink="http://www.w3.org/1999/xlink">
<g id="graph0" class="graph" transform="scale(1 1) rotate(0) translate(4 161.25)">
<title>vanetza::OutputArchive::Exception</title>
<!-- Node1 -->
<g id="Node000001" class="node">
<title>Node1</title>
<g id="a_Node000001"><a xlink:title=" ">
<polygon fill="#999999" stroke="none" points="122.75,-67 0,-67 0,0 122.75,0 122.75,-67"/>
<text xml:space="preserve" text-anchor="start" x="4" y="-53.5" font-family="Helvetica,sans-Serif" font-size="10.00">vanetza::OutputArchive</text>
<text xml:space="preserve" text-anchor="start" x="34.38" y="-40.75" font-family="Helvetica,sans-Serif" font-size="10.00">::Exception</text>
<text xml:space="preserve" text-anchor="start" x="59.88" y="-24" font-family="Helvetica,sans-Serif" font-size="10.00"> </text>
<text xml:space="preserve" text-anchor="start" x="59.88" y="-7.25" font-family="Helvetica,sans-Serif" font-size="10.00"> </text>
<polygon fill="#666666" stroke="#666666" points="0,-35.5 0,-35.5 122.75,-35.5 122.75,-35.5 0,-35.5"/>
<polygon fill="#666666" stroke="#666666" points="0,-18.75 0,-18.75 122.75,-18.75 122.75,-18.75 0,-18.75"/>
<polygon fill="none" stroke="#666666" points="0,0 0,-67 122.75,-67 122.75,0 0,0"/>
</a>
</g>
</g>
<!-- Node2 -->
<g id="Node000002" class="node">
<title>Node2</title>
<g id="a_Node000002"><a xlink:title=" ">
<polygon fill="white" stroke="none" points="109.25,-157.25 13.5,-157.25 13.5,-103 109.25,-103 109.25,-157.25"/>
<text xml:space="preserve" text-anchor="start" x="17.5" y="-143.75" font-family="Helvetica,sans-Serif" font-size="10.00">std::runtime_error</text>
<text xml:space="preserve" text-anchor="start" x="59.88" y="-127" font-family="Helvetica,sans-Serif" font-size="10.00"> </text>
<text xml:space="preserve" text-anchor="start" x="59.88" y="-110.25" font-family="Helvetica,sans-Serif" font-size="10.00"> </text>
<polygon fill="#bfbfbf" stroke="#bfbfbf" points="13.5,-138.5 13.5,-138.5 109.25,-138.5 109.25,-138.5 13.5,-138.5"/>
<polygon fill="#bfbfbf" stroke="#bfbfbf" points="13.5,-121.75 13.5,-121.75 109.25,-121.75 109.25,-121.75 13.5,-121.75"/>
<polygon fill="none" stroke="#bfbfbf" points="13.5,-103 13.5,-157.25 109.25,-157.25 109.25,-103 13.5,-103"/>
</a>
</g>
</g>
<!-- Node2&#45;&gt;Node1 -->
<g id="edge1_Node000001_Node000002" class="edge">
<title>Node2&#45;&gt;Node1</title>
<g id="a_edge1_Node000001_Node000002"><a xlink:title=" ">
<path fill="none" stroke="#63b8ff" d="M61.38,-91.51C61.38,-83.38 61.38,-74.85 61.38,-66.94"/>
<polygon fill="none" stroke="#63b8ff" points="57.88,-91.5 61.38,-101.5 64.88,-91.5 57.88,-91.5"/>
</a>
</g>
</g>
</g>
</svg>
