<?xml version="1.0" encoding="UTF-8" standalone="no"?>
<!DOCTYPE svg PUBLIC "-//W3C//DTD SVG 1.1//EN"
 "http://www.w3.org/Graphics/SVG/1.1/DTD/svg11.dtd">
<!-- Generated by graphviz version 2.42.1 (0)
 -->
<!-- Title: vanetza::security::NullCertificateProvider Pages: 1 -->
<svg width="138pt" height="259pt"
 viewBox="0.00 0.00 138.00 259.00" xmlns="http://www.w3.org/2000/svg" xmlns:xlink="http://www.w3.org/1999/xlink">
<g id="graph0" class="graph" transform="scale(1 1) rotate(0) translate(4 255)">
<title>vanetza::security::NullCertificateProvider</title>
<polygon fill="white" stroke="transparent" points="-4,4 -4,-255 134,-255 134,4 -4,4"/>
<!-- Node0 -->
<g id="node1" class="node">
<title>Node0</title>
<g id="a_node1"><a xlink:title=" ">
<polygon fill="#bfbfbf" stroke="black" points="0,-0.5 0,-112.5 130,-112.5 130,-0.5 0,-0.5"/>
<text text-anchor="start" x="8" y="-100.5" font-family="Helvetica,sans-Serif" font-size="10.00">vanetza::security::</text>
<text text-anchor="middle" x="65" y="-89.5" font-family="Helvetica,sans-Serif" font-size="10.00">NullCertificateProvider</text>
<polyline fill="none" stroke="black" points="0,-82.5 130,-82.5 "/>
<text text-anchor="middle" x="65" y="-70.5" font-family="Helvetica,sans-Serif" font-size="10.00"> </text>
<polyline fill="none" stroke="black" points="0,-63.5 130,-63.5 "/>
<text text-anchor="start" x="8" y="-51.5" font-family="Helvetica,sans-Serif" font-size="10.00">+ NullCertificateProvider()</text>
<text text-anchor="start" x="8" y="-40.5" font-family="Helvetica,sans-Serif" font-size="10.00">+ own_certificate()</text>
<text text-anchor="start" x="8" y="-29.5" font-family="Helvetica,sans-Serif" font-size="10.00">+ own_chain()</text>
<text text-anchor="start" x="8" y="-18.5" font-family="Helvetica,sans-Serif" font-size="10.00">+ own_private_key()</text>
<text text-anchor="start" x="8" y="-7.5" font-family="Helvetica,sans-Serif" font-size="10.00">+ null_certificate()</text>
</a>
</g>
</g>
<!-- Node1 -->
<g id="node2" class="node">
<title>Node1</title>
<g id="a_node2"><a xlink:href="../../dd/d27/classvanetza_1_1security_1_1CertificateProvider.html" target="_top" xlink:title=" ">
<polygon fill="white" stroke="black" points="5.5,-149.5 5.5,-250.5 124.5,-250.5 124.5,-149.5 5.5,-149.5"/>
<text text-anchor="start" x="13.5" y="-238.5" font-family="Helvetica,sans-Serif" font-size="10.00">vanetza::security::</text>
<text text-anchor="middle" x="65" y="-227.5" font-family="Helvetica,sans-Serif" font-size="10.00">CertificateProvider</text>
<polyline fill="none" stroke="black" points="5.5,-220.5 124.5,-220.5 "/>
<text text-anchor="middle" x="65" y="-208.5" font-family="Helvetica,sans-Serif" font-size="10.00"> </text>
<polyline fill="none" stroke="black" points="5.5,-201.5 124.5,-201.5 "/>
<text text-anchor="start" x="13.5" y="-189.5" font-family="Helvetica,sans-Serif" font-size="10.00">+ own_certificate()</text>
<text text-anchor="start" x="13.5" y="-178.5" font-family="Helvetica,sans-Serif" font-size="10.00">+ own_chain()</text>
<text text-anchor="start" x="13.5" y="-167.5" font-family="Helvetica,sans-Serif" font-size="10.00">+ own_private_key()</text>
<text text-anchor="start" x="13.5" y="-156.5" font-family="Helvetica,sans-Serif" font-size="10.00">+ ~CertificateProvider()</text>
</a>
</g>
</g>
<!-- Node1&#45;&gt;Node0 -->
<g id="edge1" class="edge">
<title>Node1&#45;&gt;Node0</title>
<path fill="none" stroke="midnightblue" d="M65,-139.01C65,-130.29 65,-121.34 65,-112.72"/>
<polygon fill="none" stroke="midnightblue" points="61.5,-139.11 65,-149.11 68.5,-139.11 61.5,-139.11"/>
</g>
</g>
</svg>
