<?xml version="1.0" encoding="UTF-8" standalone="no"?>
<!DOCTYPE svg PUBLIC "-//W3C//DTD SVG 1.1//EN"
 "http://www.w3.org/Graphics/SVG/1.1/DTD/svg11.dtd">
<!-- Generated by graphviz version 2.42.3 (0)
 -->
<!-- Title: vanetza::security::NullCertificateProvider Pages: 1 -->
<svg width="139pt" height="259pt"
 viewBox="0.00 0.00 139.00 259.00" xmlns="http://www.w3.org/2000/svg" xmlns:xlink="http://www.w3.org/1999/xlink">
<g id="graph0" class="graph" transform="scale(1 1) rotate(0) translate(4 255)">
<title>vanetza::security::NullCertificateProvider</title>
<polygon fill="white" stroke="transparent" points="-4,4 -4,-255 135,-255 135,4 -4,4"/>
<!-- Node1 -->
<g id="node1" class="node">
<title>Node1</title>
<g id="a_node1"><a xlink:title=" ">
<polygon fill="#bfbfbf" stroke="black" points="0,-0.5 0,-112.5 131,-112.5 131,-0.5 0,-0.5"/>
<text text-anchor="start" x="8" y="-100.5" font-family="Helvetica,sans-Serif" font-size="10.00">vanetza::security::</text>
<text text-anchor="middle" x="65.5" y="-89.5" font-family="Helvetica,sans-Serif" font-size="10.00">NullCertificateProvider</text>
<polyline fill="none" stroke="black" points="0,-82.5 131,-82.5 "/>
<text text-anchor="middle" x="65.5" y="-70.5" font-family="Helvetica,sans-Serif" font-size="10.00"> </text>
<polyline fill="none" stroke="black" points="0,-63.5 131,-63.5 "/>
<text text-anchor="start" x="8" y="-51.5" font-family="Helvetica,sans-Serif" font-size="10.00">+ NullCertificateProvider()</text>
<text text-anchor="start" x="8" y="-40.5" font-family="Helvetica,sans-Serif" font-size="10.00">+ own_certificate()</text>
<text text-anchor="start" x="8" y="-29.5" font-family="Helvetica,sans-Serif" font-size="10.00">+ own_chain()</text>
<text text-anchor="start" x="8" y="-18.5" font-family="Helvetica,sans-Serif" font-size="10.00">+ own_private_key()</text>
<text text-anchor="start" x="8" y="-7.5" font-family="Helvetica,sans-Serif" font-size="10.00">+ null_certificate()</text>
</a>
</g>
</g>
<!-- Node2 -->
<g id="node2" class="node">
<title>Node2</title>
<g id="a_node2"><a xlink:href="../../dd/d27/classvanetza_1_1security_1_1CertificateProvider.html" target="_top" xlink:title=" ">
<polygon fill="white" stroke="black" points="6,-149.5 6,-250.5 125,-250.5 125,-149.5 6,-149.5"/>
<text text-anchor="start" x="14" y="-238.5" font-family="Helvetica,sans-Serif" font-size="10.00">vanetza::security::</text>
<text text-anchor="middle" x="65.5" y="-227.5" font-family="Helvetica,sans-Serif" font-size="10.00">CertificateProvider</text>
<polyline fill="none" stroke="black" points="6,-220.5 125,-220.5 "/>
<text text-anchor="middle" x="65.5" y="-208.5" font-family="Helvetica,sans-Serif" font-size="10.00"> </text>
<polyline fill="none" stroke="black" points="6,-201.5 125,-201.5 "/>
<text text-anchor="start" x="14" y="-189.5" font-family="Helvetica,sans-Serif" font-size="10.00">+ own_certificate()</text>
<text text-anchor="start" x="14" y="-178.5" font-family="Helvetica,sans-Serif" font-size="10.00">+ own_chain()</text>
<text text-anchor="start" x="14" y="-167.5" font-family="Helvetica,sans-Serif" font-size="10.00">+ own_private_key()</text>
<text text-anchor="start" x="14" y="-156.5" font-family="Helvetica,sans-Serif" font-size="10.00">+ ~CertificateProvider()</text>
</a>
</g>
</g>
<!-- Node2&#45;&gt;Node1 -->
<g id="edge1" class="edge">
<title>Node2&#45;&gt;Node1</title>
<path fill="none" stroke="midnightblue" d="M65.5,-139.01C65.5,-130.29 65.5,-121.34 65.5,-112.72"/>
<polygon fill="none" stroke="midnightblue" points="62,-139.11 65.5,-149.11 69,-139.11 62,-139.11"/>
</g>
</g>
</svg>
