<?xml version="1.0" encoding="UTF-8" standalone="no"?>
<!DOCTYPE svg PUBLIC "-//W3C//DTD SVG 1.1//EN"
 "http://www.w3.org/Graphics/SVG/1.1/DTD/svg11.dtd">
<!-- Generated by graphviz version 2.49.3 (0)
 -->
<!-- Title: vanetza::security::v2::detail::subject_attribute_type&lt; SubjectAttributeType &gt; Pages: 1 -->
<svg width="1022pt" height="240pt"
 viewBox="0.00 0.00 1022.00 240.00" xmlns="http://www.w3.org/2000/svg" xmlns:xlink="http://www.w3.org/1999/xlink">
<g id="graph0" class="graph" transform="scale(1 1) rotate(0) translate(4 236)">
<title>vanetza::security::v2::detail::subject_attribute_type&lt; SubjectAttributeType &gt;</title>
<!-- Node1 -->
<g id="Node000001" class="node">
<title>Node1</title>
<g id="a_Node000001"><a xlink:title=" ">
<polygon fill="#999999" stroke="transparent" points="584,-232 430,-232 430,-150 584,-150 584,-232"/>
<text text-anchor="start" x="435" y="-220" font-family="Helvetica,sans-Serif" font-size="10.00">vanetza::security::</text>
<text text-anchor="start" x="435" y="-209" font-family="Helvetica,sans-Serif" font-size="10.00">v2::detail::subject</text>
<text text-anchor="start" x="435" y="-198" font-family="Helvetica,sans-Serif" font-size="10.00">_attribute_type&lt; SubjectAttribute</text>
<text text-anchor="start" x="491.5" y="-187" font-family="Helvetica,sans-Serif" font-size="10.00">Type &gt;</text>
<text text-anchor="start" x="505" y="-172" font-family="Helvetica,sans-Serif" font-size="10.00"> </text>
<text text-anchor="start" x="505" y="-157" font-family="Helvetica,sans-Serif" font-size="10.00"> </text>
<polygon fill="#666666" stroke="#666666" points="430,-182 430,-182 584,-182 584,-182 430,-182"/>
<polygon fill="#666666" stroke="#666666" points="430,-167 430,-167 584,-167 584,-167 430,-167"/>
<polygon fill="none" stroke="#666666" points="430,-150 430,-232 584,-232 584,-150 430,-150"/>
</a>
</g>
</g>
<!-- Node2 -->
<g id="Node000002" class="node">
<title>Node2</title>
<g id="a_Node000002"><a xlink:href="../../d3/df4/structvanetza_1_1security_1_1v2_1_1detail_1_1subject__attribute__type_3_01SubjectAttributeType_1_1Assurance__Level_01_4.html" target="_top" xlink:title=" ">
<polygon fill="white" stroke="transparent" points="154,-82 0,-82 0,0 154,0 154,-82"/>
<text text-anchor="start" x="5" y="-70" font-family="Helvetica,sans-Serif" font-size="10.00">vanetza::security::</text>
<text text-anchor="start" x="5" y="-59" font-family="Helvetica,sans-Serif" font-size="10.00">v2::detail::subject</text>
<text text-anchor="start" x="5" y="-48" font-family="Helvetica,sans-Serif" font-size="10.00">_attribute_type&lt; SubjectAttribute</text>
<text text-anchor="start" x="21.5" y="-37" font-family="Helvetica,sans-Serif" font-size="10.00">Type::Assurance_Level &gt;</text>
<text text-anchor="start" x="75" y="-22" font-family="Helvetica,sans-Serif" font-size="10.00"> </text>
<text text-anchor="start" x="75" y="-7" font-family="Helvetica,sans-Serif" font-size="10.00"> </text>
<polygon fill="#bfbfbf" stroke="#bfbfbf" points="0,-32 0,-32 154,-32 154,-32 0,-32"/>
<polygon fill="#bfbfbf" stroke="#bfbfbf" points="0,-17 0,-17 154,-17 154,-17 0,-17"/>
<polygon fill="none" stroke="#bfbfbf" points="0,0 0,-82 154,-82 154,0 0,0"/>
</a>
</g>
</g>
<!-- Node1&#45;&gt;Node2 -->
<g id="edge1_Node000001_Node000002" class="edge">
<title>Node1&#45;&gt;Node2</title>
<g id="a_edge1_Node000001_Node000002"><a xlink:title=" ">
<path fill="none" stroke="orange" d="M419.6,-185.67C353.68,-179.7 262.4,-165.54 189,-132 162.46,-119.87 136.78,-100.03 116.72,-82.06"/>
<polygon fill="orange" stroke="orange" points="419.69,-189.19 429.95,-186.56 420.29,-182.22 419.69,-189.19"/>
</a>
</g>
<text text-anchor="start" x="192" y="-121" font-family="Helvetica,sans-Serif" font-size="10.00" fill="grey">&lt; SubjectAttributeType</text>
<text text-anchor="start" x="192" y="-106" font-family="Helvetica,sans-Serif" font-size="10.00" fill="grey">  ::Assurance_Level &gt;</text>
</g>
<!-- Node3 -->
<g id="Node000003" class="node">
<title>Node3</title>
<g id="a_Node000003"><a xlink:href="../../dd/db6/structvanetza_1_1security_1_1v2_1_1detail_1_1subject__attribute__type_3_01SubjectAttributeType_1_1Encryption__Key_01_4.html" target="_top" xlink:title=" ">
<polygon fill="white" stroke="transparent" points="326,-82 172,-82 172,0 326,0 326,-82"/>
<text text-anchor="start" x="177" y="-70" font-family="Helvetica,sans-Serif" font-size="10.00">vanetza::security::</text>
<text text-anchor="start" x="177" y="-59" font-family="Helvetica,sans-Serif" font-size="10.00">v2::detail::subject</text>
<text text-anchor="start" x="177" y="-48" font-family="Helvetica,sans-Serif" font-size="10.00">_attribute_type&lt; SubjectAttribute</text>
<text text-anchor="start" x="196" y="-37" font-family="Helvetica,sans-Serif" font-size="10.00">Type::Encryption_Key &gt;</text>
<text text-anchor="start" x="247" y="-22" font-family="Helvetica,sans-Serif" font-size="10.00"> </text>
<text text-anchor="start" x="247" y="-7" font-family="Helvetica,sans-Serif" font-size="10.00"> </text>
<polygon fill="#bfbfbf" stroke="#bfbfbf" points="172,-32 172,-32 326,-32 326,-32 172,-32"/>
<polygon fill="#bfbfbf" stroke="#bfbfbf" points="172,-17 172,-17 326,-17 326,-17 172,-17"/>
<polygon fill="none" stroke="#bfbfbf" points="172,0 172,-82 326,-82 326,0 172,0"/>
</a>
</g>
</g>
<!-- Node1&#45;&gt;Node3 -->
<g id="edge2_Node000001_Node000003" class="edge">
<title>Node1&#45;&gt;Node3</title>
<g id="a_edge2_Node000001_Node000003"><a xlink:title=" ">
<path fill="none" stroke="orange" d="M420.21,-168.99C392.38,-160.05 362.25,-147.92 337,-132 315.93,-118.71 296.17,-99.41 280.74,-82.09"/>
<polygon fill="orange" stroke="orange" points="419.36,-172.39 429.95,-172.02 421.44,-165.7 419.36,-172.39"/>
</a>
</g>
<text text-anchor="start" x="340" y="-121" font-family="Helvetica,sans-Serif" font-size="10.00" fill="grey">&lt; SubjectAttributeType</text>
<text text-anchor="start" x="340" y="-106" font-family="Helvetica,sans-Serif" font-size="10.00" fill="grey">  ::Encryption_Key &gt;</text>
</g>
<!-- Node4 -->
<g id="Node000004" class="node">
<title>Node4</title>
<g id="a_Node000004"><a xlink:href="../../dd/d75/structvanetza_1_1security_1_1v2_1_1detail_1_1subject__attribute__type_3_01SubjectAttributeType_1_1ITS__AID__List_01_4.html" target="_top" xlink:title=" ">
<polygon fill="white" stroke="transparent" points="498,-82 344,-82 344,0 498,0 498,-82"/>
<text text-anchor="start" x="349" y="-70" font-family="Helvetica,sans-Serif" font-size="10.00">vanetza::security::</text>
<text text-anchor="start" x="349" y="-59" font-family="Helvetica,sans-Serif" font-size="10.00">v2::detail::subject</text>
<text text-anchor="start" x="349" y="-48" font-family="Helvetica,sans-Serif" font-size="10.00">_attribute_type&lt; SubjectAttribute</text>
<text text-anchor="start" x="373" y="-37" font-family="Helvetica,sans-Serif" font-size="10.00">Type::ITS_AID_List &gt;</text>
<text text-anchor="start" x="419" y="-22" font-family="Helvetica,sans-Serif" font-size="10.00"> </text>
<text text-anchor="start" x="419" y="-7" font-family="Helvetica,sans-Serif" font-size="10.00"> </text>
<polygon fill="#bfbfbf" stroke="#bfbfbf" points="344,-32 344,-32 498,-32 498,-32 344,-32"/>
<polygon fill="#bfbfbf" stroke="#bfbfbf" points="344,-17 344,-17 498,-17 498,-17 344,-17"/>
<polygon fill="none" stroke="#bfbfbf" points="344,0 344,-82 498,-82 498,0 344,0"/>
</a>
</g>
</g>
<!-- Node1&#45;&gt;Node4 -->
<g id="edge3_Node000001_Node000004" class="edge">
<title>Node1&#45;&gt;Node4</title>
<g id="a_edge3_Node000001_Node000004"><a xlink:title=" ">
<path fill="none" stroke="orange" d="M470.74,-141.15C468.74,-138.09 466.81,-135.02 465,-132 455.51,-116.19 446.34,-98.05 438.84,-82.21"/>
<polygon fill="orange" stroke="orange" points="468.01,-143.37 476.49,-149.72 473.83,-139.47 468.01,-143.37"/>
</a>
</g>
<text text-anchor="start" x="468" y="-121" font-family="Helvetica,sans-Serif" font-size="10.00" fill="grey">&lt; SubjectAttributeType</text>
<text text-anchor="start" x="468" y="-106" font-family="Helvetica,sans-Serif" font-size="10.00" fill="grey">  ::ITS_AID_List &gt;</text>
</g>
<!-- Node5 -->
<g id="Node000005" class="node">
<title>Node5</title>
<g id="a_Node000005"><a xlink:href="../../d6/de7/structvanetza_1_1security_1_1v2_1_1detail_1_1subject__attribute__type_3_01SubjectAttributeType_1_1ITS__AID__SSP__List_01_4.html" target="_top" xlink:title=" ">
<polygon fill="white" stroke="transparent" points="670,-82 516,-82 516,0 670,0 670,-82"/>
<text text-anchor="start" x="521" y="-70" font-family="Helvetica,sans-Serif" font-size="10.00">vanetza::security::</text>
<text text-anchor="start" x="521" y="-59" font-family="Helvetica,sans-Serif" font-size="10.00">v2::detail::subject</text>
<text text-anchor="start" x="521" y="-48" font-family="Helvetica,sans-Serif" font-size="10.00">_attribute_type&lt; SubjectAttribute</text>
<text text-anchor="start" x="532.5" y="-37" font-family="Helvetica,sans-Serif" font-size="10.00">Type::ITS_AID_SSP_List &gt;</text>
<text text-anchor="start" x="591" y="-22" font-family="Helvetica,sans-Serif" font-size="10.00"> </text>
<text text-anchor="start" x="591" y="-7" font-family="Helvetica,sans-Serif" font-size="10.00"> </text>
<polygon fill="#bfbfbf" stroke="#bfbfbf" points="516,-32 516,-32 670,-32 670,-32 516,-32"/>
<polygon fill="#bfbfbf" stroke="#bfbfbf" points="516,-17 516,-17 670,-17 670,-17 516,-17"/>
<polygon fill="none" stroke="#bfbfbf" points="516,0 516,-82 670,-82 670,0 516,0"/>
</a>
</g>
</g>
<!-- Node1&#45;&gt;Node5 -->
<g id="edge4_Node000001_Node000005" class="edge">
<title>Node1&#45;&gt;Node5</title>
<g id="a_edge4_Node000001_Node000005"><a xlink:title=" ">
<path fill="none" stroke="orange" d="M564.1,-142.08C566.62,-138.82 568.94,-135.45 571,-132 579.97,-116.94 585.29,-98.38 588.44,-82.05"/>
<polygon fill="orange" stroke="orange" points="561.24,-140.04 557.49,-149.94 566.6,-144.54 561.24,-140.04"/>
</a>
</g>
<text text-anchor="start" x="586" y="-121" font-family="Helvetica,sans-Serif" font-size="10.00" fill="grey">&lt; SubjectAttributeType</text>
<text text-anchor="start" x="586" y="-106" font-family="Helvetica,sans-Serif" font-size="10.00" fill="grey">  ::ITS_AID_SSP_List &gt;</text>
</g>
<!-- Node6 -->
<g id="Node000006" class="node">
<title>Node6</title>
<g id="a_Node000006"><a xlink:href="../../d6/d71/structvanetza_1_1security_1_1v2_1_1detail_1_1subject__attribute__type_3_01SubjectAttributeType_1_1Reconstruction__Value_01_4.html" target="_top" xlink:title=" ">
<polygon fill="white" stroke="transparent" points="842,-82 688,-82 688,0 842,0 842,-82"/>
<text text-anchor="start" x="693" y="-70" font-family="Helvetica,sans-Serif" font-size="10.00">vanetza::security::</text>
<text text-anchor="start" x="693" y="-59" font-family="Helvetica,sans-Serif" font-size="10.00">v2::detail::subject</text>
<text text-anchor="start" x="693" y="-48" font-family="Helvetica,sans-Serif" font-size="10.00">_attribute_type&lt; SubjectAttribute</text>
<text text-anchor="start" x="699.5" y="-37" font-family="Helvetica,sans-Serif" font-size="10.00">Type::Reconstruction_Value &gt;</text>
<text text-anchor="start" x="763" y="-22" font-family="Helvetica,sans-Serif" font-size="10.00"> </text>
<text text-anchor="start" x="763" y="-7" font-family="Helvetica,sans-Serif" font-size="10.00"> </text>
<polygon fill="#bfbfbf" stroke="#bfbfbf" points="688,-32 688,-32 842,-32 842,-32 688,-32"/>
<polygon fill="#bfbfbf" stroke="#bfbfbf" points="688,-17 688,-17 842,-17 842,-17 688,-17"/>
<polygon fill="none" stroke="#bfbfbf" points="688,0 688,-82 842,-82 842,0 688,0"/>
</a>
</g>
</g>
<!-- Node1&#45;&gt;Node6 -->
<g id="edge5_Node000001_Node000006" class="edge">
<title>Node1&#45;&gt;Node6</title>
<g id="a_edge5_Node000001_Node000006"><a xlink:title=" ">
<path fill="none" stroke="orange" d="M593.79,-176.22C628.77,-167.63 668.08,-153.87 699,-132 717.19,-119.13 732.36,-99.66 743.54,-82.12"/>
<polygon fill="orange" stroke="orange" points="592.98,-172.81 584.04,-178.51 594.58,-179.63 592.98,-172.81"/>
</a>
</g>
<text text-anchor="start" x="732" y="-121" font-family="Helvetica,sans-Serif" font-size="10.00" fill="grey">&lt; SubjectAttributeType</text>
<text text-anchor="start" x="732" y="-106" font-family="Helvetica,sans-Serif" font-size="10.00" fill="grey">  ::Reconstruction_Value &gt;</text>
</g>
<!-- Node7 -->
<g id="Node000007" class="node">
<title>Node7</title>
<g id="a_Node000007"><a xlink:href="../../d0/d6e/structvanetza_1_1security_1_1v2_1_1detail_1_1subject__attribute__type_3_01SubjectAttributeType_1_1Verification__Key_01_4.html" target="_top" xlink:title=" ">
<polygon fill="white" stroke="transparent" points="1014,-82 860,-82 860,0 1014,0 1014,-82"/>
<text text-anchor="start" x="865" y="-70" font-family="Helvetica,sans-Serif" font-size="10.00">vanetza::security::</text>
<text text-anchor="start" x="865" y="-59" font-family="Helvetica,sans-Serif" font-size="10.00">v2::detail::subject</text>
<text text-anchor="start" x="865" y="-48" font-family="Helvetica,sans-Serif" font-size="10.00">_attribute_type&lt; SubjectAttribute</text>
<text text-anchor="start" x="884" y="-37" font-family="Helvetica,sans-Serif" font-size="10.00">Type::Verification_Key &gt;</text>
<text text-anchor="start" x="935" y="-22" font-family="Helvetica,sans-Serif" font-size="10.00"> </text>
<text text-anchor="start" x="935" y="-7" font-family="Helvetica,sans-Serif" font-size="10.00"> </text>
<polygon fill="#bfbfbf" stroke="#bfbfbf" points="860,-32 860,-32 1014,-32 1014,-32 860,-32"/>
<polygon fill="#bfbfbf" stroke="#bfbfbf" points="860,-17 860,-17 1014,-17 1014,-17 860,-17"/>
<polygon fill="none" stroke="#bfbfbf" points="860,0 860,-82 1014,-82 1014,0 860,0"/>
</a>
</g>
</g>
<!-- Node1&#45;&gt;Node7 -->
<g id="edge6_Node000001_Node000007" class="edge">
<title>Node1&#45;&gt;Node7</title>
<g id="a_edge6_Node000001_Node000007"><a xlink:title=" ">
<path fill="none" stroke="orange" d="M594.1,-182.04C682.11,-172.85 811.16,-155.86 855,-132 876.72,-120.18 895.72,-100.36 909.94,-82.33"/>
<polygon fill="orange" stroke="orange" points="593.71,-178.56 584.12,-183.07 594.42,-185.53 593.71,-178.56"/>
</a>
</g>
<text text-anchor="start" x="896" y="-121" font-family="Helvetica,sans-Serif" font-size="10.00" fill="grey">&lt; SubjectAttributeType</text>
<text text-anchor="start" x="896" y="-106" font-family="Helvetica,sans-Serif" font-size="10.00" fill="grey">  ::Verification_Key &gt;</text>
</g>
</g>
</svg>
