<?xml version="1.0" encoding="UTF-8" standalone="no"?>
<!DOCTYPE svg PUBLIC "-//W3C//DTD SVG 1.1//EN"
 "http://www.w3.org/Graphics/SVG/1.1/DTD/svg11.dtd">
<!-- Generated by graphviz version 14.1.2 (0)
 -->
<!-- Title: vanetza::security::v2::detail::subject_attribute_type&lt; SubjectAttributeType &gt; Pages: 1 -->
<!--zoomable 265 -->

<svg id="main" version="1.1" xmlns="http://www.w3.org/2000/svg" xmlns:xlink="http://www.w3.org/1999/xlink" xml:space="preserve" onload="init(evt)">

<style type="text/css"><![CDATA[
.node, .edge {opacity: 0.7;}
.node.selected, .edge.selected {opacity: 1;}
.edge:hover path { stroke: red; }
.edge:hover polygon { stroke: red; fill: red; }
]]></style>

<defs>
  <circle id="rim" cx="0" cy="0" r="7"/>
  <circle id="rim2" cx="0" cy="0" r="3.5"/>
  <g id="zoomPlus">
    <use xlink:href="#rim" fill="#404040"><set attributeName="fill" to="#808080" begin="zoomplus.mouseover" end="zoomplus.mouseout"/></use>
    <path d="M-4,0h8M0,-4v8" fill="none" stroke="white" stroke-width="1.5" pointer-events="none"/>
  </g>
  <g id="zoomMin">
    <use xlink:href="#rim" fill="#404040"><set attributeName="fill" to="#808080" begin="zoomminus.mouseover" end="zoomminus.mouseout"/></use>
    <path d="M-4,0h8" fill="none" stroke="white" stroke-width="1.5" pointer-events="none"/>
  </g>
  <g id="arrowUp" transform="translate(30 24)">
    <use xlink:href="#rim"/>
    <path pointer-events="none" fill="none" stroke="white" stroke-width="1.5" d="M0,-3.0v7 M-2.5,-0.5L0,-3.0L2.5,-0.5"/>
  </g>
  <g id="arrowRight" transform="rotate(90) translate(36 -43)">
    <use xlink:href="#rim"/>
    <path pointer-events="none" fill="none" stroke="white" stroke-width="1.5" d="M0,-3.0v7 M-2.5,-0.5L0,-3.0L2.5,-0.5"/>
  </g>
  <g id="arrowDown" transform="rotate(180) translate(-30 -48)">
    <use xlink:href="#rim"/>
    <path pointer-events="none" fill="none" stroke="white" stroke-width="1.5" d="M0,-3.0v7 M-2.5,-0.5L0,-3.0L2.5,-0.5"/>
  </g>
  <g id="arrowLeft" transform="rotate(270) translate(-36 17)">
    <use xlink:href="#rim"/>
    <path pointer-events="none" fill="none" stroke="white" stroke-width="1.5" d="M0,-3.0v7 M-2.5,-0.5L0,-3.0L2.5,-0.5"/>
  </g>
  <g id="resetDef">
    <use xlink:href="#rim2" fill="#404040"><set attributeName="fill" to="#808080" begin="reset.mouseover" end="reset.mouseout"/></use>
  </g>
</defs>
<script type="application/ecmascript">
var viewWidth = 1130;
var viewHeight = 265;
var sectionId = 'dynsection-0';
</script>
<script type="application/ecmascript" xlink:href="../../svg.min.js"/>
<svg id="graph" class="graph">
<g id="viewport">
<title>vanetza::security::v2::detail::subject_attribute_type&lt; SubjectAttributeType &gt;</title>
<!-- Node1 -->
<g id="Node000001" class="node">
<title>Node1</title>
<g id="a_Node000001"><a xlink:title=" ">
<polygon fill="#999999" stroke="none" points="647.25,-256.5 475,-256.5 475,-164 647.25,-164 647.25,-256.5"/>
<text xml:space="preserve" text-anchor="start" x="479" y="-243" font-family="Helvetica,sans-Serif" font-size="10.00">vanetza::security::</text>
<text xml:space="preserve" text-anchor="start" x="479" y="-230.25" font-family="Helvetica,sans-Serif" font-size="10.00">v2::detail::subject</text>
<text xml:space="preserve" text-anchor="start" x="479" y="-217.5" font-family="Helvetica,sans-Serif" font-size="10.00">_attribute_type&lt; SubjectAttribute</text>
<text xml:space="preserve" text-anchor="start" x="544.25" y="-204.75" font-family="Helvetica,sans-Serif" font-size="10.00">Type &gt;</text>
<text xml:space="preserve" text-anchor="start" x="559.62" y="-188" font-family="Helvetica,sans-Serif" font-size="10.00"> </text>
<text xml:space="preserve" text-anchor="start" x="559.62" y="-171.25" font-family="Helvetica,sans-Serif" font-size="10.00"> </text>
<polygon fill="#666666" stroke="#666666" points="475,-199.5 475,-199.5 647.25,-199.5 647.25,-199.5 475,-199.5"/>
<polygon fill="#666666" stroke="#666666" points="475,-182.75 475,-182.75 647.25,-182.75 647.25,-182.75 475,-182.75"/>
<polygon fill="none" stroke="#666666" points="475,-164 475,-256.5 647.25,-256.5 647.25,-164 475,-164"/>
</a>
</g>
</g>
<!-- Node2 -->
<g id="Node000002" class="node">
<title>Node2</title>
<g id="a_Node000002"><a xlink:href="../../d3/df4/structvanetza_1_1security_1_1v2_1_1detail_1_1subject__attribute__type_3_01SubjectAttributeType_1_1Assurance__Level_01_4.html" target="_top" xlink:title=" ">
<polygon fill="white" stroke="none" points="172.25,-92.5 0,-92.5 0,0 172.25,0 172.25,-92.5"/>
<text xml:space="preserve" text-anchor="start" x="4" y="-79" font-family="Helvetica,sans-Serif" font-size="10.00">vanetza::security::</text>
<text xml:space="preserve" text-anchor="start" x="4" y="-66.25" font-family="Helvetica,sans-Serif" font-size="10.00">v2::detail::subject</text>
<text xml:space="preserve" text-anchor="start" x="4" y="-53.5" font-family="Helvetica,sans-Serif" font-size="10.00">_attribute_type&lt; SubjectAttribute</text>
<text xml:space="preserve" text-anchor="start" x="25.38" y="-40.75" font-family="Helvetica,sans-Serif" font-size="10.00">Type::Assurance_Level &gt;</text>
<text xml:space="preserve" text-anchor="start" x="84.62" y="-24" font-family="Helvetica,sans-Serif" font-size="10.00"> </text>
<text xml:space="preserve" text-anchor="start" x="84.62" y="-7.25" font-family="Helvetica,sans-Serif" font-size="10.00"> </text>
<polygon fill="#bfbfbf" stroke="#bfbfbf" points="0,-35.5 0,-35.5 172.25,-35.5 172.25,-35.5 0,-35.5"/>
<polygon fill="#bfbfbf" stroke="#bfbfbf" points="0,-18.75 0,-18.75 172.25,-18.75 172.25,-18.75 0,-18.75"/>
<polygon fill="none" stroke="#bfbfbf" points="0,0 0,-92.5 172.25,-92.5 172.25,0 0,0"/>
</a>
</g>
</g>
<!-- Node1&#45;&gt;Node2 -->
<g id="edge1_Node000001_Node000002" class="edge">
<title>Node1&#45;&gt;Node2</title>
<g id="a_edge1_Node000001_Node000002"><a xlink:title=" ">
<path fill="none" stroke="orange" d="M463.82,-204.63C391.04,-198.17 290.54,-182.75 209.62,-146 181,-133 153.28,-111.88 131.38,-92.5"/>
<polygon fill="orange" stroke="orange" points="463.49,-208.12 473.75,-205.47 464.08,-201.14 463.49,-208.12"/>
</a>
</g>
<text xml:space="preserve" text-anchor="start" x="212.62" y="-133.5" font-family="Helvetica,sans-Serif" font-size="10.00" fill="grey">&lt; SubjectAttributeType</text>
<text xml:space="preserve" text-anchor="start" x="212.62" y="-116.75" font-family="Helvetica,sans-Serif" font-size="10.00" fill="grey">  ::Assurance_Level &gt;</text>
</g>
<!-- Node3 -->
<g id="Node000003" class="node">
<title>Node3</title>
<g id="a_Node000003"><a xlink:href="../../dd/db6/structvanetza_1_1security_1_1v2_1_1detail_1_1subject__attribute__type_3_01SubjectAttributeType_1_1Encryption__Key_01_4.html" target="_top" xlink:title=" ">
<polygon fill="white" stroke="none" points="362.25,-92.5 190,-92.5 190,0 362.25,0 362.25,-92.5"/>
<text xml:space="preserve" text-anchor="start" x="194" y="-79" font-family="Helvetica,sans-Serif" font-size="10.00">vanetza::security::</text>
<text xml:space="preserve" text-anchor="start" x="194" y="-66.25" font-family="Helvetica,sans-Serif" font-size="10.00">v2::detail::subject</text>
<text xml:space="preserve" text-anchor="start" x="194" y="-53.5" font-family="Helvetica,sans-Serif" font-size="10.00">_attribute_type&lt; SubjectAttribute</text>
<text xml:space="preserve" text-anchor="start" x="218.75" y="-40.75" font-family="Helvetica,sans-Serif" font-size="10.00">Type::Encryption_Key &gt;</text>
<text xml:space="preserve" text-anchor="start" x="274.62" y="-24" font-family="Helvetica,sans-Serif" font-size="10.00"> </text>
<text xml:space="preserve" text-anchor="start" x="274.62" y="-7.25" font-family="Helvetica,sans-Serif" font-size="10.00"> </text>
<polygon fill="#bfbfbf" stroke="#bfbfbf" points="190,-35.5 190,-35.5 362.25,-35.5 362.25,-35.5 190,-35.5"/>
<polygon fill="#bfbfbf" stroke="#bfbfbf" points="190,-18.75 190,-18.75 362.25,-18.75 362.25,-18.75 190,-18.75"/>
<polygon fill="none" stroke="#bfbfbf" points="190,0 190,-92.5 362.25,-92.5 362.25,0 190,0"/>
</a>
</g>
</g>
<!-- Node1&#45;&gt;Node3 -->
<g id="edge2_Node000001_Node000003" class="edge">
<title>Node1&#45;&gt;Node3</title>
<g id="a_edge2_Node000001_Node000003"><a xlink:title=" ">
<path fill="none" stroke="orange" d="M464.59,-186.13C434.13,-176.42 401.25,-163.26 373.62,-146 350.74,-131.7 329.22,-111.01 312.25,-92.26"/>
<polygon fill="orange" stroke="orange" points="463.22,-189.37 473.8,-188.98 465.28,-182.68 463.22,-189.37"/>
</a>
</g>
<text xml:space="preserve" text-anchor="start" x="376.62" y="-133.5" font-family="Helvetica,sans-Serif" font-size="10.00" fill="grey">&lt; SubjectAttributeType</text>
<text xml:space="preserve" text-anchor="start" x="376.62" y="-116.75" font-family="Helvetica,sans-Serif" font-size="10.00" fill="grey">  ::Encryption_Key &gt;</text>
</g>
<!-- Node4 -->
<g id="Node000004" class="node">
<title>Node4</title>
<g id="a_Node000004"><a xlink:href="../../dd/d75/structvanetza_1_1security_1_1v2_1_1detail_1_1subject__attribute__type_3_01SubjectAttributeType_1_1ITS__AID__List_01_4.html" target="_top" xlink:title=" ">
<polygon fill="white" stroke="none" points="552.25,-92.5 380,-92.5 380,0 552.25,0 552.25,-92.5"/>
<text xml:space="preserve" text-anchor="start" x="384" y="-79" font-family="Helvetica,sans-Serif" font-size="10.00">vanetza::security::</text>
<text xml:space="preserve" text-anchor="start" x="384" y="-66.25" font-family="Helvetica,sans-Serif" font-size="10.00">v2::detail::subject</text>
<text xml:space="preserve" text-anchor="start" x="384" y="-53.5" font-family="Helvetica,sans-Serif" font-size="10.00">_attribute_type&lt; SubjectAttribute</text>
<text xml:space="preserve" text-anchor="start" x="416.25" y="-40.75" font-family="Helvetica,sans-Serif" font-size="10.00">Type::ITS_AID_List &gt;</text>
<text xml:space="preserve" text-anchor="start" x="464.62" y="-24" font-family="Helvetica,sans-Serif" font-size="10.00"> </text>
<text xml:space="preserve" text-anchor="start" x="464.62" y="-7.25" font-family="Helvetica,sans-Serif" font-size="10.00"> </text>
<polygon fill="#bfbfbf" stroke="#bfbfbf" points="380,-35.5 380,-35.5 552.25,-35.5 552.25,-35.5 380,-35.5"/>
<polygon fill="#bfbfbf" stroke="#bfbfbf" points="380,-18.75 380,-18.75 552.25,-18.75 552.25,-18.75 380,-18.75"/>
<polygon fill="none" stroke="#bfbfbf" points="380,0 380,-92.5 552.25,-92.5 552.25,0 380,0"/>
</a>
</g>
</g>
<!-- Node1&#45;&gt;Node4 -->
<g id="edge3_Node000001_Node000004" class="edge">
<title>Node1&#45;&gt;Node4</title>
<g id="a_edge3_Node000001_Node000004"><a xlink:title=" ">
<path fill="none" stroke="orange" d="M521.16,-154.83C519.25,-151.87 517.39,-148.92 515.62,-146 505.3,-128.94 495.19,-109.44 486.83,-92.3"/>
<polygon fill="orange" stroke="orange" points="518.13,-156.59 526.59,-162.97 523.96,-152.71 518.13,-156.59"/>
</a>
</g>
<text xml:space="preserve" text-anchor="start" x="518.62" y="-133.5" font-family="Helvetica,sans-Serif" font-size="10.00" fill="grey">&lt; SubjectAttributeType</text>
<text xml:space="preserve" text-anchor="start" x="518.62" y="-116.75" font-family="Helvetica,sans-Serif" font-size="10.00" fill="grey">  ::ITS_AID_List &gt;</text>
</g>
<!-- Node5 -->
<g id="Node000005" class="node">
<title>Node5</title>
<g id="a_Node000005"><a xlink:href="../../d6/de7/structvanetza_1_1security_1_1v2_1_1detail_1_1subject__attribute__type_3_01SubjectAttributeType_1_1ITS__AID__SSP__List_01_4.html" target="_top" xlink:title=" ">
<polygon fill="white" stroke="none" points="742.25,-92.5 570,-92.5 570,0 742.25,0 742.25,-92.5"/>
<text xml:space="preserve" text-anchor="start" x="574" y="-79" font-family="Helvetica,sans-Serif" font-size="10.00">vanetza::security::</text>
<text xml:space="preserve" text-anchor="start" x="574" y="-66.25" font-family="Helvetica,sans-Serif" font-size="10.00">v2::detail::subject</text>
<text xml:space="preserve" text-anchor="start" x="574" y="-53.5" font-family="Helvetica,sans-Serif" font-size="10.00">_attribute_type&lt; SubjectAttribute</text>
<text xml:space="preserve" text-anchor="start" x="594.62" y="-40.75" font-family="Helvetica,sans-Serif" font-size="10.00">Type::ITS_AID_SSP_List &gt;</text>
<text xml:space="preserve" text-anchor="start" x="654.62" y="-24" font-family="Helvetica,sans-Serif" font-size="10.00"> </text>
<text xml:space="preserve" text-anchor="start" x="654.62" y="-7.25" font-family="Helvetica,sans-Serif" font-size="10.00"> </text>
<polygon fill="#bfbfbf" stroke="#bfbfbf" points="570,-35.5 570,-35.5 742.25,-35.5 742.25,-35.5 570,-35.5"/>
<polygon fill="#bfbfbf" stroke="#bfbfbf" points="570,-18.75 570,-18.75 742.25,-18.75 742.25,-18.75 570,-18.75"/>
<polygon fill="none" stroke="#bfbfbf" points="570,0 570,-92.5 742.25,-92.5 742.25,0 570,0"/>
</a>
</g>
</g>
<!-- Node1&#45;&gt;Node5 -->
<g id="edge4_Node000001_Node000005" class="edge">
<title>Node1&#45;&gt;Node5</title>
<g id="a_edge4_Node000001_Node000005"><a xlink:title=" ">
<path fill="none" stroke="orange" d="M627.49,-155.75C629.9,-152.6 632.13,-149.34 634.12,-146 643.76,-129.86 649.18,-109.96 652.23,-92.27"/>
<polygon fill="orange" stroke="orange" points="624.97,-153.31 621.24,-163.22 630.34,-157.8 624.97,-153.31"/>
</a>
</g>
<text xml:space="preserve" text-anchor="start" x="650.65" y="-133.5" font-family="Helvetica,sans-Serif" font-size="10.00" fill="grey">&lt; SubjectAttributeType</text>
<text xml:space="preserve" text-anchor="start" x="650.65" y="-116.75" font-family="Helvetica,sans-Serif" font-size="10.00" fill="grey">  ::ITS_AID_SSP_List &gt;</text>
</g>
<!-- Node6 -->
<g id="Node000006" class="node">
<title>Node6</title>
<g id="a_Node000006"><a xlink:href="../../d6/d71/structvanetza_1_1security_1_1v2_1_1detail_1_1subject__attribute__type_3_01SubjectAttributeType_1_1Reconstruction__Value_01_4.html" target="_top" xlink:title=" ">
<polygon fill="white" stroke="none" points="932.25,-92.5 760,-92.5 760,0 932.25,0 932.25,-92.5"/>
<text xml:space="preserve" text-anchor="start" x="764" y="-79" font-family="Helvetica,sans-Serif" font-size="10.00">vanetza::security::</text>
<text xml:space="preserve" text-anchor="start" x="764" y="-66.25" font-family="Helvetica,sans-Serif" font-size="10.00">v2::detail::subject</text>
<text xml:space="preserve" text-anchor="start" x="764" y="-53.5" font-family="Helvetica,sans-Serif" font-size="10.00">_attribute_type&lt; SubjectAttribute</text>
<text xml:space="preserve" text-anchor="start" x="773.75" y="-40.75" font-family="Helvetica,sans-Serif" font-size="10.00">Type::Reconstruction_Value &gt;</text>
<text xml:space="preserve" text-anchor="start" x="844.62" y="-24" font-family="Helvetica,sans-Serif" font-size="10.00"> </text>
<text xml:space="preserve" text-anchor="start" x="844.62" y="-7.25" font-family="Helvetica,sans-Serif" font-size="10.00"> </text>
<polygon fill="#bfbfbf" stroke="#bfbfbf" points="760,-35.5 760,-35.5 932.25,-35.5 932.25,-35.5 760,-35.5"/>
<polygon fill="#bfbfbf" stroke="#bfbfbf" points="760,-18.75 760,-18.75 932.25,-18.75 932.25,-18.75 760,-18.75"/>
<polygon fill="none" stroke="#bfbfbf" points="760,0 760,-92.5 932.25,-92.5 932.25,0 760,0"/>
</a>
</g>
</g>
<!-- Node1&#45;&gt;Node6 -->
<g id="edge5_Node000001_Node000006" class="edge">
<title>Node1&#45;&gt;Node6</title>
<g id="a_edge5_Node000001_Node000006"><a xlink:title=" ">
<path fill="none" stroke="orange" d="M657.97,-193.14C695.34,-183.68 736.98,-168.89 770.12,-146 790.24,-132.11 807.41,-111.24 820.31,-92.26"/>
<polygon fill="orange" stroke="orange" points="657.4,-189.68 648.51,-195.43 659.05,-196.48 657.4,-189.68"/>
</a>
</g>
<text xml:space="preserve" text-anchor="start" x="809.64" y="-133.5" font-family="Helvetica,sans-Serif" font-size="10.00" fill="grey">&lt; SubjectAttributeType</text>
<text xml:space="preserve" text-anchor="start" x="809.64" y="-116.75" font-family="Helvetica,sans-Serif" font-size="10.00" fill="grey">  ::Reconstruction_Value &gt;</text>
</g>
<!-- Node7 -->
<g id="Node000007" class="node">
<title>Node7</title>
<g id="a_Node000007"><a xlink:href="../../d0/d6e/structvanetza_1_1security_1_1v2_1_1detail_1_1subject__attribute__type_3_01SubjectAttributeType_1_1Verification__Key_01_4.html" target="_top" xlink:title=" ">
<polygon fill="white" stroke="none" points="1122.25,-92.5 950,-92.5 950,0 1122.25,0 1122.25,-92.5"/>
<text xml:space="preserve" text-anchor="start" x="954" y="-79" font-family="Helvetica,sans-Serif" font-size="10.00">vanetza::security::</text>
<text xml:space="preserve" text-anchor="start" x="954" y="-66.25" font-family="Helvetica,sans-Serif" font-size="10.00">v2::detail::subject</text>
<text xml:space="preserve" text-anchor="start" x="954" y="-53.5" font-family="Helvetica,sans-Serif" font-size="10.00">_attribute_type&lt; SubjectAttribute</text>
<text xml:space="preserve" text-anchor="start" x="977.25" y="-40.75" font-family="Helvetica,sans-Serif" font-size="10.00">Type::Verification_Key &gt;</text>
<text xml:space="preserve" text-anchor="start" x="1034.62" y="-24" font-family="Helvetica,sans-Serif" font-size="10.00"> </text>
<text xml:space="preserve" text-anchor="start" x="1034.62" y="-7.25" font-family="Helvetica,sans-Serif" font-size="10.00"> </text>
<polygon fill="#bfbfbf" stroke="#bfbfbf" points="950,-35.5 950,-35.5 1122.25,-35.5 1122.25,-35.5 950,-35.5"/>
<polygon fill="#bfbfbf" stroke="#bfbfbf" points="950,-18.75 950,-18.75 1122.25,-18.75 1122.25,-18.75 950,-18.75"/>
<polygon fill="none" stroke="#bfbfbf" points="950,0 950,-92.5 1122.25,-92.5 1122.25,0 950,0"/>
</a>
</g>
</g>
<!-- Node1&#45;&gt;Node7 -->
<g id="edge6_Node000001_Node000007" class="edge">
<title>Node1&#45;&gt;Node7</title>
<g id="a_edge6_Node000001_Node000007"><a xlink:title=" ">
<path fill="none" stroke="orange" d="M658.36,-200.5C755.42,-190.48 896.86,-172.04 945.12,-146 968.82,-133.22 989.66,-111.87 1005.4,-92.28"/>
<polygon fill="orange" stroke="orange" points="658.15,-197 648.56,-201.5 658.86,-203.97 658.15,-197"/>
</a>
</g>
<text xml:space="preserve" text-anchor="start" x="990.95" y="-133.5" font-family="Helvetica,sans-Serif" font-size="10.00" fill="grey">&lt; SubjectAttributeType</text>
<text xml:space="preserve" text-anchor="start" x="990.95" y="-116.75" font-family="Helvetica,sans-Serif" font-size="10.00" fill="grey">  ::Verification_Key &gt;</text>
</g>
</g>
</svg>

<g id="navigator" transform="translate(0 0)" fill="#404254">
  <rect fill="#f2f5e9" fill-opacity="0.5" stroke="#606060" stroke-width=".5" x="0" y="0" width="60" height="60"/>
  <use id="zoomplus" xlink:href="#zoomPlus" x="17" y="9" onmousedown="handleZoom(evt,'in')"/>
  <use id="zoomminus" xlink:href="#zoomMin" x="42" y="9" onmousedown="handleZoom(evt,'out')"/>
  <use id="reset" xlink:href="#resetDef" x="30" y="36" onmousedown="handleReset()"/>
   <use id="arrowup" xlink:href="#arrowUp" x="0" y="0" onmousedown="handlePan(0,-1)"/>
  <use id="arrowright" xlink:href="#arrowRight" x="0" y="0" onmousedown="handlePan(1,0)"/>
  <use id="arrowdown" xlink:href="#arrowDown" x="0" y="0" onmousedown="handlePan(0,1)"/>
  <use id="arrowleft" xlink:href="#arrowLeft" x="0" y="0" onmousedown="handlePan(-1,0)"/>
</g>
<svg viewBox="0 0 15 15" width="100%" height="30px" preserveAspectRatio="xMaxYMin meet">
 <g id="arrow_out" transform="scale(0.3 0.3)">
  <a xlink:href="structvanetza_1_1security_1_1v2_1_1detail_1_1subject__attribute__type__inherit__graph_org.svg" target="_base">
   <rect id="button" ry="5" rx="5" y="6" x="6" height="38" width="38"
        fill="#f2f5e9" fill-opacity="0.5" stroke="#606060" stroke-width="1.0"/>
   <path id="arrow"
     d="M 11.500037,31.436501 C 11.940474,20.09759 22.043105,11.32322 32.158766,21.979434 L 37.068811,17.246167 C 37.068811,17.246167 37.088388,32 37.088388,32 L 22.160133,31.978069 C 22.160133,31.978069 26.997745,27.140456 26.997745,27.140456 C 18.528582,18.264221 13.291696,25.230495 11.500037,31.436501 z"
     style="fill:#404040;"/>
  </a>
 </g>
</svg>

<style type='text/css'>
<![CDATA[
[data-mouse-over-selected='false'] { opacity: 0.7; }
[data-mouse-over-selected='true']  { opacity: 1.0; }
]]>
</style>
<script type="application/ecmascript"><![CDATA[
document.addEventListener('DOMContentLoaded', (event) => {
  highlightEdges();
  highlightAdjacentNodes();
});
]]></script>
</svg>
