<?xml version="1.0" encoding="UTF-8" standalone="no"?>
<!DOCTYPE svg PUBLIC "-//W3C//DTD SVG 1.1//EN"
 "http://www.w3.org/Graphics/SVG/1.1/DTD/svg11.dtd">
<!-- Generated by graphviz version 2.49.3 (0)
 -->
<!-- Title: vanetza::PositionProvider Pages: 1 -->
<svg width="158pt" height="172pt"
 viewBox="0.00 0.00 158.00 172.00" xmlns="http://www.w3.org/2000/svg" xmlns:xlink="http://www.w3.org/1999/xlink">
<g id="graph0" class="graph" transform="scale(1 1) rotate(0) translate(4 168)">
<title>vanetza::PositionProvider</title>
<!-- Node1 -->
<g id="Node000001" class="node">
<title>Node1</title>
<g id="a_Node000001"><a xlink:title=" ">
<polygon fill="#999999" stroke="transparent" points="136,-164 14,-164 14,-100 136,-100 136,-164"/>
<text text-anchor="start" x="19" y="-152" font-family="Helvetica,sans-Serif" font-size="10.00">vanetza::PositionProvider</text>
<text text-anchor="start" x="73" y="-137" font-family="Helvetica,sans-Serif" font-size="10.00"> </text>
<text text-anchor="start" x="22.5" y="-122" font-family="Helvetica,sans-Serif" font-size="10.00">+</text>
<text text-anchor="start" x="38" y="-122" font-family="Helvetica,sans-Serif" font-size="10.00">position_fix()</text>
<text text-anchor="start" x="22.5" y="-107" font-family="Helvetica,sans-Serif" font-size="10.00">+</text>
<text text-anchor="start" x="38" y="-107" font-family="Helvetica,sans-Serif" font-size="10.00">~PositionProvider()</text>
<polygon fill="#666666" stroke="#666666" points="14,-147 14,-147 136,-147 136,-147 14,-147"/>
<polygon fill="#666666" stroke="#666666" points="14,-132 14,-132 136,-132 136,-132 14,-132"/>
<polygon fill="none" stroke="#666666" points="14,-100 14,-164 136,-164 136,-100 14,-100"/>
</a>
</g>
</g>
<!-- Node2 -->
<g id="Node000002" class="node">
<title>Node2</title>
<g id="a_Node000002"><a xlink:href="../../d1/dd6/classvanetza_1_1StoredPositionProvider.html" target="_top" xlink:title=" ">
<polygon fill="white" stroke="transparent" points="150,-64 0,-64 0,0 150,0 150,-64"/>
<text text-anchor="start" x="5" y="-52" font-family="Helvetica,sans-Serif" font-size="10.00">vanetza::StoredPositionProvider</text>
<text text-anchor="start" x="24" y="-37" font-family="Helvetica,sans-Serif" font-size="10.00">&#45;</text>
<text text-anchor="start" x="52" y="-37" font-family="Helvetica,sans-Serif" font-size="10.00">m_position</text>
<text text-anchor="start" x="22.5" y="-22" font-family="Helvetica,sans-Serif" font-size="10.00">+</text>
<text text-anchor="start" x="52" y="-22" font-family="Helvetica,sans-Serif" font-size="10.00">position_fix()</text>
<text text-anchor="start" x="22.5" y="-7" font-family="Helvetica,sans-Serif" font-size="10.00">+</text>
<text text-anchor="start" x="52" y="-7" font-family="Helvetica,sans-Serif" font-size="10.00">position_fix()</text>
<polygon fill="#666666" stroke="#666666" points="0,-47 0,-47 150,-47 150,-47 0,-47"/>
<polygon fill="#666666" stroke="#666666" points="0,-32 0,-32 50,-32 50,-32 0,-32"/>
<polygon fill="#666666" stroke="#666666" points="50,-32 50,-32 150,-32 150,-32 50,-32"/>
<polygon fill="none" stroke="#666666" points="0,0 0,-64 150,-64 150,0 0,0"/>
</a>
</g>
</g>
<!-- Node1&#45;&gt;Node2 -->
<g id="edge1_Node000001_Node000002" class="edge">
<title>Node1&#45;&gt;Node2</title>
<g id="a_edge1_Node000001_Node000002"><a xlink:title=" ">
<path fill="none" stroke="#63b8ff" d="M75,-89.76C75,-81.19 75,-72.28 75,-64.14"/>
<polygon fill="none" stroke="#63b8ff" points="71.5,-89.99 75,-99.99 78.5,-89.99 71.5,-89.99"/>
</a>
</g>
</g>
</g>
</svg>
