<?xml version="1.0" encoding="UTF-8" standalone="no"?>
<!DOCTYPE svg PUBLIC "-//W3C//DTD SVG 1.1//EN"
 "http://www.w3.org/Graphics/SVG/1.1/DTD/svg11.dtd">
<!-- Generated by graphviz version 2.49.3 (0)
 -->
<!-- Title: vanetza::security::v3::DummySignService Pages: 1 -->
<svg width="123pt" height="194pt"
 viewBox="0.00 0.00 123.00 194.00" xmlns="http://www.w3.org/2000/svg" xmlns:xlink="http://www.w3.org/1999/xlink">
<g id="graph0" class="graph" transform="scale(1 1) rotate(0) translate(4 190)">
<title>vanetza::security::v3::DummySignService</title>
<!-- Node1 -->
<g id="Node000001" class="node">
<title>Node1</title>
<g id="a_Node000001"><a xlink:title=" ">
<polygon fill="#999999" stroke="transparent" points="115,-75 0,-75 0,0 115,0 115,-75"/>
<text text-anchor="start" x="5.5" y="-62.5" font-family="Helvetica,sans-Serif" font-size="10.00">vanetza::security::</text>
<text text-anchor="start" x="5.5" y="-51.5" font-family="Helvetica,sans-Serif" font-size="10.00">v3::DummySignService</text>
<text text-anchor="start" x="6.5" y="-36.5" font-family="Helvetica,sans-Serif" font-size="10.00">&#45;</text>
<text text-anchor="start" x="16.5" y="-36.5" font-family="Helvetica,sans-Serif" font-size="10.00">m_runtime</text>
<text text-anchor="start" x="5" y="-21.5" font-family="Helvetica,sans-Serif" font-size="10.00">+</text>
<text text-anchor="start" x="16.5" y="-21.5" font-family="Helvetica,sans-Serif" font-size="10.00">DummySignService()</text>
<text text-anchor="start" x="5" y="-6.5" font-family="Helvetica,sans-Serif" font-size="10.00">+</text>
<text text-anchor="start" x="16.5" y="-6.5" font-family="Helvetica,sans-Serif" font-size="10.00">sign()</text>
<polygon fill="#666666" stroke="#666666" points="0.5,-46.5 0.5,-46.5 115.5,-46.5 115.5,-46.5 0.5,-46.5"/>
<polygon fill="#666666" stroke="#666666" points="0.5,-31.5 0.5,-31.5 14.5,-31.5 14.5,-31.5 0.5,-31.5"/>
<polygon fill="#666666" stroke="#666666" points="14.5,-31.5 14.5,-31.5 115.5,-31.5 115.5,-31.5 14.5,-31.5"/>
<polygon fill="none" stroke="#666666" points="0,0 0,-75 115,-75 115,0 0,0"/>
</a>
</g>
</g>
<!-- Node2 -->
<g id="Node000002" class="node">
<title>Node2</title>
<g id="a_Node000002"><a xlink:href="../../de/d08/classvanetza_1_1security_1_1SignService.html" target="_top" xlink:title=" ">
<polygon fill="white" stroke="transparent" points="102.5,-186 12.5,-186 12.5,-111 102.5,-111 102.5,-186"/>
<text text-anchor="start" x="17.5" y="-173.5" font-family="Helvetica,sans-Serif" font-size="10.00">vanetza::security::</text>
<text text-anchor="start" x="30.5" y="-162.5" font-family="Helvetica,sans-Serif" font-size="10.00">SignService</text>
<text text-anchor="start" x="55.5" y="-147.5" font-family="Helvetica,sans-Serif" font-size="10.00"> </text>
<text text-anchor="start" x="17.5" y="-132.5" font-family="Helvetica,sans-Serif" font-size="10.00">+</text>
<text text-anchor="start" x="29.5" y="-132.5" font-family="Helvetica,sans-Serif" font-size="10.00">~SignService()</text>
<text text-anchor="start" x="17.5" y="-117.5" font-family="Helvetica,sans-Serif" font-size="10.00">+</text>
<text text-anchor="start" x="29.5" y="-117.5" font-family="Helvetica,sans-Serif" font-size="10.00">sign()</text>
<polygon fill="#666666" stroke="#666666" points="12.5,-157.5 12.5,-157.5 102.5,-157.5 102.5,-157.5 12.5,-157.5"/>
<polygon fill="#666666" stroke="#666666" points="12.5,-142.5 12.5,-142.5 102.5,-142.5 102.5,-142.5 12.5,-142.5"/>
<polygon fill="none" stroke="#666666" points="12.5,-111 12.5,-186 102.5,-186 102.5,-111 12.5,-111"/>
</a>
</g>
</g>
<!-- Node2&#45;&gt;Node1 -->
<g id="edge1_Node000001_Node000002" class="edge">
<title>Node2&#45;&gt;Node1</title>
<g id="a_edge1_Node000001_Node000002"><a xlink:title=" ">
<path fill="none" stroke="#63b8ff" d="M57.5,-100.68C57.5,-92.15 57.5,-83.37 57.5,-75.19"/>
<polygon fill="none" stroke="#63b8ff" points="54,-100.9 57.5,-110.9 61,-100.9 54,-100.9"/>
</a>
</g>
</g>
</g>
</svg>
