<?xml version="1.0" encoding="UTF-8" standalone="no"?>
<!DOCTYPE svg PUBLIC "-//W3C//DTD SVG 1.1//EN"
 "http://www.w3.org/Graphics/SVG/1.1/DTD/svg11.dtd">
<!-- Generated by graphviz version 14.1.2 (0)
 -->
<!-- Title: vanetza::geonet::IndicationContextDeserialize Pages: 1 -->
<svg width="177pt" height="650pt"
 viewBox="0.00 0.00 177.00 650.00" xmlns="http://www.w3.org/2000/svg" xmlns:xlink="http://www.w3.org/1999/xlink">
<g id="graph0" class="graph" transform="scale(1 1) rotate(0) translate(4 645.5)">
<title>vanetza::geonet::IndicationContextDeserialize</title>
<!-- Node1 -->
<g id="Node000001" class="node">
<title>Node1</title>
<g id="a_Node000001"><a xlink:title=" ">
<polygon fill="#999999" stroke="none" points="168.75,-184.25 0,-184.25 0,0 168.75,0 168.75,-184.25"/>
<text xml:space="preserve" text-anchor="start" x="18" y="-170.75" font-family="Helvetica,sans-Serif" font-size="10.00">vanetza::geonet::Indication</text>
<text xml:space="preserve" text-anchor="start" x="37.88" y="-158" font-family="Helvetica,sans-Serif" font-size="10.00">ContextDeserialize</text>
<text xml:space="preserve" text-anchor="start" x="6.25" y="-141.25" font-family="Helvetica,sans-Serif" font-size="10.00">&#45;</text>
<text xml:space="preserve" text-anchor="start" x="16.25" y="-141.25" font-family="Helvetica,sans-Serif" font-size="10.00">m_packet</text>
<text xml:space="preserve" text-anchor="start" x="6.25" y="-124.5" font-family="Helvetica,sans-Serif" font-size="10.00">&#45;</text>
<text xml:space="preserve" text-anchor="start" x="16.25" y="-124.5" font-family="Helvetica,sans-Serif" font-size="10.00">m_cohesive_packet</text>
<text xml:space="preserve" text-anchor="start" x="6.25" y="-107.75" font-family="Helvetica,sans-Serif" font-size="10.00">&#45;</text>
<text xml:space="preserve" text-anchor="start" x="16.25" y="-107.75" font-family="Helvetica,sans-Serif" font-size="10.00">m_parser</text>
<text xml:space="preserve" text-anchor="start" x="4" y="-91" font-family="Helvetica,sans-Serif" font-size="10.00">+</text>
<text xml:space="preserve" text-anchor="start" x="16.25" y="-91" font-family="Helvetica,sans-Serif" font-size="10.00">IndicationContextDeserialize()</text>
<text xml:space="preserve" text-anchor="start" x="4" y="-74.25" font-family="Helvetica,sans-Serif" font-size="10.00">+</text>
<text xml:space="preserve" text-anchor="start" x="16.25" y="-74.25" font-family="Helvetica,sans-Serif" font-size="10.00">parse_basic()</text>
<text xml:space="preserve" text-anchor="start" x="4" y="-57.5" font-family="Helvetica,sans-Serif" font-size="10.00">+</text>
<text xml:space="preserve" text-anchor="start" x="16.25" y="-57.5" font-family="Helvetica,sans-Serif" font-size="10.00">parse_common()</text>
<text xml:space="preserve" text-anchor="start" x="4" y="-40.75" font-family="Helvetica,sans-Serif" font-size="10.00">+</text>
<text xml:space="preserve" text-anchor="start" x="16.25" y="-40.75" font-family="Helvetica,sans-Serif" font-size="10.00">parse_secured()</text>
<text xml:space="preserve" text-anchor="start" x="4" y="-24" font-family="Helvetica,sans-Serif" font-size="10.00">+</text>
<text xml:space="preserve" text-anchor="start" x="16.25" y="-24" font-family="Helvetica,sans-Serif" font-size="10.00">parse_extended()</text>
<text xml:space="preserve" text-anchor="start" x="4" y="-7.25" font-family="Helvetica,sans-Serif" font-size="10.00">+</text>
<text xml:space="preserve" text-anchor="start" x="16.25" y="-7.25" font-family="Helvetica,sans-Serif" font-size="10.00">finish()</text>
<polygon fill="#666666" stroke="#666666" points="0,-152.75 0,-152.75 168.75,-152.75 168.75,-152.75 0,-152.75"/>
<polygon fill="#666666" stroke="#666666" points="0,-102.5 0,-102.5 14.25,-102.5 14.25,-102.5 0,-102.5"/>
<polygon fill="#666666" stroke="#666666" points="14.25,-102.5 14.25,-102.5 168.75,-102.5 168.75,-102.5 14.25,-102.5"/>
<polygon fill="none" stroke="#666666" points="0,0 0,-184.25 168.75,-184.25 168.75,0 0,0"/>
</a>
</g>
</g>
<!-- Node2 -->
<g id="Node000002" class="node">
<title>Node2</title>
<g id="a_Node000002"><a xlink:href="../../d6/d4a/classvanetza_1_1geonet_1_1IndicationContextBasic.html" target="_top" xlink:title=" ">
<polygon fill="white" stroke="none" points="154.75,-387.75 14,-387.75 14,-220.25 154.75,-220.25 154.75,-387.75"/>
<text xml:space="preserve" text-anchor="start" x="18" y="-374.25" font-family="Helvetica,sans-Serif" font-size="10.00">vanetza::geonet::Indication</text>
<text xml:space="preserve" text-anchor="start" x="52.12" y="-361.5" font-family="Helvetica,sans-Serif" font-size="10.00">ContextBasic</text>
<text xml:space="preserve" text-anchor="start" x="18.12" y="-344.75" font-family="Helvetica,sans-Serif" font-size="10.00">#</text>
<text xml:space="preserve" text-anchor="start" x="30.5" y="-344.75" font-family="Helvetica,sans-Serif" font-size="10.00">m_link_layer</text>
<text xml:space="preserve" text-anchor="start" x="18.12" y="-328" font-family="Helvetica,sans-Serif" font-size="10.00">#</text>
<text xml:space="preserve" text-anchor="start" x="30.5" y="-328" font-family="Helvetica,sans-Serif" font-size="10.00">m_service_primitive</text>
<text xml:space="preserve" text-anchor="start" x="18.12" y="-311.25" font-family="Helvetica,sans-Serif" font-size="10.00">#</text>
<text xml:space="preserve" text-anchor="start" x="30.5" y="-311.25" font-family="Helvetica,sans-Serif" font-size="10.00">m_pdu</text>
<text xml:space="preserve" text-anchor="start" x="18.12" y="-294.5" font-family="Helvetica,sans-Serif" font-size="10.00">+</text>
<text xml:space="preserve" text-anchor="start" x="30.5" y="-294.5" font-family="Helvetica,sans-Serif" font-size="10.00">IndicationContextBasic()</text>
<text xml:space="preserve" text-anchor="start" x="18.12" y="-277.75" font-family="Helvetica,sans-Serif" font-size="10.00">+</text>
<text xml:space="preserve" text-anchor="start" x="30.5" y="-277.75" font-family="Helvetica,sans-Serif" font-size="10.00">link_layer()</text>
<text xml:space="preserve" text-anchor="start" x="18.12" y="-261" font-family="Helvetica,sans-Serif" font-size="10.00">+</text>
<text xml:space="preserve" text-anchor="start" x="30.5" y="-261" font-family="Helvetica,sans-Serif" font-size="10.00">service_primitive()</text>
<text xml:space="preserve" text-anchor="start" x="18.12" y="-244.25" font-family="Helvetica,sans-Serif" font-size="10.00">+</text>
<text xml:space="preserve" text-anchor="start" x="30.5" y="-244.25" font-family="Helvetica,sans-Serif" font-size="10.00">pdu()</text>
<text xml:space="preserve" text-anchor="start" x="18.12" y="-227.5" font-family="Helvetica,sans-Serif" font-size="10.00">+</text>
<text xml:space="preserve" text-anchor="start" x="30.5" y="-227.5" font-family="Helvetica,sans-Serif" font-size="10.00">pdu()</text>
<polygon fill="#666666" stroke="#666666" points="14,-356.25 14,-356.25 154.75,-356.25 154.75,-356.25 14,-356.25"/>
<polygon fill="#666666" stroke="#666666" points="14,-306 14,-306 28.5,-306 28.5,-306 14,-306"/>
<polygon fill="#666666" stroke="#666666" points="28.5,-306 28.5,-306 154.75,-306 154.75,-306 28.5,-306"/>
<polygon fill="none" stroke="#666666" points="14,-220.25 14,-387.75 154.75,-387.75 154.75,-220.25 14,-220.25"/>
</a>
</g>
</g>
<!-- Node2&#45;&gt;Node1 -->
<g id="edge1_Node000001_Node000002" class="edge">
<title>Node2&#45;&gt;Node1</title>
<g id="a_edge1_Node000001_Node000002"><a xlink:title=" ">
<path fill="none" stroke="#63b8ff" d="M84.38,-209.07C84.38,-200.74 84.38,-192.32 84.38,-184.01"/>
<polygon fill="none" stroke="#63b8ff" points="80.88,-208.84 84.38,-218.84 87.88,-208.84 80.88,-208.84"/>
</a>
</g>
</g>
<!-- Node3 -->
<g id="Node000003" class="node">
<title>Node3</title>
<g id="a_Node000003"><a xlink:href="../../d0/db4/classvanetza_1_1geonet_1_1IndicationContext.html" target="_top" xlink:title=" ">
<polygon fill="white" stroke="none" points="154.75,-641.5 14,-641.5 14,-423.75 154.75,-423.75 154.75,-641.5"/>
<text xml:space="preserve" text-anchor="start" x="18" y="-628" font-family="Helvetica,sans-Serif" font-size="10.00">vanetza::geonet::Indication</text>
<text xml:space="preserve" text-anchor="start" x="65.25" y="-615.25" font-family="Helvetica,sans-Serif" font-size="10.00">Context</text>
<text xml:space="preserve" text-anchor="start" x="82.88" y="-598.5" font-family="Helvetica,sans-Serif" font-size="10.00"> </text>
<text xml:space="preserve" text-anchor="start" x="22.62" y="-581.75" font-family="Helvetica,sans-Serif" font-size="10.00">+</text>
<text xml:space="preserve" text-anchor="start" x="39.5" y="-581.75" font-family="Helvetica,sans-Serif" font-size="10.00">parse_basic()</text>
<text xml:space="preserve" text-anchor="start" x="22.62" y="-565" font-family="Helvetica,sans-Serif" font-size="10.00">+</text>
<text xml:space="preserve" text-anchor="start" x="39.5" y="-565" font-family="Helvetica,sans-Serif" font-size="10.00">parse_common()</text>
<text xml:space="preserve" text-anchor="start" x="22.62" y="-548.25" font-family="Helvetica,sans-Serif" font-size="10.00">+</text>
<text xml:space="preserve" text-anchor="start" x="39.5" y="-548.25" font-family="Helvetica,sans-Serif" font-size="10.00">parse_secured()</text>
<text xml:space="preserve" text-anchor="start" x="22.62" y="-531.5" font-family="Helvetica,sans-Serif" font-size="10.00">+</text>
<text xml:space="preserve" text-anchor="start" x="39.5" y="-531.5" font-family="Helvetica,sans-Serif" font-size="10.00">parse_extended()</text>
<text xml:space="preserve" text-anchor="start" x="22.62" y="-514.75" font-family="Helvetica,sans-Serif" font-size="10.00">+</text>
<text xml:space="preserve" text-anchor="start" x="39.5" y="-514.75" font-family="Helvetica,sans-Serif" font-size="10.00">pdu()</text>
<text xml:space="preserve" text-anchor="start" x="22.62" y="-498" font-family="Helvetica,sans-Serif" font-size="10.00">+</text>
<text xml:space="preserve" text-anchor="start" x="39.5" y="-498" font-family="Helvetica,sans-Serif" font-size="10.00">pdu()</text>
<text xml:space="preserve" text-anchor="start" x="22.62" y="-481.25" font-family="Helvetica,sans-Serif" font-size="10.00">+</text>
<text xml:space="preserve" text-anchor="start" x="39.5" y="-481.25" font-family="Helvetica,sans-Serif" font-size="10.00">link_layer()</text>
<text xml:space="preserve" text-anchor="start" x="22.62" y="-464.5" font-family="Helvetica,sans-Serif" font-size="10.00">+</text>
<text xml:space="preserve" text-anchor="start" x="39.5" y="-464.5" font-family="Helvetica,sans-Serif" font-size="10.00">service_primitive()</text>
<text xml:space="preserve" text-anchor="start" x="22.62" y="-447.75" font-family="Helvetica,sans-Serif" font-size="10.00">+</text>
<text xml:space="preserve" text-anchor="start" x="39.5" y="-447.75" font-family="Helvetica,sans-Serif" font-size="10.00">finish()</text>
<text xml:space="preserve" text-anchor="start" x="22.62" y="-431" font-family="Helvetica,sans-Serif" font-size="10.00">+</text>
<text xml:space="preserve" text-anchor="start" x="39.5" y="-431" font-family="Helvetica,sans-Serif" font-size="10.00">~IndicationContext()</text>
<polygon fill="#666666" stroke="#666666" points="14,-610 14,-610 154.75,-610 154.75,-610 14,-610"/>
<polygon fill="#666666" stroke="#666666" points="14,-593.25 14,-593.25 154.75,-593.25 154.75,-593.25 14,-593.25"/>
<polygon fill="none" stroke="#666666" points="14,-423.75 14,-641.5 154.75,-641.5 154.75,-423.75 14,-423.75"/>
</a>
</g>
</g>
<!-- Node3&#45;&gt;Node2 -->
<g id="edge2_Node000002_Node000003" class="edge">
<title>Node3&#45;&gt;Node2</title>
<g id="a_edge2_Node000002_Node000003"><a xlink:title=" ">
<path fill="none" stroke="#63b8ff" d="M84.38,-412.49C84.38,-404.09 84.38,-395.73 84.38,-387.6"/>
<polygon fill="none" stroke="#63b8ff" points="80.88,-412.44 84.38,-422.44 87.88,-412.44 80.88,-412.44"/>
</a>
</g>
</g>
</g>
</svg>
