<?xml version="1.0" encoding="UTF-8" standalone="no"?>
<!DOCTYPE svg PUBLIC "-//W3C//DTD SVG 1.1//EN"
 "http://www.w3.org/Graphics/SVG/1.1/DTD/svg11.dtd">
<!-- Generated by graphviz version 14.1.2 (0)
 -->
<!-- Title: vanetza::geonet::IndicationContextSecuredDeserialize Pages: 1 -->
<svg width="161pt" height="612pt"
 viewBox="0.00 0.00 161.00 612.00" xmlns="http://www.w3.org/2000/svg" xmlns:xlink="http://www.w3.org/1999/xlink">
<g id="graph0" class="graph" transform="scale(1 1) rotate(0) translate(4 608)">
<title>vanetza::geonet::IndicationContextSecuredDeserialize</title>
<!-- Node1 -->
<g id="Node000001" class="node">
<title>Node1</title>
<g id="a_Node000001"><a xlink:title=" ">
<polygon fill="#999999" stroke="none" points="149.25,-146.75 3.75,-146.75 3.75,0 149.25,0 149.25,-146.75"/>
<text xml:space="preserve" text-anchor="start" x="10.12" y="-133.25" font-family="Helvetica,sans-Serif" font-size="10.00">vanetza::geonet::Indication</text>
<text xml:space="preserve" text-anchor="start" x="10.5" y="-120.5" font-family="Helvetica,sans-Serif" font-size="10.00">ContextSecuredDeserialize</text>
<text xml:space="preserve" text-anchor="start" x="10" y="-103.75" font-family="Helvetica,sans-Serif" font-size="10.00">&#45;</text>
<text xml:space="preserve" text-anchor="start" x="20" y="-103.75" font-family="Helvetica,sans-Serif" font-size="10.00">m_packet</text>
<text xml:space="preserve" text-anchor="start" x="10" y="-87" font-family="Helvetica,sans-Serif" font-size="10.00">&#45;</text>
<text xml:space="preserve" text-anchor="start" x="20" y="-87" font-family="Helvetica,sans-Serif" font-size="10.00">m_parser</text>
<text xml:space="preserve" text-anchor="start" x="7.75" y="-70.25" font-family="Helvetica,sans-Serif" font-size="10.00">+</text>
<text xml:space="preserve" text-anchor="start" x="20" y="-70.25" font-family="Helvetica,sans-Serif" font-size="10.00">IndicationContextSecured</text>
<text xml:space="preserve" text-anchor="start" x="20" y="-57.5" font-family="Helvetica,sans-Serif" font-size="10.00">Deserialize()</text>
<text xml:space="preserve" text-anchor="start" x="7.75" y="-40.75" font-family="Helvetica,sans-Serif" font-size="10.00">+</text>
<text xml:space="preserve" text-anchor="start" x="20" y="-40.75" font-family="Helvetica,sans-Serif" font-size="10.00">parse_common()</text>
<text xml:space="preserve" text-anchor="start" x="7.75" y="-24" font-family="Helvetica,sans-Serif" font-size="10.00">+</text>
<text xml:space="preserve" text-anchor="start" x="20" y="-24" font-family="Helvetica,sans-Serif" font-size="10.00">parse_extended()</text>
<text xml:space="preserve" text-anchor="start" x="7.75" y="-7.25" font-family="Helvetica,sans-Serif" font-size="10.00">+</text>
<text xml:space="preserve" text-anchor="start" x="20" y="-7.25" font-family="Helvetica,sans-Serif" font-size="10.00">finish()</text>
<polygon fill="#666666" stroke="#666666" points="3.75,-115.25 3.75,-115.25 149.25,-115.25 149.25,-115.25 3.75,-115.25"/>
<polygon fill="#666666" stroke="#666666" points="3.75,-81.75 3.75,-81.75 18,-81.75 18,-81.75 3.75,-81.75"/>
<polygon fill="#666666" stroke="#666666" points="18,-81.75 18,-81.75 149.25,-81.75 149.25,-81.75 18,-81.75"/>
<polygon fill="none" stroke="#666666" points="3.75,0 3.75,-146.75 149.25,-146.75 149.25,0 3.75,0"/>
</a>
</g>
</g>
<!-- Node2 -->
<g id="Node000002" class="node">
<title>Node2</title>
<g id="a_Node000002"><a xlink:href="../../db/d97/classvanetza_1_1geonet_1_1IndicationContextSecured.html" target="_top" xlink:title=" ">
<polygon fill="white" stroke="none" points="153,-350.25 0,-350.25 0,-182.75 153,-182.75 153,-350.25"/>
<text xml:space="preserve" text-anchor="start" x="10.12" y="-336.75" font-family="Helvetica,sans-Serif" font-size="10.00">vanetza::geonet::Indication</text>
<text xml:space="preserve" text-anchor="start" x="37.88" y="-324" font-family="Helvetica,sans-Serif" font-size="10.00">ContextSecured</text>
<text xml:space="preserve" text-anchor="start" x="4" y="-307.25" font-family="Helvetica,sans-Serif" font-size="10.00">#</text>
<text xml:space="preserve" text-anchor="start" x="16.25" y="-307.25" font-family="Helvetica,sans-Serif" font-size="10.00">m_parent</text>
<text xml:space="preserve" text-anchor="start" x="4" y="-290.5" font-family="Helvetica,sans-Serif" font-size="10.00">+</text>
<text xml:space="preserve" text-anchor="start" x="16.25" y="-290.5" font-family="Helvetica,sans-Serif" font-size="10.00">IndicationContextSecured()</text>
<text xml:space="preserve" text-anchor="start" x="4" y="-273.75" font-family="Helvetica,sans-Serif" font-size="10.00">+</text>
<text xml:space="preserve" text-anchor="start" x="16.25" y="-273.75" font-family="Helvetica,sans-Serif" font-size="10.00">link_layer()</text>
<text xml:space="preserve" text-anchor="start" x="4" y="-257" font-family="Helvetica,sans-Serif" font-size="10.00">+</text>
<text xml:space="preserve" text-anchor="start" x="16.25" y="-257" font-family="Helvetica,sans-Serif" font-size="10.00">service_primitive()</text>
<text xml:space="preserve" text-anchor="start" x="4" y="-240.25" font-family="Helvetica,sans-Serif" font-size="10.00">+</text>
<text xml:space="preserve" text-anchor="start" x="16.25" y="-240.25" font-family="Helvetica,sans-Serif" font-size="10.00">pdu()</text>
<text xml:space="preserve" text-anchor="start" x="4" y="-223.5" font-family="Helvetica,sans-Serif" font-size="10.00">+</text>
<text xml:space="preserve" text-anchor="start" x="16.25" y="-223.5" font-family="Helvetica,sans-Serif" font-size="10.00">pdu()</text>
<text xml:space="preserve" text-anchor="start" x="4" y="-206.75" font-family="Helvetica,sans-Serif" font-size="10.00">+</text>
<text xml:space="preserve" text-anchor="start" x="16.25" y="-206.75" font-family="Helvetica,sans-Serif" font-size="10.00">parse_basic()</text>
<text xml:space="preserve" text-anchor="start" x="4" y="-190" font-family="Helvetica,sans-Serif" font-size="10.00">+</text>
<text xml:space="preserve" text-anchor="start" x="16.25" y="-190" font-family="Helvetica,sans-Serif" font-size="10.00">parse_secured()</text>
<polygon fill="#666666" stroke="#666666" points="0,-318.75 0,-318.75 153,-318.75 153,-318.75 0,-318.75"/>
<polygon fill="#666666" stroke="#666666" points="0,-302 0,-302 14.25,-302 14.25,-302 0,-302"/>
<polygon fill="#666666" stroke="#666666" points="14.25,-302 14.25,-302 153,-302 153,-302 14.25,-302"/>
<polygon fill="none" stroke="#666666" points="0,-182.75 0,-350.25 153,-350.25 153,-182.75 0,-182.75"/>
</a>
</g>
</g>
<!-- Node2&#45;&gt;Node1 -->
<g id="edge1_Node000001_Node000002" class="edge">
<title>Node2&#45;&gt;Node1</title>
<g id="a_edge1_Node000001_Node000002"><a xlink:title=" ">
<path fill="none" stroke="#63b8ff" d="M76.5,-171.47C76.5,-163.15 76.5,-154.81 76.5,-146.72"/>
<polygon fill="none" stroke="#63b8ff" points="73,-171.27 76.5,-181.27 80,-171.27 73,-171.27"/>
</a>
</g>
</g>
<!-- Node3 -->
<g id="Node000003" class="node">
<title>Node3</title>
<g id="a_Node000003"><a xlink:href="../../d0/db4/classvanetza_1_1geonet_1_1IndicationContext.html" target="_top" xlink:title=" ">
<polygon fill="white" stroke="none" points="146.88,-604 6.12,-604 6.12,-386.25 146.88,-386.25 146.88,-604"/>
<text xml:space="preserve" text-anchor="start" x="10.12" y="-590.5" font-family="Helvetica,sans-Serif" font-size="10.00">vanetza::geonet::Indication</text>
<text xml:space="preserve" text-anchor="start" x="57.38" y="-577.75" font-family="Helvetica,sans-Serif" font-size="10.00">Context</text>
<text xml:space="preserve" text-anchor="start" x="75" y="-561" font-family="Helvetica,sans-Serif" font-size="10.00"> </text>
<text xml:space="preserve" text-anchor="start" x="14.75" y="-544.25" font-family="Helvetica,sans-Serif" font-size="10.00">+</text>
<text xml:space="preserve" text-anchor="start" x="31.62" y="-544.25" font-family="Helvetica,sans-Serif" font-size="10.00">parse_basic()</text>
<text xml:space="preserve" text-anchor="start" x="14.75" y="-527.5" font-family="Helvetica,sans-Serif" font-size="10.00">+</text>
<text xml:space="preserve" text-anchor="start" x="31.62" y="-527.5" font-family="Helvetica,sans-Serif" font-size="10.00">parse_common()</text>
<text xml:space="preserve" text-anchor="start" x="14.75" y="-510.75" font-family="Helvetica,sans-Serif" font-size="10.00">+</text>
<text xml:space="preserve" text-anchor="start" x="31.62" y="-510.75" font-family="Helvetica,sans-Serif" font-size="10.00">parse_secured()</text>
<text xml:space="preserve" text-anchor="start" x="14.75" y="-494" font-family="Helvetica,sans-Serif" font-size="10.00">+</text>
<text xml:space="preserve" text-anchor="start" x="31.62" y="-494" font-family="Helvetica,sans-Serif" font-size="10.00">parse_extended()</text>
<text xml:space="preserve" text-anchor="start" x="14.75" y="-477.25" font-family="Helvetica,sans-Serif" font-size="10.00">+</text>
<text xml:space="preserve" text-anchor="start" x="31.62" y="-477.25" font-family="Helvetica,sans-Serif" font-size="10.00">pdu()</text>
<text xml:space="preserve" text-anchor="start" x="14.75" y="-460.5" font-family="Helvetica,sans-Serif" font-size="10.00">+</text>
<text xml:space="preserve" text-anchor="start" x="31.62" y="-460.5" font-family="Helvetica,sans-Serif" font-size="10.00">pdu()</text>
<text xml:space="preserve" text-anchor="start" x="14.75" y="-443.75" font-family="Helvetica,sans-Serif" font-size="10.00">+</text>
<text xml:space="preserve" text-anchor="start" x="31.62" y="-443.75" font-family="Helvetica,sans-Serif" font-size="10.00">link_layer()</text>
<text xml:space="preserve" text-anchor="start" x="14.75" y="-427" font-family="Helvetica,sans-Serif" font-size="10.00">+</text>
<text xml:space="preserve" text-anchor="start" x="31.62" y="-427" font-family="Helvetica,sans-Serif" font-size="10.00">service_primitive()</text>
<text xml:space="preserve" text-anchor="start" x="14.75" y="-410.25" font-family="Helvetica,sans-Serif" font-size="10.00">+</text>
<text xml:space="preserve" text-anchor="start" x="31.62" y="-410.25" font-family="Helvetica,sans-Serif" font-size="10.00">finish()</text>
<text xml:space="preserve" text-anchor="start" x="14.75" y="-393.5" font-family="Helvetica,sans-Serif" font-size="10.00">+</text>
<text xml:space="preserve" text-anchor="start" x="31.62" y="-393.5" font-family="Helvetica,sans-Serif" font-size="10.00">~IndicationContext()</text>
<polygon fill="#666666" stroke="#666666" points="6.12,-572.5 6.12,-572.5 146.88,-572.5 146.88,-572.5 6.12,-572.5"/>
<polygon fill="#666666" stroke="#666666" points="6.12,-555.75 6.12,-555.75 146.88,-555.75 146.88,-555.75 6.12,-555.75"/>
<polygon fill="none" stroke="#666666" points="6.12,-386.25 6.12,-604 146.88,-604 146.88,-386.25 6.12,-386.25"/>
</a>
</g>
</g>
<!-- Node3&#45;&gt;Node2 -->
<g id="edge2_Node000002_Node000003" class="edge">
<title>Node3&#45;&gt;Node2</title>
<g id="a_edge2_Node000002_Node000003"><a xlink:title=" ">
<path fill="none" stroke="#63b8ff" d="M76.5,-374.99C76.5,-366.59 76.5,-358.23 76.5,-350.1"/>
<polygon fill="none" stroke="#63b8ff" points="73,-374.94 76.5,-384.94 80,-374.94 73,-374.94"/>
</a>
</g>
</g>
</g>
</svg>
