<?xml version="1.0" encoding="UTF-8" standalone="no"?>
<!DOCTYPE svg PUBLIC "-//W3C//DTD SVG 1.1//EN"
 "http://www.w3.org/Graphics/SVG/1.1/DTD/svg11.dtd">
<!-- Generated by graphviz version 2.49.3 (0)
 -->
<!-- Title: vanetza::BitNumber&lt; T, WIDTH &gt; Pages: 1 -->
<!--zoomable 488 -->

<svg id="main" version="1.1" xmlns="http://www.w3.org/2000/svg" xmlns:xlink="http://www.w3.org/1999/xlink" xml:space="preserve" onload="init(evt)">

<style type="text/css"><![CDATA[
.node, .edge {opacity: 0.7;}
.node.selected, .edge.selected {opacity: 1;}
.edge:hover path { stroke: red; }
.edge:hover polygon { stroke: red; fill: red; }
]]></style>

<defs>
  <circle id="rim" cx="0" cy="0" r="7"/>
  <circle id="rim2" cx="0" cy="0" r="3.5"/>
  <g id="zoomPlus">
    <use xlink:href="#rim" fill="#404040"><set attributeName="fill" to="#808080" begin="zoomplus.mouseover" end="zoomplus.mouseout"/></use>
    <path d="M-4,0h8M0,-4v8" fill="none" stroke="white" stroke-width="1.5" pointer-events="none"/>
  </g>
  <g id="zoomMin">
    <use xlink:href="#rim" fill="#404040"><set attributeName="fill" to="#808080" begin="zoomminus.mouseover" end="zoomminus.mouseout"/></use>
    <path d="M-4,0h8" fill="none" stroke="white" stroke-width="1.5" pointer-events="none"/>
  </g>
  <g id="arrowUp" transform="translate(30 24)">
    <use xlink:href="#rim"/>
    <path pointer-events="none" fill="none" stroke="white" stroke-width="1.5" d="M0,-3.0v7 M-2.5,-0.5L0,-3.0L2.5,-0.5"/>
  </g>
  <g id="arrowRight" transform="rotate(90) translate(36 -43)">
    <use xlink:href="#rim"/>
    <path pointer-events="none" fill="none" stroke="white" stroke-width="1.5" d="M0,-3.0v7 M-2.5,-0.5L0,-3.0L2.5,-0.5"/>
  </g>
  <g id="arrowDown" transform="rotate(180) translate(-30 -48)">
    <use xlink:href="#rim"/>
    <path pointer-events="none" fill="none" stroke="white" stroke-width="1.5" d="M0,-3.0v7 M-2.5,-0.5L0,-3.0L2.5,-0.5"/>
  </g>
  <g id="arrowLeft" transform="rotate(270) translate(-36 17)">
    <use xlink:href="#rim"/>
    <path pointer-events="none" fill="none" stroke="white" stroke-width="1.5" d="M0,-3.0v7 M-2.5,-0.5L0,-3.0L2.5,-0.5"/>
  </g>
  <g id="resetDef">
    <use xlink:href="#rim2" fill="#404040"><set attributeName="fill" to="#808080" begin="reset.mouseover" end="reset.mouseout"/></use>
  </g>
</defs>
<script type="application/ecmascript">
var viewWidth = 683;
var viewHeight = 488;
var sectionId = 'dynsection-0';
</script>
<script type="application/ecmascript" xlink:href="../../svg.min.js"/>
<svg id="graph" class="graph">
<g id="viewport">
<title>vanetza::BitNumber&lt; T, WIDTH &gt;</title>
<!-- Node1 -->
<g id="Node000001" class="node">
<title>Node1</title>
<g id="a_Node000001"><a xlink:title=" ">
<polygon fill="#999999" stroke="transparent" points="386,-383 289,-383 289,-218 386,-218 386,-383"/>
<text text-anchor="start" x="294.5" y="-370.5" font-family="Helvetica,sans-Serif" font-size="10.00">vanetza::BitNumber</text>
<text text-anchor="start" x="306.5" y="-359.5" font-family="Helvetica,sans-Serif" font-size="10.00">&lt; T, WIDTH &gt;</text>
<text text-anchor="start" x="299.5" y="-344.5" font-family="Helvetica,sans-Serif" font-size="10.00">+</text>
<text text-anchor="start" x="316.5" y="-344.5" font-family="Helvetica,sans-Serif" font-size="10.00">mask</text>
<text text-anchor="start" x="299.5" y="-329.5" font-family="Helvetica,sans-Serif" font-size="10.00">+</text>
<text text-anchor="start" x="316.5" y="-329.5" font-family="Helvetica,sans-Serif" font-size="10.00">bits</text>
<text text-anchor="start" x="301" y="-314.5" font-family="Helvetica,sans-Serif" font-size="10.00">&#45;</text>
<text text-anchor="start" x="316.5" y="-314.5" font-family="Helvetica,sans-Serif" font-size="10.00">mValue</text>
<text text-anchor="start" x="299.5" y="-299.5" font-family="Helvetica,sans-Serif" font-size="10.00">+</text>
<text text-anchor="start" x="316.5" y="-299.5" font-family="Helvetica,sans-Serif" font-size="10.00">BitNumber()</text>
<text text-anchor="start" x="299.5" y="-284.5" font-family="Helvetica,sans-Serif" font-size="10.00">+</text>
<text text-anchor="start" x="316.5" y="-284.5" font-family="Helvetica,sans-Serif" font-size="10.00">BitNumber()</text>
<text text-anchor="start" x="299.5" y="-269.5" font-family="Helvetica,sans-Serif" font-size="10.00">+</text>
<text text-anchor="start" x="316.5" y="-269.5" font-family="Helvetica,sans-Serif" font-size="10.00">operator=()</text>
<text text-anchor="start" x="299.5" y="-254.5" font-family="Helvetica,sans-Serif" font-size="10.00">+</text>
<text text-anchor="start" x="316.5" y="-254.5" font-family="Helvetica,sans-Serif" font-size="10.00">raw()</text>
<text text-anchor="start" x="299.5" y="-239.5" font-family="Helvetica,sans-Serif" font-size="10.00">+</text>
<text text-anchor="start" x="316.5" y="-239.5" font-family="Helvetica,sans-Serif" font-size="10.00">operator&lt;()</text>
<text text-anchor="start" x="299.5" y="-224.5" font-family="Helvetica,sans-Serif" font-size="10.00">+</text>
<text text-anchor="start" x="316.5" y="-224.5" font-family="Helvetica,sans-Serif" font-size="10.00">operator==()</text>
<polygon fill="#666666" stroke="#666666" points="289.5,-354.5 289.5,-354.5 386.5,-354.5 386.5,-354.5 289.5,-354.5"/>
<polygon fill="#666666" stroke="#666666" points="289.5,-309.5 289.5,-309.5 314.5,-309.5 314.5,-309.5 289.5,-309.5"/>
<polygon fill="#666666" stroke="#666666" points="314.5,-309.5 314.5,-309.5 386.5,-309.5 386.5,-309.5 314.5,-309.5"/>
<polygon fill="none" stroke="#666666" points="289,-218 289,-383 386,-383 386,-218 289,-218"/>
</a>
</g>
</g>
<!-- Node3 -->
<g id="Node000003" class="node">
<title>Node3</title>
<g id="a_Node000003"><a xlink:title=" ">
<polygon fill="white" stroke="transparent" points="97,-112.5 0,-112.5 0,-52.5 97,-52.5 97,-112.5"/>
<text text-anchor="start" x="5.5" y="-100.5" font-family="Helvetica,sans-Serif" font-size="10.00">vanetza::BitNumber</text>
<text text-anchor="start" x="7" y="-89.5" font-family="Helvetica,sans-Serif" font-size="10.00">&lt; std::uint16_t, 2 &gt;</text>
<text text-anchor="start" x="47" y="-74.5" font-family="Helvetica,sans-Serif" font-size="10.00"> </text>
<text text-anchor="start" x="47" y="-59.5" font-family="Helvetica,sans-Serif" font-size="10.00"> </text>
<polygon fill="#666666" stroke="#666666" points="0.5,-84.5 0.5,-84.5 97.5,-84.5 97.5,-84.5 0.5,-84.5"/>
<polygon fill="#666666" stroke="#666666" points="0.5,-69.5 0.5,-69.5 97.5,-69.5 97.5,-69.5 0.5,-69.5"/>
<polygon fill="none" stroke="#666666" points="0,-52.5 0,-112.5 97,-112.5 97,-52.5 0,-52.5"/>
</a>
</g>
</g>
<!-- Node1&#45;&gt;Node3 -->
<g id="edge2_Node000001_Node000003" class="edge">
<title>Node1&#45;&gt;Node3</title>
<g id="a_edge2_Node000001_Node000003"><a xlink:title=" ">
<path fill="none" stroke="orange" d="M278.76,-292.15C220.3,-281.73 132.09,-257.1 80.5,-200 58.78,-175.95 51.62,-138.5 49.36,-112.58"/>
<polygon fill="orange" stroke="orange" points="278.5,-295.65 288.95,-293.87 279.67,-288.75 278.5,-295.65"/>
</a>
</g>
<text text-anchor="start" x="83.5" y="-188.5" font-family="Helvetica,sans-Serif" font-size="10.00" fill="grey">&lt; std::uint16_t, 2 &gt;</text>
</g>
<!-- Node4 -->
<g id="Node000004" class="node">
<title>Node4</title>
<g id="a_Node000004"><a xlink:title=" ">
<polygon fill="white" stroke="transparent" points="212,-112.5 115,-112.5 115,-52.5 212,-52.5 212,-112.5"/>
<text text-anchor="start" x="120.5" y="-100.5" font-family="Helvetica,sans-Serif" font-size="10.00">vanetza::BitNumber</text>
<text text-anchor="start" x="122" y="-89.5" font-family="Helvetica,sans-Serif" font-size="10.00">&lt; std::uint16_t, 4 &gt;</text>
<text text-anchor="start" x="162" y="-74.5" font-family="Helvetica,sans-Serif" font-size="10.00"> </text>
<text text-anchor="start" x="162" y="-59.5" font-family="Helvetica,sans-Serif" font-size="10.00"> </text>
<polygon fill="#666666" stroke="#666666" points="115.5,-84.5 115.5,-84.5 212.5,-84.5 212.5,-84.5 115.5,-84.5"/>
<polygon fill="#666666" stroke="#666666" points="115.5,-69.5 115.5,-69.5 212.5,-69.5 212.5,-69.5 115.5,-69.5"/>
<polygon fill="none" stroke="#666666" points="115,-52.5 115,-112.5 212,-112.5 212,-52.5 115,-52.5"/>
</a>
</g>
</g>
<!-- Node1&#45;&gt;Node4 -->
<g id="edge3_Node000001_Node000004" class="edge">
<title>Node1&#45;&gt;Node4</title>
<g id="a_edge3_Node000001_Node000004"><a xlink:title=" ">
<path fill="none" stroke="orange" d="M279.65,-276.78C245.92,-260.49 205.6,-235.19 182.5,-200 165.41,-173.96 161.91,-137.77 161.9,-112.67"/>
<polygon fill="orange" stroke="orange" points="278.42,-280.07 288.97,-281.13 281.39,-273.73 278.42,-280.07"/>
</a>
</g>
<text text-anchor="start" x="185.5" y="-188.5" font-family="Helvetica,sans-Serif" font-size="10.00" fill="grey">&lt; std::uint16_t, 4 &gt;</text>
</g>
<!-- Node5 -->
<g id="Node000005" class="node">
<title>Node5</title>
<g id="a_Node000005"><a xlink:title=" ">
<polygon fill="white" stroke="transparent" points="329,-112.5 230,-112.5 230,-52.5 329,-52.5 329,-112.5"/>
<text text-anchor="start" x="235.5" y="-100.5" font-family="Helvetica,sans-Serif" font-size="10.00">vanetza::BitNumber</text>
<text text-anchor="start" x="235.5" y="-89.5" font-family="Helvetica,sans-Serif" font-size="10.00">&lt; std::uint16_t, 12 &gt;</text>
<text text-anchor="start" x="278" y="-74.5" font-family="Helvetica,sans-Serif" font-size="10.00"> </text>
<text text-anchor="start" x="278" y="-59.5" font-family="Helvetica,sans-Serif" font-size="10.00"> </text>
<polygon fill="#666666" stroke="#666666" points="230.5,-84.5 230.5,-84.5 329.5,-84.5 329.5,-84.5 230.5,-84.5"/>
<polygon fill="#666666" stroke="#666666" points="230.5,-69.5 230.5,-69.5 329.5,-69.5 329.5,-69.5 230.5,-69.5"/>
<polygon fill="none" stroke="#666666" points="230,-52.5 230,-112.5 329,-112.5 329,-52.5 230,-52.5"/>
</a>
</g>
</g>
<!-- Node1&#45;&gt;Node5 -->
<g id="edge4_Node000001_Node000005" class="edge">
<title>Node1&#45;&gt;Node5</title>
<g id="a_edge4_Node000001_Node000005"><a xlink:title=" ">
<path fill="none" stroke="orange" d="M284.86,-216.06C282.77,-210.75 280.95,-205.37 279.5,-200 271.69,-171.1 272.91,-136.68 275.33,-112.78"/>
<polygon fill="orange" stroke="orange" points="281.77,-217.73 288.9,-225.56 288.21,-214.99 281.77,-217.73"/>
</a>
</g>
<text text-anchor="start" x="283" y="-188.5" font-family="Helvetica,sans-Serif" font-size="10.00" fill="grey">&lt; std::uint16_t, 12 &gt;</text>
</g>
<!-- Node6 -->
<g id="Node000006" class="node">
<title>Node6</title>
<g id="a_Node000006"><a xlink:href="../../dd/dba/classvanetza_1_1BitNumber.html" target="_top" xlink:title=" ">
<polygon fill="white" stroke="transparent" points="445,-165 348,-165 348,0 445,0 445,-165"/>
<text text-anchor="start" x="353.5" y="-152.5" font-family="Helvetica,sans-Serif" font-size="10.00">vanetza::BitNumber</text>
<text text-anchor="start" x="362.5" y="-141.5" font-family="Helvetica,sans-Serif" font-size="10.00">&lt; unsigned, 5 &gt;</text>
<text text-anchor="start" x="358.5" y="-126.5" font-family="Helvetica,sans-Serif" font-size="10.00">+</text>
<text text-anchor="start" x="375.5" y="-126.5" font-family="Helvetica,sans-Serif" font-size="10.00">mask</text>
<text text-anchor="start" x="358.5" y="-111.5" font-family="Helvetica,sans-Serif" font-size="10.00">+</text>
<text text-anchor="start" x="375.5" y="-111.5" font-family="Helvetica,sans-Serif" font-size="10.00">bits</text>
<text text-anchor="start" x="360" y="-96.5" font-family="Helvetica,sans-Serif" font-size="10.00">&#45;</text>
<text text-anchor="start" x="375.5" y="-96.5" font-family="Helvetica,sans-Serif" font-size="10.00">mValue</text>
<text text-anchor="start" x="358.5" y="-81.5" font-family="Helvetica,sans-Serif" font-size="10.00">+</text>
<text text-anchor="start" x="375.5" y="-81.5" font-family="Helvetica,sans-Serif" font-size="10.00">BitNumber()</text>
<text text-anchor="start" x="358.5" y="-66.5" font-family="Helvetica,sans-Serif" font-size="10.00">+</text>
<text text-anchor="start" x="375.5" y="-66.5" font-family="Helvetica,sans-Serif" font-size="10.00">BitNumber()</text>
<text text-anchor="start" x="358.5" y="-51.5" font-family="Helvetica,sans-Serif" font-size="10.00">+</text>
<text text-anchor="start" x="375.5" y="-51.5" font-family="Helvetica,sans-Serif" font-size="10.00">operator=()</text>
<text text-anchor="start" x="358.5" y="-36.5" font-family="Helvetica,sans-Serif" font-size="10.00">+</text>
<text text-anchor="start" x="375.5" y="-36.5" font-family="Helvetica,sans-Serif" font-size="10.00">raw()</text>
<text text-anchor="start" x="358.5" y="-21.5" font-family="Helvetica,sans-Serif" font-size="10.00">+</text>
<text text-anchor="start" x="375.5" y="-21.5" font-family="Helvetica,sans-Serif" font-size="10.00">operator&lt;()</text>
<text text-anchor="start" x="358.5" y="-6.5" font-family="Helvetica,sans-Serif" font-size="10.00">+</text>
<text text-anchor="start" x="375.5" y="-6.5" font-family="Helvetica,sans-Serif" font-size="10.00">operator==()</text>
<polygon fill="#666666" stroke="#666666" points="348.5,-136.5 348.5,-136.5 445.5,-136.5 445.5,-136.5 348.5,-136.5"/>
<polygon fill="#666666" stroke="#666666" points="348.5,-91.5 348.5,-91.5 373.5,-91.5 373.5,-91.5 348.5,-91.5"/>
<polygon fill="#666666" stroke="#666666" points="373.5,-91.5 373.5,-91.5 445.5,-91.5 445.5,-91.5 373.5,-91.5"/>
<polygon fill="none" stroke="#666666" points="348,0 348,-165 445,-165 445,0 348,0"/>
</a>
</g>
</g>
<!-- Node1&#45;&gt;Node6 -->
<g id="edge5_Node000001_Node000006" class="edge">
<title>Node1&#45;&gt;Node6</title>
<g id="a_edge5_Node000001_Node000006"><a xlink:title=" ">
<path fill="none" stroke="orange" d="M372.09,-208.32C372.93,-205.52 373.74,-202.75 374.5,-200 377.62,-188.8 380.43,-176.86 382.92,-165.07"/>
<polygon fill="orange" stroke="orange" points="368.74,-207.28 369.1,-217.87 375.43,-209.37 368.74,-207.28"/>
</a>
</g>
<text text-anchor="start" x="382" y="-188.5" font-family="Helvetica,sans-Serif" font-size="10.00" fill="grey">&lt; unsigned, 5 &gt;</text>
</g>
<!-- Node7 -->
<g id="Node000007" class="node">
<title>Node7</title>
<g id="a_Node000007"><a xlink:href="../../dd/dba/classvanetza_1_1BitNumber.html" target="_top" xlink:title=" ">
<polygon fill="white" stroke="transparent" points="560,-157.5 463,-157.5 463,-7.5 560,-7.5 560,-157.5"/>
<text text-anchor="start" x="468.5" y="-145.5" font-family="Helvetica,sans-Serif" font-size="10.00">vanetza::BitNumber</text>
<text text-anchor="start" x="475" y="-134.5" font-family="Helvetica,sans-Serif" font-size="10.00">&lt; unsigned, 10 &gt;</text>
<text text-anchor="start" x="473.5" y="-119.5" font-family="Helvetica,sans-Serif" font-size="10.00">+</text>
<text text-anchor="start" x="490.5" y="-119.5" font-family="Helvetica,sans-Serif" font-size="10.00">mask</text>
<text text-anchor="start" x="473.5" y="-104.5" font-family="Helvetica,sans-Serif" font-size="10.00">+</text>
<text text-anchor="start" x="490.5" y="-104.5" font-family="Helvetica,sans-Serif" font-size="10.00">bits</text>
<text text-anchor="start" x="475" y="-89.5" font-family="Helvetica,sans-Serif" font-size="10.00">&#45;</text>
<text text-anchor="start" x="490.5" y="-89.5" font-family="Helvetica,sans-Serif" font-size="10.00">mValue</text>
<text text-anchor="start" x="473.5" y="-74.5" font-family="Helvetica,sans-Serif" font-size="10.00">+</text>
<text text-anchor="start" x="490.5" y="-74.5" font-family="Helvetica,sans-Serif" font-size="10.00">BitNumber()</text>
<text text-anchor="start" x="473.5" y="-59.5" font-family="Helvetica,sans-Serif" font-size="10.00">+</text>
<text text-anchor="start" x="490.5" y="-59.5" font-family="Helvetica,sans-Serif" font-size="10.00">operator=()</text>
<text text-anchor="start" x="473.5" y="-44.5" font-family="Helvetica,sans-Serif" font-size="10.00">+</text>
<text text-anchor="start" x="490.5" y="-44.5" font-family="Helvetica,sans-Serif" font-size="10.00">raw()</text>
<text text-anchor="start" x="473.5" y="-29.5" font-family="Helvetica,sans-Serif" font-size="10.00">+</text>
<text text-anchor="start" x="490.5" y="-29.5" font-family="Helvetica,sans-Serif" font-size="10.00">operator&lt;()</text>
<text text-anchor="start" x="473.5" y="-14.5" font-family="Helvetica,sans-Serif" font-size="10.00">+</text>
<text text-anchor="start" x="490.5" y="-14.5" font-family="Helvetica,sans-Serif" font-size="10.00">operator==()</text>
<polygon fill="#666666" stroke="#666666" points="463.5,-129.5 463.5,-129.5 560.5,-129.5 560.5,-129.5 463.5,-129.5"/>
<polygon fill="#666666" stroke="#666666" points="463.5,-84.5 463.5,-84.5 488.5,-84.5 488.5,-84.5 463.5,-84.5"/>
<polygon fill="#666666" stroke="#666666" points="488.5,-84.5 488.5,-84.5 560.5,-84.5 560.5,-84.5 488.5,-84.5"/>
<polygon fill="none" stroke="#666666" points="463,-7.5 463,-157.5 560,-157.5 560,-7.5 463,-7.5"/>
</a>
</g>
</g>
<!-- Node1&#45;&gt;Node7 -->
<g id="edge6_Node000001_Node000007" class="edge">
<title>Node1&#45;&gt;Node7</title>
<g id="a_edge6_Node000001_Node000007"><a xlink:title=" ">
<path fill="none" stroke="orange" d="M394.27,-260.86C416.04,-244.03 439.86,-222.91 457.5,-200 467.36,-187.2 475.97,-172.3 483.24,-157.52"/>
<polygon fill="orange" stroke="orange" points="391.9,-258.27 386.04,-267.1 396.13,-263.84 391.9,-258.27"/>
</a>
</g>
<text text-anchor="start" x="469.5" y="-188.5" font-family="Helvetica,sans-Serif" font-size="10.00" fill="grey">&lt; unsigned, 10 &gt;</text>
</g>
<!-- Node8 -->
<g id="Node000008" class="node">
<title>Node8</title>
<g id="a_Node000008"><a xlink:href="../../dd/dba/classvanetza_1_1BitNumber.html" target="_top" xlink:title=" ">
<polygon fill="white" stroke="transparent" points="675,-157.5 578,-157.5 578,-7.5 675,-7.5 675,-157.5"/>
<text text-anchor="start" x="583.5" y="-145.5" font-family="Helvetica,sans-Serif" font-size="10.00">vanetza::BitNumber</text>
<text text-anchor="start" x="592.5" y="-134.5" font-family="Helvetica,sans-Serif" font-size="10.00">&lt; unsigned, 4 &gt;</text>
<text text-anchor="start" x="588.5" y="-119.5" font-family="Helvetica,sans-Serif" font-size="10.00">+</text>
<text text-anchor="start" x="605.5" y="-119.5" font-family="Helvetica,sans-Serif" font-size="10.00">mask</text>
<text text-anchor="start" x="588.5" y="-104.5" font-family="Helvetica,sans-Serif" font-size="10.00">+</text>
<text text-anchor="start" x="605.5" y="-104.5" font-family="Helvetica,sans-Serif" font-size="10.00">bits</text>
<text text-anchor="start" x="590" y="-89.5" font-family="Helvetica,sans-Serif" font-size="10.00">&#45;</text>
<text text-anchor="start" x="605.5" y="-89.5" font-family="Helvetica,sans-Serif" font-size="10.00">mValue</text>
<text text-anchor="start" x="588.5" y="-74.5" font-family="Helvetica,sans-Serif" font-size="10.00">+</text>
<text text-anchor="start" x="605.5" y="-74.5" font-family="Helvetica,sans-Serif" font-size="10.00">BitNumber()</text>
<text text-anchor="start" x="588.5" y="-59.5" font-family="Helvetica,sans-Serif" font-size="10.00">+</text>
<text text-anchor="start" x="605.5" y="-59.5" font-family="Helvetica,sans-Serif" font-size="10.00">operator=()</text>
<text text-anchor="start" x="588.5" y="-44.5" font-family="Helvetica,sans-Serif" font-size="10.00">+</text>
<text text-anchor="start" x="605.5" y="-44.5" font-family="Helvetica,sans-Serif" font-size="10.00">raw()</text>
<text text-anchor="start" x="588.5" y="-29.5" font-family="Helvetica,sans-Serif" font-size="10.00">+</text>
<text text-anchor="start" x="605.5" y="-29.5" font-family="Helvetica,sans-Serif" font-size="10.00">operator&lt;()</text>
<text text-anchor="start" x="588.5" y="-14.5" font-family="Helvetica,sans-Serif" font-size="10.00">+</text>
<text text-anchor="start" x="605.5" y="-14.5" font-family="Helvetica,sans-Serif" font-size="10.00">operator==()</text>
<polygon fill="#666666" stroke="#666666" points="578.5,-129.5 578.5,-129.5 675.5,-129.5 675.5,-129.5 578.5,-129.5"/>
<polygon fill="#666666" stroke="#666666" points="578.5,-84.5 578.5,-84.5 603.5,-84.5 603.5,-84.5 578.5,-84.5"/>
<polygon fill="#666666" stroke="#666666" points="603.5,-84.5 603.5,-84.5 675.5,-84.5 675.5,-84.5 603.5,-84.5"/>
<polygon fill="none" stroke="#666666" points="578,-7.5 578,-157.5 675,-157.5 675,-7.5 578,-7.5"/>
</a>
</g>
</g>
<!-- Node1&#45;&gt;Node8 -->
<g id="edge7_Node000001_Node000008" class="edge">
<title>Node1&#45;&gt;Node8</title>
<g id="a_edge7_Node000001_Node000008"><a xlink:title=" ">
<path fill="none" stroke="orange" d="M395.78,-282.15C441.65,-266.32 505.18,-239.34 550.5,-200 564.27,-188.05 576.53,-173.01 586.97,-157.75"/>
<polygon fill="orange" stroke="orange" points="394.63,-278.84 386.27,-285.36 396.87,-285.48 394.63,-278.84"/>
</a>
</g>
<text text-anchor="start" x="570" y="-188.5" font-family="Helvetica,sans-Serif" font-size="10.00" fill="grey">&lt; unsigned, 4 &gt;</text>
</g>
<!-- Node2 -->
<g id="Node000002" class="node">
<title>Node2</title>
<g id="a_Node000002"><a xlink:title=" ">
<polygon fill="white" stroke="transparent" points="406,-480 269,-480 269,-420 406,-420 406,-480"/>
<text text-anchor="start" x="274.5" y="-468" font-family="Helvetica,sans-Serif" font-size="10.00">boost::totally_ordered</text>
<text text-anchor="start" x="274.5" y="-457" font-family="Helvetica,sans-Serif" font-size="10.00">&lt; BitNumber&lt; T, WIDTH &gt; &gt;</text>
<text text-anchor="start" x="336" y="-442" font-family="Helvetica,sans-Serif" font-size="10.00"> </text>
<text text-anchor="start" x="336" y="-427" font-family="Helvetica,sans-Serif" font-size="10.00"> </text>
<polygon fill="#bfbfbf" stroke="#bfbfbf" points="269.5,-452 269.5,-452 406.5,-452 406.5,-452 269.5,-452"/>
<polygon fill="#bfbfbf" stroke="#bfbfbf" points="269.5,-437 269.5,-437 406.5,-437 406.5,-437 269.5,-437"/>
<polygon fill="none" stroke="#bfbfbf" points="269,-420 269,-480 406,-480 406,-420 269,-420"/>
</a>
</g>
</g>
<!-- Node2&#45;&gt;Node1 -->
<g id="edge1_Node000001_Node000002" class="edge">
<title>Node2&#45;&gt;Node1</title>
<g id="a_edge1_Node000001_Node000002"><a xlink:title=" ">
<path fill="none" stroke="#63b8ff" d="M337.5,-409.8C337.5,-401.5 337.5,-392.45 337.5,-383.23"/>
<polygon fill="none" stroke="#63b8ff" points="334,-409.86 337.5,-419.86 341,-409.86 334,-409.86"/>
</a>
</g>
</g>
</g>
</svg>

<g id="navigator" transform="translate(0 0)" fill="#404254">
  <rect fill="#f2f5e9" fill-opacity="0.5" stroke="#606060" stroke-width=".5" x="0" y="0" width="60" height="60"/>
  <use id="zoomplus" xlink:href="#zoomPlus" x="17" y="9" onmousedown="handleZoom(evt,'in')"/>
  <use id="zoomminus" xlink:href="#zoomMin" x="42" y="9" onmousedown="handleZoom(evt,'out')"/>
  <use id="reset" xlink:href="#resetDef" x="30" y="36" onmousedown="handleReset()"/>
   <use id="arrowup" xlink:href="#arrowUp" x="0" y="0" onmousedown="handlePan(0,-1)"/>
  <use id="arrowright" xlink:href="#arrowRight" x="0" y="0" onmousedown="handlePan(1,0)"/>
  <use id="arrowdown" xlink:href="#arrowDown" x="0" y="0" onmousedown="handlePan(0,1)"/>
  <use id="arrowleft" xlink:href="#arrowLeft" x="0" y="0" onmousedown="handlePan(-1,0)"/>
</g>
<svg viewBox="0 0 15 15" width="100%" height="30px" preserveAspectRatio="xMaxYMin meet">
 <g id="arrow_out" transform="scale(0.3 0.3)">
  <a xlink:href="classvanetza_1_1BitNumber__inherit__graph_org.svg" target="_base">
   <rect id="button" ry="5" rx="5" y="6" x="6" height="38" width="38"
        fill="#f2f5e9" fill-opacity="0.5" stroke="#606060" stroke-width="1.0"/>
   <path id="arrow"
     d="M 11.500037,31.436501 C 11.940474,20.09759 22.043105,11.32322 32.158766,21.979434 L 37.068811,17.246167 C 37.068811,17.246167 37.088388,32 37.088388,32 L 22.160133,31.978069 C 22.160133,31.978069 26.997745,27.140456 26.997745,27.140456 C 18.528582,18.264221 13.291696,25.230495 11.500037,31.436501 z"
     style="fill:#404040;"/>
  </a>
 </g>
</svg>

<style type='text/css'>
<![CDATA[
[data-mouse-over-selected='false'] { opacity: 0.7; }
[data-mouse-over-selected='true']  { opacity: 1.0; }
]]>
</style>
<script type="application/ecmascript"><![CDATA[
document.addEventListener('DOMContentLoaded', (event) => {
  highlightEdges();
  highlightAdjacentNodes();
});
]]></script>
</svg>
