<?xml version="1.0" encoding="UTF-8" standalone="no"?>
<!DOCTYPE svg PUBLIC "-//W3C//DTD SVG 1.1//EN"
 "http://www.w3.org/Graphics/SVG/1.1/DTD/svg11.dtd">
<!-- Generated by graphviz version 14.1.2 (0)
 -->
<!-- Title: vanetza::BitNumber&lt; T, WIDTH &gt; Pages: 1 -->
<!--zoomable 535 -->

<svg id="main" version="1.1" xmlns="http://www.w3.org/2000/svg" xmlns:xlink="http://www.w3.org/1999/xlink" xml:space="preserve" onload="init(evt)">

<style type="text/css"><![CDATA[
.node, .edge {opacity: 0.7;}
.node.selected, .edge.selected {opacity: 1;}
.edge:hover path { stroke: red; }
.edge:hover polygon { stroke: red; fill: red; }
]]></style>

<defs>
  <circle id="rim" cx="0" cy="0" r="7"/>
  <circle id="rim2" cx="0" cy="0" r="3.5"/>
  <g id="zoomPlus">
    <use xlink:href="#rim" fill="#404040"><set attributeName="fill" to="#808080" begin="zoomplus.mouseover" end="zoomplus.mouseout"/></use>
    <path d="M-4,0h8M0,-4v8" fill="none" stroke="white" stroke-width="1.5" pointer-events="none"/>
  </g>
  <g id="zoomMin">
    <use xlink:href="#rim" fill="#404040"><set attributeName="fill" to="#808080" begin="zoomminus.mouseover" end="zoomminus.mouseout"/></use>
    <path d="M-4,0h8" fill="none" stroke="white" stroke-width="1.5" pointer-events="none"/>
  </g>
  <g id="arrowUp" transform="translate(30 24)">
    <use xlink:href="#rim"/>
    <path pointer-events="none" fill="none" stroke="white" stroke-width="1.5" d="M0,-3.0v7 M-2.5,-0.5L0,-3.0L2.5,-0.5"/>
  </g>
  <g id="arrowRight" transform="rotate(90) translate(36 -43)">
    <use xlink:href="#rim"/>
    <path pointer-events="none" fill="none" stroke="white" stroke-width="1.5" d="M0,-3.0v7 M-2.5,-0.5L0,-3.0L2.5,-0.5"/>
  </g>
  <g id="arrowDown" transform="rotate(180) translate(-30 -48)">
    <use xlink:href="#rim"/>
    <path pointer-events="none" fill="none" stroke="white" stroke-width="1.5" d="M0,-3.0v7 M-2.5,-0.5L0,-3.0L2.5,-0.5"/>
  </g>
  <g id="arrowLeft" transform="rotate(270) translate(-36 17)">
    <use xlink:href="#rim"/>
    <path pointer-events="none" fill="none" stroke="white" stroke-width="1.5" d="M0,-3.0v7 M-2.5,-0.5L0,-3.0L2.5,-0.5"/>
  </g>
  <g id="resetDef">
    <use xlink:href="#rim2" fill="#404040"><set attributeName="fill" to="#808080" begin="reset.mouseover" end="reset.mouseout"/></use>
  </g>
</defs>
<script type="application/ecmascript">
var viewWidth = 738;
var viewHeight = 535;
var sectionId = 'dynsection-0';
</script>
<script type="application/ecmascript" xlink:href="../../svg.min.js"/>
<svg id="graph" class="graph">
<g id="viewport">
<title>vanetza::BitNumber&lt; T, WIDTH &gt;</title>
<!-- Node1 -->
<g id="Node000001" class="node">
<title>Node1</title>
<g id="a_Node000001"><a xlink:title=" ">
<polygon fill="#999999" stroke="none" points="418.5,-423.25 313,-423.25 313,-239 418.5,-239 418.5,-423.25"/>
<text xml:space="preserve" text-anchor="start" x="317" y="-409.75" font-family="Helvetica,sans-Serif" font-size="10.00">vanetza::BitNumber</text>
<text xml:space="preserve" text-anchor="start" x="331.62" y="-397" font-family="Helvetica,sans-Serif" font-size="10.00">&lt; T, WIDTH &gt;</text>
<text xml:space="preserve" text-anchor="start" x="322" y="-380.25" font-family="Helvetica,sans-Serif" font-size="10.00">+</text>
<text xml:space="preserve" text-anchor="start" x="339.25" y="-380.25" font-family="Helvetica,sans-Serif" font-size="10.00">mask</text>
<text xml:space="preserve" text-anchor="start" x="322" y="-363.5" font-family="Helvetica,sans-Serif" font-size="10.00">+</text>
<text xml:space="preserve" text-anchor="start" x="339.25" y="-363.5" font-family="Helvetica,sans-Serif" font-size="10.00">bits</text>
<text xml:space="preserve" text-anchor="start" x="324.25" y="-346.75" font-family="Helvetica,sans-Serif" font-size="10.00">&#45;</text>
<text xml:space="preserve" text-anchor="start" x="339.25" y="-346.75" font-family="Helvetica,sans-Serif" font-size="10.00">mValue</text>
<text xml:space="preserve" text-anchor="start" x="322" y="-330" font-family="Helvetica,sans-Serif" font-size="10.00">+</text>
<text xml:space="preserve" text-anchor="start" x="339.25" y="-330" font-family="Helvetica,sans-Serif" font-size="10.00">BitNumber()</text>
<text xml:space="preserve" text-anchor="start" x="322" y="-313.25" font-family="Helvetica,sans-Serif" font-size="10.00">+</text>
<text xml:space="preserve" text-anchor="start" x="339.25" y="-313.25" font-family="Helvetica,sans-Serif" font-size="10.00">BitNumber()</text>
<text xml:space="preserve" text-anchor="start" x="322" y="-296.5" font-family="Helvetica,sans-Serif" font-size="10.00">+</text>
<text xml:space="preserve" text-anchor="start" x="339.25" y="-296.5" font-family="Helvetica,sans-Serif" font-size="10.00">operator=()</text>
<text xml:space="preserve" text-anchor="start" x="322" y="-279.75" font-family="Helvetica,sans-Serif" font-size="10.00">+</text>
<text xml:space="preserve" text-anchor="start" x="339.25" y="-279.75" font-family="Helvetica,sans-Serif" font-size="10.00">raw()</text>
<text xml:space="preserve" text-anchor="start" x="322" y="-263" font-family="Helvetica,sans-Serif" font-size="10.00">+</text>
<text xml:space="preserve" text-anchor="start" x="339.25" y="-263" font-family="Helvetica,sans-Serif" font-size="10.00">operator&lt;()</text>
<text xml:space="preserve" text-anchor="start" x="322" y="-246.25" font-family="Helvetica,sans-Serif" font-size="10.00">+</text>
<text xml:space="preserve" text-anchor="start" x="339.25" y="-246.25" font-family="Helvetica,sans-Serif" font-size="10.00">operator==()</text>
<polygon fill="#666666" stroke="#666666" points="313,-391.75 313,-391.75 418.5,-391.75 418.5,-391.75 313,-391.75"/>
<polygon fill="#666666" stroke="#666666" points="313,-341.5 313,-341.5 337.25,-341.5 337.25,-341.5 313,-341.5"/>
<polygon fill="#666666" stroke="#666666" points="337.25,-341.5 337.25,-341.5 418.5,-341.5 418.5,-341.5 337.25,-341.5"/>
<polygon fill="none" stroke="#666666" points="313,-239 313,-423.25 418.5,-423.25 418.5,-239 313,-239"/>
</a>
</g>
</g>
<!-- Node3 -->
<g id="Node000003" class="node">
<title>Node3</title>
<g id="a_Node000003"><a xlink:title=" ">
<polygon fill="white" stroke="none" points="105.5,-125.62 0,-125.62 0,-58.62 105.5,-58.62 105.5,-125.62"/>
<text xml:space="preserve" text-anchor="start" x="4" y="-112.12" font-family="Helvetica,sans-Serif" font-size="10.00">vanetza::BitNumber</text>
<text xml:space="preserve" text-anchor="start" x="5.12" y="-99.38" font-family="Helvetica,sans-Serif" font-size="10.00">&lt; std::uint16_t, 2 &gt;</text>
<text xml:space="preserve" text-anchor="start" x="51.25" y="-82.62" font-family="Helvetica,sans-Serif" font-size="10.00"> </text>
<text xml:space="preserve" text-anchor="start" x="51.25" y="-65.88" font-family="Helvetica,sans-Serif" font-size="10.00"> </text>
<polygon fill="#666666" stroke="#666666" points="0,-94.12 0,-94.12 105.5,-94.12 105.5,-94.12 0,-94.12"/>
<polygon fill="#666666" stroke="#666666" points="0,-77.38 0,-77.38 105.5,-77.38 105.5,-77.38 0,-77.38"/>
<polygon fill="none" stroke="#666666" points="0,-58.62 0,-125.62 105.5,-125.62 105.5,-58.62 0,-58.62"/>
</a>
</g>
</g>
<!-- Node1&#45;&gt;Node3 -->
<g id="edge2_Node000001_Node000003" class="edge">
<title>Node1&#45;&gt;Node3</title>
<g id="a_edge2_Node000001_Node000003"><a xlink:title=" ">
<path fill="none" stroke="orange" d="M301.81,-324.43C234.58,-314.86 130.9,-289.28 74.5,-221 52.49,-194.35 49.05,-153.68 49.83,-125.39"/>
<polygon fill="orange" stroke="orange" points="301.22,-327.88 311.59,-325.73 302.14,-320.94 301.22,-327.88"/>
</a>
</g>
<text xml:space="preserve" text-anchor="start" x="77.5" y="-208.5" font-family="Helvetica,sans-Serif" font-size="10.00" fill="grey">&lt; std::uint16_t, 2 &gt;</text>
</g>
<!-- Node4 -->
<g id="Node000004" class="node">
<title>Node4</title>
<g id="a_Node000004"><a xlink:title=" ">
<polygon fill="white" stroke="none" points="229.5,-125.62 124,-125.62 124,-58.62 229.5,-58.62 229.5,-125.62"/>
<text xml:space="preserve" text-anchor="start" x="128" y="-112.12" font-family="Helvetica,sans-Serif" font-size="10.00">vanetza::BitNumber</text>
<text xml:space="preserve" text-anchor="start" x="129.12" y="-99.38" font-family="Helvetica,sans-Serif" font-size="10.00">&lt; std::uint16_t, 4 &gt;</text>
<text xml:space="preserve" text-anchor="start" x="175.25" y="-82.62" font-family="Helvetica,sans-Serif" font-size="10.00"> </text>
<text xml:space="preserve" text-anchor="start" x="175.25" y="-65.88" font-family="Helvetica,sans-Serif" font-size="10.00"> </text>
<polygon fill="#666666" stroke="#666666" points="124,-94.12 124,-94.12 229.5,-94.12 229.5,-94.12 124,-94.12"/>
<polygon fill="#666666" stroke="#666666" points="124,-77.38 124,-77.38 229.5,-77.38 229.5,-77.38 124,-77.38"/>
<polygon fill="none" stroke="#666666" points="124,-58.62 124,-125.62 229.5,-125.62 229.5,-58.62 124,-58.62"/>
</a>
</g>
</g>
<!-- Node1&#45;&gt;Node4 -->
<g id="edge3_Node000001_Node000004" class="edge">
<title>Node1&#45;&gt;Node4</title>
<g id="a_edge3_Node000001_Node000004"><a xlink:title=" ">
<path fill="none" stroke="orange" d="M302.78,-308.32C263.04,-291.08 214.47,-262.86 188.5,-221 170.75,-192.39 169.85,-153.04 172.1,-125.58"/>
<polygon fill="orange" stroke="orange" points="301.23,-311.46 311.8,-312.1 303.93,-305.01 301.23,-311.46"/>
</a>
</g>
<text xml:space="preserve" text-anchor="start" x="191.5" y="-208.5" font-family="Helvetica,sans-Serif" font-size="10.00" fill="grey">&lt; std::uint16_t, 4 &gt;</text>
</g>
<!-- Node5 -->
<g id="Node000005" class="node">
<title>Node5</title>
<g id="a_Node000005"><a xlink:title=" ">
<polygon fill="white" stroke="none" points="356.38,-125.62 247.12,-125.62 247.12,-58.62 356.38,-58.62 356.38,-125.62"/>
<text xml:space="preserve" text-anchor="start" x="251.12" y="-112.12" font-family="Helvetica,sans-Serif" font-size="10.00">vanetza::BitNumber</text>
<text xml:space="preserve" text-anchor="start" x="251.12" y="-99.38" font-family="Helvetica,sans-Serif" font-size="10.00">&lt; std::uint16_t, 12 &gt;</text>
<text xml:space="preserve" text-anchor="start" x="300.25" y="-82.62" font-family="Helvetica,sans-Serif" font-size="10.00"> </text>
<text xml:space="preserve" text-anchor="start" x="300.25" y="-65.88" font-family="Helvetica,sans-Serif" font-size="10.00"> </text>
<polygon fill="#666666" stroke="#666666" points="247.12,-94.12 247.12,-94.12 356.38,-94.12 356.38,-94.12 247.12,-94.12"/>
<polygon fill="#666666" stroke="#666666" points="247.12,-77.38 247.12,-77.38 356.38,-77.38 356.38,-77.38 247.12,-77.38"/>
<polygon fill="none" stroke="#666666" points="247.12,-58.62 247.12,-125.62 356.38,-125.62 356.38,-58.62 247.12,-58.62"/>
</a>
</g>
</g>
<!-- Node1&#45;&gt;Node5 -->
<g id="edge4_Node000001_Node000005" class="edge">
<title>Node1&#45;&gt;Node5</title>
<g id="a_edge4_Node000001_Node000005"><a xlink:title=" ">
<path fill="none" stroke="orange" d="M307.85,-247.79C303.67,-239.04 300.09,-230.03 297.5,-221 288.46,-189.51 291.25,-151.85 295.24,-125.59"/>
<polygon fill="orange" stroke="orange" points="304.66,-249.25 312.32,-256.58 310.91,-246.08 304.66,-249.25"/>
</a>
</g>
<text xml:space="preserve" text-anchor="start" x="300.5" y="-208.5" font-family="Helvetica,sans-Serif" font-size="10.00" fill="grey">&lt; std::uint16_t, 12 &gt;</text>
</g>
<!-- Node6 -->
<g id="Node000006" class="node">
<title>Node6</title>
<g id="a_Node000006"><a xlink:href="../../dd/dba/classvanetza_1_1BitNumber.html" target="_top" xlink:title=" ">
<polygon fill="white" stroke="none" points="481.5,-184.25 376,-184.25 376,0 481.5,0 481.5,-184.25"/>
<text xml:space="preserve" text-anchor="start" x="380" y="-170.75" font-family="Helvetica,sans-Serif" font-size="10.00">vanetza::BitNumber</text>
<text xml:space="preserve" text-anchor="start" x="389.38" y="-158" font-family="Helvetica,sans-Serif" font-size="10.00">&lt; unsigned, 5 &gt;</text>
<text xml:space="preserve" text-anchor="start" x="385" y="-141.25" font-family="Helvetica,sans-Serif" font-size="10.00">+</text>
<text xml:space="preserve" text-anchor="start" x="402.25" y="-141.25" font-family="Helvetica,sans-Serif" font-size="10.00">mask</text>
<text xml:space="preserve" text-anchor="start" x="385" y="-124.5" font-family="Helvetica,sans-Serif" font-size="10.00">+</text>
<text xml:space="preserve" text-anchor="start" x="402.25" y="-124.5" font-family="Helvetica,sans-Serif" font-size="10.00">bits</text>
<text xml:space="preserve" text-anchor="start" x="387.25" y="-107.75" font-family="Helvetica,sans-Serif" font-size="10.00">&#45;</text>
<text xml:space="preserve" text-anchor="start" x="402.25" y="-107.75" font-family="Helvetica,sans-Serif" font-size="10.00">mValue</text>
<text xml:space="preserve" text-anchor="start" x="385" y="-91" font-family="Helvetica,sans-Serif" font-size="10.00">+</text>
<text xml:space="preserve" text-anchor="start" x="402.25" y="-91" font-family="Helvetica,sans-Serif" font-size="10.00">BitNumber()</text>
<text xml:space="preserve" text-anchor="start" x="385" y="-74.25" font-family="Helvetica,sans-Serif" font-size="10.00">+</text>
<text xml:space="preserve" text-anchor="start" x="402.25" y="-74.25" font-family="Helvetica,sans-Serif" font-size="10.00">BitNumber()</text>
<text xml:space="preserve" text-anchor="start" x="385" y="-57.5" font-family="Helvetica,sans-Serif" font-size="10.00">+</text>
<text xml:space="preserve" text-anchor="start" x="402.25" y="-57.5" font-family="Helvetica,sans-Serif" font-size="10.00">operator=()</text>
<text xml:space="preserve" text-anchor="start" x="385" y="-40.75" font-family="Helvetica,sans-Serif" font-size="10.00">+</text>
<text xml:space="preserve" text-anchor="start" x="402.25" y="-40.75" font-family="Helvetica,sans-Serif" font-size="10.00">raw()</text>
<text xml:space="preserve" text-anchor="start" x="385" y="-24" font-family="Helvetica,sans-Serif" font-size="10.00">+</text>
<text xml:space="preserve" text-anchor="start" x="402.25" y="-24" font-family="Helvetica,sans-Serif" font-size="10.00">operator&lt;()</text>
<text xml:space="preserve" text-anchor="start" x="385" y="-7.25" font-family="Helvetica,sans-Serif" font-size="10.00">+</text>
<text xml:space="preserve" text-anchor="start" x="402.25" y="-7.25" font-family="Helvetica,sans-Serif" font-size="10.00">operator==()</text>
<polygon fill="#666666" stroke="#666666" points="376,-152.75 376,-152.75 481.5,-152.75 481.5,-152.75 376,-152.75"/>
<polygon fill="#666666" stroke="#666666" points="376,-102.5 376,-102.5 400.25,-102.5 400.25,-102.5 376,-102.5"/>
<polygon fill="#666666" stroke="#666666" points="400.25,-102.5 400.25,-102.5 481.5,-102.5 481.5,-102.5 400.25,-102.5"/>
<polygon fill="none" stroke="#666666" points="376,0 376,-184.25 481.5,-184.25 481.5,0 376,0"/>
</a>
</g>
</g>
<!-- Node1&#45;&gt;Node6 -->
<g id="edge5_Node000001_Node000006" class="edge">
<title>Node1&#45;&gt;Node6</title>
<g id="a_edge5_Node000001_Node000006"><a xlink:title=" ">
<path fill="none" stroke="orange" d="M406.66,-228.36C407.39,-225.89 408.09,-223.43 408.75,-221 411.96,-209.18 414.71,-196.6 417.05,-184.12"/>
<polygon fill="orange" stroke="orange" points="403.36,-227.2 403.72,-237.78 410.04,-229.28 403.36,-227.2"/>
</a>
</g>
<text xml:space="preserve" text-anchor="start" x="415.97" y="-208.5" font-family="Helvetica,sans-Serif" font-size="10.00" fill="grey">&lt; unsigned, 5 &gt;</text>
</g>
<!-- Node7 -->
<g id="Node000007" class="node">
<title>Node7</title>
<g id="a_Node000007"><a xlink:href="../../dd/dba/classvanetza_1_1BitNumber.html" target="_top" xlink:title=" ">
<polygon fill="white" stroke="none" points="605.5,-175.88 500,-175.88 500,-8.38 605.5,-8.38 605.5,-175.88"/>
<text xml:space="preserve" text-anchor="start" x="504" y="-162.38" font-family="Helvetica,sans-Serif" font-size="10.00">vanetza::BitNumber</text>
<text xml:space="preserve" text-anchor="start" x="510.38" y="-149.62" font-family="Helvetica,sans-Serif" font-size="10.00">&lt; unsigned, 10 &gt;</text>
<text xml:space="preserve" text-anchor="start" x="509" y="-132.88" font-family="Helvetica,sans-Serif" font-size="10.00">+</text>
<text xml:space="preserve" text-anchor="start" x="526.25" y="-132.88" font-family="Helvetica,sans-Serif" font-size="10.00">mask</text>
<text xml:space="preserve" text-anchor="start" x="509" y="-116.12" font-family="Helvetica,sans-Serif" font-size="10.00">+</text>
<text xml:space="preserve" text-anchor="start" x="526.25" y="-116.12" font-family="Helvetica,sans-Serif" font-size="10.00">bits</text>
<text xml:space="preserve" text-anchor="start" x="511.25" y="-99.38" font-family="Helvetica,sans-Serif" font-size="10.00">&#45;</text>
<text xml:space="preserve" text-anchor="start" x="526.25" y="-99.38" font-family="Helvetica,sans-Serif" font-size="10.00">mValue</text>
<text xml:space="preserve" text-anchor="start" x="509" y="-82.62" font-family="Helvetica,sans-Serif" font-size="10.00">+</text>
<text xml:space="preserve" text-anchor="start" x="526.25" y="-82.62" font-family="Helvetica,sans-Serif" font-size="10.00">BitNumber()</text>
<text xml:space="preserve" text-anchor="start" x="509" y="-65.88" font-family="Helvetica,sans-Serif" font-size="10.00">+</text>
<text xml:space="preserve" text-anchor="start" x="526.25" y="-65.88" font-family="Helvetica,sans-Serif" font-size="10.00">operator=()</text>
<text xml:space="preserve" text-anchor="start" x="509" y="-49.12" font-family="Helvetica,sans-Serif" font-size="10.00">+</text>
<text xml:space="preserve" text-anchor="start" x="526.25" y="-49.12" font-family="Helvetica,sans-Serif" font-size="10.00">raw()</text>
<text xml:space="preserve" text-anchor="start" x="509" y="-32.38" font-family="Helvetica,sans-Serif" font-size="10.00">+</text>
<text xml:space="preserve" text-anchor="start" x="526.25" y="-32.38" font-family="Helvetica,sans-Serif" font-size="10.00">operator&lt;()</text>
<text xml:space="preserve" text-anchor="start" x="509" y="-15.62" font-family="Helvetica,sans-Serif" font-size="10.00">+</text>
<text xml:space="preserve" text-anchor="start" x="526.25" y="-15.62" font-family="Helvetica,sans-Serif" font-size="10.00">operator==()</text>
<polygon fill="#666666" stroke="#666666" points="500,-144.38 500,-144.38 605.5,-144.38 605.5,-144.38 500,-144.38"/>
<polygon fill="#666666" stroke="#666666" points="500,-94.12 500,-94.12 524.25,-94.12 524.25,-94.12 500,-94.12"/>
<polygon fill="#666666" stroke="#666666" points="524.25,-94.12 524.25,-94.12 605.5,-94.12 605.5,-94.12 524.25,-94.12"/>
<polygon fill="none" stroke="#666666" points="500,-8.38 500,-175.88 605.5,-175.88 605.5,-8.38 500,-8.38"/>
</a>
</g>
</g>
<!-- Node1&#45;&gt;Node7 -->
<g id="edge6_Node000001_Node000007" class="edge">
<title>Node1&#45;&gt;Node7</title>
<g id="a_edge6_Node000001_Node000007"><a xlink:title=" ">
<path fill="none" stroke="orange" d="M427.75,-290.92C453.37,-272.26 481.7,-248.09 501.75,-221 511.84,-207.36 520.26,-191.45 527.16,-175.58"/>
<polygon fill="orange" stroke="orange" points="425.81,-288.01 419.69,-296.66 429.87,-293.71 425.81,-288.01"/>
</a>
</g>
<text xml:space="preserve" text-anchor="start" x="515.02" y="-208.5" font-family="Helvetica,sans-Serif" font-size="10.00" fill="grey">&lt; unsigned, 10 &gt;</text>
</g>
<!-- Node8 -->
<g id="Node000008" class="node">
<title>Node8</title>
<g id="a_Node000008"><a xlink:href="../../dd/dba/classvanetza_1_1BitNumber.html" target="_top" xlink:title=" ">
<polygon fill="white" stroke="none" points="729.5,-175.88 624,-175.88 624,-8.38 729.5,-8.38 729.5,-175.88"/>
<text xml:space="preserve" text-anchor="start" x="628" y="-162.38" font-family="Helvetica,sans-Serif" font-size="10.00">vanetza::BitNumber</text>
<text xml:space="preserve" text-anchor="start" x="637.38" y="-149.62" font-family="Helvetica,sans-Serif" font-size="10.00">&lt; unsigned, 4 &gt;</text>
<text xml:space="preserve" text-anchor="start" x="633" y="-132.88" font-family="Helvetica,sans-Serif" font-size="10.00">+</text>
<text xml:space="preserve" text-anchor="start" x="650.25" y="-132.88" font-family="Helvetica,sans-Serif" font-size="10.00">mask</text>
<text xml:space="preserve" text-anchor="start" x="633" y="-116.12" font-family="Helvetica,sans-Serif" font-size="10.00">+</text>
<text xml:space="preserve" text-anchor="start" x="650.25" y="-116.12" font-family="Helvetica,sans-Serif" font-size="10.00">bits</text>
<text xml:space="preserve" text-anchor="start" x="635.25" y="-99.38" font-family="Helvetica,sans-Serif" font-size="10.00">&#45;</text>
<text xml:space="preserve" text-anchor="start" x="650.25" y="-99.38" font-family="Helvetica,sans-Serif" font-size="10.00">mValue</text>
<text xml:space="preserve" text-anchor="start" x="633" y="-82.62" font-family="Helvetica,sans-Serif" font-size="10.00">+</text>
<text xml:space="preserve" text-anchor="start" x="650.25" y="-82.62" font-family="Helvetica,sans-Serif" font-size="10.00">BitNumber()</text>
<text xml:space="preserve" text-anchor="start" x="633" y="-65.88" font-family="Helvetica,sans-Serif" font-size="10.00">+</text>
<text xml:space="preserve" text-anchor="start" x="650.25" y="-65.88" font-family="Helvetica,sans-Serif" font-size="10.00">operator=()</text>
<text xml:space="preserve" text-anchor="start" x="633" y="-49.12" font-family="Helvetica,sans-Serif" font-size="10.00">+</text>
<text xml:space="preserve" text-anchor="start" x="650.25" y="-49.12" font-family="Helvetica,sans-Serif" font-size="10.00">raw()</text>
<text xml:space="preserve" text-anchor="start" x="633" y="-32.38" font-family="Helvetica,sans-Serif" font-size="10.00">+</text>
<text xml:space="preserve" text-anchor="start" x="650.25" y="-32.38" font-family="Helvetica,sans-Serif" font-size="10.00">operator&lt;()</text>
<text xml:space="preserve" text-anchor="start" x="633" y="-15.62" font-family="Helvetica,sans-Serif" font-size="10.00">+</text>
<text xml:space="preserve" text-anchor="start" x="650.25" y="-15.62" font-family="Helvetica,sans-Serif" font-size="10.00">operator==()</text>
<polygon fill="#666666" stroke="#666666" points="624,-144.38 624,-144.38 729.5,-144.38 729.5,-144.38 624,-144.38"/>
<polygon fill="#666666" stroke="#666666" points="624,-94.12 624,-94.12 648.25,-94.12 648.25,-94.12 624,-94.12"/>
<polygon fill="#666666" stroke="#666666" points="648.25,-94.12 648.25,-94.12 729.5,-94.12 729.5,-94.12 648.25,-94.12"/>
<polygon fill="none" stroke="#666666" points="624,-8.38 624,-175.88 729.5,-175.88 729.5,-8.38 624,-8.38"/>
</a>
</g>
</g>
<!-- Node1&#45;&gt;Node8 -->
<g id="edge7_Node000001_Node000008" class="edge">
<title>Node1&#45;&gt;Node8</title>
<g id="a_edge7_Node000001_Node000008"><a xlink:title=" ">
<path fill="none" stroke="orange" d="M429.18,-313.68C481.86,-297.37 556.12,-267.93 606.75,-221 620.48,-208.27 632.13,-192.21 641.74,-175.82"/>
<polygon fill="orange" stroke="orange" points="428.29,-310.29 419.73,-316.53 430.31,-317 428.29,-310.29"/>
</a>
</g>
<text xml:space="preserve" text-anchor="start" x="625.78" y="-208.5" font-family="Helvetica,sans-Serif" font-size="10.00" fill="grey">&lt; unsigned, 4 &gt;</text>
</g>
<!-- Node2 -->
<g id="Node000002" class="node">
<title>Node2</title>
<g id="a_Node000002"><a xlink:title=" ">
<polygon fill="white" stroke="none" points="441.38,-527.25 290.12,-527.25 290.12,-460.25 441.38,-460.25 441.38,-527.25"/>
<text xml:space="preserve" text-anchor="start" x="294.12" y="-513.75" font-family="Helvetica,sans-Serif" font-size="10.00">boost::totally_ordered</text>
<text xml:space="preserve" text-anchor="start" x="294.12" y="-501" font-family="Helvetica,sans-Serif" font-size="10.00">&lt; BitNumber&lt; T, WIDTH &gt; &gt;</text>
<text xml:space="preserve" text-anchor="start" x="364.25" y="-484.25" font-family="Helvetica,sans-Serif" font-size="10.00"> </text>
<text xml:space="preserve" text-anchor="start" x="364.25" y="-467.5" font-family="Helvetica,sans-Serif" font-size="10.00"> </text>
<polygon fill="#bfbfbf" stroke="#bfbfbf" points="290.12,-495.75 290.12,-495.75 441.38,-495.75 441.38,-495.75 290.12,-495.75"/>
<polygon fill="#bfbfbf" stroke="#bfbfbf" points="290.12,-479 290.12,-479 441.38,-479 441.38,-479 290.12,-479"/>
<polygon fill="none" stroke="#bfbfbf" points="290.12,-460.25 290.12,-527.25 441.38,-527.25 441.38,-460.25 290.12,-460.25"/>
</a>
</g>
</g>
<!-- Node2&#45;&gt;Node1 -->
<g id="edge1_Node000001_Node000002" class="edge">
<title>Node2&#45;&gt;Node1</title>
<g id="a_edge1_Node000001_Node000002"><a xlink:title=" ">
<path fill="none" stroke="#63b8ff" d="M365.75,-449.15C365.75,-440.97 365.75,-432.13 365.75,-423.11"/>
<polygon fill="none" stroke="#63b8ff" points="362.25,-449.12 365.75,-459.12 369.25,-449.12 362.25,-449.12"/>
</a>
</g>
</g>
</g>
</svg>

<g id="navigator" transform="translate(0 0)" fill="#404254">
  <rect fill="#f2f5e9" fill-opacity="0.5" stroke="#606060" stroke-width=".5" x="0" y="0" width="60" height="60"/>
  <use id="zoomplus" xlink:href="#zoomPlus" x="17" y="9" onmousedown="handleZoom(evt,'in')"/>
  <use id="zoomminus" xlink:href="#zoomMin" x="42" y="9" onmousedown="handleZoom(evt,'out')"/>
  <use id="reset" xlink:href="#resetDef" x="30" y="36" onmousedown="handleReset()"/>
   <use id="arrowup" xlink:href="#arrowUp" x="0" y="0" onmousedown="handlePan(0,-1)"/>
  <use id="arrowright" xlink:href="#arrowRight" x="0" y="0" onmousedown="handlePan(1,0)"/>
  <use id="arrowdown" xlink:href="#arrowDown" x="0" y="0" onmousedown="handlePan(0,1)"/>
  <use id="arrowleft" xlink:href="#arrowLeft" x="0" y="0" onmousedown="handlePan(-1,0)"/>
</g>
<svg viewBox="0 0 15 15" width="100%" height="30px" preserveAspectRatio="xMaxYMin meet">
 <g id="arrow_out" transform="scale(0.3 0.3)">
  <a xlink:href="classvanetza_1_1BitNumber__inherit__graph_org.svg" target="_base">
   <rect id="button" ry="5" rx="5" y="6" x="6" height="38" width="38"
        fill="#f2f5e9" fill-opacity="0.5" stroke="#606060" stroke-width="1.0"/>
   <path id="arrow"
     d="M 11.500037,31.436501 C 11.940474,20.09759 22.043105,11.32322 32.158766,21.979434 L 37.068811,17.246167 C 37.068811,17.246167 37.088388,32 37.088388,32 L 22.160133,31.978069 C 22.160133,31.978069 26.997745,27.140456 26.997745,27.140456 C 18.528582,18.264221 13.291696,25.230495 11.500037,31.436501 z"
     style="fill:#404040;"/>
  </a>
 </g>
</svg>

<style type='text/css'>
<![CDATA[
[data-mouse-over-selected='false'] { opacity: 0.7; }
[data-mouse-over-selected='true']  { opacity: 1.0; }
]]>
</style>
<script type="application/ecmascript"><![CDATA[
document.addEventListener('DOMContentLoaded', (event) => {
  highlightEdges();
  highlightAdjacentNodes();
});
]]></script>
</svg>
