<?xml version="1.0" encoding="UTF-8" standalone="no"?>
<!DOCTYPE svg PUBLIC "-//W3C//DTD SVG 1.1//EN"
 "http://www.w3.org/Graphics/SVG/1.1/DTD/svg11.dtd">
<!-- Generated by graphviz version 2.42.3 (0)
 -->
<!-- Title: vanetza::BitNumber&lt; T, WIDTH &gt; Pages: 1 -->
<!--zoomable 453 -->
<svg id="main" version="1.1" xmlns="http://www.w3.org/2000/svg" xmlns:xlink="http://www.w3.org/1999/xlink" xml:space="preserve" onload="init(evt)">
<style type="text/css"><![CDATA[
.edge:hover path { stroke: red; }
.edge:hover polygon { stroke: red; fill: red; }
]]></style>
<script type="text/javascript"><![CDATA[
var edges = document.getElementsByTagName('g');
if (edges && edges.length) {
  for (var i=0;i<edges.length;i++) {
    if (edges[i].id.substr(0,4)=='edge') {
      edges[i].setAttribute('class','edge');
    }
  }
}
]]></script>
        <defs>
                <circle id="rim" cx="0" cy="0" r="7"/>
                <circle id="rim2" cx="0" cy="0" r="3.5"/>
                <g id="zoomPlus">
                        <use xlink:href="#rim" fill="#404040">
                                <set attributeName="fill" to="#808080" begin="zoomplus.mouseover" end="zoomplus.mouseout"/>
                        </use>
                        <path d="M-4,0h8M0,-4v8" fill="none" stroke="white" stroke-width="1.5" pointer-events="none"/>
                </g>
                <g id="zoomMin">
                        <use xlink:href="#rim" fill="#404040">
                                <set attributeName="fill" to="#808080" begin="zoomminus.mouseover" end="zoomminus.mouseout"/>
                        </use>
                        <path d="M-4,0h8" fill="none" stroke="white" stroke-width="1.5" pointer-events="none"/>
                </g>
                <g id="dirArrow">
                        <path fill="none" stroke="white" stroke-width="1.5" d="M0,-3.0v7 M-2.5,-0.5L0,-3.0L2.5,-0.5"/>
                </g>
               <g id="resetDef">
                       <use xlink:href="#rim2" fill="#404040">
                               <set attributeName="fill" to="#808080" begin="reset.mouseover" end="reset.mouseout"/>
                       </use>
               </g>
        </defs>

<script type="text/javascript">
var viewWidth = 353;
var viewHeight = 453;
var sectionId = 'dynsection-0';
</script>
<script xlink:href="../../svgpan.js"/>
<svg id="graph" class="graph">
<g id="viewport">
<title>vanetza::BitNumber&lt; T, WIDTH &gt;</title>
<polygon fill="white" stroke="transparent" points="-4,4 -4,-449 349,-449 349,4 -4,4"/>
<!-- Node1 -->
<g id="node1" class="node">
<title>Node1</title>
<g id="a_node1"><a xlink:title=" ">
<polygon fill="#bfbfbf" stroke="black" points="121,-193.5 121,-338.5 224,-338.5 224,-193.5 121,-193.5"/>
<text text-anchor="start" x="129" y="-326.5" font-family="Helvetica,sans-Serif" font-size="10.00">vanetza::BitNumber</text>
<text text-anchor="middle" x="172.5" y="-315.5" font-family="Helvetica,sans-Serif" font-size="10.00">&lt; T, WIDTH &gt;</text>
<polyline fill="none" stroke="black" points="121,-308.5 224,-308.5 "/>
<text text-anchor="start" x="129" y="-296.5" font-family="Helvetica,sans-Serif" font-size="10.00">+ mask</text>
<text text-anchor="start" x="129" y="-285.5" font-family="Helvetica,sans-Serif" font-size="10.00">+ bits</text>
<text text-anchor="start" x="129" y="-274.5" font-family="Helvetica,sans-Serif" font-size="10.00">&#45; mValue</text>
<polyline fill="none" stroke="black" points="121,-267.5 224,-267.5 "/>
<text text-anchor="start" x="129" y="-255.5" font-family="Helvetica,sans-Serif" font-size="10.00">+ BitNumber()</text>
<text text-anchor="start" x="129" y="-244.5" font-family="Helvetica,sans-Serif" font-size="10.00">+ BitNumber()</text>
<text text-anchor="start" x="129" y="-233.5" font-family="Helvetica,sans-Serif" font-size="10.00">+ operator=()</text>
<text text-anchor="start" x="129" y="-222.5" font-family="Helvetica,sans-Serif" font-size="10.00">+ raw()</text>
<text text-anchor="start" x="129" y="-211.5" font-family="Helvetica,sans-Serif" font-size="10.00">+ operator&lt;()</text>
<text text-anchor="start" x="129" y="-200.5" font-family="Helvetica,sans-Serif" font-size="10.00">+ operator==()</text>
</a>
</g>
</g>
<!-- Node3 -->
<g id="node3" class="node">
<title>Node3</title>
<g id="a_node3"><a xlink:href="../../dd/dba/classvanetza_1_1BitNumber.html" target="_top" xlink:title=" ">
<polygon fill="white" stroke="black" points="0,-0.5 0,-145.5 103,-145.5 103,-0.5 0,-0.5"/>
<text text-anchor="start" x="8" y="-133.5" font-family="Helvetica,sans-Serif" font-size="10.00">vanetza::BitNumber</text>
<text text-anchor="middle" x="51.5" y="-122.5" font-family="Helvetica,sans-Serif" font-size="10.00">&lt; unsigned, 10 &gt;</text>
<polyline fill="none" stroke="black" points="0,-115.5 103,-115.5 "/>
<text text-anchor="start" x="8" y="-103.5" font-family="Helvetica,sans-Serif" font-size="10.00">+ mask</text>
<text text-anchor="start" x="8" y="-92.5" font-family="Helvetica,sans-Serif" font-size="10.00">+ bits</text>
<text text-anchor="start" x="8" y="-81.5" font-family="Helvetica,sans-Serif" font-size="10.00">&#45; mValue</text>
<polyline fill="none" stroke="black" points="0,-74.5 103,-74.5 "/>
<text text-anchor="start" x="8" y="-62.5" font-family="Helvetica,sans-Serif" font-size="10.00">+ BitNumber()</text>
<text text-anchor="start" x="8" y="-51.5" font-family="Helvetica,sans-Serif" font-size="10.00">+ BitNumber()</text>
<text text-anchor="start" x="8" y="-40.5" font-family="Helvetica,sans-Serif" font-size="10.00">+ operator=()</text>
<text text-anchor="start" x="8" y="-29.5" font-family="Helvetica,sans-Serif" font-size="10.00">+ raw()</text>
<text text-anchor="start" x="8" y="-18.5" font-family="Helvetica,sans-Serif" font-size="10.00">+ operator&lt;()</text>
<text text-anchor="start" x="8" y="-7.5" font-family="Helvetica,sans-Serif" font-size="10.00">+ operator==()</text>
</a>
</g>
</g>
<!-- Node1&#45;&gt;Node3 -->
<g id="edge2" class="edge">
<title>Node1&#45;&gt;Node3</title>
<path fill="none" stroke="orange" d="M114.11,-205.95C105.91,-196.07 98.05,-185.57 91.5,-175 85.84,-165.86 80.71,-155.79 76.17,-145.65"/>
<polygon fill="orange" stroke="orange" points="111.59,-208.4 120.74,-213.74 116.92,-203.86 111.59,-208.4"/>
<text text-anchor="middle" x="130" y="-167" font-family="Helvetica,sans-Serif" font-size="10.00"> &lt; unsigned, 10 &gt;</text>
</g>
<!-- Node4 -->
<g id="node4" class="node">
<title>Node4</title>
<g id="a_node4"><a xlink:href="../../dd/dba/classvanetza_1_1BitNumber.html" target="_top" xlink:title=" ">
<polygon fill="white" stroke="black" points="121,-0.5 121,-145.5 224,-145.5 224,-0.5 121,-0.5"/>
<text text-anchor="start" x="129" y="-133.5" font-family="Helvetica,sans-Serif" font-size="10.00">vanetza::BitNumber</text>
<text text-anchor="middle" x="172.5" y="-122.5" font-family="Helvetica,sans-Serif" font-size="10.00">&lt; unsigned, 4 &gt;</text>
<polyline fill="none" stroke="black" points="121,-115.5 224,-115.5 "/>
<text text-anchor="start" x="129" y="-103.5" font-family="Helvetica,sans-Serif" font-size="10.00">+ mask</text>
<text text-anchor="start" x="129" y="-92.5" font-family="Helvetica,sans-Serif" font-size="10.00">+ bits</text>
<text text-anchor="start" x="129" y="-81.5" font-family="Helvetica,sans-Serif" font-size="10.00">&#45; mValue</text>
<polyline fill="none" stroke="black" points="121,-74.5 224,-74.5 "/>
<text text-anchor="start" x="129" y="-62.5" font-family="Helvetica,sans-Serif" font-size="10.00">+ BitNumber()</text>
<text text-anchor="start" x="129" y="-51.5" font-family="Helvetica,sans-Serif" font-size="10.00">+ BitNumber()</text>
<text text-anchor="start" x="129" y="-40.5" font-family="Helvetica,sans-Serif" font-size="10.00">+ operator=()</text>
<text text-anchor="start" x="129" y="-29.5" font-family="Helvetica,sans-Serif" font-size="10.00">+ raw()</text>
<text text-anchor="start" x="129" y="-18.5" font-family="Helvetica,sans-Serif" font-size="10.00">+ operator&lt;()</text>
<text text-anchor="start" x="129" y="-7.5" font-family="Helvetica,sans-Serif" font-size="10.00">+ operator==()</text>
</a>
</g>
</g>
<!-- Node1&#45;&gt;Node4 -->
<g id="edge3" class="edge">
<title>Node1&#45;&gt;Node4</title>
<path fill="none" stroke="orange" d="M172.5,-183.01C172.5,-170.62 172.5,-157.91 172.5,-145.75"/>
<polygon fill="orange" stroke="orange" points="169,-183.34 172.5,-193.34 176,-183.34 169,-183.34"/>
<text text-anchor="middle" x="208.5" y="-167" font-family="Helvetica,sans-Serif" font-size="10.00"> &lt; unsigned, 4 &gt;</text>
</g>
<!-- Node5 -->
<g id="node5" class="node">
<title>Node5</title>
<g id="a_node5"><a xlink:href="../../dd/dba/classvanetza_1_1BitNumber.html" target="_top" xlink:title=" ">
<polygon fill="white" stroke="black" points="242,-0.5 242,-145.5 345,-145.5 345,-0.5 242,-0.5"/>
<text text-anchor="start" x="250" y="-133.5" font-family="Helvetica,sans-Serif" font-size="10.00">vanetza::BitNumber</text>
<text text-anchor="middle" x="293.5" y="-122.5" font-family="Helvetica,sans-Serif" font-size="10.00">&lt; unsigned, 5 &gt;</text>
<polyline fill="none" stroke="black" points="242,-115.5 345,-115.5 "/>
<text text-anchor="start" x="250" y="-103.5" font-family="Helvetica,sans-Serif" font-size="10.00">+ mask</text>
<text text-anchor="start" x="250" y="-92.5" font-family="Helvetica,sans-Serif" font-size="10.00">+ bits</text>
<text text-anchor="start" x="250" y="-81.5" font-family="Helvetica,sans-Serif" font-size="10.00">&#45; mValue</text>
<polyline fill="none" stroke="black" points="242,-74.5 345,-74.5 "/>
<text text-anchor="start" x="250" y="-62.5" font-family="Helvetica,sans-Serif" font-size="10.00">+ BitNumber()</text>
<text text-anchor="start" x="250" y="-51.5" font-family="Helvetica,sans-Serif" font-size="10.00">+ BitNumber()</text>
<text text-anchor="start" x="250" y="-40.5" font-family="Helvetica,sans-Serif" font-size="10.00">+ operator=()</text>
<text text-anchor="start" x="250" y="-29.5" font-family="Helvetica,sans-Serif" font-size="10.00">+ raw()</text>
<text text-anchor="start" x="250" y="-18.5" font-family="Helvetica,sans-Serif" font-size="10.00">+ operator&lt;()</text>
<text text-anchor="start" x="250" y="-7.5" font-family="Helvetica,sans-Serif" font-size="10.00">+ operator==()</text>
</a>
</g>
</g>
<!-- Node1&#45;&gt;Node5 -->
<g id="edge4" class="edge">
<title>Node1&#45;&gt;Node5</title>
<path fill="none" stroke="orange" d="M230.37,-200.79C236.85,-192.38 243.06,-183.67 248.5,-175 254.26,-165.81 259.67,-155.76 264.61,-145.67"/>
<polygon fill="orange" stroke="orange" points="227.54,-198.74 224.1,-208.76 233.04,-203.07 227.54,-198.74"/>
<text text-anchor="middle" x="290.5" y="-167" font-family="Helvetica,sans-Serif" font-size="10.00"> &lt; unsigned, 5 &gt;</text>
</g>
<!-- Node2 -->
<g id="node2" class="node">
<title>Node2</title>
<g id="a_node2"><a xlink:title=" ">
<polygon fill="white" stroke="#bfbfbf" points="101,-376.5 101,-444.5 244,-444.5 244,-376.5 101,-376.5"/>
<text text-anchor="start" x="109" y="-432.5" font-family="Helvetica,sans-Serif" font-size="10.00">boost::totally_ordered</text>
<text text-anchor="middle" x="172.5" y="-421.5" font-family="Helvetica,sans-Serif" font-size="10.00">&lt; BitNumber&lt; T, WIDTH &gt; &gt;</text>
<polyline fill="none" stroke="#bfbfbf" points="101,-414.5 244,-414.5 "/>
<text text-anchor="middle" x="172.5" y="-402.5" font-family="Helvetica,sans-Serif" font-size="10.00"> </text>
<polyline fill="none" stroke="#bfbfbf" points="101,-395.5 244,-395.5 "/>
<text text-anchor="middle" x="172.5" y="-383.5" font-family="Helvetica,sans-Serif" font-size="10.00"> </text>
</a>
</g>
</g>
<!-- Node2&#45;&gt;Node1 -->
<g id="edge1" class="edge">
<title>Node2&#45;&gt;Node1</title>
<path fill="none" stroke="midnightblue" d="M172.5,-366.19C172.5,-357.48 172.5,-348.11 172.5,-338.72"/>
<polygon fill="none" stroke="midnightblue" points="169,-366.45 172.5,-376.45 176,-366.45 169,-366.45"/>
</g>
</g>
</svg>
        <g id="navigator" transform="translate(0 0)" fill="#404254">
                <rect fill="#f2f5e9" fill-opacity="0.5" stroke="#606060" stroke-width=".5" x="0" y="0" width="60" height="60"/>
                <use id="zoomplus" xlink:href="#zoomPlus" x="17" y="9" onmousedown="handleZoom(evt,'in')"/>
                <use id="zoomminus" xlink:href="#zoomMin" x="42" y="9" onmousedown="handleZoom(evt,'out')"/>
                <use id="reset" xlink:href="#resetDef" x="30" y="36" onmousedown="handleReset()"/>
                <g id="arrowUp" xlink:href="#dirArrow" transform="translate(30 24)" onmousedown="handlePan(0,-1)">
                  <use xlink:href="#rim" fill="#404040">
                        <set attributeName="fill" to="#808080" begin="arrowUp.mouseover" end="arrowUp.mouseout"/>
                  </use>
                  <path fill="none" stroke="white" stroke-width="1.5" d="M0,-3.0v7 M-2.5,-0.5L0,-3.0L2.5,-0.5"/>
                </g>
                <g id="arrowRight" xlink:href="#dirArrow" transform="rotate(90) translate(36 -43)" onmousedown="handlePan(1,0)">
                  <use xlink:href="#rim" fill="#404040">
                        <set attributeName="fill" to="#808080" begin="arrowRight.mouseover" end="arrowRight.mouseout"/>
                  </use>
                  <path fill="none" stroke="white" stroke-width="1.5" d="M0,-3.0v7 M-2.5,-0.5L0,-3.0L2.5,-0.5"/>
                </g>
                <g id="arrowDown" xlink:href="#dirArrow" transform="rotate(180) translate(-30 -48)" onmousedown="handlePan(0,1)">
                  <use xlink:href="#rim" fill="#404040">
                        <set attributeName="fill" to="#808080" begin="arrowDown.mouseover" end="arrowDown.mouseout"/>
                  </use>
                  <path fill="none" stroke="white" stroke-width="1.5" d="M0,-3.0v7 M-2.5,-0.5L0,-3.0L2.5,-0.5"/>
                </g>
                <g id="arrowLeft" xlink:href="#dirArrow" transform="rotate(270) translate(-36 17)" onmousedown="handlePan(-1,0)">
                  <use xlink:href="#rim" fill="#404040">
                        <set attributeName="fill" to="#808080" begin="arrowLeft.mouseover" end="arrowLeft.mouseout"/>
                  </use>
                  <path fill="none" stroke="white" stroke-width="1.5" d="M0,-3.0v7 M-2.5,-0.5L0,-3.0L2.5,-0.5"/>
                </g>
        </g>
        <svg viewBox="0 0 15 15" width="100%" height="30px" preserveAspectRatio="xMaxYMin meet">
         <g id="arrow_out" transform="scale(0.3 0.3)">
          <a xlink:href="classvanetza_1_1BitNumber__inherit__graph_org.svg" target="_base">
           <rect id="button" ry="5" rx="5" y="6" x="6" height="38" width="38"
                fill="#f2f5e9" fill-opacity="0.5" stroke="#606060" stroke-width="1.0"/>
           <path id="arrow"
             d="M 11.500037,31.436501 C 11.940474,20.09759 22.043105,11.32322 32.158766,21.979434 L 37.068811,17.246167 C 37.068811,17.246167 37.088388,32 37.088388,32 L 22.160133,31.978069 C 22.160133,31.978069 26.997745,27.140456 26.997745,27.140456 C 18.528582,18.264221 13.291696,25.230495 11.500037,31.436501 z"
             style="fill:#404040;"/>
          </a>
         </g>
        </svg>
</svg>
