<?xml version="1.0" encoding="UTF-8" standalone="no"?>
<!DOCTYPE svg PUBLIC "-//W3C//DTD SVG 1.1//EN"
 "http://www.w3.org/Graphics/SVG/1.1/DTD/svg11.dtd">
<!-- Generated by graphviz version 2.42.1 (0)
 -->
<!-- Title: vanetza::BitNumber&lt; T, WIDTH &gt; Pages: 1 -->
<svg width="356pt" height="453pt"
 viewBox="0.00 0.00 356.00 453.00" xmlns="http://www.w3.org/2000/svg" xmlns:xlink="http://www.w3.org/1999/xlink">
<g id="graph0" class="graph" transform="scale(1 1) rotate(0) translate(4 449)">
<title>vanetza::BitNumber&lt; T, WIDTH &gt;</title>
<polygon fill="white" stroke="transparent" points="-4,4 -4,-449 352,-449 352,4 -4,4"/>
<!-- Node0 -->
<g id="node1" class="node">
<title>Node0</title>
<g id="a_node1"><a xlink:title=" ">
<polygon fill="#bfbfbf" stroke="black" points="122,-193.5 122,-338.5 226,-338.5 226,-193.5 122,-193.5"/>
<text text-anchor="start" x="130" y="-326.5" font-family="Helvetica,sans-Serif" font-size="10.00">vanetza::BitNumber</text>
<text text-anchor="middle" x="174" y="-315.5" font-family="Helvetica,sans-Serif" font-size="10.00">&lt; T, WIDTH &gt;</text>
<polyline fill="none" stroke="black" points="122,-308.5 226,-308.5 "/>
<text text-anchor="start" x="130" y="-296.5" font-family="Helvetica,sans-Serif" font-size="10.00">+ mask</text>
<text text-anchor="start" x="130" y="-285.5" font-family="Helvetica,sans-Serif" font-size="10.00">+ bits</text>
<text text-anchor="start" x="130" y="-274.5" font-family="Helvetica,sans-Serif" font-size="10.00">&#45; mValue</text>
<polyline fill="none" stroke="black" points="122,-267.5 226,-267.5 "/>
<text text-anchor="start" x="130" y="-255.5" font-family="Helvetica,sans-Serif" font-size="10.00">+ BitNumber()</text>
<text text-anchor="start" x="130" y="-244.5" font-family="Helvetica,sans-Serif" font-size="10.00">+ BitNumber()</text>
<text text-anchor="start" x="130" y="-233.5" font-family="Helvetica,sans-Serif" font-size="10.00">+ operator=()</text>
<text text-anchor="start" x="130" y="-222.5" font-family="Helvetica,sans-Serif" font-size="10.00">+ raw()</text>
<text text-anchor="start" x="130" y="-211.5" font-family="Helvetica,sans-Serif" font-size="10.00">+ operator&lt;()</text>
<text text-anchor="start" x="130" y="-200.5" font-family="Helvetica,sans-Serif" font-size="10.00">+ operator==()</text>
</a>
</g>
</g>
<!-- Node2 -->
<g id="node3" class="node">
<title>Node2</title>
<g id="a_node3"><a xlink:href="../../dd/dba/classvanetza_1_1BitNumber.html" target="_top" xlink:title=" ">
<polygon fill="white" stroke="black" points="0,-0.5 0,-145.5 104,-145.5 104,-0.5 0,-0.5"/>
<text text-anchor="start" x="8" y="-133.5" font-family="Helvetica,sans-Serif" font-size="10.00">vanetza::BitNumber</text>
<text text-anchor="middle" x="52" y="-122.5" font-family="Helvetica,sans-Serif" font-size="10.00">&lt; unsigned, 10 &gt;</text>
<polyline fill="none" stroke="black" points="0,-115.5 104,-115.5 "/>
<text text-anchor="start" x="8" y="-103.5" font-family="Helvetica,sans-Serif" font-size="10.00">+ mask</text>
<text text-anchor="start" x="8" y="-92.5" font-family="Helvetica,sans-Serif" font-size="10.00">+ bits</text>
<text text-anchor="start" x="8" y="-81.5" font-family="Helvetica,sans-Serif" font-size="10.00">&#45; mValue</text>
<polyline fill="none" stroke="black" points="0,-74.5 104,-74.5 "/>
<text text-anchor="start" x="8" y="-62.5" font-family="Helvetica,sans-Serif" font-size="10.00">+ BitNumber()</text>
<text text-anchor="start" x="8" y="-51.5" font-family="Helvetica,sans-Serif" font-size="10.00">+ BitNumber()</text>
<text text-anchor="start" x="8" y="-40.5" font-family="Helvetica,sans-Serif" font-size="10.00">+ operator=()</text>
<text text-anchor="start" x="8" y="-29.5" font-family="Helvetica,sans-Serif" font-size="10.00">+ raw()</text>
<text text-anchor="start" x="8" y="-18.5" font-family="Helvetica,sans-Serif" font-size="10.00">+ operator&lt;()</text>
<text text-anchor="start" x="8" y="-7.5" font-family="Helvetica,sans-Serif" font-size="10.00">+ operator==()</text>
</a>
</g>
</g>
<!-- Node0&#45;&gt;Node2 -->
<g id="edge2" class="edge">
<title>Node0&#45;&gt;Node2</title>
<path fill="none" stroke="orange" d="M115.36,-205.51C107.27,-195.75 99.51,-185.4 93,-175 87.28,-165.86 82.07,-155.78 77.43,-145.63"/>
<polygon fill="orange" stroke="orange" points="112.76,-207.86 121.91,-213.21 118.09,-203.32 112.76,-207.86"/>
<text text-anchor="middle" x="131.5" y="-167" font-family="Helvetica,sans-Serif" font-size="10.00"> &lt; unsigned, 10 &gt;</text>
</g>
<!-- Node3 -->
<g id="node4" class="node">
<title>Node3</title>
<g id="a_node4"><a xlink:href="../../dd/dba/classvanetza_1_1BitNumber.html" target="_top" xlink:title=" ">
<polygon fill="white" stroke="black" points="122,-0.5 122,-145.5 226,-145.5 226,-0.5 122,-0.5"/>
<text text-anchor="start" x="130" y="-133.5" font-family="Helvetica,sans-Serif" font-size="10.00">vanetza::BitNumber</text>
<text text-anchor="middle" x="174" y="-122.5" font-family="Helvetica,sans-Serif" font-size="10.00">&lt; unsigned, 4 &gt;</text>
<polyline fill="none" stroke="black" points="122,-115.5 226,-115.5 "/>
<text text-anchor="start" x="130" y="-103.5" font-family="Helvetica,sans-Serif" font-size="10.00">+ mask</text>
<text text-anchor="start" x="130" y="-92.5" font-family="Helvetica,sans-Serif" font-size="10.00">+ bits</text>
<text text-anchor="start" x="130" y="-81.5" font-family="Helvetica,sans-Serif" font-size="10.00">&#45; mValue</text>
<polyline fill="none" stroke="black" points="122,-74.5 226,-74.5 "/>
<text text-anchor="start" x="130" y="-62.5" font-family="Helvetica,sans-Serif" font-size="10.00">+ BitNumber()</text>
<text text-anchor="start" x="130" y="-51.5" font-family="Helvetica,sans-Serif" font-size="10.00">+ BitNumber()</text>
<text text-anchor="start" x="130" y="-40.5" font-family="Helvetica,sans-Serif" font-size="10.00">+ operator=()</text>
<text text-anchor="start" x="130" y="-29.5" font-family="Helvetica,sans-Serif" font-size="10.00">+ raw()</text>
<text text-anchor="start" x="130" y="-18.5" font-family="Helvetica,sans-Serif" font-size="10.00">+ operator&lt;()</text>
<text text-anchor="start" x="130" y="-7.5" font-family="Helvetica,sans-Serif" font-size="10.00">+ operator==()</text>
</a>
</g>
</g>
<!-- Node0&#45;&gt;Node3 -->
<g id="edge3" class="edge">
<title>Node0&#45;&gt;Node3</title>
<path fill="none" stroke="orange" d="M174,-183.01C174,-170.62 174,-157.91 174,-145.75"/>
<polygon fill="orange" stroke="orange" points="170.5,-183.34 174,-193.34 177.5,-183.34 170.5,-183.34"/>
<text text-anchor="middle" x="210" y="-167" font-family="Helvetica,sans-Serif" font-size="10.00"> &lt; unsigned, 4 &gt;</text>
</g>
<!-- Node4 -->
<g id="node5" class="node">
<title>Node4</title>
<g id="a_node5"><a xlink:href="../../dd/dba/classvanetza_1_1BitNumber.html" target="_top" xlink:title=" ">
<polygon fill="white" stroke="black" points="244,-0.5 244,-145.5 348,-145.5 348,-0.5 244,-0.5"/>
<text text-anchor="start" x="252" y="-133.5" font-family="Helvetica,sans-Serif" font-size="10.00">vanetza::BitNumber</text>
<text text-anchor="middle" x="296" y="-122.5" font-family="Helvetica,sans-Serif" font-size="10.00">&lt; unsigned, 5 &gt;</text>
<polyline fill="none" stroke="black" points="244,-115.5 348,-115.5 "/>
<text text-anchor="start" x="252" y="-103.5" font-family="Helvetica,sans-Serif" font-size="10.00">+ mask</text>
<text text-anchor="start" x="252" y="-92.5" font-family="Helvetica,sans-Serif" font-size="10.00">+ bits</text>
<text text-anchor="start" x="252" y="-81.5" font-family="Helvetica,sans-Serif" font-size="10.00">&#45; mValue</text>
<polyline fill="none" stroke="black" points="244,-74.5 348,-74.5 "/>
<text text-anchor="start" x="252" y="-62.5" font-family="Helvetica,sans-Serif" font-size="10.00">+ BitNumber()</text>
<text text-anchor="start" x="252" y="-51.5" font-family="Helvetica,sans-Serif" font-size="10.00">+ BitNumber()</text>
<text text-anchor="start" x="252" y="-40.5" font-family="Helvetica,sans-Serif" font-size="10.00">+ operator=()</text>
<text text-anchor="start" x="252" y="-29.5" font-family="Helvetica,sans-Serif" font-size="10.00">+ raw()</text>
<text text-anchor="start" x="252" y="-18.5" font-family="Helvetica,sans-Serif" font-size="10.00">+ operator&lt;()</text>
<text text-anchor="start" x="252" y="-7.5" font-family="Helvetica,sans-Serif" font-size="10.00">+ operator==()</text>
</a>
</g>
</g>
<!-- Node0&#45;&gt;Node4 -->
<g id="edge4" class="edge">
<title>Node0&#45;&gt;Node4</title>
<path fill="none" stroke="orange" d="M232.59,-199.73C238.8,-191.64 244.75,-183.29 250,-175 255.82,-165.8 261.32,-155.74 266.34,-145.65"/>
<polygon fill="orange" stroke="orange" points="229.74,-197.7 226.31,-207.72 235.24,-202.02 229.74,-197.7"/>
<text text-anchor="middle" x="292" y="-167" font-family="Helvetica,sans-Serif" font-size="10.00"> &lt; unsigned, 5 &gt;</text>
</g>
<!-- Node1 -->
<g id="node2" class="node">
<title>Node1</title>
<g id="a_node2"><a xlink:title=" ">
<polygon fill="white" stroke="#bfbfbf" points="102.5,-376.5 102.5,-444.5 245.5,-444.5 245.5,-376.5 102.5,-376.5"/>
<text text-anchor="start" x="110.5" y="-432.5" font-family="Helvetica,sans-Serif" font-size="10.00">boost::totally_ordered</text>
<text text-anchor="middle" x="174" y="-421.5" font-family="Helvetica,sans-Serif" font-size="10.00">&lt; BitNumber&lt; T, WIDTH &gt; &gt;</text>
<polyline fill="none" stroke="#bfbfbf" points="102.5,-414.5 245.5,-414.5 "/>
<text text-anchor="middle" x="174" y="-402.5" font-family="Helvetica,sans-Serif" font-size="10.00"> </text>
<polyline fill="none" stroke="#bfbfbf" points="102.5,-395.5 245.5,-395.5 "/>
<text text-anchor="middle" x="174" y="-383.5" font-family="Helvetica,sans-Serif" font-size="10.00"> </text>
</a>
</g>
</g>
<!-- Node1&#45;&gt;Node0 -->
<g id="edge1" class="edge">
<title>Node1&#45;&gt;Node0</title>
<path fill="none" stroke="midnightblue" d="M174,-366.19C174,-357.48 174,-348.11 174,-338.72"/>
<polygon fill="none" stroke="midnightblue" points="170.5,-366.45 174,-376.45 177.5,-366.45 170.5,-366.45"/>
</g>
</g>
</svg>
