<?xml version="1.0" encoding="UTF-8" standalone="no"?>
<!DOCTYPE svg PUBLIC "-//W3C//DTD SVG 1.1//EN"
 "http://www.w3.org/Graphics/SVG/1.1/DTD/svg11.dtd">
<!-- Generated by graphviz version 2.49.3 (0)
 -->
<!-- Title: vanetza::detail::EndianConverter&lt; T, ByteOrder::LittleEndian, ByteOrder::BigEndian &gt; Pages: 1 -->
<svg width="215pt" height="207pt"
 viewBox="0.00 0.00 215.00 207.00" xmlns="http://www.w3.org/2000/svg" xmlns:xlink="http://www.w3.org/1999/xlink">
<g id="graph0" class="graph" transform="scale(1 1) rotate(0) translate(4 203)">
<title>vanetza::detail::EndianConverter&lt; T, ByteOrder::LittleEndian, ByteOrder::BigEndian &gt;</title>
<!-- Node1 -->
<g id="Node000001" class="node">
<title>Node1</title>
<g id="a_Node000001"><a xlink:title=" ">
<polygon fill="#999999" stroke="transparent" points="152,-71 0,-71 0,0 152,0 152,-71"/>
<text text-anchor="start" x="5" y="-58.5" font-family="Helvetica,sans-Serif" font-size="10.00">vanetza::detail::EndianConverter</text>
<text text-anchor="start" x="5" y="-47.5" font-family="Helvetica,sans-Serif" font-size="10.00">&lt; T, ByteOrder::LittleEndian,</text>
<text text-anchor="start" x="22.5" y="-36.5" font-family="Helvetica,sans-Serif" font-size="10.00"> ByteOrder::BigEndian &gt;</text>
<text text-anchor="start" x="74" y="-21.5" font-family="Helvetica,sans-Serif" font-size="10.00"> </text>
<text text-anchor="start" x="25" y="-6.5" font-family="Helvetica,sans-Serif" font-size="10.00">+</text>
<text text-anchor="start" x="57" y="-6.5" font-family="Helvetica,sans-Serif" font-size="10.00">operator()()</text>
<polygon fill="#666666" stroke="#666666" points="0,-31.5 0,-31.5 152,-31.5 152,-31.5 0,-31.5"/>
<polygon fill="#666666" stroke="#666666" points="0,-16.5 0,-16.5 152,-16.5 152,-16.5 0,-16.5"/>
<polygon fill="none" stroke="#666666" points="0,0 0,-71 152,-71 152,0 0,0"/>
</a>
</g>
</g>
<!-- Node2 -->
<g id="Node000002" class="node">
<title>Node2</title>
<g id="a_Node000002"><a xlink:href="../../d1/d1a/structvanetza_1_1detail_1_1EndianConverter.html" target="_top" xlink:title=" ">
<polygon fill="white" stroke="transparent" points="152,-199 0,-199 0,-139 152,-139 152,-199"/>
<text text-anchor="start" x="5" y="-187" font-family="Helvetica,sans-Serif" font-size="10.00">vanetza::detail::EndianConverter</text>
<text text-anchor="start" x="37" y="-176" font-family="Helvetica,sans-Serif" font-size="10.00">&lt; T, FROM, TO &gt;</text>
<text text-anchor="start" x="74" y="-161" font-family="Helvetica,sans-Serif" font-size="10.00"> </text>
<text text-anchor="start" x="25" y="-146" font-family="Helvetica,sans-Serif" font-size="10.00">+</text>
<text text-anchor="start" x="57" y="-146" font-family="Helvetica,sans-Serif" font-size="10.00">operator()()</text>
<polygon fill="#bfbfbf" stroke="#bfbfbf" points="0,-171 0,-171 152,-171 152,-171 0,-171"/>
<polygon fill="#bfbfbf" stroke="#bfbfbf" points="0,-156 0,-156 152,-156 152,-156 0,-156"/>
<polygon fill="none" stroke="#bfbfbf" points="0,-139 0,-199 152,-199 152,-139 0,-139"/>
</a>
</g>
</g>
<!-- Node2&#45;&gt;Node1 -->
<g id="edge1_Node000001_Node000002" class="edge">
<title>Node2&#45;&gt;Node1</title>
<g id="a_edge1_Node000001_Node000002"><a xlink:title=" ">
<path fill="none" stroke="orange" d="M76,-128.76C76,-110.47 76,-88.89 76,-71.2"/>
<polygon fill="orange" stroke="orange" points="72.5,-128.82 76,-138.82 79.5,-128.82 72.5,-128.82"/>
</a>
</g>
<text text-anchor="start" x="79.5" y="-110" font-family="Helvetica,sans-Serif" font-size="10.00" fill="grey">&lt; T, ByteOrder::LittleEndian,</text>
<text text-anchor="start" x="79.5" y="-95" font-family="Helvetica,sans-Serif" font-size="10.00" fill="grey">   ByteOrder::BigEndian &gt;</text>
</g>
</g>
</svg>
