<?xml version="1.0" encoding="UTF-8" standalone="no"?>
<!DOCTYPE svg PUBLIC "-//W3C//DTD SVG 1.1//EN"
 "http://www.w3.org/Graphics/SVG/1.1/DTD/svg11.dtd">
<!-- Generated by graphviz version 2.42.3 (0)
 -->
<!-- Title: vanetza::security::v3::Sequence&lt; Extensible &gt; Pages: 1 -->
<svg width="403pt" height="354pt"
 viewBox="0.00 0.00 402.50 354.00" xmlns="http://www.w3.org/2000/svg" xmlns:xlink="http://www.w3.org/1999/xlink">
<g id="graph0" class="graph" transform="scale(1 1) rotate(0) translate(4 350)">
<title>vanetza::security::v3::Sequence&lt; Extensible &gt;</title>
<polygon fill="white" stroke="transparent" points="-4,4 -4,-350 398.5,-350 398.5,4 -4,4"/>
<!-- Node1 -->
<g id="node1" class="node">
<title>Node1</title>
<g id="a_node1"><a xlink:title=" ">
<polygon fill="#bfbfbf" stroke="black" points="54,-277.5 54,-345.5 194,-345.5 194,-277.5 54,-277.5"/>
<text text-anchor="start" x="62" y="-333.5" font-family="Helvetica,sans-Serif" font-size="10.00">vanetza::security::</text>
<text text-anchor="middle" x="124" y="-322.5" font-family="Helvetica,sans-Serif" font-size="10.00">v3::Sequence&lt; Extensible &gt;</text>
<polyline fill="none" stroke="black" points="54,-315.5 194,-315.5 "/>
<text text-anchor="middle" x="124" y="-303.5" font-family="Helvetica,sans-Serif" font-size="10.00"> </text>
<polyline fill="none" stroke="black" points="54,-296.5 194,-296.5 "/>
<text text-anchor="middle" x="124" y="-284.5" font-family="Helvetica,sans-Serif" font-size="10.00"> </text>
</a>
</g>
</g>
<!-- Node2 -->
<g id="node2" class="node">
<title>Node2</title>
<g id="a_node2"><a xlink:href="../../d3/df0/structvanetza_1_1security_1_1v3_1_1Sequence.html" target="_top" xlink:title=" ">
<polygon fill="white" stroke="black" points="0,-161.5 0,-229.5 116,-229.5 116,-161.5 0,-161.5"/>
<text text-anchor="start" x="8" y="-217.5" font-family="Helvetica,sans-Serif" font-size="10.00">vanetza::security::</text>
<text text-anchor="middle" x="58" y="-206.5" font-family="Helvetica,sans-Serif" font-size="10.00">v3::Sequence&lt; false &gt;</text>
<polyline fill="none" stroke="black" points="0,-199.5 116,-199.5 "/>
<text text-anchor="middle" x="58" y="-187.5" font-family="Helvetica,sans-Serif" font-size="10.00"> </text>
<polyline fill="none" stroke="black" points="0,-180.5 116,-180.5 "/>
<text text-anchor="middle" x="58" y="-168.5" font-family="Helvetica,sans-Serif" font-size="10.00"> </text>
</a>
</g>
</g>
<!-- Node1&#45;&gt;Node2 -->
<g id="edge1" class="edge">
<title>Node1&#45;&gt;Node2</title>
<path fill="none" stroke="orange" d="M99.71,-268.55C92.28,-255.71 84.22,-241.78 77.18,-229.62"/>
<polygon fill="orange" stroke="orange" points="96.69,-270.32 104.73,-277.22 102.75,-266.81 96.69,-270.32"/>
<text text-anchor="middle" x="114.5" y="-251" font-family="Helvetica,sans-Serif" font-size="10.00"> &lt; false &gt;</text>
</g>
<!-- Node4 -->
<g id="node4" class="node">
<title>Node4</title>
<g id="a_node4"><a xlink:href="../../d3/df0/structvanetza_1_1security_1_1v3_1_1Sequence.html" target="_top" xlink:title=" ">
<polygon fill="white" stroke="black" points="134.5,-161.5 134.5,-229.5 245.5,-229.5 245.5,-161.5 134.5,-161.5"/>
<text text-anchor="start" x="142.5" y="-217.5" font-family="Helvetica,sans-Serif" font-size="10.00">vanetza::security::</text>
<text text-anchor="middle" x="190" y="-206.5" font-family="Helvetica,sans-Serif" font-size="10.00">v3::Sequence&lt; true &gt;</text>
<polyline fill="none" stroke="black" points="134.5,-199.5 245.5,-199.5 "/>
<text text-anchor="middle" x="190" y="-187.5" font-family="Helvetica,sans-Serif" font-size="10.00"> </text>
<polyline fill="none" stroke="black" points="134.5,-180.5 245.5,-180.5 "/>
<text text-anchor="middle" x="190" y="-168.5" font-family="Helvetica,sans-Serif" font-size="10.00"> </text>
</a>
</g>
</g>
<!-- Node1&#45;&gt;Node4 -->
<g id="edge3" class="edge">
<title>Node1&#45;&gt;Node4</title>
<path fill="none" stroke="orange" d="M148.29,-268.55C155.72,-255.71 163.78,-241.78 170.82,-229.62"/>
<polygon fill="orange" stroke="orange" points="145.25,-266.81 143.27,-277.22 151.31,-270.32 145.25,-266.81"/>
<text text-anchor="middle" x="178" y="-251" font-family="Helvetica,sans-Serif" font-size="10.00"> &lt; true &gt;</text>
</g>
<!-- Node3 -->
<g id="node3" class="node">
<title>Node3</title>
<g id="a_node3"><a xlink:href="../../db/d79/structvanetza_1_1security_1_1v3_1_1CertificateBase.html" target="_top" xlink:title=" ">
<polygon fill="white" stroke="black" points="7.5,-6 7.5,-118 108.5,-118 108.5,-6 7.5,-6"/>
<text text-anchor="start" x="15.5" y="-106" font-family="Helvetica,sans-Serif" font-size="10.00">vanetza::security::</text>
<text text-anchor="middle" x="58" y="-95" font-family="Helvetica,sans-Serif" font-size="10.00">v3::CertificateBase</text>
<polyline fill="none" stroke="black" points="7.5,-88 108.5,-88 "/>
<text text-anchor="start" x="15.5" y="-76" font-family="Helvetica,sans-Serif" font-size="10.00">+ version</text>
<text text-anchor="start" x="15.5" y="-65" font-family="Helvetica,sans-Serif" font-size="10.00">+ type</text>
<text text-anchor="start" x="15.5" y="-54" font-family="Helvetica,sans-Serif" font-size="10.00">+ issuer</text>
<text text-anchor="start" x="15.5" y="-43" font-family="Helvetica,sans-Serif" font-size="10.00">+ toBeSigned</text>
<text text-anchor="start" x="15.5" y="-32" font-family="Helvetica,sans-Serif" font-size="10.00">+ signature</text>
<polyline fill="none" stroke="black" points="7.5,-25 108.5,-25 "/>
<text text-anchor="middle" x="58" y="-13" font-family="Helvetica,sans-Serif" font-size="10.00"> </text>
</a>
</g>
</g>
<!-- Node2&#45;&gt;Node3 -->
<g id="edge2" class="edge">
<title>Node2&#45;&gt;Node3</title>
<path fill="none" stroke="midnightblue" d="M58,-151.12C58,-140.58 58,-129.17 58,-118.17"/>
<polygon fill="none" stroke="midnightblue" points="54.5,-151.32 58,-161.32 61.5,-151.32 54.5,-151.32"/>
</g>
<!-- Node5 -->
<g id="node5" class="node">
<title>Node5</title>
<g id="a_node5"><a xlink:href="../../d4/db8/structvanetza_1_1security_1_1v3_1_1MissingCrlIdentifier.html" target="_top" xlink:title=" ">
<polygon fill="white" stroke="black" points="128.5,-22.5 128.5,-101.5 245.5,-101.5 245.5,-22.5 128.5,-22.5"/>
<text text-anchor="start" x="136.5" y="-89.5" font-family="Helvetica,sans-Serif" font-size="10.00">vanetza::security::</text>
<text text-anchor="middle" x="187" y="-78.5" font-family="Helvetica,sans-Serif" font-size="10.00">v3::MissingCrlIdentifier</text>
<polyline fill="none" stroke="black" points="128.5,-71.5 245.5,-71.5 "/>
<text text-anchor="start" x="136.5" y="-59.5" font-family="Helvetica,sans-Serif" font-size="10.00">+ cracaId</text>
<text text-anchor="start" x="136.5" y="-48.5" font-family="Helvetica,sans-Serif" font-size="10.00">+ crlSeries</text>
<polyline fill="none" stroke="black" points="128.5,-41.5 245.5,-41.5 "/>
<text text-anchor="middle" x="187" y="-29.5" font-family="Helvetica,sans-Serif" font-size="10.00"> </text>
</a>
</g>
</g>
<!-- Node4&#45;&gt;Node5 -->
<g id="edge4" class="edge">
<title>Node4&#45;&gt;Node5</title>
<path fill="none" stroke="midnightblue" d="M189.01,-151.17C188.65,-135.23 188.24,-117.29 187.88,-101.78"/>
<polygon fill="none" stroke="midnightblue" points="185.52,-151.4 189.24,-161.32 192.51,-151.24 185.52,-151.4"/>
</g>
<!-- Node6 -->
<g id="node6" class="node">
<title>Node6</title>
<g id="a_node6"><a xlink:href="../../d1/d4d/structvanetza_1_1security_1_1v3_1_1ToBeSignedCertificate.html" target="_top" xlink:title=" ">
<polygon fill="white" stroke="black" points="263.5,-0.5 263.5,-123.5 394.5,-123.5 394.5,-0.5 263.5,-0.5"/>
<text text-anchor="start" x="271.5" y="-111.5" font-family="Helvetica,sans-Serif" font-size="10.00">vanetza::security::</text>
<text text-anchor="middle" x="329" y="-100.5" font-family="Helvetica,sans-Serif" font-size="10.00">v3::ToBeSignedCertificate</text>
<polyline fill="none" stroke="black" points="263.5,-93.5 394.5,-93.5 "/>
<text text-anchor="start" x="271.5" y="-81.5" font-family="Helvetica,sans-Serif" font-size="10.00">+ id</text>
<text text-anchor="start" x="271.5" y="-70.5" font-family="Helvetica,sans-Serif" font-size="10.00">+ cracaId</text>
<text text-anchor="start" x="271.5" y="-59.5" font-family="Helvetica,sans-Serif" font-size="10.00">+ crlSeries</text>
<text text-anchor="start" x="271.5" y="-48.5" font-family="Helvetica,sans-Serif" font-size="10.00">+ validityPeriod</text>
<text text-anchor="start" x="271.5" y="-37.5" font-family="Helvetica,sans-Serif" font-size="10.00">+ region</text>
<text text-anchor="start" x="271.5" y="-26.5" font-family="Helvetica,sans-Serif" font-size="10.00">+ assuranceLevel</text>
<polyline fill="none" stroke="black" points="263.5,-19.5 394.5,-19.5 "/>
<text text-anchor="middle" x="329" y="-7.5" font-family="Helvetica,sans-Serif" font-size="10.00"> </text>
</a>
</g>
</g>
<!-- Node4&#45;&gt;Node6 -->
<g id="edge5" class="edge">
<title>Node4&#45;&gt;Node6</title>
<path fill="none" stroke="midnightblue" d="M232.39,-154.4C242.69,-144.66 253.92,-134.03 264.97,-123.57"/>
<polygon fill="none" stroke="midnightblue" points="229.93,-151.9 225.08,-161.32 234.75,-156.99 229.93,-151.9"/>
</g>
</g>
</svg>
