<?xml version="1.0" encoding="UTF-8" standalone="no"?>
<!DOCTYPE svg PUBLIC "-//W3C//DTD SVG 1.1//EN"
 "http://www.w3.org/Graphics/SVG/1.1/DTD/svg11.dtd">
<!-- Generated by graphviz version 14.1.2 (0)
 -->
<!-- Title: vanetza::geonet::IndicationContextBasic Pages: 1 -->
<svg width="336pt" height="650pt"
 viewBox="0.00 0.00 336.00 650.00" xmlns="http://www.w3.org/2000/svg" xmlns:xlink="http://www.w3.org/1999/xlink">
<g id="graph0" class="graph" transform="scale(1 1) rotate(0) translate(4 645.5)">
<title>vanetza::geonet::IndicationContextBasic</title>
<!-- Node1 -->
<g id="Node000001" class="node">
<title>Node1</title>
<g id="a_Node000001"><a xlink:title=" ">
<polygon fill="#999999" stroke="none" points="226.75,-387.75 86,-387.75 86,-220.25 226.75,-220.25 226.75,-387.75"/>
<text xml:space="preserve" text-anchor="start" x="90" y="-374.25" font-family="Helvetica,sans-Serif" font-size="10.00">vanetza::geonet::Indication</text>
<text xml:space="preserve" text-anchor="start" x="124.12" y="-361.5" font-family="Helvetica,sans-Serif" font-size="10.00">ContextBasic</text>
<text xml:space="preserve" text-anchor="start" x="90.12" y="-344.75" font-family="Helvetica,sans-Serif" font-size="10.00">#</text>
<text xml:space="preserve" text-anchor="start" x="102.5" y="-344.75" font-family="Helvetica,sans-Serif" font-size="10.00">m_link_layer</text>
<text xml:space="preserve" text-anchor="start" x="90.12" y="-328" font-family="Helvetica,sans-Serif" font-size="10.00">#</text>
<text xml:space="preserve" text-anchor="start" x="102.5" y="-328" font-family="Helvetica,sans-Serif" font-size="10.00">m_service_primitive</text>
<text xml:space="preserve" text-anchor="start" x="90.12" y="-311.25" font-family="Helvetica,sans-Serif" font-size="10.00">#</text>
<text xml:space="preserve" text-anchor="start" x="102.5" y="-311.25" font-family="Helvetica,sans-Serif" font-size="10.00">m_pdu</text>
<text xml:space="preserve" text-anchor="start" x="90.12" y="-294.5" font-family="Helvetica,sans-Serif" font-size="10.00">+</text>
<text xml:space="preserve" text-anchor="start" x="102.5" y="-294.5" font-family="Helvetica,sans-Serif" font-size="10.00">IndicationContextBasic()</text>
<text xml:space="preserve" text-anchor="start" x="90.12" y="-277.75" font-family="Helvetica,sans-Serif" font-size="10.00">+</text>
<text xml:space="preserve" text-anchor="start" x="102.5" y="-277.75" font-family="Helvetica,sans-Serif" font-size="10.00">link_layer()</text>
<text xml:space="preserve" text-anchor="start" x="90.12" y="-261" font-family="Helvetica,sans-Serif" font-size="10.00">+</text>
<text xml:space="preserve" text-anchor="start" x="102.5" y="-261" font-family="Helvetica,sans-Serif" font-size="10.00">service_primitive()</text>
<text xml:space="preserve" text-anchor="start" x="90.12" y="-244.25" font-family="Helvetica,sans-Serif" font-size="10.00">+</text>
<text xml:space="preserve" text-anchor="start" x="102.5" y="-244.25" font-family="Helvetica,sans-Serif" font-size="10.00">pdu()</text>
<text xml:space="preserve" text-anchor="start" x="90.12" y="-227.5" font-family="Helvetica,sans-Serif" font-size="10.00">+</text>
<text xml:space="preserve" text-anchor="start" x="102.5" y="-227.5" font-family="Helvetica,sans-Serif" font-size="10.00">pdu()</text>
<polygon fill="#666666" stroke="#666666" points="86,-356.25 86,-356.25 226.75,-356.25 226.75,-356.25 86,-356.25"/>
<polygon fill="#666666" stroke="#666666" points="86,-306 86,-306 100.5,-306 100.5,-306 86,-306"/>
<polygon fill="#666666" stroke="#666666" points="100.5,-306 100.5,-306 226.75,-306 226.75,-306 100.5,-306"/>
<polygon fill="none" stroke="#666666" points="86,-220.25 86,-387.75 226.75,-387.75 226.75,-220.25 86,-220.25"/>
</a>
</g>
</g>
<!-- Node3 -->
<g id="Node000003" class="node">
<title>Node3</title>
<g id="a_Node000003"><a xlink:href="../../dc/dad/classvanetza_1_1geonet_1_1IndicationContextCast.html" target="_top" xlink:title=" ">
<polygon fill="white" stroke="none" points="140.75,-167.5 0,-167.5 0,-16.75 140.75,-16.75 140.75,-167.5"/>
<text xml:space="preserve" text-anchor="start" x="4" y="-154" font-family="Helvetica,sans-Serif" font-size="10.00">vanetza::geonet::Indication</text>
<text xml:space="preserve" text-anchor="start" x="40.38" y="-141.25" font-family="Helvetica,sans-Serif" font-size="10.00">ContextCast</text>
<text xml:space="preserve" text-anchor="start" x="7.5" y="-124.5" font-family="Helvetica,sans-Serif" font-size="10.00">&#45;</text>
<text xml:space="preserve" text-anchor="start" x="18.75" y="-124.5" font-family="Helvetica,sans-Serif" font-size="10.00">m_packet</text>
<text xml:space="preserve" text-anchor="start" x="5.25" y="-107.75" font-family="Helvetica,sans-Serif" font-size="10.00">+</text>
<text xml:space="preserve" text-anchor="start" x="18.75" y="-107.75" font-family="Helvetica,sans-Serif" font-size="10.00">IndicationContextCast()</text>
<text xml:space="preserve" text-anchor="start" x="5.25" y="-91" font-family="Helvetica,sans-Serif" font-size="10.00">+</text>
<text xml:space="preserve" text-anchor="start" x="18.75" y="-91" font-family="Helvetica,sans-Serif" font-size="10.00">parse_basic()</text>
<text xml:space="preserve" text-anchor="start" x="5.25" y="-74.25" font-family="Helvetica,sans-Serif" font-size="10.00">+</text>
<text xml:space="preserve" text-anchor="start" x="18.75" y="-74.25" font-family="Helvetica,sans-Serif" font-size="10.00">parse_common()</text>
<text xml:space="preserve" text-anchor="start" x="5.25" y="-57.5" font-family="Helvetica,sans-Serif" font-size="10.00">+</text>
<text xml:space="preserve" text-anchor="start" x="18.75" y="-57.5" font-family="Helvetica,sans-Serif" font-size="10.00">parse_secured()</text>
<text xml:space="preserve" text-anchor="start" x="5.25" y="-40.75" font-family="Helvetica,sans-Serif" font-size="10.00">+</text>
<text xml:space="preserve" text-anchor="start" x="18.75" y="-40.75" font-family="Helvetica,sans-Serif" font-size="10.00">parse_extended()</text>
<text xml:space="preserve" text-anchor="start" x="5.25" y="-24" font-family="Helvetica,sans-Serif" font-size="10.00">+</text>
<text xml:space="preserve" text-anchor="start" x="18.75" y="-24" font-family="Helvetica,sans-Serif" font-size="10.00">finish()</text>
<polygon fill="#bfbfbf" stroke="#bfbfbf" points="0,-136 0,-136 140.75,-136 140.75,-136 0,-136"/>
<polygon fill="#bfbfbf" stroke="#bfbfbf" points="0,-119.25 0,-119.25 16.75,-119.25 16.75,-119.25 0,-119.25"/>
<polygon fill="#bfbfbf" stroke="#bfbfbf" points="16.75,-119.25 16.75,-119.25 140.75,-119.25 140.75,-119.25 16.75,-119.25"/>
<polygon fill="none" stroke="#bfbfbf" points="0,-16.75 0,-167.5 140.75,-167.5 140.75,-16.75 0,-16.75"/>
</a>
</g>
</g>
<!-- Node1&#45;&gt;Node3 -->
<g id="edge2_Node000001_Node000003" class="edge">
<title>Node1&#45;&gt;Node3</title>
<g id="a_edge2_Node000001_Node000003"><a xlink:title=" ">
<path fill="none" stroke="#63b8ff" d="M118.26,-209.99C112.39,-195.65 106.39,-181.02 100.72,-167.17"/>
<polygon fill="none" stroke="#63b8ff" points="114.9,-211.03 121.94,-218.95 121.38,-208.37 114.9,-211.03"/>
</a>
</g>
</g>
<!-- Node4 -->
<g id="Node000004" class="node">
<title>Node4</title>
<g id="a_Node000004"><a xlink:href="../../dd/d8e/classvanetza_1_1geonet_1_1IndicationContextDeserialize.html" target="_top" xlink:title=" ">
<polygon fill="white" stroke="none" points="327.75,-184.25 159,-184.25 159,0 327.75,0 327.75,-184.25"/>
<text xml:space="preserve" text-anchor="start" x="177" y="-170.75" font-family="Helvetica,sans-Serif" font-size="10.00">vanetza::geonet::Indication</text>
<text xml:space="preserve" text-anchor="start" x="196.88" y="-158" font-family="Helvetica,sans-Serif" font-size="10.00">ContextDeserialize</text>
<text xml:space="preserve" text-anchor="start" x="165.25" y="-141.25" font-family="Helvetica,sans-Serif" font-size="10.00">&#45;</text>
<text xml:space="preserve" text-anchor="start" x="175.25" y="-141.25" font-family="Helvetica,sans-Serif" font-size="10.00">m_packet</text>
<text xml:space="preserve" text-anchor="start" x="165.25" y="-124.5" font-family="Helvetica,sans-Serif" font-size="10.00">&#45;</text>
<text xml:space="preserve" text-anchor="start" x="175.25" y="-124.5" font-family="Helvetica,sans-Serif" font-size="10.00">m_cohesive_packet</text>
<text xml:space="preserve" text-anchor="start" x="165.25" y="-107.75" font-family="Helvetica,sans-Serif" font-size="10.00">&#45;</text>
<text xml:space="preserve" text-anchor="start" x="175.25" y="-107.75" font-family="Helvetica,sans-Serif" font-size="10.00">m_parser</text>
<text xml:space="preserve" text-anchor="start" x="163" y="-91" font-family="Helvetica,sans-Serif" font-size="10.00">+</text>
<text xml:space="preserve" text-anchor="start" x="175.25" y="-91" font-family="Helvetica,sans-Serif" font-size="10.00">IndicationContextDeserialize()</text>
<text xml:space="preserve" text-anchor="start" x="163" y="-74.25" font-family="Helvetica,sans-Serif" font-size="10.00">+</text>
<text xml:space="preserve" text-anchor="start" x="175.25" y="-74.25" font-family="Helvetica,sans-Serif" font-size="10.00">parse_basic()</text>
<text xml:space="preserve" text-anchor="start" x="163" y="-57.5" font-family="Helvetica,sans-Serif" font-size="10.00">+</text>
<text xml:space="preserve" text-anchor="start" x="175.25" y="-57.5" font-family="Helvetica,sans-Serif" font-size="10.00">parse_common()</text>
<text xml:space="preserve" text-anchor="start" x="163" y="-40.75" font-family="Helvetica,sans-Serif" font-size="10.00">+</text>
<text xml:space="preserve" text-anchor="start" x="175.25" y="-40.75" font-family="Helvetica,sans-Serif" font-size="10.00">parse_secured()</text>
<text xml:space="preserve" text-anchor="start" x="163" y="-24" font-family="Helvetica,sans-Serif" font-size="10.00">+</text>
<text xml:space="preserve" text-anchor="start" x="175.25" y="-24" font-family="Helvetica,sans-Serif" font-size="10.00">parse_extended()</text>
<text xml:space="preserve" text-anchor="start" x="163" y="-7.25" font-family="Helvetica,sans-Serif" font-size="10.00">+</text>
<text xml:space="preserve" text-anchor="start" x="175.25" y="-7.25" font-family="Helvetica,sans-Serif" font-size="10.00">finish()</text>
<polygon fill="#bfbfbf" stroke="#bfbfbf" points="159,-152.75 159,-152.75 327.75,-152.75 327.75,-152.75 159,-152.75"/>
<polygon fill="#bfbfbf" stroke="#bfbfbf" points="159,-102.5 159,-102.5 173.25,-102.5 173.25,-102.5 159,-102.5"/>
<polygon fill="#bfbfbf" stroke="#bfbfbf" points="173.25,-102.5 173.25,-102.5 327.75,-102.5 327.75,-102.5 173.25,-102.5"/>
<polygon fill="none" stroke="#bfbfbf" points="159,0 159,-184.25 327.75,-184.25 327.75,0 159,0"/>
</a>
</g>
</g>
<!-- Node1&#45;&gt;Node4 -->
<g id="edge3_Node000001_Node000004" class="edge">
<title>Node1&#45;&gt;Node4</title>
<g id="a_edge3_Node000001_Node000004"><a xlink:title=" ">
<path fill="none" stroke="#63b8ff" d="M194.96,-209.92C198.53,-201.31 202.14,-192.6 205.7,-184.01"/>
<polygon fill="none" stroke="#63b8ff" points="191.81,-208.38 191.21,-218.95 198.28,-211.06 191.81,-208.38"/>
</a>
</g>
</g>
<!-- Node2 -->
<g id="Node000002" class="node">
<title>Node2</title>
<g id="a_Node000002"><a xlink:href="../../d0/db4/classvanetza_1_1geonet_1_1IndicationContext.html" target="_top" xlink:title=" ">
<polygon fill="white" stroke="none" points="226.75,-641.5 86,-641.5 86,-423.75 226.75,-423.75 226.75,-641.5"/>
<text xml:space="preserve" text-anchor="start" x="90" y="-628" font-family="Helvetica,sans-Serif" font-size="10.00">vanetza::geonet::Indication</text>
<text xml:space="preserve" text-anchor="start" x="137.25" y="-615.25" font-family="Helvetica,sans-Serif" font-size="10.00">Context</text>
<text xml:space="preserve" text-anchor="start" x="154.88" y="-598.5" font-family="Helvetica,sans-Serif" font-size="10.00"> </text>
<text xml:space="preserve" text-anchor="start" x="94.62" y="-581.75" font-family="Helvetica,sans-Serif" font-size="10.00">+</text>
<text xml:space="preserve" text-anchor="start" x="111.5" y="-581.75" font-family="Helvetica,sans-Serif" font-size="10.00">parse_basic()</text>
<text xml:space="preserve" text-anchor="start" x="94.62" y="-565" font-family="Helvetica,sans-Serif" font-size="10.00">+</text>
<text xml:space="preserve" text-anchor="start" x="111.5" y="-565" font-family="Helvetica,sans-Serif" font-size="10.00">parse_common()</text>
<text xml:space="preserve" text-anchor="start" x="94.62" y="-548.25" font-family="Helvetica,sans-Serif" font-size="10.00">+</text>
<text xml:space="preserve" text-anchor="start" x="111.5" y="-548.25" font-family="Helvetica,sans-Serif" font-size="10.00">parse_secured()</text>
<text xml:space="preserve" text-anchor="start" x="94.62" y="-531.5" font-family="Helvetica,sans-Serif" font-size="10.00">+</text>
<text xml:space="preserve" text-anchor="start" x="111.5" y="-531.5" font-family="Helvetica,sans-Serif" font-size="10.00">parse_extended()</text>
<text xml:space="preserve" text-anchor="start" x="94.62" y="-514.75" font-family="Helvetica,sans-Serif" font-size="10.00">+</text>
<text xml:space="preserve" text-anchor="start" x="111.5" y="-514.75" font-family="Helvetica,sans-Serif" font-size="10.00">pdu()</text>
<text xml:space="preserve" text-anchor="start" x="94.62" y="-498" font-family="Helvetica,sans-Serif" font-size="10.00">+</text>
<text xml:space="preserve" text-anchor="start" x="111.5" y="-498" font-family="Helvetica,sans-Serif" font-size="10.00">pdu()</text>
<text xml:space="preserve" text-anchor="start" x="94.62" y="-481.25" font-family="Helvetica,sans-Serif" font-size="10.00">+</text>
<text xml:space="preserve" text-anchor="start" x="111.5" y="-481.25" font-family="Helvetica,sans-Serif" font-size="10.00">link_layer()</text>
<text xml:space="preserve" text-anchor="start" x="94.62" y="-464.5" font-family="Helvetica,sans-Serif" font-size="10.00">+</text>
<text xml:space="preserve" text-anchor="start" x="111.5" y="-464.5" font-family="Helvetica,sans-Serif" font-size="10.00">service_primitive()</text>
<text xml:space="preserve" text-anchor="start" x="94.62" y="-447.75" font-family="Helvetica,sans-Serif" font-size="10.00">+</text>
<text xml:space="preserve" text-anchor="start" x="111.5" y="-447.75" font-family="Helvetica,sans-Serif" font-size="10.00">finish()</text>
<text xml:space="preserve" text-anchor="start" x="94.62" y="-431" font-family="Helvetica,sans-Serif" font-size="10.00">+</text>
<text xml:space="preserve" text-anchor="start" x="111.5" y="-431" font-family="Helvetica,sans-Serif" font-size="10.00">~IndicationContext()</text>
<polygon fill="#666666" stroke="#666666" points="86,-610 86,-610 226.75,-610 226.75,-610 86,-610"/>
<polygon fill="#666666" stroke="#666666" points="86,-593.25 86,-593.25 226.75,-593.25 226.75,-593.25 86,-593.25"/>
<polygon fill="none" stroke="#666666" points="86,-423.75 86,-641.5 226.75,-641.5 226.75,-423.75 86,-423.75"/>
</a>
</g>
</g>
<!-- Node2&#45;&gt;Node1 -->
<g id="edge1_Node000001_Node000002" class="edge">
<title>Node2&#45;&gt;Node1</title>
<g id="a_edge1_Node000001_Node000002"><a xlink:title=" ">
<path fill="none" stroke="#63b8ff" d="M156.38,-412.49C156.38,-404.09 156.38,-395.73 156.38,-387.6"/>
<polygon fill="none" stroke="#63b8ff" points="152.88,-412.44 156.38,-422.44 159.88,-412.44 152.88,-412.44"/>
</a>
</g>
</g>
</g>
</svg>
