<?xml version="1.0" encoding="UTF-8" standalone="no"?>
<!DOCTYPE svg PUBLIC "-//W3C//DTD SVG 1.1//EN"
 "http://www.w3.org/Graphics/SVG/1.1/DTD/svg11.dtd">
<!-- Generated by graphviz version 2.49.3 (0)
 -->
<!-- Title: vanetza::geonet::IndicationContextBasic Pages: 1 -->
<svg width="304pt" height="590pt"
 viewBox="0.00 0.00 304.00 590.00" xmlns="http://www.w3.org/2000/svg" xmlns:xlink="http://www.w3.org/1999/xlink">
<g id="graph0" class="graph" transform="scale(1 1) rotate(0) translate(4 586)">
<title>vanetza::geonet::IndicationContextBasic</title>
<!-- Node1 -->
<g id="Node000001" class="node">
<title>Node1</title>
<g id="a_Node000001"><a xlink:title=" ">
<polygon fill="#999999" stroke="transparent" points="205,-351 78,-351 78,-201 205,-201 205,-351"/>
<text text-anchor="start" x="83.5" y="-339" font-family="Helvetica,sans-Serif" font-size="10.00">vanetza::geonet::Indication</text>
<text text-anchor="start" x="112" y="-328" font-family="Helvetica,sans-Serif" font-size="10.00">ContextBasic</text>
<text text-anchor="start" x="83" y="-313" font-family="Helvetica,sans-Serif" font-size="10.00">#</text>
<text text-anchor="start" x="93.5" y="-313" font-family="Helvetica,sans-Serif" font-size="10.00">m_link_layer</text>
<text text-anchor="start" x="83" y="-298" font-family="Helvetica,sans-Serif" font-size="10.00">#</text>
<text text-anchor="start" x="93.5" y="-298" font-family="Helvetica,sans-Serif" font-size="10.00">m_service_primitive</text>
<text text-anchor="start" x="83" y="-283" font-family="Helvetica,sans-Serif" font-size="10.00">#</text>
<text text-anchor="start" x="93.5" y="-283" font-family="Helvetica,sans-Serif" font-size="10.00">m_pdu</text>
<text text-anchor="start" x="82.5" y="-268" font-family="Helvetica,sans-Serif" font-size="10.00">+</text>
<text text-anchor="start" x="93.5" y="-268" font-family="Helvetica,sans-Serif" font-size="10.00">IndicationContextBasic()</text>
<text text-anchor="start" x="82.5" y="-253" font-family="Helvetica,sans-Serif" font-size="10.00">+</text>
<text text-anchor="start" x="93.5" y="-253" font-family="Helvetica,sans-Serif" font-size="10.00">link_layer()</text>
<text text-anchor="start" x="82.5" y="-238" font-family="Helvetica,sans-Serif" font-size="10.00">+</text>
<text text-anchor="start" x="93.5" y="-238" font-family="Helvetica,sans-Serif" font-size="10.00">service_primitive()</text>
<text text-anchor="start" x="82.5" y="-223" font-family="Helvetica,sans-Serif" font-size="10.00">+</text>
<text text-anchor="start" x="93.5" y="-223" font-family="Helvetica,sans-Serif" font-size="10.00">pdu()</text>
<text text-anchor="start" x="82.5" y="-208" font-family="Helvetica,sans-Serif" font-size="10.00">+</text>
<text text-anchor="start" x="93.5" y="-208" font-family="Helvetica,sans-Serif" font-size="10.00">pdu()</text>
<polygon fill="#666666" stroke="#666666" points="78.5,-323 78.5,-323 205.5,-323 205.5,-323 78.5,-323"/>
<polygon fill="#666666" stroke="#666666" points="78.5,-278 78.5,-278 91.5,-278 91.5,-278 78.5,-278"/>
<polygon fill="#666666" stroke="#666666" points="91.5,-278 91.5,-278 205.5,-278 205.5,-278 91.5,-278"/>
<polygon fill="none" stroke="#666666" points="78,-201 78,-351 205,-351 205,-201 78,-201"/>
</a>
</g>
</g>
<!-- Node3 -->
<g id="Node000003" class="node">
<title>Node3</title>
<g id="a_Node000003"><a xlink:href="../../dc/dad/classvanetza_1_1geonet_1_1IndicationContextCast.html" target="_top" xlink:title=" ">
<polygon fill="white" stroke="transparent" points="127,-150 0,-150 0,-15 127,-15 127,-150"/>
<text text-anchor="start" x="5.5" y="-137.5" font-family="Helvetica,sans-Serif" font-size="10.00">vanetza::geonet::Indication</text>
<text text-anchor="start" x="36" y="-126.5" font-family="Helvetica,sans-Serif" font-size="10.00">ContextCast</text>
<text text-anchor="start" x="7" y="-111.5" font-family="Helvetica,sans-Serif" font-size="10.00">&#45;</text>
<text text-anchor="start" x="17.5" y="-111.5" font-family="Helvetica,sans-Serif" font-size="10.00">m_packet</text>
<text text-anchor="start" x="5.5" y="-96.5" font-family="Helvetica,sans-Serif" font-size="10.00">+</text>
<text text-anchor="start" x="17.5" y="-96.5" font-family="Helvetica,sans-Serif" font-size="10.00">IndicationContextCast()</text>
<text text-anchor="start" x="5.5" y="-81.5" font-family="Helvetica,sans-Serif" font-size="10.00">+</text>
<text text-anchor="start" x="17.5" y="-81.5" font-family="Helvetica,sans-Serif" font-size="10.00">parse_basic()</text>
<text text-anchor="start" x="5.5" y="-66.5" font-family="Helvetica,sans-Serif" font-size="10.00">+</text>
<text text-anchor="start" x="17.5" y="-66.5" font-family="Helvetica,sans-Serif" font-size="10.00">parse_common()</text>
<text text-anchor="start" x="5.5" y="-51.5" font-family="Helvetica,sans-Serif" font-size="10.00">+</text>
<text text-anchor="start" x="17.5" y="-51.5" font-family="Helvetica,sans-Serif" font-size="10.00">parse_secured()</text>
<text text-anchor="start" x="5.5" y="-36.5" font-family="Helvetica,sans-Serif" font-size="10.00">+</text>
<text text-anchor="start" x="17.5" y="-36.5" font-family="Helvetica,sans-Serif" font-size="10.00">parse_extended()</text>
<text text-anchor="start" x="5.5" y="-21.5" font-family="Helvetica,sans-Serif" font-size="10.00">+</text>
<text text-anchor="start" x="17.5" y="-21.5" font-family="Helvetica,sans-Serif" font-size="10.00">finish()</text>
<polygon fill="#bfbfbf" stroke="#bfbfbf" points="0.5,-121.5 0.5,-121.5 127.5,-121.5 127.5,-121.5 0.5,-121.5"/>
<polygon fill="#bfbfbf" stroke="#bfbfbf" points="0.5,-106.5 0.5,-106.5 15.5,-106.5 15.5,-106.5 0.5,-106.5"/>
<polygon fill="#bfbfbf" stroke="#bfbfbf" points="15.5,-106.5 15.5,-106.5 127.5,-106.5 127.5,-106.5 15.5,-106.5"/>
<polygon fill="none" stroke="#bfbfbf" points="0,-15 0,-150 127,-150 127,-15 0,-15"/>
</a>
</g>
</g>
<!-- Node1&#45;&gt;Node3 -->
<g id="edge2_Node000001_Node000003" class="edge">
<title>Node1&#45;&gt;Node3</title>
<g id="a_edge2_Node000001_Node000003"><a xlink:title=" ">
<path fill="none" stroke="#63b8ff" d="M107.47,-191.46C101.85,-177.64 96.08,-163.48 90.65,-150.15"/>
<polygon fill="none" stroke="#63b8ff" points="104.33,-193.02 111.34,-200.96 110.81,-190.38 104.33,-193.02"/>
</a>
</g>
</g>
<!-- Node4 -->
<g id="Node000004" class="node">
<title>Node4</title>
<g id="a_Node000004"><a xlink:href="../../dd/d8e/classvanetza_1_1geonet_1_1IndicationContextDeserialize.html" target="_top" xlink:title=" ">
<polygon fill="white" stroke="transparent" points="296,-165 145,-165 145,0 296,0 296,-165"/>
<text text-anchor="start" x="162.5" y="-152.5" font-family="Helvetica,sans-Serif" font-size="10.00">vanetza::geonet::Indication</text>
<text text-anchor="start" x="179" y="-141.5" font-family="Helvetica,sans-Serif" font-size="10.00">ContextDeserialize</text>
<text text-anchor="start" x="151" y="-126.5" font-family="Helvetica,sans-Serif" font-size="10.00">&#45;</text>
<text text-anchor="start" x="160.5" y="-126.5" font-family="Helvetica,sans-Serif" font-size="10.00">m_packet</text>
<text text-anchor="start" x="151" y="-111.5" font-family="Helvetica,sans-Serif" font-size="10.00">&#45;</text>
<text text-anchor="start" x="160.5" y="-111.5" font-family="Helvetica,sans-Serif" font-size="10.00">m_cohesive_packet</text>
<text text-anchor="start" x="151" y="-96.5" font-family="Helvetica,sans-Serif" font-size="10.00">&#45;</text>
<text text-anchor="start" x="160.5" y="-96.5" font-family="Helvetica,sans-Serif" font-size="10.00">m_parser</text>
<text text-anchor="start" x="149.5" y="-81.5" font-family="Helvetica,sans-Serif" font-size="10.00">+</text>
<text text-anchor="start" x="160.5" y="-81.5" font-family="Helvetica,sans-Serif" font-size="10.00">IndicationContextDeserialize()</text>
<text text-anchor="start" x="149.5" y="-66.5" font-family="Helvetica,sans-Serif" font-size="10.00">+</text>
<text text-anchor="start" x="160.5" y="-66.5" font-family="Helvetica,sans-Serif" font-size="10.00">parse_basic()</text>
<text text-anchor="start" x="149.5" y="-51.5" font-family="Helvetica,sans-Serif" font-size="10.00">+</text>
<text text-anchor="start" x="160.5" y="-51.5" font-family="Helvetica,sans-Serif" font-size="10.00">parse_common()</text>
<text text-anchor="start" x="149.5" y="-36.5" font-family="Helvetica,sans-Serif" font-size="10.00">+</text>
<text text-anchor="start" x="160.5" y="-36.5" font-family="Helvetica,sans-Serif" font-size="10.00">parse_secured()</text>
<text text-anchor="start" x="149.5" y="-21.5" font-family="Helvetica,sans-Serif" font-size="10.00">+</text>
<text text-anchor="start" x="160.5" y="-21.5" font-family="Helvetica,sans-Serif" font-size="10.00">parse_extended()</text>
<text text-anchor="start" x="149.5" y="-6.5" font-family="Helvetica,sans-Serif" font-size="10.00">+</text>
<text text-anchor="start" x="160.5" y="-6.5" font-family="Helvetica,sans-Serif" font-size="10.00">finish()</text>
<polygon fill="#bfbfbf" stroke="#bfbfbf" points="145.5,-136.5 145.5,-136.5 296.5,-136.5 296.5,-136.5 145.5,-136.5"/>
<polygon fill="#bfbfbf" stroke="#bfbfbf" points="145.5,-91.5 145.5,-91.5 158.5,-91.5 158.5,-91.5 145.5,-91.5"/>
<polygon fill="#bfbfbf" stroke="#bfbfbf" points="158.5,-91.5 158.5,-91.5 296.5,-91.5 296.5,-91.5 158.5,-91.5"/>
<polygon fill="none" stroke="#bfbfbf" points="145,0 145,-165 296,-165 296,0 145,0"/>
</a>
</g>
</g>
<!-- Node1&#45;&gt;Node4 -->
<g id="edge3_Node000001_Node000004" class="edge">
<title>Node1&#45;&gt;Node4</title>
<g id="a_edge3_Node000001_Node000004"><a xlink:title=" ">
<path fill="none" stroke="#63b8ff" d="M175.92,-191.57C179.51,-182.85 183.17,-173.99 186.76,-165.29"/>
<polygon fill="none" stroke="#63b8ff" points="172.62,-190.38 172.04,-200.96 179.09,-193.05 172.62,-190.38"/>
</a>
</g>
</g>
<!-- Node2 -->
<g id="Node000002" class="node">
<title>Node2</title>
<g id="a_Node000002"><a xlink:href="../../d0/db4/classvanetza_1_1geonet_1_1IndicationContext.html" target="_top" xlink:title=" ">
<polygon fill="white" stroke="transparent" points="205,-582 78,-582 78,-387 205,-387 205,-582"/>
<text text-anchor="start" x="83.5" y="-569.5" font-family="Helvetica,sans-Serif" font-size="10.00">vanetza::geonet::Indication</text>
<text text-anchor="start" x="124.5" y="-558.5" font-family="Helvetica,sans-Serif" font-size="10.00">Context</text>
<text text-anchor="start" x="140" y="-543.5" font-family="Helvetica,sans-Serif" font-size="10.00"> </text>
<text text-anchor="start" x="87" y="-528.5" font-family="Helvetica,sans-Serif" font-size="10.00">+</text>
<text text-anchor="start" x="102.5" y="-528.5" font-family="Helvetica,sans-Serif" font-size="10.00">parse_basic()</text>
<text text-anchor="start" x="87" y="-513.5" font-family="Helvetica,sans-Serif" font-size="10.00">+</text>
<text text-anchor="start" x="102.5" y="-513.5" font-family="Helvetica,sans-Serif" font-size="10.00">parse_common()</text>
<text text-anchor="start" x="87" y="-498.5" font-family="Helvetica,sans-Serif" font-size="10.00">+</text>
<text text-anchor="start" x="102.5" y="-498.5" font-family="Helvetica,sans-Serif" font-size="10.00">parse_secured()</text>
<text text-anchor="start" x="87" y="-483.5" font-family="Helvetica,sans-Serif" font-size="10.00">+</text>
<text text-anchor="start" x="102.5" y="-483.5" font-family="Helvetica,sans-Serif" font-size="10.00">parse_extended()</text>
<text text-anchor="start" x="87" y="-468.5" font-family="Helvetica,sans-Serif" font-size="10.00">+</text>
<text text-anchor="start" x="102.5" y="-468.5" font-family="Helvetica,sans-Serif" font-size="10.00">pdu()</text>
<text text-anchor="start" x="87" y="-453.5" font-family="Helvetica,sans-Serif" font-size="10.00">+</text>
<text text-anchor="start" x="102.5" y="-453.5" font-family="Helvetica,sans-Serif" font-size="10.00">pdu()</text>
<text text-anchor="start" x="87" y="-438.5" font-family="Helvetica,sans-Serif" font-size="10.00">+</text>
<text text-anchor="start" x="102.5" y="-438.5" font-family="Helvetica,sans-Serif" font-size="10.00">link_layer()</text>
<text text-anchor="start" x="87" y="-423.5" font-family="Helvetica,sans-Serif" font-size="10.00">+</text>
<text text-anchor="start" x="102.5" y="-423.5" font-family="Helvetica,sans-Serif" font-size="10.00">service_primitive()</text>
<text text-anchor="start" x="87" y="-408.5" font-family="Helvetica,sans-Serif" font-size="10.00">+</text>
<text text-anchor="start" x="102.5" y="-408.5" font-family="Helvetica,sans-Serif" font-size="10.00">finish()</text>
<text text-anchor="start" x="87" y="-393.5" font-family="Helvetica,sans-Serif" font-size="10.00">+</text>
<text text-anchor="start" x="102.5" y="-393.5" font-family="Helvetica,sans-Serif" font-size="10.00">~IndicationContext()</text>
<polygon fill="#666666" stroke="#666666" points="78.5,-553.5 78.5,-553.5 205.5,-553.5 205.5,-553.5 78.5,-553.5"/>
<polygon fill="#666666" stroke="#666666" points="78.5,-538.5 78.5,-538.5 205.5,-538.5 205.5,-538.5 78.5,-538.5"/>
<polygon fill="none" stroke="#666666" points="78,-387 78,-582 205,-582 205,-387 78,-387"/>
</a>
</g>
</g>
<!-- Node2&#45;&gt;Node1 -->
<g id="edge1_Node000001_Node000002" class="edge">
<title>Node2&#45;&gt;Node1</title>
<g id="a_edge1_Node000001_Node000002"><a xlink:title=" ">
<path fill="none" stroke="#63b8ff" d="M141.5,-376.79C141.5,-368.18 141.5,-359.6 141.5,-351.29"/>
<polygon fill="none" stroke="#63b8ff" points="138,-376.9 141.5,-386.9 145,-376.9 138,-376.9"/>
</a>
</g>
</g>
</g>
</svg>
