<?xml version="1.0" encoding="UTF-8" standalone="no"?>
<!DOCTYPE svg PUBLIC "-//W3C//DTD SVG 1.1//EN"
 "http://www.w3.org/Graphics/SVG/1.1/DTD/svg11.dtd">
<!-- Generated by graphviz version 2.49.3 (0)
 -->
<!-- Title: vanetza::geonet::IndicationContextBasic Pages: 1 -->
<!--zoomable 590 -->

<svg id="main" version="1.1" xmlns="http://www.w3.org/2000/svg" xmlns:xlink="http://www.w3.org/1999/xlink" xml:space="preserve" onload="init(evt)">

<style type="text/css"><![CDATA[
.node, .edge {opacity: 0.7;}
.node.selected, .edge.selected {opacity: 1;}
.edge:hover path { stroke: red; }
.edge:hover polygon { stroke: red; fill: red; }
]]></style>

<defs>
  <circle id="rim" cx="0" cy="0" r="7"/>
  <circle id="rim2" cx="0" cy="0" r="3.5"/>
  <g id="zoomPlus">
    <use xlink:href="#rim" fill="#404040"><set attributeName="fill" to="#808080" begin="zoomplus.mouseover" end="zoomplus.mouseout"/></use>
    <path d="M-4,0h8M0,-4v8" fill="none" stroke="white" stroke-width="1.5" pointer-events="none"/>
  </g>
  <g id="zoomMin">
    <use xlink:href="#rim" fill="#404040"><set attributeName="fill" to="#808080" begin="zoomminus.mouseover" end="zoomminus.mouseout"/></use>
    <path d="M-4,0h8" fill="none" stroke="white" stroke-width="1.5" pointer-events="none"/>
  </g>
  <g id="arrowUp" transform="translate(30 24)">
    <use xlink:href="#rim"/>
    <path pointer-events="none" fill="none" stroke="white" stroke-width="1.5" d="M0,-3.0v7 M-2.5,-0.5L0,-3.0L2.5,-0.5"/>
  </g>
  <g id="arrowRight" transform="rotate(90) translate(36 -43)">
    <use xlink:href="#rim"/>
    <path pointer-events="none" fill="none" stroke="white" stroke-width="1.5" d="M0,-3.0v7 M-2.5,-0.5L0,-3.0L2.5,-0.5"/>
  </g>
  <g id="arrowDown" transform="rotate(180) translate(-30 -48)">
    <use xlink:href="#rim"/>
    <path pointer-events="none" fill="none" stroke="white" stroke-width="1.5" d="M0,-3.0v7 M-2.5,-0.5L0,-3.0L2.5,-0.5"/>
  </g>
  <g id="arrowLeft" transform="rotate(270) translate(-36 17)">
    <use xlink:href="#rim"/>
    <path pointer-events="none" fill="none" stroke="white" stroke-width="1.5" d="M0,-3.0v7 M-2.5,-0.5L0,-3.0L2.5,-0.5"/>
  </g>
  <g id="resetDef">
    <use xlink:href="#rim2" fill="#404040"><set attributeName="fill" to="#808080" begin="reset.mouseover" end="reset.mouseout"/></use>
  </g>
</defs>
<script type="application/ecmascript">
var viewWidth = 304;
var viewHeight = 590;
var sectionId = 'dynsection-0';
</script>
<script type="application/ecmascript" xlink:href="../../svg.min.js"/>
<svg id="graph" class="graph">
<g id="viewport">
<title>vanetza::geonet::IndicationContextBasic</title>
<!-- Node1 -->
<g id="Node000001" class="node">
<title>Node1</title>
<g id="a_Node000001"><a xlink:title=" ">
<polygon fill="#999999" stroke="transparent" points="205,-351 78,-351 78,-201 205,-201 205,-351"/>
<text text-anchor="start" x="83.5" y="-339" font-family="Helvetica,sans-Serif" font-size="10.00">vanetza::geonet::Indication</text>
<text text-anchor="start" x="112" y="-328" font-family="Helvetica,sans-Serif" font-size="10.00">ContextBasic</text>
<text text-anchor="start" x="83" y="-313" font-family="Helvetica,sans-Serif" font-size="10.00">#</text>
<text text-anchor="start" x="93.5" y="-313" font-family="Helvetica,sans-Serif" font-size="10.00">m_link_layer</text>
<text text-anchor="start" x="83" y="-298" font-family="Helvetica,sans-Serif" font-size="10.00">#</text>
<text text-anchor="start" x="93.5" y="-298" font-family="Helvetica,sans-Serif" font-size="10.00">m_service_primitive</text>
<text text-anchor="start" x="83" y="-283" font-family="Helvetica,sans-Serif" font-size="10.00">#</text>
<text text-anchor="start" x="93.5" y="-283" font-family="Helvetica,sans-Serif" font-size="10.00">m_pdu</text>
<text text-anchor="start" x="82.5" y="-268" font-family="Helvetica,sans-Serif" font-size="10.00">+</text>
<text text-anchor="start" x="93.5" y="-268" font-family="Helvetica,sans-Serif" font-size="10.00">IndicationContextBasic()</text>
<text text-anchor="start" x="82.5" y="-253" font-family="Helvetica,sans-Serif" font-size="10.00">+</text>
<text text-anchor="start" x="93.5" y="-253" font-family="Helvetica,sans-Serif" font-size="10.00">link_layer()</text>
<text text-anchor="start" x="82.5" y="-238" font-family="Helvetica,sans-Serif" font-size="10.00">+</text>
<text text-anchor="start" x="93.5" y="-238" font-family="Helvetica,sans-Serif" font-size="10.00">service_primitive()</text>
<text text-anchor="start" x="82.5" y="-223" font-family="Helvetica,sans-Serif" font-size="10.00">+</text>
<text text-anchor="start" x="93.5" y="-223" font-family="Helvetica,sans-Serif" font-size="10.00">pdu()</text>
<text text-anchor="start" x="82.5" y="-208" font-family="Helvetica,sans-Serif" font-size="10.00">+</text>
<text text-anchor="start" x="93.5" y="-208" font-family="Helvetica,sans-Serif" font-size="10.00">pdu()</text>
<polygon fill="#666666" stroke="#666666" points="78.5,-323 78.5,-323 205.5,-323 205.5,-323 78.5,-323"/>
<polygon fill="#666666" stroke="#666666" points="78.5,-278 78.5,-278 91.5,-278 91.5,-278 78.5,-278"/>
<polygon fill="#666666" stroke="#666666" points="91.5,-278 91.5,-278 205.5,-278 205.5,-278 91.5,-278"/>
<polygon fill="none" stroke="#666666" points="78,-201 78,-351 205,-351 205,-201 78,-201"/>
</a>
</g>
</g>
<!-- Node3 -->
<g id="Node000003" class="node">
<title>Node3</title>
<g id="a_Node000003"><a xlink:href="../../dc/dad/classvanetza_1_1geonet_1_1IndicationContextCast.html" target="_top" xlink:title=" ">
<polygon fill="white" stroke="transparent" points="127,-150 0,-150 0,-15 127,-15 127,-150"/>
<text text-anchor="start" x="5.5" y="-137.5" font-family="Helvetica,sans-Serif" font-size="10.00">vanetza::geonet::Indication</text>
<text text-anchor="start" x="36" y="-126.5" font-family="Helvetica,sans-Serif" font-size="10.00">ContextCast</text>
<text text-anchor="start" x="7" y="-111.5" font-family="Helvetica,sans-Serif" font-size="10.00">&#45;</text>
<text text-anchor="start" x="17.5" y="-111.5" font-family="Helvetica,sans-Serif" font-size="10.00">m_packet</text>
<text text-anchor="start" x="5.5" y="-96.5" font-family="Helvetica,sans-Serif" font-size="10.00">+</text>
<text text-anchor="start" x="17.5" y="-96.5" font-family="Helvetica,sans-Serif" font-size="10.00">IndicationContextCast()</text>
<text text-anchor="start" x="5.5" y="-81.5" font-family="Helvetica,sans-Serif" font-size="10.00">+</text>
<text text-anchor="start" x="17.5" y="-81.5" font-family="Helvetica,sans-Serif" font-size="10.00">parse_basic()</text>
<text text-anchor="start" x="5.5" y="-66.5" font-family="Helvetica,sans-Serif" font-size="10.00">+</text>
<text text-anchor="start" x="17.5" y="-66.5" font-family="Helvetica,sans-Serif" font-size="10.00">parse_common()</text>
<text text-anchor="start" x="5.5" y="-51.5" font-family="Helvetica,sans-Serif" font-size="10.00">+</text>
<text text-anchor="start" x="17.5" y="-51.5" font-family="Helvetica,sans-Serif" font-size="10.00">parse_secured()</text>
<text text-anchor="start" x="5.5" y="-36.5" font-family="Helvetica,sans-Serif" font-size="10.00">+</text>
<text text-anchor="start" x="17.5" y="-36.5" font-family="Helvetica,sans-Serif" font-size="10.00">parse_extended()</text>
<text text-anchor="start" x="5.5" y="-21.5" font-family="Helvetica,sans-Serif" font-size="10.00">+</text>
<text text-anchor="start" x="17.5" y="-21.5" font-family="Helvetica,sans-Serif" font-size="10.00">finish()</text>
<polygon fill="#bfbfbf" stroke="#bfbfbf" points="0.5,-121.5 0.5,-121.5 127.5,-121.5 127.5,-121.5 0.5,-121.5"/>
<polygon fill="#bfbfbf" stroke="#bfbfbf" points="0.5,-106.5 0.5,-106.5 15.5,-106.5 15.5,-106.5 0.5,-106.5"/>
<polygon fill="#bfbfbf" stroke="#bfbfbf" points="15.5,-106.5 15.5,-106.5 127.5,-106.5 127.5,-106.5 15.5,-106.5"/>
<polygon fill="none" stroke="#bfbfbf" points="0,-15 0,-150 127,-150 127,-15 0,-15"/>
</a>
</g>
</g>
<!-- Node1&#45;&gt;Node3 -->
<g id="edge2_Node000001_Node000003" class="edge">
<title>Node1&#45;&gt;Node3</title>
<g id="a_edge2_Node000001_Node000003"><a xlink:title=" ">
<path fill="none" stroke="#63b8ff" d="M107.47,-191.46C101.85,-177.64 96.08,-163.48 90.65,-150.15"/>
<polygon fill="none" stroke="#63b8ff" points="104.33,-193.02 111.34,-200.96 110.81,-190.38 104.33,-193.02"/>
</a>
</g>
</g>
<!-- Node4 -->
<g id="Node000004" class="node">
<title>Node4</title>
<g id="a_Node000004"><a xlink:href="../../dd/d8e/classvanetza_1_1geonet_1_1IndicationContextDeserialize.html" target="_top" xlink:title=" ">
<polygon fill="white" stroke="transparent" points="296,-165 145,-165 145,0 296,0 296,-165"/>
<text text-anchor="start" x="162.5" y="-152.5" font-family="Helvetica,sans-Serif" font-size="10.00">vanetza::geonet::Indication</text>
<text text-anchor="start" x="179" y="-141.5" font-family="Helvetica,sans-Serif" font-size="10.00">ContextDeserialize</text>
<text text-anchor="start" x="151" y="-126.5" font-family="Helvetica,sans-Serif" font-size="10.00">&#45;</text>
<text text-anchor="start" x="160.5" y="-126.5" font-family="Helvetica,sans-Serif" font-size="10.00">m_packet</text>
<text text-anchor="start" x="151" y="-111.5" font-family="Helvetica,sans-Serif" font-size="10.00">&#45;</text>
<text text-anchor="start" x="160.5" y="-111.5" font-family="Helvetica,sans-Serif" font-size="10.00">m_cohesive_packet</text>
<text text-anchor="start" x="151" y="-96.5" font-family="Helvetica,sans-Serif" font-size="10.00">&#45;</text>
<text text-anchor="start" x="160.5" y="-96.5" font-family="Helvetica,sans-Serif" font-size="10.00">m_parser</text>
<text text-anchor="start" x="149.5" y="-81.5" font-family="Helvetica,sans-Serif" font-size="10.00">+</text>
<text text-anchor="start" x="160.5" y="-81.5" font-family="Helvetica,sans-Serif" font-size="10.00">IndicationContextDeserialize()</text>
<text text-anchor="start" x="149.5" y="-66.5" font-family="Helvetica,sans-Serif" font-size="10.00">+</text>
<text text-anchor="start" x="160.5" y="-66.5" font-family="Helvetica,sans-Serif" font-size="10.00">parse_basic()</text>
<text text-anchor="start" x="149.5" y="-51.5" font-family="Helvetica,sans-Serif" font-size="10.00">+</text>
<text text-anchor="start" x="160.5" y="-51.5" font-family="Helvetica,sans-Serif" font-size="10.00">parse_common()</text>
<text text-anchor="start" x="149.5" y="-36.5" font-family="Helvetica,sans-Serif" font-size="10.00">+</text>
<text text-anchor="start" x="160.5" y="-36.5" font-family="Helvetica,sans-Serif" font-size="10.00">parse_secured()</text>
<text text-anchor="start" x="149.5" y="-21.5" font-family="Helvetica,sans-Serif" font-size="10.00">+</text>
<text text-anchor="start" x="160.5" y="-21.5" font-family="Helvetica,sans-Serif" font-size="10.00">parse_extended()</text>
<text text-anchor="start" x="149.5" y="-6.5" font-family="Helvetica,sans-Serif" font-size="10.00">+</text>
<text text-anchor="start" x="160.5" y="-6.5" font-family="Helvetica,sans-Serif" font-size="10.00">finish()</text>
<polygon fill="#bfbfbf" stroke="#bfbfbf" points="145.5,-136.5 145.5,-136.5 296.5,-136.5 296.5,-136.5 145.5,-136.5"/>
<polygon fill="#bfbfbf" stroke="#bfbfbf" points="145.5,-91.5 145.5,-91.5 158.5,-91.5 158.5,-91.5 145.5,-91.5"/>
<polygon fill="#bfbfbf" stroke="#bfbfbf" points="158.5,-91.5 158.5,-91.5 296.5,-91.5 296.5,-91.5 158.5,-91.5"/>
<polygon fill="none" stroke="#bfbfbf" points="145,0 145,-165 296,-165 296,0 145,0"/>
</a>
</g>
</g>
<!-- Node1&#45;&gt;Node4 -->
<g id="edge3_Node000001_Node000004" class="edge">
<title>Node1&#45;&gt;Node4</title>
<g id="a_edge3_Node000001_Node000004"><a xlink:title=" ">
<path fill="none" stroke="#63b8ff" d="M175.92,-191.57C179.51,-182.85 183.17,-173.99 186.76,-165.29"/>
<polygon fill="none" stroke="#63b8ff" points="172.62,-190.38 172.04,-200.96 179.09,-193.05 172.62,-190.38"/>
</a>
</g>
</g>
<!-- Node2 -->
<g id="Node000002" class="node">
<title>Node2</title>
<g id="a_Node000002"><a xlink:href="../../d0/db4/classvanetza_1_1geonet_1_1IndicationContext.html" target="_top" xlink:title=" ">
<polygon fill="white" stroke="transparent" points="205,-582 78,-582 78,-387 205,-387 205,-582"/>
<text text-anchor="start" x="83.5" y="-569.5" font-family="Helvetica,sans-Serif" font-size="10.00">vanetza::geonet::Indication</text>
<text text-anchor="start" x="124.5" y="-558.5" font-family="Helvetica,sans-Serif" font-size="10.00">Context</text>
<text text-anchor="start" x="140" y="-543.5" font-family="Helvetica,sans-Serif" font-size="10.00"> </text>
<text text-anchor="start" x="87" y="-528.5" font-family="Helvetica,sans-Serif" font-size="10.00">+</text>
<text text-anchor="start" x="102.5" y="-528.5" font-family="Helvetica,sans-Serif" font-size="10.00">parse_basic()</text>
<text text-anchor="start" x="87" y="-513.5" font-family="Helvetica,sans-Serif" font-size="10.00">+</text>
<text text-anchor="start" x="102.5" y="-513.5" font-family="Helvetica,sans-Serif" font-size="10.00">parse_common()</text>
<text text-anchor="start" x="87" y="-498.5" font-family="Helvetica,sans-Serif" font-size="10.00">+</text>
<text text-anchor="start" x="102.5" y="-498.5" font-family="Helvetica,sans-Serif" font-size="10.00">parse_secured()</text>
<text text-anchor="start" x="87" y="-483.5" font-family="Helvetica,sans-Serif" font-size="10.00">+</text>
<text text-anchor="start" x="102.5" y="-483.5" font-family="Helvetica,sans-Serif" font-size="10.00">parse_extended()</text>
<text text-anchor="start" x="87" y="-468.5" font-family="Helvetica,sans-Serif" font-size="10.00">+</text>
<text text-anchor="start" x="102.5" y="-468.5" font-family="Helvetica,sans-Serif" font-size="10.00">pdu()</text>
<text text-anchor="start" x="87" y="-453.5" font-family="Helvetica,sans-Serif" font-size="10.00">+</text>
<text text-anchor="start" x="102.5" y="-453.5" font-family="Helvetica,sans-Serif" font-size="10.00">pdu()</text>
<text text-anchor="start" x="87" y="-438.5" font-family="Helvetica,sans-Serif" font-size="10.00">+</text>
<text text-anchor="start" x="102.5" y="-438.5" font-family="Helvetica,sans-Serif" font-size="10.00">link_layer()</text>
<text text-anchor="start" x="87" y="-423.5" font-family="Helvetica,sans-Serif" font-size="10.00">+</text>
<text text-anchor="start" x="102.5" y="-423.5" font-family="Helvetica,sans-Serif" font-size="10.00">service_primitive()</text>
<text text-anchor="start" x="87" y="-408.5" font-family="Helvetica,sans-Serif" font-size="10.00">+</text>
<text text-anchor="start" x="102.5" y="-408.5" font-family="Helvetica,sans-Serif" font-size="10.00">finish()</text>
<text text-anchor="start" x="87" y="-393.5" font-family="Helvetica,sans-Serif" font-size="10.00">+</text>
<text text-anchor="start" x="102.5" y="-393.5" font-family="Helvetica,sans-Serif" font-size="10.00">~IndicationContext()</text>
<polygon fill="#666666" stroke="#666666" points="78.5,-553.5 78.5,-553.5 205.5,-553.5 205.5,-553.5 78.5,-553.5"/>
<polygon fill="#666666" stroke="#666666" points="78.5,-538.5 78.5,-538.5 205.5,-538.5 205.5,-538.5 78.5,-538.5"/>
<polygon fill="none" stroke="#666666" points="78,-387 78,-582 205,-582 205,-387 78,-387"/>
</a>
</g>
</g>
<!-- Node2&#45;&gt;Node1 -->
<g id="edge1_Node000001_Node000002" class="edge">
<title>Node2&#45;&gt;Node1</title>
<g id="a_edge1_Node000001_Node000002"><a xlink:title=" ">
<path fill="none" stroke="#63b8ff" d="M141.5,-376.79C141.5,-368.18 141.5,-359.6 141.5,-351.29"/>
<polygon fill="none" stroke="#63b8ff" points="138,-376.9 141.5,-386.9 145,-376.9 138,-376.9"/>
</a>
</g>
</g>
</g>
</svg>

<g id="navigator" transform="translate(0 0)" fill="#404254">
  <rect fill="#f2f5e9" fill-opacity="0.5" stroke="#606060" stroke-width=".5" x="0" y="0" width="60" height="60"/>
  <use id="zoomplus" xlink:href="#zoomPlus" x="17" y="9" onmousedown="handleZoom(evt,'in')"/>
  <use id="zoomminus" xlink:href="#zoomMin" x="42" y="9" onmousedown="handleZoom(evt,'out')"/>
  <use id="reset" xlink:href="#resetDef" x="30" y="36" onmousedown="handleReset()"/>
   <use id="arrowup" xlink:href="#arrowUp" x="0" y="0" onmousedown="handlePan(0,-1)"/>
  <use id="arrowright" xlink:href="#arrowRight" x="0" y="0" onmousedown="handlePan(1,0)"/>
  <use id="arrowdown" xlink:href="#arrowDown" x="0" y="0" onmousedown="handlePan(0,1)"/>
  <use id="arrowleft" xlink:href="#arrowLeft" x="0" y="0" onmousedown="handlePan(-1,0)"/>
</g>
<svg viewBox="0 0 15 15" width="100%" height="30px" preserveAspectRatio="xMaxYMin meet">
 <g id="arrow_out" transform="scale(0.3 0.3)">
  <a xlink:href="classvanetza_1_1geonet_1_1IndicationContextBasic__inherit__graph_org.svg" target="_base">
   <rect id="button" ry="5" rx="5" y="6" x="6" height="38" width="38"
        fill="#f2f5e9" fill-opacity="0.5" stroke="#606060" stroke-width="1.0"/>
   <path id="arrow"
     d="M 11.500037,31.436501 C 11.940474,20.09759 22.043105,11.32322 32.158766,21.979434 L 37.068811,17.246167 C 37.068811,17.246167 37.088388,32 37.088388,32 L 22.160133,31.978069 C 22.160133,31.978069 26.997745,27.140456 26.997745,27.140456 C 18.528582,18.264221 13.291696,25.230495 11.500037,31.436501 z"
     style="fill:#404040;"/>
  </a>
 </g>
</svg>

<style type='text/css'>
<![CDATA[
[data-mouse-over-selected='false'] { opacity: 0.7; }
[data-mouse-over-selected='true']  { opacity: 1.0; }
]]>
</style>
<script type="application/ecmascript"><![CDATA[
document.addEventListener('DOMContentLoaded', (event) => {
  highlightEdges();
  highlightAdjacentNodes();
});
]]></script>
</svg>
