<?xml version="1.0" encoding="UTF-8" standalone="no"?>
<!DOCTYPE svg PUBLIC "-//W3C//DTD SVG 1.1//EN"
 "http://www.w3.org/Graphics/SVG/1.1/DTD/svg11.dtd">
<!-- Generated by graphviz version 2.42.1 (0)
 -->
<!-- Title: vanetza::geonet::IndicationContextBasic Pages: 1 -->
<svg width="318pt" height="529pt"
 viewBox="0.00 0.00 317.50 529.00" xmlns="http://www.w3.org/2000/svg" xmlns:xlink="http://www.w3.org/1999/xlink">
<g id="graph0" class="graph" transform="scale(1 1) rotate(0) translate(4 525)">
<title>vanetza::geonet::IndicationContextBasic</title>
<polygon fill="white" stroke="transparent" points="-4,4 -4,-525 313.5,-525 313.5,4 -4,4"/>
<!-- Node0 -->
<g id="node1" class="node">
<title>Node0</title>
<g id="a_node1"><a xlink:title=" ">
<polygon fill="#bfbfbf" stroke="black" points="82,-182.5 82,-316.5 216,-316.5 216,-182.5 82,-182.5"/>
<text text-anchor="start" x="90" y="-304.5" font-family="Helvetica,sans-Serif" font-size="10.00">vanetza::geonet::Indication</text>
<text text-anchor="middle" x="149" y="-293.5" font-family="Helvetica,sans-Serif" font-size="10.00">ContextBasic</text>
<polyline fill="none" stroke="black" points="82,-286.5 216,-286.5 "/>
<text text-anchor="start" x="90" y="-274.5" font-family="Helvetica,sans-Serif" font-size="10.00"># m_link_layer</text>
<text text-anchor="start" x="90" y="-263.5" font-family="Helvetica,sans-Serif" font-size="10.00"># m_service_primitive</text>
<text text-anchor="start" x="90" y="-252.5" font-family="Helvetica,sans-Serif" font-size="10.00"># m_pdu</text>
<polyline fill="none" stroke="black" points="82,-245.5 216,-245.5 "/>
<text text-anchor="start" x="90" y="-233.5" font-family="Helvetica,sans-Serif" font-size="10.00">+ IndicationContextBasic()</text>
<text text-anchor="start" x="90" y="-222.5" font-family="Helvetica,sans-Serif" font-size="10.00">+ link_layer()</text>
<text text-anchor="start" x="90" y="-211.5" font-family="Helvetica,sans-Serif" font-size="10.00">+ service_primitive()</text>
<text text-anchor="start" x="90" y="-200.5" font-family="Helvetica,sans-Serif" font-size="10.00">+ pdu()</text>
<text text-anchor="start" x="90" y="-189.5" font-family="Helvetica,sans-Serif" font-size="10.00">+ pdu()</text>
</a>
</g>
</g>
<!-- Node2 -->
<g id="node3" class="node">
<title>Node2</title>
<g id="a_node3"><a xlink:href="../../dc/dad/classvanetza_1_1geonet_1_1IndicationContextCast.html" target="_top" xlink:title=" ">
<polygon fill="white" stroke="black" points="0,-11.5 0,-134.5 134,-134.5 134,-11.5 0,-11.5"/>
<text text-anchor="start" x="8" y="-122.5" font-family="Helvetica,sans-Serif" font-size="10.00">vanetza::geonet::Indication</text>
<text text-anchor="middle" x="67" y="-111.5" font-family="Helvetica,sans-Serif" font-size="10.00">ContextCast</text>
<polyline fill="none" stroke="black" points="0,-104.5 134,-104.5 "/>
<text text-anchor="start" x="8" y="-92.5" font-family="Helvetica,sans-Serif" font-size="10.00">&#45; m_packet</text>
<polyline fill="none" stroke="black" points="0,-85.5 134,-85.5 "/>
<text text-anchor="start" x="8" y="-73.5" font-family="Helvetica,sans-Serif" font-size="10.00">+ IndicationContextCast()</text>
<text text-anchor="start" x="8" y="-62.5" font-family="Helvetica,sans-Serif" font-size="10.00">+ parse_basic()</text>
<text text-anchor="start" x="8" y="-51.5" font-family="Helvetica,sans-Serif" font-size="10.00">+ parse_common()</text>
<text text-anchor="start" x="8" y="-40.5" font-family="Helvetica,sans-Serif" font-size="10.00">+ parse_secured()</text>
<text text-anchor="start" x="8" y="-29.5" font-family="Helvetica,sans-Serif" font-size="10.00">+ parse_extended()</text>
<text text-anchor="start" x="8" y="-18.5" font-family="Helvetica,sans-Serif" font-size="10.00">+ finish()</text>
</a>
</g>
</g>
<!-- Node0&#45;&gt;Node2 -->
<g id="edge2" class="edge">
<title>Node0&#45;&gt;Node2</title>
<path fill="none" stroke="midnightblue" d="M113.43,-172.8C107.42,-160.01 101.25,-146.89 95.46,-134.56"/>
<polygon fill="none" stroke="midnightblue" points="110.34,-174.47 117.77,-182.03 116.68,-171.49 110.34,-174.47"/>
</g>
<!-- Node3 -->
<g id="node4" class="node">
<title>Node3</title>
<g id="a_node4"><a xlink:href="../../dd/d8e/classvanetza_1_1geonet_1_1IndicationContextDeserialize.html" target="_top" xlink:title=" ">
<polygon fill="white" stroke="black" points="152.5,-0.5 152.5,-145.5 309.5,-145.5 309.5,-0.5 152.5,-0.5"/>
<text text-anchor="start" x="160.5" y="-133.5" font-family="Helvetica,sans-Serif" font-size="10.00">vanetza::geonet::Indication</text>
<text text-anchor="middle" x="231" y="-122.5" font-family="Helvetica,sans-Serif" font-size="10.00">ContextDeserialize</text>
<polyline fill="none" stroke="black" points="152.5,-115.5 309.5,-115.5 "/>
<text text-anchor="start" x="160.5" y="-103.5" font-family="Helvetica,sans-Serif" font-size="10.00">&#45; m_packet</text>
<text text-anchor="start" x="160.5" y="-92.5" font-family="Helvetica,sans-Serif" font-size="10.00">&#45; m_cohesive_packet</text>
<text text-anchor="start" x="160.5" y="-81.5" font-family="Helvetica,sans-Serif" font-size="10.00">&#45; m_parser</text>
<polyline fill="none" stroke="black" points="152.5,-74.5 309.5,-74.5 "/>
<text text-anchor="start" x="160.5" y="-62.5" font-family="Helvetica,sans-Serif" font-size="10.00">+ IndicationContextDeserialize()</text>
<text text-anchor="start" x="160.5" y="-51.5" font-family="Helvetica,sans-Serif" font-size="10.00">+ parse_basic()</text>
<text text-anchor="start" x="160.5" y="-40.5" font-family="Helvetica,sans-Serif" font-size="10.00">+ parse_common()</text>
<text text-anchor="start" x="160.5" y="-29.5" font-family="Helvetica,sans-Serif" font-size="10.00">+ parse_secured()</text>
<text text-anchor="start" x="160.5" y="-18.5" font-family="Helvetica,sans-Serif" font-size="10.00">+ parse_extended()</text>
<text text-anchor="start" x="160.5" y="-7.5" font-family="Helvetica,sans-Serif" font-size="10.00">+ finish()</text>
</a>
</g>
</g>
<!-- Node0&#45;&gt;Node3 -->
<g id="edge3" class="edge">
<title>Node0&#45;&gt;Node3</title>
<path fill="none" stroke="midnightblue" d="M184.62,-172.7C188.86,-163.67 193.18,-154.48 197.39,-145.51"/>
<polygon fill="none" stroke="midnightblue" points="181.32,-171.49 180.23,-182.03 187.66,-174.47 181.32,-171.49"/>
</g>
<!-- Node1 -->
<g id="node2" class="node">
<title>Node1</title>
<g id="a_node2"><a xlink:href="../../d0/db4/classvanetza_1_1geonet_1_1IndicationContext.html" target="_top" xlink:title=" ">
<polygon fill="white" stroke="black" points="82,-353.5 82,-520.5 216,-520.5 216,-353.5 82,-353.5"/>
<text text-anchor="start" x="90" y="-508.5" font-family="Helvetica,sans-Serif" font-size="10.00">vanetza::geonet::Indication</text>
<text text-anchor="middle" x="149" y="-497.5" font-family="Helvetica,sans-Serif" font-size="10.00">Context</text>
<polyline fill="none" stroke="black" points="82,-490.5 216,-490.5 "/>
<text text-anchor="middle" x="149" y="-478.5" font-family="Helvetica,sans-Serif" font-size="10.00"> </text>
<polyline fill="none" stroke="black" points="82,-471.5 216,-471.5 "/>
<text text-anchor="start" x="90" y="-459.5" font-family="Helvetica,sans-Serif" font-size="10.00">+ parse_basic()</text>
<text text-anchor="start" x="90" y="-448.5" font-family="Helvetica,sans-Serif" font-size="10.00">+ parse_common()</text>
<text text-anchor="start" x="90" y="-437.5" font-family="Helvetica,sans-Serif" font-size="10.00">+ parse_secured()</text>
<text text-anchor="start" x="90" y="-426.5" font-family="Helvetica,sans-Serif" font-size="10.00">+ parse_extended()</text>
<text text-anchor="start" x="90" y="-415.5" font-family="Helvetica,sans-Serif" font-size="10.00">+ pdu()</text>
<text text-anchor="start" x="90" y="-404.5" font-family="Helvetica,sans-Serif" font-size="10.00">+ pdu()</text>
<text text-anchor="start" x="90" y="-393.5" font-family="Helvetica,sans-Serif" font-size="10.00">+ link_layer()</text>
<text text-anchor="start" x="90" y="-382.5" font-family="Helvetica,sans-Serif" font-size="10.00">+ service_primitive()</text>
<text text-anchor="start" x="90" y="-371.5" font-family="Helvetica,sans-Serif" font-size="10.00">+ finish()</text>
<text text-anchor="start" x="90" y="-360.5" font-family="Helvetica,sans-Serif" font-size="10.00">+ ~IndicationContext()</text>
</a>
</g>
</g>
<!-- Node1&#45;&gt;Node0 -->
<g id="edge1" class="edge">
<title>Node1&#45;&gt;Node0</title>
<path fill="none" stroke="midnightblue" d="M149,-343.19C149,-334.22 149,-325.26 149,-316.64"/>
<polygon fill="none" stroke="midnightblue" points="145.5,-343.29 149,-353.29 152.5,-343.29 145.5,-343.29"/>
</g>
</g>
</svg>
