<?xml version="1.0" encoding="UTF-8" standalone="no"?>
<!DOCTYPE svg PUBLIC "-//W3C//DTD SVG 1.1//EN"
 "http://www.w3.org/Graphics/SVG/1.1/DTD/svg11.dtd">
<!-- Generated by graphviz version 2.42.3 (0)
 -->
<!-- Title: vanetza::geonet::IndicationContextBasic Pages: 1 -->
<svg width="316pt" height="529pt"
 viewBox="0.00 0.00 316.00 529.00" xmlns="http://www.w3.org/2000/svg" xmlns:xlink="http://www.w3.org/1999/xlink">
<g id="graph0" class="graph" transform="scale(1 1) rotate(0) translate(4 525)">
<title>vanetza::geonet::IndicationContextBasic</title>
<polygon fill="white" stroke="transparent" points="-4,4 -4,-525 312,-525 312,4 -4,4"/>
<!-- Node1 -->
<g id="node1" class="node">
<title>Node1</title>
<g id="a_node1"><a xlink:title=" ">
<polygon fill="#bfbfbf" stroke="black" points="81,-182.5 81,-316.5 214,-316.5 214,-182.5 81,-182.5"/>
<text text-anchor="start" x="89" y="-304.5" font-family="Helvetica,sans-Serif" font-size="10.00">vanetza::geonet::Indication</text>
<text text-anchor="middle" x="147.5" y="-293.5" font-family="Helvetica,sans-Serif" font-size="10.00">ContextBasic</text>
<polyline fill="none" stroke="black" points="81,-286.5 214,-286.5 "/>
<text text-anchor="start" x="89" y="-274.5" font-family="Helvetica,sans-Serif" font-size="10.00"># m_link_layer</text>
<text text-anchor="start" x="89" y="-263.5" font-family="Helvetica,sans-Serif" font-size="10.00"># m_service_primitive</text>
<text text-anchor="start" x="89" y="-252.5" font-family="Helvetica,sans-Serif" font-size="10.00"># m_pdu</text>
<polyline fill="none" stroke="black" points="81,-245.5 214,-245.5 "/>
<text text-anchor="start" x="89" y="-233.5" font-family="Helvetica,sans-Serif" font-size="10.00">+ IndicationContextBasic()</text>
<text text-anchor="start" x="89" y="-222.5" font-family="Helvetica,sans-Serif" font-size="10.00">+ link_layer()</text>
<text text-anchor="start" x="89" y="-211.5" font-family="Helvetica,sans-Serif" font-size="10.00">+ service_primitive()</text>
<text text-anchor="start" x="89" y="-200.5" font-family="Helvetica,sans-Serif" font-size="10.00">+ pdu()</text>
<text text-anchor="start" x="89" y="-189.5" font-family="Helvetica,sans-Serif" font-size="10.00">+ pdu()</text>
</a>
</g>
</g>
<!-- Node3 -->
<g id="node3" class="node">
<title>Node3</title>
<g id="a_node3"><a xlink:href="../../dc/dad/classvanetza_1_1geonet_1_1IndicationContextCast.html" target="_top" xlink:title=" ">
<polygon fill="white" stroke="black" points="0,-11.5 0,-134.5 133,-134.5 133,-11.5 0,-11.5"/>
<text text-anchor="start" x="8" y="-122.5" font-family="Helvetica,sans-Serif" font-size="10.00">vanetza::geonet::Indication</text>
<text text-anchor="middle" x="66.5" y="-111.5" font-family="Helvetica,sans-Serif" font-size="10.00">ContextCast</text>
<polyline fill="none" stroke="black" points="0,-104.5 133,-104.5 "/>
<text text-anchor="start" x="8" y="-92.5" font-family="Helvetica,sans-Serif" font-size="10.00">&#45; m_packet</text>
<polyline fill="none" stroke="black" points="0,-85.5 133,-85.5 "/>
<text text-anchor="start" x="8" y="-73.5" font-family="Helvetica,sans-Serif" font-size="10.00">+ IndicationContextCast()</text>
<text text-anchor="start" x="8" y="-62.5" font-family="Helvetica,sans-Serif" font-size="10.00">+ parse_basic()</text>
<text text-anchor="start" x="8" y="-51.5" font-family="Helvetica,sans-Serif" font-size="10.00">+ parse_common()</text>
<text text-anchor="start" x="8" y="-40.5" font-family="Helvetica,sans-Serif" font-size="10.00">+ parse_secured()</text>
<text text-anchor="start" x="8" y="-29.5" font-family="Helvetica,sans-Serif" font-size="10.00">+ parse_extended()</text>
<text text-anchor="start" x="8" y="-18.5" font-family="Helvetica,sans-Serif" font-size="10.00">+ finish()</text>
</a>
</g>
</g>
<!-- Node1&#45;&gt;Node3 -->
<g id="edge2" class="edge">
<title>Node1&#45;&gt;Node3</title>
<path fill="none" stroke="midnightblue" d="M112.36,-172.8C106.43,-160.01 100.33,-146.89 94.61,-134.56"/>
<polygon fill="none" stroke="midnightblue" points="109.26,-174.43 116.65,-182.03 115.61,-171.49 109.26,-174.43"/>
</g>
<!-- Node4 -->
<g id="node4" class="node">
<title>Node4</title>
<g id="a_node4"><a xlink:href="../../dd/d8e/classvanetza_1_1geonet_1_1IndicationContextDeserialize.html" target="_top" xlink:title=" ">
<polygon fill="white" stroke="black" points="151,-0.5 151,-145.5 308,-145.5 308,-0.5 151,-0.5"/>
<text text-anchor="start" x="159" y="-133.5" font-family="Helvetica,sans-Serif" font-size="10.00">vanetza::geonet::Indication</text>
<text text-anchor="middle" x="229.5" y="-122.5" font-family="Helvetica,sans-Serif" font-size="10.00">ContextDeserialize</text>
<polyline fill="none" stroke="black" points="151,-115.5 308,-115.5 "/>
<text text-anchor="start" x="159" y="-103.5" font-family="Helvetica,sans-Serif" font-size="10.00">&#45; m_packet</text>
<text text-anchor="start" x="159" y="-92.5" font-family="Helvetica,sans-Serif" font-size="10.00">&#45; m_cohesive_packet</text>
<text text-anchor="start" x="159" y="-81.5" font-family="Helvetica,sans-Serif" font-size="10.00">&#45; m_parser</text>
<polyline fill="none" stroke="black" points="151,-74.5 308,-74.5 "/>
<text text-anchor="start" x="159" y="-62.5" font-family="Helvetica,sans-Serif" font-size="10.00">+ IndicationContextDeserialize()</text>
<text text-anchor="start" x="159" y="-51.5" font-family="Helvetica,sans-Serif" font-size="10.00">+ parse_basic()</text>
<text text-anchor="start" x="159" y="-40.5" font-family="Helvetica,sans-Serif" font-size="10.00">+ parse_common()</text>
<text text-anchor="start" x="159" y="-29.5" font-family="Helvetica,sans-Serif" font-size="10.00">+ parse_secured()</text>
<text text-anchor="start" x="159" y="-18.5" font-family="Helvetica,sans-Serif" font-size="10.00">+ parse_extended()</text>
<text text-anchor="start" x="159" y="-7.5" font-family="Helvetica,sans-Serif" font-size="10.00">+ finish()</text>
</a>
</g>
</g>
<!-- Node1&#45;&gt;Node4 -->
<g id="edge3" class="edge">
<title>Node1&#45;&gt;Node4</title>
<path fill="none" stroke="midnightblue" d="M183.12,-172.7C187.36,-163.67 191.68,-154.48 195.89,-145.51"/>
<polygon fill="none" stroke="midnightblue" points="179.82,-171.49 178.73,-182.03 186.16,-174.47 179.82,-171.49"/>
</g>
<!-- Node2 -->
<g id="node2" class="node">
<title>Node2</title>
<g id="a_node2"><a xlink:href="../../d0/db4/classvanetza_1_1geonet_1_1IndicationContext.html" target="_top" xlink:title=" ">
<polygon fill="white" stroke="black" points="81,-353.5 81,-520.5 214,-520.5 214,-353.5 81,-353.5"/>
<text text-anchor="start" x="89" y="-508.5" font-family="Helvetica,sans-Serif" font-size="10.00">vanetza::geonet::Indication</text>
<text text-anchor="middle" x="147.5" y="-497.5" font-family="Helvetica,sans-Serif" font-size="10.00">Context</text>
<polyline fill="none" stroke="black" points="81,-490.5 214,-490.5 "/>
<text text-anchor="middle" x="147.5" y="-478.5" font-family="Helvetica,sans-Serif" font-size="10.00"> </text>
<polyline fill="none" stroke="black" points="81,-471.5 214,-471.5 "/>
<text text-anchor="start" x="89" y="-459.5" font-family="Helvetica,sans-Serif" font-size="10.00">+ parse_basic()</text>
<text text-anchor="start" x="89" y="-448.5" font-family="Helvetica,sans-Serif" font-size="10.00">+ parse_common()</text>
<text text-anchor="start" x="89" y="-437.5" font-family="Helvetica,sans-Serif" font-size="10.00">+ parse_secured()</text>
<text text-anchor="start" x="89" y="-426.5" font-family="Helvetica,sans-Serif" font-size="10.00">+ parse_extended()</text>
<text text-anchor="start" x="89" y="-415.5" font-family="Helvetica,sans-Serif" font-size="10.00">+ pdu()</text>
<text text-anchor="start" x="89" y="-404.5" font-family="Helvetica,sans-Serif" font-size="10.00">+ pdu()</text>
<text text-anchor="start" x="89" y="-393.5" font-family="Helvetica,sans-Serif" font-size="10.00">+ link_layer()</text>
<text text-anchor="start" x="89" y="-382.5" font-family="Helvetica,sans-Serif" font-size="10.00">+ service_primitive()</text>
<text text-anchor="start" x="89" y="-371.5" font-family="Helvetica,sans-Serif" font-size="10.00">+ finish()</text>
<text text-anchor="start" x="89" y="-360.5" font-family="Helvetica,sans-Serif" font-size="10.00">+ ~IndicationContext()</text>
</a>
</g>
</g>
<!-- Node2&#45;&gt;Node1 -->
<g id="edge1" class="edge">
<title>Node2&#45;&gt;Node1</title>
<path fill="none" stroke="midnightblue" d="M147.5,-343.19C147.5,-334.22 147.5,-325.26 147.5,-316.64"/>
<polygon fill="none" stroke="midnightblue" points="144,-343.29 147.5,-353.29 151,-343.29 144,-343.29"/>
</g>
</g>
</svg>
