<?xml version="1.0" encoding="UTF-8" standalone="no"?>
<!DOCTYPE svg PUBLIC "-//W3C//DTD SVG 1.1//EN"
 "http://www.w3.org/Graphics/SVG/1.1/DTD/svg11.dtd">
<!-- Generated by graphviz version 2.42.3 (0)
 -->
<!-- Title: vanetza::security::CertificateValidator Pages: 1 -->
<svg width="308pt" height="226pt"
 viewBox="0.00 0.00 308.00 226.00" xmlns="http://www.w3.org/2000/svg" xmlns:xlink="http://www.w3.org/1999/xlink">
<g id="graph0" class="graph" transform="scale(1 1) rotate(0) translate(4 222)">
<title>vanetza::security::CertificateValidator</title>
<polygon fill="white" stroke="transparent" points="-4,4 -4,-222 304,-222 304,4 -4,4"/>
<!-- Node1 -->
<g id="node1" class="node">
<title>Node1</title>
<g id="a_node1"><a xlink:title=" ">
<polygon fill="#bfbfbf" stroke="black" points="91.5,-138.5 91.5,-217.5 212.5,-217.5 212.5,-138.5 91.5,-138.5"/>
<text text-anchor="start" x="99.5" y="-205.5" font-family="Helvetica,sans-Serif" font-size="10.00">vanetza::security::</text>
<text text-anchor="middle" x="152" y="-194.5" font-family="Helvetica,sans-Serif" font-size="10.00">CertificateValidator</text>
<polyline fill="none" stroke="black" points="91.5,-187.5 212.5,-187.5 "/>
<text text-anchor="middle" x="152" y="-175.5" font-family="Helvetica,sans-Serif" font-size="10.00"> </text>
<polyline fill="none" stroke="black" points="91.5,-168.5 212.5,-168.5 "/>
<text text-anchor="start" x="99.5" y="-156.5" font-family="Helvetica,sans-Serif" font-size="10.00">+ check_certificate()</text>
<text text-anchor="start" x="99.5" y="-145.5" font-family="Helvetica,sans-Serif" font-size="10.00">+ ~CertificateValidator()</text>
</a>
</g>
</g>
<!-- Node2 -->
<g id="node2" class="node">
<title>Node2</title>
<g id="a_node2"><a xlink:href="../../de/d8a/classvanetza_1_1security_1_1DefaultCertificateValidator.html" target="_top" xlink:title="The default certificate validator.">
<polygon fill="white" stroke="black" points="0,-0.5 0,-101.5 146,-101.5 146,-0.5 0,-0.5"/>
<text text-anchor="start" x="8" y="-89.5" font-family="Helvetica,sans-Serif" font-size="10.00">vanetza::security::</text>
<text text-anchor="middle" x="73" y="-78.5" font-family="Helvetica,sans-Serif" font-size="10.00">DefaultCertificateValidator</text>
<polyline fill="none" stroke="black" points="0,-71.5 146,-71.5 "/>
<text text-anchor="start" x="8" y="-59.5" font-family="Helvetica,sans-Serif" font-size="10.00">&#45; m_crypto_backend</text>
<text text-anchor="start" x="8" y="-48.5" font-family="Helvetica,sans-Serif" font-size="10.00">&#45; m_cert_cache</text>
<text text-anchor="start" x="8" y="-37.5" font-family="Helvetica,sans-Serif" font-size="10.00">&#45; m_trust_store</text>
<polyline fill="none" stroke="black" points="0,-30.5 146,-30.5 "/>
<text text-anchor="start" x="8" y="-18.5" font-family="Helvetica,sans-Serif" font-size="10.00">+ DefaultCertificateValidator()</text>
<text text-anchor="start" x="8" y="-7.5" font-family="Helvetica,sans-Serif" font-size="10.00">+ check_certificate()</text>
</a>
</g>
</g>
<!-- Node1&#45;&gt;Node2 -->
<g id="edge1" class="edge">
<title>Node1&#45;&gt;Node2</title>
<path fill="none" stroke="midnightblue" d="M122.19,-129.83C116.38,-120.63 110.27,-110.97 104.4,-101.69"/>
<polygon fill="none" stroke="midnightblue" points="119.35,-131.89 127.65,-138.48 125.27,-128.15 119.35,-131.89"/>
</g>
<!-- Node3 -->
<g id="node3" class="node">
<title>Node3</title>
<g id="a_node3"><a xlink:href="../../d3/dac/classvanetza_1_1security_1_1NullCertificateValidator.html" target="_top" xlink:title=" ">
<polygon fill="white" stroke="black" points="164,-6 164,-96 300,-96 300,-6 164,-6"/>
<text text-anchor="start" x="172" y="-84" font-family="Helvetica,sans-Serif" font-size="10.00">vanetza::security::</text>
<text text-anchor="middle" x="232" y="-73" font-family="Helvetica,sans-Serif" font-size="10.00">NullCertificateValidator</text>
<polyline fill="none" stroke="black" points="164,-66 300,-66 "/>
<text text-anchor="start" x="172" y="-54" font-family="Helvetica,sans-Serif" font-size="10.00">&#45; m_check_result</text>
<polyline fill="none" stroke="black" points="164,-47 300,-47 "/>
<text text-anchor="start" x="172" y="-35" font-family="Helvetica,sans-Serif" font-size="10.00">+ NullCertificateValidator()</text>
<text text-anchor="start" x="172" y="-24" font-family="Helvetica,sans-Serif" font-size="10.00">+ check_certificate()</text>
<text text-anchor="start" x="172" y="-13" font-family="Helvetica,sans-Serif" font-size="10.00">+ certificate_check_result()</text>
</a>
</g>
</g>
<!-- Node1&#45;&gt;Node3 -->
<g id="edge2" class="edge">
<title>Node1&#45;&gt;Node3</title>
<path fill="none" stroke="midnightblue" d="M182.19,-129.83C189.22,-118.84 196.69,-107.17 203.65,-96.3"/>
<polygon fill="none" stroke="midnightblue" points="179.1,-128.17 176.66,-138.48 184.99,-131.94 179.1,-128.17"/>
</g>
</g>
</svg>
