<?xml version="1.0" encoding="UTF-8" standalone="no"?>
<!DOCTYPE svg PUBLIC "-//W3C//DTD SVG 1.1//EN"
 "http://www.w3.org/Graphics/SVG/1.1/DTD/svg11.dtd">
<!-- Generated by graphviz version 2.42.1 (0)
 -->
<!-- Title: vanetza::geonet::ConstAccessiblePdu Pages: 1 -->
<svg width="370pt" height="606pt"
 viewBox="0.00 0.00 370.00 606.00" xmlns="http://www.w3.org/2000/svg" xmlns:xlink="http://www.w3.org/1999/xlink">
<g id="graph0" class="graph" transform="scale(1 1) rotate(0) translate(4 602)">
<title>vanetza::geonet::ConstAccessiblePdu</title>
<polygon fill="white" stroke="transparent" points="-4,4 -4,-602 366,-602 366,4 -4,4"/>
<!-- Node0 -->
<g id="node1" class="node">
<title>Node0</title>
<g id="a_node1"><a xlink:title=" ">
<polygon fill="#bfbfbf" stroke="black" points="51,-485.5 51,-597.5 235,-597.5 235,-485.5 51,-485.5"/>
<text text-anchor="middle" x="143" y="-585.5" font-family="Helvetica,sans-Serif" font-size="10.00">vanetza::geonet::ConstAccessiblePdu</text>
<polyline fill="none" stroke="black" points="51,-578.5 235,-578.5 "/>
<text text-anchor="middle" x="143" y="-566.5" font-family="Helvetica,sans-Serif" font-size="10.00"> </text>
<polyline fill="none" stroke="black" points="51,-559.5 235,-559.5 "/>
<text text-anchor="start" x="59" y="-547.5" font-family="Helvetica,sans-Serif" font-size="10.00">+ basic()</text>
<text text-anchor="start" x="59" y="-536.5" font-family="Helvetica,sans-Serif" font-size="10.00">+ common()</text>
<text text-anchor="start" x="59" y="-525.5" font-family="Helvetica,sans-Serif" font-size="10.00">+ secured()</text>
<text text-anchor="start" x="59" y="-514.5" font-family="Helvetica,sans-Serif" font-size="10.00">+ extended_variant()</text>
<text text-anchor="start" x="59" y="-503.5" font-family="Helvetica,sans-Serif" font-size="10.00">+ clone()</text>
<text text-anchor="start" x="59" y="-492.5" font-family="Helvetica,sans-Serif" font-size="10.00">+ ~ConstAccessiblePdu()</text>
</a>
</g>
</g>
<!-- Node1 -->
<g id="node2" class="node">
<title>Node1</title>
<g id="a_node2"><a xlink:href="../../d5/d01/classvanetza_1_1geonet_1_1ExtendedPduConstRefs.html" target="_top" xlink:title=" ">
<polygon fill="white" stroke="black" points="0,-270.5 0,-448.5 142,-448.5 142,-270.5 0,-270.5"/>
<text text-anchor="start" x="8" y="-436.5" font-family="Helvetica,sans-Serif" font-size="10.00">vanetza::geonet::Extended</text>
<text text-anchor="middle" x="71" y="-425.5" font-family="Helvetica,sans-Serif" font-size="10.00">PduConstRefs&lt; HEADER &gt;</text>
<polyline fill="none" stroke="black" points="0,-418.5 142,-418.5 "/>
<text text-anchor="start" x="8" y="-406.5" font-family="Helvetica,sans-Serif" font-size="10.00">&#45; mr_basic</text>
<text text-anchor="start" x="8" y="-395.5" font-family="Helvetica,sans-Serif" font-size="10.00">&#45; mr_common</text>
<text text-anchor="start" x="8" y="-384.5" font-family="Helvetica,sans-Serif" font-size="10.00">&#45; mr_extended</text>
<text text-anchor="start" x="8" y="-373.5" font-family="Helvetica,sans-Serif" font-size="10.00">&#45; mp_secured</text>
<polyline fill="none" stroke="black" points="0,-366.5 142,-366.5 "/>
<text text-anchor="start" x="8" y="-354.5" font-family="Helvetica,sans-Serif" font-size="10.00">+ ExtendedPduConstRefs()</text>
<text text-anchor="start" x="8" y="-343.5" font-family="Helvetica,sans-Serif" font-size="10.00">+ ExtendedPduConstRefs()</text>
<text text-anchor="start" x="8" y="-332.5" font-family="Helvetica,sans-Serif" font-size="10.00">+ basic()</text>
<text text-anchor="start" x="8" y="-321.5" font-family="Helvetica,sans-Serif" font-size="10.00">+ common()</text>
<text text-anchor="start" x="8" y="-310.5" font-family="Helvetica,sans-Serif" font-size="10.00">+ extended_variant()</text>
<text text-anchor="start" x="8" y="-299.5" font-family="Helvetica,sans-Serif" font-size="10.00">+ extended()</text>
<text text-anchor="start" x="8" y="-288.5" font-family="Helvetica,sans-Serif" font-size="10.00">+ secured()</text>
<text text-anchor="start" x="8" y="-277.5" font-family="Helvetica,sans-Serif" font-size="10.00">+ clone()</text>
</a>
</g>
</g>
<!-- Node0&#45;&gt;Node1 -->
<g id="edge1" class="edge">
<title>Node0&#45;&gt;Node1</title>
<path fill="none" stroke="midnightblue" d="M117.05,-475.63C113.53,-466.84 109.88,-457.69 106.23,-448.57"/>
<polygon fill="none" stroke="midnightblue" points="113.85,-477.04 120.81,-485.03 120.35,-474.44 113.85,-477.04"/>
</g>
<!-- Node2 -->
<g id="node3" class="node">
<title>Node2</title>
<g id="a_node3"><a xlink:href="../../dc/d8c/classvanetza_1_1geonet_1_1Pdu.html" target="_top" xlink:title=" ">
<polygon fill="white" stroke="black" points="160,-292.5 160,-426.5 270,-426.5 270,-292.5 160,-292.5"/>
<text text-anchor="middle" x="215" y="-414.5" font-family="Helvetica,sans-Serif" font-size="10.00">vanetza::geonet::Pdu</text>
<polyline fill="none" stroke="black" points="160,-407.5 270,-407.5 "/>
<text text-anchor="middle" x="215" y="-395.5" font-family="Helvetica,sans-Serif" font-size="10.00"> </text>
<polyline fill="none" stroke="black" points="160,-388.5 270,-388.5 "/>
<text text-anchor="start" x="168" y="-376.5" font-family="Helvetica,sans-Serif" font-size="10.00">+ basic()</text>
<text text-anchor="start" x="168" y="-365.5" font-family="Helvetica,sans-Serif" font-size="10.00">+ common()</text>
<text text-anchor="start" x="168" y="-354.5" font-family="Helvetica,sans-Serif" font-size="10.00">+ secured()</text>
<text text-anchor="start" x="168" y="-343.5" font-family="Helvetica,sans-Serif" font-size="10.00">+ secured()</text>
<text text-anchor="start" x="168" y="-332.5" font-family="Helvetica,sans-Serif" font-size="10.00">+ secured()</text>
<text text-anchor="start" x="168" y="-321.5" font-family="Helvetica,sans-Serif" font-size="10.00">+ basic()</text>
<text text-anchor="start" x="168" y="-310.5" font-family="Helvetica,sans-Serif" font-size="10.00">+ common()</text>
<text text-anchor="start" x="168" y="-299.5" font-family="Helvetica,sans-Serif" font-size="10.00">+ secured()</text>
</a>
</g>
</g>
<!-- Node0&#45;&gt;Node2 -->
<g id="edge2" class="edge">
<title>Node0&#45;&gt;Node2</title>
<path fill="none" stroke="midnightblue" d="M169.08,-475.31C175.42,-459.44 182.22,-442.45 188.58,-426.54"/>
<polygon fill="none" stroke="midnightblue" points="165.65,-474.44 165.19,-485.03 172.15,-477.04 165.65,-474.44"/>
</g>
<!-- Node3 -->
<g id="node4" class="node">
<title>Node3</title>
<g id="a_node4"><a xlink:href="../../d9/d6e/classvanetza_1_1geonet_1_1ExtendedPdu.html" target="_top" xlink:title=" ">
<polygon fill="white" stroke="black" points="70,-11.5 70,-222.5 204,-222.5 204,-11.5 70,-11.5"/>
<text text-anchor="start" x="78" y="-210.5" font-family="Helvetica,sans-Serif" font-size="10.00">vanetza::geonet::Extended</text>
<text text-anchor="middle" x="137" y="-199.5" font-family="Helvetica,sans-Serif" font-size="10.00">Pdu&lt; HEADER &gt;</text>
<polyline fill="none" stroke="black" points="70,-192.5 204,-192.5 "/>
<text text-anchor="start" x="78" y="-180.5" font-family="Helvetica,sans-Serif" font-size="10.00">&#45; m_basic</text>
<text text-anchor="start" x="78" y="-169.5" font-family="Helvetica,sans-Serif" font-size="10.00">&#45; m_common</text>
<text text-anchor="start" x="78" y="-158.5" font-family="Helvetica,sans-Serif" font-size="10.00">&#45; m_extended</text>
<text text-anchor="start" x="78" y="-147.5" font-family="Helvetica,sans-Serif" font-size="10.00">&#45; m_secured</text>
<polyline fill="none" stroke="black" points="70,-140.5 204,-140.5 "/>
<text text-anchor="start" x="78" y="-128.5" font-family="Helvetica,sans-Serif" font-size="10.00">+ ExtendedPdu()</text>
<text text-anchor="start" x="78" y="-117.5" font-family="Helvetica,sans-Serif" font-size="10.00">+ ExtendedPdu()</text>
<text text-anchor="start" x="78" y="-106.5" font-family="Helvetica,sans-Serif" font-size="10.00">+ operator=()</text>
<text text-anchor="start" x="78" y="-95.5" font-family="Helvetica,sans-Serif" font-size="10.00">+ ExtendedPdu()</text>
<text text-anchor="start" x="78" y="-84.5" font-family="Helvetica,sans-Serif" font-size="10.00">+ ExtendedPdu()</text>
<text text-anchor="start" x="78" y="-73.5" font-family="Helvetica,sans-Serif" font-size="10.00">+ ExtendedPdu()</text>
<text text-anchor="start" x="78" y="-62.5" font-family="Helvetica,sans-Serif" font-size="10.00">+ ExtendedPdu()</text>
<text text-anchor="start" x="78" y="-51.5" font-family="Helvetica,sans-Serif" font-size="10.00">+ ExtendedPdu()</text>
<text text-anchor="start" x="78" y="-40.5" font-family="Helvetica,sans-Serif" font-size="10.00">+ basic()</text>
<text text-anchor="start" x="78" y="-29.5" font-family="Helvetica,sans-Serif" font-size="10.00">+ basic()</text>
<text text-anchor="start" x="78" y="-18.5" font-family="Helvetica,sans-Serif" font-size="10.00">and 10 more...</text>
</a>
</g>
</g>
<!-- Node2&#45;&gt;Node3 -->
<g id="edge3" class="edge">
<title>Node2&#45;&gt;Node3</title>
<path fill="none" stroke="midnightblue" d="M190.5,-282.95C184.3,-263.85 177.54,-243 170.97,-222.74"/>
<polygon fill="none" stroke="midnightblue" points="187.17,-284.03 193.58,-292.46 193.83,-281.87 187.17,-284.03"/>
</g>
<!-- Node4 -->
<g id="node5" class="node">
<title>Node4</title>
<g id="a_node5"><a xlink:href="../../d7/d84/classvanetza_1_1geonet_1_1VariantPdu.html" target="_top" xlink:title=" ">
<polygon fill="white" stroke="black" points="222,-0.5 222,-233.5 362,-233.5 362,-0.5 222,-0.5"/>
<text text-anchor="middle" x="292" y="-221.5" font-family="Helvetica,sans-Serif" font-size="10.00">vanetza::geonet::VariantPdu</text>
<polyline fill="none" stroke="black" points="222,-214.5 362,-214.5 "/>
<text text-anchor="start" x="230" y="-202.5" font-family="Helvetica,sans-Serif" font-size="10.00">&#45; m_basic</text>
<text text-anchor="start" x="230" y="-191.5" font-family="Helvetica,sans-Serif" font-size="10.00">&#45; m_common</text>
<text text-anchor="start" x="230" y="-180.5" font-family="Helvetica,sans-Serif" font-size="10.00">&#45; m_extended</text>
<text text-anchor="start" x="230" y="-169.5" font-family="Helvetica,sans-Serif" font-size="10.00">&#45; m_secured</text>
<polyline fill="none" stroke="black" points="222,-162.5 362,-162.5 "/>
<text text-anchor="start" x="230" y="-150.5" font-family="Helvetica,sans-Serif" font-size="10.00">+ VariantPdu()</text>
<text text-anchor="start" x="230" y="-139.5" font-family="Helvetica,sans-Serif" font-size="10.00">+ VariantPdu()</text>
<text text-anchor="start" x="230" y="-128.5" font-family="Helvetica,sans-Serif" font-size="10.00">+ operator=()</text>
<text text-anchor="start" x="230" y="-117.5" font-family="Helvetica,sans-Serif" font-size="10.00">+ basic()</text>
<text text-anchor="start" x="230" y="-106.5" font-family="Helvetica,sans-Serif" font-size="10.00">+ basic()</text>
<text text-anchor="start" x="230" y="-95.5" font-family="Helvetica,sans-Serif" font-size="10.00">+ common()</text>
<text text-anchor="start" x="230" y="-84.5" font-family="Helvetica,sans-Serif" font-size="10.00">+ common()</text>
<text text-anchor="start" x="230" y="-73.5" font-family="Helvetica,sans-Serif" font-size="10.00">+ extended_variant()</text>
<text text-anchor="start" x="230" y="-62.5" font-family="Helvetica,sans-Serif" font-size="10.00">+ extended_variant()</text>
<text text-anchor="start" x="230" y="-51.5" font-family="Helvetica,sans-Serif" font-size="10.00">+ secured()</text>
<text text-anchor="start" x="230" y="-40.5" font-family="Helvetica,sans-Serif" font-size="10.00">+ secured()</text>
<text text-anchor="start" x="230" y="-29.5" font-family="Helvetica,sans-Serif" font-size="10.00">+ secured()</text>
<text text-anchor="start" x="230" y="-18.5" font-family="Helvetica,sans-Serif" font-size="10.00">+ secured()</text>
<text text-anchor="start" x="230" y="-7.5" font-family="Helvetica,sans-Serif" font-size="10.00">+ clone()</text>
</a>
</g>
</g>
<!-- Node2&#45;&gt;Node4 -->
<g id="edge4" class="edge">
<title>Node2&#45;&gt;Node4</title>
<path fill="none" stroke="midnightblue" d="M239.21,-282.9C244.21,-267.27 249.59,-250.47 254.93,-233.78"/>
<polygon fill="none" stroke="midnightblue" points="235.86,-281.87 236.14,-292.46 242.53,-284.01 235.86,-281.87"/>
</g>
</g>
</svg>
