<?xml version="1.0" encoding="UTF-8" standalone="no"?>
<!DOCTYPE svg PUBLIC "-//W3C//DTD SVG 1.1//EN"
 "http://www.w3.org/Graphics/SVG/1.1/DTD/svg11.dtd">
<!-- Generated by graphviz version 2.49.3 (0)
 -->
<!-- Title: vanetza::security::v2::CertificateValidator Pages: 1 -->
<svg width="310pt" height="226pt"
 viewBox="0.00 0.00 310.00 226.00" xmlns="http://www.w3.org/2000/svg" xmlns:xlink="http://www.w3.org/1999/xlink">
<g id="graph0" class="graph" transform="scale(1 1) rotate(0) translate(4 222)">
<title>vanetza::security::v2::CertificateValidator</title>
<!-- Node1 -->
<g id="node1" class="node">
<title>Node1</title>
<g id="a_node1"><a xlink:title=" ">
<polygon fill="#999999" stroke="#666666" points="93.5,-138.5 93.5,-217.5 214.5,-217.5 214.5,-138.5 93.5,-138.5"/>
<text text-anchor="start" x="101.5" y="-205.5" font-family="Helvetica,sans-Serif" font-size="10.00">vanetza::security::</text>
<text text-anchor="middle" x="154" y="-194.5" font-family="Helvetica,sans-Serif" font-size="10.00">v2::CertificateValidator</text>
<polyline fill="none" stroke="#666666" points="93.5,-187.5 214.5,-187.5 "/>
<text text-anchor="middle" x="154" y="-175.5" font-family="Helvetica,sans-Serif" font-size="10.00"> </text>
<polyline fill="none" stroke="#666666" points="93.5,-168.5 214.5,-168.5 "/>
<text text-anchor="start" x="101.5" y="-156.5" font-family="Helvetica,sans-Serif" font-size="10.00">+ check_certificate()</text>
<text text-anchor="start" x="101.5" y="-145.5" font-family="Helvetica,sans-Serif" font-size="10.00">+ ~CertificateValidator()</text>
</a>
</g>
</g>
<!-- Node2 -->
<g id="node2" class="node">
<title>Node2</title>
<g id="a_node2"><a xlink:href="../../de/d37/classvanetza_1_1security_1_1v2_1_1DefaultCertificateValidator.html" target="_top" xlink:title="The default certificate validator.">
<polygon fill="white" stroke="#666666" points="0,-0.5 0,-101.5 148,-101.5 148,-0.5 0,-0.5"/>
<text text-anchor="start" x="8" y="-89.5" font-family="Helvetica,sans-Serif" font-size="10.00">vanetza::security::</text>
<text text-anchor="middle" x="74" y="-78.5" font-family="Helvetica,sans-Serif" font-size="10.00">v2::DefaultCertificateValidator</text>
<polyline fill="none" stroke="#666666" points="0,-71.5 148,-71.5 "/>
<text text-anchor="start" x="8" y="-59.5" font-family="Helvetica,sans-Serif" font-size="10.00">&#45; m_crypto_backend</text>
<text text-anchor="start" x="8" y="-48.5" font-family="Helvetica,sans-Serif" font-size="10.00">&#45; m_cert_cache</text>
<text text-anchor="start" x="8" y="-37.5" font-family="Helvetica,sans-Serif" font-size="10.00">&#45; m_trust_store</text>
<polyline fill="none" stroke="#666666" points="0,-30.5 148,-30.5 "/>
<text text-anchor="start" x="8" y="-18.5" font-family="Helvetica,sans-Serif" font-size="10.00">+ DefaultCertificateValidator()</text>
<text text-anchor="start" x="8" y="-7.5" font-family="Helvetica,sans-Serif" font-size="10.00">+ check_certificate()</text>
</a>
</g>
</g>
<!-- Node1&#45;&gt;Node2 -->
<g id="edge1" class="edge">
<title>Node1&#45;&gt;Node2</title>
<path fill="none" stroke="#63b8ff" d="M123.81,-129.83C117.93,-120.63 111.74,-110.97 105.8,-101.69"/>
<polygon fill="none" stroke="#63b8ff" points="121.01,-131.94 129.34,-138.48 126.9,-128.17 121.01,-131.94"/>
</g>
<!-- Node3 -->
<g id="node3" class="node">
<title>Node3</title>
<g id="a_node3"><a xlink:href="../../d2/d3a/classvanetza_1_1security_1_1v2_1_1NullCertificateValidator.html" target="_top" xlink:title=" ">
<polygon fill="white" stroke="#bfbfbf" points="166,-6 166,-96 302,-96 302,-6 166,-6"/>
<text text-anchor="start" x="174" y="-84" font-family="Helvetica,sans-Serif" font-size="10.00">vanetza::security::</text>
<text text-anchor="middle" x="234" y="-73" font-family="Helvetica,sans-Serif" font-size="10.00">v2::NullCertificateValidator</text>
<polyline fill="none" stroke="#bfbfbf" points="166,-66 302,-66 "/>
<text text-anchor="start" x="174" y="-54" font-family="Helvetica,sans-Serif" font-size="10.00">&#45; m_check_result</text>
<polyline fill="none" stroke="#bfbfbf" points="166,-47 302,-47 "/>
<text text-anchor="start" x="174" y="-35" font-family="Helvetica,sans-Serif" font-size="10.00">+ NullCertificateValidator()</text>
<text text-anchor="start" x="174" y="-24" font-family="Helvetica,sans-Serif" font-size="10.00">+ check_certificate()</text>
<text text-anchor="start" x="174" y="-13" font-family="Helvetica,sans-Serif" font-size="10.00">+ certificate_check_result()</text>
</a>
</g>
</g>
<!-- Node1&#45;&gt;Node3 -->
<g id="edge2" class="edge">
<title>Node1&#45;&gt;Node3</title>
<path fill="none" stroke="#63b8ff" d="M184.19,-129.83C191.22,-118.84 198.69,-107.17 205.65,-96.3"/>
<polygon fill="none" stroke="#63b8ff" points="181.1,-128.17 178.66,-138.48 186.99,-131.94 181.1,-128.17"/>
</g>
</g>
</svg>
