<?xml version="1.0" encoding="UTF-8" standalone="no"?>
<!DOCTYPE svg PUBLIC "-//W3C//DTD SVG 1.1//EN"
 "http://www.w3.org/Graphics/SVG/1.1/DTD/svg11.dtd">
<!-- Generated by graphviz version 14.1.2 (0)
 -->
<!-- Title: vanetza::security::v2::CertificateValidator Pages: 1 -->
<svg width="326pt" height="245pt"
 viewBox="0.00 0.00 326.00 245.00" xmlns="http://www.w3.org/2000/svg" xmlns:xlink="http://www.w3.org/1999/xlink">

<svg id="main" version="1.1" xmlns="http://www.w3.org/2000/svg" xmlns:xlink="http://www.w3.org/1999/xlink" xml:space="preserve">

<style type="text/css"><![CDATA[
.node, .edge {opacity: 0.7;}
.node.selected, .edge.selected {opacity: 1;}
.edge:hover path { stroke: red; }
.edge:hover polygon { stroke: red; fill: red; }
]]></style>
<script type="application/ecmascript" xlink:href="../../svg.min.js"/>
<svg id="graph" class="graph">
<g id="graph0" class="graph" transform="scale(1 1) rotate(0) translate(4 241)">
<title>vanetza::security::v2::CertificateValidator</title>
<!-- Node1 -->
<g id="Node000001" class="node">
<title>Node1</title>
<g id="a_Node000001"><a xlink:title=" ">
<polygon fill="#999999" stroke="none" points="227.62,-237 97.88,-237 97.88,-153.25 227.62,-153.25 227.62,-237"/>
<text xml:space="preserve" text-anchor="start" x="106.88" y="-223.5" font-family="Helvetica,sans-Serif" font-size="10.00">vanetza::security::</text>
<text xml:space="preserve" text-anchor="start" x="106.88" y="-210.75" font-family="Helvetica,sans-Serif" font-size="10.00">v2::CertificateValidator</text>
<text xml:space="preserve" text-anchor="start" x="161.25" y="-194" font-family="Helvetica,sans-Serif" font-size="10.00"> </text>
<text xml:space="preserve" text-anchor="start" x="101.88" y="-177.25" font-family="Helvetica,sans-Serif" font-size="10.00">+</text>
<text xml:space="preserve" text-anchor="start" x="114.12" y="-177.25" font-family="Helvetica,sans-Serif" font-size="10.00">check_certificate()</text>
<text xml:space="preserve" text-anchor="start" x="101.88" y="-160.5" font-family="Helvetica,sans-Serif" font-size="10.00">+</text>
<text xml:space="preserve" text-anchor="start" x="114.12" y="-160.5" font-family="Helvetica,sans-Serif" font-size="10.00">~CertificateValidator()</text>
<polygon fill="#666666" stroke="#666666" points="97.88,-205.5 97.88,-205.5 227.62,-205.5 227.62,-205.5 97.88,-205.5"/>
<polygon fill="#666666" stroke="#666666" points="97.88,-188.75 97.88,-188.75 227.62,-188.75 227.62,-188.75 97.88,-188.75"/>
<polygon fill="none" stroke="#666666" points="97.88,-153.25 97.88,-237 227.62,-237 227.62,-153.25 97.88,-153.25"/>
</a>
</g>
</g>
<!-- Node2 -->
<g id="Node000002" class="node">
<title>Node2</title>
<g id="a_Node000002"><a xlink:href="../../de/d37/classvanetza_1_1security_1_1v2_1_1DefaultCertificateValidator.html" target="_top" xlink:title="The default certificate validator.">
<polygon fill="white" stroke="none" points="157.5,-117.25 0,-117.25 0,0 157.5,0 157.5,-117.25"/>
<text xml:space="preserve" text-anchor="start" x="4.88" y="-103.75" font-family="Helvetica,sans-Serif" font-size="10.00">vanetza::security::</text>
<text xml:space="preserve" text-anchor="start" x="4.88" y="-91" font-family="Helvetica,sans-Serif" font-size="10.00">v2::DefaultCertificateValidator</text>
<text xml:space="preserve" text-anchor="start" x="6.25" y="-74.25" font-family="Helvetica,sans-Serif" font-size="10.00">&#45;</text>
<text xml:space="preserve" text-anchor="start" x="16.25" y="-74.25" font-family="Helvetica,sans-Serif" font-size="10.00">m_crypto_backend</text>
<text xml:space="preserve" text-anchor="start" x="6.25" y="-57.5" font-family="Helvetica,sans-Serif" font-size="10.00">&#45;</text>
<text xml:space="preserve" text-anchor="start" x="16.25" y="-57.5" font-family="Helvetica,sans-Serif" font-size="10.00">m_cert_cache</text>
<text xml:space="preserve" text-anchor="start" x="6.25" y="-40.75" font-family="Helvetica,sans-Serif" font-size="10.00">&#45;</text>
<text xml:space="preserve" text-anchor="start" x="16.25" y="-40.75" font-family="Helvetica,sans-Serif" font-size="10.00">m_trust_store</text>
<text xml:space="preserve" text-anchor="start" x="4" y="-24" font-family="Helvetica,sans-Serif" font-size="10.00">+</text>
<text xml:space="preserve" text-anchor="start" x="16.25" y="-24" font-family="Helvetica,sans-Serif" font-size="10.00">DefaultCertificateValidator()</text>
<text xml:space="preserve" text-anchor="start" x="4" y="-7.25" font-family="Helvetica,sans-Serif" font-size="10.00">+</text>
<text xml:space="preserve" text-anchor="start" x="16.25" y="-7.25" font-family="Helvetica,sans-Serif" font-size="10.00">check_certificate()</text>
<polygon fill="#666666" stroke="#666666" points="0,-85.75 0,-85.75 157.5,-85.75 157.5,-85.75 0,-85.75"/>
<polygon fill="#666666" stroke="#666666" points="0,-35.5 0,-35.5 14.25,-35.5 14.25,-35.5 0,-35.5"/>
<polygon fill="#666666" stroke="#666666" points="14.25,-35.5 14.25,-35.5 157.5,-35.5 157.5,-35.5 14.25,-35.5"/>
<polygon fill="none" stroke="#666666" points="0,0 0,-117.25 157.5,-117.25 157.5,0 0,0"/>
</a>
</g>
</g>
<!-- Node1&#45;&gt;Node2 -->
<g id="edge1_Node000001_Node000002" class="edge">
<title>Node1&#45;&gt;Node2</title>
<g id="a_edge1_Node000001_Node000002"><a xlink:title=" ">
<path fill="none" stroke="#63b8ff" d="M131.31,-143.78C125.87,-135.07 120.18,-125.96 114.63,-117.08"/>
<polygon fill="none" stroke="#63b8ff" points="128.25,-145.49 136.52,-152.12 134.19,-141.79 128.25,-145.49"/>
</a>
</g>
</g>
<!-- Node3 -->
<g id="Node000003" class="node">
<title>Node3</title>
<g id="a_Node000003"><a xlink:href="../../d2/d3a/classvanetza_1_1security_1_1v2_1_1NullCertificateValidator.html" target="_top" xlink:title=" ">
<polygon fill="white" stroke="none" points="318.38,-108.88 175.12,-108.88 175.12,-8.38 318.38,-8.38 318.38,-108.88"/>
<text xml:space="preserve" text-anchor="start" x="181.12" y="-95.38" font-family="Helvetica,sans-Serif" font-size="10.00">vanetza::security::</text>
<text xml:space="preserve" text-anchor="start" x="181.12" y="-82.62" font-family="Helvetica,sans-Serif" font-size="10.00">v2::NullCertificateValidator</text>
<text xml:space="preserve" text-anchor="start" x="181.38" y="-65.88" font-family="Helvetica,sans-Serif" font-size="10.00">&#45;</text>
<text xml:space="preserve" text-anchor="start" x="191.38" y="-65.88" font-family="Helvetica,sans-Serif" font-size="10.00">m_check_result</text>
<text xml:space="preserve" text-anchor="start" x="179.12" y="-49.12" font-family="Helvetica,sans-Serif" font-size="10.00">+</text>
<text xml:space="preserve" text-anchor="start" x="191.38" y="-49.12" font-family="Helvetica,sans-Serif" font-size="10.00">NullCertificateValidator()</text>
<text xml:space="preserve" text-anchor="start" x="179.12" y="-32.38" font-family="Helvetica,sans-Serif" font-size="10.00">+</text>
<text xml:space="preserve" text-anchor="start" x="191.38" y="-32.38" font-family="Helvetica,sans-Serif" font-size="10.00">check_certificate()</text>
<text xml:space="preserve" text-anchor="start" x="179.12" y="-15.62" font-family="Helvetica,sans-Serif" font-size="10.00">+</text>
<text xml:space="preserve" text-anchor="start" x="191.38" y="-15.62" font-family="Helvetica,sans-Serif" font-size="10.00">certificate_check_result()</text>
<polygon fill="#bfbfbf" stroke="#bfbfbf" points="175.12,-77.38 175.12,-77.38 318.38,-77.38 318.38,-77.38 175.12,-77.38"/>
<polygon fill="#bfbfbf" stroke="#bfbfbf" points="175.12,-60.62 175.12,-60.62 189.38,-60.62 189.38,-60.62 175.12,-60.62"/>
<polygon fill="#bfbfbf" stroke="#bfbfbf" points="189.38,-60.62 189.38,-60.62 318.38,-60.62 318.38,-60.62 189.38,-60.62"/>
<polygon fill="none" stroke="#bfbfbf" points="175.12,-8.38 175.12,-108.88 318.38,-108.88 318.38,-8.38 175.12,-8.38"/>
</a>
</g>
</g>
<!-- Node1&#45;&gt;Node3 -->
<g id="edge2_Node000001_Node000003" class="edge">
<title>Node1&#45;&gt;Node3</title>
<g id="a_edge2_Node000001_Node000003"><a xlink:title=" ">
<path fill="none" stroke="#63b8ff" d="M194.09,-143.94C201.28,-132.43 208.91,-120.21 216.07,-108.74"/>
<polygon fill="none" stroke="#63b8ff" points="191.31,-141.79 188.98,-152.12 197.25,-145.49 191.31,-141.79"/>
</a>
</g>
</g>
</g>
</svg>
</svg>

<style type='text/css'>
<![CDATA[
[data-mouse-over-selected='false'] { opacity: 0.7; }
[data-mouse-over-selected='true']  { opacity: 1.0; }
]]>
</style>
<script type="application/ecmascript"><![CDATA[
document.addEventListener('DOMContentLoaded', (event) => {
  highlightEdges();
  highlightAdjacentNodes();
});
]]></script>
</svg>
