<?xml version="1.0" encoding="UTF-8" standalone="no"?>
<!DOCTYPE svg PUBLIC "-//W3C//DTD SVG 1.1//EN"
 "http://www.w3.org/Graphics/SVG/1.1/DTD/svg11.dtd">
<!-- Generated by graphviz version 2.42.3 (0)
 -->
<!-- Title: vanetza::pdu_tags::pdu_tag Pages: 1 -->
<svg width="350pt" height="287pt"
 viewBox="0.00 0.00 350.00 287.00" xmlns="http://www.w3.org/2000/svg" xmlns:xlink="http://www.w3.org/1999/xlink">
<g id="graph0" class="graph" transform="scale(1 1) rotate(0) translate(4 283)">
<title>vanetza::pdu_tags::pdu_tag</title>
<polygon fill="white" stroke="transparent" points="-4,4 -4,-283 346,-283 346,4 -4,4"/>
<!-- Node1 -->
<g id="node1" class="node">
<title>Node1</title>
<g id="a_node1"><a xlink:title=" ">
<polygon fill="#bfbfbf" stroke="black" points="120,-210.5 120,-278.5 222,-278.5 222,-210.5 120,-210.5"/>
<text text-anchor="start" x="128" y="-266.5" font-family="Helvetica,sans-Serif" font-size="10.00">vanetza::pdu_tags::</text>
<text text-anchor="middle" x="171" y="-255.5" font-family="Helvetica,sans-Serif" font-size="10.00">pdu_tag</text>
<polyline fill="none" stroke="black" points="120,-248.5 222,-248.5 "/>
<text text-anchor="middle" x="171" y="-236.5" font-family="Helvetica,sans-Serif" font-size="10.00"> </text>
<polyline fill="none" stroke="black" points="120,-229.5 222,-229.5 "/>
<text text-anchor="middle" x="171" y="-217.5" font-family="Helvetica,sans-Serif" font-size="10.00"> </text>
</a>
</g>
</g>
<!-- Node2 -->
<g id="node2" class="node">
<title>Node2</title>
<g id="a_node2"><a xlink:href="../../db/d41/structvanetza_1_1pdu__tags_1_1empty__pdu__tag.html" target="_top" xlink:title=" ">
<polygon fill="white" stroke="black" points="0,-105.5 0,-173.5 102,-173.5 102,-105.5 0,-105.5"/>
<text text-anchor="start" x="8" y="-161.5" font-family="Helvetica,sans-Serif" font-size="10.00">vanetza::pdu_tags::</text>
<text text-anchor="middle" x="51" y="-150.5" font-family="Helvetica,sans-Serif" font-size="10.00">empty_pdu_tag</text>
<polyline fill="none" stroke="black" points="0,-143.5 102,-143.5 "/>
<text text-anchor="middle" x="51" y="-131.5" font-family="Helvetica,sans-Serif" font-size="10.00"> </text>
<polyline fill="none" stroke="black" points="0,-124.5 102,-124.5 "/>
<text text-anchor="middle" x="51" y="-112.5" font-family="Helvetica,sans-Serif" font-size="10.00"> </text>
</a>
</g>
</g>
<!-- Node1&#45;&gt;Node2 -->
<g id="edge1" class="edge">
<title>Node1&#45;&gt;Node2</title>
<path fill="none" stroke="midnightblue" d="M124.5,-203.59C112.95,-193.67 100.69,-183.15 89.56,-173.59"/>
<polygon fill="none" stroke="midnightblue" points="122.5,-206.49 132.37,-210.34 127.06,-201.17 122.5,-206.49"/>
</g>
<!-- Node3 -->
<g id="node3" class="node">
<title>Node3</title>
<g id="a_node3"><a xlink:href="../../d0/df3/structvanetza_1_1pdu__tags_1_1mac__tag.html" target="_top" xlink:title=" ">
<polygon fill="white" stroke="black" points="120,-105.5 120,-173.5 222,-173.5 222,-105.5 120,-105.5"/>
<text text-anchor="start" x="128" y="-161.5" font-family="Helvetica,sans-Serif" font-size="10.00">vanetza::pdu_tags::</text>
<text text-anchor="middle" x="171" y="-150.5" font-family="Helvetica,sans-Serif" font-size="10.00">mac_tag</text>
<polyline fill="none" stroke="black" points="120,-143.5 222,-143.5 "/>
<text text-anchor="middle" x="171" y="-131.5" font-family="Helvetica,sans-Serif" font-size="10.00"> </text>
<polyline fill="none" stroke="black" points="120,-124.5 222,-124.5 "/>
<text text-anchor="middle" x="171" y="-112.5" font-family="Helvetica,sans-Serif" font-size="10.00"> </text>
</a>
</g>
</g>
<!-- Node1&#45;&gt;Node3 -->
<g id="edge2" class="edge">
<title>Node1&#45;&gt;Node3</title>
<path fill="none" stroke="midnightblue" d="M171,-200.14C171,-191.26 171,-182.04 171,-173.59"/>
<polygon fill="none" stroke="midnightblue" points="167.5,-200.34 171,-210.34 174.5,-200.34 167.5,-200.34"/>
</g>
<!-- Node5 -->
<g id="node5" class="node">
<title>Node5</title>
<g id="a_node5"><a xlink:href="../../dd/de8/structvanetza_1_1pdu__tags_1_1phy__tag.html" target="_top" xlink:title=" ">
<polygon fill="white" stroke="black" points="240,-105.5 240,-173.5 342,-173.5 342,-105.5 240,-105.5"/>
<text text-anchor="start" x="248" y="-161.5" font-family="Helvetica,sans-Serif" font-size="10.00">vanetza::pdu_tags::</text>
<text text-anchor="middle" x="291" y="-150.5" font-family="Helvetica,sans-Serif" font-size="10.00">phy_tag</text>
<polyline fill="none" stroke="black" points="240,-143.5 342,-143.5 "/>
<text text-anchor="middle" x="291" y="-131.5" font-family="Helvetica,sans-Serif" font-size="10.00"> </text>
<polyline fill="none" stroke="black" points="240,-124.5 342,-124.5 "/>
<text text-anchor="middle" x="291" y="-112.5" font-family="Helvetica,sans-Serif" font-size="10.00"> </text>
</a>
</g>
</g>
<!-- Node1&#45;&gt;Node5 -->
<g id="edge4" class="edge">
<title>Node1&#45;&gt;Node5</title>
<path fill="none" stroke="midnightblue" d="M217.5,-203.59C229.05,-193.67 241.31,-183.15 252.44,-173.59"/>
<polygon fill="none" stroke="midnightblue" points="214.94,-201.17 209.63,-210.34 219.5,-206.49 214.94,-201.17"/>
</g>
<!-- Node4 -->
<g id="node4" class="node">
<title>Node4</title>
<g id="a_node4"><a xlink:href="../../d9/df4/structvanetza_1_1pdu__tags_1_1ethernet__tag.html" target="_top" xlink:title=" ">
<polygon fill="white" stroke="black" points="120,-0.5 120,-68.5 222,-68.5 222,-0.5 120,-0.5"/>
<text text-anchor="start" x="128" y="-56.5" font-family="Helvetica,sans-Serif" font-size="10.00">vanetza::pdu_tags::</text>
<text text-anchor="middle" x="171" y="-45.5" font-family="Helvetica,sans-Serif" font-size="10.00">ethernet_tag</text>
<polyline fill="none" stroke="black" points="120,-38.5 222,-38.5 "/>
<text text-anchor="middle" x="171" y="-26.5" font-family="Helvetica,sans-Serif" font-size="10.00"> </text>
<polyline fill="none" stroke="black" points="120,-19.5 222,-19.5 "/>
<text text-anchor="middle" x="171" y="-7.5" font-family="Helvetica,sans-Serif" font-size="10.00"> </text>
</a>
</g>
</g>
<!-- Node3&#45;&gt;Node4 -->
<g id="edge3" class="edge">
<title>Node3&#45;&gt;Node4</title>
<path fill="none" stroke="midnightblue" d="M171,-95.14C171,-86.26 171,-77.04 171,-68.59"/>
<polygon fill="none" stroke="midnightblue" points="167.5,-95.34 171,-105.34 174.5,-95.34 167.5,-95.34"/>
</g>
<!-- Node6 -->
<g id="node6" class="node">
<title>Node6</title>
<g id="a_node6"><a xlink:href="../../d5/d6d/structvanetza_1_1pdu__tags_1_1mk2__tag.html" target="_top" xlink:title=" ">
<polygon fill="white" stroke="black" points="240,-0.5 240,-68.5 342,-68.5 342,-0.5 240,-0.5"/>
<text text-anchor="start" x="248" y="-56.5" font-family="Helvetica,sans-Serif" font-size="10.00">vanetza::pdu_tags::</text>
<text text-anchor="middle" x="291" y="-45.5" font-family="Helvetica,sans-Serif" font-size="10.00">mk2_tag</text>
<polyline fill="none" stroke="black" points="240,-38.5 342,-38.5 "/>
<text text-anchor="middle" x="291" y="-26.5" font-family="Helvetica,sans-Serif" font-size="10.00"> </text>
<polyline fill="none" stroke="black" points="240,-19.5 342,-19.5 "/>
<text text-anchor="middle" x="291" y="-7.5" font-family="Helvetica,sans-Serif" font-size="10.00"> </text>
</a>
</g>
</g>
<!-- Node5&#45;&gt;Node6 -->
<g id="edge5" class="edge">
<title>Node5&#45;&gt;Node6</title>
<path fill="none" stroke="midnightblue" d="M291,-95.14C291,-86.26 291,-77.04 291,-68.59"/>
<polygon fill="none" stroke="midnightblue" points="287.5,-95.34 291,-105.34 294.5,-95.34 287.5,-95.34"/>
</g>
</g>
</svg>
