<?xml version="1.0" encoding="UTF-8" standalone="no"?>
<!DOCTYPE svg PUBLIC "-//W3C//DTD SVG 1.1//EN"
 "http://www.w3.org/Graphics/SVG/1.1/DTD/svg11.dtd">
<!-- Generated by graphviz version 2.42.1 (0)
 -->
<!-- Title: vanetza::pdu_tags::pdu_tag Pages: 1 -->
<svg width="353pt" height="287pt"
 viewBox="0.00 0.00 353.00 287.00" xmlns="http://www.w3.org/2000/svg" xmlns:xlink="http://www.w3.org/1999/xlink">
<g id="graph0" class="graph" transform="scale(1 1) rotate(0) translate(4 283)">
<title>vanetza::pdu_tags::pdu_tag</title>
<polygon fill="white" stroke="transparent" points="-4,4 -4,-283 349,-283 349,4 -4,4"/>
<!-- Node0 -->
<g id="node1" class="node">
<title>Node0</title>
<g id="a_node1"><a xlink:title=" ">
<polygon fill="#bfbfbf" stroke="black" points="121,-210.5 121,-278.5 224,-278.5 224,-210.5 121,-210.5"/>
<text text-anchor="start" x="129" y="-266.5" font-family="Helvetica,sans-Serif" font-size="10.00">vanetza::pdu_tags::</text>
<text text-anchor="middle" x="172.5" y="-255.5" font-family="Helvetica,sans-Serif" font-size="10.00">pdu_tag</text>
<polyline fill="none" stroke="black" points="121,-248.5 224,-248.5 "/>
<text text-anchor="middle" x="172.5" y="-236.5" font-family="Helvetica,sans-Serif" font-size="10.00"> </text>
<polyline fill="none" stroke="black" points="121,-229.5 224,-229.5 "/>
<text text-anchor="middle" x="172.5" y="-217.5" font-family="Helvetica,sans-Serif" font-size="10.00"> </text>
</a>
</g>
</g>
<!-- Node1 -->
<g id="node2" class="node">
<title>Node1</title>
<g id="a_node2"><a xlink:href="../../db/d41/structvanetza_1_1pdu__tags_1_1empty__pdu__tag.html" target="_top" xlink:title=" ">
<polygon fill="white" stroke="black" points="0,-105.5 0,-173.5 103,-173.5 103,-105.5 0,-105.5"/>
<text text-anchor="start" x="8" y="-161.5" font-family="Helvetica,sans-Serif" font-size="10.00">vanetza::pdu_tags::</text>
<text text-anchor="middle" x="51.5" y="-150.5" font-family="Helvetica,sans-Serif" font-size="10.00">empty_pdu_tag</text>
<polyline fill="none" stroke="black" points="0,-143.5 103,-143.5 "/>
<text text-anchor="middle" x="51.5" y="-131.5" font-family="Helvetica,sans-Serif" font-size="10.00"> </text>
<polyline fill="none" stroke="black" points="0,-124.5 103,-124.5 "/>
<text text-anchor="middle" x="51.5" y="-112.5" font-family="Helvetica,sans-Serif" font-size="10.00"> </text>
</a>
</g>
</g>
<!-- Node0&#45;&gt;Node1 -->
<g id="edge1" class="edge">
<title>Node0&#45;&gt;Node1</title>
<path fill="none" stroke="midnightblue" d="M125.62,-203.59C113.96,-193.67 101.6,-183.15 90.38,-173.59"/>
<polygon fill="none" stroke="midnightblue" points="123.67,-206.53 133.55,-210.34 128.2,-201.2 123.67,-206.53"/>
</g>
<!-- Node2 -->
<g id="node3" class="node">
<title>Node2</title>
<g id="a_node3"><a xlink:href="../../d0/df3/structvanetza_1_1pdu__tags_1_1mac__tag.html" target="_top" xlink:title=" ">
<polygon fill="white" stroke="black" points="121,-105.5 121,-173.5 224,-173.5 224,-105.5 121,-105.5"/>
<text text-anchor="start" x="129" y="-161.5" font-family="Helvetica,sans-Serif" font-size="10.00">vanetza::pdu_tags::</text>
<text text-anchor="middle" x="172.5" y="-150.5" font-family="Helvetica,sans-Serif" font-size="10.00">mac_tag</text>
<polyline fill="none" stroke="black" points="121,-143.5 224,-143.5 "/>
<text text-anchor="middle" x="172.5" y="-131.5" font-family="Helvetica,sans-Serif" font-size="10.00"> </text>
<polyline fill="none" stroke="black" points="121,-124.5 224,-124.5 "/>
<text text-anchor="middle" x="172.5" y="-112.5" font-family="Helvetica,sans-Serif" font-size="10.00"> </text>
</a>
</g>
</g>
<!-- Node0&#45;&gt;Node2 -->
<g id="edge2" class="edge">
<title>Node0&#45;&gt;Node2</title>
<path fill="none" stroke="midnightblue" d="M172.5,-200.14C172.5,-191.26 172.5,-182.04 172.5,-173.59"/>
<polygon fill="none" stroke="midnightblue" points="169,-200.34 172.5,-210.34 176,-200.34 169,-200.34"/>
</g>
<!-- Node4 -->
<g id="node5" class="node">
<title>Node4</title>
<g id="a_node5"><a xlink:href="../../dd/de8/structvanetza_1_1pdu__tags_1_1phy__tag.html" target="_top" xlink:title=" ">
<polygon fill="white" stroke="black" points="242,-105.5 242,-173.5 345,-173.5 345,-105.5 242,-105.5"/>
<text text-anchor="start" x="250" y="-161.5" font-family="Helvetica,sans-Serif" font-size="10.00">vanetza::pdu_tags::</text>
<text text-anchor="middle" x="293.5" y="-150.5" font-family="Helvetica,sans-Serif" font-size="10.00">phy_tag</text>
<polyline fill="none" stroke="black" points="242,-143.5 345,-143.5 "/>
<text text-anchor="middle" x="293.5" y="-131.5" font-family="Helvetica,sans-Serif" font-size="10.00"> </text>
<polyline fill="none" stroke="black" points="242,-124.5 345,-124.5 "/>
<text text-anchor="middle" x="293.5" y="-112.5" font-family="Helvetica,sans-Serif" font-size="10.00"> </text>
</a>
</g>
</g>
<!-- Node0&#45;&gt;Node4 -->
<g id="edge4" class="edge">
<title>Node0&#45;&gt;Node4</title>
<path fill="none" stroke="midnightblue" d="M219.38,-203.59C231.04,-193.67 243.4,-183.15 254.62,-173.59"/>
<polygon fill="none" stroke="midnightblue" points="216.8,-201.2 211.45,-210.34 221.33,-206.53 216.8,-201.2"/>
</g>
<!-- Node3 -->
<g id="node4" class="node">
<title>Node3</title>
<g id="a_node4"><a xlink:href="../../d9/df4/structvanetza_1_1pdu__tags_1_1ethernet__tag.html" target="_top" xlink:title=" ">
<polygon fill="white" stroke="black" points="121,-0.5 121,-68.5 224,-68.5 224,-0.5 121,-0.5"/>
<text text-anchor="start" x="129" y="-56.5" font-family="Helvetica,sans-Serif" font-size="10.00">vanetza::pdu_tags::</text>
<text text-anchor="middle" x="172.5" y="-45.5" font-family="Helvetica,sans-Serif" font-size="10.00">ethernet_tag</text>
<polyline fill="none" stroke="black" points="121,-38.5 224,-38.5 "/>
<text text-anchor="middle" x="172.5" y="-26.5" font-family="Helvetica,sans-Serif" font-size="10.00"> </text>
<polyline fill="none" stroke="black" points="121,-19.5 224,-19.5 "/>
<text text-anchor="middle" x="172.5" y="-7.5" font-family="Helvetica,sans-Serif" font-size="10.00"> </text>
</a>
</g>
</g>
<!-- Node2&#45;&gt;Node3 -->
<g id="edge3" class="edge">
<title>Node2&#45;&gt;Node3</title>
<path fill="none" stroke="midnightblue" d="M172.5,-95.14C172.5,-86.26 172.5,-77.04 172.5,-68.59"/>
<polygon fill="none" stroke="midnightblue" points="169,-95.34 172.5,-105.34 176,-95.34 169,-95.34"/>
</g>
<!-- Node5 -->
<g id="node6" class="node">
<title>Node5</title>
<g id="a_node6"><a xlink:href="../../d5/d6d/structvanetza_1_1pdu__tags_1_1mk2__tag.html" target="_top" xlink:title=" ">
<polygon fill="white" stroke="black" points="242,-0.5 242,-68.5 345,-68.5 345,-0.5 242,-0.5"/>
<text text-anchor="start" x="250" y="-56.5" font-family="Helvetica,sans-Serif" font-size="10.00">vanetza::pdu_tags::</text>
<text text-anchor="middle" x="293.5" y="-45.5" font-family="Helvetica,sans-Serif" font-size="10.00">mk2_tag</text>
<polyline fill="none" stroke="black" points="242,-38.5 345,-38.5 "/>
<text text-anchor="middle" x="293.5" y="-26.5" font-family="Helvetica,sans-Serif" font-size="10.00"> </text>
<polyline fill="none" stroke="black" points="242,-19.5 345,-19.5 "/>
<text text-anchor="middle" x="293.5" y="-7.5" font-family="Helvetica,sans-Serif" font-size="10.00"> </text>
</a>
</g>
</g>
<!-- Node4&#45;&gt;Node5 -->
<g id="edge5" class="edge">
<title>Node4&#45;&gt;Node5</title>
<path fill="none" stroke="midnightblue" d="M293.5,-95.14C293.5,-86.26 293.5,-77.04 293.5,-68.59"/>
<polygon fill="none" stroke="midnightblue" points="290,-95.34 293.5,-105.34 297,-95.34 290,-95.34"/>
</g>
</g>
</svg>
