<?xml version="1.0" encoding="UTF-8" standalone="no"?>
<!DOCTYPE svg PUBLIC "-//W3C//DTD SVG 1.1//EN"
 "http://www.w3.org/Graphics/SVG/1.1/DTD/svg11.dtd">
<!-- Generated by graphviz version 2.49.3 (0)
 -->
<!-- Title: vanetza::pdu_tags::pdu_tag Pages: 1 -->
<svg width="332pt" height="260pt"
 viewBox="0.00 0.00 332.00 260.00" xmlns="http://www.w3.org/2000/svg" xmlns:xlink="http://www.w3.org/1999/xlink">
<g id="graph0" class="graph" transform="scale(1 1) rotate(0) translate(4 256)">
<title>vanetza::pdu_tags::pdu_tag</title>
<!-- Node1 -->
<g id="Node000001" class="node">
<title>Node1</title>
<g id="a_Node000001"><a xlink:title=" ">
<polygon fill="#999999" stroke="transparent" points="210,-252 114,-252 114,-192 210,-192 210,-252"/>
<text text-anchor="start" x="119" y="-240" font-family="Helvetica,sans-Serif" font-size="10.00">vanetza::pdu_tags::</text>
<text text-anchor="start" x="144.5" y="-229" font-family="Helvetica,sans-Serif" font-size="10.00">pdu_tag</text>
<text text-anchor="start" x="160" y="-214" font-family="Helvetica,sans-Serif" font-size="10.00"> </text>
<text text-anchor="start" x="160" y="-199" font-family="Helvetica,sans-Serif" font-size="10.00"> </text>
<polygon fill="#666666" stroke="#666666" points="114,-224 114,-224 210,-224 210,-224 114,-224"/>
<polygon fill="#666666" stroke="#666666" points="114,-209 114,-209 210,-209 210,-209 114,-209"/>
<polygon fill="none" stroke="#666666" points="114,-192 114,-252 210,-252 210,-192 114,-192"/>
</a>
</g>
</g>
<!-- Node2 -->
<g id="Node000002" class="node">
<title>Node2</title>
<g id="a_Node000002"><a xlink:href="../../db/d41/structvanetza_1_1pdu__tags_1_1empty__pdu__tag.html" target="_top" xlink:title=" ">
<polygon fill="white" stroke="transparent" points="96,-156 0,-156 0,-96 96,-96 96,-156"/>
<text text-anchor="start" x="5" y="-144" font-family="Helvetica,sans-Serif" font-size="10.00">vanetza::pdu_tags::</text>
<text text-anchor="start" x="14.5" y="-133" font-family="Helvetica,sans-Serif" font-size="10.00">empty_pdu_tag</text>
<text text-anchor="start" x="46" y="-118" font-family="Helvetica,sans-Serif" font-size="10.00"> </text>
<text text-anchor="start" x="46" y="-103" font-family="Helvetica,sans-Serif" font-size="10.00"> </text>
<polygon fill="#bfbfbf" stroke="#bfbfbf" points="0,-128 0,-128 96,-128 96,-128 0,-128"/>
<polygon fill="#bfbfbf" stroke="#bfbfbf" points="0,-113 0,-113 96,-113 96,-113 0,-113"/>
<polygon fill="none" stroke="#bfbfbf" points="0,-96 0,-156 96,-156 96,-96 0,-96"/>
</a>
</g>
</g>
<!-- Node1&#45;&gt;Node2 -->
<g id="edge1_Node000001_Node000002" class="edge">
<title>Node1&#45;&gt;Node2</title>
<g id="a_edge1_Node000001_Node000002"><a xlink:title=" ">
<path fill="none" stroke="#63b8ff" d="M118.65,-185.26C107.02,-175.66 94.57,-165.4 83.42,-156.21"/>
<polygon fill="none" stroke="#63b8ff" points="116.61,-188.11 126.55,-191.77 121.07,-182.71 116.61,-188.11"/>
</a>
</g>
</g>
<!-- Node3 -->
<g id="Node000003" class="node">
<title>Node3</title>
<g id="a_Node000003"><a xlink:href="../../d0/df3/structvanetza_1_1pdu__tags_1_1mac__tag.html" target="_top" xlink:title=" ">
<polygon fill="white" stroke="transparent" points="210,-156 114,-156 114,-96 210,-96 210,-156"/>
<text text-anchor="start" x="119" y="-144" font-family="Helvetica,sans-Serif" font-size="10.00">vanetza::pdu_tags::</text>
<text text-anchor="start" x="143" y="-133" font-family="Helvetica,sans-Serif" font-size="10.00">mac_tag</text>
<text text-anchor="start" x="160" y="-118" font-family="Helvetica,sans-Serif" font-size="10.00"> </text>
<text text-anchor="start" x="160" y="-103" font-family="Helvetica,sans-Serif" font-size="10.00"> </text>
<polygon fill="#bfbfbf" stroke="#bfbfbf" points="114,-128 114,-128 210,-128 210,-128 114,-128"/>
<polygon fill="#bfbfbf" stroke="#bfbfbf" points="114,-113 114,-113 210,-113 210,-113 114,-113"/>
<polygon fill="none" stroke="#bfbfbf" points="114,-96 114,-156 210,-156 210,-96 114,-96"/>
</a>
</g>
</g>
<!-- Node1&#45;&gt;Node3 -->
<g id="edge2_Node000001_Node000003" class="edge">
<title>Node1&#45;&gt;Node3</title>
<g id="a_edge2_Node000001_Node000003"><a xlink:title=" ">
<path fill="none" stroke="#63b8ff" d="M162,-181.63C162,-173.11 162,-164.25 162,-156.21"/>
<polygon fill="none" stroke="#63b8ff" points="158.5,-181.77 162,-191.77 165.5,-181.77 158.5,-181.77"/>
</a>
</g>
</g>
<!-- Node5 -->
<g id="Node000005" class="node">
<title>Node5</title>
<g id="a_Node000005"><a xlink:href="../../dd/de8/structvanetza_1_1pdu__tags_1_1phy__tag.html" target="_top" xlink:title=" ">
<polygon fill="white" stroke="transparent" points="324,-156 228,-156 228,-96 324,-96 324,-156"/>
<text text-anchor="start" x="233" y="-144" font-family="Helvetica,sans-Serif" font-size="10.00">vanetza::pdu_tags::</text>
<text text-anchor="start" x="258.5" y="-133" font-family="Helvetica,sans-Serif" font-size="10.00">phy_tag</text>
<text text-anchor="start" x="274" y="-118" font-family="Helvetica,sans-Serif" font-size="10.00"> </text>
<text text-anchor="start" x="274" y="-103" font-family="Helvetica,sans-Serif" font-size="10.00"> </text>
<polygon fill="#bfbfbf" stroke="#bfbfbf" points="228,-128 228,-128 324,-128 324,-128 228,-128"/>
<polygon fill="#bfbfbf" stroke="#bfbfbf" points="228,-113 228,-113 324,-113 324,-113 228,-113"/>
<polygon fill="none" stroke="#bfbfbf" points="228,-96 228,-156 324,-156 324,-96 228,-96"/>
</a>
</g>
</g>
<!-- Node1&#45;&gt;Node5 -->
<g id="edge4_Node000001_Node000005" class="edge">
<title>Node1&#45;&gt;Node5</title>
<g id="a_edge4_Node000001_Node000005"><a xlink:title=" ">
<path fill="none" stroke="#63b8ff" d="M205.35,-185.26C216.98,-175.66 229.43,-165.4 240.58,-156.21"/>
<polygon fill="none" stroke="#63b8ff" points="202.93,-182.71 197.45,-191.77 207.39,-188.11 202.93,-182.71"/>
</a>
</g>
</g>
<!-- Node4 -->
<g id="Node000004" class="node">
<title>Node4</title>
<g id="a_Node000004"><a xlink:href="../../d9/df4/structvanetza_1_1pdu__tags_1_1ethernet__tag.html" target="_top" xlink:title=" ">
<polygon fill="white" stroke="transparent" points="210,-60 114,-60 114,0 210,0 210,-60"/>
<text text-anchor="start" x="119" y="-48" font-family="Helvetica,sans-Serif" font-size="10.00">vanetza::pdu_tags::</text>
<text text-anchor="start" x="134.5" y="-37" font-family="Helvetica,sans-Serif" font-size="10.00">ethernet_tag</text>
<text text-anchor="start" x="160" y="-22" font-family="Helvetica,sans-Serif" font-size="10.00"> </text>
<text text-anchor="start" x="160" y="-7" font-family="Helvetica,sans-Serif" font-size="10.00"> </text>
<polygon fill="#bfbfbf" stroke="#bfbfbf" points="114,-32 114,-32 210,-32 210,-32 114,-32"/>
<polygon fill="#bfbfbf" stroke="#bfbfbf" points="114,-17 114,-17 210,-17 210,-17 114,-17"/>
<polygon fill="none" stroke="#bfbfbf" points="114,0 114,-60 210,-60 210,0 114,0"/>
</a>
</g>
</g>
<!-- Node3&#45;&gt;Node4 -->
<g id="edge3_Node000003_Node000004" class="edge">
<title>Node3&#45;&gt;Node4</title>
<g id="a_edge3_Node000003_Node000004"><a xlink:title=" ">
<path fill="none" stroke="#63b8ff" d="M162,-85.63C162,-77.11 162,-68.25 162,-60.21"/>
<polygon fill="none" stroke="#63b8ff" points="158.5,-85.77 162,-95.77 165.5,-85.77 158.5,-85.77"/>
</a>
</g>
</g>
<!-- Node6 -->
<g id="Node000006" class="node">
<title>Node6</title>
<g id="a_Node000006"><a xlink:href="../../d5/d6d/structvanetza_1_1pdu__tags_1_1mk2__tag.html" target="_top" xlink:title=" ">
<polygon fill="white" stroke="transparent" points="324,-60 228,-60 228,0 324,0 324,-60"/>
<text text-anchor="start" x="233" y="-48" font-family="Helvetica,sans-Serif" font-size="10.00">vanetza::pdu_tags::</text>
<text text-anchor="start" x="257" y="-37" font-family="Helvetica,sans-Serif" font-size="10.00">mk2_tag</text>
<text text-anchor="start" x="274" y="-22" font-family="Helvetica,sans-Serif" font-size="10.00"> </text>
<text text-anchor="start" x="274" y="-7" font-family="Helvetica,sans-Serif" font-size="10.00"> </text>
<polygon fill="#bfbfbf" stroke="#bfbfbf" points="228,-32 228,-32 324,-32 324,-32 228,-32"/>
<polygon fill="#bfbfbf" stroke="#bfbfbf" points="228,-17 228,-17 324,-17 324,-17 228,-17"/>
<polygon fill="none" stroke="#bfbfbf" points="228,0 228,-60 324,-60 324,0 228,0"/>
</a>
</g>
</g>
<!-- Node5&#45;&gt;Node6 -->
<g id="edge5_Node000005_Node000006" class="edge">
<title>Node5&#45;&gt;Node6</title>
<g id="a_edge5_Node000005_Node000006"><a xlink:title=" ">
<path fill="none" stroke="#63b8ff" d="M276,-85.63C276,-77.11 276,-68.25 276,-60.21"/>
<polygon fill="none" stroke="#63b8ff" points="272.5,-85.77 276,-95.77 279.5,-85.77 272.5,-85.77"/>
</a>
</g>
</g>
</g>
</svg>
