<?xml version="1.0" encoding="UTF-8" standalone="no"?>
<!DOCTYPE svg PUBLIC "-//W3C//DTD SVG 1.1//EN"
 "http://www.w3.org/Graphics/SVG/1.1/DTD/svg11.dtd">
<!-- Generated by graphviz version 14.1.2 (0)
 -->
<!-- Title: vanetza::pdu_tags::pdu_tag Pages: 1 -->
<svg width="353pt" height="281pt"
 viewBox="0.00 0.00 353.00 281.00" xmlns="http://www.w3.org/2000/svg" xmlns:xlink="http://www.w3.org/1999/xlink">
<g id="graph0" class="graph" transform="scale(1 1) rotate(0) translate(4 277)">
<title>vanetza::pdu_tags::pdu_tag</title>
<!-- Node1 -->
<g id="Node000001" class="node">
<title>Node1</title>
<g id="a_Node000001"><a xlink:title=" ">
<polygon fill="#999999" stroke="none" points="224.25,-273 121,-273 121,-206 224.25,-206 224.25,-273"/>
<text xml:space="preserve" text-anchor="start" x="125" y="-259.5" font-family="Helvetica,sans-Serif" font-size="10.00">vanetza::pdu_tags::</text>
<text xml:space="preserve" text-anchor="start" x="153.12" y="-246.75" font-family="Helvetica,sans-Serif" font-size="10.00">pdu_tag</text>
<text xml:space="preserve" text-anchor="start" x="171.12" y="-230" font-family="Helvetica,sans-Serif" font-size="10.00"> </text>
<text xml:space="preserve" text-anchor="start" x="171.12" y="-213.25" font-family="Helvetica,sans-Serif" font-size="10.00"> </text>
<polygon fill="#666666" stroke="#666666" points="121,-241.5 121,-241.5 224.25,-241.5 224.25,-241.5 121,-241.5"/>
<polygon fill="#666666" stroke="#666666" points="121,-224.75 121,-224.75 224.25,-224.75 224.25,-224.75 121,-224.75"/>
<polygon fill="none" stroke="#666666" points="121,-206 121,-273 224.25,-273 224.25,-206 121,-206"/>
</a>
</g>
</g>
<!-- Node2 -->
<g id="Node000002" class="node">
<title>Node2</title>
<g id="a_Node000002"><a xlink:href="../../db/d41/structvanetza_1_1pdu__tags_1_1empty__pdu__tag.html" target="_top" xlink:title=" ">
<polygon fill="white" stroke="none" points="103.25,-170 0,-170 0,-103 103.25,-103 103.25,-170"/>
<text xml:space="preserve" text-anchor="start" x="4" y="-156.5" font-family="Helvetica,sans-Serif" font-size="10.00">vanetza::pdu_tags::</text>
<text xml:space="preserve" text-anchor="start" x="13.75" y="-143.75" font-family="Helvetica,sans-Serif" font-size="10.00">empty_pdu_tag</text>
<text xml:space="preserve" text-anchor="start" x="50.12" y="-127" font-family="Helvetica,sans-Serif" font-size="10.00"> </text>
<text xml:space="preserve" text-anchor="start" x="50.12" y="-110.25" font-family="Helvetica,sans-Serif" font-size="10.00"> </text>
<polygon fill="#bfbfbf" stroke="#bfbfbf" points="0,-138.5 0,-138.5 103.25,-138.5 103.25,-138.5 0,-138.5"/>
<polygon fill="#bfbfbf" stroke="#bfbfbf" points="0,-121.75 0,-121.75 103.25,-121.75 103.25,-121.75 0,-121.75"/>
<polygon fill="none" stroke="#bfbfbf" points="0,-103 0,-170 103.25,-170 103.25,-103 0,-103"/>
</a>
</g>
</g>
<!-- Node1&#45;&gt;Node2 -->
<g id="edge1_Node000001_Node000002" class="edge">
<title>Node1&#45;&gt;Node2</title>
<g id="a_edge1_Node000001_Node000002"><a xlink:title=" ">
<path fill="none" stroke="#63b8ff" d="M125.3,-199C113.7,-189.32 101.43,-179.07 90.29,-169.77"/>
<polygon fill="none" stroke="#63b8ff" points="122.93,-201.57 132.85,-205.3 127.41,-196.2 122.93,-201.57"/>
</a>
</g>
</g>
<!-- Node3 -->
<g id="Node000003" class="node">
<title>Node3</title>
<g id="a_Node000003"><a xlink:href="../../d0/df3/structvanetza_1_1pdu__tags_1_1mac__tag.html" target="_top" xlink:title=" ">
<polygon fill="white" stroke="none" points="224.25,-170 121,-170 121,-103 224.25,-103 224.25,-170"/>
<text xml:space="preserve" text-anchor="start" x="125" y="-156.5" font-family="Helvetica,sans-Serif" font-size="10.00">vanetza::pdu_tags::</text>
<text xml:space="preserve" text-anchor="start" x="151.62" y="-143.75" font-family="Helvetica,sans-Serif" font-size="10.00">mac_tag</text>
<text xml:space="preserve" text-anchor="start" x="171.12" y="-127" font-family="Helvetica,sans-Serif" font-size="10.00"> </text>
<text xml:space="preserve" text-anchor="start" x="171.12" y="-110.25" font-family="Helvetica,sans-Serif" font-size="10.00"> </text>
<polygon fill="#bfbfbf" stroke="#bfbfbf" points="121,-138.5 121,-138.5 224.25,-138.5 224.25,-138.5 121,-138.5"/>
<polygon fill="#bfbfbf" stroke="#bfbfbf" points="121,-121.75 121,-121.75 224.25,-121.75 224.25,-121.75 121,-121.75"/>
<polygon fill="none" stroke="#bfbfbf" points="121,-103 121,-170 224.25,-170 224.25,-103 121,-103"/>
</a>
</g>
</g>
<!-- Node1&#45;&gt;Node3 -->
<g id="edge2_Node000001_Node000003" class="edge">
<title>Node1&#45;&gt;Node3</title>
<g id="a_edge2_Node000001_Node000003"><a xlink:title=" ">
<path fill="none" stroke="#63b8ff" d="M172.62,-194.98C172.62,-186.52 172.62,-177.79 172.62,-169.77"/>
<polygon fill="none" stroke="#63b8ff" points="169.13,-194.75 172.63,-204.75 176.13,-194.75 169.13,-194.75"/>
</a>
</g>
</g>
<!-- Node5 -->
<g id="Node000005" class="node">
<title>Node5</title>
<g id="a_Node000005"><a xlink:href="../../dd/de8/structvanetza_1_1pdu__tags_1_1phy__tag.html" target="_top" xlink:title=" ">
<polygon fill="white" stroke="none" points="345.25,-170 242,-170 242,-103 345.25,-103 345.25,-170"/>
<text xml:space="preserve" text-anchor="start" x="246" y="-156.5" font-family="Helvetica,sans-Serif" font-size="10.00">vanetza::pdu_tags::</text>
<text xml:space="preserve" text-anchor="start" x="274.12" y="-143.75" font-family="Helvetica,sans-Serif" font-size="10.00">phy_tag</text>
<text xml:space="preserve" text-anchor="start" x="292.12" y="-127" font-family="Helvetica,sans-Serif" font-size="10.00"> </text>
<text xml:space="preserve" text-anchor="start" x="292.12" y="-110.25" font-family="Helvetica,sans-Serif" font-size="10.00"> </text>
<polygon fill="#bfbfbf" stroke="#bfbfbf" points="242,-138.5 242,-138.5 345.25,-138.5 345.25,-138.5 242,-138.5"/>
<polygon fill="#bfbfbf" stroke="#bfbfbf" points="242,-121.75 242,-121.75 345.25,-121.75 345.25,-121.75 242,-121.75"/>
<polygon fill="none" stroke="#bfbfbf" points="242,-103 242,-170 345.25,-170 345.25,-103 242,-103"/>
</a>
</g>
</g>
<!-- Node1&#45;&gt;Node5 -->
<g id="edge4_Node000001_Node000005" class="edge">
<title>Node1&#45;&gt;Node5</title>
<g id="a_edge4_Node000001_Node000005"><a xlink:title=" ">
<path fill="none" stroke="#63b8ff" d="M219.95,-199C231.55,-189.32 243.82,-179.07 254.96,-169.77"/>
<polygon fill="none" stroke="#63b8ff" points="217.84,-196.2 212.4,-205.3 222.32,-201.57 217.84,-196.2"/>
</a>
</g>
</g>
<!-- Node4 -->
<g id="Node000004" class="node">
<title>Node4</title>
<g id="a_Node000004"><a xlink:href="../../d9/df4/structvanetza_1_1pdu__tags_1_1ethernet__tag.html" target="_top" xlink:title=" ">
<polygon fill="white" stroke="none" points="224.25,-67 121,-67 121,0 224.25,0 224.25,-67"/>
<text xml:space="preserve" text-anchor="start" x="125" y="-53.5" font-family="Helvetica,sans-Serif" font-size="10.00">vanetza::pdu_tags::</text>
<text xml:space="preserve" text-anchor="start" x="141.5" y="-40.75" font-family="Helvetica,sans-Serif" font-size="10.00">ethernet_tag</text>
<text xml:space="preserve" text-anchor="start" x="171.12" y="-24" font-family="Helvetica,sans-Serif" font-size="10.00"> </text>
<text xml:space="preserve" text-anchor="start" x="171.12" y="-7.25" font-family="Helvetica,sans-Serif" font-size="10.00"> </text>
<polygon fill="#bfbfbf" stroke="#bfbfbf" points="121,-35.5 121,-35.5 224.25,-35.5 224.25,-35.5 121,-35.5"/>
<polygon fill="#bfbfbf" stroke="#bfbfbf" points="121,-18.75 121,-18.75 224.25,-18.75 224.25,-18.75 121,-18.75"/>
<polygon fill="none" stroke="#bfbfbf" points="121,0 121,-67 224.25,-67 224.25,0 121,0"/>
</a>
</g>
</g>
<!-- Node3&#45;&gt;Node4 -->
<g id="edge3_Node000003_Node000004" class="edge">
<title>Node3&#45;&gt;Node4</title>
<g id="a_edge3_Node000003_Node000004"><a xlink:title=" ">
<path fill="none" stroke="#63b8ff" d="M172.62,-91.98C172.62,-83.52 172.62,-74.79 172.62,-66.77"/>
<polygon fill="none" stroke="#63b8ff" points="169.13,-91.75 172.63,-101.75 176.13,-91.75 169.13,-91.75"/>
</a>
</g>
</g>
<!-- Node6 -->
<g id="Node000006" class="node">
<title>Node6</title>
<g id="a_Node000006"><a xlink:href="../../d5/d6d/structvanetza_1_1pdu__tags_1_1mk2__tag.html" target="_top" xlink:title=" ">
<polygon fill="white" stroke="none" points="345.25,-67 242,-67 242,0 345.25,0 345.25,-67"/>
<text xml:space="preserve" text-anchor="start" x="246" y="-53.5" font-family="Helvetica,sans-Serif" font-size="10.00">vanetza::pdu_tags::</text>
<text xml:space="preserve" text-anchor="start" x="272.25" y="-40.75" font-family="Helvetica,sans-Serif" font-size="10.00">mk2_tag</text>
<text xml:space="preserve" text-anchor="start" x="292.12" y="-24" font-family="Helvetica,sans-Serif" font-size="10.00"> </text>
<text xml:space="preserve" text-anchor="start" x="292.12" y="-7.25" font-family="Helvetica,sans-Serif" font-size="10.00"> </text>
<polygon fill="#bfbfbf" stroke="#bfbfbf" points="242,-35.5 242,-35.5 345.25,-35.5 345.25,-35.5 242,-35.5"/>
<polygon fill="#bfbfbf" stroke="#bfbfbf" points="242,-18.75 242,-18.75 345.25,-18.75 345.25,-18.75 242,-18.75"/>
<polygon fill="none" stroke="#bfbfbf" points="242,0 242,-67 345.25,-67 345.25,0 242,0"/>
</a>
</g>
</g>
<!-- Node5&#45;&gt;Node6 -->
<g id="edge5_Node000005_Node000006" class="edge">
<title>Node5&#45;&gt;Node6</title>
<g id="a_edge5_Node000005_Node000006"><a xlink:title=" ">
<path fill="none" stroke="#63b8ff" d="M293.62,-91.98C293.62,-83.52 293.62,-74.79 293.62,-66.77"/>
<polygon fill="none" stroke="#63b8ff" points="290.13,-91.75 293.63,-101.75 297.13,-91.75 290.13,-91.75"/>
</a>
</g>
</g>
</g>
</svg>
