<?xml version="1.0" encoding="UTF-8" standalone="no"?>
<!DOCTYPE svg PUBLIC "-//W3C//DTD SVG 1.1//EN"
 "http://www.w3.org/Graphics/SVG/1.1/DTD/svg11.dtd">
<!-- Generated by graphviz version 2.42.3 (0)
 -->
<!-- Title: vanetza::security::v3::Uint64 Pages: 1 -->
<svg width="200pt" height="471pt"
 viewBox="0.00 0.00 199.50 471.00" xmlns="http://www.w3.org/2000/svg" xmlns:xlink="http://www.w3.org/1999/xlink">
<g id="graph0" class="graph" transform="scale(1 1) rotate(0) translate(4 467)">
<title>vanetza::security::v3::Uint64</title>
<polygon fill="white" stroke="transparent" points="-4,4 -4,-467 195.5,-467 195.5,4 -4,4"/>
<!-- Node1 -->
<g id="node1" class="node">
<title>Node1</title>
<g id="a_node1"><a xlink:title=" ">
<polygon fill="#bfbfbf" stroke="black" points="21.5,-0.5 21.5,-68.5 117.5,-68.5 117.5,-0.5 21.5,-0.5"/>
<text text-anchor="start" x="29.5" y="-56.5" font-family="Helvetica,sans-Serif" font-size="10.00">vanetza::security::</text>
<text text-anchor="middle" x="69.5" y="-45.5" font-family="Helvetica,sans-Serif" font-size="10.00">v3::Uint64</text>
<polyline fill="none" stroke="black" points="21.5,-38.5 117.5,-38.5 "/>
<text text-anchor="middle" x="69.5" y="-26.5" font-family="Helvetica,sans-Serif" font-size="10.00"> </text>
<polyline fill="none" stroke="black" points="21.5,-19.5 117.5,-19.5 "/>
<text text-anchor="start" x="29.5" y="-7.5" font-family="Helvetica,sans-Serif" font-size="10.00">+ Uint64()</text>
</a>
</g>
</g>
<!-- Node2 -->
<g id="node2" class="node">
<title>Node2</title>
<g id="a_node2"><a xlink:href="../../d3/d3c/structvanetza_1_1security_1_1v3_1_1IntegerFixed.html" target="_top" xlink:title=" ">
<polygon fill="white" stroke="black" points="0,-106.5 0,-196.5 139,-196.5 139,-106.5 0,-106.5"/>
<text text-anchor="start" x="8" y="-184.5" font-family="Helvetica,sans-Serif" font-size="10.00">vanetza::security::</text>
<text text-anchor="middle" x="69.5" y="-173.5" font-family="Helvetica,sans-Serif" font-size="10.00">v3::IntegerFixed&lt; uint64_t &gt;</text>
<polyline fill="none" stroke="black" points="0,-166.5 139,-166.5 "/>
<text text-anchor="start" x="8" y="-154.5" font-family="Helvetica,sans-Serif" font-size="10.00">+ value</text>
<polyline fill="none" stroke="black" points="0,-147.5 139,-147.5 "/>
<text text-anchor="start" x="8" y="-135.5" font-family="Helvetica,sans-Serif" font-size="10.00">+ IntegerFixed()</text>
<text text-anchor="start" x="8" y="-124.5" font-family="Helvetica,sans-Serif" font-size="10.00">+ IntegerFixed()</text>
<text text-anchor="start" x="8" y="-113.5" font-family="Helvetica,sans-Serif" font-size="10.00">+ IntegerFixed()</text>
</a>
</g>
</g>
<!-- Node2&#45;&gt;Node1 -->
<g id="edge1" class="edge">
<title>Node2&#45;&gt;Node1</title>
<path fill="none" stroke="midnightblue" d="M69.5,-96.23C69.5,-86.8 69.5,-77.26 69.5,-68.62"/>
<polygon fill="none" stroke="midnightblue" points="66,-96.37 69.5,-106.37 73,-96.37 66,-96.37"/>
</g>
<!-- Node3 -->
<g id="node3" class="node">
<title>Node3</title>
<g id="a_node3"><a xlink:href="../../d5/d5c/structvanetza_1_1security_1_1v3_1_1Integer.html" target="_top" xlink:title=" ">
<polygon fill="white" stroke="black" points="17.5,-372.5 17.5,-462.5 113.5,-462.5 113.5,-372.5 17.5,-372.5"/>
<text text-anchor="start" x="25.5" y="-450.5" font-family="Helvetica,sans-Serif" font-size="10.00">vanetza::security::</text>
<text text-anchor="middle" x="65.5" y="-439.5" font-family="Helvetica,sans-Serif" font-size="10.00">v3::Integer</text>
<polyline fill="none" stroke="black" points="17.5,-432.5 113.5,-432.5 "/>
<text text-anchor="start" x="25.5" y="-420.5" font-family="Helvetica,sans-Serif" font-size="10.00">+ Min</text>
<text text-anchor="start" x="25.5" y="-409.5" font-family="Helvetica,sans-Serif" font-size="10.00">+ Max</text>
<polyline fill="none" stroke="black" points="17.5,-402.5 113.5,-402.5 "/>
<text text-anchor="start" x="25.5" y="-390.5" font-family="Helvetica,sans-Serif" font-size="10.00">+ Integer()</text>
<text text-anchor="start" x="25.5" y="-379.5" font-family="Helvetica,sans-Serif" font-size="10.00">+ Integer()</text>
</a>
</g>
</g>
<!-- Node3&#45;&gt;Node2 -->
<g id="edge2" class="edge">
<title>Node3&#45;&gt;Node2</title>
<path fill="none" stroke="midnightblue" d="M66.32,-362.23C67.06,-313.35 68.14,-242.38 68.83,-196.83"/>
<polygon fill="none" stroke="midnightblue" points="62.82,-362.26 66.17,-372.31 69.82,-362.37 62.82,-362.26"/>
</g>
<!-- Node4 -->
<g id="node4" class="node">
<title>Node4</title>
<g id="a_node4"><a xlink:href="../../d3/d3c/structvanetza_1_1security_1_1v3_1_1IntegerFixed.html" target="_top" xlink:title=" ">
<polygon fill="white" stroke="black" points="81.5,-244.5 81.5,-334.5 191.5,-334.5 191.5,-244.5 81.5,-244.5"/>
<text text-anchor="start" x="89.5" y="-322.5" font-family="Helvetica,sans-Serif" font-size="10.00">vanetza::security::</text>
<text text-anchor="middle" x="136.5" y="-311.5" font-family="Helvetica,sans-Serif" font-size="10.00">v3::IntegerFixed&lt; T &gt;</text>
<polyline fill="none" stroke="black" points="81.5,-304.5 191.5,-304.5 "/>
<text text-anchor="start" x="89.5" y="-292.5" font-family="Helvetica,sans-Serif" font-size="10.00">+ value</text>
<polyline fill="none" stroke="black" points="81.5,-285.5 191.5,-285.5 "/>
<text text-anchor="start" x="89.5" y="-273.5" font-family="Helvetica,sans-Serif" font-size="10.00">+ IntegerFixed()</text>
<text text-anchor="start" x="89.5" y="-262.5" font-family="Helvetica,sans-Serif" font-size="10.00">+ IntegerFixed()</text>
<text text-anchor="start" x="89.5" y="-251.5" font-family="Helvetica,sans-Serif" font-size="10.00">+ IntegerFixed()</text>
</a>
</g>
</g>
<!-- Node3&#45;&gt;Node4 -->
<g id="edge4" class="edge">
<title>Node3&#45;&gt;Node4</title>
<path fill="none" stroke="midnightblue" d="M95.25,-363.7C100.68,-354.07 106.29,-344.11 111.56,-334.76"/>
<polygon fill="none" stroke="midnightblue" points="92.19,-362 90.33,-372.43 98.29,-365.44 92.19,-362"/>
</g>
<!-- Node4&#45;&gt;Node2 -->
<g id="edge3" class="edge">
<title>Node4&#45;&gt;Node2</title>
<path fill="none" stroke="orange" d="M110.27,-235.26C104.02,-222.56 97.41,-209.15 91.37,-196.9"/>
<polygon fill="orange" stroke="orange" points="107.19,-236.92 114.75,-244.34 113.47,-233.83 107.19,-236.92"/>
<text text-anchor="middle" x="132.5" y="-218" font-family="Helvetica,sans-Serif" font-size="10.00"> &lt; uint64_t &gt;</text>
</g>
</g>
</svg>
