<?xml version="1.0" encoding="UTF-8" standalone="no"?>
<!DOCTYPE svg PUBLIC "-//W3C//DTD SVG 1.1//EN"
 "http://www.w3.org/Graphics/SVG/1.1/DTD/svg11.dtd">
<!-- Generated by graphviz version 2.42.3 (0)
 -->
<!-- Title: vanetza::security::v3::OctetString Pages: 1 -->
<svg width="397pt" height="310pt"
 viewBox="0.00 0.00 396.50 310.00" xmlns="http://www.w3.org/2000/svg" xmlns:xlink="http://www.w3.org/1999/xlink">
<g id="graph0" class="graph" transform="scale(1 1) rotate(0) translate(4 306)">
<title>vanetza::security::v3::OctetString</title>
<polygon fill="white" stroke="transparent" points="-4,4 -4,-306 392.5,-306 392.5,4 -4,4"/>
<!-- Node1 -->
<g id="node1" class="node">
<title>Node1</title>
<g id="a_node1"><a xlink:title=" ">
<polygon fill="#bfbfbf" stroke="black" points="181.5,-233.5 181.5,-301.5 277.5,-301.5 277.5,-233.5 181.5,-233.5"/>
<text text-anchor="start" x="189.5" y="-289.5" font-family="Helvetica,sans-Serif" font-size="10.00">vanetza::security::</text>
<text text-anchor="middle" x="229.5" y="-278.5" font-family="Helvetica,sans-Serif" font-size="10.00">v3::OctetString</text>
<polyline fill="none" stroke="black" points="181.5,-271.5 277.5,-271.5 "/>
<text text-anchor="middle" x="229.5" y="-259.5" font-family="Helvetica,sans-Serif" font-size="10.00"> </text>
<polyline fill="none" stroke="black" points="181.5,-252.5 277.5,-252.5 "/>
<text text-anchor="middle" x="229.5" y="-240.5" font-family="Helvetica,sans-Serif" font-size="10.00"> </text>
</a>
</g>
</g>
<!-- Node2 -->
<g id="node2" class="node">
<title>Node2</title>
<g id="a_node2"><a xlink:href="../../d0/d47/structvanetza_1_1security_1_1v3_1_1OctetStringFixedSize.html" target="_top" xlink:title=" ">
<polygon fill="white" stroke="black" points="0,-0.5 0,-68.5 149,-68.5 149,-0.5 0,-0.5"/>
<text text-anchor="start" x="8" y="-56.5" font-family="Helvetica,sans-Serif" font-size="10.00">vanetza::security::</text>
<text text-anchor="middle" x="74.5" y="-45.5" font-family="Helvetica,sans-Serif" font-size="10.00">v3::OctetStringFixedSize&lt; 3 &gt;</text>
<polyline fill="none" stroke="black" points="0,-38.5 149,-38.5 "/>
<text text-anchor="start" x="8" y="-26.5" font-family="Helvetica,sans-Serif" font-size="10.00">+ buffer</text>
<polyline fill="none" stroke="black" points="0,-19.5 149,-19.5 "/>
<text text-anchor="middle" x="74.5" y="-7.5" font-family="Helvetica,sans-Serif" font-size="10.00"> </text>
</a>
</g>
</g>
<!-- Node1&#45;&gt;Node2 -->
<g id="edge1" class="edge">
<title>Node1&#45;&gt;Node2</title>
<path fill="none" stroke="midnightblue" d="M171.38,-251.83C141.95,-241.28 108.52,-223.87 89.5,-196 63.79,-158.32 64.74,-103.55 68.82,-68.74"/>
<polygon fill="none" stroke="midnightblue" points="170.58,-255.25 181.18,-255.15 172.83,-248.62 170.58,-255.25"/>
</g>
<!-- Node3 -->
<g id="node3" class="node">
<title>Node3</title>
<g id="a_node3"><a xlink:href="../../d0/d47/structvanetza_1_1security_1_1v3_1_1OctetStringFixedSize.html" target="_top" xlink:title=" ">
<polygon fill="white" stroke="black" points="174,-0.5 174,-68.5 323,-68.5 323,-0.5 174,-0.5"/>
<text text-anchor="start" x="182" y="-56.5" font-family="Helvetica,sans-Serif" font-size="10.00">vanetza::security::</text>
<text text-anchor="middle" x="248.5" y="-45.5" font-family="Helvetica,sans-Serif" font-size="10.00">v3::OctetStringFixedSize&lt; 8 &gt;</text>
<polyline fill="none" stroke="black" points="174,-38.5 323,-38.5 "/>
<text text-anchor="start" x="182" y="-26.5" font-family="Helvetica,sans-Serif" font-size="10.00">+ buffer</text>
<polyline fill="none" stroke="black" points="174,-19.5 323,-19.5 "/>
<text text-anchor="middle" x="248.5" y="-7.5" font-family="Helvetica,sans-Serif" font-size="10.00"> </text>
</a>
</g>
</g>
<!-- Node1&#45;&gt;Node3 -->
<g id="edge2" class="edge">
<title>Node1&#45;&gt;Node3</title>
<path fill="none" stroke="midnightblue" d="M233.05,-223.39C236.74,-178.52 242.43,-109.25 245.78,-68.54"/>
<polygon fill="none" stroke="midnightblue" points="229.55,-223.15 232.22,-233.4 236.53,-223.72 229.55,-223.15"/>
</g>
<!-- Node4 -->
<g id="node4" class="node">
<title>Node4</title>
<g id="a_node4"><a xlink:href="../../d0/d47/structvanetza_1_1security_1_1v3_1_1OctetStringFixedSize.html" target="_top" xlink:title=" ">
<polygon fill="white" stroke="black" points="99,-116.5 99,-195.5 224,-195.5 224,-116.5 99,-116.5"/>
<text text-anchor="start" x="107" y="-183.5" font-family="Helvetica,sans-Serif" font-size="10.00">vanetza::security::</text>
<text text-anchor="start" x="107" y="-172.5" font-family="Helvetica,sans-Serif" font-size="10.00">v3::OctetStringFixedSize</text>
<text text-anchor="middle" x="161.5" y="-161.5" font-family="Helvetica,sans-Serif" font-size="10.00">&lt; SIZE &gt;</text>
<polyline fill="none" stroke="black" points="99,-154.5 224,-154.5 "/>
<text text-anchor="start" x="107" y="-142.5" font-family="Helvetica,sans-Serif" font-size="10.00">+ buffer</text>
<polyline fill="none" stroke="black" points="99,-135.5 224,-135.5 "/>
<text text-anchor="middle" x="161.5" y="-123.5" font-family="Helvetica,sans-Serif" font-size="10.00"> </text>
</a>
</g>
</g>
<!-- Node1&#45;&gt;Node4 -->
<g id="edge3" class="edge">
<title>Node1&#45;&gt;Node4</title>
<path fill="none" stroke="midnightblue" d="M203.6,-224.8C197.69,-215.28 191.43,-205.2 185.6,-195.81"/>
<polygon fill="none" stroke="midnightblue" points="200.66,-226.7 208.91,-233.35 206.61,-223.01 200.66,-226.7"/>
</g>
<!-- Node5 -->
<g id="node5" class="node">
<title>Node5</title>
<g id="a_node5"><a xlink:href="../../d4/ddd/structvanetza_1_1security_1_1v3_1_1OctetStringProxy.html" target="_top" xlink:title=" ">
<polygon fill="white" stroke="black" points="280.5,-122 280.5,-190 388.5,-190 388.5,-122 280.5,-122"/>
<text text-anchor="start" x="288.5" y="-178" font-family="Helvetica,sans-Serif" font-size="10.00">vanetza::security::</text>
<text text-anchor="middle" x="334.5" y="-167" font-family="Helvetica,sans-Serif" font-size="10.00">v3::OctetStringProxy</text>
<polyline fill="none" stroke="black" points="280.5,-160 388.5,-160 "/>
<text text-anchor="middle" x="334.5" y="-148" font-family="Helvetica,sans-Serif" font-size="10.00"> </text>
<polyline fill="none" stroke="black" points="280.5,-141 388.5,-141 "/>
<text text-anchor="middle" x="334.5" y="-129" font-family="Helvetica,sans-Serif" font-size="10.00"> </text>
</a>
</g>
</g>
<!-- Node1&#45;&gt;Node5 -->
<g id="edge6" class="edge">
<title>Node1&#45;&gt;Node5</title>
<path fill="none" stroke="midnightblue" d="M268.24,-226.1C279.62,-214.23 291.93,-201.39 302.82,-190.04"/>
<polygon fill="none" stroke="midnightblue" points="265.68,-223.71 261.29,-233.35 270.74,-228.55 265.68,-223.71"/>
</g>
<!-- Node4&#45;&gt;Node2 -->
<g id="edge4" class="edge">
<title>Node4&#45;&gt;Node2</title>
<path fill="none" stroke="orange" d="M127.14,-107.8C117.66,-94.78 107.58,-80.94 98.81,-68.89"/>
<polygon fill="orange" stroke="orange" points="124.54,-110.18 133.25,-116.2 130.2,-106.06 124.54,-110.18"/>
<text text-anchor="middle" x="132" y="-90" font-family="Helvetica,sans-Serif" font-size="10.00"> &lt; 3 &gt;</text>
</g>
<!-- Node4&#45;&gt;Node3 -->
<g id="edge5" class="edge">
<title>Node4&#45;&gt;Node3</title>
<path fill="none" stroke="orange" d="M195.86,-107.8C205.34,-94.78 215.42,-80.94 224.19,-68.89"/>
<polygon fill="orange" stroke="orange" points="192.8,-106.06 189.75,-116.2 198.46,-110.18 192.8,-106.06"/>
<text text-anchor="middle" x="224" y="-90" font-family="Helvetica,sans-Serif" font-size="10.00"> &lt; 8 &gt;</text>
</g>
</g>
</svg>
