<?xml version="1.0" encoding="UTF-8" standalone="no"?>
<!DOCTYPE svg PUBLIC "-//W3C//DTD SVG 1.1//EN"
 "http://www.w3.org/Graphics/SVG/1.1/DTD/svg11.dtd">
<!-- Generated by graphviz version 14.1.2 (0)
 -->
<!-- Title: vanetza::security::v3::DenyLocationChecker Pages: 1 -->
<svg width="140pt" height="195pt"
 viewBox="0.00 0.00 140.00 195.00" xmlns="http://www.w3.org/2000/svg" xmlns:xlink="http://www.w3.org/1999/xlink">

<svg id="main" version="1.1" xmlns="http://www.w3.org/2000/svg" xmlns:xlink="http://www.w3.org/1999/xlink" xml:space="preserve">

<style type="text/css"><![CDATA[
.node, .edge {opacity: 0.7;}
.node.selected, .edge.selected {opacity: 1;}
.edge:hover path { stroke: red; }
.edge:hover polygon { stroke: red; fill: red; }
]]></style>
<script type="application/ecmascript" xlink:href="../../svg.min.js"/>
<svg id="graph" class="graph">
<g id="graph0" class="graph" transform="scale(1 1) rotate(0) translate(4 190.75)">
<title>vanetza::security::v3::DenyLocationChecker</title>
<!-- Node1 -->
<g id="Node000001" class="node">
<title>Node1</title>
<g id="a_Node000001"><a xlink:title=" ">
<polygon fill="#999999" stroke="none" points="131.75,-67 0,-67 0,0 131.75,0 131.75,-67"/>
<text xml:space="preserve" text-anchor="start" x="4" y="-53.5" font-family="Helvetica,sans-Serif" font-size="10.00">vanetza::security::</text>
<text xml:space="preserve" text-anchor="start" x="4" y="-40.75" font-family="Helvetica,sans-Serif" font-size="10.00">v3::DenyLocationChecker</text>
<text xml:space="preserve" text-anchor="start" x="64.38" y="-24" font-family="Helvetica,sans-Serif" font-size="10.00"> </text>
<text xml:space="preserve" text-anchor="start" x="9.19" y="-7.25" font-family="Helvetica,sans-Serif" font-size="10.00">+</text>
<text xml:space="preserve" text-anchor="start" x="26.62" y="-7.25" font-family="Helvetica,sans-Serif" font-size="10.00">valid_at_location()</text>
<polygon fill="#666666" stroke="#666666" points="0,-35.5 0,-35.5 131.75,-35.5 131.75,-35.5 0,-35.5"/>
<polygon fill="#666666" stroke="#666666" points="0,-18.75 0,-18.75 131.75,-18.75 131.75,-18.75 0,-18.75"/>
<polygon fill="none" stroke="#666666" points="0,0 0,-67 131.75,-67 131.75,0 0,0"/>
</a>
</g>
</g>
<!-- Node2 -->
<g id="Node000002" class="node">
<title>Node2</title>
<g id="a_Node000002"><a xlink:href="../../d2/dce/classvanetza_1_1security_1_1v3_1_1LocationChecker.html" target="_top" xlink:title=" ">
<polygon fill="white" stroke="none" points="124,-186.75 7.75,-186.75 7.75,-103 124,-103 124,-186.75"/>
<text xml:space="preserve" text-anchor="start" x="16.75" y="-173.25" font-family="Helvetica,sans-Serif" font-size="10.00">vanetza::security::</text>
<text xml:space="preserve" text-anchor="start" x="16.75" y="-160.5" font-family="Helvetica,sans-Serif" font-size="10.00">v3::LocationChecker</text>
<text xml:space="preserve" text-anchor="start" x="64.38" y="-143.75" font-family="Helvetica,sans-Serif" font-size="10.00"> </text>
<text xml:space="preserve" text-anchor="start" x="11.75" y="-127" font-family="Helvetica,sans-Serif" font-size="10.00">+</text>
<text xml:space="preserve" text-anchor="start" x="24" y="-127" font-family="Helvetica,sans-Serif" font-size="10.00">valid_at_location()</text>
<text xml:space="preserve" text-anchor="start" x="11.75" y="-110.25" font-family="Helvetica,sans-Serif" font-size="10.00">+</text>
<text xml:space="preserve" text-anchor="start" x="24" y="-110.25" font-family="Helvetica,sans-Serif" font-size="10.00">~LocationChecker()</text>
<polygon fill="#666666" stroke="#666666" points="7.75,-155.25 7.75,-155.25 124,-155.25 124,-155.25 7.75,-155.25"/>
<polygon fill="#666666" stroke="#666666" points="7.75,-138.5 7.75,-138.5 124,-138.5 124,-138.5 7.75,-138.5"/>
<polygon fill="none" stroke="#666666" points="7.75,-103 7.75,-186.75 124,-186.75 124,-103 7.75,-103"/>
</a>
</g>
</g>
<!-- Node2&#45;&gt;Node1 -->
<g id="edge1_Node000001_Node000002" class="edge">
<title>Node2&#45;&gt;Node1</title>
<g id="a_edge1_Node000001_Node000002"><a xlink:title=" ">
<path fill="none" stroke="#63b8ff" d="M65.88,-91.67C65.88,-83.16 65.88,-74.57 65.88,-66.72"/>
<polygon fill="none" stroke="#63b8ff" points="62.38,-91.63 65.88,-101.63 69.38,-91.63 62.38,-91.63"/>
</a>
</g>
</g>
</g>
</svg>
</svg>

<style type='text/css'>
<![CDATA[
[data-mouse-over-selected='false'] { opacity: 0.7; }
[data-mouse-over-selected='true']  { opacity: 1.0; }
]]>
</style>
<script type="application/ecmascript"><![CDATA[
document.addEventListener('DOMContentLoaded', (event) => {
  highlightEdges();
  highlightAdjacentNodes();
});
]]></script>
</svg>
