<?xml version="1.0" encoding="UTF-8" standalone="no"?>
<!DOCTYPE svg PUBLIC "-//W3C//DTD SVG 1.1//EN"
 "http://www.w3.org/Graphics/SVG/1.1/DTD/svg11.dtd">
<!-- Generated by graphviz version 2.49.3 (0)
 -->
<!-- Title: vanetza::security::v3::DenyLocationChecker Pages: 1 -->
<svg width="131pt" height="179pt"
 viewBox="0.00 0.00 131.00 179.00" xmlns="http://www.w3.org/2000/svg" xmlns:xlink="http://www.w3.org/1999/xlink">
<g id="graph0" class="graph" transform="scale(1 1) rotate(0) translate(4 175)">
<title>vanetza::security::v3::DenyLocationChecker</title>
<!-- Node1 -->
<g id="Node000001" class="node">
<title>Node1</title>
<g id="a_Node000001"><a xlink:title=" ">
<polygon fill="#999999" stroke="transparent" points="123,-60 0,-60 0,0 123,0 123,-60"/>
<text text-anchor="start" x="5.5" y="-48" font-family="Helvetica,sans-Serif" font-size="10.00">vanetza::security::</text>
<text text-anchor="start" x="5.5" y="-37" font-family="Helvetica,sans-Serif" font-size="10.00">v3::DenyLocationChecker</text>
<text text-anchor="start" x="60" y="-22" font-family="Helvetica,sans-Serif" font-size="10.00"> </text>
<text text-anchor="start" x="10.5" y="-7" font-family="Helvetica,sans-Serif" font-size="10.00">+</text>
<text text-anchor="start" x="27.5" y="-7" font-family="Helvetica,sans-Serif" font-size="10.00">valid_at_location()</text>
<polygon fill="#666666" stroke="#666666" points="0.5,-32 0.5,-32 123.5,-32 123.5,-32 0.5,-32"/>
<polygon fill="#666666" stroke="#666666" points="0.5,-17 0.5,-17 123.5,-17 123.5,-17 0.5,-17"/>
<polygon fill="none" stroke="#666666" points="0,0 0,-60 123,-60 123,0 0,0"/>
</a>
</g>
</g>
<!-- Node2 -->
<g id="Node000002" class="node">
<title>Node2</title>
<g id="a_Node000002"><a xlink:href="../../d2/dce/classvanetza_1_1security_1_1v3_1_1LocationChecker.html" target="_top" xlink:title=" ">
<polygon fill="white" stroke="transparent" points="113.5,-171 9.5,-171 9.5,-96 113.5,-96 113.5,-171"/>
<text text-anchor="start" x="16.5" y="-158.5" font-family="Helvetica,sans-Serif" font-size="10.00">vanetza::security::</text>
<text text-anchor="start" x="16.5" y="-147.5" font-family="Helvetica,sans-Serif" font-size="10.00">v3::LocationChecker</text>
<text text-anchor="start" x="59.5" y="-132.5" font-family="Helvetica,sans-Serif" font-size="10.00"> </text>
<text text-anchor="start" x="13.5" y="-117.5" font-family="Helvetica,sans-Serif" font-size="10.00">+</text>
<text text-anchor="start" x="24.5" y="-117.5" font-family="Helvetica,sans-Serif" font-size="10.00">valid_at_location()</text>
<text text-anchor="start" x="13.5" y="-102.5" font-family="Helvetica,sans-Serif" font-size="10.00">+</text>
<text text-anchor="start" x="24.5" y="-102.5" font-family="Helvetica,sans-Serif" font-size="10.00">~LocationChecker()</text>
<polygon fill="#666666" stroke="#666666" points="9.5,-142.5 9.5,-142.5 113.5,-142.5 113.5,-142.5 9.5,-142.5"/>
<polygon fill="#666666" stroke="#666666" points="9.5,-127.5 9.5,-127.5 113.5,-127.5 113.5,-127.5 9.5,-127.5"/>
<polygon fill="none" stroke="#666666" points="9.5,-96 9.5,-171 113.5,-171 113.5,-96 9.5,-96"/>
</a>
</g>
</g>
<!-- Node2&#45;&gt;Node1 -->
<g id="edge1_Node000001_Node000002" class="edge">
<title>Node2&#45;&gt;Node1</title>
<g id="a_edge1_Node000001_Node000002"><a xlink:title=" ">
<path fill="none" stroke="#63b8ff" d="M61.5,-85.79C61.5,-77.1 61.5,-68.25 61.5,-60.27"/>
<polygon fill="none" stroke="#63b8ff" points="58,-85.86 61.5,-95.86 65,-85.86 58,-85.86"/>
</a>
</g>
</g>
</g>
</svg>
