<?xml version="1.0" encoding="UTF-8" standalone="no"?>
<!DOCTYPE svg PUBLIC "-//W3C//DTD SVG 1.1//EN"
 "http://www.w3.org/Graphics/SVG/1.1/DTD/svg11.dtd">
<!-- Generated by graphviz version 2.49.3 (0)
 -->
<!-- Title: vanetza::geonet::SoftStateMap&lt; KEY, VALUE, CTOR &gt; Pages: 1 -->
<svg width="350pt" height="777pt"
 viewBox="0.00 0.00 349.50 777.00" xmlns="http://www.w3.org/2000/svg" xmlns:xlink="http://www.w3.org/1999/xlink">
<g id="graph0" class="graph" transform="scale(1 1) rotate(0) translate(4 773)">
<title>vanetza::geonet::SoftStateMap&lt; KEY, VALUE, CTOR &gt;</title>
<!-- Node1 -->
<g id="Node000001" class="node">
<title>Node1</title>
<g id="a_Node000001"><a xlink:title=" ">
<polygon fill="#999999" stroke="transparent" points="245.5,-769 106.5,-769 106.5,-424 245.5,-424 245.5,-769"/>
<text text-anchor="start" x="112" y="-756.5" font-family="Helvetica,sans-Serif" font-size="10.00">vanetza::geonet::SoftState</text>
<text text-anchor="start" x="112" y="-745.5" font-family="Helvetica,sans-Serif" font-size="10.00">Map&lt; KEY, VALUE, CTOR &gt;</text>
<text text-anchor="start" x="125.5" y="-730.5" font-family="Helvetica,sans-Serif" font-size="10.00">&#45;</text>
<text text-anchor="start" x="148" y="-730.5" font-family="Helvetica,sans-Serif" font-size="10.00">m_runtime</text>
<text text-anchor="start" x="125.5" y="-715.5" font-family="Helvetica,sans-Serif" font-size="10.00">&#45;</text>
<text text-anchor="start" x="148" y="-715.5" font-family="Helvetica,sans-Serif" font-size="10.00">m_lifetime</text>
<text text-anchor="start" x="125.5" y="-700.5" font-family="Helvetica,sans-Serif" font-size="10.00">&#45;</text>
<text text-anchor="start" x="148" y="-700.5" font-family="Helvetica,sans-Serif" font-size="10.00">m_creator</text>
<text text-anchor="start" x="125.5" y="-685.5" font-family="Helvetica,sans-Serif" font-size="10.00">&#45;</text>
<text text-anchor="start" x="148" y="-685.5" font-family="Helvetica,sans-Serif" font-size="10.00">m_heap</text>
<text text-anchor="start" x="125.5" y="-670.5" font-family="Helvetica,sans-Serif" font-size="10.00">&#45;</text>
<text text-anchor="start" x="148" y="-670.5" font-family="Helvetica,sans-Serif" font-size="10.00">m_map</text>
<text text-anchor="start" x="124" y="-655.5" font-family="Helvetica,sans-Serif" font-size="10.00">+</text>
<text text-anchor="start" x="148" y="-655.5" font-family="Helvetica,sans-Serif" font-size="10.00">SoftStateMap()</text>
<text text-anchor="start" x="124" y="-640.5" font-family="Helvetica,sans-Serif" font-size="10.00">+</text>
<text text-anchor="start" x="148" y="-640.5" font-family="Helvetica,sans-Serif" font-size="10.00">SoftStateMap()</text>
<text text-anchor="start" x="124" y="-625.5" font-family="Helvetica,sans-Serif" font-size="10.00">+</text>
<text text-anchor="start" x="148" y="-625.5" font-family="Helvetica,sans-Serif" font-size="10.00">set_lifetime()</text>
<text text-anchor="start" x="124" y="-610.5" font-family="Helvetica,sans-Serif" font-size="10.00">+</text>
<text text-anchor="start" x="148" y="-610.5" font-family="Helvetica,sans-Serif" font-size="10.00">get_value()</text>
<text text-anchor="start" x="124" y="-595.5" font-family="Helvetica,sans-Serif" font-size="10.00">+</text>
<text text-anchor="start" x="148" y="-595.5" font-family="Helvetica,sans-Serif" font-size="10.00">get_value_ptr()</text>
<text text-anchor="start" x="124" y="-580.5" font-family="Helvetica,sans-Serif" font-size="10.00">+</text>
<text text-anchor="start" x="148" y="-580.5" font-family="Helvetica,sans-Serif" font-size="10.00">get_value_ptr()</text>
<text text-anchor="start" x="124" y="-565.5" font-family="Helvetica,sans-Serif" font-size="10.00">+</text>
<text text-anchor="start" x="148" y="-565.5" font-family="Helvetica,sans-Serif" font-size="10.00">has_value()</text>
<text text-anchor="start" x="124" y="-550.5" font-family="Helvetica,sans-Serif" font-size="10.00">+</text>
<text text-anchor="start" x="148" y="-550.5" font-family="Helvetica,sans-Serif" font-size="10.00">refresh()</text>
<text text-anchor="start" x="124" y="-535.5" font-family="Helvetica,sans-Serif" font-size="10.00">+</text>
<text text-anchor="start" x="148" y="-535.5" font-family="Helvetica,sans-Serif" font-size="10.00">drop_expired()</text>
<text text-anchor="start" x="124" y="-520.5" font-family="Helvetica,sans-Serif" font-size="10.00">+</text>
<text text-anchor="start" x="148" y="-520.5" font-family="Helvetica,sans-Serif" font-size="10.00">map()</text>
<text text-anchor="start" x="124" y="-505.5" font-family="Helvetica,sans-Serif" font-size="10.00">+</text>
<text text-anchor="start" x="148" y="-505.5" font-family="Helvetica,sans-Serif" font-size="10.00">map()</text>
<text text-anchor="start" x="125.5" y="-490.5" font-family="Helvetica,sans-Serif" font-size="10.00">&#45;</text>
<text text-anchor="start" x="148" y="-490.5" font-family="Helvetica,sans-Serif" font-size="10.00">get_data()</text>
<text text-anchor="start" x="125.5" y="-475.5" font-family="Helvetica,sans-Serif" font-size="10.00">&#45;</text>
<text text-anchor="start" x="148" y="-475.5" font-family="Helvetica,sans-Serif" font-size="10.00">get_data_ptr()</text>
<text text-anchor="start" x="125.5" y="-460.5" font-family="Helvetica,sans-Serif" font-size="10.00">&#45;</text>
<text text-anchor="start" x="148" y="-460.5" font-family="Helvetica,sans-Serif" font-size="10.00">get_data_ptr()</text>
<text text-anchor="start" x="125.5" y="-445.5" font-family="Helvetica,sans-Serif" font-size="10.00">&#45;</text>
<text text-anchor="start" x="148" y="-445.5" font-family="Helvetica,sans-Serif" font-size="10.00">is_expired()</text>
<text text-anchor="start" x="125.5" y="-430.5" font-family="Helvetica,sans-Serif" font-size="10.00">&#45;</text>
<text text-anchor="start" x="148" y="-430.5" font-family="Helvetica,sans-Serif" font-size="10.00">refresh()</text>
<polygon fill="#666666" stroke="#666666" points="107,-740.5 107,-740.5 246,-740.5 246,-740.5 107,-740.5"/>
<polygon fill="#666666" stroke="#666666" points="107,-665.5 107,-665.5 146,-665.5 146,-665.5 107,-665.5"/>
<polygon fill="#666666" stroke="#666666" points="146,-665.5 146,-665.5 246,-665.5 246,-665.5 146,-665.5"/>
<polygon fill="none" stroke="#666666" points="106.5,-424 106.5,-769 245.5,-769 245.5,-424 106.5,-424"/>
</a>
</g>
</g>
<!-- Node2 -->
<g id="Node000002" class="node">
<title>Node2</title>
<g id="a_Node000002"><a xlink:href="../../dd/dab/classvanetza_1_1geonet_1_1SoftStateMap.html" target="_top" xlink:title=" ">
<polygon fill="white" stroke="transparent" points="164,-356 0,-356 0,0 164,0 164,-356"/>
<text text-anchor="start" x="5" y="-344" font-family="Helvetica,sans-Serif" font-size="10.00">vanetza::geonet::SoftState</text>
<text text-anchor="start" x="5" y="-333" font-family="Helvetica,sans-Serif" font-size="10.00">Map&lt; MacAddress, LocationTable</text>
<text text-anchor="start" x="5" y="-322" font-family="Helvetica,sans-Serif" font-size="10.00">Entry, LocationTableEntryCreator &gt;</text>
<text text-anchor="start" x="25" y="-307" font-family="Helvetica,sans-Serif" font-size="10.00">&#45;</text>
<text text-anchor="start" x="54" y="-307" font-family="Helvetica,sans-Serif" font-size="10.00">m_runtime</text>
<text text-anchor="start" x="25" y="-292" font-family="Helvetica,sans-Serif" font-size="10.00">&#45;</text>
<text text-anchor="start" x="54" y="-292" font-family="Helvetica,sans-Serif" font-size="10.00">m_lifetime</text>
<text text-anchor="start" x="25" y="-277" font-family="Helvetica,sans-Serif" font-size="10.00">&#45;</text>
<text text-anchor="start" x="54" y="-277" font-family="Helvetica,sans-Serif" font-size="10.00">m_creator</text>
<text text-anchor="start" x="25" y="-262" font-family="Helvetica,sans-Serif" font-size="10.00">&#45;</text>
<text text-anchor="start" x="54" y="-262" font-family="Helvetica,sans-Serif" font-size="10.00">m_heap</text>
<text text-anchor="start" x="25" y="-247" font-family="Helvetica,sans-Serif" font-size="10.00">&#45;</text>
<text text-anchor="start" x="54" y="-247" font-family="Helvetica,sans-Serif" font-size="10.00">m_map</text>
<text text-anchor="start" x="23.5" y="-232" font-family="Helvetica,sans-Serif" font-size="10.00">+</text>
<text text-anchor="start" x="54" y="-232" font-family="Helvetica,sans-Serif" font-size="10.00">SoftStateMap()</text>
<text text-anchor="start" x="23.5" y="-217" font-family="Helvetica,sans-Serif" font-size="10.00">+</text>
<text text-anchor="start" x="54" y="-217" font-family="Helvetica,sans-Serif" font-size="10.00">SoftStateMap()</text>
<text text-anchor="start" x="23.5" y="-202" font-family="Helvetica,sans-Serif" font-size="10.00">+</text>
<text text-anchor="start" x="54" y="-202" font-family="Helvetica,sans-Serif" font-size="10.00">set_lifetime()</text>
<text text-anchor="start" x="23.5" y="-187" font-family="Helvetica,sans-Serif" font-size="10.00">+</text>
<text text-anchor="start" x="54" y="-187" font-family="Helvetica,sans-Serif" font-size="10.00">get_value()</text>
<text text-anchor="start" x="23.5" y="-172" font-family="Helvetica,sans-Serif" font-size="10.00">+</text>
<text text-anchor="start" x="54" y="-172" font-family="Helvetica,sans-Serif" font-size="10.00">get_value_ptr()</text>
<text text-anchor="start" x="23.5" y="-157" font-family="Helvetica,sans-Serif" font-size="10.00">+</text>
<text text-anchor="start" x="54" y="-157" font-family="Helvetica,sans-Serif" font-size="10.00">get_value_ptr()</text>
<text text-anchor="start" x="23.5" y="-142" font-family="Helvetica,sans-Serif" font-size="10.00">+</text>
<text text-anchor="start" x="54" y="-142" font-family="Helvetica,sans-Serif" font-size="10.00">has_value()</text>
<text text-anchor="start" x="23.5" y="-127" font-family="Helvetica,sans-Serif" font-size="10.00">+</text>
<text text-anchor="start" x="54" y="-127" font-family="Helvetica,sans-Serif" font-size="10.00">refresh()</text>
<text text-anchor="start" x="23.5" y="-112" font-family="Helvetica,sans-Serif" font-size="10.00">+</text>
<text text-anchor="start" x="54" y="-112" font-family="Helvetica,sans-Serif" font-size="10.00">drop_expired()</text>
<text text-anchor="start" x="23.5" y="-97" font-family="Helvetica,sans-Serif" font-size="10.00">+</text>
<text text-anchor="start" x="54" y="-97" font-family="Helvetica,sans-Serif" font-size="10.00">map()</text>
<text text-anchor="start" x="23.5" y="-82" font-family="Helvetica,sans-Serif" font-size="10.00">+</text>
<text text-anchor="start" x="54" y="-82" font-family="Helvetica,sans-Serif" font-size="10.00">map()</text>
<text text-anchor="start" x="25" y="-67" font-family="Helvetica,sans-Serif" font-size="10.00">&#45;</text>
<text text-anchor="start" x="54" y="-67" font-family="Helvetica,sans-Serif" font-size="10.00">get_data()</text>
<text text-anchor="start" x="25" y="-52" font-family="Helvetica,sans-Serif" font-size="10.00">&#45;</text>
<text text-anchor="start" x="54" y="-52" font-family="Helvetica,sans-Serif" font-size="10.00">get_data_ptr()</text>
<text text-anchor="start" x="25" y="-37" font-family="Helvetica,sans-Serif" font-size="10.00">&#45;</text>
<text text-anchor="start" x="54" y="-37" font-family="Helvetica,sans-Serif" font-size="10.00">get_data_ptr()</text>
<text text-anchor="start" x="25" y="-22" font-family="Helvetica,sans-Serif" font-size="10.00">&#45;</text>
<text text-anchor="start" x="54" y="-22" font-family="Helvetica,sans-Serif" font-size="10.00">is_expired()</text>
<text text-anchor="start" x="25" y="-7" font-family="Helvetica,sans-Serif" font-size="10.00">&#45;</text>
<text text-anchor="start" x="54" y="-7" font-family="Helvetica,sans-Serif" font-size="10.00">refresh()</text>
<polygon fill="#666666" stroke="#666666" points="0,-317 0,-317 164,-317 164,-317 0,-317"/>
<polygon fill="#666666" stroke="#666666" points="0,-242 0,-242 52,-242 52,-242 0,-242"/>
<polygon fill="#666666" stroke="#666666" points="52,-242 52,-242 164,-242 164,-242 52,-242"/>
<polygon fill="none" stroke="#666666" points="0,0 0,-356 164,-356 164,0 0,0"/>
</a>
</g>
</g>
<!-- Node1&#45;&gt;Node2 -->
<g id="edge1_Node000001_Node000002" class="edge">
<title>Node1&#45;&gt;Node2</title>
<g id="a_edge1_Node000001_Node000002"><a xlink:title=" ">
<path fill="none" stroke="orange" d="M102.45,-464.55C94.46,-445.41 87.58,-425.55 83,-406 79.24,-389.98 76.69,-373.15 75.04,-356.2"/>
<polygon fill="orange" stroke="orange" points="99.29,-466.07 106.45,-473.89 105.73,-463.32 99.29,-466.07"/>
</a>
</g>
<text text-anchor="start" x="86" y="-395" font-family="Helvetica,sans-Serif" font-size="10.00" fill="grey">&lt; MacAddress, LocationTable</text>
<text text-anchor="start" x="86" y="-380" font-family="Helvetica,sans-Serif" font-size="10.00" fill="grey">  Entry, LocationTableEntryCreator &gt;</text>
</g>
<!-- Node3 -->
<g id="Node000003" class="node">
<title>Node3</title>
<g id="a_Node000003"><a xlink:href="../../dd/dab/classvanetza_1_1geonet_1_1SoftStateMap.html" target="_top" xlink:title=" ">
<polygon fill="white" stroke="transparent" points="341.5,-313 200.5,-313 200.5,-43 341.5,-43 341.5,-313"/>
<text text-anchor="start" x="206" y="-301" font-family="Helvetica,sans-Serif" font-size="10.00">vanetza::geonet::SoftState</text>
<text text-anchor="start" x="206" y="-290" font-family="Helvetica,sans-Serif" font-size="10.00">Map&lt; id_type, counter_type &gt;</text>
<text text-anchor="start" x="220" y="-275" font-family="Helvetica,sans-Serif" font-size="10.00">&#45;</text>
<text text-anchor="start" x="243" y="-275" font-family="Helvetica,sans-Serif" font-size="10.00">m_runtime</text>
<text text-anchor="start" x="220" y="-260" font-family="Helvetica,sans-Serif" font-size="10.00">&#45;</text>
<text text-anchor="start" x="243" y="-260" font-family="Helvetica,sans-Serif" font-size="10.00">m_lifetime</text>
<text text-anchor="start" x="220" y="-245" font-family="Helvetica,sans-Serif" font-size="10.00">&#45;</text>
<text text-anchor="start" x="243" y="-245" font-family="Helvetica,sans-Serif" font-size="10.00">m_creator</text>
<text text-anchor="start" x="220" y="-230" font-family="Helvetica,sans-Serif" font-size="10.00">&#45;</text>
<text text-anchor="start" x="243" y="-230" font-family="Helvetica,sans-Serif" font-size="10.00">m_heap</text>
<text text-anchor="start" x="220" y="-215" font-family="Helvetica,sans-Serif" font-size="10.00">&#45;</text>
<text text-anchor="start" x="243" y="-215" font-family="Helvetica,sans-Serif" font-size="10.00">m_map</text>
<text text-anchor="start" x="218.5" y="-200" font-family="Helvetica,sans-Serif" font-size="10.00">+</text>
<text text-anchor="start" x="243" y="-200" font-family="Helvetica,sans-Serif" font-size="10.00">SoftStateMap()</text>
<text text-anchor="start" x="218.5" y="-185" font-family="Helvetica,sans-Serif" font-size="10.00">+</text>
<text text-anchor="start" x="243" y="-185" font-family="Helvetica,sans-Serif" font-size="10.00">set_lifetime()</text>
<text text-anchor="start" x="218.5" y="-170" font-family="Helvetica,sans-Serif" font-size="10.00">+</text>
<text text-anchor="start" x="243" y="-170" font-family="Helvetica,sans-Serif" font-size="10.00">get_value()</text>
<text text-anchor="start" x="218.5" y="-155" font-family="Helvetica,sans-Serif" font-size="10.00">+</text>
<text text-anchor="start" x="243" y="-155" font-family="Helvetica,sans-Serif" font-size="10.00">get_value_ptr()</text>
<text text-anchor="start" x="218.5" y="-140" font-family="Helvetica,sans-Serif" font-size="10.00">+</text>
<text text-anchor="start" x="243" y="-140" font-family="Helvetica,sans-Serif" font-size="10.00">has_value()</text>
<text text-anchor="start" x="218.5" y="-125" font-family="Helvetica,sans-Serif" font-size="10.00">+</text>
<text text-anchor="start" x="243" y="-125" font-family="Helvetica,sans-Serif" font-size="10.00">refresh()</text>
<text text-anchor="start" x="218.5" y="-110" font-family="Helvetica,sans-Serif" font-size="10.00">+</text>
<text text-anchor="start" x="243" y="-110" font-family="Helvetica,sans-Serif" font-size="10.00">drop_expired()</text>
<text text-anchor="start" x="218.5" y="-95" font-family="Helvetica,sans-Serif" font-size="10.00">+</text>
<text text-anchor="start" x="243" y="-95" font-family="Helvetica,sans-Serif" font-size="10.00">map()</text>
<text text-anchor="start" x="220" y="-80" font-family="Helvetica,sans-Serif" font-size="10.00">&#45;</text>
<text text-anchor="start" x="243" y="-80" font-family="Helvetica,sans-Serif" font-size="10.00">get_data()</text>
<text text-anchor="start" x="220" y="-65" font-family="Helvetica,sans-Serif" font-size="10.00">&#45;</text>
<text text-anchor="start" x="243" y="-65" font-family="Helvetica,sans-Serif" font-size="10.00">get_data_ptr()</text>
<text text-anchor="start" x="220" y="-50" font-family="Helvetica,sans-Serif" font-size="10.00">&#45;</text>
<text text-anchor="start" x="243" y="-50" font-family="Helvetica,sans-Serif" font-size="10.00">is_expired()</text>
<polygon fill="#666666" stroke="#666666" points="201,-285 201,-285 342,-285 342,-285 201,-285"/>
<polygon fill="#666666" stroke="#666666" points="201,-210 201,-210 241,-210 241,-210 201,-210"/>
<polygon fill="#666666" stroke="#666666" points="241,-210 241,-210 342,-210 342,-210 241,-210"/>
<polygon fill="none" stroke="#666666" points="200.5,-43 200.5,-313 341.5,-313 341.5,-43 200.5,-43"/>
</a>
</g>
</g>
<!-- Node1&#45;&gt;Node3 -->
<g id="edge2_Node000001_Node000003" class="edge">
<title>Node1&#45;&gt;Node3</title>
<g id="a_edge2_Node000001_Node000003"><a xlink:title=" ">
<path fill="none" stroke="orange" d="M247.01,-414.08C247.7,-411.38 248.37,-408.68 249,-406 256.01,-376.33 260.8,-343.97 264.06,-313.23"/>
<polygon fill="orange" stroke="orange" points="243.59,-413.34 244.4,-423.91 250.35,-415.14 243.59,-413.34"/>
</a>
</g>
<text text-anchor="start" x="258.5" y="-395" font-family="Helvetica,sans-Serif" font-size="10.00" fill="grey">&lt; id_type, counter</text>
<text text-anchor="start" x="258.5" y="-380" font-family="Helvetica,sans-Serif" font-size="10.00" fill="grey">  _type &gt;</text>
</g>
</g>
</svg>
