<?xml version="1.0" encoding="UTF-8" standalone="no"?>
<!DOCTYPE svg PUBLIC "-//W3C//DTD SVG 1.1//EN"
 "http://www.w3.org/Graphics/SVG/1.1/DTD/svg11.dtd">
<!-- Generated by graphviz version 14.1.2 (0)
 -->
<!-- Title: vanetza::rpc::AsioStream Pages: 1 -->
<svg width="154pt" height="236pt"
 viewBox="0.00 0.00 154.00 236.00" xmlns="http://www.w3.org/2000/svg" xmlns:xlink="http://www.w3.org/1999/xlink">

<svg id="main" version="1.1" xmlns="http://www.w3.org/2000/svg" xmlns:xlink="http://www.w3.org/1999/xlink" xml:space="preserve">

<style type="text/css"><![CDATA[
.node, .edge {opacity: 0.7;}
.node.selected, .edge.selected {opacity: 1;}
.edge:hover path { stroke: red; }
.edge:hover polygon { stroke: red; fill: red; }
]]></style>
<script type="application/ecmascript" xlink:href="../../svg.min.js"/>
<svg id="graph" class="graph">
<g id="graph0" class="graph" transform="scale(1 1) rotate(0) translate(4 232.25)">
<title>vanetza::rpc::AsioStream</title>
<!-- Node1 -->
<g id="Node000001" class="node">
<title>Node1</title>
<g id="a_Node000001"><a xlink:title=" ">
<polygon fill="#999999" stroke="none" points="146.25,-138 0,-138 0,0 146.25,0 146.25,-138"/>
<text xml:space="preserve" text-anchor="start" x="12" y="-124.5" font-family="Helvetica,sans-Serif" font-size="10.00">vanetza::rpc::AsioStream</text>
<text xml:space="preserve" text-anchor="start" x="6.25" y="-107.75" font-family="Helvetica,sans-Serif" font-size="10.00">&#45;</text>
<text xml:space="preserve" text-anchor="start" x="16.25" y="-107.75" font-family="Helvetica,sans-Serif" font-size="10.00">socket_</text>
<text xml:space="preserve" text-anchor="start" x="4" y="-91" font-family="Helvetica,sans-Serif" font-size="10.00">+</text>
<text xml:space="preserve" text-anchor="start" x="16.25" y="-91" font-family="Helvetica,sans-Serif" font-size="10.00">AsioStream()</text>
<text xml:space="preserve" text-anchor="start" x="4" y="-74.25" font-family="Helvetica,sans-Serif" font-size="10.00">+</text>
<text xml:space="preserve" text-anchor="start" x="16.25" y="-74.25" font-family="Helvetica,sans-Serif" font-size="10.00">shutdownWrite()</text>
<text xml:space="preserve" text-anchor="start" x="4" y="-57.5" font-family="Helvetica,sans-Serif" font-size="10.00">+</text>
<text xml:space="preserve" text-anchor="start" x="16.25" y="-57.5" font-family="Helvetica,sans-Serif" font-size="10.00">write()</text>
<text xml:space="preserve" text-anchor="start" x="4" y="-40.75" font-family="Helvetica,sans-Serif" font-size="10.00">+</text>
<text xml:space="preserve" text-anchor="start" x="16.25" y="-40.75" font-family="Helvetica,sans-Serif" font-size="10.00">write()</text>
<text xml:space="preserve" text-anchor="start" x="4" y="-24" font-family="Helvetica,sans-Serif" font-size="10.00">+</text>
<text xml:space="preserve" text-anchor="start" x="16.25" y="-24" font-family="Helvetica,sans-Serif" font-size="10.00">whenWriteDisconnected()</text>
<text xml:space="preserve" text-anchor="start" x="4" y="-7.25" font-family="Helvetica,sans-Serif" font-size="10.00">+</text>
<text xml:space="preserve" text-anchor="start" x="16.25" y="-7.25" font-family="Helvetica,sans-Serif" font-size="10.00">tryRead()</text>
<polygon fill="#666666" stroke="#666666" points="0,-119.25 0,-119.25 146.25,-119.25 146.25,-119.25 0,-119.25"/>
<polygon fill="#666666" stroke="#666666" points="0,-102.5 0,-102.5 14.25,-102.5 14.25,-102.5 0,-102.5"/>
<polygon fill="#666666" stroke="#666666" points="14.25,-102.5 14.25,-102.5 146.25,-102.5 146.25,-102.5 14.25,-102.5"/>
<polygon fill="none" stroke="#666666" points="0,0 0,-138 146.25,-138 146.25,0 0,0"/>
</a>
</g>
</g>
<!-- Node2 -->
<g id="Node000002" class="node">
<title>Node2</title>
<g id="a_Node000002"><a xlink:title=" ">
<polygon fill="white" stroke="none" points="121.38,-228.25 24.88,-228.25 24.88,-174 121.38,-174 121.38,-228.25"/>
<text xml:space="preserve" text-anchor="start" x="28.88" y="-214.75" font-family="Helvetica,sans-Serif" font-size="10.00">kj::AsyncIoStream</text>
<text xml:space="preserve" text-anchor="start" x="71.62" y="-198" font-family="Helvetica,sans-Serif" font-size="10.00"> </text>
<text xml:space="preserve" text-anchor="start" x="71.62" y="-181.25" font-family="Helvetica,sans-Serif" font-size="10.00"> </text>
<polygon fill="#bfbfbf" stroke="#bfbfbf" points="24.88,-209.5 24.88,-209.5 121.38,-209.5 121.38,-209.5 24.88,-209.5"/>
<polygon fill="#bfbfbf" stroke="#bfbfbf" points="24.88,-192.75 24.88,-192.75 121.38,-192.75 121.38,-192.75 24.88,-192.75"/>
<polygon fill="none" stroke="#bfbfbf" points="24.88,-174 24.88,-228.25 121.38,-228.25 121.38,-174 24.88,-174"/>
</a>
</g>
</g>
<!-- Node2&#45;&gt;Node1 -->
<g id="edge1_Node000001_Node000002" class="edge">
<title>Node2&#45;&gt;Node1</title>
<g id="a_edge1_Node000001_Node000002"><a xlink:title=" ">
<path fill="none" stroke="#63b8ff" d="M73.12,-162.75C73.12,-154.88 73.12,-146.35 73.12,-137.75"/>
<polygon fill="none" stroke="#63b8ff" points="69.63,-162.59 73.13,-172.59 76.63,-162.59 69.63,-162.59"/>
</a>
</g>
</g>
</g>
</svg>
</svg>

<style type='text/css'>
<![CDATA[
[data-mouse-over-selected='false'] { opacity: 0.7; }
[data-mouse-over-selected='true']  { opacity: 1.0; }
]]>
</style>
<script type="application/ecmascript"><![CDATA[
document.addEventListener('DOMContentLoaded', (event) => {
  highlightEdges();
  highlightAdjacentNodes();
});
]]></script>
</svg>
