<?xml version="1.0" encoding="UTF-8" standalone="no"?>
<!DOCTYPE svg PUBLIC "-//W3C//DTD SVG 1.1//EN"
 "http://www.w3.org/Graphics/SVG/1.1/DTD/svg11.dtd">
<!-- Generated by graphviz version 2.42.1 (0)
 -->
<!-- Title: vanetza::dcc::TransmitRateThrottle Pages: 1 -->
<svg width="501pt" height="364pt"
 viewBox="0.00 0.00 501.00 364.00" xmlns="http://www.w3.org/2000/svg" xmlns:xlink="http://www.w3.org/1999/xlink">
<g id="graph0" class="graph" transform="scale(1 1) rotate(0) translate(4 360)">
<title>vanetza::dcc::TransmitRateThrottle</title>
<polygon fill="white" stroke="transparent" points="-4,4 -4,-360 497,-360 497,4 -4,4"/>
<!-- Node0 -->
<g id="node1" class="node">
<title>Node0</title>
<g id="a_node1"><a xlink:title=" ">
<polygon fill="#bfbfbf" stroke="black" points="177.5,-265.5 177.5,-355.5 315.5,-355.5 315.5,-265.5 177.5,-265.5"/>
<text text-anchor="start" x="185.5" y="-343.5" font-family="Helvetica,sans-Serif" font-size="10.00">vanetza::dcc::TransmitRate</text>
<text text-anchor="middle" x="246.5" y="-332.5" font-family="Helvetica,sans-Serif" font-size="10.00">Throttle</text>
<polyline fill="none" stroke="black" points="177.5,-325.5 315.5,-325.5 "/>
<text text-anchor="middle" x="246.5" y="-313.5" font-family="Helvetica,sans-Serif" font-size="10.00"> </text>
<polyline fill="none" stroke="black" points="177.5,-306.5 315.5,-306.5 "/>
<text text-anchor="start" x="185.5" y="-294.5" font-family="Helvetica,sans-Serif" font-size="10.00">+ delay()</text>
<text text-anchor="start" x="185.5" y="-283.5" font-family="Helvetica,sans-Serif" font-size="10.00">+ interval()</text>
<text text-anchor="start" x="185.5" y="-272.5" font-family="Helvetica,sans-Serif" font-size="10.00">+ ~TransmitRateThrottle()</text>
</a>
</g>
</g>
<!-- Node1 -->
<g id="node2" class="node">
<title>Node1</title>
<g id="a_node2"><a xlink:href="../../de/d9c/classvanetza_1_1dcc_1_1TransmitRateControl.html" target="_top" xlink:title=" ">
<polygon fill="white" stroke="black" points="177.5,-160.5 177.5,-228.5 315.5,-228.5 315.5,-160.5 177.5,-160.5"/>
<text text-anchor="start" x="185.5" y="-216.5" font-family="Helvetica,sans-Serif" font-size="10.00">vanetza::dcc::TransmitRate</text>
<text text-anchor="middle" x="246.5" y="-205.5" font-family="Helvetica,sans-Serif" font-size="10.00">Control</text>
<polyline fill="none" stroke="black" points="177.5,-198.5 315.5,-198.5 "/>
<text text-anchor="middle" x="246.5" y="-186.5" font-family="Helvetica,sans-Serif" font-size="10.00"> </text>
<polyline fill="none" stroke="black" points="177.5,-179.5 315.5,-179.5 "/>
<text text-anchor="middle" x="246.5" y="-167.5" font-family="Helvetica,sans-Serif" font-size="10.00"> </text>
</a>
</g>
</g>
<!-- Node0&#45;&gt;Node1 -->
<g id="edge1" class="edge">
<title>Node0&#45;&gt;Node1</title>
<path fill="none" stroke="midnightblue" d="M246.5,-255.32C246.5,-246.28 246.5,-237.16 246.5,-228.85"/>
<polygon fill="none" stroke="midnightblue" points="243,-255.42 246.5,-265.42 250,-255.42 243,-255.42"/>
</g>
<!-- Node2 -->
<g id="node3" class="node">
<title>Node2</title>
<g id="a_node3"><a xlink:href="../../d1/d1c/classvanetza_1_1dcc_1_1BurstyTransmitRateControl.html" target="_top" xlink:title=" ">
<polygon fill="white" stroke="black" points="0,-0.5 0,-123.5 151,-123.5 151,-0.5 0,-0.5"/>
<text text-anchor="start" x="8" y="-111.5" font-family="Helvetica,sans-Serif" font-size="10.00">vanetza::dcc::BurstyTransmit</text>
<text text-anchor="middle" x="75.5" y="-100.5" font-family="Helvetica,sans-Serif" font-size="10.00">RateControl</text>
<polyline fill="none" stroke="black" points="0,-93.5 151,-93.5 "/>
<text text-anchor="start" x="8" y="-81.5" font-family="Helvetica,sans-Serif" font-size="10.00">&#45; m_burst_budget</text>
<text text-anchor="start" x="8" y="-70.5" font-family="Helvetica,sans-Serif" font-size="10.00">&#45; m_fsm_budget</text>
<text text-anchor="start" x="8" y="-59.5" font-family="Helvetica,sans-Serif" font-size="10.00">&#45; m_fsm</text>
<polyline fill="none" stroke="black" points="0,-52.5 151,-52.5 "/>
<text text-anchor="start" x="8" y="-40.5" font-family="Helvetica,sans-Serif" font-size="10.00">+ BurstyTransmitRateControl()</text>
<text text-anchor="start" x="8" y="-29.5" font-family="Helvetica,sans-Serif" font-size="10.00">+ delay()</text>
<text text-anchor="start" x="8" y="-18.5" font-family="Helvetica,sans-Serif" font-size="10.00">+ interval()</text>
<text text-anchor="start" x="8" y="-7.5" font-family="Helvetica,sans-Serif" font-size="10.00">+ notify()</text>
</a>
</g>
</g>
<!-- Node1&#45;&gt;Node2 -->
<g id="edge2" class="edge">
<title>Node1&#45;&gt;Node2</title>
<path fill="none" stroke="midnightblue" d="M194.59,-153.88C180.92,-143.45 165.89,-131.98 151.24,-120.8"/>
<polygon fill="none" stroke="midnightblue" points="192.83,-156.95 202.91,-160.23 197.08,-151.38 192.83,-156.95"/>
</g>
<!-- Node3 -->
<g id="node4" class="node">
<title>Node3</title>
<g id="a_node4"><a xlink:href="../../df/d62/classvanetza_1_1dcc_1_1LimericTransmitRateControl.html" target="_top" xlink:title=" ">
<polygon fill="white" stroke="black" points="169.5,-6 169.5,-118 323.5,-118 323.5,-6 169.5,-6"/>
<text text-anchor="start" x="177.5" y="-106" font-family="Helvetica,sans-Serif" font-size="10.00">vanetza::dcc::LimericTransmit</text>
<text text-anchor="middle" x="246.5" y="-95" font-family="Helvetica,sans-Serif" font-size="10.00">RateControl</text>
<polyline fill="none" stroke="black" points="169.5,-88 323.5,-88 "/>
<text text-anchor="start" x="177.5" y="-76" font-family="Helvetica,sans-Serif" font-size="10.00">&#45; m_budget</text>
<polyline fill="none" stroke="black" points="169.5,-69 323.5,-69 "/>
<text text-anchor="start" x="177.5" y="-57" font-family="Helvetica,sans-Serif" font-size="10.00">+ LimericTransmitRateControl()</text>
<text text-anchor="start" x="177.5" y="-46" font-family="Helvetica,sans-Serif" font-size="10.00">+ delay()</text>
<text text-anchor="start" x="177.5" y="-35" font-family="Helvetica,sans-Serif" font-size="10.00">+ interval()</text>
<text text-anchor="start" x="177.5" y="-24" font-family="Helvetica,sans-Serif" font-size="10.00">+ notify()</text>
<text text-anchor="start" x="177.5" y="-13" font-family="Helvetica,sans-Serif" font-size="10.00">+ update()</text>
</a>
</g>
</g>
<!-- Node1&#45;&gt;Node3 -->
<g id="edge3" class="edge">
<title>Node1&#45;&gt;Node3</title>
<path fill="none" stroke="midnightblue" d="M246.5,-149.91C246.5,-139.69 246.5,-128.66 246.5,-118.01"/>
<polygon fill="none" stroke="midnightblue" points="243,-150.23 246.5,-160.23 250,-150.23 243,-150.23"/>
</g>
<!-- Node4 -->
<g id="node5" class="node">
<title>Node4</title>
<g id="a_node5"><a xlink:href="../../dc/d2b/classvanetza_1_1dcc_1_1SingleReactiveTransmitRateControl.html" target="_top" xlink:title=" ">
<polygon fill="white" stroke="black" points="342,-0.5 342,-123.5 493,-123.5 493,-0.5 342,-0.5"/>
<text text-anchor="start" x="350" y="-111.5" font-family="Helvetica,sans-Serif" font-size="10.00">vanetza::dcc::SingleReactive</text>
<text text-anchor="middle" x="417.5" y="-100.5" font-family="Helvetica,sans-Serif" font-size="10.00">TransmitRateControl</text>
<polyline fill="none" stroke="black" points="342,-93.5 493,-93.5 "/>
<text text-anchor="start" x="350" y="-81.5" font-family="Helvetica,sans-Serif" font-size="10.00">&#45; m_fsm</text>
<text text-anchor="start" x="350" y="-70.5" font-family="Helvetica,sans-Serif" font-size="10.00">&#45; m_fsm_budget</text>
<polyline fill="none" stroke="black" points="342,-63.5 493,-63.5 "/>
<text text-anchor="start" x="350" y="-51.5" font-family="Helvetica,sans-Serif" font-size="10.00">+ SingleReactiveTransmitRate</text>
<text text-anchor="start" x="350" y="-40.5" font-family="Helvetica,sans-Serif" font-size="10.00">Control()</text>
<text text-anchor="start" x="350" y="-29.5" font-family="Helvetica,sans-Serif" font-size="10.00">+ delay()</text>
<text text-anchor="start" x="350" y="-18.5" font-family="Helvetica,sans-Serif" font-size="10.00">+ interval()</text>
<text text-anchor="start" x="350" y="-7.5" font-family="Helvetica,sans-Serif" font-size="10.00">+ notify()</text>
</a>
</g>
</g>
<!-- Node1&#45;&gt;Node4 -->
<g id="edge4" class="edge">
<title>Node1&#45;&gt;Node4</title>
<path fill="none" stroke="midnightblue" d="M298.41,-153.88C312.08,-143.45 327.11,-131.98 341.76,-120.8"/>
<polygon fill="none" stroke="midnightblue" points="295.92,-151.38 290.09,-160.23 300.17,-156.95 295.92,-151.38"/>
</g>
</g>
</svg>
