<?xml version="1.0" encoding="UTF-8" standalone="no"?>
<!DOCTYPE svg PUBLIC "-//W3C//DTD SVG 1.1//EN"
 "http://www.w3.org/Graphics/SVG/1.1/DTD/svg11.dtd">
<!-- Generated by graphviz version 2.42.3 (0)
 -->
<!-- Title: vanetza::geonet::SoftStateMap&lt; KEY, VALUE, CTOR &gt;::ExpiryWithKey Pages: 1 -->
<svg width="153pt" height="204pt"
 viewBox="0.00 0.00 153.00 204.00" xmlns="http://www.w3.org/2000/svg" xmlns:xlink="http://www.w3.org/1999/xlink">
<g id="graph0" class="graph" transform="scale(1 1) rotate(0) translate(4 200)">
<title>vanetza::geonet::SoftStateMap&lt; KEY, VALUE, CTOR &gt;::ExpiryWithKey</title>
<polygon fill="white" stroke="transparent" points="-4,4 -4,-200 149,-200 149,4 -4,4"/>
<!-- Node1 -->
<g id="node1" class="node">
<title>Node1</title>
<g id="a_node1"><a xlink:title=" ">
<polygon fill="#bfbfbf" stroke="black" points="0,-0.5 0,-101.5 145,-101.5 145,-0.5 0,-0.5"/>
<text text-anchor="start" x="8" y="-89.5" font-family="Helvetica,sans-Serif" font-size="10.00">vanetza::geonet::SoftState</text>
<text text-anchor="start" x="8" y="-78.5" font-family="Helvetica,sans-Serif" font-size="10.00">Map&lt; KEY, VALUE, CTOR &gt;</text>
<text text-anchor="middle" x="72.5" y="-67.5" font-family="Helvetica,sans-Serif" font-size="10.00">::ExpiryWithKey</text>
<polyline fill="none" stroke="black" points="0,-60.5 145,-60.5 "/>
<text text-anchor="start" x="8" y="-48.5" font-family="Helvetica,sans-Serif" font-size="10.00">&#45; m_key</text>
<polyline fill="none" stroke="black" points="0,-41.5 145,-41.5 "/>
<text text-anchor="start" x="8" y="-29.5" font-family="Helvetica,sans-Serif" font-size="10.00">+ ExpiryWithKey()</text>
<text text-anchor="start" x="8" y="-18.5" font-family="Helvetica,sans-Serif" font-size="10.00">+ ExpiryWithKey()</text>
<text text-anchor="start" x="8" y="-7.5" font-family="Helvetica,sans-Serif" font-size="10.00">+ key()</text>
</a>
</g>
</g>
<!-- Node2 -->
<g id="node2" class="node">
<title>Node2</title>
<g id="a_node2"><a xlink:title=" ">
<polygon fill="white" stroke="#bfbfbf" points="26,-138.5 26,-195.5 119,-195.5 119,-138.5 26,-138.5"/>
<text text-anchor="middle" x="72.5" y="-183.5" font-family="Helvetica,sans-Serif" font-size="10.00">Clock::time_point</text>
<polyline fill="none" stroke="#bfbfbf" points="26,-176.5 119,-176.5 "/>
<text text-anchor="middle" x="72.5" y="-164.5" font-family="Helvetica,sans-Serif" font-size="10.00"> </text>
<polyline fill="none" stroke="#bfbfbf" points="26,-157.5 119,-157.5 "/>
<text text-anchor="middle" x="72.5" y="-145.5" font-family="Helvetica,sans-Serif" font-size="10.00"> </text>
</a>
</g>
</g>
<!-- Node2&#45;&gt;Node1 -->
<g id="edge1" class="edge">
<title>Node2&#45;&gt;Node1</title>
<path fill="none" stroke="midnightblue" d="M72.5,-128.35C72.5,-119.8 72.5,-110.58 72.5,-101.61"/>
<polygon fill="none" stroke="midnightblue" points="69,-128.4 72.5,-138.4 76,-128.4 69,-128.4"/>
</g>
</g>
</svg>
