<?xml version="1.0" encoding="UTF-8" standalone="no"?>
<!DOCTYPE svg PUBLIC "-//W3C//DTD SVG 1.1//EN"
 "http://www.w3.org/Graphics/SVG/1.1/DTD/svg11.dtd">
<!-- Generated by graphviz version 14.1.2 (0)
 -->
<!-- Title: vanetza::geonet::SoftStateMap&lt; KEY, VALUE, CTOR &gt;::ExpiryWithKey Pages: 1 -->
<svg width="149pt" height="212pt"
 viewBox="0.00 0.00 149.00 212.00" xmlns="http://www.w3.org/2000/svg" xmlns:xlink="http://www.w3.org/1999/xlink">

<svg id="main" version="1.1" xmlns="http://www.w3.org/2000/svg" xmlns:xlink="http://www.w3.org/1999/xlink" xml:space="preserve">

<style type="text/css"><![CDATA[
.node, .edge {opacity: 0.7;}
.node.selected, .edge.selected {opacity: 1;}
.edge:hover path { stroke: red; }
.edge:hover polygon { stroke: red; fill: red; }
]]></style>
<script type="application/ecmascript" xlink:href="../../svg.min.js"/>
<svg id="graph" class="graph">
<g id="graph0" class="graph" transform="scale(1 1) rotate(0) translate(4 207.5)">
<title>vanetza::geonet::SoftStateMap&lt; KEY, VALUE, CTOR &gt;::ExpiryWithKey</title>
<!-- Node1 -->
<g id="Node000001" class="node">
<title>Node1</title>
<g id="a_Node000001"><a xlink:title=" ">
<polygon fill="#999999" stroke="none" points="140.75,-113.25 0,-113.25 0,0 140.75,0 140.75,-113.25"/>
<text xml:space="preserve" text-anchor="start" x="4" y="-99.75" font-family="Helvetica,sans-Serif" font-size="10.00">vanetza::geonet::SoftState</text>
<text xml:space="preserve" text-anchor="start" x="4" y="-87" font-family="Helvetica,sans-Serif" font-size="10.00">Map&lt; KEY, VALUE, CTOR &gt;</text>
<text xml:space="preserve" text-anchor="start" x="31.75" y="-74.25" font-family="Helvetica,sans-Serif" font-size="10.00">::ExpiryWithKey</text>
<text xml:space="preserve" text-anchor="start" x="16.69" y="-57.5" font-family="Helvetica,sans-Serif" font-size="10.00">&#45;</text>
<text xml:space="preserve" text-anchor="start" x="37.12" y="-57.5" font-family="Helvetica,sans-Serif" font-size="10.00">m_key</text>
<text xml:space="preserve" text-anchor="start" x="14.44" y="-40.75" font-family="Helvetica,sans-Serif" font-size="10.00">+</text>
<text xml:space="preserve" text-anchor="start" x="37.12" y="-40.75" font-family="Helvetica,sans-Serif" font-size="10.00">ExpiryWithKey()</text>
<text xml:space="preserve" text-anchor="start" x="14.44" y="-24" font-family="Helvetica,sans-Serif" font-size="10.00">+</text>
<text xml:space="preserve" text-anchor="start" x="37.12" y="-24" font-family="Helvetica,sans-Serif" font-size="10.00">ExpiryWithKey()</text>
<text xml:space="preserve" text-anchor="start" x="14.44" y="-7.25" font-family="Helvetica,sans-Serif" font-size="10.00">+</text>
<text xml:space="preserve" text-anchor="start" x="37.12" y="-7.25" font-family="Helvetica,sans-Serif" font-size="10.00">key()</text>
<polygon fill="#666666" stroke="#666666" points="0,-69 0,-69 140.75,-69 140.75,-69 0,-69"/>
<polygon fill="#666666" stroke="#666666" points="0,-52.25 0,-52.25 35.12,-52.25 35.12,-52.25 0,-52.25"/>
<polygon fill="#666666" stroke="#666666" points="35.12,-52.25 35.12,-52.25 140.75,-52.25 140.75,-52.25 35.12,-52.25"/>
<polygon fill="none" stroke="#666666" points="0,0 0,-113.25 140.75,-113.25 140.75,0 0,0"/>
</a>
</g>
</g>
<!-- Node2 -->
<g id="Node000002" class="node">
<title>Node2</title>
<g id="a_Node000002"><a xlink:title=" ">
<polygon fill="white" stroke="none" points="117.12,-203.5 23.62,-203.5 23.62,-149.25 117.12,-149.25 117.12,-203.5"/>
<text xml:space="preserve" text-anchor="start" x="27.62" y="-190" font-family="Helvetica,sans-Serif" font-size="10.00">Clock::time_point</text>
<text xml:space="preserve" text-anchor="start" x="68.88" y="-173.25" font-family="Helvetica,sans-Serif" font-size="10.00"> </text>
<text xml:space="preserve" text-anchor="start" x="68.88" y="-156.5" font-family="Helvetica,sans-Serif" font-size="10.00"> </text>
<polygon fill="#bfbfbf" stroke="#bfbfbf" points="23.62,-184.75 23.62,-184.75 117.12,-184.75 117.12,-184.75 23.62,-184.75"/>
<polygon fill="#bfbfbf" stroke="#bfbfbf" points="23.62,-168 23.62,-168 117.12,-168 117.12,-168 23.62,-168"/>
<polygon fill="none" stroke="#bfbfbf" points="23.62,-149.25 23.62,-203.5 117.12,-203.5 117.12,-149.25 23.62,-149.25"/>
</a>
</g>
</g>
<!-- Node2&#45;&gt;Node1 -->
<g id="edge1_Node000001_Node000002" class="edge">
<title>Node2&#45;&gt;Node1</title>
<g id="a_edge1_Node000001_Node000002"><a xlink:title=" ">
<path fill="none" stroke="#63b8ff" d="M70.38,-138.25C70.38,-130.17 70.38,-121.46 70.38,-112.86"/>
<polygon fill="none" stroke="#63b8ff" points="66.88,-138.02 70.38,-148.02 73.88,-138.02 66.88,-138.02"/>
</a>
</g>
</g>
</g>
</svg>
</svg>

<style type='text/css'>
<![CDATA[
[data-mouse-over-selected='false'] { opacity: 0.7; }
[data-mouse-over-selected='true']  { opacity: 1.0; }
]]>
</style>
<script type="application/ecmascript"><![CDATA[
document.addEventListener('DOMContentLoaded', (event) => {
  highlightEdges();
  highlightAdjacentNodes();
});
]]></script>
</svg>
