<?xml version="1.0" encoding="UTF-8" standalone="no"?>
<!DOCTYPE svg PUBLIC "-//W3C//DTD SVG 1.1//EN"
 "http://www.w3.org/Graphics/SVG/1.1/DTD/svg11.dtd">
<!-- Generated by graphviz version 2.49.3 (0)
 -->
<!-- Title: vanetza::asn1::asn1c_per_wrapper&lt; T &gt; Pages: 1 -->
<svg width="739pt" height="625pt"
 viewBox="0.00 0.00 739.00 625.00" xmlns="http://www.w3.org/2000/svg" xmlns:xlink="http://www.w3.org/1999/xlink">
<g id="graph0" class="graph" transform="scale(1 1) rotate(0) translate(4 621)">
<title>vanetza::asn1::asn1c_per_wrapper&lt; T &gt;</title>
<polygon fill="white" stroke="transparent" points="-4,4 -4,-621 735,-621 735,4 -4,4"/>
<!-- Node1 -->
<g id="node1" class="node">
<title>Node1</title>
<g id="a_node1"><a xlink:title=" ">
<polygon fill="#bfbfbf" stroke="black" points="294.5,-255.5 294.5,-367.5 404.5,-367.5 404.5,-255.5 294.5,-255.5"/>
<text text-anchor="start" x="302.5" y="-355.5" font-family="Helvetica,sans-Serif" font-size="10.00">vanetza::asn1::asn1c</text>
<text text-anchor="middle" x="349.5" y="-344.5" font-family="Helvetica,sans-Serif" font-size="10.00">_per_wrapper&lt; T &gt;</text>
<polyline fill="none" stroke="black" points="294.5,-337.5 404.5,-337.5 "/>
<text text-anchor="middle" x="349.5" y="-325.5" font-family="Helvetica,sans-Serif" font-size="10.00"> </text>
<polyline fill="none" stroke="black" points="294.5,-318.5 404.5,-318.5 "/>
<text text-anchor="start" x="302.5" y="-306.5" font-family="Helvetica,sans-Serif" font-size="10.00">+ encode()</text>
<text text-anchor="start" x="302.5" y="-295.5" font-family="Helvetica,sans-Serif" font-size="10.00">+ decode()</text>
<text text-anchor="start" x="302.5" y="-284.5" font-family="Helvetica,sans-Serif" font-size="10.00">+ decode()</text>
<text text-anchor="start" x="302.5" y="-273.5" font-family="Helvetica,sans-Serif" font-size="10.00">+ decode()</text>
<text text-anchor="start" x="302.5" y="-262.5" font-family="Helvetica,sans-Serif" font-size="10.00">+ size()</text>
</a>
</g>
</g>
<!-- Node3 -->
<g id="node3" class="node">
<title>Node3</title>
<g id="a_node3"><a xlink:href="../../dc/dbf/classvanetza_1_1asn1_1_1asn1c__per__wrapper.html" target="_top" xlink:title=" ">
<polygon fill="white" stroke="#bfbfbf" points="0,-95.5 0,-207.5 123,-207.5 123,-95.5 0,-95.5"/>
<text text-anchor="start" x="8" y="-195.5" font-family="Helvetica,sans-Serif" font-size="10.00">vanetza::asn1::asn1c</text>
<text text-anchor="middle" x="61.5" y="-184.5" font-family="Helvetica,sans-Serif" font-size="10.00">_per_wrapper&lt; CAM_t &gt;</text>
<polyline fill="none" stroke="#bfbfbf" points="0,-177.5 123,-177.5 "/>
<text text-anchor="middle" x="61.5" y="-165.5" font-family="Helvetica,sans-Serif" font-size="10.00"> </text>
<polyline fill="none" stroke="#bfbfbf" points="0,-158.5 123,-158.5 "/>
<text text-anchor="start" x="8" y="-146.5" font-family="Helvetica,sans-Serif" font-size="10.00">+ encode()</text>
<text text-anchor="start" x="8" y="-135.5" font-family="Helvetica,sans-Serif" font-size="10.00">+ decode()</text>
<text text-anchor="start" x="8" y="-124.5" font-family="Helvetica,sans-Serif" font-size="10.00">+ decode()</text>
<text text-anchor="start" x="8" y="-113.5" font-family="Helvetica,sans-Serif" font-size="10.00">+ decode()</text>
<text text-anchor="start" x="8" y="-102.5" font-family="Helvetica,sans-Serif" font-size="10.00">+ size()</text>
</a>
</g>
</g>
<!-- Node1&#45;&gt;Node3 -->
<g id="edge2" class="edge">
<title>Node1&#45;&gt;Node3</title>
<path fill="none" stroke="orange" d="M284.77,-284.43C240.58,-265.55 181.4,-238.14 132.5,-208 129.44,-206.11 126.35,-204.11 123.27,-202.04"/>
<polygon fill="orange" stroke="orange" points="283.68,-287.76 294.25,-288.44 286.41,-281.32 283.68,-287.76"/>
<text text-anchor="middle" x="204.5" y="-229" font-family="Helvetica,sans-Serif" font-size="10.00"> &lt; CAM_t &gt;</text>
</g>
<!-- Node5 -->
<g id="node5" class="node">
<title>Node5</title>
<g id="a_node5"><a xlink:href="../../dc/dbf/classvanetza_1_1asn1_1_1asn1c__per__wrapper.html" target="_top" xlink:title=" ">
<polygon fill="white" stroke="#bfbfbf" points="141.5,-95.5 141.5,-207.5 265.5,-207.5 265.5,-95.5 141.5,-95.5"/>
<text text-anchor="start" x="149.5" y="-195.5" font-family="Helvetica,sans-Serif" font-size="10.00">vanetza::asn1::asn1c</text>
<text text-anchor="middle" x="203.5" y="-184.5" font-family="Helvetica,sans-Serif" font-size="10.00">_per_wrapper&lt; CPM_t &gt;</text>
<polyline fill="none" stroke="#bfbfbf" points="141.5,-177.5 265.5,-177.5 "/>
<text text-anchor="middle" x="203.5" y="-165.5" font-family="Helvetica,sans-Serif" font-size="10.00"> </text>
<polyline fill="none" stroke="#bfbfbf" points="141.5,-158.5 265.5,-158.5 "/>
<text text-anchor="start" x="149.5" y="-146.5" font-family="Helvetica,sans-Serif" font-size="10.00">+ encode()</text>
<text text-anchor="start" x="149.5" y="-135.5" font-family="Helvetica,sans-Serif" font-size="10.00">+ decode()</text>
<text text-anchor="start" x="149.5" y="-124.5" font-family="Helvetica,sans-Serif" font-size="10.00">+ decode()</text>
<text text-anchor="start" x="149.5" y="-113.5" font-family="Helvetica,sans-Serif" font-size="10.00">+ decode()</text>
<text text-anchor="start" x="149.5" y="-102.5" font-family="Helvetica,sans-Serif" font-size="10.00">+ size()</text>
</a>
</g>
</g>
<!-- Node1&#45;&gt;Node5 -->
<g id="edge4" class="edge">
<title>Node1&#45;&gt;Node5</title>
<path fill="none" stroke="orange" d="M291.35,-247.57C279.17,-234.39 266.43,-220.6 254.53,-207.73"/>
<polygon fill="orange" stroke="orange" points="289.08,-250.27 298.44,-255.24 294.22,-245.52 289.08,-250.27"/>
<text text-anchor="middle" x="307.5" y="-229" font-family="Helvetica,sans-Serif" font-size="10.00"> &lt; CPM_t &gt;</text>
</g>
<!-- Node7 -->
<g id="node7" class="node">
<title>Node7</title>
<g id="a_node7"><a xlink:href="../../dc/dbf/classvanetza_1_1asn1_1_1asn1c__per__wrapper.html" target="_top" xlink:title=" ">
<polygon fill="white" stroke="#bfbfbf" points="284,-95.5 284,-207.5 415,-207.5 415,-95.5 284,-95.5"/>
<text text-anchor="start" x="292" y="-195.5" font-family="Helvetica,sans-Serif" font-size="10.00">vanetza::asn1::asn1c</text>
<text text-anchor="middle" x="349.5" y="-184.5" font-family="Helvetica,sans-Serif" font-size="10.00">_per_wrapper&lt; DENM_t &gt;</text>
<polyline fill="none" stroke="#bfbfbf" points="284,-177.5 415,-177.5 "/>
<text text-anchor="middle" x="349.5" y="-165.5" font-family="Helvetica,sans-Serif" font-size="10.00"> </text>
<polyline fill="none" stroke="#bfbfbf" points="284,-158.5 415,-158.5 "/>
<text text-anchor="start" x="292" y="-146.5" font-family="Helvetica,sans-Serif" font-size="10.00">+ encode()</text>
<text text-anchor="start" x="292" y="-135.5" font-family="Helvetica,sans-Serif" font-size="10.00">+ decode()</text>
<text text-anchor="start" x="292" y="-124.5" font-family="Helvetica,sans-Serif" font-size="10.00">+ decode()</text>
<text text-anchor="start" x="292" y="-113.5" font-family="Helvetica,sans-Serif" font-size="10.00">+ decode()</text>
<text text-anchor="start" x="292" y="-102.5" font-family="Helvetica,sans-Serif" font-size="10.00">+ size()</text>
</a>
</g>
</g>
<!-- Node1&#45;&gt;Node7 -->
<g id="edge6" class="edge">
<title>Node1&#45;&gt;Node7</title>
<path fill="none" stroke="orange" d="M349.5,-244.97C349.5,-232.59 349.5,-219.76 349.5,-207.73"/>
<polygon fill="orange" stroke="orange" points="346,-245.24 349.5,-255.24 353,-245.24 346,-245.24"/>
<text text-anchor="middle" x="379.5" y="-229" font-family="Helvetica,sans-Serif" font-size="10.00"> &lt; DENM_t &gt;</text>
</g>
<!-- Node9 -->
<g id="node9" class="node">
<title>Node9</title>
<g id="a_node9"><a xlink:href="../../dc/dbf/classvanetza_1_1asn1_1_1asn1c__per__wrapper.html" target="_top" xlink:title=" ">
<polygon fill="white" stroke="#bfbfbf" points="433.5,-95.5 433.5,-207.5 571.5,-207.5 571.5,-95.5 433.5,-95.5"/>
<text text-anchor="start" x="441.5" y="-195.5" font-family="Helvetica,sans-Serif" font-size="10.00">vanetza::asn1::asn1c</text>
<text text-anchor="middle" x="502.5" y="-184.5" font-family="Helvetica,sans-Serif" font-size="10.00">_per_wrapper&lt; MAPEM_t &gt;</text>
<polyline fill="none" stroke="#bfbfbf" points="433.5,-177.5 571.5,-177.5 "/>
<text text-anchor="middle" x="502.5" y="-165.5" font-family="Helvetica,sans-Serif" font-size="10.00"> </text>
<polyline fill="none" stroke="#bfbfbf" points="433.5,-158.5 571.5,-158.5 "/>
<text text-anchor="start" x="441.5" y="-146.5" font-family="Helvetica,sans-Serif" font-size="10.00">+ encode()</text>
<text text-anchor="start" x="441.5" y="-135.5" font-family="Helvetica,sans-Serif" font-size="10.00">+ decode()</text>
<text text-anchor="start" x="441.5" y="-124.5" font-family="Helvetica,sans-Serif" font-size="10.00">+ decode()</text>
<text text-anchor="start" x="441.5" y="-113.5" font-family="Helvetica,sans-Serif" font-size="10.00">+ decode()</text>
<text text-anchor="start" x="441.5" y="-102.5" font-family="Helvetica,sans-Serif" font-size="10.00">+ size()</text>
</a>
</g>
</g>
<!-- Node1&#45;&gt;Node9 -->
<g id="edge8" class="edge">
<title>Node1&#45;&gt;Node9</title>
<path fill="none" stroke="orange" d="M410.08,-247.94C422.95,-234.65 436.44,-220.72 449.02,-207.73"/>
<polygon fill="orange" stroke="orange" points="407.45,-245.62 403.01,-255.24 412.48,-250.49 407.45,-245.62"/>
<text text-anchor="middle" x="465" y="-229" font-family="Helvetica,sans-Serif" font-size="10.00"> &lt; MAPEM_t &gt;</text>
</g>
<!-- Node11 -->
<g id="node11" class="node">
<title>Node11</title>
<g id="a_node11"><a xlink:href="../../dc/dbf/classvanetza_1_1asn1_1_1asn1c__per__wrapper.html" target="_top" xlink:title=" ">
<polygon fill="white" stroke="#bfbfbf" points="590,-95.5 590,-207.5 731,-207.5 731,-95.5 590,-95.5"/>
<text text-anchor="start" x="598" y="-195.5" font-family="Helvetica,sans-Serif" font-size="10.00">vanetza::asn1::asn1c</text>
<text text-anchor="middle" x="660.5" y="-184.5" font-family="Helvetica,sans-Serif" font-size="10.00">_per_wrapper&lt; SPATEM_t &gt;</text>
<polyline fill="none" stroke="#bfbfbf" points="590,-177.5 731,-177.5 "/>
<text text-anchor="middle" x="660.5" y="-165.5" font-family="Helvetica,sans-Serif" font-size="10.00"> </text>
<polyline fill="none" stroke="#bfbfbf" points="590,-158.5 731,-158.5 "/>
<text text-anchor="start" x="598" y="-146.5" font-family="Helvetica,sans-Serif" font-size="10.00">+ encode()</text>
<text text-anchor="start" x="598" y="-135.5" font-family="Helvetica,sans-Serif" font-size="10.00">+ decode()</text>
<text text-anchor="start" x="598" y="-124.5" font-family="Helvetica,sans-Serif" font-size="10.00">+ decode()</text>
<text text-anchor="start" x="598" y="-113.5" font-family="Helvetica,sans-Serif" font-size="10.00">+ decode()</text>
<text text-anchor="start" x="598" y="-102.5" font-family="Helvetica,sans-Serif" font-size="10.00">+ size()</text>
</a>
</g>
</g>
<!-- Node1&#45;&gt;Node11 -->
<g id="edge10" class="edge">
<title>Node1&#45;&gt;Node11</title>
<path fill="none" stroke="orange" d="M414.08,-285.68C461.3,-266.62 526.29,-238.47 580.5,-208 583.59,-206.26 586.72,-204.43 589.85,-202.54"/>
<polygon fill="orange" stroke="orange" points="412.56,-282.52 404.58,-289.49 415.17,-289.01 412.56,-282.52"/>
<text text-anchor="middle" x="578.5" y="-229" font-family="Helvetica,sans-Serif" font-size="10.00"> &lt; SPATEM_t &gt;</text>
</g>
<!-- Node2 -->
<g id="node2" class="node">
<title>Node2</title>
<g id="a_node2"><a xlink:href="../../d0/d68/classvanetza_1_1asn1_1_1asn1c__wrapper__common.html" target="_top" xlink:title=" ">
<polygon fill="white" stroke="#bfbfbf" points="276.5,-405.5 276.5,-616.5 422.5,-616.5 422.5,-405.5 276.5,-405.5"/>
<text text-anchor="start" x="284.5" y="-604.5" font-family="Helvetica,sans-Serif" font-size="10.00">vanetza::asn1::asn1c</text>
<text text-anchor="middle" x="349.5" y="-593.5" font-family="Helvetica,sans-Serif" font-size="10.00">_wrapper_common&lt; T &gt;</text>
<polyline fill="none" stroke="#bfbfbf" points="276.5,-586.5 422.5,-586.5 "/>
<text text-anchor="start" x="284.5" y="-574.5" font-family="Helvetica,sans-Serif" font-size="10.00"># m_struct</text>
<text text-anchor="start" x="284.5" y="-563.5" font-family="Helvetica,sans-Serif" font-size="10.00"># m_type</text>
<polyline fill="none" stroke="#bfbfbf" points="276.5,-556.5 422.5,-556.5 "/>
<text text-anchor="start" x="284.5" y="-544.5" font-family="Helvetica,sans-Serif" font-size="10.00">+ asn1c_wrapper_common()</text>
<text text-anchor="start" x="284.5" y="-533.5" font-family="Helvetica,sans-Serif" font-size="10.00">+ ~asn1c_wrapper_common()</text>
<text text-anchor="start" x="284.5" y="-522.5" font-family="Helvetica,sans-Serif" font-size="10.00">+ asn1c_wrapper_common()</text>
<text text-anchor="start" x="284.5" y="-511.5" font-family="Helvetica,sans-Serif" font-size="10.00">+ operator=()</text>
<text text-anchor="start" x="284.5" y="-500.5" font-family="Helvetica,sans-Serif" font-size="10.00">+ asn1c_wrapper_common()</text>
<text text-anchor="start" x="284.5" y="-489.5" font-family="Helvetica,sans-Serif" font-size="10.00">+ operator=()</text>
<text text-anchor="start" x="284.5" y="-478.5" font-family="Helvetica,sans-Serif" font-size="10.00">+ operator*()</text>
<text text-anchor="start" x="284.5" y="-467.5" font-family="Helvetica,sans-Serif" font-size="10.00">+ operator&#45;&gt;()</text>
<text text-anchor="start" x="284.5" y="-456.5" font-family="Helvetica,sans-Serif" font-size="10.00">+ operator*()</text>
<text text-anchor="start" x="284.5" y="-445.5" font-family="Helvetica,sans-Serif" font-size="10.00">+ operator&#45;&gt;()</text>
<text text-anchor="start" x="284.5" y="-434.5" font-family="Helvetica,sans-Serif" font-size="10.00">+ validate()</text>
<text text-anchor="start" x="284.5" y="-423.5" font-family="Helvetica,sans-Serif" font-size="10.00">+ validate()</text>
<text text-anchor="start" x="284.5" y="-412.5" font-family="Helvetica,sans-Serif" font-size="10.00">+ swap()</text>
</a>
</g>
</g>
<!-- Node2&#45;&gt;Node1 -->
<g id="edge1" class="edge">
<title>Node2&#45;&gt;Node1</title>
<path fill="none" stroke="midnightblue" d="M349.5,-395.42C349.5,-385.83 349.5,-376.45 349.5,-367.65"/>
<polygon fill="none" stroke="midnightblue" points="346,-395.47 349.5,-405.47 353,-395.47 346,-395.47"/>
</g>
<!-- Node4 -->
<g id="node4" class="node">
<title>Node4</title>
<g id="a_node4"><a xlink:href="../../d6/d47/classvanetza_1_1asn1_1_1Cam.html" target="_top" xlink:title=" ">
<polygon fill="white" stroke="#bfbfbf" points="9.5,-0.5 9.5,-57.5 113.5,-57.5 113.5,-0.5 9.5,-0.5"/>
<text text-anchor="middle" x="61.5" y="-45.5" font-family="Helvetica,sans-Serif" font-size="10.00">vanetza::asn1::Cam</text>
<polyline fill="none" stroke="#bfbfbf" points="9.5,-38.5 113.5,-38.5 "/>
<text text-anchor="middle" x="61.5" y="-26.5" font-family="Helvetica,sans-Serif" font-size="10.00"> </text>
<polyline fill="none" stroke="#bfbfbf" points="9.5,-19.5 113.5,-19.5 "/>
<text text-anchor="start" x="17.5" y="-7.5" font-family="Helvetica,sans-Serif" font-size="10.00">+ Cam()</text>
</a>
</g>
</g>
<!-- Node3&#45;&gt;Node4 -->
<g id="edge3" class="edge">
<title>Node3&#45;&gt;Node4</title>
<path fill="none" stroke="midnightblue" d="M61.5,-85.12C61.5,-75.48 61.5,-66.01 61.5,-57.72"/>
<polygon fill="none" stroke="midnightblue" points="58,-85.19 61.5,-95.19 65,-85.19 58,-85.19"/>
</g>
<!-- Node6 -->
<g id="node6" class="node">
<title>Node6</title>
<g id="a_node6"><a xlink:href="../../d3/d6a/classvanetza_1_1asn1_1_1Cpm.html" target="_top" xlink:title=" ">
<polygon fill="white" stroke="#bfbfbf" points="151.5,-0.5 151.5,-57.5 255.5,-57.5 255.5,-0.5 151.5,-0.5"/>
<text text-anchor="middle" x="203.5" y="-45.5" font-family="Helvetica,sans-Serif" font-size="10.00">vanetza::asn1::Cpm</text>
<polyline fill="none" stroke="#bfbfbf" points="151.5,-38.5 255.5,-38.5 "/>
<text text-anchor="middle" x="203.5" y="-26.5" font-family="Helvetica,sans-Serif" font-size="10.00"> </text>
<polyline fill="none" stroke="#bfbfbf" points="151.5,-19.5 255.5,-19.5 "/>
<text text-anchor="start" x="159.5" y="-7.5" font-family="Helvetica,sans-Serif" font-size="10.00">+ Cpm()</text>
</a>
</g>
</g>
<!-- Node5&#45;&gt;Node6 -->
<g id="edge5" class="edge">
<title>Node5&#45;&gt;Node6</title>
<path fill="none" stroke="midnightblue" d="M203.5,-85.12C203.5,-75.48 203.5,-66.01 203.5,-57.72"/>
<polygon fill="none" stroke="midnightblue" points="200,-85.19 203.5,-95.19 207,-85.19 200,-85.19"/>
</g>
<!-- Node8 -->
<g id="node8" class="node">
<title>Node8</title>
<g id="a_node8"><a xlink:href="../../da/dbc/classvanetza_1_1asn1_1_1Denm.html" target="_top" xlink:title=" ">
<polygon fill="white" stroke="#bfbfbf" points="294.5,-0.5 294.5,-57.5 404.5,-57.5 404.5,-0.5 294.5,-0.5"/>
<text text-anchor="middle" x="349.5" y="-45.5" font-family="Helvetica,sans-Serif" font-size="10.00">vanetza::asn1::Denm</text>
<polyline fill="none" stroke="#bfbfbf" points="294.5,-38.5 404.5,-38.5 "/>
<text text-anchor="middle" x="349.5" y="-26.5" font-family="Helvetica,sans-Serif" font-size="10.00"> </text>
<polyline fill="none" stroke="#bfbfbf" points="294.5,-19.5 404.5,-19.5 "/>
<text text-anchor="start" x="302.5" y="-7.5" font-family="Helvetica,sans-Serif" font-size="10.00">+ Denm()</text>
</a>
</g>
</g>
<!-- Node7&#45;&gt;Node8 -->
<g id="edge7" class="edge">
<title>Node7&#45;&gt;Node8</title>
<path fill="none" stroke="midnightblue" d="M349.5,-85.12C349.5,-75.48 349.5,-66.01 349.5,-57.72"/>
<polygon fill="none" stroke="midnightblue" points="346,-85.19 349.5,-95.19 353,-85.19 346,-85.19"/>
</g>
<!-- Node10 -->
<g id="node10" class="node">
<title>Node10</title>
<g id="a_node10"><a xlink:href="../../d4/dfa/classvanetza_1_1asn1_1_1Mapem.html" target="_top" xlink:title=" ">
<polygon fill="white" stroke="#bfbfbf" points="444.5,-0.5 444.5,-57.5 560.5,-57.5 560.5,-0.5 444.5,-0.5"/>
<text text-anchor="middle" x="502.5" y="-45.5" font-family="Helvetica,sans-Serif" font-size="10.00">vanetza::asn1::Mapem</text>
<polyline fill="none" stroke="#bfbfbf" points="444.5,-38.5 560.5,-38.5 "/>
<text text-anchor="middle" x="502.5" y="-26.5" font-family="Helvetica,sans-Serif" font-size="10.00"> </text>
<polyline fill="none" stroke="#bfbfbf" points="444.5,-19.5 560.5,-19.5 "/>
<text text-anchor="start" x="452.5" y="-7.5" font-family="Helvetica,sans-Serif" font-size="10.00">+ Mapem()</text>
</a>
</g>
</g>
<!-- Node9&#45;&gt;Node10 -->
<g id="edge9" class="edge">
<title>Node9&#45;&gt;Node10</title>
<path fill="none" stroke="midnightblue" d="M502.5,-85.12C502.5,-75.48 502.5,-66.01 502.5,-57.72"/>
<polygon fill="none" stroke="midnightblue" points="499,-85.19 502.5,-95.19 506,-85.19 499,-85.19"/>
</g>
<!-- Node12 -->
<g id="node12" class="node">
<title>Node12</title>
<g id="a_node12"><a xlink:href="../../d4/d0f/classvanetza_1_1asn1_1_1Spatem.html" target="_top" xlink:title=" ">
<polygon fill="white" stroke="#bfbfbf" points="602,-0.5 602,-57.5 719,-57.5 719,-0.5 602,-0.5"/>
<text text-anchor="middle" x="660.5" y="-45.5" font-family="Helvetica,sans-Serif" font-size="10.00">vanetza::asn1::Spatem</text>
<polyline fill="none" stroke="#bfbfbf" points="602,-38.5 719,-38.5 "/>
<text text-anchor="middle" x="660.5" y="-26.5" font-family="Helvetica,sans-Serif" font-size="10.00"> </text>
<polyline fill="none" stroke="#bfbfbf" points="602,-19.5 719,-19.5 "/>
<text text-anchor="start" x="610" y="-7.5" font-family="Helvetica,sans-Serif" font-size="10.00">+ Spatem()</text>
</a>
</g>
</g>
<!-- Node11&#45;&gt;Node12 -->
<g id="edge11" class="edge">
<title>Node11&#45;&gt;Node12</title>
<path fill="none" stroke="midnightblue" d="M660.5,-85.12C660.5,-75.48 660.5,-66.01 660.5,-57.72"/>
<polygon fill="none" stroke="midnightblue" points="657,-85.19 660.5,-95.19 664,-85.19 657,-85.19"/>
</g>
</g>
</svg>
