<?xml version="1.0" encoding="UTF-8" standalone="no"?>
<!DOCTYPE svg PUBLIC "-//W3C//DTD SVG 1.1//EN"
 "http://www.w3.org/Graphics/SVG/1.1/DTD/svg11.dtd">
<!-- Generated by graphviz version 14.1.2 (0)
 -->
<!-- Title: vanetza::security::v2::CertificateProvider Pages: 1 -->
<!--zoomable 488 -->

<svg id="main" version="1.1" xmlns="http://www.w3.org/2000/svg" xmlns:xlink="http://www.w3.org/1999/xlink" xml:space="preserve" onload="init(evt)">

<style type="text/css"><![CDATA[
.node, .edge {opacity: 0.7;}
.node.selected, .edge.selected {opacity: 1;}
.edge:hover path { stroke: red; }
.edge:hover polygon { stroke: red; fill: red; }
]]></style>

<defs>
  <circle id="rim" cx="0" cy="0" r="7"/>
  <circle id="rim2" cx="0" cy="0" r="3.5"/>
  <g id="zoomPlus">
    <use xlink:href="#rim" fill="#404040"><set attributeName="fill" to="#808080" begin="zoomplus.mouseover" end="zoomplus.mouseout"/></use>
    <path d="M-4,0h8M0,-4v8" fill="none" stroke="white" stroke-width="1.5" pointer-events="none"/>
  </g>
  <g id="zoomMin">
    <use xlink:href="#rim" fill="#404040"><set attributeName="fill" to="#808080" begin="zoomminus.mouseover" end="zoomminus.mouseout"/></use>
    <path d="M-4,0h8" fill="none" stroke="white" stroke-width="1.5" pointer-events="none"/>
  </g>
  <g id="arrowUp" transform="translate(30 24)">
    <use xlink:href="#rim"/>
    <path pointer-events="none" fill="none" stroke="white" stroke-width="1.5" d="M0,-3.0v7 M-2.5,-0.5L0,-3.0L2.5,-0.5"/>
  </g>
  <g id="arrowRight" transform="rotate(90) translate(36 -43)">
    <use xlink:href="#rim"/>
    <path pointer-events="none" fill="none" stroke="white" stroke-width="1.5" d="M0,-3.0v7 M-2.5,-0.5L0,-3.0L2.5,-0.5"/>
  </g>
  <g id="arrowDown" transform="rotate(180) translate(-30 -48)">
    <use xlink:href="#rim"/>
    <path pointer-events="none" fill="none" stroke="white" stroke-width="1.5" d="M0,-3.0v7 M-2.5,-0.5L0,-3.0L2.5,-0.5"/>
  </g>
  <g id="arrowLeft" transform="rotate(270) translate(-36 17)">
    <use xlink:href="#rim"/>
    <path pointer-events="none" fill="none" stroke="white" stroke-width="1.5" d="M0,-3.0v7 M-2.5,-0.5L0,-3.0L2.5,-0.5"/>
  </g>
  <g id="resetDef">
    <use xlink:href="#rim2" fill="#404040"><set attributeName="fill" to="#808080" begin="reset.mouseover" end="reset.mouseout"/></use>
  </g>
</defs>
<script type="application/ecmascript">
var viewWidth = 478;
var viewHeight = 488;
var sectionId = 'dynsection-0';
</script>
<script type="application/ecmascript" xlink:href="../../svg.min.js"/>
<svg id="graph" class="graph">
<g id="viewport">
<title>vanetza::security::v2::CertificateProvider</title>
<!-- Node1 -->
<g id="Node000001" class="node">
<title>Node1</title>
<g id="a_Node000001"><a xlink:title=" ">
<polygon fill="#999999" stroke="none" points="300.38,-480.25 173.62,-480.25 173.62,-363 300.38,-363 300.38,-480.25"/>
<text xml:space="preserve" text-anchor="start" x="182.62" y="-466.75" font-family="Helvetica,sans-Serif" font-size="10.00">vanetza::security::</text>
<text xml:space="preserve" text-anchor="start" x="182.62" y="-454" font-family="Helvetica,sans-Serif" font-size="10.00">v2::CertificateProvider</text>
<text xml:space="preserve" text-anchor="start" x="235.5" y="-437.25" font-family="Helvetica,sans-Serif" font-size="10.00"> </text>
<text xml:space="preserve" text-anchor="start" x="177.62" y="-420.5" font-family="Helvetica,sans-Serif" font-size="10.00">+</text>
<text xml:space="preserve" text-anchor="start" x="189.88" y="-420.5" font-family="Helvetica,sans-Serif" font-size="10.00">own_certificate()</text>
<text xml:space="preserve" text-anchor="start" x="177.62" y="-403.75" font-family="Helvetica,sans-Serif" font-size="10.00">+</text>
<text xml:space="preserve" text-anchor="start" x="189.88" y="-403.75" font-family="Helvetica,sans-Serif" font-size="10.00">own_chain()</text>
<text xml:space="preserve" text-anchor="start" x="177.62" y="-387" font-family="Helvetica,sans-Serif" font-size="10.00">+</text>
<text xml:space="preserve" text-anchor="start" x="189.88" y="-387" font-family="Helvetica,sans-Serif" font-size="10.00">own_private_key()</text>
<text xml:space="preserve" text-anchor="start" x="177.62" y="-370.25" font-family="Helvetica,sans-Serif" font-size="10.00">+</text>
<text xml:space="preserve" text-anchor="start" x="189.88" y="-370.25" font-family="Helvetica,sans-Serif" font-size="10.00">~CertificateProvider()</text>
<polygon fill="#666666" stroke="#666666" points="173.62,-448.75 173.62,-448.75 300.38,-448.75 300.38,-448.75 173.62,-448.75"/>
<polygon fill="#666666" stroke="#666666" points="173.62,-432 173.62,-432 300.38,-432 300.38,-432 173.62,-432"/>
<polygon fill="none" stroke="#666666" points="173.62,-363 173.62,-480.25 300.38,-480.25 300.38,-363 173.62,-363"/>
</a>
</g>
</g>
<!-- Node2 -->
<g id="Node000002" class="node">
<title>Node2</title>
<g id="a_Node000002"><a xlink:href="../../d7/dff/classvanetza_1_1security_1_1v2_1_1NaiveCertificateProvider.html" target="_top" xlink:title="A very simplistic certificate provider.">
<polygon fill="white" stroke="none" points="150,-327 0,-327 0,0 150,0 150,-327"/>
<text xml:space="preserve" text-anchor="start" x="6.38" y="-313.5" font-family="Helvetica,sans-Serif" font-size="10.00">vanetza::security::</text>
<text xml:space="preserve" text-anchor="start" x="6.38" y="-300.75" font-family="Helvetica,sans-Serif" font-size="10.00">v2::NaiveCertificateProvider</text>
<text xml:space="preserve" text-anchor="start" x="6.25" y="-284" font-family="Helvetica,sans-Serif" font-size="10.00">&#45;</text>
<text xml:space="preserve" text-anchor="start" x="16.25" y="-284" font-family="Helvetica,sans-Serif" font-size="10.00">m_crypto_backend</text>
<text xml:space="preserve" text-anchor="start" x="6.25" y="-267.25" font-family="Helvetica,sans-Serif" font-size="10.00">&#45;</text>
<text xml:space="preserve" text-anchor="start" x="16.25" y="-267.25" font-family="Helvetica,sans-Serif" font-size="10.00">m_runtime</text>
<text xml:space="preserve" text-anchor="start" x="6.25" y="-250.5" font-family="Helvetica,sans-Serif" font-size="10.00">&#45;</text>
<text xml:space="preserve" text-anchor="start" x="16.25" y="-250.5" font-family="Helvetica,sans-Serif" font-size="10.00">m_own_key_pair</text>
<text xml:space="preserve" text-anchor="start" x="6.25" y="-233.75" font-family="Helvetica,sans-Serif" font-size="10.00">&#45;</text>
<text xml:space="preserve" text-anchor="start" x="16.25" y="-233.75" font-family="Helvetica,sans-Serif" font-size="10.00">m_own_certificate</text>
<text xml:space="preserve" text-anchor="start" x="4" y="-217" font-family="Helvetica,sans-Serif" font-size="10.00">+</text>
<text xml:space="preserve" text-anchor="start" x="16.25" y="-217" font-family="Helvetica,sans-Serif" font-size="10.00">NaiveCertificateProvider()</text>
<text xml:space="preserve" text-anchor="start" x="4" y="-200.25" font-family="Helvetica,sans-Serif" font-size="10.00">+</text>
<text xml:space="preserve" text-anchor="start" x="16.25" y="-200.25" font-family="Helvetica,sans-Serif" font-size="10.00">own_certificate()</text>
<text xml:space="preserve" text-anchor="start" x="4" y="-183.5" font-family="Helvetica,sans-Serif" font-size="10.00">+</text>
<text xml:space="preserve" text-anchor="start" x="16.25" y="-183.5" font-family="Helvetica,sans-Serif" font-size="10.00">own_chain()</text>
<text xml:space="preserve" text-anchor="start" x="4" y="-166.75" font-family="Helvetica,sans-Serif" font-size="10.00">+</text>
<text xml:space="preserve" text-anchor="start" x="16.25" y="-166.75" font-family="Helvetica,sans-Serif" font-size="10.00">own_private_key()</text>
<text xml:space="preserve" text-anchor="start" x="4" y="-150" font-family="Helvetica,sans-Serif" font-size="10.00">+</text>
<text xml:space="preserve" text-anchor="start" x="16.25" y="-150" font-family="Helvetica,sans-Serif" font-size="10.00">aa_certificate()</text>
<text xml:space="preserve" text-anchor="start" x="4" y="-133.25" font-family="Helvetica,sans-Serif" font-size="10.00">+</text>
<text xml:space="preserve" text-anchor="start" x="16.25" y="-133.25" font-family="Helvetica,sans-Serif" font-size="10.00">root_certificate()</text>
<text xml:space="preserve" text-anchor="start" x="4" y="-116.5" font-family="Helvetica,sans-Serif" font-size="10.00">+</text>
<text xml:space="preserve" text-anchor="start" x="16.25" y="-116.5" font-family="Helvetica,sans-Serif" font-size="10.00">generate_authorization</text>
<text xml:space="preserve" text-anchor="start" x="16.25" y="-103.75" font-family="Helvetica,sans-Serif" font-size="10.00">_ticket()</text>
<text xml:space="preserve" text-anchor="start" x="4" y="-87" font-family="Helvetica,sans-Serif" font-size="10.00">+</text>
<text xml:space="preserve" text-anchor="start" x="16.25" y="-87" font-family="Helvetica,sans-Serif" font-size="10.00">sign_authorization</text>
<text xml:space="preserve" text-anchor="start" x="16.25" y="-74.25" font-family="Helvetica,sans-Serif" font-size="10.00">_ticket()</text>
<text xml:space="preserve" text-anchor="start" x="6.25" y="-57.5" font-family="Helvetica,sans-Serif" font-size="10.00">&#45;</text>
<text xml:space="preserve" text-anchor="start" x="16.25" y="-57.5" font-family="Helvetica,sans-Serif" font-size="10.00">aa_key_pair()</text>
<text xml:space="preserve" text-anchor="start" x="6.25" y="-40.75" font-family="Helvetica,sans-Serif" font-size="10.00">&#45;</text>
<text xml:space="preserve" text-anchor="start" x="16.25" y="-40.75" font-family="Helvetica,sans-Serif" font-size="10.00">root_key_pair()</text>
<text xml:space="preserve" text-anchor="start" x="6.25" y="-24" font-family="Helvetica,sans-Serif" font-size="10.00">&#45;</text>
<text xml:space="preserve" text-anchor="start" x="16.25" y="-24" font-family="Helvetica,sans-Serif" font-size="10.00">generate_aa_certificate()</text>
<text xml:space="preserve" text-anchor="start" x="6.25" y="-7.25" font-family="Helvetica,sans-Serif" font-size="10.00">&#45;</text>
<text xml:space="preserve" text-anchor="start" x="16.25" y="-7.25" font-family="Helvetica,sans-Serif" font-size="10.00">generate_root_certificate()</text>
<polygon fill="#666666" stroke="#666666" points="0,-295.5 0,-295.5 150,-295.5 150,-295.5 0,-295.5"/>
<polygon fill="#666666" stroke="#666666" points="0,-228.5 0,-228.5 14.25,-228.5 14.25,-228.5 0,-228.5"/>
<polygon fill="#666666" stroke="#666666" points="14.25,-228.5 14.25,-228.5 150,-228.5 150,-228.5 14.25,-228.5"/>
<polygon fill="none" stroke="#666666" points="0,0 0,-327 150,-327 150,0 0,0"/>
</a>
</g>
</g>
<!-- Node1&#45;&gt;Node2 -->
<g id="edge1_Node000001_Node000002" class="edge">
<title>Node1&#45;&gt;Node2</title>
<g id="a_edge1_Node000001_Node000002"><a xlink:title=" ">
<path fill="none" stroke="#63b8ff" d="M178.83,-354.35C171.85,-345.38 165.05,-336.12 159,-327 155.93,-322.37 152.88,-317.61 149.87,-312.77"/>
<polygon fill="none" stroke="#63b8ff" points="175.96,-356.37 184.92,-362.02 181.45,-352.02 175.96,-356.37"/>
</a>
</g>
</g>
<!-- Node3 -->
<g id="Node000003" class="node">
<title>Node3</title>
<g id="a_Node000003"><a xlink:href="../../dc/d56/classvanetza_1_1security_1_1v2_1_1NullCertificateProvider.html" target="_top" xlink:title=" ">
<polygon fill="white" stroke="none" points="306,-230.5 168,-230.5 168,-96.5 306,-96.5 306,-230.5"/>
<text xml:space="preserve" text-anchor="start" x="172.88" y="-217" font-family="Helvetica,sans-Serif" font-size="10.00">vanetza::security::</text>
<text xml:space="preserve" text-anchor="start" x="172.88" y="-204.25" font-family="Helvetica,sans-Serif" font-size="10.00">v2::NullCertificateProvider</text>
<text xml:space="preserve" text-anchor="start" x="235.5" y="-187.5" font-family="Helvetica,sans-Serif" font-size="10.00"> </text>
<text xml:space="preserve" text-anchor="start" x="172" y="-170.75" font-family="Helvetica,sans-Serif" font-size="10.00">+</text>
<text xml:space="preserve" text-anchor="start" x="184.25" y="-170.75" font-family="Helvetica,sans-Serif" font-size="10.00">NullCertificateProvider()</text>
<text xml:space="preserve" text-anchor="start" x="172" y="-154" font-family="Helvetica,sans-Serif" font-size="10.00">+</text>
<text xml:space="preserve" text-anchor="start" x="184.25" y="-154" font-family="Helvetica,sans-Serif" font-size="10.00">own_certificate()</text>
<text xml:space="preserve" text-anchor="start" x="172" y="-137.25" font-family="Helvetica,sans-Serif" font-size="10.00">+</text>
<text xml:space="preserve" text-anchor="start" x="184.25" y="-137.25" font-family="Helvetica,sans-Serif" font-size="10.00">own_chain()</text>
<text xml:space="preserve" text-anchor="start" x="172" y="-120.5" font-family="Helvetica,sans-Serif" font-size="10.00">+</text>
<text xml:space="preserve" text-anchor="start" x="184.25" y="-120.5" font-family="Helvetica,sans-Serif" font-size="10.00">own_private_key()</text>
<text xml:space="preserve" text-anchor="start" x="172" y="-103.75" font-family="Helvetica,sans-Serif" font-size="10.00">+</text>
<text xml:space="preserve" text-anchor="start" x="184.25" y="-103.75" font-family="Helvetica,sans-Serif" font-size="10.00">null_certificate()</text>
<polygon fill="#bfbfbf" stroke="#bfbfbf" points="168,-199 168,-199 306,-199 306,-199 168,-199"/>
<polygon fill="#bfbfbf" stroke="#bfbfbf" points="168,-182.25 168,-182.25 306,-182.25 306,-182.25 168,-182.25"/>
<polygon fill="none" stroke="#bfbfbf" points="168,-96.5 168,-230.5 306,-230.5 306,-96.5 168,-96.5"/>
</a>
</g>
</g>
<!-- Node1&#45;&gt;Node3 -->
<g id="edge2_Node000001_Node000003" class="edge">
<title>Node1&#45;&gt;Node3</title>
<g id="a_edge2_Node000001_Node000003"><a xlink:title=" ">
<path fill="none" stroke="#63b8ff" d="M237,-351.75C237,-314.05 237,-267.59 237,-230.37"/>
<polygon fill="none" stroke="#63b8ff" points="233.5,-351.63 237,-361.63 240.5,-351.63 233.5,-351.63"/>
</a>
</g>
</g>
<!-- Node4 -->
<g id="Node000004" class="node">
<title>Node4</title>
<g id="a_Node000004"><a xlink:href="../../d6/db8/classvanetza_1_1security_1_1v2_1_1StaticCertificateProvider.html" target="_top" xlink:title="A simple certificate provider.">
<polygon fill="white" stroke="none" points="470.12,-247.25 323.88,-247.25 323.88,-79.75 470.12,-79.75 470.12,-247.25"/>
<text xml:space="preserve" text-anchor="start" x="328.75" y="-233.75" font-family="Helvetica,sans-Serif" font-size="10.00">vanetza::security::</text>
<text xml:space="preserve" text-anchor="start" x="328.75" y="-221" font-family="Helvetica,sans-Serif" font-size="10.00">v2::StaticCertificateProvider</text>
<text xml:space="preserve" text-anchor="start" x="330.12" y="-204.25" font-family="Helvetica,sans-Serif" font-size="10.00">&#45;</text>
<text xml:space="preserve" text-anchor="start" x="340.12" y="-204.25" font-family="Helvetica,sans-Serif" font-size="10.00">authorization_ticket</text>
<text xml:space="preserve" text-anchor="start" x="330.12" y="-187.5" font-family="Helvetica,sans-Serif" font-size="10.00">&#45;</text>
<text xml:space="preserve" text-anchor="start" x="340.12" y="-187.5" font-family="Helvetica,sans-Serif" font-size="10.00">authorization_ticket_key</text>
<text xml:space="preserve" text-anchor="start" x="330.12" y="-170.75" font-family="Helvetica,sans-Serif" font-size="10.00">&#45;</text>
<text xml:space="preserve" text-anchor="start" x="340.12" y="-170.75" font-family="Helvetica,sans-Serif" font-size="10.00">chain</text>
<text xml:space="preserve" text-anchor="start" x="327.88" y="-154" font-family="Helvetica,sans-Serif" font-size="10.00">+</text>
<text xml:space="preserve" text-anchor="start" x="340.12" y="-154" font-family="Helvetica,sans-Serif" font-size="10.00">StaticCertificateProvider()</text>
<text xml:space="preserve" text-anchor="start" x="327.88" y="-137.25" font-family="Helvetica,sans-Serif" font-size="10.00">+</text>
<text xml:space="preserve" text-anchor="start" x="340.12" y="-137.25" font-family="Helvetica,sans-Serif" font-size="10.00">StaticCertificateProvider()</text>
<text xml:space="preserve" text-anchor="start" x="327.88" y="-120.5" font-family="Helvetica,sans-Serif" font-size="10.00">+</text>
<text xml:space="preserve" text-anchor="start" x="340.12" y="-120.5" font-family="Helvetica,sans-Serif" font-size="10.00">own_certificate()</text>
<text xml:space="preserve" text-anchor="start" x="327.88" y="-103.75" font-family="Helvetica,sans-Serif" font-size="10.00">+</text>
<text xml:space="preserve" text-anchor="start" x="340.12" y="-103.75" font-family="Helvetica,sans-Serif" font-size="10.00">own_chain()</text>
<text xml:space="preserve" text-anchor="start" x="327.88" y="-87" font-family="Helvetica,sans-Serif" font-size="10.00">+</text>
<text xml:space="preserve" text-anchor="start" x="340.12" y="-87" font-family="Helvetica,sans-Serif" font-size="10.00">own_private_key()</text>
<polygon fill="#666666" stroke="#666666" points="323.88,-215.75 323.88,-215.75 470.12,-215.75 470.12,-215.75 323.88,-215.75"/>
<polygon fill="#666666" stroke="#666666" points="323.88,-165.5 323.88,-165.5 338.12,-165.5 338.12,-165.5 323.88,-165.5"/>
<polygon fill="#666666" stroke="#666666" points="338.12,-165.5 338.12,-165.5 470.12,-165.5 470.12,-165.5 338.12,-165.5"/>
<polygon fill="none" stroke="#666666" points="323.88,-79.75 323.88,-247.25 470.12,-247.25 470.12,-79.75 323.88,-79.75"/>
</a>
</g>
</g>
<!-- Node1&#45;&gt;Node4 -->
<g id="edge3_Node000001_Node000004" class="edge">
<title>Node1&#45;&gt;Node4</title>
<g id="a_edge3_Node000001_Node000004"><a xlink:title=" ">
<path fill="none" stroke="#63b8ff" d="M295.4,-354.21C302.32,-345.3 309.03,-336.09 315,-327 331.39,-302.04 346.85,-273.36 359.84,-247.11"/>
<polygon fill="none" stroke="#63b8ff" points="292.84,-351.82 289.37,-361.83 298.32,-356.16 292.84,-351.82"/>
</a>
</g>
</g>
</g>
</svg>

<g id="navigator" transform="translate(0 0)" fill="#404254">
  <rect fill="#f2f5e9" fill-opacity="0.5" stroke="#606060" stroke-width=".5" x="0" y="0" width="60" height="60"/>
  <use id="zoomplus" xlink:href="#zoomPlus" x="17" y="9" onmousedown="handleZoom(evt,'in')"/>
  <use id="zoomminus" xlink:href="#zoomMin" x="42" y="9" onmousedown="handleZoom(evt,'out')"/>
  <use id="reset" xlink:href="#resetDef" x="30" y="36" onmousedown="handleReset()"/>
   <use id="arrowup" xlink:href="#arrowUp" x="0" y="0" onmousedown="handlePan(0,-1)"/>
  <use id="arrowright" xlink:href="#arrowRight" x="0" y="0" onmousedown="handlePan(1,0)"/>
  <use id="arrowdown" xlink:href="#arrowDown" x="0" y="0" onmousedown="handlePan(0,1)"/>
  <use id="arrowleft" xlink:href="#arrowLeft" x="0" y="0" onmousedown="handlePan(-1,0)"/>
</g>
<svg viewBox="0 0 15 15" width="100%" height="30px" preserveAspectRatio="xMaxYMin meet">
 <g id="arrow_out" transform="scale(0.3 0.3)">
  <a xlink:href="classvanetza_1_1security_1_1v2_1_1CertificateProvider__inherit__graph_org.svg" target="_base">
   <rect id="button" ry="5" rx="5" y="6" x="6" height="38" width="38"
        fill="#f2f5e9" fill-opacity="0.5" stroke="#606060" stroke-width="1.0"/>
   <path id="arrow"
     d="M 11.500037,31.436501 C 11.940474,20.09759 22.043105,11.32322 32.158766,21.979434 L 37.068811,17.246167 C 37.068811,17.246167 37.088388,32 37.088388,32 L 22.160133,31.978069 C 22.160133,31.978069 26.997745,27.140456 26.997745,27.140456 C 18.528582,18.264221 13.291696,25.230495 11.500037,31.436501 z"
     style="fill:#404040;"/>
  </a>
 </g>
</svg>

<style type='text/css'>
<![CDATA[
[data-mouse-over-selected='false'] { opacity: 0.7; }
[data-mouse-over-selected='true']  { opacity: 1.0; }
]]>
</style>
<script type="application/ecmascript"><![CDATA[
document.addEventListener('DOMContentLoaded', (event) => {
  highlightEdges();
  highlightAdjacentNodes();
});
]]></script>
</svg>
