<?xml version="1.0" encoding="UTF-8" standalone="no"?>
<!DOCTYPE svg PUBLIC "-//W3C//DTD SVG 1.1//EN"
 "http://www.w3.org/Graphics/SVG/1.1/DTD/svg11.dtd">
<!-- Generated by graphviz version 2.49.3 (0)
 -->
<!-- Title: vanetza::security::v2::CertificateProvider Pages: 1 -->
<svg width="438pt" height="441pt"
 viewBox="0.00 0.00 438.00 441.00" xmlns="http://www.w3.org/2000/svg" xmlns:xlink="http://www.w3.org/1999/xlink">

<svg id="main" version="1.1" xmlns="http://www.w3.org/2000/svg" xmlns:xlink="http://www.w3.org/1999/xlink" xml:space="preserve">

<style type="text/css"><![CDATA[
.node, .edge {opacity: 0.7;}
.node.selected, .edge.selected {opacity: 1;}
.edge:hover path { stroke: red; }
.edge:hover polygon { stroke: red; fill: red; }
]]></style>
<script type="application/ecmascript" xlink:href="../../svg.min.js"/>
<svg id="graph" class="graph">
<g id="graph0" class="graph" transform="scale(1 1) rotate(0) translate(4 437)">
<title>vanetza::security::v2::CertificateProvider</title>
<!-- Node1 -->
<g id="Node000001" class="node">
<title>Node1</title>
<g id="a_Node000001"><a xlink:title=" ">
<polygon fill="#999999" stroke="transparent" points="271.5,-433 158.5,-433 158.5,-328 271.5,-328 271.5,-433"/>
<text text-anchor="start" x="166" y="-420.5" font-family="Helvetica,sans-Serif" font-size="10.00">vanetza::security::</text>
<text text-anchor="start" x="166" y="-409.5" font-family="Helvetica,sans-Serif" font-size="10.00">v2::CertificateProvider</text>
<text text-anchor="start" x="213.5" y="-394.5" font-family="Helvetica,sans-Serif" font-size="10.00"> </text>
<text text-anchor="start" x="163" y="-379.5" font-family="Helvetica,sans-Serif" font-size="10.00">+</text>
<text text-anchor="start" x="174" y="-379.5" font-family="Helvetica,sans-Serif" font-size="10.00">own_certificate()</text>
<text text-anchor="start" x="163" y="-364.5" font-family="Helvetica,sans-Serif" font-size="10.00">+</text>
<text text-anchor="start" x="174" y="-364.5" font-family="Helvetica,sans-Serif" font-size="10.00">own_chain()</text>
<text text-anchor="start" x="163" y="-349.5" font-family="Helvetica,sans-Serif" font-size="10.00">+</text>
<text text-anchor="start" x="174" y="-349.5" font-family="Helvetica,sans-Serif" font-size="10.00">own_private_key()</text>
<text text-anchor="start" x="163" y="-334.5" font-family="Helvetica,sans-Serif" font-size="10.00">+</text>
<text text-anchor="start" x="174" y="-334.5" font-family="Helvetica,sans-Serif" font-size="10.00">~CertificateProvider()</text>
<polygon fill="#666666" stroke="#666666" points="159,-404.5 159,-404.5 272,-404.5 272,-404.5 159,-404.5"/>
<polygon fill="#666666" stroke="#666666" points="159,-389.5 159,-389.5 272,-389.5 272,-389.5 159,-389.5"/>
<polygon fill="none" stroke="#666666" points="158.5,-328 158.5,-433 271.5,-433 271.5,-328 158.5,-328"/>
</a>
</g>
</g>
<!-- Node2 -->
<g id="Node000002" class="node">
<title>Node2</title>
<g id="a_Node000002"><a xlink:href="../../d7/dff/classvanetza_1_1security_1_1v2_1_1NaiveCertificateProvider.html" target="_top" xlink:title="A very simplistic certificate provider.">
<polygon fill="white" stroke="transparent" points="134,-292 0,-292 0,0 134,0 134,-292"/>
<text text-anchor="start" x="5" y="-280" font-family="Helvetica,sans-Serif" font-size="10.00">vanetza::security::</text>
<text text-anchor="start" x="5" y="-269" font-family="Helvetica,sans-Serif" font-size="10.00">v2::NaiveCertificateProvider</text>
<text text-anchor="start" x="5.5" y="-254" font-family="Helvetica,sans-Serif" font-size="10.00">&#45;</text>
<text text-anchor="start" x="15" y="-254" font-family="Helvetica,sans-Serif" font-size="10.00">m_crypto_backend</text>
<text text-anchor="start" x="5.5" y="-239" font-family="Helvetica,sans-Serif" font-size="10.00">&#45;</text>
<text text-anchor="start" x="15" y="-239" font-family="Helvetica,sans-Serif" font-size="10.00">m_runtime</text>
<text text-anchor="start" x="5.5" y="-224" font-family="Helvetica,sans-Serif" font-size="10.00">&#45;</text>
<text text-anchor="start" x="15" y="-224" font-family="Helvetica,sans-Serif" font-size="10.00">m_own_key_pair</text>
<text text-anchor="start" x="5.5" y="-209" font-family="Helvetica,sans-Serif" font-size="10.00">&#45;</text>
<text text-anchor="start" x="15" y="-209" font-family="Helvetica,sans-Serif" font-size="10.00">m_own_certificate</text>
<text text-anchor="start" x="4" y="-194" font-family="Helvetica,sans-Serif" font-size="10.00">+</text>
<text text-anchor="start" x="15" y="-194" font-family="Helvetica,sans-Serif" font-size="10.00">NaiveCertificateProvider()</text>
<text text-anchor="start" x="4" y="-179" font-family="Helvetica,sans-Serif" font-size="10.00">+</text>
<text text-anchor="start" x="15" y="-179" font-family="Helvetica,sans-Serif" font-size="10.00">own_certificate()</text>
<text text-anchor="start" x="4" y="-164" font-family="Helvetica,sans-Serif" font-size="10.00">+</text>
<text text-anchor="start" x="15" y="-164" font-family="Helvetica,sans-Serif" font-size="10.00">own_chain()</text>
<text text-anchor="start" x="4" y="-149" font-family="Helvetica,sans-Serif" font-size="10.00">+</text>
<text text-anchor="start" x="15" y="-149" font-family="Helvetica,sans-Serif" font-size="10.00">own_private_key()</text>
<text text-anchor="start" x="4" y="-134" font-family="Helvetica,sans-Serif" font-size="10.00">+</text>
<text text-anchor="start" x="15" y="-134" font-family="Helvetica,sans-Serif" font-size="10.00">aa_certificate()</text>
<text text-anchor="start" x="4" y="-119" font-family="Helvetica,sans-Serif" font-size="10.00">+</text>
<text text-anchor="start" x="15" y="-119" font-family="Helvetica,sans-Serif" font-size="10.00">root_certificate()</text>
<text text-anchor="start" x="4" y="-104" font-family="Helvetica,sans-Serif" font-size="10.00">+</text>
<text text-anchor="start" x="15" y="-104" font-family="Helvetica,sans-Serif" font-size="10.00">generate_authorization</text>
<text text-anchor="start" x="15" y="-93" font-family="Helvetica,sans-Serif" font-size="10.00">_ticket()</text>
<text text-anchor="start" x="4" y="-78" font-family="Helvetica,sans-Serif" font-size="10.00">+</text>
<text text-anchor="start" x="15" y="-78" font-family="Helvetica,sans-Serif" font-size="10.00">sign_authorization</text>
<text text-anchor="start" x="15" y="-67" font-family="Helvetica,sans-Serif" font-size="10.00">_ticket()</text>
<text text-anchor="start" x="5.5" y="-52" font-family="Helvetica,sans-Serif" font-size="10.00">&#45;</text>
<text text-anchor="start" x="15" y="-52" font-family="Helvetica,sans-Serif" font-size="10.00">aa_key_pair()</text>
<text text-anchor="start" x="5.5" y="-37" font-family="Helvetica,sans-Serif" font-size="10.00">&#45;</text>
<text text-anchor="start" x="15" y="-37" font-family="Helvetica,sans-Serif" font-size="10.00">root_key_pair()</text>
<text text-anchor="start" x="5.5" y="-22" font-family="Helvetica,sans-Serif" font-size="10.00">&#45;</text>
<text text-anchor="start" x="15" y="-22" font-family="Helvetica,sans-Serif" font-size="10.00">generate_aa_certificate()</text>
<text text-anchor="start" x="5.5" y="-7" font-family="Helvetica,sans-Serif" font-size="10.00">&#45;</text>
<text text-anchor="start" x="15" y="-7" font-family="Helvetica,sans-Serif" font-size="10.00">generate_root_certificate()</text>
<polygon fill="#666666" stroke="#666666" points="0,-264 0,-264 134,-264 134,-264 0,-264"/>
<polygon fill="#666666" stroke="#666666" points="0,-204 0,-204 13,-204 13,-204 0,-204"/>
<polygon fill="#666666" stroke="#666666" points="13,-204 13,-204 134,-204 134,-204 13,-204"/>
<polygon fill="none" stroke="#666666" points="0,0 0,-292 134,-292 134,0 0,0"/>
</a>
</g>
</g>
<!-- Node1&#45;&gt;Node2 -->
<g id="edge1_Node000001_Node000002" class="edge">
<title>Node1&#45;&gt;Node2</title>
<g id="a_edge1_Node000001_Node000002"><a xlink:title=" ">
<path fill="none" stroke="#63b8ff" d="M163.15,-319.76C156.07,-310.69 149.14,-301.26 143,-292 140.02,-287.5 137.05,-282.87 134.13,-278.15"/>
<polygon fill="none" stroke="#63b8ff" points="160.44,-321.97 169.39,-327.63 165.92,-317.62 160.44,-321.97"/>
</a>
</g>
</g>
<!-- Node3 -->
<g id="Node000003" class="node">
<title>Node3</title>
<g id="a_Node000003"><a xlink:href="../../dc/d56/classvanetza_1_1security_1_1v2_1_1NullCertificateProvider.html" target="_top" xlink:title=" ">
<polygon fill="white" stroke="transparent" points="278,-206 152,-206 152,-86 278,-86 278,-206"/>
<text text-anchor="start" x="157" y="-194" font-family="Helvetica,sans-Serif" font-size="10.00">vanetza::security::</text>
<text text-anchor="start" x="157" y="-183" font-family="Helvetica,sans-Serif" font-size="10.00">v2::NullCertificateProvider</text>
<text text-anchor="start" x="213" y="-168" font-family="Helvetica,sans-Serif" font-size="10.00"> </text>
<text text-anchor="start" x="156" y="-153" font-family="Helvetica,sans-Serif" font-size="10.00">+</text>
<text text-anchor="start" x="167" y="-153" font-family="Helvetica,sans-Serif" font-size="10.00">NullCertificateProvider()</text>
<text text-anchor="start" x="156" y="-138" font-family="Helvetica,sans-Serif" font-size="10.00">+</text>
<text text-anchor="start" x="167" y="-138" font-family="Helvetica,sans-Serif" font-size="10.00">own_certificate()</text>
<text text-anchor="start" x="156" y="-123" font-family="Helvetica,sans-Serif" font-size="10.00">+</text>
<text text-anchor="start" x="167" y="-123" font-family="Helvetica,sans-Serif" font-size="10.00">own_chain()</text>
<text text-anchor="start" x="156" y="-108" font-family="Helvetica,sans-Serif" font-size="10.00">+</text>
<text text-anchor="start" x="167" y="-108" font-family="Helvetica,sans-Serif" font-size="10.00">own_private_key()</text>
<text text-anchor="start" x="156" y="-93" font-family="Helvetica,sans-Serif" font-size="10.00">+</text>
<text text-anchor="start" x="167" y="-93" font-family="Helvetica,sans-Serif" font-size="10.00">null_certificate()</text>
<polygon fill="#bfbfbf" stroke="#bfbfbf" points="152,-178 152,-178 278,-178 278,-178 152,-178"/>
<polygon fill="#bfbfbf" stroke="#bfbfbf" points="152,-163 152,-163 278,-163 278,-163 152,-163"/>
<polygon fill="none" stroke="#bfbfbf" points="152,-86 152,-206 278,-206 278,-86 152,-86"/>
</a>
</g>
</g>
<!-- Node1&#45;&gt;Node3 -->
<g id="edge2_Node000001_Node000003" class="edge">
<title>Node1&#45;&gt;Node3</title>
<g id="a_edge2_Node000001_Node000003"><a xlink:title=" ">
<path fill="none" stroke="#63b8ff" d="M215,-317.48C215,-282.99 215,-240.28 215,-206.25"/>
<polygon fill="none" stroke="#63b8ff" points="211.5,-317.9 215,-327.9 218.5,-317.9 211.5,-317.9"/>
</a>
</g>
</g>
<!-- Node4 -->
<g id="Node000004" class="node">
<title>Node4</title>
<g id="a_Node000004"><a xlink:href="../../d6/db8/classvanetza_1_1security_1_1v2_1_1StaticCertificateProvider.html" target="_top" xlink:title="A simple certificate provider.">
<polygon fill="white" stroke="transparent" points="430,-221 296,-221 296,-71 430,-71 430,-221"/>
<text text-anchor="start" x="301" y="-209" font-family="Helvetica,sans-Serif" font-size="10.00">vanetza::security::</text>
<text text-anchor="start" x="301" y="-198" font-family="Helvetica,sans-Serif" font-size="10.00">v2::StaticCertificateProvider</text>
<text text-anchor="start" x="301.5" y="-183" font-family="Helvetica,sans-Serif" font-size="10.00">&#45;</text>
<text text-anchor="start" x="311" y="-183" font-family="Helvetica,sans-Serif" font-size="10.00">authorization_ticket</text>
<text text-anchor="start" x="301.5" y="-168" font-family="Helvetica,sans-Serif" font-size="10.00">&#45;</text>
<text text-anchor="start" x="311" y="-168" font-family="Helvetica,sans-Serif" font-size="10.00">authorization_ticket_key</text>
<text text-anchor="start" x="301.5" y="-153" font-family="Helvetica,sans-Serif" font-size="10.00">&#45;</text>
<text text-anchor="start" x="311" y="-153" font-family="Helvetica,sans-Serif" font-size="10.00">chain</text>
<text text-anchor="start" x="300" y="-138" font-family="Helvetica,sans-Serif" font-size="10.00">+</text>
<text text-anchor="start" x="311" y="-138" font-family="Helvetica,sans-Serif" font-size="10.00">StaticCertificateProvider()</text>
<text text-anchor="start" x="300" y="-123" font-family="Helvetica,sans-Serif" font-size="10.00">+</text>
<text text-anchor="start" x="311" y="-123" font-family="Helvetica,sans-Serif" font-size="10.00">StaticCertificateProvider()</text>
<text text-anchor="start" x="300" y="-108" font-family="Helvetica,sans-Serif" font-size="10.00">+</text>
<text text-anchor="start" x="311" y="-108" font-family="Helvetica,sans-Serif" font-size="10.00">own_certificate()</text>
<text text-anchor="start" x="300" y="-93" font-family="Helvetica,sans-Serif" font-size="10.00">+</text>
<text text-anchor="start" x="311" y="-93" font-family="Helvetica,sans-Serif" font-size="10.00">own_chain()</text>
<text text-anchor="start" x="300" y="-78" font-family="Helvetica,sans-Serif" font-size="10.00">+</text>
<text text-anchor="start" x="311" y="-78" font-family="Helvetica,sans-Serif" font-size="10.00">own_private_key()</text>
<polygon fill="#666666" stroke="#666666" points="296,-193 296,-193 430,-193 430,-193 296,-193"/>
<polygon fill="#666666" stroke="#666666" points="296,-148 296,-148 309,-148 309,-148 296,-148"/>
<polygon fill="#666666" stroke="#666666" points="309,-148 309,-148 430,-148 430,-148 309,-148"/>
<polygon fill="none" stroke="#666666" points="296,-71 296,-221 430,-221 430,-71 296,-71"/>
</a>
</g>
</g>
<!-- Node1&#45;&gt;Node4 -->
<g id="edge3_Node000001_Node000004" class="edge">
<title>Node1&#45;&gt;Node4</title>
<g id="a_edge3_Node000001_Node000004"><a xlink:title=" ">
<path fill="none" stroke="#63b8ff" d="M266.85,-319.76C273.93,-310.69 280.86,-301.26 287,-292 301.69,-269.85 315.79,-244.54 327.76,-221.33"/>
<polygon fill="none" stroke="#63b8ff" points="264.08,-317.62 260.61,-327.63 269.56,-321.97 264.08,-317.62"/>
</a>
</g>
</g>
</g>
</svg>
</svg>

<style type='text/css'>
<![CDATA[
[data-mouse-over-selected='false'] { opacity: 0.7; }
[data-mouse-over-selected='true']  { opacity: 1.0; }
]]>
</style>
<script type="application/ecmascript"><![CDATA[
document.addEventListener('DOMContentLoaded', (event) => {
  highlightEdges();
  highlightAdjacentNodes();
});
]]></script>
</svg>
