<?xml version="1.0" encoding="UTF-8" standalone="no"?>
<!DOCTYPE svg PUBLIC "-//W3C//DTD SVG 1.1//EN"
 "http://www.w3.org/Graphics/SVG/1.1/DTD/svg11.dtd">
<!-- Generated by graphviz version 2.42.1 (0)
 -->
<!-- Title: vanetza::dcc::HookedChannelProbeProcessor Pages: 1 -->
<svg width="192pt" height="353pt"
 viewBox="0.00 0.00 192.00 353.00" xmlns="http://www.w3.org/2000/svg" xmlns:xlink="http://www.w3.org/1999/xlink">
<g id="graph0" class="graph" transform="scale(1 1) rotate(0) translate(4 349)">
<title>vanetza::dcc::HookedChannelProbeProcessor</title>
<polygon fill="white" stroke="transparent" points="-4,4 -4,-349 188,-349 188,4 -4,4"/>
<!-- Node0 -->
<g id="node1" class="node">
<title>Node0</title>
<g id="a_node1"><a xlink:title=" ">
<polygon fill="#bfbfbf" stroke="black" points="6.5,-138.5 6.5,-228.5 177.5,-228.5 177.5,-138.5 6.5,-138.5"/>
<text text-anchor="start" x="14.5" y="-216.5" font-family="Helvetica,sans-Serif" font-size="10.00">vanetza::dcc::HookedChannel</text>
<text text-anchor="middle" x="92" y="-205.5" font-family="Helvetica,sans-Serif" font-size="10.00">ProbeProcessor</text>
<polyline fill="none" stroke="black" points="6.5,-198.5 177.5,-198.5 "/>
<text text-anchor="start" x="14.5" y="-186.5" font-family="Helvetica,sans-Serif" font-size="10.00">+ on_indication</text>
<text text-anchor="start" x="14.5" y="-175.5" font-family="Helvetica,sans-Serif" font-size="10.00">&#45; m_indication_hook</text>
<polyline fill="none" stroke="black" points="6.5,-168.5 177.5,-168.5 "/>
<text text-anchor="start" x="14.5" y="-156.5" font-family="Helvetica,sans-Serif" font-size="10.00">+ HookedChannelProbeProcessor()</text>
<text text-anchor="start" x="14.5" y="-145.5" font-family="Helvetica,sans-Serif" font-size="10.00">+ indicate()</text>
</a>
</g>
</g>
<!-- Node2 -->
<g id="node3" class="node">
<title>Node2</title>
<g id="a_node3"><a xlink:href="../../d2/d7c/classvanetza_1_1dcc_1_1SmoothingChannelProbeProcessor.html" target="_top" xlink:title=" ">
<polygon fill="white" stroke="black" points="0,-0.5 0,-101.5 184,-101.5 184,-0.5 0,-0.5"/>
<text text-anchor="start" x="8" y="-89.5" font-family="Helvetica,sans-Serif" font-size="10.00">vanetza::dcc::SmoothingChannel</text>
<text text-anchor="middle" x="92" y="-78.5" font-family="Helvetica,sans-Serif" font-size="10.00">ProbeProcessor</text>
<polyline fill="none" stroke="black" points="0,-71.5 184,-71.5 "/>
<text text-anchor="start" x="8" y="-59.5" font-family="Helvetica,sans-Serif" font-size="10.00">&#45; m_alpha</text>
<text text-anchor="start" x="8" y="-48.5" font-family="Helvetica,sans-Serif" font-size="10.00">&#45; m_channel_load</text>
<polyline fill="none" stroke="black" points="0,-41.5 184,-41.5 "/>
<text text-anchor="start" x="8" y="-29.5" font-family="Helvetica,sans-Serif" font-size="10.00">+ SmoothingChannelProbeProcessor()</text>
<text text-anchor="start" x="8" y="-18.5" font-family="Helvetica,sans-Serif" font-size="10.00">+ indicate()</text>
<text text-anchor="start" x="8" y="-7.5" font-family="Helvetica,sans-Serif" font-size="10.00">+ channel_load()</text>
</a>
</g>
</g>
<!-- Node0&#45;&gt;Node2 -->
<g id="edge2" class="edge">
<title>Node0&#45;&gt;Node2</title>
<path fill="none" stroke="midnightblue" d="M92,-128.13C92,-119.31 92,-110.22 92,-101.52"/>
<polygon fill="none" stroke="midnightblue" points="88.5,-128.32 92,-138.32 95.5,-128.32 88.5,-128.32"/>
</g>
<!-- Node1 -->
<g id="node2" class="node">
<title>Node1</title>
<g id="a_node2"><a xlink:href="../../d5/d39/classvanetza_1_1dcc_1_1ChannelProbeProcessor.html" target="_top" xlink:title=" ">
<polygon fill="white" stroke="black" points="20.5,-265.5 20.5,-344.5 163.5,-344.5 163.5,-265.5 20.5,-265.5"/>
<text text-anchor="start" x="28.5" y="-332.5" font-family="Helvetica,sans-Serif" font-size="10.00">vanetza::dcc::ChannelProbe</text>
<text text-anchor="middle" x="92" y="-321.5" font-family="Helvetica,sans-Serif" font-size="10.00">Processor</text>
<polyline fill="none" stroke="black" points="20.5,-314.5 163.5,-314.5 "/>
<text text-anchor="middle" x="92" y="-302.5" font-family="Helvetica,sans-Serif" font-size="10.00"> </text>
<polyline fill="none" stroke="black" points="20.5,-295.5 163.5,-295.5 "/>
<text text-anchor="start" x="28.5" y="-283.5" font-family="Helvetica,sans-Serif" font-size="10.00">+ indicate()</text>
<text text-anchor="start" x="28.5" y="-272.5" font-family="Helvetica,sans-Serif" font-size="10.00">+ ~ChannelProbeProcessor()</text>
</a>
</g>
</g>
<!-- Node1&#45;&gt;Node0 -->
<g id="edge1" class="edge">
<title>Node1&#45;&gt;Node0</title>
<path fill="none" stroke="midnightblue" d="M92,-255.19C92,-246.49 92,-237.48 92,-228.91"/>
<polygon fill="none" stroke="midnightblue" points="88.5,-255.2 92,-265.2 95.5,-255.2 88.5,-255.2"/>
</g>
</g>
</svg>
