<?xml version="1.0" encoding="UTF-8" standalone="no"?>
<!DOCTYPE svg PUBLIC "-//W3C//DTD SVG 1.1//EN"
 "http://www.w3.org/Graphics/SVG/1.1/DTD/svg11.dtd">
<!-- Generated by graphviz version 2.49.3 (0)
 -->
<!-- Title: vanetza::dcc::HookedChannelProbeProcessor Pages: 1 -->
<svg width="186pt" height="350pt"
 viewBox="0.00 0.00 186.00 350.00" xmlns="http://www.w3.org/2000/svg" xmlns:xlink="http://www.w3.org/1999/xlink">
<g id="graph0" class="graph" transform="scale(1 1) rotate(0) translate(4 346)">
<title>vanetza::dcc::HookedChannelProbeProcessor</title>
<!-- Node1 -->
<g id="Node000001" class="node">
<title>Node1</title>
<g id="a_Node000001"><a xlink:title=" ">
<polygon fill="#999999" stroke="transparent" points="171,-231 7,-231 7,-141 171,-141 171,-231"/>
<text text-anchor="start" x="23.5" y="-219" font-family="Helvetica,sans-Serif" font-size="10.00">vanetza::dcc::HookedChannel</text>
<text text-anchor="start" x="54" y="-208" font-family="Helvetica,sans-Serif" font-size="10.00">ProbeProcessor</text>
<text text-anchor="start" x="11" y="-193" font-family="Helvetica,sans-Serif" font-size="10.00">+</text>
<text text-anchor="start" x="22" y="-193" font-family="Helvetica,sans-Serif" font-size="10.00">on_indication</text>
<text text-anchor="start" x="12.5" y="-178" font-family="Helvetica,sans-Serif" font-size="10.00">&#45;</text>
<text text-anchor="start" x="22" y="-178" font-family="Helvetica,sans-Serif" font-size="10.00">m_indication_hook</text>
<text text-anchor="start" x="11" y="-163" font-family="Helvetica,sans-Serif" font-size="10.00">+</text>
<text text-anchor="start" x="22" y="-163" font-family="Helvetica,sans-Serif" font-size="10.00">HookedChannelProbeProcessor()</text>
<text text-anchor="start" x="11" y="-148" font-family="Helvetica,sans-Serif" font-size="10.00">+</text>
<text text-anchor="start" x="22" y="-148" font-family="Helvetica,sans-Serif" font-size="10.00">indicate()</text>
<polygon fill="#666666" stroke="#666666" points="7,-203 7,-203 171,-203 171,-203 7,-203"/>
<polygon fill="#666666" stroke="#666666" points="7,-173 7,-173 20,-173 20,-173 7,-173"/>
<polygon fill="#666666" stroke="#666666" points="20,-173 20,-173 171,-173 171,-173 20,-173"/>
<polygon fill="none" stroke="#666666" points="7,-141 7,-231 171,-231 171,-141 7,-141"/>
</a>
</g>
</g>
<!-- Node3 -->
<g id="Node000003" class="node">
<title>Node3</title>
<g id="a_Node000003"><a xlink:href="../../d2/d7c/classvanetza_1_1dcc_1_1SmoothingChannelProbeProcessor.html" target="_top" xlink:title=" ">
<polygon fill="white" stroke="transparent" points="178,-105 0,-105 0,0 178,0 178,-105"/>
<text text-anchor="start" x="16.5" y="-92.5" font-family="Helvetica,sans-Serif" font-size="10.00">vanetza::dcc::SmoothingChannel</text>
<text text-anchor="start" x="54" y="-81.5" font-family="Helvetica,sans-Serif" font-size="10.00">ProbeProcessor</text>
<text text-anchor="start" x="5.5" y="-66.5" font-family="Helvetica,sans-Serif" font-size="10.00">&#45;</text>
<text text-anchor="start" x="15" y="-66.5" font-family="Helvetica,sans-Serif" font-size="10.00">m_alpha</text>
<text text-anchor="start" x="5.5" y="-51.5" font-family="Helvetica,sans-Serif" font-size="10.00">&#45;</text>
<text text-anchor="start" x="15" y="-51.5" font-family="Helvetica,sans-Serif" font-size="10.00">m_channel_load</text>
<text text-anchor="start" x="4" y="-36.5" font-family="Helvetica,sans-Serif" font-size="10.00">+</text>
<text text-anchor="start" x="15" y="-36.5" font-family="Helvetica,sans-Serif" font-size="10.00">SmoothingChannelProbeProcessor()</text>
<text text-anchor="start" x="4" y="-21.5" font-family="Helvetica,sans-Serif" font-size="10.00">+</text>
<text text-anchor="start" x="15" y="-21.5" font-family="Helvetica,sans-Serif" font-size="10.00">indicate()</text>
<text text-anchor="start" x="4" y="-6.5" font-family="Helvetica,sans-Serif" font-size="10.00">+</text>
<text text-anchor="start" x="15" y="-6.5" font-family="Helvetica,sans-Serif" font-size="10.00">channel_load()</text>
<polygon fill="#666666" stroke="#666666" points="0,-76.5 0,-76.5 178,-76.5 178,-76.5 0,-76.5"/>
<polygon fill="#666666" stroke="#666666" points="0,-46.5 0,-46.5 13,-46.5 13,-46.5 0,-46.5"/>
<polygon fill="#666666" stroke="#666666" points="13,-46.5 13,-46.5 178,-46.5 178,-46.5 13,-46.5"/>
<polygon fill="none" stroke="#666666" points="0,0 0,-105 178,-105 178,0 0,0"/>
</a>
</g>
</g>
<!-- Node1&#45;&gt;Node3 -->
<g id="edge2_Node000001_Node000003" class="edge">
<title>Node1&#45;&gt;Node3</title>
<g id="a_edge2_Node000001_Node000003"><a xlink:title=" ">
<path fill="none" stroke="#63b8ff" d="M89,-130.67C89,-122.19 89,-113.45 89,-105.04"/>
<polygon fill="none" stroke="#63b8ff" points="85.5,-130.85 89,-140.85 92.5,-130.85 85.5,-130.85"/>
</a>
</g>
</g>
<!-- Node2 -->
<g id="Node000002" class="node">
<title>Node2</title>
<g id="a_Node000002"><a xlink:href="../../d5/d39/classvanetza_1_1dcc_1_1ChannelProbeProcessor.html" target="_top" xlink:title=" ">
<polygon fill="white" stroke="transparent" points="157.5,-342 20.5,-342 20.5,-267 157.5,-267 157.5,-342"/>
<text text-anchor="start" x="27.5" y="-329.5" font-family="Helvetica,sans-Serif" font-size="10.00">vanetza::dcc::ChannelProbe</text>
<text text-anchor="start" x="67" y="-318.5" font-family="Helvetica,sans-Serif" font-size="10.00">Processor</text>
<text text-anchor="start" x="87.5" y="-303.5" font-family="Helvetica,sans-Serif" font-size="10.00"> </text>
<text text-anchor="start" x="25" y="-288.5" font-family="Helvetica,sans-Serif" font-size="10.00">+</text>
<text text-anchor="start" x="36" y="-288.5" font-family="Helvetica,sans-Serif" font-size="10.00">indicate()</text>
<text text-anchor="start" x="25" y="-273.5" font-family="Helvetica,sans-Serif" font-size="10.00">+</text>
<text text-anchor="start" x="36" y="-273.5" font-family="Helvetica,sans-Serif" font-size="10.00">~ChannelProbeProcessor()</text>
<polygon fill="#666666" stroke="#666666" points="21,-313.5 21,-313.5 158,-313.5 158,-313.5 21,-313.5"/>
<polygon fill="#666666" stroke="#666666" points="21,-298.5 21,-298.5 158,-298.5 158,-298.5 21,-298.5"/>
<polygon fill="none" stroke="#666666" points="20.5,-267 20.5,-342 157.5,-342 157.5,-267 20.5,-267"/>
</a>
</g>
</g>
<!-- Node2&#45;&gt;Node1 -->
<g id="edge1_Node000001_Node000002" class="edge">
<title>Node2&#45;&gt;Node1</title>
<g id="a_edge1_Node000001_Node000002"><a xlink:title=" ">
<path fill="none" stroke="#63b8ff" d="M89,-256.85C89,-248.38 89,-239.58 89,-231.18"/>
<polygon fill="none" stroke="#63b8ff" points="85.5,-256.96 89,-266.96 92.5,-256.96 85.5,-256.96"/>
</a>
</g>
</g>
</g>
</svg>
