<?xml version="1.0" encoding="UTF-8" standalone="no"?>
<!DOCTYPE svg PUBLIC "-//W3C//DTD SVG 1.1//EN"
 "http://www.w3.org/Graphics/SVG/1.1/DTD/svg11.dtd">
<!-- Generated by graphviz version 2.49.3 (0)
 -->
<!-- Title: vanetza::ManualRuntime Pages: 1 -->
<svg width="127pt" height="367pt"
 viewBox="0.00 0.00 127.00 367.00" xmlns="http://www.w3.org/2000/svg" xmlns:xlink="http://www.w3.org/1999/xlink">
<g id="graph0" class="graph" transform="scale(1 1) rotate(0) translate(4 363)">
<title>vanetza::ManualRuntime</title>
<!-- Node1 -->
<g id="Node000001" class="node">
<title>Node1</title>
<g id="a_Node000001"><a xlink:title=" ">
<polygon fill="#999999" stroke="transparent" points="119,-214 0,-214 0,0 119,0 119,-214"/>
<text text-anchor="start" x="5.5" y="-202" font-family="Helvetica,sans-Serif" font-size="10.00">vanetza::ManualRuntime</text>
<text text-anchor="start" x="12" y="-187" font-family="Helvetica,sans-Serif" font-size="10.00">&#45;</text>
<text text-anchor="start" x="27.5" y="-187" font-family="Helvetica,sans-Serif" font-size="10.00">m_now</text>
<text text-anchor="start" x="12" y="-172" font-family="Helvetica,sans-Serif" font-size="10.00">&#45;</text>
<text text-anchor="start" x="27.5" y="-172" font-family="Helvetica,sans-Serif" font-size="10.00">m_queue</text>
<text text-anchor="start" x="10.5" y="-157" font-family="Helvetica,sans-Serif" font-size="10.00">+</text>
<text text-anchor="start" x="27.5" y="-157" font-family="Helvetica,sans-Serif" font-size="10.00">ManualRuntime()</text>
<text text-anchor="start" x="10.5" y="-142" font-family="Helvetica,sans-Serif" font-size="10.00">+</text>
<text text-anchor="start" x="27.5" y="-142" font-family="Helvetica,sans-Serif" font-size="10.00">ManualRuntime()</text>
<text text-anchor="start" x="10.5" y="-127" font-family="Helvetica,sans-Serif" font-size="10.00">+</text>
<text text-anchor="start" x="27.5" y="-127" font-family="Helvetica,sans-Serif" font-size="10.00">trigger()</text>
<text text-anchor="start" x="10.5" y="-112" font-family="Helvetica,sans-Serif" font-size="10.00">+</text>
<text text-anchor="start" x="27.5" y="-112" font-family="Helvetica,sans-Serif" font-size="10.00">trigger()</text>
<text text-anchor="start" x="10.5" y="-97" font-family="Helvetica,sans-Serif" font-size="10.00">+</text>
<text text-anchor="start" x="27.5" y="-97" font-family="Helvetica,sans-Serif" font-size="10.00">reset()</text>
<text text-anchor="start" x="10.5" y="-82" font-family="Helvetica,sans-Serif" font-size="10.00">+</text>
<text text-anchor="start" x="27.5" y="-82" font-family="Helvetica,sans-Serif" font-size="10.00">next()</text>
<text text-anchor="start" x="10.5" y="-67" font-family="Helvetica,sans-Serif" font-size="10.00">+</text>
<text text-anchor="start" x="27.5" y="-67" font-family="Helvetica,sans-Serif" font-size="10.00">schedule()</text>
<text text-anchor="start" x="10.5" y="-52" font-family="Helvetica,sans-Serif" font-size="10.00">+</text>
<text text-anchor="start" x="27.5" y="-52" font-family="Helvetica,sans-Serif" font-size="10.00">schedule()</text>
<text text-anchor="start" x="10.5" y="-37" font-family="Helvetica,sans-Serif" font-size="10.00">+</text>
<text text-anchor="start" x="27.5" y="-37" font-family="Helvetica,sans-Serif" font-size="10.00">cancel()</text>
<text text-anchor="start" x="10.5" y="-22" font-family="Helvetica,sans-Serif" font-size="10.00">+</text>
<text text-anchor="start" x="27.5" y="-22" font-family="Helvetica,sans-Serif" font-size="10.00">now()</text>
<text text-anchor="start" x="12" y="-7" font-family="Helvetica,sans-Serif" font-size="10.00">&#45;</text>
<text text-anchor="start" x="27.5" y="-7" font-family="Helvetica,sans-Serif" font-size="10.00">trigger()</text>
<polygon fill="#666666" stroke="#666666" points="0.5,-197 0.5,-197 119.5,-197 119.5,-197 0.5,-197"/>
<polygon fill="#666666" stroke="#666666" points="0.5,-167 0.5,-167 25.5,-167 25.5,-167 0.5,-167"/>
<polygon fill="#666666" stroke="#666666" points="25.5,-167 25.5,-167 119.5,-167 119.5,-167 25.5,-167"/>
<polygon fill="none" stroke="#666666" points="0,0 0,-214 119,-214 119,0 0,0"/>
</a>
</g>
</g>
<!-- Node2 -->
<g id="Node000002" class="node">
<title>Node2</title>
<g id="a_Node000002"><a xlink:href="../../de/d11/classvanetza_1_1Runtime.html" target="_top" xlink:title=" ">
<polygon fill="white" stroke="transparent" points="103,-359 16,-359 16,-250 103,-250 103,-359"/>
<text text-anchor="start" x="21.5" y="-346.5" font-family="Helvetica,sans-Serif" font-size="10.00">vanetza::Runtime</text>
<text text-anchor="start" x="58" y="-331.5" font-family="Helvetica,sans-Serif" font-size="10.00"> </text>
<text text-anchor="start" x="25" y="-316.5" font-family="Helvetica,sans-Serif" font-size="10.00">+</text>
<text text-anchor="start" x="40.5" y="-316.5" font-family="Helvetica,sans-Serif" font-size="10.00">schedule()</text>
<text text-anchor="start" x="25" y="-301.5" font-family="Helvetica,sans-Serif" font-size="10.00">+</text>
<text text-anchor="start" x="40.5" y="-301.5" font-family="Helvetica,sans-Serif" font-size="10.00">schedule()</text>
<text text-anchor="start" x="25" y="-286.5" font-family="Helvetica,sans-Serif" font-size="10.00">+</text>
<text text-anchor="start" x="40.5" y="-286.5" font-family="Helvetica,sans-Serif" font-size="10.00">cancel()</text>
<text text-anchor="start" x="25" y="-271.5" font-family="Helvetica,sans-Serif" font-size="10.00">+</text>
<text text-anchor="start" x="40.5" y="-271.5" font-family="Helvetica,sans-Serif" font-size="10.00">now()</text>
<text text-anchor="start" x="25" y="-256.5" font-family="Helvetica,sans-Serif" font-size="10.00">+</text>
<text text-anchor="start" x="40.5" y="-256.5" font-family="Helvetica,sans-Serif" font-size="10.00">~Runtime()</text>
<polygon fill="#666666" stroke="#666666" points="16.5,-341.5 16.5,-341.5 103.5,-341.5 103.5,-341.5 16.5,-341.5"/>
<polygon fill="#666666" stroke="#666666" points="16.5,-326.5 16.5,-326.5 103.5,-326.5 103.5,-326.5 16.5,-326.5"/>
<polygon fill="none" stroke="#666666" points="16,-250 16,-359 103,-359 103,-250 16,-250"/>
</a>
</g>
</g>
<!-- Node2&#45;&gt;Node1 -->
<g id="edge1_Node000001_Node000002" class="edge">
<title>Node2&#45;&gt;Node1</title>
<g id="a_edge1_Node000001_Node000002"><a xlink:title=" ">
<path fill="none" stroke="#63b8ff" d="M59.5,-239.62C59.5,-231.39 59.5,-222.8 59.5,-214.12"/>
<polygon fill="none" stroke="#63b8ff" points="56,-239.82 59.5,-249.82 63,-239.82 56,-239.82"/>
</a>
</g>
</g>
</g>
</svg>
