<?xml version="1.0" encoding="UTF-8" standalone="no"?>
<!DOCTYPE svg PUBLIC "-//W3C//DTD SVG 1.1//EN"
 "http://www.w3.org/Graphics/SVG/1.1/DTD/svg11.dtd">
<!-- Generated by graphviz version 14.1.2 (0)
 -->
<!-- Title: vanetza::dcc::BurstyTransmitRateControl Pages: 1 -->
<svg width="314pt" height="398pt"
 viewBox="0.00 0.00 314.00 398.00" xmlns="http://www.w3.org/2000/svg" xmlns:xlink="http://www.w3.org/1999/xlink">

<svg id="main" version="1.1" xmlns="http://www.w3.org/2000/svg" xmlns:xlink="http://www.w3.org/1999/xlink" xml:space="preserve">

<style type="text/css"><![CDATA[
.node, .edge {opacity: 0.7;}
.node.selected, .edge.selected {opacity: 1;}
.edge:hover path { stroke: red; }
.edge:hover polygon { stroke: red; fill: red; }
]]></style>
<script type="application/ecmascript" xlink:href="../../svg.min.js"/>
<svg id="graph" class="graph">
<g id="graph0" class="graph" transform="scale(1 1) rotate(0) translate(4 394.25)">
<title>vanetza::dcc::BurstyTransmitRateControl</title>
<!-- Node1 -->
<g id="Node000001" class="node">
<title>Node1</title>
<g id="a_Node000001"><a xlink:title=" ">
<polygon fill="#999999" stroke="none" points="230.5,-150.75 71.5,-150.75 71.5,0 230.5,0 230.5,-150.75"/>
<text xml:space="preserve" text-anchor="start" x="80.5" y="-137.25" font-family="Helvetica,sans-Serif" font-size="10.00">vanetza::dcc::BurstyTransmit</text>
<text xml:space="preserve" text-anchor="start" x="122.12" y="-124.5" font-family="Helvetica,sans-Serif" font-size="10.00">RateControl</text>
<text xml:space="preserve" text-anchor="start" x="77.75" y="-107.75" font-family="Helvetica,sans-Serif" font-size="10.00">&#45;</text>
<text xml:space="preserve" text-anchor="start" x="87.75" y="-107.75" font-family="Helvetica,sans-Serif" font-size="10.00">m_burst_budget</text>
<text xml:space="preserve" text-anchor="start" x="77.75" y="-91" font-family="Helvetica,sans-Serif" font-size="10.00">&#45;</text>
<text xml:space="preserve" text-anchor="start" x="87.75" y="-91" font-family="Helvetica,sans-Serif" font-size="10.00">m_fsm_budget</text>
<text xml:space="preserve" text-anchor="start" x="77.75" y="-74.25" font-family="Helvetica,sans-Serif" font-size="10.00">&#45;</text>
<text xml:space="preserve" text-anchor="start" x="87.75" y="-74.25" font-family="Helvetica,sans-Serif" font-size="10.00">m_fsm</text>
<text xml:space="preserve" text-anchor="start" x="75.5" y="-57.5" font-family="Helvetica,sans-Serif" font-size="10.00">+</text>
<text xml:space="preserve" text-anchor="start" x="87.75" y="-57.5" font-family="Helvetica,sans-Serif" font-size="10.00">BurstyTransmitRateControl()</text>
<text xml:space="preserve" text-anchor="start" x="75.5" y="-40.75" font-family="Helvetica,sans-Serif" font-size="10.00">+</text>
<text xml:space="preserve" text-anchor="start" x="87.75" y="-40.75" font-family="Helvetica,sans-Serif" font-size="10.00">delay()</text>
<text xml:space="preserve" text-anchor="start" x="75.5" y="-24" font-family="Helvetica,sans-Serif" font-size="10.00">+</text>
<text xml:space="preserve" text-anchor="start" x="87.75" y="-24" font-family="Helvetica,sans-Serif" font-size="10.00">interval()</text>
<text xml:space="preserve" text-anchor="start" x="75.5" y="-7.25" font-family="Helvetica,sans-Serif" font-size="10.00">+</text>
<text xml:space="preserve" text-anchor="start" x="87.75" y="-7.25" font-family="Helvetica,sans-Serif" font-size="10.00">notify()</text>
<polygon fill="#666666" stroke="#666666" points="71.5,-119.25 71.5,-119.25 230.5,-119.25 230.5,-119.25 71.5,-119.25"/>
<polygon fill="#666666" stroke="#666666" points="71.5,-69 71.5,-69 85.75,-69 85.75,-69 71.5,-69"/>
<polygon fill="#666666" stroke="#666666" points="85.75,-69 85.75,-69 230.5,-69 230.5,-69 85.75,-69"/>
<polygon fill="none" stroke="#666666" points="71.5,0 71.5,-150.75 230.5,-150.75 230.5,0 71.5,0"/>
</a>
</g>
</g>
<!-- Node2 -->
<g id="Node000002" class="node">
<title>Node2</title>
<g id="a_Node000002"><a xlink:href="../../de/d9c/classvanetza_1_1dcc_1_1TransmitRateControl.html" target="_top" xlink:title=" ">
<polygon fill="white" stroke="none" points="221,-253.75 81,-253.75 81,-186.75 221,-186.75 221,-253.75"/>
<text xml:space="preserve" text-anchor="start" x="85" y="-240.25" font-family="Helvetica,sans-Serif" font-size="10.00">vanetza::dcc::TransmitRate</text>
<text xml:space="preserve" text-anchor="start" x="133.38" y="-227.5" font-family="Helvetica,sans-Serif" font-size="10.00">Control</text>
<text xml:space="preserve" text-anchor="start" x="149.5" y="-210.75" font-family="Helvetica,sans-Serif" font-size="10.00"> </text>
<text xml:space="preserve" text-anchor="start" x="149.5" y="-194" font-family="Helvetica,sans-Serif" font-size="10.00"> </text>
<polygon fill="#bfbfbf" stroke="#bfbfbf" points="81,-222.25 81,-222.25 221,-222.25 221,-222.25 81,-222.25"/>
<polygon fill="#bfbfbf" stroke="#bfbfbf" points="81,-205.5 81,-205.5 221,-205.5 221,-205.5 81,-205.5"/>
<polygon fill="none" stroke="#bfbfbf" points="81,-186.75 81,-253.75 221,-253.75 221,-186.75 81,-186.75"/>
</a>
</g>
</g>
<!-- Node2&#45;&gt;Node1 -->
<g id="edge1_Node000001_Node000002" class="edge">
<title>Node2&#45;&gt;Node1</title>
<g id="a_edge1_Node000001_Node000002"><a xlink:title=" ">
<path fill="none" stroke="#63b8ff" d="M151,-175.35C151,-167.48 151,-159.08 151,-150.63"/>
<polygon fill="none" stroke="#63b8ff" points="147.5,-175.32 151,-185.32 154.5,-175.32 147.5,-175.32"/>
</a>
</g>
</g>
<!-- Node3 -->
<g id="Node000003" class="node">
<title>Node3</title>
<g id="a_Node000003"><a xlink:href="../../dd/dbf/classvanetza_1_1dcc_1_1TransmitRateThrottle.html" target="_top" xlink:title=" ">
<polygon fill="white" stroke="none" points="140,-390.25 0,-390.25 0,-289.75 140,-289.75 140,-390.25"/>
<text xml:space="preserve" text-anchor="start" x="4" y="-376.75" font-family="Helvetica,sans-Serif" font-size="10.00">vanetza::dcc::TransmitRate</text>
<text xml:space="preserve" text-anchor="start" x="50.88" y="-364" font-family="Helvetica,sans-Serif" font-size="10.00">Throttle</text>
<text xml:space="preserve" text-anchor="start" x="68.5" y="-347.25" font-family="Helvetica,sans-Serif" font-size="10.00"> </text>
<text xml:space="preserve" text-anchor="start" x="4.31" y="-330.5" font-family="Helvetica,sans-Serif" font-size="10.00">+</text>
<text xml:space="preserve" text-anchor="start" x="16.88" y="-330.5" font-family="Helvetica,sans-Serif" font-size="10.00">delay()</text>
<text xml:space="preserve" text-anchor="start" x="4.31" y="-313.75" font-family="Helvetica,sans-Serif" font-size="10.00">+</text>
<text xml:space="preserve" text-anchor="start" x="16.88" y="-313.75" font-family="Helvetica,sans-Serif" font-size="10.00">interval()</text>
<text xml:space="preserve" text-anchor="start" x="4.31" y="-297" font-family="Helvetica,sans-Serif" font-size="10.00">+</text>
<text xml:space="preserve" text-anchor="start" x="16.88" y="-297" font-family="Helvetica,sans-Serif" font-size="10.00">~TransmitRateThrottle()</text>
<polygon fill="#bfbfbf" stroke="#bfbfbf" points="0,-358.75 0,-358.75 140,-358.75 140,-358.75 0,-358.75"/>
<polygon fill="#bfbfbf" stroke="#bfbfbf" points="0,-342 0,-342 140,-342 140,-342 0,-342"/>
<polygon fill="none" stroke="#bfbfbf" points="0,-289.75 0,-390.25 140,-390.25 140,-289.75 0,-289.75"/>
</a>
</g>
</g>
<!-- Node3&#45;&gt;Node2 -->
<g id="edge2_Node000002_Node000003" class="edge">
<title>Node3&#45;&gt;Node2</title>
<g id="a_edge2_Node000002_Node000003"><a xlink:title=" ">
<path fill="none" stroke="#63b8ff" d="M110.02,-280.82C116.43,-271.5 122.85,-262.17 128.65,-253.74"/>
<polygon fill="none" stroke="#63b8ff" points="107.29,-278.62 104.51,-288.84 113.06,-282.58 107.29,-278.62"/>
</a>
</g>
</g>
<!-- Node4 -->
<g id="Node000004" class="node">
<title>Node4</title>
<g id="a_Node000004"><a xlink:href="../../d2/d13/classvanetza_1_1dcc_1_1TransmitRateFeedback.html" target="_top" xlink:title=" ">
<polygon fill="white" stroke="none" points="305.5,-381.88 158.5,-381.88 158.5,-298.12 305.5,-298.12 305.5,-381.88"/>
<text xml:space="preserve" text-anchor="start" x="166" y="-368.38" font-family="Helvetica,sans-Serif" font-size="10.00">vanetza::dcc::TransmitRate</text>
<text xml:space="preserve" text-anchor="start" x="208.75" y="-355.62" font-family="Helvetica,sans-Serif" font-size="10.00">Feedback</text>
<text xml:space="preserve" text-anchor="start" x="230.5" y="-338.88" font-family="Helvetica,sans-Serif" font-size="10.00"> </text>
<text xml:space="preserve" text-anchor="start" x="162.5" y="-322.12" font-family="Helvetica,sans-Serif" font-size="10.00">+</text>
<text xml:space="preserve" text-anchor="start" x="174.75" y="-322.12" font-family="Helvetica,sans-Serif" font-size="10.00">notify()</text>
<text xml:space="preserve" text-anchor="start" x="162.5" y="-305.38" font-family="Helvetica,sans-Serif" font-size="10.00">+</text>
<text xml:space="preserve" text-anchor="start" x="174.75" y="-305.38" font-family="Helvetica,sans-Serif" font-size="10.00">~TransmitRateFeedback()</text>
<polygon fill="#bfbfbf" stroke="#bfbfbf" points="158.5,-350.38 158.5,-350.38 305.5,-350.38 305.5,-350.38 158.5,-350.38"/>
<polygon fill="#bfbfbf" stroke="#bfbfbf" points="158.5,-333.62 158.5,-333.62 305.5,-333.62 305.5,-333.62 158.5,-333.62"/>
<polygon fill="none" stroke="#bfbfbf" points="158.5,-298.12 158.5,-381.88 305.5,-381.88 305.5,-298.12 158.5,-298.12"/>
</a>
</g>
</g>
<!-- Node4&#45;&gt;Node2 -->
<g id="edge3_Node000002_Node000004" class="edge">
<title>Node4&#45;&gt;Node2</title>
<g id="a_edge3_Node000002_Node000004"><a xlink:title=" ">
<path fill="none" stroke="#63b8ff" d="M197.41,-288.72C189.2,-276.79 180.66,-264.37 173.18,-253.5"/>
<polygon fill="none" stroke="#63b8ff" points="194.49,-290.64 203.04,-296.9 200.26,-286.68 194.49,-290.64"/>
</a>
</g>
</g>
</g>
</svg>
</svg>

<style type='text/css'>
<![CDATA[
[data-mouse-over-selected='false'] { opacity: 0.7; }
[data-mouse-over-selected='true']  { opacity: 1.0; }
]]>
</style>
<script type="application/ecmascript"><![CDATA[
document.addEventListener('DOMContentLoaded', (event) => {
  highlightEdges();
  highlightAdjacentNodes();
});
]]></script>
</svg>
