<?xml version="1.0" encoding="UTF-8" standalone="no"?>
<!DOCTYPE svg PUBLIC "-//W3C//DTD SVG 1.1//EN"
 "http://www.w3.org/Graphics/SVG/1.1/DTD/svg11.dtd">
<!-- Generated by graphviz version 2.49.3 (0)
 -->
<!-- Title: vanetza::dcc::NullRequestInterface Pages: 1 -->
<svg width="161pt" height="182pt"
 viewBox="0.00 0.00 161.00 182.00" xmlns="http://www.w3.org/2000/svg" xmlns:xlink="http://www.w3.org/1999/xlink">
<g id="graph0" class="graph" transform="scale(1 1) rotate(0) translate(4 178)">
<title>vanetza::dcc::NullRequestInterface</title>
<!-- Node1 -->
<g id="node1" class="node">
<title>Node1</title>
<g id="a_node1"><a xlink:title=" ">
<polygon fill="#999999" stroke="#666666" points="11,-0.5 11,-68.5 142,-68.5 142,-0.5 11,-0.5"/>
<text text-anchor="start" x="19" y="-56.5" font-family="Helvetica,sans-Serif" font-size="10.00">vanetza::dcc::NullRequest</text>
<text text-anchor="middle" x="76.5" y="-45.5" font-family="Helvetica,sans-Serif" font-size="10.00">Interface</text>
<polyline fill="none" stroke="#666666" points="11,-38.5 142,-38.5 "/>
<text text-anchor="middle" x="76.5" y="-26.5" font-family="Helvetica,sans-Serif" font-size="10.00"> </text>
<polyline fill="none" stroke="#666666" points="11,-19.5 142,-19.5 "/>
<text text-anchor="start" x="19" y="-7.5" font-family="Helvetica,sans-Serif" font-size="10.00">+ request()</text>
</a>
</g>
</g>
<!-- Node2 -->
<g id="node2" class="node">
<title>Node2</title>
<g id="a_node2"><a xlink:href="../../db/d5b/classvanetza_1_1dcc_1_1RequestInterface.html" target="_top" xlink:title=" ">
<polygon fill="white" stroke="#666666" points="0,-105.5 0,-173.5 153,-173.5 153,-105.5 0,-105.5"/>
<text text-anchor="middle" x="76.5" y="-161.5" font-family="Helvetica,sans-Serif" font-size="10.00">vanetza::dcc::RequestInterface</text>
<polyline fill="none" stroke="#666666" points="0,-154.5 153,-154.5 "/>
<text text-anchor="middle" x="76.5" y="-142.5" font-family="Helvetica,sans-Serif" font-size="10.00"> </text>
<polyline fill="none" stroke="#666666" points="0,-135.5 153,-135.5 "/>
<text text-anchor="start" x="8" y="-123.5" font-family="Helvetica,sans-Serif" font-size="10.00">+ request()</text>
<text text-anchor="start" x="8" y="-112.5" font-family="Helvetica,sans-Serif" font-size="10.00">+ ~RequestInterface()</text>
</a>
</g>
</g>
<!-- Node2&#45;&gt;Node1 -->
<g id="edge1" class="edge">
<title>Node2&#45;&gt;Node1</title>
<path fill="none" stroke="#63b8ff" d="M76.5,-95.14C76.5,-86.26 76.5,-77.04 76.5,-68.59"/>
<polygon fill="none" stroke="#63b8ff" points="73,-95.34 76.5,-105.34 80,-95.34 73,-95.34"/>
</g>
</g>
</svg>
