<?xml version="1.0" encoding="UTF-8" standalone="no"?>
<!DOCTYPE svg PUBLIC "-//W3C//DTD SVG 1.1//EN"
 "http://www.w3.org/Graphics/SVG/1.1/DTD/svg11.dtd">
<!-- Generated by graphviz version 2.49.3 (0)
 -->
<!-- Title: vanetza::dcc::NullRequestInterface Pages: 1 -->
<svg width="155pt" height="168pt"
 viewBox="0.00 0.00 155.00 168.00" xmlns="http://www.w3.org/2000/svg" xmlns:xlink="http://www.w3.org/1999/xlink">
<g id="graph0" class="graph" transform="scale(1 1) rotate(0) translate(4 164)">
<title>vanetza::dcc::NullRequestInterface</title>
<!-- Node1 -->
<g id="Node000001" class="node">
<title>Node1</title>
<g id="a_Node000001"><a xlink:title=" ">
<polygon fill="#999999" stroke="transparent" points="136,-60 11,-60 11,0 136,0 136,-60"/>
<text text-anchor="start" x="16.5" y="-48" font-family="Helvetica,sans-Serif" font-size="10.00">vanetza::dcc::NullRequest</text>
<text text-anchor="start" x="54" y="-37" font-family="Helvetica,sans-Serif" font-size="10.00">Interface</text>
<text text-anchor="start" x="72" y="-22" font-family="Helvetica,sans-Serif" font-size="10.00"> </text>
<text text-anchor="start" x="32" y="-7" font-family="Helvetica,sans-Serif" font-size="10.00">+</text>
<text text-anchor="start" x="59.5" y="-7" font-family="Helvetica,sans-Serif" font-size="10.00">request()</text>
<polygon fill="#666666" stroke="#666666" points="11.5,-32 11.5,-32 136.5,-32 136.5,-32 11.5,-32"/>
<polygon fill="#666666" stroke="#666666" points="11.5,-17 11.5,-17 136.5,-17 136.5,-17 11.5,-17"/>
<polygon fill="none" stroke="#666666" points="11,0 11,-60 136,-60 136,0 11,0"/>
</a>
</g>
</g>
<!-- Node2 -->
<g id="Node000002" class="node">
<title>Node2</title>
<g id="a_Node000002"><a xlink:href="../../db/d5b/classvanetza_1_1dcc_1_1RequestInterface.html" target="_top" xlink:title=" ">
<polygon fill="white" stroke="transparent" points="147,-160 0,-160 0,-96 147,-96 147,-160"/>
<text text-anchor="start" x="5.5" y="-148" font-family="Helvetica,sans-Serif" font-size="10.00">vanetza::dcc::RequestInterface</text>
<text text-anchor="start" x="72" y="-133" font-family="Helvetica,sans-Serif" font-size="10.00"> </text>
<text text-anchor="start" x="14.5" y="-118" font-family="Helvetica,sans-Serif" font-size="10.00">+</text>
<text text-anchor="start" x="35.5" y="-118" font-family="Helvetica,sans-Serif" font-size="10.00">request()</text>
<text text-anchor="start" x="14.5" y="-103" font-family="Helvetica,sans-Serif" font-size="10.00">+</text>
<text text-anchor="start" x="35.5" y="-103" font-family="Helvetica,sans-Serif" font-size="10.00">~RequestInterface()</text>
<polygon fill="#666666" stroke="#666666" points="0.5,-143 0.5,-143 147.5,-143 147.5,-143 0.5,-143"/>
<polygon fill="#666666" stroke="#666666" points="0.5,-128 0.5,-128 147.5,-128 147.5,-128 0.5,-128"/>
<polygon fill="none" stroke="#666666" points="0,-96 0,-160 147,-160 147,-96 0,-96"/>
</a>
</g>
</g>
<!-- Node2&#45;&gt;Node1 -->
<g id="edge1_Node000001_Node000002" class="edge">
<title>Node2&#45;&gt;Node1</title>
<g id="a_edge1_Node000001_Node000002"><a xlink:title=" ">
<path fill="none" stroke="#63b8ff" d="M73.5,-85.57C73.5,-76.97 73.5,-68.09 73.5,-60.06"/>
<polygon fill="none" stroke="#63b8ff" points="70,-85.83 73.5,-95.83 77,-85.83 70,-85.83"/>
</a>
</g>
</g>
</g>
</svg>
