<?xml version="1.0" encoding="UTF-8" standalone="no"?>
<!DOCTYPE svg PUBLIC "-//W3C//DTD SVG 1.1//EN"
 "http://www.w3.org/Graphics/SVG/1.1/DTD/svg11.dtd">
<!-- Generated by graphviz version 14.1.2 (0)
 -->
<!-- Title: vanetza::dcc::NullRequestInterface Pages: 1 -->
<svg width="167pt" height="182pt"
 viewBox="0.00 0.00 167.00 182.00" xmlns="http://www.w3.org/2000/svg" xmlns:xlink="http://www.w3.org/1999/xlink">
<g id="graph0" class="graph" transform="scale(1 1) rotate(0) translate(4 178)">
<title>vanetza::dcc::NullRequestInterface</title>
<!-- Node1 -->
<g id="Node000001" class="node">
<title>Node1</title>
<g id="a_Node000001"><a xlink:title=" ">
<polygon fill="#999999" stroke="none" points="146.75,-67 12,-67 12,0 146.75,0 146.75,-67"/>
<text xml:space="preserve" text-anchor="start" x="16" y="-53.5" font-family="Helvetica,sans-Serif" font-size="10.00">vanetza::dcc::NullRequest</text>
<text xml:space="preserve" text-anchor="start" x="57.62" y="-40.75" font-family="Helvetica,sans-Serif" font-size="10.00">Interface</text>
<text xml:space="preserve" text-anchor="start" x="77.88" y="-24" font-family="Helvetica,sans-Serif" font-size="10.00"> </text>
<text xml:space="preserve" text-anchor="start" x="33.56" y="-7.25" font-family="Helvetica,sans-Serif" font-size="10.00">+</text>
<text xml:space="preserve" text-anchor="start" x="63.38" y="-7.25" font-family="Helvetica,sans-Serif" font-size="10.00">request()</text>
<polygon fill="#666666" stroke="#666666" points="12,-35.5 12,-35.5 146.75,-35.5 146.75,-35.5 12,-35.5"/>
<polygon fill="#666666" stroke="#666666" points="12,-18.75 12,-18.75 146.75,-18.75 146.75,-18.75 12,-18.75"/>
<polygon fill="none" stroke="#666666" points="12,0 12,-67 146.75,-67 146.75,0 12,0"/>
</a>
</g>
</g>
<!-- Node2 -->
<g id="Node000002" class="node">
<title>Node2</title>
<g id="a_Node000002"><a xlink:href="../../db/d5b/classvanetza_1_1dcc_1_1RequestInterface.html" target="_top" xlink:title=" ">
<polygon fill="white" stroke="none" points="158.75,-174 0,-174 0,-103 158.75,-103 158.75,-174"/>
<text xml:space="preserve" text-anchor="start" x="4" y="-160.5" font-family="Helvetica,sans-Serif" font-size="10.00">vanetza::dcc::RequestInterface</text>
<text xml:space="preserve" text-anchor="start" x="77.88" y="-143.75" font-family="Helvetica,sans-Serif" font-size="10.00"> </text>
<text xml:space="preserve" text-anchor="start" x="13.88" y="-127" font-family="Helvetica,sans-Serif" font-size="10.00">+</text>
<text xml:space="preserve" text-anchor="start" x="36" y="-127" font-family="Helvetica,sans-Serif" font-size="10.00">request()</text>
<text xml:space="preserve" text-anchor="start" x="13.88" y="-110.25" font-family="Helvetica,sans-Serif" font-size="10.00">+</text>
<text xml:space="preserve" text-anchor="start" x="36" y="-110.25" font-family="Helvetica,sans-Serif" font-size="10.00">~RequestInterface()</text>
<polygon fill="#666666" stroke="#666666" points="0,-155.25 0,-155.25 158.75,-155.25 158.75,-155.25 0,-155.25"/>
<polygon fill="#666666" stroke="#666666" points="0,-138.5 0,-138.5 158.75,-138.5 158.75,-138.5 0,-138.5"/>
<polygon fill="none" stroke="#666666" points="0,-103 0,-174 158.75,-174 158.75,-103 0,-103"/>
</a>
</g>
</g>
<!-- Node2&#45;&gt;Node1 -->
<g id="edge1_Node000001_Node000002" class="edge">
<title>Node2&#45;&gt;Node1</title>
<g id="a_edge1_Node000001_Node000002"><a xlink:title=" ">
<path fill="none" stroke="#63b8ff" d="M79.38,-91.92C79.38,-83.49 79.38,-74.85 79.38,-66.9"/>
<polygon fill="none" stroke="#63b8ff" points="75.88,-91.69 79.38,-101.69 82.88,-91.69 75.88,-91.69"/>
</a>
</g>
</g>
</g>
</svg>
