<?xml version="1.0" encoding="UTF-8" standalone="no"?>
<!DOCTYPE svg PUBLIC "-//W3C//DTD SVG 1.1//EN"
 "http://www.w3.org/Graphics/SVG/1.1/DTD/svg11.dtd">
<!-- Generated by graphviz version 14.1.2 (0)
 -->
<!-- Title: vanetza::geonet::DataRequest Pages: 1 -->
<!--zoomable 386 -->

<svg id="main" version="1.1" xmlns="http://www.w3.org/2000/svg" xmlns:xlink="http://www.w3.org/1999/xlink" xml:space="preserve" onload="init(evt)">

<style type="text/css"><![CDATA[
.node, .edge {opacity: 0.7;}
.node.selected, .edge.selected {opacity: 1;}
.edge:hover path { stroke: red; }
.edge:hover polygon { stroke: red; fill: red; }
]]></style>

<defs>
  <circle id="rim" cx="0" cy="0" r="7"/>
  <circle id="rim2" cx="0" cy="0" r="3.5"/>
  <g id="zoomPlus">
    <use xlink:href="#rim" fill="#404040"><set attributeName="fill" to="#808080" begin="zoomplus.mouseover" end="zoomplus.mouseout"/></use>
    <path d="M-4,0h8M0,-4v8" fill="none" stroke="white" stroke-width="1.5" pointer-events="none"/>
  </g>
  <g id="zoomMin">
    <use xlink:href="#rim" fill="#404040"><set attributeName="fill" to="#808080" begin="zoomminus.mouseover" end="zoomminus.mouseout"/></use>
    <path d="M-4,0h8" fill="none" stroke="white" stroke-width="1.5" pointer-events="none"/>
  </g>
  <g id="arrowUp" transform="translate(30 24)">
    <use xlink:href="#rim"/>
    <path pointer-events="none" fill="none" stroke="white" stroke-width="1.5" d="M0,-3.0v7 M-2.5,-0.5L0,-3.0L2.5,-0.5"/>
  </g>
  <g id="arrowRight" transform="rotate(90) translate(36 -43)">
    <use xlink:href="#rim"/>
    <path pointer-events="none" fill="none" stroke="white" stroke-width="1.5" d="M0,-3.0v7 M-2.5,-0.5L0,-3.0L2.5,-0.5"/>
  </g>
  <g id="arrowDown" transform="rotate(180) translate(-30 -48)">
    <use xlink:href="#rim"/>
    <path pointer-events="none" fill="none" stroke="white" stroke-width="1.5" d="M0,-3.0v7 M-2.5,-0.5L0,-3.0L2.5,-0.5"/>
  </g>
  <g id="arrowLeft" transform="rotate(270) translate(-36 17)">
    <use xlink:href="#rim"/>
    <path pointer-events="none" fill="none" stroke="white" stroke-width="1.5" d="M0,-3.0v7 M-2.5,-0.5L0,-3.0L2.5,-0.5"/>
  </g>
  <g id="resetDef">
    <use xlink:href="#rim2" fill="#404040"><set attributeName="fill" to="#808080" begin="reset.mouseover" end="reset.mouseout"/></use>
  </g>
</defs>
<script type="application/ecmascript">
var viewWidth = 640;
var viewHeight = 386;
var sectionId = 'dynsection-0';
</script>
<script type="application/ecmascript" xlink:href="../../svg.min.js"/>
<svg id="graph" class="graph">
<g id="viewport">
<title>vanetza::geonet::DataRequest</title>
<!-- Node1 -->
<g id="Node000001" class="node">
<title>Node1</title>
<g id="a_Node000001"><a xlink:title=" ">
<polygon fill="#999999" stroke="none" points="410.75,-377.5 255,-377.5 255,-206 410.75,-206 410.75,-377.5"/>
<text xml:space="preserve" text-anchor="start" x="259" y="-364" font-family="Helvetica,sans-Serif" font-size="10.00">vanetza::geonet::DataRequest</text>
<text xml:space="preserve" text-anchor="start" x="264.94" y="-347.25" font-family="Helvetica,sans-Serif" font-size="10.00">+</text>
<text xml:space="preserve" text-anchor="start" x="283.12" y="-347.25" font-family="Helvetica,sans-Serif" font-size="10.00">upper_protocol</text>
<text xml:space="preserve" text-anchor="start" x="264.94" y="-330.5" font-family="Helvetica,sans-Serif" font-size="10.00">+</text>
<text xml:space="preserve" text-anchor="start" x="283.12" y="-330.5" font-family="Helvetica,sans-Serif" font-size="10.00">communication_profile</text>
<text xml:space="preserve" text-anchor="start" x="264.94" y="-313.75" font-family="Helvetica,sans-Serif" font-size="10.00">+</text>
<text xml:space="preserve" text-anchor="start" x="283.12" y="-313.75" font-family="Helvetica,sans-Serif" font-size="10.00">its_aid</text>
<text xml:space="preserve" text-anchor="start" x="264.94" y="-297" font-family="Helvetica,sans-Serif" font-size="10.00">+</text>
<text xml:space="preserve" text-anchor="start" x="283.12" y="-297" font-family="Helvetica,sans-Serif" font-size="10.00">permissions</text>
<text xml:space="preserve" text-anchor="start" x="264.94" y="-280.25" font-family="Helvetica,sans-Serif" font-size="10.00">+</text>
<text xml:space="preserve" text-anchor="start" x="283.12" y="-280.25" font-family="Helvetica,sans-Serif" font-size="10.00">maximum_lifetime</text>
<text xml:space="preserve" text-anchor="start" x="264.94" y="-263.5" font-family="Helvetica,sans-Serif" font-size="10.00">+</text>
<text xml:space="preserve" text-anchor="start" x="283.12" y="-263.5" font-family="Helvetica,sans-Serif" font-size="10.00">repetition</text>
<text xml:space="preserve" text-anchor="start" x="264.94" y="-246.75" font-family="Helvetica,sans-Serif" font-size="10.00">+</text>
<text xml:space="preserve" text-anchor="start" x="283.12" y="-246.75" font-family="Helvetica,sans-Serif" font-size="10.00">max_hop_limit</text>
<text xml:space="preserve" text-anchor="start" x="264.94" y="-230" font-family="Helvetica,sans-Serif" font-size="10.00">+</text>
<text xml:space="preserve" text-anchor="start" x="283.12" y="-230" font-family="Helvetica,sans-Serif" font-size="10.00">traffic_class</text>
<text xml:space="preserve" text-anchor="start" x="264.94" y="-213.25" font-family="Helvetica,sans-Serif" font-size="10.00">+</text>
<text xml:space="preserve" text-anchor="start" x="283.12" y="-213.25" font-family="Helvetica,sans-Serif" font-size="10.00">DataRequest()</text>
<polygon fill="#666666" stroke="#666666" points="255,-358.75 255,-358.75 410.75,-358.75 410.75,-358.75 255,-358.75"/>
<polygon fill="#666666" stroke="#666666" points="255,-224.75 255,-224.75 281.12,-224.75 281.12,-224.75 255,-224.75"/>
<polygon fill="#666666" stroke="#666666" points="281.12,-224.75 281.12,-224.75 410.75,-224.75 410.75,-224.75 281.12,-224.75"/>
<polygon fill="none" stroke="#666666" points="255,-206 255,-377.5 410.75,-377.5 410.75,-206 255,-206"/>
</a>
</g>
</g>
<!-- Node2 -->
<g id="Node000002" class="node">
<title>Node2</title>
<g id="a_Node000002"><a xlink:href="../../d4/d96/structvanetza_1_1geonet_1_1DataRequestWithAddress.html" target="_top" xlink:title=" ">
<polygon fill="white" stroke="none" points="155.75,-170 0,-170 0,-103 155.75,-103 155.75,-170"/>
<text xml:space="preserve" text-anchor="start" x="4" y="-156.5" font-family="Helvetica,sans-Serif" font-size="10.00">vanetza::geonet::DataRequest</text>
<text xml:space="preserve" text-anchor="start" x="47.12" y="-143.75" font-family="Helvetica,sans-Serif" font-size="10.00">WithAddress</text>
<text xml:space="preserve" text-anchor="start" x="20.25" y="-127" font-family="Helvetica,sans-Serif" font-size="10.00">+</text>
<text xml:space="preserve" text-anchor="start" x="48.75" y="-127" font-family="Helvetica,sans-Serif" font-size="10.00">destination</text>
<text xml:space="preserve" text-anchor="start" x="20.25" y="-110.25" font-family="Helvetica,sans-Serif" font-size="10.00">+</text>
<text xml:space="preserve" text-anchor="start" x="48.75" y="-110.25" font-family="Helvetica,sans-Serif" font-size="10.00">DataRequest()</text>
<polygon fill="#bfbfbf" stroke="#bfbfbf" points="0,-138.5 0,-138.5 155.75,-138.5 155.75,-138.5 0,-138.5"/>
<polygon fill="#bfbfbf" stroke="#bfbfbf" points="0,-121.75 0,-121.75 46.75,-121.75 46.75,-121.75 0,-121.75"/>
<polygon fill="#bfbfbf" stroke="#bfbfbf" points="46.75,-121.75 46.75,-121.75 155.75,-121.75 155.75,-121.75 46.75,-121.75"/>
<polygon fill="none" stroke="#bfbfbf" points="0,-103 0,-170 155.75,-170 155.75,-103 0,-103"/>
</a>
</g>
</g>
<!-- Node1&#45;&gt;Node2 -->
<g id="edge1_Node000001_Node000002" class="edge">
<title>Node1&#45;&gt;Node2</title>
<g id="a_edge1_Node000001_Node000002"><a xlink:title=" ">
<path fill="none" stroke="#63b8ff" d="M245.82,-238.43C207.93,-215.66 164.73,-189.7 131.63,-169.8"/>
<polygon fill="none" stroke="#63b8ff" points="243.66,-241.21 254.03,-243.37 247.26,-235.22 243.66,-241.21"/>
</a>
</g>
</g>
<!-- Node4 -->
<g id="Node000004" class="node">
<title>Node4</title>
<g id="a_Node000004"><a xlink:href="../../d9/d1d/structvanetza_1_1geonet_1_1DataRequestWithArea.html" target="_top" xlink:title=" ">
<polygon fill="white" stroke="none" points="329.75,-170 174,-170 174,-103 329.75,-103 329.75,-170"/>
<text xml:space="preserve" text-anchor="start" x="178" y="-156.5" font-family="Helvetica,sans-Serif" font-size="10.00">vanetza::geonet::DataRequest</text>
<text xml:space="preserve" text-anchor="start" x="229.38" y="-143.75" font-family="Helvetica,sans-Serif" font-size="10.00">WithArea</text>
<text xml:space="preserve" text-anchor="start" x="194.25" y="-127" font-family="Helvetica,sans-Serif" font-size="10.00">+</text>
<text xml:space="preserve" text-anchor="start" x="222.75" y="-127" font-family="Helvetica,sans-Serif" font-size="10.00">destination</text>
<text xml:space="preserve" text-anchor="start" x="194.25" y="-110.25" font-family="Helvetica,sans-Serif" font-size="10.00">+</text>
<text xml:space="preserve" text-anchor="start" x="222.75" y="-110.25" font-family="Helvetica,sans-Serif" font-size="10.00">DataRequest()</text>
<polygon fill="#bfbfbf" stroke="#bfbfbf" points="174,-138.5 174,-138.5 329.75,-138.5 329.75,-138.5 174,-138.5"/>
<polygon fill="#bfbfbf" stroke="#bfbfbf" points="174,-121.75 174,-121.75 220.75,-121.75 220.75,-121.75 174,-121.75"/>
<polygon fill="#bfbfbf" stroke="#bfbfbf" points="220.75,-121.75 220.75,-121.75 329.75,-121.75 329.75,-121.75 220.75,-121.75"/>
<polygon fill="none" stroke="#bfbfbf" points="174,-103 174,-170 329.75,-170 329.75,-103 174,-103"/>
</a>
</g>
</g>
<!-- Node1&#45;&gt;Node4 -->
<g id="edge3_Node000001_Node000004" class="edge">
<title>Node1&#45;&gt;Node4</title>
<g id="a_edge3_Node000001_Node000004"><a xlink:title=" ">
<path fill="none" stroke="#63b8ff" d="M282.74,-195.89C277.84,-186.63 273.15,-177.75 268.96,-169.83"/>
<polygon fill="none" stroke="#63b8ff" points="279.64,-197.51 287.4,-204.72 285.82,-194.24 279.64,-197.51"/>
</a>
</g>
</g>
<!-- Node7 -->
<g id="Node000007" class="node">
<title>Node7</title>
<g id="a_Node000007"><a xlink:href="../../d0/d57/structvanetza_1_1geonet_1_1ShbDataRequest.html" target="_top" xlink:title=" ">
<polygon fill="white" stroke="none" points="481.88,-170 347.88,-170 347.88,-103 481.88,-103 481.88,-170"/>
<text xml:space="preserve" text-anchor="start" x="351.88" y="-156.5" font-family="Helvetica,sans-Serif" font-size="10.00">vanetza::geonet::ShbData</text>
<text xml:space="preserve" text-anchor="start" x="395" y="-143.75" font-family="Helvetica,sans-Serif" font-size="10.00">Request</text>
<text xml:space="preserve" text-anchor="start" x="413.38" y="-127" font-family="Helvetica,sans-Serif" font-size="10.00"> </text>
<text xml:space="preserve" text-anchor="start" x="362.69" y="-110.25" font-family="Helvetica,sans-Serif" font-size="10.00">+</text>
<text xml:space="preserve" text-anchor="start" x="385.75" y="-110.25" font-family="Helvetica,sans-Serif" font-size="10.00">DataRequest()</text>
<polygon fill="#bfbfbf" stroke="#bfbfbf" points="347.88,-138.5 347.88,-138.5 481.88,-138.5 481.88,-138.5 347.88,-138.5"/>
<polygon fill="#bfbfbf" stroke="#bfbfbf" points="347.88,-121.75 347.88,-121.75 481.88,-121.75 481.88,-121.75 347.88,-121.75"/>
<polygon fill="none" stroke="#bfbfbf" points="347.88,-103 347.88,-170 481.88,-170 481.88,-103 347.88,-103"/>
</a>
</g>
</g>
<!-- Node1&#45;&gt;Node7 -->
<g id="edge6_Node000001_Node000007" class="edge">
<title>Node1&#45;&gt;Node7</title>
<g id="a_edge6_Node000001_Node000007"><a xlink:title=" ">
<path fill="none" stroke="#63b8ff" d="M383.47,-196.18C388.49,-186.82 393.29,-177.83 397.58,-169.83"/>
<polygon fill="none" stroke="#63b8ff" points="380.54,-194.25 378.91,-204.72 386.71,-197.56 380.54,-194.25"/>
</a>
</g>
</g>
<!-- Node8 -->
<g id="Node000008" class="node">
<title>Node8</title>
<g id="a_Node000008"><a xlink:href="../../d4/d19/structvanetza_1_1geonet_1_1TsbDataRequest.html" target="_top" xlink:title=" ">
<polygon fill="white" stroke="none" points="631.75,-170 500,-170 500,-103 631.75,-103 631.75,-170"/>
<text xml:space="preserve" text-anchor="start" x="504" y="-156.5" font-family="Helvetica,sans-Serif" font-size="10.00">vanetza::geonet::TsbData</text>
<text xml:space="preserve" text-anchor="start" x="546" y="-143.75" font-family="Helvetica,sans-Serif" font-size="10.00">Request</text>
<text xml:space="preserve" text-anchor="start" x="564.38" y="-127" font-family="Helvetica,sans-Serif" font-size="10.00"> </text>
<text xml:space="preserve" text-anchor="start" x="514.25" y="-110.25" font-family="Helvetica,sans-Serif" font-size="10.00">+</text>
<text xml:space="preserve" text-anchor="start" x="536.75" y="-110.25" font-family="Helvetica,sans-Serif" font-size="10.00">DataRequest()</text>
<polygon fill="#bfbfbf" stroke="#bfbfbf" points="500,-138.5 500,-138.5 631.75,-138.5 631.75,-138.5 500,-138.5"/>
<polygon fill="#bfbfbf" stroke="#bfbfbf" points="500,-121.75 500,-121.75 631.75,-121.75 631.75,-121.75 500,-121.75"/>
<polygon fill="none" stroke="#bfbfbf" points="500,-103 500,-170 631.75,-170 631.75,-103 500,-103"/>
</a>
</g>
</g>
<!-- Node1&#45;&gt;Node8 -->
<g id="edge7_Node000001_Node000008" class="edge">
<title>Node1&#45;&gt;Node8</title>
<g id="a_edge7_Node000001_Node000008"><a xlink:title=" ">
<path fill="none" stroke="#63b8ff" d="M420.03,-233.42C452.72,-211.92 488.71,-188.25 516.76,-169.81"/>
<polygon fill="none" stroke="#63b8ff" points="418.16,-230.47 411.73,-238.89 422,-236.32 418.16,-230.47"/>
</a>
</g>
</g>
<!-- Node3 -->
<g id="Node000003" class="node">
<title>Node3</title>
<g id="a_Node000003"><a xlink:href="../../d0/db3/structvanetza_1_1geonet_1_1GucDataRequest.html" target="_top" xlink:title=" ">
<polygon fill="white" stroke="none" points="145.25,-67 10.5,-67 10.5,0 145.25,0 145.25,-67"/>
<text xml:space="preserve" text-anchor="start" x="14.5" y="-53.5" font-family="Helvetica,sans-Serif" font-size="10.00">vanetza::geonet::GucData</text>
<text xml:space="preserve" text-anchor="start" x="58" y="-40.75" font-family="Helvetica,sans-Serif" font-size="10.00">Request</text>
<text xml:space="preserve" text-anchor="start" x="76.38" y="-24" font-family="Helvetica,sans-Serif" font-size="10.00"> </text>
<text xml:space="preserve" text-anchor="start" x="76.38" y="-7.25" font-family="Helvetica,sans-Serif" font-size="10.00"> </text>
<polygon fill="#bfbfbf" stroke="#bfbfbf" points="10.5,-35.5 10.5,-35.5 145.25,-35.5 145.25,-35.5 10.5,-35.5"/>
<polygon fill="#bfbfbf" stroke="#bfbfbf" points="10.5,-18.75 10.5,-18.75 145.25,-18.75 145.25,-18.75 10.5,-18.75"/>
<polygon fill="none" stroke="#bfbfbf" points="10.5,0 10.5,-67 145.25,-67 145.25,0 10.5,0"/>
</a>
</g>
</g>
<!-- Node2&#45;&gt;Node3 -->
<g id="edge2_Node000002_Node000003" class="edge">
<title>Node2&#45;&gt;Node3</title>
<g id="a_edge2_Node000002_Node000003"><a xlink:title=" ">
<path fill="none" stroke="#63b8ff" d="M77.88,-91.98C77.88,-83.52 77.88,-74.79 77.88,-66.77"/>
<polygon fill="none" stroke="#63b8ff" points="74.38,-91.75 77.88,-101.75 81.38,-91.75 74.38,-91.75"/>
</a>
</g>
</g>
<!-- Node5 -->
<g id="Node000005" class="node">
<title>Node5</title>
<g id="a_Node000005"><a xlink:href="../../d7/d84/structvanetza_1_1geonet_1_1GacDataRequest.html" target="_top" xlink:title=" ">
<polygon fill="white" stroke="none" points="308.25,-67 173.5,-67 173.5,0 308.25,0 308.25,-67"/>
<text xml:space="preserve" text-anchor="start" x="177.5" y="-53.5" font-family="Helvetica,sans-Serif" font-size="10.00">vanetza::geonet::GacData</text>
<text xml:space="preserve" text-anchor="start" x="221" y="-40.75" font-family="Helvetica,sans-Serif" font-size="10.00">Request</text>
<text xml:space="preserve" text-anchor="start" x="239.38" y="-24" font-family="Helvetica,sans-Serif" font-size="10.00"> </text>
<text xml:space="preserve" text-anchor="start" x="239.38" y="-7.25" font-family="Helvetica,sans-Serif" font-size="10.00"> </text>
<polygon fill="#bfbfbf" stroke="#bfbfbf" points="173.5,-35.5 173.5,-35.5 308.25,-35.5 308.25,-35.5 173.5,-35.5"/>
<polygon fill="#bfbfbf" stroke="#bfbfbf" points="173.5,-18.75 173.5,-18.75 308.25,-18.75 308.25,-18.75 173.5,-18.75"/>
<polygon fill="none" stroke="#bfbfbf" points="173.5,0 173.5,-67 308.25,-67 308.25,0 173.5,0"/>
</a>
</g>
</g>
<!-- Node4&#45;&gt;Node5 -->
<g id="edge4_Node000004_Node000005" class="edge">
<title>Node4&#45;&gt;Node5</title>
<g id="a_edge4_Node000004_Node000005"><a xlink:title=" ">
<path fill="none" stroke="#63b8ff" d="M247.14,-91.98C246.21,-83.52 245.26,-74.79 244.39,-66.77"/>
<polygon fill="none" stroke="#63b8ff" points="243.64,-92.2 248.2,-101.76 250.6,-91.44 243.64,-92.2"/>
</a>
</g>
</g>
<!-- Node6 -->
<g id="Node000006" class="node">
<title>Node6</title>
<g id="a_Node000006"><a xlink:href="../../de/d7b/structvanetza_1_1geonet_1_1GbcDataRequest.html" target="_top" xlink:title=" ">
<polygon fill="white" stroke="none" points="461.25,-67 326.5,-67 326.5,0 461.25,0 461.25,-67"/>
<text xml:space="preserve" text-anchor="start" x="330.5" y="-53.5" font-family="Helvetica,sans-Serif" font-size="10.00">vanetza::geonet::GbcData</text>
<text xml:space="preserve" text-anchor="start" x="374" y="-40.75" font-family="Helvetica,sans-Serif" font-size="10.00">Request</text>
<text xml:space="preserve" text-anchor="start" x="392.38" y="-24" font-family="Helvetica,sans-Serif" font-size="10.00"> </text>
<text xml:space="preserve" text-anchor="start" x="392.38" y="-7.25" font-family="Helvetica,sans-Serif" font-size="10.00"> </text>
<polygon fill="#bfbfbf" stroke="#bfbfbf" points="326.5,-35.5 326.5,-35.5 461.25,-35.5 461.25,-35.5 326.5,-35.5"/>
<polygon fill="#bfbfbf" stroke="#bfbfbf" points="326.5,-18.75 326.5,-18.75 461.25,-18.75 461.25,-18.75 326.5,-18.75"/>
<polygon fill="none" stroke="#bfbfbf" points="326.5,0 326.5,-67 461.25,-67 461.25,0 326.5,0"/>
</a>
</g>
</g>
<!-- Node4&#45;&gt;Node6 -->
<g id="edge5_Node000004_Node000006" class="edge">
<title>Node4&#45;&gt;Node6</title>
<g id="a_edge5_Node000004_Node000006"><a xlink:title=" ">
<path fill="none" stroke="#63b8ff" d="M306.21,-96.85C320.17,-86.92 335.04,-76.34 348.5,-66.77"/>
<polygon fill="none" stroke="#63b8ff" points="304.55,-93.74 298.43,-102.39 308.61,-99.44 304.55,-93.74"/>
</a>
</g>
</g>
</g>
</svg>

<g id="navigator" transform="translate(0 0)" fill="#404254">
  <rect fill="#f2f5e9" fill-opacity="0.5" stroke="#606060" stroke-width=".5" x="0" y="0" width="60" height="60"/>
  <use id="zoomplus" xlink:href="#zoomPlus" x="17" y="9" onmousedown="handleZoom(evt,'in')"/>
  <use id="zoomminus" xlink:href="#zoomMin" x="42" y="9" onmousedown="handleZoom(evt,'out')"/>
  <use id="reset" xlink:href="#resetDef" x="30" y="36" onmousedown="handleReset()"/>
   <use id="arrowup" xlink:href="#arrowUp" x="0" y="0" onmousedown="handlePan(0,-1)"/>
  <use id="arrowright" xlink:href="#arrowRight" x="0" y="0" onmousedown="handlePan(1,0)"/>
  <use id="arrowdown" xlink:href="#arrowDown" x="0" y="0" onmousedown="handlePan(0,1)"/>
  <use id="arrowleft" xlink:href="#arrowLeft" x="0" y="0" onmousedown="handlePan(-1,0)"/>
</g>
<svg viewBox="0 0 15 15" width="100%" height="30px" preserveAspectRatio="xMaxYMin meet">
 <g id="arrow_out" transform="scale(0.3 0.3)">
  <a xlink:href="structvanetza_1_1geonet_1_1DataRequest__inherit__graph_org.svg" target="_base">
   <rect id="button" ry="5" rx="5" y="6" x="6" height="38" width="38"
        fill="#f2f5e9" fill-opacity="0.5" stroke="#606060" stroke-width="1.0"/>
   <path id="arrow"
     d="M 11.500037,31.436501 C 11.940474,20.09759 22.043105,11.32322 32.158766,21.979434 L 37.068811,17.246167 C 37.068811,17.246167 37.088388,32 37.088388,32 L 22.160133,31.978069 C 22.160133,31.978069 26.997745,27.140456 26.997745,27.140456 C 18.528582,18.264221 13.291696,25.230495 11.500037,31.436501 z"
     style="fill:#404040;"/>
  </a>
 </g>
</svg>

<style type='text/css'>
<![CDATA[
[data-mouse-over-selected='false'] { opacity: 0.7; }
[data-mouse-over-selected='true']  { opacity: 1.0; }
]]>
</style>
<script type="application/ecmascript"><![CDATA[
document.addEventListener('DOMContentLoaded', (event) => {
  highlightEdges();
  highlightAdjacentNodes();
});
]]></script>
</svg>
