<?xml version="1.0" encoding="UTF-8" standalone="no"?>
<!DOCTYPE svg PUBLIC "-//W3C//DTD SVG 1.1//EN"
 "http://www.w3.org/Graphics/SVG/1.1/DTD/svg11.dtd">
<!-- Generated by graphviz version 2.49.3 (0)
 -->
<!-- Title: vanetza::geonet::DataRequest Pages: 1 -->
<svg width="592pt" height="354pt"
 viewBox="0.00 0.00 592.00 354.00" xmlns="http://www.w3.org/2000/svg" xmlns:xlink="http://www.w3.org/1999/xlink">
<g id="graph0" class="graph" transform="scale(1 1) rotate(0) translate(4 350)">
<title>vanetza::geonet::DataRequest</title>
<!-- Node1 -->
<g id="Node000001" class="node">
<title>Node1</title>
<g id="a_Node000001"><a xlink:title=" ">
<polygon fill="#999999" stroke="transparent" points="377,-346 235,-346 235,-192 377,-192 377,-346"/>
<text text-anchor="start" x="240" y="-334" font-family="Helvetica,sans-Serif" font-size="10.00">vanetza::geonet::DataRequest</text>
<text text-anchor="start" x="245" y="-319" font-family="Helvetica,sans-Serif" font-size="10.00">+</text>
<text text-anchor="start" x="262" y="-319" font-family="Helvetica,sans-Serif" font-size="10.00">upper_protocol</text>
<text text-anchor="start" x="245" y="-304" font-family="Helvetica,sans-Serif" font-size="10.00">+</text>
<text text-anchor="start" x="262" y="-304" font-family="Helvetica,sans-Serif" font-size="10.00">communication_profile</text>
<text text-anchor="start" x="245" y="-289" font-family="Helvetica,sans-Serif" font-size="10.00">+</text>
<text text-anchor="start" x="262" y="-289" font-family="Helvetica,sans-Serif" font-size="10.00">its_aid</text>
<text text-anchor="start" x="245" y="-274" font-family="Helvetica,sans-Serif" font-size="10.00">+</text>
<text text-anchor="start" x="262" y="-274" font-family="Helvetica,sans-Serif" font-size="10.00">permissions</text>
<text text-anchor="start" x="245" y="-259" font-family="Helvetica,sans-Serif" font-size="10.00">+</text>
<text text-anchor="start" x="262" y="-259" font-family="Helvetica,sans-Serif" font-size="10.00">maximum_lifetime</text>
<text text-anchor="start" x="245" y="-244" font-family="Helvetica,sans-Serif" font-size="10.00">+</text>
<text text-anchor="start" x="262" y="-244" font-family="Helvetica,sans-Serif" font-size="10.00">repetition</text>
<text text-anchor="start" x="245" y="-229" font-family="Helvetica,sans-Serif" font-size="10.00">+</text>
<text text-anchor="start" x="262" y="-229" font-family="Helvetica,sans-Serif" font-size="10.00">max_hop_limit</text>
<text text-anchor="start" x="245" y="-214" font-family="Helvetica,sans-Serif" font-size="10.00">+</text>
<text text-anchor="start" x="262" y="-214" font-family="Helvetica,sans-Serif" font-size="10.00">traffic_class</text>
<text text-anchor="start" x="245" y="-199" font-family="Helvetica,sans-Serif" font-size="10.00">+</text>
<text text-anchor="start" x="262" y="-199" font-family="Helvetica,sans-Serif" font-size="10.00">DataRequest()</text>
<polygon fill="#666666" stroke="#666666" points="235,-329 235,-329 377,-329 377,-329 235,-329"/>
<polygon fill="#666666" stroke="#666666" points="235,-209 235,-209 260,-209 260,-209 235,-209"/>
<polygon fill="#666666" stroke="#666666" points="260,-209 260,-209 377,-209 377,-209 260,-209"/>
<polygon fill="none" stroke="#666666" points="235,-192 235,-346 377,-346 377,-192 235,-192"/>
</a>
</g>
</g>
<!-- Node2 -->
<g id="Node000002" class="node">
<title>Node2</title>
<g id="a_Node000002"><a xlink:href="../../d4/d96/structvanetza_1_1geonet_1_1DataRequestWithAddress.html" target="_top" xlink:title=" ">
<polygon fill="white" stroke="transparent" points="142,-156 0,-156 0,-96 142,-96 142,-156"/>
<text text-anchor="start" x="5" y="-144" font-family="Helvetica,sans-Serif" font-size="10.00">vanetza::geonet::DataRequest</text>
<text text-anchor="start" x="42.5" y="-133" font-family="Helvetica,sans-Serif" font-size="10.00">WithAddress</text>
<text text-anchor="start" x="18.5" y="-118" font-family="Helvetica,sans-Serif" font-size="10.00">+</text>
<text text-anchor="start" x="44" y="-118" font-family="Helvetica,sans-Serif" font-size="10.00">destination</text>
<text text-anchor="start" x="18.5" y="-103" font-family="Helvetica,sans-Serif" font-size="10.00">+</text>
<text text-anchor="start" x="44" y="-103" font-family="Helvetica,sans-Serif" font-size="10.00">DataRequest()</text>
<polygon fill="#bfbfbf" stroke="#bfbfbf" points="0,-128 0,-128 142,-128 142,-128 0,-128"/>
<polygon fill="#bfbfbf" stroke="#bfbfbf" points="0,-113 0,-113 42,-113 42,-113 0,-113"/>
<polygon fill="#bfbfbf" stroke="#bfbfbf" points="42,-113 42,-113 142,-113 142,-113 42,-113"/>
<polygon fill="none" stroke="#bfbfbf" points="0,-96 0,-156 142,-156 142,-96 0,-96"/>
</a>
</g>
</g>
<!-- Node1&#45;&gt;Node2 -->
<g id="edge1_Node000001_Node000002" class="edge">
<title>Node1&#45;&gt;Node2</title>
<g id="a_edge1_Node000001_Node000002"><a xlink:title=" ">
<path fill="none" stroke="#63b8ff" d="M225.99,-219.99C190.65,-198.79 150.27,-174.56 119.58,-156.15"/>
<polygon fill="none" stroke="#63b8ff" points="224.48,-223.17 234.85,-225.31 228.08,-217.17 224.48,-223.17"/>
</a>
</g>
</g>
<!-- Node4 -->
<g id="Node000004" class="node">
<title>Node4</title>
<g id="a_Node000004"><a xlink:href="../../d9/d1d/structvanetza_1_1geonet_1_1DataRequestWithArea.html" target="_top" xlink:title=" ">
<polygon fill="white" stroke="transparent" points="302,-156 160,-156 160,-96 302,-96 302,-156"/>
<text text-anchor="start" x="165" y="-144" font-family="Helvetica,sans-Serif" font-size="10.00">vanetza::geonet::DataRequest</text>
<text text-anchor="start" x="210.5" y="-133" font-family="Helvetica,sans-Serif" font-size="10.00">WithArea</text>
<text text-anchor="start" x="178.5" y="-118" font-family="Helvetica,sans-Serif" font-size="10.00">+</text>
<text text-anchor="start" x="204" y="-118" font-family="Helvetica,sans-Serif" font-size="10.00">destination</text>
<text text-anchor="start" x="178.5" y="-103" font-family="Helvetica,sans-Serif" font-size="10.00">+</text>
<text text-anchor="start" x="204" y="-103" font-family="Helvetica,sans-Serif" font-size="10.00">DataRequest()</text>
<polygon fill="#bfbfbf" stroke="#bfbfbf" points="160,-128 160,-128 302,-128 302,-128 160,-128"/>
<polygon fill="#bfbfbf" stroke="#bfbfbf" points="160,-113 160,-113 202,-113 202,-113 160,-113"/>
<polygon fill="#bfbfbf" stroke="#bfbfbf" points="202,-113 202,-113 302,-113 302,-113 202,-113"/>
<polygon fill="none" stroke="#bfbfbf" points="160,-96 160,-156 302,-156 302,-96 160,-96"/>
</a>
</g>
</g>
<!-- Node1&#45;&gt;Node4 -->
<g id="edge3_Node000001_Node000004" class="edge">
<title>Node1&#45;&gt;Node4</title>
<g id="a_edge3_Node000001_Node000004"><a xlink:title=" ">
<path fill="none" stroke="#63b8ff" d="M260.6,-182.64C255.61,-173.27 250.82,-164.26 246.6,-156.32"/>
<polygon fill="none" stroke="#63b8ff" points="257.64,-184.54 265.43,-191.72 263.82,-181.25 257.64,-184.54"/>
</a>
</g>
</g>
<!-- Node7 -->
<g id="Node000007" class="node">
<title>Node7</title>
<g id="a_Node000007"><a xlink:href="../../d0/d57/structvanetza_1_1geonet_1_1ShbDataRequest.html" target="_top" xlink:title=" ">
<polygon fill="white" stroke="transparent" points="443.5,-156 320.5,-156 320.5,-96 443.5,-96 443.5,-156"/>
<text text-anchor="start" x="326" y="-144" font-family="Helvetica,sans-Serif" font-size="10.00">vanetza::geonet::ShbData</text>
<text text-anchor="start" x="364" y="-133" font-family="Helvetica,sans-Serif" font-size="10.00">Request</text>
<text text-anchor="start" x="380.5" y="-118" font-family="Helvetica,sans-Serif" font-size="10.00"> </text>
<text text-anchor="start" x="335" y="-103" font-family="Helvetica,sans-Serif" font-size="10.00">+</text>
<text text-anchor="start" x="356" y="-103" font-family="Helvetica,sans-Serif" font-size="10.00">DataRequest()</text>
<polygon fill="#bfbfbf" stroke="#bfbfbf" points="321,-128 321,-128 444,-128 444,-128 321,-128"/>
<polygon fill="#bfbfbf" stroke="#bfbfbf" points="321,-113 321,-113 444,-113 444,-113 321,-113"/>
<polygon fill="none" stroke="#bfbfbf" points="320.5,-96 320.5,-156 443.5,-156 443.5,-96 320.5,-96"/>
</a>
</g>
</g>
<!-- Node1&#45;&gt;Node7 -->
<g id="edge6_Node000001_Node000007" class="edge">
<title>Node1&#45;&gt;Node7</title>
<g id="a_edge6_Node000001_Node000007"><a xlink:title=" ">
<path fill="none" stroke="#63b8ff" d="M352.01,-182.64C357.06,-173.27 361.92,-164.26 366.2,-156.32"/>
<polygon fill="none" stroke="#63b8ff" points="348.78,-181.26 347.11,-191.72 354.94,-184.58 348.78,-181.26"/>
</a>
</g>
</g>
<!-- Node8 -->
<g id="Node000008" class="node">
<title>Node8</title>
<g id="a_Node000008"><a xlink:href="../../d4/d19/structvanetza_1_1geonet_1_1TsbDataRequest.html" target="_top" xlink:title=" ">
<polygon fill="white" stroke="transparent" points="584,-156 462,-156 462,-96 584,-96 584,-156"/>
<text text-anchor="start" x="467" y="-144" font-family="Helvetica,sans-Serif" font-size="10.00">vanetza::geonet::TsbData</text>
<text text-anchor="start" x="504.5" y="-133" font-family="Helvetica,sans-Serif" font-size="10.00">Request</text>
<text text-anchor="start" x="521" y="-118" font-family="Helvetica,sans-Serif" font-size="10.00"> </text>
<text text-anchor="start" x="475.5" y="-103" font-family="Helvetica,sans-Serif" font-size="10.00">+</text>
<text text-anchor="start" x="496" y="-103" font-family="Helvetica,sans-Serif" font-size="10.00">DataRequest()</text>
<polygon fill="#bfbfbf" stroke="#bfbfbf" points="462,-128 462,-128 584,-128 584,-128 462,-128"/>
<polygon fill="#bfbfbf" stroke="#bfbfbf" points="462,-113 462,-113 584,-113 584,-113 462,-113"/>
<polygon fill="none" stroke="#bfbfbf" points="462,-96 462,-156 584,-156 584,-96 462,-96"/>
</a>
</g>
</g>
<!-- Node1&#45;&gt;Node8 -->
<g id="edge7_Node000001_Node000008" class="edge">
<title>Node1&#45;&gt;Node8</title>
<g id="a_edge7_Node000001_Node000008"><a xlink:title=" ">
<path fill="none" stroke="#63b8ff" d="M385.74,-216.19C416.87,-195.96 451.41,-173.52 478.05,-156.21"/>
<polygon fill="none" stroke="#63b8ff" points="383.53,-213.45 377.05,-221.83 387.35,-219.32 383.53,-213.45"/>
</a>
</g>
</g>
<!-- Node3 -->
<g id="Node000003" class="node">
<title>Node3</title>
<g id="a_Node000003"><a xlink:href="../../d0/db3/structvanetza_1_1geonet_1_1GucDataRequest.html" target="_top" xlink:title=" ">
<polygon fill="white" stroke="transparent" points="133,-60 9,-60 9,0 133,0 133,-60"/>
<text text-anchor="start" x="14" y="-48" font-family="Helvetica,sans-Serif" font-size="10.00">vanetza::geonet::GucData</text>
<text text-anchor="start" x="52.5" y="-37" font-family="Helvetica,sans-Serif" font-size="10.00">Request</text>
<text text-anchor="start" x="69" y="-22" font-family="Helvetica,sans-Serif" font-size="10.00"> </text>
<text text-anchor="start" x="69" y="-7" font-family="Helvetica,sans-Serif" font-size="10.00"> </text>
<polygon fill="#bfbfbf" stroke="#bfbfbf" points="9,-32 9,-32 133,-32 133,-32 9,-32"/>
<polygon fill="#bfbfbf" stroke="#bfbfbf" points="9,-17 9,-17 133,-17 133,-17 9,-17"/>
<polygon fill="none" stroke="#bfbfbf" points="9,0 9,-60 133,-60 133,0 9,0"/>
</a>
</g>
</g>
<!-- Node2&#45;&gt;Node3 -->
<g id="edge2_Node000002_Node000003" class="edge">
<title>Node2&#45;&gt;Node3</title>
<g id="a_edge2_Node000002_Node000003"><a xlink:title=" ">
<path fill="none" stroke="#63b8ff" d="M71,-85.63C71,-77.11 71,-68.25 71,-60.21"/>
<polygon fill="none" stroke="#63b8ff" points="67.5,-85.77 71,-95.77 74.5,-85.77 67.5,-85.77"/>
</a>
</g>
</g>
<!-- Node5 -->
<g id="Node000005" class="node">
<title>Node5</title>
<g id="a_Node000005"><a xlink:href="../../d7/d84/structvanetza_1_1geonet_1_1GacDataRequest.html" target="_top" xlink:title=" ">
<polygon fill="white" stroke="transparent" points="284,-60 160,-60 160,0 284,0 284,-60"/>
<text text-anchor="start" x="165" y="-48" font-family="Helvetica,sans-Serif" font-size="10.00">vanetza::geonet::GacData</text>
<text text-anchor="start" x="203.5" y="-37" font-family="Helvetica,sans-Serif" font-size="10.00">Request</text>
<text text-anchor="start" x="220" y="-22" font-family="Helvetica,sans-Serif" font-size="10.00"> </text>
<text text-anchor="start" x="220" y="-7" font-family="Helvetica,sans-Serif" font-size="10.00"> </text>
<polygon fill="#bfbfbf" stroke="#bfbfbf" points="160,-32 160,-32 284,-32 284,-32 160,-32"/>
<polygon fill="#bfbfbf" stroke="#bfbfbf" points="160,-17 160,-17 284,-17 284,-17 160,-17"/>
<polygon fill="none" stroke="#bfbfbf" points="160,0 160,-60 284,-60 284,0 160,0"/>
</a>
</g>
</g>
<!-- Node4&#45;&gt;Node5 -->
<g id="edge4_Node000004_Node000005" class="edge">
<title>Node4&#45;&gt;Node5</title>
<g id="a_edge4_Node000004_Node000005"><a xlink:title=" ">
<path fill="none" stroke="#63b8ff" d="M227.23,-85.63C226.42,-77.11 225.57,-68.25 224.8,-60.21"/>
<polygon fill="none" stroke="#63b8ff" points="223.76,-86.15 228.2,-95.77 230.73,-85.48 223.76,-86.15"/>
</a>
</g>
</g>
<!-- Node6 -->
<g id="Node000006" class="node">
<title>Node6</title>
<g id="a_Node000006"><a xlink:href="../../de/d7b/structvanetza_1_1geonet_1_1GbcDataRequest.html" target="_top" xlink:title=" ">
<polygon fill="white" stroke="transparent" points="426,-60 302,-60 302,0 426,0 426,-60"/>
<text text-anchor="start" x="307" y="-48" font-family="Helvetica,sans-Serif" font-size="10.00">vanetza::geonet::GbcData</text>
<text text-anchor="start" x="345.5" y="-37" font-family="Helvetica,sans-Serif" font-size="10.00">Request</text>
<text text-anchor="start" x="362" y="-22" font-family="Helvetica,sans-Serif" font-size="10.00"> </text>
<text text-anchor="start" x="362" y="-7" font-family="Helvetica,sans-Serif" font-size="10.00"> </text>
<polygon fill="#bfbfbf" stroke="#bfbfbf" points="302,-32 302,-32 426,-32 426,-32 302,-32"/>
<polygon fill="#bfbfbf" stroke="#bfbfbf" points="302,-17 302,-17 426,-17 426,-17 302,-17"/>
<polygon fill="none" stroke="#bfbfbf" points="302,0 302,-60 426,-60 426,0 302,0"/>
</a>
</g>
</g>
<!-- Node4&#45;&gt;Node6 -->
<g id="edge5_Node000004_Node000006" class="edge">
<title>Node4&#45;&gt;Node6</title>
<g id="a_edge5_Node000004_Node000006"><a xlink:title=" ">
<path fill="none" stroke="#63b8ff" d="M280.79,-89.81C294.59,-80.06 309.41,-69.58 322.67,-60.21"/>
<polygon fill="none" stroke="#63b8ff" points="278.5,-87.14 272.35,-95.77 282.54,-92.86 278.5,-87.14"/>
</a>
</g>
</g>
</g>
</svg>
