<?xml version="1.0" encoding="UTF-8" standalone="no"?>
<!DOCTYPE svg PUBLIC "-//W3C//DTD SVG 1.1//EN"
 "http://www.w3.org/Graphics/SVG/1.1/DTD/svg11.dtd">
<!-- Generated by graphviz version 2.42.1 (0)
 -->
<!-- Title: vanetza::byte_view_range Pages: 1 -->
<svg width="154pt" height="215pt"
 viewBox="0.00 0.00 154.00 215.00" xmlns="http://www.w3.org/2000/svg" xmlns:xlink="http://www.w3.org/1999/xlink">
<g id="graph0" class="graph" transform="scale(1 1) rotate(0) translate(4 211)">
<title>vanetza::byte_view_range</title>
<polygon fill="white" stroke="transparent" points="-4,4 -4,-211 150,-211 150,4 -4,4"/>
<!-- Node0 -->
<g id="node1" class="node">
<title>Node0</title>
<g id="a_node1"><a xlink:title=" ">
<polygon fill="#bfbfbf" stroke="black" points="20.5,-0.5 20.5,-101.5 125.5,-101.5 125.5,-0.5 20.5,-0.5"/>
<text text-anchor="start" x="28.5" y="-89.5" font-family="Helvetica,sans-Serif" font-size="10.00">vanetza::byte_view</text>
<text text-anchor="middle" x="73" y="-78.5" font-family="Helvetica,sans-Serif" font-size="10.00">_range</text>
<polyline fill="none" stroke="black" points="20.5,-71.5 125.5,-71.5 "/>
<text text-anchor="start" x="28.5" y="-59.5" font-family="Helvetica,sans-Serif" font-size="10.00">&#45; buffer</text>
<polyline fill="none" stroke="black" points="20.5,-52.5 125.5,-52.5 "/>
<text text-anchor="start" x="28.5" y="-40.5" font-family="Helvetica,sans-Serif" font-size="10.00">+ byte_view_range()</text>
<text text-anchor="start" x="28.5" y="-29.5" font-family="Helvetica,sans-Serif" font-size="10.00">+ byte_view_range()</text>
<text text-anchor="start" x="28.5" y="-18.5" font-family="Helvetica,sans-Serif" font-size="10.00">+ data()</text>
<text text-anchor="start" x="28.5" y="-7.5" font-family="Helvetica,sans-Serif" font-size="10.00">+ operator[]()</text>
</a>
</g>
</g>
<!-- Node1 -->
<g id="node2" class="node">
<title>Node1</title>
<g id="a_node2"><a xlink:title=" ">
<polygon fill="white" stroke="#bfbfbf" points="0,-138.5 0,-206.5 146,-206.5 146,-138.5 0,-138.5"/>
<text text-anchor="start" x="8" y="-194.5" font-family="Helvetica,sans-Serif" font-size="10.00">boost::iterator_range</text>
<text text-anchor="middle" x="73" y="-183.5" font-family="Helvetica,sans-Serif" font-size="10.00">&lt; ByteBuffer::const_iterator &gt;</text>
<polyline fill="none" stroke="#bfbfbf" points="0,-176.5 146,-176.5 "/>
<text text-anchor="middle" x="73" y="-164.5" font-family="Helvetica,sans-Serif" font-size="10.00"> </text>
<polyline fill="none" stroke="#bfbfbf" points="0,-157.5 146,-157.5 "/>
<text text-anchor="middle" x="73" y="-145.5" font-family="Helvetica,sans-Serif" font-size="10.00"> </text>
</a>
</g>
</g>
<!-- Node1&#45;&gt;Node0 -->
<g id="edge1" class="edge">
<title>Node1&#45;&gt;Node0</title>
<path fill="none" stroke="#8b1a1a" d="M73,-128.05C73,-119.47 73,-110.41 73,-101.65"/>
<polygon fill="none" stroke="#8b1a1a" points="69.5,-128.21 73,-138.21 76.5,-128.21 69.5,-128.21"/>
</g>
</g>
</svg>
