<?xml version="1.0" encoding="UTF-8" standalone="no"?>
<!DOCTYPE svg PUBLIC "-//W3C//DTD SVG 1.1//EN"
 "http://www.w3.org/Graphics/SVG/1.1/DTD/svg11.dtd">
<!-- Generated by graphviz version 14.1.2 (0)
 -->
<!-- Title: vanetza::byte_view_range Pages: 1 -->
<svg width="130pt" height="245pt"
 viewBox="0.00 0.00 130.00 245.00" xmlns="http://www.w3.org/2000/svg" xmlns:xlink="http://www.w3.org/1999/xlink">

<svg id="main" version="1.1" xmlns="http://www.w3.org/2000/svg" xmlns:xlink="http://www.w3.org/1999/xlink" xml:space="preserve">

<style type="text/css"><![CDATA[
.node, .edge {opacity: 0.7;}
.node.selected, .edge.selected {opacity: 1;}
.edge:hover path { stroke: red; }
.edge:hover polygon { stroke: red; fill: red; }
]]></style>
<script type="application/ecmascript" xlink:href="../../svg.min.js"/>
<svg id="graph" class="graph">
<g id="graph0" class="graph" transform="scale(1 1) rotate(0) translate(4 241)">
<title>vanetza::byte_view_range</title>
<!-- Node1 -->
<g id="Node000001" class="node">
<title>Node1</title>
<g id="a_Node000001"><a xlink:title=" ">
<polygon fill="#999999" stroke="none" points="116.5,-134 5.5,-134 5.5,0 116.5,0 116.5,-134"/>
<text xml:space="preserve" text-anchor="start" x="13.38" y="-120.5" font-family="Helvetica,sans-Serif" font-size="10.00">vanetza::byte_view</text>
<text xml:space="preserve" text-anchor="start" x="44.5" y="-107.75" font-family="Helvetica,sans-Serif" font-size="10.00">_range</text>
<text xml:space="preserve" text-anchor="start" x="11.75" y="-91" font-family="Helvetica,sans-Serif" font-size="10.00">&#45;</text>
<text xml:space="preserve" text-anchor="start" x="21.75" y="-91" font-family="Helvetica,sans-Serif" font-size="10.00">buffer</text>
<text xml:space="preserve" text-anchor="start" x="9.5" y="-74.25" font-family="Helvetica,sans-Serif" font-size="10.00">+</text>
<text xml:space="preserve" text-anchor="start" x="21.75" y="-74.25" font-family="Helvetica,sans-Serif" font-size="10.00">byte_view_range()</text>
<text xml:space="preserve" text-anchor="start" x="9.5" y="-57.5" font-family="Helvetica,sans-Serif" font-size="10.00">+</text>
<text xml:space="preserve" text-anchor="start" x="21.75" y="-57.5" font-family="Helvetica,sans-Serif" font-size="10.00">byte_view_range()</text>
<text xml:space="preserve" text-anchor="start" x="9.5" y="-40.75" font-family="Helvetica,sans-Serif" font-size="10.00">+</text>
<text xml:space="preserve" text-anchor="start" x="21.75" y="-40.75" font-family="Helvetica,sans-Serif" font-size="10.00">byte_view_range()</text>
<text xml:space="preserve" text-anchor="start" x="9.5" y="-24" font-family="Helvetica,sans-Serif" font-size="10.00">+</text>
<text xml:space="preserve" text-anchor="start" x="21.75" y="-24" font-family="Helvetica,sans-Serif" font-size="10.00">data()</text>
<text xml:space="preserve" text-anchor="start" x="9.5" y="-7.25" font-family="Helvetica,sans-Serif" font-size="10.00">+</text>
<text xml:space="preserve" text-anchor="start" x="21.75" y="-7.25" font-family="Helvetica,sans-Serif" font-size="10.00">operator[]()</text>
<polygon fill="#666666" stroke="#666666" points="5.5,-102.5 5.5,-102.5 116.5,-102.5 116.5,-102.5 5.5,-102.5"/>
<polygon fill="#666666" stroke="#666666" points="5.5,-85.75 5.5,-85.75 19.75,-85.75 19.75,-85.75 5.5,-85.75"/>
<polygon fill="#666666" stroke="#666666" points="19.75,-85.75 19.75,-85.75 116.5,-85.75 116.5,-85.75 19.75,-85.75"/>
<polygon fill="none" stroke="#666666" points="5.5,0 5.5,-134 116.5,-134 116.5,0 5.5,0"/>
</a>
</g>
</g>
<!-- Node2 -->
<g id="Node000002" class="node">
<title>Node2</title>
<g id="a_Node000002"><a xlink:title=" ">
<polygon fill="white" stroke="none" points="122,-237 0,-237 0,-170 122,-170 122,-237"/>
<text xml:space="preserve" text-anchor="start" x="4" y="-223.5" font-family="Helvetica,sans-Serif" font-size="10.00">boost::iterator_range</text>
<text xml:space="preserve" text-anchor="start" x="4" y="-210.75" font-family="Helvetica,sans-Serif" font-size="10.00">&lt; byte_view_iterator &gt;</text>
<text xml:space="preserve" text-anchor="start" x="59.5" y="-194" font-family="Helvetica,sans-Serif" font-size="10.00"> </text>
<text xml:space="preserve" text-anchor="start" x="59.5" y="-177.25" font-family="Helvetica,sans-Serif" font-size="10.00"> </text>
<polygon fill="#bfbfbf" stroke="#bfbfbf" points="0,-205.5 0,-205.5 122,-205.5 122,-205.5 0,-205.5"/>
<polygon fill="#bfbfbf" stroke="#bfbfbf" points="0,-188.75 0,-188.75 122,-188.75 122,-188.75 0,-188.75"/>
<polygon fill="none" stroke="#bfbfbf" points="0,-170 0,-237 122,-237 122,-170 0,-170"/>
</a>
</g>
</g>
<!-- Node2&#45;&gt;Node1 -->
<g id="edge1_Node000001_Node000002" class="edge">
<title>Node2&#45;&gt;Node1</title>
<g id="a_edge1_Node000001_Node000002"><a xlink:title=" ">
<path fill="none" stroke="#8b1a1a" d="M61,-158.92C61,-150.87 61,-142.3 61,-133.76"/>
<polygon fill="none" stroke="#8b1a1a" points="57.5,-158.77 61,-168.77 64.5,-158.77 57.5,-158.77"/>
</a>
</g>
</g>
</g>
</svg>
</svg>

<style type='text/css'>
<![CDATA[
[data-mouse-over-selected='false'] { opacity: 0.7; }
[data-mouse-over-selected='true']  { opacity: 1.0; }
]]>
</style>
<script type="application/ecmascript"><![CDATA[
document.addEventListener('DOMContentLoaded', (event) => {
  highlightEdges();
  highlightAdjacentNodes();
});
]]></script>
</svg>
