<?xml version="1.0" encoding="UTF-8" standalone="no"?>
<!DOCTYPE svg PUBLIC "-//W3C//DTD SVG 1.1//EN"
 "http://www.w3.org/Graphics/SVG/1.1/DTD/svg11.dtd">
<!-- Generated by graphviz version 2.49.3 (0)
 -->
<!-- Title: vanetza::byte_view_range Pages: 1 -->
<svg width="116pt" height="224pt"
 viewBox="0.00 0.00 116.00 224.00" xmlns="http://www.w3.org/2000/svg" xmlns:xlink="http://www.w3.org/1999/xlink">
<g id="graph0" class="graph" transform="scale(1 1) rotate(0) translate(4 220)">
<title>vanetza::byte_view_range</title>
<!-- Node1 -->
<g id="Node000001" class="node">
<title>Node1</title>
<g id="a_Node000001"><a xlink:title=" ">
<polygon fill="#999999" stroke="transparent" points="103.5,-120 4.5,-120 4.5,0 103.5,0 103.5,-120"/>
<text text-anchor="start" x="12" y="-108" font-family="Helvetica,sans-Serif" font-size="10.00">vanetza::byte_view</text>
<text text-anchor="start" x="39.5" y="-97" font-family="Helvetica,sans-Serif" font-size="10.00">_range</text>
<text text-anchor="start" x="10.5" y="-82" font-family="Helvetica,sans-Serif" font-size="10.00">&#45;</text>
<text text-anchor="start" x="20" y="-82" font-family="Helvetica,sans-Serif" font-size="10.00">buffer</text>
<text text-anchor="start" x="9" y="-67" font-family="Helvetica,sans-Serif" font-size="10.00">+</text>
<text text-anchor="start" x="20" y="-67" font-family="Helvetica,sans-Serif" font-size="10.00">byte_view_range()</text>
<text text-anchor="start" x="9" y="-52" font-family="Helvetica,sans-Serif" font-size="10.00">+</text>
<text text-anchor="start" x="20" y="-52" font-family="Helvetica,sans-Serif" font-size="10.00">byte_view_range()</text>
<text text-anchor="start" x="9" y="-37" font-family="Helvetica,sans-Serif" font-size="10.00">+</text>
<text text-anchor="start" x="20" y="-37" font-family="Helvetica,sans-Serif" font-size="10.00">byte_view_range()</text>
<text text-anchor="start" x="9" y="-22" font-family="Helvetica,sans-Serif" font-size="10.00">+</text>
<text text-anchor="start" x="20" y="-22" font-family="Helvetica,sans-Serif" font-size="10.00">data()</text>
<text text-anchor="start" x="9" y="-7" font-family="Helvetica,sans-Serif" font-size="10.00">+</text>
<text text-anchor="start" x="20" y="-7" font-family="Helvetica,sans-Serif" font-size="10.00">operator[]()</text>
<polygon fill="#666666" stroke="#666666" points="5,-92 5,-92 104,-92 104,-92 5,-92"/>
<polygon fill="#666666" stroke="#666666" points="5,-77 5,-77 18,-77 18,-77 5,-77"/>
<polygon fill="#666666" stroke="#666666" points="18,-77 18,-77 104,-77 104,-77 18,-77"/>
<polygon fill="none" stroke="#666666" points="4.5,0 4.5,-120 103.5,-120 103.5,0 4.5,0"/>
</a>
</g>
</g>
<!-- Node2 -->
<g id="Node000002" class="node">
<title>Node2</title>
<g id="a_Node000002"><a xlink:title=" ">
<polygon fill="white" stroke="transparent" points="108,-216 0,-216 0,-156 108,-156 108,-216"/>
<text text-anchor="start" x="5" y="-204" font-family="Helvetica,sans-Serif" font-size="10.00">boost::iterator_range</text>
<text text-anchor="start" x="5" y="-193" font-family="Helvetica,sans-Serif" font-size="10.00">&lt; byte_view_iterator &gt;</text>
<text text-anchor="start" x="52" y="-178" font-family="Helvetica,sans-Serif" font-size="10.00"> </text>
<text text-anchor="start" x="52" y="-163" font-family="Helvetica,sans-Serif" font-size="10.00"> </text>
<polygon fill="#bfbfbf" stroke="#bfbfbf" points="0,-188 0,-188 108,-188 108,-188 0,-188"/>
<polygon fill="#bfbfbf" stroke="#bfbfbf" points="0,-173 0,-173 108,-173 108,-173 0,-173"/>
<polygon fill="none" stroke="#bfbfbf" points="0,-156 0,-216 108,-216 108,-156 0,-156"/>
</a>
</g>
</g>
<!-- Node2&#45;&gt;Node1 -->
<g id="edge1_Node000001_Node000002" class="edge">
<title>Node2&#45;&gt;Node1</title>
<g id="a_edge1_Node000001_Node000002"><a xlink:title=" ">
<path fill="none" stroke="#8b1a1a" d="M54,-145.93C54,-137.73 54,-128.9 54,-120.16"/>
<polygon fill="none" stroke="#8b1a1a" points="50.5,-145.93 54,-155.93 57.5,-145.93 50.5,-145.93"/>
</a>
</g>
</g>
</g>
</svg>
