<?xml version="1.0" encoding="UTF-8" standalone="no"?>
<!DOCTYPE svg PUBLIC "-//W3C//DTD SVG 1.1//EN"
 "http://www.w3.org/Graphics/SVG/1.1/DTD/svg11.dtd">
<!-- Generated by graphviz version 2.49.3 (0)
 -->
<!-- Title: vanetza::security::v2::StraightSignService Pages: 1 -->
<svg width="122pt" height="224pt"
 viewBox="0.00 0.00 122.00 224.00" xmlns="http://www.w3.org/2000/svg" xmlns:xlink="http://www.w3.org/1999/xlink">
<g id="graph0" class="graph" transform="scale(1 1) rotate(0) translate(4 220)">
<title>vanetza::security::v2::StraightSignService</title>
<!-- Node1 -->
<g id="Node000001" class="node">
<title>Node1</title>
<g id="a_Node000001"><a xlink:title=" ">
<polygon fill="#999999" stroke="transparent" points="114,-105 0,-105 0,0 114,0 114,-105"/>
<text text-anchor="start" x="5" y="-92.5" font-family="Helvetica,sans-Serif" font-size="10.00">vanetza::security::</text>
<text text-anchor="start" x="5" y="-81.5" font-family="Helvetica,sans-Serif" font-size="10.00">v2::StraightSignService</text>
<text text-anchor="start" x="5.5" y="-66.5" font-family="Helvetica,sans-Serif" font-size="10.00">&#45;</text>
<text text-anchor="start" x="15" y="-66.5" font-family="Helvetica,sans-Serif" font-size="10.00">m_certificates</text>
<text text-anchor="start" x="5.5" y="-51.5" font-family="Helvetica,sans-Serif" font-size="10.00">&#45;</text>
<text text-anchor="start" x="15" y="-51.5" font-family="Helvetica,sans-Serif" font-size="10.00">m_backend</text>
<text text-anchor="start" x="5.5" y="-36.5" font-family="Helvetica,sans-Serif" font-size="10.00">&#45;</text>
<text text-anchor="start" x="15" y="-36.5" font-family="Helvetica,sans-Serif" font-size="10.00">m_policy</text>
<text text-anchor="start" x="4" y="-21.5" font-family="Helvetica,sans-Serif" font-size="10.00">+</text>
<text text-anchor="start" x="15" y="-21.5" font-family="Helvetica,sans-Serif" font-size="10.00">StraightSignService()</text>
<text text-anchor="start" x="4" y="-6.5" font-family="Helvetica,sans-Serif" font-size="10.00">+</text>
<text text-anchor="start" x="15" y="-6.5" font-family="Helvetica,sans-Serif" font-size="10.00">sign()</text>
<polygon fill="#666666" stroke="#666666" points="0,-76.5 0,-76.5 114,-76.5 114,-76.5 0,-76.5"/>
<polygon fill="#666666" stroke="#666666" points="0,-31.5 0,-31.5 13,-31.5 13,-31.5 0,-31.5"/>
<polygon fill="#666666" stroke="#666666" points="13,-31.5 13,-31.5 114,-31.5 114,-31.5 13,-31.5"/>
<polygon fill="none" stroke="#666666" points="0,0 0,-105 114,-105 114,0 0,0"/>
</a>
</g>
</g>
<!-- Node2 -->
<g id="Node000002" class="node">
<title>Node2</title>
<g id="a_Node000002"><a xlink:href="../../de/d08/classvanetza_1_1security_1_1SignService.html" target="_top" xlink:title=" ">
<polygon fill="white" stroke="transparent" points="102,-216 12,-216 12,-141 102,-141 102,-216"/>
<text text-anchor="start" x="17" y="-203.5" font-family="Helvetica,sans-Serif" font-size="10.00">vanetza::security::</text>
<text text-anchor="start" x="30" y="-192.5" font-family="Helvetica,sans-Serif" font-size="10.00">SignService</text>
<text text-anchor="start" x="55" y="-177.5" font-family="Helvetica,sans-Serif" font-size="10.00"> </text>
<text text-anchor="start" x="17" y="-162.5" font-family="Helvetica,sans-Serif" font-size="10.00">+</text>
<text text-anchor="start" x="29" y="-162.5" font-family="Helvetica,sans-Serif" font-size="10.00">~SignService()</text>
<text text-anchor="start" x="17" y="-147.5" font-family="Helvetica,sans-Serif" font-size="10.00">+</text>
<text text-anchor="start" x="29" y="-147.5" font-family="Helvetica,sans-Serif" font-size="10.00">sign()</text>
<polygon fill="#666666" stroke="#666666" points="12,-187.5 12,-187.5 102,-187.5 102,-187.5 12,-187.5"/>
<polygon fill="#666666" stroke="#666666" points="12,-172.5 12,-172.5 102,-172.5 102,-172.5 12,-172.5"/>
<polygon fill="none" stroke="#666666" points="12,-141 12,-216 102,-216 102,-141 12,-141"/>
</a>
</g>
</g>
<!-- Node2&#45;&gt;Node1 -->
<g id="edge1_Node000001_Node000002" class="edge">
<title>Node2&#45;&gt;Node1</title>
<g id="a_edge1_Node000001_Node000002"><a xlink:title=" ">
<path fill="none" stroke="#63b8ff" d="M57,-130.74C57,-122.46 57,-113.8 57,-105.39"/>
<polygon fill="none" stroke="#63b8ff" points="53.5,-130.97 57,-140.97 60.5,-130.97 53.5,-130.97"/>
</a>
</g>
</g>
</g>
</svg>
