<?xml version="1.0" encoding="UTF-8" standalone="no"?>
<!DOCTYPE svg PUBLIC "-//W3C//DTD SVG 1.1//EN"
 "http://www.w3.org/Graphics/SVG/1.1/DTD/svg11.dtd">
<!-- Generated by graphviz version 14.1.2 (0)
 -->
<!-- Title: vanetza::security::v2::StraightSignService Pages: 1 -->
<svg width="131pt" height="245pt"
 viewBox="0.00 0.00 131.00 245.00" xmlns="http://www.w3.org/2000/svg" xmlns:xlink="http://www.w3.org/1999/xlink">

<svg id="main" version="1.1" xmlns="http://www.w3.org/2000/svg" xmlns:xlink="http://www.w3.org/1999/xlink" xml:space="preserve">

<style type="text/css"><![CDATA[
.node, .edge {opacity: 0.7;}
.node.selected, .edge.selected {opacity: 1;}
.edge:hover path { stroke: red; }
.edge:hover polygon { stroke: red; fill: red; }
]]></style>
<script type="application/ecmascript" xlink:href="../../svg.min.js"/>
<svg id="graph" class="graph">
<g id="graph0" class="graph" transform="scale(1 1) rotate(0) translate(4 241)">
<title>vanetza::security::v2::StraightSignService</title>
<!-- Node1 -->
<g id="Node000001" class="node">
<title>Node1</title>
<g id="a_Node000001"><a xlink:title=" ">
<polygon fill="#999999" stroke="none" points="123,-117.25 0,-117.25 0,0 123,0 123,-117.25"/>
<text xml:space="preserve" text-anchor="start" x="4.88" y="-103.75" font-family="Helvetica,sans-Serif" font-size="10.00">vanetza::security::</text>
<text xml:space="preserve" text-anchor="start" x="4.88" y="-91" font-family="Helvetica,sans-Serif" font-size="10.00">v2::StraightSignService</text>
<text xml:space="preserve" text-anchor="start" x="6.25" y="-74.25" font-family="Helvetica,sans-Serif" font-size="10.00">&#45;</text>
<text xml:space="preserve" text-anchor="start" x="16.25" y="-74.25" font-family="Helvetica,sans-Serif" font-size="10.00">m_certificates</text>
<text xml:space="preserve" text-anchor="start" x="6.25" y="-57.5" font-family="Helvetica,sans-Serif" font-size="10.00">&#45;</text>
<text xml:space="preserve" text-anchor="start" x="16.25" y="-57.5" font-family="Helvetica,sans-Serif" font-size="10.00">m_backend</text>
<text xml:space="preserve" text-anchor="start" x="6.25" y="-40.75" font-family="Helvetica,sans-Serif" font-size="10.00">&#45;</text>
<text xml:space="preserve" text-anchor="start" x="16.25" y="-40.75" font-family="Helvetica,sans-Serif" font-size="10.00">m_policy</text>
<text xml:space="preserve" text-anchor="start" x="4" y="-24" font-family="Helvetica,sans-Serif" font-size="10.00">+</text>
<text xml:space="preserve" text-anchor="start" x="16.25" y="-24" font-family="Helvetica,sans-Serif" font-size="10.00">StraightSignService()</text>
<text xml:space="preserve" text-anchor="start" x="4" y="-7.25" font-family="Helvetica,sans-Serif" font-size="10.00">+</text>
<text xml:space="preserve" text-anchor="start" x="16.25" y="-7.25" font-family="Helvetica,sans-Serif" font-size="10.00">sign()</text>
<polygon fill="#666666" stroke="#666666" points="0,-85.75 0,-85.75 123,-85.75 123,-85.75 0,-85.75"/>
<polygon fill="#666666" stroke="#666666" points="0,-35.5 0,-35.5 14.25,-35.5 14.25,-35.5 0,-35.5"/>
<polygon fill="#666666" stroke="#666666" points="14.25,-35.5 14.25,-35.5 123,-35.5 123,-35.5 14.25,-35.5"/>
<polygon fill="none" stroke="#666666" points="0,0 0,-117.25 123,-117.25 123,0 0,0"/>
</a>
</g>
</g>
<!-- Node2 -->
<g id="Node000002" class="node">
<title>Node2</title>
<g id="a_Node000002"><a xlink:href="../../de/d08/classvanetza_1_1security_1_1SignService.html" target="_top" xlink:title=" ">
<polygon fill="white" stroke="none" points="110.12,-237 12.88,-237 12.88,-153.25 110.12,-153.25 110.12,-237"/>
<text xml:space="preserve" text-anchor="start" x="16.88" y="-223.5" font-family="Helvetica,sans-Serif" font-size="10.00">vanetza::security::</text>
<text xml:space="preserve" text-anchor="start" x="33" y="-210.75" font-family="Helvetica,sans-Serif" font-size="10.00">SignService</text>
<text xml:space="preserve" text-anchor="start" x="60" y="-194" font-family="Helvetica,sans-Serif" font-size="10.00"> </text>
<text xml:space="preserve" text-anchor="start" x="17.94" y="-177.25" font-family="Helvetica,sans-Serif" font-size="10.00">+</text>
<text xml:space="preserve" text-anchor="start" x="31.25" y="-177.25" font-family="Helvetica,sans-Serif" font-size="10.00">~SignService()</text>
<text xml:space="preserve" text-anchor="start" x="17.94" y="-160.5" font-family="Helvetica,sans-Serif" font-size="10.00">+</text>
<text xml:space="preserve" text-anchor="start" x="31.25" y="-160.5" font-family="Helvetica,sans-Serif" font-size="10.00">sign()</text>
<polygon fill="#666666" stroke="#666666" points="12.88,-205.5 12.88,-205.5 110.12,-205.5 110.12,-205.5 12.88,-205.5"/>
<polygon fill="#666666" stroke="#666666" points="12.88,-188.75 12.88,-188.75 110.12,-188.75 110.12,-188.75 12.88,-188.75"/>
<polygon fill="none" stroke="#666666" points="12.88,-153.25 12.88,-237 110.12,-237 110.12,-153.25 12.88,-153.25"/>
</a>
</g>
</g>
<!-- Node2&#45;&gt;Node1 -->
<g id="edge1_Node000001_Node000002" class="edge">
<title>Node2&#45;&gt;Node1</title>
<g id="a_edge1_Node000001_Node000002"><a xlink:title=" ">
<path fill="none" stroke="#63b8ff" d="M61.5,-142.09C61.5,-133.9 61.5,-125.38 61.5,-117.08"/>
<polygon fill="none" stroke="#63b8ff" points="58,-141.89 61.5,-151.89 65,-141.89 58,-141.89"/>
</a>
</g>
</g>
</g>
</svg>
</svg>

<style type='text/css'>
<![CDATA[
[data-mouse-over-selected='false'] { opacity: 0.7; }
[data-mouse-over-selected='true']  { opacity: 1.0; }
]]>
</style>
<script type="application/ecmascript"><![CDATA[
document.addEventListener('DOMContentLoaded', (event) => {
  highlightEdges();
  highlightAdjacentNodes();
});
]]></script>
</svg>
