<?xml version="1.0" encoding="UTF-8" standalone="no"?>
<!DOCTYPE svg PUBLIC "-//W3C//DTD SVG 1.1//EN"
 "http://www.w3.org/Graphics/SVG/1.1/DTD/svg11.dtd">
<!-- Generated by graphviz version 14.1.2 (0)
 -->
<!-- Title: vanetza::geonet::DataRequestWithArea Pages: 1 -->
<svg width="296pt" height="386pt"
 viewBox="0.00 0.00 296.00 386.00" xmlns="http://www.w3.org/2000/svg" xmlns:xlink="http://www.w3.org/1999/xlink">
<g id="graph0" class="graph" transform="scale(1 1) rotate(0) translate(4 381.5)">
<title>vanetza::geonet::DataRequestWithArea</title>
<!-- Node1 -->
<g id="Node000001" class="node">
<title>Node1</title>
<g id="a_Node000001"><a xlink:title=" ">
<polygon fill="#999999" stroke="none" points="221.25,-170 65.5,-170 65.5,-103 221.25,-103 221.25,-170"/>
<text xml:space="preserve" text-anchor="start" x="69.5" y="-156.5" font-family="Helvetica,sans-Serif" font-size="10.00">vanetza::geonet::DataRequest</text>
<text xml:space="preserve" text-anchor="start" x="120.88" y="-143.75" font-family="Helvetica,sans-Serif" font-size="10.00">WithArea</text>
<text xml:space="preserve" text-anchor="start" x="85.75" y="-127" font-family="Helvetica,sans-Serif" font-size="10.00">+</text>
<text xml:space="preserve" text-anchor="start" x="114.25" y="-127" font-family="Helvetica,sans-Serif" font-size="10.00">destination</text>
<text xml:space="preserve" text-anchor="start" x="85.75" y="-110.25" font-family="Helvetica,sans-Serif" font-size="10.00">+</text>
<text xml:space="preserve" text-anchor="start" x="114.25" y="-110.25" font-family="Helvetica,sans-Serif" font-size="10.00">DataRequest()</text>
<polygon fill="#666666" stroke="#666666" points="65.5,-138.5 65.5,-138.5 221.25,-138.5 221.25,-138.5 65.5,-138.5"/>
<polygon fill="#666666" stroke="#666666" points="65.5,-121.75 65.5,-121.75 112.25,-121.75 112.25,-121.75 65.5,-121.75"/>
<polygon fill="#666666" stroke="#666666" points="112.25,-121.75 112.25,-121.75 221.25,-121.75 221.25,-121.75 112.25,-121.75"/>
<polygon fill="none" stroke="#666666" points="65.5,-103 65.5,-170 221.25,-170 221.25,-103 65.5,-103"/>
</a>
</g>
</g>
<!-- Node3 -->
<g id="Node000003" class="node">
<title>Node3</title>
<g id="a_Node000003"><a xlink:href="../../d7/d84/structvanetza_1_1geonet_1_1GacDataRequest.html" target="_top" xlink:title=" ">
<polygon fill="white" stroke="none" points="134.75,-67 0,-67 0,0 134.75,0 134.75,-67"/>
<text xml:space="preserve" text-anchor="start" x="4" y="-53.5" font-family="Helvetica,sans-Serif" font-size="10.00">vanetza::geonet::GacData</text>
<text xml:space="preserve" text-anchor="start" x="47.5" y="-40.75" font-family="Helvetica,sans-Serif" font-size="10.00">Request</text>
<text xml:space="preserve" text-anchor="start" x="65.88" y="-24" font-family="Helvetica,sans-Serif" font-size="10.00"> </text>
<text xml:space="preserve" text-anchor="start" x="65.88" y="-7.25" font-family="Helvetica,sans-Serif" font-size="10.00"> </text>
<polygon fill="#bfbfbf" stroke="#bfbfbf" points="0,-35.5 0,-35.5 134.75,-35.5 134.75,-35.5 0,-35.5"/>
<polygon fill="#bfbfbf" stroke="#bfbfbf" points="0,-18.75 0,-18.75 134.75,-18.75 134.75,-18.75 0,-18.75"/>
<polygon fill="none" stroke="#bfbfbf" points="0,0 0,-67 134.75,-67 134.75,0 0,0"/>
</a>
</g>
</g>
<!-- Node1&#45;&gt;Node3 -->
<g id="edge2_Node000001_Node000003" class="edge">
<title>Node1&#45;&gt;Node3</title>
<g id="a_edge2_Node000001_Node000003"><a xlink:title=" ">
<path fill="none" stroke="#63b8ff" d="M112.36,-94.28C105.46,-85.12 98.24,-75.52 91.66,-66.77"/>
<polygon fill="none" stroke="#63b8ff" points="109.4,-96.17 118.21,-102.06 114.99,-91.96 109.4,-96.17"/>
</a>
</g>
</g>
<!-- Node4 -->
<g id="Node000004" class="node">
<title>Node4</title>
<g id="a_Node000004"><a xlink:href="../../de/d7b/structvanetza_1_1geonet_1_1GbcDataRequest.html" target="_top" xlink:title=" ">
<polygon fill="white" stroke="none" points="287.75,-67 153,-67 153,0 287.75,0 287.75,-67"/>
<text xml:space="preserve" text-anchor="start" x="157" y="-53.5" font-family="Helvetica,sans-Serif" font-size="10.00">vanetza::geonet::GbcData</text>
<text xml:space="preserve" text-anchor="start" x="200.5" y="-40.75" font-family="Helvetica,sans-Serif" font-size="10.00">Request</text>
<text xml:space="preserve" text-anchor="start" x="218.88" y="-24" font-family="Helvetica,sans-Serif" font-size="10.00"> </text>
<text xml:space="preserve" text-anchor="start" x="218.88" y="-7.25" font-family="Helvetica,sans-Serif" font-size="10.00"> </text>
<polygon fill="#bfbfbf" stroke="#bfbfbf" points="153,-35.5 153,-35.5 287.75,-35.5 287.75,-35.5 153,-35.5"/>
<polygon fill="#bfbfbf" stroke="#bfbfbf" points="153,-18.75 153,-18.75 287.75,-18.75 287.75,-18.75 153,-18.75"/>
<polygon fill="none" stroke="#bfbfbf" points="153,0 153,-67 287.75,-67 287.75,0 153,0"/>
</a>
</g>
</g>
<!-- Node1&#45;&gt;Node4 -->
<g id="edge3_Node000001_Node000004" class="edge">
<title>Node1&#45;&gt;Node4</title>
<g id="a_edge3_Node000001_Node000004"><a xlink:title=" ">
<path fill="none" stroke="#63b8ff" d="M174.8,-94.28C181.79,-85.12 189.1,-75.52 195.77,-66.77"/>
<polygon fill="none" stroke="#63b8ff" points="172.15,-91.99 168.87,-102.06 177.71,-96.23 172.15,-91.99"/>
</a>
</g>
</g>
<!-- Node2 -->
<g id="Node000002" class="node">
<title>Node2</title>
<g id="a_Node000002"><a xlink:href="../../d1/d1f/structvanetza_1_1geonet_1_1DataRequest.html" target="_top" xlink:title=" ">
<polygon fill="white" stroke="none" points="221.25,-377.5 65.5,-377.5 65.5,-206 221.25,-206 221.25,-377.5"/>
<text xml:space="preserve" text-anchor="start" x="69.5" y="-364" font-family="Helvetica,sans-Serif" font-size="10.00">vanetza::geonet::DataRequest</text>
<text xml:space="preserve" text-anchor="start" x="75.44" y="-347.25" font-family="Helvetica,sans-Serif" font-size="10.00">+</text>
<text xml:space="preserve" text-anchor="start" x="93.62" y="-347.25" font-family="Helvetica,sans-Serif" font-size="10.00">upper_protocol</text>
<text xml:space="preserve" text-anchor="start" x="75.44" y="-330.5" font-family="Helvetica,sans-Serif" font-size="10.00">+</text>
<text xml:space="preserve" text-anchor="start" x="93.62" y="-330.5" font-family="Helvetica,sans-Serif" font-size="10.00">communication_profile</text>
<text xml:space="preserve" text-anchor="start" x="75.44" y="-313.75" font-family="Helvetica,sans-Serif" font-size="10.00">+</text>
<text xml:space="preserve" text-anchor="start" x="93.62" y="-313.75" font-family="Helvetica,sans-Serif" font-size="10.00">its_aid</text>
<text xml:space="preserve" text-anchor="start" x="75.44" y="-297" font-family="Helvetica,sans-Serif" font-size="10.00">+</text>
<text xml:space="preserve" text-anchor="start" x="93.62" y="-297" font-family="Helvetica,sans-Serif" font-size="10.00">permissions</text>
<text xml:space="preserve" text-anchor="start" x="75.44" y="-280.25" font-family="Helvetica,sans-Serif" font-size="10.00">+</text>
<text xml:space="preserve" text-anchor="start" x="93.62" y="-280.25" font-family="Helvetica,sans-Serif" font-size="10.00">maximum_lifetime</text>
<text xml:space="preserve" text-anchor="start" x="75.44" y="-263.5" font-family="Helvetica,sans-Serif" font-size="10.00">+</text>
<text xml:space="preserve" text-anchor="start" x="93.62" y="-263.5" font-family="Helvetica,sans-Serif" font-size="10.00">repetition</text>
<text xml:space="preserve" text-anchor="start" x="75.44" y="-246.75" font-family="Helvetica,sans-Serif" font-size="10.00">+</text>
<text xml:space="preserve" text-anchor="start" x="93.62" y="-246.75" font-family="Helvetica,sans-Serif" font-size="10.00">max_hop_limit</text>
<text xml:space="preserve" text-anchor="start" x="75.44" y="-230" font-family="Helvetica,sans-Serif" font-size="10.00">+</text>
<text xml:space="preserve" text-anchor="start" x="93.62" y="-230" font-family="Helvetica,sans-Serif" font-size="10.00">traffic_class</text>
<text xml:space="preserve" text-anchor="start" x="75.44" y="-213.25" font-family="Helvetica,sans-Serif" font-size="10.00">+</text>
<text xml:space="preserve" text-anchor="start" x="93.62" y="-213.25" font-family="Helvetica,sans-Serif" font-size="10.00">DataRequest()</text>
<polygon fill="#bfbfbf" stroke="#bfbfbf" points="65.5,-358.75 65.5,-358.75 221.25,-358.75 221.25,-358.75 65.5,-358.75"/>
<polygon fill="#bfbfbf" stroke="#bfbfbf" points="65.5,-224.75 65.5,-224.75 91.62,-224.75 91.62,-224.75 65.5,-224.75"/>
<polygon fill="#bfbfbf" stroke="#bfbfbf" points="91.62,-224.75 91.62,-224.75 221.25,-224.75 221.25,-224.75 91.62,-224.75"/>
<polygon fill="none" stroke="#bfbfbf" points="65.5,-206 65.5,-377.5 221.25,-377.5 221.25,-206 65.5,-206"/>
</a>
</g>
</g>
<!-- Node2&#45;&gt;Node1 -->
<g id="edge1_Node000001_Node000002" class="edge">
<title>Node2&#45;&gt;Node1</title>
<g id="a_edge1_Node000001_Node000002"><a xlink:title=" ">
<path fill="none" stroke="#63b8ff" d="M143.38,-194.71C143.38,-185.88 143.38,-177.41 143.38,-169.83"/>
<polygon fill="none" stroke="#63b8ff" points="139.88,-194.54 143.38,-204.54 146.88,-194.54 139.88,-194.54"/>
</a>
</g>
</g>
</g>
</svg>
