<?xml version="1.0" encoding="UTF-8" standalone="no"?>
<!DOCTYPE svg PUBLIC "-//W3C//DTD SVG 1.1//EN"
 "http://www.w3.org/Graphics/SVG/1.1/DTD/svg11.dtd">
<!-- Generated by graphviz version 2.49.3 (0)
 -->
<!-- Title: vanetza::geonet::DataRequestWithArea Pages: 1 -->
<svg width="274pt" height="354pt"
 viewBox="0.00 0.00 274.00 354.00" xmlns="http://www.w3.org/2000/svg" xmlns:xlink="http://www.w3.org/1999/xlink">

<svg id="main" version="1.1" xmlns="http://www.w3.org/2000/svg" xmlns:xlink="http://www.w3.org/1999/xlink" xml:space="preserve">

<style type="text/css"><![CDATA[
.node, .edge {opacity: 0.7;}
.node.selected, .edge.selected {opacity: 1;}
.edge:hover path { stroke: red; }
.edge:hover polygon { stroke: red; fill: red; }
]]></style>
<script type="application/ecmascript" xlink:href="../../svg.min.js"/>
<svg id="graph" class="graph">
<g id="graph0" class="graph" transform="scale(1 1) rotate(0) translate(4 350)">
<title>vanetza::geonet::DataRequestWithArea</title>
<!-- Node1 -->
<g id="Node000001" class="node">
<title>Node1</title>
<g id="a_Node000001"><a xlink:title=" ">
<polygon fill="#999999" stroke="transparent" points="204,-156 62,-156 62,-96 204,-96 204,-156"/>
<text text-anchor="start" x="67" y="-144" font-family="Helvetica,sans-Serif" font-size="10.00">vanetza::geonet::DataRequest</text>
<text text-anchor="start" x="112.5" y="-133" font-family="Helvetica,sans-Serif" font-size="10.00">WithArea</text>
<text text-anchor="start" x="80.5" y="-118" font-family="Helvetica,sans-Serif" font-size="10.00">+</text>
<text text-anchor="start" x="106" y="-118" font-family="Helvetica,sans-Serif" font-size="10.00">destination</text>
<text text-anchor="start" x="80.5" y="-103" font-family="Helvetica,sans-Serif" font-size="10.00">+</text>
<text text-anchor="start" x="106" y="-103" font-family="Helvetica,sans-Serif" font-size="10.00">DataRequest()</text>
<polygon fill="#666666" stroke="#666666" points="62,-128 62,-128 204,-128 204,-128 62,-128"/>
<polygon fill="#666666" stroke="#666666" points="62,-113 62,-113 104,-113 104,-113 62,-113"/>
<polygon fill="#666666" stroke="#666666" points="104,-113 104,-113 204,-113 204,-113 104,-113"/>
<polygon fill="none" stroke="#666666" points="62,-96 62,-156 204,-156 204,-96 62,-96"/>
</a>
</g>
</g>
<!-- Node3 -->
<g id="Node000003" class="node">
<title>Node3</title>
<g id="a_Node000003"><a xlink:href="../../d7/d84/structvanetza_1_1geonet_1_1GacDataRequest.html" target="_top" xlink:title=" ">
<polygon fill="white" stroke="transparent" points="124,-60 0,-60 0,0 124,0 124,-60"/>
<text text-anchor="start" x="5" y="-48" font-family="Helvetica,sans-Serif" font-size="10.00">vanetza::geonet::GacData</text>
<text text-anchor="start" x="43.5" y="-37" font-family="Helvetica,sans-Serif" font-size="10.00">Request</text>
<text text-anchor="start" x="60" y="-22" font-family="Helvetica,sans-Serif" font-size="10.00"> </text>
<text text-anchor="start" x="60" y="-7" font-family="Helvetica,sans-Serif" font-size="10.00"> </text>
<polygon fill="#bfbfbf" stroke="#bfbfbf" points="0,-32 0,-32 124,-32 124,-32 0,-32"/>
<polygon fill="#bfbfbf" stroke="#bfbfbf" points="0,-17 0,-17 124,-17 124,-17 0,-17"/>
<polygon fill="none" stroke="#bfbfbf" points="0,0 0,-60 124,-60 124,0 0,0"/>
</a>
</g>
</g>
<!-- Node1&#45;&gt;Node3 -->
<g id="edge2_Node000001_Node000003" class="edge">
<title>Node1&#45;&gt;Node3</title>
<g id="a_edge2_Node000001_Node000003"><a xlink:title=" ">
<path fill="none" stroke="#63b8ff" d="M104.74,-87.59C97.86,-78.48 90.61,-68.87 84.06,-60.21"/>
<polygon fill="none" stroke="#63b8ff" points="102.1,-89.9 110.92,-95.77 107.69,-85.68 102.1,-89.9"/>
</a>
</g>
</g>
<!-- Node4 -->
<g id="Node000004" class="node">
<title>Node4</title>
<g id="a_Node000004"><a xlink:href="../../de/d7b/structvanetza_1_1geonet_1_1GbcDataRequest.html" target="_top" xlink:title=" ">
<polygon fill="white" stroke="transparent" points="266,-60 142,-60 142,0 266,0 266,-60"/>
<text text-anchor="start" x="147" y="-48" font-family="Helvetica,sans-Serif" font-size="10.00">vanetza::geonet::GbcData</text>
<text text-anchor="start" x="185.5" y="-37" font-family="Helvetica,sans-Serif" font-size="10.00">Request</text>
<text text-anchor="start" x="202" y="-22" font-family="Helvetica,sans-Serif" font-size="10.00"> </text>
<text text-anchor="start" x="202" y="-7" font-family="Helvetica,sans-Serif" font-size="10.00"> </text>
<polygon fill="#bfbfbf" stroke="#bfbfbf" points="142,-32 142,-32 266,-32 266,-32 142,-32"/>
<polygon fill="#bfbfbf" stroke="#bfbfbf" points="142,-17 142,-17 266,-17 266,-17 142,-17"/>
<polygon fill="none" stroke="#bfbfbf" points="142,0 142,-60 266,-60 266,0 142,0"/>
</a>
</g>
</g>
<!-- Node1&#45;&gt;Node4 -->
<g id="edge3_Node000001_Node000004" class="edge">
<title>Node1&#45;&gt;Node4</title>
<g id="a_edge3_Node000001_Node000004"><a xlink:title=" ">
<path fill="none" stroke="#63b8ff" d="M161.26,-87.59C168.14,-78.48 175.39,-68.87 181.94,-60.21"/>
<polygon fill="none" stroke="#63b8ff" points="158.31,-85.68 155.08,-95.77 163.9,-89.9 158.31,-85.68"/>
</a>
</g>
</g>
<!-- Node2 -->
<g id="Node000002" class="node">
<title>Node2</title>
<g id="a_Node000002"><a xlink:href="../../d1/d1f/structvanetza_1_1geonet_1_1DataRequest.html" target="_top" xlink:title=" ">
<polygon fill="white" stroke="transparent" points="204,-346 62,-346 62,-192 204,-192 204,-346"/>
<text text-anchor="start" x="67" y="-334" font-family="Helvetica,sans-Serif" font-size="10.00">vanetza::geonet::DataRequest</text>
<text text-anchor="start" x="72" y="-319" font-family="Helvetica,sans-Serif" font-size="10.00">+</text>
<text text-anchor="start" x="89" y="-319" font-family="Helvetica,sans-Serif" font-size="10.00">upper_protocol</text>
<text text-anchor="start" x="72" y="-304" font-family="Helvetica,sans-Serif" font-size="10.00">+</text>
<text text-anchor="start" x="89" y="-304" font-family="Helvetica,sans-Serif" font-size="10.00">communication_profile</text>
<text text-anchor="start" x="72" y="-289" font-family="Helvetica,sans-Serif" font-size="10.00">+</text>
<text text-anchor="start" x="89" y="-289" font-family="Helvetica,sans-Serif" font-size="10.00">its_aid</text>
<text text-anchor="start" x="72" y="-274" font-family="Helvetica,sans-Serif" font-size="10.00">+</text>
<text text-anchor="start" x="89" y="-274" font-family="Helvetica,sans-Serif" font-size="10.00">permissions</text>
<text text-anchor="start" x="72" y="-259" font-family="Helvetica,sans-Serif" font-size="10.00">+</text>
<text text-anchor="start" x="89" y="-259" font-family="Helvetica,sans-Serif" font-size="10.00">maximum_lifetime</text>
<text text-anchor="start" x="72" y="-244" font-family="Helvetica,sans-Serif" font-size="10.00">+</text>
<text text-anchor="start" x="89" y="-244" font-family="Helvetica,sans-Serif" font-size="10.00">repetition</text>
<text text-anchor="start" x="72" y="-229" font-family="Helvetica,sans-Serif" font-size="10.00">+</text>
<text text-anchor="start" x="89" y="-229" font-family="Helvetica,sans-Serif" font-size="10.00">max_hop_limit</text>
<text text-anchor="start" x="72" y="-214" font-family="Helvetica,sans-Serif" font-size="10.00">+</text>
<text text-anchor="start" x="89" y="-214" font-family="Helvetica,sans-Serif" font-size="10.00">traffic_class</text>
<text text-anchor="start" x="72" y="-199" font-family="Helvetica,sans-Serif" font-size="10.00">+</text>
<text text-anchor="start" x="89" y="-199" font-family="Helvetica,sans-Serif" font-size="10.00">DataRequest()</text>
<polygon fill="#bfbfbf" stroke="#bfbfbf" points="62,-329 62,-329 204,-329 204,-329 62,-329"/>
<polygon fill="#bfbfbf" stroke="#bfbfbf" points="62,-209 62,-209 87,-209 87,-209 62,-209"/>
<polygon fill="#bfbfbf" stroke="#bfbfbf" points="87,-209 87,-209 204,-209 204,-209 87,-209"/>
<polygon fill="none" stroke="#bfbfbf" points="62,-192 62,-346 204,-346 204,-192 62,-192"/>
</a>
</g>
</g>
<!-- Node2&#45;&gt;Node1 -->
<g id="edge1_Node000001_Node000002" class="edge">
<title>Node2&#45;&gt;Node1</title>
<g id="a_edge1_Node000001_Node000002"><a xlink:title=" ">
<path fill="none" stroke="#63b8ff" d="M133,-181.48C133,-172.52 133,-163.93 133,-156.32"/>
<polygon fill="none" stroke="#63b8ff" points="129.5,-181.72 133,-191.72 136.5,-181.72 129.5,-181.72"/>
</a>
</g>
</g>
</g>
</svg>
</svg>

<style type='text/css'>
<![CDATA[
[data-mouse-over-selected='false'] { opacity: 0.7; }
[data-mouse-over-selected='true']  { opacity: 1.0; }
]]>
</style>
<script type="application/ecmascript"><![CDATA[
document.addEventListener('DOMContentLoaded', (event) => {
  highlightEdges();
  highlightAdjacentNodes();
});
]]></script>
</svg>
