<?xml version="1.0" encoding="UTF-8" standalone="no"?>
<!DOCTYPE svg PUBLIC "-//W3C//DTD SVG 1.1//EN"
 "http://www.w3.org/Graphics/SVG/1.1/DTD/svg11.dtd">
<!-- Generated by graphviz version 2.49.3 (0)
 -->
<!-- Title: vanetza::geonet::DataRequestWithArea Pages: 1 -->
<svg width="286pt" height="342pt"
 viewBox="0.00 0.00 286.00 342.00" xmlns="http://www.w3.org/2000/svg" xmlns:xlink="http://www.w3.org/1999/xlink">
<g id="graph0" class="graph" transform="scale(1 1) rotate(0) translate(4 338)">
<title>vanetza::geonet::DataRequestWithArea</title>
<polygon fill="white" stroke="transparent" points="-4,4 -4,-338 282,-338 282,4 -4,4"/>
<!-- Node1 -->
<g id="node1" class="node">
<title>Node1</title>
<g id="a_node1"><a xlink:title=" ">
<polygon fill="#bfbfbf" stroke="black" points="65,-105.5 65,-173.5 213,-173.5 213,-105.5 65,-105.5"/>
<text text-anchor="start" x="73" y="-161.5" font-family="Helvetica,sans-Serif" font-size="10.00">vanetza::geonet::DataRequest</text>
<text text-anchor="middle" x="139" y="-150.5" font-family="Helvetica,sans-Serif" font-size="10.00">WithArea</text>
<polyline fill="none" stroke="black" points="65,-143.5 213,-143.5 "/>
<text text-anchor="start" x="73" y="-131.5" font-family="Helvetica,sans-Serif" font-size="10.00">+ destination</text>
<polyline fill="none" stroke="black" points="65,-124.5 213,-124.5 "/>
<text text-anchor="start" x="73" y="-112.5" font-family="Helvetica,sans-Serif" font-size="10.00">+ DataRequest()</text>
</a>
</g>
</g>
<!-- Node3 -->
<g id="node3" class="node">
<title>Node3</title>
<g id="a_node3"><a xlink:href="../../d7/d84/structvanetza_1_1geonet_1_1GacDataRequest.html" target="_top" xlink:title=" ">
<polygon fill="white" stroke="#bfbfbf" points="0,-0.5 0,-68.5 130,-68.5 130,-0.5 0,-0.5"/>
<text text-anchor="start" x="8" y="-56.5" font-family="Helvetica,sans-Serif" font-size="10.00">vanetza::geonet::GacData</text>
<text text-anchor="middle" x="65" y="-45.5" font-family="Helvetica,sans-Serif" font-size="10.00">Request</text>
<polyline fill="none" stroke="#bfbfbf" points="0,-38.5 130,-38.5 "/>
<text text-anchor="middle" x="65" y="-26.5" font-family="Helvetica,sans-Serif" font-size="10.00"> </text>
<polyline fill="none" stroke="#bfbfbf" points="0,-19.5 130,-19.5 "/>
<text text-anchor="middle" x="65" y="-7.5" font-family="Helvetica,sans-Serif" font-size="10.00"> </text>
</a>
</g>
</g>
<!-- Node1&#45;&gt;Node3 -->
<g id="edge2" class="edge">
<title>Node1&#45;&gt;Node3</title>
<path fill="none" stroke="midnightblue" d="M109.3,-97.16C102.48,-87.66 95.31,-77.69 88.78,-68.59"/>
<polygon fill="none" stroke="midnightblue" points="106.5,-99.26 115.18,-105.34 112.19,-95.18 106.5,-99.26"/>
</g>
<!-- Node4 -->
<g id="node4" class="node">
<title>Node4</title>
<g id="a_node4"><a xlink:href="../../de/d7b/structvanetza_1_1geonet_1_1GbcDataRequest.html" target="_top" xlink:title=" ">
<polygon fill="white" stroke="#bfbfbf" points="148,-0.5 148,-68.5 278,-68.5 278,-0.5 148,-0.5"/>
<text text-anchor="start" x="156" y="-56.5" font-family="Helvetica,sans-Serif" font-size="10.00">vanetza::geonet::GbcData</text>
<text text-anchor="middle" x="213" y="-45.5" font-family="Helvetica,sans-Serif" font-size="10.00">Request</text>
<polyline fill="none" stroke="#bfbfbf" points="148,-38.5 278,-38.5 "/>
<text text-anchor="middle" x="213" y="-26.5" font-family="Helvetica,sans-Serif" font-size="10.00"> </text>
<polyline fill="none" stroke="#bfbfbf" points="148,-19.5 278,-19.5 "/>
<text text-anchor="middle" x="213" y="-7.5" font-family="Helvetica,sans-Serif" font-size="10.00"> </text>
</a>
</g>
</g>
<!-- Node1&#45;&gt;Node4 -->
<g id="edge3" class="edge">
<title>Node1&#45;&gt;Node4</title>
<path fill="none" stroke="midnightblue" d="M168.7,-97.16C175.52,-87.66 182.69,-77.69 189.22,-68.59"/>
<polygon fill="none" stroke="midnightblue" points="165.81,-95.18 162.82,-105.34 171.5,-99.26 165.81,-95.18"/>
</g>
<!-- Node2 -->
<g id="node2" class="node">
<title>Node2</title>
<g id="a_node2"><a xlink:href="../../d1/d1f/structvanetza_1_1geonet_1_1DataRequest.html" target="_top" xlink:title=" ">
<polygon fill="white" stroke="#bfbfbf" points="65,-210.5 65,-333.5 213,-333.5 213,-210.5 65,-210.5"/>
<text text-anchor="middle" x="139" y="-321.5" font-family="Helvetica,sans-Serif" font-size="10.00">vanetza::geonet::DataRequest</text>
<polyline fill="none" stroke="#bfbfbf" points="65,-314.5 213,-314.5 "/>
<text text-anchor="start" x="73" y="-302.5" font-family="Helvetica,sans-Serif" font-size="10.00">+ upper_protocol</text>
<text text-anchor="start" x="73" y="-291.5" font-family="Helvetica,sans-Serif" font-size="10.00">+ communication_profile</text>
<text text-anchor="start" x="73" y="-280.5" font-family="Helvetica,sans-Serif" font-size="10.00">+ its_aid</text>
<text text-anchor="start" x="73" y="-269.5" font-family="Helvetica,sans-Serif" font-size="10.00">+ maximum_lifetime</text>
<text text-anchor="start" x="73" y="-258.5" font-family="Helvetica,sans-Serif" font-size="10.00">+ repetition</text>
<text text-anchor="start" x="73" y="-247.5" font-family="Helvetica,sans-Serif" font-size="10.00">+ max_hop_limit</text>
<text text-anchor="start" x="73" y="-236.5" font-family="Helvetica,sans-Serif" font-size="10.00">+ traffic_class</text>
<polyline fill="none" stroke="#bfbfbf" points="65,-229.5 213,-229.5 "/>
<text text-anchor="start" x="73" y="-217.5" font-family="Helvetica,sans-Serif" font-size="10.00">+ DataRequest()</text>
</a>
</g>
</g>
<!-- Node2&#45;&gt;Node1 -->
<g id="edge1" class="edge">
<title>Node2&#45;&gt;Node1</title>
<path fill="none" stroke="midnightblue" d="M139,-200.24C139,-190.97 139,-181.84 139,-173.62"/>
<polygon fill="none" stroke="midnightblue" points="135.5,-200.33 139,-210.33 142.5,-200.33 135.5,-200.33"/>
</g>
</g>
</svg>
