<?xml version="1.0" encoding="UTF-8" standalone="no"?>
<!DOCTYPE svg PUBLIC "-//W3C//DTD SVG 1.1//EN"
 "http://www.w3.org/Graphics/SVG/1.1/DTD/svg11.dtd">
<!-- Generated by graphviz version 14.1.2 (0)
 -->
<!-- Title: vanetza::asn1::Srem Pages: 1 -->
<!--zoomable 945 -->

<svg id="main" version="1.1" xmlns="http://www.w3.org/2000/svg" xmlns:xlink="http://www.w3.org/1999/xlink" xml:space="preserve" onload="init(evt)">

<style type="text/css"><![CDATA[
.node, .edge {opacity: 0.7;}
.node.selected, .edge.selected {opacity: 1;}
.edge:hover path { stroke: red; }
.edge:hover polygon { stroke: red; fill: red; }
]]></style>

<defs>
  <circle id="rim" cx="0" cy="0" r="7"/>
  <circle id="rim2" cx="0" cy="0" r="3.5"/>
  <g id="zoomPlus">
    <use xlink:href="#rim" fill="#404040"><set attributeName="fill" to="#808080" begin="zoomplus.mouseover" end="zoomplus.mouseout"/></use>
    <path d="M-4,0h8M0,-4v8" fill="none" stroke="white" stroke-width="1.5" pointer-events="none"/>
  </g>
  <g id="zoomMin">
    <use xlink:href="#rim" fill="#404040"><set attributeName="fill" to="#808080" begin="zoomminus.mouseover" end="zoomminus.mouseout"/></use>
    <path d="M-4,0h8" fill="none" stroke="white" stroke-width="1.5" pointer-events="none"/>
  </g>
  <g id="arrowUp" transform="translate(30 24)">
    <use xlink:href="#rim"/>
    <path pointer-events="none" fill="none" stroke="white" stroke-width="1.5" d="M0,-3.0v7 M-2.5,-0.5L0,-3.0L2.5,-0.5"/>
  </g>
  <g id="arrowRight" transform="rotate(90) translate(36 -43)">
    <use xlink:href="#rim"/>
    <path pointer-events="none" fill="none" stroke="white" stroke-width="1.5" d="M0,-3.0v7 M-2.5,-0.5L0,-3.0L2.5,-0.5"/>
  </g>
  <g id="arrowDown" transform="rotate(180) translate(-30 -48)">
    <use xlink:href="#rim"/>
    <path pointer-events="none" fill="none" stroke="white" stroke-width="1.5" d="M0,-3.0v7 M-2.5,-0.5L0,-3.0L2.5,-0.5"/>
  </g>
  <g id="arrowLeft" transform="rotate(270) translate(-36 17)">
    <use xlink:href="#rim"/>
    <path pointer-events="none" fill="none" stroke="white" stroke-width="1.5" d="M0,-3.0v7 M-2.5,-0.5L0,-3.0L2.5,-0.5"/>
  </g>
  <g id="resetDef">
    <use xlink:href="#rim2" fill="#404040"><set attributeName="fill" to="#808080" begin="reset.mouseover" end="reset.mouseout"/></use>
  </g>
</defs>
<script type="application/ecmascript">
var viewWidth = 318;
var viewHeight = 945;
var sectionId = 'dynsection-0';
</script>
<script type="application/ecmascript" xlink:href="../../svg.min.js"/>
<svg id="graph" class="graph">
<g id="viewport">
<title>vanetza::asn1::Srem</title>
<!-- Node1 -->
<g id="Node000001" class="node">
<title>Node1</title>
<g id="a_Node000001"><a xlink:title=" ">
<polygon fill="#999999" stroke="none" points="178.62,-54.25 70.88,-54.25 70.88,0 178.62,0 178.62,-54.25"/>
<text xml:space="preserve" text-anchor="start" x="74.88" y="-40.75" font-family="Helvetica,sans-Serif" font-size="10.00">vanetza::asn1::Srem</text>
<text xml:space="preserve" text-anchor="start" x="123.25" y="-24" font-family="Helvetica,sans-Serif" font-size="10.00"> </text>
<text xml:space="preserve" text-anchor="start" x="88.5" y="-7.25" font-family="Helvetica,sans-Serif" font-size="10.00">+</text>
<text xml:space="preserve" text-anchor="start" x="114.38" y="-7.25" font-family="Helvetica,sans-Serif" font-size="10.00">Srem()</text>
<polygon fill="#666666" stroke="#666666" points="70.88,-35.5 70.88,-35.5 178.62,-35.5 178.62,-35.5 70.88,-35.5"/>
<polygon fill="#666666" stroke="#666666" points="70.88,-18.75 70.88,-18.75 178.62,-18.75 178.62,-18.75 70.88,-18.75"/>
<polygon fill="none" stroke="#666666" points="70.88,0 70.88,-54.25 178.62,-54.25 178.62,0 70.88,0"/>
</a>
</g>
</g>
<!-- Node2 -->
<g id="Node000002" class="node">
<title>Node2</title>
<g id="a_Node000002"><a xlink:href="../../dc/dbf/classvanetza_1_1asn1_1_1asn1c__per__wrapper.html" target="_top" xlink:title=" ">
<polygon fill="white" stroke="none" points="191.38,-342.5 58.12,-342.5 58.12,-91.25 191.38,-91.25 191.38,-342.5"/>
<text xml:space="preserve" text-anchor="start" x="62.12" y="-329" font-family="Helvetica,sans-Serif" font-size="10.00">vanetza::asn1::asn1c</text>
<text xml:space="preserve" text-anchor="start" x="62.12" y="-316.25" font-family="Helvetica,sans-Serif" font-size="10.00">_per_wrapper&lt; SREM_t &gt;</text>
<text xml:space="preserve" text-anchor="start" x="74.25" y="-299.5" font-family="Helvetica,sans-Serif" font-size="10.00">#</text>
<text xml:space="preserve" text-anchor="start" x="98.62" y="-299.5" font-family="Helvetica,sans-Serif" font-size="10.00">m_struct</text>
<text xml:space="preserve" text-anchor="start" x="74.25" y="-282.75" font-family="Helvetica,sans-Serif" font-size="10.00">#</text>
<text xml:space="preserve" text-anchor="start" x="98.62" y="-282.75" font-family="Helvetica,sans-Serif" font-size="10.00">m_type</text>
<text xml:space="preserve" text-anchor="start" x="74.25" y="-266" font-family="Helvetica,sans-Serif" font-size="10.00">+</text>
<text xml:space="preserve" text-anchor="start" x="98.62" y="-266" font-family="Helvetica,sans-Serif" font-size="10.00">encode()</text>
<text xml:space="preserve" text-anchor="start" x="74.25" y="-249.25" font-family="Helvetica,sans-Serif" font-size="10.00">+</text>
<text xml:space="preserve" text-anchor="start" x="98.62" y="-249.25" font-family="Helvetica,sans-Serif" font-size="10.00">decode()</text>
<text xml:space="preserve" text-anchor="start" x="74.25" y="-232.5" font-family="Helvetica,sans-Serif" font-size="10.00">+</text>
<text xml:space="preserve" text-anchor="start" x="98.62" y="-232.5" font-family="Helvetica,sans-Serif" font-size="10.00">decode()</text>
<text xml:space="preserve" text-anchor="start" x="74.25" y="-215.75" font-family="Helvetica,sans-Serif" font-size="10.00">+</text>
<text xml:space="preserve" text-anchor="start" x="98.62" y="-215.75" font-family="Helvetica,sans-Serif" font-size="10.00">decode()</text>
<text xml:space="preserve" text-anchor="start" x="74.25" y="-199" font-family="Helvetica,sans-Serif" font-size="10.00">+</text>
<text xml:space="preserve" text-anchor="start" x="98.62" y="-199" font-family="Helvetica,sans-Serif" font-size="10.00">size()</text>
<text xml:space="preserve" text-anchor="start" x="74.25" y="-182.25" font-family="Helvetica,sans-Serif" font-size="10.00">+</text>
<text xml:space="preserve" text-anchor="start" x="98.62" y="-182.25" font-family="Helvetica,sans-Serif" font-size="10.00">operator*()</text>
<text xml:space="preserve" text-anchor="start" x="74.25" y="-165.5" font-family="Helvetica,sans-Serif" font-size="10.00">+</text>
<text xml:space="preserve" text-anchor="start" x="98.62" y="-165.5" font-family="Helvetica,sans-Serif" font-size="10.00">operator*()</text>
<text xml:space="preserve" text-anchor="start" x="74.25" y="-148.75" font-family="Helvetica,sans-Serif" font-size="10.00">+</text>
<text xml:space="preserve" text-anchor="start" x="98.62" y="-148.75" font-family="Helvetica,sans-Serif" font-size="10.00">operator&#45;&gt;()</text>
<text xml:space="preserve" text-anchor="start" x="74.25" y="-132" font-family="Helvetica,sans-Serif" font-size="10.00">+</text>
<text xml:space="preserve" text-anchor="start" x="98.62" y="-132" font-family="Helvetica,sans-Serif" font-size="10.00">operator&#45;&gt;()</text>
<text xml:space="preserve" text-anchor="start" x="74.25" y="-115.25" font-family="Helvetica,sans-Serif" font-size="10.00">+</text>
<text xml:space="preserve" text-anchor="start" x="98.62" y="-115.25" font-family="Helvetica,sans-Serif" font-size="10.00">content()</text>
<text xml:space="preserve" text-anchor="start" x="98.62" y="-98.5" font-family="Helvetica,sans-Serif" font-size="10.00">and 9 more...</text>
<polygon fill="#bfbfbf" stroke="#bfbfbf" points="58.12,-311 58.12,-311 191.38,-311 191.38,-311 58.12,-311"/>
<polygon fill="#bfbfbf" stroke="#bfbfbf" points="58.12,-277.5 58.12,-277.5 96.62,-277.5 96.62,-277.5 58.12,-277.5"/>
<polygon fill="#bfbfbf" stroke="#bfbfbf" points="96.62,-277.5 96.62,-277.5 191.38,-277.5 191.38,-277.5 96.62,-277.5"/>
<polygon fill="none" stroke="#bfbfbf" points="58.12,-91.25 58.12,-342.5 191.38,-342.5 191.38,-91.25 58.12,-91.25"/>
</a>
</g>
</g>
<!-- Node2&#45;&gt;Node1 -->
<g id="edge1_Node000001_Node000002" class="edge">
<title>Node2&#45;&gt;Node1</title>
<g id="a_edge1_Node000001_Node000002"><a xlink:title=" ">
<path fill="none" stroke="#63b8ff" d="M124.75,-80C124.75,-70.52 124.75,-61.75 124.75,-54.24"/>
<polygon fill="none" stroke="#63b8ff" points="121.25,-79.91 124.75,-89.91 128.25,-79.91 121.25,-79.91"/>
</a>
</g>
</g>
<!-- Node3 -->
<g id="Node000003" class="node">
<title>Node3</title>
<g id="a_Node000003"><a xlink:href="../../d0/d68/classvanetza_1_1asn1_1_1asn1c__wrapper__common.html" target="_top" xlink:title=" ">
<polygon fill="white" stroke="none" points="157.5,-648.5 0,-648.5 0,-397.25 157.5,-397.25 157.5,-648.5"/>
<text xml:space="preserve" text-anchor="start" x="18" y="-635" font-family="Helvetica,sans-Serif" font-size="10.00">vanetza::asn1::asn1c</text>
<text xml:space="preserve" text-anchor="start" x="18" y="-622.25" font-family="Helvetica,sans-Serif" font-size="10.00">_wrapper_common&lt; T &gt;</text>
<text xml:space="preserve" text-anchor="start" x="4" y="-605.5" font-family="Helvetica,sans-Serif" font-size="10.00">#</text>
<text xml:space="preserve" text-anchor="start" x="16.25" y="-605.5" font-family="Helvetica,sans-Serif" font-size="10.00">m_struct</text>
<text xml:space="preserve" text-anchor="start" x="4" y="-588.75" font-family="Helvetica,sans-Serif" font-size="10.00">#</text>
<text xml:space="preserve" text-anchor="start" x="16.25" y="-588.75" font-family="Helvetica,sans-Serif" font-size="10.00">m_type</text>
<text xml:space="preserve" text-anchor="start" x="4" y="-572" font-family="Helvetica,sans-Serif" font-size="10.00">+</text>
<text xml:space="preserve" text-anchor="start" x="16.25" y="-572" font-family="Helvetica,sans-Serif" font-size="10.00">asn1c_wrapper_common()</text>
<text xml:space="preserve" text-anchor="start" x="4" y="-555.25" font-family="Helvetica,sans-Serif" font-size="10.00">+</text>
<text xml:space="preserve" text-anchor="start" x="16.25" y="-555.25" font-family="Helvetica,sans-Serif" font-size="10.00">asn1c_wrapper_common()</text>
<text xml:space="preserve" text-anchor="start" x="4" y="-538.5" font-family="Helvetica,sans-Serif" font-size="10.00">+</text>
<text xml:space="preserve" text-anchor="start" x="16.25" y="-538.5" font-family="Helvetica,sans-Serif" font-size="10.00">~asn1c_wrapper_common()</text>
<text xml:space="preserve" text-anchor="start" x="4" y="-521.75" font-family="Helvetica,sans-Serif" font-size="10.00">+</text>
<text xml:space="preserve" text-anchor="start" x="16.25" y="-521.75" font-family="Helvetica,sans-Serif" font-size="10.00">asn1c_wrapper_common()</text>
<text xml:space="preserve" text-anchor="start" x="4" y="-505" font-family="Helvetica,sans-Serif" font-size="10.00">+</text>
<text xml:space="preserve" text-anchor="start" x="16.25" y="-505" font-family="Helvetica,sans-Serif" font-size="10.00">operator=()</text>
<text xml:space="preserve" text-anchor="start" x="4" y="-488.25" font-family="Helvetica,sans-Serif" font-size="10.00">+</text>
<text xml:space="preserve" text-anchor="start" x="16.25" y="-488.25" font-family="Helvetica,sans-Serif" font-size="10.00">asn1c_wrapper_common()</text>
<text xml:space="preserve" text-anchor="start" x="4" y="-471.5" font-family="Helvetica,sans-Serif" font-size="10.00">+</text>
<text xml:space="preserve" text-anchor="start" x="16.25" y="-471.5" font-family="Helvetica,sans-Serif" font-size="10.00">operator=()</text>
<text xml:space="preserve" text-anchor="start" x="4" y="-454.75" font-family="Helvetica,sans-Serif" font-size="10.00">+</text>
<text xml:space="preserve" text-anchor="start" x="16.25" y="-454.75" font-family="Helvetica,sans-Serif" font-size="10.00">operator*()</text>
<text xml:space="preserve" text-anchor="start" x="4" y="-438" font-family="Helvetica,sans-Serif" font-size="10.00">+</text>
<text xml:space="preserve" text-anchor="start" x="16.25" y="-438" font-family="Helvetica,sans-Serif" font-size="10.00">operator&#45;&gt;()</text>
<text xml:space="preserve" text-anchor="start" x="4" y="-421.25" font-family="Helvetica,sans-Serif" font-size="10.00">+</text>
<text xml:space="preserve" text-anchor="start" x="16.25" y="-421.25" font-family="Helvetica,sans-Serif" font-size="10.00">operator*()</text>
<text xml:space="preserve" text-anchor="start" x="16.25" y="-404.5" font-family="Helvetica,sans-Serif" font-size="10.00">and 11 more...</text>
<polygon fill="#bfbfbf" stroke="#bfbfbf" points="0,-617 0,-617 157.5,-617 157.5,-617 0,-617"/>
<polygon fill="#bfbfbf" stroke="#bfbfbf" points="0,-583.5 0,-583.5 14.25,-583.5 14.25,-583.5 0,-583.5"/>
<polygon fill="#bfbfbf" stroke="#bfbfbf" points="14.25,-583.5 14.25,-583.5 157.5,-583.5 157.5,-583.5 14.25,-583.5"/>
<polygon fill="none" stroke="#bfbfbf" points="0,-397.25 0,-648.5 157.5,-648.5 157.5,-397.25 0,-397.25"/>
</a>
</g>
</g>
<!-- Node3&#45;&gt;Node2 -->
<g id="edge2_Node000002_Node000003" class="edge">
<title>Node3&#45;&gt;Node2</title>
<g id="a_edge2_Node000002_Node000003"><a xlink:title=" ">
<path fill="none" stroke="#63b8ff" d="M99.28,-386.2C101.5,-371.56 103.74,-356.71 105.94,-342.21"/>
<polygon fill="none" stroke="#63b8ff" points="95.85,-385.44 97.82,-395.85 102.78,-386.49 95.85,-385.44"/>
</a>
</g>
</g>
<!-- Node4 -->
<g id="Node000004" class="node">
<title>Node4</title>
<g id="a_Node000004"><a xlink:href="../../dc/dbf/classvanetza_1_1asn1_1_1asn1c__per__wrapper.html" target="_top" xlink:title=" ">
<polygon fill="white" stroke="none" points="286.12,-589.88 175.38,-589.88 175.38,-455.88 286.12,-455.88 286.12,-589.88"/>
<text xml:space="preserve" text-anchor="start" x="179.38" y="-576.38" font-family="Helvetica,sans-Serif" font-size="10.00">vanetza::asn1::asn1c</text>
<text xml:space="preserve" text-anchor="start" x="183.5" y="-563.62" font-family="Helvetica,sans-Serif" font-size="10.00">_per_wrapper&lt; T &gt;</text>
<text xml:space="preserve" text-anchor="start" x="229.25" y="-546.88" font-family="Helvetica,sans-Serif" font-size="10.00"> </text>
<text xml:space="preserve" text-anchor="start" x="191.31" y="-530.12" font-family="Helvetica,sans-Serif" font-size="10.00">+</text>
<text xml:space="preserve" text-anchor="start" x="215.5" y="-530.12" font-family="Helvetica,sans-Serif" font-size="10.00">encode()</text>
<text xml:space="preserve" text-anchor="start" x="191.31" y="-513.38" font-family="Helvetica,sans-Serif" font-size="10.00">+</text>
<text xml:space="preserve" text-anchor="start" x="215.5" y="-513.38" font-family="Helvetica,sans-Serif" font-size="10.00">decode()</text>
<text xml:space="preserve" text-anchor="start" x="191.31" y="-496.62" font-family="Helvetica,sans-Serif" font-size="10.00">+</text>
<text xml:space="preserve" text-anchor="start" x="215.5" y="-496.62" font-family="Helvetica,sans-Serif" font-size="10.00">decode()</text>
<text xml:space="preserve" text-anchor="start" x="191.31" y="-479.88" font-family="Helvetica,sans-Serif" font-size="10.00">+</text>
<text xml:space="preserve" text-anchor="start" x="215.5" y="-479.88" font-family="Helvetica,sans-Serif" font-size="10.00">decode()</text>
<text xml:space="preserve" text-anchor="start" x="191.31" y="-463.12" font-family="Helvetica,sans-Serif" font-size="10.00">+</text>
<text xml:space="preserve" text-anchor="start" x="215.5" y="-463.12" font-family="Helvetica,sans-Serif" font-size="10.00">size()</text>
<polygon fill="#bfbfbf" stroke="#bfbfbf" points="175.38,-558.38 175.38,-558.38 286.12,-558.38 286.12,-558.38 175.38,-558.38"/>
<polygon fill="#bfbfbf" stroke="#bfbfbf" points="175.38,-541.62 175.38,-541.62 286.12,-541.62 286.12,-541.62 175.38,-541.62"/>
<polygon fill="none" stroke="#bfbfbf" points="175.38,-455.88 175.38,-589.88 286.12,-589.88 286.12,-455.88 175.38,-455.88"/>
</a>
</g>
</g>
<!-- Node4&#45;&gt;Node2 -->
<g id="edge3_Node000002_Node000004" class="edge">
<title>Node4&#45;&gt;Node2</title>
<g id="a_edge3_Node000002_Node000004"><a xlink:title=" ">
<path fill="none" stroke="orange" d="M203.99,-445.12C193.11,-413.93 180.26,-377.07 168.11,-342.22"/>
<polygon fill="orange" stroke="orange" points="200.65,-446.19 207.25,-454.48 207.26,-443.89 200.65,-446.19"/>
</a>
</g>
<text xml:space="preserve" text-anchor="start" x="183.93" y="-366.75" font-family="Helvetica,sans-Serif" font-size="10.00" fill="grey">&lt; SREM_t &gt;</text>
</g>
<!-- Node5 -->
<g id="Node000005" class="node">
<title>Node5</title>
<g id="a_Node000005"><a xlink:href="../../d0/d68/classvanetza_1_1asn1_1_1asn1c__wrapper__common.html" target="_top" xlink:title=" ">
<polygon fill="white" stroke="none" points="309.5,-936.75 152,-936.75 152,-685.5 309.5,-685.5 309.5,-936.75"/>
<text xml:space="preserve" text-anchor="start" x="170" y="-923.25" font-family="Helvetica,sans-Serif" font-size="10.00">vanetza::asn1::asn1c</text>
<text xml:space="preserve" text-anchor="start" x="170" y="-910.5" font-family="Helvetica,sans-Serif" font-size="10.00">_wrapper_common&lt; T &gt;</text>
<text xml:space="preserve" text-anchor="start" x="156" y="-893.75" font-family="Helvetica,sans-Serif" font-size="10.00">#</text>
<text xml:space="preserve" text-anchor="start" x="168.25" y="-893.75" font-family="Helvetica,sans-Serif" font-size="10.00">m_struct</text>
<text xml:space="preserve" text-anchor="start" x="156" y="-877" font-family="Helvetica,sans-Serif" font-size="10.00">#</text>
<text xml:space="preserve" text-anchor="start" x="168.25" y="-877" font-family="Helvetica,sans-Serif" font-size="10.00">m_type</text>
<text xml:space="preserve" text-anchor="start" x="156" y="-860.25" font-family="Helvetica,sans-Serif" font-size="10.00">+</text>
<text xml:space="preserve" text-anchor="start" x="168.25" y="-860.25" font-family="Helvetica,sans-Serif" font-size="10.00">asn1c_wrapper_common()</text>
<text xml:space="preserve" text-anchor="start" x="156" y="-843.5" font-family="Helvetica,sans-Serif" font-size="10.00">+</text>
<text xml:space="preserve" text-anchor="start" x="168.25" y="-843.5" font-family="Helvetica,sans-Serif" font-size="10.00">asn1c_wrapper_common()</text>
<text xml:space="preserve" text-anchor="start" x="156" y="-826.75" font-family="Helvetica,sans-Serif" font-size="10.00">+</text>
<text xml:space="preserve" text-anchor="start" x="168.25" y="-826.75" font-family="Helvetica,sans-Serif" font-size="10.00">~asn1c_wrapper_common()</text>
<text xml:space="preserve" text-anchor="start" x="156" y="-810" font-family="Helvetica,sans-Serif" font-size="10.00">+</text>
<text xml:space="preserve" text-anchor="start" x="168.25" y="-810" font-family="Helvetica,sans-Serif" font-size="10.00">asn1c_wrapper_common()</text>
<text xml:space="preserve" text-anchor="start" x="156" y="-793.25" font-family="Helvetica,sans-Serif" font-size="10.00">+</text>
<text xml:space="preserve" text-anchor="start" x="168.25" y="-793.25" font-family="Helvetica,sans-Serif" font-size="10.00">operator=()</text>
<text xml:space="preserve" text-anchor="start" x="156" y="-776.5" font-family="Helvetica,sans-Serif" font-size="10.00">+</text>
<text xml:space="preserve" text-anchor="start" x="168.25" y="-776.5" font-family="Helvetica,sans-Serif" font-size="10.00">asn1c_wrapper_common()</text>
<text xml:space="preserve" text-anchor="start" x="156" y="-759.75" font-family="Helvetica,sans-Serif" font-size="10.00">+</text>
<text xml:space="preserve" text-anchor="start" x="168.25" y="-759.75" font-family="Helvetica,sans-Serif" font-size="10.00">operator=()</text>
<text xml:space="preserve" text-anchor="start" x="156" y="-743" font-family="Helvetica,sans-Serif" font-size="10.00">+</text>
<text xml:space="preserve" text-anchor="start" x="168.25" y="-743" font-family="Helvetica,sans-Serif" font-size="10.00">operator*()</text>
<text xml:space="preserve" text-anchor="start" x="156" y="-726.25" font-family="Helvetica,sans-Serif" font-size="10.00">+</text>
<text xml:space="preserve" text-anchor="start" x="168.25" y="-726.25" font-family="Helvetica,sans-Serif" font-size="10.00">operator&#45;&gt;()</text>
<text xml:space="preserve" text-anchor="start" x="156" y="-709.5" font-family="Helvetica,sans-Serif" font-size="10.00">+</text>
<text xml:space="preserve" text-anchor="start" x="168.25" y="-709.5" font-family="Helvetica,sans-Serif" font-size="10.00">operator*()</text>
<text xml:space="preserve" text-anchor="start" x="168.25" y="-692.75" font-family="Helvetica,sans-Serif" font-size="10.00">and 11 more...</text>
<polygon fill="#bfbfbf" stroke="#bfbfbf" points="152,-905.25 152,-905.25 309.5,-905.25 309.5,-905.25 152,-905.25"/>
<polygon fill="#bfbfbf" stroke="#bfbfbf" points="152,-871.75 152,-871.75 166.25,-871.75 166.25,-871.75 152,-871.75"/>
<polygon fill="#bfbfbf" stroke="#bfbfbf" points="166.25,-871.75 166.25,-871.75 309.5,-871.75 309.5,-871.75 166.25,-871.75"/>
<polygon fill="none" stroke="#bfbfbf" points="152,-685.5 152,-936.75 309.5,-936.75 309.5,-685.5 152,-685.5"/>
</a>
</g>
</g>
<!-- Node5&#45;&gt;Node4 -->
<g id="edge4_Node000004_Node000005" class="edge">
<title>Node5&#45;&gt;Node4</title>
<g id="a_edge4_Node000004_Node000005"><a xlink:title=" ">
<path fill="none" stroke="#63b8ff" d="M230.75,-674.55C230.75,-645.06 230.75,-615.14 230.75,-589.82"/>
<polygon fill="none" stroke="#63b8ff" points="227.25,-674.31 230.75,-684.31 234.25,-674.31 227.25,-674.31"/>
</a>
</g>
</g>
</g>
</svg>

<g id="navigator" transform="translate(0 0)" fill="#404254">
  <rect fill="#f2f5e9" fill-opacity="0.5" stroke="#606060" stroke-width=".5" x="0" y="0" width="60" height="60"/>
  <use id="zoomplus" xlink:href="#zoomPlus" x="17" y="9" onmousedown="handleZoom(evt,'in')"/>
  <use id="zoomminus" xlink:href="#zoomMin" x="42" y="9" onmousedown="handleZoom(evt,'out')"/>
  <use id="reset" xlink:href="#resetDef" x="30" y="36" onmousedown="handleReset()"/>
   <use id="arrowup" xlink:href="#arrowUp" x="0" y="0" onmousedown="handlePan(0,-1)"/>
  <use id="arrowright" xlink:href="#arrowRight" x="0" y="0" onmousedown="handlePan(1,0)"/>
  <use id="arrowdown" xlink:href="#arrowDown" x="0" y="0" onmousedown="handlePan(0,1)"/>
  <use id="arrowleft" xlink:href="#arrowLeft" x="0" y="0" onmousedown="handlePan(-1,0)"/>
</g>
<svg viewBox="0 0 15 15" width="100%" height="30px" preserveAspectRatio="xMaxYMin meet">
 <g id="arrow_out" transform="scale(0.3 0.3)">
  <a xlink:href="classvanetza_1_1asn1_1_1Srem__inherit__graph_org.svg" target="_base">
   <rect id="button" ry="5" rx="5" y="6" x="6" height="38" width="38"
        fill="#f2f5e9" fill-opacity="0.5" stroke="#606060" stroke-width="1.0"/>
   <path id="arrow"
     d="M 11.500037,31.436501 C 11.940474,20.09759 22.043105,11.32322 32.158766,21.979434 L 37.068811,17.246167 C 37.068811,17.246167 37.088388,32 37.088388,32 L 22.160133,31.978069 C 22.160133,31.978069 26.997745,27.140456 26.997745,27.140456 C 18.528582,18.264221 13.291696,25.230495 11.500037,31.436501 z"
     style="fill:#404040;"/>
  </a>
 </g>
</svg>

<style type='text/css'>
<![CDATA[
[data-mouse-over-selected='false'] { opacity: 0.7; }
[data-mouse-over-selected='true']  { opacity: 1.0; }
]]>
</style>
<script type="application/ecmascript"><![CDATA[
document.addEventListener('DOMContentLoaded', (event) => {
  highlightEdges();
  highlightAdjacentNodes();
});
]]></script>
</svg>
