<?xml version="1.0" encoding="UTF-8" standalone="no"?>
<!DOCTYPE svg PUBLIC "-//W3C//DTD SVG 1.1//EN"
 "http://www.w3.org/Graphics/SVG/1.1/DTD/svg11.dtd">
<!-- Generated by graphviz version 2.49.3 (0)
 -->
<!-- Title: vanetza::geonet::detail::GbcGacHeader Pages: 1 -->
<svg width="155pt" height="374pt"
 viewBox="0.00 0.00 155.00 374.00" xmlns="http://www.w3.org/2000/svg" xmlns:xlink="http://www.w3.org/1999/xlink">

<svg id="main" version="1.1" xmlns="http://www.w3.org/2000/svg" xmlns:xlink="http://www.w3.org/1999/xlink" xml:space="preserve">

<style type="text/css"><![CDATA[
.node, .edge {opacity: 0.7;}
.node.selected, .edge.selected {opacity: 1;}
.edge:hover path { stroke: red; }
.edge:hover polygon { stroke: red; fill: red; }
]]></style>
<script type="application/ecmascript" xlink:href="../../svg.min.js"/>
<svg id="graph" class="graph">
<g id="graph0" class="graph" transform="scale(1 1) rotate(0) translate(4 370)">
<title>vanetza::geonet::detail::GbcGacHeader</title>
<!-- Node1 -->
<g id="Node000001" class="node">
<title>Node1</title>
<g id="a_Node000001"><a xlink:title=" ">
<polygon fill="#999999" stroke="transparent" points="136,-366 11,-366 11,-126 136,-126 136,-366"/>
<text text-anchor="start" x="25" y="-354" font-family="Helvetica,sans-Serif" font-size="10.00">vanetza::geonet::detail</text>
<text text-anchor="start" x="37" y="-343" font-family="Helvetica,sans-Serif" font-size="10.00">::GbcGacHeader</text>
<text text-anchor="start" x="15.5" y="-328" font-family="Helvetica,sans-Serif" font-size="10.00">+</text>
<text text-anchor="start" x="26.5" y="-328" font-family="Helvetica,sans-Serif" font-size="10.00">sequence_number</text>
<text text-anchor="start" x="15.5" y="-313" font-family="Helvetica,sans-Serif" font-size="10.00">+</text>
<text text-anchor="start" x="26.5" y="-313" font-family="Helvetica,sans-Serif" font-size="10.00">reserved1</text>
<text text-anchor="start" x="15.5" y="-298" font-family="Helvetica,sans-Serif" font-size="10.00">+</text>
<text text-anchor="start" x="26.5" y="-298" font-family="Helvetica,sans-Serif" font-size="10.00">source_position</text>
<text text-anchor="start" x="15.5" y="-283" font-family="Helvetica,sans-Serif" font-size="10.00">+</text>
<text text-anchor="start" x="26.5" y="-283" font-family="Helvetica,sans-Serif" font-size="10.00">geo_area_pos_latitude</text>
<text text-anchor="start" x="15.5" y="-268" font-family="Helvetica,sans-Serif" font-size="10.00">+</text>
<text text-anchor="start" x="26.5" y="-268" font-family="Helvetica,sans-Serif" font-size="10.00">geo_area_pos_longitude</text>
<text text-anchor="start" x="15.5" y="-253" font-family="Helvetica,sans-Serif" font-size="10.00">+</text>
<text text-anchor="start" x="26.5" y="-253" font-family="Helvetica,sans-Serif" font-size="10.00">distance_a</text>
<text text-anchor="start" x="15.5" y="-238" font-family="Helvetica,sans-Serif" font-size="10.00">+</text>
<text text-anchor="start" x="26.5" y="-238" font-family="Helvetica,sans-Serif" font-size="10.00">distance_b</text>
<text text-anchor="start" x="15.5" y="-223" font-family="Helvetica,sans-Serif" font-size="10.00">+</text>
<text text-anchor="start" x="26.5" y="-223" font-family="Helvetica,sans-Serif" font-size="10.00">angle</text>
<text text-anchor="start" x="15.5" y="-208" font-family="Helvetica,sans-Serif" font-size="10.00">+</text>
<text text-anchor="start" x="26.5" y="-208" font-family="Helvetica,sans-Serif" font-size="10.00">reserved2</text>
<text text-anchor="start" x="15.5" y="-193" font-family="Helvetica,sans-Serif" font-size="10.00">+</text>
<text text-anchor="start" x="26.5" y="-193" font-family="Helvetica,sans-Serif" font-size="10.00">length_bytes</text>
<text text-anchor="start" x="15.5" y="-178" font-family="Helvetica,sans-Serif" font-size="10.00">+</text>
<text text-anchor="start" x="26.5" y="-178" font-family="Helvetica,sans-Serif" font-size="10.00">destination()</text>
<text text-anchor="start" x="15.5" y="-163" font-family="Helvetica,sans-Serif" font-size="10.00">+</text>
<text text-anchor="start" x="26.5" y="-163" font-family="Helvetica,sans-Serif" font-size="10.00">position()</text>
<text text-anchor="start" x="15.5" y="-148" font-family="Helvetica,sans-Serif" font-size="10.00">+</text>
<text text-anchor="start" x="26.5" y="-148" font-family="Helvetica,sans-Serif" font-size="10.00">position()</text>
<text text-anchor="start" x="16" y="-133" font-family="Helvetica,sans-Serif" font-size="10.00">#</text>
<text text-anchor="start" x="26.5" y="-133" font-family="Helvetica,sans-Serif" font-size="10.00">destination()</text>
<polygon fill="#666666" stroke="#666666" points="11.5,-338 11.5,-338 136.5,-338 136.5,-338 11.5,-338"/>
<polygon fill="#666666" stroke="#666666" points="11.5,-188 11.5,-188 24.5,-188 24.5,-188 11.5,-188"/>
<polygon fill="#666666" stroke="#666666" points="24.5,-188 24.5,-188 136.5,-188 136.5,-188 24.5,-188"/>
<polygon fill="none" stroke="#666666" points="11,-126 11,-366 136,-366 136,-126 11,-126"/>
</a>
</g>
</g>
<!-- Node2 -->
<g id="Node000002" class="node">
<title>Node2</title>
<g id="a_Node000002"><a xlink:href="../../d1/db9/structvanetza_1_1geonet_1_1GeoBroadcastHeader.html" target="_top" xlink:title=" ">
<polygon fill="white" stroke="transparent" points="147,-90 0,-90 0,0 147,0 147,-90"/>
<text text-anchor="start" x="5.5" y="-78" font-family="Helvetica,sans-Serif" font-size="10.00">vanetza::geonet::GeoBroadcast</text>
<text text-anchor="start" x="58" y="-67" font-family="Helvetica,sans-Serif" font-size="10.00">Header</text>
<text text-anchor="start" x="72" y="-52" font-family="Helvetica,sans-Serif" font-size="10.00"> </text>
<text text-anchor="start" x="23" y="-37" font-family="Helvetica,sans-Serif" font-size="10.00">+</text>
<text text-anchor="start" x="52.5" y="-37" font-family="Helvetica,sans-Serif" font-size="10.00">destination()</text>
<text text-anchor="start" x="23" y="-22" font-family="Helvetica,sans-Serif" font-size="10.00">+</text>
<text text-anchor="start" x="52.5" y="-22" font-family="Helvetica,sans-Serif" font-size="10.00">destination()</text>
<text text-anchor="start" x="23" y="-7" font-family="Helvetica,sans-Serif" font-size="10.00">+</text>
<text text-anchor="start" x="52.5" y="-7" font-family="Helvetica,sans-Serif" font-size="10.00">destination()</text>
<polygon fill="#bfbfbf" stroke="#bfbfbf" points="0.5,-62 0.5,-62 147.5,-62 147.5,-62 0.5,-62"/>
<polygon fill="#bfbfbf" stroke="#bfbfbf" points="0.5,-47 0.5,-47 147.5,-47 147.5,-47 0.5,-47"/>
<polygon fill="none" stroke="#bfbfbf" points="0,0 0,-90 147,-90 147,0 0,0"/>
</a>
</g>
</g>
<!-- Node1&#45;&gt;Node2 -->
<g id="edge1_Node000001_Node000002" class="edge">
<title>Node1&#45;&gt;Node2</title>
<g id="a_edge1_Node000001_Node000002"><a xlink:title=" ">
<path fill="none" stroke="#63b8ff" d="M73.5,-115.59C73.5,-106.67 73.5,-98.1 73.5,-90.21"/>
<polygon fill="none" stroke="#63b8ff" points="70,-115.79 73.5,-125.79 77,-115.79 70,-115.79"/>
</a>
</g>
</g>
</g>
</svg>
</svg>

<style type='text/css'>
<![CDATA[
[data-mouse-over-selected='false'] { opacity: 0.7; }
[data-mouse-over-selected='true']  { opacity: 1.0; }
]]>
</style>
<script type="application/ecmascript"><![CDATA[
document.addEventListener('DOMContentLoaded', (event) => {
  highlightEdges();
  highlightAdjacentNodes();
});
]]></script>
</svg>
