<?xml version="1.0" encoding="UTF-8" standalone="no"?>
<!DOCTYPE svg PUBLIC "-//W3C//DTD SVG 1.1//EN"
 "http://www.w3.org/Graphics/SVG/1.1/DTD/svg11.dtd">
<!-- Generated by graphviz version 2.49.3 (0)
 -->
<!-- Title: vanetza::geonet::GucDataRequest Pages: 1 -->
<svg width="150pt" height="354pt"
 viewBox="0.00 0.00 150.00 354.00" xmlns="http://www.w3.org/2000/svg" xmlns:xlink="http://www.w3.org/1999/xlink">
<g id="graph0" class="graph" transform="scale(1 1) rotate(0) translate(4 350)">
<title>vanetza::geonet::GucDataRequest</title>
<!-- Node1 -->
<g id="Node000001" class="node">
<title>Node1</title>
<g id="a_Node000001"><a xlink:title=" ">
<polygon fill="#999999" stroke="transparent" points="133,-60 9,-60 9,0 133,0 133,-60"/>
<text text-anchor="start" x="14" y="-48" font-family="Helvetica,sans-Serif" font-size="10.00">vanetza::geonet::GucData</text>
<text text-anchor="start" x="52.5" y="-37" font-family="Helvetica,sans-Serif" font-size="10.00">Request</text>
<text text-anchor="start" x="69" y="-22" font-family="Helvetica,sans-Serif" font-size="10.00"> </text>
<text text-anchor="start" x="69" y="-7" font-family="Helvetica,sans-Serif" font-size="10.00"> </text>
<polygon fill="#666666" stroke="#666666" points="9,-32 9,-32 133,-32 133,-32 9,-32"/>
<polygon fill="#666666" stroke="#666666" points="9,-17 9,-17 133,-17 133,-17 9,-17"/>
<polygon fill="none" stroke="#666666" points="9,0 9,-60 133,-60 133,0 9,0"/>
</a>
</g>
</g>
<!-- Node2 -->
<g id="Node000002" class="node">
<title>Node2</title>
<g id="a_Node000002"><a xlink:href="../../d4/d96/structvanetza_1_1geonet_1_1DataRequestWithAddress.html" target="_top" xlink:title=" ">
<polygon fill="white" stroke="transparent" points="142,-156 0,-156 0,-96 142,-96 142,-156"/>
<text text-anchor="start" x="5" y="-144" font-family="Helvetica,sans-Serif" font-size="10.00">vanetza::geonet::DataRequest</text>
<text text-anchor="start" x="42.5" y="-133" font-family="Helvetica,sans-Serif" font-size="10.00">WithAddress</text>
<text text-anchor="start" x="18.5" y="-118" font-family="Helvetica,sans-Serif" font-size="10.00">+</text>
<text text-anchor="start" x="44" y="-118" font-family="Helvetica,sans-Serif" font-size="10.00">destination</text>
<text text-anchor="start" x="18.5" y="-103" font-family="Helvetica,sans-Serif" font-size="10.00">+</text>
<text text-anchor="start" x="44" y="-103" font-family="Helvetica,sans-Serif" font-size="10.00">DataRequest()</text>
<polygon fill="#bfbfbf" stroke="#bfbfbf" points="0,-128 0,-128 142,-128 142,-128 0,-128"/>
<polygon fill="#bfbfbf" stroke="#bfbfbf" points="0,-113 0,-113 42,-113 42,-113 0,-113"/>
<polygon fill="#bfbfbf" stroke="#bfbfbf" points="42,-113 42,-113 142,-113 142,-113 42,-113"/>
<polygon fill="none" stroke="#bfbfbf" points="0,-96 0,-156 142,-156 142,-96 0,-96"/>
</a>
</g>
</g>
<!-- Node2&#45;&gt;Node1 -->
<g id="edge1_Node000001_Node000002" class="edge">
<title>Node2&#45;&gt;Node1</title>
<g id="a_edge1_Node000001_Node000002"><a xlink:title=" ">
<path fill="none" stroke="#63b8ff" d="M71,-85.63C71,-77.11 71,-68.25 71,-60.21"/>
<polygon fill="none" stroke="#63b8ff" points="67.5,-85.77 71,-95.77 74.5,-85.77 67.5,-85.77"/>
</a>
</g>
</g>
<!-- Node3 -->
<g id="Node000003" class="node">
<title>Node3</title>
<g id="a_Node000003"><a xlink:href="../../d1/d1f/structvanetza_1_1geonet_1_1DataRequest.html" target="_top" xlink:title=" ">
<polygon fill="white" stroke="transparent" points="142,-346 0,-346 0,-192 142,-192 142,-346"/>
<text text-anchor="start" x="5" y="-334" font-family="Helvetica,sans-Serif" font-size="10.00">vanetza::geonet::DataRequest</text>
<text text-anchor="start" x="10" y="-319" font-family="Helvetica,sans-Serif" font-size="10.00">+</text>
<text text-anchor="start" x="27" y="-319" font-family="Helvetica,sans-Serif" font-size="10.00">upper_protocol</text>
<text text-anchor="start" x="10" y="-304" font-family="Helvetica,sans-Serif" font-size="10.00">+</text>
<text text-anchor="start" x="27" y="-304" font-family="Helvetica,sans-Serif" font-size="10.00">communication_profile</text>
<text text-anchor="start" x="10" y="-289" font-family="Helvetica,sans-Serif" font-size="10.00">+</text>
<text text-anchor="start" x="27" y="-289" font-family="Helvetica,sans-Serif" font-size="10.00">its_aid</text>
<text text-anchor="start" x="10" y="-274" font-family="Helvetica,sans-Serif" font-size="10.00">+</text>
<text text-anchor="start" x="27" y="-274" font-family="Helvetica,sans-Serif" font-size="10.00">permissions</text>
<text text-anchor="start" x="10" y="-259" font-family="Helvetica,sans-Serif" font-size="10.00">+</text>
<text text-anchor="start" x="27" y="-259" font-family="Helvetica,sans-Serif" font-size="10.00">maximum_lifetime</text>
<text text-anchor="start" x="10" y="-244" font-family="Helvetica,sans-Serif" font-size="10.00">+</text>
<text text-anchor="start" x="27" y="-244" font-family="Helvetica,sans-Serif" font-size="10.00">repetition</text>
<text text-anchor="start" x="10" y="-229" font-family="Helvetica,sans-Serif" font-size="10.00">+</text>
<text text-anchor="start" x="27" y="-229" font-family="Helvetica,sans-Serif" font-size="10.00">max_hop_limit</text>
<text text-anchor="start" x="10" y="-214" font-family="Helvetica,sans-Serif" font-size="10.00">+</text>
<text text-anchor="start" x="27" y="-214" font-family="Helvetica,sans-Serif" font-size="10.00">traffic_class</text>
<text text-anchor="start" x="10" y="-199" font-family="Helvetica,sans-Serif" font-size="10.00">+</text>
<text text-anchor="start" x="27" y="-199" font-family="Helvetica,sans-Serif" font-size="10.00">DataRequest()</text>
<polygon fill="#bfbfbf" stroke="#bfbfbf" points="0,-329 0,-329 142,-329 142,-329 0,-329"/>
<polygon fill="#bfbfbf" stroke="#bfbfbf" points="0,-209 0,-209 25,-209 25,-209 0,-209"/>
<polygon fill="#bfbfbf" stroke="#bfbfbf" points="25,-209 25,-209 142,-209 142,-209 25,-209"/>
<polygon fill="none" stroke="#bfbfbf" points="0,-192 0,-346 142,-346 142,-192 0,-192"/>
</a>
</g>
</g>
<!-- Node3&#45;&gt;Node2 -->
<g id="edge2_Node000002_Node000003" class="edge">
<title>Node3&#45;&gt;Node2</title>
<g id="a_edge2_Node000002_Node000003"><a xlink:title=" ">
<path fill="none" stroke="#63b8ff" d="M71,-181.48C71,-172.52 71,-163.93 71,-156.32"/>
<polygon fill="none" stroke="#63b8ff" points="67.5,-181.72 71,-191.72 74.5,-181.72 67.5,-181.72"/>
</a>
</g>
</g>
</g>
</svg>
