<?xml version="1.0" encoding="UTF-8" standalone="no"?>
<!DOCTYPE svg PUBLIC "-//W3C//DTD SVG 1.1//EN"
 "http://www.w3.org/Graphics/SVG/1.1/DTD/svg11.dtd">
<!-- Generated by graphviz version 2.49.3 (0)
 -->
<!-- Title: vanetza::geonet::GucDataRequest Pages: 1 -->
<svg width="156pt" height="342pt"
 viewBox="0.00 0.00 156.00 342.00" xmlns="http://www.w3.org/2000/svg" xmlns:xlink="http://www.w3.org/1999/xlink">
<g id="graph0" class="graph" transform="scale(1 1) rotate(0) translate(4 338)">
<title>vanetza::geonet::GucDataRequest</title>
<!-- Node1 -->
<g id="node1" class="node">
<title>Node1</title>
<g id="a_node1"><a xlink:title=" ">
<polygon fill="#999999" stroke="#666666" points="9,-0.5 9,-68.5 139,-68.5 139,-0.5 9,-0.5"/>
<text text-anchor="start" x="17" y="-56.5" font-family="Helvetica,sans-Serif" font-size="10.00">vanetza::geonet::GucData</text>
<text text-anchor="middle" x="74" y="-45.5" font-family="Helvetica,sans-Serif" font-size="10.00">Request</text>
<polyline fill="none" stroke="#666666" points="9,-38.5 139,-38.5 "/>
<text text-anchor="middle" x="74" y="-26.5" font-family="Helvetica,sans-Serif" font-size="10.00"> </text>
<polyline fill="none" stroke="#666666" points="9,-19.5 139,-19.5 "/>
<text text-anchor="middle" x="74" y="-7.5" font-family="Helvetica,sans-Serif" font-size="10.00"> </text>
</a>
</g>
</g>
<!-- Node2 -->
<g id="node2" class="node">
<title>Node2</title>
<g id="a_node2"><a xlink:href="../../d4/d96/structvanetza_1_1geonet_1_1DataRequestWithAddress.html" target="_top" xlink:title=" ">
<polygon fill="white" stroke="#bfbfbf" points="0,-105.5 0,-173.5 148,-173.5 148,-105.5 0,-105.5"/>
<text text-anchor="start" x="8" y="-161.5" font-family="Helvetica,sans-Serif" font-size="10.00">vanetza::geonet::DataRequest</text>
<text text-anchor="middle" x="74" y="-150.5" font-family="Helvetica,sans-Serif" font-size="10.00">WithAddress</text>
<polyline fill="none" stroke="#bfbfbf" points="0,-143.5 148,-143.5 "/>
<text text-anchor="start" x="8" y="-131.5" font-family="Helvetica,sans-Serif" font-size="10.00">+ destination</text>
<polyline fill="none" stroke="#bfbfbf" points="0,-124.5 148,-124.5 "/>
<text text-anchor="start" x="8" y="-112.5" font-family="Helvetica,sans-Serif" font-size="10.00">+ DataRequest()</text>
</a>
</g>
</g>
<!-- Node2&#45;&gt;Node1 -->
<g id="edge1" class="edge">
<title>Node2&#45;&gt;Node1</title>
<path fill="none" stroke="#63b8ff" d="M74,-95.14C74,-86.26 74,-77.04 74,-68.59"/>
<polygon fill="none" stroke="#63b8ff" points="70.5,-95.34 74,-105.34 77.5,-95.34 70.5,-95.34"/>
</g>
<!-- Node3 -->
<g id="node3" class="node">
<title>Node3</title>
<g id="a_node3"><a xlink:href="../../d1/d1f/structvanetza_1_1geonet_1_1DataRequest.html" target="_top" xlink:title=" ">
<polygon fill="white" stroke="#bfbfbf" points="0,-210.5 0,-333.5 148,-333.5 148,-210.5 0,-210.5"/>
<text text-anchor="middle" x="74" y="-321.5" font-family="Helvetica,sans-Serif" font-size="10.00">vanetza::geonet::DataRequest</text>
<polyline fill="none" stroke="#bfbfbf" points="0,-314.5 148,-314.5 "/>
<text text-anchor="start" x="8" y="-302.5" font-family="Helvetica,sans-Serif" font-size="10.00">+ upper_protocol</text>
<text text-anchor="start" x="8" y="-291.5" font-family="Helvetica,sans-Serif" font-size="10.00">+ communication_profile</text>
<text text-anchor="start" x="8" y="-280.5" font-family="Helvetica,sans-Serif" font-size="10.00">+ its_aid</text>
<text text-anchor="start" x="8" y="-269.5" font-family="Helvetica,sans-Serif" font-size="10.00">+ maximum_lifetime</text>
<text text-anchor="start" x="8" y="-258.5" font-family="Helvetica,sans-Serif" font-size="10.00">+ repetition</text>
<text text-anchor="start" x="8" y="-247.5" font-family="Helvetica,sans-Serif" font-size="10.00">+ max_hop_limit</text>
<text text-anchor="start" x="8" y="-236.5" font-family="Helvetica,sans-Serif" font-size="10.00">+ traffic_class</text>
<polyline fill="none" stroke="#bfbfbf" points="0,-229.5 148,-229.5 "/>
<text text-anchor="start" x="8" y="-217.5" font-family="Helvetica,sans-Serif" font-size="10.00">+ DataRequest()</text>
</a>
</g>
</g>
<!-- Node3&#45;&gt;Node2 -->
<g id="edge2" class="edge">
<title>Node3&#45;&gt;Node2</title>
<path fill="none" stroke="#63b8ff" d="M74,-200.24C74,-190.97 74,-181.84 74,-173.62"/>
<polygon fill="none" stroke="#63b8ff" points="70.5,-200.33 74,-210.33 77.5,-200.33 70.5,-200.33"/>
</g>
</g>
</svg>
