<?xml version="1.0" encoding="UTF-8" standalone="no"?>
<!DOCTYPE svg PUBLIC "-//W3C//DTD SVG 1.1//EN"
 "http://www.w3.org/Graphics/SVG/1.1/DTD/svg11.dtd">
<!-- Generated by graphviz version 2.42.1 (0)
 -->
<!-- Title: vanetza::Hook&lt; Args &gt; Pages: 1 -->
<svg width="1180pt" height="303pt"
 viewBox="0.00 0.00 1179.50 303.00" xmlns="http://www.w3.org/2000/svg" xmlns:xlink="http://www.w3.org/1999/xlink">
<g id="graph0" class="graph" transform="scale(1 1) rotate(0) translate(4 299)">
<title>vanetza::Hook&lt; Args &gt;</title>
<polygon fill="white" stroke="transparent" points="-4,4 -4,-299 1175.5,-299 1175.5,4 -4,4"/>
<!-- Node0 -->
<g id="node1" class="node">
<title>Node0</title>
<g id="a_node1"><a xlink:title=" ">
<polygon fill="#bfbfbf" stroke="black" points="534.5,-193.5 534.5,-294.5 652.5,-294.5 652.5,-193.5 534.5,-193.5"/>
<text text-anchor="middle" x="593.5" y="-282.5" font-family="Helvetica,sans-Serif" font-size="10.00">vanetza::Hook&lt; Args &gt;</text>
<polyline fill="none" stroke="black" points="534.5,-275.5 652.5,-275.5 "/>
<text text-anchor="start" x="542.5" y="-263.5" font-family="Helvetica,sans-Serif" font-size="10.00">&#45; m_function</text>
<polyline fill="none" stroke="black" points="534.5,-256.5 652.5,-256.5 "/>
<text text-anchor="start" x="542.5" y="-244.5" font-family="Helvetica,sans-Serif" font-size="10.00">+ operator=()</text>
<text text-anchor="start" x="542.5" y="-233.5" font-family="Helvetica,sans-Serif" font-size="10.00">+ operator=()</text>
<text text-anchor="start" x="542.5" y="-222.5" font-family="Helvetica,sans-Serif" font-size="10.00">+ operator()()</text>
<text text-anchor="start" x="542.5" y="-211.5" font-family="Helvetica,sans-Serif" font-size="10.00">+ reset()</text>
<text text-anchor="start" x="542.5" y="-200.5" font-family="Helvetica,sans-Serif" font-size="10.00">+ clear()</text>
</a>
</g>
</g>
<!-- Node1 -->
<g id="node2" class="node">
<title>Node1</title>
<g id="a_node2"><a xlink:href="../../d7/d3f/classvanetza_1_1Hook.html" target="_top" xlink:title=" ">
<polygon fill="white" stroke="black" points="0,-6 0,-118 137,-118 137,-6 0,-6"/>
<text text-anchor="start" x="8" y="-106" font-family="Helvetica,sans-Serif" font-size="10.00">vanetza::Hook&lt; Forwarding</text>
<text text-anchor="middle" x="68.5" y="-95" font-family="Helvetica,sans-Serif" font-size="10.00">StopReason &gt;</text>
<polyline fill="none" stroke="black" points="0,-88 137,-88 "/>
<text text-anchor="start" x="8" y="-76" font-family="Helvetica,sans-Serif" font-size="10.00">&#45; m_function</text>
<polyline fill="none" stroke="black" points="0,-69 137,-69 "/>
<text text-anchor="start" x="8" y="-57" font-family="Helvetica,sans-Serif" font-size="10.00">+ operator=()</text>
<text text-anchor="start" x="8" y="-46" font-family="Helvetica,sans-Serif" font-size="10.00">+ operator=()</text>
<text text-anchor="start" x="8" y="-35" font-family="Helvetica,sans-Serif" font-size="10.00">+ operator()()</text>
<text text-anchor="start" x="8" y="-24" font-family="Helvetica,sans-Serif" font-size="10.00">+ reset()</text>
<text text-anchor="start" x="8" y="-13" font-family="Helvetica,sans-Serif" font-size="10.00">+ clear()</text>
</a>
</g>
</g>
<!-- Node0&#45;&gt;Node1 -->
<g id="edge1" class="edge">
<title>Node0&#45;&gt;Node1</title>
<path fill="none" stroke="orange" d="M524.11,-237.83C418.9,-229.03 224.86,-208.74 164.5,-175 140.25,-161.44 119.31,-139.26 103.23,-118.2"/>
<polygon fill="orange" stroke="orange" points="524.07,-241.34 534.32,-238.68 524.64,-234.37 524.07,-241.34"/>
<text text-anchor="middle" x="226.5" y="-156" font-family="Helvetica,sans-Serif" font-size="10.00"> &lt; ForwardingStopReason &gt;</text>
</g>
<!-- Node2 -->
<g id="node3" class="node">
<title>Node2</title>
<g id="a_node3"><a xlink:href="../../d7/d3f/classvanetza_1_1Hook.html" target="_top" xlink:title=" ">
<polygon fill="white" stroke="black" points="155.5,-0.5 155.5,-123.5 353.5,-123.5 353.5,-0.5 155.5,-0.5"/>
<text text-anchor="start" x="163.5" y="-111.5" font-family="Helvetica,sans-Serif" font-size="10.00">vanetza::Hook&lt; const</text>
<text text-anchor="start" x="163.5" y="-100.5" font-family="Helvetica,sans-Serif" font-size="10.00"> vanetza::geonet::DataIndication</text>
<text text-anchor="middle" x="254.5" y="-89.5" font-family="Helvetica,sans-Serif" font-size="10.00"> &amp;, const vanetza::btp::DataIndication * &gt;</text>
<polyline fill="none" stroke="black" points="155.5,-82.5 353.5,-82.5 "/>
<text text-anchor="start" x="163.5" y="-70.5" font-family="Helvetica,sans-Serif" font-size="10.00">&#45; m_function</text>
<polyline fill="none" stroke="black" points="155.5,-63.5 353.5,-63.5 "/>
<text text-anchor="start" x="163.5" y="-51.5" font-family="Helvetica,sans-Serif" font-size="10.00">+ operator=()</text>
<text text-anchor="start" x="163.5" y="-40.5" font-family="Helvetica,sans-Serif" font-size="10.00">+ operator=()</text>
<text text-anchor="start" x="163.5" y="-29.5" font-family="Helvetica,sans-Serif" font-size="10.00">+ operator()()</text>
<text text-anchor="start" x="163.5" y="-18.5" font-family="Helvetica,sans-Serif" font-size="10.00">+ reset()</text>
<text text-anchor="start" x="163.5" y="-7.5" font-family="Helvetica,sans-Serif" font-size="10.00">+ clear()</text>
</a>
</g>
</g>
<!-- Node0&#45;&gt;Node2 -->
<g id="edge2" class="edge">
<title>Node0&#45;&gt;Node2</title>
<path fill="none" stroke="orange" d="M524.35,-240.43C465.04,-235.05 379.98,-219.4 320.5,-175 302.96,-161.9 289.23,-142.65 278.95,-123.79"/>
<polygon fill="orange" stroke="orange" points="524.12,-243.93 534.38,-241.27 524.7,-236.95 524.12,-243.93"/>
<text text-anchor="start" x="320.5" y="-167" font-family="Helvetica,sans-Serif" font-size="10.00"> &lt; const vanetza::geonet</text>
<text text-anchor="start" x="320.5" y="-156" font-family="Helvetica,sans-Serif" font-size="10.00">::DataIndication &amp;, const</text>
<text text-anchor="middle" x="391.5" y="-145" font-family="Helvetica,sans-Serif" font-size="10.00"> vanetza::btp::DataIndication * &gt;</text>
</g>
<!-- Node3 -->
<g id="node4" class="node">
<title>Node3</title>
<g id="a_node4"><a xlink:href="../../d7/d3f/classvanetza_1_1Hook.html" target="_top" xlink:title=" ">
<polygon fill="white" stroke="black" points="372,-0.5 372,-123.5 487,-123.5 487,-0.5 372,-0.5"/>
<text text-anchor="start" x="380" y="-111.5" font-family="Helvetica,sans-Serif" font-size="10.00">vanetza::Hook&lt; const</text>
<text text-anchor="start" x="380" y="-100.5" font-family="Helvetica,sans-Serif" font-size="10.00"> vanetza::dcc::Limeric</text>
<text text-anchor="middle" x="429.5" y="-89.5" font-family="Helvetica,sans-Serif" font-size="10.00"> *, Clock::time_point &gt;</text>
<polyline fill="none" stroke="black" points="372,-82.5 487,-82.5 "/>
<text text-anchor="start" x="380" y="-70.5" font-family="Helvetica,sans-Serif" font-size="10.00">&#45; m_function</text>
<polyline fill="none" stroke="black" points="372,-63.5 487,-63.5 "/>
<text text-anchor="start" x="380" y="-51.5" font-family="Helvetica,sans-Serif" font-size="10.00">+ operator=()</text>
<text text-anchor="start" x="380" y="-40.5" font-family="Helvetica,sans-Serif" font-size="10.00">+ operator=()</text>
<text text-anchor="start" x="380" y="-29.5" font-family="Helvetica,sans-Serif" font-size="10.00">+ operator()()</text>
<text text-anchor="start" x="380" y="-18.5" font-family="Helvetica,sans-Serif" font-size="10.00">+ reset()</text>
<text text-anchor="start" x="380" y="-7.5" font-family="Helvetica,sans-Serif" font-size="10.00">+ clear()</text>
</a>
</g>
</g>
<!-- Node0&#45;&gt;Node3 -->
<g id="edge3" class="edge">
<title>Node0&#45;&gt;Node3</title>
<path fill="none" stroke="orange" d="M526.03,-206.64C512.58,-197.46 499.3,-186.82 488.5,-175 474.86,-160.08 463.4,-141.41 454.32,-123.63"/>
<polygon fill="orange" stroke="orange" points="524.12,-209.57 534.4,-212.16 527.97,-203.73 524.12,-209.57"/>
<text text-anchor="start" x="488.5" y="-167" font-family="Helvetica,sans-Serif" font-size="10.00"> &lt; const vanetza::dcc</text>
<text text-anchor="start" x="488.5" y="-156" font-family="Helvetica,sans-Serif" font-size="10.00">::Limeric *, Clock::time</text>
<text text-anchor="middle" x="539" y="-145" font-family="Helvetica,sans-Serif" font-size="10.00">_point &gt;</text>
</g>
<!-- Node4 -->
<g id="node5" class="node">
<title>Node4</title>
<g id="a_node5"><a xlink:href="../../d7/d3f/classvanetza_1_1Hook.html" target="_top" xlink:title=" ">
<polygon fill="white" stroke="black" points="505,-6 505,-118 682,-118 682,-6 505,-6"/>
<text text-anchor="start" x="513" y="-106" font-family="Helvetica,sans-Serif" font-size="10.00">vanetza::Hook&lt; const</text>
<text text-anchor="middle" x="593.5" y="-95" font-family="Helvetica,sans-Serif" font-size="10.00"> vanetza::geonet::CbrAggregator &amp; &gt;</text>
<polyline fill="none" stroke="black" points="505,-88 682,-88 "/>
<text text-anchor="start" x="513" y="-76" font-family="Helvetica,sans-Serif" font-size="10.00">&#45; m_function</text>
<polyline fill="none" stroke="black" points="505,-69 682,-69 "/>
<text text-anchor="start" x="513" y="-57" font-family="Helvetica,sans-Serif" font-size="10.00">+ operator=()</text>
<text text-anchor="start" x="513" y="-46" font-family="Helvetica,sans-Serif" font-size="10.00">+ operator=()</text>
<text text-anchor="start" x="513" y="-35" font-family="Helvetica,sans-Serif" font-size="10.00">+ operator()()</text>
<text text-anchor="start" x="513" y="-24" font-family="Helvetica,sans-Serif" font-size="10.00">+ reset()</text>
<text text-anchor="start" x="513" y="-13" font-family="Helvetica,sans-Serif" font-size="10.00">+ clear()</text>
</a>
</g>
</g>
<!-- Node0&#45;&gt;Node4 -->
<g id="edge4" class="edge">
<title>Node0&#45;&gt;Node4</title>
<path fill="none" stroke="orange" d="M593.5,-183.26C593.5,-162.27 593.5,-138.8 593.5,-118.2"/>
<polygon fill="orange" stroke="orange" points="590,-183.34 593.5,-193.34 597,-183.34 590,-183.34"/>
<text text-anchor="start" x="593.5" y="-161.5" font-family="Helvetica,sans-Serif" font-size="10.00"> &lt; const vanetza::geonet</text>
<text text-anchor="middle" x="648" y="-150.5" font-family="Helvetica,sans-Serif" font-size="10.00">::CbrAggregator &amp; &gt;</text>
</g>
<!-- Node5 -->
<g id="node6" class="node">
<title>Node5</title>
<g id="a_node6"><a xlink:href="../../d7/d3f/classvanetza_1_1Hook.html" target="_top" xlink:title=" ">
<polygon fill="white" stroke="black" points="700,-6 700,-118 841,-118 841,-6 700,-6"/>
<text text-anchor="start" x="708" y="-106" font-family="Helvetica,sans-Serif" font-size="10.00">vanetza::Hook&lt; PacketDrop</text>
<text text-anchor="middle" x="770.5" y="-95" font-family="Helvetica,sans-Serif" font-size="10.00">Reason &gt;</text>
<polyline fill="none" stroke="black" points="700,-88 841,-88 "/>
<text text-anchor="start" x="708" y="-76" font-family="Helvetica,sans-Serif" font-size="10.00">&#45; m_function</text>
<polyline fill="none" stroke="black" points="700,-69 841,-69 "/>
<text text-anchor="start" x="708" y="-57" font-family="Helvetica,sans-Serif" font-size="10.00">+ operator=()</text>
<text text-anchor="start" x="708" y="-46" font-family="Helvetica,sans-Serif" font-size="10.00">+ operator=()</text>
<text text-anchor="start" x="708" y="-35" font-family="Helvetica,sans-Serif" font-size="10.00">+ operator()()</text>
<text text-anchor="start" x="708" y="-24" font-family="Helvetica,sans-Serif" font-size="10.00">+ reset()</text>
<text text-anchor="start" x="708" y="-13" font-family="Helvetica,sans-Serif" font-size="10.00">+ clear()</text>
</a>
</g>
</g>
<!-- Node0&#45;&gt;Node5 -->
<g id="edge5" class="edge">
<title>Node0&#45;&gt;Node5</title>
<path fill="none" stroke="orange" d="M661.54,-209.71C677.46,-199.94 693.53,-188.26 706.5,-175 722.47,-158.67 735.87,-137.57 746.22,-118.1"/>
<polygon fill="orange" stroke="orange" points="659.55,-206.82 652.74,-214.93 663.12,-212.84 659.55,-206.82"/>
<text text-anchor="middle" x="785" y="-156" font-family="Helvetica,sans-Serif" font-size="10.00"> &lt; PacketDropReason &gt;</text>
</g>
<!-- Node6 -->
<g id="node7" class="node">
<title>Node6</title>
<g id="a_node7"><a xlink:href="../../d7/d3f/classvanetza_1_1Hook.html" target="_top" xlink:title=" ">
<polygon fill="white" stroke="black" points="859.5,-6 859.5,-118 983.5,-118 983.5,-6 859.5,-6"/>
<text text-anchor="start" x="867.5" y="-106" font-family="Helvetica,sans-Serif" font-size="10.00">vanetza::Hook&lt; vanetza</text>
<text text-anchor="middle" x="921.5" y="-95" font-family="Helvetica,sans-Serif" font-size="10.00">::dcc::ChannelLoad &gt;</text>
<polyline fill="none" stroke="black" points="859.5,-88 983.5,-88 "/>
<text text-anchor="start" x="867.5" y="-76" font-family="Helvetica,sans-Serif" font-size="10.00">&#45; m_function</text>
<polyline fill="none" stroke="black" points="859.5,-69 983.5,-69 "/>
<text text-anchor="start" x="867.5" y="-57" font-family="Helvetica,sans-Serif" font-size="10.00">+ operator=()</text>
<text text-anchor="start" x="867.5" y="-46" font-family="Helvetica,sans-Serif" font-size="10.00">+ operator=()</text>
<text text-anchor="start" x="867.5" y="-35" font-family="Helvetica,sans-Serif" font-size="10.00">+ operator()()</text>
<text text-anchor="start" x="867.5" y="-24" font-family="Helvetica,sans-Serif" font-size="10.00">+ reset()</text>
<text text-anchor="start" x="867.5" y="-13" font-family="Helvetica,sans-Serif" font-size="10.00">+ clear()</text>
</a>
</g>
</g>
<!-- Node0&#45;&gt;Node6 -->
<g id="edge6" class="edge">
<title>Node0&#45;&gt;Node6</title>
<path fill="none" stroke="orange" d="M662.66,-236.87C715.86,-229.31 789.07,-212.46 842.5,-175 863.25,-160.45 880.41,-138.62 893.37,-118.09"/>
<polygon fill="orange" stroke="orange" points="662.08,-233.42 652.64,-238.22 663.01,-240.35 662.08,-233.42"/>
<text text-anchor="middle" x="946" y="-156" font-family="Helvetica,sans-Serif" font-size="10.00"> &lt; vanetza::dcc::ChannelLoad &gt;</text>
</g>
<!-- Node7 -->
<g id="node8" class="node">
<title>Node7</title>
<g id="a_node8"><a xlink:href="../../d7/d3f/classvanetza_1_1Hook.html" target="_top" xlink:title=" ">
<polygon fill="white" stroke="black" points="1012.5,-0.5 1012.5,-123.5 1136.5,-123.5 1136.5,-0.5 1012.5,-0.5"/>
<text text-anchor="start" x="1020.5" y="-111.5" font-family="Helvetica,sans-Serif" font-size="10.00">vanetza::Hook&lt; access</text>
<text text-anchor="start" x="1020.5" y="-100.5" font-family="Helvetica,sans-Serif" font-size="10.00">::AccessCategory, const</text>
<text text-anchor="middle" x="1074.5" y="-89.5" font-family="Helvetica,sans-Serif" font-size="10.00"> ChunkPacket * &gt;</text>
<polyline fill="none" stroke="black" points="1012.5,-82.5 1136.5,-82.5 "/>
<text text-anchor="start" x="1020.5" y="-70.5" font-family="Helvetica,sans-Serif" font-size="10.00">&#45; m_function</text>
<polyline fill="none" stroke="black" points="1012.5,-63.5 1136.5,-63.5 "/>
<text text-anchor="start" x="1020.5" y="-51.5" font-family="Helvetica,sans-Serif" font-size="10.00">+ operator=()</text>
<text text-anchor="start" x="1020.5" y="-40.5" font-family="Helvetica,sans-Serif" font-size="10.00">+ operator=()</text>
<text text-anchor="start" x="1020.5" y="-29.5" font-family="Helvetica,sans-Serif" font-size="10.00">+ operator()()</text>
<text text-anchor="start" x="1020.5" y="-18.5" font-family="Helvetica,sans-Serif" font-size="10.00">+ reset()</text>
<text text-anchor="start" x="1020.5" y="-7.5" font-family="Helvetica,sans-Serif" font-size="10.00">+ clear()</text>
</a>
</g>
</g>
<!-- Node0&#45;&gt;Node7 -->
<g id="edge7" class="edge">
<title>Node0&#45;&gt;Node7</title>
<path fill="none" stroke="orange" d="M662.9,-239.66C769.01,-233.3 965.13,-216.2 1020.5,-175 1037.56,-162.31 1049.48,-142.8 1057.7,-123.6"/>
<polygon fill="orange" stroke="orange" points="662.38,-236.18 652.6,-240.26 662.79,-243.17 662.38,-236.18"/>
<text text-anchor="start" x="1047.5" y="-161.5" font-family="Helvetica,sans-Serif" font-size="10.00"> &lt; access::AccessCategory,</text>
<text text-anchor="middle" x="1109.5" y="-150.5" font-family="Helvetica,sans-Serif" font-size="10.00"> const ChunkPacket * &gt;</text>
</g>
</g>
</svg>
