<?xml version="1.0" encoding="UTF-8" standalone="no"?>
<!DOCTYPE svg PUBLIC "-//W3C//DTD SVG 1.1//EN"
 "http://www.w3.org/Graphics/SVG/1.1/DTD/svg11.dtd">
<!-- Generated by graphviz version 2.49.3 (0)
 -->
<!-- Title: vanetza::Hook&lt; Args &gt; Pages: 1 -->
<svg width="1275pt" height="331pt"
 viewBox="0.00 0.00 1274.50 331.00" xmlns="http://www.w3.org/2000/svg" xmlns:xlink="http://www.w3.org/1999/xlink">
<g id="graph0" class="graph" transform="scale(1 1) rotate(0) translate(4 327)">
<title>vanetza::Hook&lt; Args &gt;</title>
<!-- Node1 -->
<g id="Node000001" class="node">
<title>Node1</title>
<g id="a_Node000001"><a xlink:title=" ">
<polygon fill="#999999" stroke="transparent" points="684.5,-323 572.5,-323 572.5,-214 684.5,-214 684.5,-323"/>
<text text-anchor="start" x="577.5" y="-310.5" font-family="Helvetica,sans-Serif" font-size="10.00">vanetza::Hook&lt; Args &gt;</text>
<text text-anchor="start" x="589" y="-295.5" font-family="Helvetica,sans-Serif" font-size="10.00">&#45;</text>
<text text-anchor="start" x="609.5" y="-295.5" font-family="Helvetica,sans-Serif" font-size="10.00">m_function</text>
<text text-anchor="start" x="587.5" y="-280.5" font-family="Helvetica,sans-Serif" font-size="10.00">+</text>
<text text-anchor="start" x="609.5" y="-280.5" font-family="Helvetica,sans-Serif" font-size="10.00">operator=()</text>
<text text-anchor="start" x="587.5" y="-265.5" font-family="Helvetica,sans-Serif" font-size="10.00">+</text>
<text text-anchor="start" x="609.5" y="-265.5" font-family="Helvetica,sans-Serif" font-size="10.00">operator=()</text>
<text text-anchor="start" x="587.5" y="-250.5" font-family="Helvetica,sans-Serif" font-size="10.00">+</text>
<text text-anchor="start" x="609.5" y="-250.5" font-family="Helvetica,sans-Serif" font-size="10.00">operator()()</text>
<text text-anchor="start" x="587.5" y="-235.5" font-family="Helvetica,sans-Serif" font-size="10.00">+</text>
<text text-anchor="start" x="609.5" y="-235.5" font-family="Helvetica,sans-Serif" font-size="10.00">reset()</text>
<text text-anchor="start" x="587.5" y="-220.5" font-family="Helvetica,sans-Serif" font-size="10.00">+</text>
<text text-anchor="start" x="609.5" y="-220.5" font-family="Helvetica,sans-Serif" font-size="10.00">clear()</text>
<polygon fill="#666666" stroke="#666666" points="572.5,-305.5 572.5,-305.5 684.5,-305.5 684.5,-305.5 572.5,-305.5"/>
<polygon fill="#666666" stroke="#666666" points="572.5,-290.5 572.5,-290.5 607.5,-290.5 607.5,-290.5 572.5,-290.5"/>
<polygon fill="#666666" stroke="#666666" points="607.5,-290.5 607.5,-290.5 684.5,-290.5 684.5,-290.5 607.5,-290.5"/>
<polygon fill="none" stroke="#666666" points="572.5,-214 572.5,-323 684.5,-323 684.5,-214 572.5,-214"/>
</a>
</g>
</g>
<!-- Node2 -->
<g id="Node000002" class="node">
<title>Node2</title>
<g id="a_Node000002"><a xlink:href="../../d7/d3f/classvanetza_1_1Hook.html" target="_top" xlink:title=" ">
<polygon fill="white" stroke="transparent" points="121,-120 0,-120 0,-11 121,-11 121,-120"/>
<text text-anchor="start" x="5.5" y="-107.5" font-family="Helvetica,sans-Serif" font-size="10.00">vanetza::Hook&lt; Args... &gt;</text>
<text text-anchor="start" x="19" y="-92.5" font-family="Helvetica,sans-Serif" font-size="10.00">&#45;</text>
<text text-anchor="start" x="41.5" y="-92.5" font-family="Helvetica,sans-Serif" font-size="10.00">m_function</text>
<text text-anchor="start" x="17.5" y="-77.5" font-family="Helvetica,sans-Serif" font-size="10.00">+</text>
<text text-anchor="start" x="41.5" y="-77.5" font-family="Helvetica,sans-Serif" font-size="10.00">operator=()</text>
<text text-anchor="start" x="17.5" y="-62.5" font-family="Helvetica,sans-Serif" font-size="10.00">+</text>
<text text-anchor="start" x="41.5" y="-62.5" font-family="Helvetica,sans-Serif" font-size="10.00">operator=()</text>
<text text-anchor="start" x="17.5" y="-47.5" font-family="Helvetica,sans-Serif" font-size="10.00">+</text>
<text text-anchor="start" x="41.5" y="-47.5" font-family="Helvetica,sans-Serif" font-size="10.00">operator()()</text>
<text text-anchor="start" x="17.5" y="-32.5" font-family="Helvetica,sans-Serif" font-size="10.00">+</text>
<text text-anchor="start" x="41.5" y="-32.5" font-family="Helvetica,sans-Serif" font-size="10.00">reset()</text>
<text text-anchor="start" x="17.5" y="-17.5" font-family="Helvetica,sans-Serif" font-size="10.00">+</text>
<text text-anchor="start" x="41.5" y="-17.5" font-family="Helvetica,sans-Serif" font-size="10.00">clear()</text>
<polygon fill="#666666" stroke="#666666" points="0.5,-102.5 0.5,-102.5 121.5,-102.5 121.5,-102.5 0.5,-102.5"/>
<polygon fill="#666666" stroke="#666666" points="0.5,-87.5 0.5,-87.5 39.5,-87.5 39.5,-87.5 0.5,-87.5"/>
<polygon fill="#666666" stroke="#666666" points="39.5,-87.5 39.5,-87.5 121.5,-87.5 121.5,-87.5 39.5,-87.5"/>
<polygon fill="none" stroke="#666666" points="0,-11 0,-120 121,-120 121,-11 0,-11"/>
</a>
</g>
</g>
<!-- Node1&#45;&gt;Node2 -->
<g id="edge1_Node000001_Node000002" class="edge">
<title>Node1&#45;&gt;Node2</title>
<g id="a_edge1_Node000001_Node000002"><a xlink:title=" ">
<path fill="none" stroke="orange" d="M562.14,-264.39C446.15,-257.88 212.4,-239.62 144.5,-196 116.65,-178.11 96.13,-147.34 82.34,-120.29"/>
<polygon fill="orange" stroke="orange" points="562.14,-267.9 572.32,-264.95 562.52,-260.91 562.14,-267.9"/>
</a>
</g>
<text text-anchor="start" x="147.5" y="-169.5" font-family="Helvetica,sans-Serif" font-size="10.00" fill="grey">&lt; Args... &gt;</text>
</g>
<!-- Node3 -->
<g id="Node000003" class="node">
<title>Node3</title>
<g id="a_Node000003"><a xlink:href="../../d7/d3f/classvanetza_1_1Hook.html" target="_top" xlink:title=" ">
<polygon fill="white" stroke="transparent" points="258,-131 139,-131 139,0 258,0 258,-131"/>
<text text-anchor="start" x="144.5" y="-118.5" font-family="Helvetica,sans-Serif" font-size="10.00">vanetza::Hook&lt; access</text>
<text text-anchor="start" x="144.5" y="-107.5" font-family="Helvetica,sans-Serif" font-size="10.00">::AccessCategory, const</text>
<text text-anchor="start" x="160" y="-96.5" font-family="Helvetica,sans-Serif" font-size="10.00"> ChunkPacket * &gt;</text>
<text text-anchor="start" x="157.5" y="-81.5" font-family="Helvetica,sans-Serif" font-size="10.00">&#45;</text>
<text text-anchor="start" x="179.5" y="-81.5" font-family="Helvetica,sans-Serif" font-size="10.00">m_function</text>
<text text-anchor="start" x="156" y="-66.5" font-family="Helvetica,sans-Serif" font-size="10.00">+</text>
<text text-anchor="start" x="179.5" y="-66.5" font-family="Helvetica,sans-Serif" font-size="10.00">operator=()</text>
<text text-anchor="start" x="156" y="-51.5" font-family="Helvetica,sans-Serif" font-size="10.00">+</text>
<text text-anchor="start" x="179.5" y="-51.5" font-family="Helvetica,sans-Serif" font-size="10.00">operator=()</text>
<text text-anchor="start" x="156" y="-36.5" font-family="Helvetica,sans-Serif" font-size="10.00">+</text>
<text text-anchor="start" x="179.5" y="-36.5" font-family="Helvetica,sans-Serif" font-size="10.00">operator()()</text>
<text text-anchor="start" x="156" y="-21.5" font-family="Helvetica,sans-Serif" font-size="10.00">+</text>
<text text-anchor="start" x="179.5" y="-21.5" font-family="Helvetica,sans-Serif" font-size="10.00">reset()</text>
<text text-anchor="start" x="156" y="-6.5" font-family="Helvetica,sans-Serif" font-size="10.00">+</text>
<text text-anchor="start" x="179.5" y="-6.5" font-family="Helvetica,sans-Serif" font-size="10.00">clear()</text>
<polygon fill="#666666" stroke="#666666" points="139.5,-91.5 139.5,-91.5 258.5,-91.5 258.5,-91.5 139.5,-91.5"/>
<polygon fill="#666666" stroke="#666666" points="139.5,-76.5 139.5,-76.5 177.5,-76.5 177.5,-76.5 139.5,-76.5"/>
<polygon fill="#666666" stroke="#666666" points="177.5,-76.5 177.5,-76.5 258.5,-76.5 258.5,-76.5 177.5,-76.5"/>
<polygon fill="none" stroke="#666666" points="139,0 139,-131 258,-131 258,0 139,0"/>
</a>
</g>
</g>
<!-- Node1&#45;&gt;Node3 -->
<g id="edge2_Node000001_Node000003" class="edge">
<title>Node1&#45;&gt;Node3</title>
<g id="a_edge2_Node000001_Node000003"><a xlink:title=" ">
<path fill="none" stroke="orange" d="M562.02,-264.45C460.45,-258.38 273.44,-241.24 226.5,-196 209.11,-179.24 201.27,-154.44 198.08,-131.02"/>
<polygon fill="orange" stroke="orange" points="561.99,-267.95 572.18,-265.03 562.39,-260.96 561.99,-267.95"/>
</a>
</g>
<text text-anchor="start" x="230" y="-177.5" font-family="Helvetica,sans-Serif" font-size="10.00" fill="grey">&lt; access::AccessCategory,</text>
<text text-anchor="start" x="230" y="-162.5" font-family="Helvetica,sans-Serif" font-size="10.00" fill="grey">   const ChunkPacket * &gt;</text>
</g>
<!-- Node4 -->
<g id="Node000004" class="node">
<title>Node4</title>
<g id="a_Node000004"><a xlink:href="../../d7/d3f/classvanetza_1_1Hook.html" target="_top" xlink:title=" ">
<polygon fill="white" stroke="transparent" points="467,-123.5 276,-123.5 276,-7.5 467,-7.5 467,-123.5"/>
<text text-anchor="start" x="281.5" y="-111.5" font-family="Helvetica,sans-Serif" font-size="10.00">vanetza::Hook&lt; const</text>
<text text-anchor="start" x="281.5" y="-100.5" font-family="Helvetica,sans-Serif" font-size="10.00"> vanetza::geonet::DataIndication</text>
<text text-anchor="start" x="281.5" y="-89.5" font-family="Helvetica,sans-Serif" font-size="10.00"> &amp;, const vanetza::btp::DataIndication * &gt;</text>
<text text-anchor="start" x="312.5" y="-74.5" font-family="Helvetica,sans-Serif" font-size="10.00">&#45;</text>
<text text-anchor="start" x="352.5" y="-74.5" font-family="Helvetica,sans-Serif" font-size="10.00">m_function</text>
<text text-anchor="start" x="311" y="-59.5" font-family="Helvetica,sans-Serif" font-size="10.00">+</text>
<text text-anchor="start" x="352.5" y="-59.5" font-family="Helvetica,sans-Serif" font-size="10.00">operator=()</text>
<text text-anchor="start" x="311" y="-44.5" font-family="Helvetica,sans-Serif" font-size="10.00">+</text>
<text text-anchor="start" x="352.5" y="-44.5" font-family="Helvetica,sans-Serif" font-size="10.00">operator()()</text>
<text text-anchor="start" x="311" y="-29.5" font-family="Helvetica,sans-Serif" font-size="10.00">+</text>
<text text-anchor="start" x="352.5" y="-29.5" font-family="Helvetica,sans-Serif" font-size="10.00">reset()</text>
<text text-anchor="start" x="311" y="-14.5" font-family="Helvetica,sans-Serif" font-size="10.00">+</text>
<text text-anchor="start" x="352.5" y="-14.5" font-family="Helvetica,sans-Serif" font-size="10.00">clear()</text>
<polygon fill="#666666" stroke="#666666" points="276.5,-84.5 276.5,-84.5 467.5,-84.5 467.5,-84.5 276.5,-84.5"/>
<polygon fill="#666666" stroke="#666666" points="276.5,-69.5 276.5,-69.5 350.5,-69.5 350.5,-69.5 276.5,-69.5"/>
<polygon fill="#666666" stroke="#666666" points="350.5,-69.5 350.5,-69.5 467.5,-69.5 467.5,-69.5 350.5,-69.5"/>
<polygon fill="none" stroke="#666666" points="276,-7.5 276,-123.5 467,-123.5 467,-7.5 276,-7.5"/>
</a>
</g>
</g>
<!-- Node1&#45;&gt;Node4 -->
<g id="edge3_Node000001_Node000004" class="edge">
<title>Node1&#45;&gt;Node4</title>
<g id="a_edge3_Node000001_Node000004"><a xlink:title=" ">
<path fill="none" stroke="orange" d="M562.4,-257.78C495.42,-246.44 398.48,-225.42 375.5,-196 359.78,-175.88 357.22,-148.15 359.23,-123.5"/>
<polygon fill="orange" stroke="orange" points="562.02,-261.27 572.46,-259.45 563.17,-254.36 562.02,-261.27"/>
</a>
</g>
<text text-anchor="start" x="378.5" y="-184.5" font-family="Helvetica,sans-Serif" font-size="10.00" fill="grey">&lt; const vanetza::geonet</text>
<text text-anchor="start" x="378.5" y="-169.5" font-family="Helvetica,sans-Serif" font-size="10.00" fill="grey">  ::DataIndication &amp;, const</text>
<text text-anchor="start" x="378.5" y="-154.5" font-family="Helvetica,sans-Serif" font-size="10.00" fill="grey">   vanetza::btp::DataIndication * &gt;</text>
</g>
<!-- Node5 -->
<g id="Node000005" class="node">
<title>Node5</title>
<g id="a_Node000005"><a xlink:href="../../d7/d3f/classvanetza_1_1Hook.html" target="_top" xlink:title=" ">
<polygon fill="white" stroke="transparent" points="603.5,-118 487.5,-118 487.5,-13 603.5,-13 603.5,-118"/>
<text text-anchor="start" x="492.5" y="-105.5" font-family="Helvetica,sans-Serif" font-size="10.00">vanetza::Hook&lt; vanetza</text>
<text text-anchor="start" x="498.5" y="-94.5" font-family="Helvetica,sans-Serif" font-size="10.00">::dcc::ChannelLoad &gt;</text>
<text text-anchor="start" x="505" y="-79.5" font-family="Helvetica,sans-Serif" font-size="10.00">&#45;</text>
<text text-anchor="start" x="526.5" y="-79.5" font-family="Helvetica,sans-Serif" font-size="10.00">m_function</text>
<text text-anchor="start" x="503.5" y="-64.5" font-family="Helvetica,sans-Serif" font-size="10.00">+</text>
<text text-anchor="start" x="526.5" y="-64.5" font-family="Helvetica,sans-Serif" font-size="10.00">operator=()</text>
<text text-anchor="start" x="503.5" y="-49.5" font-family="Helvetica,sans-Serif" font-size="10.00">+</text>
<text text-anchor="start" x="526.5" y="-49.5" font-family="Helvetica,sans-Serif" font-size="10.00">operator()()</text>
<text text-anchor="start" x="503.5" y="-34.5" font-family="Helvetica,sans-Serif" font-size="10.00">+</text>
<text text-anchor="start" x="526.5" y="-34.5" font-family="Helvetica,sans-Serif" font-size="10.00">reset()</text>
<text text-anchor="start" x="503.5" y="-19.5" font-family="Helvetica,sans-Serif" font-size="10.00">+</text>
<text text-anchor="start" x="526.5" y="-19.5" font-family="Helvetica,sans-Serif" font-size="10.00">clear()</text>
<polygon fill="#666666" stroke="#666666" points="487.5,-89.5 487.5,-89.5 603.5,-89.5 603.5,-89.5 487.5,-89.5"/>
<polygon fill="#666666" stroke="#666666" points="487.5,-74.5 487.5,-74.5 524.5,-74.5 524.5,-74.5 487.5,-74.5"/>
<polygon fill="#666666" stroke="#666666" points="524.5,-74.5 524.5,-74.5 603.5,-74.5 603.5,-74.5 524.5,-74.5"/>
<polygon fill="none" stroke="#666666" points="487.5,-13 487.5,-118 603.5,-118 603.5,-13 487.5,-13"/>
</a>
</g>
</g>
<!-- Node1&#45;&gt;Node5 -->
<g id="edge4_Node000001_Node000005" class="edge">
<title>Node1&#45;&gt;Node5</title>
<g id="a_edge4_Node000001_Node000005"><a xlink:title=" ">
<path fill="none" stroke="orange" d="M564.81,-226.12C555.77,-217.32 547.77,-207.24 542.5,-196 531.28,-172.08 530.99,-142.83 533.96,-118.19"/>
<polygon fill="orange" stroke="orange" points="562.5,-228.75 572.24,-232.91 567.21,-223.58 562.5,-228.75"/>
</a>
</g>
<text text-anchor="start" x="546" y="-169.5" font-family="Helvetica,sans-Serif" font-size="10.00" fill="grey">&lt; vanetza::dcc::ChannelLoad &gt;</text>
</g>
<!-- Node6 -->
<g id="Node000006" class="node">
<title>Node6</title>
<g id="a_Node000006"><a xlink:href="../../d7/d3f/classvanetza_1_1Hook.html" target="_top" xlink:title=" ">
<polygon fill="white" stroke="transparent" points="744,-123.5 635,-123.5 635,-7.5 744,-7.5 744,-123.5"/>
<text text-anchor="start" x="640.5" y="-111.5" font-family="Helvetica,sans-Serif" font-size="10.00">vanetza::Hook&lt; const</text>
<text text-anchor="start" x="640.5" y="-100.5" font-family="Helvetica,sans-Serif" font-size="10.00"> vanetza::dcc::Limeric</text>
<text text-anchor="start" x="640.5" y="-89.5" font-family="Helvetica,sans-Serif" font-size="10.00"> *, Clock::time_point &gt;</text>
<text text-anchor="start" x="651" y="-74.5" font-family="Helvetica,sans-Serif" font-size="10.00">&#45;</text>
<text text-anchor="start" x="670.5" y="-74.5" font-family="Helvetica,sans-Serif" font-size="10.00">m_function</text>
<text text-anchor="start" x="649.5" y="-59.5" font-family="Helvetica,sans-Serif" font-size="10.00">+</text>
<text text-anchor="start" x="670.5" y="-59.5" font-family="Helvetica,sans-Serif" font-size="10.00">operator=()</text>
<text text-anchor="start" x="649.5" y="-44.5" font-family="Helvetica,sans-Serif" font-size="10.00">+</text>
<text text-anchor="start" x="670.5" y="-44.5" font-family="Helvetica,sans-Serif" font-size="10.00">operator()()</text>
<text text-anchor="start" x="649.5" y="-29.5" font-family="Helvetica,sans-Serif" font-size="10.00">+</text>
<text text-anchor="start" x="670.5" y="-29.5" font-family="Helvetica,sans-Serif" font-size="10.00">reset()</text>
<text text-anchor="start" x="649.5" y="-14.5" font-family="Helvetica,sans-Serif" font-size="10.00">+</text>
<text text-anchor="start" x="670.5" y="-14.5" font-family="Helvetica,sans-Serif" font-size="10.00">clear()</text>
<polygon fill="#666666" stroke="#666666" points="635.5,-84.5 635.5,-84.5 744.5,-84.5 744.5,-84.5 635.5,-84.5"/>
<polygon fill="#666666" stroke="#666666" points="635.5,-69.5 635.5,-69.5 668.5,-69.5 668.5,-69.5 635.5,-69.5"/>
<polygon fill="#666666" stroke="#666666" points="668.5,-69.5 668.5,-69.5 744.5,-69.5 744.5,-69.5 668.5,-69.5"/>
<polygon fill="none" stroke="#666666" points="635,-7.5 635,-123.5 744,-123.5 744,-7.5 635,-7.5"/>
</a>
</g>
</g>
<!-- Node1&#45;&gt;Node6 -->
<g id="edge5_Node000001_Node000006" class="edge">
<title>Node1&#45;&gt;Node6</title>
<g id="a_edge5_Node000001_Node000006"><a xlink:title=" ">
<path fill="none" stroke="orange" d="M685.7,-204.77C687.13,-201.89 688.41,-198.97 689.5,-196 697.86,-173.32 699.2,-146.86 697.94,-123.78"/>
<polygon fill="orange" stroke="orange" points="682.5,-203.33 680.68,-213.77 688.61,-206.75 682.5,-203.33"/>
</a>
</g>
<text text-anchor="start" x="702" y="-184.5" font-family="Helvetica,sans-Serif" font-size="10.00" fill="grey">&lt; const vanetza::dcc</text>
<text text-anchor="start" x="702" y="-169.5" font-family="Helvetica,sans-Serif" font-size="10.00" fill="grey">  ::Limeric *, Clock::time</text>
<text text-anchor="start" x="702" y="-154.5" font-family="Helvetica,sans-Serif" font-size="10.00" fill="grey">  _point &gt;</text>
</g>
<!-- Node7 -->
<g id="Node000007" class="node">
<title>Node7</title>
<g id="a_Node000007"><a xlink:href="../../d7/d3f/classvanetza_1_1Hook.html" target="_top" xlink:title=" ">
<polygon fill="white" stroke="transparent" points="932.5,-118 762.5,-118 762.5,-13 932.5,-13 932.5,-118"/>
<text text-anchor="start" x="767.5" y="-105.5" font-family="Helvetica,sans-Serif" font-size="10.00">vanetza::Hook&lt; const</text>
<text text-anchor="start" x="767.5" y="-94.5" font-family="Helvetica,sans-Serif" font-size="10.00"> vanetza::geonet::CbrAggregator &amp; &gt;</text>
<text text-anchor="start" x="793.5" y="-79.5" font-family="Helvetica,sans-Serif" font-size="10.00">&#45;</text>
<text text-anchor="start" x="828.5" y="-79.5" font-family="Helvetica,sans-Serif" font-size="10.00">m_function</text>
<text text-anchor="start" x="792" y="-64.5" font-family="Helvetica,sans-Serif" font-size="10.00">+</text>
<text text-anchor="start" x="828.5" y="-64.5" font-family="Helvetica,sans-Serif" font-size="10.00">operator=()</text>
<text text-anchor="start" x="792" y="-49.5" font-family="Helvetica,sans-Serif" font-size="10.00">+</text>
<text text-anchor="start" x="828.5" y="-49.5" font-family="Helvetica,sans-Serif" font-size="10.00">operator()()</text>
<text text-anchor="start" x="792" y="-34.5" font-family="Helvetica,sans-Serif" font-size="10.00">+</text>
<text text-anchor="start" x="828.5" y="-34.5" font-family="Helvetica,sans-Serif" font-size="10.00">reset()</text>
<text text-anchor="start" x="792" y="-19.5" font-family="Helvetica,sans-Serif" font-size="10.00">+</text>
<text text-anchor="start" x="828.5" y="-19.5" font-family="Helvetica,sans-Serif" font-size="10.00">clear()</text>
<polygon fill="#666666" stroke="#666666" points="762.5,-89.5 762.5,-89.5 932.5,-89.5 932.5,-89.5 762.5,-89.5"/>
<polygon fill="#666666" stroke="#666666" points="762.5,-74.5 762.5,-74.5 826.5,-74.5 826.5,-74.5 762.5,-74.5"/>
<polygon fill="#666666" stroke="#666666" points="826.5,-74.5 826.5,-74.5 932.5,-74.5 932.5,-74.5 826.5,-74.5"/>
<polygon fill="none" stroke="#666666" points="762.5,-13 762.5,-118 932.5,-118 932.5,-13 762.5,-13"/>
</a>
</g>
</g>
<!-- Node1&#45;&gt;Node7 -->
<g id="edge6_Node000001_Node000007" class="edge">
<title>Node1&#45;&gt;Node7</title>
<g id="a_edge6_Node000001_Node000007"><a xlink:title=" ">
<path fill="none" stroke="orange" d="M694.45,-258.03C734.9,-248.84 784.66,-230.88 815.5,-196 834.29,-174.75 842.42,-144.18 845.8,-118.08"/>
<polygon fill="orange" stroke="orange" points="693.7,-254.61 684.66,-260.13 695.17,-261.45 693.7,-254.61"/>
</a>
</g>
<text text-anchor="start" x="842.5" y="-177.5" font-family="Helvetica,sans-Serif" font-size="10.00" fill="grey">&lt; const vanetza::geonet</text>
<text text-anchor="start" x="842.5" y="-162.5" font-family="Helvetica,sans-Serif" font-size="10.00" fill="grey">  ::CbrAggregator &amp; &gt;</text>
</g>
<!-- Node8 -->
<g id="Node000008" class="node">
<title>Node8</title>
<g id="a_Node000008"><a xlink:href="../../d7/d3f/classvanetza_1_1Hook.html" target="_top" xlink:title=" ">
<polygon fill="white" stroke="transparent" points="1084.5,-118 950.5,-118 950.5,-13 1084.5,-13 1084.5,-118"/>
<text text-anchor="start" x="955.5" y="-105.5" font-family="Helvetica,sans-Serif" font-size="10.00">vanetza::Hook&lt; PacketDrop</text>
<text text-anchor="start" x="996" y="-94.5" font-family="Helvetica,sans-Serif" font-size="10.00">Reason &gt;</text>
<text text-anchor="start" x="972.5" y="-79.5" font-family="Helvetica,sans-Serif" font-size="10.00">&#45;</text>
<text text-anchor="start" x="998.5" y="-79.5" font-family="Helvetica,sans-Serif" font-size="10.00">m_function</text>
<text text-anchor="start" x="971" y="-64.5" font-family="Helvetica,sans-Serif" font-size="10.00">+</text>
<text text-anchor="start" x="998.5" y="-64.5" font-family="Helvetica,sans-Serif" font-size="10.00">operator=()</text>
<text text-anchor="start" x="971" y="-49.5" font-family="Helvetica,sans-Serif" font-size="10.00">+</text>
<text text-anchor="start" x="998.5" y="-49.5" font-family="Helvetica,sans-Serif" font-size="10.00">operator()()</text>
<text text-anchor="start" x="971" y="-34.5" font-family="Helvetica,sans-Serif" font-size="10.00">+</text>
<text text-anchor="start" x="998.5" y="-34.5" font-family="Helvetica,sans-Serif" font-size="10.00">reset()</text>
<text text-anchor="start" x="971" y="-19.5" font-family="Helvetica,sans-Serif" font-size="10.00">+</text>
<text text-anchor="start" x="998.5" y="-19.5" font-family="Helvetica,sans-Serif" font-size="10.00">clear()</text>
<polygon fill="#666666" stroke="#666666" points="950.5,-89.5 950.5,-89.5 1084.5,-89.5 1084.5,-89.5 950.5,-89.5"/>
<polygon fill="#666666" stroke="#666666" points="950.5,-74.5 950.5,-74.5 996.5,-74.5 996.5,-74.5 950.5,-74.5"/>
<polygon fill="#666666" stroke="#666666" points="996.5,-74.5 996.5,-74.5 1084.5,-74.5 1084.5,-74.5 996.5,-74.5"/>
<polygon fill="none" stroke="#666666" points="950.5,-13 950.5,-118 1084.5,-118 1084.5,-13 950.5,-13"/>
</a>
</g>
</g>
<!-- Node1&#45;&gt;Node8 -->
<g id="edge7_Node000001_Node000008" class="edge">
<title>Node1&#45;&gt;Node8</title>
<g id="a_edge7_Node000001_Node000008"><a xlink:title=" ">
<path fill="none" stroke="orange" d="M694.78,-259.94C778.3,-249.26 915.76,-227.47 955.5,-196 980.02,-176.58 995.4,-145.08 1004.71,-118.01"/>
<polygon fill="orange" stroke="orange" points="694.1,-256.5 684.62,-261.22 694.98,-263.44 694.1,-256.5"/>
</a>
</g>
<text text-anchor="start" x="995" y="-169.5" font-family="Helvetica,sans-Serif" font-size="10.00" fill="grey">&lt; PacketDropReason &gt;</text>
</g>
<!-- Node9 -->
<g id="Node000009" class="node">
<title>Node9</title>
<g id="a_Node000009"><a xlink:href="../../d7/d3f/classvanetza_1_1Hook.html" target="_top" xlink:title=" ">
<polygon fill="white" stroke="transparent" points="1234,-118 1103,-118 1103,-13 1234,-13 1234,-118"/>
<text text-anchor="start" x="1108.5" y="-105.5" font-family="Helvetica,sans-Serif" font-size="10.00">vanetza::Hook&lt; Forwarding</text>
<text text-anchor="start" x="1137.5" y="-94.5" font-family="Helvetica,sans-Serif" font-size="10.00">StopReason &gt;</text>
<text text-anchor="start" x="1124.5" y="-79.5" font-family="Helvetica,sans-Serif" font-size="10.00">&#45;</text>
<text text-anchor="start" x="1149.5" y="-79.5" font-family="Helvetica,sans-Serif" font-size="10.00">m_function</text>
<text text-anchor="start" x="1123" y="-64.5" font-family="Helvetica,sans-Serif" font-size="10.00">+</text>
<text text-anchor="start" x="1149.5" y="-64.5" font-family="Helvetica,sans-Serif" font-size="10.00">operator=()</text>
<text text-anchor="start" x="1123" y="-49.5" font-family="Helvetica,sans-Serif" font-size="10.00">+</text>
<text text-anchor="start" x="1149.5" y="-49.5" font-family="Helvetica,sans-Serif" font-size="10.00">operator()()</text>
<text text-anchor="start" x="1123" y="-34.5" font-family="Helvetica,sans-Serif" font-size="10.00">+</text>
<text text-anchor="start" x="1149.5" y="-34.5" font-family="Helvetica,sans-Serif" font-size="10.00">reset()</text>
<text text-anchor="start" x="1123" y="-19.5" font-family="Helvetica,sans-Serif" font-size="10.00">+</text>
<text text-anchor="start" x="1149.5" y="-19.5" font-family="Helvetica,sans-Serif" font-size="10.00">clear()</text>
<polygon fill="#666666" stroke="#666666" points="1103.5,-89.5 1103.5,-89.5 1234.5,-89.5 1234.5,-89.5 1103.5,-89.5"/>
<polygon fill="#666666" stroke="#666666" points="1103.5,-74.5 1103.5,-74.5 1147.5,-74.5 1147.5,-74.5 1103.5,-74.5"/>
<polygon fill="#666666" stroke="#666666" points="1147.5,-74.5 1147.5,-74.5 1234.5,-74.5 1234.5,-74.5 1147.5,-74.5"/>
<polygon fill="none" stroke="#666666" points="1103,-13 1103,-118 1234,-118 1234,-13 1103,-13"/>
</a>
</g>
</g>
<!-- Node1&#45;&gt;Node9 -->
<g id="edge8_Node000001_Node000009" class="edge">
<title>Node1&#45;&gt;Node9</title>
<g id="a_edge8_Node000001_Node000009"><a xlink:title=" ">
<path fill="none" stroke="orange" d="M694.73,-265.01C809.79,-259.48 1040.45,-242.74 1104.5,-196 1130.13,-177.3 1146.05,-145.46 1155.61,-118.03"/>
<polygon fill="orange" stroke="orange" points="694.46,-261.51 684.63,-265.48 694.79,-268.51 694.46,-261.51"/>
</a>
</g>
<text text-anchor="start" x="1143.5" y="-169.5" font-family="Helvetica,sans-Serif" font-size="10.00" fill="grey">&lt; ForwardingStopReason &gt;</text>
</g>
</g>
</svg>
