<?xml version="1.0" encoding="UTF-8" standalone="no"?>
<!DOCTYPE svg PUBLIC "-//W3C//DTD SVG 1.1//EN"
 "http://www.w3.org/Graphics/SVG/1.1/DTD/svg11.dtd">
<!-- Generated by graphviz version 14.1.2 (0)
 -->
<!-- Title: vanetza::Hook&lt; Args &gt; Pages: 1 -->
<svg width="1395pt" height="364pt"
 viewBox="0.00 0.00 1395.00 364.00" xmlns="http://www.w3.org/2000/svg" xmlns:xlink="http://www.w3.org/1999/xlink">
<g id="graph0" class="graph" transform="scale(1 1) rotate(0) translate(4 360.25)">
<title>vanetza::Hook&lt; Args &gt;</title>
<!-- Node1 -->
<g id="Node000001" class="node">
<title>Node1</title>
<g id="a_Node000001"><a xlink:title=" ">
<polygon fill="#999999" stroke="none" points="749.5,-356.25 626.75,-356.25 626.75,-235 749.5,-235 749.5,-356.25"/>
<text xml:space="preserve" text-anchor="start" x="630.75" y="-342.75" font-family="Helvetica,sans-Serif" font-size="10.00">vanetza::Hook&lt; Args &gt;</text>
<text xml:space="preserve" text-anchor="start" x="644.38" y="-326" font-family="Helvetica,sans-Serif" font-size="10.00">&#45;</text>
<text xml:space="preserve" text-anchor="start" x="665.75" y="-326" font-family="Helvetica,sans-Serif" font-size="10.00">m_function</text>
<text xml:space="preserve" text-anchor="start" x="642.12" y="-309.25" font-family="Helvetica,sans-Serif" font-size="10.00">+</text>
<text xml:space="preserve" text-anchor="start" x="665.75" y="-309.25" font-family="Helvetica,sans-Serif" font-size="10.00">operator=()</text>
<text xml:space="preserve" text-anchor="start" x="642.12" y="-292.5" font-family="Helvetica,sans-Serif" font-size="10.00">+</text>
<text xml:space="preserve" text-anchor="start" x="665.75" y="-292.5" font-family="Helvetica,sans-Serif" font-size="10.00">operator=()</text>
<text xml:space="preserve" text-anchor="start" x="642.12" y="-275.75" font-family="Helvetica,sans-Serif" font-size="10.00">+</text>
<text xml:space="preserve" text-anchor="start" x="665.75" y="-275.75" font-family="Helvetica,sans-Serif" font-size="10.00">operator()()</text>
<text xml:space="preserve" text-anchor="start" x="642.12" y="-259" font-family="Helvetica,sans-Serif" font-size="10.00">+</text>
<text xml:space="preserve" text-anchor="start" x="665.75" y="-259" font-family="Helvetica,sans-Serif" font-size="10.00">reset()</text>
<text xml:space="preserve" text-anchor="start" x="642.12" y="-242.25" font-family="Helvetica,sans-Serif" font-size="10.00">+</text>
<text xml:space="preserve" text-anchor="start" x="665.75" y="-242.25" font-family="Helvetica,sans-Serif" font-size="10.00">clear()</text>
<polygon fill="#666666" stroke="#666666" points="626.75,-337.5 626.75,-337.5 749.5,-337.5 749.5,-337.5 626.75,-337.5"/>
<polygon fill="#666666" stroke="#666666" points="626.75,-320.75 626.75,-320.75 663.75,-320.75 663.75,-320.75 626.75,-320.75"/>
<polygon fill="#666666" stroke="#666666" points="663.75,-320.75 663.75,-320.75 749.5,-320.75 749.5,-320.75 663.75,-320.75"/>
<polygon fill="none" stroke="#666666" points="626.75,-235 626.75,-356.25 749.5,-356.25 749.5,-235 626.75,-235"/>
</a>
</g>
</g>
<!-- Node2 -->
<g id="Node000002" class="node">
<title>Node2</title>
<g id="a_Node000002"><a xlink:href="../../d7/d3f/classvanetza_1_1Hook.html" target="_top" xlink:title=" ">
<polygon fill="white" stroke="none" points="124.25,-146.75 0,-146.75 0,0 124.25,0 124.25,-146.75"/>
<text xml:space="preserve" text-anchor="start" x="4" y="-133.25" font-family="Helvetica,sans-Serif" font-size="10.00">vanetza::Hook&lt; access</text>
<text xml:space="preserve" text-anchor="start" x="4" y="-120.5" font-family="Helvetica,sans-Serif" font-size="10.00">::AccessCategory, const</text>
<text xml:space="preserve" text-anchor="start" x="19.75" y="-107.75" font-family="Helvetica,sans-Serif" font-size="10.00"> ChunkPacket * &gt;</text>
<text xml:space="preserve" text-anchor="start" x="18" y="-91" font-family="Helvetica,sans-Serif" font-size="10.00">&#45;</text>
<text xml:space="preserve" text-anchor="start" x="39.75" y="-91" font-family="Helvetica,sans-Serif" font-size="10.00">m_function</text>
<text xml:space="preserve" text-anchor="start" x="15.75" y="-74.25" font-family="Helvetica,sans-Serif" font-size="10.00">+</text>
<text xml:space="preserve" text-anchor="start" x="39.75" y="-74.25" font-family="Helvetica,sans-Serif" font-size="10.00">operator=()</text>
<text xml:space="preserve" text-anchor="start" x="15.75" y="-57.5" font-family="Helvetica,sans-Serif" font-size="10.00">+</text>
<text xml:space="preserve" text-anchor="start" x="39.75" y="-57.5" font-family="Helvetica,sans-Serif" font-size="10.00">operator=()</text>
<text xml:space="preserve" text-anchor="start" x="15.75" y="-40.75" font-family="Helvetica,sans-Serif" font-size="10.00">+</text>
<text xml:space="preserve" text-anchor="start" x="39.75" y="-40.75" font-family="Helvetica,sans-Serif" font-size="10.00">operator()()</text>
<text xml:space="preserve" text-anchor="start" x="15.75" y="-24" font-family="Helvetica,sans-Serif" font-size="10.00">+</text>
<text xml:space="preserve" text-anchor="start" x="39.75" y="-24" font-family="Helvetica,sans-Serif" font-size="10.00">reset()</text>
<text xml:space="preserve" text-anchor="start" x="15.75" y="-7.25" font-family="Helvetica,sans-Serif" font-size="10.00">+</text>
<text xml:space="preserve" text-anchor="start" x="39.75" y="-7.25" font-family="Helvetica,sans-Serif" font-size="10.00">clear()</text>
<polygon fill="#666666" stroke="#666666" points="0,-102.5 0,-102.5 124.25,-102.5 124.25,-102.5 0,-102.5"/>
<polygon fill="#666666" stroke="#666666" points="0,-85.75 0,-85.75 37.75,-85.75 37.75,-85.75 0,-85.75"/>
<polygon fill="#666666" stroke="#666666" points="37.75,-85.75 37.75,-85.75 124.25,-85.75 124.25,-85.75 37.75,-85.75"/>
<polygon fill="none" stroke="#666666" points="0,0 0,-146.75 124.25,-146.75 124.25,0 0,0"/>
</a>
</g>
</g>
<!-- Node1&#45;&gt;Node2 -->
<g id="edge1_Node000001_Node000002" class="edge">
<title>Node1&#45;&gt;Node2</title>
<g id="a_edge1_Node000001_Node000002"><a xlink:title=" ">
<path fill="none" stroke="orange" d="M615.57,-292.87C482.64,-288.31 206.7,-272.29 130.88,-217 107.44,-199.91 91.65,-172.69 81.17,-146.58"/>
<polygon fill="orange" stroke="orange" points="615.2,-296.36 625.31,-293.19 615.43,-289.36 615.2,-296.36"/>
</a>
</g>
<text xml:space="preserve" text-anchor="start" x="133.88" y="-196.12" font-family="Helvetica,sans-Serif" font-size="10.00" fill="grey">&lt; access::AccessCategory,</text>
<text xml:space="preserve" text-anchor="start" x="133.88" y="-179.38" font-family="Helvetica,sans-Serif" font-size="10.00" fill="grey">   const ChunkPacket * &gt;</text>
</g>
<!-- Node3 -->
<g id="Node000003" class="node">
<title>Node3</title>
<g id="a_Node000003"><a xlink:href="../../d7/d3f/classvanetza_1_1Hook.html" target="_top" xlink:title=" ">
<polygon fill="white" stroke="none" points="281,-134 149.25,-134 149.25,-12.75 281,-12.75 281,-134"/>
<text xml:space="preserve" text-anchor="start" x="153.25" y="-120.5" font-family="Helvetica,sans-Serif" font-size="10.00">vanetza::Hook&lt; Args... &gt;</text>
<text xml:space="preserve" text-anchor="start" x="169.12" y="-103.75" font-family="Helvetica,sans-Serif" font-size="10.00">&#45;</text>
<text xml:space="preserve" text-anchor="start" x="192.75" y="-103.75" font-family="Helvetica,sans-Serif" font-size="10.00">m_function</text>
<text xml:space="preserve" text-anchor="start" x="166.88" y="-87" font-family="Helvetica,sans-Serif" font-size="10.00">+</text>
<text xml:space="preserve" text-anchor="start" x="192.75" y="-87" font-family="Helvetica,sans-Serif" font-size="10.00">operator=()</text>
<text xml:space="preserve" text-anchor="start" x="166.88" y="-70.25" font-family="Helvetica,sans-Serif" font-size="10.00">+</text>
<text xml:space="preserve" text-anchor="start" x="192.75" y="-70.25" font-family="Helvetica,sans-Serif" font-size="10.00">operator=()</text>
<text xml:space="preserve" text-anchor="start" x="166.88" y="-53.5" font-family="Helvetica,sans-Serif" font-size="10.00">+</text>
<text xml:space="preserve" text-anchor="start" x="192.75" y="-53.5" font-family="Helvetica,sans-Serif" font-size="10.00">operator()()</text>
<text xml:space="preserve" text-anchor="start" x="166.88" y="-36.75" font-family="Helvetica,sans-Serif" font-size="10.00">+</text>
<text xml:space="preserve" text-anchor="start" x="192.75" y="-36.75" font-family="Helvetica,sans-Serif" font-size="10.00">reset()</text>
<text xml:space="preserve" text-anchor="start" x="166.88" y="-20" font-family="Helvetica,sans-Serif" font-size="10.00">+</text>
<text xml:space="preserve" text-anchor="start" x="192.75" y="-20" font-family="Helvetica,sans-Serif" font-size="10.00">clear()</text>
<polygon fill="#666666" stroke="#666666" points="149.25,-115.25 149.25,-115.25 281,-115.25 281,-115.25 149.25,-115.25"/>
<polygon fill="#666666" stroke="#666666" points="149.25,-98.5 149.25,-98.5 190.75,-98.5 190.75,-98.5 149.25,-98.5"/>
<polygon fill="#666666" stroke="#666666" points="190.75,-98.5 190.75,-98.5 281,-98.5 281,-98.5 190.75,-98.5"/>
<polygon fill="none" stroke="#666666" points="149.25,-12.75 149.25,-134 281,-134 281,-12.75 149.25,-12.75"/>
</a>
</g>
</g>
<!-- Node1&#45;&gt;Node3 -->
<g id="edge2_Node000001_Node000003" class="edge">
<title>Node1&#45;&gt;Node3</title>
<g id="a_edge2_Node000001_Node000003"><a xlink:title=" ">
<path fill="none" stroke="orange" d="M615.92,-293.49C538.65,-289.17 415.17,-273.08 325.88,-217 293.49,-196.66 266.82,-163.31 247.77,-133.98"/>
<polygon fill="orange" stroke="orange" points="615.3,-296.96 625.46,-293.97 615.65,-289.97 615.3,-296.96"/>
</a>
</g>
<text xml:space="preserve" text-anchor="start" x="328.88" y="-187.75" font-family="Helvetica,sans-Serif" font-size="10.00" fill="grey">&lt; Args... &gt;</text>
</g>
<!-- Node4 -->
<g id="Node000004" class="node">
<title>Node4</title>
<g id="a_Node000004"><a xlink:href="../../d7/d3f/classvanetza_1_1Hook.html" target="_top" xlink:title=" ">
<polygon fill="white" stroke="none" points="510.75,-138.38 299.5,-138.38 299.5,-8.38 510.75,-8.38 510.75,-138.38"/>
<text xml:space="preserve" text-anchor="start" x="303.5" y="-124.88" font-family="Helvetica,sans-Serif" font-size="10.00">vanetza::Hook&lt; const</text>
<text xml:space="preserve" text-anchor="start" x="303.5" y="-112.12" font-family="Helvetica,sans-Serif" font-size="10.00"> vanetza::geonet::DataIndication</text>
<text xml:space="preserve" text-anchor="start" x="303.5" y="-99.38" font-family="Helvetica,sans-Serif" font-size="10.00"> &amp;, const vanetza::btp::DataIndication * &gt;</text>
<text xml:space="preserve" text-anchor="start" x="339.25" y="-82.62" font-family="Helvetica,sans-Serif" font-size="10.00">&#45;</text>
<text xml:space="preserve" text-anchor="start" x="382.75" y="-82.62" font-family="Helvetica,sans-Serif" font-size="10.00">m_function</text>
<text xml:space="preserve" text-anchor="start" x="337" y="-65.88" font-family="Helvetica,sans-Serif" font-size="10.00">+</text>
<text xml:space="preserve" text-anchor="start" x="382.75" y="-65.88" font-family="Helvetica,sans-Serif" font-size="10.00">operator=()</text>
<text xml:space="preserve" text-anchor="start" x="337" y="-49.12" font-family="Helvetica,sans-Serif" font-size="10.00">+</text>
<text xml:space="preserve" text-anchor="start" x="382.75" y="-49.12" font-family="Helvetica,sans-Serif" font-size="10.00">operator()()</text>
<text xml:space="preserve" text-anchor="start" x="337" y="-32.38" font-family="Helvetica,sans-Serif" font-size="10.00">+</text>
<text xml:space="preserve" text-anchor="start" x="382.75" y="-32.38" font-family="Helvetica,sans-Serif" font-size="10.00">reset()</text>
<text xml:space="preserve" text-anchor="start" x="337" y="-15.62" font-family="Helvetica,sans-Serif" font-size="10.00">+</text>
<text xml:space="preserve" text-anchor="start" x="382.75" y="-15.62" font-family="Helvetica,sans-Serif" font-size="10.00">clear()</text>
<polygon fill="#666666" stroke="#666666" points="299.5,-94.12 299.5,-94.12 510.75,-94.12 510.75,-94.12 299.5,-94.12"/>
<polygon fill="#666666" stroke="#666666" points="299.5,-77.38 299.5,-77.38 380.75,-77.38 380.75,-77.38 299.5,-77.38"/>
<polygon fill="#666666" stroke="#666666" points="380.75,-77.38 380.75,-77.38 510.75,-77.38 510.75,-77.38 380.75,-77.38"/>
<polygon fill="none" stroke="#666666" points="299.5,-8.38 299.5,-138.38 510.75,-138.38 510.75,-8.38 299.5,-8.38"/>
</a>
</g>
</g>
<!-- Node1&#45;&gt;Node4 -->
<g id="edge3_Node000001_Node000004" class="edge">
<title>Node1&#45;&gt;Node4</title>
<g id="a_edge3_Node000001_Node000004"><a xlink:title=" ">
<path fill="none" stroke="orange" d="M615.77,-284.64C541.11,-272.68 432.07,-250.05 406.62,-217 389.71,-195.02 387.3,-164.98 389.95,-138.13"/>
<polygon fill="orange" stroke="orange" points="615.06,-288.07 625.48,-286.16 616.14,-281.15 615.06,-288.07"/>
</a>
</g>
<text xml:space="preserve" text-anchor="start" x="409.62" y="-204.5" font-family="Helvetica,sans-Serif" font-size="10.00" fill="grey">&lt; const vanetza::geonet</text>
<text xml:space="preserve" text-anchor="start" x="409.62" y="-187.75" font-family="Helvetica,sans-Serif" font-size="10.00" fill="grey">  ::DataIndication &amp;, const</text>
<text xml:space="preserve" text-anchor="start" x="409.62" y="-171" font-family="Helvetica,sans-Serif" font-size="10.00" fill="grey">   vanetza::btp::DataIndication * &gt;</text>
</g>
<!-- Node5 -->
<g id="Node000005" class="node">
<title>Node5</title>
<g id="a_Node000005"><a xlink:href="../../d7/d3f/classvanetza_1_1Hook.html" target="_top" xlink:title=" ">
<polygon fill="white" stroke="none" points="661.5,-132 532.75,-132 532.75,-14.75 661.5,-14.75 661.5,-132"/>
<text xml:space="preserve" text-anchor="start" x="536.75" y="-118.5" font-family="Helvetica,sans-Serif" font-size="10.00">vanetza::Hook&lt; vanetza</text>
<text xml:space="preserve" text-anchor="start" x="545.75" y="-105.75" font-family="Helvetica,sans-Serif" font-size="10.00">::dcc::ChannelLoad &gt;</text>
<text xml:space="preserve" text-anchor="start" x="551.88" y="-89" font-family="Helvetica,sans-Serif" font-size="10.00">&#45;</text>
<text xml:space="preserve" text-anchor="start" x="574.75" y="-89" font-family="Helvetica,sans-Serif" font-size="10.00">m_function</text>
<text xml:space="preserve" text-anchor="start" x="549.62" y="-72.25" font-family="Helvetica,sans-Serif" font-size="10.00">+</text>
<text xml:space="preserve" text-anchor="start" x="574.75" y="-72.25" font-family="Helvetica,sans-Serif" font-size="10.00">operator=()</text>
<text xml:space="preserve" text-anchor="start" x="549.62" y="-55.5" font-family="Helvetica,sans-Serif" font-size="10.00">+</text>
<text xml:space="preserve" text-anchor="start" x="574.75" y="-55.5" font-family="Helvetica,sans-Serif" font-size="10.00">operator()()</text>
<text xml:space="preserve" text-anchor="start" x="549.62" y="-38.75" font-family="Helvetica,sans-Serif" font-size="10.00">+</text>
<text xml:space="preserve" text-anchor="start" x="574.75" y="-38.75" font-family="Helvetica,sans-Serif" font-size="10.00">reset()</text>
<text xml:space="preserve" text-anchor="start" x="549.62" y="-22" font-family="Helvetica,sans-Serif" font-size="10.00">+</text>
<text xml:space="preserve" text-anchor="start" x="574.75" y="-22" font-family="Helvetica,sans-Serif" font-size="10.00">clear()</text>
<polygon fill="#666666" stroke="#666666" points="532.75,-100.5 532.75,-100.5 661.5,-100.5 661.5,-100.5 532.75,-100.5"/>
<polygon fill="#666666" stroke="#666666" points="532.75,-83.75 532.75,-83.75 572.75,-83.75 572.75,-83.75 532.75,-83.75"/>
<polygon fill="#666666" stroke="#666666" points="572.75,-83.75 572.75,-83.75 661.5,-83.75 661.5,-83.75 572.75,-83.75"/>
<polygon fill="none" stroke="#666666" points="532.75,-14.75 532.75,-132 661.5,-132 661.5,-14.75 532.75,-14.75"/>
</a>
</g>
</g>
<!-- Node1&#45;&gt;Node5 -->
<g id="edge4_Node000001_Node000005" class="edge">
<title>Node1&#45;&gt;Node5</title>
<g id="a_edge4_Node000001_Node000005"><a xlink:title=" ">
<path fill="none" stroke="orange" d="M618.88,-250.12C608.85,-240.47 599.96,-229.39 594.12,-217 581.78,-190.79 581.34,-158.74 584.51,-131.67"/>
<polygon fill="orange" stroke="orange" points="616.23,-252.45 626.01,-256.54 620.92,-247.25 616.23,-252.45"/>
</a>
</g>
<text xml:space="preserve" text-anchor="start" x="597.12" y="-187.75" font-family="Helvetica,sans-Serif" font-size="10.00" fill="grey">&lt; vanetza::dcc::ChannelLoad &gt;</text>
</g>
<!-- Node6 -->
<g id="Node000006" class="node">
<title>Node6</title>
<g id="a_Node000006"><a xlink:href="../../d7/d3f/classvanetza_1_1Hook.html" target="_top" xlink:title=" ">
<polygon fill="white" stroke="none" points="813.62,-138.38 694.62,-138.38 694.62,-8.38 813.62,-8.38 813.62,-138.38"/>
<text xml:space="preserve" text-anchor="start" x="698.62" y="-124.88" font-family="Helvetica,sans-Serif" font-size="10.00">vanetza::Hook&lt; const</text>
<text xml:space="preserve" text-anchor="start" x="698.62" y="-112.12" font-family="Helvetica,sans-Serif" font-size="10.00"> vanetza::dcc::Limeric</text>
<text xml:space="preserve" text-anchor="start" x="698.62" y="-99.38" font-family="Helvetica,sans-Serif" font-size="10.00"> *, Clock::time_point &gt;</text>
<text xml:space="preserve" text-anchor="start" x="711.31" y="-82.62" font-family="Helvetica,sans-Serif" font-size="10.00">&#45;</text>
<text xml:space="preserve" text-anchor="start" x="731.75" y="-82.62" font-family="Helvetica,sans-Serif" font-size="10.00">m_function</text>
<text xml:space="preserve" text-anchor="start" x="709.06" y="-65.88" font-family="Helvetica,sans-Serif" font-size="10.00">+</text>
<text xml:space="preserve" text-anchor="start" x="731.75" y="-65.88" font-family="Helvetica,sans-Serif" font-size="10.00">operator=()</text>
<text xml:space="preserve" text-anchor="start" x="709.06" y="-49.12" font-family="Helvetica,sans-Serif" font-size="10.00">+</text>
<text xml:space="preserve" text-anchor="start" x="731.75" y="-49.12" font-family="Helvetica,sans-Serif" font-size="10.00">operator()()</text>
<text xml:space="preserve" text-anchor="start" x="709.06" y="-32.38" font-family="Helvetica,sans-Serif" font-size="10.00">+</text>
<text xml:space="preserve" text-anchor="start" x="731.75" y="-32.38" font-family="Helvetica,sans-Serif" font-size="10.00">reset()</text>
<text xml:space="preserve" text-anchor="start" x="709.06" y="-15.62" font-family="Helvetica,sans-Serif" font-size="10.00">+</text>
<text xml:space="preserve" text-anchor="start" x="731.75" y="-15.62" font-family="Helvetica,sans-Serif" font-size="10.00">clear()</text>
<polygon fill="#666666" stroke="#666666" points="694.62,-94.12 694.62,-94.12 813.62,-94.12 813.62,-94.12 694.62,-94.12"/>
<polygon fill="#666666" stroke="#666666" points="694.62,-77.38 694.62,-77.38 729.75,-77.38 729.75,-77.38 694.62,-77.38"/>
<polygon fill="#666666" stroke="#666666" points="729.75,-77.38 729.75,-77.38 813.62,-77.38 813.62,-77.38 729.75,-77.38"/>
<polygon fill="none" stroke="#666666" points="694.62,-8.38 694.62,-138.38 813.62,-138.38 813.62,-8.38 694.62,-8.38"/>
</a>
</g>
</g>
<!-- Node1&#45;&gt;Node6 -->
<g id="edge5_Node000001_Node000006" class="edge">
<title>Node1&#45;&gt;Node6</title>
<g id="a_edge5_Node000001_Node000006"><a xlink:title=" ">
<path fill="none" stroke="orange" d="M753.6,-225.07C754.91,-222.42 756.09,-219.73 757.12,-217 766.5,-192.35 767.55,-163.52 765.59,-138.26"/>
<polygon fill="orange" stroke="orange" points="750.57,-223.33 748.75,-233.77 756.68,-226.74 750.57,-223.33"/>
</a>
</g>
<text xml:space="preserve" text-anchor="start" x="769.25" y="-204.5" font-family="Helvetica,sans-Serif" font-size="10.00" fill="grey">&lt; const vanetza::dcc</text>
<text xml:space="preserve" text-anchor="start" x="769.25" y="-187.75" font-family="Helvetica,sans-Serif" font-size="10.00" fill="grey">  ::Limeric *, Clock::time</text>
<text xml:space="preserve" text-anchor="start" x="769.25" y="-171" font-family="Helvetica,sans-Serif" font-size="10.00" fill="grey">  _point &gt;</text>
</g>
<!-- Node7 -->
<g id="Node000007" class="node">
<title>Node7</title>
<g id="a_Node000007"><a xlink:href="../../d7/d3f/classvanetza_1_1Hook.html" target="_top" xlink:title=" ">
<polygon fill="white" stroke="none" points="1020.12,-132 832.12,-132 832.12,-14.75 1020.12,-14.75 1020.12,-132"/>
<text xml:space="preserve" text-anchor="start" x="836.12" y="-118.5" font-family="Helvetica,sans-Serif" font-size="10.00">vanetza::Hook&lt; const</text>
<text xml:space="preserve" text-anchor="start" x="836.12" y="-105.75" font-family="Helvetica,sans-Serif" font-size="10.00"> vanetza::geonet::CbrAggregator &amp; &gt;</text>
<text xml:space="preserve" text-anchor="start" x="866.06" y="-89" font-family="Helvetica,sans-Serif" font-size="10.00">&#45;</text>
<text xml:space="preserve" text-anchor="start" x="903.75" y="-89" font-family="Helvetica,sans-Serif" font-size="10.00">m_function</text>
<text xml:space="preserve" text-anchor="start" x="863.81" y="-72.25" font-family="Helvetica,sans-Serif" font-size="10.00">+</text>
<text xml:space="preserve" text-anchor="start" x="903.75" y="-72.25" font-family="Helvetica,sans-Serif" font-size="10.00">operator=()</text>
<text xml:space="preserve" text-anchor="start" x="863.81" y="-55.5" font-family="Helvetica,sans-Serif" font-size="10.00">+</text>
<text xml:space="preserve" text-anchor="start" x="903.75" y="-55.5" font-family="Helvetica,sans-Serif" font-size="10.00">operator()()</text>
<text xml:space="preserve" text-anchor="start" x="863.81" y="-38.75" font-family="Helvetica,sans-Serif" font-size="10.00">+</text>
<text xml:space="preserve" text-anchor="start" x="903.75" y="-38.75" font-family="Helvetica,sans-Serif" font-size="10.00">reset()</text>
<text xml:space="preserve" text-anchor="start" x="863.81" y="-22" font-family="Helvetica,sans-Serif" font-size="10.00">+</text>
<text xml:space="preserve" text-anchor="start" x="903.75" y="-22" font-family="Helvetica,sans-Serif" font-size="10.00">clear()</text>
<polygon fill="#666666" stroke="#666666" points="832.12,-100.5 832.12,-100.5 1020.12,-100.5 1020.12,-100.5 832.12,-100.5"/>
<polygon fill="#666666" stroke="#666666" points="832.12,-83.75 832.12,-83.75 901.75,-83.75 901.75,-83.75 832.12,-83.75"/>
<polygon fill="#666666" stroke="#666666" points="901.75,-83.75 901.75,-83.75 1020.12,-83.75 1020.12,-83.75 901.75,-83.75"/>
<polygon fill="none" stroke="#666666" points="832.12,-14.75 832.12,-132 1020.12,-132 1020.12,-14.75 832.12,-14.75"/>
</a>
</g>
</g>
<!-- Node1&#45;&gt;Node7 -->
<g id="edge6_Node000001_Node000007" class="edge">
<title>Node1&#45;&gt;Node7</title>
<g id="a_edge6_Node000001_Node000007"><a xlink:title=" ">
<path fill="none" stroke="orange" d="M760.4,-285C805.17,-275.28 860.38,-255.82 894.12,-217 914.35,-193.73 922.59,-160.42 925.66,-131.84"/>
<polygon fill="orange" stroke="orange" points="759.85,-281.54 750.75,-286.97 761.25,-288.4 759.85,-281.54"/>
</a>
</g>
<text xml:space="preserve" text-anchor="start" x="921.81" y="-196.12" font-family="Helvetica,sans-Serif" font-size="10.00" fill="grey">&lt; const vanetza::geonet</text>
<text xml:space="preserve" text-anchor="start" x="921.81" y="-179.38" font-family="Helvetica,sans-Serif" font-size="10.00" fill="grey">  ::CbrAggregator &amp; &gt;</text>
</g>
<!-- Node8 -->
<g id="Node000008" class="node">
<title>Node8</title>
<g id="a_Node000008"><a xlink:href="../../d7/d3f/classvanetza_1_1Hook.html" target="_top" xlink:title=" ">
<polygon fill="white" stroke="none" points="1182.38,-132 1037.88,-132 1037.88,-14.75 1182.38,-14.75 1182.38,-132"/>
<text xml:space="preserve" text-anchor="start" x="1041.88" y="-118.5" font-family="Helvetica,sans-Serif" font-size="10.00">vanetza::Hook&lt; PacketDrop</text>
<text xml:space="preserve" text-anchor="start" x="1086.5" y="-105.75" font-family="Helvetica,sans-Serif" font-size="10.00">Reason &gt;</text>
<text xml:space="preserve" text-anchor="start" x="1060.94" y="-89" font-family="Helvetica,sans-Serif" font-size="10.00">&#45;</text>
<text xml:space="preserve" text-anchor="start" x="1087.75" y="-89" font-family="Helvetica,sans-Serif" font-size="10.00">m_function</text>
<text xml:space="preserve" text-anchor="start" x="1058.69" y="-72.25" font-family="Helvetica,sans-Serif" font-size="10.00">+</text>
<text xml:space="preserve" text-anchor="start" x="1087.75" y="-72.25" font-family="Helvetica,sans-Serif" font-size="10.00">operator=()</text>
<text xml:space="preserve" text-anchor="start" x="1058.69" y="-55.5" font-family="Helvetica,sans-Serif" font-size="10.00">+</text>
<text xml:space="preserve" text-anchor="start" x="1087.75" y="-55.5" font-family="Helvetica,sans-Serif" font-size="10.00">operator()()</text>
<text xml:space="preserve" text-anchor="start" x="1058.69" y="-38.75" font-family="Helvetica,sans-Serif" font-size="10.00">+</text>
<text xml:space="preserve" text-anchor="start" x="1087.75" y="-38.75" font-family="Helvetica,sans-Serif" font-size="10.00">reset()</text>
<text xml:space="preserve" text-anchor="start" x="1058.69" y="-22" font-family="Helvetica,sans-Serif" font-size="10.00">+</text>
<text xml:space="preserve" text-anchor="start" x="1087.75" y="-22" font-family="Helvetica,sans-Serif" font-size="10.00">clear()</text>
<polygon fill="#666666" stroke="#666666" points="1037.88,-100.5 1037.88,-100.5 1182.38,-100.5 1182.38,-100.5 1037.88,-100.5"/>
<polygon fill="#666666" stroke="#666666" points="1037.88,-83.75 1037.88,-83.75 1085.75,-83.75 1085.75,-83.75 1037.88,-83.75"/>
<polygon fill="#666666" stroke="#666666" points="1085.75,-83.75 1085.75,-83.75 1182.38,-83.75 1182.38,-83.75 1085.75,-83.75"/>
<polygon fill="none" stroke="#666666" points="1037.88,-14.75 1037.88,-132 1182.38,-132 1182.38,-14.75 1037.88,-14.75"/>
</a>
</g>
</g>
<!-- Node1&#45;&gt;Node8 -->
<g id="edge7_Node000001_Node000008" class="edge">
<title>Node1&#45;&gt;Node8</title>
<g id="a_edge7_Node000001_Node000008"><a xlink:title=" ">
<path fill="none" stroke="orange" d="M760.52,-286.87C852.6,-275.7 1004.87,-252.45 1048.12,-217 1074.12,-195.69 1089.5,-161.38 1098.43,-131.75"/>
<polygon fill="orange" stroke="orange" points="760.34,-283.37 750.83,-288.03 761.17,-290.32 760.34,-283.37"/>
</a>
</g>
<text xml:space="preserve" text-anchor="start" x="1088.09" y="-187.75" font-family="Helvetica,sans-Serif" font-size="10.00" fill="grey">&lt; PacketDropReason &gt;</text>
</g>
<!-- Node9 -->
<g id="Node000009" class="node">
<title>Node9</title>
<g id="a_Node000009"><a xlink:href="../../d7/d3f/classvanetza_1_1Hook.html" target="_top" xlink:title=" ">
<polygon fill="white" stroke="none" points="1344,-132 1200.25,-132 1200.25,-14.75 1344,-14.75 1344,-132"/>
<text xml:space="preserve" text-anchor="start" x="1204.25" y="-118.5" font-family="Helvetica,sans-Serif" font-size="10.00">vanetza::Hook&lt; Forwarding</text>
<text xml:space="preserve" text-anchor="start" x="1237.62" y="-105.75" font-family="Helvetica,sans-Serif" font-size="10.00">StopReason &gt;</text>
<text xml:space="preserve" text-anchor="start" x="1223.12" y="-89" font-family="Helvetica,sans-Serif" font-size="10.00">&#45;</text>
<text xml:space="preserve" text-anchor="start" x="1249.75" y="-89" font-family="Helvetica,sans-Serif" font-size="10.00">m_function</text>
<text xml:space="preserve" text-anchor="start" x="1220.88" y="-72.25" font-family="Helvetica,sans-Serif" font-size="10.00">+</text>
<text xml:space="preserve" text-anchor="start" x="1249.75" y="-72.25" font-family="Helvetica,sans-Serif" font-size="10.00">operator=()</text>
<text xml:space="preserve" text-anchor="start" x="1220.88" y="-55.5" font-family="Helvetica,sans-Serif" font-size="10.00">+</text>
<text xml:space="preserve" text-anchor="start" x="1249.75" y="-55.5" font-family="Helvetica,sans-Serif" font-size="10.00">operator()()</text>
<text xml:space="preserve" text-anchor="start" x="1220.88" y="-38.75" font-family="Helvetica,sans-Serif" font-size="10.00">+</text>
<text xml:space="preserve" text-anchor="start" x="1249.75" y="-38.75" font-family="Helvetica,sans-Serif" font-size="10.00">reset()</text>
<text xml:space="preserve" text-anchor="start" x="1220.88" y="-22" font-family="Helvetica,sans-Serif" font-size="10.00">+</text>
<text xml:space="preserve" text-anchor="start" x="1249.75" y="-22" font-family="Helvetica,sans-Serif" font-size="10.00">clear()</text>
<polygon fill="#666666" stroke="#666666" points="1200.25,-100.5 1200.25,-100.5 1344,-100.5 1344,-100.5 1200.25,-100.5"/>
<polygon fill="#666666" stroke="#666666" points="1200.25,-83.75 1200.25,-83.75 1247.75,-83.75 1247.75,-83.75 1200.25,-83.75"/>
<polygon fill="#666666" stroke="#666666" points="1247.75,-83.75 1247.75,-83.75 1344,-83.75 1344,-83.75 1247.75,-83.75"/>
<polygon fill="none" stroke="#666666" points="1200.25,-14.75 1200.25,-132 1344,-132 1344,-14.75 1200.25,-14.75"/>
</a>
</g>
</g>
<!-- Node1&#45;&gt;Node9 -->
<g id="edge8_Node000001_Node000009" class="edge">
<title>Node1&#45;&gt;Node9</title>
<g id="a_edge8_Node000001_Node000009"><a xlink:title=" ">
<path fill="none" stroke="orange" d="M760.56,-292.24C886.52,-286.74 1139.08,-269.33 1208.12,-217 1235.27,-196.43 1251.18,-161.75 1260.35,-131.74"/>
<polygon fill="orange" stroke="orange" points="760.5,-288.74 750.66,-292.65 760.8,-295.73 760.5,-288.74"/>
</a>
</g>
<text xml:space="preserve" text-anchor="start" x="1249.37" y="-187.75" font-family="Helvetica,sans-Serif" font-size="10.00" fill="grey">&lt; ForwardingStopReason &gt;</text>
</g>
</g>
</svg>
