<?xml version="1.0" encoding="UTF-8" standalone="no"?>
<!DOCTYPE svg PUBLIC "-//W3C//DTD SVG 1.1//EN"
 "http://www.w3.org/Graphics/SVG/1.1/DTD/svg11.dtd">
<!-- Generated by graphviz version 2.42.3 (0)
 -->
<!-- Title: vanetza::Hook&lt; Args &gt; Pages: 1 -->
<svg width="1176pt" height="303pt"
 viewBox="0.00 0.00 1175.50 303.00" xmlns="http://www.w3.org/2000/svg" xmlns:xlink="http://www.w3.org/1999/xlink">
<g id="graph0" class="graph" transform="scale(1 1) rotate(0) translate(4 299)">
<title>vanetza::Hook&lt; Args &gt;</title>
<polygon fill="white" stroke="transparent" points="-4,4 -4,-299 1171.5,-299 1171.5,4 -4,4"/>
<!-- Node1 -->
<g id="node1" class="node">
<title>Node1</title>
<g id="a_node1"><a xlink:title=" ">
<polygon fill="#bfbfbf" stroke="black" points="531.5,-193.5 531.5,-294.5 649.5,-294.5 649.5,-193.5 531.5,-193.5"/>
<text text-anchor="middle" x="590.5" y="-282.5" font-family="Helvetica,sans-Serif" font-size="10.00">vanetza::Hook&lt; Args &gt;</text>
<polyline fill="none" stroke="black" points="531.5,-275.5 649.5,-275.5 "/>
<text text-anchor="start" x="539.5" y="-263.5" font-family="Helvetica,sans-Serif" font-size="10.00">&#45; m_function</text>
<polyline fill="none" stroke="black" points="531.5,-256.5 649.5,-256.5 "/>
<text text-anchor="start" x="539.5" y="-244.5" font-family="Helvetica,sans-Serif" font-size="10.00">+ operator=()</text>
<text text-anchor="start" x="539.5" y="-233.5" font-family="Helvetica,sans-Serif" font-size="10.00">+ operator=()</text>
<text text-anchor="start" x="539.5" y="-222.5" font-family="Helvetica,sans-Serif" font-size="10.00">+ operator()()</text>
<text text-anchor="start" x="539.5" y="-211.5" font-family="Helvetica,sans-Serif" font-size="10.00">+ reset()</text>
<text text-anchor="start" x="539.5" y="-200.5" font-family="Helvetica,sans-Serif" font-size="10.00">+ clear()</text>
</a>
</g>
</g>
<!-- Node2 -->
<g id="node2" class="node">
<title>Node2</title>
<g id="a_node2"><a xlink:href="../../d7/d3f/classvanetza_1_1Hook.html" target="_top" xlink:title=" ">
<polygon fill="white" stroke="black" points="0,-6 0,-118 137,-118 137,-6 0,-6"/>
<text text-anchor="start" x="8" y="-106" font-family="Helvetica,sans-Serif" font-size="10.00">vanetza::Hook&lt; Forwarding</text>
<text text-anchor="middle" x="68.5" y="-95" font-family="Helvetica,sans-Serif" font-size="10.00">StopReason &gt;</text>
<polyline fill="none" stroke="black" points="0,-88 137,-88 "/>
<text text-anchor="start" x="8" y="-76" font-family="Helvetica,sans-Serif" font-size="10.00">&#45; m_function</text>
<polyline fill="none" stroke="black" points="0,-69 137,-69 "/>
<text text-anchor="start" x="8" y="-57" font-family="Helvetica,sans-Serif" font-size="10.00">+ operator=()</text>
<text text-anchor="start" x="8" y="-46" font-family="Helvetica,sans-Serif" font-size="10.00">+ operator=()</text>
<text text-anchor="start" x="8" y="-35" font-family="Helvetica,sans-Serif" font-size="10.00">+ operator()()</text>
<text text-anchor="start" x="8" y="-24" font-family="Helvetica,sans-Serif" font-size="10.00">+ reset()</text>
<text text-anchor="start" x="8" y="-13" font-family="Helvetica,sans-Serif" font-size="10.00">+ clear()</text>
</a>
</g>
</g>
<!-- Node1&#45;&gt;Node2 -->
<g id="edge1" class="edge">
<title>Node1&#45;&gt;Node2</title>
<path fill="none" stroke="orange" d="M521.23,-237.89C416.21,-229.17 222.54,-208.98 162.5,-175 138.53,-161.43 117.99,-139.25 102.29,-118.19"/>
<polygon fill="orange" stroke="orange" points="521.17,-241.4 531.42,-238.73 521.74,-234.42 521.17,-241.4"/>
<text text-anchor="middle" x="224" y="-156" font-family="Helvetica,sans-Serif" font-size="10.00"> &lt; ForwardingStopReason &gt;</text>
</g>
<!-- Node3 -->
<g id="node3" class="node">
<title>Node3</title>
<g id="a_node3"><a xlink:href="../../d7/d3f/classvanetza_1_1Hook.html" target="_top" xlink:title=" ">
<polygon fill="white" stroke="black" points="155,-0.5 155,-123.5 352,-123.5 352,-0.5 155,-0.5"/>
<text text-anchor="start" x="163" y="-111.5" font-family="Helvetica,sans-Serif" font-size="10.00">vanetza::Hook&lt; const</text>
<text text-anchor="start" x="163" y="-100.5" font-family="Helvetica,sans-Serif" font-size="10.00"> vanetza::geonet::DataIndication</text>
<text text-anchor="middle" x="253.5" y="-89.5" font-family="Helvetica,sans-Serif" font-size="10.00"> &amp;, const vanetza::btp::DataIndication * &gt;</text>
<polyline fill="none" stroke="black" points="155,-82.5 352,-82.5 "/>
<text text-anchor="start" x="163" y="-70.5" font-family="Helvetica,sans-Serif" font-size="10.00">&#45; m_function</text>
<polyline fill="none" stroke="black" points="155,-63.5 352,-63.5 "/>
<text text-anchor="start" x="163" y="-51.5" font-family="Helvetica,sans-Serif" font-size="10.00">+ operator=()</text>
<text text-anchor="start" x="163" y="-40.5" font-family="Helvetica,sans-Serif" font-size="10.00">+ operator=()</text>
<text text-anchor="start" x="163" y="-29.5" font-family="Helvetica,sans-Serif" font-size="10.00">+ operator()()</text>
<text text-anchor="start" x="163" y="-18.5" font-family="Helvetica,sans-Serif" font-size="10.00">+ reset()</text>
<text text-anchor="start" x="163" y="-7.5" font-family="Helvetica,sans-Serif" font-size="10.00">+ clear()</text>
</a>
</g>
</g>
<!-- Node1&#45;&gt;Node3 -->
<g id="edge2" class="edge">
<title>Node1&#45;&gt;Node3</title>
<path fill="none" stroke="orange" d="M521.2,-240.63C461.8,-235.37 376.68,-219.79 317.5,-175 300.18,-161.89 286.8,-142.64 276.85,-123.77"/>
<polygon fill="orange" stroke="orange" points="521,-244.12 531.25,-241.44 521.56,-237.15 521,-244.12"/>
<text text-anchor="start" x="317.5" y="-167" font-family="Helvetica,sans-Serif" font-size="10.00"> &lt; const vanetza::geonet</text>
<text text-anchor="start" x="317.5" y="-156" font-family="Helvetica,sans-Serif" font-size="10.00">::DataIndication &amp;, const</text>
<text text-anchor="middle" x="388.5" y="-145" font-family="Helvetica,sans-Serif" font-size="10.00"> vanetza::btp::DataIndication * &gt;</text>
</g>
<!-- Node4 -->
<g id="node4" class="node">
<title>Node4</title>
<g id="a_node4"><a xlink:href="../../d7/d3f/classvanetza_1_1Hook.html" target="_top" xlink:title=" ">
<polygon fill="white" stroke="black" points="370,-0.5 370,-123.5 485,-123.5 485,-0.5 370,-0.5"/>
<text text-anchor="start" x="378" y="-111.5" font-family="Helvetica,sans-Serif" font-size="10.00">vanetza::Hook&lt; const</text>
<text text-anchor="start" x="378" y="-100.5" font-family="Helvetica,sans-Serif" font-size="10.00"> vanetza::dcc::Limeric</text>
<text text-anchor="middle" x="427.5" y="-89.5" font-family="Helvetica,sans-Serif" font-size="10.00"> *, Clock::time_point &gt;</text>
<polyline fill="none" stroke="black" points="370,-82.5 485,-82.5 "/>
<text text-anchor="start" x="378" y="-70.5" font-family="Helvetica,sans-Serif" font-size="10.00">&#45; m_function</text>
<polyline fill="none" stroke="black" points="370,-63.5 485,-63.5 "/>
<text text-anchor="start" x="378" y="-51.5" font-family="Helvetica,sans-Serif" font-size="10.00">+ operator=()</text>
<text text-anchor="start" x="378" y="-40.5" font-family="Helvetica,sans-Serif" font-size="10.00">+ operator=()</text>
<text text-anchor="start" x="378" y="-29.5" font-family="Helvetica,sans-Serif" font-size="10.00">+ operator()()</text>
<text text-anchor="start" x="378" y="-18.5" font-family="Helvetica,sans-Serif" font-size="10.00">+ reset()</text>
<text text-anchor="start" x="378" y="-7.5" font-family="Helvetica,sans-Serif" font-size="10.00">+ clear()</text>
</a>
</g>
</g>
<!-- Node1&#45;&gt;Node4 -->
<g id="edge3" class="edge">
<title>Node1&#45;&gt;Node4</title>
<path fill="none" stroke="orange" d="M522.96,-206.7C509.52,-197.52 496.26,-186.85 485.5,-175 471.96,-160.08 460.66,-141.42 451.74,-123.64"/>
<polygon fill="orange" stroke="orange" points="521.06,-209.63 531.33,-212.22 524.91,-203.79 521.06,-209.63"/>
<text text-anchor="start" x="485.5" y="-167" font-family="Helvetica,sans-Serif" font-size="10.00"> &lt; const vanetza::dcc</text>
<text text-anchor="start" x="485.5" y="-156" font-family="Helvetica,sans-Serif" font-size="10.00">::Limeric *, Clock::time</text>
<text text-anchor="middle" x="536" y="-145" font-family="Helvetica,sans-Serif" font-size="10.00">_point &gt;</text>
</g>
<!-- Node5 -->
<g id="node5" class="node">
<title>Node5</title>
<g id="a_node5"><a xlink:href="../../d7/d3f/classvanetza_1_1Hook.html" target="_top" xlink:title=" ">
<polygon fill="white" stroke="black" points="502.5,-6 502.5,-118 678.5,-118 678.5,-6 502.5,-6"/>
<text text-anchor="start" x="510.5" y="-106" font-family="Helvetica,sans-Serif" font-size="10.00">vanetza::Hook&lt; const</text>
<text text-anchor="middle" x="590.5" y="-95" font-family="Helvetica,sans-Serif" font-size="10.00"> vanetza::geonet::CbrAggregator &amp; &gt;</text>
<polyline fill="none" stroke="black" points="502.5,-88 678.5,-88 "/>
<text text-anchor="start" x="510.5" y="-76" font-family="Helvetica,sans-Serif" font-size="10.00">&#45; m_function</text>
<polyline fill="none" stroke="black" points="502.5,-69 678.5,-69 "/>
<text text-anchor="start" x="510.5" y="-57" font-family="Helvetica,sans-Serif" font-size="10.00">+ operator=()</text>
<text text-anchor="start" x="510.5" y="-46" font-family="Helvetica,sans-Serif" font-size="10.00">+ operator=()</text>
<text text-anchor="start" x="510.5" y="-35" font-family="Helvetica,sans-Serif" font-size="10.00">+ operator()()</text>
<text text-anchor="start" x="510.5" y="-24" font-family="Helvetica,sans-Serif" font-size="10.00">+ reset()</text>
<text text-anchor="start" x="510.5" y="-13" font-family="Helvetica,sans-Serif" font-size="10.00">+ clear()</text>
</a>
</g>
</g>
<!-- Node1&#45;&gt;Node5 -->
<g id="edge4" class="edge">
<title>Node1&#45;&gt;Node5</title>
<path fill="none" stroke="orange" d="M590.5,-183.26C590.5,-162.27 590.5,-138.8 590.5,-118.2"/>
<polygon fill="orange" stroke="orange" points="587,-183.34 590.5,-193.34 594,-183.34 587,-183.34"/>
<text text-anchor="start" x="590.5" y="-161.5" font-family="Helvetica,sans-Serif" font-size="10.00"> &lt; const vanetza::geonet</text>
<text text-anchor="middle" x="645" y="-150.5" font-family="Helvetica,sans-Serif" font-size="10.00">::CbrAggregator &amp; &gt;</text>
</g>
<!-- Node6 -->
<g id="node6" class="node">
<title>Node6</title>
<g id="a_node6"><a xlink:href="../../d7/d3f/classvanetza_1_1Hook.html" target="_top" xlink:title=" ">
<polygon fill="white" stroke="black" points="696.5,-6 696.5,-118 836.5,-118 836.5,-6 696.5,-6"/>
<text text-anchor="start" x="704.5" y="-106" font-family="Helvetica,sans-Serif" font-size="10.00">vanetza::Hook&lt; PacketDrop</text>
<text text-anchor="middle" x="766.5" y="-95" font-family="Helvetica,sans-Serif" font-size="10.00">Reason &gt;</text>
<polyline fill="none" stroke="black" points="696.5,-88 836.5,-88 "/>
<text text-anchor="start" x="704.5" y="-76" font-family="Helvetica,sans-Serif" font-size="10.00">&#45; m_function</text>
<polyline fill="none" stroke="black" points="696.5,-69 836.5,-69 "/>
<text text-anchor="start" x="704.5" y="-57" font-family="Helvetica,sans-Serif" font-size="10.00">+ operator=()</text>
<text text-anchor="start" x="704.5" y="-46" font-family="Helvetica,sans-Serif" font-size="10.00">+ operator=()</text>
<text text-anchor="start" x="704.5" y="-35" font-family="Helvetica,sans-Serif" font-size="10.00">+ operator()()</text>
<text text-anchor="start" x="704.5" y="-24" font-family="Helvetica,sans-Serif" font-size="10.00">+ reset()</text>
<text text-anchor="start" x="704.5" y="-13" font-family="Helvetica,sans-Serif" font-size="10.00">+ clear()</text>
</a>
</g>
</g>
<!-- Node1&#45;&gt;Node6 -->
<g id="edge5" class="edge">
<title>Node1&#45;&gt;Node6</title>
<path fill="none" stroke="orange" d="M658.36,-209.92C674.36,-200.12 690.51,-188.37 703.5,-175 719.35,-158.68 732.57,-137.58 742.74,-118.1"/>
<polygon fill="orange" stroke="orange" points="656.33,-207.05 649.51,-215.16 659.9,-213.08 656.33,-207.05"/>
<text text-anchor="middle" x="780.5" y="-156" font-family="Helvetica,sans-Serif" font-size="10.00"> &lt; PacketDropReason &gt;</text>
</g>
<!-- Node7 -->
<g id="node7" class="node">
<title>Node7</title>
<g id="a_node7"><a xlink:href="../../d7/d3f/classvanetza_1_1Hook.html" target="_top" xlink:title=" ">
<polygon fill="white" stroke="black" points="854.5,-6 854.5,-118 976.5,-118 976.5,-6 854.5,-6"/>
<text text-anchor="start" x="862.5" y="-106" font-family="Helvetica,sans-Serif" font-size="10.00">vanetza::Hook&lt; vanetza</text>
<text text-anchor="middle" x="915.5" y="-95" font-family="Helvetica,sans-Serif" font-size="10.00">::dcc::ChannelLoad &gt;</text>
<polyline fill="none" stroke="black" points="854.5,-88 976.5,-88 "/>
<text text-anchor="start" x="862.5" y="-76" font-family="Helvetica,sans-Serif" font-size="10.00">&#45; m_function</text>
<polyline fill="none" stroke="black" points="854.5,-69 976.5,-69 "/>
<text text-anchor="start" x="862.5" y="-57" font-family="Helvetica,sans-Serif" font-size="10.00">+ operator=()</text>
<text text-anchor="start" x="862.5" y="-46" font-family="Helvetica,sans-Serif" font-size="10.00">+ operator=()</text>
<text text-anchor="start" x="862.5" y="-35" font-family="Helvetica,sans-Serif" font-size="10.00">+ operator()()</text>
<text text-anchor="start" x="862.5" y="-24" font-family="Helvetica,sans-Serif" font-size="10.00">+ reset()</text>
<text text-anchor="start" x="862.5" y="-13" font-family="Helvetica,sans-Serif" font-size="10.00">+ clear()</text>
</a>
</g>
</g>
<!-- Node1&#45;&gt;Node7 -->
<g id="edge6" class="edge">
<title>Node1&#45;&gt;Node7</title>
<path fill="none" stroke="orange" d="M659.68,-236.76C712.45,-229.14 784.79,-212.28 837.5,-175 858.1,-160.43 875.06,-138.6 887.85,-118.07"/>
<polygon fill="orange" stroke="orange" points="659.17,-233.3 649.74,-238.12 660.12,-240.23 659.17,-233.3"/>
<text text-anchor="middle" x="939.5" y="-156" font-family="Helvetica,sans-Serif" font-size="10.00"> &lt; vanetza::dcc::ChannelLoad &gt;</text>
</g>
<!-- Node8 -->
<g id="node8" class="node">
<title>Node8</title>
<g id="a_node8"><a xlink:href="../../d7/d3f/classvanetza_1_1Hook.html" target="_top" xlink:title=" ">
<polygon fill="white" stroke="black" points="1006,-0.5 1006,-123.5 1131,-123.5 1131,-0.5 1006,-0.5"/>
<text text-anchor="start" x="1014" y="-111.5" font-family="Helvetica,sans-Serif" font-size="10.00">vanetza::Hook&lt; access</text>
<text text-anchor="start" x="1014" y="-100.5" font-family="Helvetica,sans-Serif" font-size="10.00">::AccessCategory, const</text>
<text text-anchor="middle" x="1068.5" y="-89.5" font-family="Helvetica,sans-Serif" font-size="10.00"> ChunkPacket * &gt;</text>
<polyline fill="none" stroke="black" points="1006,-82.5 1131,-82.5 "/>
<text text-anchor="start" x="1014" y="-70.5" font-family="Helvetica,sans-Serif" font-size="10.00">&#45; m_function</text>
<polyline fill="none" stroke="black" points="1006,-63.5 1131,-63.5 "/>
<text text-anchor="start" x="1014" y="-51.5" font-family="Helvetica,sans-Serif" font-size="10.00">+ operator=()</text>
<text text-anchor="start" x="1014" y="-40.5" font-family="Helvetica,sans-Serif" font-size="10.00">+ operator=()</text>
<text text-anchor="start" x="1014" y="-29.5" font-family="Helvetica,sans-Serif" font-size="10.00">+ operator()()</text>
<text text-anchor="start" x="1014" y="-18.5" font-family="Helvetica,sans-Serif" font-size="10.00">+ reset()</text>
<text text-anchor="start" x="1014" y="-7.5" font-family="Helvetica,sans-Serif" font-size="10.00">+ clear()</text>
</a>
</g>
</g>
<!-- Node1&#45;&gt;Node8 -->
<g id="edge7" class="edge">
<title>Node1&#45;&gt;Node8</title>
<path fill="none" stroke="orange" d="M660.05,-239.48C765.31,-232.9 958.67,-215.56 1013.5,-175 1030.65,-162.31 1042.75,-142.81 1051.14,-123.61"/>
<polygon fill="orange" stroke="orange" points="659.6,-236 649.83,-240.1 660.02,-242.99 659.6,-236"/>
<text text-anchor="start" x="1041.5" y="-161.5" font-family="Helvetica,sans-Serif" font-size="10.00"> &lt; access::AccessCategory,</text>
<text text-anchor="middle" x="1104.5" y="-150.5" font-family="Helvetica,sans-Serif" font-size="10.00"> const ChunkPacket * &gt;</text>
</g>
</g>
</svg>
