<?xml version="1.0" encoding="UTF-8" standalone="no"?>
<!DOCTYPE svg PUBLIC "-//W3C//DTD SVG 1.1//EN"
 "http://www.w3.org/Graphics/SVG/1.1/DTD/svg11.dtd">
<!-- Generated by graphviz version 2.49.3 (0)
 -->
<!-- Title: vanetza::Hook&lt; Args &gt; Pages: 1 -->
<!--zoomable 303 -->
<svg id="main" version="1.1" xmlns="http://www.w3.org/2000/svg" xmlns:xlink="http://www.w3.org/1999/xlink" xml:space="preserve" onload="init(evt)">
<style type="text/css"><![CDATA[
.edge:hover path { stroke: red; }
.edge:hover polygon { stroke: red; fill: red; }
]]></style>
<script type="text/javascript"><![CDATA[
var edges = document.getElementsByTagName('g');
if (edges && edges.length) {
  for (var i=0;i<edges.length;i++) {
    if (edges[i].id.substr(0,4)=='edge') {
      edges[i].setAttribute('class','edge');
    }
  }
}
]]></script>
        <defs>
                <circle id="rim" cx="0" cy="0" r="7"/>
                <circle id="rim2" cx="0" cy="0" r="3.5"/>
                <g id="zoomPlus">
                        <use xlink:href="#rim" fill="#404040">
                                <set attributeName="fill" to="#808080" begin="zoomplus.mouseover" end="zoomplus.mouseout"/>
                        </use>
                        <path d="M-4,0h8M0,-4v8" fill="none" stroke="white" stroke-width="1.5" pointer-events="none"/>
                </g>
                <g id="zoomMin">
                        <use xlink:href="#rim" fill="#404040">
                                <set attributeName="fill" to="#808080" begin="zoomminus.mouseover" end="zoomminus.mouseout"/>
                        </use>
                        <path d="M-4,0h8" fill="none" stroke="white" stroke-width="1.5" pointer-events="none"/>
                </g>
                <g id="dirArrow">
                        <path fill="none" stroke="white" stroke-width="1.5" d="M0,-3.0v7 M-2.5,-0.5L0,-3.0L2.5,-0.5"/>
                </g>
               <g id="resetDef">
                       <use xlink:href="#rim2" fill="#404040">
                               <set attributeName="fill" to="#808080" begin="reset.mouseover" end="reset.mouseout"/>
                       </use>
               </g>
        </defs>

<script type="text/javascript">
var viewWidth = 1136;
var viewHeight = 303;
var sectionId = 'dynsection-0';
</script>
<script xlink:href="../../svgpan.js"/>
<svg id="graph" class="graph">
<g id="viewport">
<title>vanetza::Hook&lt; Args &gt;</title>
<polygon fill="white" stroke="transparent" points="-4,4 -4,-299 1132,-299 1132,4 -4,4"/>
<!-- Node1 -->
<g id="node1" class="node">
<title>Node1</title>
<g id="a_node1"><a xlink:title=" ">
<polygon fill="#bfbfbf" stroke="black" points="530.5,-193.5 530.5,-294.5 648.5,-294.5 648.5,-193.5 530.5,-193.5"/>
<text text-anchor="middle" x="589.5" y="-282.5" font-family="Helvetica,sans-Serif" font-size="10.00">vanetza::Hook&lt; Args &gt;</text>
<polyline fill="none" stroke="black" points="530.5,-275.5 648.5,-275.5 "/>
<text text-anchor="start" x="538.5" y="-263.5" font-family="Helvetica,sans-Serif" font-size="10.00">&#45; m_function</text>
<polyline fill="none" stroke="black" points="530.5,-256.5 648.5,-256.5 "/>
<text text-anchor="start" x="538.5" y="-244.5" font-family="Helvetica,sans-Serif" font-size="10.00">+ operator=()</text>
<text text-anchor="start" x="538.5" y="-233.5" font-family="Helvetica,sans-Serif" font-size="10.00">+ operator=()</text>
<text text-anchor="start" x="538.5" y="-222.5" font-family="Helvetica,sans-Serif" font-size="10.00">+ operator()()</text>
<text text-anchor="start" x="538.5" y="-211.5" font-family="Helvetica,sans-Serif" font-size="10.00">+ reset()</text>
<text text-anchor="start" x="538.5" y="-200.5" font-family="Helvetica,sans-Serif" font-size="10.00">+ clear()</text>
</a>
</g>
</g>
<!-- Node2 -->
<g id="node2" class="node">
<title>Node2</title>
<g id="a_node2"><a xlink:href="../../d7/d3f/classvanetza_1_1Hook.html" target="_top" xlink:title=" ">
<polygon fill="white" stroke="black" points="0,-0.5 0,-123.5 197,-123.5 197,-0.5 0,-0.5"/>
<text text-anchor="start" x="8" y="-111.5" font-family="Helvetica,sans-Serif" font-size="10.00">vanetza::Hook&lt; const</text>
<text text-anchor="start" x="8" y="-100.5" font-family="Helvetica,sans-Serif" font-size="10.00"> vanetza::geonet::DataIndication</text>
<text text-anchor="middle" x="98.5" y="-89.5" font-family="Helvetica,sans-Serif" font-size="10.00"> &amp;, const vanetza::btp::DataIndication * &gt;</text>
<polyline fill="none" stroke="black" points="0,-82.5 197,-82.5 "/>
<text text-anchor="start" x="8" y="-70.5" font-family="Helvetica,sans-Serif" font-size="10.00">&#45; m_function</text>
<polyline fill="none" stroke="black" points="0,-63.5 197,-63.5 "/>
<text text-anchor="start" x="8" y="-51.5" font-family="Helvetica,sans-Serif" font-size="10.00">+ operator=()</text>
<text text-anchor="start" x="8" y="-40.5" font-family="Helvetica,sans-Serif" font-size="10.00">+ operator=()</text>
<text text-anchor="start" x="8" y="-29.5" font-family="Helvetica,sans-Serif" font-size="10.00">+ operator()()</text>
<text text-anchor="start" x="8" y="-18.5" font-family="Helvetica,sans-Serif" font-size="10.00">+ reset()</text>
<text text-anchor="start" x="8" y="-7.5" font-family="Helvetica,sans-Serif" font-size="10.00">+ clear()</text>
</a>
</g>
</g>
<!-- Node1&#45;&gt;Node2 -->
<g id="edge1" class="edge">
<title>Node1&#45;&gt;Node2</title>
<path fill="none" stroke="orange" d="M520.22,-241.76C406.25,-238.28 186.16,-225.08 129.5,-175 114.76,-161.97 106.75,-142.62 102.48,-123.66"/>
<polygon fill="orange" stroke="orange" points="520.14,-245.26 530.24,-242.05 520.35,-238.26 520.14,-245.26"/>
<text text-anchor="start" x="129.5" y="-167" font-family="Helvetica,sans-Serif" font-size="10.00"> &lt; const vanetza::geonet</text>
<text text-anchor="start" x="129.5" y="-156" font-family="Helvetica,sans-Serif" font-size="10.00">::DataIndication &amp;, const</text>
<text text-anchor="middle" x="200.5" y="-145" font-family="Helvetica,sans-Serif" font-size="10.00"> vanetza::btp::DataIndication * &gt;</text>
</g>
<!-- Node3 -->
<g id="node3" class="node">
<title>Node3</title>
<g id="a_node3"><a xlink:href="../../d7/d3f/classvanetza_1_1Hook.html" target="_top" xlink:title=" ">
<polygon fill="white" stroke="black" points="215,-0.5 215,-123.5 340,-123.5 340,-0.5 215,-0.5"/>
<text text-anchor="start" x="223" y="-111.5" font-family="Helvetica,sans-Serif" font-size="10.00">vanetza::Hook&lt; access</text>
<text text-anchor="start" x="223" y="-100.5" font-family="Helvetica,sans-Serif" font-size="10.00">::AccessCategory, const</text>
<text text-anchor="middle" x="277.5" y="-89.5" font-family="Helvetica,sans-Serif" font-size="10.00"> ChunkPacket * &gt;</text>
<polyline fill="none" stroke="black" points="215,-82.5 340,-82.5 "/>
<text text-anchor="start" x="223" y="-70.5" font-family="Helvetica,sans-Serif" font-size="10.00">&#45; m_function</text>
<polyline fill="none" stroke="black" points="215,-63.5 340,-63.5 "/>
<text text-anchor="start" x="223" y="-51.5" font-family="Helvetica,sans-Serif" font-size="10.00">+ operator=()</text>
<text text-anchor="start" x="223" y="-40.5" font-family="Helvetica,sans-Serif" font-size="10.00">+ operator=()</text>
<text text-anchor="start" x="223" y="-29.5" font-family="Helvetica,sans-Serif" font-size="10.00">+ operator()()</text>
<text text-anchor="start" x="223" y="-18.5" font-family="Helvetica,sans-Serif" font-size="10.00">+ reset()</text>
<text text-anchor="start" x="223" y="-7.5" font-family="Helvetica,sans-Serif" font-size="10.00">+ clear()</text>
</a>
</g>
</g>
<!-- Node1&#45;&gt;Node3 -->
<g id="edge2" class="edge">
<title>Node1&#45;&gt;Node3</title>
<path fill="none" stroke="orange" d="M520,-236.4C441.45,-227.43 320.57,-208.51 290.5,-175 278.08,-161.16 273.09,-142.17 271.72,-123.75"/>
<polygon fill="orange" stroke="orange" points="519.99,-239.92 530.31,-237.55 520.76,-232.97 519.99,-239.92"/>
<text text-anchor="start" x="290.5" y="-161.5" font-family="Helvetica,sans-Serif" font-size="10.00"> &lt; access::AccessCategory,</text>
<text text-anchor="middle" x="353.5" y="-150.5" font-family="Helvetica,sans-Serif" font-size="10.00"> const ChunkPacket * &gt;</text>
</g>
<!-- Node4 -->
<g id="node4" class="node">
<title>Node4</title>
<g id="a_node4"><a xlink:href="../../d7/d3f/classvanetza_1_1Hook.html" target="_top" xlink:title=" ">
<polygon fill="white" stroke="black" points="365.5,-6 365.5,-118 487.5,-118 487.5,-6 365.5,-6"/>
<text text-anchor="start" x="373.5" y="-106" font-family="Helvetica,sans-Serif" font-size="10.00">vanetza::Hook&lt; vanetza</text>
<text text-anchor="middle" x="426.5" y="-95" font-family="Helvetica,sans-Serif" font-size="10.00">::dcc::ChannelLoad &gt;</text>
<polyline fill="none" stroke="black" points="365.5,-88 487.5,-88 "/>
<text text-anchor="start" x="373.5" y="-76" font-family="Helvetica,sans-Serif" font-size="10.00">&#45; m_function</text>
<polyline fill="none" stroke="black" points="365.5,-69 487.5,-69 "/>
<text text-anchor="start" x="373.5" y="-57" font-family="Helvetica,sans-Serif" font-size="10.00">+ operator=()</text>
<text text-anchor="start" x="373.5" y="-46" font-family="Helvetica,sans-Serif" font-size="10.00">+ operator=()</text>
<text text-anchor="start" x="373.5" y="-35" font-family="Helvetica,sans-Serif" font-size="10.00">+ operator()()</text>
<text text-anchor="start" x="373.5" y="-24" font-family="Helvetica,sans-Serif" font-size="10.00">+ reset()</text>
<text text-anchor="start" x="373.5" y="-13" font-family="Helvetica,sans-Serif" font-size="10.00">+ clear()</text>
</a>
</g>
</g>
<!-- Node1&#45;&gt;Node4 -->
<g id="edge3" class="edge">
<title>Node1&#45;&gt;Node4</title>
<path fill="none" stroke="orange" d="M520.41,-230.8C487.9,-221.29 451.88,-204.5 431.5,-175 420.22,-158.67 417.13,-137.57 417.5,-118.09"/>
<polygon fill="orange" stroke="orange" points="519.8,-234.26 530.37,-233.52 521.64,-227.51 519.8,-234.26"/>
<text text-anchor="middle" x="501.5" y="-156" font-family="Helvetica,sans-Serif" font-size="10.00"> &lt; vanetza::dcc::ChannelLoad &gt;</text>
</g>
<!-- Node5 -->
<g id="node5" class="node">
<title>Node5</title>
<g id="a_node5"><a xlink:href="../../d7/d3f/classvanetza_1_1Hook.html" target="_top" xlink:title=" ">
<polygon fill="white" stroke="black" points="506,-0.5 506,-123.5 621,-123.5 621,-0.5 506,-0.5"/>
<text text-anchor="start" x="514" y="-111.5" font-family="Helvetica,sans-Serif" font-size="10.00">vanetza::Hook&lt; const</text>
<text text-anchor="start" x="514" y="-100.5" font-family="Helvetica,sans-Serif" font-size="10.00"> vanetza::dcc::Limeric</text>
<text text-anchor="middle" x="563.5" y="-89.5" font-family="Helvetica,sans-Serif" font-size="10.00"> *, Clock::time_point &gt;</text>
<polyline fill="none" stroke="black" points="506,-82.5 621,-82.5 "/>
<text text-anchor="start" x="514" y="-70.5" font-family="Helvetica,sans-Serif" font-size="10.00">&#45; m_function</text>
<polyline fill="none" stroke="black" points="506,-63.5 621,-63.5 "/>
<text text-anchor="start" x="514" y="-51.5" font-family="Helvetica,sans-Serif" font-size="10.00">+ operator=()</text>
<text text-anchor="start" x="514" y="-40.5" font-family="Helvetica,sans-Serif" font-size="10.00">+ operator=()</text>
<text text-anchor="start" x="514" y="-29.5" font-family="Helvetica,sans-Serif" font-size="10.00">+ operator()()</text>
<text text-anchor="start" x="514" y="-18.5" font-family="Helvetica,sans-Serif" font-size="10.00">+ reset()</text>
<text text-anchor="start" x="514" y="-7.5" font-family="Helvetica,sans-Serif" font-size="10.00">+ clear()</text>
</a>
</g>
</g>
<!-- Node1&#45;&gt;Node5 -->
<g id="edge4" class="edge">
<title>Node1&#45;&gt;Node5</title>
<path fill="none" stroke="orange" d="M580.87,-183.25C578.11,-164.11 575.04,-142.92 572.27,-123.72"/>
<polygon fill="orange" stroke="orange" points="577.43,-183.94 582.33,-193.34 584.36,-182.94 577.43,-183.94"/>
<text text-anchor="start" x="580.5" y="-167" font-family="Helvetica,sans-Serif" font-size="10.00"> &lt; const vanetza::dcc</text>
<text text-anchor="start" x="580.5" y="-156" font-family="Helvetica,sans-Serif" font-size="10.00">::Limeric *, Clock::time</text>
<text text-anchor="middle" x="631" y="-145" font-family="Helvetica,sans-Serif" font-size="10.00">_point &gt;</text>
</g>
<!-- Node6 -->
<g id="node6" class="node">
<title>Node6</title>
<g id="a_node6"><a xlink:href="../../d7/d3f/classvanetza_1_1Hook.html" target="_top" xlink:title=" ">
<polygon fill="white" stroke="black" points="638.5,-6 638.5,-118 814.5,-118 814.5,-6 638.5,-6"/>
<text text-anchor="start" x="646.5" y="-106" font-family="Helvetica,sans-Serif" font-size="10.00">vanetza::Hook&lt; const</text>
<text text-anchor="middle" x="726.5" y="-95" font-family="Helvetica,sans-Serif" font-size="10.00"> vanetza::geonet::CbrAggregator &amp; &gt;</text>
<polyline fill="none" stroke="black" points="638.5,-88 814.5,-88 "/>
<text text-anchor="start" x="646.5" y="-76" font-family="Helvetica,sans-Serif" font-size="10.00">&#45; m_function</text>
<polyline fill="none" stroke="black" points="638.5,-69 814.5,-69 "/>
<text text-anchor="start" x="646.5" y="-57" font-family="Helvetica,sans-Serif" font-size="10.00">+ operator=()</text>
<text text-anchor="start" x="646.5" y="-46" font-family="Helvetica,sans-Serif" font-size="10.00">+ operator=()</text>
<text text-anchor="start" x="646.5" y="-35" font-family="Helvetica,sans-Serif" font-size="10.00">+ operator()()</text>
<text text-anchor="start" x="646.5" y="-24" font-family="Helvetica,sans-Serif" font-size="10.00">+ reset()</text>
<text text-anchor="start" x="646.5" y="-13" font-family="Helvetica,sans-Serif" font-size="10.00">+ clear()</text>
</a>
</g>
</g>
<!-- Node1&#45;&gt;Node6 -->
<g id="edge5" class="edge">
<title>Node1&#45;&gt;Node6</title>
<path fill="none" stroke="orange" d="M656.83,-203.36C667.42,-194.99 677.49,-185.47 685.5,-175 698.2,-158.39 707.26,-137.45 713.58,-118.18"/>
<polygon fill="orange" stroke="orange" points="654.53,-200.72 648.66,-209.54 658.75,-206.3 654.53,-200.72"/>
<text text-anchor="start" x="704.5" y="-161.5" font-family="Helvetica,sans-Serif" font-size="10.00"> &lt; const vanetza::geonet</text>
<text text-anchor="middle" x="759" y="-150.5" font-family="Helvetica,sans-Serif" font-size="10.00">::CbrAggregator &amp; &gt;</text>
</g>
<!-- Node7 -->
<g id="node7" class="node">
<title>Node7</title>
<g id="a_node7"><a xlink:href="../../d7/d3f/classvanetza_1_1Hook.html" target="_top" xlink:title=" ">
<polygon fill="white" stroke="black" points="832.5,-6 832.5,-118 972.5,-118 972.5,-6 832.5,-6"/>
<text text-anchor="start" x="840.5" y="-106" font-family="Helvetica,sans-Serif" font-size="10.00">vanetza::Hook&lt; PacketDrop</text>
<text text-anchor="middle" x="902.5" y="-95" font-family="Helvetica,sans-Serif" font-size="10.00">Reason &gt;</text>
<polyline fill="none" stroke="black" points="832.5,-88 972.5,-88 "/>
<text text-anchor="start" x="840.5" y="-76" font-family="Helvetica,sans-Serif" font-size="10.00">&#45; m_function</text>
<polyline fill="none" stroke="black" points="832.5,-69 972.5,-69 "/>
<text text-anchor="start" x="840.5" y="-57" font-family="Helvetica,sans-Serif" font-size="10.00">+ operator=()</text>
<text text-anchor="start" x="840.5" y="-46" font-family="Helvetica,sans-Serif" font-size="10.00">+ operator=()</text>
<text text-anchor="start" x="840.5" y="-35" font-family="Helvetica,sans-Serif" font-size="10.00">+ operator()()</text>
<text text-anchor="start" x="840.5" y="-24" font-family="Helvetica,sans-Serif" font-size="10.00">+ reset()</text>
<text text-anchor="start" x="840.5" y="-13" font-family="Helvetica,sans-Serif" font-size="10.00">+ clear()</text>
</a>
</g>
</g>
<!-- Node1&#45;&gt;Node7 -->
<g id="edge6" class="edge">
<title>Node1&#45;&gt;Node7</title>
<path fill="none" stroke="orange" d="M658.67,-233.97C706.62,-225.07 770.1,-207.82 817.5,-175 838.77,-160.27 857,-138.53 871.06,-118.12"/>
<polygon fill="orange" stroke="orange" points="657.92,-230.55 648.69,-235.74 659.15,-237.44 657.92,-230.55"/>
<text text-anchor="middle" x="904.5" y="-156" font-family="Helvetica,sans-Serif" font-size="10.00"> &lt; PacketDropReason &gt;</text>
</g>
<!-- Node8 -->
<g id="node8" class="node">
<title>Node8</title>
<g id="a_node8"><a xlink:href="../../d7/d3f/classvanetza_1_1Hook.html" target="_top" xlink:title=" ">
<polygon fill="white" stroke="black" points="991,-6 991,-118 1128,-118 1128,-6 991,-6"/>
<text text-anchor="start" x="999" y="-106" font-family="Helvetica,sans-Serif" font-size="10.00">vanetza::Hook&lt; Forwarding</text>
<text text-anchor="middle" x="1059.5" y="-95" font-family="Helvetica,sans-Serif" font-size="10.00">StopReason &gt;</text>
<polyline fill="none" stroke="black" points="991,-88 1128,-88 "/>
<text text-anchor="start" x="999" y="-76" font-family="Helvetica,sans-Serif" font-size="10.00">&#45; m_function</text>
<polyline fill="none" stroke="black" points="991,-69 1128,-69 "/>
<text text-anchor="start" x="999" y="-57" font-family="Helvetica,sans-Serif" font-size="10.00">+ operator=()</text>
<text text-anchor="start" x="999" y="-46" font-family="Helvetica,sans-Serif" font-size="10.00">+ operator=()</text>
<text text-anchor="start" x="999" y="-35" font-family="Helvetica,sans-Serif" font-size="10.00">+ operator()()</text>
<text text-anchor="start" x="999" y="-24" font-family="Helvetica,sans-Serif" font-size="10.00">+ reset()</text>
<text text-anchor="start" x="999" y="-13" font-family="Helvetica,sans-Serif" font-size="10.00">+ clear()</text>
</a>
</g>
</g>
<!-- Node1&#45;&gt;Node8 -->
<g id="edge7" class="edge">
<title>Node1&#45;&gt;Node8</title>
<path fill="none" stroke="orange" d="M658.92,-235.83C751.85,-225.3 910.87,-203.74 961.5,-175 985.77,-161.22 1007,-139.14 1023.44,-118.2"/>
<polygon fill="orange" stroke="orange" points="658.31,-232.38 648.76,-236.97 659.09,-239.33 658.31,-232.38"/>
<text text-anchor="middle" x="1063" y="-156" font-family="Helvetica,sans-Serif" font-size="10.00"> &lt; ForwardingStopReason &gt;</text>
</g>
</g>
</svg>
        <g id="navigator" transform="translate(0 0)" fill="#404254">
                <rect fill="#f2f5e9" fill-opacity="0.5" stroke="#606060" stroke-width=".5" x="0" y="0" width="60" height="60"/>
                <use id="zoomplus" xlink:href="#zoomPlus" x="17" y="9" onmousedown="handleZoom(evt,'in')"/>
                <use id="zoomminus" xlink:href="#zoomMin" x="42" y="9" onmousedown="handleZoom(evt,'out')"/>
                <use id="reset" xlink:href="#resetDef" x="30" y="36" onmousedown="handleReset()"/>
                <g id="arrowUp" xlink:href="#dirArrow" transform="translate(30 24)" onmousedown="handlePan(0,-1)">
                  <use xlink:href="#rim" fill="#404040">
                        <set attributeName="fill" to="#808080" begin="arrowUp.mouseover" end="arrowUp.mouseout"/>
                  </use>
                  <path fill="none" stroke="white" stroke-width="1.5" d="M0,-3.0v7 M-2.5,-0.5L0,-3.0L2.5,-0.5"/>
                </g>
                <g id="arrowRight" xlink:href="#dirArrow" transform="rotate(90) translate(36 -43)" onmousedown="handlePan(1,0)">
                  <use xlink:href="#rim" fill="#404040">
                        <set attributeName="fill" to="#808080" begin="arrowRight.mouseover" end="arrowRight.mouseout"/>
                  </use>
                  <path fill="none" stroke="white" stroke-width="1.5" d="M0,-3.0v7 M-2.5,-0.5L0,-3.0L2.5,-0.5"/>
                </g>
                <g id="arrowDown" xlink:href="#dirArrow" transform="rotate(180) translate(-30 -48)" onmousedown="handlePan(0,1)">
                  <use xlink:href="#rim" fill="#404040">
                        <set attributeName="fill" to="#808080" begin="arrowDown.mouseover" end="arrowDown.mouseout"/>
                  </use>
                  <path fill="none" stroke="white" stroke-width="1.5" d="M0,-3.0v7 M-2.5,-0.5L0,-3.0L2.5,-0.5"/>
                </g>
                <g id="arrowLeft" xlink:href="#dirArrow" transform="rotate(270) translate(-36 17)" onmousedown="handlePan(-1,0)">
                  <use xlink:href="#rim" fill="#404040">
                        <set attributeName="fill" to="#808080" begin="arrowLeft.mouseover" end="arrowLeft.mouseout"/>
                  </use>
                  <path fill="none" stroke="white" stroke-width="1.5" d="M0,-3.0v7 M-2.5,-0.5L0,-3.0L2.5,-0.5"/>
                </g>
        </g>
        <svg viewBox="0 0 15 15" width="100%" height="30px" preserveAspectRatio="xMaxYMin meet">
         <g id="arrow_out" transform="scale(0.3 0.3)">
          <a xlink:href="classvanetza_1_1Hook__inherit__graph_org.svg" target="_base">
           <rect id="button" ry="5" rx="5" y="6" x="6" height="38" width="38"
                fill="#f2f5e9" fill-opacity="0.5" stroke="#606060" stroke-width="1.0"/>
           <path id="arrow"
             d="M 11.500037,31.436501 C 11.940474,20.09759 22.043105,11.32322 32.158766,21.979434 L 37.068811,17.246167 C 37.068811,17.246167 37.088388,32 37.088388,32 L 22.160133,31.978069 C 22.160133,31.978069 26.997745,27.140456 26.997745,27.140456 C 18.528582,18.264221 13.291696,25.230495 11.500037,31.436501 z"
             style="fill:#404040;"/>
          </a>
         </g>
        </svg>
</svg>
