<?xml version="1.0" encoding="UTF-8" standalone="no"?>
<!DOCTYPE svg PUBLIC "-//W3C//DTD SVG 1.1//EN"
 "http://www.w3.org/Graphics/SVG/1.1/DTD/svg11.dtd">
<!-- Generated by graphviz version 2.42.3 (0)
 -->
<!-- Title: vanetza::HookRegistry&lt; Args &gt; Pages: 1 -->
<svg width="477pt" height="303pt"
 viewBox="0.00 0.00 476.50 303.00" xmlns="http://www.w3.org/2000/svg" xmlns:xlink="http://www.w3.org/1999/xlink">
<g id="graph0" class="graph" transform="scale(1 1) rotate(0) translate(4 299)">
<title>vanetza::HookRegistry&lt; Args &gt;</title>
<polygon fill="white" stroke="transparent" points="-4,4 -4,-299 472.5,-299 472.5,4 -4,4"/>
<!-- Node1 -->
<g id="node1" class="node">
<title>Node1</title>
<g id="a_node1"><a xlink:title=" ">
<polygon fill="#bfbfbf" stroke="black" points="138.5,-193.5 138.5,-294.5 254.5,-294.5 254.5,-193.5 138.5,-193.5"/>
<text text-anchor="start" x="146.5" y="-282.5" font-family="Helvetica,sans-Serif" font-size="10.00">vanetza::HookRegistry</text>
<text text-anchor="middle" x="196.5" y="-271.5" font-family="Helvetica,sans-Serif" font-size="10.00">&lt; Args &gt;</text>
<polyline fill="none" stroke="black" points="138.5,-264.5 254.5,-264.5 "/>
<text text-anchor="start" x="146.5" y="-252.5" font-family="Helvetica,sans-Serif" font-size="10.00">&#45; m_hook</text>
<polyline fill="none" stroke="black" points="138.5,-245.5 254.5,-245.5 "/>
<text text-anchor="start" x="146.5" y="-233.5" font-family="Helvetica,sans-Serif" font-size="10.00">+ HookRegistry()</text>
<text text-anchor="start" x="146.5" y="-222.5" font-family="Helvetica,sans-Serif" font-size="10.00">+ operator=()</text>
<text text-anchor="start" x="146.5" y="-211.5" font-family="Helvetica,sans-Serif" font-size="10.00">+ operator=()</text>
<text text-anchor="start" x="146.5" y="-200.5" font-family="Helvetica,sans-Serif" font-size="10.00">+ reset()</text>
</a>
</g>
</g>
<!-- Node2 -->
<g id="node2" class="node">
<title>Node2</title>
<g id="a_node2"><a xlink:href="../../dd/d5e/classvanetza_1_1HookRegistry.html" target="_top" xlink:title=" ">
<polygon fill="white" stroke="black" points="0,-0.5 0,-123.5 117,-123.5 117,-0.5 0,-0.5"/>
<text text-anchor="start" x="8" y="-111.5" font-family="Helvetica,sans-Serif" font-size="10.00">vanetza::HookRegistry</text>
<text text-anchor="start" x="8" y="-100.5" font-family="Helvetica,sans-Serif" font-size="10.00">&lt; const vanetza::dcc</text>
<text text-anchor="start" x="8" y="-89.5" font-family="Helvetica,sans-Serif" font-size="10.00">::Limeric *, Clock::time</text>
<text text-anchor="middle" x="58.5" y="-78.5" font-family="Helvetica,sans-Serif" font-size="10.00">_point &gt;</text>
<polyline fill="none" stroke="black" points="0,-71.5 117,-71.5 "/>
<text text-anchor="start" x="8" y="-59.5" font-family="Helvetica,sans-Serif" font-size="10.00">&#45; m_hook</text>
<polyline fill="none" stroke="black" points="0,-52.5 117,-52.5 "/>
<text text-anchor="start" x="8" y="-40.5" font-family="Helvetica,sans-Serif" font-size="10.00">+ HookRegistry()</text>
<text text-anchor="start" x="8" y="-29.5" font-family="Helvetica,sans-Serif" font-size="10.00">+ operator=()</text>
<text text-anchor="start" x="8" y="-18.5" font-family="Helvetica,sans-Serif" font-size="10.00">+ operator=()</text>
<text text-anchor="start" x="8" y="-7.5" font-family="Helvetica,sans-Serif" font-size="10.00">+ reset()</text>
</a>
</g>
</g>
<!-- Node1&#45;&gt;Node2 -->
<g id="edge1" class="edge">
<title>Node1&#45;&gt;Node2</title>
<path fill="none" stroke="orange" d="M129.82,-209.99C115.54,-200.36 101.71,-188.67 91.5,-175 80.34,-160.06 72.94,-141.39 68.04,-123.6"/>
<polygon fill="orange" stroke="orange" points="127.94,-212.95 138.25,-215.42 131.74,-207.07 127.94,-212.95"/>
<text text-anchor="start" x="91.5" y="-167" font-family="Helvetica,sans-Serif" font-size="10.00"> &lt; const vanetza::dcc</text>
<text text-anchor="start" x="91.5" y="-156" font-family="Helvetica,sans-Serif" font-size="10.00">::Limeric *, Clock::time</text>
<text text-anchor="middle" x="142" y="-145" font-family="Helvetica,sans-Serif" font-size="10.00">_point &gt;</text>
</g>
<!-- Node3 -->
<g id="node3" class="node">
<title>Node3</title>
<g id="a_node3"><a xlink:href="../../dd/d5e/classvanetza_1_1HookRegistry.html" target="_top" xlink:title=" ">
<polygon fill="white" stroke="black" points="135.5,-6 135.5,-118 257.5,-118 257.5,-6 135.5,-6"/>
<text text-anchor="start" x="143.5" y="-106" font-family="Helvetica,sans-Serif" font-size="10.00">vanetza::HookRegistry</text>
<text text-anchor="start" x="143.5" y="-95" font-family="Helvetica,sans-Serif" font-size="10.00">&lt; const vanetza::geonet</text>
<text text-anchor="middle" x="196.5" y="-84" font-family="Helvetica,sans-Serif" font-size="10.00">::CbrAggregator &amp; &gt;</text>
<polyline fill="none" stroke="black" points="135.5,-77 257.5,-77 "/>
<text text-anchor="start" x="143.5" y="-65" font-family="Helvetica,sans-Serif" font-size="10.00">&#45; m_hook</text>
<polyline fill="none" stroke="black" points="135.5,-58 257.5,-58 "/>
<text text-anchor="start" x="143.5" y="-46" font-family="Helvetica,sans-Serif" font-size="10.00">+ HookRegistry()</text>
<text text-anchor="start" x="143.5" y="-35" font-family="Helvetica,sans-Serif" font-size="10.00">+ operator=()</text>
<text text-anchor="start" x="143.5" y="-24" font-family="Helvetica,sans-Serif" font-size="10.00">+ operator=()</text>
<text text-anchor="start" x="143.5" y="-13" font-family="Helvetica,sans-Serif" font-size="10.00">+ reset()</text>
</a>
</g>
</g>
<!-- Node1&#45;&gt;Node3 -->
<g id="edge2" class="edge">
<title>Node1&#45;&gt;Node3</title>
<path fill="none" stroke="orange" d="M196.5,-183.26C196.5,-162.27 196.5,-138.8 196.5,-118.2"/>
<polygon fill="orange" stroke="orange" points="193,-183.34 196.5,-193.34 200,-183.34 193,-183.34"/>
<text text-anchor="start" x="196.5" y="-161.5" font-family="Helvetica,sans-Serif" font-size="10.00"> &lt; const vanetza::geonet</text>
<text text-anchor="middle" x="251" y="-150.5" font-family="Helvetica,sans-Serif" font-size="10.00">::CbrAggregator &amp; &gt;</text>
</g>
<!-- Node4 -->
<g id="node4" class="node">
<title>Node4</title>
<g id="a_node4"><a xlink:href="../../dd/d5e/classvanetza_1_1HookRegistry.html" target="_top" xlink:title=" ">
<polygon fill="white" stroke="black" points="276,-11.5 276,-112.5 429,-112.5 429,-11.5 276,-11.5"/>
<text text-anchor="start" x="284" y="-100.5" font-family="Helvetica,sans-Serif" font-size="10.00">vanetza::HookRegistry</text>
<text text-anchor="middle" x="352.5" y="-89.5" font-family="Helvetica,sans-Serif" font-size="10.00">&lt; vanetza::dcc::ChannelLoad &gt;</text>
<polyline fill="none" stroke="black" points="276,-82.5 429,-82.5 "/>
<text text-anchor="start" x="284" y="-70.5" font-family="Helvetica,sans-Serif" font-size="10.00">&#45; m_hook</text>
<polyline fill="none" stroke="black" points="276,-63.5 429,-63.5 "/>
<text text-anchor="start" x="284" y="-51.5" font-family="Helvetica,sans-Serif" font-size="10.00">+ HookRegistry()</text>
<text text-anchor="start" x="284" y="-40.5" font-family="Helvetica,sans-Serif" font-size="10.00">+ operator=()</text>
<text text-anchor="start" x="284" y="-29.5" font-family="Helvetica,sans-Serif" font-size="10.00">+ operator=()</text>
<text text-anchor="start" x="284" y="-18.5" font-family="Helvetica,sans-Serif" font-size="10.00">+ reset()</text>
</a>
</g>
</g>
<!-- Node1&#45;&gt;Node4 -->
<g id="edge3" class="edge">
<title>Node1&#45;&gt;Node4</title>
<path fill="none" stroke="orange" d="M263.32,-212.68C280.11,-202.59 296.91,-190.01 309.5,-175 324.42,-157.21 334.5,-133.66 341.13,-112.76"/>
<polygon fill="orange" stroke="orange" points="261.48,-209.7 254.56,-217.73 264.97,-215.76 261.48,-209.7"/>
<text text-anchor="middle" x="398.5" y="-156" font-family="Helvetica,sans-Serif" font-size="10.00"> &lt; vanetza::dcc::ChannelLoad &gt;</text>
</g>
</g>
</svg>
