<?xml version="1.0" encoding="UTF-8" standalone="no"?>
<!DOCTYPE svg PUBLIC "-//W3C//DTD SVG 1.1//EN"
 "http://www.w3.org/Graphics/SVG/1.1/DTD/svg11.dtd">
<!-- Generated by graphviz version 14.1.2 (0)
 -->
<!-- Title: vanetza::HookRegistry&lt; Args &gt; Pages: 1 -->
<svg width="540pt" height="340pt"
 viewBox="0.00 0.00 540.00 340.00" xmlns="http://www.w3.org/2000/svg" xmlns:xlink="http://www.w3.org/1999/xlink">
<g id="graph0" class="graph" transform="scale(1 1) rotate(0) translate(4 335.5)">
<title>vanetza::HookRegistry&lt; Args &gt;</title>
<!-- Node1 -->
<g id="Node000001" class="node">
<title>Node1</title>
<g id="a_Node000001"><a xlink:title=" ">
<polygon fill="#999999" stroke="none" points="322,-331.5 203,-331.5 203,-214.25 322,-214.25 322,-331.5"/>
<text xml:space="preserve" text-anchor="start" x="207" y="-318" font-family="Helvetica,sans-Serif" font-size="10.00">vanetza::HookRegistry</text>
<text xml:space="preserve" text-anchor="start" x="240.38" y="-305.25" font-family="Helvetica,sans-Serif" font-size="10.00">&lt; Args &gt;</text>
<text xml:space="preserve" text-anchor="start" x="215.56" y="-288.5" font-family="Helvetica,sans-Serif" font-size="10.00">&#45;</text>
<text xml:space="preserve" text-anchor="start" x="231.88" y="-288.5" font-family="Helvetica,sans-Serif" font-size="10.00">m_hook</text>
<text xml:space="preserve" text-anchor="start" x="213.31" y="-271.75" font-family="Helvetica,sans-Serif" font-size="10.00">+</text>
<text xml:space="preserve" text-anchor="start" x="231.88" y="-271.75" font-family="Helvetica,sans-Serif" font-size="10.00">HookRegistry()</text>
<text xml:space="preserve" text-anchor="start" x="213.31" y="-255" font-family="Helvetica,sans-Serif" font-size="10.00">+</text>
<text xml:space="preserve" text-anchor="start" x="231.88" y="-255" font-family="Helvetica,sans-Serif" font-size="10.00">operator=()</text>
<text xml:space="preserve" text-anchor="start" x="213.31" y="-238.25" font-family="Helvetica,sans-Serif" font-size="10.00">+</text>
<text xml:space="preserve" text-anchor="start" x="231.88" y="-238.25" font-family="Helvetica,sans-Serif" font-size="10.00">operator=()</text>
<text xml:space="preserve" text-anchor="start" x="213.31" y="-221.5" font-family="Helvetica,sans-Serif" font-size="10.00">+</text>
<text xml:space="preserve" text-anchor="start" x="231.88" y="-221.5" font-family="Helvetica,sans-Serif" font-size="10.00">reset()</text>
<polygon fill="#666666" stroke="#666666" points="203,-300 203,-300 322,-300 322,-300 203,-300"/>
<polygon fill="#666666" stroke="#666666" points="203,-283.25 203,-283.25 229.88,-283.25 229.88,-283.25 203,-283.25"/>
<polygon fill="#666666" stroke="#666666" points="229.88,-283.25 229.88,-283.25 322,-283.25 322,-283.25 229.88,-283.25"/>
<polygon fill="none" stroke="#666666" points="203,-214.25 203,-331.5 322,-331.5 322,-214.25 203,-214.25"/>
</a>
</g>
</g>
<!-- Node2 -->
<g id="Node000002" class="node">
<title>Node2</title>
<g id="a_Node000002"><a xlink:href="../../dd/d5e/classvanetza_1_1HookRegistry.html" target="_top" xlink:title=" ">
<polygon fill="white" stroke="none" points="161,-113.25 0,-113.25 0,-12.75 161,-12.75 161,-113.25"/>
<text xml:space="preserve" text-anchor="start" x="4" y="-99.75" font-family="Helvetica,sans-Serif" font-size="10.00">vanetza::HookRegistry</text>
<text xml:space="preserve" text-anchor="start" x="4" y="-87" font-family="Helvetica,sans-Serif" font-size="10.00">&lt; vanetza::dcc::ChannelLoad &gt;</text>
<text xml:space="preserve" text-anchor="start" x="23.06" y="-70.25" font-family="Helvetica,sans-Serif" font-size="10.00">&#45;</text>
<text xml:space="preserve" text-anchor="start" x="49.88" y="-70.25" font-family="Helvetica,sans-Serif" font-size="10.00">m_hook</text>
<text xml:space="preserve" text-anchor="start" x="20.81" y="-53.5" font-family="Helvetica,sans-Serif" font-size="10.00">+</text>
<text xml:space="preserve" text-anchor="start" x="49.88" y="-53.5" font-family="Helvetica,sans-Serif" font-size="10.00">HookRegistry()</text>
<text xml:space="preserve" text-anchor="start" x="20.81" y="-36.75" font-family="Helvetica,sans-Serif" font-size="10.00">+</text>
<text xml:space="preserve" text-anchor="start" x="49.88" y="-36.75" font-family="Helvetica,sans-Serif" font-size="10.00">operator=()</text>
<text xml:space="preserve" text-anchor="start" x="20.81" y="-20" font-family="Helvetica,sans-Serif" font-size="10.00">+</text>
<text xml:space="preserve" text-anchor="start" x="49.88" y="-20" font-family="Helvetica,sans-Serif" font-size="10.00">reset()</text>
<polygon fill="#666666" stroke="#666666" points="0,-81.75 0,-81.75 161,-81.75 161,-81.75 0,-81.75"/>
<polygon fill="#666666" stroke="#666666" points="0,-65 0,-65 47.88,-65 47.88,-65 0,-65"/>
<polygon fill="#666666" stroke="#666666" points="47.88,-65 47.88,-65 161,-65 161,-65 47.88,-65"/>
<polygon fill="none" stroke="#666666" points="0,-12.75 0,-113.25 161,-113.25 161,-12.75 0,-12.75"/>
</a>
</g>
</g>
<!-- Node1&#45;&gt;Node2 -->
<g id="edge1_Node000001_Node000002" class="edge">
<title>Node1&#45;&gt;Node2</title>
<g id="a_edge1_Node000001_Node000002"><a xlink:title=" ">
<path fill="none" stroke="orange" d="M192.67,-256.08C159.34,-244.92 121.93,-226.4 99.5,-196.25 81.99,-172.71 77.14,-140.14 76.72,-113.21"/>
<polygon fill="orange" stroke="orange" points="191.29,-259.32 201.88,-259 193.4,-252.64 191.29,-259.32"/>
</a>
</g>
<text xml:space="preserve" text-anchor="start" x="102.5" y="-167" font-family="Helvetica,sans-Serif" font-size="10.00" fill="grey">&lt; vanetza::dcc::ChannelLoad &gt;</text>
</g>
<!-- Node3 -->
<g id="Node000003" class="node">
<title>Node3</title>
<g id="a_Node000003"><a xlink:href="../../dd/d5e/classvanetza_1_1HookRegistry.html" target="_top" xlink:title=" ">
<polygon fill="white" stroke="none" points="322.38,-126 202.62,-126 202.62,0 322.38,0 322.38,-126"/>
<text xml:space="preserve" text-anchor="start" x="206.62" y="-112.5" font-family="Helvetica,sans-Serif" font-size="10.00">vanetza::HookRegistry</text>
<text xml:space="preserve" text-anchor="start" x="206.62" y="-99.75" font-family="Helvetica,sans-Serif" font-size="10.00">&lt; const vanetza::dcc</text>
<text xml:space="preserve" text-anchor="start" x="206.62" y="-87" font-family="Helvetica,sans-Serif" font-size="10.00">::Limeric *, Clock::time</text>
<text xml:space="preserve" text-anchor="start" x="241.88" y="-74.25" font-family="Helvetica,sans-Serif" font-size="10.00">_point &gt;</text>
<text xml:space="preserve" text-anchor="start" x="215.38" y="-57.5" font-family="Helvetica,sans-Serif" font-size="10.00">&#45;</text>
<text xml:space="preserve" text-anchor="start" x="231.88" y="-57.5" font-family="Helvetica,sans-Serif" font-size="10.00">m_hook</text>
<text xml:space="preserve" text-anchor="start" x="213.12" y="-40.75" font-family="Helvetica,sans-Serif" font-size="10.00">+</text>
<text xml:space="preserve" text-anchor="start" x="231.88" y="-40.75" font-family="Helvetica,sans-Serif" font-size="10.00">HookRegistry()</text>
<text xml:space="preserve" text-anchor="start" x="213.12" y="-24" font-family="Helvetica,sans-Serif" font-size="10.00">+</text>
<text xml:space="preserve" text-anchor="start" x="231.88" y="-24" font-family="Helvetica,sans-Serif" font-size="10.00">operator=()</text>
<text xml:space="preserve" text-anchor="start" x="213.12" y="-7.25" font-family="Helvetica,sans-Serif" font-size="10.00">+</text>
<text xml:space="preserve" text-anchor="start" x="231.88" y="-7.25" font-family="Helvetica,sans-Serif" font-size="10.00">reset()</text>
<polygon fill="#666666" stroke="#666666" points="202.62,-69 202.62,-69 322.38,-69 322.38,-69 202.62,-69"/>
<polygon fill="#666666" stroke="#666666" points="202.62,-52.25 202.62,-52.25 229.88,-52.25 229.88,-52.25 202.62,-52.25"/>
<polygon fill="#666666" stroke="#666666" points="229.88,-52.25 229.88,-52.25 322.38,-52.25 322.38,-52.25 229.88,-52.25"/>
<polygon fill="none" stroke="#666666" points="202.62,0 202.62,-126 322.38,-126 322.38,0 202.62,0"/>
</a>
</g>
</g>
<!-- Node1&#45;&gt;Node3 -->
<g id="edge2_Node000001_Node000003" class="edge">
<title>Node1&#45;&gt;Node3</title>
<g id="a_edge2_Node000001_Node000003"><a xlink:title=" ">
<path fill="none" stroke="orange" d="M262.5,-203.29C262.5,-178.32 262.5,-150.26 262.5,-125.9"/>
<polygon fill="orange" stroke="orange" points="259,-203.01 262.5,-213.01 266,-203.01 259,-203.01"/>
</a>
</g>
<text xml:space="preserve" text-anchor="start" x="265.5" y="-183.75" font-family="Helvetica,sans-Serif" font-size="10.00" fill="grey">&lt; const vanetza::dcc</text>
<text xml:space="preserve" text-anchor="start" x="265.5" y="-167" font-family="Helvetica,sans-Serif" font-size="10.00" fill="grey">  ::Limeric *, Clock::time</text>
<text xml:space="preserve" text-anchor="start" x="265.5" y="-150.25" font-family="Helvetica,sans-Serif" font-size="10.00" fill="grey">  _point &gt;</text>
</g>
<!-- Node4 -->
<g id="Node000004" class="node">
<title>Node4</title>
<g id="a_Node000004"><a xlink:href="../../dd/d5e/classvanetza_1_1HookRegistry.html" target="_top" xlink:title=" ">
<polygon fill="white" stroke="none" points="473.12,-119.62 345.88,-119.62 345.88,-6.38 473.12,-6.38 473.12,-119.62"/>
<text xml:space="preserve" text-anchor="start" x="349.88" y="-106.12" font-family="Helvetica,sans-Serif" font-size="10.00">vanetza::HookRegistry</text>
<text xml:space="preserve" text-anchor="start" x="349.88" y="-93.38" font-family="Helvetica,sans-Serif" font-size="10.00">&lt; const vanetza::geonet</text>
<text xml:space="preserve" text-anchor="start" x="360.38" y="-80.62" font-family="Helvetica,sans-Serif" font-size="10.00">::CbrAggregator &amp; &gt;</text>
<text xml:space="preserve" text-anchor="start" x="360.5" y="-63.88" font-family="Helvetica,sans-Serif" font-size="10.00">&#45;</text>
<text xml:space="preserve" text-anchor="start" x="378.88" y="-63.88" font-family="Helvetica,sans-Serif" font-size="10.00">m_hook</text>
<text xml:space="preserve" text-anchor="start" x="358.25" y="-47.12" font-family="Helvetica,sans-Serif" font-size="10.00">+</text>
<text xml:space="preserve" text-anchor="start" x="378.88" y="-47.12" font-family="Helvetica,sans-Serif" font-size="10.00">HookRegistry()</text>
<text xml:space="preserve" text-anchor="start" x="358.25" y="-30.38" font-family="Helvetica,sans-Serif" font-size="10.00">+</text>
<text xml:space="preserve" text-anchor="start" x="378.88" y="-30.38" font-family="Helvetica,sans-Serif" font-size="10.00">operator=()</text>
<text xml:space="preserve" text-anchor="start" x="358.25" y="-13.62" font-family="Helvetica,sans-Serif" font-size="10.00">+</text>
<text xml:space="preserve" text-anchor="start" x="378.88" y="-13.62" font-family="Helvetica,sans-Serif" font-size="10.00">reset()</text>
<polygon fill="#666666" stroke="#666666" points="345.88,-75.38 345.88,-75.38 473.12,-75.38 473.12,-75.38 345.88,-75.38"/>
<polygon fill="#666666" stroke="#666666" points="345.88,-58.62 345.88,-58.62 376.88,-58.62 376.88,-58.62 345.88,-58.62"/>
<polygon fill="#666666" stroke="#666666" points="376.88,-58.62 376.88,-58.62 473.12,-58.62 473.12,-58.62 376.88,-58.62"/>
<polygon fill="none" stroke="#666666" points="345.88,-6.38 345.88,-119.62 473.12,-119.62 473.12,-6.38 345.88,-6.38"/>
</a>
</g>
</g>
<!-- Node1&#45;&gt;Node4 -->
<g id="edge3_Node000001_Node000004" class="edge">
<title>Node1&#45;&gt;Node4</title>
<g id="a_edge3_Node000001_Node000004"><a xlink:title=" ">
<path fill="none" stroke="orange" d="M331.77,-243.89C352.73,-232.16 373.8,-216.46 387.5,-196.25 402.65,-173.9 408.59,-144.65 410.55,-119.35"/>
<polygon fill="orange" stroke="orange" points="330.37,-240.67 323.19,-248.46 333.66,-246.85 330.37,-240.67"/>
</a>
</g>
<text xml:space="preserve" text-anchor="start" x="410" y="-175.38" font-family="Helvetica,sans-Serif" font-size="10.00" fill="grey">&lt; const vanetza::geonet</text>
<text xml:space="preserve" text-anchor="start" x="410" y="-158.62" font-family="Helvetica,sans-Serif" font-size="10.00" fill="grey">  ::CbrAggregator &amp; &gt;</text>
</g>
</g>
</svg>
