<?xml version="1.0" encoding="UTF-8" standalone="no"?>
<!DOCTYPE svg PUBLIC "-//W3C//DTD SVG 1.1//EN"
 "http://www.w3.org/Graphics/SVG/1.1/DTD/svg11.dtd">
<!-- Generated by graphviz version 14.1.2 (0)
 -->
<!-- Title: vanetza::HookRegistry&lt; Args &gt; Pages: 1 -->
<!--zoomable 340 -->

<svg id="main" version="1.1" xmlns="http://www.w3.org/2000/svg" xmlns:xlink="http://www.w3.org/1999/xlink" xml:space="preserve" onload="init(evt)">

<style type="text/css"><![CDATA[
.node, .edge {opacity: 0.7;}
.node.selected, .edge.selected {opacity: 1;}
.edge:hover path { stroke: red; }
.edge:hover polygon { stroke: red; fill: red; }
]]></style>

<defs>
  <circle id="rim" cx="0" cy="0" r="7"/>
  <circle id="rim2" cx="0" cy="0" r="3.5"/>
  <g id="zoomPlus">
    <use xlink:href="#rim" fill="#404040"><set attributeName="fill" to="#808080" begin="zoomplus.mouseover" end="zoomplus.mouseout"/></use>
    <path d="M-4,0h8M0,-4v8" fill="none" stroke="white" stroke-width="1.5" pointer-events="none"/>
  </g>
  <g id="zoomMin">
    <use xlink:href="#rim" fill="#404040"><set attributeName="fill" to="#808080" begin="zoomminus.mouseover" end="zoomminus.mouseout"/></use>
    <path d="M-4,0h8" fill="none" stroke="white" stroke-width="1.5" pointer-events="none"/>
  </g>
  <g id="arrowUp" transform="translate(30 24)">
    <use xlink:href="#rim"/>
    <path pointer-events="none" fill="none" stroke="white" stroke-width="1.5" d="M0,-3.0v7 M-2.5,-0.5L0,-3.0L2.5,-0.5"/>
  </g>
  <g id="arrowRight" transform="rotate(90) translate(36 -43)">
    <use xlink:href="#rim"/>
    <path pointer-events="none" fill="none" stroke="white" stroke-width="1.5" d="M0,-3.0v7 M-2.5,-0.5L0,-3.0L2.5,-0.5"/>
  </g>
  <g id="arrowDown" transform="rotate(180) translate(-30 -48)">
    <use xlink:href="#rim"/>
    <path pointer-events="none" fill="none" stroke="white" stroke-width="1.5" d="M0,-3.0v7 M-2.5,-0.5L0,-3.0L2.5,-0.5"/>
  </g>
  <g id="arrowLeft" transform="rotate(270) translate(-36 17)">
    <use xlink:href="#rim"/>
    <path pointer-events="none" fill="none" stroke="white" stroke-width="1.5" d="M0,-3.0v7 M-2.5,-0.5L0,-3.0L2.5,-0.5"/>
  </g>
  <g id="resetDef">
    <use xlink:href="#rim2" fill="#404040"><set attributeName="fill" to="#808080" begin="reset.mouseover" end="reset.mouseout"/></use>
  </g>
</defs>
<script type="application/ecmascript">
var viewWidth = 540;
var viewHeight = 340;
var sectionId = 'dynsection-0';
</script>
<script type="application/ecmascript" xlink:href="../../svg.min.js"/>
<svg id="graph" class="graph">
<g id="viewport">
<title>vanetza::HookRegistry&lt; Args &gt;</title>
<!-- Node1 -->
<g id="Node000001" class="node">
<title>Node1</title>
<g id="a_Node000001"><a xlink:title=" ">
<polygon fill="#999999" stroke="none" points="322,-331.5 203,-331.5 203,-214.25 322,-214.25 322,-331.5"/>
<text xml:space="preserve" text-anchor="start" x="207" y="-318" font-family="Helvetica,sans-Serif" font-size="10.00">vanetza::HookRegistry</text>
<text xml:space="preserve" text-anchor="start" x="240.38" y="-305.25" font-family="Helvetica,sans-Serif" font-size="10.00">&lt; Args &gt;</text>
<text xml:space="preserve" text-anchor="start" x="215.56" y="-288.5" font-family="Helvetica,sans-Serif" font-size="10.00">&#45;</text>
<text xml:space="preserve" text-anchor="start" x="231.88" y="-288.5" font-family="Helvetica,sans-Serif" font-size="10.00">m_hook</text>
<text xml:space="preserve" text-anchor="start" x="213.31" y="-271.75" font-family="Helvetica,sans-Serif" font-size="10.00">+</text>
<text xml:space="preserve" text-anchor="start" x="231.88" y="-271.75" font-family="Helvetica,sans-Serif" font-size="10.00">HookRegistry()</text>
<text xml:space="preserve" text-anchor="start" x="213.31" y="-255" font-family="Helvetica,sans-Serif" font-size="10.00">+</text>
<text xml:space="preserve" text-anchor="start" x="231.88" y="-255" font-family="Helvetica,sans-Serif" font-size="10.00">operator=()</text>
<text xml:space="preserve" text-anchor="start" x="213.31" y="-238.25" font-family="Helvetica,sans-Serif" font-size="10.00">+</text>
<text xml:space="preserve" text-anchor="start" x="231.88" y="-238.25" font-family="Helvetica,sans-Serif" font-size="10.00">operator=()</text>
<text xml:space="preserve" text-anchor="start" x="213.31" y="-221.5" font-family="Helvetica,sans-Serif" font-size="10.00">+</text>
<text xml:space="preserve" text-anchor="start" x="231.88" y="-221.5" font-family="Helvetica,sans-Serif" font-size="10.00">reset()</text>
<polygon fill="#666666" stroke="#666666" points="203,-300 203,-300 322,-300 322,-300 203,-300"/>
<polygon fill="#666666" stroke="#666666" points="203,-283.25 203,-283.25 229.88,-283.25 229.88,-283.25 203,-283.25"/>
<polygon fill="#666666" stroke="#666666" points="229.88,-283.25 229.88,-283.25 322,-283.25 322,-283.25 229.88,-283.25"/>
<polygon fill="none" stroke="#666666" points="203,-214.25 203,-331.5 322,-331.5 322,-214.25 203,-214.25"/>
</a>
</g>
</g>
<!-- Node2 -->
<g id="Node000002" class="node">
<title>Node2</title>
<g id="a_Node000002"><a xlink:href="../../dd/d5e/classvanetza_1_1HookRegistry.html" target="_top" xlink:title=" ">
<polygon fill="white" stroke="none" points="161,-113.25 0,-113.25 0,-12.75 161,-12.75 161,-113.25"/>
<text xml:space="preserve" text-anchor="start" x="4" y="-99.75" font-family="Helvetica,sans-Serif" font-size="10.00">vanetza::HookRegistry</text>
<text xml:space="preserve" text-anchor="start" x="4" y="-87" font-family="Helvetica,sans-Serif" font-size="10.00">&lt; vanetza::dcc::ChannelLoad &gt;</text>
<text xml:space="preserve" text-anchor="start" x="23.06" y="-70.25" font-family="Helvetica,sans-Serif" font-size="10.00">&#45;</text>
<text xml:space="preserve" text-anchor="start" x="49.88" y="-70.25" font-family="Helvetica,sans-Serif" font-size="10.00">m_hook</text>
<text xml:space="preserve" text-anchor="start" x="20.81" y="-53.5" font-family="Helvetica,sans-Serif" font-size="10.00">+</text>
<text xml:space="preserve" text-anchor="start" x="49.88" y="-53.5" font-family="Helvetica,sans-Serif" font-size="10.00">HookRegistry()</text>
<text xml:space="preserve" text-anchor="start" x="20.81" y="-36.75" font-family="Helvetica,sans-Serif" font-size="10.00">+</text>
<text xml:space="preserve" text-anchor="start" x="49.88" y="-36.75" font-family="Helvetica,sans-Serif" font-size="10.00">operator=()</text>
<text xml:space="preserve" text-anchor="start" x="20.81" y="-20" font-family="Helvetica,sans-Serif" font-size="10.00">+</text>
<text xml:space="preserve" text-anchor="start" x="49.88" y="-20" font-family="Helvetica,sans-Serif" font-size="10.00">reset()</text>
<polygon fill="#666666" stroke="#666666" points="0,-81.75 0,-81.75 161,-81.75 161,-81.75 0,-81.75"/>
<polygon fill="#666666" stroke="#666666" points="0,-65 0,-65 47.88,-65 47.88,-65 0,-65"/>
<polygon fill="#666666" stroke="#666666" points="47.88,-65 47.88,-65 161,-65 161,-65 47.88,-65"/>
<polygon fill="none" stroke="#666666" points="0,-12.75 0,-113.25 161,-113.25 161,-12.75 0,-12.75"/>
</a>
</g>
</g>
<!-- Node1&#45;&gt;Node2 -->
<g id="edge1_Node000001_Node000002" class="edge">
<title>Node1&#45;&gt;Node2</title>
<g id="a_edge1_Node000001_Node000002"><a xlink:title=" ">
<path fill="none" stroke="orange" d="M192.67,-256.08C159.34,-244.92 121.93,-226.4 99.5,-196.25 81.99,-172.71 77.14,-140.14 76.72,-113.21"/>
<polygon fill="orange" stroke="orange" points="191.29,-259.32 201.88,-259 193.4,-252.64 191.29,-259.32"/>
</a>
</g>
<text xml:space="preserve" text-anchor="start" x="102.5" y="-167" font-family="Helvetica,sans-Serif" font-size="10.00" fill="grey">&lt; vanetza::dcc::ChannelLoad &gt;</text>
</g>
<!-- Node3 -->
<g id="Node000003" class="node">
<title>Node3</title>
<g id="a_Node000003"><a xlink:href="../../dd/d5e/classvanetza_1_1HookRegistry.html" target="_top" xlink:title=" ">
<polygon fill="white" stroke="none" points="322.38,-126 202.62,-126 202.62,0 322.38,0 322.38,-126"/>
<text xml:space="preserve" text-anchor="start" x="206.62" y="-112.5" font-family="Helvetica,sans-Serif" font-size="10.00">vanetza::HookRegistry</text>
<text xml:space="preserve" text-anchor="start" x="206.62" y="-99.75" font-family="Helvetica,sans-Serif" font-size="10.00">&lt; const vanetza::dcc</text>
<text xml:space="preserve" text-anchor="start" x="206.62" y="-87" font-family="Helvetica,sans-Serif" font-size="10.00">::Limeric *, Clock::time</text>
<text xml:space="preserve" text-anchor="start" x="241.88" y="-74.25" font-family="Helvetica,sans-Serif" font-size="10.00">_point &gt;</text>
<text xml:space="preserve" text-anchor="start" x="215.38" y="-57.5" font-family="Helvetica,sans-Serif" font-size="10.00">&#45;</text>
<text xml:space="preserve" text-anchor="start" x="231.88" y="-57.5" font-family="Helvetica,sans-Serif" font-size="10.00">m_hook</text>
<text xml:space="preserve" text-anchor="start" x="213.12" y="-40.75" font-family="Helvetica,sans-Serif" font-size="10.00">+</text>
<text xml:space="preserve" text-anchor="start" x="231.88" y="-40.75" font-family="Helvetica,sans-Serif" font-size="10.00">HookRegistry()</text>
<text xml:space="preserve" text-anchor="start" x="213.12" y="-24" font-family="Helvetica,sans-Serif" font-size="10.00">+</text>
<text xml:space="preserve" text-anchor="start" x="231.88" y="-24" font-family="Helvetica,sans-Serif" font-size="10.00">operator=()</text>
<text xml:space="preserve" text-anchor="start" x="213.12" y="-7.25" font-family="Helvetica,sans-Serif" font-size="10.00">+</text>
<text xml:space="preserve" text-anchor="start" x="231.88" y="-7.25" font-family="Helvetica,sans-Serif" font-size="10.00">reset()</text>
<polygon fill="#666666" stroke="#666666" points="202.62,-69 202.62,-69 322.38,-69 322.38,-69 202.62,-69"/>
<polygon fill="#666666" stroke="#666666" points="202.62,-52.25 202.62,-52.25 229.88,-52.25 229.88,-52.25 202.62,-52.25"/>
<polygon fill="#666666" stroke="#666666" points="229.88,-52.25 229.88,-52.25 322.38,-52.25 322.38,-52.25 229.88,-52.25"/>
<polygon fill="none" stroke="#666666" points="202.62,0 202.62,-126 322.38,-126 322.38,0 202.62,0"/>
</a>
</g>
</g>
<!-- Node1&#45;&gt;Node3 -->
<g id="edge2_Node000001_Node000003" class="edge">
<title>Node1&#45;&gt;Node3</title>
<g id="a_edge2_Node000001_Node000003"><a xlink:title=" ">
<path fill="none" stroke="orange" d="M262.5,-203.29C262.5,-178.32 262.5,-150.26 262.5,-125.9"/>
<polygon fill="orange" stroke="orange" points="259,-203.01 262.5,-213.01 266,-203.01 259,-203.01"/>
</a>
</g>
<text xml:space="preserve" text-anchor="start" x="265.5" y="-183.75" font-family="Helvetica,sans-Serif" font-size="10.00" fill="grey">&lt; const vanetza::dcc</text>
<text xml:space="preserve" text-anchor="start" x="265.5" y="-167" font-family="Helvetica,sans-Serif" font-size="10.00" fill="grey">  ::Limeric *, Clock::time</text>
<text xml:space="preserve" text-anchor="start" x="265.5" y="-150.25" font-family="Helvetica,sans-Serif" font-size="10.00" fill="grey">  _point &gt;</text>
</g>
<!-- Node4 -->
<g id="Node000004" class="node">
<title>Node4</title>
<g id="a_Node000004"><a xlink:href="../../dd/d5e/classvanetza_1_1HookRegistry.html" target="_top" xlink:title=" ">
<polygon fill="white" stroke="none" points="473.12,-119.62 345.88,-119.62 345.88,-6.38 473.12,-6.38 473.12,-119.62"/>
<text xml:space="preserve" text-anchor="start" x="349.88" y="-106.12" font-family="Helvetica,sans-Serif" font-size="10.00">vanetza::HookRegistry</text>
<text xml:space="preserve" text-anchor="start" x="349.88" y="-93.38" font-family="Helvetica,sans-Serif" font-size="10.00">&lt; const vanetza::geonet</text>
<text xml:space="preserve" text-anchor="start" x="360.38" y="-80.62" font-family="Helvetica,sans-Serif" font-size="10.00">::CbrAggregator &amp; &gt;</text>
<text xml:space="preserve" text-anchor="start" x="360.5" y="-63.88" font-family="Helvetica,sans-Serif" font-size="10.00">&#45;</text>
<text xml:space="preserve" text-anchor="start" x="378.88" y="-63.88" font-family="Helvetica,sans-Serif" font-size="10.00">m_hook</text>
<text xml:space="preserve" text-anchor="start" x="358.25" y="-47.12" font-family="Helvetica,sans-Serif" font-size="10.00">+</text>
<text xml:space="preserve" text-anchor="start" x="378.88" y="-47.12" font-family="Helvetica,sans-Serif" font-size="10.00">HookRegistry()</text>
<text xml:space="preserve" text-anchor="start" x="358.25" y="-30.38" font-family="Helvetica,sans-Serif" font-size="10.00">+</text>
<text xml:space="preserve" text-anchor="start" x="378.88" y="-30.38" font-family="Helvetica,sans-Serif" font-size="10.00">operator=()</text>
<text xml:space="preserve" text-anchor="start" x="358.25" y="-13.62" font-family="Helvetica,sans-Serif" font-size="10.00">+</text>
<text xml:space="preserve" text-anchor="start" x="378.88" y="-13.62" font-family="Helvetica,sans-Serif" font-size="10.00">reset()</text>
<polygon fill="#666666" stroke="#666666" points="345.88,-75.38 345.88,-75.38 473.12,-75.38 473.12,-75.38 345.88,-75.38"/>
<polygon fill="#666666" stroke="#666666" points="345.88,-58.62 345.88,-58.62 376.88,-58.62 376.88,-58.62 345.88,-58.62"/>
<polygon fill="#666666" stroke="#666666" points="376.88,-58.62 376.88,-58.62 473.12,-58.62 473.12,-58.62 376.88,-58.62"/>
<polygon fill="none" stroke="#666666" points="345.88,-6.38 345.88,-119.62 473.12,-119.62 473.12,-6.38 345.88,-6.38"/>
</a>
</g>
</g>
<!-- Node1&#45;&gt;Node4 -->
<g id="edge3_Node000001_Node000004" class="edge">
<title>Node1&#45;&gt;Node4</title>
<g id="a_edge3_Node000001_Node000004"><a xlink:title=" ">
<path fill="none" stroke="orange" d="M331.77,-243.89C352.73,-232.16 373.8,-216.46 387.5,-196.25 402.65,-173.9 408.59,-144.65 410.55,-119.35"/>
<polygon fill="orange" stroke="orange" points="330.37,-240.67 323.19,-248.46 333.66,-246.85 330.37,-240.67"/>
</a>
</g>
<text xml:space="preserve" text-anchor="start" x="410" y="-175.38" font-family="Helvetica,sans-Serif" font-size="10.00" fill="grey">&lt; const vanetza::geonet</text>
<text xml:space="preserve" text-anchor="start" x="410" y="-158.62" font-family="Helvetica,sans-Serif" font-size="10.00" fill="grey">  ::CbrAggregator &amp; &gt;</text>
</g>
</g>
</svg>

<g id="navigator" transform="translate(0 0)" fill="#404254">
  <rect fill="#f2f5e9" fill-opacity="0.5" stroke="#606060" stroke-width=".5" x="0" y="0" width="60" height="60"/>
  <use id="zoomplus" xlink:href="#zoomPlus" x="17" y="9" onmousedown="handleZoom(evt,'in')"/>
  <use id="zoomminus" xlink:href="#zoomMin" x="42" y="9" onmousedown="handleZoom(evt,'out')"/>
  <use id="reset" xlink:href="#resetDef" x="30" y="36" onmousedown="handleReset()"/>
   <use id="arrowup" xlink:href="#arrowUp" x="0" y="0" onmousedown="handlePan(0,-1)"/>
  <use id="arrowright" xlink:href="#arrowRight" x="0" y="0" onmousedown="handlePan(1,0)"/>
  <use id="arrowdown" xlink:href="#arrowDown" x="0" y="0" onmousedown="handlePan(0,1)"/>
  <use id="arrowleft" xlink:href="#arrowLeft" x="0" y="0" onmousedown="handlePan(-1,0)"/>
</g>
<svg viewBox="0 0 15 15" width="100%" height="30px" preserveAspectRatio="xMaxYMin meet">
 <g id="arrow_out" transform="scale(0.3 0.3)">
  <a xlink:href="classvanetza_1_1HookRegistry__inherit__graph_org.svg" target="_base">
   <rect id="button" ry="5" rx="5" y="6" x="6" height="38" width="38"
        fill="#f2f5e9" fill-opacity="0.5" stroke="#606060" stroke-width="1.0"/>
   <path id="arrow"
     d="M 11.500037,31.436501 C 11.940474,20.09759 22.043105,11.32322 32.158766,21.979434 L 37.068811,17.246167 C 37.068811,17.246167 37.088388,32 37.088388,32 L 22.160133,31.978069 C 22.160133,31.978069 26.997745,27.140456 26.997745,27.140456 C 18.528582,18.264221 13.291696,25.230495 11.500037,31.436501 z"
     style="fill:#404040;"/>
  </a>
 </g>
</svg>

<style type='text/css'>
<![CDATA[
[data-mouse-over-selected='false'] { opacity: 0.7; }
[data-mouse-over-selected='true']  { opacity: 1.0; }
]]>
</style>
<script type="application/ecmascript"><![CDATA[
document.addEventListener('DOMContentLoaded', (event) => {
  highlightEdges();
  highlightAdjacentNodes();
});
]]></script>
</svg>
