<?xml version="1.0" encoding="UTF-8" standalone="no"?>
<!DOCTYPE svg PUBLIC "-//W3C//DTD SVG 1.1//EN"
 "http://www.w3.org/Graphics/SVG/1.1/DTD/svg11.dtd">
<!-- Generated by graphviz version 2.49.3 (0)
 -->
<!-- Title: vanetza::HookRegistry&lt; Args &gt; Pages: 1 -->
<svg width="478pt" height="303pt"
 viewBox="0.00 0.00 477.50 303.00" xmlns="http://www.w3.org/2000/svg" xmlns:xlink="http://www.w3.org/1999/xlink">
<g id="graph0" class="graph" transform="scale(1 1) rotate(0) translate(4 299)">
<title>vanetza::HookRegistry&lt; Args &gt;</title>
<!-- Node1 -->
<g id="node1" class="node">
<title>Node1</title>
<g id="a_node1"><a xlink:title=" ">
<polygon fill="#999999" stroke="#666666" points="181.5,-193.5 181.5,-294.5 297.5,-294.5 297.5,-193.5 181.5,-193.5"/>
<text text-anchor="start" x="189.5" y="-282.5" font-family="Helvetica,sans-Serif" font-size="10.00">vanetza::HookRegistry</text>
<text text-anchor="middle" x="239.5" y="-271.5" font-family="Helvetica,sans-Serif" font-size="10.00">&lt; Args &gt;</text>
<polyline fill="none" stroke="#666666" points="181.5,-264.5 297.5,-264.5 "/>
<text text-anchor="start" x="189.5" y="-252.5" font-family="Helvetica,sans-Serif" font-size="10.00">&#45; m_hook</text>
<polyline fill="none" stroke="#666666" points="181.5,-245.5 297.5,-245.5 "/>
<text text-anchor="start" x="189.5" y="-233.5" font-family="Helvetica,sans-Serif" font-size="10.00">+ HookRegistry()</text>
<text text-anchor="start" x="189.5" y="-222.5" font-family="Helvetica,sans-Serif" font-size="10.00">+ operator=()</text>
<text text-anchor="start" x="189.5" y="-211.5" font-family="Helvetica,sans-Serif" font-size="10.00">+ operator=()</text>
<text text-anchor="start" x="189.5" y="-200.5" font-family="Helvetica,sans-Serif" font-size="10.00">+ reset()</text>
</a>
</g>
</g>
<!-- Node2 -->
<g id="node2" class="node">
<title>Node2</title>
<g id="a_node2"><a xlink:href="../../dd/d5e/classvanetza_1_1HookRegistry.html" target="_top" xlink:title=" ">
<polygon fill="white" stroke="#666666" points="0,-11.5 0,-112.5 153,-112.5 153,-11.5 0,-11.5"/>
<text text-anchor="start" x="8" y="-100.5" font-family="Helvetica,sans-Serif" font-size="10.00">vanetza::HookRegistry</text>
<text text-anchor="middle" x="76.5" y="-89.5" font-family="Helvetica,sans-Serif" font-size="10.00">&lt; vanetza::dcc::ChannelLoad &gt;</text>
<polyline fill="none" stroke="#666666" points="0,-82.5 153,-82.5 "/>
<text text-anchor="start" x="8" y="-70.5" font-family="Helvetica,sans-Serif" font-size="10.00">&#45; m_hook</text>
<polyline fill="none" stroke="#666666" points="0,-63.5 153,-63.5 "/>
<text text-anchor="start" x="8" y="-51.5" font-family="Helvetica,sans-Serif" font-size="10.00">+ HookRegistry()</text>
<text text-anchor="start" x="8" y="-40.5" font-family="Helvetica,sans-Serif" font-size="10.00">+ operator=()</text>
<text text-anchor="start" x="8" y="-29.5" font-family="Helvetica,sans-Serif" font-size="10.00">+ operator=()</text>
<text text-anchor="start" x="8" y="-18.5" font-family="Helvetica,sans-Serif" font-size="10.00">+ reset()</text>
</a>
</g>
</g>
<!-- Node1&#45;&gt;Node2 -->
<g id="edge1" class="edge">
<title>Node1&#45;&gt;Node2</title>
<path fill="none" stroke="orange" d="M171.69,-226.03C144.01,-215.72 114.18,-199.63 95.5,-175 82.15,-157.4 76.85,-133.76 75.1,-112.74"/>
<polygon fill="orange" stroke="orange" points="170.78,-229.42 181.37,-229.44 173.1,-222.81 170.78,-229.42"/>
<text text-anchor="middle" x="165.5" y="-156" font-family="Helvetica,sans-Serif" font-size="10.00"> &lt; vanetza::dcc::ChannelLoad &gt;</text>
</g>
<!-- Node3 -->
<g id="node3" class="node">
<title>Node3</title>
<g id="a_node3"><a xlink:href="../../dd/d5e/classvanetza_1_1HookRegistry.html" target="_top" xlink:title=" ">
<polygon fill="white" stroke="#666666" points="181,-0.5 181,-123.5 298,-123.5 298,-0.5 181,-0.5"/>
<text text-anchor="start" x="189" y="-111.5" font-family="Helvetica,sans-Serif" font-size="10.00">vanetza::HookRegistry</text>
<text text-anchor="start" x="189" y="-100.5" font-family="Helvetica,sans-Serif" font-size="10.00">&lt; const vanetza::dcc</text>
<text text-anchor="start" x="189" y="-89.5" font-family="Helvetica,sans-Serif" font-size="10.00">::Limeric *, Clock::time</text>
<text text-anchor="middle" x="239.5" y="-78.5" font-family="Helvetica,sans-Serif" font-size="10.00">_point &gt;</text>
<polyline fill="none" stroke="#666666" points="181,-71.5 298,-71.5 "/>
<text text-anchor="start" x="189" y="-59.5" font-family="Helvetica,sans-Serif" font-size="10.00">&#45; m_hook</text>
<polyline fill="none" stroke="#666666" points="181,-52.5 298,-52.5 "/>
<text text-anchor="start" x="189" y="-40.5" font-family="Helvetica,sans-Serif" font-size="10.00">+ HookRegistry()</text>
<text text-anchor="start" x="189" y="-29.5" font-family="Helvetica,sans-Serif" font-size="10.00">+ operator=()</text>
<text text-anchor="start" x="189" y="-18.5" font-family="Helvetica,sans-Serif" font-size="10.00">+ operator=()</text>
<text text-anchor="start" x="189" y="-7.5" font-family="Helvetica,sans-Serif" font-size="10.00">+ reset()</text>
</a>
</g>
</g>
<!-- Node1&#45;&gt;Node3 -->
<g id="edge2" class="edge">
<title>Node1&#45;&gt;Node3</title>
<path fill="none" stroke="orange" d="M239.5,-183.25C239.5,-164.11 239.5,-142.92 239.5,-123.72"/>
<polygon fill="orange" stroke="orange" points="236,-183.34 239.5,-193.34 243,-183.34 236,-183.34"/>
<text text-anchor="start" x="239.5" y="-167" font-family="Helvetica,sans-Serif" font-size="10.00"> &lt; const vanetza::dcc</text>
<text text-anchor="start" x="239.5" y="-156" font-family="Helvetica,sans-Serif" font-size="10.00">::Limeric *, Clock::time</text>
<text text-anchor="middle" x="290" y="-145" font-family="Helvetica,sans-Serif" font-size="10.00">_point &gt;</text>
</g>
<!-- Node4 -->
<g id="node4" class="node">
<title>Node4</title>
<g id="a_node4"><a xlink:href="../../dd/d5e/classvanetza_1_1HookRegistry.html" target="_top" xlink:title=" ">
<polygon fill="white" stroke="#666666" points="316.5,-6 316.5,-118 438.5,-118 438.5,-6 316.5,-6"/>
<text text-anchor="start" x="324.5" y="-106" font-family="Helvetica,sans-Serif" font-size="10.00">vanetza::HookRegistry</text>
<text text-anchor="start" x="324.5" y="-95" font-family="Helvetica,sans-Serif" font-size="10.00">&lt; const vanetza::geonet</text>
<text text-anchor="middle" x="377.5" y="-84" font-family="Helvetica,sans-Serif" font-size="10.00">::CbrAggregator &amp; &gt;</text>
<polyline fill="none" stroke="#666666" points="316.5,-77 438.5,-77 "/>
<text text-anchor="start" x="324.5" y="-65" font-family="Helvetica,sans-Serif" font-size="10.00">&#45; m_hook</text>
<polyline fill="none" stroke="#666666" points="316.5,-58 438.5,-58 "/>
<text text-anchor="start" x="324.5" y="-46" font-family="Helvetica,sans-Serif" font-size="10.00">+ HookRegistry()</text>
<text text-anchor="start" x="324.5" y="-35" font-family="Helvetica,sans-Serif" font-size="10.00">+ operator=()</text>
<text text-anchor="start" x="324.5" y="-24" font-family="Helvetica,sans-Serif" font-size="10.00">+ operator=()</text>
<text text-anchor="start" x="324.5" y="-13" font-family="Helvetica,sans-Serif" font-size="10.00">+ reset()</text>
</a>
</g>
</g>
<!-- Node1&#45;&gt;Node4 -->
<g id="edge3" class="edge">
<title>Node1&#45;&gt;Node4</title>
<path fill="none" stroke="orange" d="M306.18,-209.99C320.46,-200.36 334.29,-188.67 344.5,-175 356.81,-158.51 364.54,-137.49 369.4,-118.13"/>
<polygon fill="orange" stroke="orange" points="304.26,-207.07 297.75,-215.42 308.06,-212.95 304.26,-207.07"/>
<text text-anchor="start" x="360.5" y="-161.5" font-family="Helvetica,sans-Serif" font-size="10.00"> &lt; const vanetza::geonet</text>
<text text-anchor="middle" x="415" y="-150.5" font-family="Helvetica,sans-Serif" font-size="10.00">::CbrAggregator &amp; &gt;</text>
</g>
</g>
</svg>
