<?xml version="1.0" encoding="UTF-8" standalone="no"?>
<!DOCTYPE svg PUBLIC "-//W3C//DTD SVG 1.1//EN"
 "http://www.w3.org/Graphics/SVG/1.1/DTD/svg11.dtd">
<!-- Generated by graphviz version 14.1.2 (0)
 -->
<!-- Title: vanetza::security::v2::NullCertificateProvider Pages: 1 -->
<svg width="146pt" height="295pt"
 viewBox="0.00 0.00 146.00 295.00" xmlns="http://www.w3.org/2000/svg" xmlns:xlink="http://www.w3.org/1999/xlink">
<g id="graph0" class="graph" transform="scale(1 1) rotate(0) translate(4 291.25)">
<title>vanetza::security::v2::NullCertificateProvider</title>
<!-- Node1 -->
<g id="Node000001" class="node">
<title>Node1</title>
<g id="a_Node000001"><a xlink:title=" ">
<polygon fill="#999999" stroke="none" points="138,-134 0,-134 0,0 138,0 138,-134"/>
<text xml:space="preserve" text-anchor="start" x="4.88" y="-120.5" font-family="Helvetica,sans-Serif" font-size="10.00">vanetza::security::</text>
<text xml:space="preserve" text-anchor="start" x="4.88" y="-107.75" font-family="Helvetica,sans-Serif" font-size="10.00">v2::NullCertificateProvider</text>
<text xml:space="preserve" text-anchor="start" x="67.5" y="-91" font-family="Helvetica,sans-Serif" font-size="10.00"> </text>
<text xml:space="preserve" text-anchor="start" x="4" y="-74.25" font-family="Helvetica,sans-Serif" font-size="10.00">+</text>
<text xml:space="preserve" text-anchor="start" x="16.25" y="-74.25" font-family="Helvetica,sans-Serif" font-size="10.00">NullCertificateProvider()</text>
<text xml:space="preserve" text-anchor="start" x="4" y="-57.5" font-family="Helvetica,sans-Serif" font-size="10.00">+</text>
<text xml:space="preserve" text-anchor="start" x="16.25" y="-57.5" font-family="Helvetica,sans-Serif" font-size="10.00">own_certificate()</text>
<text xml:space="preserve" text-anchor="start" x="4" y="-40.75" font-family="Helvetica,sans-Serif" font-size="10.00">+</text>
<text xml:space="preserve" text-anchor="start" x="16.25" y="-40.75" font-family="Helvetica,sans-Serif" font-size="10.00">own_chain()</text>
<text xml:space="preserve" text-anchor="start" x="4" y="-24" font-family="Helvetica,sans-Serif" font-size="10.00">+</text>
<text xml:space="preserve" text-anchor="start" x="16.25" y="-24" font-family="Helvetica,sans-Serif" font-size="10.00">own_private_key()</text>
<text xml:space="preserve" text-anchor="start" x="4" y="-7.25" font-family="Helvetica,sans-Serif" font-size="10.00">+</text>
<text xml:space="preserve" text-anchor="start" x="16.25" y="-7.25" font-family="Helvetica,sans-Serif" font-size="10.00">null_certificate()</text>
<polygon fill="#666666" stroke="#666666" points="0,-102.5 0,-102.5 138,-102.5 138,-102.5 0,-102.5"/>
<polygon fill="#666666" stroke="#666666" points="0,-85.75 0,-85.75 138,-85.75 138,-85.75 0,-85.75"/>
<polygon fill="none" stroke="#666666" points="0,0 0,-134 138,-134 138,0 0,0"/>
</a>
</g>
</g>
<!-- Node2 -->
<g id="Node000002" class="node">
<title>Node2</title>
<g id="a_Node000002"><a xlink:href="../../dd/d76/classvanetza_1_1security_1_1v2_1_1CertificateProvider.html" target="_top" xlink:title=" ">
<polygon fill="white" stroke="none" points="132.38,-287.25 5.62,-287.25 5.62,-170 132.38,-170 132.38,-287.25"/>
<text xml:space="preserve" text-anchor="start" x="14.62" y="-273.75" font-family="Helvetica,sans-Serif" font-size="10.00">vanetza::security::</text>
<text xml:space="preserve" text-anchor="start" x="14.62" y="-261" font-family="Helvetica,sans-Serif" font-size="10.00">v2::CertificateProvider</text>
<text xml:space="preserve" text-anchor="start" x="67.5" y="-244.25" font-family="Helvetica,sans-Serif" font-size="10.00"> </text>
<text xml:space="preserve" text-anchor="start" x="9.62" y="-227.5" font-family="Helvetica,sans-Serif" font-size="10.00">+</text>
<text xml:space="preserve" text-anchor="start" x="21.88" y="-227.5" font-family="Helvetica,sans-Serif" font-size="10.00">own_certificate()</text>
<text xml:space="preserve" text-anchor="start" x="9.62" y="-210.75" font-family="Helvetica,sans-Serif" font-size="10.00">+</text>
<text xml:space="preserve" text-anchor="start" x="21.88" y="-210.75" font-family="Helvetica,sans-Serif" font-size="10.00">own_chain()</text>
<text xml:space="preserve" text-anchor="start" x="9.62" y="-194" font-family="Helvetica,sans-Serif" font-size="10.00">+</text>
<text xml:space="preserve" text-anchor="start" x="21.88" y="-194" font-family="Helvetica,sans-Serif" font-size="10.00">own_private_key()</text>
<text xml:space="preserve" text-anchor="start" x="9.62" y="-177.25" font-family="Helvetica,sans-Serif" font-size="10.00">+</text>
<text xml:space="preserve" text-anchor="start" x="21.88" y="-177.25" font-family="Helvetica,sans-Serif" font-size="10.00">~CertificateProvider()</text>
<polygon fill="#bfbfbf" stroke="#bfbfbf" points="5.62,-255.75 5.62,-255.75 132.38,-255.75 132.38,-255.75 5.62,-255.75"/>
<polygon fill="#bfbfbf" stroke="#bfbfbf" points="5.62,-239 5.62,-239 132.38,-239 132.38,-239 5.62,-239"/>
<polygon fill="none" stroke="#bfbfbf" points="5.62,-170 5.62,-287.25 132.38,-287.25 132.38,-170 5.62,-170"/>
</a>
</g>
</g>
<!-- Node2&#45;&gt;Node1 -->
<g id="edge1_Node000001_Node000002" class="edge">
<title>Node2&#45;&gt;Node1</title>
<g id="a_edge1_Node000001_Node000002"><a xlink:title=" ">
<path fill="none" stroke="#63b8ff" d="M69,-159.11C69,-150.7 69,-142.11 69,-133.74"/>
<polygon fill="none" stroke="#63b8ff" points="65.5,-158.93 69,-168.93 72.5,-158.93 65.5,-158.93"/>
</a>
</g>
</g>
</g>
</svg>
