<?xml version="1.0" encoding="UTF-8" standalone="no"?>
<!DOCTYPE svg PUBLIC "-//W3C//DTD SVG 1.1//EN"
 "http://www.w3.org/Graphics/SVG/1.1/DTD/svg11.dtd">
<!-- Generated by graphviz version 14.1.2 (0)
 -->
<!-- Title: vanetza::security::v2::detail::validity_restriction_type&lt; ValidityRestrictionType &gt; Pages: 1 -->
<svg width="695pt" height="277pt"
 viewBox="0.00 0.00 695.00 277.00" xmlns="http://www.w3.org/2000/svg" xmlns:xlink="http://www.w3.org/1999/xlink">
<g id="graph0" class="graph" transform="scale(1 1) rotate(0) translate(4 273.25)">
<title>vanetza::security::v2::detail::validity_restriction_type&lt; ValidityRestrictionType &gt;</title>
<!-- Node1 -->
<g id="Node000001" class="node">
<title>Node1</title>
<g id="a_Node000001"><a xlink:title=" ">
<polygon fill="#999999" stroke="none" points="374.75,-269.25 237,-269.25 237,-176.75 374.75,-176.75 374.75,-269.25"/>
<text xml:space="preserve" text-anchor="start" x="241" y="-255.75" font-family="Helvetica,sans-Serif" font-size="10.00">vanetza::security::</text>
<text xml:space="preserve" text-anchor="start" x="241" y="-243" font-family="Helvetica,sans-Serif" font-size="10.00">v2::detail::validity</text>
<text xml:space="preserve" text-anchor="start" x="241" y="-230.25" font-family="Helvetica,sans-Serif" font-size="10.00">_restriction_type&lt; Validity</text>
<text xml:space="preserve" text-anchor="start" x="262.75" y="-217.5" font-family="Helvetica,sans-Serif" font-size="10.00">RestrictionType &gt;</text>
<text xml:space="preserve" text-anchor="start" x="304.38" y="-200.75" font-family="Helvetica,sans-Serif" font-size="10.00"> </text>
<text xml:space="preserve" text-anchor="start" x="304.38" y="-184" font-family="Helvetica,sans-Serif" font-size="10.00"> </text>
<polygon fill="#666666" stroke="#666666" points="237,-212.25 237,-212.25 374.75,-212.25 374.75,-212.25 237,-212.25"/>
<polygon fill="#666666" stroke="#666666" points="237,-195.5 237,-195.5 374.75,-195.5 374.75,-195.5 237,-195.5"/>
<polygon fill="none" stroke="#666666" points="237,-176.75 237,-269.25 374.75,-269.25 374.75,-176.75 237,-176.75"/>
</a>
</g>
</g>
<!-- Node2 -->
<g id="Node000002" class="node">
<title>Node2</title>
<g id="a_Node000002"><a xlink:href="../../d8/db3/structvanetza_1_1security_1_1v2_1_1detail_1_1validity__restriction__type_3_01ValidityRestrictionType_1_1Region_01_4.html" target="_top" xlink:title=" ">
<polygon fill="white" stroke="none" points="137.75,-98.88 0,-98.88 0,-6.38 137.75,-6.38 137.75,-98.88"/>
<text xml:space="preserve" text-anchor="start" x="4" y="-85.38" font-family="Helvetica,sans-Serif" font-size="10.00">vanetza::security::</text>
<text xml:space="preserve" text-anchor="start" x="4" y="-72.62" font-family="Helvetica,sans-Serif" font-size="10.00">v2::detail::validity</text>
<text xml:space="preserve" text-anchor="start" x="4" y="-59.88" font-family="Helvetica,sans-Serif" font-size="10.00">_restriction_type&lt; Validity</text>
<text xml:space="preserve" text-anchor="start" x="5.88" y="-47.12" font-family="Helvetica,sans-Serif" font-size="10.00">RestrictionType::Region &gt;</text>
<text xml:space="preserve" text-anchor="start" x="67.38" y="-30.38" font-family="Helvetica,sans-Serif" font-size="10.00"> </text>
<text xml:space="preserve" text-anchor="start" x="67.38" y="-13.62" font-family="Helvetica,sans-Serif" font-size="10.00"> </text>
<polygon fill="#bfbfbf" stroke="#bfbfbf" points="0,-41.88 0,-41.88 137.75,-41.88 137.75,-41.88 0,-41.88"/>
<polygon fill="#bfbfbf" stroke="#bfbfbf" points="0,-25.12 0,-25.12 137.75,-25.12 137.75,-25.12 0,-25.12"/>
<polygon fill="none" stroke="#bfbfbf" points="0,-6.38 0,-98.88 137.75,-98.88 137.75,-6.38 0,-6.38"/>
</a>
</g>
</g>
<!-- Node1&#45;&gt;Node2 -->
<g id="edge1_Node000001_Node000002" class="edge">
<title>Node1&#45;&gt;Node2</title>
<g id="a_edge1_Node000001_Node000002"><a xlink:title=" ">
<path fill="none" stroke="orange" d="M226.07,-217.31C181.33,-210.5 127.86,-194.71 93.88,-158.75 78.8,-142.8 72.28,-119.47 69.65,-98.84"/>
<polygon fill="orange" stroke="orange" points="225.35,-220.74 235.74,-218.64 226.31,-213.81 225.35,-220.74"/>
</a>
</g>
<text xml:space="preserve" text-anchor="start" x="96.88" y="-146.25" font-family="Helvetica,sans-Serif" font-size="10.00" fill="grey">&lt; ValidityRestrictionType</text>
<text xml:space="preserve" text-anchor="start" x="96.88" y="-129.5" font-family="Helvetica,sans-Serif" font-size="10.00" fill="grey">  ::Region &gt;</text>
</g>
<!-- Node3 -->
<g id="Node000003" class="node">
<title>Node3</title>
<g id="a_Node000003"><a xlink:href="../../d2/de9/structvanetza_1_1security_1_1v2_1_1detail_1_1validity__restriction__type_3_01ValidityRestrictionType_1_1Time__End_01_4.html" target="_top" xlink:title=" ">
<polygon fill="white" stroke="none" points="304,-98.88 155.75,-98.88 155.75,-6.38 304,-6.38 304,-98.88"/>
<text xml:space="preserve" text-anchor="start" x="159.75" y="-85.38" font-family="Helvetica,sans-Serif" font-size="10.00">vanetza::security::</text>
<text xml:space="preserve" text-anchor="start" x="159.75" y="-72.62" font-family="Helvetica,sans-Serif" font-size="10.00">v2::detail::validity</text>
<text xml:space="preserve" text-anchor="start" x="159.75" y="-59.88" font-family="Helvetica,sans-Serif" font-size="10.00">_restriction_type&lt; Validity</text>
<text xml:space="preserve" text-anchor="start" x="159.75" y="-47.12" font-family="Helvetica,sans-Serif" font-size="10.00">RestrictionType::Time_End &gt;</text>
<text xml:space="preserve" text-anchor="start" x="228.38" y="-30.38" font-family="Helvetica,sans-Serif" font-size="10.00"> </text>
<text xml:space="preserve" text-anchor="start" x="228.38" y="-13.62" font-family="Helvetica,sans-Serif" font-size="10.00"> </text>
<polygon fill="#bfbfbf" stroke="#bfbfbf" points="155.75,-41.88 155.75,-41.88 304,-41.88 304,-41.88 155.75,-41.88"/>
<polygon fill="#bfbfbf" stroke="#bfbfbf" points="155.75,-25.12 155.75,-25.12 304,-25.12 304,-25.12 155.75,-25.12"/>
<polygon fill="none" stroke="#bfbfbf" points="155.75,-6.38 155.75,-98.88 304,-98.88 304,-6.38 155.75,-6.38"/>
</a>
</g>
</g>
<!-- Node1&#45;&gt;Node3 -->
<g id="edge2_Node000001_Node000003" class="edge">
<title>Node1&#45;&gt;Node3</title>
<g id="a_edge2_Node000001_Node000003"><a xlink:title=" ">
<path fill="none" stroke="orange" d="M241.05,-167.93C239.12,-164.96 237.38,-161.9 235.88,-158.75 227.07,-140.37 224.8,-118.05 225.04,-98.72"/>
<polygon fill="orange" stroke="orange" points="238.14,-169.88 246.87,-175.87 243.78,-165.73 238.14,-169.88"/>
</a>
</g>
<text xml:space="preserve" text-anchor="start" x="238.88" y="-146.25" font-family="Helvetica,sans-Serif" font-size="10.00" fill="grey">&lt; ValidityRestrictionType</text>
<text xml:space="preserve" text-anchor="start" x="238.88" y="-129.5" font-family="Helvetica,sans-Serif" font-size="10.00" fill="grey">  ::Time_End &gt;</text>
</g>
<!-- Node4 -->
<g id="Node000004" class="node">
<title>Node4</title>
<g id="a_Node000004"><a xlink:href="../../df/dab/structvanetza_1_1security_1_1v2_1_1detail_1_1validity__restriction__type_3_01ValidityRestriction666a2edd3db3d4e315f8e33c4f12d4a1.html" target="_top" xlink:title=" ">
<polygon fill="white" stroke="none" points="464,-105.25 321.75,-105.25 321.75,0 464,0 464,-105.25"/>
<text xml:space="preserve" text-anchor="start" x="325.75" y="-91.75" font-family="Helvetica,sans-Serif" font-size="10.00">vanetza::security::</text>
<text xml:space="preserve" text-anchor="start" x="325.75" y="-79" font-family="Helvetica,sans-Serif" font-size="10.00">v2::detail::validity</text>
<text xml:space="preserve" text-anchor="start" x="325.75" y="-66.25" font-family="Helvetica,sans-Serif" font-size="10.00">_restriction_type&lt; Validity</text>
<text xml:space="preserve" text-anchor="start" x="325.75" y="-53.5" font-family="Helvetica,sans-Serif" font-size="10.00">RestrictionType::Time_Start</text>
<text xml:space="preserve" text-anchor="start" x="351.62" y="-40.75" font-family="Helvetica,sans-Serif" font-size="10.00">_And_Duration &gt;</text>
<text xml:space="preserve" text-anchor="start" x="391.38" y="-24" font-family="Helvetica,sans-Serif" font-size="10.00"> </text>
<text xml:space="preserve" text-anchor="start" x="391.38" y="-7.25" font-family="Helvetica,sans-Serif" font-size="10.00"> </text>
<polygon fill="#bfbfbf" stroke="#bfbfbf" points="321.75,-35.5 321.75,-35.5 464,-35.5 464,-35.5 321.75,-35.5"/>
<polygon fill="#bfbfbf" stroke="#bfbfbf" points="321.75,-18.75 321.75,-18.75 464,-18.75 464,-18.75 321.75,-18.75"/>
<polygon fill="none" stroke="#bfbfbf" points="321.75,0 321.75,-105.25 464,-105.25 464,0 321.75,0"/>
</a>
</g>
</g>
<!-- Node1&#45;&gt;Node4 -->
<g id="edge3_Node000001_Node000004" class="edge">
<title>Node1&#45;&gt;Node4</title>
<g id="a_edge3_Node000001_Node000004"><a xlink:title=" ">
<path fill="none" stroke="orange" d="M359.31,-167.8C361.31,-164.83 363.18,-161.8 364.88,-158.75 373.97,-142.31 380.23,-122.77 384.48,-105.02"/>
<polygon fill="orange" stroke="orange" points="356.49,-165.72 353.41,-175.86 362.14,-169.85 356.49,-165.72"/>
</a>
</g>
<text xml:space="preserve" text-anchor="start" x="381.68" y="-146.25" font-family="Helvetica,sans-Serif" font-size="10.00" fill="grey">&lt; ValidityRestrictionType</text>
<text xml:space="preserve" text-anchor="start" x="381.68" y="-129.5" font-family="Helvetica,sans-Serif" font-size="10.00" fill="grey">  ::Time_Start_And_Duration &gt;</text>
</g>
<!-- Node5 -->
<g id="Node000005" class="node">
<title>Node5</title>
<g id="a_Node000005"><a xlink:href="../../d1/d2a/structvanetza_1_1security_1_1v2_1_1detail_1_1validity__restriction__type_3_01ValidityRestrictiona758b9ba68831d2e09022591b8533f8d.html" target="_top" xlink:title=" ">
<polygon fill="white" stroke="none" points="635,-105.25 492.75,-105.25 492.75,0 635,0 635,-105.25"/>
<text xml:space="preserve" text-anchor="start" x="496.75" y="-91.75" font-family="Helvetica,sans-Serif" font-size="10.00">vanetza::security::</text>
<text xml:space="preserve" text-anchor="start" x="496.75" y="-79" font-family="Helvetica,sans-Serif" font-size="10.00">v2::detail::validity</text>
<text xml:space="preserve" text-anchor="start" x="496.75" y="-66.25" font-family="Helvetica,sans-Serif" font-size="10.00">_restriction_type&lt; Validity</text>
<text xml:space="preserve" text-anchor="start" x="496.75" y="-53.5" font-family="Helvetica,sans-Serif" font-size="10.00">RestrictionType::Time_Start</text>
<text xml:space="preserve" text-anchor="start" x="534.62" y="-40.75" font-family="Helvetica,sans-Serif" font-size="10.00">_And_End &gt;</text>
<text xml:space="preserve" text-anchor="start" x="562.38" y="-24" font-family="Helvetica,sans-Serif" font-size="10.00"> </text>
<text xml:space="preserve" text-anchor="start" x="562.38" y="-7.25" font-family="Helvetica,sans-Serif" font-size="10.00"> </text>
<polygon fill="#bfbfbf" stroke="#bfbfbf" points="492.75,-35.5 492.75,-35.5 635,-35.5 635,-35.5 492.75,-35.5"/>
<polygon fill="#bfbfbf" stroke="#bfbfbf" points="492.75,-18.75 492.75,-18.75 635,-18.75 635,-18.75 492.75,-18.75"/>
<polygon fill="none" stroke="#bfbfbf" points="492.75,0 492.75,-105.25 635,-105.25 635,0 492.75,0"/>
</a>
</g>
</g>
<!-- Node1&#45;&gt;Node5 -->
<g id="edge4_Node000001_Node000005" class="edge">
<title>Node1&#45;&gt;Node5</title>
<g id="a_edge4_Node000001_Node000005"><a xlink:title=" ">
<path fill="none" stroke="orange" d="M386.05,-219.72C435.85,-214.05 497.64,-198.61 536.88,-158.75 550.82,-144.58 557.86,-124.24 561.31,-105.21"/>
<polygon fill="orange" stroke="orange" points="385.75,-216.23 376.15,-220.72 386.45,-223.2 385.75,-216.23"/>
</a>
</g>
<text xml:space="preserve" text-anchor="start" x="559.78" y="-146.25" font-family="Helvetica,sans-Serif" font-size="10.00" fill="grey">&lt; ValidityRestrictionType</text>
<text xml:space="preserve" text-anchor="start" x="559.78" y="-129.5" font-family="Helvetica,sans-Serif" font-size="10.00" fill="grey">  ::Time_Start_And_End &gt;</text>
</g>
</g>
</svg>
