<?xml version="1.0" encoding="UTF-8" standalone="no"?>
<!DOCTYPE svg PUBLIC "-//W3C//DTD SVG 1.1//EN"
 "http://www.w3.org/Graphics/SVG/1.1/DTD/svg11.dtd">
<!-- Generated by graphviz version 14.1.2 (0)
 -->
<!-- Title: vanetza::security::v2::detail::validity_restriction_type&lt; ValidityRestrictionType &gt; Pages: 1 -->
<!--zoomable 277 -->

<svg id="main" version="1.1" xmlns="http://www.w3.org/2000/svg" xmlns:xlink="http://www.w3.org/1999/xlink" xml:space="preserve" onload="init(evt)">

<style type="text/css"><![CDATA[
.node, .edge {opacity: 0.7;}
.node.selected, .edge.selected {opacity: 1;}
.edge:hover path { stroke: red; }
.edge:hover polygon { stroke: red; fill: red; }
]]></style>

<defs>
  <circle id="rim" cx="0" cy="0" r="7"/>
  <circle id="rim2" cx="0" cy="0" r="3.5"/>
  <g id="zoomPlus">
    <use xlink:href="#rim" fill="#404040"><set attributeName="fill" to="#808080" begin="zoomplus.mouseover" end="zoomplus.mouseout"/></use>
    <path d="M-4,0h8M0,-4v8" fill="none" stroke="white" stroke-width="1.5" pointer-events="none"/>
  </g>
  <g id="zoomMin">
    <use xlink:href="#rim" fill="#404040"><set attributeName="fill" to="#808080" begin="zoomminus.mouseover" end="zoomminus.mouseout"/></use>
    <path d="M-4,0h8" fill="none" stroke="white" stroke-width="1.5" pointer-events="none"/>
  </g>
  <g id="arrowUp" transform="translate(30 24)">
    <use xlink:href="#rim"/>
    <path pointer-events="none" fill="none" stroke="white" stroke-width="1.5" d="M0,-3.0v7 M-2.5,-0.5L0,-3.0L2.5,-0.5"/>
  </g>
  <g id="arrowRight" transform="rotate(90) translate(36 -43)">
    <use xlink:href="#rim"/>
    <path pointer-events="none" fill="none" stroke="white" stroke-width="1.5" d="M0,-3.0v7 M-2.5,-0.5L0,-3.0L2.5,-0.5"/>
  </g>
  <g id="arrowDown" transform="rotate(180) translate(-30 -48)">
    <use xlink:href="#rim"/>
    <path pointer-events="none" fill="none" stroke="white" stroke-width="1.5" d="M0,-3.0v7 M-2.5,-0.5L0,-3.0L2.5,-0.5"/>
  </g>
  <g id="arrowLeft" transform="rotate(270) translate(-36 17)">
    <use xlink:href="#rim"/>
    <path pointer-events="none" fill="none" stroke="white" stroke-width="1.5" d="M0,-3.0v7 M-2.5,-0.5L0,-3.0L2.5,-0.5"/>
  </g>
  <g id="resetDef">
    <use xlink:href="#rim2" fill="#404040"><set attributeName="fill" to="#808080" begin="reset.mouseover" end="reset.mouseout"/></use>
  </g>
</defs>
<script type="application/ecmascript">
var viewWidth = 695;
var viewHeight = 277;
var sectionId = 'dynsection-0';
</script>
<script type="application/ecmascript" xlink:href="../../svg.min.js"/>
<svg id="graph" class="graph">
<g id="viewport">
<title>vanetza::security::v2::detail::validity_restriction_type&lt; ValidityRestrictionType &gt;</title>
<!-- Node1 -->
<g id="Node000001" class="node">
<title>Node1</title>
<g id="a_Node000001"><a xlink:title=" ">
<polygon fill="#999999" stroke="none" points="374.75,-269.25 237,-269.25 237,-176.75 374.75,-176.75 374.75,-269.25"/>
<text xml:space="preserve" text-anchor="start" x="241" y="-255.75" font-family="Helvetica,sans-Serif" font-size="10.00">vanetza::security::</text>
<text xml:space="preserve" text-anchor="start" x="241" y="-243" font-family="Helvetica,sans-Serif" font-size="10.00">v2::detail::validity</text>
<text xml:space="preserve" text-anchor="start" x="241" y="-230.25" font-family="Helvetica,sans-Serif" font-size="10.00">_restriction_type&lt; Validity</text>
<text xml:space="preserve" text-anchor="start" x="262.75" y="-217.5" font-family="Helvetica,sans-Serif" font-size="10.00">RestrictionType &gt;</text>
<text xml:space="preserve" text-anchor="start" x="304.38" y="-200.75" font-family="Helvetica,sans-Serif" font-size="10.00"> </text>
<text xml:space="preserve" text-anchor="start" x="304.38" y="-184" font-family="Helvetica,sans-Serif" font-size="10.00"> </text>
<polygon fill="#666666" stroke="#666666" points="237,-212.25 237,-212.25 374.75,-212.25 374.75,-212.25 237,-212.25"/>
<polygon fill="#666666" stroke="#666666" points="237,-195.5 237,-195.5 374.75,-195.5 374.75,-195.5 237,-195.5"/>
<polygon fill="none" stroke="#666666" points="237,-176.75 237,-269.25 374.75,-269.25 374.75,-176.75 237,-176.75"/>
</a>
</g>
</g>
<!-- Node2 -->
<g id="Node000002" class="node">
<title>Node2</title>
<g id="a_Node000002"><a xlink:href="../../d8/db3/structvanetza_1_1security_1_1v2_1_1detail_1_1validity__restriction__type_3_01ValidityRestrictionType_1_1Region_01_4.html" target="_top" xlink:title=" ">
<polygon fill="white" stroke="none" points="137.75,-98.88 0,-98.88 0,-6.38 137.75,-6.38 137.75,-98.88"/>
<text xml:space="preserve" text-anchor="start" x="4" y="-85.38" font-family="Helvetica,sans-Serif" font-size="10.00">vanetza::security::</text>
<text xml:space="preserve" text-anchor="start" x="4" y="-72.62" font-family="Helvetica,sans-Serif" font-size="10.00">v2::detail::validity</text>
<text xml:space="preserve" text-anchor="start" x="4" y="-59.88" font-family="Helvetica,sans-Serif" font-size="10.00">_restriction_type&lt; Validity</text>
<text xml:space="preserve" text-anchor="start" x="5.88" y="-47.12" font-family="Helvetica,sans-Serif" font-size="10.00">RestrictionType::Region &gt;</text>
<text xml:space="preserve" text-anchor="start" x="67.38" y="-30.38" font-family="Helvetica,sans-Serif" font-size="10.00"> </text>
<text xml:space="preserve" text-anchor="start" x="67.38" y="-13.62" font-family="Helvetica,sans-Serif" font-size="10.00"> </text>
<polygon fill="#bfbfbf" stroke="#bfbfbf" points="0,-41.88 0,-41.88 137.75,-41.88 137.75,-41.88 0,-41.88"/>
<polygon fill="#bfbfbf" stroke="#bfbfbf" points="0,-25.12 0,-25.12 137.75,-25.12 137.75,-25.12 0,-25.12"/>
<polygon fill="none" stroke="#bfbfbf" points="0,-6.38 0,-98.88 137.75,-98.88 137.75,-6.38 0,-6.38"/>
</a>
</g>
</g>
<!-- Node1&#45;&gt;Node2 -->
<g id="edge1_Node000001_Node000002" class="edge">
<title>Node1&#45;&gt;Node2</title>
<g id="a_edge1_Node000001_Node000002"><a xlink:title=" ">
<path fill="none" stroke="orange" d="M226.07,-217.31C181.33,-210.5 127.86,-194.71 93.88,-158.75 78.8,-142.8 72.28,-119.47 69.65,-98.84"/>
<polygon fill="orange" stroke="orange" points="225.35,-220.74 235.74,-218.64 226.31,-213.81 225.35,-220.74"/>
</a>
</g>
<text xml:space="preserve" text-anchor="start" x="96.88" y="-146.25" font-family="Helvetica,sans-Serif" font-size="10.00" fill="grey">&lt; ValidityRestrictionType</text>
<text xml:space="preserve" text-anchor="start" x="96.88" y="-129.5" font-family="Helvetica,sans-Serif" font-size="10.00" fill="grey">  ::Region &gt;</text>
</g>
<!-- Node3 -->
<g id="Node000003" class="node">
<title>Node3</title>
<g id="a_Node000003"><a xlink:href="../../d2/de9/structvanetza_1_1security_1_1v2_1_1detail_1_1validity__restriction__type_3_01ValidityRestrictionType_1_1Time__End_01_4.html" target="_top" xlink:title=" ">
<polygon fill="white" stroke="none" points="304,-98.88 155.75,-98.88 155.75,-6.38 304,-6.38 304,-98.88"/>
<text xml:space="preserve" text-anchor="start" x="159.75" y="-85.38" font-family="Helvetica,sans-Serif" font-size="10.00">vanetza::security::</text>
<text xml:space="preserve" text-anchor="start" x="159.75" y="-72.62" font-family="Helvetica,sans-Serif" font-size="10.00">v2::detail::validity</text>
<text xml:space="preserve" text-anchor="start" x="159.75" y="-59.88" font-family="Helvetica,sans-Serif" font-size="10.00">_restriction_type&lt; Validity</text>
<text xml:space="preserve" text-anchor="start" x="159.75" y="-47.12" font-family="Helvetica,sans-Serif" font-size="10.00">RestrictionType::Time_End &gt;</text>
<text xml:space="preserve" text-anchor="start" x="228.38" y="-30.38" font-family="Helvetica,sans-Serif" font-size="10.00"> </text>
<text xml:space="preserve" text-anchor="start" x="228.38" y="-13.62" font-family="Helvetica,sans-Serif" font-size="10.00"> </text>
<polygon fill="#bfbfbf" stroke="#bfbfbf" points="155.75,-41.88 155.75,-41.88 304,-41.88 304,-41.88 155.75,-41.88"/>
<polygon fill="#bfbfbf" stroke="#bfbfbf" points="155.75,-25.12 155.75,-25.12 304,-25.12 304,-25.12 155.75,-25.12"/>
<polygon fill="none" stroke="#bfbfbf" points="155.75,-6.38 155.75,-98.88 304,-98.88 304,-6.38 155.75,-6.38"/>
</a>
</g>
</g>
<!-- Node1&#45;&gt;Node3 -->
<g id="edge2_Node000001_Node000003" class="edge">
<title>Node1&#45;&gt;Node3</title>
<g id="a_edge2_Node000001_Node000003"><a xlink:title=" ">
<path fill="none" stroke="orange" d="M241.05,-167.93C239.12,-164.96 237.38,-161.9 235.88,-158.75 227.07,-140.37 224.8,-118.05 225.04,-98.72"/>
<polygon fill="orange" stroke="orange" points="238.14,-169.88 246.87,-175.87 243.78,-165.73 238.14,-169.88"/>
</a>
</g>
<text xml:space="preserve" text-anchor="start" x="238.88" y="-146.25" font-family="Helvetica,sans-Serif" font-size="10.00" fill="grey">&lt; ValidityRestrictionType</text>
<text xml:space="preserve" text-anchor="start" x="238.88" y="-129.5" font-family="Helvetica,sans-Serif" font-size="10.00" fill="grey">  ::Time_End &gt;</text>
</g>
<!-- Node4 -->
<g id="Node000004" class="node">
<title>Node4</title>
<g id="a_Node000004"><a xlink:href="../../df/dab/structvanetza_1_1security_1_1v2_1_1detail_1_1validity__restriction__type_3_01ValidityRestriction666a2edd3db3d4e315f8e33c4f12d4a1.html" target="_top" xlink:title=" ">
<polygon fill="white" stroke="none" points="464,-105.25 321.75,-105.25 321.75,0 464,0 464,-105.25"/>
<text xml:space="preserve" text-anchor="start" x="325.75" y="-91.75" font-family="Helvetica,sans-Serif" font-size="10.00">vanetza::security::</text>
<text xml:space="preserve" text-anchor="start" x="325.75" y="-79" font-family="Helvetica,sans-Serif" font-size="10.00">v2::detail::validity</text>
<text xml:space="preserve" text-anchor="start" x="325.75" y="-66.25" font-family="Helvetica,sans-Serif" font-size="10.00">_restriction_type&lt; Validity</text>
<text xml:space="preserve" text-anchor="start" x="325.75" y="-53.5" font-family="Helvetica,sans-Serif" font-size="10.00">RestrictionType::Time_Start</text>
<text xml:space="preserve" text-anchor="start" x="351.62" y="-40.75" font-family="Helvetica,sans-Serif" font-size="10.00">_And_Duration &gt;</text>
<text xml:space="preserve" text-anchor="start" x="391.38" y="-24" font-family="Helvetica,sans-Serif" font-size="10.00"> </text>
<text xml:space="preserve" text-anchor="start" x="391.38" y="-7.25" font-family="Helvetica,sans-Serif" font-size="10.00"> </text>
<polygon fill="#bfbfbf" stroke="#bfbfbf" points="321.75,-35.5 321.75,-35.5 464,-35.5 464,-35.5 321.75,-35.5"/>
<polygon fill="#bfbfbf" stroke="#bfbfbf" points="321.75,-18.75 321.75,-18.75 464,-18.75 464,-18.75 321.75,-18.75"/>
<polygon fill="none" stroke="#bfbfbf" points="321.75,0 321.75,-105.25 464,-105.25 464,0 321.75,0"/>
</a>
</g>
</g>
<!-- Node1&#45;&gt;Node4 -->
<g id="edge3_Node000001_Node000004" class="edge">
<title>Node1&#45;&gt;Node4</title>
<g id="a_edge3_Node000001_Node000004"><a xlink:title=" ">
<path fill="none" stroke="orange" d="M359.31,-167.8C361.31,-164.83 363.18,-161.8 364.88,-158.75 373.97,-142.31 380.23,-122.77 384.48,-105.02"/>
<polygon fill="orange" stroke="orange" points="356.49,-165.72 353.41,-175.86 362.14,-169.85 356.49,-165.72"/>
</a>
</g>
<text xml:space="preserve" text-anchor="start" x="381.68" y="-146.25" font-family="Helvetica,sans-Serif" font-size="10.00" fill="grey">&lt; ValidityRestrictionType</text>
<text xml:space="preserve" text-anchor="start" x="381.68" y="-129.5" font-family="Helvetica,sans-Serif" font-size="10.00" fill="grey">  ::Time_Start_And_Duration &gt;</text>
</g>
<!-- Node5 -->
<g id="Node000005" class="node">
<title>Node5</title>
<g id="a_Node000005"><a xlink:href="../../d1/d2a/structvanetza_1_1security_1_1v2_1_1detail_1_1validity__restriction__type_3_01ValidityRestrictiona758b9ba68831d2e09022591b8533f8d.html" target="_top" xlink:title=" ">
<polygon fill="white" stroke="none" points="635,-105.25 492.75,-105.25 492.75,0 635,0 635,-105.25"/>
<text xml:space="preserve" text-anchor="start" x="496.75" y="-91.75" font-family="Helvetica,sans-Serif" font-size="10.00">vanetza::security::</text>
<text xml:space="preserve" text-anchor="start" x="496.75" y="-79" font-family="Helvetica,sans-Serif" font-size="10.00">v2::detail::validity</text>
<text xml:space="preserve" text-anchor="start" x="496.75" y="-66.25" font-family="Helvetica,sans-Serif" font-size="10.00">_restriction_type&lt; Validity</text>
<text xml:space="preserve" text-anchor="start" x="496.75" y="-53.5" font-family="Helvetica,sans-Serif" font-size="10.00">RestrictionType::Time_Start</text>
<text xml:space="preserve" text-anchor="start" x="534.62" y="-40.75" font-family="Helvetica,sans-Serif" font-size="10.00">_And_End &gt;</text>
<text xml:space="preserve" text-anchor="start" x="562.38" y="-24" font-family="Helvetica,sans-Serif" font-size="10.00"> </text>
<text xml:space="preserve" text-anchor="start" x="562.38" y="-7.25" font-family="Helvetica,sans-Serif" font-size="10.00"> </text>
<polygon fill="#bfbfbf" stroke="#bfbfbf" points="492.75,-35.5 492.75,-35.5 635,-35.5 635,-35.5 492.75,-35.5"/>
<polygon fill="#bfbfbf" stroke="#bfbfbf" points="492.75,-18.75 492.75,-18.75 635,-18.75 635,-18.75 492.75,-18.75"/>
<polygon fill="none" stroke="#bfbfbf" points="492.75,0 492.75,-105.25 635,-105.25 635,0 492.75,0"/>
</a>
</g>
</g>
<!-- Node1&#45;&gt;Node5 -->
<g id="edge4_Node000001_Node000005" class="edge">
<title>Node1&#45;&gt;Node5</title>
<g id="a_edge4_Node000001_Node000005"><a xlink:title=" ">
<path fill="none" stroke="orange" d="M386.05,-219.72C435.85,-214.05 497.64,-198.61 536.88,-158.75 550.82,-144.58 557.86,-124.24 561.31,-105.21"/>
<polygon fill="orange" stroke="orange" points="385.75,-216.23 376.15,-220.72 386.45,-223.2 385.75,-216.23"/>
</a>
</g>
<text xml:space="preserve" text-anchor="start" x="559.78" y="-146.25" font-family="Helvetica,sans-Serif" font-size="10.00" fill="grey">&lt; ValidityRestrictionType</text>
<text xml:space="preserve" text-anchor="start" x="559.78" y="-129.5" font-family="Helvetica,sans-Serif" font-size="10.00" fill="grey">  ::Time_Start_And_End &gt;</text>
</g>
</g>
</svg>

<g id="navigator" transform="translate(0 0)" fill="#404254">
  <rect fill="#f2f5e9" fill-opacity="0.5" stroke="#606060" stroke-width=".5" x="0" y="0" width="60" height="60"/>
  <use id="zoomplus" xlink:href="#zoomPlus" x="17" y="9" onmousedown="handleZoom(evt,'in')"/>
  <use id="zoomminus" xlink:href="#zoomMin" x="42" y="9" onmousedown="handleZoom(evt,'out')"/>
  <use id="reset" xlink:href="#resetDef" x="30" y="36" onmousedown="handleReset()"/>
   <use id="arrowup" xlink:href="#arrowUp" x="0" y="0" onmousedown="handlePan(0,-1)"/>
  <use id="arrowright" xlink:href="#arrowRight" x="0" y="0" onmousedown="handlePan(1,0)"/>
  <use id="arrowdown" xlink:href="#arrowDown" x="0" y="0" onmousedown="handlePan(0,1)"/>
  <use id="arrowleft" xlink:href="#arrowLeft" x="0" y="0" onmousedown="handlePan(-1,0)"/>
</g>
<svg viewBox="0 0 15 15" width="100%" height="30px" preserveAspectRatio="xMaxYMin meet">
 <g id="arrow_out" transform="scale(0.3 0.3)">
  <a xlink:href="structvanetza_1_1security_1_1v2_1_1detail_1_1validity__restriction__type__inherit__graph_org.svg" target="_base">
   <rect id="button" ry="5" rx="5" y="6" x="6" height="38" width="38"
        fill="#f2f5e9" fill-opacity="0.5" stroke="#606060" stroke-width="1.0"/>
   <path id="arrow"
     d="M 11.500037,31.436501 C 11.940474,20.09759 22.043105,11.32322 32.158766,21.979434 L 37.068811,17.246167 C 37.068811,17.246167 37.088388,32 37.088388,32 L 22.160133,31.978069 C 22.160133,31.978069 26.997745,27.140456 26.997745,27.140456 C 18.528582,18.264221 13.291696,25.230495 11.500037,31.436501 z"
     style="fill:#404040;"/>
  </a>
 </g>
</svg>

<style type='text/css'>
<![CDATA[
[data-mouse-over-selected='false'] { opacity: 0.7; }
[data-mouse-over-selected='true']  { opacity: 1.0; }
]]>
</style>
<script type="application/ecmascript"><![CDATA[
document.addEventListener('DOMContentLoaded', (event) => {
  highlightEdges();
  highlightAdjacentNodes();
});
]]></script>
</svg>
