<?xml version="1.0" encoding="UTF-8" standalone="no"?>
<!DOCTYPE svg PUBLIC "-//W3C//DTD SVG 1.1//EN"
 "http://www.w3.org/Graphics/SVG/1.1/DTD/svg11.dtd">
<!-- Generated by graphviz version 2.42.3 (0)
 -->
<!-- Title: vanetza::asn1::asn1c_wrapper&lt; T &gt; Pages: 1 -->
<svg width="378pt" height="530pt"
 viewBox="0.00 0.00 377.50 530.00" xmlns="http://www.w3.org/2000/svg" xmlns:xlink="http://www.w3.org/1999/xlink">
<g id="graph0" class="graph" transform="scale(1 1) rotate(0) translate(4 526)">
<title>vanetza::asn1::asn1c_wrapper&lt; T &gt;</title>
<polygon fill="white" stroke="transparent" points="-4,4 -4,-526 373.5,-526 373.5,4 -4,4"/>
<!-- Node1 -->
<g id="node1" class="node">
<title>Node1</title>
<g id="a_node1"><a xlink:title=" ">
<polygon fill="#bfbfbf" stroke="black" points="131.5,-332.5 131.5,-521.5 241.5,-521.5 241.5,-332.5 131.5,-332.5"/>
<text text-anchor="start" x="139.5" y="-509.5" font-family="Helvetica,sans-Serif" font-size="10.00">vanetza::asn1::asn1c</text>
<text text-anchor="middle" x="186.5" y="-498.5" font-family="Helvetica,sans-Serif" font-size="10.00">_wrapper&lt; T &gt;</text>
<polyline fill="none" stroke="black" points="131.5,-491.5 241.5,-491.5 "/>
<text text-anchor="start" x="139.5" y="-479.5" font-family="Helvetica,sans-Serif" font-size="10.00">&#45; m_struct</text>
<text text-anchor="start" x="139.5" y="-468.5" font-family="Helvetica,sans-Serif" font-size="10.00">&#45; m_type</text>
<polyline fill="none" stroke="black" points="131.5,-461.5 241.5,-461.5 "/>
<text text-anchor="start" x="139.5" y="-449.5" font-family="Helvetica,sans-Serif" font-size="10.00">+ asn1c_wrapper()</text>
<text text-anchor="start" x="139.5" y="-438.5" font-family="Helvetica,sans-Serif" font-size="10.00">+ ~asn1c_wrapper()</text>
<text text-anchor="start" x="139.5" y="-427.5" font-family="Helvetica,sans-Serif" font-size="10.00">+ asn1c_wrapper()</text>
<text text-anchor="start" x="139.5" y="-416.5" font-family="Helvetica,sans-Serif" font-size="10.00">+ operator=()</text>
<text text-anchor="start" x="139.5" y="-405.5" font-family="Helvetica,sans-Serif" font-size="10.00">+ asn1c_wrapper()</text>
<text text-anchor="start" x="139.5" y="-394.5" font-family="Helvetica,sans-Serif" font-size="10.00">+ operator=()</text>
<text text-anchor="start" x="139.5" y="-383.5" font-family="Helvetica,sans-Serif" font-size="10.00">+ operator*()</text>
<text text-anchor="start" x="139.5" y="-372.5" font-family="Helvetica,sans-Serif" font-size="10.00">+ operator&#45;&gt;()</text>
<text text-anchor="start" x="139.5" y="-361.5" font-family="Helvetica,sans-Serif" font-size="10.00">+ operator*()</text>
<text text-anchor="start" x="139.5" y="-350.5" font-family="Helvetica,sans-Serif" font-size="10.00">+ operator&#45;&gt;()</text>
<text text-anchor="start" x="139.5" y="-339.5" font-family="Helvetica,sans-Serif" font-size="10.00">and 7 more...</text>
</a>
</g>
</g>
<!-- Node2 -->
<g id="node2" class="node">
<title>Node2</title>
<g id="a_node2"><a xlink:href="../../d2/de7/classvanetza_1_1asn1_1_1asn1c__wrapper.html" target="_top" xlink:title=" ">
<polygon fill="white" stroke="black" points="0,-95.5 0,-284.5 113,-284.5 113,-95.5 0,-95.5"/>
<text text-anchor="start" x="8" y="-272.5" font-family="Helvetica,sans-Serif" font-size="10.00">vanetza::asn1::asn1c</text>
<text text-anchor="middle" x="56.5" y="-261.5" font-family="Helvetica,sans-Serif" font-size="10.00">_wrapper&lt; DENM_t &gt;</text>
<polyline fill="none" stroke="black" points="0,-254.5 113,-254.5 "/>
<text text-anchor="start" x="8" y="-242.5" font-family="Helvetica,sans-Serif" font-size="10.00">&#45; m_struct</text>
<text text-anchor="start" x="8" y="-231.5" font-family="Helvetica,sans-Serif" font-size="10.00">&#45; m_type</text>
<polyline fill="none" stroke="black" points="0,-224.5 113,-224.5 "/>
<text text-anchor="start" x="8" y="-212.5" font-family="Helvetica,sans-Serif" font-size="10.00">+ asn1c_wrapper()</text>
<text text-anchor="start" x="8" y="-201.5" font-family="Helvetica,sans-Serif" font-size="10.00">+ asn1c_wrapper()</text>
<text text-anchor="start" x="8" y="-190.5" font-family="Helvetica,sans-Serif" font-size="10.00">+ asn1c_wrapper()</text>
<text text-anchor="start" x="8" y="-179.5" font-family="Helvetica,sans-Serif" font-size="10.00">+ ~asn1c_wrapper()</text>
<text text-anchor="start" x="8" y="-168.5" font-family="Helvetica,sans-Serif" font-size="10.00">+ operator=()</text>
<text text-anchor="start" x="8" y="-157.5" font-family="Helvetica,sans-Serif" font-size="10.00">+ operator=()</text>
<text text-anchor="start" x="8" y="-146.5" font-family="Helvetica,sans-Serif" font-size="10.00">+ operator*()</text>
<text text-anchor="start" x="8" y="-135.5" font-family="Helvetica,sans-Serif" font-size="10.00">+ operator*()</text>
<text text-anchor="start" x="8" y="-124.5" font-family="Helvetica,sans-Serif" font-size="10.00">+ operator&#45;&gt;()</text>
<text text-anchor="start" x="8" y="-113.5" font-family="Helvetica,sans-Serif" font-size="10.00">+ operator&#45;&gt;()</text>
<text text-anchor="start" x="8" y="-102.5" font-family="Helvetica,sans-Serif" font-size="10.00">and 7 more...</text>
</a>
</g>
</g>
<!-- Node1&#45;&gt;Node2 -->
<g id="edge1" class="edge">
<title>Node1&#45;&gt;Node2</title>
<path fill="none" stroke="orange" d="M127.7,-323.36C125.94,-320.21 124.21,-317.08 122.5,-314 117.27,-304.57 111.87,-294.7 106.51,-284.82"/>
<polygon fill="orange" stroke="orange" points="124.77,-325.28 132.71,-332.3 130.88,-321.86 124.77,-325.28"/>
<text text-anchor="middle" x="152.5" y="-306" font-family="Helvetica,sans-Serif" font-size="10.00"> &lt; DENM_t &gt;</text>
</g>
<!-- Node4 -->
<g id="node4" class="node">
<title>Node4</title>
<g id="a_node4"><a xlink:href="../../d2/de7/classvanetza_1_1asn1_1_1asn1c__wrapper.html" target="_top" xlink:title=" ">
<polygon fill="white" stroke="black" points="131.5,-95.5 131.5,-284.5 241.5,-284.5 241.5,-95.5 131.5,-95.5"/>
<text text-anchor="start" x="139.5" y="-272.5" font-family="Helvetica,sans-Serif" font-size="10.00">vanetza::asn1::asn1c</text>
<text text-anchor="middle" x="186.5" y="-261.5" font-family="Helvetica,sans-Serif" font-size="10.00">_wrapper&lt; CAM_t &gt;</text>
<polyline fill="none" stroke="black" points="131.5,-254.5 241.5,-254.5 "/>
<text text-anchor="start" x="139.5" y="-242.5" font-family="Helvetica,sans-Serif" font-size="10.00">&#45; m_struct</text>
<text text-anchor="start" x="139.5" y="-231.5" font-family="Helvetica,sans-Serif" font-size="10.00">&#45; m_type</text>
<polyline fill="none" stroke="black" points="131.5,-224.5 241.5,-224.5 "/>
<text text-anchor="start" x="139.5" y="-212.5" font-family="Helvetica,sans-Serif" font-size="10.00">+ asn1c_wrapper()</text>
<text text-anchor="start" x="139.5" y="-201.5" font-family="Helvetica,sans-Serif" font-size="10.00">+ asn1c_wrapper()</text>
<text text-anchor="start" x="139.5" y="-190.5" font-family="Helvetica,sans-Serif" font-size="10.00">+ asn1c_wrapper()</text>
<text text-anchor="start" x="139.5" y="-179.5" font-family="Helvetica,sans-Serif" font-size="10.00">+ ~asn1c_wrapper()</text>
<text text-anchor="start" x="139.5" y="-168.5" font-family="Helvetica,sans-Serif" font-size="10.00">+ operator=()</text>
<text text-anchor="start" x="139.5" y="-157.5" font-family="Helvetica,sans-Serif" font-size="10.00">+ operator=()</text>
<text text-anchor="start" x="139.5" y="-146.5" font-family="Helvetica,sans-Serif" font-size="10.00">+ operator*()</text>
<text text-anchor="start" x="139.5" y="-135.5" font-family="Helvetica,sans-Serif" font-size="10.00">+ operator*()</text>
<text text-anchor="start" x="139.5" y="-124.5" font-family="Helvetica,sans-Serif" font-size="10.00">+ operator&#45;&gt;()</text>
<text text-anchor="start" x="139.5" y="-113.5" font-family="Helvetica,sans-Serif" font-size="10.00">+ operator&#45;&gt;()</text>
<text text-anchor="start" x="139.5" y="-102.5" font-family="Helvetica,sans-Serif" font-size="10.00">and 7 more...</text>
</a>
</g>
</g>
<!-- Node1&#45;&gt;Node4 -->
<g id="edge3" class="edge">
<title>Node1&#45;&gt;Node4</title>
<path fill="none" stroke="orange" d="M186.5,-322.42C186.5,-309.84 186.5,-297.04 186.5,-284.62"/>
<polygon fill="orange" stroke="orange" points="183,-322.45 186.5,-332.45 190,-322.45 183,-322.45"/>
<text text-anchor="middle" x="212.5" y="-306" font-family="Helvetica,sans-Serif" font-size="10.00"> &lt; CAM_t &gt;</text>
</g>
<!-- Node6 -->
<g id="node6" class="node">
<title>Node6</title>
<g id="a_node6"><a xlink:href="../../d2/de7/classvanetza_1_1asn1_1_1asn1c__wrapper.html" target="_top" xlink:title=" ">
<polygon fill="white" stroke="black" points="259.5,-95.5 259.5,-284.5 369.5,-284.5 369.5,-95.5 259.5,-95.5"/>
<text text-anchor="start" x="267.5" y="-272.5" font-family="Helvetica,sans-Serif" font-size="10.00">vanetza::asn1::asn1c</text>
<text text-anchor="middle" x="314.5" y="-261.5" font-family="Helvetica,sans-Serif" font-size="10.00">_wrapper&lt; CPM_t &gt;</text>
<polyline fill="none" stroke="black" points="259.5,-254.5 369.5,-254.5 "/>
<text text-anchor="start" x="267.5" y="-242.5" font-family="Helvetica,sans-Serif" font-size="10.00">&#45; m_struct</text>
<text text-anchor="start" x="267.5" y="-231.5" font-family="Helvetica,sans-Serif" font-size="10.00">&#45; m_type</text>
<polyline fill="none" stroke="black" points="259.5,-224.5 369.5,-224.5 "/>
<text text-anchor="start" x="267.5" y="-212.5" font-family="Helvetica,sans-Serif" font-size="10.00">+ asn1c_wrapper()</text>
<text text-anchor="start" x="267.5" y="-201.5" font-family="Helvetica,sans-Serif" font-size="10.00">+ asn1c_wrapper()</text>
<text text-anchor="start" x="267.5" y="-190.5" font-family="Helvetica,sans-Serif" font-size="10.00">+ asn1c_wrapper()</text>
<text text-anchor="start" x="267.5" y="-179.5" font-family="Helvetica,sans-Serif" font-size="10.00">+ ~asn1c_wrapper()</text>
<text text-anchor="start" x="267.5" y="-168.5" font-family="Helvetica,sans-Serif" font-size="10.00">+ operator=()</text>
<text text-anchor="start" x="267.5" y="-157.5" font-family="Helvetica,sans-Serif" font-size="10.00">+ operator=()</text>
<text text-anchor="start" x="267.5" y="-146.5" font-family="Helvetica,sans-Serif" font-size="10.00">+ operator*()</text>
<text text-anchor="start" x="267.5" y="-135.5" font-family="Helvetica,sans-Serif" font-size="10.00">+ operator*()</text>
<text text-anchor="start" x="267.5" y="-124.5" font-family="Helvetica,sans-Serif" font-size="10.00">+ operator&#45;&gt;()</text>
<text text-anchor="start" x="267.5" y="-113.5" font-family="Helvetica,sans-Serif" font-size="10.00">+ operator&#45;&gt;()</text>
<text text-anchor="start" x="267.5" y="-102.5" font-family="Helvetica,sans-Serif" font-size="10.00">and 7 more...</text>
</a>
</g>
</g>
<!-- Node1&#45;&gt;Node6 -->
<g id="edge5" class="edge">
<title>Node1&#45;&gt;Node6</title>
<path fill="none" stroke="orange" d="M242.31,-323.54C249.36,-310.6 256.54,-297.41 263.51,-284.62"/>
<polygon fill="orange" stroke="orange" points="239.17,-321.99 237.46,-332.45 245.31,-325.34 239.17,-321.99"/>
<text text-anchor="middle" x="276.5" y="-306" font-family="Helvetica,sans-Serif" font-size="10.00"> &lt; CPM_t &gt;</text>
</g>
<!-- Node3 -->
<g id="node3" class="node">
<title>Node3</title>
<g id="a_node3"><a xlink:href="../../da/dbc/classvanetza_1_1asn1_1_1Denm.html" target="_top" xlink:title=" ">
<polygon fill="white" stroke="black" points="1.5,-0.5 1.5,-57.5 111.5,-57.5 111.5,-0.5 1.5,-0.5"/>
<text text-anchor="middle" x="56.5" y="-45.5" font-family="Helvetica,sans-Serif" font-size="10.00">vanetza::asn1::Denm</text>
<polyline fill="none" stroke="black" points="1.5,-38.5 111.5,-38.5 "/>
<text text-anchor="middle" x="56.5" y="-26.5" font-family="Helvetica,sans-Serif" font-size="10.00"> </text>
<polyline fill="none" stroke="black" points="1.5,-19.5 111.5,-19.5 "/>
<text text-anchor="start" x="9.5" y="-7.5" font-family="Helvetica,sans-Serif" font-size="10.00">+ Denm()</text>
</a>
</g>
</g>
<!-- Node2&#45;&gt;Node3 -->
<g id="edge2" class="edge">
<title>Node2&#45;&gt;Node3</title>
<path fill="none" stroke="midnightblue" d="M56.5,-85.08C56.5,-75.19 56.5,-65.85 56.5,-57.78"/>
<polygon fill="none" stroke="midnightblue" points="53,-85.13 56.5,-95.13 60,-85.13 53,-85.13"/>
</g>
<!-- Node5 -->
<g id="node5" class="node">
<title>Node5</title>
<g id="a_node5"><a xlink:href="../../d6/d47/classvanetza_1_1asn1_1_1Cam.html" target="_top" xlink:title=" ">
<polygon fill="white" stroke="black" points="134.5,-0.5 134.5,-57.5 238.5,-57.5 238.5,-0.5 134.5,-0.5"/>
<text text-anchor="middle" x="186.5" y="-45.5" font-family="Helvetica,sans-Serif" font-size="10.00">vanetza::asn1::Cam</text>
<polyline fill="none" stroke="black" points="134.5,-38.5 238.5,-38.5 "/>
<text text-anchor="middle" x="186.5" y="-26.5" font-family="Helvetica,sans-Serif" font-size="10.00"> </text>
<polyline fill="none" stroke="black" points="134.5,-19.5 238.5,-19.5 "/>
<text text-anchor="start" x="142.5" y="-7.5" font-family="Helvetica,sans-Serif" font-size="10.00">+ Cam()</text>
</a>
</g>
</g>
<!-- Node4&#45;&gt;Node5 -->
<g id="edge4" class="edge">
<title>Node4&#45;&gt;Node5</title>
<path fill="none" stroke="midnightblue" d="M186.5,-85.08C186.5,-75.19 186.5,-65.85 186.5,-57.78"/>
<polygon fill="none" stroke="midnightblue" points="183,-85.13 186.5,-95.13 190,-85.13 183,-85.13"/>
</g>
<!-- Node7 -->
<g id="node7" class="node">
<title>Node7</title>
<g id="a_node7"><a xlink:href="../../d3/d6a/classvanetza_1_1asn1_1_1Cpm.html" target="_top" xlink:title=" ">
<polygon fill="white" stroke="black" points="262.5,-0.5 262.5,-57.5 366.5,-57.5 366.5,-0.5 262.5,-0.5"/>
<text text-anchor="middle" x="314.5" y="-45.5" font-family="Helvetica,sans-Serif" font-size="10.00">vanetza::asn1::Cpm</text>
<polyline fill="none" stroke="black" points="262.5,-38.5 366.5,-38.5 "/>
<text text-anchor="middle" x="314.5" y="-26.5" font-family="Helvetica,sans-Serif" font-size="10.00"> </text>
<polyline fill="none" stroke="black" points="262.5,-19.5 366.5,-19.5 "/>
<text text-anchor="start" x="270.5" y="-7.5" font-family="Helvetica,sans-Serif" font-size="10.00">+ Cpm()</text>
</a>
</g>
</g>
<!-- Node6&#45;&gt;Node7 -->
<g id="edge6" class="edge">
<title>Node6&#45;&gt;Node7</title>
<path fill="none" stroke="midnightblue" d="M314.5,-85.08C314.5,-75.19 314.5,-65.85 314.5,-57.78"/>
<polygon fill="none" stroke="midnightblue" points="311,-85.13 314.5,-95.13 318,-85.13 311,-85.13"/>
</g>
</g>
</svg>
