<?xml version="1.0" encoding="UTF-8" standalone="no"?>
<!DOCTYPE svg PUBLIC "-//W3C//DTD SVG 1.1//EN"
 "http://www.w3.org/Graphics/SVG/1.1/DTD/svg11.dtd">
<!-- Generated by graphviz version 2.49.3 (0)
 -->
<!-- Title: vanetza::asn1::Cam Pages: 1 -->
<svg width="318pt" height="734pt"
 viewBox="0.00 0.00 318.00 734.00" xmlns="http://www.w3.org/2000/svg" xmlns:xlink="http://www.w3.org/1999/xlink">
<g id="graph0" class="graph" transform="scale(1 1) rotate(0) translate(4 730)">
<title>vanetza::asn1::Cam</title>
<polygon fill="white" stroke="transparent" points="-4,4 -4,-730 314,-730 314,4 -4,4"/>
<!-- Node1 -->
<g id="node1" class="node">
<title>Node1</title>
<g id="a_node1"><a xlink:title=" ">
<polygon fill="#bfbfbf" stroke="black" points="99,-0.5 99,-57.5 203,-57.5 203,-0.5 99,-0.5"/>
<text text-anchor="middle" x="151" y="-45.5" font-family="Helvetica,sans-Serif" font-size="10.00">vanetza::asn1::Cam</text>
<polyline fill="none" stroke="black" points="99,-38.5 203,-38.5 "/>
<text text-anchor="middle" x="151" y="-26.5" font-family="Helvetica,sans-Serif" font-size="10.00"> </text>
<polyline fill="none" stroke="black" points="99,-19.5 203,-19.5 "/>
<text text-anchor="start" x="107" y="-7.5" font-family="Helvetica,sans-Serif" font-size="10.00">+ Cam()</text>
</a>
</g>
</g>
<!-- Node2 -->
<g id="node2" class="node">
<title>Node2</title>
<g id="a_node2"><a xlink:href="../../dc/dbf/classvanetza_1_1asn1_1_1asn1c__per__wrapper.html" target="_top" xlink:title=" ">
<polygon fill="white" stroke="#bfbfbf" points="89.5,-95.5 89.5,-207.5 212.5,-207.5 212.5,-95.5 89.5,-95.5"/>
<text text-anchor="start" x="97.5" y="-195.5" font-family="Helvetica,sans-Serif" font-size="10.00">vanetza::asn1::asn1c</text>
<text text-anchor="middle" x="151" y="-184.5" font-family="Helvetica,sans-Serif" font-size="10.00">_per_wrapper&lt; CAM_t &gt;</text>
<polyline fill="none" stroke="#bfbfbf" points="89.5,-177.5 212.5,-177.5 "/>
<text text-anchor="middle" x="151" y="-165.5" font-family="Helvetica,sans-Serif" font-size="10.00"> </text>
<polyline fill="none" stroke="#bfbfbf" points="89.5,-158.5 212.5,-158.5 "/>
<text text-anchor="start" x="97.5" y="-146.5" font-family="Helvetica,sans-Serif" font-size="10.00">+ encode()</text>
<text text-anchor="start" x="97.5" y="-135.5" font-family="Helvetica,sans-Serif" font-size="10.00">+ decode()</text>
<text text-anchor="start" x="97.5" y="-124.5" font-family="Helvetica,sans-Serif" font-size="10.00">+ decode()</text>
<text text-anchor="start" x="97.5" y="-113.5" font-family="Helvetica,sans-Serif" font-size="10.00">+ decode()</text>
<text text-anchor="start" x="97.5" y="-102.5" font-family="Helvetica,sans-Serif" font-size="10.00">+ size()</text>
</a>
</g>
</g>
<!-- Node2&#45;&gt;Node1 -->
<g id="edge1" class="edge">
<title>Node2&#45;&gt;Node1</title>
<path fill="none" stroke="midnightblue" d="M151,-85.12C151,-75.48 151,-66.01 151,-57.72"/>
<polygon fill="none" stroke="midnightblue" points="147.5,-85.19 151,-95.19 154.5,-85.19 147.5,-85.19"/>
</g>
<!-- Node3 -->
<g id="node3" class="node">
<title>Node3</title>
<g id="a_node3"><a xlink:href="../../d0/d68/classvanetza_1_1asn1_1_1asn1c__wrapper__common.html" target="_top" xlink:title=" ">
<polygon fill="white" stroke="#bfbfbf" points="4.5,-255.5 4.5,-466.5 151.5,-466.5 151.5,-255.5 4.5,-255.5"/>
<text text-anchor="start" x="12.5" y="-454.5" font-family="Helvetica,sans-Serif" font-size="10.00">vanetza::asn1::asn1c</text>
<text text-anchor="middle" x="78" y="-443.5" font-family="Helvetica,sans-Serif" font-size="10.00">_wrapper_common&lt; CAM_t &gt;</text>
<polyline fill="none" stroke="#bfbfbf" points="4.5,-436.5 151.5,-436.5 "/>
<text text-anchor="start" x="12.5" y="-424.5" font-family="Helvetica,sans-Serif" font-size="10.00"># m_struct</text>
<text text-anchor="start" x="12.5" y="-413.5" font-family="Helvetica,sans-Serif" font-size="10.00"># m_type</text>
<polyline fill="none" stroke="#bfbfbf" points="4.5,-406.5 151.5,-406.5 "/>
<text text-anchor="start" x="12.5" y="-394.5" font-family="Helvetica,sans-Serif" font-size="10.00">+ asn1c_wrapper_common()</text>
<text text-anchor="start" x="12.5" y="-383.5" font-family="Helvetica,sans-Serif" font-size="10.00">+ asn1c_wrapper_common()</text>
<text text-anchor="start" x="12.5" y="-372.5" font-family="Helvetica,sans-Serif" font-size="10.00">+ asn1c_wrapper_common()</text>
<text text-anchor="start" x="12.5" y="-361.5" font-family="Helvetica,sans-Serif" font-size="10.00">+ ~asn1c_wrapper_common()</text>
<text text-anchor="start" x="12.5" y="-350.5" font-family="Helvetica,sans-Serif" font-size="10.00">+ operator=()</text>
<text text-anchor="start" x="12.5" y="-339.5" font-family="Helvetica,sans-Serif" font-size="10.00">+ operator=()</text>
<text text-anchor="start" x="12.5" y="-328.5" font-family="Helvetica,sans-Serif" font-size="10.00">+ operator*()</text>
<text text-anchor="start" x="12.5" y="-317.5" font-family="Helvetica,sans-Serif" font-size="10.00">+ operator*()</text>
<text text-anchor="start" x="12.5" y="-306.5" font-family="Helvetica,sans-Serif" font-size="10.00">+ operator&#45;&gt;()</text>
<text text-anchor="start" x="12.5" y="-295.5" font-family="Helvetica,sans-Serif" font-size="10.00">+ operator&#45;&gt;()</text>
<text text-anchor="start" x="12.5" y="-284.5" font-family="Helvetica,sans-Serif" font-size="10.00">+ validate()</text>
<text text-anchor="start" x="12.5" y="-273.5" font-family="Helvetica,sans-Serif" font-size="10.00">+ validate()</text>
<text text-anchor="start" x="12.5" y="-262.5" font-family="Helvetica,sans-Serif" font-size="10.00">+ swap()</text>
</a>
</g>
</g>
<!-- Node3&#45;&gt;Node2 -->
<g id="edge2" class="edge">
<title>Node3&#45;&gt;Node2</title>
<path fill="none" stroke="midnightblue" d="M118.22,-245.68C122.87,-232.44 127.45,-219.45 131.63,-207.55"/>
<polygon fill="none" stroke="midnightblue" points="114.84,-244.74 114.82,-255.34 121.44,-247.07 114.84,-244.74"/>
</g>
<!-- Node4 -->
<g id="node4" class="node">
<title>Node4</title>
<g id="a_node4"><a xlink:href="../../d0/d68/classvanetza_1_1asn1_1_1asn1c__wrapper__common.html" target="_top" xlink:title=" ">
<polygon fill="white" stroke="#bfbfbf" points="0,-514.5 0,-725.5 146,-725.5 146,-514.5 0,-514.5"/>
<text text-anchor="start" x="8" y="-713.5" font-family="Helvetica,sans-Serif" font-size="10.00">vanetza::asn1::asn1c</text>
<text text-anchor="middle" x="73" y="-702.5" font-family="Helvetica,sans-Serif" font-size="10.00">_wrapper_common&lt; T &gt;</text>
<polyline fill="none" stroke="#bfbfbf" points="0,-695.5 146,-695.5 "/>
<text text-anchor="start" x="8" y="-683.5" font-family="Helvetica,sans-Serif" font-size="10.00"># m_struct</text>
<text text-anchor="start" x="8" y="-672.5" font-family="Helvetica,sans-Serif" font-size="10.00"># m_type</text>
<polyline fill="none" stroke="#bfbfbf" points="0,-665.5 146,-665.5 "/>
<text text-anchor="start" x="8" y="-653.5" font-family="Helvetica,sans-Serif" font-size="10.00">+ asn1c_wrapper_common()</text>
<text text-anchor="start" x="8" y="-642.5" font-family="Helvetica,sans-Serif" font-size="10.00">+ ~asn1c_wrapper_common()</text>
<text text-anchor="start" x="8" y="-631.5" font-family="Helvetica,sans-Serif" font-size="10.00">+ asn1c_wrapper_common()</text>
<text text-anchor="start" x="8" y="-620.5" font-family="Helvetica,sans-Serif" font-size="10.00">+ operator=()</text>
<text text-anchor="start" x="8" y="-609.5" font-family="Helvetica,sans-Serif" font-size="10.00">+ asn1c_wrapper_common()</text>
<text text-anchor="start" x="8" y="-598.5" font-family="Helvetica,sans-Serif" font-size="10.00">+ operator=()</text>
<text text-anchor="start" x="8" y="-587.5" font-family="Helvetica,sans-Serif" font-size="10.00">+ operator*()</text>
<text text-anchor="start" x="8" y="-576.5" font-family="Helvetica,sans-Serif" font-size="10.00">+ operator&#45;&gt;()</text>
<text text-anchor="start" x="8" y="-565.5" font-family="Helvetica,sans-Serif" font-size="10.00">+ operator*()</text>
<text text-anchor="start" x="8" y="-554.5" font-family="Helvetica,sans-Serif" font-size="10.00">+ operator&#45;&gt;()</text>
<text text-anchor="start" x="8" y="-543.5" font-family="Helvetica,sans-Serif" font-size="10.00">+ validate()</text>
<text text-anchor="start" x="8" y="-532.5" font-family="Helvetica,sans-Serif" font-size="10.00">+ validate()</text>
<text text-anchor="start" x="8" y="-521.5" font-family="Helvetica,sans-Serif" font-size="10.00">+ swap()</text>
</a>
</g>
</g>
<!-- Node4&#45;&gt;Node3 -->
<g id="edge3" class="edge">
<title>Node4&#45;&gt;Node3</title>
<path fill="none" stroke="orange" d="M75.24,-504.1C75.48,-491.7 75.72,-479.13 75.96,-466.86"/>
<polygon fill="orange" stroke="orange" points="71.73,-504.4 75.03,-514.47 78.73,-504.54 71.73,-504.4"/>
<text text-anchor="middle" x="102" y="-488" font-family="Helvetica,sans-Serif" font-size="10.00"> &lt; CAM_t &gt;</text>
</g>
<!-- Node5 -->
<g id="node5" class="node">
<title>Node5</title>
<g id="a_node5"><a xlink:href="../../dc/dbf/classvanetza_1_1asn1_1_1asn1c__per__wrapper.html" target="_top" xlink:title=" ">
<polygon fill="white" stroke="#bfbfbf" points="178,-305 178,-417 288,-417 288,-305 178,-305"/>
<text text-anchor="start" x="186" y="-405" font-family="Helvetica,sans-Serif" font-size="10.00">vanetza::asn1::asn1c</text>
<text text-anchor="middle" x="233" y="-394" font-family="Helvetica,sans-Serif" font-size="10.00">_per_wrapper&lt; T &gt;</text>
<polyline fill="none" stroke="#bfbfbf" points="178,-387 288,-387 "/>
<text text-anchor="middle" x="233" y="-375" font-family="Helvetica,sans-Serif" font-size="10.00"> </text>
<polyline fill="none" stroke="#bfbfbf" points="178,-368 288,-368 "/>
<text text-anchor="start" x="186" y="-356" font-family="Helvetica,sans-Serif" font-size="10.00">+ encode()</text>
<text text-anchor="start" x="186" y="-345" font-family="Helvetica,sans-Serif" font-size="10.00">+ decode()</text>
<text text-anchor="start" x="186" y="-334" font-family="Helvetica,sans-Serif" font-size="10.00">+ decode()</text>
<text text-anchor="start" x="186" y="-323" font-family="Helvetica,sans-Serif" font-size="10.00">+ decode()</text>
<text text-anchor="start" x="186" y="-312" font-family="Helvetica,sans-Serif" font-size="10.00">+ size()</text>
</a>
</g>
</g>
<!-- Node5&#45;&gt;Node2 -->
<g id="edge4" class="edge">
<title>Node5&#45;&gt;Node2</title>
<path fill="none" stroke="orange" d="M207.55,-295.59C196.43,-267.47 183.53,-234.82 172.86,-207.82"/>
<polygon fill="orange" stroke="orange" points="204.31,-296.92 211.24,-304.94 210.82,-294.35 204.31,-296.92"/>
<text text-anchor="middle" x="209" y="-229" font-family="Helvetica,sans-Serif" font-size="10.00"> &lt; CAM_t &gt;</text>
</g>
<!-- Node6 -->
<g id="node6" class="node">
<title>Node6</title>
<g id="a_node6"><a xlink:href="../../d0/d68/classvanetza_1_1asn1_1_1asn1c__wrapper__common.html" target="_top" xlink:title=" ">
<polygon fill="white" stroke="#bfbfbf" points="164,-514.5 164,-725.5 310,-725.5 310,-514.5 164,-514.5"/>
<text text-anchor="start" x="172" y="-713.5" font-family="Helvetica,sans-Serif" font-size="10.00">vanetza::asn1::asn1c</text>
<text text-anchor="middle" x="237" y="-702.5" font-family="Helvetica,sans-Serif" font-size="10.00">_wrapper_common&lt; T &gt;</text>
<polyline fill="none" stroke="#bfbfbf" points="164,-695.5 310,-695.5 "/>
<text text-anchor="start" x="172" y="-683.5" font-family="Helvetica,sans-Serif" font-size="10.00"># m_struct</text>
<text text-anchor="start" x="172" y="-672.5" font-family="Helvetica,sans-Serif" font-size="10.00"># m_type</text>
<polyline fill="none" stroke="#bfbfbf" points="164,-665.5 310,-665.5 "/>
<text text-anchor="start" x="172" y="-653.5" font-family="Helvetica,sans-Serif" font-size="10.00">+ asn1c_wrapper_common()</text>
<text text-anchor="start" x="172" y="-642.5" font-family="Helvetica,sans-Serif" font-size="10.00">+ ~asn1c_wrapper_common()</text>
<text text-anchor="start" x="172" y="-631.5" font-family="Helvetica,sans-Serif" font-size="10.00">+ asn1c_wrapper_common()</text>
<text text-anchor="start" x="172" y="-620.5" font-family="Helvetica,sans-Serif" font-size="10.00">+ operator=()</text>
<text text-anchor="start" x="172" y="-609.5" font-family="Helvetica,sans-Serif" font-size="10.00">+ asn1c_wrapper_common()</text>
<text text-anchor="start" x="172" y="-598.5" font-family="Helvetica,sans-Serif" font-size="10.00">+ operator=()</text>
<text text-anchor="start" x="172" y="-587.5" font-family="Helvetica,sans-Serif" font-size="10.00">+ operator*()</text>
<text text-anchor="start" x="172" y="-576.5" font-family="Helvetica,sans-Serif" font-size="10.00">+ operator&#45;&gt;()</text>
<text text-anchor="start" x="172" y="-565.5" font-family="Helvetica,sans-Serif" font-size="10.00">+ operator*()</text>
<text text-anchor="start" x="172" y="-554.5" font-family="Helvetica,sans-Serif" font-size="10.00">+ operator&#45;&gt;()</text>
<text text-anchor="start" x="172" y="-543.5" font-family="Helvetica,sans-Serif" font-size="10.00">+ validate()</text>
<text text-anchor="start" x="172" y="-532.5" font-family="Helvetica,sans-Serif" font-size="10.00">+ validate()</text>
<text text-anchor="start" x="172" y="-521.5" font-family="Helvetica,sans-Serif" font-size="10.00">+ swap()</text>
</a>
</g>
</g>
<!-- Node6&#45;&gt;Node5 -->
<g id="edge5" class="edge">
<title>Node6&#45;&gt;Node5</title>
<path fill="none" stroke="midnightblue" d="M235.21,-504.25C234.74,-473.96 234.26,-442.65 233.86,-417.13"/>
<polygon fill="none" stroke="midnightblue" points="231.72,-504.52 235.37,-514.47 238.72,-504.41 231.72,-504.52"/>
</g>
</g>
</svg>
