<?xml version="1.0" encoding="UTF-8" standalone="no"?>
<!DOCTYPE svg PUBLIC "-//W3C//DTD SVG 1.1//EN"
 "http://www.w3.org/Graphics/SVG/1.1/DTD/svg11.dtd">
<!-- Generated by graphviz version 2.42.1 (0)
 -->
<!-- Title: vanetza::geonet::GacDataRequest Pages: 1 -->
<svg width="158pt" height="342pt"
 viewBox="0.00 0.00 158.00 342.00" xmlns="http://www.w3.org/2000/svg" xmlns:xlink="http://www.w3.org/1999/xlink">
<g id="graph0" class="graph" transform="scale(1 1) rotate(0) translate(4 338)">
<title>vanetza::geonet::GacDataRequest</title>
<polygon fill="white" stroke="transparent" points="-4,4 -4,-338 154,-338 154,4 -4,4"/>
<!-- Node0 -->
<g id="node1" class="node">
<title>Node0</title>
<g id="a_node1"><a xlink:title=" ">
<polygon fill="#bfbfbf" stroke="black" points="9.5,-0.5 9.5,-68.5 140.5,-68.5 140.5,-0.5 9.5,-0.5"/>
<text text-anchor="start" x="17.5" y="-56.5" font-family="Helvetica,sans-Serif" font-size="10.00">vanetza::geonet::GacData</text>
<text text-anchor="middle" x="75" y="-45.5" font-family="Helvetica,sans-Serif" font-size="10.00">Request</text>
<polyline fill="none" stroke="black" points="9.5,-38.5 140.5,-38.5 "/>
<text text-anchor="middle" x="75" y="-26.5" font-family="Helvetica,sans-Serif" font-size="10.00"> </text>
<polyline fill="none" stroke="black" points="9.5,-19.5 140.5,-19.5 "/>
<text text-anchor="middle" x="75" y="-7.5" font-family="Helvetica,sans-Serif" font-size="10.00"> </text>
</a>
</g>
</g>
<!-- Node1 -->
<g id="node2" class="node">
<title>Node1</title>
<g id="a_node2"><a xlink:href="../../d9/d1d/structvanetza_1_1geonet_1_1DataRequestWithArea.html" target="_top" xlink:title=" ">
<polygon fill="white" stroke="black" points="0,-105.5 0,-173.5 150,-173.5 150,-105.5 0,-105.5"/>
<text text-anchor="start" x="8" y="-161.5" font-family="Helvetica,sans-Serif" font-size="10.00">vanetza::geonet::DataRequest</text>
<text text-anchor="middle" x="75" y="-150.5" font-family="Helvetica,sans-Serif" font-size="10.00">WithArea</text>
<polyline fill="none" stroke="black" points="0,-143.5 150,-143.5 "/>
<text text-anchor="start" x="8" y="-131.5" font-family="Helvetica,sans-Serif" font-size="10.00">+ destination</text>
<polyline fill="none" stroke="black" points="0,-124.5 150,-124.5 "/>
<text text-anchor="start" x="8" y="-112.5" font-family="Helvetica,sans-Serif" font-size="10.00">+ DataRequest()</text>
</a>
</g>
</g>
<!-- Node1&#45;&gt;Node0 -->
<g id="edge1" class="edge">
<title>Node1&#45;&gt;Node0</title>
<path fill="none" stroke="midnightblue" d="M75,-95.14C75,-86.26 75,-77.04 75,-68.59"/>
<polygon fill="none" stroke="midnightblue" points="71.5,-95.34 75,-105.34 78.5,-95.34 71.5,-95.34"/>
</g>
<!-- Node2 -->
<g id="node3" class="node">
<title>Node2</title>
<g id="a_node3"><a xlink:href="../../d1/d1f/structvanetza_1_1geonet_1_1DataRequest.html" target="_top" xlink:title=" ">
<polygon fill="white" stroke="black" points="0,-210.5 0,-333.5 150,-333.5 150,-210.5 0,-210.5"/>
<text text-anchor="middle" x="75" y="-321.5" font-family="Helvetica,sans-Serif" font-size="10.00">vanetza::geonet::DataRequest</text>
<polyline fill="none" stroke="black" points="0,-314.5 150,-314.5 "/>
<text text-anchor="start" x="8" y="-302.5" font-family="Helvetica,sans-Serif" font-size="10.00">+ upper_protocol</text>
<text text-anchor="start" x="8" y="-291.5" font-family="Helvetica,sans-Serif" font-size="10.00">+ communication_profile</text>
<text text-anchor="start" x="8" y="-280.5" font-family="Helvetica,sans-Serif" font-size="10.00">+ its_aid</text>
<text text-anchor="start" x="8" y="-269.5" font-family="Helvetica,sans-Serif" font-size="10.00">+ maximum_lifetime</text>
<text text-anchor="start" x="8" y="-258.5" font-family="Helvetica,sans-Serif" font-size="10.00">+ repetition</text>
<text text-anchor="start" x="8" y="-247.5" font-family="Helvetica,sans-Serif" font-size="10.00">+ max_hop_limit</text>
<text text-anchor="start" x="8" y="-236.5" font-family="Helvetica,sans-Serif" font-size="10.00">+ traffic_class</text>
<polyline fill="none" stroke="black" points="0,-229.5 150,-229.5 "/>
<text text-anchor="start" x="8" y="-217.5" font-family="Helvetica,sans-Serif" font-size="10.00">+ DataRequest()</text>
</a>
</g>
</g>
<!-- Node2&#45;&gt;Node1 -->
<g id="edge2" class="edge">
<title>Node2&#45;&gt;Node1</title>
<path fill="none" stroke="midnightblue" d="M75,-200.24C75,-190.97 75,-181.84 75,-173.62"/>
<polygon fill="none" stroke="midnightblue" points="71.5,-200.33 75,-210.33 78.5,-200.33 71.5,-200.33"/>
</g>
</g>
</svg>
