<?xml version="1.0" encoding="UTF-8" standalone="no"?>
<!DOCTYPE svg PUBLIC "-//W3C//DTD SVG 1.1//EN"
 "http://www.w3.org/Graphics/SVG/1.1/DTD/svg11.dtd">
<!-- Generated by graphviz version 2.49.3 (0)
 -->
<!-- Title: vanetza::security::v3::CertificateView Pages: 1 -->
<svg width="150pt" height="520pt"
 viewBox="0.00 0.00 150.00 520.00" xmlns="http://www.w3.org/2000/svg" xmlns:xlink="http://www.w3.org/1999/xlink">
<g id="graph0" class="graph" transform="scale(1 1) rotate(0) translate(4 516)">
<title>vanetza::security::v3::CertificateView</title>
<!-- Node1 -->
<g id="Node000001" class="node">
<title>Node1</title>
<g id="a_Node000001"><a xlink:title=" ">
<polygon fill="#999999" stroke="transparent" points="142,-512 0,-512 0,-231 142,-231 142,-512"/>
<text text-anchor="start" x="28.5" y="-499.5" font-family="Helvetica,sans-Serif" font-size="10.00">vanetza::security::</text>
<text text-anchor="start" x="28.5" y="-488.5" font-family="Helvetica,sans-Serif" font-size="10.00">v3::CertificateView</text>
<text text-anchor="start" x="4.5" y="-473.5" font-family="Helvetica,sans-Serif" font-size="10.00">#</text>
<text text-anchor="start" x="15" y="-473.5" font-family="Helvetica,sans-Serif" font-size="10.00">m_cert</text>
<text text-anchor="start" x="4" y="-458.5" font-family="Helvetica,sans-Serif" font-size="10.00">+</text>
<text text-anchor="start" x="15" y="-458.5" font-family="Helvetica,sans-Serif" font-size="10.00">CertificateView()</text>
<text text-anchor="start" x="4" y="-443.5" font-family="Helvetica,sans-Serif" font-size="10.00">+</text>
<text text-anchor="start" x="15" y="-443.5" font-family="Helvetica,sans-Serif" font-size="10.00">calculate_digest()</text>
<text text-anchor="start" x="4" y="-428.5" font-family="Helvetica,sans-Serif" font-size="10.00">+</text>
<text text-anchor="start" x="15" y="-428.5" font-family="Helvetica,sans-Serif" font-size="10.00">get_start_and_end_validity()</text>
<text text-anchor="start" x="4" y="-413.5" font-family="Helvetica,sans-Serif" font-size="10.00">+</text>
<text text-anchor="start" x="15" y="-413.5" font-family="Helvetica,sans-Serif" font-size="10.00">get_verification_key</text>
<text text-anchor="start" x="15" y="-402.5" font-family="Helvetica,sans-Serif" font-size="10.00">_type()</text>
<text text-anchor="start" x="4" y="-387.5" font-family="Helvetica,sans-Serif" font-size="10.00">+</text>
<text text-anchor="start" x="15" y="-387.5" font-family="Helvetica,sans-Serif" font-size="10.00">issuer_digest()</text>
<text text-anchor="start" x="4" y="-372.5" font-family="Helvetica,sans-Serif" font-size="10.00">+</text>
<text text-anchor="start" x="15" y="-372.5" font-family="Helvetica,sans-Serif" font-size="10.00">issuer_is_self()</text>
<text text-anchor="start" x="4" y="-357.5" font-family="Helvetica,sans-Serif" font-size="10.00">+</text>
<text text-anchor="start" x="15" y="-357.5" font-family="Helvetica,sans-Serif" font-size="10.00">is_ca_certificate()</text>
<text text-anchor="start" x="4" y="-342.5" font-family="Helvetica,sans-Serif" font-size="10.00">+</text>
<text text-anchor="start" x="15" y="-342.5" font-family="Helvetica,sans-Serif" font-size="10.00">is_at_certificate()</text>
<text text-anchor="start" x="4" y="-327.5" font-family="Helvetica,sans-Serif" font-size="10.00">+</text>
<text text-anchor="start" x="15" y="-327.5" font-family="Helvetica,sans-Serif" font-size="10.00">has_region_restriction()</text>
<text text-anchor="start" x="4" y="-312.5" font-family="Helvetica,sans-Serif" font-size="10.00">+</text>
<text text-anchor="start" x="15" y="-312.5" font-family="Helvetica,sans-Serif" font-size="10.00">valid_at_location()</text>
<text text-anchor="start" x="4" y="-297.5" font-family="Helvetica,sans-Serif" font-size="10.00">+</text>
<text text-anchor="start" x="15" y="-297.5" font-family="Helvetica,sans-Serif" font-size="10.00">valid_at_timepoint()</text>
<text text-anchor="start" x="4" y="-282.5" font-family="Helvetica,sans-Serif" font-size="10.00">+</text>
<text text-anchor="start" x="15" y="-282.5" font-family="Helvetica,sans-Serif" font-size="10.00">valid_for_application()</text>
<text text-anchor="start" x="4" y="-267.5" font-family="Helvetica,sans-Serif" font-size="10.00">+</text>
<text text-anchor="start" x="15" y="-267.5" font-family="Helvetica,sans-Serif" font-size="10.00">is_canonical()</text>
<text text-anchor="start" x="4" y="-252.5" font-family="Helvetica,sans-Serif" font-size="10.00">+</text>
<text text-anchor="start" x="15" y="-252.5" font-family="Helvetica,sans-Serif" font-size="10.00">canonicalize()</text>
<text text-anchor="start" x="4" y="-237.5" font-family="Helvetica,sans-Serif" font-size="10.00">+</text>
<text text-anchor="start" x="15" y="-237.5" font-family="Helvetica,sans-Serif" font-size="10.00">encode()</text>
<polygon fill="#666666" stroke="#666666" points="0,-483.5 0,-483.5 142,-483.5 142,-483.5 0,-483.5"/>
<polygon fill="#666666" stroke="#666666" points="0,-468.5 0,-468.5 13,-468.5 13,-468.5 0,-468.5"/>
<polygon fill="#666666" stroke="#666666" points="13,-468.5 13,-468.5 142,-468.5 142,-468.5 13,-468.5"/>
<polygon fill="none" stroke="#666666" points="0,-231 0,-512 142,-512 142,-231 0,-231"/>
</a>
</g>
</g>
<!-- Node2 -->
<g id="Node000002" class="node">
<title>Node2</title>
<g id="a_Node000002"><a xlink:href="../../d8/d1b/structvanetza_1_1security_1_1v3_1_1Certificate.html" target="_top" xlink:title=" ">
<polygon fill="white" stroke="transparent" points="129,-195 13,-195 13,0 129,0 129,-195"/>
<text text-anchor="start" x="31" y="-182.5" font-family="Helvetica,sans-Serif" font-size="10.00">vanetza::security::</text>
<text text-anchor="start" x="39.5" y="-171.5" font-family="Helvetica,sans-Serif" font-size="10.00">v3::Certificate</text>
<text text-anchor="start" x="69" y="-156.5" font-family="Helvetica,sans-Serif" font-size="10.00"> </text>
<text text-anchor="start" x="17" y="-141.5" font-family="Helvetica,sans-Serif" font-size="10.00">+</text>
<text text-anchor="start" x="28" y="-141.5" font-family="Helvetica,sans-Serif" font-size="10.00">Certificate()</text>
<text text-anchor="start" x="17" y="-126.5" font-family="Helvetica,sans-Serif" font-size="10.00">+</text>
<text text-anchor="start" x="28" y="-126.5" font-family="Helvetica,sans-Serif" font-size="10.00">Certificate()</text>
<text text-anchor="start" x="17" y="-111.5" font-family="Helvetica,sans-Serif" font-size="10.00">+</text>
<text text-anchor="start" x="28" y="-111.5" font-family="Helvetica,sans-Serif" font-size="10.00">Certificate()</text>
<text text-anchor="start" x="17" y="-96.5" font-family="Helvetica,sans-Serif" font-size="10.00">+</text>
<text text-anchor="start" x="28" y="-96.5" font-family="Helvetica,sans-Serif" font-size="10.00">operator=()</text>
<text text-anchor="start" x="17" y="-81.5" font-family="Helvetica,sans-Serif" font-size="10.00">+</text>
<text text-anchor="start" x="28" y="-81.5" font-family="Helvetica,sans-Serif" font-size="10.00">Certificate()</text>
<text text-anchor="start" x="17" y="-66.5" font-family="Helvetica,sans-Serif" font-size="10.00">+</text>
<text text-anchor="start" x="28" y="-66.5" font-family="Helvetica,sans-Serif" font-size="10.00">operator=()</text>
<text text-anchor="start" x="17" y="-51.5" font-family="Helvetica,sans-Serif" font-size="10.00">+</text>
<text text-anchor="start" x="28" y="-51.5" font-family="Helvetica,sans-Serif" font-size="10.00">encode()</text>
<text text-anchor="start" x="17" y="-36.5" font-family="Helvetica,sans-Serif" font-size="10.00">+</text>
<text text-anchor="start" x="28" y="-36.5" font-family="Helvetica,sans-Serif" font-size="10.00">add_permission()</text>
<text text-anchor="start" x="17" y="-21.5" font-family="Helvetica,sans-Serif" font-size="10.00">+</text>
<text text-anchor="start" x="28" y="-21.5" font-family="Helvetica,sans-Serif" font-size="10.00">add_cert_permission()</text>
<text text-anchor="start" x="17" y="-6.5" font-family="Helvetica,sans-Serif" font-size="10.00">+</text>
<text text-anchor="start" x="28" y="-6.5" font-family="Helvetica,sans-Serif" font-size="10.00">set_signature()</text>
<polygon fill="#bfbfbf" stroke="#bfbfbf" points="13,-166.5 13,-166.5 129,-166.5 129,-166.5 13,-166.5"/>
<polygon fill="#bfbfbf" stroke="#bfbfbf" points="13,-151.5 13,-151.5 129,-151.5 129,-151.5 13,-151.5"/>
<polygon fill="none" stroke="#bfbfbf" points="13,0 13,-195 129,-195 129,0 13,0"/>
</a>
</g>
</g>
<!-- Node1&#45;&gt;Node2 -->
<g id="edge1_Node000001_Node000002" class="edge">
<title>Node1&#45;&gt;Node2</title>
<g id="a_edge1_Node000001_Node000002"><a xlink:title=" ">
<path fill="none" stroke="#63b8ff" d="M71,-220.7C71,-212.02 71,-203.41 71,-195.02"/>
<polygon fill="none" stroke="#63b8ff" points="67.5,-220.91 71,-230.91 74.5,-220.91 67.5,-220.91"/>
</a>
</g>
</g>
</g>
</svg>
