<?xml version="1.0" encoding="UTF-8" standalone="no"?>
<!DOCTYPE svg PUBLIC "-//W3C//DTD SVG 1.1//EN"
 "http://www.w3.org/Graphics/SVG/1.1/DTD/svg11.dtd">
<!-- Generated by graphviz version 2.49.3 (0)
 -->
<!-- Title: vanetza::asn1::asn1c_oer_wrapper&lt; T &gt; Pages: 1 -->
<svg width="387pt" height="971pt"
 viewBox="0.00 0.00 387.00 971.00" xmlns="http://www.w3.org/2000/svg" xmlns:xlink="http://www.w3.org/1999/xlink">
<g id="graph0" class="graph" transform="scale(1 1) rotate(0) translate(4 967)">
<title>vanetza::asn1::asn1c_oer_wrapper&lt; T &gt;</title>
<!-- Node1 -->
<g id="Node000001" class="node">
<title>Node1</title>
<g id="a_Node000001"><a xlink:title=" ">
<polygon fill="#999999" stroke="transparent" points="225,-701 121,-701 121,-581 225,-581 225,-701"/>
<text text-anchor="start" x="126" y="-689" font-family="Helvetica,sans-Serif" font-size="10.00">vanetza::asn1::asn1c</text>
<text text-anchor="start" x="131.5" y="-678" font-family="Helvetica,sans-Serif" font-size="10.00">_oer_wrapper&lt; T &gt;</text>
<text text-anchor="start" x="171" y="-663" font-family="Helvetica,sans-Serif" font-size="10.00"> </text>
<text text-anchor="start" x="136.5" y="-648" font-family="Helvetica,sans-Serif" font-size="10.00">+</text>
<text text-anchor="start" x="159" y="-648" font-family="Helvetica,sans-Serif" font-size="10.00">encode()</text>
<text text-anchor="start" x="136.5" y="-633" font-family="Helvetica,sans-Serif" font-size="10.00">+</text>
<text text-anchor="start" x="159" y="-633" font-family="Helvetica,sans-Serif" font-size="10.00">decode()</text>
<text text-anchor="start" x="136.5" y="-618" font-family="Helvetica,sans-Serif" font-size="10.00">+</text>
<text text-anchor="start" x="159" y="-618" font-family="Helvetica,sans-Serif" font-size="10.00">decode()</text>
<text text-anchor="start" x="136.5" y="-603" font-family="Helvetica,sans-Serif" font-size="10.00">+</text>
<text text-anchor="start" x="159" y="-603" font-family="Helvetica,sans-Serif" font-size="10.00">decode()</text>
<text text-anchor="start" x="136.5" y="-588" font-family="Helvetica,sans-Serif" font-size="10.00">+</text>
<text text-anchor="start" x="159" y="-588" font-family="Helvetica,sans-Serif" font-size="10.00">size()</text>
<polygon fill="#666666" stroke="#666666" points="121,-673 121,-673 225,-673 225,-673 121,-673"/>
<polygon fill="#666666" stroke="#666666" points="121,-658 121,-658 225,-658 225,-658 121,-658"/>
<polygon fill="none" stroke="#666666" points="121,-581 121,-701 225,-701 225,-581 121,-581"/>
</a>
</g>
</g>
<!-- Node3 -->
<g id="Node000003" class="node">
<title>Node3</title>
<g id="a_Node000003"><a xlink:href="../../de/dbf/classvanetza_1_1asn1_1_1asn1c__oer__wrapper.html" target="_top" xlink:title=" ">
<polygon fill="white" stroke="transparent" points="164,-528 0,-528 0,-292 164,-292 164,-528"/>
<text text-anchor="start" x="5" y="-516" font-family="Helvetica,sans-Serif" font-size="10.00">vanetza::asn1::asn1c</text>
<text text-anchor="start" x="5" y="-505" font-family="Helvetica,sans-Serif" font-size="10.00">_oer_wrapper&lt; asn1::EtsiTs103097</text>
<text text-anchor="start" x="54.5" y="-494" font-family="Helvetica,sans-Serif" font-size="10.00">Certificate &gt;</text>
<text text-anchor="start" x="26" y="-479" font-family="Helvetica,sans-Serif" font-size="10.00">#</text>
<text text-anchor="start" x="58" y="-479" font-family="Helvetica,sans-Serif" font-size="10.00">m_struct</text>
<text text-anchor="start" x="26" y="-464" font-family="Helvetica,sans-Serif" font-size="10.00">#</text>
<text text-anchor="start" x="58" y="-464" font-family="Helvetica,sans-Serif" font-size="10.00">m_type</text>
<text text-anchor="start" x="25.5" y="-449" font-family="Helvetica,sans-Serif" font-size="10.00">+</text>
<text text-anchor="start" x="58" y="-449" font-family="Helvetica,sans-Serif" font-size="10.00">encode()</text>
<text text-anchor="start" x="25.5" y="-434" font-family="Helvetica,sans-Serif" font-size="10.00">+</text>
<text text-anchor="start" x="58" y="-434" font-family="Helvetica,sans-Serif" font-size="10.00">decode()</text>
<text text-anchor="start" x="25.5" y="-419" font-family="Helvetica,sans-Serif" font-size="10.00">+</text>
<text text-anchor="start" x="58" y="-419" font-family="Helvetica,sans-Serif" font-size="10.00">decode()</text>
<text text-anchor="start" x="25.5" y="-404" font-family="Helvetica,sans-Serif" font-size="10.00">+</text>
<text text-anchor="start" x="58" y="-404" font-family="Helvetica,sans-Serif" font-size="10.00">decode()</text>
<text text-anchor="start" x="25.5" y="-389" font-family="Helvetica,sans-Serif" font-size="10.00">+</text>
<text text-anchor="start" x="58" y="-389" font-family="Helvetica,sans-Serif" font-size="10.00">size()</text>
<text text-anchor="start" x="25.5" y="-374" font-family="Helvetica,sans-Serif" font-size="10.00">+</text>
<text text-anchor="start" x="58" y="-374" font-family="Helvetica,sans-Serif" font-size="10.00">operator*()</text>
<text text-anchor="start" x="25.5" y="-359" font-family="Helvetica,sans-Serif" font-size="10.00">+</text>
<text text-anchor="start" x="58" y="-359" font-family="Helvetica,sans-Serif" font-size="10.00">operator*()</text>
<text text-anchor="start" x="25.5" y="-344" font-family="Helvetica,sans-Serif" font-size="10.00">+</text>
<text text-anchor="start" x="58" y="-344" font-family="Helvetica,sans-Serif" font-size="10.00">operator&#45;&gt;()</text>
<text text-anchor="start" x="25.5" y="-329" font-family="Helvetica,sans-Serif" font-size="10.00">+</text>
<text text-anchor="start" x="58" y="-329" font-family="Helvetica,sans-Serif" font-size="10.00">operator&#45;&gt;()</text>
<text text-anchor="start" x="25.5" y="-314" font-family="Helvetica,sans-Serif" font-size="10.00">+</text>
<text text-anchor="start" x="58" y="-314" font-family="Helvetica,sans-Serif" font-size="10.00">content()</text>
<text text-anchor="start" x="58" y="-299" font-family="Helvetica,sans-Serif" font-size="10.00">and 9 more...</text>
<polygon fill="#bfbfbf" stroke="#bfbfbf" points="0,-489 0,-489 164,-489 164,-489 0,-489"/>
<polygon fill="#bfbfbf" stroke="#bfbfbf" points="0,-459 0,-459 56,-459 56,-459 0,-459"/>
<polygon fill="#bfbfbf" stroke="#bfbfbf" points="56,-459 56,-459 164,-459 164,-459 56,-459"/>
<polygon fill="none" stroke="#bfbfbf" points="0,-292 0,-528 164,-528 164,-292 0,-292"/>
</a>
</g>
</g>
<!-- Node1&#45;&gt;Node3 -->
<g id="edge2_Node000001_Node000003" class="edge">
<title>Node1&#45;&gt;Node3</title>
<g id="a_edge2_Node000001_Node000003"><a xlink:title=" ">
<path fill="none" stroke="orange" d="M113.09,-600.68C101.36,-589.95 90.64,-577.29 84,-563 78.94,-552.11 75.61,-540.29 73.56,-528.22"/>
<polygon fill="orange" stroke="orange" points="111.06,-603.55 120.92,-607.44 115.64,-598.25 111.06,-603.55"/>
</a>
</g>
<text text-anchor="start" x="87.5" y="-551.5" font-family="Helvetica,sans-Serif" font-size="10.00" fill="grey">&lt; asn1::EtsiTs103097Certificate &gt;</text>
</g>
<!-- Node5 -->
<g id="Node000005" class="node">
<title>Node5</title>
<g id="a_Node000005"><a xlink:href="../../de/dbf/classvanetza_1_1asn1_1_1asn1c__oer__wrapper.html" target="_top" xlink:title=" ">
<polygon fill="white" stroke="transparent" points="346,-528 182,-528 182,-292 346,-292 346,-528"/>
<text text-anchor="start" x="187" y="-516" font-family="Helvetica,sans-Serif" font-size="10.00">vanetza::asn1::asn1c</text>
<text text-anchor="start" x="187" y="-505" font-family="Helvetica,sans-Serif" font-size="10.00">_oer_wrapper&lt; asn1::EtsiTs103097</text>
<text text-anchor="start" x="248.5" y="-494" font-family="Helvetica,sans-Serif" font-size="10.00">Data &gt;</text>
<text text-anchor="start" x="208" y="-479" font-family="Helvetica,sans-Serif" font-size="10.00">#</text>
<text text-anchor="start" x="240" y="-479" font-family="Helvetica,sans-Serif" font-size="10.00">m_struct</text>
<text text-anchor="start" x="208" y="-464" font-family="Helvetica,sans-Serif" font-size="10.00">#</text>
<text text-anchor="start" x="240" y="-464" font-family="Helvetica,sans-Serif" font-size="10.00">m_type</text>
<text text-anchor="start" x="207.5" y="-449" font-family="Helvetica,sans-Serif" font-size="10.00">+</text>
<text text-anchor="start" x="240" y="-449" font-family="Helvetica,sans-Serif" font-size="10.00">encode()</text>
<text text-anchor="start" x="207.5" y="-434" font-family="Helvetica,sans-Serif" font-size="10.00">+</text>
<text text-anchor="start" x="240" y="-434" font-family="Helvetica,sans-Serif" font-size="10.00">decode()</text>
<text text-anchor="start" x="207.5" y="-419" font-family="Helvetica,sans-Serif" font-size="10.00">+</text>
<text text-anchor="start" x="240" y="-419" font-family="Helvetica,sans-Serif" font-size="10.00">size()</text>
<text text-anchor="start" x="207.5" y="-404" font-family="Helvetica,sans-Serif" font-size="10.00">+</text>
<text text-anchor="start" x="240" y="-404" font-family="Helvetica,sans-Serif" font-size="10.00">operator*()</text>
<text text-anchor="start" x="207.5" y="-389" font-family="Helvetica,sans-Serif" font-size="10.00">+</text>
<text text-anchor="start" x="240" y="-389" font-family="Helvetica,sans-Serif" font-size="10.00">operator*()</text>
<text text-anchor="start" x="207.5" y="-374" font-family="Helvetica,sans-Serif" font-size="10.00">+</text>
<text text-anchor="start" x="240" y="-374" font-family="Helvetica,sans-Serif" font-size="10.00">operator&#45;&gt;()</text>
<text text-anchor="start" x="207.5" y="-359" font-family="Helvetica,sans-Serif" font-size="10.00">+</text>
<text text-anchor="start" x="240" y="-359" font-family="Helvetica,sans-Serif" font-size="10.00">operator&#45;&gt;()</text>
<text text-anchor="start" x="207.5" y="-344" font-family="Helvetica,sans-Serif" font-size="10.00">+</text>
<text text-anchor="start" x="240" y="-344" font-family="Helvetica,sans-Serif" font-size="10.00">content()</text>
<text text-anchor="start" x="207.5" y="-329" font-family="Helvetica,sans-Serif" font-size="10.00">+</text>
<text text-anchor="start" x="240" y="-329" font-family="Helvetica,sans-Serif" font-size="10.00">content()</text>
<text text-anchor="start" x="207.5" y="-314" font-family="Helvetica,sans-Serif" font-size="10.00">+</text>
<text text-anchor="start" x="240" y="-314" font-family="Helvetica,sans-Serif" font-size="10.00">operator==()</text>
<text text-anchor="start" x="240" y="-299" font-family="Helvetica,sans-Serif" font-size="10.00">and 7 more...</text>
<polygon fill="#bfbfbf" stroke="#bfbfbf" points="182,-489 182,-489 346,-489 346,-489 182,-489"/>
<polygon fill="#bfbfbf" stroke="#bfbfbf" points="182,-459 182,-459 238,-459 238,-459 182,-459"/>
<polygon fill="#bfbfbf" stroke="#bfbfbf" points="238,-459 238,-459 346,-459 346,-459 238,-459"/>
<polygon fill="none" stroke="#bfbfbf" points="182,-292 182,-528 346,-528 346,-292 182,-292"/>
</a>
</g>
</g>
<!-- Node1&#45;&gt;Node5 -->
<g id="edge4_Node000001_Node000005" class="edge">
<title>Node1&#45;&gt;Node5</title>
<g id="a_edge4_Node000001_Node000005"><a xlink:title=" ">
<path fill="none" stroke="orange" d="M231.3,-580.07C234.97,-574.55 238.28,-568.83 241,-563 246.08,-552.12 250.09,-540.36 253.24,-528.38"/>
<polygon fill="orange" stroke="orange" points="228.2,-578.39 225.26,-588.57 233.9,-582.45 228.2,-578.39"/>
</a>
</g>
<text text-anchor="start" x="250" y="-551.5" font-family="Helvetica,sans-Serif" font-size="10.00" fill="grey">&lt; asn1::EtsiTs103097Data &gt;</text>
</g>
<!-- Node2 -->
<g id="Node000002" class="node">
<title>Node2</title>
<g id="a_Node000002"><a xlink:href="../../d0/d68/classvanetza_1_1asn1_1_1asn1c__wrapper__common.html" target="_top" xlink:title=" ">
<polygon fill="white" stroke="transparent" points="243,-963 103,-963 103,-738 243,-738 243,-963"/>
<text text-anchor="start" x="119.5" y="-950.5" font-family="Helvetica,sans-Serif" font-size="10.00">vanetza::asn1::asn1c</text>
<text text-anchor="start" x="119.5" y="-939.5" font-family="Helvetica,sans-Serif" font-size="10.00">_wrapper_common&lt; T &gt;</text>
<text text-anchor="start" x="107.5" y="-924.5" font-family="Helvetica,sans-Serif" font-size="10.00">#</text>
<text text-anchor="start" x="118" y="-924.5" font-family="Helvetica,sans-Serif" font-size="10.00">m_struct</text>
<text text-anchor="start" x="107.5" y="-909.5" font-family="Helvetica,sans-Serif" font-size="10.00">#</text>
<text text-anchor="start" x="118" y="-909.5" font-family="Helvetica,sans-Serif" font-size="10.00">m_type</text>
<text text-anchor="start" x="107" y="-894.5" font-family="Helvetica,sans-Serif" font-size="10.00">+</text>
<text text-anchor="start" x="118" y="-894.5" font-family="Helvetica,sans-Serif" font-size="10.00">asn1c_wrapper_common()</text>
<text text-anchor="start" x="107" y="-879.5" font-family="Helvetica,sans-Serif" font-size="10.00">+</text>
<text text-anchor="start" x="118" y="-879.5" font-family="Helvetica,sans-Serif" font-size="10.00">asn1c_wrapper_common()</text>
<text text-anchor="start" x="107" y="-864.5" font-family="Helvetica,sans-Serif" font-size="10.00">+</text>
<text text-anchor="start" x="118" y="-864.5" font-family="Helvetica,sans-Serif" font-size="10.00">~asn1c_wrapper_common()</text>
<text text-anchor="start" x="107" y="-849.5" font-family="Helvetica,sans-Serif" font-size="10.00">+</text>
<text text-anchor="start" x="118" y="-849.5" font-family="Helvetica,sans-Serif" font-size="10.00">asn1c_wrapper_common()</text>
<text text-anchor="start" x="107" y="-834.5" font-family="Helvetica,sans-Serif" font-size="10.00">+</text>
<text text-anchor="start" x="118" y="-834.5" font-family="Helvetica,sans-Serif" font-size="10.00">operator=()</text>
<text text-anchor="start" x="107" y="-819.5" font-family="Helvetica,sans-Serif" font-size="10.00">+</text>
<text text-anchor="start" x="118" y="-819.5" font-family="Helvetica,sans-Serif" font-size="10.00">asn1c_wrapper_common()</text>
<text text-anchor="start" x="107" y="-804.5" font-family="Helvetica,sans-Serif" font-size="10.00">+</text>
<text text-anchor="start" x="118" y="-804.5" font-family="Helvetica,sans-Serif" font-size="10.00">operator=()</text>
<text text-anchor="start" x="107" y="-789.5" font-family="Helvetica,sans-Serif" font-size="10.00">+</text>
<text text-anchor="start" x="118" y="-789.5" font-family="Helvetica,sans-Serif" font-size="10.00">operator*()</text>
<text text-anchor="start" x="107" y="-774.5" font-family="Helvetica,sans-Serif" font-size="10.00">+</text>
<text text-anchor="start" x="118" y="-774.5" font-family="Helvetica,sans-Serif" font-size="10.00">operator&#45;&gt;()</text>
<text text-anchor="start" x="107" y="-759.5" font-family="Helvetica,sans-Serif" font-size="10.00">+</text>
<text text-anchor="start" x="118" y="-759.5" font-family="Helvetica,sans-Serif" font-size="10.00">operator*()</text>
<text text-anchor="start" x="118" y="-744.5" font-family="Helvetica,sans-Serif" font-size="10.00">and 11 more...</text>
<polygon fill="#bfbfbf" stroke="#bfbfbf" points="103,-934.5 103,-934.5 243,-934.5 243,-934.5 103,-934.5"/>
<polygon fill="#bfbfbf" stroke="#bfbfbf" points="103,-904.5 103,-904.5 116,-904.5 116,-904.5 103,-904.5"/>
<polygon fill="#bfbfbf" stroke="#bfbfbf" points="116,-904.5 116,-904.5 243,-904.5 243,-904.5 116,-904.5"/>
<polygon fill="none" stroke="#bfbfbf" points="103,-738 103,-963 243,-963 243,-738 103,-738"/>
</a>
</g>
</g>
<!-- Node2&#45;&gt;Node1 -->
<g id="edge1_Node000001_Node000002" class="edge">
<title>Node2&#45;&gt;Node1</title>
<g id="a_edge1_Node000001_Node000002"><a xlink:title=" ">
<path fill="none" stroke="#63b8ff" d="M173,-727.81C173,-718.61 173,-709.61 173,-701.1"/>
<polygon fill="none" stroke="#63b8ff" points="169.5,-727.85 173,-737.85 176.5,-727.85 169.5,-727.85"/>
</a>
</g>
</g>
<!-- Node4 -->
<g id="Node000004" class="node">
<title>Node4</title>
<g id="a_Node000004"><a xlink:href="../../d8/d1b/structvanetza_1_1security_1_1v3_1_1Certificate.html" target="_top" xlink:title=" ">
<polygon fill="white" stroke="transparent" points="140,-225 24,-225 24,-30 140,-30 140,-225"/>
<text text-anchor="start" x="42" y="-212.5" font-family="Helvetica,sans-Serif" font-size="10.00">vanetza::security::</text>
<text text-anchor="start" x="50.5" y="-201.5" font-family="Helvetica,sans-Serif" font-size="10.00">v3::Certificate</text>
<text text-anchor="start" x="80" y="-186.5" font-family="Helvetica,sans-Serif" font-size="10.00"> </text>
<text text-anchor="start" x="28" y="-171.5" font-family="Helvetica,sans-Serif" font-size="10.00">+</text>
<text text-anchor="start" x="39" y="-171.5" font-family="Helvetica,sans-Serif" font-size="10.00">Certificate()</text>
<text text-anchor="start" x="28" y="-156.5" font-family="Helvetica,sans-Serif" font-size="10.00">+</text>
<text text-anchor="start" x="39" y="-156.5" font-family="Helvetica,sans-Serif" font-size="10.00">Certificate()</text>
<text text-anchor="start" x="28" y="-141.5" font-family="Helvetica,sans-Serif" font-size="10.00">+</text>
<text text-anchor="start" x="39" y="-141.5" font-family="Helvetica,sans-Serif" font-size="10.00">Certificate()</text>
<text text-anchor="start" x="28" y="-126.5" font-family="Helvetica,sans-Serif" font-size="10.00">+</text>
<text text-anchor="start" x="39" y="-126.5" font-family="Helvetica,sans-Serif" font-size="10.00">operator=()</text>
<text text-anchor="start" x="28" y="-111.5" font-family="Helvetica,sans-Serif" font-size="10.00">+</text>
<text text-anchor="start" x="39" y="-111.5" font-family="Helvetica,sans-Serif" font-size="10.00">Certificate()</text>
<text text-anchor="start" x="28" y="-96.5" font-family="Helvetica,sans-Serif" font-size="10.00">+</text>
<text text-anchor="start" x="39" y="-96.5" font-family="Helvetica,sans-Serif" font-size="10.00">operator=()</text>
<text text-anchor="start" x="28" y="-81.5" font-family="Helvetica,sans-Serif" font-size="10.00">+</text>
<text text-anchor="start" x="39" y="-81.5" font-family="Helvetica,sans-Serif" font-size="10.00">encode()</text>
<text text-anchor="start" x="28" y="-66.5" font-family="Helvetica,sans-Serif" font-size="10.00">+</text>
<text text-anchor="start" x="39" y="-66.5" font-family="Helvetica,sans-Serif" font-size="10.00">add_permission()</text>
<text text-anchor="start" x="28" y="-51.5" font-family="Helvetica,sans-Serif" font-size="10.00">+</text>
<text text-anchor="start" x="39" y="-51.5" font-family="Helvetica,sans-Serif" font-size="10.00">add_cert_permission()</text>
<text text-anchor="start" x="28" y="-36.5" font-family="Helvetica,sans-Serif" font-size="10.00">+</text>
<text text-anchor="start" x="39" y="-36.5" font-family="Helvetica,sans-Serif" font-size="10.00">set_signature()</text>
<polygon fill="#bfbfbf" stroke="#bfbfbf" points="24,-196.5 24,-196.5 140,-196.5 140,-196.5 24,-196.5"/>
<polygon fill="#bfbfbf" stroke="#bfbfbf" points="24,-181.5 24,-181.5 140,-181.5 140,-181.5 24,-181.5"/>
<polygon fill="none" stroke="#bfbfbf" points="24,-30 24,-225 140,-225 140,-30 24,-30"/>
</a>
</g>
</g>
<!-- Node3&#45;&gt;Node4 -->
<g id="edge3_Node000003_Node000004" class="edge">
<title>Node3&#45;&gt;Node4</title>
<g id="a_edge3_Node000003_Node000004"><a xlink:title=" ">
<path fill="none" stroke="#63b8ff" d="M82,-281.54C82,-262.67 82,-243.5 82,-225.39"/>
<polygon fill="none" stroke="#63b8ff" points="78.5,-281.67 82,-291.67 85.5,-281.67 78.5,-281.67"/>
</a>
</g>
</g>
<!-- Node6 -->
<g id="Node000006" class="node">
<title>Node6</title>
<g id="a_Node000006"><a xlink:href="../../df/d3d/structvanetza_1_1security_1_1v3_1_1SecuredMessage.html" target="_top" xlink:title=" ">
<polygon fill="white" stroke="transparent" points="328,-255 200,-255 200,0 328,0 328,-255"/>
<text text-anchor="start" x="217.5" y="-242.5" font-family="Helvetica,sans-Serif" font-size="10.00">vanetza::security::</text>
<text text-anchor="start" x="217.5" y="-231.5" font-family="Helvetica,sans-Serif" font-size="10.00">v3::SecuredMessage</text>
<text text-anchor="start" x="262" y="-216.5" font-family="Helvetica,sans-Serif" font-size="10.00"> </text>
<text text-anchor="start" x="204" y="-201.5" font-family="Helvetica,sans-Serif" font-size="10.00">+</text>
<text text-anchor="start" x="215" y="-201.5" font-family="Helvetica,sans-Serif" font-size="10.00">SecuredMessage()</text>
<text text-anchor="start" x="204" y="-186.5" font-family="Helvetica,sans-Serif" font-size="10.00">+</text>
<text text-anchor="start" x="215" y="-186.5" font-family="Helvetica,sans-Serif" font-size="10.00">protocol_version()</text>
<text text-anchor="start" x="204" y="-171.5" font-family="Helvetica,sans-Serif" font-size="10.00">+</text>
<text text-anchor="start" x="215" y="-171.5" font-family="Helvetica,sans-Serif" font-size="10.00">its_aid()</text>
<text text-anchor="start" x="204" y="-156.5" font-family="Helvetica,sans-Serif" font-size="10.00">+</text>
<text text-anchor="start" x="215" y="-156.5" font-family="Helvetica,sans-Serif" font-size="10.00">payload()</text>
<text text-anchor="start" x="204" y="-141.5" font-family="Helvetica,sans-Serif" font-size="10.00">+</text>
<text text-anchor="start" x="215" y="-141.5" font-family="Helvetica,sans-Serif" font-size="10.00">is_signed()</text>
<text text-anchor="start" x="204" y="-126.5" font-family="Helvetica,sans-Serif" font-size="10.00">+</text>
<text text-anchor="start" x="215" y="-126.5" font-family="Helvetica,sans-Serif" font-size="10.00">is_encrypted()</text>
<text text-anchor="start" x="204" y="-111.5" font-family="Helvetica,sans-Serif" font-size="10.00">+</text>
<text text-anchor="start" x="215" y="-111.5" font-family="Helvetica,sans-Serif" font-size="10.00">generation_time()</text>
<text text-anchor="start" x="204" y="-96.5" font-family="Helvetica,sans-Serif" font-size="10.00">+</text>
<text text-anchor="start" x="215" y="-96.5" font-family="Helvetica,sans-Serif" font-size="10.00">signature()</text>
<text text-anchor="start" x="204" y="-81.5" font-family="Helvetica,sans-Serif" font-size="10.00">+</text>
<text text-anchor="start" x="215" y="-81.5" font-family="Helvetica,sans-Serif" font-size="10.00">signer_identifier()</text>
<text text-anchor="start" x="204" y="-66.5" font-family="Helvetica,sans-Serif" font-size="10.00">+</text>
<text text-anchor="start" x="215" y="-66.5" font-family="Helvetica,sans-Serif" font-size="10.00">signing_payload()</text>
<text text-anchor="start" x="215" y="-51.5" font-family="Helvetica,sans-Serif" font-size="10.00">and 21 more...</text>
<text text-anchor="start" x="204" y="-36.5" font-family="Helvetica,sans-Serif" font-size="10.00">+</text>
<text text-anchor="start" x="215" y="-36.5" font-family="Helvetica,sans-Serif" font-size="10.00">with_signed_data()</text>
<text text-anchor="start" x="204" y="-21.5" font-family="Helvetica,sans-Serif" font-size="10.00">+</text>
<text text-anchor="start" x="215" y="-21.5" font-family="Helvetica,sans-Serif" font-size="10.00">with_signed_data_hash()</text>
<text text-anchor="start" x="204" y="-6.5" font-family="Helvetica,sans-Serif" font-size="10.00">+</text>
<text text-anchor="start" x="215" y="-6.5" font-family="Helvetica,sans-Serif" font-size="10.00">with_encrypted_data()</text>
<polygon fill="#bfbfbf" stroke="#bfbfbf" points="200,-226.5 200,-226.5 328,-226.5 328,-226.5 200,-226.5"/>
<polygon fill="#bfbfbf" stroke="#bfbfbf" points="200,-211.5 200,-211.5 328,-211.5 328,-211.5 200,-211.5"/>
<polygon fill="none" stroke="#bfbfbf" points="200,0 200,-255 328,-255 328,0 200,0"/>
</a>
</g>
</g>
<!-- Node5&#45;&gt;Node6 -->
<g id="edge5_Node000005_Node000006" class="edge">
<title>Node5&#45;&gt;Node6</title>
<g id="a_edge5_Node000005_Node000006"><a xlink:title=" ">
<path fill="none" stroke="#63b8ff" d="M264,-281.49C264,-272.78 264,-264.01 264,-255.31"/>
<polygon fill="none" stroke="#63b8ff" points="260.5,-281.67 264,-291.67 267.5,-281.67 260.5,-281.67"/>
</a>
</g>
</g>
</g>
</svg>
