<?xml version="1.0" encoding="UTF-8" standalone="no"?>
<!DOCTYPE svg PUBLIC "-//W3C//DTD SVG 1.1//EN"
 "http://www.w3.org/Graphics/SVG/1.1/DTD/svg11.dtd">
<!-- Generated by graphviz version 2.49.3 (0)
 -->
<!-- Title: vanetza::asn1::asn1c_oer_wrapper&lt; T &gt; Pages: 1 -->
<svg width="414pt" height="746pt"
 viewBox="0.00 0.00 414.00 746.00" xmlns="http://www.w3.org/2000/svg" xmlns:xlink="http://www.w3.org/1999/xlink">
<g id="graph0" class="graph" transform="scale(1 1) rotate(0) translate(4 742)">
<title>vanetza::asn1::asn1c_oer_wrapper&lt; T &gt;</title>
<!-- Node1 -->
<g id="node1" class="node">
<title>Node1</title>
<g id="a_node1"><a xlink:title=" ">
<polygon fill="#999999" stroke="#666666" points="154,-354.5 154,-466.5 264,-466.5 264,-354.5 154,-354.5"/>
<text text-anchor="start" x="162" y="-454.5" font-family="Helvetica,sans-Serif" font-size="10.00">vanetza::asn1::asn1c</text>
<text text-anchor="middle" x="209" y="-443.5" font-family="Helvetica,sans-Serif" font-size="10.00">_oer_wrapper&lt; T &gt;</text>
<polyline fill="none" stroke="#666666" points="154,-436.5 264,-436.5 "/>
<text text-anchor="middle" x="209" y="-424.5" font-family="Helvetica,sans-Serif" font-size="10.00"> </text>
<polyline fill="none" stroke="#666666" points="154,-417.5 264,-417.5 "/>
<text text-anchor="start" x="162" y="-405.5" font-family="Helvetica,sans-Serif" font-size="10.00">+ encode()</text>
<text text-anchor="start" x="162" y="-394.5" font-family="Helvetica,sans-Serif" font-size="10.00">+ decode()</text>
<text text-anchor="start" x="162" y="-383.5" font-family="Helvetica,sans-Serif" font-size="10.00">+ decode()</text>
<text text-anchor="start" x="162" y="-372.5" font-family="Helvetica,sans-Serif" font-size="10.00">+ decode()</text>
<text text-anchor="start" x="162" y="-361.5" font-family="Helvetica,sans-Serif" font-size="10.00">+ size()</text>
</a>
</g>
</g>
<!-- Node3 -->
<g id="node3" class="node">
<title>Node3</title>
<g id="a_node3"><a xlink:href="../../de/dbf/classvanetza_1_1asn1_1_1asn1c__oer__wrapper.html" target="_top" xlink:title=" ">
<polygon fill="white" stroke="#bfbfbf" points="0,-194.5 0,-306.5 206,-306.5 206,-194.5 0,-194.5"/>
<text text-anchor="start" x="8" y="-294.5" font-family="Helvetica,sans-Serif" font-size="10.00">vanetza::asn1::asn1c</text>
<text text-anchor="middle" x="103" y="-283.5" font-family="Helvetica,sans-Serif" font-size="10.00">_oer_wrapper&lt; EtsiTs103097Certificate_t &gt;</text>
<polyline fill="none" stroke="#bfbfbf" points="0,-276.5 206,-276.5 "/>
<text text-anchor="middle" x="103" y="-264.5" font-family="Helvetica,sans-Serif" font-size="10.00"> </text>
<polyline fill="none" stroke="#bfbfbf" points="0,-257.5 206,-257.5 "/>
<text text-anchor="start" x="8" y="-245.5" font-family="Helvetica,sans-Serif" font-size="10.00">+ encode()</text>
<text text-anchor="start" x="8" y="-234.5" font-family="Helvetica,sans-Serif" font-size="10.00">+ decode()</text>
<text text-anchor="start" x="8" y="-223.5" font-family="Helvetica,sans-Serif" font-size="10.00">+ decode()</text>
<text text-anchor="start" x="8" y="-212.5" font-family="Helvetica,sans-Serif" font-size="10.00">+ decode()</text>
<text text-anchor="start" x="8" y="-201.5" font-family="Helvetica,sans-Serif" font-size="10.00">+ size()</text>
</a>
</g>
</g>
<!-- Node1&#45;&gt;Node3 -->
<g id="edge2" class="edge">
<title>Node1&#45;&gt;Node3</title>
<path fill="none" stroke="orange" d="M151.04,-345.99C148.58,-342.67 146.22,-339.33 144,-336 137.94,-326.91 132.24,-316.79 127.14,-306.8"/>
<polygon fill="orange" stroke="orange" points="148.46,-348.38 157.32,-354.18 154.01,-344.12 148.46,-348.38"/>
<text text-anchor="middle" x="211.5" y="-328" font-family="Helvetica,sans-Serif" font-size="10.00"> &lt; EtsiTs103097Certificate_t &gt;</text>
</g>
<!-- Node5 -->
<g id="node5" class="node">
<title>Node5</title>
<g id="a_node5"><a xlink:href="../../de/dbf/classvanetza_1_1asn1_1_1asn1c__oer__wrapper.html" target="_top" xlink:title=" ">
<polygon fill="white" stroke="#bfbfbf" points="224,-194.5 224,-306.5 406,-306.5 406,-194.5 224,-194.5"/>
<text text-anchor="start" x="232" y="-294.5" font-family="Helvetica,sans-Serif" font-size="10.00">vanetza::asn1::asn1c</text>
<text text-anchor="middle" x="315" y="-283.5" font-family="Helvetica,sans-Serif" font-size="10.00">_oer_wrapper&lt; EtsiTs103097Data_t &gt;</text>
<polyline fill="none" stroke="#bfbfbf" points="224,-276.5 406,-276.5 "/>
<text text-anchor="middle" x="315" y="-264.5" font-family="Helvetica,sans-Serif" font-size="10.00"> </text>
<polyline fill="none" stroke="#bfbfbf" points="224,-257.5 406,-257.5 "/>
<text text-anchor="start" x="232" y="-245.5" font-family="Helvetica,sans-Serif" font-size="10.00">+ encode()</text>
<text text-anchor="start" x="232" y="-234.5" font-family="Helvetica,sans-Serif" font-size="10.00">+ decode()</text>
<text text-anchor="start" x="232" y="-223.5" font-family="Helvetica,sans-Serif" font-size="10.00">+ decode()</text>
<text text-anchor="start" x="232" y="-212.5" font-family="Helvetica,sans-Serif" font-size="10.00">+ decode()</text>
<text text-anchor="start" x="232" y="-201.5" font-family="Helvetica,sans-Serif" font-size="10.00">+ size()</text>
</a>
</g>
</g>
<!-- Node1&#45;&gt;Node5 -->
<g id="edge4" class="edge">
<title>Node1&#45;&gt;Node5</title>
<path fill="none" stroke="orange" d="M270.45,-347.96C273.48,-344.02 276.35,-340.02 279,-336 284.96,-326.94 290.29,-316.73 294.91,-306.62"/>
<polygon fill="orange" stroke="orange" points="267.57,-345.95 264.04,-355.94 273.03,-350.33 267.57,-345.95"/>
<text text-anchor="middle" x="340" y="-328" font-family="Helvetica,sans-Serif" font-size="10.00"> &lt; EtsiTs103097Data_t &gt;</text>
</g>
<!-- Node2 -->
<g id="node2" class="node">
<title>Node2</title>
<g id="a_node2"><a xlink:href="../../d0/d68/classvanetza_1_1asn1_1_1asn1c__wrapper__common.html" target="_top" xlink:title=" ">
<polygon fill="white" stroke="#bfbfbf" points="136,-504.5 136,-737.5 282,-737.5 282,-504.5 136,-504.5"/>
<text text-anchor="start" x="144" y="-725.5" font-family="Helvetica,sans-Serif" font-size="10.00">vanetza::asn1::asn1c</text>
<text text-anchor="middle" x="209" y="-714.5" font-family="Helvetica,sans-Serif" font-size="10.00">_wrapper_common&lt; T &gt;</text>
<polyline fill="none" stroke="#bfbfbf" points="136,-707.5 282,-707.5 "/>
<text text-anchor="start" x="144" y="-695.5" font-family="Helvetica,sans-Serif" font-size="10.00"># m_struct</text>
<text text-anchor="start" x="144" y="-684.5" font-family="Helvetica,sans-Serif" font-size="10.00"># m_type</text>
<polyline fill="none" stroke="#bfbfbf" points="136,-677.5 282,-677.5 "/>
<text text-anchor="start" x="144" y="-665.5" font-family="Helvetica,sans-Serif" font-size="10.00">+ asn1c_wrapper_common()</text>
<text text-anchor="start" x="144" y="-654.5" font-family="Helvetica,sans-Serif" font-size="10.00">+ ~asn1c_wrapper_common()</text>
<text text-anchor="start" x="144" y="-643.5" font-family="Helvetica,sans-Serif" font-size="10.00">+ asn1c_wrapper_common()</text>
<text text-anchor="start" x="144" y="-632.5" font-family="Helvetica,sans-Serif" font-size="10.00">+ operator=()</text>
<text text-anchor="start" x="144" y="-621.5" font-family="Helvetica,sans-Serif" font-size="10.00">+ asn1c_wrapper_common()</text>
<text text-anchor="start" x="144" y="-610.5" font-family="Helvetica,sans-Serif" font-size="10.00">+ operator=()</text>
<text text-anchor="start" x="144" y="-599.5" font-family="Helvetica,sans-Serif" font-size="10.00">+ operator*()</text>
<text text-anchor="start" x="144" y="-588.5" font-family="Helvetica,sans-Serif" font-size="10.00">+ operator&#45;&gt;()</text>
<text text-anchor="start" x="144" y="-577.5" font-family="Helvetica,sans-Serif" font-size="10.00">+ operator*()</text>
<text text-anchor="start" x="144" y="-566.5" font-family="Helvetica,sans-Serif" font-size="10.00">+ operator&#45;&gt;()</text>
<text text-anchor="start" x="144" y="-555.5" font-family="Helvetica,sans-Serif" font-size="10.00">+ content()</text>
<text text-anchor="start" x="144" y="-544.5" font-family="Helvetica,sans-Serif" font-size="10.00">+ content()</text>
<text text-anchor="start" x="144" y="-533.5" font-family="Helvetica,sans-Serif" font-size="10.00">+ validate()</text>
<text text-anchor="start" x="144" y="-522.5" font-family="Helvetica,sans-Serif" font-size="10.00">+ validate()</text>
<text text-anchor="start" x="144" y="-511.5" font-family="Helvetica,sans-Serif" font-size="10.00">+ swap()</text>
</a>
</g>
</g>
<!-- Node2&#45;&gt;Node1 -->
<g id="edge1" class="edge">
<title>Node2&#45;&gt;Node1</title>
<path fill="none" stroke="#63b8ff" d="M209,-494.36C209,-484.73 209,-475.36 209,-466.59"/>
<polygon fill="none" stroke="#63b8ff" points="205.5,-494.47 209,-504.47 212.5,-494.47 205.5,-494.47"/>
</g>
<!-- Node4 -->
<g id="node4" class="node">
<title>Node4</title>
<g id="a_node4"><a xlink:href="../../d8/d1b/structvanetza_1_1security_1_1v3_1_1Certificate.html" target="_top" xlink:title=" ">
<polygon fill="white" stroke="#bfbfbf" points="55,-44.5 55,-112.5 151,-112.5 151,-44.5 55,-44.5"/>
<text text-anchor="start" x="63" y="-100.5" font-family="Helvetica,sans-Serif" font-size="10.00">vanetza::security::</text>
<text text-anchor="middle" x="103" y="-89.5" font-family="Helvetica,sans-Serif" font-size="10.00">v3::Certificate</text>
<polyline fill="none" stroke="#bfbfbf" points="55,-82.5 151,-82.5 "/>
<text text-anchor="middle" x="103" y="-70.5" font-family="Helvetica,sans-Serif" font-size="10.00"> </text>
<polyline fill="none" stroke="#bfbfbf" points="55,-63.5 151,-63.5 "/>
<text text-anchor="start" x="63" y="-51.5" font-family="Helvetica,sans-Serif" font-size="10.00">+ Certificate()</text>
</a>
</g>
</g>
<!-- Node3&#45;&gt;Node4 -->
<g id="edge3" class="edge">
<title>Node3&#45;&gt;Node4</title>
<path fill="none" stroke="#63b8ff" d="M103,-184.01C103,-159.6 103,-132.92 103,-112.63"/>
<polygon fill="none" stroke="#63b8ff" points="99.5,-184.31 103,-194.31 106.5,-184.31 99.5,-184.31"/>
</g>
<!-- Node6 -->
<g id="node6" class="node">
<title>Node6</title>
<g id="a_node6"><a xlink:href="../../df/d3d/structvanetza_1_1security_1_1v3_1_1SecuredMessage.html" target="_top" xlink:title=" ">
<polygon fill="white" stroke="#bfbfbf" points="260.5,-0.5 260.5,-156.5 369.5,-156.5 369.5,-0.5 260.5,-0.5"/>
<text text-anchor="start" x="268.5" y="-144.5" font-family="Helvetica,sans-Serif" font-size="10.00">vanetza::security::</text>
<text text-anchor="middle" x="315" y="-133.5" font-family="Helvetica,sans-Serif" font-size="10.00">v3::SecuredMessage</text>
<polyline fill="none" stroke="#bfbfbf" points="260.5,-126.5 369.5,-126.5 "/>
<text text-anchor="middle" x="315" y="-114.5" font-family="Helvetica,sans-Serif" font-size="10.00"> </text>
<polyline fill="none" stroke="#bfbfbf" points="260.5,-107.5 369.5,-107.5 "/>
<text text-anchor="start" x="268.5" y="-95.5" font-family="Helvetica,sans-Serif" font-size="10.00">+ SecuredMessage()</text>
<text text-anchor="start" x="268.5" y="-84.5" font-family="Helvetica,sans-Serif" font-size="10.00">+ protocol_version()</text>
<text text-anchor="start" x="268.5" y="-73.5" font-family="Helvetica,sans-Serif" font-size="10.00">+ its_aid()</text>
<text text-anchor="start" x="268.5" y="-62.5" font-family="Helvetica,sans-Serif" font-size="10.00">+ payload()</text>
<text text-anchor="start" x="268.5" y="-51.5" font-family="Helvetica,sans-Serif" font-size="10.00">+ is_signed()</text>
<text text-anchor="start" x="268.5" y="-40.5" font-family="Helvetica,sans-Serif" font-size="10.00">+ generation_time()</text>
<text text-anchor="start" x="268.5" y="-29.5" font-family="Helvetica,sans-Serif" font-size="10.00">+ signature()</text>
<text text-anchor="start" x="268.5" y="-18.5" font-family="Helvetica,sans-Serif" font-size="10.00">+ signer_identifier()</text>
<text text-anchor="start" x="268.5" y="-7.5" font-family="Helvetica,sans-Serif" font-size="10.00">+ signing_payload()</text>
</a>
</g>
</g>
<!-- Node5&#45;&gt;Node6 -->
<g id="edge5" class="edge">
<title>Node5&#45;&gt;Node6</title>
<path fill="none" stroke="#63b8ff" d="M315,-184.26C315,-175.23 315,-165.88 315,-156.65"/>
<polygon fill="none" stroke="#63b8ff" points="311.5,-184.31 315,-194.31 318.5,-184.31 311.5,-184.31"/>
</g>
</g>
</svg>
