<?xml version="1.0" encoding="UTF-8" standalone="no"?>
<!DOCTYPE svg PUBLIC "-//W3C//DTD SVG 1.1//EN"
 "http://www.w3.org/Graphics/SVG/1.1/DTD/svg11.dtd">
<!-- Generated by graphviz version 2.49.3 (0)
 -->
<!-- Title: vanetza::geonet::ExtendedPdu&lt; HEADER &gt; Pages: 1 -->
<svg width="580pt" height="908pt"
 viewBox="0.00 0.00 580.00 908.00" xmlns="http://www.w3.org/2000/svg" xmlns:xlink="http://www.w3.org/1999/xlink">
<g id="graph0" class="graph" transform="scale(1 1) rotate(0) translate(4 904)">
<title>vanetza::geonet::ExtendedPdu&lt; HEADER &gt;</title>
<!-- Node1 -->
<g id="Node000001" class="node">
<title>Node1</title>
<g id="a_Node000001"><a xlink:title=" ">
<polygon fill="#999999" stroke="transparent" points="342,-563 216,-563 216,-308 342,-308 342,-563"/>
<text text-anchor="start" x="221" y="-550.5" font-family="Helvetica,sans-Serif" font-size="10.00">vanetza::geonet::Extended</text>
<text text-anchor="start" x="239.5" y="-539.5" font-family="Helvetica,sans-Serif" font-size="10.00">Pdu&lt; HEADER &gt;</text>
<text text-anchor="start" x="232" y="-524.5" font-family="Helvetica,sans-Serif" font-size="10.00">&#45;</text>
<text text-anchor="start" x="252" y="-524.5" font-family="Helvetica,sans-Serif" font-size="10.00">m_basic</text>
<text text-anchor="start" x="232" y="-509.5" font-family="Helvetica,sans-Serif" font-size="10.00">&#45;</text>
<text text-anchor="start" x="252" y="-509.5" font-family="Helvetica,sans-Serif" font-size="10.00">m_common</text>
<text text-anchor="start" x="232" y="-494.5" font-family="Helvetica,sans-Serif" font-size="10.00">&#45;</text>
<text text-anchor="start" x="252" y="-494.5" font-family="Helvetica,sans-Serif" font-size="10.00">m_extended</text>
<text text-anchor="start" x="232" y="-479.5" font-family="Helvetica,sans-Serif" font-size="10.00">&#45;</text>
<text text-anchor="start" x="252" y="-479.5" font-family="Helvetica,sans-Serif" font-size="10.00">m_secured</text>
<text text-anchor="start" x="230.5" y="-464.5" font-family="Helvetica,sans-Serif" font-size="10.00">+</text>
<text text-anchor="start" x="252" y="-464.5" font-family="Helvetica,sans-Serif" font-size="10.00">ExtendedPdu()</text>
<text text-anchor="start" x="230.5" y="-449.5" font-family="Helvetica,sans-Serif" font-size="10.00">+</text>
<text text-anchor="start" x="252" y="-449.5" font-family="Helvetica,sans-Serif" font-size="10.00">ExtendedPdu()</text>
<text text-anchor="start" x="230.5" y="-434.5" font-family="Helvetica,sans-Serif" font-size="10.00">+</text>
<text text-anchor="start" x="252" y="-434.5" font-family="Helvetica,sans-Serif" font-size="10.00">operator=()</text>
<text text-anchor="start" x="230.5" y="-419.5" font-family="Helvetica,sans-Serif" font-size="10.00">+</text>
<text text-anchor="start" x="252" y="-419.5" font-family="Helvetica,sans-Serif" font-size="10.00">ExtendedPdu()</text>
<text text-anchor="start" x="230.5" y="-404.5" font-family="Helvetica,sans-Serif" font-size="10.00">+</text>
<text text-anchor="start" x="252" y="-404.5" font-family="Helvetica,sans-Serif" font-size="10.00">ExtendedPdu()</text>
<text text-anchor="start" x="230.5" y="-389.5" font-family="Helvetica,sans-Serif" font-size="10.00">+</text>
<text text-anchor="start" x="252" y="-389.5" font-family="Helvetica,sans-Serif" font-size="10.00">ExtendedPdu()</text>
<text text-anchor="start" x="230.5" y="-374.5" font-family="Helvetica,sans-Serif" font-size="10.00">+</text>
<text text-anchor="start" x="252" y="-374.5" font-family="Helvetica,sans-Serif" font-size="10.00">ExtendedPdu()</text>
<text text-anchor="start" x="230.5" y="-359.5" font-family="Helvetica,sans-Serif" font-size="10.00">+</text>
<text text-anchor="start" x="252" y="-359.5" font-family="Helvetica,sans-Serif" font-size="10.00">ExtendedPdu()</text>
<text text-anchor="start" x="230.5" y="-344.5" font-family="Helvetica,sans-Serif" font-size="10.00">+</text>
<text text-anchor="start" x="252" y="-344.5" font-family="Helvetica,sans-Serif" font-size="10.00">basic()</text>
<text text-anchor="start" x="230.5" y="-329.5" font-family="Helvetica,sans-Serif" font-size="10.00">+</text>
<text text-anchor="start" x="252" y="-329.5" font-family="Helvetica,sans-Serif" font-size="10.00">basic()</text>
<text text-anchor="start" x="252" y="-314.5" font-family="Helvetica,sans-Serif" font-size="10.00">and 9 more...</text>
<polygon fill="#666666" stroke="#666666" points="216,-534.5 216,-534.5 342,-534.5 342,-534.5 216,-534.5"/>
<polygon fill="#666666" stroke="#666666" points="216,-474.5 216,-474.5 250,-474.5 250,-474.5 216,-474.5"/>
<polygon fill="#666666" stroke="#666666" points="250,-474.5 250,-474.5 342,-474.5 342,-474.5 250,-474.5"/>
<polygon fill="none" stroke="#666666" points="216,-308 216,-563 342,-563 342,-308 216,-308"/>
</a>
</g>
</g>
<!-- Node4 -->
<g id="Node000004" class="node">
<title>Node4</title>
<g id="a_Node000004"><a xlink:href="../../d9/d6e/classvanetza_1_1geonet_1_1ExtendedPdu.html" target="_top" xlink:title=" ">
<polygon fill="white" stroke="transparent" points="126,-255 0,-255 0,0 126,0 126,-255"/>
<text text-anchor="start" x="5" y="-242.5" font-family="Helvetica,sans-Serif" font-size="10.00">vanetza::geonet::Extended</text>
<text text-anchor="start" x="20.5" y="-231.5" font-family="Helvetica,sans-Serif" font-size="10.00">Pdu&lt; ShbHeader &gt;</text>
<text text-anchor="start" x="16" y="-216.5" font-family="Helvetica,sans-Serif" font-size="10.00">&#45;</text>
<text text-anchor="start" x="36" y="-216.5" font-family="Helvetica,sans-Serif" font-size="10.00">m_basic</text>
<text text-anchor="start" x="16" y="-201.5" font-family="Helvetica,sans-Serif" font-size="10.00">&#45;</text>
<text text-anchor="start" x="36" y="-201.5" font-family="Helvetica,sans-Serif" font-size="10.00">m_common</text>
<text text-anchor="start" x="16" y="-186.5" font-family="Helvetica,sans-Serif" font-size="10.00">&#45;</text>
<text text-anchor="start" x="36" y="-186.5" font-family="Helvetica,sans-Serif" font-size="10.00">m_extended</text>
<text text-anchor="start" x="16" y="-171.5" font-family="Helvetica,sans-Serif" font-size="10.00">&#45;</text>
<text text-anchor="start" x="36" y="-171.5" font-family="Helvetica,sans-Serif" font-size="10.00">m_secured</text>
<text text-anchor="start" x="14.5" y="-156.5" font-family="Helvetica,sans-Serif" font-size="10.00">+</text>
<text text-anchor="start" x="36" y="-156.5" font-family="Helvetica,sans-Serif" font-size="10.00">ExtendedPdu()</text>
<text text-anchor="start" x="14.5" y="-141.5" font-family="Helvetica,sans-Serif" font-size="10.00">+</text>
<text text-anchor="start" x="36" y="-141.5" font-family="Helvetica,sans-Serif" font-size="10.00">ExtendedPdu()</text>
<text text-anchor="start" x="14.5" y="-126.5" font-family="Helvetica,sans-Serif" font-size="10.00">+</text>
<text text-anchor="start" x="36" y="-126.5" font-family="Helvetica,sans-Serif" font-size="10.00">operator=()</text>
<text text-anchor="start" x="14.5" y="-111.5" font-family="Helvetica,sans-Serif" font-size="10.00">+</text>
<text text-anchor="start" x="36" y="-111.5" font-family="Helvetica,sans-Serif" font-size="10.00">ExtendedPdu()</text>
<text text-anchor="start" x="14.5" y="-96.5" font-family="Helvetica,sans-Serif" font-size="10.00">+</text>
<text text-anchor="start" x="36" y="-96.5" font-family="Helvetica,sans-Serif" font-size="10.00">ExtendedPdu()</text>
<text text-anchor="start" x="14.5" y="-81.5" font-family="Helvetica,sans-Serif" font-size="10.00">+</text>
<text text-anchor="start" x="36" y="-81.5" font-family="Helvetica,sans-Serif" font-size="10.00">ExtendedPdu()</text>
<text text-anchor="start" x="14.5" y="-66.5" font-family="Helvetica,sans-Serif" font-size="10.00">+</text>
<text text-anchor="start" x="36" y="-66.5" font-family="Helvetica,sans-Serif" font-size="10.00">ExtendedPdu()</text>
<text text-anchor="start" x="14.5" y="-51.5" font-family="Helvetica,sans-Serif" font-size="10.00">+</text>
<text text-anchor="start" x="36" y="-51.5" font-family="Helvetica,sans-Serif" font-size="10.00">ExtendedPdu()</text>
<text text-anchor="start" x="14.5" y="-36.5" font-family="Helvetica,sans-Serif" font-size="10.00">+</text>
<text text-anchor="start" x="36" y="-36.5" font-family="Helvetica,sans-Serif" font-size="10.00">basic()</text>
<text text-anchor="start" x="14.5" y="-21.5" font-family="Helvetica,sans-Serif" font-size="10.00">+</text>
<text text-anchor="start" x="36" y="-21.5" font-family="Helvetica,sans-Serif" font-size="10.00">basic()</text>
<text text-anchor="start" x="36" y="-6.5" font-family="Helvetica,sans-Serif" font-size="10.00">and 10 more...</text>
<polygon fill="#bfbfbf" stroke="#bfbfbf" points="0,-226.5 0,-226.5 126,-226.5 126,-226.5 0,-226.5"/>
<polygon fill="#bfbfbf" stroke="#bfbfbf" points="0,-166.5 0,-166.5 34,-166.5 34,-166.5 0,-166.5"/>
<polygon fill="#bfbfbf" stroke="#bfbfbf" points="34,-166.5 34,-166.5 126,-166.5 126,-166.5 34,-166.5"/>
<polygon fill="none" stroke="#bfbfbf" points="0,0 0,-255 126,-255 126,0 0,0"/>
</a>
</g>
</g>
<!-- Node1&#45;&gt;Node4 -->
<g id="edge3_Node000001_Node000004" class="edge">
<title>Node1&#45;&gt;Node4</title>
<g id="a_edge3_Node000001_Node000004"><a xlink:title=" ">
<path fill="none" stroke="orange" d="M209.14,-353.05C184.61,-323.02 157.57,-288.22 135,-255 132.02,-250.61 129.04,-246.09 126.09,-241.49"/>
<polygon fill="orange" stroke="orange" points="206.6,-355.47 215.65,-360.98 212.01,-351.03 206.6,-355.47"/>
</a>
</g>
<text text-anchor="start" x="160.5" y="-278.5" font-family="Helvetica,sans-Serif" font-size="10.00" fill="grey">&lt; ShbHeader &gt;</text>
</g>
<!-- Node5 -->
<g id="Node000005" class="node">
<title>Node5</title>
<g id="a_Node000005"><a xlink:href="../../d9/d6e/classvanetza_1_1geonet_1_1ExtendedPdu.html" target="_top" xlink:title=" ">
<polygon fill="white" stroke="transparent" points="270,-255 144,-255 144,0 270,0 270,-255"/>
<text text-anchor="start" x="149" y="-242.5" font-family="Helvetica,sans-Serif" font-size="10.00">vanetza::geonet::Extended</text>
<text text-anchor="start" x="165.5" y="-231.5" font-family="Helvetica,sans-Serif" font-size="10.00">Pdu&lt; TsbHeader &gt;</text>
<text text-anchor="start" x="160" y="-216.5" font-family="Helvetica,sans-Serif" font-size="10.00">&#45;</text>
<text text-anchor="start" x="180" y="-216.5" font-family="Helvetica,sans-Serif" font-size="10.00">m_basic</text>
<text text-anchor="start" x="160" y="-201.5" font-family="Helvetica,sans-Serif" font-size="10.00">&#45;</text>
<text text-anchor="start" x="180" y="-201.5" font-family="Helvetica,sans-Serif" font-size="10.00">m_common</text>
<text text-anchor="start" x="160" y="-186.5" font-family="Helvetica,sans-Serif" font-size="10.00">&#45;</text>
<text text-anchor="start" x="180" y="-186.5" font-family="Helvetica,sans-Serif" font-size="10.00">m_extended</text>
<text text-anchor="start" x="160" y="-171.5" font-family="Helvetica,sans-Serif" font-size="10.00">&#45;</text>
<text text-anchor="start" x="180" y="-171.5" font-family="Helvetica,sans-Serif" font-size="10.00">m_secured</text>
<text text-anchor="start" x="158.5" y="-156.5" font-family="Helvetica,sans-Serif" font-size="10.00">+</text>
<text text-anchor="start" x="180" y="-156.5" font-family="Helvetica,sans-Serif" font-size="10.00">ExtendedPdu()</text>
<text text-anchor="start" x="158.5" y="-141.5" font-family="Helvetica,sans-Serif" font-size="10.00">+</text>
<text text-anchor="start" x="180" y="-141.5" font-family="Helvetica,sans-Serif" font-size="10.00">ExtendedPdu()</text>
<text text-anchor="start" x="158.5" y="-126.5" font-family="Helvetica,sans-Serif" font-size="10.00">+</text>
<text text-anchor="start" x="180" y="-126.5" font-family="Helvetica,sans-Serif" font-size="10.00">operator=()</text>
<text text-anchor="start" x="158.5" y="-111.5" font-family="Helvetica,sans-Serif" font-size="10.00">+</text>
<text text-anchor="start" x="180" y="-111.5" font-family="Helvetica,sans-Serif" font-size="10.00">ExtendedPdu()</text>
<text text-anchor="start" x="158.5" y="-96.5" font-family="Helvetica,sans-Serif" font-size="10.00">+</text>
<text text-anchor="start" x="180" y="-96.5" font-family="Helvetica,sans-Serif" font-size="10.00">ExtendedPdu()</text>
<text text-anchor="start" x="158.5" y="-81.5" font-family="Helvetica,sans-Serif" font-size="10.00">+</text>
<text text-anchor="start" x="180" y="-81.5" font-family="Helvetica,sans-Serif" font-size="10.00">ExtendedPdu()</text>
<text text-anchor="start" x="158.5" y="-66.5" font-family="Helvetica,sans-Serif" font-size="10.00">+</text>
<text text-anchor="start" x="180" y="-66.5" font-family="Helvetica,sans-Serif" font-size="10.00">ExtendedPdu()</text>
<text text-anchor="start" x="158.5" y="-51.5" font-family="Helvetica,sans-Serif" font-size="10.00">+</text>
<text text-anchor="start" x="180" y="-51.5" font-family="Helvetica,sans-Serif" font-size="10.00">ExtendedPdu()</text>
<text text-anchor="start" x="158.5" y="-36.5" font-family="Helvetica,sans-Serif" font-size="10.00">+</text>
<text text-anchor="start" x="180" y="-36.5" font-family="Helvetica,sans-Serif" font-size="10.00">basic()</text>
<text text-anchor="start" x="158.5" y="-21.5" font-family="Helvetica,sans-Serif" font-size="10.00">+</text>
<text text-anchor="start" x="180" y="-21.5" font-family="Helvetica,sans-Serif" font-size="10.00">basic()</text>
<text text-anchor="start" x="180" y="-6.5" font-family="Helvetica,sans-Serif" font-size="10.00">and 10 more...</text>
<polygon fill="#bfbfbf" stroke="#bfbfbf" points="144,-226.5 144,-226.5 270,-226.5 270,-226.5 144,-226.5"/>
<polygon fill="#bfbfbf" stroke="#bfbfbf" points="144,-166.5 144,-166.5 178,-166.5 178,-166.5 144,-166.5"/>
<polygon fill="#bfbfbf" stroke="#bfbfbf" points="178,-166.5 178,-166.5 270,-166.5 270,-166.5 178,-166.5"/>
<polygon fill="none" stroke="#bfbfbf" points="144,0 144,-255 270,-255 270,0 144,0"/>
</a>
</g>
</g>
<!-- Node1&#45;&gt;Node5 -->
<g id="edge4_Node000001_Node000005" class="edge">
<title>Node1&#45;&gt;Node5</title>
<g id="a_edge4_Node000001_Node000005"><a xlink:title=" ">
<path fill="none" stroke="orange" d="M246.88,-297.98C243.52,-283.71 240.11,-269.23 236.78,-255.08"/>
<polygon fill="orange" stroke="orange" points="243.5,-298.9 249.2,-307.83 250.31,-297.29 243.5,-298.9"/>
</a>
</g>
<text text-anchor="start" x="246" y="-278.5" font-family="Helvetica,sans-Serif" font-size="10.00" fill="grey">&lt; TsbHeader &gt;</text>
</g>
<!-- Node6 -->
<g id="Node000006" class="node">
<title>Node6</title>
<g id="a_Node000006"><a xlink:href="../../d9/d6e/classvanetza_1_1geonet_1_1ExtendedPdu.html" target="_top" xlink:title=" ">
<polygon fill="white" stroke="transparent" points="414,-255 288,-255 288,0 414,0 414,-255"/>
<text text-anchor="start" x="293" y="-242.5" font-family="Helvetica,sans-Serif" font-size="10.00">vanetza::geonet::Extended</text>
<text text-anchor="start" x="301" y="-231.5" font-family="Helvetica,sans-Serif" font-size="10.00">Pdu&lt; BeaconHeader &gt;</text>
<text text-anchor="start" x="304" y="-216.5" font-family="Helvetica,sans-Serif" font-size="10.00">&#45;</text>
<text text-anchor="start" x="324" y="-216.5" font-family="Helvetica,sans-Serif" font-size="10.00">m_basic</text>
<text text-anchor="start" x="304" y="-201.5" font-family="Helvetica,sans-Serif" font-size="10.00">&#45;</text>
<text text-anchor="start" x="324" y="-201.5" font-family="Helvetica,sans-Serif" font-size="10.00">m_common</text>
<text text-anchor="start" x="304" y="-186.5" font-family="Helvetica,sans-Serif" font-size="10.00">&#45;</text>
<text text-anchor="start" x="324" y="-186.5" font-family="Helvetica,sans-Serif" font-size="10.00">m_extended</text>
<text text-anchor="start" x="304" y="-171.5" font-family="Helvetica,sans-Serif" font-size="10.00">&#45;</text>
<text text-anchor="start" x="324" y="-171.5" font-family="Helvetica,sans-Serif" font-size="10.00">m_secured</text>
<text text-anchor="start" x="302.5" y="-156.5" font-family="Helvetica,sans-Serif" font-size="10.00">+</text>
<text text-anchor="start" x="324" y="-156.5" font-family="Helvetica,sans-Serif" font-size="10.00">ExtendedPdu()</text>
<text text-anchor="start" x="302.5" y="-141.5" font-family="Helvetica,sans-Serif" font-size="10.00">+</text>
<text text-anchor="start" x="324" y="-141.5" font-family="Helvetica,sans-Serif" font-size="10.00">ExtendedPdu()</text>
<text text-anchor="start" x="302.5" y="-126.5" font-family="Helvetica,sans-Serif" font-size="10.00">+</text>
<text text-anchor="start" x="324" y="-126.5" font-family="Helvetica,sans-Serif" font-size="10.00">operator=()</text>
<text text-anchor="start" x="302.5" y="-111.5" font-family="Helvetica,sans-Serif" font-size="10.00">+</text>
<text text-anchor="start" x="324" y="-111.5" font-family="Helvetica,sans-Serif" font-size="10.00">ExtendedPdu()</text>
<text text-anchor="start" x="302.5" y="-96.5" font-family="Helvetica,sans-Serif" font-size="10.00">+</text>
<text text-anchor="start" x="324" y="-96.5" font-family="Helvetica,sans-Serif" font-size="10.00">ExtendedPdu()</text>
<text text-anchor="start" x="302.5" y="-81.5" font-family="Helvetica,sans-Serif" font-size="10.00">+</text>
<text text-anchor="start" x="324" y="-81.5" font-family="Helvetica,sans-Serif" font-size="10.00">ExtendedPdu()</text>
<text text-anchor="start" x="302.5" y="-66.5" font-family="Helvetica,sans-Serif" font-size="10.00">+</text>
<text text-anchor="start" x="324" y="-66.5" font-family="Helvetica,sans-Serif" font-size="10.00">ExtendedPdu()</text>
<text text-anchor="start" x="302.5" y="-51.5" font-family="Helvetica,sans-Serif" font-size="10.00">+</text>
<text text-anchor="start" x="324" y="-51.5" font-family="Helvetica,sans-Serif" font-size="10.00">ExtendedPdu()</text>
<text text-anchor="start" x="302.5" y="-36.5" font-family="Helvetica,sans-Serif" font-size="10.00">+</text>
<text text-anchor="start" x="324" y="-36.5" font-family="Helvetica,sans-Serif" font-size="10.00">basic()</text>
<text text-anchor="start" x="302.5" y="-21.5" font-family="Helvetica,sans-Serif" font-size="10.00">+</text>
<text text-anchor="start" x="324" y="-21.5" font-family="Helvetica,sans-Serif" font-size="10.00">basic()</text>
<text text-anchor="start" x="324" y="-6.5" font-family="Helvetica,sans-Serif" font-size="10.00">and 10 more...</text>
<polygon fill="#bfbfbf" stroke="#bfbfbf" points="288,-226.5 288,-226.5 414,-226.5 414,-226.5 288,-226.5"/>
<polygon fill="#bfbfbf" stroke="#bfbfbf" points="288,-166.5 288,-166.5 322,-166.5 322,-166.5 288,-166.5"/>
<polygon fill="#bfbfbf" stroke="#bfbfbf" points="322,-166.5 322,-166.5 414,-166.5 414,-166.5 322,-166.5"/>
<polygon fill="none" stroke="#bfbfbf" points="288,0 288,-255 414,-255 414,0 288,0"/>
</a>
</g>
</g>
<!-- Node1&#45;&gt;Node6 -->
<g id="edge5_Node000001_Node000006" class="edge">
<title>Node1&#45;&gt;Node6</title>
<g id="a_edge5_Node000001_Node000006"><a xlink:title=" ">
<path fill="none" stroke="orange" d="M317.08,-297.99C317.73,-295.3 318.37,-292.64 319,-290 321.67,-278.74 324.3,-266.99 326.83,-255.21"/>
<polygon fill="orange" stroke="orange" points="313.66,-297.22 314.66,-307.77 320.46,-298.9 313.66,-297.22"/>
</a>
</g>
<text text-anchor="start" x="325.5" y="-278.5" font-family="Helvetica,sans-Serif" font-size="10.00" fill="grey">&lt; BeaconHeader &gt;</text>
</g>
<!-- Node7 -->
<g id="Node000007" class="node">
<title>Node7</title>
<g id="a_Node000007"><a xlink:href="../../d9/d6e/classvanetza_1_1geonet_1_1ExtendedPdu.html" target="_top" xlink:title=" ">
<polygon fill="white" stroke="transparent" points="572,-255 432,-255 432,0 572,0 572,-255"/>
<text text-anchor="start" x="437" y="-242.5" font-family="Helvetica,sans-Serif" font-size="10.00">vanetza::geonet::Extended</text>
<text text-anchor="start" x="437" y="-231.5" font-family="Helvetica,sans-Serif" font-size="10.00">Pdu&lt; GeoBroadcastHeader &gt;</text>
<text text-anchor="start" x="451.5" y="-216.5" font-family="Helvetica,sans-Serif" font-size="10.00">&#45;</text>
<text text-anchor="start" x="475" y="-216.5" font-family="Helvetica,sans-Serif" font-size="10.00">m_basic</text>
<text text-anchor="start" x="451.5" y="-201.5" font-family="Helvetica,sans-Serif" font-size="10.00">&#45;</text>
<text text-anchor="start" x="475" y="-201.5" font-family="Helvetica,sans-Serif" font-size="10.00">m_common</text>
<text text-anchor="start" x="451.5" y="-186.5" font-family="Helvetica,sans-Serif" font-size="10.00">&#45;</text>
<text text-anchor="start" x="475" y="-186.5" font-family="Helvetica,sans-Serif" font-size="10.00">m_extended</text>
<text text-anchor="start" x="451.5" y="-171.5" font-family="Helvetica,sans-Serif" font-size="10.00">&#45;</text>
<text text-anchor="start" x="475" y="-171.5" font-family="Helvetica,sans-Serif" font-size="10.00">m_secured</text>
<text text-anchor="start" x="450" y="-156.5" font-family="Helvetica,sans-Serif" font-size="10.00">+</text>
<text text-anchor="start" x="475" y="-156.5" font-family="Helvetica,sans-Serif" font-size="10.00">ExtendedPdu()</text>
<text text-anchor="start" x="450" y="-141.5" font-family="Helvetica,sans-Serif" font-size="10.00">+</text>
<text text-anchor="start" x="475" y="-141.5" font-family="Helvetica,sans-Serif" font-size="10.00">ExtendedPdu()</text>
<text text-anchor="start" x="450" y="-126.5" font-family="Helvetica,sans-Serif" font-size="10.00">+</text>
<text text-anchor="start" x="475" y="-126.5" font-family="Helvetica,sans-Serif" font-size="10.00">operator=()</text>
<text text-anchor="start" x="450" y="-111.5" font-family="Helvetica,sans-Serif" font-size="10.00">+</text>
<text text-anchor="start" x="475" y="-111.5" font-family="Helvetica,sans-Serif" font-size="10.00">ExtendedPdu()</text>
<text text-anchor="start" x="450" y="-96.5" font-family="Helvetica,sans-Serif" font-size="10.00">+</text>
<text text-anchor="start" x="475" y="-96.5" font-family="Helvetica,sans-Serif" font-size="10.00">ExtendedPdu()</text>
<text text-anchor="start" x="450" y="-81.5" font-family="Helvetica,sans-Serif" font-size="10.00">+</text>
<text text-anchor="start" x="475" y="-81.5" font-family="Helvetica,sans-Serif" font-size="10.00">ExtendedPdu()</text>
<text text-anchor="start" x="450" y="-66.5" font-family="Helvetica,sans-Serif" font-size="10.00">+</text>
<text text-anchor="start" x="475" y="-66.5" font-family="Helvetica,sans-Serif" font-size="10.00">ExtendedPdu()</text>
<text text-anchor="start" x="450" y="-51.5" font-family="Helvetica,sans-Serif" font-size="10.00">+</text>
<text text-anchor="start" x="475" y="-51.5" font-family="Helvetica,sans-Serif" font-size="10.00">ExtendedPdu()</text>
<text text-anchor="start" x="450" y="-36.5" font-family="Helvetica,sans-Serif" font-size="10.00">+</text>
<text text-anchor="start" x="475" y="-36.5" font-family="Helvetica,sans-Serif" font-size="10.00">basic()</text>
<text text-anchor="start" x="450" y="-21.5" font-family="Helvetica,sans-Serif" font-size="10.00">+</text>
<text text-anchor="start" x="475" y="-21.5" font-family="Helvetica,sans-Serif" font-size="10.00">basic()</text>
<text text-anchor="start" x="475" y="-6.5" font-family="Helvetica,sans-Serif" font-size="10.00">and 10 more...</text>
<polygon fill="#bfbfbf" stroke="#bfbfbf" points="432,-226.5 432,-226.5 572,-226.5 572,-226.5 432,-226.5"/>
<polygon fill="#bfbfbf" stroke="#bfbfbf" points="432,-166.5 432,-166.5 473,-166.5 473,-166.5 432,-166.5"/>
<polygon fill="#bfbfbf" stroke="#bfbfbf" points="473,-166.5 473,-166.5 572,-166.5 572,-166.5 473,-166.5"/>
<polygon fill="none" stroke="#bfbfbf" points="432,0 432,-255 572,-255 572,0 432,0"/>
</a>
</g>
</g>
<!-- Node1&#45;&gt;Node7 -->
<g id="edge6_Node000001_Node000007" class="edge">
<title>Node1&#45;&gt;Node7</title>
<g id="a_edge6_Node000001_Node000007"><a xlink:title=" ">
<path fill="none" stroke="orange" d="M349.23,-367.23C371.65,-343.91 395.64,-316.86 415,-290 422.92,-279.02 430.6,-267.24 437.91,-255.21"/>
<polygon fill="orange" stroke="orange" points="346.47,-365.05 342.02,-374.67 351.5,-369.93 346.47,-365.05"/>
</a>
</g>
<text text-anchor="start" x="429" y="-278.5" font-family="Helvetica,sans-Serif" font-size="10.00" fill="grey">&lt; GeoBroadcastHeader &gt;</text>
</g>
<!-- Node2 -->
<g id="Node000002" class="node">
<title>Node2</title>
<g id="a_Node000002"><a xlink:href="../../dc/d8c/classvanetza_1_1geonet_1_1Pdu.html" target="_top" xlink:title=" ">
<polygon fill="white" stroke="transparent" points="330,-739 228,-739 228,-600 330,-600 330,-739"/>
<text text-anchor="start" x="233" y="-726.5" font-family="Helvetica,sans-Serif" font-size="10.00">vanetza::geonet::Pdu</text>
<text text-anchor="start" x="277" y="-711.5" font-family="Helvetica,sans-Serif" font-size="10.00"> </text>
<text text-anchor="start" x="241.5" y="-696.5" font-family="Helvetica,sans-Serif" font-size="10.00">+</text>
<text text-anchor="start" x="262" y="-696.5" font-family="Helvetica,sans-Serif" font-size="10.00">basic()</text>
<text text-anchor="start" x="241.5" y="-681.5" font-family="Helvetica,sans-Serif" font-size="10.00">+</text>
<text text-anchor="start" x="262" y="-681.5" font-family="Helvetica,sans-Serif" font-size="10.00">common()</text>
<text text-anchor="start" x="241.5" y="-666.5" font-family="Helvetica,sans-Serif" font-size="10.00">+</text>
<text text-anchor="start" x="262" y="-666.5" font-family="Helvetica,sans-Serif" font-size="10.00">secured()</text>
<text text-anchor="start" x="241.5" y="-651.5" font-family="Helvetica,sans-Serif" font-size="10.00">+</text>
<text text-anchor="start" x="262" y="-651.5" font-family="Helvetica,sans-Serif" font-size="10.00">secured()</text>
<text text-anchor="start" x="241.5" y="-636.5" font-family="Helvetica,sans-Serif" font-size="10.00">+</text>
<text text-anchor="start" x="262" y="-636.5" font-family="Helvetica,sans-Serif" font-size="10.00">basic()</text>
<text text-anchor="start" x="241.5" y="-621.5" font-family="Helvetica,sans-Serif" font-size="10.00">+</text>
<text text-anchor="start" x="262" y="-621.5" font-family="Helvetica,sans-Serif" font-size="10.00">common()</text>
<text text-anchor="start" x="241.5" y="-606.5" font-family="Helvetica,sans-Serif" font-size="10.00">+</text>
<text text-anchor="start" x="262" y="-606.5" font-family="Helvetica,sans-Serif" font-size="10.00">secured()</text>
<polygon fill="#bfbfbf" stroke="#bfbfbf" points="228,-721.5 228,-721.5 330,-721.5 330,-721.5 228,-721.5"/>
<polygon fill="#bfbfbf" stroke="#bfbfbf" points="228,-706.5 228,-706.5 330,-706.5 330,-706.5 228,-706.5"/>
<polygon fill="none" stroke="#bfbfbf" points="228,-600 228,-739 330,-739 330,-600 228,-600"/>
</a>
</g>
</g>
<!-- Node2&#45;&gt;Node1 -->
<g id="edge1_Node000001_Node000002" class="edge">
<title>Node2&#45;&gt;Node1</title>
<g id="a_edge1_Node000001_Node000002"><a xlink:title=" ">
<path fill="none" stroke="#63b8ff" d="M279,-589.58C279,-581.03 279,-572.19 279,-563.26"/>
<polygon fill="none" stroke="#63b8ff" points="275.5,-589.83 279,-599.83 282.5,-589.83 275.5,-589.83"/>
</a>
</g>
</g>
<!-- Node3 -->
<g id="Node000003" class="node">
<title>Node3</title>
<g id="a_Node000003"><a xlink:href="../../da/dcb/classvanetza_1_1geonet_1_1ConstAccessiblePdu.html" target="_top" xlink:title=" ">
<polygon fill="white" stroke="transparent" points="367,-900 191,-900 191,-776 367,-776 367,-900"/>
<text text-anchor="start" x="196" y="-888" font-family="Helvetica,sans-Serif" font-size="10.00">vanetza::geonet::ConstAccessiblePdu</text>
<text text-anchor="start" x="277" y="-873" font-family="Helvetica,sans-Serif" font-size="10.00"> </text>
<text text-anchor="start" x="208" y="-858" font-family="Helvetica,sans-Serif" font-size="10.00">+</text>
<text text-anchor="start" x="232" y="-858" font-family="Helvetica,sans-Serif" font-size="10.00">basic()</text>
<text text-anchor="start" x="208" y="-843" font-family="Helvetica,sans-Serif" font-size="10.00">+</text>
<text text-anchor="start" x="232" y="-843" font-family="Helvetica,sans-Serif" font-size="10.00">common()</text>
<text text-anchor="start" x="208" y="-828" font-family="Helvetica,sans-Serif" font-size="10.00">+</text>
<text text-anchor="start" x="232" y="-828" font-family="Helvetica,sans-Serif" font-size="10.00">secured()</text>
<text text-anchor="start" x="208" y="-813" font-family="Helvetica,sans-Serif" font-size="10.00">+</text>
<text text-anchor="start" x="232" y="-813" font-family="Helvetica,sans-Serif" font-size="10.00">extended_variant()</text>
<text text-anchor="start" x="208" y="-798" font-family="Helvetica,sans-Serif" font-size="10.00">+</text>
<text text-anchor="start" x="232" y="-798" font-family="Helvetica,sans-Serif" font-size="10.00">clone()</text>
<text text-anchor="start" x="208" y="-783" font-family="Helvetica,sans-Serif" font-size="10.00">+</text>
<text text-anchor="start" x="232" y="-783" font-family="Helvetica,sans-Serif" font-size="10.00">~ConstAccessiblePdu()</text>
<polygon fill="#bfbfbf" stroke="#bfbfbf" points="191,-883 191,-883 367,-883 367,-883 191,-883"/>
<polygon fill="#bfbfbf" stroke="#bfbfbf" points="191,-868 191,-868 367,-868 367,-868 191,-868"/>
<polygon fill="none" stroke="#bfbfbf" points="191,-776 191,-900 367,-900 367,-776 191,-776"/>
</a>
</g>
</g>
<!-- Node3&#45;&gt;Node2 -->
<g id="edge2_Node000002_Node000003" class="edge">
<title>Node3&#45;&gt;Node2</title>
<g id="a_edge2_Node000002_Node000003"><a xlink:title=" ">
<path fill="none" stroke="#63b8ff" d="M279,-765.71C279,-756.9 279,-747.91 279,-739.14"/>
<polygon fill="none" stroke="#63b8ff" points="275.5,-765.95 279,-775.95 282.5,-765.95 275.5,-765.95"/>
</a>
</g>
</g>
</g>
</svg>
