<?xml version="1.0" encoding="UTF-8" standalone="no"?>
<!DOCTYPE svg PUBLIC "-//W3C//DTD SVG 1.1//EN"
 "http://www.w3.org/Graphics/SVG/1.1/DTD/svg11.dtd">
<!-- Generated by graphviz version 2.42.1 (0)
 -->
<!-- Title: vanetza::geonet::ExtendedPdu&lt; HEADER &gt; Pages: 1 -->
<svg width="192pt" height="540pt"
 viewBox="0.00 0.00 192.00 540.00" xmlns="http://www.w3.org/2000/svg" xmlns:xlink="http://www.w3.org/1999/xlink">
<g id="graph0" class="graph" transform="scale(1 1) rotate(0) translate(4 536)">
<title>vanetza::geonet::ExtendedPdu&lt; HEADER &gt;</title>
<polygon fill="white" stroke="transparent" points="-4,4 -4,-536 188,-536 188,4 -4,4"/>
<!-- Node0 -->
<g id="node1" class="node">
<title>Node0</title>
<g id="a_node1"><a xlink:title=" ">
<polygon fill="#bfbfbf" stroke="black" points="25,-0.5 25,-211.5 159,-211.5 159,-0.5 25,-0.5"/>
<text text-anchor="start" x="33" y="-199.5" font-family="Helvetica,sans-Serif" font-size="10.00">vanetza::geonet::Extended</text>
<text text-anchor="middle" x="92" y="-188.5" font-family="Helvetica,sans-Serif" font-size="10.00">Pdu&lt; HEADER &gt;</text>
<polyline fill="none" stroke="black" points="25,-181.5 159,-181.5 "/>
<text text-anchor="start" x="33" y="-169.5" font-family="Helvetica,sans-Serif" font-size="10.00">&#45; m_basic</text>
<text text-anchor="start" x="33" y="-158.5" font-family="Helvetica,sans-Serif" font-size="10.00">&#45; m_common</text>
<text text-anchor="start" x="33" y="-147.5" font-family="Helvetica,sans-Serif" font-size="10.00">&#45; m_extended</text>
<text text-anchor="start" x="33" y="-136.5" font-family="Helvetica,sans-Serif" font-size="10.00">&#45; m_secured</text>
<polyline fill="none" stroke="black" points="25,-129.5 159,-129.5 "/>
<text text-anchor="start" x="33" y="-117.5" font-family="Helvetica,sans-Serif" font-size="10.00">+ ExtendedPdu()</text>
<text text-anchor="start" x="33" y="-106.5" font-family="Helvetica,sans-Serif" font-size="10.00">+ ExtendedPdu()</text>
<text text-anchor="start" x="33" y="-95.5" font-family="Helvetica,sans-Serif" font-size="10.00">+ operator=()</text>
<text text-anchor="start" x="33" y="-84.5" font-family="Helvetica,sans-Serif" font-size="10.00">+ ExtendedPdu()</text>
<text text-anchor="start" x="33" y="-73.5" font-family="Helvetica,sans-Serif" font-size="10.00">+ ExtendedPdu()</text>
<text text-anchor="start" x="33" y="-62.5" font-family="Helvetica,sans-Serif" font-size="10.00">+ ExtendedPdu()</text>
<text text-anchor="start" x="33" y="-51.5" font-family="Helvetica,sans-Serif" font-size="10.00">+ ExtendedPdu()</text>
<text text-anchor="start" x="33" y="-40.5" font-family="Helvetica,sans-Serif" font-size="10.00">+ ExtendedPdu()</text>
<text text-anchor="start" x="33" y="-29.5" font-family="Helvetica,sans-Serif" font-size="10.00">+ basic()</text>
<text text-anchor="start" x="33" y="-18.5" font-family="Helvetica,sans-Serif" font-size="10.00">+ basic()</text>
<text text-anchor="start" x="33" y="-7.5" font-family="Helvetica,sans-Serif" font-size="10.00">and 10 more...</text>
</a>
</g>
</g>
<!-- Node1 -->
<g id="node2" class="node">
<title>Node1</title>
<g id="a_node2"><a xlink:href="../../dc/d8c/classvanetza_1_1geonet_1_1Pdu.html" target="_top" xlink:title=" ">
<polygon fill="white" stroke="black" points="37,-248.5 37,-382.5 147,-382.5 147,-248.5 37,-248.5"/>
<text text-anchor="middle" x="92" y="-370.5" font-family="Helvetica,sans-Serif" font-size="10.00">vanetza::geonet::Pdu</text>
<polyline fill="none" stroke="black" points="37,-363.5 147,-363.5 "/>
<text text-anchor="middle" x="92" y="-351.5" font-family="Helvetica,sans-Serif" font-size="10.00"> </text>
<polyline fill="none" stroke="black" points="37,-344.5 147,-344.5 "/>
<text text-anchor="start" x="45" y="-332.5" font-family="Helvetica,sans-Serif" font-size="10.00">+ basic()</text>
<text text-anchor="start" x="45" y="-321.5" font-family="Helvetica,sans-Serif" font-size="10.00">+ common()</text>
<text text-anchor="start" x="45" y="-310.5" font-family="Helvetica,sans-Serif" font-size="10.00">+ secured()</text>
<text text-anchor="start" x="45" y="-299.5" font-family="Helvetica,sans-Serif" font-size="10.00">+ secured()</text>
<text text-anchor="start" x="45" y="-288.5" font-family="Helvetica,sans-Serif" font-size="10.00">+ secured()</text>
<text text-anchor="start" x="45" y="-277.5" font-family="Helvetica,sans-Serif" font-size="10.00">+ basic()</text>
<text text-anchor="start" x="45" y="-266.5" font-family="Helvetica,sans-Serif" font-size="10.00">+ common()</text>
<text text-anchor="start" x="45" y="-255.5" font-family="Helvetica,sans-Serif" font-size="10.00">+ secured()</text>
</a>
</g>
</g>
<!-- Node1&#45;&gt;Node0 -->
<g id="edge1" class="edge">
<title>Node1&#45;&gt;Node0</title>
<path fill="none" stroke="midnightblue" d="M92,-238.21C92,-229.51 92,-220.53 92,-211.55"/>
<polygon fill="none" stroke="midnightblue" points="88.5,-238.28 92,-248.28 95.5,-238.28 88.5,-238.28"/>
</g>
<!-- Node2 -->
<g id="node3" class="node">
<title>Node2</title>
<g id="a_node3"><a xlink:href="../../da/dcb/classvanetza_1_1geonet_1_1ConstAccessiblePdu.html" target="_top" xlink:title=" ">
<polygon fill="white" stroke="black" points="0,-419.5 0,-531.5 184,-531.5 184,-419.5 0,-419.5"/>
<text text-anchor="middle" x="92" y="-519.5" font-family="Helvetica,sans-Serif" font-size="10.00">vanetza::geonet::ConstAccessiblePdu</text>
<polyline fill="none" stroke="black" points="0,-512.5 184,-512.5 "/>
<text text-anchor="middle" x="92" y="-500.5" font-family="Helvetica,sans-Serif" font-size="10.00"> </text>
<polyline fill="none" stroke="black" points="0,-493.5 184,-493.5 "/>
<text text-anchor="start" x="8" y="-481.5" font-family="Helvetica,sans-Serif" font-size="10.00">+ basic()</text>
<text text-anchor="start" x="8" y="-470.5" font-family="Helvetica,sans-Serif" font-size="10.00">+ common()</text>
<text text-anchor="start" x="8" y="-459.5" font-family="Helvetica,sans-Serif" font-size="10.00">+ secured()</text>
<text text-anchor="start" x="8" y="-448.5" font-family="Helvetica,sans-Serif" font-size="10.00">+ extended_variant()</text>
<text text-anchor="start" x="8" y="-437.5" font-family="Helvetica,sans-Serif" font-size="10.00">+ clone()</text>
<text text-anchor="start" x="8" y="-426.5" font-family="Helvetica,sans-Serif" font-size="10.00">+ ~ConstAccessiblePdu()</text>
</a>
</g>
</g>
<!-- Node2&#45;&gt;Node1 -->
<g id="edge2" class="edge">
<title>Node2&#45;&gt;Node1</title>
<path fill="none" stroke="midnightblue" d="M92,-409.09C92,-400.34 92,-391.35 92,-382.59"/>
<polygon fill="none" stroke="midnightblue" points="88.5,-409.24 92,-419.24 95.5,-409.24 88.5,-409.24"/>
</g>
</g>
</svg>
