<?xml version="1.0" encoding="UTF-8" standalone="no"?>
<!DOCTYPE svg PUBLIC "-//W3C//DTD SVG 1.1//EN"
 "http://www.w3.org/Graphics/SVG/1.1/DTD/svg11.dtd">
<!-- Generated by graphviz version 2.49.3 (0)
 -->
<!-- Title: vanetza::geonet::ExtendedPdu&lt; HEADER &gt; Pages: 1 -->
<svg width="190pt" height="529pt"
 viewBox="0.00 0.00 190.00 529.00" xmlns="http://www.w3.org/2000/svg" xmlns:xlink="http://www.w3.org/1999/xlink">
<g id="graph0" class="graph" transform="scale(1 1) rotate(0) translate(4 525)">
<title>vanetza::geonet::ExtendedPdu&lt; HEADER &gt;</title>
<!-- Node1 -->
<g id="node1" class="node">
<title>Node1</title>
<g id="a_node1"><a xlink:title=" ">
<polygon fill="#999999" stroke="#666666" points="25,-0.5 25,-211.5 157,-211.5 157,-0.5 25,-0.5"/>
<text text-anchor="start" x="33" y="-199.5" font-family="Helvetica,sans-Serif" font-size="10.00">vanetza::geonet::Extended</text>
<text text-anchor="middle" x="91" y="-188.5" font-family="Helvetica,sans-Serif" font-size="10.00">Pdu&lt; HEADER &gt;</text>
<polyline fill="none" stroke="#666666" points="25,-181.5 157,-181.5 "/>
<text text-anchor="start" x="33" y="-169.5" font-family="Helvetica,sans-Serif" font-size="10.00">&#45; m_basic</text>
<text text-anchor="start" x="33" y="-158.5" font-family="Helvetica,sans-Serif" font-size="10.00">&#45; m_common</text>
<text text-anchor="start" x="33" y="-147.5" font-family="Helvetica,sans-Serif" font-size="10.00">&#45; m_extended</text>
<text text-anchor="start" x="33" y="-136.5" font-family="Helvetica,sans-Serif" font-size="10.00">&#45; m_secured</text>
<polyline fill="none" stroke="#666666" points="25,-129.5 157,-129.5 "/>
<text text-anchor="start" x="33" y="-117.5" font-family="Helvetica,sans-Serif" font-size="10.00">+ ExtendedPdu()</text>
<text text-anchor="start" x="33" y="-106.5" font-family="Helvetica,sans-Serif" font-size="10.00">+ ExtendedPdu()</text>
<text text-anchor="start" x="33" y="-95.5" font-family="Helvetica,sans-Serif" font-size="10.00">+ operator=()</text>
<text text-anchor="start" x="33" y="-84.5" font-family="Helvetica,sans-Serif" font-size="10.00">+ ExtendedPdu()</text>
<text text-anchor="start" x="33" y="-73.5" font-family="Helvetica,sans-Serif" font-size="10.00">+ ExtendedPdu()</text>
<text text-anchor="start" x="33" y="-62.5" font-family="Helvetica,sans-Serif" font-size="10.00">+ ExtendedPdu()</text>
<text text-anchor="start" x="33" y="-51.5" font-family="Helvetica,sans-Serif" font-size="10.00">+ ExtendedPdu()</text>
<text text-anchor="start" x="33" y="-40.5" font-family="Helvetica,sans-Serif" font-size="10.00">+ ExtendedPdu()</text>
<text text-anchor="start" x="33" y="-29.5" font-family="Helvetica,sans-Serif" font-size="10.00">+ basic()</text>
<text text-anchor="start" x="33" y="-18.5" font-family="Helvetica,sans-Serif" font-size="10.00">+ basic()</text>
<text text-anchor="start" x="33" y="-7.5" font-family="Helvetica,sans-Serif" font-size="10.00">and 9 more...</text>
</a>
</g>
</g>
<!-- Node2 -->
<g id="node2" class="node">
<title>Node2</title>
<g id="a_node2"><a xlink:href="../../dc/d8c/classvanetza_1_1geonet_1_1Pdu.html" target="_top" xlink:title=" ">
<polygon fill="white" stroke="#bfbfbf" points="37,-248.5 37,-371.5 145,-371.5 145,-248.5 37,-248.5"/>
<text text-anchor="middle" x="91" y="-359.5" font-family="Helvetica,sans-Serif" font-size="10.00">vanetza::geonet::Pdu</text>
<polyline fill="none" stroke="#bfbfbf" points="37,-352.5 145,-352.5 "/>
<text text-anchor="middle" x="91" y="-340.5" font-family="Helvetica,sans-Serif" font-size="10.00"> </text>
<polyline fill="none" stroke="#bfbfbf" points="37,-333.5 145,-333.5 "/>
<text text-anchor="start" x="45" y="-321.5" font-family="Helvetica,sans-Serif" font-size="10.00">+ basic()</text>
<text text-anchor="start" x="45" y="-310.5" font-family="Helvetica,sans-Serif" font-size="10.00">+ common()</text>
<text text-anchor="start" x="45" y="-299.5" font-family="Helvetica,sans-Serif" font-size="10.00">+ secured()</text>
<text text-anchor="start" x="45" y="-288.5" font-family="Helvetica,sans-Serif" font-size="10.00">+ secured()</text>
<text text-anchor="start" x="45" y="-277.5" font-family="Helvetica,sans-Serif" font-size="10.00">+ basic()</text>
<text text-anchor="start" x="45" y="-266.5" font-family="Helvetica,sans-Serif" font-size="10.00">+ common()</text>
<text text-anchor="start" x="45" y="-255.5" font-family="Helvetica,sans-Serif" font-size="10.00">+ secured()</text>
</a>
</g>
</g>
<!-- Node2&#45;&gt;Node1 -->
<g id="edge1" class="edge">
<title>Node2&#45;&gt;Node1</title>
<path fill="none" stroke="#63b8ff" d="M91,-238.12C91,-229.55 91,-220.67 91,-211.74"/>
<polygon fill="none" stroke="#63b8ff" points="87.5,-238.39 91,-248.39 94.5,-238.39 87.5,-238.39"/>
</g>
<!-- Node3 -->
<g id="node3" class="node">
<title>Node3</title>
<g id="a_node3"><a xlink:href="../../da/dcb/classvanetza_1_1geonet_1_1ConstAccessiblePdu.html" target="_top" xlink:title=" ">
<polygon fill="white" stroke="#bfbfbf" points="0,-408.5 0,-520.5 182,-520.5 182,-408.5 0,-408.5"/>
<text text-anchor="middle" x="91" y="-508.5" font-family="Helvetica,sans-Serif" font-size="10.00">vanetza::geonet::ConstAccessiblePdu</text>
<polyline fill="none" stroke="#bfbfbf" points="0,-501.5 182,-501.5 "/>
<text text-anchor="middle" x="91" y="-489.5" font-family="Helvetica,sans-Serif" font-size="10.00"> </text>
<polyline fill="none" stroke="#bfbfbf" points="0,-482.5 182,-482.5 "/>
<text text-anchor="start" x="8" y="-470.5" font-family="Helvetica,sans-Serif" font-size="10.00">+ basic()</text>
<text text-anchor="start" x="8" y="-459.5" font-family="Helvetica,sans-Serif" font-size="10.00">+ common()</text>
<text text-anchor="start" x="8" y="-448.5" font-family="Helvetica,sans-Serif" font-size="10.00">+ secured()</text>
<text text-anchor="start" x="8" y="-437.5" font-family="Helvetica,sans-Serif" font-size="10.00">+ extended_variant()</text>
<text text-anchor="start" x="8" y="-426.5" font-family="Helvetica,sans-Serif" font-size="10.00">+ clone()</text>
<text text-anchor="start" x="8" y="-415.5" font-family="Helvetica,sans-Serif" font-size="10.00">+ ~ConstAccessiblePdu()</text>
</a>
</g>
</g>
<!-- Node3&#45;&gt;Node2 -->
<g id="edge2" class="edge">
<title>Node3&#45;&gt;Node2</title>
<path fill="none" stroke="#63b8ff" d="M91,-398.22C91,-389.4 91,-380.39 91,-371.66"/>
<polygon fill="none" stroke="#63b8ff" points="87.5,-398.44 91,-408.44 94.5,-398.44 87.5,-398.44"/>
</g>
</g>
</svg>
