<?xml version="1.0" encoding="UTF-8" standalone="no"?>
<!DOCTYPE svg PUBLIC "-//W3C//DTD SVG 1.1//EN"
 "http://www.w3.org/Graphics/SVG/1.1/DTD/svg11.dtd">
<!-- Generated by graphviz version 2.49.3 (0)
 -->
<!-- Title: vanetza::asn1::Ssem Pages: 1 -->
<svg width="288pt" height="859pt"
 viewBox="0.00 0.00 288.00 859.00" xmlns="http://www.w3.org/2000/svg" xmlns:xlink="http://www.w3.org/1999/xlink">
<g id="graph0" class="graph" transform="scale(1 1) rotate(0) translate(4 855)">
<title>vanetza::asn1::Ssem</title>
<!-- Node1 -->
<g id="Node000001" class="node">
<title>Node1</title>
<g id="a_Node000001"><a xlink:title=" ">
<polygon fill="#999999" stroke="transparent" points="164.5,-49 61.5,-49 61.5,0 164.5,0 164.5,-49"/>
<text text-anchor="start" x="67" y="-36.5" font-family="Helvetica,sans-Serif" font-size="10.00">vanetza::asn1::Ssem</text>
<text text-anchor="start" x="111.5" y="-21.5" font-family="Helvetica,sans-Serif" font-size="10.00"> </text>
<text text-anchor="start" x="79" y="-6.5" font-family="Helvetica,sans-Serif" font-size="10.00">+</text>
<text text-anchor="start" x="103" y="-6.5" font-family="Helvetica,sans-Serif" font-size="10.00">Ssem()</text>
<polygon fill="#666666" stroke="#666666" points="62,-31.5 62,-31.5 165,-31.5 165,-31.5 62,-31.5"/>
<polygon fill="#666666" stroke="#666666" points="62,-16.5 62,-16.5 165,-16.5 165,-16.5 62,-16.5"/>
<polygon fill="none" stroke="#666666" points="61.5,0 61.5,-49 164.5,-49 164.5,0 61.5,0"/>
</a>
</g>
</g>
<!-- Node2 -->
<g id="Node000002" class="node">
<title>Node2</title>
<g id="a_Node000002"><a xlink:href="../../dc/dbf/classvanetza_1_1asn1_1_1asn1c__per__wrapper.html" target="_top" xlink:title=" ">
<polygon fill="white" stroke="transparent" points="175,-311 51,-311 51,-86 175,-86 175,-311"/>
<text text-anchor="start" x="56" y="-298.5" font-family="Helvetica,sans-Serif" font-size="10.00">vanetza::asn1::asn1c</text>
<text text-anchor="start" x="56" y="-287.5" font-family="Helvetica,sans-Serif" font-size="10.00">_per_wrapper&lt; SSEM_t &gt;</text>
<text text-anchor="start" x="67" y="-272.5" font-family="Helvetica,sans-Serif" font-size="10.00">#</text>
<text text-anchor="start" x="89" y="-272.5" font-family="Helvetica,sans-Serif" font-size="10.00">m_struct</text>
<text text-anchor="start" x="67" y="-257.5" font-family="Helvetica,sans-Serif" font-size="10.00">#</text>
<text text-anchor="start" x="89" y="-257.5" font-family="Helvetica,sans-Serif" font-size="10.00">m_type</text>
<text text-anchor="start" x="66.5" y="-242.5" font-family="Helvetica,sans-Serif" font-size="10.00">+</text>
<text text-anchor="start" x="89" y="-242.5" font-family="Helvetica,sans-Serif" font-size="10.00">encode()</text>
<text text-anchor="start" x="66.5" y="-227.5" font-family="Helvetica,sans-Serif" font-size="10.00">+</text>
<text text-anchor="start" x="89" y="-227.5" font-family="Helvetica,sans-Serif" font-size="10.00">decode()</text>
<text text-anchor="start" x="66.5" y="-212.5" font-family="Helvetica,sans-Serif" font-size="10.00">+</text>
<text text-anchor="start" x="89" y="-212.5" font-family="Helvetica,sans-Serif" font-size="10.00">decode()</text>
<text text-anchor="start" x="66.5" y="-197.5" font-family="Helvetica,sans-Serif" font-size="10.00">+</text>
<text text-anchor="start" x="89" y="-197.5" font-family="Helvetica,sans-Serif" font-size="10.00">decode()</text>
<text text-anchor="start" x="66.5" y="-182.5" font-family="Helvetica,sans-Serif" font-size="10.00">+</text>
<text text-anchor="start" x="89" y="-182.5" font-family="Helvetica,sans-Serif" font-size="10.00">size()</text>
<text text-anchor="start" x="66.5" y="-167.5" font-family="Helvetica,sans-Serif" font-size="10.00">+</text>
<text text-anchor="start" x="89" y="-167.5" font-family="Helvetica,sans-Serif" font-size="10.00">operator*()</text>
<text text-anchor="start" x="66.5" y="-152.5" font-family="Helvetica,sans-Serif" font-size="10.00">+</text>
<text text-anchor="start" x="89" y="-152.5" font-family="Helvetica,sans-Serif" font-size="10.00">operator*()</text>
<text text-anchor="start" x="66.5" y="-137.5" font-family="Helvetica,sans-Serif" font-size="10.00">+</text>
<text text-anchor="start" x="89" y="-137.5" font-family="Helvetica,sans-Serif" font-size="10.00">operator&#45;&gt;()</text>
<text text-anchor="start" x="66.5" y="-122.5" font-family="Helvetica,sans-Serif" font-size="10.00">+</text>
<text text-anchor="start" x="89" y="-122.5" font-family="Helvetica,sans-Serif" font-size="10.00">operator&#45;&gt;()</text>
<text text-anchor="start" x="66.5" y="-107.5" font-family="Helvetica,sans-Serif" font-size="10.00">+</text>
<text text-anchor="start" x="89" y="-107.5" font-family="Helvetica,sans-Serif" font-size="10.00">content()</text>
<text text-anchor="start" x="89" y="-92.5" font-family="Helvetica,sans-Serif" font-size="10.00">and 9 more...</text>
<polygon fill="#bfbfbf" stroke="#bfbfbf" points="51,-282.5 51,-282.5 175,-282.5 175,-282.5 51,-282.5"/>
<polygon fill="#bfbfbf" stroke="#bfbfbf" points="51,-252.5 51,-252.5 87,-252.5 87,-252.5 51,-252.5"/>
<polygon fill="#bfbfbf" stroke="#bfbfbf" points="87,-252.5 87,-252.5 175,-252.5 175,-252.5 87,-252.5"/>
<polygon fill="none" stroke="#bfbfbf" points="51,-86 51,-311 175,-311 175,-86 51,-86"/>
</a>
</g>
</g>
<!-- Node2&#45;&gt;Node1 -->
<g id="edge1_Node000001_Node000002" class="edge">
<title>Node2&#45;&gt;Node1</title>
<g id="a_edge1_Node000001_Node000002"><a xlink:title=" ">
<path fill="none" stroke="#63b8ff" d="M113,-75.35C113,-65.7 113,-56.78 113,-49.25"/>
<polygon fill="none" stroke="#63b8ff" points="109.5,-75.66 113,-85.66 116.5,-75.66 109.5,-75.66"/>
</a>
</g>
</g>
<!-- Node3 -->
<g id="Node000003" class="node">
<title>Node3</title>
<g id="a_Node000003"><a xlink:href="../../d0/d68/classvanetza_1_1asn1_1_1asn1c__wrapper__common.html" target="_top" xlink:title=" ">
<polygon fill="white" stroke="transparent" points="140,-589 0,-589 0,-364 140,-364 140,-589"/>
<text text-anchor="start" x="16.5" y="-576.5" font-family="Helvetica,sans-Serif" font-size="10.00">vanetza::asn1::asn1c</text>
<text text-anchor="start" x="16.5" y="-565.5" font-family="Helvetica,sans-Serif" font-size="10.00">_wrapper_common&lt; T &gt;</text>
<text text-anchor="start" x="4.5" y="-550.5" font-family="Helvetica,sans-Serif" font-size="10.00">#</text>
<text text-anchor="start" x="15" y="-550.5" font-family="Helvetica,sans-Serif" font-size="10.00">m_struct</text>
<text text-anchor="start" x="4.5" y="-535.5" font-family="Helvetica,sans-Serif" font-size="10.00">#</text>
<text text-anchor="start" x="15" y="-535.5" font-family="Helvetica,sans-Serif" font-size="10.00">m_type</text>
<text text-anchor="start" x="4" y="-520.5" font-family="Helvetica,sans-Serif" font-size="10.00">+</text>
<text text-anchor="start" x="15" y="-520.5" font-family="Helvetica,sans-Serif" font-size="10.00">asn1c_wrapper_common()</text>
<text text-anchor="start" x="4" y="-505.5" font-family="Helvetica,sans-Serif" font-size="10.00">+</text>
<text text-anchor="start" x="15" y="-505.5" font-family="Helvetica,sans-Serif" font-size="10.00">asn1c_wrapper_common()</text>
<text text-anchor="start" x="4" y="-490.5" font-family="Helvetica,sans-Serif" font-size="10.00">+</text>
<text text-anchor="start" x="15" y="-490.5" font-family="Helvetica,sans-Serif" font-size="10.00">~asn1c_wrapper_common()</text>
<text text-anchor="start" x="4" y="-475.5" font-family="Helvetica,sans-Serif" font-size="10.00">+</text>
<text text-anchor="start" x="15" y="-475.5" font-family="Helvetica,sans-Serif" font-size="10.00">asn1c_wrapper_common()</text>
<text text-anchor="start" x="4" y="-460.5" font-family="Helvetica,sans-Serif" font-size="10.00">+</text>
<text text-anchor="start" x="15" y="-460.5" font-family="Helvetica,sans-Serif" font-size="10.00">operator=()</text>
<text text-anchor="start" x="4" y="-445.5" font-family="Helvetica,sans-Serif" font-size="10.00">+</text>
<text text-anchor="start" x="15" y="-445.5" font-family="Helvetica,sans-Serif" font-size="10.00">asn1c_wrapper_common()</text>
<text text-anchor="start" x="4" y="-430.5" font-family="Helvetica,sans-Serif" font-size="10.00">+</text>
<text text-anchor="start" x="15" y="-430.5" font-family="Helvetica,sans-Serif" font-size="10.00">operator=()</text>
<text text-anchor="start" x="4" y="-415.5" font-family="Helvetica,sans-Serif" font-size="10.00">+</text>
<text text-anchor="start" x="15" y="-415.5" font-family="Helvetica,sans-Serif" font-size="10.00">operator*()</text>
<text text-anchor="start" x="4" y="-400.5" font-family="Helvetica,sans-Serif" font-size="10.00">+</text>
<text text-anchor="start" x="15" y="-400.5" font-family="Helvetica,sans-Serif" font-size="10.00">operator&#45;&gt;()</text>
<text text-anchor="start" x="4" y="-385.5" font-family="Helvetica,sans-Serif" font-size="10.00">+</text>
<text text-anchor="start" x="15" y="-385.5" font-family="Helvetica,sans-Serif" font-size="10.00">operator*()</text>
<text text-anchor="start" x="15" y="-370.5" font-family="Helvetica,sans-Serif" font-size="10.00">and 11 more...</text>
<polygon fill="#bfbfbf" stroke="#bfbfbf" points="0,-560.5 0,-560.5 140,-560.5 140,-560.5 0,-560.5"/>
<polygon fill="#bfbfbf" stroke="#bfbfbf" points="0,-530.5 0,-530.5 13,-530.5 13,-530.5 0,-530.5"/>
<polygon fill="#bfbfbf" stroke="#bfbfbf" points="13,-530.5 13,-530.5 140,-530.5 140,-530.5 13,-530.5"/>
<polygon fill="none" stroke="#bfbfbf" points="0,-364 0,-589 140,-589 140,-364 0,-364"/>
</a>
</g>
</g>
<!-- Node3&#45;&gt;Node2 -->
<g id="edge2_Node000002_Node000003" class="edge">
<title>Node3&#45;&gt;Node2</title>
<g id="a_edge2_Node000002_Node000003"><a xlink:title=" ">
<path fill="none" stroke="#63b8ff" d="M89.02,-353.42C91.21,-339.33 93.44,-325.02 95.62,-311.07"/>
<polygon fill="none" stroke="#63b8ff" points="85.51,-353.22 87.43,-363.64 92.43,-354.3 85.51,-353.22"/>
</a>
</g>
</g>
<!-- Node4 -->
<g id="Node000004" class="node">
<title>Node4</title>
<g id="a_Node000004"><a xlink:href="../../dc/dbf/classvanetza_1_1asn1_1_1asn1c__per__wrapper.html" target="_top" xlink:title=" ">
<polygon fill="white" stroke="transparent" points="262,-536.5 158,-536.5 158,-416.5 262,-416.5 262,-536.5"/>
<text text-anchor="start" x="163" y="-524.5" font-family="Helvetica,sans-Serif" font-size="10.00">vanetza::asn1::asn1c</text>
<text text-anchor="start" x="168.5" y="-513.5" font-family="Helvetica,sans-Serif" font-size="10.00">_per_wrapper&lt; T &gt;</text>
<text text-anchor="start" x="208" y="-498.5" font-family="Helvetica,sans-Serif" font-size="10.00"> </text>
<text text-anchor="start" x="173.5" y="-483.5" font-family="Helvetica,sans-Serif" font-size="10.00">+</text>
<text text-anchor="start" x="196" y="-483.5" font-family="Helvetica,sans-Serif" font-size="10.00">encode()</text>
<text text-anchor="start" x="173.5" y="-468.5" font-family="Helvetica,sans-Serif" font-size="10.00">+</text>
<text text-anchor="start" x="196" y="-468.5" font-family="Helvetica,sans-Serif" font-size="10.00">decode()</text>
<text text-anchor="start" x="173.5" y="-453.5" font-family="Helvetica,sans-Serif" font-size="10.00">+</text>
<text text-anchor="start" x="196" y="-453.5" font-family="Helvetica,sans-Serif" font-size="10.00">decode()</text>
<text text-anchor="start" x="173.5" y="-438.5" font-family="Helvetica,sans-Serif" font-size="10.00">+</text>
<text text-anchor="start" x="196" y="-438.5" font-family="Helvetica,sans-Serif" font-size="10.00">decode()</text>
<text text-anchor="start" x="173.5" y="-423.5" font-family="Helvetica,sans-Serif" font-size="10.00">+</text>
<text text-anchor="start" x="196" y="-423.5" font-family="Helvetica,sans-Serif" font-size="10.00">size()</text>
<polygon fill="#bfbfbf" stroke="#bfbfbf" points="158,-508.5 158,-508.5 262,-508.5 262,-508.5 158,-508.5"/>
<polygon fill="#bfbfbf" stroke="#bfbfbf" points="158,-493.5 158,-493.5 262,-493.5 262,-493.5 158,-493.5"/>
<polygon fill="none" stroke="#bfbfbf" points="158,-416.5 158,-536.5 262,-536.5 262,-416.5 158,-416.5"/>
</a>
</g>
</g>
<!-- Node4&#45;&gt;Node2 -->
<g id="edge3_Node000002_Node000004" class="edge">
<title>Node4&#45;&gt;Node2</title>
<g id="a_edge3_Node000002_Node000004"><a xlink:title=" ">
<path fill="none" stroke="orange" d="M185.83,-406.72C175.68,-377.86 163.62,-343.54 152.26,-311.22"/>
<polygon fill="orange" stroke="orange" points="182.57,-408.02 189.19,-416.29 189.18,-405.7 182.57,-408.02"/>
</a>
</g>
<text text-anchor="start" x="167.5" y="-334.5" font-family="Helvetica,sans-Serif" font-size="10.00" fill="grey">&lt; SSEM_t &gt;</text>
</g>
<!-- Node5 -->
<g id="Node000005" class="node">
<title>Node5</title>
<g id="a_Node000005"><a xlink:href="../../d0/d68/classvanetza_1_1asn1_1_1asn1c__wrapper__common.html" target="_top" xlink:title=" ">
<polygon fill="white" stroke="transparent" points="280,-851 140,-851 140,-626 280,-626 280,-851"/>
<text text-anchor="start" x="156.5" y="-838.5" font-family="Helvetica,sans-Serif" font-size="10.00">vanetza::asn1::asn1c</text>
<text text-anchor="start" x="156.5" y="-827.5" font-family="Helvetica,sans-Serif" font-size="10.00">_wrapper_common&lt; T &gt;</text>
<text text-anchor="start" x="144.5" y="-812.5" font-family="Helvetica,sans-Serif" font-size="10.00">#</text>
<text text-anchor="start" x="155" y="-812.5" font-family="Helvetica,sans-Serif" font-size="10.00">m_struct</text>
<text text-anchor="start" x="144.5" y="-797.5" font-family="Helvetica,sans-Serif" font-size="10.00">#</text>
<text text-anchor="start" x="155" y="-797.5" font-family="Helvetica,sans-Serif" font-size="10.00">m_type</text>
<text text-anchor="start" x="144" y="-782.5" font-family="Helvetica,sans-Serif" font-size="10.00">+</text>
<text text-anchor="start" x="155" y="-782.5" font-family="Helvetica,sans-Serif" font-size="10.00">asn1c_wrapper_common()</text>
<text text-anchor="start" x="144" y="-767.5" font-family="Helvetica,sans-Serif" font-size="10.00">+</text>
<text text-anchor="start" x="155" y="-767.5" font-family="Helvetica,sans-Serif" font-size="10.00">asn1c_wrapper_common()</text>
<text text-anchor="start" x="144" y="-752.5" font-family="Helvetica,sans-Serif" font-size="10.00">+</text>
<text text-anchor="start" x="155" y="-752.5" font-family="Helvetica,sans-Serif" font-size="10.00">~asn1c_wrapper_common()</text>
<text text-anchor="start" x="144" y="-737.5" font-family="Helvetica,sans-Serif" font-size="10.00">+</text>
<text text-anchor="start" x="155" y="-737.5" font-family="Helvetica,sans-Serif" font-size="10.00">asn1c_wrapper_common()</text>
<text text-anchor="start" x="144" y="-722.5" font-family="Helvetica,sans-Serif" font-size="10.00">+</text>
<text text-anchor="start" x="155" y="-722.5" font-family="Helvetica,sans-Serif" font-size="10.00">operator=()</text>
<text text-anchor="start" x="144" y="-707.5" font-family="Helvetica,sans-Serif" font-size="10.00">+</text>
<text text-anchor="start" x="155" y="-707.5" font-family="Helvetica,sans-Serif" font-size="10.00">asn1c_wrapper_common()</text>
<text text-anchor="start" x="144" y="-692.5" font-family="Helvetica,sans-Serif" font-size="10.00">+</text>
<text text-anchor="start" x="155" y="-692.5" font-family="Helvetica,sans-Serif" font-size="10.00">operator=()</text>
<text text-anchor="start" x="144" y="-677.5" font-family="Helvetica,sans-Serif" font-size="10.00">+</text>
<text text-anchor="start" x="155" y="-677.5" font-family="Helvetica,sans-Serif" font-size="10.00">operator*()</text>
<text text-anchor="start" x="144" y="-662.5" font-family="Helvetica,sans-Serif" font-size="10.00">+</text>
<text text-anchor="start" x="155" y="-662.5" font-family="Helvetica,sans-Serif" font-size="10.00">operator&#45;&gt;()</text>
<text text-anchor="start" x="144" y="-647.5" font-family="Helvetica,sans-Serif" font-size="10.00">+</text>
<text text-anchor="start" x="155" y="-647.5" font-family="Helvetica,sans-Serif" font-size="10.00">operator*()</text>
<text text-anchor="start" x="155" y="-632.5" font-family="Helvetica,sans-Serif" font-size="10.00">and 11 more...</text>
<polygon fill="#bfbfbf" stroke="#bfbfbf" points="140,-822.5 140,-822.5 280,-822.5 280,-822.5 140,-822.5"/>
<polygon fill="#bfbfbf" stroke="#bfbfbf" points="140,-792.5 140,-792.5 153,-792.5 153,-792.5 140,-792.5"/>
<polygon fill="#bfbfbf" stroke="#bfbfbf" points="153,-792.5 153,-792.5 280,-792.5 280,-792.5 153,-792.5"/>
<polygon fill="none" stroke="#bfbfbf" points="140,-626 140,-851 280,-851 280,-626 140,-626"/>
</a>
</g>
</g>
<!-- Node5&#45;&gt;Node4 -->
<g id="edge4_Node000004_Node000005" class="edge">
<title>Node5&#45;&gt;Node4</title>
<g id="a_edge4_Node000004_Node000005"><a xlink:title=" ">
<path fill="none" stroke="#63b8ff" d="M210,-615.62C210,-588.09 210,-560.07 210,-536.53"/>
<polygon fill="none" stroke="#63b8ff" points="206.5,-615.73 210,-625.73 213.5,-615.73 206.5,-615.73"/>
</a>
</g>
</g>
</g>
</svg>
