<?xml version="1.0" encoding="UTF-8" standalone="no"?>
<!DOCTYPE svg PUBLIC "-//W3C//DTD SVG 1.1//EN"
 "http://www.w3.org/Graphics/SVG/1.1/DTD/svg11.dtd">
<!-- Generated by graphviz version 2.42.1 (0)
 -->
<!-- Title: vanetza::geonet::VariantPdu Pages: 1 -->
<svg width="192pt" height="562pt"
 viewBox="0.00 0.00 192.00 562.00" xmlns="http://www.w3.org/2000/svg" xmlns:xlink="http://www.w3.org/1999/xlink">
<g id="graph0" class="graph" transform="scale(1 1) rotate(0) translate(4 558)">
<title>vanetza::geonet::VariantPdu</title>
<polygon fill="white" stroke="transparent" points="-4,4 -4,-558 188,-558 188,4 -4,4"/>
<!-- Node0 -->
<g id="node1" class="node">
<title>Node0</title>
<g id="a_node1"><a xlink:title=" ">
<polygon fill="#bfbfbf" stroke="black" points="22,-0.5 22,-233.5 162,-233.5 162,-0.5 22,-0.5"/>
<text text-anchor="middle" x="92" y="-221.5" font-family="Helvetica,sans-Serif" font-size="10.00">vanetza::geonet::VariantPdu</text>
<polyline fill="none" stroke="black" points="22,-214.5 162,-214.5 "/>
<text text-anchor="start" x="30" y="-202.5" font-family="Helvetica,sans-Serif" font-size="10.00">&#45; m_basic</text>
<text text-anchor="start" x="30" y="-191.5" font-family="Helvetica,sans-Serif" font-size="10.00">&#45; m_common</text>
<text text-anchor="start" x="30" y="-180.5" font-family="Helvetica,sans-Serif" font-size="10.00">&#45; m_extended</text>
<text text-anchor="start" x="30" y="-169.5" font-family="Helvetica,sans-Serif" font-size="10.00">&#45; m_secured</text>
<polyline fill="none" stroke="black" points="22,-162.5 162,-162.5 "/>
<text text-anchor="start" x="30" y="-150.5" font-family="Helvetica,sans-Serif" font-size="10.00">+ VariantPdu()</text>
<text text-anchor="start" x="30" y="-139.5" font-family="Helvetica,sans-Serif" font-size="10.00">+ VariantPdu()</text>
<text text-anchor="start" x="30" y="-128.5" font-family="Helvetica,sans-Serif" font-size="10.00">+ operator=()</text>
<text text-anchor="start" x="30" y="-117.5" font-family="Helvetica,sans-Serif" font-size="10.00">+ basic()</text>
<text text-anchor="start" x="30" y="-106.5" font-family="Helvetica,sans-Serif" font-size="10.00">+ basic()</text>
<text text-anchor="start" x="30" y="-95.5" font-family="Helvetica,sans-Serif" font-size="10.00">+ common()</text>
<text text-anchor="start" x="30" y="-84.5" font-family="Helvetica,sans-Serif" font-size="10.00">+ common()</text>
<text text-anchor="start" x="30" y="-73.5" font-family="Helvetica,sans-Serif" font-size="10.00">+ extended_variant()</text>
<text text-anchor="start" x="30" y="-62.5" font-family="Helvetica,sans-Serif" font-size="10.00">+ extended_variant()</text>
<text text-anchor="start" x="30" y="-51.5" font-family="Helvetica,sans-Serif" font-size="10.00">+ secured()</text>
<text text-anchor="start" x="30" y="-40.5" font-family="Helvetica,sans-Serif" font-size="10.00">+ secured()</text>
<text text-anchor="start" x="30" y="-29.5" font-family="Helvetica,sans-Serif" font-size="10.00">+ secured()</text>
<text text-anchor="start" x="30" y="-18.5" font-family="Helvetica,sans-Serif" font-size="10.00">+ secured()</text>
<text text-anchor="start" x="30" y="-7.5" font-family="Helvetica,sans-Serif" font-size="10.00">+ clone()</text>
</a>
</g>
</g>
<!-- Node1 -->
<g id="node2" class="node">
<title>Node1</title>
<g id="a_node2"><a xlink:href="../../dc/d8c/classvanetza_1_1geonet_1_1Pdu.html" target="_top" xlink:title=" ">
<polygon fill="white" stroke="black" points="37,-270.5 37,-404.5 147,-404.5 147,-270.5 37,-270.5"/>
<text text-anchor="middle" x="92" y="-392.5" font-family="Helvetica,sans-Serif" font-size="10.00">vanetza::geonet::Pdu</text>
<polyline fill="none" stroke="black" points="37,-385.5 147,-385.5 "/>
<text text-anchor="middle" x="92" y="-373.5" font-family="Helvetica,sans-Serif" font-size="10.00"> </text>
<polyline fill="none" stroke="black" points="37,-366.5 147,-366.5 "/>
<text text-anchor="start" x="45" y="-354.5" font-family="Helvetica,sans-Serif" font-size="10.00">+ basic()</text>
<text text-anchor="start" x="45" y="-343.5" font-family="Helvetica,sans-Serif" font-size="10.00">+ common()</text>
<text text-anchor="start" x="45" y="-332.5" font-family="Helvetica,sans-Serif" font-size="10.00">+ secured()</text>
<text text-anchor="start" x="45" y="-321.5" font-family="Helvetica,sans-Serif" font-size="10.00">+ secured()</text>
<text text-anchor="start" x="45" y="-310.5" font-family="Helvetica,sans-Serif" font-size="10.00">+ secured()</text>
<text text-anchor="start" x="45" y="-299.5" font-family="Helvetica,sans-Serif" font-size="10.00">+ basic()</text>
<text text-anchor="start" x="45" y="-288.5" font-family="Helvetica,sans-Serif" font-size="10.00">+ common()</text>
<text text-anchor="start" x="45" y="-277.5" font-family="Helvetica,sans-Serif" font-size="10.00">+ secured()</text>
</a>
</g>
</g>
<!-- Node1&#45;&gt;Node0 -->
<g id="edge1" class="edge">
<title>Node1&#45;&gt;Node0</title>
<path fill="none" stroke="midnightblue" d="M92,-260.32C92,-251.65 92,-242.67 92,-233.63"/>
<polygon fill="none" stroke="midnightblue" points="88.5,-260.35 92,-270.35 95.5,-260.35 88.5,-260.35"/>
</g>
<!-- Node2 -->
<g id="node3" class="node">
<title>Node2</title>
<g id="a_node3"><a xlink:href="../../da/dcb/classvanetza_1_1geonet_1_1ConstAccessiblePdu.html" target="_top" xlink:title=" ">
<polygon fill="white" stroke="black" points="0,-441.5 0,-553.5 184,-553.5 184,-441.5 0,-441.5"/>
<text text-anchor="middle" x="92" y="-541.5" font-family="Helvetica,sans-Serif" font-size="10.00">vanetza::geonet::ConstAccessiblePdu</text>
<polyline fill="none" stroke="black" points="0,-534.5 184,-534.5 "/>
<text text-anchor="middle" x="92" y="-522.5" font-family="Helvetica,sans-Serif" font-size="10.00"> </text>
<polyline fill="none" stroke="black" points="0,-515.5 184,-515.5 "/>
<text text-anchor="start" x="8" y="-503.5" font-family="Helvetica,sans-Serif" font-size="10.00">+ basic()</text>
<text text-anchor="start" x="8" y="-492.5" font-family="Helvetica,sans-Serif" font-size="10.00">+ common()</text>
<text text-anchor="start" x="8" y="-481.5" font-family="Helvetica,sans-Serif" font-size="10.00">+ secured()</text>
<text text-anchor="start" x="8" y="-470.5" font-family="Helvetica,sans-Serif" font-size="10.00">+ extended_variant()</text>
<text text-anchor="start" x="8" y="-459.5" font-family="Helvetica,sans-Serif" font-size="10.00">+ clone()</text>
<text text-anchor="start" x="8" y="-448.5" font-family="Helvetica,sans-Serif" font-size="10.00">+ ~ConstAccessiblePdu()</text>
</a>
</g>
</g>
<!-- Node2&#45;&gt;Node1 -->
<g id="edge2" class="edge">
<title>Node2&#45;&gt;Node1</title>
<path fill="none" stroke="midnightblue" d="M92,-431.09C92,-422.34 92,-413.35 92,-404.59"/>
<polygon fill="none" stroke="midnightblue" points="88.5,-431.24 92,-441.24 95.5,-431.24 88.5,-431.24"/>
</g>
</g>
</svg>
