<?xml version="1.0" encoding="UTF-8" standalone="no"?>
<!DOCTYPE svg PUBLIC "-//W3C//DTD SVG 1.1//EN"
 "http://www.w3.org/Graphics/SVG/1.1/DTD/svg11.dtd">
<!-- Generated by graphviz version 14.1.2 (0)
 -->
<!-- Title: vanetza::geonet::VariantPdu Pages: 1 -->
<svg width="198pt" height="645pt"
 viewBox="0.00 0.00 198.00 645.00" xmlns="http://www.w3.org/2000/svg" xmlns:xlink="http://www.w3.org/1999/xlink">
<g id="graph0" class="graph" transform="scale(1 1) rotate(0) translate(4 640.75)">
<title>vanetza::geonet::VariantPdu</title>
<!-- Node1 -->
<g id="Node000001" class="node">
<title>Node1</title>
<g id="a_Node000001"><a xlink:title=" ">
<polygon fill="#999999" stroke="none" points="167.75,-272 22.5,-272 22.5,0 167.75,0 167.75,-272"/>
<text xml:space="preserve" text-anchor="start" x="26.5" y="-258.5" font-family="Helvetica,sans-Serif" font-size="10.00">vanetza::geonet::VariantPdu</text>
<text xml:space="preserve" text-anchor="start" x="36.75" y="-241.75" font-family="Helvetica,sans-Serif" font-size="10.00">&#45;</text>
<text xml:space="preserve" text-anchor="start" x="54.75" y="-241.75" font-family="Helvetica,sans-Serif" font-size="10.00">m_basic</text>
<text xml:space="preserve" text-anchor="start" x="36.75" y="-225" font-family="Helvetica,sans-Serif" font-size="10.00">&#45;</text>
<text xml:space="preserve" text-anchor="start" x="54.75" y="-225" font-family="Helvetica,sans-Serif" font-size="10.00">m_common</text>
<text xml:space="preserve" text-anchor="start" x="36.75" y="-208.25" font-family="Helvetica,sans-Serif" font-size="10.00">&#45;</text>
<text xml:space="preserve" text-anchor="start" x="54.75" y="-208.25" font-family="Helvetica,sans-Serif" font-size="10.00">m_extended</text>
<text xml:space="preserve" text-anchor="start" x="36.75" y="-191.5" font-family="Helvetica,sans-Serif" font-size="10.00">&#45;</text>
<text xml:space="preserve" text-anchor="start" x="54.75" y="-191.5" font-family="Helvetica,sans-Serif" font-size="10.00">m_secured</text>
<text xml:space="preserve" text-anchor="start" x="34.5" y="-174.75" font-family="Helvetica,sans-Serif" font-size="10.00">+</text>
<text xml:space="preserve" text-anchor="start" x="54.75" y="-174.75" font-family="Helvetica,sans-Serif" font-size="10.00">VariantPdu()</text>
<text xml:space="preserve" text-anchor="start" x="34.5" y="-158" font-family="Helvetica,sans-Serif" font-size="10.00">+</text>
<text xml:space="preserve" text-anchor="start" x="54.75" y="-158" font-family="Helvetica,sans-Serif" font-size="10.00">VariantPdu()</text>
<text xml:space="preserve" text-anchor="start" x="34.5" y="-141.25" font-family="Helvetica,sans-Serif" font-size="10.00">+</text>
<text xml:space="preserve" text-anchor="start" x="54.75" y="-141.25" font-family="Helvetica,sans-Serif" font-size="10.00">operator=()</text>
<text xml:space="preserve" text-anchor="start" x="34.5" y="-124.5" font-family="Helvetica,sans-Serif" font-size="10.00">+</text>
<text xml:space="preserve" text-anchor="start" x="54.75" y="-124.5" font-family="Helvetica,sans-Serif" font-size="10.00">VariantPdu()</text>
<text xml:space="preserve" text-anchor="start" x="34.5" y="-107.75" font-family="Helvetica,sans-Serif" font-size="10.00">+</text>
<text xml:space="preserve" text-anchor="start" x="54.75" y="-107.75" font-family="Helvetica,sans-Serif" font-size="10.00">operator=()</text>
<text xml:space="preserve" text-anchor="start" x="34.5" y="-91" font-family="Helvetica,sans-Serif" font-size="10.00">+</text>
<text xml:space="preserve" text-anchor="start" x="54.75" y="-91" font-family="Helvetica,sans-Serif" font-size="10.00">basic()</text>
<text xml:space="preserve" text-anchor="start" x="34.5" y="-74.25" font-family="Helvetica,sans-Serif" font-size="10.00">+</text>
<text xml:space="preserve" text-anchor="start" x="54.75" y="-74.25" font-family="Helvetica,sans-Serif" font-size="10.00">basic()</text>
<text xml:space="preserve" text-anchor="start" x="34.5" y="-57.5" font-family="Helvetica,sans-Serif" font-size="10.00">+</text>
<text xml:space="preserve" text-anchor="start" x="54.75" y="-57.5" font-family="Helvetica,sans-Serif" font-size="10.00">common()</text>
<text xml:space="preserve" text-anchor="start" x="34.5" y="-40.75" font-family="Helvetica,sans-Serif" font-size="10.00">+</text>
<text xml:space="preserve" text-anchor="start" x="54.75" y="-40.75" font-family="Helvetica,sans-Serif" font-size="10.00">common()</text>
<text xml:space="preserve" text-anchor="start" x="34.5" y="-24" font-family="Helvetica,sans-Serif" font-size="10.00">+</text>
<text xml:space="preserve" text-anchor="start" x="54.75" y="-24" font-family="Helvetica,sans-Serif" font-size="10.00">extended_variant()</text>
<text xml:space="preserve" text-anchor="start" x="54.75" y="-7.25" font-family="Helvetica,sans-Serif" font-size="10.00">and 6 more...</text>
<polygon fill="#666666" stroke="#666666" points="22.5,-253.25 22.5,-253.25 167.75,-253.25 167.75,-253.25 22.5,-253.25"/>
<polygon fill="#666666" stroke="#666666" points="22.5,-186.25 22.5,-186.25 52.75,-186.25 52.75,-186.25 22.5,-186.25"/>
<polygon fill="#666666" stroke="#666666" points="52.75,-186.25 52.75,-186.25 167.75,-186.25 167.75,-186.25 52.75,-186.25"/>
<polygon fill="none" stroke="#666666" points="22.5,0 22.5,-272 167.75,-272 167.75,0 22.5,0"/>
</a>
</g>
</g>
<!-- Node2 -->
<g id="Node000002" class="node">
<title>Node2</title>
<g id="a_Node000002"><a xlink:href="../../dc/d8c/classvanetza_1_1geonet_1_1Pdu.html" target="_top" xlink:title=" ">
<polygon fill="white" stroke="none" points="150.5,-462.75 39.75,-462.75 39.75,-308 150.5,-308 150.5,-462.75"/>
<text xml:space="preserve" text-anchor="start" x="43.75" y="-449.25" font-family="Helvetica,sans-Serif" font-size="10.00">vanetza::geonet::Pdu</text>
<text xml:space="preserve" text-anchor="start" x="93.62" y="-432.5" font-family="Helvetica,sans-Serif" font-size="10.00"> </text>
<text xml:space="preserve" text-anchor="start" x="53.81" y="-415.75" font-family="Helvetica,sans-Serif" font-size="10.00">+</text>
<text xml:space="preserve" text-anchor="start" x="76.12" y="-415.75" font-family="Helvetica,sans-Serif" font-size="10.00">basic()</text>
<text xml:space="preserve" text-anchor="start" x="53.81" y="-399" font-family="Helvetica,sans-Serif" font-size="10.00">+</text>
<text xml:space="preserve" text-anchor="start" x="76.12" y="-399" font-family="Helvetica,sans-Serif" font-size="10.00">common()</text>
<text xml:space="preserve" text-anchor="start" x="53.81" y="-382.25" font-family="Helvetica,sans-Serif" font-size="10.00">+</text>
<text xml:space="preserve" text-anchor="start" x="76.12" y="-382.25" font-family="Helvetica,sans-Serif" font-size="10.00">secured()</text>
<text xml:space="preserve" text-anchor="start" x="53.81" y="-365.5" font-family="Helvetica,sans-Serif" font-size="10.00">+</text>
<text xml:space="preserve" text-anchor="start" x="76.12" y="-365.5" font-family="Helvetica,sans-Serif" font-size="10.00">secured()</text>
<text xml:space="preserve" text-anchor="start" x="53.81" y="-348.75" font-family="Helvetica,sans-Serif" font-size="10.00">+</text>
<text xml:space="preserve" text-anchor="start" x="76.12" y="-348.75" font-family="Helvetica,sans-Serif" font-size="10.00">basic()</text>
<text xml:space="preserve" text-anchor="start" x="53.81" y="-332" font-family="Helvetica,sans-Serif" font-size="10.00">+</text>
<text xml:space="preserve" text-anchor="start" x="76.12" y="-332" font-family="Helvetica,sans-Serif" font-size="10.00">common()</text>
<text xml:space="preserve" text-anchor="start" x="53.81" y="-315.25" font-family="Helvetica,sans-Serif" font-size="10.00">+</text>
<text xml:space="preserve" text-anchor="start" x="76.12" y="-315.25" font-family="Helvetica,sans-Serif" font-size="10.00">secured()</text>
<polygon fill="#bfbfbf" stroke="#bfbfbf" points="39.75,-444 39.75,-444 150.5,-444 150.5,-444 39.75,-444"/>
<polygon fill="#bfbfbf" stroke="#bfbfbf" points="39.75,-427.25 39.75,-427.25 150.5,-427.25 150.5,-427.25 39.75,-427.25"/>
<polygon fill="none" stroke="#bfbfbf" points="39.75,-308 39.75,-462.75 150.5,-462.75 150.5,-308 39.75,-308"/>
</a>
</g>
</g>
<!-- Node2&#45;&gt;Node1 -->
<g id="edge1_Node000001_Node000002" class="edge">
<title>Node2&#45;&gt;Node1</title>
<g id="a_edge1_Node000001_Node000002"><a xlink:title=" ">
<path fill="none" stroke="#63b8ff" d="M95.12,-296.76C95.12,-288.6 95.12,-280.2 95.12,-271.74"/>
<polygon fill="none" stroke="#63b8ff" points="91.63,-296.62 95.13,-306.62 98.63,-296.62 91.63,-296.62"/>
</a>
</g>
</g>
<!-- Node3 -->
<g id="Node000003" class="node">
<title>Node3</title>
<g id="a_Node000003"><a xlink:href="../../da/dcb/classvanetza_1_1geonet_1_1ConstAccessiblePdu.html" target="_top" xlink:title=" ">
<polygon fill="white" stroke="none" points="190.25,-636.75 0,-636.75 0,-498.75 190.25,-498.75 190.25,-636.75"/>
<text xml:space="preserve" text-anchor="start" x="4" y="-623.25" font-family="Helvetica,sans-Serif" font-size="10.00">vanetza::geonet::ConstAccessiblePdu</text>
<text xml:space="preserve" text-anchor="start" x="93.62" y="-606.5" font-family="Helvetica,sans-Serif" font-size="10.00"> </text>
<text xml:space="preserve" text-anchor="start" x="18.19" y="-589.75" font-family="Helvetica,sans-Serif" font-size="10.00">+</text>
<text xml:space="preserve" text-anchor="start" x="44.62" y="-589.75" font-family="Helvetica,sans-Serif" font-size="10.00">basic()</text>
<text xml:space="preserve" text-anchor="start" x="18.19" y="-573" font-family="Helvetica,sans-Serif" font-size="10.00">+</text>
<text xml:space="preserve" text-anchor="start" x="44.62" y="-573" font-family="Helvetica,sans-Serif" font-size="10.00">common()</text>
<text xml:space="preserve" text-anchor="start" x="18.19" y="-556.25" font-family="Helvetica,sans-Serif" font-size="10.00">+</text>
<text xml:space="preserve" text-anchor="start" x="44.62" y="-556.25" font-family="Helvetica,sans-Serif" font-size="10.00">secured()</text>
<text xml:space="preserve" text-anchor="start" x="18.19" y="-539.5" font-family="Helvetica,sans-Serif" font-size="10.00">+</text>
<text xml:space="preserve" text-anchor="start" x="44.62" y="-539.5" font-family="Helvetica,sans-Serif" font-size="10.00">extended_variant()</text>
<text xml:space="preserve" text-anchor="start" x="18.19" y="-522.75" font-family="Helvetica,sans-Serif" font-size="10.00">+</text>
<text xml:space="preserve" text-anchor="start" x="44.62" y="-522.75" font-family="Helvetica,sans-Serif" font-size="10.00">clone()</text>
<text xml:space="preserve" text-anchor="start" x="18.19" y="-506" font-family="Helvetica,sans-Serif" font-size="10.00">+</text>
<text xml:space="preserve" text-anchor="start" x="44.62" y="-506" font-family="Helvetica,sans-Serif" font-size="10.00">~ConstAccessiblePdu()</text>
<polygon fill="#bfbfbf" stroke="#bfbfbf" points="0,-618 0,-618 190.25,-618 190.25,-618 0,-618"/>
<polygon fill="#bfbfbf" stroke="#bfbfbf" points="0,-601.25 0,-601.25 190.25,-601.25 190.25,-601.25 0,-601.25"/>
<polygon fill="none" stroke="#bfbfbf" points="0,-498.75 0,-636.75 190.25,-636.75 190.25,-498.75 0,-498.75"/>
</a>
</g>
</g>
<!-- Node3&#45;&gt;Node2 -->
<g id="edge2_Node000002_Node000003" class="edge">
<title>Node3&#45;&gt;Node2</title>
<g id="a_edge2_Node000002_Node000003"><a xlink:title=" ">
<path fill="none" stroke="#63b8ff" d="M95.12,-487.35C95.12,-479.17 95.12,-470.87 95.12,-462.72"/>
<polygon fill="none" stroke="#63b8ff" points="91.63,-487.3 95.13,-497.3 98.63,-487.3 91.63,-487.3"/>
</a>
</g>
</g>
</g>
</svg>
