<?xml version="1.0" encoding="UTF-8" standalone="no"?>
<!DOCTYPE svg PUBLIC "-//W3C//DTD SVG 1.1//EN"
 "http://www.w3.org/Graphics/SVG/1.1/DTD/svg11.dtd">
<!-- Generated by graphviz version 2.49.3 (0)
 -->
<!-- Title: vanetza::security::v2::detail::subject_attribute_type&lt; SubjectAttributeType::Reconstruction_Value &gt; Pages: 1 -->
<svg width="207pt" height="240pt"
 viewBox="0.00 0.00 207.00 240.00" xmlns="http://www.w3.org/2000/svg" xmlns:xlink="http://www.w3.org/1999/xlink">

<svg id="main" version="1.1" xmlns="http://www.w3.org/2000/svg" xmlns:xlink="http://www.w3.org/1999/xlink" xml:space="preserve">

<style type="text/css"><![CDATA[
.node, .edge {opacity: 0.7;}
.node.selected, .edge.selected {opacity: 1;}
.edge:hover path { stroke: red; }
.edge:hover polygon { stroke: red; fill: red; }
]]></style>
<script type="application/ecmascript" xlink:href="../../svg.min.js"/>
<svg id="graph" class="graph">
<g id="graph0" class="graph" transform="scale(1 1) rotate(0) translate(4 236)">
<title>vanetza::security::v2::detail::subject_attribute_type&lt; SubjectAttributeType::Reconstruction_Value &gt;</title>
<!-- Node1 -->
<g id="Node000001" class="node">
<title>Node1</title>
<g id="a_Node000001"><a xlink:title=" ">
<polygon fill="#999999" stroke="transparent" points="154,-82 0,-82 0,0 154,0 154,-82"/>
<text text-anchor="start" x="5" y="-70" font-family="Helvetica,sans-Serif" font-size="10.00">vanetza::security::</text>
<text text-anchor="start" x="5" y="-59" font-family="Helvetica,sans-Serif" font-size="10.00">v2::detail::subject</text>
<text text-anchor="start" x="5" y="-48" font-family="Helvetica,sans-Serif" font-size="10.00">_attribute_type&lt; SubjectAttribute</text>
<text text-anchor="start" x="11.5" y="-37" font-family="Helvetica,sans-Serif" font-size="10.00">Type::Reconstruction_Value &gt;</text>
<text text-anchor="start" x="75" y="-22" font-family="Helvetica,sans-Serif" font-size="10.00"> </text>
<text text-anchor="start" x="75" y="-7" font-family="Helvetica,sans-Serif" font-size="10.00"> </text>
<polygon fill="#666666" stroke="#666666" points="0,-32 0,-32 154,-32 154,-32 0,-32"/>
<polygon fill="#666666" stroke="#666666" points="0,-17 0,-17 154,-17 154,-17 0,-17"/>
<polygon fill="none" stroke="#666666" points="0,0 0,-82 154,-82 154,0 0,0"/>
</a>
</g>
</g>
<!-- Node2 -->
<g id="Node000002" class="node">
<title>Node2</title>
<g id="a_Node000002"><a xlink:href="../../d7/d2e/structvanetza_1_1security_1_1v2_1_1detail_1_1subject__attribute__type.html" target="_top" xlink:title=" ">
<polygon fill="white" stroke="transparent" points="154,-232 0,-232 0,-150 154,-150 154,-232"/>
<text text-anchor="start" x="5" y="-220" font-family="Helvetica,sans-Serif" font-size="10.00">vanetza::security::</text>
<text text-anchor="start" x="5" y="-209" font-family="Helvetica,sans-Serif" font-size="10.00">v2::detail::subject</text>
<text text-anchor="start" x="5" y="-198" font-family="Helvetica,sans-Serif" font-size="10.00">_attribute_type&lt; SubjectAttribute</text>
<text text-anchor="start" x="61.5" y="-187" font-family="Helvetica,sans-Serif" font-size="10.00">Type &gt;</text>
<text text-anchor="start" x="75" y="-172" font-family="Helvetica,sans-Serif" font-size="10.00"> </text>
<text text-anchor="start" x="75" y="-157" font-family="Helvetica,sans-Serif" font-size="10.00"> </text>
<polygon fill="#bfbfbf" stroke="#bfbfbf" points="0,-182 0,-182 154,-182 154,-182 0,-182"/>
<polygon fill="#bfbfbf" stroke="#bfbfbf" points="0,-167 0,-167 154,-167 154,-167 0,-167"/>
<polygon fill="none" stroke="#bfbfbf" points="0,-150 0,-232 154,-232 154,-150 0,-150"/>
</a>
</g>
</g>
<!-- Node2&#45;&gt;Node1 -->
<g id="edge1_Node000001_Node000002" class="edge">
<title>Node2&#45;&gt;Node1</title>
<g id="a_edge1_Node000001_Node000002"><a xlink:title=" ">
<path fill="none" stroke="orange" d="M77,-139.77C77,-120.96 77,-99.86 77,-82.08"/>
<polygon fill="orange" stroke="orange" points="73.5,-139.95 77,-149.95 80.5,-139.95 73.5,-139.95"/>
</a>
</g>
<text text-anchor="start" x="80" y="-121" font-family="Helvetica,sans-Serif" font-size="10.00" fill="grey">&lt; SubjectAttributeType</text>
<text text-anchor="start" x="80" y="-106" font-family="Helvetica,sans-Serif" font-size="10.00" fill="grey">  ::Reconstruction_Value &gt;</text>
</g>
</g>
</svg>
</svg>

<style type='text/css'>
<![CDATA[
[data-mouse-over-selected='false'] { opacity: 0.7; }
[data-mouse-over-selected='true']  { opacity: 1.0; }
]]>
</style>
<script type="application/ecmascript"><![CDATA[
document.addEventListener('DOMContentLoaded', (event) => {
  highlightEdges();
  highlightAdjacentNodes();
});
]]></script>
</svg>
