<?xml version="1.0" encoding="UTF-8" standalone="no"?>
<!DOCTYPE svg PUBLIC "-//W3C//DTD SVG 1.1//EN"
 "http://www.w3.org/Graphics/SVG/1.1/DTD/svg11.dtd">
<!-- Generated by graphviz version 2.42.3 (0)
 -->
<!-- Title: vanetza::geonet::CbfCounter Pages: 1 -->
<svg width="334pt" height="375pt"
 viewBox="0.00 0.00 333.51 375.00" xmlns="http://www.w3.org/2000/svg" xmlns:xlink="http://www.w3.org/1999/xlink">
<g id="graph0" class="graph" transform="scale(1 1) rotate(0) translate(4 371)">
<title>vanetza::geonet::CbfCounter</title>
<polygon fill="white" stroke="transparent" points="-4,4 -4,-371 329.51,-371 329.51,4 -4,4"/>
<!-- Node1 -->
<g id="node1" class="node">
<title>Node1</title>
<g id="a_node1"><a xlink:title=" ">
<polygon fill="#bfbfbf" stroke="black" points="25.51,-265.5 25.51,-366.5 166.51,-366.5 166.51,-265.5 25.51,-265.5"/>
<text text-anchor="middle" x="96.01" y="-354.5" font-family="Helvetica,sans-Serif" font-size="10.00">vanetza::geonet::CbfCounter</text>
<polyline fill="none" stroke="black" points="25.51,-347.5 166.51,-347.5 "/>
<text text-anchor="middle" x="96.01" y="-335.5" font-family="Helvetica,sans-Serif" font-size="10.00"> </text>
<polyline fill="none" stroke="black" points="25.51,-328.5 166.51,-328.5 "/>
<text text-anchor="start" x="33.51" y="-316.5" font-family="Helvetica,sans-Serif" font-size="10.00">+ add()</text>
<text text-anchor="start" x="33.51" y="-305.5" font-family="Helvetica,sans-Serif" font-size="10.00">+ remove()</text>
<text text-anchor="start" x="33.51" y="-294.5" font-family="Helvetica,sans-Serif" font-size="10.00">+ increment()</text>
<text text-anchor="start" x="33.51" y="-283.5" font-family="Helvetica,sans-Serif" font-size="10.00">+ counter()</text>
<text text-anchor="start" x="33.51" y="-272.5" font-family="Helvetica,sans-Serif" font-size="10.00">+ ~CbfCounter()</text>
</a>
</g>
</g>
<!-- Node2 -->
<g id="node2" class="node">
<title>Node2</title>
<g id="a_node2"><a xlink:href="../../da/d5f/classvanetza_1_1geonet_1_1CbfCounterContending.html" target="_top" xlink:title=" ">
<polygon fill="white" stroke="black" points="55.51,-0.5 55.51,-79.5 196.51,-79.5 196.51,-0.5 55.51,-0.5"/>
<text text-anchor="start" x="63.51" y="-67.5" font-family="Helvetica,sans-Serif" font-size="10.00">vanetza::geonet::CbfCounter</text>
<text text-anchor="middle" x="126.01" y="-56.5" font-family="Helvetica,sans-Serif" font-size="10.00">Contending</text>
<polyline fill="none" stroke="black" points="55.51,-49.5 196.51,-49.5 "/>
<text text-anchor="middle" x="126.01" y="-37.5" font-family="Helvetica,sans-Serif" font-size="10.00"> </text>
<polyline fill="none" stroke="black" points="55.51,-30.5 196.51,-30.5 "/>
<text text-anchor="start" x="63.51" y="-18.5" font-family="Helvetica,sans-Serif" font-size="10.00">+ add()</text>
<text text-anchor="start" x="63.51" y="-7.5" font-family="Helvetica,sans-Serif" font-size="10.00">+ remove()</text>
</a>
</g>
</g>
<!-- Node1&#45;&gt;Node2 -->
<g id="edge1" class="edge">
<title>Node1&#45;&gt;Node2</title>
<path fill="none" stroke="midnightblue" d="M32.27,-257.42C25.67,-248.58 19.95,-239.03 16.01,-229 -2.37,-182.26 -7.46,-160.4 16.01,-116 24.97,-99.04 39.69,-85.19 55.48,-74.22"/>
<polygon fill="none" stroke="midnightblue" points="29.6,-259.68 38.55,-265.34 35.08,-255.33 29.6,-259.68"/>
</g>
<!-- Node3 -->
<g id="node3" class="node">
<title>Node3</title>
<g id="a_node3"><a xlink:href="../../d4/d50/classvanetza_1_1geonet_1_1CbfCounterFading.html" target="_top" xlink:title=" ">
<polygon fill="white" stroke="black" points="25.51,-116.5 25.51,-228.5 166.51,-228.5 166.51,-116.5 25.51,-116.5"/>
<text text-anchor="start" x="33.51" y="-216.5" font-family="Helvetica,sans-Serif" font-size="10.00">vanetza::geonet::CbfCounter</text>
<text text-anchor="middle" x="96.01" y="-205.5" font-family="Helvetica,sans-Serif" font-size="10.00">Fading</text>
<polyline fill="none" stroke="black" points="25.51,-198.5 166.51,-198.5 "/>
<text text-anchor="start" x="33.51" y="-186.5" font-family="Helvetica,sans-Serif" font-size="10.00">&#45; m_counters</text>
<polyline fill="none" stroke="black" points="25.51,-179.5 166.51,-179.5 "/>
<text text-anchor="start" x="33.51" y="-167.5" font-family="Helvetica,sans-Serif" font-size="10.00">+ CbfCounterFading()</text>
<text text-anchor="start" x="33.51" y="-156.5" font-family="Helvetica,sans-Serif" font-size="10.00">+ add()</text>
<text text-anchor="start" x="33.51" y="-145.5" font-family="Helvetica,sans-Serif" font-size="10.00">+ remove()</text>
<text text-anchor="start" x="33.51" y="-134.5" font-family="Helvetica,sans-Serif" font-size="10.00">+ increment()</text>
<text text-anchor="start" x="33.51" y="-123.5" font-family="Helvetica,sans-Serif" font-size="10.00">+ counter()</text>
</a>
</g>
</g>
<!-- Node1&#45;&gt;Node3 -->
<g id="edge2" class="edge">
<title>Node1&#45;&gt;Node3</title>
<path fill="none" stroke="midnightblue" d="M96.01,-255.01C96.01,-246.29 96.01,-237.34 96.01,-228.72"/>
<polygon fill="none" stroke="midnightblue" points="92.51,-255.11 96.01,-265.11 99.51,-255.11 92.51,-255.11"/>
</g>
<!-- Node4 -->
<g id="node4" class="node">
<title>Node4</title>
<g id="a_node4"><a xlink:href="../../db/d11/classvanetza_1_1geonet_1_1CbfCounterImmortal.html" target="_top" xlink:title=" ">
<polygon fill="white" stroke="black" points="184.51,-122 184.51,-223 325.51,-223 325.51,-122 184.51,-122"/>
<text text-anchor="start" x="192.51" y="-211" font-family="Helvetica,sans-Serif" font-size="10.00">vanetza::geonet::CbfCounter</text>
<text text-anchor="middle" x="255.01" y="-200" font-family="Helvetica,sans-Serif" font-size="10.00">Immortal</text>
<polyline fill="none" stroke="black" points="184.51,-193 325.51,-193 "/>
<text text-anchor="start" x="192.51" y="-181" font-family="Helvetica,sans-Serif" font-size="10.00"># m_counters</text>
<polyline fill="none" stroke="black" points="184.51,-174 325.51,-174 "/>
<text text-anchor="start" x="192.51" y="-162" font-family="Helvetica,sans-Serif" font-size="10.00">+ add()</text>
<text text-anchor="start" x="192.51" y="-151" font-family="Helvetica,sans-Serif" font-size="10.00">+ remove()</text>
<text text-anchor="start" x="192.51" y="-140" font-family="Helvetica,sans-Serif" font-size="10.00">+ increment()</text>
<text text-anchor="start" x="192.51" y="-129" font-family="Helvetica,sans-Serif" font-size="10.00">+ counter()</text>
</a>
</g>
</g>
<!-- Node1&#45;&gt;Node4 -->
<g id="edge3" class="edge">
<title>Node1&#45;&gt;Node4</title>
<path fill="none" stroke="midnightblue" d="M159.68,-258.33C172.76,-246.7 186.42,-234.54 199.19,-223.18"/>
<polygon fill="none" stroke="midnightblue" points="157.21,-255.85 152.07,-265.11 161.86,-261.08 157.21,-255.85"/>
</g>
<!-- Node4&#45;&gt;Node2 -->
<g id="edge4" class="edge">
<title>Node4&#45;&gt;Node2</title>
<path fill="none" stroke="#8b1a1a" d="M198.68,-114.51C187.02,-102.72 175,-90.56 164.18,-79.61"/>
<polygon fill="none" stroke="#8b1a1a" points="196.35,-117.14 205.87,-121.79 201.33,-112.22 196.35,-117.14"/>
</g>
</g>
</svg>
