<?xml version="1.0" encoding="UTF-8" standalone="no"?>
<!DOCTYPE svg PUBLIC "-//W3C//DTD SVG 1.1//EN"
 "http://www.w3.org/Graphics/SVG/1.1/DTD/svg11.dtd">
<!-- Generated by graphviz version 14.1.2 (0)
 -->
<!-- Title: vanetza::geonet::CbfCounter Pages: 1 -->
<svg width="350pt" height="419pt"
 viewBox="0.00 0.00 350.00 419.00" xmlns="http://www.w3.org/2000/svg" xmlns:xlink="http://www.w3.org/1999/xlink">

<svg id="main" version="1.1" xmlns="http://www.w3.org/2000/svg" xmlns:xlink="http://www.w3.org/1999/xlink" xml:space="preserve">

<style type="text/css"><![CDATA[
.node, .edge {opacity: 0.7;}
.node.selected, .edge.selected {opacity: 1;}
.edge:hover path { stroke: red; }
.edge:hover polygon { stroke: red; fill: red; }
]]></style>
<script type="application/ecmascript" xlink:href="../../svg.min.js"/>
<svg id="graph" class="graph">
<g id="graph0" class="graph" transform="scale(1 1) rotate(0) translate(4 415)">
<title>vanetza::geonet::CbfCounter</title>
<!-- Node1 -->
<g id="Node000001" class="node">
<title>Node1</title>
<g id="a_Node000001"><a xlink:title=" ">
<polygon fill="#999999" stroke="none" points="175.54,-411 28.04,-411 28.04,-289.75 175.54,-289.75 175.54,-411"/>
<text xml:space="preserve" text-anchor="start" x="32.04" y="-397.5" font-family="Helvetica,sans-Serif" font-size="10.00">vanetza::geonet::CbfCounter</text>
<text xml:space="preserve" text-anchor="start" x="100.29" y="-380.75" font-family="Helvetica,sans-Serif" font-size="10.00"> </text>
<text xml:space="preserve" text-anchor="start" x="46.23" y="-364" font-family="Helvetica,sans-Serif" font-size="10.00">+</text>
<text xml:space="preserve" text-anchor="start" x="72.67" y="-364" font-family="Helvetica,sans-Serif" font-size="10.00">add()</text>
<text xml:space="preserve" text-anchor="start" x="46.23" y="-347.25" font-family="Helvetica,sans-Serif" font-size="10.00">+</text>
<text xml:space="preserve" text-anchor="start" x="72.67" y="-347.25" font-family="Helvetica,sans-Serif" font-size="10.00">remove()</text>
<text xml:space="preserve" text-anchor="start" x="46.23" y="-330.5" font-family="Helvetica,sans-Serif" font-size="10.00">+</text>
<text xml:space="preserve" text-anchor="start" x="72.67" y="-330.5" font-family="Helvetica,sans-Serif" font-size="10.00">increment()</text>
<text xml:space="preserve" text-anchor="start" x="46.23" y="-313.75" font-family="Helvetica,sans-Serif" font-size="10.00">+</text>
<text xml:space="preserve" text-anchor="start" x="72.67" y="-313.75" font-family="Helvetica,sans-Serif" font-size="10.00">counter()</text>
<text xml:space="preserve" text-anchor="start" x="46.23" y="-297" font-family="Helvetica,sans-Serif" font-size="10.00">+</text>
<text xml:space="preserve" text-anchor="start" x="72.67" y="-297" font-family="Helvetica,sans-Serif" font-size="10.00">~CbfCounter()</text>
<polygon fill="#666666" stroke="#666666" points="28.04,-392.25 28.04,-392.25 175.54,-392.25 175.54,-392.25 28.04,-392.25"/>
<polygon fill="#666666" stroke="#666666" points="28.04,-375.5 28.04,-375.5 175.54,-375.5 175.54,-375.5 28.04,-375.5"/>
<polygon fill="none" stroke="#666666" points="28.04,-289.75 28.04,-411 175.54,-411 175.54,-289.75 28.04,-289.75"/>
</a>
</g>
</g>
<!-- Node2 -->
<g id="Node000002" class="node">
<title>Node2</title>
<g id="a_Node000002"><a xlink:href="../../da/d5f/classvanetza_1_1geonet_1_1CbfCounterContending.html" target="_top" xlink:title=" ">
<polygon fill="white" stroke="none" points="207.54,-83.75 60.04,-83.75 60.04,0 207.54,0 207.54,-83.75"/>
<text xml:space="preserve" text-anchor="start" x="64.04" y="-70.25" font-family="Helvetica,sans-Serif" font-size="10.00">vanetza::geonet::CbfCounter</text>
<text xml:space="preserve" text-anchor="start" x="106.04" y="-57.5" font-family="Helvetica,sans-Serif" font-size="10.00">Contending</text>
<text xml:space="preserve" text-anchor="start" x="132.29" y="-40.75" font-family="Helvetica,sans-Serif" font-size="10.00"> </text>
<text xml:space="preserve" text-anchor="start" x="84.6" y="-24" font-family="Helvetica,sans-Serif" font-size="10.00">+</text>
<text xml:space="preserve" text-anchor="start" x="117.42" y="-24" font-family="Helvetica,sans-Serif" font-size="10.00">add()</text>
<text xml:space="preserve" text-anchor="start" x="84.6" y="-7.25" font-family="Helvetica,sans-Serif" font-size="10.00">+</text>
<text xml:space="preserve" text-anchor="start" x="117.42" y="-7.25" font-family="Helvetica,sans-Serif" font-size="10.00">remove()</text>
<polygon fill="#666666" stroke="#666666" points="60.04,-52.25 60.04,-52.25 207.54,-52.25 207.54,-52.25 60.04,-52.25"/>
<polygon fill="#666666" stroke="#666666" points="60.04,-35.5 60.04,-35.5 207.54,-35.5 207.54,-35.5 60.04,-35.5"/>
<polygon fill="none" stroke="#666666" points="60.04,0 60.04,-83.75 207.54,-83.75 207.54,0 60.04,0"/>
</a>
</g>
</g>
<!-- Node1&#45;&gt;Node2 -->
<g id="edge1_Node000001_Node000002" class="edge">
<title>Node1&#45;&gt;Node2</title>
<g id="a_edge1_Node000001_Node000002"><a xlink:title=" ">
<path fill="none" stroke="#63b8ff" d="M32.65,-280.49C27.07,-272 22.26,-263.03 18.79,-253.75 -2.04,-197.96 -9.28,-172.28 18.79,-119.75 28.19,-102.17 43.58,-87.91 60.09,-76.66"/>
<polygon fill="none" stroke="#63b8ff" points="29.76,-282.46 38.38,-288.62 35.48,-278.43 29.76,-282.46"/>
</a>
</g>
</g>
<!-- Node3 -->
<g id="Node000003" class="node">
<title>Node3</title>
<g id="a_Node000003"><a xlink:href="../../d4/d50/classvanetza_1_1geonet_1_1CbfCounterFading.html" target="_top" xlink:title=" ">
<polygon fill="white" stroke="none" points="175.54,-253.75 28.04,-253.75 28.04,-119.75 175.54,-119.75 175.54,-253.75"/>
<text xml:space="preserve" text-anchor="start" x="32.04" y="-240.25" font-family="Helvetica,sans-Serif" font-size="10.00">vanetza::geonet::CbfCounter</text>
<text xml:space="preserve" text-anchor="start" x="86.04" y="-227.5" font-family="Helvetica,sans-Serif" font-size="10.00">Fading</text>
<text xml:space="preserve" text-anchor="start" x="42.67" y="-210.75" font-family="Helvetica,sans-Serif" font-size="10.00">&#45;</text>
<text xml:space="preserve" text-anchor="start" x="61.04" y="-210.75" font-family="Helvetica,sans-Serif" font-size="10.00">m_counters</text>
<text xml:space="preserve" text-anchor="start" x="40.42" y="-194" font-family="Helvetica,sans-Serif" font-size="10.00">+</text>
<text xml:space="preserve" text-anchor="start" x="61.04" y="-194" font-family="Helvetica,sans-Serif" font-size="10.00">CbfCounterFading()</text>
<text xml:space="preserve" text-anchor="start" x="40.42" y="-177.25" font-family="Helvetica,sans-Serif" font-size="10.00">+</text>
<text xml:space="preserve" text-anchor="start" x="61.04" y="-177.25" font-family="Helvetica,sans-Serif" font-size="10.00">add()</text>
<text xml:space="preserve" text-anchor="start" x="40.42" y="-160.5" font-family="Helvetica,sans-Serif" font-size="10.00">+</text>
<text xml:space="preserve" text-anchor="start" x="61.04" y="-160.5" font-family="Helvetica,sans-Serif" font-size="10.00">remove()</text>
<text xml:space="preserve" text-anchor="start" x="40.42" y="-143.75" font-family="Helvetica,sans-Serif" font-size="10.00">+</text>
<text xml:space="preserve" text-anchor="start" x="61.04" y="-143.75" font-family="Helvetica,sans-Serif" font-size="10.00">increment()</text>
<text xml:space="preserve" text-anchor="start" x="40.42" y="-127" font-family="Helvetica,sans-Serif" font-size="10.00">+</text>
<text xml:space="preserve" text-anchor="start" x="61.04" y="-127" font-family="Helvetica,sans-Serif" font-size="10.00">counter()</text>
<polygon fill="#666666" stroke="#666666" points="28.04,-222.25 28.04,-222.25 175.54,-222.25 175.54,-222.25 28.04,-222.25"/>
<polygon fill="#666666" stroke="#666666" points="28.04,-205.5 28.04,-205.5 59.04,-205.5 59.04,-205.5 28.04,-205.5"/>
<polygon fill="#666666" stroke="#666666" points="59.04,-205.5 59.04,-205.5 175.54,-205.5 175.54,-205.5 59.04,-205.5"/>
<polygon fill="none" stroke="#666666" points="28.04,-119.75 28.04,-253.75 175.54,-253.75 175.54,-119.75 28.04,-119.75"/>
</a>
</g>
</g>
<!-- Node1&#45;&gt;Node3 -->
<g id="edge2_Node000001_Node000003" class="edge">
<title>Node1&#45;&gt;Node3</title>
<g id="a_edge2_Node000001_Node000003"><a xlink:title=" ">
<path fill="none" stroke="#63b8ff" d="M101.79,-278.8C101.79,-270.41 101.79,-261.87 101.79,-253.55"/>
<polygon fill="none" stroke="#63b8ff" points="98.29,-278.6 101.79,-288.6 105.29,-278.6 98.29,-278.6"/>
</a>
</g>
</g>
<!-- Node4 -->
<g id="Node000004" class="node">
<title>Node4</title>
<g id="a_Node000004"><a xlink:href="../../db/d11/classvanetza_1_1geonet_1_1CbfCounterImmortal.html" target="_top" xlink:title=" ">
<polygon fill="white" stroke="none" points="341.54,-245.38 194.04,-245.38 194.04,-128.12 341.54,-128.12 341.54,-245.38"/>
<text xml:space="preserve" text-anchor="start" x="198.04" y="-231.88" font-family="Helvetica,sans-Serif" font-size="10.00">vanetza::geonet::CbfCounter</text>
<text xml:space="preserve" text-anchor="start" x="245.29" y="-219.12" font-family="Helvetica,sans-Serif" font-size="10.00">Immortal</text>
<text xml:space="preserve" text-anchor="start" x="215.6" y="-202.38" font-family="Helvetica,sans-Serif" font-size="10.00">#</text>
<text xml:space="preserve" text-anchor="start" x="245.42" y="-202.38" font-family="Helvetica,sans-Serif" font-size="10.00">m_counters</text>
<text xml:space="preserve" text-anchor="start" x="215.6" y="-185.62" font-family="Helvetica,sans-Serif" font-size="10.00">+</text>
<text xml:space="preserve" text-anchor="start" x="245.42" y="-185.62" font-family="Helvetica,sans-Serif" font-size="10.00">add()</text>
<text xml:space="preserve" text-anchor="start" x="215.6" y="-168.88" font-family="Helvetica,sans-Serif" font-size="10.00">+</text>
<text xml:space="preserve" text-anchor="start" x="245.42" y="-168.88" font-family="Helvetica,sans-Serif" font-size="10.00">remove()</text>
<text xml:space="preserve" text-anchor="start" x="215.6" y="-152.12" font-family="Helvetica,sans-Serif" font-size="10.00">+</text>
<text xml:space="preserve" text-anchor="start" x="245.42" y="-152.12" font-family="Helvetica,sans-Serif" font-size="10.00">increment()</text>
<text xml:space="preserve" text-anchor="start" x="215.6" y="-135.38" font-family="Helvetica,sans-Serif" font-size="10.00">+</text>
<text xml:space="preserve" text-anchor="start" x="245.42" y="-135.38" font-family="Helvetica,sans-Serif" font-size="10.00">counter()</text>
<polygon fill="#666666" stroke="#666666" points="194.04,-213.88 194.04,-213.88 341.54,-213.88 341.54,-213.88 194.04,-213.88"/>
<polygon fill="#666666" stroke="#666666" points="194.04,-197.12 194.04,-197.12 243.42,-197.12 243.42,-197.12 194.04,-197.12"/>
<polygon fill="#666666" stroke="#666666" points="243.42,-197.12 243.42,-197.12 341.54,-197.12 341.54,-197.12 243.42,-197.12"/>
<polygon fill="none" stroke="#666666" points="194.04,-128.12 194.04,-245.38 341.54,-245.38 341.54,-128.12 194.04,-128.12"/>
</a>
</g>
</g>
<!-- Node1&#45;&gt;Node4 -->
<g id="edge3_Node000001_Node000004" class="edge">
<title>Node1&#45;&gt;Node4</title>
<g id="a_edge3_Node000001_Node000004"><a xlink:title=" ">
<path fill="none" stroke="#63b8ff" d="M170.88,-282.11C183.51,-269.81 196.57,-257.09 208.87,-245.12"/>
<polygon fill="none" stroke="#63b8ff" points="168.47,-279.57 163.75,-289.05 173.35,-284.59 168.47,-279.57"/>
</a>
</g>
</g>
<!-- Node4&#45;&gt;Node2 -->
<g id="edge4_Node000004_Node000002" class="edge">
<title>Node4&#45;&gt;Node2</title>
<g id="a_edge4_Node000004_Node000002"><a xlink:title=" ">
<path fill="none" stroke="#8b1a1a" d="M206.38,-120.27C194.62,-107.74 182.63,-94.95 171.87,-83.48"/>
<polygon fill="none" stroke="#8b1a1a" points="203.63,-122.46 213.03,-127.36 208.74,-117.67 203.63,-122.46"/>
</a>
</g>
</g>
</g>
</svg>
</svg>

<style type='text/css'>
<![CDATA[
[data-mouse-over-selected='false'] { opacity: 0.7; }
[data-mouse-over-selected='true']  { opacity: 1.0; }
]]>
</style>
<script type="application/ecmascript"><![CDATA[
document.addEventListener('DOMContentLoaded', (event) => {
  highlightEdges();
  highlightAdjacentNodes();
});
]]></script>
</svg>
