<?xml version="1.0" encoding="UTF-8" standalone="no"?>
<!DOCTYPE svg PUBLIC "-//W3C//DTD SVG 1.1//EN"
 "http://www.w3.org/Graphics/SVG/1.1/DTD/svg11.dtd">
<!-- Generated by graphviz version 14.1.2 (0)
 -->
<!-- Title: vanetza::security::openssl::Exception Pages: 1 -->
<svg width="108pt" height="182pt"
 viewBox="0.00 0.00 108.00 182.00" xmlns="http://www.w3.org/2000/svg" xmlns:xlink="http://www.w3.org/1999/xlink">
<g id="graph0" class="graph" transform="scale(1 1) rotate(0) translate(4 178)">
<title>vanetza::security::openssl::Exception</title>
<!-- Node1 -->
<g id="Node000001" class="node">
<title>Node1</title>
<g id="a_Node000001"><a xlink:title=" ">
<polygon fill="#999999" stroke="none" points="99.5,-83.75 0,-83.75 0,0 99.5,0 99.5,-83.75"/>
<text xml:space="preserve" text-anchor="start" x="4" y="-70.25" font-family="Helvetica,sans-Serif" font-size="10.00">vanetza::security::</text>
<text xml:space="preserve" text-anchor="start" x="4" y="-57.5" font-family="Helvetica,sans-Serif" font-size="10.00">openssl::Exception</text>
<text xml:space="preserve" text-anchor="start" x="48.25" y="-40.75" font-family="Helvetica,sans-Serif" font-size="10.00"> </text>
<text xml:space="preserve" text-anchor="start" x="9.94" y="-24" font-family="Helvetica,sans-Serif" font-size="10.00">+</text>
<text xml:space="preserve" text-anchor="start" x="28.12" y="-24" font-family="Helvetica,sans-Serif" font-size="10.00">Exception()</text>
<text xml:space="preserve" text-anchor="start" x="9.94" y="-7.25" font-family="Helvetica,sans-Serif" font-size="10.00">+</text>
<text xml:space="preserve" text-anchor="start" x="28.12" y="-7.25" font-family="Helvetica,sans-Serif" font-size="10.00">Exception()</text>
<polygon fill="#666666" stroke="#666666" points="0,-52.25 0,-52.25 99.5,-52.25 99.5,-52.25 0,-52.25"/>
<polygon fill="#666666" stroke="#666666" points="0,-35.5 0,-35.5 99.5,-35.5 99.5,-35.5 0,-35.5"/>
<polygon fill="none" stroke="#666666" points="0,0 0,-83.75 99.5,-83.75 99.5,0 0,0"/>
</a>
</g>
</g>
<!-- Node2 -->
<g id="Node000002" class="node">
<title>Node2</title>
<g id="a_Node000002"><a xlink:title=" ">
<polygon fill="white" stroke="none" points="97.62,-174 1.88,-174 1.88,-119.75 97.62,-119.75 97.62,-174"/>
<text xml:space="preserve" text-anchor="start" x="5.88" y="-160.5" font-family="Helvetica,sans-Serif" font-size="10.00">std::runtime_error</text>
<text xml:space="preserve" text-anchor="start" x="48.25" y="-143.75" font-family="Helvetica,sans-Serif" font-size="10.00"> </text>
<text xml:space="preserve" text-anchor="start" x="48.25" y="-127" font-family="Helvetica,sans-Serif" font-size="10.00"> </text>
<polygon fill="#bfbfbf" stroke="#bfbfbf" points="1.88,-155.25 1.88,-155.25 97.62,-155.25 97.62,-155.25 1.88,-155.25"/>
<polygon fill="#bfbfbf" stroke="#bfbfbf" points="1.88,-138.5 1.88,-138.5 97.62,-138.5 97.62,-138.5 1.88,-138.5"/>
<polygon fill="none" stroke="#bfbfbf" points="1.88,-119.75 1.88,-174 97.62,-174 97.62,-119.75 1.88,-119.75"/>
</a>
</g>
</g>
<!-- Node2&#45;&gt;Node1 -->
<g id="edge1_Node000001_Node000002" class="edge">
<title>Node2&#45;&gt;Node1</title>
<g id="a_edge1_Node000001_Node000002"><a xlink:title=" ">
<path fill="none" stroke="#63b8ff" d="M49.75,-108.53C49.75,-100.46 49.75,-91.89 49.75,-83.69"/>
<polygon fill="none" stroke="#63b8ff" points="46.25,-108.37 49.75,-118.37 53.25,-108.37 46.25,-108.37"/>
</a>
</g>
</g>
</g>
</svg>
