<?xml version="1.0" encoding="UTF-8" standalone="no"?>
<!DOCTYPE svg PUBLIC "-//W3C//DTD SVG 1.1//EN"
 "http://www.w3.org/Graphics/SVG/1.1/DTD/svg11.dtd">
<!-- Generated by graphviz version 2.42.3 (0)
 -->
<!-- Title: vanetza::security::openssl::Exception Pages: 1 -->
<svg width="107pt" height="276pt"
 viewBox="0.00 0.00 107.00 276.00" xmlns="http://www.w3.org/2000/svg" xmlns:xlink="http://www.w3.org/1999/xlink">
<g id="graph0" class="graph" transform="scale(1 1) rotate(0) translate(4 272)">
<title>vanetza::security::openssl::Exception</title>
<polygon fill="white" stroke="transparent" points="-4,4 -4,-272 103,-272 103,4 -4,4"/>
<!-- Node1 -->
<g id="node1" class="node">
<title>Node1</title>
<g id="a_node1"><a xlink:title=" ">
<polygon fill="#bfbfbf" stroke="black" points="0,-0.5 0,-79.5 99,-79.5 99,-0.5 0,-0.5"/>
<text text-anchor="start" x="8" y="-67.5" font-family="Helvetica,sans-Serif" font-size="10.00">vanetza::security::</text>
<text text-anchor="middle" x="49.5" y="-56.5" font-family="Helvetica,sans-Serif" font-size="10.00">openssl::Exception</text>
<polyline fill="none" stroke="black" points="0,-49.5 99,-49.5 "/>
<text text-anchor="middle" x="49.5" y="-37.5" font-family="Helvetica,sans-Serif" font-size="10.00"> </text>
<polyline fill="none" stroke="black" points="0,-30.5 99,-30.5 "/>
<text text-anchor="start" x="8" y="-18.5" font-family="Helvetica,sans-Serif" font-size="10.00">+ Exception()</text>
<text text-anchor="start" x="8" y="-7.5" font-family="Helvetica,sans-Serif" font-size="10.00">+ Exception()</text>
</a>
</g>
</g>
<!-- Node2 -->
<g id="node2" class="node">
<title>Node2</title>
<g id="a_node2"><a xlink:title="STL class.">
<polygon fill="white" stroke="#bfbfbf" points="3,-116.5 3,-173.5 96,-173.5 96,-116.5 3,-116.5"/>
<text text-anchor="middle" x="49.5" y="-161.5" font-family="Helvetica,sans-Serif" font-size="10.00">std::runtime_error</text>
<polyline fill="none" stroke="#bfbfbf" points="3,-154.5 96,-154.5 "/>
<text text-anchor="middle" x="49.5" y="-142.5" font-family="Helvetica,sans-Serif" font-size="10.00"> </text>
<polyline fill="none" stroke="#bfbfbf" points="3,-135.5 96,-135.5 "/>
<text text-anchor="middle" x="49.5" y="-123.5" font-family="Helvetica,sans-Serif" font-size="10.00"> </text>
</a>
</g>
</g>
<!-- Node2&#45;&gt;Node1 -->
<g id="edge1" class="edge">
<title>Node2&#45;&gt;Node1</title>
<path fill="none" stroke="midnightblue" d="M49.5,-106.16C49.5,-97.47 49.5,-88.23 49.5,-79.52"/>
<polygon fill="none" stroke="midnightblue" points="46,-106.4 49.5,-116.4 53,-106.4 46,-106.4"/>
</g>
<!-- Node3 -->
<g id="node3" class="node">
<title>Node3</title>
<g id="a_node3"><a xlink:title="STL class.">
<polygon fill="white" stroke="#bfbfbf" points="11,-210.5 11,-267.5 88,-267.5 88,-210.5 11,-210.5"/>
<text text-anchor="middle" x="49.5" y="-255.5" font-family="Helvetica,sans-Serif" font-size="10.00">std::exception</text>
<polyline fill="none" stroke="#bfbfbf" points="11,-248.5 88,-248.5 "/>
<text text-anchor="middle" x="49.5" y="-236.5" font-family="Helvetica,sans-Serif" font-size="10.00"> </text>
<polyline fill="none" stroke="#bfbfbf" points="11,-229.5 88,-229.5 "/>
<text text-anchor="middle" x="49.5" y="-217.5" font-family="Helvetica,sans-Serif" font-size="10.00"> </text>
</a>
</g>
</g>
<!-- Node3&#45;&gt;Node2 -->
<g id="edge2" class="edge">
<title>Node3&#45;&gt;Node2</title>
<path fill="none" stroke="midnightblue" d="M49.5,-200.21C49.5,-191.29 49.5,-181.95 49.5,-173.58"/>
<polygon fill="none" stroke="midnightblue" points="46,-200.4 49.5,-210.4 53,-200.4 46,-200.4"/>
</g>
</g>
</svg>
