<?xml version="1.0" encoding="UTF-8" standalone="no"?>
<!DOCTYPE svg PUBLIC "-//W3C//DTD SVG 1.1//EN"
 "http://www.w3.org/Graphics/SVG/1.1/DTD/svg11.dtd">
<!-- Generated by graphviz version 2.49.3 (0)
 -->
<!-- Title: vanetza::security::NullCertificateValidator Pages: 1 -->
<svg width="144pt" height="215pt"
 viewBox="0.00 0.00 144.00 215.00" xmlns="http://www.w3.org/2000/svg" xmlns:xlink="http://www.w3.org/1999/xlink">
<g id="graph0" class="graph" transform="scale(1 1) rotate(0) translate(4 211)">
<title>vanetza::security::NullCertificateValidator</title>
<polygon fill="white" stroke="transparent" points="-4,4 -4,-211 140,-211 140,4 -4,4"/>
<!-- Node1 -->
<g id="node1" class="node">
<title>Node1</title>
<g id="a_node1"><a xlink:title=" ">
<polygon fill="#bfbfbf" stroke="black" points="0,-0.5 0,-90.5 136,-90.5 136,-0.5 0,-0.5"/>
<text text-anchor="start" x="8" y="-78.5" font-family="Helvetica,sans-Serif" font-size="10.00">vanetza::security::</text>
<text text-anchor="middle" x="68" y="-67.5" font-family="Helvetica,sans-Serif" font-size="10.00">NullCertificateValidator</text>
<polyline fill="none" stroke="black" points="0,-60.5 136,-60.5 "/>
<text text-anchor="start" x="8" y="-48.5" font-family="Helvetica,sans-Serif" font-size="10.00">&#45; m_check_result</text>
<polyline fill="none" stroke="black" points="0,-41.5 136,-41.5 "/>
<text text-anchor="start" x="8" y="-29.5" font-family="Helvetica,sans-Serif" font-size="10.00">+ NullCertificateValidator()</text>
<text text-anchor="start" x="8" y="-18.5" font-family="Helvetica,sans-Serif" font-size="10.00">+ check_certificate()</text>
<text text-anchor="start" x="8" y="-7.5" font-family="Helvetica,sans-Serif" font-size="10.00">+ certificate_check_result()</text>
</a>
</g>
</g>
<!-- Node2 -->
<g id="node2" class="node">
<title>Node2</title>
<g id="a_node2"><a xlink:href="../../d1/d27/classvanetza_1_1security_1_1CertificateValidator.html" target="_top" xlink:title=" ">
<polygon fill="white" stroke="#bfbfbf" points="7.5,-127.5 7.5,-206.5 128.5,-206.5 128.5,-127.5 7.5,-127.5"/>
<text text-anchor="start" x="15.5" y="-194.5" font-family="Helvetica,sans-Serif" font-size="10.00">vanetza::security::</text>
<text text-anchor="middle" x="68" y="-183.5" font-family="Helvetica,sans-Serif" font-size="10.00">CertificateValidator</text>
<polyline fill="none" stroke="#bfbfbf" points="7.5,-176.5 128.5,-176.5 "/>
<text text-anchor="middle" x="68" y="-164.5" font-family="Helvetica,sans-Serif" font-size="10.00"> </text>
<polyline fill="none" stroke="#bfbfbf" points="7.5,-157.5 128.5,-157.5 "/>
<text text-anchor="start" x="15.5" y="-145.5" font-family="Helvetica,sans-Serif" font-size="10.00">+ check_certificate()</text>
<text text-anchor="start" x="15.5" y="-134.5" font-family="Helvetica,sans-Serif" font-size="10.00">+ ~CertificateValidator()</text>
</a>
</g>
</g>
<!-- Node2&#45;&gt;Node1 -->
<g id="edge1" class="edge">
<title>Node2&#45;&gt;Node1</title>
<path fill="none" stroke="midnightblue" d="M68,-117.19C68,-108.49 68,-99.48 68,-90.91"/>
<polygon fill="none" stroke="midnightblue" points="64.5,-117.2 68,-127.2 71.5,-117.2 64.5,-117.2"/>
</g>
</g>
</svg>
