<?xml version="1.0" encoding="UTF-8" standalone="no"?>
<!DOCTYPE svg PUBLIC "-//W3C//DTD SVG 1.1//EN"
 "http://www.w3.org/Graphics/SVG/1.1/DTD/svg11.dtd">
<!-- Generated by graphviz version 2.49.3 (0)
 -->
<!-- Title: vanetza::security::v2::header_field_type&lt; HeaderFieldType &gt; Pages: 1 -->
<svg width="1440pt" height="244pt"
 viewBox="0.00 0.00 1440.00 244.00" xmlns="http://www.w3.org/2000/svg" xmlns:xlink="http://www.w3.org/1999/xlink">
<g id="graph0" class="graph" transform="scale(1 1) rotate(0) translate(4 240)">
<title>vanetza::security::v2::header_field_type&lt; HeaderFieldType &gt;</title>
<!-- Node1 -->
<g id="Node000001" class="node">
<title>Node1</title>
<g id="a_Node000001"><a xlink:title="resolve type for matching HeaderFieldType">
<polygon fill="#999999" stroke="transparent" points="774,-236 670,-236 670,-165 774,-165 774,-236"/>
<text text-anchor="start" x="675" y="-223.5" font-family="Helvetica,sans-Serif" font-size="10.00">vanetza::security::</text>
<text text-anchor="start" x="675" y="-212.5" font-family="Helvetica,sans-Serif" font-size="10.00">v2::header_field_type</text>
<text text-anchor="start" x="676" y="-201.5" font-family="Helvetica,sans-Serif" font-size="10.00">&lt; HeaderFieldType &gt;</text>
<text text-anchor="start" x="720" y="-186.5" font-family="Helvetica,sans-Serif" font-size="10.00"> </text>
<text text-anchor="start" x="720" y="-171.5" font-family="Helvetica,sans-Serif" font-size="10.00"> </text>
<polygon fill="#666666" stroke="#666666" points="670,-196.5 670,-196.5 774,-196.5 774,-196.5 670,-196.5"/>
<polygon fill="#666666" stroke="#666666" points="670,-181.5 670,-181.5 774,-181.5 774,-181.5 670,-181.5"/>
<polygon fill="none" stroke="#666666" points="670,-165 670,-236 774,-236 774,-165 670,-165"/>
</a>
</g>
</g>
<!-- Node2 -->
<g id="Node000002" class="node">
<title>Node2</title>
<g id="a_Node000002"><a xlink:href="../../da/d2b/structvanetza_1_1security_1_1v2_1_1header__field__type_3_01HeaderFieldType_1_1Encryption__Parameters_01_4.html" target="_top" xlink:title=" ">
<polygon fill="white" stroke="transparent" points="146,-82 0,-82 0,0 146,0 146,-82"/>
<text text-anchor="start" x="5" y="-70" font-family="Helvetica,sans-Serif" font-size="10.00">vanetza::security::</text>
<text text-anchor="start" x="5" y="-59" font-family="Helvetica,sans-Serif" font-size="10.00">v2::header_field_type</text>
<text text-anchor="start" x="5" y="-48" font-family="Helvetica,sans-Serif" font-size="10.00">&lt; HeaderFieldType::Encryption</text>
<text text-anchor="start" x="40.5" y="-37" font-family="Helvetica,sans-Serif" font-size="10.00">_Parameters &gt;</text>
<text text-anchor="start" x="71" y="-22" font-family="Helvetica,sans-Serif" font-size="10.00"> </text>
<text text-anchor="start" x="71" y="-7" font-family="Helvetica,sans-Serif" font-size="10.00"> </text>
<polygon fill="#bfbfbf" stroke="#bfbfbf" points="0,-32 0,-32 146,-32 146,-32 0,-32"/>
<polygon fill="#bfbfbf" stroke="#bfbfbf" points="0,-17 0,-17 146,-17 146,-17 0,-17"/>
<polygon fill="none" stroke="#bfbfbf" points="0,0 0,-82 146,-82 146,0 0,0"/>
</a>
</g>
</g>
<!-- Node1&#45;&gt;Node2 -->
<g id="edge1_Node000001_Node000002" class="edge">
<title>Node1&#45;&gt;Node2</title>
<g id="a_edge1_Node000001_Node000002"><a xlink:title=" ">
<path fill="none" stroke="orange" d="M659.68,-199.96C530.54,-199.94 238.65,-194.45 153,-147 126.74,-132.45 106.41,-105.3 92.81,-82.25"/>
<polygon fill="orange" stroke="orange" points="659.81,-203.46 669.8,-199.96 659.8,-196.46 659.81,-203.46"/>
</a>
</g>
<text text-anchor="start" x="156" y="-128.5" font-family="Helvetica,sans-Serif" font-size="10.00" fill="grey">&lt; HeaderFieldType::</text>
<text text-anchor="start" x="156" y="-113.5" font-family="Helvetica,sans-Serif" font-size="10.00" fill="grey">  Encryption_Parameters &gt;</text>
</g>
<!-- Node3 -->
<g id="Node000003" class="node">
<title>Node3</title>
<g id="a_Node000003"><a xlink:href="../../d3/d31/structvanetza_1_1security_1_1v2_1_1header__field__type_3_01HeaderFieldType_1_1Expiration_01_4.html" target="_top" xlink:title=" ">
<polygon fill="white" stroke="transparent" points="316,-76.5 164,-76.5 164,-5.5 316,-5.5 316,-76.5"/>
<text text-anchor="start" x="169" y="-64" font-family="Helvetica,sans-Serif" font-size="10.00">vanetza::security::</text>
<text text-anchor="start" x="169" y="-53" font-family="Helvetica,sans-Serif" font-size="10.00">v2::header_field_type</text>
<text text-anchor="start" x="169" y="-42" font-family="Helvetica,sans-Serif" font-size="10.00">&lt; HeaderFieldType::Expiration &gt;</text>
<text text-anchor="start" x="238" y="-27" font-family="Helvetica,sans-Serif" font-size="10.00"> </text>
<text text-anchor="start" x="238" y="-12" font-family="Helvetica,sans-Serif" font-size="10.00"> </text>
<polygon fill="#bfbfbf" stroke="#bfbfbf" points="164,-37 164,-37 316,-37 316,-37 164,-37"/>
<polygon fill="#bfbfbf" stroke="#bfbfbf" points="164,-22 164,-22 316,-22 316,-22 164,-22"/>
<polygon fill="none" stroke="#bfbfbf" points="164,-5.5 164,-76.5 316,-76.5 316,-5.5 164,-5.5"/>
</a>
</g>
</g>
<!-- Node1&#45;&gt;Node3 -->
<g id="edge2_Node000001_Node000003" class="edge">
<title>Node1&#45;&gt;Node3</title>
<g id="a_edge2_Node000001_Node000003"><a xlink:title=" ">
<path fill="none" stroke="orange" d="M659.5,-196.1C565.21,-190.11 391.78,-175.54 337,-147 305.97,-130.83 279.69,-100.62 262.35,-76.74"/>
<polygon fill="orange" stroke="orange" points="659.56,-199.61 669.76,-196.73 659.99,-192.62 659.56,-199.61"/>
</a>
</g>
<text text-anchor="start" x="340.5" y="-128.5" font-family="Helvetica,sans-Serif" font-size="10.00" fill="grey">&lt; HeaderFieldType::</text>
<text text-anchor="start" x="340.5" y="-113.5" font-family="Helvetica,sans-Serif" font-size="10.00" fill="grey">  Expiration &gt;</text>
</g>
<!-- Node4 -->
<g id="Node000004" class="node">
<title>Node4</title>
<g id="a_Node000004"><a xlink:href="../../d0/d46/structvanetza_1_1security_1_1v2_1_1header__field__type_3_01HeaderFieldType_1_1Generation__Location_01_4.html" target="_top" xlink:title=" ">
<polygon fill="white" stroke="transparent" points="480,-82 334,-82 334,0 480,0 480,-82"/>
<text text-anchor="start" x="339" y="-70" font-family="Helvetica,sans-Serif" font-size="10.00">vanetza::security::</text>
<text text-anchor="start" x="339" y="-59" font-family="Helvetica,sans-Serif" font-size="10.00">v2::header_field_type</text>
<text text-anchor="start" x="339" y="-48" font-family="Helvetica,sans-Serif" font-size="10.00">&lt; HeaderFieldType::Generation</text>
<text text-anchor="start" x="381" y="-37" font-family="Helvetica,sans-Serif" font-size="10.00">_Location &gt;</text>
<text text-anchor="start" x="405" y="-22" font-family="Helvetica,sans-Serif" font-size="10.00"> </text>
<text text-anchor="start" x="405" y="-7" font-family="Helvetica,sans-Serif" font-size="10.00"> </text>
<polygon fill="#bfbfbf" stroke="#bfbfbf" points="334,-32 334,-32 480,-32 480,-32 334,-32"/>
<polygon fill="#bfbfbf" stroke="#bfbfbf" points="334,-17 334,-17 480,-17 480,-17 334,-17"/>
<polygon fill="none" stroke="#bfbfbf" points="334,0 334,-82 480,-82 480,0 334,0"/>
</a>
</g>
</g>
<!-- Node1&#45;&gt;Node4 -->
<g id="edge3_Node000001_Node000004" class="edge">
<title>Node1&#45;&gt;Node4</title>
<g id="a_edge3_Node000001_Node000004"><a xlink:title=" ">
<path fill="none" stroke="orange" d="M659.51,-198.88C606.74,-195.54 531.3,-183.91 477,-147 453.63,-131.11 436.03,-104.58 424.33,-82.16"/>
<polygon fill="orange" stroke="orange" points="659.58,-202.39 669.75,-199.44 659.96,-195.4 659.58,-202.39"/>
</a>
</g>
<text text-anchor="start" x="480.5" y="-128.5" font-family="Helvetica,sans-Serif" font-size="10.00" fill="grey">&lt; HeaderFieldType::</text>
<text text-anchor="start" x="480.5" y="-113.5" font-family="Helvetica,sans-Serif" font-size="10.00" fill="grey">  Generation_Location &gt;</text>
</g>
<!-- Node5 -->
<g id="Node000005" class="node">
<title>Node5</title>
<g id="a_Node000005"><a xlink:href="../../df/d7c/structvanetza_1_1security_1_1v2_1_1header__field__type_3_01HeaderFieldType_1_1Generation__Time_01_4.html" target="_top" xlink:title=" ">
<polygon fill="white" stroke="transparent" points="644,-82 498,-82 498,0 644,0 644,-82"/>
<text text-anchor="start" x="503" y="-70" font-family="Helvetica,sans-Serif" font-size="10.00">vanetza::security::</text>
<text text-anchor="start" x="503" y="-59" font-family="Helvetica,sans-Serif" font-size="10.00">v2::header_field_type</text>
<text text-anchor="start" x="503" y="-48" font-family="Helvetica,sans-Serif" font-size="10.00">&lt; HeaderFieldType::Generation</text>
<text text-anchor="start" x="552.5" y="-37" font-family="Helvetica,sans-Serif" font-size="10.00">_Time &gt;</text>
<text text-anchor="start" x="569" y="-22" font-family="Helvetica,sans-Serif" font-size="10.00"> </text>
<text text-anchor="start" x="569" y="-7" font-family="Helvetica,sans-Serif" font-size="10.00"> </text>
<polygon fill="#bfbfbf" stroke="#bfbfbf" points="498,-32 498,-32 644,-32 644,-32 498,-32"/>
<polygon fill="#bfbfbf" stroke="#bfbfbf" points="498,-17 498,-17 644,-17 644,-17 498,-17"/>
<polygon fill="none" stroke="#bfbfbf" points="498,0 498,-82 644,-82 644,0 498,0"/>
</a>
</g>
</g>
<!-- Node1&#45;&gt;Node5 -->
<g id="edge4_Node000001_Node000005" class="edge">
<title>Node1&#45;&gt;Node5</title>
<g id="a_edge4_Node000001_Node000005"><a xlink:title=" ">
<path fill="none" stroke="orange" d="M660.63,-175.64C646.39,-168.05 632.15,-158.54 621,-147 603.47,-128.84 591.14,-103.39 583.11,-82.08"/>
<polygon fill="orange" stroke="orange" points="659.46,-178.97 669.97,-180.36 662.62,-172.73 659.46,-178.97"/>
</a>
</g>
<text text-anchor="start" x="624" y="-128.5" font-family="Helvetica,sans-Serif" font-size="10.00" fill="grey">&lt; HeaderFieldType::</text>
<text text-anchor="start" x="624" y="-113.5" font-family="Helvetica,sans-Serif" font-size="10.00" fill="grey">  Generation_Time &gt;</text>
</g>
<!-- Node6 -->
<g id="Node000006" class="node">
<title>Node6</title>
<g id="a_Node000006"><a xlink:href="../../d3/d48/structvanetza_1_1security_1_1v2_1_1header__field__type_3_01HeaderFieldType_1_1Generation__Time__Confidence_01_4.html" target="_top" xlink:title=" ">
<polygon fill="white" stroke="transparent" points="808,-82 662,-82 662,0 808,0 808,-82"/>
<text text-anchor="start" x="667" y="-70" font-family="Helvetica,sans-Serif" font-size="10.00">vanetza::security::</text>
<text text-anchor="start" x="667" y="-59" font-family="Helvetica,sans-Serif" font-size="10.00">v2::header_field_type</text>
<text text-anchor="start" x="667" y="-48" font-family="Helvetica,sans-Serif" font-size="10.00">&lt; HeaderFieldType::Generation</text>
<text text-anchor="start" x="689.5" y="-37" font-family="Helvetica,sans-Serif" font-size="10.00">_Time_Confidence &gt;</text>
<text text-anchor="start" x="733" y="-22" font-family="Helvetica,sans-Serif" font-size="10.00"> </text>
<text text-anchor="start" x="733" y="-7" font-family="Helvetica,sans-Serif" font-size="10.00"> </text>
<polygon fill="#bfbfbf" stroke="#bfbfbf" points="662,-32 662,-32 808,-32 808,-32 662,-32"/>
<polygon fill="#bfbfbf" stroke="#bfbfbf" points="662,-17 662,-17 808,-17 808,-17 662,-17"/>
<polygon fill="none" stroke="#bfbfbf" points="662,0 662,-82 808,-82 808,0 662,0"/>
</a>
</g>
</g>
<!-- Node1&#45;&gt;Node6 -->
<g id="edge5_Node000001_Node000006" class="edge">
<title>Node1&#45;&gt;Node6</title>
<g id="a_edge5_Node000001_Node000006"><a xlink:title=" ">
<path fill="none" stroke="orange" d="M720.61,-154.57C720.56,-137.45 721.09,-117.78 723,-100 723.63,-94.17 724.57,-88.06 725.65,-82.09"/>
<polygon fill="orange" stroke="orange" points="717.11,-154.9 720.71,-164.87 724.11,-154.84 717.11,-154.9"/>
</a>
</g>
<text text-anchor="start" x="726.5" y="-128.5" font-family="Helvetica,sans-Serif" font-size="10.00" fill="grey">&lt; HeaderFieldType::</text>
<text text-anchor="start" x="726.5" y="-113.5" font-family="Helvetica,sans-Serif" font-size="10.00" fill="grey">  Generation_Time_Confidence &gt;</text>
</g>
<!-- Node7 -->
<g id="Node000007" class="node">
<title>Node7</title>
<g id="a_Node000007"><a xlink:href="../../df/dea/structvanetza_1_1security_1_1v2_1_1header__field__type_3_01HeaderFieldType_1_1Its__Aid_01_4.html" target="_top" xlink:title=" ">
<polygon fill="white" stroke="transparent" points="965.5,-76.5 826.5,-76.5 826.5,-5.5 965.5,-5.5 965.5,-76.5"/>
<text text-anchor="start" x="832" y="-64" font-family="Helvetica,sans-Serif" font-size="10.00">vanetza::security::</text>
<text text-anchor="start" x="832" y="-53" font-family="Helvetica,sans-Serif" font-size="10.00">v2::header_field_type</text>
<text text-anchor="start" x="832" y="-42" font-family="Helvetica,sans-Serif" font-size="10.00">&lt; HeaderFieldType::Its_Aid &gt;</text>
<text text-anchor="start" x="894.5" y="-27" font-family="Helvetica,sans-Serif" font-size="10.00"> </text>
<text text-anchor="start" x="894.5" y="-12" font-family="Helvetica,sans-Serif" font-size="10.00"> </text>
<polygon fill="#bfbfbf" stroke="#bfbfbf" points="827,-37 827,-37 966,-37 966,-37 827,-37"/>
<polygon fill="#bfbfbf" stroke="#bfbfbf" points="827,-22 827,-22 966,-22 966,-22 827,-22"/>
<polygon fill="none" stroke="#bfbfbf" points="826.5,-5.5 826.5,-76.5 965.5,-76.5 965.5,-5.5 826.5,-5.5"/>
</a>
</g>
</g>
<!-- Node1&#45;&gt;Node7 -->
<g id="edge6_Node000001_Node000007" class="edge">
<title>Node1&#45;&gt;Node7</title>
<g id="a_edge6_Node000001_Node000007"><a xlink:title=" ">
<path fill="none" stroke="orange" d="M784.28,-192.53C815.48,-185.83 851.35,-172.7 874,-147 890.87,-127.86 895.99,-99.13 897.09,-76.56"/>
<polygon fill="orange" stroke="orange" points="783.47,-189.12 774.34,-194.48 784.82,-195.99 783.47,-189.12"/>
</a>
</g>
<text text-anchor="start" x="898.5" y="-128.5" font-family="Helvetica,sans-Serif" font-size="10.00" fill="grey">&lt; HeaderFieldType::</text>
<text text-anchor="start" x="898.5" y="-113.5" font-family="Helvetica,sans-Serif" font-size="10.00" fill="grey">  Its_Aid &gt;</text>
</g>
<!-- Node8 -->
<g id="Node000008" class="node">
<title>Node8</title>
<g id="a_Node000008"><a xlink:href="../../d4/df8/structvanetza_1_1security_1_1v2_1_1header__field__type_3_01HeaderFieldType_1_1Recipient__Info_01_4.html" target="_top" xlink:title=" ">
<polygon fill="white" stroke="transparent" points="1124,-82 984,-82 984,0 1124,0 1124,-82"/>
<text text-anchor="start" x="989" y="-70" font-family="Helvetica,sans-Serif" font-size="10.00">vanetza::security::</text>
<text text-anchor="start" x="989" y="-59" font-family="Helvetica,sans-Serif" font-size="10.00">v2::header_field_type</text>
<text text-anchor="start" x="989" y="-48" font-family="Helvetica,sans-Serif" font-size="10.00">&lt; HeaderFieldType::Recipient</text>
<text text-anchor="start" x="1038.5" y="-37" font-family="Helvetica,sans-Serif" font-size="10.00">_Info &gt;</text>
<text text-anchor="start" x="1052" y="-22" font-family="Helvetica,sans-Serif" font-size="10.00"> </text>
<text text-anchor="start" x="1052" y="-7" font-family="Helvetica,sans-Serif" font-size="10.00"> </text>
<polygon fill="#bfbfbf" stroke="#bfbfbf" points="984,-32 984,-32 1124,-32 1124,-32 984,-32"/>
<polygon fill="#bfbfbf" stroke="#bfbfbf" points="984,-17 984,-17 1124,-17 1124,-17 984,-17"/>
<polygon fill="none" stroke="#bfbfbf" points="984,0 984,-82 1124,-82 1124,0 984,0"/>
</a>
</g>
</g>
<!-- Node1&#45;&gt;Node8 -->
<g id="edge7_Node000001_Node000008" class="edge">
<title>Node1&#45;&gt;Node8</title>
<g id="a_edge7_Node000001_Node000008"><a xlink:title=" ">
<path fill="none" stroke="orange" d="M784.1,-193.55C853.68,-185.86 961.06,-170.58 994,-147 1016.02,-131.24 1031.09,-104.7 1040.61,-82.25"/>
<polygon fill="orange" stroke="orange" points="783.69,-190.08 774.12,-194.63 784.44,-197.04 783.69,-190.08"/>
</a>
</g>
<text text-anchor="start" x="1035.5" y="-128.5" font-family="Helvetica,sans-Serif" font-size="10.00" fill="grey">&lt; HeaderFieldType::</text>
<text text-anchor="start" x="1035.5" y="-113.5" font-family="Helvetica,sans-Serif" font-size="10.00" fill="grey">  Recipient_Info &gt;</text>
</g>
<!-- Node9 -->
<g id="Node000009" class="node">
<title>Node9</title>
<g id="a_Node000009"><a xlink:href="../../dc/d24/structvanetza_1_1security_1_1v2_1_1header__field__type_3_01HeaderFieldType_1_1Request__Unrecognized__Certificate_01_4.html" target="_top" xlink:title=" ">
<polygon fill="white" stroke="transparent" points="1278,-82 1142,-82 1142,0 1278,0 1278,-82"/>
<text text-anchor="start" x="1147" y="-70" font-family="Helvetica,sans-Serif" font-size="10.00">vanetza::security::</text>
<text text-anchor="start" x="1147" y="-59" font-family="Helvetica,sans-Serif" font-size="10.00">v2::header_field_type</text>
<text text-anchor="start" x="1147" y="-48" font-family="Helvetica,sans-Serif" font-size="10.00">&lt; HeaderFieldType::Request</text>
<text text-anchor="start" x="1147" y="-37" font-family="Helvetica,sans-Serif" font-size="10.00">_Unrecognized_Certificate &gt;</text>
<text text-anchor="start" x="1208" y="-22" font-family="Helvetica,sans-Serif" font-size="10.00"> </text>
<text text-anchor="start" x="1208" y="-7" font-family="Helvetica,sans-Serif" font-size="10.00"> </text>
<polygon fill="#bfbfbf" stroke="#bfbfbf" points="1142,-32 1142,-32 1278,-32 1278,-32 1142,-32"/>
<polygon fill="#bfbfbf" stroke="#bfbfbf" points="1142,-17 1142,-17 1278,-17 1278,-17 1142,-17"/>
<polygon fill="none" stroke="#bfbfbf" points="1142,0 1142,-82 1278,-82 1278,0 1142,0"/>
</a>
</g>
</g>
<!-- Node1&#45;&gt;Node9 -->
<g id="edge8_Node000001_Node000009" class="edge">
<title>Node1&#45;&gt;Node9</title>
<g id="a_edge8_Node000001_Node000009"><a xlink:title=" ">
<path fill="none" stroke="orange" d="M784.24,-197.37C883.78,-193.01 1073.47,-180.45 1131,-147 1156.74,-132.03 1176.76,-105.04 1190.21,-82.17"/>
<polygon fill="orange" stroke="orange" points="783.86,-193.89 774.02,-197.81 784.15,-200.88 783.86,-193.89"/>
</a>
</g>
<text text-anchor="start" x="1182" y="-135.5" font-family="Helvetica,sans-Serif" font-size="10.00" fill="grey">&lt; HeaderFieldType::</text>
<text text-anchor="start" x="1182" y="-120.5" font-family="Helvetica,sans-Serif" font-size="10.00" fill="grey">  Request_Unrecognized</text>
<text text-anchor="start" x="1182" y="-105.5" font-family="Helvetica,sans-Serif" font-size="10.00" fill="grey">  _Certificate &gt;</text>
</g>
<!-- Node10 -->
<g id="Node000010" class="node">
<title>Node10</title>
<g id="a_Node000010"><a xlink:href="../../d5/df4/structvanetza_1_1security_1_1v2_1_1header__field__type_3_01HeaderFieldType_1_1Signer__Info_01_4.html" target="_top" xlink:title=" ">
<polygon fill="white" stroke="transparent" points="1423.5,-82 1296.5,-82 1296.5,0 1423.5,0 1423.5,-82"/>
<text text-anchor="start" x="1302" y="-70" font-family="Helvetica,sans-Serif" font-size="10.00">vanetza::security::</text>
<text text-anchor="start" x="1302" y="-59" font-family="Helvetica,sans-Serif" font-size="10.00">v2::header_field_type</text>
<text text-anchor="start" x="1302" y="-48" font-family="Helvetica,sans-Serif" font-size="10.00">&lt; HeaderFieldType::Signer</text>
<text text-anchor="start" x="1345" y="-37" font-family="Helvetica,sans-Serif" font-size="10.00">_Info &gt;</text>
<text text-anchor="start" x="1358.5" y="-22" font-family="Helvetica,sans-Serif" font-size="10.00"> </text>
<text text-anchor="start" x="1358.5" y="-7" font-family="Helvetica,sans-Serif" font-size="10.00"> </text>
<polygon fill="#bfbfbf" stroke="#bfbfbf" points="1297,-32 1297,-32 1424,-32 1424,-32 1297,-32"/>
<polygon fill="#bfbfbf" stroke="#bfbfbf" points="1297,-17 1297,-17 1424,-17 1424,-17 1297,-17"/>
<polygon fill="none" stroke="#bfbfbf" points="1296.5,0 1296.5,-82 1423.5,-82 1423.5,0 1296.5,0"/>
</a>
</g>
</g>
<!-- Node1&#45;&gt;Node10 -->
<g id="edge9_Node000001_Node000010" class="edge">
<title>Node1&#45;&gt;Node10</title>
<g id="a_edge9_Node000001_Node000010"><a xlink:title=" ">
<path fill="none" stroke="orange" d="M784.37,-196.98C924.3,-190.87 1254.35,-173.78 1297,-147 1320.58,-132.19 1336.53,-105.04 1346.48,-82.06"/>
<polygon fill="orange" stroke="orange" points="784.07,-193.49 774.23,-197.42 784.37,-200.48 784.07,-193.49"/>
</a>
</g>
<text text-anchor="start" x="1340.5" y="-128.5" font-family="Helvetica,sans-Serif" font-size="10.00" fill="grey">&lt; HeaderFieldType::</text>
<text text-anchor="start" x="1340.5" y="-113.5" font-family="Helvetica,sans-Serif" font-size="10.00" fill="grey">  Signer_Info &gt;</text>
</g>
</g>
</svg>
