<?xml version="1.0" encoding="UTF-8" standalone="no"?>
<!DOCTYPE svg PUBLIC "-//W3C//DTD SVG 1.1//EN"
 "http://www.w3.org/Graphics/SVG/1.1/DTD/svg11.dtd">
<!-- Generated by graphviz version 14.1.2 (0)
 -->
<!-- Title: vanetza::security::v2::header_field_type&lt; HeaderFieldType &gt; Pages: 1 -->
<svg width="1557pt" height="269pt"
 viewBox="0.00 0.00 1557.00 269.00" xmlns="http://www.w3.org/2000/svg" xmlns:xlink="http://www.w3.org/1999/xlink">
<g id="graph0" class="graph" transform="scale(1 1) rotate(0) translate(4 264.5)">
<title>vanetza::security::v2::header_field_type&lt; HeaderFieldType &gt;</title>
<!-- Node1 -->
<g id="Node000001" class="node">
<title>Node1</title>
<g id="a_Node000001"><a xlink:title="resolve type for matching HeaderFieldType">
<polygon fill="#999999" stroke="none" points="837.5,-260.5 724.5,-260.5 724.5,-180.75 837.5,-180.75 837.5,-260.5"/>
<text xml:space="preserve" text-anchor="start" x="728.5" y="-247" font-family="Helvetica,sans-Serif" font-size="10.00">vanetza::security::</text>
<text xml:space="preserve" text-anchor="start" x="728.5" y="-234.25" font-family="Helvetica,sans-Serif" font-size="10.00">v2::header_field_type</text>
<text xml:space="preserve" text-anchor="start" x="729.25" y="-221.5" font-family="Helvetica,sans-Serif" font-size="10.00">&lt; HeaderFieldType &gt;</text>
<text xml:space="preserve" text-anchor="start" x="779.5" y="-204.75" font-family="Helvetica,sans-Serif" font-size="10.00"> </text>
<text xml:space="preserve" text-anchor="start" x="779.5" y="-188" font-family="Helvetica,sans-Serif" font-size="10.00"> </text>
<polygon fill="#666666" stroke="#666666" points="724.5,-216.25 724.5,-216.25 837.5,-216.25 837.5,-216.25 724.5,-216.25"/>
<polygon fill="#666666" stroke="#666666" points="724.5,-199.5 724.5,-199.5 837.5,-199.5 837.5,-199.5 724.5,-199.5"/>
<polygon fill="none" stroke="#666666" points="724.5,-180.75 724.5,-260.5 837.5,-260.5 837.5,-180.75 724.5,-180.75"/>
</a>
</g>
</g>
<!-- Node2 -->
<g id="Node000002" class="node">
<title>Node2</title>
<g id="a_Node000002"><a xlink:href="../../da/d2b/structvanetza_1_1security_1_1v2_1_1header__field__type_3_01HeaderFieldType_1_1Encryption__Parameters_01_4.html" target="_top" xlink:title=" ">
<polygon fill="white" stroke="none" points="158,-92.5 0,-92.5 0,0 158,0 158,-92.5"/>
<text xml:space="preserve" text-anchor="start" x="4" y="-79" font-family="Helvetica,sans-Serif" font-size="10.00">vanetza::security::</text>
<text xml:space="preserve" text-anchor="start" x="4" y="-66.25" font-family="Helvetica,sans-Serif" font-size="10.00">v2::header_field_type</text>
<text xml:space="preserve" text-anchor="start" x="4" y="-53.5" font-family="Helvetica,sans-Serif" font-size="10.00">&lt; HeaderFieldType::Encryption</text>
<text xml:space="preserve" text-anchor="start" x="43" y="-40.75" font-family="Helvetica,sans-Serif" font-size="10.00">_Parameters &gt;</text>
<text xml:space="preserve" text-anchor="start" x="77.5" y="-24" font-family="Helvetica,sans-Serif" font-size="10.00"> </text>
<text xml:space="preserve" text-anchor="start" x="77.5" y="-7.25" font-family="Helvetica,sans-Serif" font-size="10.00"> </text>
<polygon fill="#bfbfbf" stroke="#bfbfbf" points="0,-35.5 0,-35.5 158,-35.5 158,-35.5 0,-35.5"/>
<polygon fill="#bfbfbf" stroke="#bfbfbf" points="0,-18.75 0,-18.75 158,-18.75 158,-18.75 0,-18.75"/>
<polygon fill="none" stroke="#bfbfbf" points="0,0 0,-92.5 158,-92.5 158,0 0,0"/>
</a>
</g>
</g>
<!-- Node1&#45;&gt;Node2 -->
<g id="edge1_Node000001_Node000002" class="edge">
<title>Node1&#45;&gt;Node2</title>
<g id="a_edge1_Node000001_Node000002"><a xlink:title=" ">
<path fill="none" stroke="orange" d="M713.08,-220.4C572.23,-220.9 253.73,-215.91 161.25,-162.75 133.61,-146.86 112.89,-117.49 99.16,-92.35"/>
<polygon fill="orange" stroke="orange" points="713.04,-223.9 723.02,-220.36 713,-216.9 713.04,-223.9"/>
</a>
</g>
<text xml:space="preserve" text-anchor="start" x="164.25" y="-141.88" font-family="Helvetica,sans-Serif" font-size="10.00" fill="grey">&lt; HeaderFieldType::</text>
<text xml:space="preserve" text-anchor="start" x="164.25" y="-125.12" font-family="Helvetica,sans-Serif" font-size="10.00" fill="grey">  Encryption_Parameters &gt;</text>
</g>
<!-- Node3 -->
<g id="Node000003" class="node">
<title>Node3</title>
<g id="a_Node000003"><a xlink:href="../../d3/d31/structvanetza_1_1security_1_1v2_1_1header__field__type_3_01HeaderFieldType_1_1Expiration_01_4.html" target="_top" xlink:title=" ">
<polygon fill="white" stroke="none" points="343.5,-86.12 176.5,-86.12 176.5,-6.38 343.5,-6.38 343.5,-86.12"/>
<text xml:space="preserve" text-anchor="start" x="180.5" y="-72.62" font-family="Helvetica,sans-Serif" font-size="10.00">vanetza::security::</text>
<text xml:space="preserve" text-anchor="start" x="180.5" y="-59.88" font-family="Helvetica,sans-Serif" font-size="10.00">v2::header_field_type</text>
<text xml:space="preserve" text-anchor="start" x="180.5" y="-47.12" font-family="Helvetica,sans-Serif" font-size="10.00">&lt; HeaderFieldType::Expiration &gt;</text>
<text xml:space="preserve" text-anchor="start" x="258.5" y="-30.38" font-family="Helvetica,sans-Serif" font-size="10.00"> </text>
<text xml:space="preserve" text-anchor="start" x="258.5" y="-13.62" font-family="Helvetica,sans-Serif" font-size="10.00"> </text>
<polygon fill="#bfbfbf" stroke="#bfbfbf" points="176.5,-41.88 176.5,-41.88 343.5,-41.88 343.5,-41.88 176.5,-41.88"/>
<polygon fill="#bfbfbf" stroke="#bfbfbf" points="176.5,-25.12 176.5,-25.12 343.5,-25.12 343.5,-25.12 176.5,-25.12"/>
<polygon fill="none" stroke="#bfbfbf" points="176.5,-6.38 176.5,-86.12 343.5,-86.12 343.5,-6.38 176.5,-6.38"/>
</a>
</g>
</g>
<!-- Node1&#45;&gt;Node3 -->
<g id="edge2_Node000001_Node000003" class="edge">
<title>Node1&#45;&gt;Node3</title>
<g id="a_edge2_Node000001_Node000003"><a xlink:title=" ">
<path fill="none" stroke="orange" d="M713.3,-216.29C610.15,-210.25 419.33,-195.01 359.75,-162.75 327.13,-145.09 300.36,-112.2 282.79,-86.02"/>
<polygon fill="orange" stroke="orange" points="712.83,-219.77 723.01,-216.85 713.23,-212.78 712.83,-219.77"/>
</a>
</g>
<text xml:space="preserve" text-anchor="start" x="362.75" y="-141.88" font-family="Helvetica,sans-Serif" font-size="10.00" fill="grey">&lt; HeaderFieldType::</text>
<text xml:space="preserve" text-anchor="start" x="362.75" y="-125.12" font-family="Helvetica,sans-Serif" font-size="10.00" fill="grey">  Expiration &gt;</text>
</g>
<!-- Node4 -->
<g id="Node000004" class="node">
<title>Node4</title>
<g id="a_Node000004"><a xlink:href="../../d0/d46/structvanetza_1_1security_1_1v2_1_1header__field__type_3_01HeaderFieldType_1_1Generation__Location_01_4.html" target="_top" xlink:title=" ">
<polygon fill="white" stroke="none" points="522.12,-92.5 361.88,-92.5 361.88,0 522.12,0 522.12,-92.5"/>
<text xml:space="preserve" text-anchor="start" x="365.88" y="-79" font-family="Helvetica,sans-Serif" font-size="10.00">vanetza::security::</text>
<text xml:space="preserve" text-anchor="start" x="365.88" y="-66.25" font-family="Helvetica,sans-Serif" font-size="10.00">v2::header_field_type</text>
<text xml:space="preserve" text-anchor="start" x="365.88" y="-53.5" font-family="Helvetica,sans-Serif" font-size="10.00">&lt; HeaderFieldType::Generation</text>
<text xml:space="preserve" text-anchor="start" x="413.12" y="-40.75" font-family="Helvetica,sans-Serif" font-size="10.00">_Location &gt;</text>
<text xml:space="preserve" text-anchor="start" x="440.5" y="-24" font-family="Helvetica,sans-Serif" font-size="10.00"> </text>
<text xml:space="preserve" text-anchor="start" x="440.5" y="-7.25" font-family="Helvetica,sans-Serif" font-size="10.00"> </text>
<polygon fill="#bfbfbf" stroke="#bfbfbf" points="361.88,-35.5 361.88,-35.5 522.12,-35.5 522.12,-35.5 361.88,-35.5"/>
<polygon fill="#bfbfbf" stroke="#bfbfbf" points="361.88,-18.75 361.88,-18.75 522.12,-18.75 522.12,-18.75 361.88,-18.75"/>
<polygon fill="none" stroke="#bfbfbf" points="361.88,0 361.88,-92.5 522.12,-92.5 522.12,0 361.88,0"/>
</a>
</g>
</g>
<!-- Node1&#45;&gt;Node4 -->
<g id="edge3_Node000001_Node000004" class="edge">
<title>Node1&#45;&gt;Node4</title>
<g id="a_edge3_Node000001_Node000004"><a xlink:title=" ">
<path fill="none" stroke="orange" d="M713.5,-211.85C643.96,-202.73 541.33,-185.89 509.25,-162.75 485.26,-145.44 468.48,-116.72 457.69,-92.26"/>
<polygon fill="orange" stroke="orange" points="712.92,-215.3 723.29,-213.1 713.82,-208.36 712.92,-215.3"/>
</a>
</g>
<text xml:space="preserve" text-anchor="start" x="512.25" y="-141.88" font-family="Helvetica,sans-Serif" font-size="10.00" fill="grey">&lt; HeaderFieldType::</text>
<text xml:space="preserve" text-anchor="start" x="512.25" y="-125.12" font-family="Helvetica,sans-Serif" font-size="10.00" fill="grey">  Generation_Location &gt;</text>
</g>
<!-- Node5 -->
<g id="Node000005" class="node">
<title>Node5</title>
<g id="a_Node000005"><a xlink:href="../../df/d7c/structvanetza_1_1security_1_1v2_1_1header__field__type_3_01HeaderFieldType_1_1Generation__Time_01_4.html" target="_top" xlink:title=" ">
<polygon fill="white" stroke="none" points="700.12,-92.5 539.88,-92.5 539.88,0 700.12,0 700.12,-92.5"/>
<text xml:space="preserve" text-anchor="start" x="543.88" y="-79" font-family="Helvetica,sans-Serif" font-size="10.00">vanetza::security::</text>
<text xml:space="preserve" text-anchor="start" x="543.88" y="-66.25" font-family="Helvetica,sans-Serif" font-size="10.00">v2::header_field_type</text>
<text xml:space="preserve" text-anchor="start" x="543.88" y="-53.5" font-family="Helvetica,sans-Serif" font-size="10.00">&lt; HeaderFieldType::Generation</text>
<text xml:space="preserve" text-anchor="start" x="599.38" y="-40.75" font-family="Helvetica,sans-Serif" font-size="10.00">_Time &gt;</text>
<text xml:space="preserve" text-anchor="start" x="618.5" y="-24" font-family="Helvetica,sans-Serif" font-size="10.00"> </text>
<text xml:space="preserve" text-anchor="start" x="618.5" y="-7.25" font-family="Helvetica,sans-Serif" font-size="10.00"> </text>
<polygon fill="#bfbfbf" stroke="#bfbfbf" points="539.88,-35.5 539.88,-35.5 700.12,-35.5 700.12,-35.5 539.88,-35.5"/>
<polygon fill="#bfbfbf" stroke="#bfbfbf" points="539.88,-18.75 539.88,-18.75 700.12,-18.75 700.12,-18.75 539.88,-18.75"/>
<polygon fill="none" stroke="#bfbfbf" points="539.88,0 539.88,-92.5 700.12,-92.5 700.12,0 539.88,0"/>
</a>
</g>
</g>
<!-- Node1&#45;&gt;Node5 -->
<g id="edge4_Node000001_Node000005" class="edge">
<title>Node1&#45;&gt;Node5</title>
<g id="a_edge4_Node000001_Node000005"><a xlink:title=" ">
<path fill="none" stroke="orange" d="M714.13,-195.82C697.36,-187.4 680.52,-176.5 667.75,-162.75 649.51,-143.12 637.76,-115.55 630.47,-92.27"/>
<polygon fill="orange" stroke="orange" points="712.62,-198.98 723.16,-200.1 715.62,-192.66 712.62,-198.98"/>
</a>
</g>
<text xml:space="preserve" text-anchor="start" x="670.75" y="-141.88" font-family="Helvetica,sans-Serif" font-size="10.00" fill="grey">&lt; HeaderFieldType::</text>
<text xml:space="preserve" text-anchor="start" x="670.75" y="-125.12" font-family="Helvetica,sans-Serif" font-size="10.00" fill="grey">  Generation_Time &gt;</text>
</g>
<!-- Node6 -->
<g id="Node000006" class="node">
<title>Node6</title>
<g id="a_Node000006"><a xlink:href="../../d3/d48/structvanetza_1_1security_1_1v2_1_1header__field__type_3_01HeaderFieldType_1_1Generation__Time__Confidence_01_4.html" target="_top" xlink:title=" ">
<polygon fill="white" stroke="none" points="878.12,-92.5 717.88,-92.5 717.88,0 878.12,0 878.12,-92.5"/>
<text xml:space="preserve" text-anchor="start" x="721.88" y="-79" font-family="Helvetica,sans-Serif" font-size="10.00">vanetza::security::</text>
<text xml:space="preserve" text-anchor="start" x="721.88" y="-66.25" font-family="Helvetica,sans-Serif" font-size="10.00">v2::header_field_type</text>
<text xml:space="preserve" text-anchor="start" x="721.88" y="-53.5" font-family="Helvetica,sans-Serif" font-size="10.00">&lt; HeaderFieldType::Generation</text>
<text xml:space="preserve" text-anchor="start" x="747.75" y="-40.75" font-family="Helvetica,sans-Serif" font-size="10.00">_Time_Confidence &gt;</text>
<text xml:space="preserve" text-anchor="start" x="796.5" y="-24" font-family="Helvetica,sans-Serif" font-size="10.00"> </text>
<text xml:space="preserve" text-anchor="start" x="796.5" y="-7.25" font-family="Helvetica,sans-Serif" font-size="10.00"> </text>
<polygon fill="#bfbfbf" stroke="#bfbfbf" points="717.88,-35.5 717.88,-35.5 878.12,-35.5 878.12,-35.5 717.88,-35.5"/>
<polygon fill="#bfbfbf" stroke="#bfbfbf" points="717.88,-18.75 717.88,-18.75 878.12,-18.75 878.12,-18.75 717.88,-18.75"/>
<polygon fill="none" stroke="#bfbfbf" points="717.88,0 717.88,-92.5 878.12,-92.5 878.12,0 717.88,0"/>
</a>
</g>
</g>
<!-- Node1&#45;&gt;Node6 -->
<g id="edge5_Node000001_Node000006" class="edge">
<title>Node1&#45;&gt;Node6</title>
<g id="a_edge5_Node000001_Node000006"><a xlink:title=" ">
<path fill="none" stroke="orange" d="M779.32,-169.36C779.32,-150.8 780.06,-129.63 782.5,-110.5 783.26,-104.56 784.37,-98.36 785.65,-92.28"/>
<polygon fill="orange" stroke="orange" points="775.82,-169.35 779.4,-179.33 782.82,-169.3 775.82,-169.35"/>
</a>
</g>
<text xml:space="preserve" text-anchor="start" x="785.5" y="-141.88" font-family="Helvetica,sans-Serif" font-size="10.00" fill="grey">&lt; HeaderFieldType::</text>
<text xml:space="preserve" text-anchor="start" x="785.5" y="-125.12" font-family="Helvetica,sans-Serif" font-size="10.00" fill="grey">  Generation_Time_Confidence &gt;</text>
</g>
<!-- Node7 -->
<g id="Node000007" class="node">
<title>Node7</title>
<g id="a_Node000007"><a xlink:href="../../df/dea/structvanetza_1_1security_1_1v2_1_1header__field__type_3_01HeaderFieldType_1_1Its__Aid_01_4.html" target="_top" xlink:title=" ">
<polygon fill="white" stroke="none" points="1046.25,-86.12 895.75,-86.12 895.75,-6.38 1046.25,-6.38 1046.25,-86.12"/>
<text xml:space="preserve" text-anchor="start" x="899.75" y="-72.62" font-family="Helvetica,sans-Serif" font-size="10.00">vanetza::security::</text>
<text xml:space="preserve" text-anchor="start" x="899.75" y="-59.88" font-family="Helvetica,sans-Serif" font-size="10.00">v2::header_field_type</text>
<text xml:space="preserve" text-anchor="start" x="899.75" y="-47.12" font-family="Helvetica,sans-Serif" font-size="10.00">&lt; HeaderFieldType::Its_Aid &gt;</text>
<text xml:space="preserve" text-anchor="start" x="969.5" y="-30.38" font-family="Helvetica,sans-Serif" font-size="10.00"> </text>
<text xml:space="preserve" text-anchor="start" x="969.5" y="-13.62" font-family="Helvetica,sans-Serif" font-size="10.00"> </text>
<polygon fill="#bfbfbf" stroke="#bfbfbf" points="895.75,-41.88 895.75,-41.88 1046.25,-41.88 1046.25,-41.88 895.75,-41.88"/>
<polygon fill="#bfbfbf" stroke="#bfbfbf" points="895.75,-25.12 895.75,-25.12 1046.25,-25.12 1046.25,-25.12 895.75,-25.12"/>
<polygon fill="none" stroke="#bfbfbf" points="895.75,-6.38 895.75,-86.12 1046.25,-86.12 1046.25,-6.38 895.75,-6.38"/>
</a>
</g>
</g>
<!-- Node1&#45;&gt;Node7 -->
<g id="edge6_Node000001_Node000007" class="edge">
<title>Node1&#45;&gt;Node7</title>
<g id="a_edge6_Node000001_Node000007"><a xlink:title=" ">
<path fill="none" stroke="orange" d="M848.5,-212.91C883.39,-205.91 923.82,-191.67 949,-162.75 967.16,-141.89 972.26,-110.75 973.04,-86.06"/>
<polygon fill="orange" stroke="orange" points="848.09,-209.43 838.88,-214.67 849.35,-216.32 848.09,-209.43"/>
</a>
</g>
<text xml:space="preserve" text-anchor="start" x="973.68" y="-141.88" font-family="Helvetica,sans-Serif" font-size="10.00" fill="grey">&lt; HeaderFieldType::</text>
<text xml:space="preserve" text-anchor="start" x="973.68" y="-125.12" font-family="Helvetica,sans-Serif" font-size="10.00" fill="grey">  Its_Aid &gt;</text>
</g>
<!-- Node8 -->
<g id="Node000008" class="node">
<title>Node8</title>
<g id="a_Node000008"><a xlink:href="../../d4/df8/structvanetza_1_1security_1_1v2_1_1header__field__type_3_01HeaderFieldType_1_1Recipient__Info_01_4.html" target="_top" xlink:title=" ">
<polygon fill="white" stroke="none" points="1216,-92.5 1064,-92.5 1064,0 1216,0 1216,-92.5"/>
<text xml:space="preserve" text-anchor="start" x="1068" y="-79" font-family="Helvetica,sans-Serif" font-size="10.00">vanetza::security::</text>
<text xml:space="preserve" text-anchor="start" x="1068" y="-66.25" font-family="Helvetica,sans-Serif" font-size="10.00">v2::header_field_type</text>
<text xml:space="preserve" text-anchor="start" x="1068" y="-53.5" font-family="Helvetica,sans-Serif" font-size="10.00">&lt; HeaderFieldType::Recipient</text>
<text xml:space="preserve" text-anchor="start" x="1122.38" y="-40.75" font-family="Helvetica,sans-Serif" font-size="10.00">_Info &gt;</text>
<text xml:space="preserve" text-anchor="start" x="1138.5" y="-24" font-family="Helvetica,sans-Serif" font-size="10.00"> </text>
<text xml:space="preserve" text-anchor="start" x="1138.5" y="-7.25" font-family="Helvetica,sans-Serif" font-size="10.00"> </text>
<polygon fill="#bfbfbf" stroke="#bfbfbf" points="1064,-35.5 1064,-35.5 1216,-35.5 1216,-35.5 1064,-35.5"/>
<polygon fill="#bfbfbf" stroke="#bfbfbf" points="1064,-18.75 1064,-18.75 1216,-18.75 1216,-18.75 1064,-18.75"/>
<polygon fill="none" stroke="#bfbfbf" points="1064,0 1064,-92.5 1216,-92.5 1216,0 1064,0"/>
</a>
</g>
</g>
<!-- Node1&#45;&gt;Node8 -->
<g id="edge7_Node000001_Node000008" class="edge">
<title>Node1&#45;&gt;Node8</title>
<g id="a_edge7_Node000001_Node000008"><a xlink:title=" ">
<path fill="none" stroke="orange" d="M848.69,-213.53C925.04,-205.49 1043.25,-189.19 1079,-162.75 1102.25,-145.56 1117.47,-116.84 1126.89,-92.34"/>
<polygon fill="orange" stroke="orange" points="848.37,-210.04 838.78,-214.55 849.09,-217.01 848.37,-210.04"/>
</a>
</g>
<text xml:space="preserve" text-anchor="start" x="1120.67" y="-141.88" font-family="Helvetica,sans-Serif" font-size="10.00" fill="grey">&lt; HeaderFieldType::</text>
<text xml:space="preserve" text-anchor="start" x="1120.67" y="-125.12" font-family="Helvetica,sans-Serif" font-size="10.00" fill="grey">  Recipient_Info &gt;</text>
</g>
<!-- Node9 -->
<g id="Node000009" class="node">
<title>Node9</title>
<g id="a_Node000009"><a xlink:href="../../dc/d24/structvanetza_1_1security_1_1v2_1_1header__field__type_3_01HeaderFieldType_1_1Request__Unrecognized__Certificate_01_4.html" target="_top" xlink:title=" ">
<polygon fill="white" stroke="none" points="1380.38,-92.5 1233.62,-92.5 1233.62,0 1380.38,0 1380.38,-92.5"/>
<text xml:space="preserve" text-anchor="start" x="1237.62" y="-79" font-family="Helvetica,sans-Serif" font-size="10.00">vanetza::security::</text>
<text xml:space="preserve" text-anchor="start" x="1237.62" y="-66.25" font-family="Helvetica,sans-Serif" font-size="10.00">v2::header_field_type</text>
<text xml:space="preserve" text-anchor="start" x="1237.62" y="-53.5" font-family="Helvetica,sans-Serif" font-size="10.00">&lt; HeaderFieldType::Request</text>
<text xml:space="preserve" text-anchor="start" x="1237.62" y="-40.75" font-family="Helvetica,sans-Serif" font-size="10.00">_Unrecognized_Certificate &gt;</text>
<text xml:space="preserve" text-anchor="start" x="1305.5" y="-24" font-family="Helvetica,sans-Serif" font-size="10.00"> </text>
<text xml:space="preserve" text-anchor="start" x="1305.5" y="-7.25" font-family="Helvetica,sans-Serif" font-size="10.00"> </text>
<polygon fill="#bfbfbf" stroke="#bfbfbf" points="1233.62,-35.5 1233.62,-35.5 1380.38,-35.5 1380.38,-35.5 1233.62,-35.5"/>
<polygon fill="#bfbfbf" stroke="#bfbfbf" points="1233.62,-18.75 1233.62,-18.75 1380.38,-18.75 1380.38,-18.75 1233.62,-18.75"/>
<polygon fill="none" stroke="#bfbfbf" points="1233.62,0 1233.62,-92.5 1380.38,-92.5 1380.38,0 1233.62,0"/>
</a>
</g>
</g>
<!-- Node1&#45;&gt;Node9 -->
<g id="edge8_Node000001_Node000009" class="edge">
<title>Node1&#45;&gt;Node9</title>
<g id="a_edge8_Node000001_Node000009"><a xlink:title=" ">
<path fill="none" stroke="orange" d="M848.76,-217.59C957.24,-213.24 1164,-200.18 1226,-162.75 1253.05,-146.42 1273.4,-117.22 1286.94,-92.27"/>
<polygon fill="orange" stroke="orange" points="848.67,-214.09 838.81,-217.97 848.94,-221.08 848.67,-214.09"/>
</a>
</g>
<text xml:space="preserve" text-anchor="start" x="1278.72" y="-150.25" font-family="Helvetica,sans-Serif" font-size="10.00" fill="grey">&lt; HeaderFieldType::</text>
<text xml:space="preserve" text-anchor="start" x="1278.72" y="-133.5" font-family="Helvetica,sans-Serif" font-size="10.00" fill="grey">  Request_Unrecognized</text>
<text xml:space="preserve" text-anchor="start" x="1278.72" y="-116.75" font-family="Helvetica,sans-Serif" font-size="10.00" fill="grey">  _Certificate &gt;</text>
</g>
<!-- Node10 -->
<g id="Node000010" class="node">
<title>Node10</title>
<g id="a_Node000010"><a xlink:href="../../d5/df4/structvanetza_1_1security_1_1v2_1_1header__field__type_3_01HeaderFieldType_1_1Signer__Info_01_4.html" target="_top" xlink:title=" ">
<polygon fill="white" stroke="none" points="1535.5,-92.5 1398.5,-92.5 1398.5,0 1535.5,0 1535.5,-92.5"/>
<text xml:space="preserve" text-anchor="start" x="1402.5" y="-79" font-family="Helvetica,sans-Serif" font-size="10.00">vanetza::security::</text>
<text xml:space="preserve" text-anchor="start" x="1402.5" y="-66.25" font-family="Helvetica,sans-Serif" font-size="10.00">v2::header_field_type</text>
<text xml:space="preserve" text-anchor="start" x="1402.5" y="-53.5" font-family="Helvetica,sans-Serif" font-size="10.00">&lt; HeaderFieldType::Signer</text>
<text xml:space="preserve" text-anchor="start" x="1449.38" y="-40.75" font-family="Helvetica,sans-Serif" font-size="10.00">_Info &gt;</text>
<text xml:space="preserve" text-anchor="start" x="1465.5" y="-24" font-family="Helvetica,sans-Serif" font-size="10.00"> </text>
<text xml:space="preserve" text-anchor="start" x="1465.5" y="-7.25" font-family="Helvetica,sans-Serif" font-size="10.00"> </text>
<polygon fill="#bfbfbf" stroke="#bfbfbf" points="1398.5,-35.5 1398.5,-35.5 1535.5,-35.5 1535.5,-35.5 1398.5,-35.5"/>
<polygon fill="#bfbfbf" stroke="#bfbfbf" points="1398.5,-18.75 1398.5,-18.75 1535.5,-18.75 1535.5,-18.75 1398.5,-18.75"/>
<polygon fill="none" stroke="#bfbfbf" points="1398.5,0 1398.5,-92.5 1535.5,-92.5 1535.5,0 1398.5,0"/>
</a>
</g>
</g>
<!-- Node1&#45;&gt;Node10 -->
<g id="edge9_Node000001_Node000010" class="edge">
<title>Node1&#45;&gt;Node10</title>
<g id="a_edge9_Node000001_Node000010"><a xlink:title=" ">
<path fill="none" stroke="orange" d="M848.72,-216.99C1000.33,-210.58 1357.39,-192.5 1403,-162.75 1427.77,-146.59 1443.83,-117.39 1453.66,-92.39"/>
<polygon fill="orange" stroke="orange" points="848.66,-213.49 838.81,-217.4 848.95,-220.48 848.66,-213.49"/>
</a>
</g>
<text xml:space="preserve" text-anchor="start" x="1448.24" y="-141.88" font-family="Helvetica,sans-Serif" font-size="10.00" fill="grey">&lt; HeaderFieldType::</text>
<text xml:space="preserve" text-anchor="start" x="1448.24" y="-125.12" font-family="Helvetica,sans-Serif" font-size="10.00" fill="grey">  Signer_Info &gt;</text>
</g>
</g>
</svg>
