<?xml version="1.0" encoding="UTF-8" standalone="no"?>
<!DOCTYPE svg PUBLIC "-//W3C//DTD SVG 1.1//EN"
 "http://www.w3.org/Graphics/SVG/1.1/DTD/svg11.dtd">
<!-- Generated by graphviz version 2.49.3 (0)
 -->
<!-- Title: vanetza::geonet::RepetitionDispatcher Pages: 1 -->
<svg width="136pt" height="194pt"
 viewBox="0.00 0.00 136.00 194.00" xmlns="http://www.w3.org/2000/svg" xmlns:xlink="http://www.w3.org/1999/xlink">
<g id="graph0" class="graph" transform="scale(1 1) rotate(0) translate(4 190)">
<title>vanetza::geonet::RepetitionDispatcher</title>
<!-- Node1 -->
<g id="Node000001" class="node">
<title>Node1</title>
<g id="a_Node000001"><a xlink:title=" ">
<polygon fill="#999999" stroke="transparent" points="128,-90 0,-90 0,0 128,0 128,-90"/>
<text text-anchor="start" x="5" y="-78" font-family="Helvetica,sans-Serif" font-size="10.00">vanetza::geonet::Repetition</text>
<text text-anchor="start" x="40" y="-67" font-family="Helvetica,sans-Serif" font-size="10.00">Dispatcher</text>
<text text-anchor="start" x="8.5" y="-52" font-family="Helvetica,sans-Serif" font-size="10.00">&#45;</text>
<text text-anchor="start" x="21" y="-52" font-family="Helvetica,sans-Serif" font-size="10.00">router</text>
<text text-anchor="start" x="8.5" y="-37" font-family="Helvetica,sans-Serif" font-size="10.00">&#45;</text>
<text text-anchor="start" x="21" y="-37" font-family="Helvetica,sans-Serif" font-size="10.00">payload</text>
<text text-anchor="start" x="7" y="-22" font-family="Helvetica,sans-Serif" font-size="10.00">+</text>
<text text-anchor="start" x="21" y="-22" font-family="Helvetica,sans-Serif" font-size="10.00">RepetitionDispatcher()</text>
<text text-anchor="start" x="7" y="-7" font-family="Helvetica,sans-Serif" font-size="10.00">+</text>
<text text-anchor="start" x="21" y="-7" font-family="Helvetica,sans-Serif" font-size="10.00">operator()()</text>
<polygon fill="#666666" stroke="#666666" points="0,-62 0,-62 128,-62 128,-62 0,-62"/>
<polygon fill="#666666" stroke="#666666" points="0,-32 0,-32 19,-32 19,-32 0,-32"/>
<polygon fill="#666666" stroke="#666666" points="19,-32 19,-32 128,-32 128,-32 19,-32"/>
<polygon fill="none" stroke="#666666" points="0,0 0,-90 128,-90 128,0 0,0"/>
</a>
</g>
</g>
<!-- Node2 -->
<g id="Node000002" class="node">
<title>Node2</title>
<g id="a_Node000002"><a xlink:title=" ">
<polygon fill="white" stroke="transparent" points="111.5,-186 16.5,-186 16.5,-126 111.5,-126 111.5,-186"/>
<text text-anchor="start" x="22" y="-174" font-family="Helvetica,sans-Serif" font-size="10.00">boost::static_visitor</text>
<text text-anchor="start" x="46.5" y="-163" font-family="Helvetica,sans-Serif" font-size="10.00">&lt; void &gt;</text>
<text text-anchor="start" x="62.5" y="-148" font-family="Helvetica,sans-Serif" font-size="10.00"> </text>
<text text-anchor="start" x="62.5" y="-133" font-family="Helvetica,sans-Serif" font-size="10.00"> </text>
<polygon fill="#bfbfbf" stroke="#bfbfbf" points="17,-158 17,-158 112,-158 112,-158 17,-158"/>
<polygon fill="#bfbfbf" stroke="#bfbfbf" points="17,-143 17,-143 112,-143 112,-143 17,-143"/>
<polygon fill="none" stroke="#bfbfbf" points="16.5,-126 16.5,-186 111.5,-186 111.5,-126 16.5,-126"/>
</a>
</g>
</g>
<!-- Node2&#45;&gt;Node1 -->
<g id="edge1_Node000001_Node000002" class="edge">
<title>Node2&#45;&gt;Node1</title>
<g id="a_edge1_Node000001_Node000002"><a xlink:title=" ">
<path fill="none" stroke="#63b8ff" d="M64,-115.62C64,-107.32 64,-98.52 64,-90.06"/>
<polygon fill="none" stroke="#63b8ff" points="60.5,-115.79 64,-125.79 67.5,-115.79 60.5,-115.79"/>
</a>
</g>
</g>
</g>
</svg>
