<?xml version="1.0" encoding="UTF-8" standalone="no"?>
<!DOCTYPE svg PUBLIC "-//W3C//DTD SVG 1.1//EN"
 "http://www.w3.org/Graphics/SVG/1.1/DTD/svg11.dtd">
<!-- Generated by graphviz version 2.42.1 (0)
 -->
<!-- Title: vanetza::geonet::RepetitionDispatcher Pages: 1 -->
<svg width="145pt" height="204pt"
 viewBox="0.00 0.00 145.00 204.00" xmlns="http://www.w3.org/2000/svg" xmlns:xlink="http://www.w3.org/1999/xlink">
<g id="graph0" class="graph" transform="scale(1 1) rotate(0) translate(4 200)">
<title>vanetza::geonet::RepetitionDispatcher</title>
<polygon fill="white" stroke="transparent" points="-4,4 -4,-200 141,-200 141,4 -4,4"/>
<!-- Node0 -->
<g id="node1" class="node">
<title>Node0</title>
<g id="a_node1"><a xlink:title=" ">
<polygon fill="#bfbfbf" stroke="black" points="0,-0.5 0,-90.5 137,-90.5 137,-0.5 0,-0.5"/>
<text text-anchor="start" x="8" y="-78.5" font-family="Helvetica,sans-Serif" font-size="10.00">vanetza::geonet::Repetition</text>
<text text-anchor="middle" x="68.5" y="-67.5" font-family="Helvetica,sans-Serif" font-size="10.00">Dispatcher</text>
<polyline fill="none" stroke="black" points="0,-60.5 137,-60.5 "/>
<text text-anchor="start" x="8" y="-48.5" font-family="Helvetica,sans-Serif" font-size="10.00">&#45; router</text>
<text text-anchor="start" x="8" y="-37.5" font-family="Helvetica,sans-Serif" font-size="10.00">&#45; payload</text>
<polyline fill="none" stroke="black" points="0,-30.5 137,-30.5 "/>
<text text-anchor="start" x="8" y="-18.5" font-family="Helvetica,sans-Serif" font-size="10.00">+ RepetitionDispatcher()</text>
<text text-anchor="start" x="8" y="-7.5" font-family="Helvetica,sans-Serif" font-size="10.00">+ operator()()</text>
</a>
</g>
</g>
<!-- Node1 -->
<g id="node2" class="node">
<title>Node1</title>
<g id="a_node2"><a xlink:title=" ">
<polygon fill="white" stroke="#bfbfbf" points="17.5,-127.5 17.5,-195.5 119.5,-195.5 119.5,-127.5 17.5,-127.5"/>
<text text-anchor="start" x="25.5" y="-183.5" font-family="Helvetica,sans-Serif" font-size="10.00">boost::static_visitor</text>
<text text-anchor="middle" x="68.5" y="-172.5" font-family="Helvetica,sans-Serif" font-size="10.00">&lt; void &gt;</text>
<polyline fill="none" stroke="#bfbfbf" points="17.5,-165.5 119.5,-165.5 "/>
<text text-anchor="middle" x="68.5" y="-153.5" font-family="Helvetica,sans-Serif" font-size="10.00"> </text>
<polyline fill="none" stroke="#bfbfbf" points="17.5,-146.5 119.5,-146.5 "/>
<text text-anchor="middle" x="68.5" y="-134.5" font-family="Helvetica,sans-Serif" font-size="10.00"> </text>
</a>
</g>
</g>
<!-- Node1&#45;&gt;Node0 -->
<g id="edge1" class="edge">
<title>Node1&#45;&gt;Node0</title>
<path fill="none" stroke="midnightblue" d="M68.5,-116.97C68.5,-108.35 68.5,-99.28 68.5,-90.64"/>
<polygon fill="none" stroke="midnightblue" points="65,-117.22 68.5,-127.22 72,-117.22 65,-117.22"/>
</g>
</g>
</svg>
