<?xml version="1.0" encoding="UTF-8" standalone="no"?>
<!DOCTYPE svg PUBLIC "-//W3C//DTD SVG 1.1//EN"
 "http://www.w3.org/Graphics/SVG/1.1/DTD/svg11.dtd">
<!-- Generated by graphviz version 2.42.1 (0)
 -->
<!-- Title: vanetza::dcc::DutyCyclePermit Pages: 1 -->
<svg width="162pt" height="325pt"
 viewBox="0.00 0.00 162.00 325.00" xmlns="http://www.w3.org/2000/svg" xmlns:xlink="http://www.w3.org/1999/xlink">
<g id="graph0" class="graph" transform="scale(1 1) rotate(0) translate(4 321)">
<title>vanetza::dcc::DutyCyclePermit</title>
<polygon fill="white" stroke="transparent" points="-4,4 -4,-321 158,-321 158,4 -4,4"/>
<!-- Node0 -->
<g id="node1" class="node">
<title>Node0</title>
<g id="a_node1"><a xlink:title=" ">
<polygon fill="#bfbfbf" stroke="black" points="0,-248.5 0,-316.5 154,-316.5 154,-248.5 0,-248.5"/>
<text text-anchor="middle" x="77" y="-304.5" font-family="Helvetica,sans-Serif" font-size="10.00">vanetza::dcc::DutyCyclePermit</text>
<polyline fill="none" stroke="black" points="0,-297.5 154,-297.5 "/>
<text text-anchor="middle" x="77" y="-285.5" font-family="Helvetica,sans-Serif" font-size="10.00"> </text>
<polyline fill="none" stroke="black" points="0,-278.5 154,-278.5 "/>
<text text-anchor="start" x="8" y="-266.5" font-family="Helvetica,sans-Serif" font-size="10.00">+ permitted_duty_cycle()</text>
<text text-anchor="start" x="8" y="-255.5" font-family="Helvetica,sans-Serif" font-size="10.00">+ ~DutyCyclePermit()</text>
</a>
</g>
</g>
<!-- Node1 -->
<g id="node2" class="node">
<title>Node1</title>
<g id="a_node2"><a xlink:href="../../d0/dc9/classvanetza_1_1dcc_1_1Limeric.html" target="_top" xlink:title=" ">
<polygon fill="white" stroke="black" points="14.5,-0.5 14.5,-211.5 139.5,-211.5 139.5,-0.5 14.5,-0.5"/>
<text text-anchor="middle" x="77" y="-199.5" font-family="Helvetica,sans-Serif" font-size="10.00">vanetza::dcc::Limeric</text>
<polyline fill="none" stroke="black" points="14.5,-192.5 139.5,-192.5 "/>
<text text-anchor="start" x="22.5" y="-180.5" font-family="Helvetica,sans-Serif" font-size="10.00">+ on_duty_cycle_change</text>
<text text-anchor="start" x="22.5" y="-169.5" font-family="Helvetica,sans-Serif" font-size="10.00">&#45; m_runtime</text>
<text text-anchor="start" x="22.5" y="-158.5" font-family="Helvetica,sans-Serif" font-size="10.00">&#45; m_params</text>
<text text-anchor="start" x="22.5" y="-147.5" font-family="Helvetica,sans-Serif" font-size="10.00">&#45; m_channel_load</text>
<text text-anchor="start" x="22.5" y="-136.5" font-family="Helvetica,sans-Serif" font-size="10.00">&#45; m_duty_cycle</text>
<text text-anchor="start" x="22.5" y="-125.5" font-family="Helvetica,sans-Serif" font-size="10.00">&#45; m_cbr</text>
<text text-anchor="start" x="22.5" y="-114.5" font-family="Helvetica,sans-Serif" font-size="10.00">&#45; m_duty_cycle_change</text>
<polyline fill="none" stroke="black" points="14.5,-107.5 139.5,-107.5 "/>
<text text-anchor="start" x="22.5" y="-95.5" font-family="Helvetica,sans-Serif" font-size="10.00">+ Limeric()</text>
<text text-anchor="start" x="22.5" y="-84.5" font-family="Helvetica,sans-Serif" font-size="10.00">+ Limeric()</text>
<text text-anchor="start" x="22.5" y="-73.5" font-family="Helvetica,sans-Serif" font-size="10.00">+ ~Limeric()</text>
<text text-anchor="start" x="22.5" y="-62.5" font-family="Helvetica,sans-Serif" font-size="10.00">+ update_cbr()</text>
<text text-anchor="start" x="22.5" y="-51.5" font-family="Helvetica,sans-Serif" font-size="10.00">+ average_cbr()</text>
<text text-anchor="start" x="22.5" y="-40.5" font-family="Helvetica,sans-Serif" font-size="10.00">+ permitted_duty_cycle()</text>
<text text-anchor="start" x="22.5" y="-29.5" font-family="Helvetica,sans-Serif" font-size="10.00">&#45; calculate()</text>
<text text-anchor="start" x="22.5" y="-18.5" font-family="Helvetica,sans-Serif" font-size="10.00">&#45; schedule()</text>
<text text-anchor="start" x="22.5" y="-7.5" font-family="Helvetica,sans-Serif" font-size="10.00">&#45; calculate_duty_cycle()</text>
</a>
</g>
</g>
<!-- Node0&#45;&gt;Node1 -->
<g id="edge1" class="edge">
<title>Node0&#45;&gt;Node1</title>
<path fill="none" stroke="midnightblue" d="M77,-238.22C77,-229.96 77,-220.99 77,-211.75"/>
<polygon fill="none" stroke="midnightblue" points="73.5,-238.27 77,-248.27 80.5,-238.27 73.5,-238.27"/>
</g>
</g>
</svg>
