<?xml version="1.0" encoding="UTF-8" standalone="no"?>
<!DOCTYPE svg PUBLIC "-//W3C//DTD SVG 1.1//EN"
 "http://www.w3.org/Graphics/SVG/1.1/DTD/svg11.dtd">
<!-- Generated by graphviz version 14.1.2 (0)
 -->
<!-- Title: vanetza::security::v2::detail::validity_restriction_type&lt; ValidityRestrictionType::Region &gt; Pages: 1 -->
<svg width="206pt" height="265pt"
 viewBox="0.00 0.00 206.00 265.00" xmlns="http://www.w3.org/2000/svg" xmlns:xlink="http://www.w3.org/1999/xlink">

<svg id="main" version="1.1" xmlns="http://www.w3.org/2000/svg" xmlns:xlink="http://www.w3.org/1999/xlink" xml:space="preserve">

<style type="text/css"><![CDATA[
.node, .edge {opacity: 0.7;}
.node.selected, .edge.selected {opacity: 1;}
.edge:hover path { stroke: red; }
.edge:hover polygon { stroke: red; fill: red; }
]]></style>
<script type="application/ecmascript" xlink:href="../../svg.min.js"/>
<svg id="graph" class="graph">
<g id="graph0" class="graph" transform="scale(1 1) rotate(0) translate(4 260.5)">
<title>vanetza::security::v2::detail::validity_restriction_type&lt; ValidityRestrictionType::Region &gt;</title>
<!-- Node1 -->
<g id="Node000001" class="node">
<title>Node1</title>
<g id="a_Node000001"><a xlink:title=" ">
<polygon fill="#999999" stroke="none" points="137.75,-92.5 0,-92.5 0,0 137.75,0 137.75,-92.5"/>
<text xml:space="preserve" text-anchor="start" x="4" y="-79" font-family="Helvetica,sans-Serif" font-size="10.00">vanetza::security::</text>
<text xml:space="preserve" text-anchor="start" x="4" y="-66.25" font-family="Helvetica,sans-Serif" font-size="10.00">v2::detail::validity</text>
<text xml:space="preserve" text-anchor="start" x="4" y="-53.5" font-family="Helvetica,sans-Serif" font-size="10.00">_restriction_type&lt; Validity</text>
<text xml:space="preserve" text-anchor="start" x="5.88" y="-40.75" font-family="Helvetica,sans-Serif" font-size="10.00">RestrictionType::Region &gt;</text>
<text xml:space="preserve" text-anchor="start" x="67.38" y="-24" font-family="Helvetica,sans-Serif" font-size="10.00"> </text>
<text xml:space="preserve" text-anchor="start" x="67.38" y="-7.25" font-family="Helvetica,sans-Serif" font-size="10.00"> </text>
<polygon fill="#666666" stroke="#666666" points="0,-35.5 0,-35.5 137.75,-35.5 137.75,-35.5 0,-35.5"/>
<polygon fill="#666666" stroke="#666666" points="0,-18.75 0,-18.75 137.75,-18.75 137.75,-18.75 0,-18.75"/>
<polygon fill="none" stroke="#666666" points="0,0 0,-92.5 137.75,-92.5 137.75,0 0,0"/>
</a>
</g>
</g>
<!-- Node2 -->
<g id="Node000002" class="node">
<title>Node2</title>
<g id="a_Node000002"><a xlink:href="../../df/d49/structvanetza_1_1security_1_1v2_1_1detail_1_1validity__restriction__type.html" target="_top" xlink:title=" ">
<polygon fill="white" stroke="none" points="137.75,-256.5 0,-256.5 0,-164 137.75,-164 137.75,-256.5"/>
<text xml:space="preserve" text-anchor="start" x="4" y="-243" font-family="Helvetica,sans-Serif" font-size="10.00">vanetza::security::</text>
<text xml:space="preserve" text-anchor="start" x="4" y="-230.25" font-family="Helvetica,sans-Serif" font-size="10.00">v2::detail::validity</text>
<text xml:space="preserve" text-anchor="start" x="4" y="-217.5" font-family="Helvetica,sans-Serif" font-size="10.00">_restriction_type&lt; Validity</text>
<text xml:space="preserve" text-anchor="start" x="25.75" y="-204.75" font-family="Helvetica,sans-Serif" font-size="10.00">RestrictionType &gt;</text>
<text xml:space="preserve" text-anchor="start" x="67.38" y="-188" font-family="Helvetica,sans-Serif" font-size="10.00"> </text>
<text xml:space="preserve" text-anchor="start" x="67.38" y="-171.25" font-family="Helvetica,sans-Serif" font-size="10.00"> </text>
<polygon fill="#bfbfbf" stroke="#bfbfbf" points="0,-199.5 0,-199.5 137.75,-199.5 137.75,-199.5 0,-199.5"/>
<polygon fill="#bfbfbf" stroke="#bfbfbf" points="0,-182.75 0,-182.75 137.75,-182.75 137.75,-182.75 0,-182.75"/>
<polygon fill="none" stroke="#bfbfbf" points="0,-164 0,-256.5 137.75,-256.5 137.75,-164 0,-164"/>
</a>
</g>
</g>
<!-- Node2&#45;&gt;Node1 -->
<g id="edge1_Node000001_Node000002" class="edge">
<title>Node2&#45;&gt;Node1</title>
<g id="a_edge1_Node000001_Node000002"><a xlink:title=" ">
<path fill="none" stroke="orange" d="M68.88,-152.78C68.88,-133.03 68.88,-111.12 68.88,-92.41"/>
<polygon fill="orange" stroke="orange" points="65.38,-152.61 68.88,-162.61 72.38,-152.61 65.38,-152.61"/>
</a>
</g>
<text xml:space="preserve" text-anchor="start" x="71.88" y="-133.5" font-family="Helvetica,sans-Serif" font-size="10.00" fill="grey">&lt; ValidityRestrictionType</text>
<text xml:space="preserve" text-anchor="start" x="71.88" y="-116.75" font-family="Helvetica,sans-Serif" font-size="10.00" fill="grey">  ::Region &gt;</text>
</g>
</g>
</svg>
</svg>

<style type='text/css'>
<![CDATA[
[data-mouse-over-selected='false'] { opacity: 0.7; }
[data-mouse-over-selected='true']  { opacity: 1.0; }
]]>
</style>
<script type="application/ecmascript"><![CDATA[
document.addEventListener('DOMContentLoaded', (event) => {
  highlightEdges();
  highlightAdjacentNodes();
});
]]></script>
</svg>
