<?xml version="1.0" encoding="UTF-8" standalone="no"?>
<!DOCTYPE svg PUBLIC "-//W3C//DTD SVG 1.1//EN"
 "http://www.w3.org/Graphics/SVG/1.1/DTD/svg11.dtd">
<!-- Generated by graphviz version 2.49.3 (0)
 -->
<!-- Title: vanetza::dcc::StateMachine Pages: 1 -->
<svg width="302pt" height="348pt"
 viewBox="0.00 0.00 302.00 348.00" xmlns="http://www.w3.org/2000/svg" xmlns:xlink="http://www.w3.org/1999/xlink">

<svg id="main" version="1.1" xmlns="http://www.w3.org/2000/svg" xmlns:xlink="http://www.w3.org/1999/xlink" xml:space="preserve">

<style type="text/css"><![CDATA[
.node, .edge {opacity: 0.7;}
.node.selected, .edge.selected {opacity: 1;}
.edge:hover path { stroke: red; }
.edge:hover polygon { stroke: red; fill: red; }
]]></style>
<script type="application/ecmascript" xlink:href="../../svg.min.js"/>
<svg id="graph" class="graph">
<g id="graph0" class="graph" transform="scale(1 1) rotate(0) translate(4 344)">
<title>vanetza::dcc::StateMachine</title>
<!-- Node1 -->
<g id="Node000001" class="node">
<title>Node1</title>
<g id="a_Node000001"><a xlink:title=" ">
<polygon fill="#999999" stroke="transparent" points="217.5,-340 85.5,-340 85.5,-261 217.5,-261 217.5,-340"/>
<text text-anchor="start" x="90.5" y="-327.5" font-family="Helvetica,sans-Serif" font-size="10.00">vanetza::dcc::StateMachine</text>
<text text-anchor="start" x="149.5" y="-312.5" font-family="Helvetica,sans-Serif" font-size="10.00"> </text>
<text text-anchor="start" x="93" y="-297.5" font-family="Helvetica,sans-Serif" font-size="10.00">+</text>
<text text-anchor="start" x="107.5" y="-297.5" font-family="Helvetica,sans-Serif" font-size="10.00">update()</text>
<text text-anchor="start" x="93" y="-282.5" font-family="Helvetica,sans-Serif" font-size="10.00">+</text>
<text text-anchor="start" x="107.5" y="-282.5" font-family="Helvetica,sans-Serif" font-size="10.00">transmission_interval()</text>
<text text-anchor="start" x="93" y="-267.5" font-family="Helvetica,sans-Serif" font-size="10.00">+</text>
<text text-anchor="start" x="107.5" y="-267.5" font-family="Helvetica,sans-Serif" font-size="10.00">~StateMachine()</text>
<polygon fill="#666666" stroke="#666666" points="85.5,-322.5 85.5,-322.5 217.5,-322.5 217.5,-322.5 85.5,-322.5"/>
<polygon fill="#666666" stroke="#666666" points="85.5,-307.5 85.5,-307.5 217.5,-307.5 217.5,-307.5 85.5,-307.5"/>
<polygon fill="none" stroke="#666666" points="85.5,-261 85.5,-340 217.5,-340 217.5,-261 85.5,-261"/>
</a>
</g>
</g>
<!-- Node2 -->
<g id="Node000002" class="node">
<title>Node2</title>
<g id="a_Node000002"><a xlink:href="../../d2/d3b/classvanetza_1_1dcc_1_1FullyMeshedStateMachine.html" target="_top" xlink:title=" ">
<polygon fill="white" stroke="transparent" points="147,-225 0,-225 0,0 147,0 147,-225"/>
<text text-anchor="start" x="15" y="-212.5" font-family="Helvetica,sans-Serif" font-size="10.00">vanetza::dcc::FullyMeshed</text>
<text text-anchor="start" x="43.5" y="-201.5" font-family="Helvetica,sans-Serif" font-size="10.00">StateMachine</text>
<text text-anchor="start" x="6" y="-186.5" font-family="Helvetica,sans-Serif" font-size="10.00">&#45;</text>
<text text-anchor="start" x="15.5" y="-186.5" font-family="Helvetica,sans-Serif" font-size="10.00">m_relaxed</text>
<text text-anchor="start" x="6" y="-171.5" font-family="Helvetica,sans-Serif" font-size="10.00">&#45;</text>
<text text-anchor="start" x="15.5" y="-171.5" font-family="Helvetica,sans-Serif" font-size="10.00">m_active</text>
<text text-anchor="start" x="6" y="-156.5" font-family="Helvetica,sans-Serif" font-size="10.00">&#45;</text>
<text text-anchor="start" x="15.5" y="-156.5" font-family="Helvetica,sans-Serif" font-size="10.00">m_restrictive</text>
<text text-anchor="start" x="6" y="-141.5" font-family="Helvetica,sans-Serif" font-size="10.00">&#45;</text>
<text text-anchor="start" x="15.5" y="-141.5" font-family="Helvetica,sans-Serif" font-size="10.00">m_state</text>
<text text-anchor="start" x="6" y="-126.5" font-family="Helvetica,sans-Serif" font-size="10.00">&#45;</text>
<text text-anchor="start" x="15.5" y="-126.5" font-family="Helvetica,sans-Serif" font-size="10.00">m_channel_loads</text>
<text text-anchor="start" x="4.5" y="-111.5" font-family="Helvetica,sans-Serif" font-size="10.00">+</text>
<text text-anchor="start" x="15.5" y="-111.5" font-family="Helvetica,sans-Serif" font-size="10.00">FullyMeshedStateMachine()</text>
<text text-anchor="start" x="4.5" y="-96.5" font-family="Helvetica,sans-Serif" font-size="10.00">+</text>
<text text-anchor="start" x="15.5" y="-96.5" font-family="Helvetica,sans-Serif" font-size="10.00">~FullyMeshedStateMachine()</text>
<text text-anchor="start" x="4.5" y="-81.5" font-family="Helvetica,sans-Serif" font-size="10.00">+</text>
<text text-anchor="start" x="15.5" y="-81.5" font-family="Helvetica,sans-Serif" font-size="10.00">update()</text>
<text text-anchor="start" x="4.5" y="-66.5" font-family="Helvetica,sans-Serif" font-size="10.00">+</text>
<text text-anchor="start" x="15.5" y="-66.5" font-family="Helvetica,sans-Serif" font-size="10.00">message_rate()</text>
<text text-anchor="start" x="4.5" y="-51.5" font-family="Helvetica,sans-Serif" font-size="10.00">+</text>
<text text-anchor="start" x="15.5" y="-51.5" font-family="Helvetica,sans-Serif" font-size="10.00">transmission_interval()</text>
<text text-anchor="start" x="4.5" y="-36.5" font-family="Helvetica,sans-Serif" font-size="10.00">+</text>
<text text-anchor="start" x="15.5" y="-36.5" font-family="Helvetica,sans-Serif" font-size="10.00">state()</text>
<text text-anchor="start" x="6" y="-21.5" font-family="Helvetica,sans-Serif" font-size="10.00">&#45;</text>
<text text-anchor="start" x="15.5" y="-21.5" font-family="Helvetica,sans-Serif" font-size="10.00">max_channel_load()</text>
<text text-anchor="start" x="6" y="-6.5" font-family="Helvetica,sans-Serif" font-size="10.00">&#45;</text>
<text text-anchor="start" x="15.5" y="-6.5" font-family="Helvetica,sans-Serif" font-size="10.00">min_channel_load()</text>
<polygon fill="#666666" stroke="#666666" points="0.5,-196.5 0.5,-196.5 147.5,-196.5 147.5,-196.5 0.5,-196.5"/>
<polygon fill="#666666" stroke="#666666" points="0.5,-121.5 0.5,-121.5 13.5,-121.5 13.5,-121.5 0.5,-121.5"/>
<polygon fill="#666666" stroke="#666666" points="13.5,-121.5 13.5,-121.5 147.5,-121.5 147.5,-121.5 13.5,-121.5"/>
<polygon fill="none" stroke="#666666" points="0,0 0,-225 147,-225 147,0 0,0"/>
</a>
</g>
</g>
<!-- Node1&#45;&gt;Node2 -->
<g id="edge1_Node000001_Node000002" class="edge">
<title>Node1&#45;&gt;Node2</title>
<g id="a_edge1_Node000001_Node000002"><a xlink:title=" ">
<path fill="none" stroke="#63b8ff" d="M131.4,-251.56C127.93,-243.29 124.19,-234.39 120.36,-225.23"/>
<polygon fill="none" stroke="#63b8ff" points="128.24,-253.09 135.34,-260.96 134.7,-250.39 128.24,-253.09"/>
</a>
</g>
</g>
<!-- Node3 -->
<g id="Node000003" class="node">
<title>Node3</title>
<g id="a_Node000003"><a xlink:href="../../df/dd9/classvanetza_1_1dcc_1_1GradualStateMachine.html" target="_top" xlink:title=" ">
<polygon fill="white" stroke="transparent" points="294,-187.5 165,-187.5 165,-37.5 294,-37.5 294,-187.5"/>
<text text-anchor="start" x="170.5" y="-175.5" font-family="Helvetica,sans-Serif" font-size="10.00">vanetza::dcc::GradualState</text>
<text text-anchor="start" x="211.5" y="-164.5" font-family="Helvetica,sans-Serif" font-size="10.00">Machine</text>
<text text-anchor="start" x="173.5" y="-149.5" font-family="Helvetica,sans-Serif" font-size="10.00">&#45;</text>
<text text-anchor="start" x="185.5" y="-149.5" font-family="Helvetica,sans-Serif" font-size="10.00">m_states</text>
<text text-anchor="start" x="173.5" y="-134.5" font-family="Helvetica,sans-Serif" font-size="10.00">&#45;</text>
<text text-anchor="start" x="185.5" y="-134.5" font-family="Helvetica,sans-Serif" font-size="10.00">m_current</text>
<text text-anchor="start" x="172" y="-119.5" font-family="Helvetica,sans-Serif" font-size="10.00">+</text>
<text text-anchor="start" x="185.5" y="-119.5" font-family="Helvetica,sans-Serif" font-size="10.00">GradualStateMachine()</text>
<text text-anchor="start" x="172" y="-104.5" font-family="Helvetica,sans-Serif" font-size="10.00">+</text>
<text text-anchor="start" x="185.5" y="-104.5" font-family="Helvetica,sans-Serif" font-size="10.00">GradualStateMachine()</text>
<text text-anchor="start" x="172" y="-89.5" font-family="Helvetica,sans-Serif" font-size="10.00">+</text>
<text text-anchor="start" x="185.5" y="-89.5" font-family="Helvetica,sans-Serif" font-size="10.00">update()</text>
<text text-anchor="start" x="172" y="-74.5" font-family="Helvetica,sans-Serif" font-size="10.00">+</text>
<text text-anchor="start" x="185.5" y="-74.5" font-family="Helvetica,sans-Serif" font-size="10.00">transmission_interval()</text>
<text text-anchor="start" x="172" y="-59.5" font-family="Helvetica,sans-Serif" font-size="10.00">+</text>
<text text-anchor="start" x="185.5" y="-59.5" font-family="Helvetica,sans-Serif" font-size="10.00">state()</text>
<text text-anchor="start" x="173.5" y="-44.5" font-family="Helvetica,sans-Serif" font-size="10.00">&#45;</text>
<text text-anchor="start" x="185.5" y="-44.5" font-family="Helvetica,sans-Serif" font-size="10.00">repair()</text>
<polygon fill="#666666" stroke="#666666" points="165.5,-159.5 165.5,-159.5 294.5,-159.5 294.5,-159.5 165.5,-159.5"/>
<polygon fill="#666666" stroke="#666666" points="165.5,-129.5 165.5,-129.5 183.5,-129.5 183.5,-129.5 165.5,-129.5"/>
<polygon fill="#666666" stroke="#666666" points="183.5,-129.5 183.5,-129.5 294.5,-129.5 294.5,-129.5 183.5,-129.5"/>
<polygon fill="none" stroke="#666666" points="165,-37.5 165,-187.5 294,-187.5 294,-37.5 165,-37.5"/>
</a>
</g>
</g>
<!-- Node1&#45;&gt;Node3 -->
<g id="edge2_Node000001_Node000003" class="edge">
<title>Node1&#45;&gt;Node3</title>
<g id="a_edge2_Node000001_Node000003"><a xlink:title=" ">
<path fill="none" stroke="#63b8ff" d="M171.54,-251.7C179.71,-232.23 189.34,-209.27 198.38,-187.71"/>
<polygon fill="none" stroke="#63b8ff" points="168.3,-250.39 167.66,-260.96 174.76,-253.09 168.3,-250.39"/>
</a>
</g>
</g>
</g>
</svg>
</svg>

<style type='text/css'>
<![CDATA[
[data-mouse-over-selected='false'] { opacity: 0.7; }
[data-mouse-over-selected='true']  { opacity: 1.0; }
]]>
</style>
<script type="application/ecmascript"><![CDATA[
document.addEventListener('DOMContentLoaded', (event) => {
  highlightEdges();
  highlightAdjacentNodes();
});
]]></script>
</svg>
