<?xml version="1.0" encoding="UTF-8" standalone="no"?>
<!DOCTYPE svg PUBLIC "-//W3C//DTD SVG 1.1//EN"
 "http://www.w3.org/Graphics/SVG/1.1/DTD/svg11.dtd">
<!-- Generated by graphviz version 2.42.1 (0)
 -->
<!-- Title: vanetza::dcc::StateMachine Pages: 1 -->
<svg width="316pt" height="314pt"
 viewBox="0.00 0.00 315.50 314.00" xmlns="http://www.w3.org/2000/svg" xmlns:xlink="http://www.w3.org/1999/xlink">
<g id="graph0" class="graph" transform="scale(1 1) rotate(0) translate(4 310)">
<title>vanetza::dcc::StateMachine</title>
<polygon fill="white" stroke="transparent" points="-4,4 -4,-310 311.5,-310 311.5,4 -4,4"/>
<!-- Node0 -->
<g id="node1" class="node">
<title>Node0</title>
<g id="a_node1"><a xlink:title=" ">
<polygon fill="#bfbfbf" stroke="black" points="88,-226.5 88,-305.5 227,-305.5 227,-226.5 88,-226.5"/>
<text text-anchor="middle" x="157.5" y="-293.5" font-family="Helvetica,sans-Serif" font-size="10.00">vanetza::dcc::StateMachine</text>
<polyline fill="none" stroke="black" points="88,-286.5 227,-286.5 "/>
<text text-anchor="middle" x="157.5" y="-274.5" font-family="Helvetica,sans-Serif" font-size="10.00"> </text>
<polyline fill="none" stroke="black" points="88,-267.5 227,-267.5 "/>
<text text-anchor="start" x="96" y="-255.5" font-family="Helvetica,sans-Serif" font-size="10.00">+ update()</text>
<text text-anchor="start" x="96" y="-244.5" font-family="Helvetica,sans-Serif" font-size="10.00">+ transmission_interval()</text>
<text text-anchor="start" x="96" y="-233.5" font-family="Helvetica,sans-Serif" font-size="10.00">+ ~StateMachine()</text>
</a>
</g>
</g>
<!-- Node1 -->
<g id="node2" class="node">
<title>Node1</title>
<g id="a_node2"><a xlink:href="../../d2/d3b/classvanetza_1_1dcc_1_1FullyMeshedStateMachine.html" target="_top" xlink:title=" ">
<polygon fill="white" stroke="black" points="0,-0.5 0,-189.5 153,-189.5 153,-0.5 0,-0.5"/>
<text text-anchor="start" x="8" y="-177.5" font-family="Helvetica,sans-Serif" font-size="10.00">vanetza::dcc::FullyMeshed</text>
<text text-anchor="middle" x="76.5" y="-166.5" font-family="Helvetica,sans-Serif" font-size="10.00">StateMachine</text>
<polyline fill="none" stroke="black" points="0,-159.5 153,-159.5 "/>
<text text-anchor="start" x="8" y="-147.5" font-family="Helvetica,sans-Serif" font-size="10.00">&#45; m_relaxed</text>
<text text-anchor="start" x="8" y="-136.5" font-family="Helvetica,sans-Serif" font-size="10.00">&#45; m_active</text>
<text text-anchor="start" x="8" y="-125.5" font-family="Helvetica,sans-Serif" font-size="10.00">&#45; m_restrictive</text>
<text text-anchor="start" x="8" y="-114.5" font-family="Helvetica,sans-Serif" font-size="10.00">&#45; m_state</text>
<text text-anchor="start" x="8" y="-103.5" font-family="Helvetica,sans-Serif" font-size="10.00">&#45; m_channel_loads</text>
<polyline fill="none" stroke="black" points="0,-96.5 153,-96.5 "/>
<text text-anchor="start" x="8" y="-84.5" font-family="Helvetica,sans-Serif" font-size="10.00">+ FullyMeshedStateMachine()</text>
<text text-anchor="start" x="8" y="-73.5" font-family="Helvetica,sans-Serif" font-size="10.00">+ ~FullyMeshedStateMachine()</text>
<text text-anchor="start" x="8" y="-62.5" font-family="Helvetica,sans-Serif" font-size="10.00">+ update()</text>
<text text-anchor="start" x="8" y="-51.5" font-family="Helvetica,sans-Serif" font-size="10.00">+ message_rate()</text>
<text text-anchor="start" x="8" y="-40.5" font-family="Helvetica,sans-Serif" font-size="10.00">+ transmission_interval()</text>
<text text-anchor="start" x="8" y="-29.5" font-family="Helvetica,sans-Serif" font-size="10.00">+ state()</text>
<text text-anchor="start" x="8" y="-18.5" font-family="Helvetica,sans-Serif" font-size="10.00">&#45; max_channel_load()</text>
<text text-anchor="start" x="8" y="-7.5" font-family="Helvetica,sans-Serif" font-size="10.00">&#45; min_channel_load()</text>
</a>
</g>
</g>
<!-- Node0&#45;&gt;Node1 -->
<g id="edge1" class="edge">
<title>Node0&#45;&gt;Node1</title>
<path fill="none" stroke="midnightblue" d="M134.53,-217.08C130.37,-208.39 125.9,-199.07 121.36,-189.6"/>
<polygon fill="none" stroke="midnightblue" points="131.44,-218.72 138.92,-226.23 137.75,-215.7 131.44,-218.72"/>
</g>
<!-- Node2 -->
<g id="node3" class="node">
<title>Node2</title>
<g id="a_node3"><a xlink:href="../../df/dd9/classvanetza_1_1dcc_1_1GradualStateMachine.html" target="_top" xlink:title=" ">
<polygon fill="white" stroke="black" points="171.5,-28 171.5,-162 307.5,-162 307.5,-28 171.5,-28"/>
<text text-anchor="start" x="179.5" y="-150" font-family="Helvetica,sans-Serif" font-size="10.00">vanetza::dcc::GradualState</text>
<text text-anchor="middle" x="239.5" y="-139" font-family="Helvetica,sans-Serif" font-size="10.00">Machine</text>
<polyline fill="none" stroke="black" points="171.5,-132 307.5,-132 "/>
<text text-anchor="start" x="179.5" y="-120" font-family="Helvetica,sans-Serif" font-size="10.00">&#45; m_states</text>
<text text-anchor="start" x="179.5" y="-109" font-family="Helvetica,sans-Serif" font-size="10.00">&#45; m_current</text>
<polyline fill="none" stroke="black" points="171.5,-102 307.5,-102 "/>
<text text-anchor="start" x="179.5" y="-90" font-family="Helvetica,sans-Serif" font-size="10.00">+ GradualStateMachine()</text>
<text text-anchor="start" x="179.5" y="-79" font-family="Helvetica,sans-Serif" font-size="10.00">+ GradualStateMachine()</text>
<text text-anchor="start" x="179.5" y="-68" font-family="Helvetica,sans-Serif" font-size="10.00">+ update()</text>
<text text-anchor="start" x="179.5" y="-57" font-family="Helvetica,sans-Serif" font-size="10.00">+ transmission_interval()</text>
<text text-anchor="start" x="179.5" y="-46" font-family="Helvetica,sans-Serif" font-size="10.00">+ state()</text>
<text text-anchor="start" x="179.5" y="-35" font-family="Helvetica,sans-Serif" font-size="10.00">&#45; repair()</text>
</a>
</g>
</g>
<!-- Node0&#45;&gt;Node2 -->
<g id="edge2" class="edge">
<title>Node0&#45;&gt;Node2</title>
<path fill="none" stroke="midnightblue" d="M180.78,-217.02C189.06,-199.95 198.54,-180.41 207.43,-162.09"/>
<polygon fill="none" stroke="midnightblue" points="177.53,-215.7 176.31,-226.23 183.83,-218.76 177.53,-215.7"/>
</g>
</g>
</svg>
