<?xml version="1.0" encoding="UTF-8" standalone="no"?>
<!DOCTYPE svg PUBLIC "-//W3C//DTD SVG 1.1//EN"
 "http://www.w3.org/Graphics/SVG/1.1/DTD/svg11.dtd">
<!-- Generated by graphviz version 2.42.3 (0)
 -->
<!-- Title: vanetza::security::v3::IntegerFixed&lt; T &gt; Pages: 1 -->
<svg width="967pt" height="493pt"
 viewBox="0.00 0.00 967.00 493.00" xmlns="http://www.w3.org/2000/svg" xmlns:xlink="http://www.w3.org/1999/xlink">
<g id="graph0" class="graph" transform="scale(1 1) rotate(0) translate(4 489)">
<title>vanetza::security::v3::IntegerFixed&lt; T &gt;</title>
<polygon fill="white" stroke="transparent" points="-4,4 -4,-489 963,-489 963,4 -4,4"/>
<!-- Node1 -->
<g id="node1" class="node">
<title>Node1</title>
<g id="a_node1"><a xlink:title=" ">
<polygon fill="#bfbfbf" stroke="black" points="417.5,-266.5 417.5,-356.5 527.5,-356.5 527.5,-266.5 417.5,-266.5"/>
<text text-anchor="start" x="425.5" y="-344.5" font-family="Helvetica,sans-Serif" font-size="10.00">vanetza::security::</text>
<text text-anchor="middle" x="472.5" y="-333.5" font-family="Helvetica,sans-Serif" font-size="10.00">v3::IntegerFixed&lt; T &gt;</text>
<polyline fill="none" stroke="black" points="417.5,-326.5 527.5,-326.5 "/>
<text text-anchor="start" x="425.5" y="-314.5" font-family="Helvetica,sans-Serif" font-size="10.00">+ value</text>
<polyline fill="none" stroke="black" points="417.5,-307.5 527.5,-307.5 "/>
<text text-anchor="start" x="425.5" y="-295.5" font-family="Helvetica,sans-Serif" font-size="10.00">+ IntegerFixed()</text>
<text text-anchor="start" x="425.5" y="-284.5" font-family="Helvetica,sans-Serif" font-size="10.00">+ IntegerFixed()</text>
<text text-anchor="start" x="425.5" y="-273.5" font-family="Helvetica,sans-Serif" font-size="10.00">+ IntegerFixed()</text>
</a>
</g>
</g>
<!-- Node3 -->
<g id="node3" class="node">
<title>Node3</title>
<g id="a_node3"><a xlink:href="../../d3/d3c/structvanetza_1_1security_1_1v3_1_1IntegerFixed.html" target="_top" xlink:title=" ">
<polygon fill="white" stroke="black" points="0,-128.5 0,-218.5 139,-218.5 139,-128.5 0,-128.5"/>
<text text-anchor="start" x="8" y="-206.5" font-family="Helvetica,sans-Serif" font-size="10.00">vanetza::security::</text>
<text text-anchor="middle" x="69.5" y="-195.5" font-family="Helvetica,sans-Serif" font-size="10.00">v3::IntegerFixed&lt; uint32_t &gt;</text>
<polyline fill="none" stroke="black" points="0,-188.5 139,-188.5 "/>
<text text-anchor="start" x="8" y="-176.5" font-family="Helvetica,sans-Serif" font-size="10.00">+ value</text>
<polyline fill="none" stroke="black" points="0,-169.5 139,-169.5 "/>
<text text-anchor="start" x="8" y="-157.5" font-family="Helvetica,sans-Serif" font-size="10.00">+ IntegerFixed()</text>
<text text-anchor="start" x="8" y="-146.5" font-family="Helvetica,sans-Serif" font-size="10.00">+ IntegerFixed()</text>
<text text-anchor="start" x="8" y="-135.5" font-family="Helvetica,sans-Serif" font-size="10.00">+ IntegerFixed()</text>
</a>
</g>
</g>
<!-- Node1&#45;&gt;Node3 -->
<g id="edge2" class="edge">
<title>Node1&#45;&gt;Node3</title>
<path fill="none" stroke="orange" d="M407.44,-296.22C341.8,-280.82 238.19,-253.76 152.5,-219 148.11,-217.22 143.64,-215.27 139.18,-213.21"/>
<polygon fill="orange" stroke="orange" points="406.7,-299.64 417.24,-298.5 408.29,-292.82 406.7,-299.64"/>
<text text-anchor="middle" x="258.5" y="-240" font-family="Helvetica,sans-Serif" font-size="10.00"> &lt; uint32_t &gt;</text>
</g>
<!-- Node5 -->
<g id="node5" class="node">
<title>Node5</title>
<g id="a_node5"><a xlink:href="../../d3/d3c/structvanetza_1_1security_1_1v3_1_1IntegerFixed.html" target="_top" xlink:title=" ">
<polygon fill="white" stroke="black" points="162,-128.5 162,-218.5 309,-218.5 309,-128.5 162,-128.5"/>
<text text-anchor="start" x="170" y="-206.5" font-family="Helvetica,sans-Serif" font-size="10.00">vanetza::security::</text>
<text text-anchor="middle" x="235.5" y="-195.5" font-family="Helvetica,sans-Serif" font-size="10.00">v3::IntegerFixed&lt; uintmax_t &gt;</text>
<polyline fill="none" stroke="black" points="162,-188.5 309,-188.5 "/>
<text text-anchor="start" x="170" y="-176.5" font-family="Helvetica,sans-Serif" font-size="10.00">+ value</text>
<polyline fill="none" stroke="black" points="162,-169.5 309,-169.5 "/>
<text text-anchor="start" x="170" y="-157.5" font-family="Helvetica,sans-Serif" font-size="10.00">+ IntegerFixed()</text>
<text text-anchor="start" x="170" y="-146.5" font-family="Helvetica,sans-Serif" font-size="10.00">+ IntegerFixed()</text>
<text text-anchor="start" x="170" y="-135.5" font-family="Helvetica,sans-Serif" font-size="10.00">+ IntegerFixed()</text>
</a>
</g>
</g>
<!-- Node1&#45;&gt;Node5 -->
<g id="edge4" class="edge">
<title>Node1&#45;&gt;Node5</title>
<path fill="none" stroke="orange" d="M408.37,-273.7C377.79,-256.15 341.03,-235.06 309.3,-216.85"/>
<polygon fill="orange" stroke="orange" points="406.82,-276.84 417.23,-278.79 410.3,-270.77 406.82,-276.84"/>
<text text-anchor="middle" x="393.5" y="-240" font-family="Helvetica,sans-Serif" font-size="10.00"> &lt; uintmax_t &gt;</text>
</g>
<!-- Node7 -->
<g id="node7" class="node">
<title>Node7</title>
<g id="a_node7"><a xlink:href="../../d3/d3c/structvanetza_1_1security_1_1v3_1_1IntegerFixed.html" target="_top" xlink:title=" ">
<polygon fill="white" stroke="black" points="330.5,-128.5 330.5,-218.5 464.5,-218.5 464.5,-128.5 330.5,-128.5"/>
<text text-anchor="start" x="338.5" y="-206.5" font-family="Helvetica,sans-Serif" font-size="10.00">vanetza::security::</text>
<text text-anchor="middle" x="397.5" y="-195.5" font-family="Helvetica,sans-Serif" font-size="10.00">v3::IntegerFixed&lt; uint8_t &gt;</text>
<polyline fill="none" stroke="black" points="330.5,-188.5 464.5,-188.5 "/>
<text text-anchor="start" x="338.5" y="-176.5" font-family="Helvetica,sans-Serif" font-size="10.00">+ value</text>
<polyline fill="none" stroke="black" points="330.5,-169.5 464.5,-169.5 "/>
<text text-anchor="start" x="338.5" y="-157.5" font-family="Helvetica,sans-Serif" font-size="10.00">+ IntegerFixed()</text>
<text text-anchor="start" x="338.5" y="-146.5" font-family="Helvetica,sans-Serif" font-size="10.00">+ IntegerFixed()</text>
<text text-anchor="start" x="338.5" y="-135.5" font-family="Helvetica,sans-Serif" font-size="10.00">+ IntegerFixed()</text>
</a>
</g>
</g>
<!-- Node1&#45;&gt;Node7 -->
<g id="edge6" class="edge">
<title>Node1&#45;&gt;Node7</title>
<path fill="none" stroke="orange" d="M443.14,-257.26C436.14,-244.56 428.74,-231.15 421.98,-218.9"/>
<polygon fill="orange" stroke="orange" points="440.26,-259.28 448.15,-266.34 446.39,-255.9 440.26,-259.28"/>
<text text-anchor="middle" x="463" y="-240" font-family="Helvetica,sans-Serif" font-size="10.00"> &lt; uint8_t &gt;</text>
</g>
<!-- Node10 -->
<g id="node10" class="node">
<title>Node10</title>
<g id="a_node10"><a xlink:href="../../d3/d3c/structvanetza_1_1security_1_1v3_1_1IntegerFixed.html" target="_top" xlink:title=" ">
<polygon fill="white" stroke="black" points="482.5,-128.5 482.5,-218.5 616.5,-218.5 616.5,-128.5 482.5,-128.5"/>
<text text-anchor="start" x="490.5" y="-206.5" font-family="Helvetica,sans-Serif" font-size="10.00">vanetza::security::</text>
<text text-anchor="middle" x="549.5" y="-195.5" font-family="Helvetica,sans-Serif" font-size="10.00">v3::IntegerFixed&lt; int32_t &gt;</text>
<polyline fill="none" stroke="black" points="482.5,-188.5 616.5,-188.5 "/>
<text text-anchor="start" x="490.5" y="-176.5" font-family="Helvetica,sans-Serif" font-size="10.00">+ value</text>
<polyline fill="none" stroke="black" points="482.5,-169.5 616.5,-169.5 "/>
<text text-anchor="start" x="490.5" y="-157.5" font-family="Helvetica,sans-Serif" font-size="10.00">+ IntegerFixed()</text>
<text text-anchor="start" x="490.5" y="-146.5" font-family="Helvetica,sans-Serif" font-size="10.00">+ IntegerFixed()</text>
<text text-anchor="start" x="490.5" y="-135.5" font-family="Helvetica,sans-Serif" font-size="10.00">+ IntegerFixed()</text>
</a>
</g>
</g>
<!-- Node1&#45;&gt;Node10 -->
<g id="edge9" class="edge">
<title>Node1&#45;&gt;Node10</title>
<path fill="none" stroke="orange" d="M502.44,-257.63C509.68,-244.82 517.36,-231.27 524.36,-218.9"/>
<polygon fill="orange" stroke="orange" points="499.38,-255.92 497.5,-266.34 505.47,-259.37 499.38,-255.92"/>
<text text-anchor="middle" x="539" y="-240" font-family="Helvetica,sans-Serif" font-size="10.00"> &lt; int32_t &gt;</text>
</g>
<!-- Node13 -->
<g id="node13" class="node">
<title>Node13</title>
<g id="a_node13"><a xlink:href="../../d3/d3c/structvanetza_1_1security_1_1v3_1_1IntegerFixed.html" target="_top" xlink:title=" ">
<polygon fill="white" stroke="black" points="645,-128.5 645,-218.5 784,-218.5 784,-128.5 645,-128.5"/>
<text text-anchor="start" x="653" y="-206.5" font-family="Helvetica,sans-Serif" font-size="10.00">vanetza::security::</text>
<text text-anchor="middle" x="714.5" y="-195.5" font-family="Helvetica,sans-Serif" font-size="10.00">v3::IntegerFixed&lt; uint16_t &gt;</text>
<polyline fill="none" stroke="black" points="645,-188.5 784,-188.5 "/>
<text text-anchor="start" x="653" y="-176.5" font-family="Helvetica,sans-Serif" font-size="10.00">+ value</text>
<polyline fill="none" stroke="black" points="645,-169.5 784,-169.5 "/>
<text text-anchor="start" x="653" y="-157.5" font-family="Helvetica,sans-Serif" font-size="10.00">+ IntegerFixed()</text>
<text text-anchor="start" x="653" y="-146.5" font-family="Helvetica,sans-Serif" font-size="10.00">+ IntegerFixed()</text>
<text text-anchor="start" x="653" y="-135.5" font-family="Helvetica,sans-Serif" font-size="10.00">+ IntegerFixed()</text>
</a>
</g>
</g>
<!-- Node1&#45;&gt;Node13 -->
<g id="edge12" class="edge">
<title>Node1&#45;&gt;Node13</title>
<path fill="none" stroke="orange" d="M536.46,-274.55C569.8,-255.82 610.63,-232.87 644.77,-213.68"/>
<polygon fill="orange" stroke="orange" points="534.72,-271.52 527.72,-279.47 538.15,-277.62 534.72,-271.52"/>
<text text-anchor="middle" x="629.5" y="-240" font-family="Helvetica,sans-Serif" font-size="10.00"> &lt; uint16_t &gt;</text>
</g>
<!-- Node15 -->
<g id="node15" class="node">
<title>Node15</title>
<g id="a_node15"><a xlink:href="../../d3/d3c/structvanetza_1_1security_1_1v3_1_1IntegerFixed.html" target="_top" xlink:title=" ">
<polygon fill="white" stroke="black" points="820,-128.5 820,-218.5 959,-218.5 959,-128.5 820,-128.5"/>
<text text-anchor="start" x="828" y="-206.5" font-family="Helvetica,sans-Serif" font-size="10.00">vanetza::security::</text>
<text text-anchor="middle" x="889.5" y="-195.5" font-family="Helvetica,sans-Serif" font-size="10.00">v3::IntegerFixed&lt; uint64_t &gt;</text>
<polyline fill="none" stroke="black" points="820,-188.5 959,-188.5 "/>
<text text-anchor="start" x="828" y="-176.5" font-family="Helvetica,sans-Serif" font-size="10.00">+ value</text>
<polyline fill="none" stroke="black" points="820,-169.5 959,-169.5 "/>
<text text-anchor="start" x="828" y="-157.5" font-family="Helvetica,sans-Serif" font-size="10.00">+ IntegerFixed()</text>
<text text-anchor="start" x="828" y="-146.5" font-family="Helvetica,sans-Serif" font-size="10.00">+ IntegerFixed()</text>
<text text-anchor="start" x="828" y="-135.5" font-family="Helvetica,sans-Serif" font-size="10.00">+ IntegerFixed()</text>
</a>
</g>
</g>
<!-- Node1&#45;&gt;Node15 -->
<g id="edge14" class="edge">
<title>Node1&#45;&gt;Node15</title>
<path fill="none" stroke="orange" d="M537.36,-295.19C602.88,-278.98 706.57,-251.31 793.5,-219 802.11,-215.8 811.02,-212.15 819.78,-208.35"/>
<polygon fill="orange" stroke="orange" points="536.45,-291.81 527.58,-297.59 538.12,-298.6 536.45,-291.81"/>
<text text-anchor="middle" x="769.5" y="-240" font-family="Helvetica,sans-Serif" font-size="10.00"> &lt; uint64_t &gt;</text>
</g>
<!-- Node2 -->
<g id="node2" class="node">
<title>Node2</title>
<g id="a_node2"><a xlink:href="../../d5/d5c/structvanetza_1_1security_1_1v3_1_1Integer.html" target="_top" xlink:title=" ">
<polygon fill="white" stroke="black" points="424.5,-394.5 424.5,-484.5 520.5,-484.5 520.5,-394.5 424.5,-394.5"/>
<text text-anchor="start" x="432.5" y="-472.5" font-family="Helvetica,sans-Serif" font-size="10.00">vanetza::security::</text>
<text text-anchor="middle" x="472.5" y="-461.5" font-family="Helvetica,sans-Serif" font-size="10.00">v3::Integer</text>
<polyline fill="none" stroke="black" points="424.5,-454.5 520.5,-454.5 "/>
<text text-anchor="start" x="432.5" y="-442.5" font-family="Helvetica,sans-Serif" font-size="10.00">+ Min</text>
<text text-anchor="start" x="432.5" y="-431.5" font-family="Helvetica,sans-Serif" font-size="10.00">+ Max</text>
<polyline fill="none" stroke="black" points="424.5,-424.5 520.5,-424.5 "/>
<text text-anchor="start" x="432.5" y="-412.5" font-family="Helvetica,sans-Serif" font-size="10.00">+ Integer()</text>
<text text-anchor="start" x="432.5" y="-401.5" font-family="Helvetica,sans-Serif" font-size="10.00">+ Integer()</text>
</a>
</g>
</g>
<!-- Node2&#45;&gt;Node1 -->
<g id="edge1" class="edge">
<title>Node2&#45;&gt;Node1</title>
<path fill="none" stroke="midnightblue" d="M472.5,-384.23C472.5,-375.06 472.5,-365.63 472.5,-356.76"/>
<polygon fill="none" stroke="midnightblue" points="469,-384.43 472.5,-394.43 476,-384.43 469,-384.43"/>
</g>
<!-- Node4 -->
<g id="node4" class="node">
<title>Node4</title>
<g id="a_node4"><a xlink:href="../../d4/d50/structvanetza_1_1security_1_1v3_1_1Uint32.html" target="_top" xlink:title=" ">
<polygon fill="white" stroke="black" points="18.5,-11.5 18.5,-79.5 114.5,-79.5 114.5,-11.5 18.5,-11.5"/>
<text text-anchor="start" x="26.5" y="-67.5" font-family="Helvetica,sans-Serif" font-size="10.00">vanetza::security::</text>
<text text-anchor="middle" x="66.5" y="-56.5" font-family="Helvetica,sans-Serif" font-size="10.00">v3::Uint32</text>
<polyline fill="none" stroke="black" points="18.5,-49.5 114.5,-49.5 "/>
<text text-anchor="middle" x="66.5" y="-37.5" font-family="Helvetica,sans-Serif" font-size="10.00"> </text>
<polyline fill="none" stroke="black" points="18.5,-30.5 114.5,-30.5 "/>
<text text-anchor="start" x="26.5" y="-18.5" font-family="Helvetica,sans-Serif" font-size="10.00">+ Uint32()</text>
</a>
</g>
</g>
<!-- Node3&#45;&gt;Node4 -->
<g id="edge3" class="edge">
<title>Node3&#45;&gt;Node4</title>
<path fill="none" stroke="midnightblue" d="M68.2,-118.09C67.89,-105 67.57,-91.4 67.29,-79.62"/>
<polygon fill="none" stroke="midnightblue" points="64.71,-118.52 68.45,-128.43 71.71,-118.35 64.71,-118.52"/>
</g>
<!-- Node6 -->
<g id="node6" class="node">
<title>Node6</title>
<g id="a_node6"><a xlink:href="../../dd/ddf/structvanetza_1_1security_1_1v3_1_1Psid.html" target="_top" xlink:title=" ">
<polygon fill="white" stroke="black" points="132.5,-11.5 132.5,-79.5 228.5,-79.5 228.5,-11.5 132.5,-11.5"/>
<text text-anchor="start" x="140.5" y="-67.5" font-family="Helvetica,sans-Serif" font-size="10.00">vanetza::security::</text>
<text text-anchor="middle" x="180.5" y="-56.5" font-family="Helvetica,sans-Serif" font-size="10.00">v3::Psid</text>
<polyline fill="none" stroke="black" points="132.5,-49.5 228.5,-49.5 "/>
<text text-anchor="middle" x="180.5" y="-37.5" font-family="Helvetica,sans-Serif" font-size="10.00"> </text>
<polyline fill="none" stroke="black" points="132.5,-30.5 228.5,-30.5 "/>
<text text-anchor="start" x="140.5" y="-18.5" font-family="Helvetica,sans-Serif" font-size="10.00">+ Psid()</text>
</a>
</g>
</g>
<!-- Node5&#45;&gt;Node6 -->
<g id="edge5" class="edge">
<title>Node5&#45;&gt;Node6</title>
<path fill="none" stroke="midnightblue" d="M212.26,-119.25C206.39,-105.8 200.25,-91.75 194.96,-79.62"/>
<polygon fill="none" stroke="midnightblue" points="209.06,-120.67 216.26,-128.43 215.47,-117.87 209.06,-120.67"/>
</g>
<!-- Node8 -->
<g id="node8" class="node">
<title>Node8</title>
<g id="a_node8"><a xlink:href="../../d3/da9/structvanetza_1_1security_1_1v3_1_1Uint3.html" target="_top" xlink:title=" ">
<polygon fill="white" stroke="black" points="246.5,-11.5 246.5,-79.5 342.5,-79.5 342.5,-11.5 246.5,-11.5"/>
<text text-anchor="start" x="254.5" y="-67.5" font-family="Helvetica,sans-Serif" font-size="10.00">vanetza::security::</text>
<text text-anchor="middle" x="294.5" y="-56.5" font-family="Helvetica,sans-Serif" font-size="10.00">v3::Uint3</text>
<polyline fill="none" stroke="black" points="246.5,-49.5 342.5,-49.5 "/>
<text text-anchor="middle" x="294.5" y="-37.5" font-family="Helvetica,sans-Serif" font-size="10.00"> </text>
<polyline fill="none" stroke="black" points="246.5,-30.5 342.5,-30.5 "/>
<text text-anchor="start" x="254.5" y="-18.5" font-family="Helvetica,sans-Serif" font-size="10.00">+ Uint3()</text>
</a>
</g>
</g>
<!-- Node7&#45;&gt;Node8 -->
<g id="edge7" class="edge">
<title>Node7&#45;&gt;Node8</title>
<path fill="none" stroke="midnightblue" d="M354.92,-120.41C343.64,-106.62 331.78,-92.1 321.57,-79.62"/>
<polygon fill="none" stroke="midnightblue" points="352.44,-122.9 361.48,-128.43 357.86,-118.47 352.44,-122.9"/>
</g>
<!-- Node9 -->
<g id="node9" class="node">
<title>Node9</title>
<g id="a_node9"><a xlink:href="../../d5/d61/structvanetza_1_1security_1_1v3_1_1Uint8.html" target="_top" xlink:title=" ">
<polygon fill="white" stroke="black" points="360.5,-11.5 360.5,-79.5 456.5,-79.5 456.5,-11.5 360.5,-11.5"/>
<text text-anchor="start" x="368.5" y="-67.5" font-family="Helvetica,sans-Serif" font-size="10.00">vanetza::security::</text>
<text text-anchor="middle" x="408.5" y="-56.5" font-family="Helvetica,sans-Serif" font-size="10.00">v3::Uint8</text>
<polyline fill="none" stroke="black" points="360.5,-49.5 456.5,-49.5 "/>
<text text-anchor="middle" x="408.5" y="-37.5" font-family="Helvetica,sans-Serif" font-size="10.00"> </text>
<polyline fill="none" stroke="black" points="360.5,-30.5 456.5,-30.5 "/>
<text text-anchor="start" x="368.5" y="-18.5" font-family="Helvetica,sans-Serif" font-size="10.00">+ Uint8()</text>
</a>
</g>
</g>
<!-- Node7&#45;&gt;Node9 -->
<g id="edge8" class="edge">
<title>Node7&#45;&gt;Node9</title>
<path fill="none" stroke="midnightblue" d="M402.25,-118.09C403.39,-105 404.58,-91.4 405.61,-79.62"/>
<polygon fill="none" stroke="midnightblue" points="398.73,-118.16 401.35,-128.43 405.7,-118.77 398.73,-118.16"/>
</g>
<!-- Node11 -->
<g id="node11" class="node">
<title>Node11</title>
<g id="a_node11"><a xlink:href="../../d1/d1f/structvanetza_1_1security_1_1v3_1_1NinetyDegreeInt.html" target="_top" xlink:title=" ">
<polygon fill="white" stroke="black" points="474.5,-0.5 474.5,-90.5 578.5,-90.5 578.5,-0.5 474.5,-0.5"/>
<text text-anchor="start" x="482.5" y="-78.5" font-family="Helvetica,sans-Serif" font-size="10.00">vanetza::security::</text>
<text text-anchor="middle" x="526.5" y="-67.5" font-family="Helvetica,sans-Serif" font-size="10.00">v3::NinetyDegreeInt</text>
<polyline fill="none" stroke="black" points="474.5,-60.5 578.5,-60.5 "/>
<text text-anchor="start" x="482.5" y="-48.5" font-family="Helvetica,sans-Serif" font-size="10.00">+ min</text>
<text text-anchor="start" x="482.5" y="-37.5" font-family="Helvetica,sans-Serif" font-size="10.00">+ max</text>
<text text-anchor="start" x="482.5" y="-26.5" font-family="Helvetica,sans-Serif" font-size="10.00">+ unknown</text>
<polyline fill="none" stroke="black" points="474.5,-19.5 578.5,-19.5 "/>
<text text-anchor="start" x="482.5" y="-7.5" font-family="Helvetica,sans-Serif" font-size="10.00">+ NinetyDegreeInt()</text>
</a>
</g>
</g>
<!-- Node10&#45;&gt;Node11 -->
<g id="edge10" class="edge">
<title>Node10&#45;&gt;Node11</title>
<path fill="none" stroke="midnightblue" d="M539.65,-118.52C537.96,-109.26 536.22,-99.73 534.58,-90.76"/>
<polygon fill="none" stroke="midnightblue" points="536.22,-119.22 541.46,-128.43 543.1,-117.97 536.22,-119.22"/>
</g>
<!-- Node12 -->
<g id="node12" class="node">
<title>Node12</title>
<g id="a_node12"><a xlink:href="../../dc/d21/structvanetza_1_1security_1_1v3_1_1OneEightyDegreeInt.html" target="_top" xlink:title=" ">
<polygon fill="white" stroke="black" points="596.5,-0.5 596.5,-90.5 718.5,-90.5 718.5,-0.5 596.5,-0.5"/>
<text text-anchor="start" x="604.5" y="-78.5" font-family="Helvetica,sans-Serif" font-size="10.00">vanetza::security::</text>
<text text-anchor="middle" x="657.5" y="-67.5" font-family="Helvetica,sans-Serif" font-size="10.00">v3::OneEightyDegreeInt</text>
<polyline fill="none" stroke="black" points="596.5,-60.5 718.5,-60.5 "/>
<text text-anchor="start" x="604.5" y="-48.5" font-family="Helvetica,sans-Serif" font-size="10.00">+ min</text>
<text text-anchor="start" x="604.5" y="-37.5" font-family="Helvetica,sans-Serif" font-size="10.00">+ max</text>
<text text-anchor="start" x="604.5" y="-26.5" font-family="Helvetica,sans-Serif" font-size="10.00">+ unknown</text>
<polyline fill="none" stroke="black" points="596.5,-19.5 718.5,-19.5 "/>
<text text-anchor="start" x="604.5" y="-7.5" font-family="Helvetica,sans-Serif" font-size="10.00">+ OneEightyDegreeInt()</text>
</a>
</g>
</g>
<!-- Node10&#45;&gt;Node12 -->
<g id="edge11" class="edge">
<title>Node10&#45;&gt;Node12</title>
<path fill="none" stroke="midnightblue" d="M594,-120.59C602.49,-110.68 611.3,-100.4 619.57,-90.76"/>
<polygon fill="none" stroke="midnightblue" points="591.12,-118.56 587.27,-128.43 596.44,-123.12 591.12,-118.56"/>
</g>
<!-- Node14 -->
<g id="node14" class="node">
<title>Node14</title>
<g id="a_node14"><a xlink:href="../../d9/d2c/structvanetza_1_1security_1_1v3_1_1Uint16.html" target="_top" xlink:title=" ">
<polygon fill="white" stroke="black" points="736.5,-11.5 736.5,-79.5 832.5,-79.5 832.5,-11.5 736.5,-11.5"/>
<text text-anchor="start" x="744.5" y="-67.5" font-family="Helvetica,sans-Serif" font-size="10.00">vanetza::security::</text>
<text text-anchor="middle" x="784.5" y="-56.5" font-family="Helvetica,sans-Serif" font-size="10.00">v3::Uint16</text>
<polyline fill="none" stroke="black" points="736.5,-49.5 832.5,-49.5 "/>
<text text-anchor="middle" x="784.5" y="-37.5" font-family="Helvetica,sans-Serif" font-size="10.00"> </text>
<polyline fill="none" stroke="black" points="736.5,-30.5 832.5,-30.5 "/>
<text text-anchor="start" x="744.5" y="-18.5" font-family="Helvetica,sans-Serif" font-size="10.00">+ Uint16()</text>
</a>
</g>
</g>
<!-- Node13&#45;&gt;Node14 -->
<g id="edge13" class="edge">
<title>Node13&#45;&gt;Node14</title>
<path fill="none" stroke="midnightblue" d="M743.87,-119.64C751.4,-106.07 759.3,-91.87 766.1,-79.62"/>
<polygon fill="none" stroke="midnightblue" points="740.78,-117.99 738.98,-128.43 746.9,-121.39 740.78,-117.99"/>
</g>
<!-- Node16 -->
<g id="node16" class="node">
<title>Node16</title>
<g id="a_node16"><a xlink:href="../../d1/d4a/structvanetza_1_1security_1_1v3_1_1Uint64.html" target="_top" xlink:title=" ">
<polygon fill="white" stroke="black" points="850.5,-11.5 850.5,-79.5 946.5,-79.5 946.5,-11.5 850.5,-11.5"/>
<text text-anchor="start" x="858.5" y="-67.5" font-family="Helvetica,sans-Serif" font-size="10.00">vanetza::security::</text>
<text text-anchor="middle" x="898.5" y="-56.5" font-family="Helvetica,sans-Serif" font-size="10.00">v3::Uint64</text>
<polyline fill="none" stroke="black" points="850.5,-49.5 946.5,-49.5 "/>
<text text-anchor="middle" x="898.5" y="-37.5" font-family="Helvetica,sans-Serif" font-size="10.00"> </text>
<polyline fill="none" stroke="black" points="850.5,-30.5 946.5,-30.5 "/>
<text text-anchor="start" x="858.5" y="-18.5" font-family="Helvetica,sans-Serif" font-size="10.00">+ Uint64()</text>
</a>
</g>
</g>
<!-- Node15&#45;&gt;Node16 -->
<g id="edge15" class="edge">
<title>Node15&#45;&gt;Node16</title>
<path fill="none" stroke="midnightblue" d="M893.39,-118.09C894.32,-105 895.29,-91.4 896.13,-79.62"/>
<polygon fill="none" stroke="midnightblue" points="889.87,-118.21 892.65,-128.43 896.85,-118.71 889.87,-118.21"/>
</g>
</g>
</svg>
