<?xml version="1.0" encoding="UTF-8" standalone="no"?>
<!DOCTYPE svg PUBLIC "-//W3C//DTD SVG 1.1//EN"
 "http://www.w3.org/Graphics/SVG/1.1/DTD/svg11.dtd">
<!-- Generated by graphviz version 14.1.2 (0)
 -->
<!-- Title: vanetza::dcc::State Pages: 1 -->
<svg width="446pt" height="253pt"
 viewBox="0.00 0.00 446.00 253.00" xmlns="http://www.w3.org/2000/svg" xmlns:xlink="http://www.w3.org/1999/xlink">
<g id="graph0" class="graph" transform="scale(1 1) rotate(0) translate(4 249)">
<title>vanetza::dcc::State</title>
<!-- Node1 -->
<g id="Node000001" class="node">
<title>Node1</title>
<g id="a_Node000001"><a xlink:title=" ">
<polygon fill="#999999" stroke="none" points="285.5,-245 152,-245 152,-157.25 285.5,-157.25 285.5,-245"/>
<text xml:space="preserve" text-anchor="start" x="172.25" y="-231.5" font-family="Helvetica,sans-Serif" font-size="10.00">vanetza::dcc::State</text>
<text xml:space="preserve" text-anchor="start" x="217.25" y="-214.75" font-family="Helvetica,sans-Serif" font-size="10.00"> </text>
<text xml:space="preserve" text-anchor="start" x="156" y="-198" font-family="Helvetica,sans-Serif" font-size="10.00">+</text>
<text xml:space="preserve" text-anchor="start" x="168.25" y="-198" font-family="Helvetica,sans-Serif" font-size="10.00">transmission_interval()</text>
<text xml:space="preserve" text-anchor="start" x="156" y="-181.25" font-family="Helvetica,sans-Serif" font-size="10.00">+</text>
<text xml:space="preserve" text-anchor="start" x="168.25" y="-181.25" font-family="Helvetica,sans-Serif" font-size="10.00">name()</text>
<text xml:space="preserve" text-anchor="start" x="156" y="-164.5" font-family="Helvetica,sans-Serif" font-size="10.00">+</text>
<text xml:space="preserve" text-anchor="start" x="168.25" y="-164.5" font-family="Helvetica,sans-Serif" font-size="10.00">~State()</text>
<polygon fill="#666666" stroke="#666666" points="152,-226.25 152,-226.25 285.5,-226.25 285.5,-226.25 152,-226.25"/>
<polygon fill="#666666" stroke="#666666" points="152,-209.5 152,-209.5 285.5,-209.5 285.5,-209.5 152,-209.5"/>
<polygon fill="none" stroke="#666666" points="152,-157.25 152,-245 285.5,-245 285.5,-157.25 152,-157.25"/>
</a>
</g>
</g>
<!-- Node2 -->
<g id="Node000002" class="node">
<title>Node2</title>
<g id="a_Node000002"><a xlink:href="../../de/d96/classvanetza_1_1dcc_1_1Active.html" target="_top" xlink:title=" ">
<polygon fill="white" stroke="none" points="133.5,-121.25 0,-121.25 0,0 133.5,0 133.5,-121.25"/>
<text xml:space="preserve" text-anchor="start" x="17.62" y="-107.75" font-family="Helvetica,sans-Serif" font-size="10.00">vanetza::dcc::Active</text>
<text xml:space="preserve" text-anchor="start" x="6.25" y="-91" font-family="Helvetica,sans-Serif" font-size="10.00">&#45;</text>
<text xml:space="preserve" text-anchor="start" x="16.25" y="-91" font-family="Helvetica,sans-Serif" font-size="10.00">m_substate</text>
<text xml:space="preserve" text-anchor="start" x="6.25" y="-74.25" font-family="Helvetica,sans-Serif" font-size="10.00">&#45;</text>
<text xml:space="preserve" text-anchor="start" x="16.25" y="-74.25" font-family="Helvetica,sans-Serif" font-size="10.00">sc_substates</text>
<text xml:space="preserve" text-anchor="start" x="4" y="-57.5" font-family="Helvetica,sans-Serif" font-size="10.00">+</text>
<text xml:space="preserve" text-anchor="start" x="16.25" y="-57.5" font-family="Helvetica,sans-Serif" font-size="10.00">Active()</text>
<text xml:space="preserve" text-anchor="start" x="4" y="-40.75" font-family="Helvetica,sans-Serif" font-size="10.00">+</text>
<text xml:space="preserve" text-anchor="start" x="16.25" y="-40.75" font-family="Helvetica,sans-Serif" font-size="10.00">update()</text>
<text xml:space="preserve" text-anchor="start" x="4" y="-24" font-family="Helvetica,sans-Serif" font-size="10.00">+</text>
<text xml:space="preserve" text-anchor="start" x="16.25" y="-24" font-family="Helvetica,sans-Serif" font-size="10.00">transmission_interval()</text>
<text xml:space="preserve" text-anchor="start" x="4" y="-7.25" font-family="Helvetica,sans-Serif" font-size="10.00">+</text>
<text xml:space="preserve" text-anchor="start" x="16.25" y="-7.25" font-family="Helvetica,sans-Serif" font-size="10.00">name()</text>
<polygon fill="#bfbfbf" stroke="#bfbfbf" points="0,-102.5 0,-102.5 133.5,-102.5 133.5,-102.5 0,-102.5"/>
<polygon fill="#bfbfbf" stroke="#bfbfbf" points="0,-69 0,-69 14.25,-69 14.25,-69 0,-69"/>
<polygon fill="#bfbfbf" stroke="#bfbfbf" points="14.25,-69 14.25,-69 133.5,-69 133.5,-69 14.25,-69"/>
<polygon fill="none" stroke="#bfbfbf" points="0,0 0,-121.25 133.5,-121.25 133.5,0 0,0"/>
</a>
</g>
</g>
<!-- Node1&#45;&gt;Node2 -->
<g id="edge1_Node000001_Node000002" class="edge">
<title>Node1&#45;&gt;Node2</title>
<g id="a_edge1_Node000001_Node000002"><a xlink:title=" ">
<path fill="none" stroke="#63b8ff" d="M163.5,-149.78C153.32,-140.51 142.61,-130.74 132.16,-121.23"/>
<polygon fill="none" stroke="#63b8ff" points="161.04,-152.27 170.79,-156.42 165.75,-147.1 161.04,-152.27"/>
</a>
</g>
</g>
<!-- Node3 -->
<g id="Node000003" class="node">
<title>Node3</title>
<g id="a_Node000003"><a xlink:href="../../da/d03/classvanetza_1_1dcc_1_1Relaxed.html" target="_top" xlink:title=" ">
<polygon fill="white" stroke="none" points="285.5,-96.12 152,-96.12 152,-25.12 285.5,-25.12 285.5,-96.12"/>
<text xml:space="preserve" text-anchor="start" x="165.5" y="-82.62" font-family="Helvetica,sans-Serif" font-size="10.00">vanetza::dcc::Relaxed</text>
<text xml:space="preserve" text-anchor="start" x="217.25" y="-65.88" font-family="Helvetica,sans-Serif" font-size="10.00"> </text>
<text xml:space="preserve" text-anchor="start" x="156" y="-49.12" font-family="Helvetica,sans-Serif" font-size="10.00">+</text>
<text xml:space="preserve" text-anchor="start" x="168.25" y="-49.12" font-family="Helvetica,sans-Serif" font-size="10.00">transmission_interval()</text>
<text xml:space="preserve" text-anchor="start" x="156" y="-32.38" font-family="Helvetica,sans-Serif" font-size="10.00">+</text>
<text xml:space="preserve" text-anchor="start" x="168.25" y="-32.38" font-family="Helvetica,sans-Serif" font-size="10.00">name()</text>
<polygon fill="#bfbfbf" stroke="#bfbfbf" points="152,-77.38 152,-77.38 285.5,-77.38 285.5,-77.38 152,-77.38"/>
<polygon fill="#bfbfbf" stroke="#bfbfbf" points="152,-60.62 152,-60.62 285.5,-60.62 285.5,-60.62 152,-60.62"/>
<polygon fill="none" stroke="#bfbfbf" points="152,-25.12 152,-96.12 285.5,-96.12 285.5,-25.12 152,-25.12"/>
</a>
</g>
</g>
<!-- Node1&#45;&gt;Node3 -->
<g id="edge2_Node000001_Node000003" class="edge">
<title>Node1&#45;&gt;Node3</title>
<g id="a_edge2_Node000001_Node000003"><a xlink:title=" ">
<path fill="none" stroke="#63b8ff" d="M218.75,-146.05C218.75,-129.23 218.75,-111.15 218.75,-96.06"/>
<polygon fill="none" stroke="#63b8ff" points="215.25,-145.93 218.75,-155.93 222.25,-145.93 215.25,-145.93"/>
</a>
</g>
</g>
<!-- Node4 -->
<g id="Node000004" class="node">
<title>Node4</title>
<g id="a_Node000004"><a xlink:href="../../de/d46/classvanetza_1_1dcc_1_1Restrictive.html" target="_top" xlink:title=" ">
<polygon fill="white" stroke="none" points="437.5,-96.12 304,-96.12 304,-25.12 437.5,-25.12 437.5,-96.12"/>
<text xml:space="preserve" text-anchor="start" x="310.75" y="-82.62" font-family="Helvetica,sans-Serif" font-size="10.00">vanetza::dcc::Restrictive</text>
<text xml:space="preserve" text-anchor="start" x="369.25" y="-65.88" font-family="Helvetica,sans-Serif" font-size="10.00"> </text>
<text xml:space="preserve" text-anchor="start" x="308" y="-49.12" font-family="Helvetica,sans-Serif" font-size="10.00">+</text>
<text xml:space="preserve" text-anchor="start" x="320.25" y="-49.12" font-family="Helvetica,sans-Serif" font-size="10.00">transmission_interval()</text>
<text xml:space="preserve" text-anchor="start" x="308" y="-32.38" font-family="Helvetica,sans-Serif" font-size="10.00">+</text>
<text xml:space="preserve" text-anchor="start" x="320.25" y="-32.38" font-family="Helvetica,sans-Serif" font-size="10.00">name()</text>
<polygon fill="#bfbfbf" stroke="#bfbfbf" points="304,-77.38 304,-77.38 437.5,-77.38 437.5,-77.38 304,-77.38"/>
<polygon fill="#bfbfbf" stroke="#bfbfbf" points="304,-60.62 304,-60.62 437.5,-60.62 437.5,-60.62 304,-60.62"/>
<polygon fill="none" stroke="#bfbfbf" points="304,-25.12 304,-96.12 437.5,-96.12 437.5,-25.12 304,-25.12"/>
</a>
</g>
</g>
<!-- Node1&#45;&gt;Node4 -->
<g id="edge3_Node000001_Node000004" class="edge">
<title>Node1&#45;&gt;Node4</title>
<g id="a_edge3_Node000001_Node000004"><a xlink:title=" ">
<path fill="none" stroke="#63b8ff" d="M273.86,-149.91C293.49,-132.03 315.12,-112.31 332.96,-96.06"/>
<polygon fill="none" stroke="#63b8ff" points="271.75,-147.1 266.71,-156.42 276.46,-152.27 271.75,-147.1"/>
</a>
</g>
</g>
</g>
</svg>
