<?xml version="1.0" encoding="UTF-8" standalone="no"?>
<!DOCTYPE svg PUBLIC "-//W3C//DTD SVG 1.1//EN"
 "http://www.w3.org/Graphics/SVG/1.1/DTD/svg11.dtd">
<!-- Generated by graphviz version 2.49.3 (0)
 -->
<!-- Title: vanetza::ConfidentQuantity&lt; T &gt; Pages: 1 -->
<svg width="288pt" height="485pt"
 viewBox="0.00 0.00 287.50 485.00" xmlns="http://www.w3.org/2000/svg" xmlns:xlink="http://www.w3.org/1999/xlink">
<g id="graph0" class="graph" transform="scale(1 1) rotate(0) translate(4 481)">
<title>vanetza::ConfidentQuantity&lt; T &gt;</title>
<!-- Node1 -->
<g id="Node000001" class="node">
<title>Node1</title>
<g id="a_Node000001"><a xlink:title=" ">
<polygon fill="#999999" stroke="transparent" points="214,-477 61,-477 61,-233 214,-233 214,-477"/>
<text text-anchor="start" x="66.5" y="-465" font-family="Helvetica,sans-Serif" font-size="10.00">vanetza::ConfidentQuantity&lt; T &gt;</text>
<text text-anchor="start" x="79" y="-450" font-family="Helvetica,sans-Serif" font-size="10.00">&#45;</text>
<text text-anchor="start" x="100.5" y="-450" font-family="Helvetica,sans-Serif" font-size="10.00">m_value</text>
<text text-anchor="start" x="79" y="-435" font-family="Helvetica,sans-Serif" font-size="10.00">&#45;</text>
<text text-anchor="start" x="100.5" y="-435" font-family="Helvetica,sans-Serif" font-size="10.00">m_confidence</text>
<text text-anchor="start" x="77.5" y="-420" font-family="Helvetica,sans-Serif" font-size="10.00">+</text>
<text text-anchor="start" x="100.5" y="-420" font-family="Helvetica,sans-Serif" font-size="10.00">worst_confidence()</text>
<text text-anchor="start" x="77.5" y="-405" font-family="Helvetica,sans-Serif" font-size="10.00">+</text>
<text text-anchor="start" x="100.5" y="-405" font-family="Helvetica,sans-Serif" font-size="10.00">default_value()</text>
<text text-anchor="start" x="77.5" y="-390" font-family="Helvetica,sans-Serif" font-size="10.00">+</text>
<text text-anchor="start" x="100.5" y="-390" font-family="Helvetica,sans-Serif" font-size="10.00">is_nan()</text>
<text text-anchor="start" x="77.5" y="-375" font-family="Helvetica,sans-Serif" font-size="10.00">+</text>
<text text-anchor="start" x="100.5" y="-375" font-family="Helvetica,sans-Serif" font-size="10.00">ConfidentQuantity()</text>
<text text-anchor="start" x="77.5" y="-360" font-family="Helvetica,sans-Serif" font-size="10.00">+</text>
<text text-anchor="start" x="100.5" y="-360" font-family="Helvetica,sans-Serif" font-size="10.00">ConfidentQuantity()</text>
<text text-anchor="start" x="77.5" y="-345" font-family="Helvetica,sans-Serif" font-size="10.00">+</text>
<text text-anchor="start" x="100.5" y="-345" font-family="Helvetica,sans-Serif" font-size="10.00">ConfidentQuantity()</text>
<text text-anchor="start" x="77.5" y="-330" font-family="Helvetica,sans-Serif" font-size="10.00">+</text>
<text text-anchor="start" x="100.5" y="-330" font-family="Helvetica,sans-Serif" font-size="10.00">ConfidentQuantity()</text>
<text text-anchor="start" x="77.5" y="-315" font-family="Helvetica,sans-Serif" font-size="10.00">+</text>
<text text-anchor="start" x="100.5" y="-315" font-family="Helvetica,sans-Serif" font-size="10.00">operator=()</text>
<text text-anchor="start" x="77.5" y="-300" font-family="Helvetica,sans-Serif" font-size="10.00">+</text>
<text text-anchor="start" x="100.5" y="-300" font-family="Helvetica,sans-Serif" font-size="10.00">ConfidentQuantity()</text>
<text text-anchor="start" x="77.5" y="-285" font-family="Helvetica,sans-Serif" font-size="10.00">+</text>
<text text-anchor="start" x="100.5" y="-285" font-family="Helvetica,sans-Serif" font-size="10.00">operator=()</text>
<text text-anchor="start" x="77.5" y="-270" font-family="Helvetica,sans-Serif" font-size="10.00">+</text>
<text text-anchor="start" x="100.5" y="-270" font-family="Helvetica,sans-Serif" font-size="10.00">assign()</text>
<text text-anchor="start" x="77.5" y="-255" font-family="Helvetica,sans-Serif" font-size="10.00">+</text>
<text text-anchor="start" x="100.5" y="-255" font-family="Helvetica,sans-Serif" font-size="10.00">value()</text>
<text text-anchor="start" x="77.5" y="-240" font-family="Helvetica,sans-Serif" font-size="10.00">+</text>
<text text-anchor="start" x="100.5" y="-240" font-family="Helvetica,sans-Serif" font-size="10.00">confidence()</text>
<polygon fill="#666666" stroke="#666666" points="61.5,-460 61.5,-460 214.5,-460 214.5,-460 61.5,-460"/>
<polygon fill="#666666" stroke="#666666" points="61.5,-430 61.5,-430 98.5,-430 98.5,-430 61.5,-430"/>
<polygon fill="#666666" stroke="#666666" points="98.5,-430 98.5,-430 214.5,-430 214.5,-430 98.5,-430"/>
<polygon fill="none" stroke="#666666" points="61,-233 61,-477 214,-477 214,-233 61,-233"/>
</a>
</g>
</g>
<!-- Node2 -->
<g id="Node000002" class="node">
<title>Node2</title>
<g id="a_Node000002"><a xlink:href="../../d2/d35/classvanetza_1_1ConfidentQuantity.html" target="_top" xlink:title=" ">
<polygon fill="white" stroke="transparent" points="129,-180 0,-180 0,0 129,0 129,-180"/>
<text text-anchor="start" x="5.5" y="-168" font-family="Helvetica,sans-Serif" font-size="10.00">vanetza::ConfidentQuantity</text>
<text text-anchor="start" x="20.5" y="-157" font-family="Helvetica,sans-Serif" font-size="10.00">&lt; units::TrueNorth &gt;</text>
<text text-anchor="start" x="12" y="-142" font-family="Helvetica,sans-Serif" font-size="10.00">&#45;</text>
<text text-anchor="start" x="27.5" y="-142" font-family="Helvetica,sans-Serif" font-size="10.00">m_value</text>
<text text-anchor="start" x="12" y="-127" font-family="Helvetica,sans-Serif" font-size="10.00">&#45;</text>
<text text-anchor="start" x="27.5" y="-127" font-family="Helvetica,sans-Serif" font-size="10.00">m_confidence</text>
<text text-anchor="start" x="10.5" y="-112" font-family="Helvetica,sans-Serif" font-size="10.00">+</text>
<text text-anchor="start" x="27.5" y="-112" font-family="Helvetica,sans-Serif" font-size="10.00">worst_confidence()</text>
<text text-anchor="start" x="10.5" y="-97" font-family="Helvetica,sans-Serif" font-size="10.00">+</text>
<text text-anchor="start" x="27.5" y="-97" font-family="Helvetica,sans-Serif" font-size="10.00">default_value()</text>
<text text-anchor="start" x="10.5" y="-82" font-family="Helvetica,sans-Serif" font-size="10.00">+</text>
<text text-anchor="start" x="27.5" y="-82" font-family="Helvetica,sans-Serif" font-size="10.00">is_nan()</text>
<text text-anchor="start" x="10.5" y="-67" font-family="Helvetica,sans-Serif" font-size="10.00">+</text>
<text text-anchor="start" x="27.5" y="-67" font-family="Helvetica,sans-Serif" font-size="10.00">ConfidentQuantity()</text>
<text text-anchor="start" x="10.5" y="-52" font-family="Helvetica,sans-Serif" font-size="10.00">+</text>
<text text-anchor="start" x="27.5" y="-52" font-family="Helvetica,sans-Serif" font-size="10.00">operator=()</text>
<text text-anchor="start" x="10.5" y="-37" font-family="Helvetica,sans-Serif" font-size="10.00">+</text>
<text text-anchor="start" x="27.5" y="-37" font-family="Helvetica,sans-Serif" font-size="10.00">assign()</text>
<text text-anchor="start" x="10.5" y="-22" font-family="Helvetica,sans-Serif" font-size="10.00">+</text>
<text text-anchor="start" x="27.5" y="-22" font-family="Helvetica,sans-Serif" font-size="10.00">value()</text>
<text text-anchor="start" x="10.5" y="-7" font-family="Helvetica,sans-Serif" font-size="10.00">+</text>
<text text-anchor="start" x="27.5" y="-7" font-family="Helvetica,sans-Serif" font-size="10.00">confidence()</text>
<polygon fill="#666666" stroke="#666666" points="0.5,-152 0.5,-152 129.5,-152 129.5,-152 0.5,-152"/>
<polygon fill="#666666" stroke="#666666" points="0.5,-122 0.5,-122 25.5,-122 25.5,-122 0.5,-122"/>
<polygon fill="#666666" stroke="#666666" points="25.5,-122 25.5,-122 129.5,-122 129.5,-122 25.5,-122"/>
<polygon fill="none" stroke="#666666" points="0,0 0,-180 129,-180 129,0 0,0"/>
</a>
</g>
</g>
<!-- Node1&#45;&gt;Node2 -->
<g id="edge1_Node000001_Node000002" class="edge">
<title>Node1&#45;&gt;Node2</title>
<g id="a_edge1_Node000001_Node000002"><a xlink:title=" ">
<path fill="none" stroke="orange" d="M96.73,-223.02C95.97,-220.32 95.23,-217.65 94.5,-215 91.41,-203.79 88.33,-191.96 85.38,-180.24"/>
<polygon fill="orange" stroke="orange" points="93.42,-224.18 99.53,-232.84 100.16,-222.26 93.42,-224.18"/>
</a>
</g>
<text text-anchor="start" x="98" y="-203.5" font-family="Helvetica,sans-Serif" font-size="10.00" fill="grey">&lt; units::TrueNorth &gt;</text>
</g>
<!-- Node3 -->
<g id="Node000003" class="node">
<title>Node3</title>
<g id="a_Node000003"><a xlink:href="../../d2/d35/classvanetza_1_1ConfidentQuantity.html" target="_top" xlink:title=" ">
<polygon fill="white" stroke="transparent" points="276,-180 147,-180 147,0 276,0 276,-180"/>
<text text-anchor="start" x="152.5" y="-168" font-family="Helvetica,sans-Serif" font-size="10.00">vanetza::ConfidentQuantity</text>
<text text-anchor="start" x="172" y="-157" font-family="Helvetica,sans-Serif" font-size="10.00">&lt; units::Velocity &gt;</text>
<text text-anchor="start" x="159" y="-142" font-family="Helvetica,sans-Serif" font-size="10.00">&#45;</text>
<text text-anchor="start" x="174.5" y="-142" font-family="Helvetica,sans-Serif" font-size="10.00">m_value</text>
<text text-anchor="start" x="159" y="-127" font-family="Helvetica,sans-Serif" font-size="10.00">&#45;</text>
<text text-anchor="start" x="174.5" y="-127" font-family="Helvetica,sans-Serif" font-size="10.00">m_confidence</text>
<text text-anchor="start" x="157.5" y="-112" font-family="Helvetica,sans-Serif" font-size="10.00">+</text>
<text text-anchor="start" x="174.5" y="-112" font-family="Helvetica,sans-Serif" font-size="10.00">worst_confidence()</text>
<text text-anchor="start" x="157.5" y="-97" font-family="Helvetica,sans-Serif" font-size="10.00">+</text>
<text text-anchor="start" x="174.5" y="-97" font-family="Helvetica,sans-Serif" font-size="10.00">default_value()</text>
<text text-anchor="start" x="157.5" y="-82" font-family="Helvetica,sans-Serif" font-size="10.00">+</text>
<text text-anchor="start" x="174.5" y="-82" font-family="Helvetica,sans-Serif" font-size="10.00">is_nan()</text>
<text text-anchor="start" x="157.5" y="-67" font-family="Helvetica,sans-Serif" font-size="10.00">+</text>
<text text-anchor="start" x="174.5" y="-67" font-family="Helvetica,sans-Serif" font-size="10.00">ConfidentQuantity()</text>
<text text-anchor="start" x="157.5" y="-52" font-family="Helvetica,sans-Serif" font-size="10.00">+</text>
<text text-anchor="start" x="174.5" y="-52" font-family="Helvetica,sans-Serif" font-size="10.00">operator=()</text>
<text text-anchor="start" x="157.5" y="-37" font-family="Helvetica,sans-Serif" font-size="10.00">+</text>
<text text-anchor="start" x="174.5" y="-37" font-family="Helvetica,sans-Serif" font-size="10.00">assign()</text>
<text text-anchor="start" x="157.5" y="-22" font-family="Helvetica,sans-Serif" font-size="10.00">+</text>
<text text-anchor="start" x="174.5" y="-22" font-family="Helvetica,sans-Serif" font-size="10.00">value()</text>
<text text-anchor="start" x="157.5" y="-7" font-family="Helvetica,sans-Serif" font-size="10.00">+</text>
<text text-anchor="start" x="174.5" y="-7" font-family="Helvetica,sans-Serif" font-size="10.00">confidence()</text>
<polygon fill="#666666" stroke="#666666" points="147.5,-152 147.5,-152 276.5,-152 276.5,-152 147.5,-152"/>
<polygon fill="#666666" stroke="#666666" points="147.5,-122 147.5,-122 172.5,-122 172.5,-122 147.5,-122"/>
<polygon fill="#666666" stroke="#666666" points="172.5,-122 172.5,-122 276.5,-122 276.5,-122 172.5,-122"/>
<polygon fill="none" stroke="#666666" points="147,0 147,-180 276,-180 276,0 147,0"/>
</a>
</g>
</g>
<!-- Node1&#45;&gt;Node3 -->
<g id="edge2_Node000001_Node000003" class="edge">
<title>Node1&#45;&gt;Node3</title>
<g id="a_edge2_Node000001_Node000003"><a xlink:title=" ">
<path fill="none" stroke="orange" d="M187.24,-222.99C188.02,-220.31 188.78,-217.65 189.5,-215 192.55,-203.82 195.29,-191.96 197.7,-180.17"/>
<polygon fill="orange" stroke="orange" points="183.84,-222.17 184.32,-232.75 190.54,-224.18 183.84,-222.17"/>
</a>
</g>
<text text-anchor="start" x="196.5" y="-203.5" font-family="Helvetica,sans-Serif" font-size="10.00" fill="grey">&lt; units::Velocity &gt;</text>
</g>
</g>
</svg>
