<?xml version="1.0" encoding="UTF-8" standalone="no"?>
<!DOCTYPE svg PUBLIC "-//W3C//DTD SVG 1.1//EN"
 "http://www.w3.org/Graphics/SVG/1.1/DTD/svg11.dtd">
<!-- Generated by graphviz version 14.1.2 (0)
 -->
<!-- Title: vanetza::ConfidentQuantity&lt; T &gt; Pages: 1 -->
<svg width="319pt" height="536pt"
 viewBox="0.00 0.00 319.00 536.00" xmlns="http://www.w3.org/2000/svg" xmlns:xlink="http://www.w3.org/1999/xlink">
<g id="graph0" class="graph" transform="scale(1 1) rotate(0) translate(4 531.75)">
<title>vanetza::ConfidentQuantity&lt; T &gt;</title>
<!-- Node1 -->
<g id="Node000001" class="node">
<title>Node1</title>
<g id="a_Node000001"><a xlink:title=" ">
<polygon fill="#999999" stroke="none" points="235.75,-527.75 65.75,-527.75 65.75,-255.75 235.75,-255.75 235.75,-527.75"/>
<text xml:space="preserve" text-anchor="start" x="69.75" y="-514.25" font-family="Helvetica,sans-Serif" font-size="10.00">vanetza::ConfidentQuantity&lt; T &gt;</text>
<text xml:space="preserve" text-anchor="start" x="85.44" y="-497.5" font-family="Helvetica,sans-Serif" font-size="10.00">&#45;</text>
<text xml:space="preserve" text-anchor="start" x="108.88" y="-497.5" font-family="Helvetica,sans-Serif" font-size="10.00">m_value</text>
<text xml:space="preserve" text-anchor="start" x="85.44" y="-480.75" font-family="Helvetica,sans-Serif" font-size="10.00">&#45;</text>
<text xml:space="preserve" text-anchor="start" x="108.88" y="-480.75" font-family="Helvetica,sans-Serif" font-size="10.00">m_confidence</text>
<text xml:space="preserve" text-anchor="start" x="83.19" y="-464" font-family="Helvetica,sans-Serif" font-size="10.00">+</text>
<text xml:space="preserve" text-anchor="start" x="108.88" y="-464" font-family="Helvetica,sans-Serif" font-size="10.00">worst_confidence()</text>
<text xml:space="preserve" text-anchor="start" x="83.19" y="-447.25" font-family="Helvetica,sans-Serif" font-size="10.00">+</text>
<text xml:space="preserve" text-anchor="start" x="108.88" y="-447.25" font-family="Helvetica,sans-Serif" font-size="10.00">default_value()</text>
<text xml:space="preserve" text-anchor="start" x="83.19" y="-430.5" font-family="Helvetica,sans-Serif" font-size="10.00">+</text>
<text xml:space="preserve" text-anchor="start" x="108.88" y="-430.5" font-family="Helvetica,sans-Serif" font-size="10.00">is_nan()</text>
<text xml:space="preserve" text-anchor="start" x="83.19" y="-413.75" font-family="Helvetica,sans-Serif" font-size="10.00">+</text>
<text xml:space="preserve" text-anchor="start" x="108.88" y="-413.75" font-family="Helvetica,sans-Serif" font-size="10.00">ConfidentQuantity()</text>
<text xml:space="preserve" text-anchor="start" x="83.19" y="-397" font-family="Helvetica,sans-Serif" font-size="10.00">+</text>
<text xml:space="preserve" text-anchor="start" x="108.88" y="-397" font-family="Helvetica,sans-Serif" font-size="10.00">ConfidentQuantity()</text>
<text xml:space="preserve" text-anchor="start" x="83.19" y="-380.25" font-family="Helvetica,sans-Serif" font-size="10.00">+</text>
<text xml:space="preserve" text-anchor="start" x="108.88" y="-380.25" font-family="Helvetica,sans-Serif" font-size="10.00">ConfidentQuantity()</text>
<text xml:space="preserve" text-anchor="start" x="83.19" y="-363.5" font-family="Helvetica,sans-Serif" font-size="10.00">+</text>
<text xml:space="preserve" text-anchor="start" x="108.88" y="-363.5" font-family="Helvetica,sans-Serif" font-size="10.00">ConfidentQuantity()</text>
<text xml:space="preserve" text-anchor="start" x="83.19" y="-346.75" font-family="Helvetica,sans-Serif" font-size="10.00">+</text>
<text xml:space="preserve" text-anchor="start" x="108.88" y="-346.75" font-family="Helvetica,sans-Serif" font-size="10.00">operator=()</text>
<text xml:space="preserve" text-anchor="start" x="83.19" y="-330" font-family="Helvetica,sans-Serif" font-size="10.00">+</text>
<text xml:space="preserve" text-anchor="start" x="108.88" y="-330" font-family="Helvetica,sans-Serif" font-size="10.00">ConfidentQuantity()</text>
<text xml:space="preserve" text-anchor="start" x="83.19" y="-313.25" font-family="Helvetica,sans-Serif" font-size="10.00">+</text>
<text xml:space="preserve" text-anchor="start" x="108.88" y="-313.25" font-family="Helvetica,sans-Serif" font-size="10.00">operator=()</text>
<text xml:space="preserve" text-anchor="start" x="83.19" y="-296.5" font-family="Helvetica,sans-Serif" font-size="10.00">+</text>
<text xml:space="preserve" text-anchor="start" x="108.88" y="-296.5" font-family="Helvetica,sans-Serif" font-size="10.00">assign()</text>
<text xml:space="preserve" text-anchor="start" x="83.19" y="-279.75" font-family="Helvetica,sans-Serif" font-size="10.00">+</text>
<text xml:space="preserve" text-anchor="start" x="108.88" y="-279.75" font-family="Helvetica,sans-Serif" font-size="10.00">value()</text>
<text xml:space="preserve" text-anchor="start" x="83.19" y="-263" font-family="Helvetica,sans-Serif" font-size="10.00">+</text>
<text xml:space="preserve" text-anchor="start" x="108.88" y="-263" font-family="Helvetica,sans-Serif" font-size="10.00">confidence()</text>
<polygon fill="#666666" stroke="#666666" points="65.75,-509 65.75,-509 235.75,-509 235.75,-509 65.75,-509"/>
<polygon fill="#666666" stroke="#666666" points="65.75,-475.5 65.75,-475.5 106.88,-475.5 106.88,-475.5 65.75,-475.5"/>
<polygon fill="#666666" stroke="#666666" points="106.88,-475.5 106.88,-475.5 235.75,-475.5 235.75,-475.5 106.88,-475.5"/>
<polygon fill="none" stroke="#666666" points="65.75,-255.75 65.75,-527.75 235.75,-527.75 235.75,-255.75 65.75,-255.75"/>
</a>
</g>
</g>
<!-- Node2 -->
<g id="Node000002" class="node">
<title>Node2</title>
<g id="a_Node000002"><a xlink:href="../../d2/d35/classvanetza_1_1ConfidentQuantity.html" target="_top" xlink:title=" ">
<polygon fill="white" stroke="none" points="141.5,-201 0,-201 0,0 141.5,0 141.5,-201"/>
<text xml:space="preserve" text-anchor="start" x="4" y="-187.5" font-family="Helvetica,sans-Serif" font-size="10.00">vanetza::ConfidentQuantity</text>
<text xml:space="preserve" text-anchor="start" x="20.88" y="-174.75" font-family="Helvetica,sans-Serif" font-size="10.00">&lt; units::TrueNorth &gt;</text>
<text xml:space="preserve" text-anchor="start" x="12.56" y="-158" font-family="Helvetica,sans-Serif" font-size="10.00">&#45;</text>
<text xml:space="preserve" text-anchor="start" x="28.88" y="-158" font-family="Helvetica,sans-Serif" font-size="10.00">m_value</text>
<text xml:space="preserve" text-anchor="start" x="12.56" y="-141.25" font-family="Helvetica,sans-Serif" font-size="10.00">&#45;</text>
<text xml:space="preserve" text-anchor="start" x="28.88" y="-141.25" font-family="Helvetica,sans-Serif" font-size="10.00">m_confidence</text>
<text xml:space="preserve" text-anchor="start" x="10.31" y="-124.5" font-family="Helvetica,sans-Serif" font-size="10.00">+</text>
<text xml:space="preserve" text-anchor="start" x="28.88" y="-124.5" font-family="Helvetica,sans-Serif" font-size="10.00">worst_confidence()</text>
<text xml:space="preserve" text-anchor="start" x="10.31" y="-107.75" font-family="Helvetica,sans-Serif" font-size="10.00">+</text>
<text xml:space="preserve" text-anchor="start" x="28.88" y="-107.75" font-family="Helvetica,sans-Serif" font-size="10.00">default_value()</text>
<text xml:space="preserve" text-anchor="start" x="10.31" y="-91" font-family="Helvetica,sans-Serif" font-size="10.00">+</text>
<text xml:space="preserve" text-anchor="start" x="28.88" y="-91" font-family="Helvetica,sans-Serif" font-size="10.00">is_nan()</text>
<text xml:space="preserve" text-anchor="start" x="10.31" y="-74.25" font-family="Helvetica,sans-Serif" font-size="10.00">+</text>
<text xml:space="preserve" text-anchor="start" x="28.88" y="-74.25" font-family="Helvetica,sans-Serif" font-size="10.00">ConfidentQuantity()</text>
<text xml:space="preserve" text-anchor="start" x="10.31" y="-57.5" font-family="Helvetica,sans-Serif" font-size="10.00">+</text>
<text xml:space="preserve" text-anchor="start" x="28.88" y="-57.5" font-family="Helvetica,sans-Serif" font-size="10.00">operator=()</text>
<text xml:space="preserve" text-anchor="start" x="10.31" y="-40.75" font-family="Helvetica,sans-Serif" font-size="10.00">+</text>
<text xml:space="preserve" text-anchor="start" x="28.88" y="-40.75" font-family="Helvetica,sans-Serif" font-size="10.00">assign()</text>
<text xml:space="preserve" text-anchor="start" x="10.31" y="-24" font-family="Helvetica,sans-Serif" font-size="10.00">+</text>
<text xml:space="preserve" text-anchor="start" x="28.88" y="-24" font-family="Helvetica,sans-Serif" font-size="10.00">value()</text>
<text xml:space="preserve" text-anchor="start" x="10.31" y="-7.25" font-family="Helvetica,sans-Serif" font-size="10.00">+</text>
<text xml:space="preserve" text-anchor="start" x="28.88" y="-7.25" font-family="Helvetica,sans-Serif" font-size="10.00">confidence()</text>
<polygon fill="#666666" stroke="#666666" points="0,-169.5 0,-169.5 141.5,-169.5 141.5,-169.5 0,-169.5"/>
<polygon fill="#666666" stroke="#666666" points="0,-136 0,-136 26.88,-136 26.88,-136 0,-136"/>
<polygon fill="#666666" stroke="#666666" points="26.88,-136 26.88,-136 141.5,-136 141.5,-136 26.88,-136"/>
<polygon fill="none" stroke="#666666" points="0,0 0,-201 141.5,-201 141.5,0 0,0"/>
</a>
</g>
</g>
<!-- Node1&#45;&gt;Node2 -->
<g id="edge1_Node000001_Node000002" class="edge">
<title>Node1&#45;&gt;Node2</title>
<g id="a_edge1_Node000001_Node000002"><a xlink:title=" ">
<path fill="none" stroke="orange" d="M105.05,-245.16C104.36,-242.68 103.67,-240.2 103,-237.75 99.72,-225.79 96.47,-213.19 93.37,-200.68"/>
<polygon fill="orange" stroke="orange" points="101.66,-246.04 107.76,-254.7 108.4,-244.13 101.66,-246.04"/>
</a>
</g>
<text xml:space="preserve" text-anchor="start" x="106" y="-225.25" font-family="Helvetica,sans-Serif" font-size="10.00" fill="grey">&lt; units::TrueNorth &gt;</text>
</g>
<!-- Node3 -->
<g id="Node000003" class="node">
<title>Node3</title>
<g id="a_Node000003"><a xlink:href="../../d2/d35/classvanetza_1_1ConfidentQuantity.html" target="_top" xlink:title=" ">
<polygon fill="white" stroke="none" points="301.5,-201 160,-201 160,0 301.5,0 301.5,-201"/>
<text xml:space="preserve" text-anchor="start" x="164" y="-187.5" font-family="Helvetica,sans-Serif" font-size="10.00">vanetza::ConfidentQuantity</text>
<text xml:space="preserve" text-anchor="start" x="185" y="-174.75" font-family="Helvetica,sans-Serif" font-size="10.00">&lt; units::Velocity &gt;</text>
<text xml:space="preserve" text-anchor="start" x="172.56" y="-158" font-family="Helvetica,sans-Serif" font-size="10.00">&#45;</text>
<text xml:space="preserve" text-anchor="start" x="188.88" y="-158" font-family="Helvetica,sans-Serif" font-size="10.00">m_value</text>
<text xml:space="preserve" text-anchor="start" x="172.56" y="-141.25" font-family="Helvetica,sans-Serif" font-size="10.00">&#45;</text>
<text xml:space="preserve" text-anchor="start" x="188.88" y="-141.25" font-family="Helvetica,sans-Serif" font-size="10.00">m_confidence</text>
<text xml:space="preserve" text-anchor="start" x="170.31" y="-124.5" font-family="Helvetica,sans-Serif" font-size="10.00">+</text>
<text xml:space="preserve" text-anchor="start" x="188.88" y="-124.5" font-family="Helvetica,sans-Serif" font-size="10.00">worst_confidence()</text>
<text xml:space="preserve" text-anchor="start" x="170.31" y="-107.75" font-family="Helvetica,sans-Serif" font-size="10.00">+</text>
<text xml:space="preserve" text-anchor="start" x="188.88" y="-107.75" font-family="Helvetica,sans-Serif" font-size="10.00">default_value()</text>
<text xml:space="preserve" text-anchor="start" x="170.31" y="-91" font-family="Helvetica,sans-Serif" font-size="10.00">+</text>
<text xml:space="preserve" text-anchor="start" x="188.88" y="-91" font-family="Helvetica,sans-Serif" font-size="10.00">is_nan()</text>
<text xml:space="preserve" text-anchor="start" x="170.31" y="-74.25" font-family="Helvetica,sans-Serif" font-size="10.00">+</text>
<text xml:space="preserve" text-anchor="start" x="188.88" y="-74.25" font-family="Helvetica,sans-Serif" font-size="10.00">ConfidentQuantity()</text>
<text xml:space="preserve" text-anchor="start" x="170.31" y="-57.5" font-family="Helvetica,sans-Serif" font-size="10.00">+</text>
<text xml:space="preserve" text-anchor="start" x="188.88" y="-57.5" font-family="Helvetica,sans-Serif" font-size="10.00">operator=()</text>
<text xml:space="preserve" text-anchor="start" x="170.31" y="-40.75" font-family="Helvetica,sans-Serif" font-size="10.00">+</text>
<text xml:space="preserve" text-anchor="start" x="188.88" y="-40.75" font-family="Helvetica,sans-Serif" font-size="10.00">assign()</text>
<text xml:space="preserve" text-anchor="start" x="170.31" y="-24" font-family="Helvetica,sans-Serif" font-size="10.00">+</text>
<text xml:space="preserve" text-anchor="start" x="188.88" y="-24" font-family="Helvetica,sans-Serif" font-size="10.00">value()</text>
<text xml:space="preserve" text-anchor="start" x="170.31" y="-7.25" font-family="Helvetica,sans-Serif" font-size="10.00">+</text>
<text xml:space="preserve" text-anchor="start" x="188.88" y="-7.25" font-family="Helvetica,sans-Serif" font-size="10.00">confidence()</text>
<polygon fill="#666666" stroke="#666666" points="160,-169.5 160,-169.5 301.5,-169.5 301.5,-169.5 160,-169.5"/>
<polygon fill="#666666" stroke="#666666" points="160,-136 160,-136 186.88,-136 186.88,-136 160,-136"/>
<polygon fill="#666666" stroke="#666666" points="186.88,-136 186.88,-136 301.5,-136 301.5,-136 186.88,-136"/>
<polygon fill="none" stroke="#666666" points="160,0 160,-201 301.5,-201 301.5,0 160,0"/>
</a>
</g>
</g>
<!-- Node1&#45;&gt;Node3 -->
<g id="edge2_Node000001_Node000003" class="edge">
<title>Node1&#45;&gt;Node3</title>
<g id="a_edge2_Node000001_Node000003"><a xlink:title=" ">
<path fill="none" stroke="orange" d="M206.71,-245.15C207.41,-242.67 208.09,-240.2 208.75,-237.75 211.91,-225.94 214.68,-213.44 217.09,-200.97"/>
<polygon fill="orange" stroke="orange" points="203.39,-244.05 203.92,-254.63 210.1,-246.02 203.39,-244.05"/>
</a>
</g>
<text xml:space="preserve" text-anchor="start" x="216.22" y="-225.25" font-family="Helvetica,sans-Serif" font-size="10.00" fill="grey">&lt; units::Velocity &gt;</text>
</g>
</g>
</svg>
