<?xml version="1.0" encoding="UTF-8" standalone="no"?>
<!DOCTYPE svg PUBLIC "-//W3C//DTD SVG 1.1//EN"
 "http://www.w3.org/Graphics/SVG/1.1/DTD/svg11.dtd">
<!-- Generated by graphviz version 14.1.2 (0)
 -->
<!-- Title: vanetza::ConfidentQuantity&lt; T &gt; Pages: 1 -->
<!--zoomable 536 -->

<svg id="main" version="1.1" xmlns="http://www.w3.org/2000/svg" xmlns:xlink="http://www.w3.org/1999/xlink" xml:space="preserve" onload="init(evt)">

<style type="text/css"><![CDATA[
.node, .edge {opacity: 0.7;}
.node.selected, .edge.selected {opacity: 1;}
.edge:hover path { stroke: red; }
.edge:hover polygon { stroke: red; fill: red; }
]]></style>

<defs>
  <circle id="rim" cx="0" cy="0" r="7"/>
  <circle id="rim2" cx="0" cy="0" r="3.5"/>
  <g id="zoomPlus">
    <use xlink:href="#rim" fill="#404040"><set attributeName="fill" to="#808080" begin="zoomplus.mouseover" end="zoomplus.mouseout"/></use>
    <path d="M-4,0h8M0,-4v8" fill="none" stroke="white" stroke-width="1.5" pointer-events="none"/>
  </g>
  <g id="zoomMin">
    <use xlink:href="#rim" fill="#404040"><set attributeName="fill" to="#808080" begin="zoomminus.mouseover" end="zoomminus.mouseout"/></use>
    <path d="M-4,0h8" fill="none" stroke="white" stroke-width="1.5" pointer-events="none"/>
  </g>
  <g id="arrowUp" transform="translate(30 24)">
    <use xlink:href="#rim"/>
    <path pointer-events="none" fill="none" stroke="white" stroke-width="1.5" d="M0,-3.0v7 M-2.5,-0.5L0,-3.0L2.5,-0.5"/>
  </g>
  <g id="arrowRight" transform="rotate(90) translate(36 -43)">
    <use xlink:href="#rim"/>
    <path pointer-events="none" fill="none" stroke="white" stroke-width="1.5" d="M0,-3.0v7 M-2.5,-0.5L0,-3.0L2.5,-0.5"/>
  </g>
  <g id="arrowDown" transform="rotate(180) translate(-30 -48)">
    <use xlink:href="#rim"/>
    <path pointer-events="none" fill="none" stroke="white" stroke-width="1.5" d="M0,-3.0v7 M-2.5,-0.5L0,-3.0L2.5,-0.5"/>
  </g>
  <g id="arrowLeft" transform="rotate(270) translate(-36 17)">
    <use xlink:href="#rim"/>
    <path pointer-events="none" fill="none" stroke="white" stroke-width="1.5" d="M0,-3.0v7 M-2.5,-0.5L0,-3.0L2.5,-0.5"/>
  </g>
  <g id="resetDef">
    <use xlink:href="#rim2" fill="#404040"><set attributeName="fill" to="#808080" begin="reset.mouseover" end="reset.mouseout"/></use>
  </g>
</defs>
<script type="application/ecmascript">
var viewWidth = 319;
var viewHeight = 536;
var sectionId = 'dynsection-0';
</script>
<script type="application/ecmascript" xlink:href="../../svg.min.js"/>
<svg id="graph" class="graph">
<g id="viewport">
<title>vanetza::ConfidentQuantity&lt; T &gt;</title>
<!-- Node1 -->
<g id="Node000001" class="node">
<title>Node1</title>
<g id="a_Node000001"><a xlink:title=" ">
<polygon fill="#999999" stroke="none" points="235.75,-527.75 65.75,-527.75 65.75,-255.75 235.75,-255.75 235.75,-527.75"/>
<text xml:space="preserve" text-anchor="start" x="69.75" y="-514.25" font-family="Helvetica,sans-Serif" font-size="10.00">vanetza::ConfidentQuantity&lt; T &gt;</text>
<text xml:space="preserve" text-anchor="start" x="85.44" y="-497.5" font-family="Helvetica,sans-Serif" font-size="10.00">&#45;</text>
<text xml:space="preserve" text-anchor="start" x="108.88" y="-497.5" font-family="Helvetica,sans-Serif" font-size="10.00">m_value</text>
<text xml:space="preserve" text-anchor="start" x="85.44" y="-480.75" font-family="Helvetica,sans-Serif" font-size="10.00">&#45;</text>
<text xml:space="preserve" text-anchor="start" x="108.88" y="-480.75" font-family="Helvetica,sans-Serif" font-size="10.00">m_confidence</text>
<text xml:space="preserve" text-anchor="start" x="83.19" y="-464" font-family="Helvetica,sans-Serif" font-size="10.00">+</text>
<text xml:space="preserve" text-anchor="start" x="108.88" y="-464" font-family="Helvetica,sans-Serif" font-size="10.00">worst_confidence()</text>
<text xml:space="preserve" text-anchor="start" x="83.19" y="-447.25" font-family="Helvetica,sans-Serif" font-size="10.00">+</text>
<text xml:space="preserve" text-anchor="start" x="108.88" y="-447.25" font-family="Helvetica,sans-Serif" font-size="10.00">default_value()</text>
<text xml:space="preserve" text-anchor="start" x="83.19" y="-430.5" font-family="Helvetica,sans-Serif" font-size="10.00">+</text>
<text xml:space="preserve" text-anchor="start" x="108.88" y="-430.5" font-family="Helvetica,sans-Serif" font-size="10.00">is_nan()</text>
<text xml:space="preserve" text-anchor="start" x="83.19" y="-413.75" font-family="Helvetica,sans-Serif" font-size="10.00">+</text>
<text xml:space="preserve" text-anchor="start" x="108.88" y="-413.75" font-family="Helvetica,sans-Serif" font-size="10.00">ConfidentQuantity()</text>
<text xml:space="preserve" text-anchor="start" x="83.19" y="-397" font-family="Helvetica,sans-Serif" font-size="10.00">+</text>
<text xml:space="preserve" text-anchor="start" x="108.88" y="-397" font-family="Helvetica,sans-Serif" font-size="10.00">ConfidentQuantity()</text>
<text xml:space="preserve" text-anchor="start" x="83.19" y="-380.25" font-family="Helvetica,sans-Serif" font-size="10.00">+</text>
<text xml:space="preserve" text-anchor="start" x="108.88" y="-380.25" font-family="Helvetica,sans-Serif" font-size="10.00">ConfidentQuantity()</text>
<text xml:space="preserve" text-anchor="start" x="83.19" y="-363.5" font-family="Helvetica,sans-Serif" font-size="10.00">+</text>
<text xml:space="preserve" text-anchor="start" x="108.88" y="-363.5" font-family="Helvetica,sans-Serif" font-size="10.00">ConfidentQuantity()</text>
<text xml:space="preserve" text-anchor="start" x="83.19" y="-346.75" font-family="Helvetica,sans-Serif" font-size="10.00">+</text>
<text xml:space="preserve" text-anchor="start" x="108.88" y="-346.75" font-family="Helvetica,sans-Serif" font-size="10.00">operator=()</text>
<text xml:space="preserve" text-anchor="start" x="83.19" y="-330" font-family="Helvetica,sans-Serif" font-size="10.00">+</text>
<text xml:space="preserve" text-anchor="start" x="108.88" y="-330" font-family="Helvetica,sans-Serif" font-size="10.00">ConfidentQuantity()</text>
<text xml:space="preserve" text-anchor="start" x="83.19" y="-313.25" font-family="Helvetica,sans-Serif" font-size="10.00">+</text>
<text xml:space="preserve" text-anchor="start" x="108.88" y="-313.25" font-family="Helvetica,sans-Serif" font-size="10.00">operator=()</text>
<text xml:space="preserve" text-anchor="start" x="83.19" y="-296.5" font-family="Helvetica,sans-Serif" font-size="10.00">+</text>
<text xml:space="preserve" text-anchor="start" x="108.88" y="-296.5" font-family="Helvetica,sans-Serif" font-size="10.00">assign()</text>
<text xml:space="preserve" text-anchor="start" x="83.19" y="-279.75" font-family="Helvetica,sans-Serif" font-size="10.00">+</text>
<text xml:space="preserve" text-anchor="start" x="108.88" y="-279.75" font-family="Helvetica,sans-Serif" font-size="10.00">value()</text>
<text xml:space="preserve" text-anchor="start" x="83.19" y="-263" font-family="Helvetica,sans-Serif" font-size="10.00">+</text>
<text xml:space="preserve" text-anchor="start" x="108.88" y="-263" font-family="Helvetica,sans-Serif" font-size="10.00">confidence()</text>
<polygon fill="#666666" stroke="#666666" points="65.75,-509 65.75,-509 235.75,-509 235.75,-509 65.75,-509"/>
<polygon fill="#666666" stroke="#666666" points="65.75,-475.5 65.75,-475.5 106.88,-475.5 106.88,-475.5 65.75,-475.5"/>
<polygon fill="#666666" stroke="#666666" points="106.88,-475.5 106.88,-475.5 235.75,-475.5 235.75,-475.5 106.88,-475.5"/>
<polygon fill="none" stroke="#666666" points="65.75,-255.75 65.75,-527.75 235.75,-527.75 235.75,-255.75 65.75,-255.75"/>
</a>
</g>
</g>
<!-- Node2 -->
<g id="Node000002" class="node">
<title>Node2</title>
<g id="a_Node000002"><a xlink:href="../../d2/d35/classvanetza_1_1ConfidentQuantity.html" target="_top" xlink:title=" ">
<polygon fill="white" stroke="none" points="141.5,-201 0,-201 0,0 141.5,0 141.5,-201"/>
<text xml:space="preserve" text-anchor="start" x="4" y="-187.5" font-family="Helvetica,sans-Serif" font-size="10.00">vanetza::ConfidentQuantity</text>
<text xml:space="preserve" text-anchor="start" x="20.88" y="-174.75" font-family="Helvetica,sans-Serif" font-size="10.00">&lt; units::TrueNorth &gt;</text>
<text xml:space="preserve" text-anchor="start" x="12.56" y="-158" font-family="Helvetica,sans-Serif" font-size="10.00">&#45;</text>
<text xml:space="preserve" text-anchor="start" x="28.88" y="-158" font-family="Helvetica,sans-Serif" font-size="10.00">m_value</text>
<text xml:space="preserve" text-anchor="start" x="12.56" y="-141.25" font-family="Helvetica,sans-Serif" font-size="10.00">&#45;</text>
<text xml:space="preserve" text-anchor="start" x="28.88" y="-141.25" font-family="Helvetica,sans-Serif" font-size="10.00">m_confidence</text>
<text xml:space="preserve" text-anchor="start" x="10.31" y="-124.5" font-family="Helvetica,sans-Serif" font-size="10.00">+</text>
<text xml:space="preserve" text-anchor="start" x="28.88" y="-124.5" font-family="Helvetica,sans-Serif" font-size="10.00">worst_confidence()</text>
<text xml:space="preserve" text-anchor="start" x="10.31" y="-107.75" font-family="Helvetica,sans-Serif" font-size="10.00">+</text>
<text xml:space="preserve" text-anchor="start" x="28.88" y="-107.75" font-family="Helvetica,sans-Serif" font-size="10.00">default_value()</text>
<text xml:space="preserve" text-anchor="start" x="10.31" y="-91" font-family="Helvetica,sans-Serif" font-size="10.00">+</text>
<text xml:space="preserve" text-anchor="start" x="28.88" y="-91" font-family="Helvetica,sans-Serif" font-size="10.00">is_nan()</text>
<text xml:space="preserve" text-anchor="start" x="10.31" y="-74.25" font-family="Helvetica,sans-Serif" font-size="10.00">+</text>
<text xml:space="preserve" text-anchor="start" x="28.88" y="-74.25" font-family="Helvetica,sans-Serif" font-size="10.00">ConfidentQuantity()</text>
<text xml:space="preserve" text-anchor="start" x="10.31" y="-57.5" font-family="Helvetica,sans-Serif" font-size="10.00">+</text>
<text xml:space="preserve" text-anchor="start" x="28.88" y="-57.5" font-family="Helvetica,sans-Serif" font-size="10.00">operator=()</text>
<text xml:space="preserve" text-anchor="start" x="10.31" y="-40.75" font-family="Helvetica,sans-Serif" font-size="10.00">+</text>
<text xml:space="preserve" text-anchor="start" x="28.88" y="-40.75" font-family="Helvetica,sans-Serif" font-size="10.00">assign()</text>
<text xml:space="preserve" text-anchor="start" x="10.31" y="-24" font-family="Helvetica,sans-Serif" font-size="10.00">+</text>
<text xml:space="preserve" text-anchor="start" x="28.88" y="-24" font-family="Helvetica,sans-Serif" font-size="10.00">value()</text>
<text xml:space="preserve" text-anchor="start" x="10.31" y="-7.25" font-family="Helvetica,sans-Serif" font-size="10.00">+</text>
<text xml:space="preserve" text-anchor="start" x="28.88" y="-7.25" font-family="Helvetica,sans-Serif" font-size="10.00">confidence()</text>
<polygon fill="#666666" stroke="#666666" points="0,-169.5 0,-169.5 141.5,-169.5 141.5,-169.5 0,-169.5"/>
<polygon fill="#666666" stroke="#666666" points="0,-136 0,-136 26.88,-136 26.88,-136 0,-136"/>
<polygon fill="#666666" stroke="#666666" points="26.88,-136 26.88,-136 141.5,-136 141.5,-136 26.88,-136"/>
<polygon fill="none" stroke="#666666" points="0,0 0,-201 141.5,-201 141.5,0 0,0"/>
</a>
</g>
</g>
<!-- Node1&#45;&gt;Node2 -->
<g id="edge1_Node000001_Node000002" class="edge">
<title>Node1&#45;&gt;Node2</title>
<g id="a_edge1_Node000001_Node000002"><a xlink:title=" ">
<path fill="none" stroke="orange" d="M105.05,-245.16C104.36,-242.68 103.67,-240.2 103,-237.75 99.72,-225.79 96.47,-213.19 93.37,-200.68"/>
<polygon fill="orange" stroke="orange" points="101.66,-246.04 107.76,-254.7 108.4,-244.13 101.66,-246.04"/>
</a>
</g>
<text xml:space="preserve" text-anchor="start" x="106" y="-225.25" font-family="Helvetica,sans-Serif" font-size="10.00" fill="grey">&lt; units::TrueNorth &gt;</text>
</g>
<!-- Node3 -->
<g id="Node000003" class="node">
<title>Node3</title>
<g id="a_Node000003"><a xlink:href="../../d2/d35/classvanetza_1_1ConfidentQuantity.html" target="_top" xlink:title=" ">
<polygon fill="white" stroke="none" points="301.5,-201 160,-201 160,0 301.5,0 301.5,-201"/>
<text xml:space="preserve" text-anchor="start" x="164" y="-187.5" font-family="Helvetica,sans-Serif" font-size="10.00">vanetza::ConfidentQuantity</text>
<text xml:space="preserve" text-anchor="start" x="185" y="-174.75" font-family="Helvetica,sans-Serif" font-size="10.00">&lt; units::Velocity &gt;</text>
<text xml:space="preserve" text-anchor="start" x="172.56" y="-158" font-family="Helvetica,sans-Serif" font-size="10.00">&#45;</text>
<text xml:space="preserve" text-anchor="start" x="188.88" y="-158" font-family="Helvetica,sans-Serif" font-size="10.00">m_value</text>
<text xml:space="preserve" text-anchor="start" x="172.56" y="-141.25" font-family="Helvetica,sans-Serif" font-size="10.00">&#45;</text>
<text xml:space="preserve" text-anchor="start" x="188.88" y="-141.25" font-family="Helvetica,sans-Serif" font-size="10.00">m_confidence</text>
<text xml:space="preserve" text-anchor="start" x="170.31" y="-124.5" font-family="Helvetica,sans-Serif" font-size="10.00">+</text>
<text xml:space="preserve" text-anchor="start" x="188.88" y="-124.5" font-family="Helvetica,sans-Serif" font-size="10.00">worst_confidence()</text>
<text xml:space="preserve" text-anchor="start" x="170.31" y="-107.75" font-family="Helvetica,sans-Serif" font-size="10.00">+</text>
<text xml:space="preserve" text-anchor="start" x="188.88" y="-107.75" font-family="Helvetica,sans-Serif" font-size="10.00">default_value()</text>
<text xml:space="preserve" text-anchor="start" x="170.31" y="-91" font-family="Helvetica,sans-Serif" font-size="10.00">+</text>
<text xml:space="preserve" text-anchor="start" x="188.88" y="-91" font-family="Helvetica,sans-Serif" font-size="10.00">is_nan()</text>
<text xml:space="preserve" text-anchor="start" x="170.31" y="-74.25" font-family="Helvetica,sans-Serif" font-size="10.00">+</text>
<text xml:space="preserve" text-anchor="start" x="188.88" y="-74.25" font-family="Helvetica,sans-Serif" font-size="10.00">ConfidentQuantity()</text>
<text xml:space="preserve" text-anchor="start" x="170.31" y="-57.5" font-family="Helvetica,sans-Serif" font-size="10.00">+</text>
<text xml:space="preserve" text-anchor="start" x="188.88" y="-57.5" font-family="Helvetica,sans-Serif" font-size="10.00">operator=()</text>
<text xml:space="preserve" text-anchor="start" x="170.31" y="-40.75" font-family="Helvetica,sans-Serif" font-size="10.00">+</text>
<text xml:space="preserve" text-anchor="start" x="188.88" y="-40.75" font-family="Helvetica,sans-Serif" font-size="10.00">assign()</text>
<text xml:space="preserve" text-anchor="start" x="170.31" y="-24" font-family="Helvetica,sans-Serif" font-size="10.00">+</text>
<text xml:space="preserve" text-anchor="start" x="188.88" y="-24" font-family="Helvetica,sans-Serif" font-size="10.00">value()</text>
<text xml:space="preserve" text-anchor="start" x="170.31" y="-7.25" font-family="Helvetica,sans-Serif" font-size="10.00">+</text>
<text xml:space="preserve" text-anchor="start" x="188.88" y="-7.25" font-family="Helvetica,sans-Serif" font-size="10.00">confidence()</text>
<polygon fill="#666666" stroke="#666666" points="160,-169.5 160,-169.5 301.5,-169.5 301.5,-169.5 160,-169.5"/>
<polygon fill="#666666" stroke="#666666" points="160,-136 160,-136 186.88,-136 186.88,-136 160,-136"/>
<polygon fill="#666666" stroke="#666666" points="186.88,-136 186.88,-136 301.5,-136 301.5,-136 186.88,-136"/>
<polygon fill="none" stroke="#666666" points="160,0 160,-201 301.5,-201 301.5,0 160,0"/>
</a>
</g>
</g>
<!-- Node1&#45;&gt;Node3 -->
<g id="edge2_Node000001_Node000003" class="edge">
<title>Node1&#45;&gt;Node3</title>
<g id="a_edge2_Node000001_Node000003"><a xlink:title=" ">
<path fill="none" stroke="orange" d="M206.71,-245.15C207.41,-242.67 208.09,-240.2 208.75,-237.75 211.91,-225.94 214.68,-213.44 217.09,-200.97"/>
<polygon fill="orange" stroke="orange" points="203.39,-244.05 203.92,-254.63 210.1,-246.02 203.39,-244.05"/>
</a>
</g>
<text xml:space="preserve" text-anchor="start" x="216.22" y="-225.25" font-family="Helvetica,sans-Serif" font-size="10.00" fill="grey">&lt; units::Velocity &gt;</text>
</g>
</g>
</svg>

<g id="navigator" transform="translate(0 0)" fill="#404254">
  <rect fill="#f2f5e9" fill-opacity="0.5" stroke="#606060" stroke-width=".5" x="0" y="0" width="60" height="60"/>
  <use id="zoomplus" xlink:href="#zoomPlus" x="17" y="9" onmousedown="handleZoom(evt,'in')"/>
  <use id="zoomminus" xlink:href="#zoomMin" x="42" y="9" onmousedown="handleZoom(evt,'out')"/>
  <use id="reset" xlink:href="#resetDef" x="30" y="36" onmousedown="handleReset()"/>
   <use id="arrowup" xlink:href="#arrowUp" x="0" y="0" onmousedown="handlePan(0,-1)"/>
  <use id="arrowright" xlink:href="#arrowRight" x="0" y="0" onmousedown="handlePan(1,0)"/>
  <use id="arrowdown" xlink:href="#arrowDown" x="0" y="0" onmousedown="handlePan(0,1)"/>
  <use id="arrowleft" xlink:href="#arrowLeft" x="0" y="0" onmousedown="handlePan(-1,0)"/>
</g>
<svg viewBox="0 0 15 15" width="100%" height="30px" preserveAspectRatio="xMaxYMin meet">
 <g id="arrow_out" transform="scale(0.3 0.3)">
  <a xlink:href="classvanetza_1_1ConfidentQuantity__inherit__graph_org.svg" target="_base">
   <rect id="button" ry="5" rx="5" y="6" x="6" height="38" width="38"
        fill="#f2f5e9" fill-opacity="0.5" stroke="#606060" stroke-width="1.0"/>
   <path id="arrow"
     d="M 11.500037,31.436501 C 11.940474,20.09759 22.043105,11.32322 32.158766,21.979434 L 37.068811,17.246167 C 37.068811,17.246167 37.088388,32 37.088388,32 L 22.160133,31.978069 C 22.160133,31.978069 26.997745,27.140456 26.997745,27.140456 C 18.528582,18.264221 13.291696,25.230495 11.500037,31.436501 z"
     style="fill:#404040;"/>
  </a>
 </g>
</svg>

<style type='text/css'>
<![CDATA[
[data-mouse-over-selected='false'] { opacity: 0.7; }
[data-mouse-over-selected='true']  { opacity: 1.0; }
]]>
</style>
<script type="application/ecmascript"><![CDATA[
document.addEventListener('DOMContentLoaded', (event) => {
  highlightEdges();
  highlightAdjacentNodes();
});
]]></script>
</svg>
