<?xml version="1.0" encoding="UTF-8" standalone="no"?>
<!DOCTYPE svg PUBLIC "-//W3C//DTD SVG 1.1//EN"
 "http://www.w3.org/Graphics/SVG/1.1/DTD/svg11.dtd">
<!-- Generated by graphviz version 14.1.2 (0)
 -->
<!-- Title: vanetza::geonet::TransportInterface Pages: 1 -->
<svg width="166pt" height="325pt"
 viewBox="0.00 0.00 166.00 325.00" xmlns="http://www.w3.org/2000/svg" xmlns:xlink="http://www.w3.org/1999/xlink">
<g id="graph0" class="graph" transform="scale(1 1) rotate(0) translate(4 320.75)">
<title>vanetza::geonet::TransportInterface</title>
<!-- Node1 -->
<g id="Node000001" class="node">
<title>Node1</title>
<g id="a_Node000001"><a xlink:title=" ">
<polygon fill="#999999" stroke="none" points="148,-316.75 10.25,-316.75 10.25,-233 148,-233 148,-316.75"/>
<text xml:space="preserve" text-anchor="start" x="14.25" y="-303.25" font-family="Helvetica,sans-Serif" font-size="10.00">vanetza::geonet::Transport</text>
<text xml:space="preserve" text-anchor="start" x="57.38" y="-290.5" font-family="Helvetica,sans-Serif" font-size="10.00">Interface</text>
<text xml:space="preserve" text-anchor="start" x="77.62" y="-273.75" font-family="Helvetica,sans-Serif" font-size="10.00"> </text>
<text xml:space="preserve" text-anchor="start" x="17.56" y="-257" font-family="Helvetica,sans-Serif" font-size="10.00">+</text>
<text xml:space="preserve" text-anchor="start" x="33.12" y="-257" font-family="Helvetica,sans-Serif" font-size="10.00">indicate()</text>
<text xml:space="preserve" text-anchor="start" x="17.56" y="-240.25" font-family="Helvetica,sans-Serif" font-size="10.00">+</text>
<text xml:space="preserve" text-anchor="start" x="33.12" y="-240.25" font-family="Helvetica,sans-Serif" font-size="10.00">~TransportInterface()</text>
<polygon fill="#666666" stroke="#666666" points="10.25,-285.25 10.25,-285.25 148,-285.25 148,-285.25 10.25,-285.25"/>
<polygon fill="#666666" stroke="#666666" points="10.25,-268.5 10.25,-268.5 148,-268.5 148,-268.5 10.25,-268.5"/>
<polygon fill="none" stroke="#666666" points="10.25,-233 10.25,-316.75 148,-316.75 148,-233 10.25,-233"/>
</a>
</g>
</g>
<!-- Node2 -->
<g id="Node000002" class="node">
<title>Node2</title>
<g id="a_Node000002"><a xlink:href="../../d0/d42/classvanetza_1_1btp_1_1PortDispatcher.html" target="_top" xlink:title=" ">
<polygon fill="white" stroke="none" points="158.25,-197 0,-197 0,0 158.25,0 158.25,-197"/>
<text xml:space="preserve" text-anchor="start" x="9.75" y="-183.5" font-family="Helvetica,sans-Serif" font-size="10.00">vanetza::btp::PortDispatcher</text>
<text xml:space="preserve" text-anchor="start" x="4" y="-166.75" font-family="Helvetica,sans-Serif" font-size="10.00">+</text>
<text xml:space="preserve" text-anchor="start" x="16.25" y="-166.75" font-family="Helvetica,sans-Serif" font-size="10.00">hook_undispatched</text>
<text xml:space="preserve" text-anchor="start" x="6.25" y="-150" font-family="Helvetica,sans-Serif" font-size="10.00">&#45;</text>
<text xml:space="preserve" text-anchor="start" x="16.25" y="-150" font-family="Helvetica,sans-Serif" font-size="10.00">m_interactive_handlers</text>
<text xml:space="preserve" text-anchor="start" x="6.25" y="-133.25" font-family="Helvetica,sans-Serif" font-size="10.00">&#45;</text>
<text xml:space="preserve" text-anchor="start" x="16.25" y="-133.25" font-family="Helvetica,sans-Serif" font-size="10.00">m_non_interactive_handlers</text>
<text xml:space="preserve" text-anchor="start" x="6.25" y="-116.5" font-family="Helvetica,sans-Serif" font-size="10.00">&#45;</text>
<text xml:space="preserve" text-anchor="start" x="16.25" y="-116.5" font-family="Helvetica,sans-Serif" font-size="10.00">m_promiscuous_hooks</text>
<text xml:space="preserve" text-anchor="start" x="4" y="-99.75" font-family="Helvetica,sans-Serif" font-size="10.00">+</text>
<text xml:space="preserve" text-anchor="start" x="16.25" y="-99.75" font-family="Helvetica,sans-Serif" font-size="10.00">set_interactive_handler()</text>
<text xml:space="preserve" text-anchor="start" x="4" y="-83" font-family="Helvetica,sans-Serif" font-size="10.00">+</text>
<text xml:space="preserve" text-anchor="start" x="16.25" y="-83" font-family="Helvetica,sans-Serif" font-size="10.00">set_non_interactive</text>
<text xml:space="preserve" text-anchor="start" x="16.25" y="-70.25" font-family="Helvetica,sans-Serif" font-size="10.00">_handler()</text>
<text xml:space="preserve" text-anchor="start" x="4" y="-53.5" font-family="Helvetica,sans-Serif" font-size="10.00">+</text>
<text xml:space="preserve" text-anchor="start" x="16.25" y="-53.5" font-family="Helvetica,sans-Serif" font-size="10.00">add_promiscuous_hook()</text>
<text xml:space="preserve" text-anchor="start" x="4" y="-36.75" font-family="Helvetica,sans-Serif" font-size="10.00">+</text>
<text xml:space="preserve" text-anchor="start" x="16.25" y="-36.75" font-family="Helvetica,sans-Serif" font-size="10.00">remove_promiscuous</text>
<text xml:space="preserve" text-anchor="start" x="16.25" y="-24" font-family="Helvetica,sans-Serif" font-size="10.00">_hook()</text>
<text xml:space="preserve" text-anchor="start" x="4" y="-7.25" font-family="Helvetica,sans-Serif" font-size="10.00">+</text>
<text xml:space="preserve" text-anchor="start" x="16.25" y="-7.25" font-family="Helvetica,sans-Serif" font-size="10.00">indicate()</text>
<polygon fill="#bfbfbf" stroke="#bfbfbf" points="0,-178.25 0,-178.25 158.25,-178.25 158.25,-178.25 0,-178.25"/>
<polygon fill="#bfbfbf" stroke="#bfbfbf" points="0,-111.25 0,-111.25 14.25,-111.25 14.25,-111.25 0,-111.25"/>
<polygon fill="#bfbfbf" stroke="#bfbfbf" points="14.25,-111.25 14.25,-111.25 158.25,-111.25 158.25,-111.25 14.25,-111.25"/>
<polygon fill="none" stroke="#bfbfbf" points="0,0 0,-197 158.25,-197 158.25,0 0,0"/>
</a>
</g>
</g>
<!-- Node1&#45;&gt;Node2 -->
<g id="edge1_Node000001_Node000002" class="edge">
<title>Node1&#45;&gt;Node2</title>
<g id="a_edge1_Node000001_Node000002"><a xlink:title=" ">
<path fill="none" stroke="#63b8ff" d="M79.12,-222.01C79.12,-213.95 79.12,-205.4 79.12,-196.73"/>
<polygon fill="none" stroke="#63b8ff" points="75.63,-221.92 79.13,-231.92 82.63,-221.92 75.63,-221.92"/>
</a>
</g>
</g>
</g>
</svg>
