<?xml version="1.0" encoding="UTF-8" standalone="no"?>
<!DOCTYPE svg PUBLIC "-//W3C//DTD SVG 1.1//EN"
 "http://www.w3.org/Graphics/SVG/1.1/DTD/svg11.dtd">
<!-- Generated by graphviz version 14.1.2 (0)
 -->
<!-- Title: vanetza::MacAddress Pages: 1 -->
<svg width="123pt" height="266pt"
 viewBox="0.00 0.00 123.00 266.00" xmlns="http://www.w3.org/2000/svg" xmlns:xlink="http://www.w3.org/1999/xlink">
<g id="graph0" class="graph" transform="scale(1 1) rotate(0) translate(4 261.75)">
<title>vanetza::MacAddress</title>
<!-- Node1 -->
<g id="Node000001" class="node">
<title>Node1</title>
<g id="a_Node000001"><a xlink:title=" ">
<polygon fill="#999999" stroke="none" points="113.75,-154.75 1.5,-154.75 1.5,0 113.75,0 113.75,-154.75"/>
<text xml:space="preserve" text-anchor="start" x="5.5" y="-141.25" font-family="Helvetica,sans-Serif" font-size="10.00">vanetza::MacAddress</text>
<text xml:space="preserve" text-anchor="start" x="11.81" y="-124.5" font-family="Helvetica,sans-Serif" font-size="10.00">+</text>
<text xml:space="preserve" text-anchor="start" x="30.38" y="-124.5" font-family="Helvetica,sans-Serif" font-size="10.00">octets</text>
<text xml:space="preserve" text-anchor="start" x="11.81" y="-107.75" font-family="Helvetica,sans-Serif" font-size="10.00">+</text>
<text xml:space="preserve" text-anchor="start" x="30.38" y="-107.75" font-family="Helvetica,sans-Serif" font-size="10.00">length_bytes</text>
<text xml:space="preserve" text-anchor="start" x="11.81" y="-91" font-family="Helvetica,sans-Serif" font-size="10.00">+</text>
<text xml:space="preserve" text-anchor="start" x="30.38" y="-91" font-family="Helvetica,sans-Serif" font-size="10.00">MacAddress()</text>
<text xml:space="preserve" text-anchor="start" x="11.81" y="-74.25" font-family="Helvetica,sans-Serif" font-size="10.00">+</text>
<text xml:space="preserve" text-anchor="start" x="30.38" y="-74.25" font-family="Helvetica,sans-Serif" font-size="10.00">MacAddress()</text>
<text xml:space="preserve" text-anchor="start" x="11.81" y="-57.5" font-family="Helvetica,sans-Serif" font-size="10.00">+</text>
<text xml:space="preserve" text-anchor="start" x="30.38" y="-57.5" font-family="Helvetica,sans-Serif" font-size="10.00">MacAddress()</text>
<text xml:space="preserve" text-anchor="start" x="11.81" y="-40.75" font-family="Helvetica,sans-Serif" font-size="10.00">+</text>
<text xml:space="preserve" text-anchor="start" x="30.38" y="-40.75" font-family="Helvetica,sans-Serif" font-size="10.00">operator=()</text>
<text xml:space="preserve" text-anchor="start" x="11.81" y="-24" font-family="Helvetica,sans-Serif" font-size="10.00">+</text>
<text xml:space="preserve" text-anchor="start" x="30.38" y="-24" font-family="Helvetica,sans-Serif" font-size="10.00">MacAddress()</text>
<text xml:space="preserve" text-anchor="start" x="11.81" y="-7.25" font-family="Helvetica,sans-Serif" font-size="10.00">+</text>
<text xml:space="preserve" text-anchor="start" x="30.38" y="-7.25" font-family="Helvetica,sans-Serif" font-size="10.00">operator=()</text>
<polygon fill="#666666" stroke="#666666" points="1.5,-136 1.5,-136 113.75,-136 113.75,-136 1.5,-136"/>
<polygon fill="#666666" stroke="#666666" points="1.5,-102.5 1.5,-102.5 28.38,-102.5 28.38,-102.5 1.5,-102.5"/>
<polygon fill="#666666" stroke="#666666" points="28.38,-102.5 28.38,-102.5 113.75,-102.5 113.75,-102.5 28.38,-102.5"/>
<polygon fill="none" stroke="#666666" points="1.5,0 1.5,-154.75 113.75,-154.75 113.75,0 1.5,0"/>
</a>
</g>
</g>
<!-- Node2 -->
<g id="Node000002" class="node">
<title>Node2</title>
<g id="a_Node000002"><a xlink:title=" ">
<polygon fill="white" stroke="none" points="115.25,-257.75 0,-257.75 0,-190.75 115.25,-190.75 115.25,-257.75"/>
<text xml:space="preserve" text-anchor="start" x="4" y="-244.25" font-family="Helvetica,sans-Serif" font-size="10.00">boost::totally_ordered</text>
<text xml:space="preserve" text-anchor="start" x="16.75" y="-231.5" font-family="Helvetica,sans-Serif" font-size="10.00">&lt; MacAddress &gt;</text>
<text xml:space="preserve" text-anchor="start" x="56.12" y="-214.75" font-family="Helvetica,sans-Serif" font-size="10.00"> </text>
<text xml:space="preserve" text-anchor="start" x="56.12" y="-198" font-family="Helvetica,sans-Serif" font-size="10.00"> </text>
<polygon fill="#bfbfbf" stroke="#bfbfbf" points="0,-226.25 0,-226.25 115.25,-226.25 115.25,-226.25 0,-226.25"/>
<polygon fill="#bfbfbf" stroke="#bfbfbf" points="0,-209.5 0,-209.5 115.25,-209.5 115.25,-209.5 0,-209.5"/>
<polygon fill="none" stroke="#bfbfbf" points="0,-190.75 0,-257.75 115.25,-257.75 115.25,-190.75 0,-190.75"/>
</a>
</g>
</g>
<!-- Node2&#45;&gt;Node1 -->
<g id="edge1_Node000001_Node000002" class="edge">
<title>Node2&#45;&gt;Node1</title>
<g id="a_edge1_Node000001_Node000002"><a xlink:title=" ">
<path fill="none" stroke="#63b8ff" d="M57.62,-179.83C57.62,-171.82 57.62,-163.24 57.62,-154.59"/>
<polygon fill="none" stroke="#63b8ff" points="54.13,-179.58 57.63,-189.58 61.13,-179.58 54.13,-179.58"/>
</a>
</g>
</g>
</g>
</svg>
