<?xml version="1.0" encoding="UTF-8" standalone="no"?>
<!DOCTYPE svg PUBLIC "-//W3C//DTD SVG 1.1//EN"
 "http://www.w3.org/Graphics/SVG/1.1/DTD/svg11.dtd">
<!-- Generated by graphviz version 2.49.3 (0)
 -->
<!-- Title: vanetza::security::Backend Pages: 1 -->
<!--zoomable 464 -->

<svg id="main" version="1.1" xmlns="http://www.w3.org/2000/svg" xmlns:xlink="http://www.w3.org/1999/xlink" xml:space="preserve" onload="init(evt)">

<style type="text/css"><![CDATA[
.node, .edge {opacity: 0.7;}
.node.selected, .edge.selected {opacity: 1;}
.edge:hover path { stroke: red; }
.edge:hover polygon { stroke: red; fill: red; }
]]></style>

<defs>
  <circle id="rim" cx="0" cy="0" r="7"/>
  <circle id="rim2" cx="0" cy="0" r="3.5"/>
  <g id="zoomPlus">
    <use xlink:href="#rim" fill="#404040"><set attributeName="fill" to="#808080" begin="zoomplus.mouseover" end="zoomplus.mouseout"/></use>
    <path d="M-4,0h8M0,-4v8" fill="none" stroke="white" stroke-width="1.5" pointer-events="none"/>
  </g>
  <g id="zoomMin">
    <use xlink:href="#rim" fill="#404040"><set attributeName="fill" to="#808080" begin="zoomminus.mouseover" end="zoomminus.mouseout"/></use>
    <path d="M-4,0h8" fill="none" stroke="white" stroke-width="1.5" pointer-events="none"/>
  </g>
  <g id="arrowUp" transform="translate(30 24)">
    <use xlink:href="#rim"/>
    <path pointer-events="none" fill="none" stroke="white" stroke-width="1.5" d="M0,-3.0v7 M-2.5,-0.5L0,-3.0L2.5,-0.5"/>
  </g>
  <g id="arrowRight" transform="rotate(90) translate(36 -43)">
    <use xlink:href="#rim"/>
    <path pointer-events="none" fill="none" stroke="white" stroke-width="1.5" d="M0,-3.0v7 M-2.5,-0.5L0,-3.0L2.5,-0.5"/>
  </g>
  <g id="arrowDown" transform="rotate(180) translate(-30 -48)">
    <use xlink:href="#rim"/>
    <path pointer-events="none" fill="none" stroke="white" stroke-width="1.5" d="M0,-3.0v7 M-2.5,-0.5L0,-3.0L2.5,-0.5"/>
  </g>
  <g id="arrowLeft" transform="rotate(270) translate(-36 17)">
    <use xlink:href="#rim"/>
    <path pointer-events="none" fill="none" stroke="white" stroke-width="1.5" d="M0,-3.0v7 M-2.5,-0.5L0,-3.0L2.5,-0.5"/>
  </g>
  <g id="resetDef">
    <use xlink:href="#rim2" fill="#404040"><set attributeName="fill" to="#808080" begin="reset.mouseover" end="reset.mouseout"/></use>
  </g>
</defs>
<script type="application/ecmascript">
var viewWidth = 399;
var viewHeight = 464;
var sectionId = 'dynsection-0';
</script>
<script type="application/ecmascript" xlink:href="../../svg.min.js"/>
<svg id="graph" class="graph">
<g id="viewport">
<title>vanetza::security::Backend</title>
<!-- Node1 -->
<g id="Node000001" class="node">
<title>Node1</title>
<g id="a_Node000001"><a xlink:title=" ">
<polygon fill="#999999" stroke="transparent" points="240,-456 135,-456 135,-306 240,-306 240,-456"/>
<text text-anchor="start" x="148" y="-444" font-family="Helvetica,sans-Serif" font-size="10.00">vanetza::security::</text>
<text text-anchor="start" x="169" y="-433" font-family="Helvetica,sans-Serif" font-size="10.00">Backend</text>
<text text-anchor="start" x="186" y="-418" font-family="Helvetica,sans-Serif" font-size="10.00"> </text>
<text text-anchor="start" x="139.5" y="-403" font-family="Helvetica,sans-Serif" font-size="10.00">+</text>
<text text-anchor="start" x="150.5" y="-403" font-family="Helvetica,sans-Serif" font-size="10.00">sign_data()</text>
<text text-anchor="start" x="139.5" y="-388" font-family="Helvetica,sans-Serif" font-size="10.00">+</text>
<text text-anchor="start" x="150.5" y="-388" font-family="Helvetica,sans-Serif" font-size="10.00">sign_digest()</text>
<text text-anchor="start" x="139.5" y="-373" font-family="Helvetica,sans-Serif" font-size="10.00">+</text>
<text text-anchor="start" x="150.5" y="-373" font-family="Helvetica,sans-Serif" font-size="10.00">verify_data()</text>
<text text-anchor="start" x="139.5" y="-358" font-family="Helvetica,sans-Serif" font-size="10.00">+</text>
<text text-anchor="start" x="150.5" y="-358" font-family="Helvetica,sans-Serif" font-size="10.00">verify_digest()</text>
<text text-anchor="start" x="139.5" y="-343" font-family="Helvetica,sans-Serif" font-size="10.00">+</text>
<text text-anchor="start" x="150.5" y="-343" font-family="Helvetica,sans-Serif" font-size="10.00">decompress_point()</text>
<text text-anchor="start" x="139.5" y="-328" font-family="Helvetica,sans-Serif" font-size="10.00">+</text>
<text text-anchor="start" x="150.5" y="-328" font-family="Helvetica,sans-Serif" font-size="10.00">calculate_hash()</text>
<text text-anchor="start" x="139.5" y="-313" font-family="Helvetica,sans-Serif" font-size="10.00">+</text>
<text text-anchor="start" x="150.5" y="-313" font-family="Helvetica,sans-Serif" font-size="10.00">~Backend()</text>
<polygon fill="#666666" stroke="#666666" points="135.5,-428 135.5,-428 240.5,-428 240.5,-428 135.5,-428"/>
<polygon fill="#666666" stroke="#666666" points="135.5,-413 135.5,-413 240.5,-413 240.5,-413 135.5,-413"/>
<polygon fill="none" stroke="#666666" points="135,-306 135,-456 240,-456 240,-306 135,-306"/>
</a>
</g>
</g>
<!-- Node2 -->
<g id="Node000002" class="node">
<title>Node2</title>
<g id="a_Node000002"><a xlink:href="../../d1/ded/classvanetza_1_1security_1_1BackendCryptoPP.html" target="_top" xlink:title=" ">
<polygon fill="white" stroke="transparent" points="117,-270 0,-270 0,0 117,0 117,-270"/>
<text text-anchor="start" x="18" y="-258" font-family="Helvetica,sans-Serif" font-size="10.00">vanetza::security::</text>
<text text-anchor="start" x="18" y="-247" font-family="Helvetica,sans-Serif" font-size="10.00">BackendCryptoPP</text>
<text text-anchor="start" x="4.5" y="-232" font-family="Helvetica,sans-Serif" font-size="10.00">+</text>
<text text-anchor="start" x="15.5" y="-232" font-family="Helvetica,sans-Serif" font-size="10.00">backend_name</text>
<text text-anchor="start" x="6" y="-217" font-family="Helvetica,sans-Serif" font-size="10.00">&#45;</text>
<text text-anchor="start" x="15.5" y="-217" font-family="Helvetica,sans-Serif" font-size="10.00">m_prng</text>
<text text-anchor="start" x="4.5" y="-202" font-family="Helvetica,sans-Serif" font-size="10.00">+</text>
<text text-anchor="start" x="15.5" y="-202" font-family="Helvetica,sans-Serif" font-size="10.00">BackendCryptoPP()</text>
<text text-anchor="start" x="4.5" y="-187" font-family="Helvetica,sans-Serif" font-size="10.00">+</text>
<text text-anchor="start" x="15.5" y="-187" font-family="Helvetica,sans-Serif" font-size="10.00">sign_data()</text>
<text text-anchor="start" x="4.5" y="-172" font-family="Helvetica,sans-Serif" font-size="10.00">+</text>
<text text-anchor="start" x="15.5" y="-172" font-family="Helvetica,sans-Serif" font-size="10.00">sign_digest()</text>
<text text-anchor="start" x="4.5" y="-157" font-family="Helvetica,sans-Serif" font-size="10.00">+</text>
<text text-anchor="start" x="15.5" y="-157" font-family="Helvetica,sans-Serif" font-size="10.00">verify_data()</text>
<text text-anchor="start" x="4.5" y="-142" font-family="Helvetica,sans-Serif" font-size="10.00">+</text>
<text text-anchor="start" x="15.5" y="-142" font-family="Helvetica,sans-Serif" font-size="10.00">verify_digest()</text>
<text text-anchor="start" x="4.5" y="-127" font-family="Helvetica,sans-Serif" font-size="10.00">+</text>
<text text-anchor="start" x="15.5" y="-127" font-family="Helvetica,sans-Serif" font-size="10.00">decompress_point()</text>
<text text-anchor="start" x="4.5" y="-112" font-family="Helvetica,sans-Serif" font-size="10.00">+</text>
<text text-anchor="start" x="15.5" y="-112" font-family="Helvetica,sans-Serif" font-size="10.00">calculate_hash()</text>
<text text-anchor="start" x="4.5" y="-97" font-family="Helvetica,sans-Serif" font-size="10.00">+</text>
<text text-anchor="start" x="15.5" y="-97" font-family="Helvetica,sans-Serif" font-size="10.00">generate_key_pair()</text>
<text text-anchor="start" x="6" y="-82" font-family="Helvetica,sans-Serif" font-size="10.00">&#45;</text>
<text text-anchor="start" x="15.5" y="-82" font-family="Helvetica,sans-Serif" font-size="10.00">sign_data()</text>
<text text-anchor="start" x="6" y="-67" font-family="Helvetica,sans-Serif" font-size="10.00">&#45;</text>
<text text-anchor="start" x="15.5" y="-67" font-family="Helvetica,sans-Serif" font-size="10.00">verify_data()</text>
<text text-anchor="start" x="6" y="-52" font-family="Helvetica,sans-Serif" font-size="10.00">&#45;</text>
<text text-anchor="start" x="15.5" y="-52" font-family="Helvetica,sans-Serif" font-size="10.00">generate_private_key()</text>
<text text-anchor="start" x="6" y="-37" font-family="Helvetica,sans-Serif" font-size="10.00">&#45;</text>
<text text-anchor="start" x="15.5" y="-37" font-family="Helvetica,sans-Serif" font-size="10.00">generate_public_key()</text>
<text text-anchor="start" x="6" y="-22" font-family="Helvetica,sans-Serif" font-size="10.00">&#45;</text>
<text text-anchor="start" x="15.5" y="-22" font-family="Helvetica,sans-Serif" font-size="10.00">internal_public_key()</text>
<text text-anchor="start" x="6" y="-7" font-family="Helvetica,sans-Serif" font-size="10.00">&#45;</text>
<text text-anchor="start" x="15.5" y="-7" font-family="Helvetica,sans-Serif" font-size="10.00">internal_private_key()</text>
<polygon fill="#bfbfbf" stroke="#bfbfbf" points="0.5,-242 0.5,-242 117.5,-242 117.5,-242 0.5,-242"/>
<polygon fill="#bfbfbf" stroke="#bfbfbf" points="0.5,-212 0.5,-212 13.5,-212 13.5,-212 0.5,-212"/>
<polygon fill="#bfbfbf" stroke="#bfbfbf" points="13.5,-212 13.5,-212 117.5,-212 117.5,-212 13.5,-212"/>
<polygon fill="none" stroke="#bfbfbf" points="0,0 0,-270 117,-270 117,0 0,0"/>
</a>
</g>
</g>
<!-- Node1&#45;&gt;Node2 -->
<g id="edge1_Node000001_Node000002" class="edge">
<title>Node1&#45;&gt;Node2</title>
<g id="a_edge1_Node000001_Node000002"><a xlink:title=" ">
<path fill="none" stroke="#63b8ff" d="M140.01,-296.76C135.05,-287.76 130.13,-278.71 125.5,-270 122.75,-264.83 119.97,-259.54 117.18,-254.18"/>
<polygon fill="none" stroke="#63b8ff" points="137.07,-298.67 144.97,-305.72 143.19,-295.28 137.07,-298.67"/>
</a>
</g>
</g>
<!-- Node3 -->
<g id="Node000003" class="node">
<title>Node3</title>
<g id="a_Node000003"><a xlink:href="../../d4/d9f/classvanetza_1_1security_1_1BackendNull.html" target="_top" xlink:title="A backend doing nothing.">
<polygon fill="white" stroke="transparent" points="240,-210 135,-210 135,-60 240,-60 240,-210"/>
<text text-anchor="start" x="148" y="-198" font-family="Helvetica,sans-Serif" font-size="10.00">vanetza::security::</text>
<text text-anchor="start" x="160.5" y="-187" font-family="Helvetica,sans-Serif" font-size="10.00">BackendNull</text>
<text text-anchor="start" x="139.5" y="-172" font-family="Helvetica,sans-Serif" font-size="10.00">+</text>
<text text-anchor="start" x="150.5" y="-172" font-family="Helvetica,sans-Serif" font-size="10.00">backend_name</text>
<text text-anchor="start" x="139.5" y="-157" font-family="Helvetica,sans-Serif" font-size="10.00">+</text>
<text text-anchor="start" x="150.5" y="-157" font-family="Helvetica,sans-Serif" font-size="10.00">sign_data()</text>
<text text-anchor="start" x="139.5" y="-142" font-family="Helvetica,sans-Serif" font-size="10.00">+</text>
<text text-anchor="start" x="150.5" y="-142" font-family="Helvetica,sans-Serif" font-size="10.00">sign_digest()</text>
<text text-anchor="start" x="139.5" y="-127" font-family="Helvetica,sans-Serif" font-size="10.00">+</text>
<text text-anchor="start" x="150.5" y="-127" font-family="Helvetica,sans-Serif" font-size="10.00">verify_data()</text>
<text text-anchor="start" x="139.5" y="-112" font-family="Helvetica,sans-Serif" font-size="10.00">+</text>
<text text-anchor="start" x="150.5" y="-112" font-family="Helvetica,sans-Serif" font-size="10.00">verify_digest()</text>
<text text-anchor="start" x="139.5" y="-97" font-family="Helvetica,sans-Serif" font-size="10.00">+</text>
<text text-anchor="start" x="150.5" y="-97" font-family="Helvetica,sans-Serif" font-size="10.00">decompress_point()</text>
<text text-anchor="start" x="139.5" y="-82" font-family="Helvetica,sans-Serif" font-size="10.00">+</text>
<text text-anchor="start" x="150.5" y="-82" font-family="Helvetica,sans-Serif" font-size="10.00">calculate_hash()</text>
<text text-anchor="start" x="141" y="-67" font-family="Helvetica,sans-Serif" font-size="10.00">&#45;</text>
<text text-anchor="start" x="150.5" y="-67" font-family="Helvetica,sans-Serif" font-size="10.00">fake_signature()</text>
<polygon fill="#666666" stroke="#666666" points="135.5,-182 135.5,-182 240.5,-182 240.5,-182 135.5,-182"/>
<polygon fill="#666666" stroke="#666666" points="135.5,-167 135.5,-167 148.5,-167 148.5,-167 135.5,-167"/>
<polygon fill="#666666" stroke="#666666" points="148.5,-167 148.5,-167 240.5,-167 240.5,-167 148.5,-167"/>
<polygon fill="none" stroke="#666666" points="135,-60 135,-210 240,-210 240,-60 135,-60"/>
</a>
</g>
</g>
<!-- Node1&#45;&gt;Node3 -->
<g id="edge2_Node000001_Node000003" class="edge">
<title>Node1&#45;&gt;Node3</title>
<g id="a_edge2_Node000001_Node000003"><a xlink:title=" ">
<path fill="none" stroke="#63b8ff" d="M187.5,-295.71C187.5,-267.92 187.5,-237.25 187.5,-210.27"/>
<polygon fill="none" stroke="#63b8ff" points="184,-295.8 187.5,-305.8 191,-295.8 184,-295.8"/>
</a>
</g>
</g>
<!-- Node4 -->
<g id="Node000004" class="node">
<title>Node4</title>
<g id="a_Node000004"><a xlink:href="../../d1/dee/classvanetza_1_1security_1_1BackendOpenSsl.html" target="_top" xlink:title="Backend implementation based on OpenSSL.">
<polygon fill="white" stroke="transparent" points="391,-262.5 258,-262.5 258,-7.5 391,-7.5 391,-262.5"/>
<text text-anchor="start" x="285" y="-250" font-family="Helvetica,sans-Serif" font-size="10.00">vanetza::security::</text>
<text text-anchor="start" x="287" y="-239" font-family="Helvetica,sans-Serif" font-size="10.00">BackendOpenSsl</text>
<text text-anchor="start" x="262.5" y="-224" font-family="Helvetica,sans-Serif" font-size="10.00">+</text>
<text text-anchor="start" x="273.5" y="-224" font-family="Helvetica,sans-Serif" font-size="10.00">backend_name</text>
<text text-anchor="start" x="262.5" y="-209" font-family="Helvetica,sans-Serif" font-size="10.00">+</text>
<text text-anchor="start" x="273.5" y="-209" font-family="Helvetica,sans-Serif" font-size="10.00">BackendOpenSsl()</text>
<text text-anchor="start" x="262.5" y="-194" font-family="Helvetica,sans-Serif" font-size="10.00">+</text>
<text text-anchor="start" x="273.5" y="-194" font-family="Helvetica,sans-Serif" font-size="10.00">sign_data()</text>
<text text-anchor="start" x="262.5" y="-179" font-family="Helvetica,sans-Serif" font-size="10.00">+</text>
<text text-anchor="start" x="273.5" y="-179" font-family="Helvetica,sans-Serif" font-size="10.00">sign_digest()</text>
<text text-anchor="start" x="262.5" y="-164" font-family="Helvetica,sans-Serif" font-size="10.00">+</text>
<text text-anchor="start" x="273.5" y="-164" font-family="Helvetica,sans-Serif" font-size="10.00">verify_data()</text>
<text text-anchor="start" x="262.5" y="-149" font-family="Helvetica,sans-Serif" font-size="10.00">+</text>
<text text-anchor="start" x="273.5" y="-149" font-family="Helvetica,sans-Serif" font-size="10.00">verify_digest()</text>
<text text-anchor="start" x="262.5" y="-134" font-family="Helvetica,sans-Serif" font-size="10.00">+</text>
<text text-anchor="start" x="273.5" y="-134" font-family="Helvetica,sans-Serif" font-size="10.00">calculate_hash()</text>
<text text-anchor="start" x="262.5" y="-119" font-family="Helvetica,sans-Serif" font-size="10.00">+</text>
<text text-anchor="start" x="273.5" y="-119" font-family="Helvetica,sans-Serif" font-size="10.00">decompress_point()</text>
<text text-anchor="start" x="264" y="-104" font-family="Helvetica,sans-Serif" font-size="10.00">&#45;</text>
<text text-anchor="start" x="273.5" y="-104" font-family="Helvetica,sans-Serif" font-size="10.00">calculate_sha256_digest()</text>
<text text-anchor="start" x="264" y="-89" font-family="Helvetica,sans-Serif" font-size="10.00">&#45;</text>
<text text-anchor="start" x="273.5" y="-89" font-family="Helvetica,sans-Serif" font-size="10.00">calculate_sha384_digest()</text>
<text text-anchor="start" x="264" y="-74" font-family="Helvetica,sans-Serif" font-size="10.00">&#45;</text>
<text text-anchor="start" x="273.5" y="-74" font-family="Helvetica,sans-Serif" font-size="10.00">internal_private_key()</text>
<text text-anchor="start" x="264" y="-59" font-family="Helvetica,sans-Serif" font-size="10.00">&#45;</text>
<text text-anchor="start" x="273.5" y="-59" font-family="Helvetica,sans-Serif" font-size="10.00">internal_private_key()</text>
<text text-anchor="start" x="264" y="-44" font-family="Helvetica,sans-Serif" font-size="10.00">&#45;</text>
<text text-anchor="start" x="273.5" y="-44" font-family="Helvetica,sans-Serif" font-size="10.00">internal_public_key()</text>
<text text-anchor="start" x="264" y="-29" font-family="Helvetica,sans-Serif" font-size="10.00">&#45;</text>
<text text-anchor="start" x="273.5" y="-29" font-family="Helvetica,sans-Serif" font-size="10.00">internal_public_key()</text>
<text text-anchor="start" x="264" y="-14" font-family="Helvetica,sans-Serif" font-size="10.00">&#45;</text>
<text text-anchor="start" x="273.5" y="-14" font-family="Helvetica,sans-Serif" font-size="10.00">internal_ec_point()</text>
<polygon fill="#666666" stroke="#666666" points="258.5,-234 258.5,-234 391.5,-234 391.5,-234 258.5,-234"/>
<polygon fill="#666666" stroke="#666666" points="258.5,-219 258.5,-219 271.5,-219 271.5,-219 258.5,-219"/>
<polygon fill="#666666" stroke="#666666" points="271.5,-219 271.5,-219 391.5,-219 391.5,-219 271.5,-219"/>
<polygon fill="none" stroke="#666666" points="258,-7.5 258,-262.5 391,-262.5 391,-7.5 258,-7.5"/>
</a>
</g>
</g>
<!-- Node1&#45;&gt;Node4 -->
<g id="edge3_Node000001_Node000004" class="edge">
<title>Node1&#45;&gt;Node4</title>
<g id="a_edge3_Node000001_Node000004"><a xlink:title=" ">
<path fill="none" stroke="#63b8ff" d="M234.3,-297.04C239.43,-287.92 244.58,-278.76 249.5,-270 252.24,-265.12 255.04,-260.14 257.86,-255.1"/>
<polygon fill="none" stroke="#63b8ff" points="231.24,-295.33 229.39,-305.76 237.34,-298.76 231.24,-295.33"/>
</a>
</g>
</g>
</g>
</svg>

<g id="navigator" transform="translate(0 0)" fill="#404254">
  <rect fill="#f2f5e9" fill-opacity="0.5" stroke="#606060" stroke-width=".5" x="0" y="0" width="60" height="60"/>
  <use id="zoomplus" xlink:href="#zoomPlus" x="17" y="9" onmousedown="handleZoom(evt,'in')"/>
  <use id="zoomminus" xlink:href="#zoomMin" x="42" y="9" onmousedown="handleZoom(evt,'out')"/>
  <use id="reset" xlink:href="#resetDef" x="30" y="36" onmousedown="handleReset()"/>
   <use id="arrowup" xlink:href="#arrowUp" x="0" y="0" onmousedown="handlePan(0,-1)"/>
  <use id="arrowright" xlink:href="#arrowRight" x="0" y="0" onmousedown="handlePan(1,0)"/>
  <use id="arrowdown" xlink:href="#arrowDown" x="0" y="0" onmousedown="handlePan(0,1)"/>
  <use id="arrowleft" xlink:href="#arrowLeft" x="0" y="0" onmousedown="handlePan(-1,0)"/>
</g>
<svg viewBox="0 0 15 15" width="100%" height="30px" preserveAspectRatio="xMaxYMin meet">
 <g id="arrow_out" transform="scale(0.3 0.3)">
  <a xlink:href="classvanetza_1_1security_1_1Backend__inherit__graph_org.svg" target="_base">
   <rect id="button" ry="5" rx="5" y="6" x="6" height="38" width="38"
        fill="#f2f5e9" fill-opacity="0.5" stroke="#606060" stroke-width="1.0"/>
   <path id="arrow"
     d="M 11.500037,31.436501 C 11.940474,20.09759 22.043105,11.32322 32.158766,21.979434 L 37.068811,17.246167 C 37.068811,17.246167 37.088388,32 37.088388,32 L 22.160133,31.978069 C 22.160133,31.978069 26.997745,27.140456 26.997745,27.140456 C 18.528582,18.264221 13.291696,25.230495 11.500037,31.436501 z"
     style="fill:#404040;"/>
  </a>
 </g>
</svg>

<style type='text/css'>
<![CDATA[
[data-mouse-over-selected='false'] { opacity: 0.7; }
[data-mouse-over-selected='true']  { opacity: 1.0; }
]]>
</style>
<script type="application/ecmascript"><![CDATA[
document.addEventListener('DOMContentLoaded', (event) => {
  highlightEdges();
  highlightAdjacentNodes();
});
]]></script>
</svg>
