<?xml version="1.0" encoding="UTF-8" standalone="no"?>
<!DOCTYPE svg PUBLIC "-//W3C//DTD SVG 1.1//EN"
 "http://www.w3.org/Graphics/SVG/1.1/DTD/svg11.dtd">
<!-- Generated by graphviz version 2.49.3 (0)
 -->
<!-- Title: vanetza::security::Backend Pages: 1 -->
<svg width="399pt" height="464pt"
 viewBox="0.00 0.00 399.00 464.00" xmlns="http://www.w3.org/2000/svg" xmlns:xlink="http://www.w3.org/1999/xlink">
<g id="graph0" class="graph" transform="scale(1 1) rotate(0) translate(4 460)">
<title>vanetza::security::Backend</title>
<!-- Node1 -->
<g id="Node000001" class="node">
<title>Node1</title>
<g id="a_Node000001"><a xlink:title=" ">
<polygon fill="#999999" stroke="transparent" points="240,-456 135,-456 135,-306 240,-306 240,-456"/>
<text text-anchor="start" x="148" y="-444" font-family="Helvetica,sans-Serif" font-size="10.00">vanetza::security::</text>
<text text-anchor="start" x="169" y="-433" font-family="Helvetica,sans-Serif" font-size="10.00">Backend</text>
<text text-anchor="start" x="186" y="-418" font-family="Helvetica,sans-Serif" font-size="10.00"> </text>
<text text-anchor="start" x="139.5" y="-403" font-family="Helvetica,sans-Serif" font-size="10.00">+</text>
<text text-anchor="start" x="150.5" y="-403" font-family="Helvetica,sans-Serif" font-size="10.00">sign_data()</text>
<text text-anchor="start" x="139.5" y="-388" font-family="Helvetica,sans-Serif" font-size="10.00">+</text>
<text text-anchor="start" x="150.5" y="-388" font-family="Helvetica,sans-Serif" font-size="10.00">sign_digest()</text>
<text text-anchor="start" x="139.5" y="-373" font-family="Helvetica,sans-Serif" font-size="10.00">+</text>
<text text-anchor="start" x="150.5" y="-373" font-family="Helvetica,sans-Serif" font-size="10.00">verify_data()</text>
<text text-anchor="start" x="139.5" y="-358" font-family="Helvetica,sans-Serif" font-size="10.00">+</text>
<text text-anchor="start" x="150.5" y="-358" font-family="Helvetica,sans-Serif" font-size="10.00">verify_digest()</text>
<text text-anchor="start" x="139.5" y="-343" font-family="Helvetica,sans-Serif" font-size="10.00">+</text>
<text text-anchor="start" x="150.5" y="-343" font-family="Helvetica,sans-Serif" font-size="10.00">decompress_point()</text>
<text text-anchor="start" x="139.5" y="-328" font-family="Helvetica,sans-Serif" font-size="10.00">+</text>
<text text-anchor="start" x="150.5" y="-328" font-family="Helvetica,sans-Serif" font-size="10.00">calculate_hash()</text>
<text text-anchor="start" x="139.5" y="-313" font-family="Helvetica,sans-Serif" font-size="10.00">+</text>
<text text-anchor="start" x="150.5" y="-313" font-family="Helvetica,sans-Serif" font-size="10.00">~Backend()</text>
<polygon fill="#666666" stroke="#666666" points="135.5,-428 135.5,-428 240.5,-428 240.5,-428 135.5,-428"/>
<polygon fill="#666666" stroke="#666666" points="135.5,-413 135.5,-413 240.5,-413 240.5,-413 135.5,-413"/>
<polygon fill="none" stroke="#666666" points="135,-306 135,-456 240,-456 240,-306 135,-306"/>
</a>
</g>
</g>
<!-- Node2 -->
<g id="Node000002" class="node">
<title>Node2</title>
<g id="a_Node000002"><a xlink:href="../../d1/ded/classvanetza_1_1security_1_1BackendCryptoPP.html" target="_top" xlink:title=" ">
<polygon fill="white" stroke="transparent" points="117,-270 0,-270 0,0 117,0 117,-270"/>
<text text-anchor="start" x="18" y="-258" font-family="Helvetica,sans-Serif" font-size="10.00">vanetza::security::</text>
<text text-anchor="start" x="18" y="-247" font-family="Helvetica,sans-Serif" font-size="10.00">BackendCryptoPP</text>
<text text-anchor="start" x="4.5" y="-232" font-family="Helvetica,sans-Serif" font-size="10.00">+</text>
<text text-anchor="start" x="15.5" y="-232" font-family="Helvetica,sans-Serif" font-size="10.00">backend_name</text>
<text text-anchor="start" x="6" y="-217" font-family="Helvetica,sans-Serif" font-size="10.00">&#45;</text>
<text text-anchor="start" x="15.5" y="-217" font-family="Helvetica,sans-Serif" font-size="10.00">m_prng</text>
<text text-anchor="start" x="4.5" y="-202" font-family="Helvetica,sans-Serif" font-size="10.00">+</text>
<text text-anchor="start" x="15.5" y="-202" font-family="Helvetica,sans-Serif" font-size="10.00">BackendCryptoPP()</text>
<text text-anchor="start" x="4.5" y="-187" font-family="Helvetica,sans-Serif" font-size="10.00">+</text>
<text text-anchor="start" x="15.5" y="-187" font-family="Helvetica,sans-Serif" font-size="10.00">sign_data()</text>
<text text-anchor="start" x="4.5" y="-172" font-family="Helvetica,sans-Serif" font-size="10.00">+</text>
<text text-anchor="start" x="15.5" y="-172" font-family="Helvetica,sans-Serif" font-size="10.00">sign_digest()</text>
<text text-anchor="start" x="4.5" y="-157" font-family="Helvetica,sans-Serif" font-size="10.00">+</text>
<text text-anchor="start" x="15.5" y="-157" font-family="Helvetica,sans-Serif" font-size="10.00">verify_data()</text>
<text text-anchor="start" x="4.5" y="-142" font-family="Helvetica,sans-Serif" font-size="10.00">+</text>
<text text-anchor="start" x="15.5" y="-142" font-family="Helvetica,sans-Serif" font-size="10.00">verify_digest()</text>
<text text-anchor="start" x="4.5" y="-127" font-family="Helvetica,sans-Serif" font-size="10.00">+</text>
<text text-anchor="start" x="15.5" y="-127" font-family="Helvetica,sans-Serif" font-size="10.00">decompress_point()</text>
<text text-anchor="start" x="4.5" y="-112" font-family="Helvetica,sans-Serif" font-size="10.00">+</text>
<text text-anchor="start" x="15.5" y="-112" font-family="Helvetica,sans-Serif" font-size="10.00">calculate_hash()</text>
<text text-anchor="start" x="4.5" y="-97" font-family="Helvetica,sans-Serif" font-size="10.00">+</text>
<text text-anchor="start" x="15.5" y="-97" font-family="Helvetica,sans-Serif" font-size="10.00">generate_key_pair()</text>
<text text-anchor="start" x="6" y="-82" font-family="Helvetica,sans-Serif" font-size="10.00">&#45;</text>
<text text-anchor="start" x="15.5" y="-82" font-family="Helvetica,sans-Serif" font-size="10.00">sign_data()</text>
<text text-anchor="start" x="6" y="-67" font-family="Helvetica,sans-Serif" font-size="10.00">&#45;</text>
<text text-anchor="start" x="15.5" y="-67" font-family="Helvetica,sans-Serif" font-size="10.00">verify_data()</text>
<text text-anchor="start" x="6" y="-52" font-family="Helvetica,sans-Serif" font-size="10.00">&#45;</text>
<text text-anchor="start" x="15.5" y="-52" font-family="Helvetica,sans-Serif" font-size="10.00">generate_private_key()</text>
<text text-anchor="start" x="6" y="-37" font-family="Helvetica,sans-Serif" font-size="10.00">&#45;</text>
<text text-anchor="start" x="15.5" y="-37" font-family="Helvetica,sans-Serif" font-size="10.00">generate_public_key()</text>
<text text-anchor="start" x="6" y="-22" font-family="Helvetica,sans-Serif" font-size="10.00">&#45;</text>
<text text-anchor="start" x="15.5" y="-22" font-family="Helvetica,sans-Serif" font-size="10.00">internal_public_key()</text>
<text text-anchor="start" x="6" y="-7" font-family="Helvetica,sans-Serif" font-size="10.00">&#45;</text>
<text text-anchor="start" x="15.5" y="-7" font-family="Helvetica,sans-Serif" font-size="10.00">internal_private_key()</text>
<polygon fill="#bfbfbf" stroke="#bfbfbf" points="0.5,-242 0.5,-242 117.5,-242 117.5,-242 0.5,-242"/>
<polygon fill="#bfbfbf" stroke="#bfbfbf" points="0.5,-212 0.5,-212 13.5,-212 13.5,-212 0.5,-212"/>
<polygon fill="#bfbfbf" stroke="#bfbfbf" points="13.5,-212 13.5,-212 117.5,-212 117.5,-212 13.5,-212"/>
<polygon fill="none" stroke="#bfbfbf" points="0,0 0,-270 117,-270 117,0 0,0"/>
</a>
</g>
</g>
<!-- Node1&#45;&gt;Node2 -->
<g id="edge1_Node000001_Node000002" class="edge">
<title>Node1&#45;&gt;Node2</title>
<g id="a_edge1_Node000001_Node000002"><a xlink:title=" ">
<path fill="none" stroke="#63b8ff" d="M140.01,-296.76C135.05,-287.76 130.13,-278.71 125.5,-270 122.75,-264.83 119.97,-259.54 117.18,-254.18"/>
<polygon fill="none" stroke="#63b8ff" points="137.07,-298.67 144.97,-305.72 143.19,-295.28 137.07,-298.67"/>
</a>
</g>
</g>
<!-- Node3 -->
<g id="Node000003" class="node">
<title>Node3</title>
<g id="a_Node000003"><a xlink:href="../../d4/d9f/classvanetza_1_1security_1_1BackendNull.html" target="_top" xlink:title="A backend doing nothing.">
<polygon fill="white" stroke="transparent" points="240,-210 135,-210 135,-60 240,-60 240,-210"/>
<text text-anchor="start" x="148" y="-198" font-family="Helvetica,sans-Serif" font-size="10.00">vanetza::security::</text>
<text text-anchor="start" x="160.5" y="-187" font-family="Helvetica,sans-Serif" font-size="10.00">BackendNull</text>
<text text-anchor="start" x="139.5" y="-172" font-family="Helvetica,sans-Serif" font-size="10.00">+</text>
<text text-anchor="start" x="150.5" y="-172" font-family="Helvetica,sans-Serif" font-size="10.00">backend_name</text>
<text text-anchor="start" x="139.5" y="-157" font-family="Helvetica,sans-Serif" font-size="10.00">+</text>
<text text-anchor="start" x="150.5" y="-157" font-family="Helvetica,sans-Serif" font-size="10.00">sign_data()</text>
<text text-anchor="start" x="139.5" y="-142" font-family="Helvetica,sans-Serif" font-size="10.00">+</text>
<text text-anchor="start" x="150.5" y="-142" font-family="Helvetica,sans-Serif" font-size="10.00">sign_digest()</text>
<text text-anchor="start" x="139.5" y="-127" font-family="Helvetica,sans-Serif" font-size="10.00">+</text>
<text text-anchor="start" x="150.5" y="-127" font-family="Helvetica,sans-Serif" font-size="10.00">verify_data()</text>
<text text-anchor="start" x="139.5" y="-112" font-family="Helvetica,sans-Serif" font-size="10.00">+</text>
<text text-anchor="start" x="150.5" y="-112" font-family="Helvetica,sans-Serif" font-size="10.00">verify_digest()</text>
<text text-anchor="start" x="139.5" y="-97" font-family="Helvetica,sans-Serif" font-size="10.00">+</text>
<text text-anchor="start" x="150.5" y="-97" font-family="Helvetica,sans-Serif" font-size="10.00">decompress_point()</text>
<text text-anchor="start" x="139.5" y="-82" font-family="Helvetica,sans-Serif" font-size="10.00">+</text>
<text text-anchor="start" x="150.5" y="-82" font-family="Helvetica,sans-Serif" font-size="10.00">calculate_hash()</text>
<text text-anchor="start" x="141" y="-67" font-family="Helvetica,sans-Serif" font-size="10.00">&#45;</text>
<text text-anchor="start" x="150.5" y="-67" font-family="Helvetica,sans-Serif" font-size="10.00">fake_signature()</text>
<polygon fill="#666666" stroke="#666666" points="135.5,-182 135.5,-182 240.5,-182 240.5,-182 135.5,-182"/>
<polygon fill="#666666" stroke="#666666" points="135.5,-167 135.5,-167 148.5,-167 148.5,-167 135.5,-167"/>
<polygon fill="#666666" stroke="#666666" points="148.5,-167 148.5,-167 240.5,-167 240.5,-167 148.5,-167"/>
<polygon fill="none" stroke="#666666" points="135,-60 135,-210 240,-210 240,-60 135,-60"/>
</a>
</g>
</g>
<!-- Node1&#45;&gt;Node3 -->
<g id="edge2_Node000001_Node000003" class="edge">
<title>Node1&#45;&gt;Node3</title>
<g id="a_edge2_Node000001_Node000003"><a xlink:title=" ">
<path fill="none" stroke="#63b8ff" d="M187.5,-295.71C187.5,-267.92 187.5,-237.25 187.5,-210.27"/>
<polygon fill="none" stroke="#63b8ff" points="184,-295.8 187.5,-305.8 191,-295.8 184,-295.8"/>
</a>
</g>
</g>
<!-- Node4 -->
<g id="Node000004" class="node">
<title>Node4</title>
<g id="a_Node000004"><a xlink:href="../../d1/dee/classvanetza_1_1security_1_1BackendOpenSsl.html" target="_top" xlink:title="Backend implementation based on OpenSSL.">
<polygon fill="white" stroke="transparent" points="391,-262.5 258,-262.5 258,-7.5 391,-7.5 391,-262.5"/>
<text text-anchor="start" x="285" y="-250" font-family="Helvetica,sans-Serif" font-size="10.00">vanetza::security::</text>
<text text-anchor="start" x="287" y="-239" font-family="Helvetica,sans-Serif" font-size="10.00">BackendOpenSsl</text>
<text text-anchor="start" x="262.5" y="-224" font-family="Helvetica,sans-Serif" font-size="10.00">+</text>
<text text-anchor="start" x="273.5" y="-224" font-family="Helvetica,sans-Serif" font-size="10.00">backend_name</text>
<text text-anchor="start" x="262.5" y="-209" font-family="Helvetica,sans-Serif" font-size="10.00">+</text>
<text text-anchor="start" x="273.5" y="-209" font-family="Helvetica,sans-Serif" font-size="10.00">BackendOpenSsl()</text>
<text text-anchor="start" x="262.5" y="-194" font-family="Helvetica,sans-Serif" font-size="10.00">+</text>
<text text-anchor="start" x="273.5" y="-194" font-family="Helvetica,sans-Serif" font-size="10.00">sign_data()</text>
<text text-anchor="start" x="262.5" y="-179" font-family="Helvetica,sans-Serif" font-size="10.00">+</text>
<text text-anchor="start" x="273.5" y="-179" font-family="Helvetica,sans-Serif" font-size="10.00">sign_digest()</text>
<text text-anchor="start" x="262.5" y="-164" font-family="Helvetica,sans-Serif" font-size="10.00">+</text>
<text text-anchor="start" x="273.5" y="-164" font-family="Helvetica,sans-Serif" font-size="10.00">verify_data()</text>
<text text-anchor="start" x="262.5" y="-149" font-family="Helvetica,sans-Serif" font-size="10.00">+</text>
<text text-anchor="start" x="273.5" y="-149" font-family="Helvetica,sans-Serif" font-size="10.00">verify_digest()</text>
<text text-anchor="start" x="262.5" y="-134" font-family="Helvetica,sans-Serif" font-size="10.00">+</text>
<text text-anchor="start" x="273.5" y="-134" font-family="Helvetica,sans-Serif" font-size="10.00">calculate_hash()</text>
<text text-anchor="start" x="262.5" y="-119" font-family="Helvetica,sans-Serif" font-size="10.00">+</text>
<text text-anchor="start" x="273.5" y="-119" font-family="Helvetica,sans-Serif" font-size="10.00">decompress_point()</text>
<text text-anchor="start" x="264" y="-104" font-family="Helvetica,sans-Serif" font-size="10.00">&#45;</text>
<text text-anchor="start" x="273.5" y="-104" font-family="Helvetica,sans-Serif" font-size="10.00">calculate_sha256_digest()</text>
<text text-anchor="start" x="264" y="-89" font-family="Helvetica,sans-Serif" font-size="10.00">&#45;</text>
<text text-anchor="start" x="273.5" y="-89" font-family="Helvetica,sans-Serif" font-size="10.00">calculate_sha384_digest()</text>
<text text-anchor="start" x="264" y="-74" font-family="Helvetica,sans-Serif" font-size="10.00">&#45;</text>
<text text-anchor="start" x="273.5" y="-74" font-family="Helvetica,sans-Serif" font-size="10.00">internal_private_key()</text>
<text text-anchor="start" x="264" y="-59" font-family="Helvetica,sans-Serif" font-size="10.00">&#45;</text>
<text text-anchor="start" x="273.5" y="-59" font-family="Helvetica,sans-Serif" font-size="10.00">internal_private_key()</text>
<text text-anchor="start" x="264" y="-44" font-family="Helvetica,sans-Serif" font-size="10.00">&#45;</text>
<text text-anchor="start" x="273.5" y="-44" font-family="Helvetica,sans-Serif" font-size="10.00">internal_public_key()</text>
<text text-anchor="start" x="264" y="-29" font-family="Helvetica,sans-Serif" font-size="10.00">&#45;</text>
<text text-anchor="start" x="273.5" y="-29" font-family="Helvetica,sans-Serif" font-size="10.00">internal_public_key()</text>
<text text-anchor="start" x="264" y="-14" font-family="Helvetica,sans-Serif" font-size="10.00">&#45;</text>
<text text-anchor="start" x="273.5" y="-14" font-family="Helvetica,sans-Serif" font-size="10.00">internal_ec_point()</text>
<polygon fill="#666666" stroke="#666666" points="258.5,-234 258.5,-234 391.5,-234 391.5,-234 258.5,-234"/>
<polygon fill="#666666" stroke="#666666" points="258.5,-219 258.5,-219 271.5,-219 271.5,-219 258.5,-219"/>
<polygon fill="#666666" stroke="#666666" points="271.5,-219 271.5,-219 391.5,-219 391.5,-219 271.5,-219"/>
<polygon fill="none" stroke="#666666" points="258,-7.5 258,-262.5 391,-262.5 391,-7.5 258,-7.5"/>
</a>
</g>
</g>
<!-- Node1&#45;&gt;Node4 -->
<g id="edge3_Node000001_Node000004" class="edge">
<title>Node1&#45;&gt;Node4</title>
<g id="a_edge3_Node000001_Node000004"><a xlink:title=" ">
<path fill="none" stroke="#63b8ff" d="M234.3,-297.04C239.43,-287.92 244.58,-278.76 249.5,-270 252.24,-265.12 255.04,-260.14 257.86,-255.1"/>
<polygon fill="none" stroke="#63b8ff" points="231.24,-295.33 229.39,-305.76 237.34,-298.76 231.24,-295.33"/>
</a>
</g>
</g>
</g>
</svg>
