<?xml version="1.0" encoding="UTF-8" standalone="no"?>
<!DOCTYPE svg PUBLIC "-//W3C//DTD SVG 1.1//EN"
 "http://www.w3.org/Graphics/SVG/1.1/DTD/svg11.dtd">
<!-- Generated by graphviz version 2.42.1 (0)
 -->
<!-- Title: vanetza::security::Backend Pages: 1 -->
<svg width="394pt" height="358pt"
 viewBox="0.00 0.00 394.00 358.00" xmlns="http://www.w3.org/2000/svg" xmlns:xlink="http://www.w3.org/1999/xlink">
<g id="graph0" class="graph" transform="scale(1 1) rotate(0) translate(4 354)">
<title>vanetza::security::Backend</title>
<polygon fill="white" stroke="transparent" points="-4,4 -4,-354 390,-354 390,4 -4,4"/>
<!-- Node0 -->
<g id="node1" class="node">
<title>Node0</title>
<g id="a_node1"><a xlink:title=" ">
<polygon fill="#bfbfbf" stroke="black" points="140.5,-248.5 140.5,-349.5 251.5,-349.5 251.5,-248.5 140.5,-248.5"/>
<text text-anchor="start" x="148.5" y="-337.5" font-family="Helvetica,sans-Serif" font-size="10.00">vanetza::security::</text>
<text text-anchor="middle" x="196" y="-326.5" font-family="Helvetica,sans-Serif" font-size="10.00">Backend</text>
<polyline fill="none" stroke="black" points="140.5,-319.5 251.5,-319.5 "/>
<text text-anchor="middle" x="196" y="-307.5" font-family="Helvetica,sans-Serif" font-size="10.00"> </text>
<polyline fill="none" stroke="black" points="140.5,-300.5 251.5,-300.5 "/>
<text text-anchor="start" x="148.5" y="-288.5" font-family="Helvetica,sans-Serif" font-size="10.00">+ sign_data()</text>
<text text-anchor="start" x="148.5" y="-277.5" font-family="Helvetica,sans-Serif" font-size="10.00">+ verify_data()</text>
<text text-anchor="start" x="148.5" y="-266.5" font-family="Helvetica,sans-Serif" font-size="10.00">+ decompress_point()</text>
<text text-anchor="start" x="148.5" y="-255.5" font-family="Helvetica,sans-Serif" font-size="10.00">+ ~Backend()</text>
</a>
</g>
</g>
<!-- Node1 -->
<g id="node2" class="node">
<title>Node1</title>
<g id="a_node2"><a xlink:href="../../d1/ded/classvanetza_1_1security_1_1BackendCryptoPP.html" target="_top" xlink:title=" ">
<polygon fill="white" stroke="black" points="0,-0.5 0,-211.5 122,-211.5 122,-0.5 0,-0.5"/>
<text text-anchor="start" x="8" y="-199.5" font-family="Helvetica,sans-Serif" font-size="10.00">vanetza::security::</text>
<text text-anchor="middle" x="61" y="-188.5" font-family="Helvetica,sans-Serif" font-size="10.00">BackendCryptoPP</text>
<polyline fill="none" stroke="black" points="0,-181.5 122,-181.5 "/>
<text text-anchor="start" x="8" y="-169.5" font-family="Helvetica,sans-Serif" font-size="10.00">+ backend_name</text>
<text text-anchor="start" x="8" y="-158.5" font-family="Helvetica,sans-Serif" font-size="10.00">&#45; m_prng</text>
<text text-anchor="start" x="8" y="-147.5" font-family="Helvetica,sans-Serif" font-size="10.00">&#45; m_private_cache</text>
<text text-anchor="start" x="8" y="-136.5" font-family="Helvetica,sans-Serif" font-size="10.00">&#45; m_public_cache</text>
<polyline fill="none" stroke="black" points="0,-129.5 122,-129.5 "/>
<text text-anchor="start" x="8" y="-117.5" font-family="Helvetica,sans-Serif" font-size="10.00">+ BackendCryptoPP()</text>
<text text-anchor="start" x="8" y="-106.5" font-family="Helvetica,sans-Serif" font-size="10.00">+ sign_data()</text>
<text text-anchor="start" x="8" y="-95.5" font-family="Helvetica,sans-Serif" font-size="10.00">+ verify_data()</text>
<text text-anchor="start" x="8" y="-84.5" font-family="Helvetica,sans-Serif" font-size="10.00">+ decompress_point()</text>
<text text-anchor="start" x="8" y="-73.5" font-family="Helvetica,sans-Serif" font-size="10.00">+ generate_key_pair()</text>
<text text-anchor="start" x="8" y="-62.5" font-family="Helvetica,sans-Serif" font-size="10.00">&#45; sign_data()</text>
<text text-anchor="start" x="8" y="-51.5" font-family="Helvetica,sans-Serif" font-size="10.00">&#45; verify_data()</text>
<text text-anchor="start" x="8" y="-40.5" font-family="Helvetica,sans-Serif" font-size="10.00">&#45; generate_private_key()</text>
<text text-anchor="start" x="8" y="-29.5" font-family="Helvetica,sans-Serif" font-size="10.00">&#45; generate_public_key()</text>
<text text-anchor="start" x="8" y="-18.5" font-family="Helvetica,sans-Serif" font-size="10.00">&#45; internal_public_key()</text>
<text text-anchor="start" x="8" y="-7.5" font-family="Helvetica,sans-Serif" font-size="10.00">&#45; internal_private_key()</text>
</a>
</g>
</g>
<!-- Node0&#45;&gt;Node1 -->
<g id="edge1" class="edge">
<title>Node0&#45;&gt;Node1</title>
<path fill="none" stroke="midnightblue" d="M152.38,-240.13C145.49,-230.77 138.5,-221.16 132,-212 128.75,-207.42 125.45,-202.72 122.13,-197.95"/>
<polygon fill="none" stroke="midnightblue" points="149.63,-242.3 158.39,-248.26 155.26,-238.14 149.63,-242.3"/>
</g>
<!-- Node2 -->
<g id="node3" class="node">
<title>Node2</title>
<g id="a_node3"><a xlink:href="../../d4/d9f/classvanetza_1_1security_1_1BackendNull.html" target="_top" xlink:title="A backend doing nothing.">
<polygon fill="white" stroke="black" points="140.5,-55.5 140.5,-156.5 251.5,-156.5 251.5,-55.5 140.5,-55.5"/>
<text text-anchor="start" x="148.5" y="-144.5" font-family="Helvetica,sans-Serif" font-size="10.00">vanetza::security::</text>
<text text-anchor="middle" x="196" y="-133.5" font-family="Helvetica,sans-Serif" font-size="10.00">BackendNull</text>
<polyline fill="none" stroke="black" points="140.5,-126.5 251.5,-126.5 "/>
<text text-anchor="start" x="148.5" y="-114.5" font-family="Helvetica,sans-Serif" font-size="10.00">+ backend_name</text>
<polyline fill="none" stroke="black" points="140.5,-107.5 251.5,-107.5 "/>
<text text-anchor="start" x="148.5" y="-95.5" font-family="Helvetica,sans-Serif" font-size="10.00">+ sign_data()</text>
<text text-anchor="start" x="148.5" y="-84.5" font-family="Helvetica,sans-Serif" font-size="10.00">+ verify_data()</text>
<text text-anchor="start" x="148.5" y="-73.5" font-family="Helvetica,sans-Serif" font-size="10.00">+ decompress_point()</text>
<text text-anchor="start" x="148.5" y="-62.5" font-family="Helvetica,sans-Serif" font-size="10.00">&#45; fake_signature()</text>
</a>
</g>
</g>
<!-- Node0&#45;&gt;Node2 -->
<g id="edge2" class="edge">
<title>Node0&#45;&gt;Node2</title>
<path fill="none" stroke="midnightblue" d="M196,-238.14C196,-211.98 196,-181.66 196,-156.77"/>
<polygon fill="none" stroke="midnightblue" points="192.5,-238.32 196,-248.32 199.5,-238.32 192.5,-238.32"/>
</g>
<!-- Node3 -->
<g id="node4" class="node">
<title>Node3</title>
<g id="a_node4"><a xlink:href="../../d1/dee/classvanetza_1_1security_1_1BackendOpenSsl.html" target="_top" xlink:title="Backend implementation based on OpenSSL.">
<polygon fill="white" stroke="black" points="270,-39 270,-173 386,-173 386,-39 270,-39"/>
<text text-anchor="start" x="278" y="-161" font-family="Helvetica,sans-Serif" font-size="10.00">vanetza::security::</text>
<text text-anchor="middle" x="328" y="-150" font-family="Helvetica,sans-Serif" font-size="10.00">BackendOpenSsl</text>
<polyline fill="none" stroke="black" points="270,-143 386,-143 "/>
<text text-anchor="start" x="278" y="-131" font-family="Helvetica,sans-Serif" font-size="10.00">+ backend_name</text>
<polyline fill="none" stroke="black" points="270,-124 386,-124 "/>
<text text-anchor="start" x="278" y="-112" font-family="Helvetica,sans-Serif" font-size="10.00">+ BackendOpenSsl()</text>
<text text-anchor="start" x="278" y="-101" font-family="Helvetica,sans-Serif" font-size="10.00">+ sign_data()</text>
<text text-anchor="start" x="278" y="-90" font-family="Helvetica,sans-Serif" font-size="10.00">+ verify_data()</text>
<text text-anchor="start" x="278" y="-79" font-family="Helvetica,sans-Serif" font-size="10.00">+ decompress_point()</text>
<text text-anchor="start" x="278" y="-68" font-family="Helvetica,sans-Serif" font-size="10.00">&#45; calculate_digest()</text>
<text text-anchor="start" x="278" y="-57" font-family="Helvetica,sans-Serif" font-size="10.00">&#45; internal_private_key()</text>
<text text-anchor="start" x="278" y="-46" font-family="Helvetica,sans-Serif" font-size="10.00">&#45; internal_public_key()</text>
</a>
</g>
</g>
<!-- Node0&#45;&gt;Node3 -->
<g id="edge3" class="edge">
<title>Node0&#45;&gt;Node3</title>
<path fill="none" stroke="midnightblue" d="M240.58,-240.32C247.54,-230.95 254.55,-221.27 261,-212 269.64,-199.57 278.57,-186.09 286.97,-173.06"/>
<polygon fill="none" stroke="midnightblue" points="237.67,-238.36 234.49,-248.47 243.28,-242.55 237.67,-238.36"/>
</g>
</g>
</svg>
