<?xml version="1.0" encoding="UTF-8" standalone="no"?>
<!DOCTYPE svg PUBLIC "-//W3C//DTD SVG 1.1//EN"
 "http://www.w3.org/Graphics/SVG/1.1/DTD/svg11.dtd">
<!-- Generated by graphviz version 2.42.3 (0)
 -->
<!-- Title: vanetza::security::Backend Pages: 1 -->
<svg width="390pt" height="358pt"
 viewBox="0.00 0.00 390.00 358.00" xmlns="http://www.w3.org/2000/svg" xmlns:xlink="http://www.w3.org/1999/xlink">
<g id="graph0" class="graph" transform="scale(1 1) rotate(0) translate(4 354)">
<title>vanetza::security::Backend</title>
<polygon fill="white" stroke="transparent" points="-4,4 -4,-354 386,-354 386,4 -4,4"/>
<!-- Node1 -->
<g id="node1" class="node">
<title>Node1</title>
<g id="a_node1"><a xlink:title=" ">
<polygon fill="#bfbfbf" stroke="black" points="138.5,-248.5 138.5,-349.5 249.5,-349.5 249.5,-248.5 138.5,-248.5"/>
<text text-anchor="start" x="146.5" y="-337.5" font-family="Helvetica,sans-Serif" font-size="10.00">vanetza::security::</text>
<text text-anchor="middle" x="194" y="-326.5" font-family="Helvetica,sans-Serif" font-size="10.00">Backend</text>
<polyline fill="none" stroke="black" points="138.5,-319.5 249.5,-319.5 "/>
<text text-anchor="middle" x="194" y="-307.5" font-family="Helvetica,sans-Serif" font-size="10.00"> </text>
<polyline fill="none" stroke="black" points="138.5,-300.5 249.5,-300.5 "/>
<text text-anchor="start" x="146.5" y="-288.5" font-family="Helvetica,sans-Serif" font-size="10.00">+ sign_data()</text>
<text text-anchor="start" x="146.5" y="-277.5" font-family="Helvetica,sans-Serif" font-size="10.00">+ verify_data()</text>
<text text-anchor="start" x="146.5" y="-266.5" font-family="Helvetica,sans-Serif" font-size="10.00">+ decompress_point()</text>
<text text-anchor="start" x="146.5" y="-255.5" font-family="Helvetica,sans-Serif" font-size="10.00">+ ~Backend()</text>
</a>
</g>
</g>
<!-- Node2 -->
<g id="node2" class="node">
<title>Node2</title>
<g id="a_node2"><a xlink:href="../../d1/ded/classvanetza_1_1security_1_1BackendCryptoPP.html" target="_top" xlink:title=" ">
<polygon fill="white" stroke="black" points="0,-0.5 0,-211.5 120,-211.5 120,-0.5 0,-0.5"/>
<text text-anchor="start" x="8" y="-199.5" font-family="Helvetica,sans-Serif" font-size="10.00">vanetza::security::</text>
<text text-anchor="middle" x="60" y="-188.5" font-family="Helvetica,sans-Serif" font-size="10.00">BackendCryptoPP</text>
<polyline fill="none" stroke="black" points="0,-181.5 120,-181.5 "/>
<text text-anchor="start" x="8" y="-169.5" font-family="Helvetica,sans-Serif" font-size="10.00">+ backend_name</text>
<text text-anchor="start" x="8" y="-158.5" font-family="Helvetica,sans-Serif" font-size="10.00">&#45; m_prng</text>
<text text-anchor="start" x="8" y="-147.5" font-family="Helvetica,sans-Serif" font-size="10.00">&#45; m_private_cache</text>
<text text-anchor="start" x="8" y="-136.5" font-family="Helvetica,sans-Serif" font-size="10.00">&#45; m_public_cache</text>
<polyline fill="none" stroke="black" points="0,-129.5 120,-129.5 "/>
<text text-anchor="start" x="8" y="-117.5" font-family="Helvetica,sans-Serif" font-size="10.00">+ BackendCryptoPP()</text>
<text text-anchor="start" x="8" y="-106.5" font-family="Helvetica,sans-Serif" font-size="10.00">+ sign_data()</text>
<text text-anchor="start" x="8" y="-95.5" font-family="Helvetica,sans-Serif" font-size="10.00">+ verify_data()</text>
<text text-anchor="start" x="8" y="-84.5" font-family="Helvetica,sans-Serif" font-size="10.00">+ decompress_point()</text>
<text text-anchor="start" x="8" y="-73.5" font-family="Helvetica,sans-Serif" font-size="10.00">+ generate_key_pair()</text>
<text text-anchor="start" x="8" y="-62.5" font-family="Helvetica,sans-Serif" font-size="10.00">&#45; sign_data()</text>
<text text-anchor="start" x="8" y="-51.5" font-family="Helvetica,sans-Serif" font-size="10.00">&#45; verify_data()</text>
<text text-anchor="start" x="8" y="-40.5" font-family="Helvetica,sans-Serif" font-size="10.00">&#45; generate_private_key()</text>
<text text-anchor="start" x="8" y="-29.5" font-family="Helvetica,sans-Serif" font-size="10.00">&#45; generate_public_key()</text>
<text text-anchor="start" x="8" y="-18.5" font-family="Helvetica,sans-Serif" font-size="10.00">&#45; internal_public_key()</text>
<text text-anchor="start" x="8" y="-7.5" font-family="Helvetica,sans-Serif" font-size="10.00">&#45; internal_private_key()</text>
</a>
</g>
</g>
<!-- Node1&#45;&gt;Node2 -->
<g id="edge1" class="edge">
<title>Node1&#45;&gt;Node2</title>
<path fill="none" stroke="midnightblue" d="M150.32,-240.16C143.44,-230.81 136.47,-221.18 130,-212 126.72,-207.34 123.38,-202.55 120.03,-197.7"/>
<polygon fill="none" stroke="midnightblue" points="147.58,-242.33 156.33,-248.3 153.21,-238.17 147.58,-242.33"/>
</g>
<!-- Node3 -->
<g id="node3" class="node">
<title>Node3</title>
<g id="a_node3"><a xlink:href="../../d4/d9f/classvanetza_1_1security_1_1BackendNull.html" target="_top" xlink:title="A backend doing nothing.">
<polygon fill="white" stroke="black" points="138.5,-55.5 138.5,-156.5 249.5,-156.5 249.5,-55.5 138.5,-55.5"/>
<text text-anchor="start" x="146.5" y="-144.5" font-family="Helvetica,sans-Serif" font-size="10.00">vanetza::security::</text>
<text text-anchor="middle" x="194" y="-133.5" font-family="Helvetica,sans-Serif" font-size="10.00">BackendNull</text>
<polyline fill="none" stroke="black" points="138.5,-126.5 249.5,-126.5 "/>
<text text-anchor="start" x="146.5" y="-114.5" font-family="Helvetica,sans-Serif" font-size="10.00">+ backend_name</text>
<polyline fill="none" stroke="black" points="138.5,-107.5 249.5,-107.5 "/>
<text text-anchor="start" x="146.5" y="-95.5" font-family="Helvetica,sans-Serif" font-size="10.00">+ sign_data()</text>
<text text-anchor="start" x="146.5" y="-84.5" font-family="Helvetica,sans-Serif" font-size="10.00">+ verify_data()</text>
<text text-anchor="start" x="146.5" y="-73.5" font-family="Helvetica,sans-Serif" font-size="10.00">+ decompress_point()</text>
<text text-anchor="start" x="146.5" y="-62.5" font-family="Helvetica,sans-Serif" font-size="10.00">&#45; fake_signature()</text>
</a>
</g>
</g>
<!-- Node1&#45;&gt;Node3 -->
<g id="edge2" class="edge">
<title>Node1&#45;&gt;Node3</title>
<path fill="none" stroke="midnightblue" d="M194,-238.14C194,-211.98 194,-181.66 194,-156.77"/>
<polygon fill="none" stroke="midnightblue" points="190.5,-238.32 194,-248.32 197.5,-238.32 190.5,-238.32"/>
</g>
<!-- Node4 -->
<g id="node4" class="node">
<title>Node4</title>
<g id="a_node4"><a xlink:href="../../d1/dee/classvanetza_1_1security_1_1BackendOpenSsl.html" target="_top" xlink:title="Backend implementation based on OpenSSL.">
<polygon fill="white" stroke="black" points="268,-39 268,-173 382,-173 382,-39 268,-39"/>
<text text-anchor="start" x="276" y="-161" font-family="Helvetica,sans-Serif" font-size="10.00">vanetza::security::</text>
<text text-anchor="middle" x="325" y="-150" font-family="Helvetica,sans-Serif" font-size="10.00">BackendOpenSsl</text>
<polyline fill="none" stroke="black" points="268,-143 382,-143 "/>
<text text-anchor="start" x="276" y="-131" font-family="Helvetica,sans-Serif" font-size="10.00">+ backend_name</text>
<polyline fill="none" stroke="black" points="268,-124 382,-124 "/>
<text text-anchor="start" x="276" y="-112" font-family="Helvetica,sans-Serif" font-size="10.00">+ BackendOpenSsl()</text>
<text text-anchor="start" x="276" y="-101" font-family="Helvetica,sans-Serif" font-size="10.00">+ sign_data()</text>
<text text-anchor="start" x="276" y="-90" font-family="Helvetica,sans-Serif" font-size="10.00">+ verify_data()</text>
<text text-anchor="start" x="276" y="-79" font-family="Helvetica,sans-Serif" font-size="10.00">+ decompress_point()</text>
<text text-anchor="start" x="276" y="-68" font-family="Helvetica,sans-Serif" font-size="10.00">&#45; calculate_digest()</text>
<text text-anchor="start" x="276" y="-57" font-family="Helvetica,sans-Serif" font-size="10.00">&#45; internal_private_key()</text>
<text text-anchor="start" x="276" y="-46" font-family="Helvetica,sans-Serif" font-size="10.00">&#45; internal_public_key()</text>
</a>
</g>
</g>
<!-- Node1&#45;&gt;Node4 -->
<g id="edge3" class="edge">
<title>Node1&#45;&gt;Node4</title>
<path fill="none" stroke="midnightblue" d="M238.9,-240C245.76,-230.73 252.67,-221.17 259,-212 267.56,-199.6 276.38,-186.13 284.67,-173.1"/>
<polygon fill="none" stroke="midnightblue" points="236.06,-237.95 232.89,-248.06 241.67,-242.13 236.06,-237.95"/>
</g>
</g>
</svg>
