<?xml version="1.0" encoding="UTF-8" standalone="no"?>
<!DOCTYPE svg PUBLIC "-//W3C//DTD SVG 1.1//EN"
 "http://www.w3.org/Graphics/SVG/1.1/DTD/svg11.dtd">
<!-- Generated by graphviz version 2.42.3 (0)
 -->
<!-- Title: vanetza::security::v3::ToBeSignedCertificate Pages: 1 -->
<svg width="148pt" height="354pt"
 viewBox="0.00 0.00 148.00 354.00" xmlns="http://www.w3.org/2000/svg" xmlns:xlink="http://www.w3.org/1999/xlink">
<g id="graph0" class="graph" transform="scale(1 1) rotate(0) translate(4 350)">
<title>vanetza::security::v3::ToBeSignedCertificate</title>
<polygon fill="white" stroke="transparent" points="-4,4 -4,-350 144,-350 144,4 -4,4"/>
<!-- Node1 -->
<g id="node1" class="node">
<title>Node1</title>
<g id="a_node1"><a xlink:title=" ">
<polygon fill="#bfbfbf" stroke="black" points="4.5,-0.5 4.5,-123.5 135.5,-123.5 135.5,-0.5 4.5,-0.5"/>
<text text-anchor="start" x="12.5" y="-111.5" font-family="Helvetica,sans-Serif" font-size="10.00">vanetza::security::</text>
<text text-anchor="middle" x="70" y="-100.5" font-family="Helvetica,sans-Serif" font-size="10.00">v3::ToBeSignedCertificate</text>
<polyline fill="none" stroke="black" points="4.5,-93.5 135.5,-93.5 "/>
<text text-anchor="start" x="12.5" y="-81.5" font-family="Helvetica,sans-Serif" font-size="10.00">+ id</text>
<text text-anchor="start" x="12.5" y="-70.5" font-family="Helvetica,sans-Serif" font-size="10.00">+ cracaId</text>
<text text-anchor="start" x="12.5" y="-59.5" font-family="Helvetica,sans-Serif" font-size="10.00">+ crlSeries</text>
<text text-anchor="start" x="12.5" y="-48.5" font-family="Helvetica,sans-Serif" font-size="10.00">+ validityPeriod</text>
<text text-anchor="start" x="12.5" y="-37.5" font-family="Helvetica,sans-Serif" font-size="10.00">+ region</text>
<text text-anchor="start" x="12.5" y="-26.5" font-family="Helvetica,sans-Serif" font-size="10.00">+ assuranceLevel</text>
<polyline fill="none" stroke="black" points="4.5,-19.5 135.5,-19.5 "/>
<text text-anchor="middle" x="70" y="-7.5" font-family="Helvetica,sans-Serif" font-size="10.00"> </text>
</a>
</g>
</g>
<!-- Node2 -->
<g id="node2" class="node">
<title>Node2</title>
<g id="a_node2"><a xlink:href="../../d3/df0/structvanetza_1_1security_1_1v3_1_1Sequence.html" target="_top" xlink:title=" ">
<polygon fill="white" stroke="black" points="14.5,-161.5 14.5,-229.5 125.5,-229.5 125.5,-161.5 14.5,-161.5"/>
<text text-anchor="start" x="22.5" y="-217.5" font-family="Helvetica,sans-Serif" font-size="10.00">vanetza::security::</text>
<text text-anchor="middle" x="70" y="-206.5" font-family="Helvetica,sans-Serif" font-size="10.00">v3::Sequence&lt; true &gt;</text>
<polyline fill="none" stroke="black" points="14.5,-199.5 125.5,-199.5 "/>
<text text-anchor="middle" x="70" y="-187.5" font-family="Helvetica,sans-Serif" font-size="10.00"> </text>
<polyline fill="none" stroke="black" points="14.5,-180.5 125.5,-180.5 "/>
<text text-anchor="middle" x="70" y="-168.5" font-family="Helvetica,sans-Serif" font-size="10.00"> </text>
</a>
</g>
</g>
<!-- Node2&#45;&gt;Node1 -->
<g id="edge1" class="edge">
<title>Node2&#45;&gt;Node1</title>
<path fill="none" stroke="midnightblue" d="M70,-151.25C70,-142.39 70,-132.91 70,-123.57"/>
<polygon fill="none" stroke="midnightblue" points="66.5,-151.32 70,-161.32 73.5,-151.32 66.5,-151.32"/>
</g>
<!-- Node3 -->
<g id="node3" class="node">
<title>Node3</title>
<g id="a_node3"><a xlink:href="../../d3/df0/structvanetza_1_1security_1_1v3_1_1Sequence.html" target="_top" xlink:title=" ">
<polygon fill="white" stroke="black" points="0,-277.5 0,-345.5 140,-345.5 140,-277.5 0,-277.5"/>
<text text-anchor="start" x="8" y="-333.5" font-family="Helvetica,sans-Serif" font-size="10.00">vanetza::security::</text>
<text text-anchor="middle" x="70" y="-322.5" font-family="Helvetica,sans-Serif" font-size="10.00">v3::Sequence&lt; Extensible &gt;</text>
<polyline fill="none" stroke="black" points="0,-315.5 140,-315.5 "/>
<text text-anchor="middle" x="70" y="-303.5" font-family="Helvetica,sans-Serif" font-size="10.00"> </text>
<polyline fill="none" stroke="black" points="0,-296.5 140,-296.5 "/>
<text text-anchor="middle" x="70" y="-284.5" font-family="Helvetica,sans-Serif" font-size="10.00"> </text>
</a>
</g>
</g>
<!-- Node3&#45;&gt;Node2 -->
<g id="edge2" class="edge">
<title>Node3&#45;&gt;Node2</title>
<path fill="none" stroke="orange" d="M70,-267.06C70,-254.64 70,-241.32 70,-229.62"/>
<polygon fill="orange" stroke="orange" points="66.5,-267.22 70,-277.22 73.5,-267.22 66.5,-267.22"/>
<text text-anchor="middle" x="89" y="-251" font-family="Helvetica,sans-Serif" font-size="10.00"> &lt; true &gt;</text>
</g>
</g>
</svg>
