<?xml version="1.0" encoding="UTF-8" standalone="no"?>
<!DOCTYPE svg PUBLIC "-//W3C//DTD SVG 1.1//EN"
 "http://www.w3.org/Graphics/SVG/1.1/DTD/svg11.dtd">
<!-- Generated by graphviz version 2.42.3 (0)
 -->
<!-- Title: vanetza::security::v3::CertificateBase Pages: 1 -->
<svg width="148pt" height="343pt"
 viewBox="0.00 0.00 148.00 343.00" xmlns="http://www.w3.org/2000/svg" xmlns:xlink="http://www.w3.org/1999/xlink">
<g id="graph0" class="graph" transform="scale(1 1) rotate(0) translate(4 339)">
<title>vanetza::security::v3::CertificateBase</title>
<polygon fill="white" stroke="transparent" points="-4,4 -4,-339 144,-339 144,4 -4,4"/>
<!-- Node1 -->
<g id="node1" class="node">
<title>Node1</title>
<g id="a_node1"><a xlink:title=" ">
<polygon fill="#bfbfbf" stroke="black" points="19.5,-0.5 19.5,-112.5 120.5,-112.5 120.5,-0.5 19.5,-0.5"/>
<text text-anchor="start" x="27.5" y="-100.5" font-family="Helvetica,sans-Serif" font-size="10.00">vanetza::security::</text>
<text text-anchor="middle" x="70" y="-89.5" font-family="Helvetica,sans-Serif" font-size="10.00">v3::CertificateBase</text>
<polyline fill="none" stroke="black" points="19.5,-82.5 120.5,-82.5 "/>
<text text-anchor="start" x="27.5" y="-70.5" font-family="Helvetica,sans-Serif" font-size="10.00">+ version</text>
<text text-anchor="start" x="27.5" y="-59.5" font-family="Helvetica,sans-Serif" font-size="10.00">+ type</text>
<text text-anchor="start" x="27.5" y="-48.5" font-family="Helvetica,sans-Serif" font-size="10.00">+ issuer</text>
<text text-anchor="start" x="27.5" y="-37.5" font-family="Helvetica,sans-Serif" font-size="10.00">+ toBeSigned</text>
<text text-anchor="start" x="27.5" y="-26.5" font-family="Helvetica,sans-Serif" font-size="10.00">+ signature</text>
<polyline fill="none" stroke="black" points="19.5,-19.5 120.5,-19.5 "/>
<text text-anchor="middle" x="70" y="-7.5" font-family="Helvetica,sans-Serif" font-size="10.00"> </text>
</a>
</g>
</g>
<!-- Node2 -->
<g id="node2" class="node">
<title>Node2</title>
<g id="a_node2"><a xlink:href="../../d3/df0/structvanetza_1_1security_1_1v3_1_1Sequence.html" target="_top" xlink:title=" ">
<polygon fill="white" stroke="black" points="12,-150.5 12,-218.5 128,-218.5 128,-150.5 12,-150.5"/>
<text text-anchor="start" x="20" y="-206.5" font-family="Helvetica,sans-Serif" font-size="10.00">vanetza::security::</text>
<text text-anchor="middle" x="70" y="-195.5" font-family="Helvetica,sans-Serif" font-size="10.00">v3::Sequence&lt; false &gt;</text>
<polyline fill="none" stroke="black" points="12,-188.5 128,-188.5 "/>
<text text-anchor="middle" x="70" y="-176.5" font-family="Helvetica,sans-Serif" font-size="10.00"> </text>
<polyline fill="none" stroke="black" points="12,-169.5 128,-169.5 "/>
<text text-anchor="middle" x="70" y="-157.5" font-family="Helvetica,sans-Serif" font-size="10.00"> </text>
</a>
</g>
</g>
<!-- Node2&#45;&gt;Node1 -->
<g id="edge1" class="edge">
<title>Node2&#45;&gt;Node1</title>
<path fill="none" stroke="midnightblue" d="M70,-140.31C70,-131.45 70,-122.01 70,-112.79"/>
<polygon fill="none" stroke="midnightblue" points="66.5,-140.39 70,-150.39 73.5,-140.4 66.5,-140.39"/>
</g>
<!-- Node3 -->
<g id="node3" class="node">
<title>Node3</title>
<g id="a_node3"><a xlink:href="../../d3/df0/structvanetza_1_1security_1_1v3_1_1Sequence.html" target="_top" xlink:title=" ">
<polygon fill="white" stroke="black" points="0,-266.5 0,-334.5 140,-334.5 140,-266.5 0,-266.5"/>
<text text-anchor="start" x="8" y="-322.5" font-family="Helvetica,sans-Serif" font-size="10.00">vanetza::security::</text>
<text text-anchor="middle" x="70" y="-311.5" font-family="Helvetica,sans-Serif" font-size="10.00">v3::Sequence&lt; Extensible &gt;</text>
<polyline fill="none" stroke="black" points="0,-304.5 140,-304.5 "/>
<text text-anchor="middle" x="70" y="-292.5" font-family="Helvetica,sans-Serif" font-size="10.00"> </text>
<polyline fill="none" stroke="black" points="0,-285.5 140,-285.5 "/>
<text text-anchor="middle" x="70" y="-273.5" font-family="Helvetica,sans-Serif" font-size="10.00"> </text>
</a>
</g>
</g>
<!-- Node3&#45;&gt;Node2 -->
<g id="edge2" class="edge">
<title>Node3&#45;&gt;Node2</title>
<path fill="none" stroke="orange" d="M70,-256.06C70,-243.64 70,-230.32 70,-218.62"/>
<polygon fill="orange" stroke="orange" points="66.5,-256.22 70,-266.22 73.5,-256.22 66.5,-256.22"/>
<text text-anchor="middle" x="91.5" y="-240" font-family="Helvetica,sans-Serif" font-size="10.00"> &lt; false &gt;</text>
</g>
</g>
</svg>
