<?xml version="1.0" encoding="UTF-8" standalone="no"?>
<!DOCTYPE svg PUBLIC "-//W3C//DTD SVG 1.1//EN"
 "http://www.w3.org/Graphics/SVG/1.1/DTD/svg11.dtd">
<!-- Generated by graphviz version 2.49.3 (0)
 -->
<!-- Title: vanetza::asn1::Spatem Pages: 1 -->
<svg width="326pt" height="734pt"
 viewBox="0.00 0.00 325.50 734.00" xmlns="http://www.w3.org/2000/svg" xmlns:xlink="http://www.w3.org/1999/xlink">
<g id="graph0" class="graph" transform="scale(1 1) rotate(0) translate(4 730)">
<title>vanetza::asn1::Spatem</title>
<polygon fill="white" stroke="transparent" points="-4,4 -4,-730 321.5,-730 321.5,4 -4,4"/>
<!-- Node1 -->
<g id="node1" class="node">
<title>Node1</title>
<g id="a_node1"><a xlink:title=" ">
<polygon fill="#bfbfbf" stroke="black" points="101,-0.5 101,-57.5 218,-57.5 218,-0.5 101,-0.5"/>
<text text-anchor="middle" x="159.5" y="-45.5" font-family="Helvetica,sans-Serif" font-size="10.00">vanetza::asn1::Spatem</text>
<polyline fill="none" stroke="black" points="101,-38.5 218,-38.5 "/>
<text text-anchor="middle" x="159.5" y="-26.5" font-family="Helvetica,sans-Serif" font-size="10.00"> </text>
<polyline fill="none" stroke="black" points="101,-19.5 218,-19.5 "/>
<text text-anchor="start" x="109" y="-7.5" font-family="Helvetica,sans-Serif" font-size="10.00">+ Spatem()</text>
</a>
</g>
</g>
<!-- Node2 -->
<g id="node2" class="node">
<title>Node2</title>
<g id="a_node2"><a xlink:href="../../dc/dbf/classvanetza_1_1asn1_1_1asn1c__per__wrapper.html" target="_top" xlink:title=" ">
<polygon fill="white" stroke="#bfbfbf" points="89,-95.5 89,-207.5 230,-207.5 230,-95.5 89,-95.5"/>
<text text-anchor="start" x="97" y="-195.5" font-family="Helvetica,sans-Serif" font-size="10.00">vanetza::asn1::asn1c</text>
<text text-anchor="middle" x="159.5" y="-184.5" font-family="Helvetica,sans-Serif" font-size="10.00">_per_wrapper&lt; SPATEM_t &gt;</text>
<polyline fill="none" stroke="#bfbfbf" points="89,-177.5 230,-177.5 "/>
<text text-anchor="middle" x="159.5" y="-165.5" font-family="Helvetica,sans-Serif" font-size="10.00"> </text>
<polyline fill="none" stroke="#bfbfbf" points="89,-158.5 230,-158.5 "/>
<text text-anchor="start" x="97" y="-146.5" font-family="Helvetica,sans-Serif" font-size="10.00">+ encode()</text>
<text text-anchor="start" x="97" y="-135.5" font-family="Helvetica,sans-Serif" font-size="10.00">+ decode()</text>
<text text-anchor="start" x="97" y="-124.5" font-family="Helvetica,sans-Serif" font-size="10.00">+ decode()</text>
<text text-anchor="start" x="97" y="-113.5" font-family="Helvetica,sans-Serif" font-size="10.00">+ decode()</text>
<text text-anchor="start" x="97" y="-102.5" font-family="Helvetica,sans-Serif" font-size="10.00">+ size()</text>
</a>
</g>
</g>
<!-- Node2&#45;&gt;Node1 -->
<g id="edge1" class="edge">
<title>Node2&#45;&gt;Node1</title>
<path fill="none" stroke="midnightblue" d="M159.5,-85.12C159.5,-75.48 159.5,-66.01 159.5,-57.72"/>
<polygon fill="none" stroke="midnightblue" points="156,-85.19 159.5,-95.19 163,-85.19 156,-85.19"/>
</g>
<!-- Node3 -->
<g id="node3" class="node">
<title>Node3</title>
<g id="a_node3"><a xlink:href="../../d0/d68/classvanetza_1_1asn1_1_1asn1c__wrapper__common.html" target="_top" xlink:title=" ">
<polygon fill="white" stroke="#bfbfbf" points="0,-255.5 0,-466.5 165,-466.5 165,-255.5 0,-255.5"/>
<text text-anchor="start" x="8" y="-454.5" font-family="Helvetica,sans-Serif" font-size="10.00">vanetza::asn1::asn1c</text>
<text text-anchor="middle" x="82.5" y="-443.5" font-family="Helvetica,sans-Serif" font-size="10.00">_wrapper_common&lt; SPATEM_t &gt;</text>
<polyline fill="none" stroke="#bfbfbf" points="0,-436.5 165,-436.5 "/>
<text text-anchor="start" x="8" y="-424.5" font-family="Helvetica,sans-Serif" font-size="10.00"># m_struct</text>
<text text-anchor="start" x="8" y="-413.5" font-family="Helvetica,sans-Serif" font-size="10.00"># m_type</text>
<polyline fill="none" stroke="#bfbfbf" points="0,-406.5 165,-406.5 "/>
<text text-anchor="start" x="8" y="-394.5" font-family="Helvetica,sans-Serif" font-size="10.00">+ asn1c_wrapper_common()</text>
<text text-anchor="start" x="8" y="-383.5" font-family="Helvetica,sans-Serif" font-size="10.00">+ asn1c_wrapper_common()</text>
<text text-anchor="start" x="8" y="-372.5" font-family="Helvetica,sans-Serif" font-size="10.00">+ asn1c_wrapper_common()</text>
<text text-anchor="start" x="8" y="-361.5" font-family="Helvetica,sans-Serif" font-size="10.00">+ ~asn1c_wrapper_common()</text>
<text text-anchor="start" x="8" y="-350.5" font-family="Helvetica,sans-Serif" font-size="10.00">+ operator=()</text>
<text text-anchor="start" x="8" y="-339.5" font-family="Helvetica,sans-Serif" font-size="10.00">+ operator=()</text>
<text text-anchor="start" x="8" y="-328.5" font-family="Helvetica,sans-Serif" font-size="10.00">+ operator*()</text>
<text text-anchor="start" x="8" y="-317.5" font-family="Helvetica,sans-Serif" font-size="10.00">+ operator*()</text>
<text text-anchor="start" x="8" y="-306.5" font-family="Helvetica,sans-Serif" font-size="10.00">+ operator&#45;&gt;()</text>
<text text-anchor="start" x="8" y="-295.5" font-family="Helvetica,sans-Serif" font-size="10.00">+ operator&#45;&gt;()</text>
<text text-anchor="start" x="8" y="-284.5" font-family="Helvetica,sans-Serif" font-size="10.00">+ validate()</text>
<text text-anchor="start" x="8" y="-273.5" font-family="Helvetica,sans-Serif" font-size="10.00">+ validate()</text>
<text text-anchor="start" x="8" y="-262.5" font-family="Helvetica,sans-Serif" font-size="10.00">+ swap()</text>
</a>
</g>
</g>
<!-- Node3&#45;&gt;Node2 -->
<g id="edge2" class="edge">
<title>Node3&#45;&gt;Node2</title>
<path fill="none" stroke="midnightblue" d="M124.92,-245.68C129.83,-232.44 134.66,-219.45 139.07,-207.55"/>
<polygon fill="none" stroke="midnightblue" points="121.54,-244.75 121.34,-255.34 128.1,-247.18 121.54,-244.75"/>
</g>
<!-- Node4 -->
<g id="node4" class="node">
<title>Node4</title>
<g id="a_node4"><a xlink:href="../../d0/d68/classvanetza_1_1asn1_1_1asn1c__wrapper__common.html" target="_top" xlink:title=" ">
<polygon fill="white" stroke="#bfbfbf" points="7.5,-514.5 7.5,-725.5 153.5,-725.5 153.5,-514.5 7.5,-514.5"/>
<text text-anchor="start" x="15.5" y="-713.5" font-family="Helvetica,sans-Serif" font-size="10.00">vanetza::asn1::asn1c</text>
<text text-anchor="middle" x="80.5" y="-702.5" font-family="Helvetica,sans-Serif" font-size="10.00">_wrapper_common&lt; T &gt;</text>
<polyline fill="none" stroke="#bfbfbf" points="7.5,-695.5 153.5,-695.5 "/>
<text text-anchor="start" x="15.5" y="-683.5" font-family="Helvetica,sans-Serif" font-size="10.00"># m_struct</text>
<text text-anchor="start" x="15.5" y="-672.5" font-family="Helvetica,sans-Serif" font-size="10.00"># m_type</text>
<polyline fill="none" stroke="#bfbfbf" points="7.5,-665.5 153.5,-665.5 "/>
<text text-anchor="start" x="15.5" y="-653.5" font-family="Helvetica,sans-Serif" font-size="10.00">+ asn1c_wrapper_common()</text>
<text text-anchor="start" x="15.5" y="-642.5" font-family="Helvetica,sans-Serif" font-size="10.00">+ ~asn1c_wrapper_common()</text>
<text text-anchor="start" x="15.5" y="-631.5" font-family="Helvetica,sans-Serif" font-size="10.00">+ asn1c_wrapper_common()</text>
<text text-anchor="start" x="15.5" y="-620.5" font-family="Helvetica,sans-Serif" font-size="10.00">+ operator=()</text>
<text text-anchor="start" x="15.5" y="-609.5" font-family="Helvetica,sans-Serif" font-size="10.00">+ asn1c_wrapper_common()</text>
<text text-anchor="start" x="15.5" y="-598.5" font-family="Helvetica,sans-Serif" font-size="10.00">+ operator=()</text>
<text text-anchor="start" x="15.5" y="-587.5" font-family="Helvetica,sans-Serif" font-size="10.00">+ operator*()</text>
<text text-anchor="start" x="15.5" y="-576.5" font-family="Helvetica,sans-Serif" font-size="10.00">+ operator&#45;&gt;()</text>
<text text-anchor="start" x="15.5" y="-565.5" font-family="Helvetica,sans-Serif" font-size="10.00">+ operator*()</text>
<text text-anchor="start" x="15.5" y="-554.5" font-family="Helvetica,sans-Serif" font-size="10.00">+ operator&#45;&gt;()</text>
<text text-anchor="start" x="15.5" y="-543.5" font-family="Helvetica,sans-Serif" font-size="10.00">+ validate()</text>
<text text-anchor="start" x="15.5" y="-532.5" font-family="Helvetica,sans-Serif" font-size="10.00">+ validate()</text>
<text text-anchor="start" x="15.5" y="-521.5" font-family="Helvetica,sans-Serif" font-size="10.00">+ swap()</text>
</a>
</g>
</g>
<!-- Node4&#45;&gt;Node3 -->
<g id="edge3" class="edge">
<title>Node4&#45;&gt;Node3</title>
<path fill="none" stroke="orange" d="M81.39,-504.1C81.49,-491.7 81.59,-479.13 81.68,-466.86"/>
<polygon fill="orange" stroke="orange" points="77.89,-504.44 81.31,-514.47 84.89,-504.5 77.89,-504.44"/>
<text text-anchor="middle" x="116.5" y="-488" font-family="Helvetica,sans-Serif" font-size="10.00"> &lt; SPATEM_t &gt;</text>
</g>
<!-- Node5 -->
<g id="node5" class="node">
<title>Node5</title>
<g id="a_node5"><a xlink:href="../../dc/dbf/classvanetza_1_1asn1_1_1asn1c__per__wrapper.html" target="_top" xlink:title=" ">
<polygon fill="white" stroke="#bfbfbf" points="187.5,-305 187.5,-417 297.5,-417 297.5,-305 187.5,-305"/>
<text text-anchor="start" x="195.5" y="-405" font-family="Helvetica,sans-Serif" font-size="10.00">vanetza::asn1::asn1c</text>
<text text-anchor="middle" x="242.5" y="-394" font-family="Helvetica,sans-Serif" font-size="10.00">_per_wrapper&lt; T &gt;</text>
<polyline fill="none" stroke="#bfbfbf" points="187.5,-387 297.5,-387 "/>
<text text-anchor="middle" x="242.5" y="-375" font-family="Helvetica,sans-Serif" font-size="10.00"> </text>
<polyline fill="none" stroke="#bfbfbf" points="187.5,-368 297.5,-368 "/>
<text text-anchor="start" x="195.5" y="-356" font-family="Helvetica,sans-Serif" font-size="10.00">+ encode()</text>
<text text-anchor="start" x="195.5" y="-345" font-family="Helvetica,sans-Serif" font-size="10.00">+ decode()</text>
<text text-anchor="start" x="195.5" y="-334" font-family="Helvetica,sans-Serif" font-size="10.00">+ decode()</text>
<text text-anchor="start" x="195.5" y="-323" font-family="Helvetica,sans-Serif" font-size="10.00">+ decode()</text>
<text text-anchor="start" x="195.5" y="-312" font-family="Helvetica,sans-Serif" font-size="10.00">+ size()</text>
</a>
</g>
</g>
<!-- Node5&#45;&gt;Node2 -->
<g id="edge4" class="edge">
<title>Node5&#45;&gt;Node2</title>
<path fill="none" stroke="orange" d="M216.74,-295.59C205.49,-267.47 192.43,-234.82 181.63,-207.82"/>
<polygon fill="orange" stroke="orange" points="213.51,-296.95 220.48,-304.94 220.01,-294.35 213.51,-296.95"/>
<text text-anchor="middle" x="226.5" y="-229" font-family="Helvetica,sans-Serif" font-size="10.00"> &lt; SPATEM_t &gt;</text>
</g>
<!-- Node6 -->
<g id="node6" class="node">
<title>Node6</title>
<g id="a_node6"><a xlink:href="../../d0/d68/classvanetza_1_1asn1_1_1asn1c__wrapper__common.html" target="_top" xlink:title=" ">
<polygon fill="white" stroke="#bfbfbf" points="171.5,-514.5 171.5,-725.5 317.5,-725.5 317.5,-514.5 171.5,-514.5"/>
<text text-anchor="start" x="179.5" y="-713.5" font-family="Helvetica,sans-Serif" font-size="10.00">vanetza::asn1::asn1c</text>
<text text-anchor="middle" x="244.5" y="-702.5" font-family="Helvetica,sans-Serif" font-size="10.00">_wrapper_common&lt; T &gt;</text>
<polyline fill="none" stroke="#bfbfbf" points="171.5,-695.5 317.5,-695.5 "/>
<text text-anchor="start" x="179.5" y="-683.5" font-family="Helvetica,sans-Serif" font-size="10.00"># m_struct</text>
<text text-anchor="start" x="179.5" y="-672.5" font-family="Helvetica,sans-Serif" font-size="10.00"># m_type</text>
<polyline fill="none" stroke="#bfbfbf" points="171.5,-665.5 317.5,-665.5 "/>
<text text-anchor="start" x="179.5" y="-653.5" font-family="Helvetica,sans-Serif" font-size="10.00">+ asn1c_wrapper_common()</text>
<text text-anchor="start" x="179.5" y="-642.5" font-family="Helvetica,sans-Serif" font-size="10.00">+ ~asn1c_wrapper_common()</text>
<text text-anchor="start" x="179.5" y="-631.5" font-family="Helvetica,sans-Serif" font-size="10.00">+ asn1c_wrapper_common()</text>
<text text-anchor="start" x="179.5" y="-620.5" font-family="Helvetica,sans-Serif" font-size="10.00">+ operator=()</text>
<text text-anchor="start" x="179.5" y="-609.5" font-family="Helvetica,sans-Serif" font-size="10.00">+ asn1c_wrapper_common()</text>
<text text-anchor="start" x="179.5" y="-598.5" font-family="Helvetica,sans-Serif" font-size="10.00">+ operator=()</text>
<text text-anchor="start" x="179.5" y="-587.5" font-family="Helvetica,sans-Serif" font-size="10.00">+ operator*()</text>
<text text-anchor="start" x="179.5" y="-576.5" font-family="Helvetica,sans-Serif" font-size="10.00">+ operator&#45;&gt;()</text>
<text text-anchor="start" x="179.5" y="-565.5" font-family="Helvetica,sans-Serif" font-size="10.00">+ operator*()</text>
<text text-anchor="start" x="179.5" y="-554.5" font-family="Helvetica,sans-Serif" font-size="10.00">+ operator&#45;&gt;()</text>
<text text-anchor="start" x="179.5" y="-543.5" font-family="Helvetica,sans-Serif" font-size="10.00">+ validate()</text>
<text text-anchor="start" x="179.5" y="-532.5" font-family="Helvetica,sans-Serif" font-size="10.00">+ validate()</text>
<text text-anchor="start" x="179.5" y="-521.5" font-family="Helvetica,sans-Serif" font-size="10.00">+ swap()</text>
</a>
</g>
</g>
<!-- Node6&#45;&gt;Node5 -->
<g id="edge5" class="edge">
<title>Node6&#45;&gt;Node5</title>
<path fill="none" stroke="midnightblue" d="M243.61,-504.25C243.37,-473.96 243.13,-442.65 242.93,-417.13"/>
<polygon fill="none" stroke="midnightblue" points="240.11,-504.5 243.69,-514.47 247.11,-504.44 240.11,-504.5"/>
</g>
</g>
</svg>
