<?xml version="1.0" encoding="UTF-8" standalone="no"?>
<!DOCTYPE svg PUBLIC "-//W3C//DTD SVG 1.1//EN"
 "http://www.w3.org/Graphics/SVG/1.1/DTD/svg11.dtd">
<!-- Generated by graphviz version 2.42.3 (0)
 -->
<!-- Title: vanetza::asn1::Denm Pages: 1 -->
<svg width="125pt" height="530pt"
 viewBox="0.00 0.00 124.50 530.00" xmlns="http://www.w3.org/2000/svg" xmlns:xlink="http://www.w3.org/1999/xlink">
<g id="graph0" class="graph" transform="scale(1 1) rotate(0) translate(4 526)">
<title>vanetza::asn1::Denm</title>
<polygon fill="white" stroke="transparent" points="-4,4 -4,-526 120.5,-526 120.5,4 -4,4"/>
<!-- Node1 -->
<g id="node1" class="node">
<title>Node1</title>
<g id="a_node1"><a xlink:title=" ">
<polygon fill="#bfbfbf" stroke="black" points="1.5,-0.5 1.5,-57.5 111.5,-57.5 111.5,-0.5 1.5,-0.5"/>
<text text-anchor="middle" x="56.5" y="-45.5" font-family="Helvetica,sans-Serif" font-size="10.00">vanetza::asn1::Denm</text>
<polyline fill="none" stroke="black" points="1.5,-38.5 111.5,-38.5 "/>
<text text-anchor="middle" x="56.5" y="-26.5" font-family="Helvetica,sans-Serif" font-size="10.00"> </text>
<polyline fill="none" stroke="black" points="1.5,-19.5 111.5,-19.5 "/>
<text text-anchor="start" x="9.5" y="-7.5" font-family="Helvetica,sans-Serif" font-size="10.00">+ Denm()</text>
</a>
</g>
</g>
<!-- Node2 -->
<g id="node2" class="node">
<title>Node2</title>
<g id="a_node2"><a xlink:href="../../d2/de7/classvanetza_1_1asn1_1_1asn1c__wrapper.html" target="_top" xlink:title=" ">
<polygon fill="white" stroke="black" points="0,-95.5 0,-284.5 113,-284.5 113,-95.5 0,-95.5"/>
<text text-anchor="start" x="8" y="-272.5" font-family="Helvetica,sans-Serif" font-size="10.00">vanetza::asn1::asn1c</text>
<text text-anchor="middle" x="56.5" y="-261.5" font-family="Helvetica,sans-Serif" font-size="10.00">_wrapper&lt; DENM_t &gt;</text>
<polyline fill="none" stroke="black" points="0,-254.5 113,-254.5 "/>
<text text-anchor="start" x="8" y="-242.5" font-family="Helvetica,sans-Serif" font-size="10.00">&#45; m_struct</text>
<text text-anchor="start" x="8" y="-231.5" font-family="Helvetica,sans-Serif" font-size="10.00">&#45; m_type</text>
<polyline fill="none" stroke="black" points="0,-224.5 113,-224.5 "/>
<text text-anchor="start" x="8" y="-212.5" font-family="Helvetica,sans-Serif" font-size="10.00">+ asn1c_wrapper()</text>
<text text-anchor="start" x="8" y="-201.5" font-family="Helvetica,sans-Serif" font-size="10.00">+ asn1c_wrapper()</text>
<text text-anchor="start" x="8" y="-190.5" font-family="Helvetica,sans-Serif" font-size="10.00">+ asn1c_wrapper()</text>
<text text-anchor="start" x="8" y="-179.5" font-family="Helvetica,sans-Serif" font-size="10.00">+ ~asn1c_wrapper()</text>
<text text-anchor="start" x="8" y="-168.5" font-family="Helvetica,sans-Serif" font-size="10.00">+ operator=()</text>
<text text-anchor="start" x="8" y="-157.5" font-family="Helvetica,sans-Serif" font-size="10.00">+ operator=()</text>
<text text-anchor="start" x="8" y="-146.5" font-family="Helvetica,sans-Serif" font-size="10.00">+ operator*()</text>
<text text-anchor="start" x="8" y="-135.5" font-family="Helvetica,sans-Serif" font-size="10.00">+ operator*()</text>
<text text-anchor="start" x="8" y="-124.5" font-family="Helvetica,sans-Serif" font-size="10.00">+ operator&#45;&gt;()</text>
<text text-anchor="start" x="8" y="-113.5" font-family="Helvetica,sans-Serif" font-size="10.00">+ operator&#45;&gt;()</text>
<text text-anchor="start" x="8" y="-102.5" font-family="Helvetica,sans-Serif" font-size="10.00">and 7 more...</text>
</a>
</g>
</g>
<!-- Node2&#45;&gt;Node1 -->
<g id="edge1" class="edge">
<title>Node2&#45;&gt;Node1</title>
<path fill="none" stroke="midnightblue" d="M56.5,-85.08C56.5,-75.19 56.5,-65.85 56.5,-57.78"/>
<polygon fill="none" stroke="midnightblue" points="53,-85.13 56.5,-95.13 60,-85.13 53,-85.13"/>
</g>
<!-- Node3 -->
<g id="node3" class="node">
<title>Node3</title>
<g id="a_node3"><a xlink:href="../../d2/de7/classvanetza_1_1asn1_1_1asn1c__wrapper.html" target="_top" xlink:title=" ">
<polygon fill="white" stroke="black" points="1.5,-332.5 1.5,-521.5 111.5,-521.5 111.5,-332.5 1.5,-332.5"/>
<text text-anchor="start" x="9.5" y="-509.5" font-family="Helvetica,sans-Serif" font-size="10.00">vanetza::asn1::asn1c</text>
<text text-anchor="middle" x="56.5" y="-498.5" font-family="Helvetica,sans-Serif" font-size="10.00">_wrapper&lt; T &gt;</text>
<polyline fill="none" stroke="black" points="1.5,-491.5 111.5,-491.5 "/>
<text text-anchor="start" x="9.5" y="-479.5" font-family="Helvetica,sans-Serif" font-size="10.00">&#45; m_struct</text>
<text text-anchor="start" x="9.5" y="-468.5" font-family="Helvetica,sans-Serif" font-size="10.00">&#45; m_type</text>
<polyline fill="none" stroke="black" points="1.5,-461.5 111.5,-461.5 "/>
<text text-anchor="start" x="9.5" y="-449.5" font-family="Helvetica,sans-Serif" font-size="10.00">+ asn1c_wrapper()</text>
<text text-anchor="start" x="9.5" y="-438.5" font-family="Helvetica,sans-Serif" font-size="10.00">+ ~asn1c_wrapper()</text>
<text text-anchor="start" x="9.5" y="-427.5" font-family="Helvetica,sans-Serif" font-size="10.00">+ asn1c_wrapper()</text>
<text text-anchor="start" x="9.5" y="-416.5" font-family="Helvetica,sans-Serif" font-size="10.00">+ operator=()</text>
<text text-anchor="start" x="9.5" y="-405.5" font-family="Helvetica,sans-Serif" font-size="10.00">+ asn1c_wrapper()</text>
<text text-anchor="start" x="9.5" y="-394.5" font-family="Helvetica,sans-Serif" font-size="10.00">+ operator=()</text>
<text text-anchor="start" x="9.5" y="-383.5" font-family="Helvetica,sans-Serif" font-size="10.00">+ operator*()</text>
<text text-anchor="start" x="9.5" y="-372.5" font-family="Helvetica,sans-Serif" font-size="10.00">+ operator&#45;&gt;()</text>
<text text-anchor="start" x="9.5" y="-361.5" font-family="Helvetica,sans-Serif" font-size="10.00">+ operator*()</text>
<text text-anchor="start" x="9.5" y="-350.5" font-family="Helvetica,sans-Serif" font-size="10.00">+ operator&#45;&gt;()</text>
<text text-anchor="start" x="9.5" y="-339.5" font-family="Helvetica,sans-Serif" font-size="10.00">and 7 more...</text>
</a>
</g>
</g>
<!-- Node3&#45;&gt;Node2 -->
<g id="edge2" class="edge">
<title>Node3&#45;&gt;Node2</title>
<path fill="none" stroke="orange" d="M56.5,-322.42C56.5,-309.84 56.5,-297.04 56.5,-284.62"/>
<polygon fill="orange" stroke="orange" points="53,-322.45 56.5,-332.45 60,-322.45 53,-322.45"/>
<text text-anchor="middle" x="86.5" y="-306" font-family="Helvetica,sans-Serif" font-size="10.00"> &lt; DENM_t &gt;</text>
</g>
</g>
</svg>
