<?xml version="1.0" encoding="UTF-8" standalone="no"?>
<!DOCTYPE svg PUBLIC "-//W3C//DTD SVG 1.1//EN"
 "http://www.w3.org/Graphics/SVG/1.1/DTD/svg11.dtd">
<!-- Generated by graphviz version 2.42.3 (0)
 -->
<!-- Title: vanetza::btp::PortDispatcher Pages: 1 -->
<svg width="158pt" height="270pt"
 viewBox="0.00 0.00 158.00 270.00" xmlns="http://www.w3.org/2000/svg" xmlns:xlink="http://www.w3.org/1999/xlink">
<g id="graph0" class="graph" transform="scale(1 1) rotate(0) translate(4 266)">
<title>vanetza::btp::PortDispatcher</title>
<polygon fill="white" stroke="transparent" points="-4,4 -4,-266 154,-266 154,4 -4,4"/>
<!-- Node1 -->
<g id="node1" class="node">
<title>Node1</title>
<g id="a_node1"><a xlink:title=" ">
<polygon fill="#bfbfbf" stroke="black" points="0,-0.5 0,-145.5 150,-145.5 150,-0.5 0,-0.5"/>
<text text-anchor="middle" x="75" y="-133.5" font-family="Helvetica,sans-Serif" font-size="10.00">vanetza::btp::PortDispatcher</text>
<polyline fill="none" stroke="black" points="0,-126.5 150,-126.5 "/>
<text text-anchor="start" x="8" y="-114.5" font-family="Helvetica,sans-Serif" font-size="10.00">+ hook_undispatched</text>
<text text-anchor="start" x="8" y="-103.5" font-family="Helvetica,sans-Serif" font-size="10.00">&#45; m_interactive_handlers</text>
<text text-anchor="start" x="8" y="-92.5" font-family="Helvetica,sans-Serif" font-size="10.00">&#45; m_non_interactive_handlers</text>
<text text-anchor="start" x="8" y="-81.5" font-family="Helvetica,sans-Serif" font-size="10.00">&#45; m_promiscuous_hooks</text>
<polyline fill="none" stroke="black" points="0,-74.5 150,-74.5 "/>
<text text-anchor="start" x="8" y="-62.5" font-family="Helvetica,sans-Serif" font-size="10.00">+ set_interactive_handler()</text>
<text text-anchor="start" x="8" y="-51.5" font-family="Helvetica,sans-Serif" font-size="10.00">+ set_non_interactive</text>
<text text-anchor="start" x="8" y="-40.5" font-family="Helvetica,sans-Serif" font-size="10.00">_handler()</text>
<text text-anchor="start" x="8" y="-29.5" font-family="Helvetica,sans-Serif" font-size="10.00">+ add_promiscuous_hook()</text>
<text text-anchor="start" x="8" y="-18.5" font-family="Helvetica,sans-Serif" font-size="10.00">+ remove_promiscuous_hook()</text>
<text text-anchor="start" x="8" y="-7.5" font-family="Helvetica,sans-Serif" font-size="10.00">+ indicate()</text>
</a>
</g>
</g>
<!-- Node2 -->
<g id="node2" class="node">
<title>Node2</title>
<g id="a_node2"><a xlink:href="../../d2/dde/classvanetza_1_1geonet_1_1TransportInterface.html" target="_top" xlink:title=" ">
<polygon fill="white" stroke="black" points="9,-182.5 9,-261.5 141,-261.5 141,-182.5 9,-182.5"/>
<text text-anchor="start" x="17" y="-249.5" font-family="Helvetica,sans-Serif" font-size="10.00">vanetza::geonet::Transport</text>
<text text-anchor="middle" x="75" y="-238.5" font-family="Helvetica,sans-Serif" font-size="10.00">Interface</text>
<polyline fill="none" stroke="black" points="9,-231.5 141,-231.5 "/>
<text text-anchor="middle" x="75" y="-219.5" font-family="Helvetica,sans-Serif" font-size="10.00"> </text>
<polyline fill="none" stroke="black" points="9,-212.5 141,-212.5 "/>
<text text-anchor="start" x="17" y="-200.5" font-family="Helvetica,sans-Serif" font-size="10.00">+ indicate()</text>
<text text-anchor="start" x="17" y="-189.5" font-family="Helvetica,sans-Serif" font-size="10.00">+ ~TransportInterface()</text>
</a>
</g>
</g>
<!-- Node2&#45;&gt;Node1 -->
<g id="edge1" class="edge">
<title>Node2&#45;&gt;Node1</title>
<path fill="none" stroke="midnightblue" d="M75,-172.24C75,-163.7 75,-154.65 75,-145.64"/>
<polygon fill="none" stroke="midnightblue" points="71.5,-172.38 75,-182.38 78.5,-172.38 71.5,-172.38"/>
</g>
</g>
</svg>
