<?xml version="1.0" encoding="UTF-8" standalone="no"?>
<!DOCTYPE svg PUBLIC "-//W3C//DTD SVG 1.1//EN"
 "http://www.w3.org/Graphics/SVG/1.1/DTD/svg11.dtd">
<!-- Generated by graphviz version 2.42.1 (0)
 -->
<!-- Title: vanetza::btp::PortDispatcher Pages: 1 -->
<svg width="152pt" height="259pt"
 viewBox="0.00 0.00 152.00 259.00" xmlns="http://www.w3.org/2000/svg" xmlns:xlink="http://www.w3.org/1999/xlink">
<g id="graph0" class="graph" transform="scale(1 1) rotate(0) translate(4 255)">
<title>vanetza::btp::PortDispatcher</title>
<polygon fill="white" stroke="transparent" points="-4,4 -4,-255 148,-255 148,4 -4,4"/>
<!-- Node0 -->
<g id="node1" class="node">
<title>Node0</title>
<g id="a_node1"><a xlink:title=" ">
<polygon fill="#bfbfbf" stroke="black" points="0,-0.5 0,-134.5 144,-134.5 144,-0.5 0,-0.5"/>
<text text-anchor="middle" x="72" y="-122.5" font-family="Helvetica,sans-Serif" font-size="10.00">vanetza::btp::PortDispatcher</text>
<polyline fill="none" stroke="black" points="0,-115.5 144,-115.5 "/>
<text text-anchor="start" x="8" y="-103.5" font-family="Helvetica,sans-Serif" font-size="10.00">+ hook_undispatched</text>
<text text-anchor="start" x="8" y="-92.5" font-family="Helvetica,sans-Serif" font-size="10.00">&#45; m_interactive_handlers</text>
<text text-anchor="start" x="8" y="-81.5" font-family="Helvetica,sans-Serif" font-size="10.00">&#45; m_non_interactive_handlers</text>
<text text-anchor="start" x="8" y="-70.5" font-family="Helvetica,sans-Serif" font-size="10.00">&#45; m_promiscuous_hooks</text>
<polyline fill="none" stroke="black" points="0,-63.5 144,-63.5 "/>
<text text-anchor="start" x="8" y="-51.5" font-family="Helvetica,sans-Serif" font-size="10.00">+ set_interactive_handler()</text>
<text text-anchor="start" x="8" y="-40.5" font-family="Helvetica,sans-Serif" font-size="10.00">+ set_non_interactive</text>
<text text-anchor="start" x="8" y="-29.5" font-family="Helvetica,sans-Serif" font-size="10.00">_handler()</text>
<text text-anchor="start" x="8" y="-18.5" font-family="Helvetica,sans-Serif" font-size="10.00">+ add_promiscuous_hook()</text>
<text text-anchor="start" x="8" y="-7.5" font-family="Helvetica,sans-Serif" font-size="10.00">+ indicate()</text>
</a>
</g>
</g>
<!-- Node1 -->
<g id="node2" class="node">
<title>Node1</title>
<g id="a_node2"><a xlink:href="../../d2/dde/classvanetza_1_1geonet_1_1TransportInterface.html" target="_top" xlink:title=" ">
<polygon fill="white" stroke="black" points="5,-171.5 5,-250.5 139,-250.5 139,-171.5 5,-171.5"/>
<text text-anchor="start" x="13" y="-238.5" font-family="Helvetica,sans-Serif" font-size="10.00">vanetza::geonet::Transport</text>
<text text-anchor="middle" x="72" y="-227.5" font-family="Helvetica,sans-Serif" font-size="10.00">Interface</text>
<polyline fill="none" stroke="black" points="5,-220.5 139,-220.5 "/>
<text text-anchor="middle" x="72" y="-208.5" font-family="Helvetica,sans-Serif" font-size="10.00"> </text>
<polyline fill="none" stroke="black" points="5,-201.5 139,-201.5 "/>
<text text-anchor="start" x="13" y="-189.5" font-family="Helvetica,sans-Serif" font-size="10.00">+ indicate()</text>
<text text-anchor="start" x="13" y="-178.5" font-family="Helvetica,sans-Serif" font-size="10.00">+ ~TransportInterface()</text>
</a>
</g>
</g>
<!-- Node1&#45;&gt;Node0 -->
<g id="edge1" class="edge">
<title>Node1&#45;&gt;Node0</title>
<path fill="none" stroke="midnightblue" d="M72,-161.16C72,-152.59 72,-143.55 72,-134.6"/>
<polygon fill="none" stroke="midnightblue" points="68.5,-161.33 72,-171.33 75.5,-161.33 68.5,-161.33"/>
</g>
</g>
</svg>
