<?xml version="1.0" encoding="UTF-8" standalone="no"?>
<!DOCTYPE svg PUBLIC "-//W3C//DTD SVG 1.1//EN"
 "http://www.w3.org/Graphics/SVG/1.1/DTD/svg11.dtd">
<!-- Generated by graphviz version 2.49.3 (0)
 -->
<!-- Title: vanetza::UnitInterval Pages: 1 -->
<svg width="363pt" height="463pt"
 viewBox="0.00 0.00 362.50 463.00" xmlns="http://www.w3.org/2000/svg" xmlns:xlink="http://www.w3.org/1999/xlink">
<g id="graph0" class="graph" transform="scale(1 1) rotate(0) translate(4 459)">
<title>vanetza::UnitInterval</title>
<!-- Node1 -->
<g id="node1" class="node">
<title>Node1</title>
<g id="a_node1"><a xlink:title=" ">
<polygon fill="#999999" stroke="#666666" points="116,-160.5 116,-349.5 223,-349.5 223,-160.5 116,-160.5"/>
<text text-anchor="middle" x="169.5" y="-337.5" font-family="Helvetica,sans-Serif" font-size="10.00">vanetza::UnitInterval</text>
<polyline fill="none" stroke="#666666" points="116,-330.5 223,-330.5 "/>
<text text-anchor="start" x="124" y="-318.5" font-family="Helvetica,sans-Serif" font-size="10.00">&#45; m_value</text>
<polyline fill="none" stroke="#666666" points="116,-311.5 223,-311.5 "/>
<text text-anchor="start" x="124" y="-299.5" font-family="Helvetica,sans-Serif" font-size="10.00">+ UnitInterval()</text>
<text text-anchor="start" x="124" y="-288.5" font-family="Helvetica,sans-Serif" font-size="10.00">+ UnitInterval()</text>
<text text-anchor="start" x="124" y="-277.5" font-family="Helvetica,sans-Serif" font-size="10.00">+ UnitInterval()</text>
<text text-anchor="start" x="124" y="-266.5" font-family="Helvetica,sans-Serif" font-size="10.00">+ operator=()</text>
<text text-anchor="start" x="124" y="-255.5" font-family="Helvetica,sans-Serif" font-size="10.00">+ operator+=()</text>
<text text-anchor="start" x="124" y="-244.5" font-family="Helvetica,sans-Serif" font-size="10.00">+ operator&#45;=()</text>
<text text-anchor="start" x="124" y="-233.5" font-family="Helvetica,sans-Serif" font-size="10.00">+ operator*=()</text>
<text text-anchor="start" x="124" y="-222.5" font-family="Helvetica,sans-Serif" font-size="10.00">+ operator/=()</text>
<text text-anchor="start" x="124" y="-211.5" font-family="Helvetica,sans-Serif" font-size="10.00">+ operator+=()</text>
<text text-anchor="start" x="124" y="-200.5" font-family="Helvetica,sans-Serif" font-size="10.00">+ operator&#45;=()</text>
<text text-anchor="start" x="124" y="-189.5" font-family="Helvetica,sans-Serif" font-size="10.00">and 6 more...</text>
<text text-anchor="start" x="124" y="-178.5" font-family="Helvetica,sans-Serif" font-size="10.00">&#45; clamp()</text>
<text text-anchor="start" x="124" y="-167.5" font-family="Helvetica,sans-Serif" font-size="10.00">&#45; clamp()</text>
</a>
</g>
</g>
<!-- Node5 -->
<g id="node5" class="node">
<title>Node5</title>
<g id="a_node5"><a xlink:href="../../dc/d86/classvanetza_1_1dcc_1_1ChannelLoad.html" target="_top" xlink:title=" ">
<polygon fill="white" stroke="#bfbfbf" points="102,-0.5 102,-123.5 237,-123.5 237,-0.5 102,-0.5"/>
<text text-anchor="middle" x="169.5" y="-111.5" font-family="Helvetica,sans-Serif" font-size="10.00">vanetza::dcc::ChannelLoad</text>
<polyline fill="none" stroke="#bfbfbf" points="102,-104.5 237,-104.5 "/>
<text text-anchor="middle" x="169.5" y="-92.5" font-family="Helvetica,sans-Serif" font-size="10.00"> </text>
<polyline fill="none" stroke="#bfbfbf" points="102,-85.5 237,-85.5 "/>
<text text-anchor="start" x="110" y="-73.5" font-family="Helvetica,sans-Serif" font-size="10.00">+ ChannelLoad()</text>
<text text-anchor="start" x="110" y="-62.5" font-family="Helvetica,sans-Serif" font-size="10.00">+ ChannelLoad()</text>
<text text-anchor="start" x="110" y="-51.5" font-family="Helvetica,sans-Serif" font-size="10.00">+ ChannelLoad()</text>
<text text-anchor="start" x="110" y="-40.5" font-family="Helvetica,sans-Serif" font-size="10.00">+ UnitInterval()</text>
<text text-anchor="start" x="110" y="-29.5" font-family="Helvetica,sans-Serif" font-size="10.00">+ UnitInterval()</text>
<text text-anchor="start" x="110" y="-18.5" font-family="Helvetica,sans-Serif" font-size="10.00">+ UnitInterval()</text>
<text text-anchor="start" x="110" y="-7.5" font-family="Helvetica,sans-Serif" font-size="10.00">+ create_from_probes()</text>
</a>
</g>
</g>
<!-- Node1&#45;&gt;Node5 -->
<g id="edge4" class="edge">
<title>Node1&#45;&gt;Node5</title>
<path fill="none" stroke="#63b8ff" d="M169.5,-150.23C169.5,-141.19 169.5,-132.26 169.5,-123.75"/>
<polygon fill="none" stroke="#63b8ff" points="166,-150.46 169.5,-160.46 173,-150.46 166,-150.46"/>
</g>
<!-- Node2 -->
<g id="node2" class="node">
<title>Node2</title>
<g id="a_node2"><a xlink:title=" ">
<polygon fill="white" stroke="#bfbfbf" points="0,-386.5 0,-454.5 95,-454.5 95,-386.5 0,-386.5"/>
<text text-anchor="start" x="8" y="-442.5" font-family="Helvetica,sans-Serif" font-size="10.00">boost::arithmetic&lt;</text>
<text text-anchor="middle" x="47.5" y="-431.5" font-family="Helvetica,sans-Serif" font-size="10.00"> UnitInterval &gt;</text>
<polyline fill="none" stroke="#bfbfbf" points="0,-424.5 95,-424.5 "/>
<text text-anchor="middle" x="47.5" y="-412.5" font-family="Helvetica,sans-Serif" font-size="10.00"> </text>
<polyline fill="none" stroke="#bfbfbf" points="0,-405.5 95,-405.5 "/>
<text text-anchor="middle" x="47.5" y="-393.5" font-family="Helvetica,sans-Serif" font-size="10.00"> </text>
</a>
</g>
</g>
<!-- Node2&#45;&gt;Node1 -->
<g id="edge1" class="edge">
<title>Node2&#45;&gt;Node1</title>
<path fill="none" stroke="#8b1a1a" d="M78.32,-378.2C89.73,-362.9 103.02,-345.09 115.88,-327.87"/>
<polygon fill="none" stroke="#8b1a1a" points="75.36,-376.31 72.19,-386.41 80.97,-380.49 75.36,-376.31"/>
</g>
<!-- Node3 -->
<g id="node3" class="node">
<title>Node3</title>
<g id="a_node3"><a xlink:title=" ">
<polygon fill="white" stroke="#bfbfbf" points="113,-386.5 113,-454.5 226,-454.5 226,-386.5 113,-386.5"/>
<text text-anchor="start" x="121" y="-442.5" font-family="Helvetica,sans-Serif" font-size="10.00">boost::arithmetic&lt;</text>
<text text-anchor="middle" x="169.5" y="-431.5" font-family="Helvetica,sans-Serif" font-size="10.00"> UnitInterval, double &gt;</text>
<polyline fill="none" stroke="#bfbfbf" points="113,-424.5 226,-424.5 "/>
<text text-anchor="middle" x="169.5" y="-412.5" font-family="Helvetica,sans-Serif" font-size="10.00"> </text>
<polyline fill="none" stroke="#bfbfbf" points="113,-405.5 226,-405.5 "/>
<text text-anchor="middle" x="169.5" y="-393.5" font-family="Helvetica,sans-Serif" font-size="10.00"> </text>
</a>
</g>
</g>
<!-- Node3&#45;&gt;Node1 -->
<g id="edge2" class="edge">
<title>Node3&#45;&gt;Node1</title>
<path fill="none" stroke="#8b1a1a" d="M169.5,-376.25C169.5,-367.9 169.5,-358.85 169.5,-349.6"/>
<polygon fill="none" stroke="#8b1a1a" points="166,-376.41 169.5,-386.41 173,-376.41 166,-376.41"/>
</g>
<!-- Node4 -->
<g id="node4" class="node">
<title>Node4</title>
<g id="a_node4"><a xlink:title=" ">
<polygon fill="white" stroke="#bfbfbf" points="244.5,-386.5 244.5,-454.5 354.5,-454.5 354.5,-386.5 244.5,-386.5"/>
<text text-anchor="start" x="252.5" y="-442.5" font-family="Helvetica,sans-Serif" font-size="10.00">boost::totally_ordered</text>
<text text-anchor="middle" x="299.5" y="-431.5" font-family="Helvetica,sans-Serif" font-size="10.00">&lt; UnitInterval &gt;</text>
<polyline fill="none" stroke="#bfbfbf" points="244.5,-424.5 354.5,-424.5 "/>
<text text-anchor="middle" x="299.5" y="-412.5" font-family="Helvetica,sans-Serif" font-size="10.00"> </text>
<polyline fill="none" stroke="#bfbfbf" points="244.5,-405.5 354.5,-405.5 "/>
<text text-anchor="middle" x="299.5" y="-393.5" font-family="Helvetica,sans-Serif" font-size="10.00"> </text>
</a>
</g>
</g>
<!-- Node4&#45;&gt;Node1 -->
<g id="edge3" class="edge">
<title>Node4&#45;&gt;Node1</title>
<path fill="none" stroke="#8b1a1a" d="M266.9,-378.5C253.65,-361.84 238,-342.15 223.16,-323.48"/>
<polygon fill="none" stroke="#8b1a1a" points="264.23,-380.76 273.19,-386.41 269.71,-376.41 264.23,-380.76"/>
</g>
</g>
</svg>
