<?xml version="1.0" encoding="UTF-8" standalone="no"?>
<!DOCTYPE svg PUBLIC "-//W3C//DTD SVG 1.1//EN"
 "http://www.w3.org/Graphics/SVG/1.1/DTD/svg11.dtd">
<!-- Generated by graphviz version 2.49.3 (0)
 -->
<!-- Title: vanetza::geonet::OutputArchive::Exception Pages: 1 -->
<svg width="154pt" height="238pt"
 viewBox="0.00 0.00 154.00 238.00" xmlns="http://www.w3.org/2000/svg" xmlns:xlink="http://www.w3.org/1999/xlink">

<svg id="main" version="1.1" xmlns="http://www.w3.org/2000/svg" xmlns:xlink="http://www.w3.org/1999/xlink" xml:space="preserve">

<style type="text/css"><![CDATA[
.node, .edge {opacity: 0.7;}
.node.selected, .edge.selected {opacity: 1;}
.edge:hover path { stroke: red; }
.edge:hover polygon { stroke: red; fill: red; }
]]></style>
<script type="application/ecmascript" xlink:href="../../svg.min.js"/>
<svg id="graph" class="graph">
<g id="graph0" class="graph" transform="scale(1 1) rotate(0) translate(4 234)">
<title>vanetza::geonet::OutputArchive::Exception</title>
<!-- Node1 -->
<g id="Node000001" class="node">
<title>Node1</title>
<g id="a_Node000001"><a xlink:title=" ">
<polygon fill="#999999" stroke="transparent" points="146,-60 0,-60 0,0 146,0 146,-60"/>
<text text-anchor="start" x="5" y="-48" font-family="Helvetica,sans-Serif" font-size="10.00">vanetza::geonet::OutputArchive</text>
<text text-anchor="start" x="48.5" y="-37" font-family="Helvetica,sans-Serif" font-size="10.00">::Exception</text>
<text text-anchor="start" x="71" y="-22" font-family="Helvetica,sans-Serif" font-size="10.00"> </text>
<text text-anchor="start" x="71" y="-7" font-family="Helvetica,sans-Serif" font-size="10.00"> </text>
<polygon fill="#666666" stroke="#666666" points="0,-32 0,-32 146,-32 146,-32 0,-32"/>
<polygon fill="#666666" stroke="#666666" points="0,-17 0,-17 146,-17 146,-17 0,-17"/>
<polygon fill="none" stroke="#666666" points="0,0 0,-60 146,-60 146,0 0,0"/>
</a>
</g>
</g>
<!-- Node2 -->
<g id="Node000002" class="node">
<title>Node2</title>
<g id="a_Node000002"><a xlink:title=" ">
<polygon fill="white" stroke="transparent" points="116.5,-145 29.5,-145 29.5,-96 116.5,-96 116.5,-145"/>
<text text-anchor="start" x="35" y="-132.5" font-family="Helvetica,sans-Serif" font-size="10.00">std::runtime_error</text>
<text text-anchor="start" x="71.5" y="-117.5" font-family="Helvetica,sans-Serif" font-size="10.00"> </text>
<text text-anchor="start" x="71.5" y="-102.5" font-family="Helvetica,sans-Serif" font-size="10.00"> </text>
<polygon fill="#666666" stroke="#666666" points="30,-127.5 30,-127.5 117,-127.5 117,-127.5 30,-127.5"/>
<polygon fill="#666666" stroke="#666666" points="30,-112.5 30,-112.5 117,-112.5 117,-112.5 30,-112.5"/>
<polygon fill="none" stroke="#666666" points="29.5,-96 29.5,-145 116.5,-145 116.5,-96 29.5,-96"/>
</a>
</g>
</g>
<!-- Node2&#45;&gt;Node1 -->
<g id="edge1_Node000001_Node000002" class="edge">
<title>Node2&#45;&gt;Node1</title>
<g id="a_edge1_Node000001_Node000002"><a xlink:title=" ">
<path fill="none" stroke="#63b8ff" d="M73,-85.55C73,-77.18 73,-68.28 73,-60.16"/>
<polygon fill="none" stroke="#63b8ff" points="69.5,-85.78 73,-95.78 76.5,-85.78 69.5,-85.78"/>
</a>
</g>
</g>
<!-- Node3 -->
<g id="Node000003" class="node">
<title>Node3</title>
<g id="a_Node000003"><a xlink:title=" ">
<polygon fill="white" stroke="transparent" points="108.5,-230 37.5,-230 37.5,-181 108.5,-181 108.5,-230"/>
<text text-anchor="start" x="43" y="-217.5" font-family="Helvetica,sans-Serif" font-size="10.00">std::exception</text>
<text text-anchor="start" x="71.5" y="-202.5" font-family="Helvetica,sans-Serif" font-size="10.00"> </text>
<text text-anchor="start" x="71.5" y="-187.5" font-family="Helvetica,sans-Serif" font-size="10.00"> </text>
<polygon fill="#666666" stroke="#666666" points="38,-212.5 38,-212.5 109,-212.5 109,-212.5 38,-212.5"/>
<polygon fill="#666666" stroke="#666666" points="38,-197.5 38,-197.5 109,-197.5 109,-197.5 38,-197.5"/>
<polygon fill="none" stroke="#666666" points="37.5,-181 37.5,-230 108.5,-230 108.5,-181 37.5,-181"/>
</a>
</g>
</g>
<!-- Node3&#45;&gt;Node2 -->
<g id="edge2_Node000002_Node000003" class="edge">
<title>Node3&#45;&gt;Node2</title>
<g id="a_edge2_Node000002_Node000003"><a xlink:title=" ">
<path fill="none" stroke="#63b8ff" d="M73,-170.77C73,-162.17 73,-153.1 73,-145.12"/>
<polygon fill="none" stroke="#63b8ff" points="69.5,-170.94 73,-180.94 76.5,-170.94 69.5,-170.94"/>
</a>
</g>
</g>
</g>
</svg>
</svg>

<style type='text/css'>
<![CDATA[
[data-mouse-over-selected='false'] { opacity: 0.7; }
[data-mouse-over-selected='true']  { opacity: 1.0; }
]]>
</style>
<script type="application/ecmascript"><![CDATA[
document.addEventListener('DOMContentLoaded', (event) => {
  highlightEdges();
  highlightAdjacentNodes();
});
]]></script>
</svg>
