<?xml version="1.0" encoding="UTF-8" standalone="no"?>
<!DOCTYPE svg PUBLIC "-//W3C//DTD SVG 1.1//EN"
 "http://www.w3.org/Graphics/SVG/1.1/DTD/svg11.dtd">
<!-- Generated by graphviz version 2.42.1 (0)
 -->
<!-- Title: vanetza::security::CertificateProvider Pages: 1 -->
<svg width="450pt" height="391pt"
 viewBox="0.00 0.00 450.00 391.00" xmlns="http://www.w3.org/2000/svg" xmlns:xlink="http://www.w3.org/1999/xlink">
<g id="graph0" class="graph" transform="scale(1 1) rotate(0) translate(4 387)">
<title>vanetza::security::CertificateProvider</title>
<polygon fill="white" stroke="transparent" points="-4,4 -4,-387 446,-387 446,4 -4,4"/>
<!-- Node0 -->
<g id="node1" class="node">
<title>Node0</title>
<g id="a_node1"><a xlink:title=" ">
<polygon fill="#bfbfbf" stroke="black" points="161.5,-281.5 161.5,-382.5 280.5,-382.5 280.5,-281.5 161.5,-281.5"/>
<text text-anchor="start" x="169.5" y="-370.5" font-family="Helvetica,sans-Serif" font-size="10.00">vanetza::security::</text>
<text text-anchor="middle" x="221" y="-359.5" font-family="Helvetica,sans-Serif" font-size="10.00">CertificateProvider</text>
<polyline fill="none" stroke="black" points="161.5,-352.5 280.5,-352.5 "/>
<text text-anchor="middle" x="221" y="-340.5" font-family="Helvetica,sans-Serif" font-size="10.00"> </text>
<polyline fill="none" stroke="black" points="161.5,-333.5 280.5,-333.5 "/>
<text text-anchor="start" x="169.5" y="-321.5" font-family="Helvetica,sans-Serif" font-size="10.00">+ own_certificate()</text>
<text text-anchor="start" x="169.5" y="-310.5" font-family="Helvetica,sans-Serif" font-size="10.00">+ own_chain()</text>
<text text-anchor="start" x="169.5" y="-299.5" font-family="Helvetica,sans-Serif" font-size="10.00">+ own_private_key()</text>
<text text-anchor="start" x="169.5" y="-288.5" font-family="Helvetica,sans-Serif" font-size="10.00">+ ~CertificateProvider()</text>
</a>
</g>
</g>
<!-- Node1 -->
<g id="node2" class="node">
<title>Node1</title>
<g id="a_node2"><a xlink:href="../../d5/dda/classvanetza_1_1security_1_1NaiveCertificateProvider.html" target="_top" xlink:title="A very simplistic certificate provider.">
<polygon fill="white" stroke="black" points="0,-0.5 0,-244.5 138,-244.5 138,-0.5 0,-0.5"/>
<text text-anchor="start" x="8" y="-232.5" font-family="Helvetica,sans-Serif" font-size="10.00">vanetza::security::</text>
<text text-anchor="middle" x="69" y="-221.5" font-family="Helvetica,sans-Serif" font-size="10.00">NaiveCertificateProvider</text>
<polyline fill="none" stroke="black" points="0,-214.5 138,-214.5 "/>
<text text-anchor="start" x="8" y="-202.5" font-family="Helvetica,sans-Serif" font-size="10.00">&#45; m_crypto_backend</text>
<text text-anchor="start" x="8" y="-191.5" font-family="Helvetica,sans-Serif" font-size="10.00">&#45; m_runtime</text>
<text text-anchor="start" x="8" y="-180.5" font-family="Helvetica,sans-Serif" font-size="10.00">&#45; m_own_key_pair</text>
<text text-anchor="start" x="8" y="-169.5" font-family="Helvetica,sans-Serif" font-size="10.00">&#45; m_own_certificate</text>
<polyline fill="none" stroke="black" points="0,-162.5 138,-162.5 "/>
<text text-anchor="start" x="8" y="-150.5" font-family="Helvetica,sans-Serif" font-size="10.00">+ NaiveCertificateProvider()</text>
<text text-anchor="start" x="8" y="-139.5" font-family="Helvetica,sans-Serif" font-size="10.00">+ own_certificate()</text>
<text text-anchor="start" x="8" y="-128.5" font-family="Helvetica,sans-Serif" font-size="10.00">+ own_chain()</text>
<text text-anchor="start" x="8" y="-117.5" font-family="Helvetica,sans-Serif" font-size="10.00">+ own_private_key()</text>
<text text-anchor="start" x="8" y="-106.5" font-family="Helvetica,sans-Serif" font-size="10.00">+ aa_certificate()</text>
<text text-anchor="start" x="8" y="-95.5" font-family="Helvetica,sans-Serif" font-size="10.00">+ root_certificate()</text>
<text text-anchor="start" x="8" y="-84.5" font-family="Helvetica,sans-Serif" font-size="10.00">+ generate_authorization</text>
<text text-anchor="start" x="8" y="-73.5" font-family="Helvetica,sans-Serif" font-size="10.00">_ticket()</text>
<text text-anchor="start" x="8" y="-62.5" font-family="Helvetica,sans-Serif" font-size="10.00">+ sign_authorization</text>
<text text-anchor="start" x="8" y="-51.5" font-family="Helvetica,sans-Serif" font-size="10.00">_ticket()</text>
<text text-anchor="start" x="8" y="-40.5" font-family="Helvetica,sans-Serif" font-size="10.00">&#45; aa_key_pair()</text>
<text text-anchor="start" x="8" y="-29.5" font-family="Helvetica,sans-Serif" font-size="10.00">&#45; root_key_pair()</text>
<text text-anchor="start" x="8" y="-18.5" font-family="Helvetica,sans-Serif" font-size="10.00">&#45; generate_aa_certificate()</text>
<text text-anchor="start" x="8" y="-7.5" font-family="Helvetica,sans-Serif" font-size="10.00">&#45; generate_root_certificate()</text>
</a>
</g>
</g>
<!-- Node0&#45;&gt;Node1 -->
<g id="edge1" class="edge">
<title>Node0&#45;&gt;Node1</title>
<path fill="none" stroke="midnightblue" d="M169.77,-273.69C161.92,-264.28 154.08,-254.5 147,-245 144,-240.98 141,-236.85 138.01,-232.64"/>
<polygon fill="none" stroke="midnightblue" points="167.23,-276.11 176.35,-281.5 172.58,-271.59 167.23,-276.11"/>
</g>
<!-- Node2 -->
<g id="node3" class="node">
<title>Node2</title>
<g id="a_node3"><a xlink:href="../../d6/d85/classvanetza_1_1security_1_1NullCertificateProvider.html" target="_top" xlink:title=" ">
<polygon fill="white" stroke="black" points="156,-66.5 156,-178.5 286,-178.5 286,-66.5 156,-66.5"/>
<text text-anchor="start" x="164" y="-166.5" font-family="Helvetica,sans-Serif" font-size="10.00">vanetza::security::</text>
<text text-anchor="middle" x="221" y="-155.5" font-family="Helvetica,sans-Serif" font-size="10.00">NullCertificateProvider</text>
<polyline fill="none" stroke="black" points="156,-148.5 286,-148.5 "/>
<text text-anchor="middle" x="221" y="-136.5" font-family="Helvetica,sans-Serif" font-size="10.00"> </text>
<polyline fill="none" stroke="black" points="156,-129.5 286,-129.5 "/>
<text text-anchor="start" x="164" y="-117.5" font-family="Helvetica,sans-Serif" font-size="10.00">+ NullCertificateProvider()</text>
<text text-anchor="start" x="164" y="-106.5" font-family="Helvetica,sans-Serif" font-size="10.00">+ own_certificate()</text>
<text text-anchor="start" x="164" y="-95.5" font-family="Helvetica,sans-Serif" font-size="10.00">+ own_chain()</text>
<text text-anchor="start" x="164" y="-84.5" font-family="Helvetica,sans-Serif" font-size="10.00">+ own_private_key()</text>
<text text-anchor="start" x="164" y="-73.5" font-family="Helvetica,sans-Serif" font-size="10.00">+ null_certificate()</text>
</a>
</g>
</g>
<!-- Node0&#45;&gt;Node2 -->
<g id="edge2" class="edge">
<title>Node0&#45;&gt;Node2</title>
<path fill="none" stroke="midnightblue" d="M221,-271.23C221,-242.05 221,-207.17 221,-178.64"/>
<polygon fill="none" stroke="midnightblue" points="217.5,-271.3 221,-281.3 224.5,-271.3 217.5,-271.3"/>
</g>
<!-- Node3 -->
<g id="node4" class="node">
<title>Node3</title>
<g id="a_node4"><a xlink:href="../../d1/dd6/classvanetza_1_1security_1_1StaticCertificateProvider.html" target="_top" xlink:title="A simple certificate provider.">
<polygon fill="white" stroke="black" points="304,-55.5 304,-189.5 442,-189.5 442,-55.5 304,-55.5"/>
<text text-anchor="start" x="312" y="-177.5" font-family="Helvetica,sans-Serif" font-size="10.00">vanetza::security::</text>
<text text-anchor="middle" x="373" y="-166.5" font-family="Helvetica,sans-Serif" font-size="10.00">StaticCertificateProvider</text>
<polyline fill="none" stroke="black" points="304,-159.5 442,-159.5 "/>
<text text-anchor="start" x="312" y="-147.5" font-family="Helvetica,sans-Serif" font-size="10.00">&#45; authorization_ticket</text>
<text text-anchor="start" x="312" y="-136.5" font-family="Helvetica,sans-Serif" font-size="10.00">&#45; authorization_ticket_key</text>
<text text-anchor="start" x="312" y="-125.5" font-family="Helvetica,sans-Serif" font-size="10.00">&#45; chain</text>
<polyline fill="none" stroke="black" points="304,-118.5 442,-118.5 "/>
<text text-anchor="start" x="312" y="-106.5" font-family="Helvetica,sans-Serif" font-size="10.00">+ StaticCertificateProvider()</text>
<text text-anchor="start" x="312" y="-95.5" font-family="Helvetica,sans-Serif" font-size="10.00">+ StaticCertificateProvider()</text>
<text text-anchor="start" x="312" y="-84.5" font-family="Helvetica,sans-Serif" font-size="10.00">+ own_certificate()</text>
<text text-anchor="start" x="312" y="-73.5" font-family="Helvetica,sans-Serif" font-size="10.00">+ own_chain()</text>
<text text-anchor="start" x="312" y="-62.5" font-family="Helvetica,sans-Serif" font-size="10.00">+ own_private_key()</text>
</a>
</g>
</g>
<!-- Node0&#45;&gt;Node3 -->
<g id="edge3" class="edge">
<title>Node0&#45;&gt;Node3</title>
<path fill="none" stroke="midnightblue" d="M272.23,-273.69C280.08,-264.28 287.92,-254.5 295,-245 308.03,-227.52 321.22,-207.88 332.94,-189.58"/>
<polygon fill="none" stroke="midnightblue" points="269.42,-271.59 265.65,-281.5 274.77,-276.11 269.42,-271.59"/>
</g>
</g>
</svg>
