<?xml version="1.0" encoding="UTF-8" standalone="no"?>
<!DOCTYPE svg PUBLIC "-//W3C//DTD SVG 1.1//EN"
 "http://www.w3.org/Graphics/SVG/1.1/DTD/svg11.dtd">
<!-- Generated by graphviz version 14.1.2 (0)
 -->
<!-- Title: vanetza::rpc::AsioEventPort Pages: 1 -->
<svg width="150pt" height="337pt"
 viewBox="0.00 0.00 150.00 337.00" xmlns="http://www.w3.org/2000/svg" xmlns:xlink="http://www.w3.org/1999/xlink">
<g id="graph0" class="graph" transform="scale(1 1) rotate(0) translate(4 332.75)">
<title>vanetza::rpc::AsioEventPort</title>
<!-- Node1 -->
<g id="Node000001" class="node">
<title>Node1</title>
<g id="a_Node000001"><a xlink:title=" ">
<polygon fill="#999999" stroke="none" points="142.25,-238.5 0,-238.5 0,0 142.25,0 142.25,-238.5"/>
<text xml:space="preserve" text-anchor="start" x="4" y="-225" font-family="Helvetica,sans-Serif" font-size="10.00">vanetza::rpc::AsioEventPort</text>
<text xml:space="preserve" text-anchor="start" x="17.81" y="-208.25" font-family="Helvetica,sans-Serif" font-size="10.00">&#45;</text>
<text xml:space="preserve" text-anchor="start" x="39.38" y="-208.25" font-family="Helvetica,sans-Serif" font-size="10.00">io_</text>
<text xml:space="preserve" text-anchor="start" x="17.81" y="-191.5" font-family="Helvetica,sans-Serif" font-size="10.00">&#45;</text>
<text xml:space="preserve" text-anchor="start" x="39.38" y="-191.5" font-family="Helvetica,sans-Serif" font-size="10.00">steady_timer_</text>
<text xml:space="preserve" text-anchor="start" x="17.81" y="-174.75" font-family="Helvetica,sans-Serif" font-size="10.00">&#45;</text>
<text xml:space="preserve" text-anchor="start" x="39.38" y="-174.75" font-family="Helvetica,sans-Serif" font-size="10.00">loop_</text>
<text xml:space="preserve" text-anchor="start" x="17.81" y="-158" font-family="Helvetica,sans-Serif" font-size="10.00">&#45;</text>
<text xml:space="preserve" text-anchor="start" x="39.38" y="-158" font-family="Helvetica,sans-Serif" font-size="10.00">clock_</text>
<text xml:space="preserve" text-anchor="start" x="17.81" y="-141.25" font-family="Helvetica,sans-Serif" font-size="10.00">&#45;</text>
<text xml:space="preserve" text-anchor="start" x="39.38" y="-141.25" font-family="Helvetica,sans-Serif" font-size="10.00">timer_</text>
<text xml:space="preserve" text-anchor="start" x="15.56" y="-124.5" font-family="Helvetica,sans-Serif" font-size="10.00">+</text>
<text xml:space="preserve" text-anchor="start" x="39.38" y="-124.5" font-family="Helvetica,sans-Serif" font-size="10.00">AsioEventPort()</text>
<text xml:space="preserve" text-anchor="start" x="15.56" y="-107.75" font-family="Helvetica,sans-Serif" font-size="10.00">+</text>
<text xml:space="preserve" text-anchor="start" x="39.38" y="-107.75" font-family="Helvetica,sans-Serif" font-size="10.00">wait()</text>
<text xml:space="preserve" text-anchor="start" x="15.56" y="-91" font-family="Helvetica,sans-Serif" font-size="10.00">+</text>
<text xml:space="preserve" text-anchor="start" x="39.38" y="-91" font-family="Helvetica,sans-Serif" font-size="10.00">poll()</text>
<text xml:space="preserve" text-anchor="start" x="15.56" y="-74.25" font-family="Helvetica,sans-Serif" font-size="10.00">+</text>
<text xml:space="preserve" text-anchor="start" x="39.38" y="-74.25" font-family="Helvetica,sans-Serif" font-size="10.00">setRunnable()</text>
<text xml:space="preserve" text-anchor="start" x="15.56" y="-57.5" font-family="Helvetica,sans-Serif" font-size="10.00">+</text>
<text xml:space="preserve" text-anchor="start" x="39.38" y="-57.5" font-family="Helvetica,sans-Serif" font-size="10.00">setLoop()</text>
<text xml:space="preserve" text-anchor="start" x="15.56" y="-40.75" font-family="Helvetica,sans-Serif" font-size="10.00">+</text>
<text xml:space="preserve" text-anchor="start" x="39.38" y="-40.75" font-family="Helvetica,sans-Serif" font-size="10.00">getTimer()</text>
<text xml:space="preserve" text-anchor="start" x="17.81" y="-24" font-family="Helvetica,sans-Serif" font-size="10.00">&#45;</text>
<text xml:space="preserve" text-anchor="start" x="39.38" y="-24" font-family="Helvetica,sans-Serif" font-size="10.00">advanceTime()</text>
<text xml:space="preserve" text-anchor="start" x="17.81" y="-7.25" font-family="Helvetica,sans-Serif" font-size="10.00">&#45;</text>
<text xml:space="preserve" text-anchor="start" x="39.38" y="-7.25" font-family="Helvetica,sans-Serif" font-size="10.00">armTimeout()</text>
<polygon fill="#666666" stroke="#666666" points="0,-219.75 0,-219.75 142.25,-219.75 142.25,-219.75 0,-219.75"/>
<polygon fill="#666666" stroke="#666666" points="0,-136 0,-136 37.38,-136 37.38,-136 0,-136"/>
<polygon fill="#666666" stroke="#666666" points="37.38,-136 37.38,-136 142.25,-136 142.25,-136 37.38,-136"/>
<polygon fill="none" stroke="#666666" points="0,0 0,-238.5 142.25,-238.5 142.25,0 0,0"/>
</a>
</g>
</g>
<!-- Node2 -->
<g id="Node000002" class="node">
<title>Node2</title>
<g id="a_Node000002"><a xlink:title=" ">
<polygon fill="white" stroke="none" points="106.25,-328.75 36,-328.75 36,-274.5 106.25,-274.5 106.25,-328.75"/>
<text xml:space="preserve" text-anchor="start" x="40" y="-315.25" font-family="Helvetica,sans-Serif" font-size="10.00">kj::EventPort</text>
<text xml:space="preserve" text-anchor="start" x="69.62" y="-298.5" font-family="Helvetica,sans-Serif" font-size="10.00"> </text>
<text xml:space="preserve" text-anchor="start" x="69.62" y="-281.75" font-family="Helvetica,sans-Serif" font-size="10.00"> </text>
<polygon fill="#bfbfbf" stroke="#bfbfbf" points="36,-310 36,-310 106.25,-310 106.25,-310 36,-310"/>
<polygon fill="#bfbfbf" stroke="#bfbfbf" points="36,-293.25 36,-293.25 106.25,-293.25 106.25,-293.25 36,-293.25"/>
<polygon fill="none" stroke="#bfbfbf" points="36,-274.5 36,-328.75 106.25,-328.75 106.25,-274.5 36,-274.5"/>
</a>
</g>
</g>
<!-- Node2&#45;&gt;Node1 -->
<g id="edge1_Node000001_Node000002" class="edge">
<title>Node2&#45;&gt;Node1</title>
<g id="a_edge1_Node000001_Node000002"><a xlink:title=" ">
<path fill="none" stroke="#63b8ff" d="M71.12,-263.36C71.12,-255.63 71.12,-247.1 71.12,-238.18"/>
<polygon fill="none" stroke="#63b8ff" points="67.63,-263.27 71.13,-273.27 74.63,-263.27 67.63,-263.27"/>
</a>
</g>
</g>
</g>
</svg>
