<?xml version="1.0" encoding="UTF-8" standalone="no"?>
<!DOCTYPE svg PUBLIC "-//W3C//DTD SVG 1.1//EN"
 "http://www.w3.org/Graphics/SVG/1.1/DTD/svg11.dtd">
<!-- Generated by graphviz version 2.49.3 (0)
 -->
<!-- Title: vanetza::security::v2::header_field_type&lt; HeaderFieldType::Its_Aid &gt; Pages: 1 -->
<svg width="173pt" height="218pt"
 viewBox="0.00 0.00 172.50 218.00" xmlns="http://www.w3.org/2000/svg" xmlns:xlink="http://www.w3.org/1999/xlink">
<g id="graph0" class="graph" transform="scale(1 1) rotate(0) translate(4 214)">
<title>vanetza::security::v2::header_field_type&lt; HeaderFieldType::Its_Aid &gt;</title>
<!-- Node1 -->
<g id="Node000001" class="node">
<title>Node1</title>
<g id="a_Node000001"><a xlink:title=" ">
<polygon fill="#999999" stroke="transparent" points="139,-71 0,-71 0,0 139,0 139,-71"/>
<text text-anchor="start" x="5.5" y="-58.5" font-family="Helvetica,sans-Serif" font-size="10.00">vanetza::security::</text>
<text text-anchor="start" x="5.5" y="-47.5" font-family="Helvetica,sans-Serif" font-size="10.00">v2::header_field_type</text>
<text text-anchor="start" x="5.5" y="-36.5" font-family="Helvetica,sans-Serif" font-size="10.00">&lt; HeaderFieldType::Its_Aid &gt;</text>
<text text-anchor="start" x="68" y="-21.5" font-family="Helvetica,sans-Serif" font-size="10.00"> </text>
<text text-anchor="start" x="68" y="-6.5" font-family="Helvetica,sans-Serif" font-size="10.00"> </text>
<polygon fill="#666666" stroke="#666666" points="0.5,-31.5 0.5,-31.5 139.5,-31.5 139.5,-31.5 0.5,-31.5"/>
<polygon fill="#666666" stroke="#666666" points="0.5,-16.5 0.5,-16.5 139.5,-16.5 139.5,-16.5 0.5,-16.5"/>
<polygon fill="none" stroke="#666666" points="0,0 0,-71 139,-71 139,0 0,0"/>
</a>
</g>
</g>
<!-- Node2 -->
<g id="Node000002" class="node">
<title>Node2</title>
<g id="a_Node000002"><a xlink:href="../../d9/d3a/structvanetza_1_1security_1_1v2_1_1header__field__type.html" target="_top" xlink:title="resolve type for matching HeaderFieldType">
<polygon fill="white" stroke="transparent" points="121.5,-210 17.5,-210 17.5,-139 121.5,-139 121.5,-210"/>
<text text-anchor="start" x="22.5" y="-197.5" font-family="Helvetica,sans-Serif" font-size="10.00">vanetza::security::</text>
<text text-anchor="start" x="22.5" y="-186.5" font-family="Helvetica,sans-Serif" font-size="10.00">v2::header_field_type</text>
<text text-anchor="start" x="23.5" y="-175.5" font-family="Helvetica,sans-Serif" font-size="10.00">&lt; HeaderFieldType &gt;</text>
<text text-anchor="start" x="67.5" y="-160.5" font-family="Helvetica,sans-Serif" font-size="10.00"> </text>
<text text-anchor="start" x="67.5" y="-145.5" font-family="Helvetica,sans-Serif" font-size="10.00"> </text>
<polygon fill="#666666" stroke="#666666" points="17.5,-170.5 17.5,-170.5 121.5,-170.5 121.5,-170.5 17.5,-170.5"/>
<polygon fill="#666666" stroke="#666666" points="17.5,-155.5 17.5,-155.5 121.5,-155.5 121.5,-155.5 17.5,-155.5"/>
<polygon fill="none" stroke="#666666" points="17.5,-139 17.5,-210 121.5,-210 121.5,-139 17.5,-139"/>
</a>
</g>
</g>
<!-- Node2&#45;&gt;Node1 -->
<g id="edge1_Node000001_Node000002" class="edge">
<title>Node2&#45;&gt;Node1</title>
<g id="a_edge1_Node000001_Node000002"><a xlink:title=" ">
<path fill="none" stroke="orange" d="M69.5,-128.83C69.5,-110.07 69.5,-88.58 69.5,-71.06"/>
<polygon fill="orange" stroke="orange" points="66,-128.93 69.5,-138.93 73,-128.93 66,-128.93"/>
</a>
</g>
<text text-anchor="start" x="73" y="-110" font-family="Helvetica,sans-Serif" font-size="10.00" fill="grey">&lt; HeaderFieldType::</text>
<text text-anchor="start" x="73" y="-95" font-family="Helvetica,sans-Serif" font-size="10.00" fill="grey">  Its_Aid &gt;</text>
</g>
</g>
</svg>
