<?xml version="1.0" encoding="UTF-8" standalone="no"?>
<!DOCTYPE svg PUBLIC "-//W3C//DTD SVG 1.1//EN"
 "http://www.w3.org/Graphics/SVG/1.1/DTD/svg11.dtd">
<!-- Generated by graphviz version 2.49.3 (0)
 -->
<!-- Title: vanetza::dcc::FlowControl Pages: 1 -->
<svg width="155pt" height="498pt"
 viewBox="0.00 0.00 155.00 498.00" xmlns="http://www.w3.org/2000/svg" xmlns:xlink="http://www.w3.org/1999/xlink">
<g id="graph0" class="graph" transform="scale(1 1) rotate(0) translate(4 494)">
<title>vanetza::dcc::FlowControl</title>
<!-- Node1 -->
<g id="Node000001" class="node">
<title>Node1</title>
<g id="a_Node000001"><a xlink:title=" ">
<polygon fill="#999999" stroke="transparent" points="137.5,-390 9.5,-390 9.5,0 137.5,0 137.5,-390"/>
<text text-anchor="start" x="16" y="-378" font-family="Helvetica,sans-Serif" font-size="10.00">vanetza::dcc::FlowControl</text>
<text text-anchor="start" x="15" y="-363" font-family="Helvetica,sans-Serif" font-size="10.00">&#45;</text>
<text text-anchor="start" x="24.5" y="-363" font-family="Helvetica,sans-Serif" font-size="10.00">m_runtime</text>
<text text-anchor="start" x="15" y="-348" font-family="Helvetica,sans-Serif" font-size="10.00">&#45;</text>
<text text-anchor="start" x="24.5" y="-348" font-family="Helvetica,sans-Serif" font-size="10.00">m_trc</text>
<text text-anchor="start" x="15" y="-333" font-family="Helvetica,sans-Serif" font-size="10.00">&#45;</text>
<text text-anchor="start" x="24.5" y="-333" font-family="Helvetica,sans-Serif" font-size="10.00">m_access</text>
<text text-anchor="start" x="15" y="-318" font-family="Helvetica,sans-Serif" font-size="10.00">&#45;</text>
<text text-anchor="start" x="24.5" y="-318" font-family="Helvetica,sans-Serif" font-size="10.00">m_queues</text>
<text text-anchor="start" x="15" y="-303" font-family="Helvetica,sans-Serif" font-size="10.00">&#45;</text>
<text text-anchor="start" x="24.5" y="-303" font-family="Helvetica,sans-Serif" font-size="10.00">m_queue_length</text>
<text text-anchor="start" x="15" y="-288" font-family="Helvetica,sans-Serif" font-size="10.00">&#45;</text>
<text text-anchor="start" x="24.5" y="-288" font-family="Helvetica,sans-Serif" font-size="10.00">m_packet_drop_hook</text>
<text text-anchor="start" x="15" y="-273" font-family="Helvetica,sans-Serif" font-size="10.00">&#45;</text>
<text text-anchor="start" x="24.5" y="-273" font-family="Helvetica,sans-Serif" font-size="10.00">m_packet_transmit_hook</text>
<text text-anchor="start" x="13.5" y="-258" font-family="Helvetica,sans-Serif" font-size="10.00">+</text>
<text text-anchor="start" x="24.5" y="-258" font-family="Helvetica,sans-Serif" font-size="10.00">FlowControl()</text>
<text text-anchor="start" x="13.5" y="-243" font-family="Helvetica,sans-Serif" font-size="10.00">+</text>
<text text-anchor="start" x="24.5" y="-243" font-family="Helvetica,sans-Serif" font-size="10.00">~FlowControl()</text>
<text text-anchor="start" x="13.5" y="-228" font-family="Helvetica,sans-Serif" font-size="10.00">+</text>
<text text-anchor="start" x="24.5" y="-228" font-family="Helvetica,sans-Serif" font-size="10.00">request()</text>
<text text-anchor="start" x="13.5" y="-213" font-family="Helvetica,sans-Serif" font-size="10.00">+</text>
<text text-anchor="start" x="24.5" y="-213" font-family="Helvetica,sans-Serif" font-size="10.00">set_packet_drop_hook()</text>
<text text-anchor="start" x="13.5" y="-198" font-family="Helvetica,sans-Serif" font-size="10.00">+</text>
<text text-anchor="start" x="24.5" y="-198" font-family="Helvetica,sans-Serif" font-size="10.00">set_packet_transmit</text>
<text text-anchor="start" x="24.5" y="-187" font-family="Helvetica,sans-Serif" font-size="10.00">_hook()</text>
<text text-anchor="start" x="13.5" y="-172" font-family="Helvetica,sans-Serif" font-size="10.00">+</text>
<text text-anchor="start" x="24.5" y="-172" font-family="Helvetica,sans-Serif" font-size="10.00">queue_length()</text>
<text text-anchor="start" x="13.5" y="-157" font-family="Helvetica,sans-Serif" font-size="10.00">+</text>
<text text-anchor="start" x="24.5" y="-157" font-family="Helvetica,sans-Serif" font-size="10.00">reschedule()</text>
<text text-anchor="start" x="15" y="-142" font-family="Helvetica,sans-Serif" font-size="10.00">&#45;</text>
<text text-anchor="start" x="24.5" y="-142" font-family="Helvetica,sans-Serif" font-size="10.00">enqueue()</text>
<text text-anchor="start" x="15" y="-127" font-family="Helvetica,sans-Serif" font-size="10.00">&#45;</text>
<text text-anchor="start" x="24.5" y="-127" font-family="Helvetica,sans-Serif" font-size="10.00">dequeue()</text>
<text text-anchor="start" x="15" y="-112" font-family="Helvetica,sans-Serif" font-size="10.00">&#45;</text>
<text text-anchor="start" x="24.5" y="-112" font-family="Helvetica,sans-Serif" font-size="10.00">transmit()</text>
<text text-anchor="start" x="15" y="-97" font-family="Helvetica,sans-Serif" font-size="10.00">&#45;</text>
<text text-anchor="start" x="24.5" y="-97" font-family="Helvetica,sans-Serif" font-size="10.00">transmit_immediately()</text>
<text text-anchor="start" x="15" y="-82" font-family="Helvetica,sans-Serif" font-size="10.00">&#45;</text>
<text text-anchor="start" x="24.5" y="-82" font-family="Helvetica,sans-Serif" font-size="10.00">drop_expired()</text>
<text text-anchor="start" x="15" y="-67" font-family="Helvetica,sans-Serif" font-size="10.00">&#45;</text>
<text text-anchor="start" x="24.5" y="-67" font-family="Helvetica,sans-Serif" font-size="10.00">empty()</text>
<text text-anchor="start" x="15" y="-52" font-family="Helvetica,sans-Serif" font-size="10.00">&#45;</text>
<text text-anchor="start" x="24.5" y="-52" font-family="Helvetica,sans-Serif" font-size="10.00">trigger()</text>
<text text-anchor="start" x="15" y="-37" font-family="Helvetica,sans-Serif" font-size="10.00">&#45;</text>
<text text-anchor="start" x="24.5" y="-37" font-family="Helvetica,sans-Serif" font-size="10.00">schedule_trigger()</text>
<text text-anchor="start" x="15" y="-22" font-family="Helvetica,sans-Serif" font-size="10.00">&#45;</text>
<text text-anchor="start" x="24.5" y="-22" font-family="Helvetica,sans-Serif" font-size="10.00">next_transmission()</text>
<text text-anchor="start" x="15" y="-7" font-family="Helvetica,sans-Serif" font-size="10.00">&#45;</text>
<text text-anchor="start" x="24.5" y="-7" font-family="Helvetica,sans-Serif" font-size="10.00">next_queue()</text>
<polygon fill="#666666" stroke="#666666" points="9.5,-373 9.5,-373 137.5,-373 137.5,-373 9.5,-373"/>
<polygon fill="#666666" stroke="#666666" points="9.5,-268 9.5,-268 22.5,-268 22.5,-268 9.5,-268"/>
<polygon fill="#666666" stroke="#666666" points="22.5,-268 22.5,-268 137.5,-268 137.5,-268 22.5,-268"/>
<polygon fill="none" stroke="#666666" points="9.5,0 9.5,-390 137.5,-390 137.5,0 9.5,0"/>
</a>
</g>
</g>
<!-- Node2 -->
<g id="Node000002" class="node">
<title>Node2</title>
<g id="a_Node000002"><a xlink:href="../../db/d5b/classvanetza_1_1dcc_1_1RequestInterface.html" target="_top" xlink:title=" ">
<polygon fill="white" stroke="transparent" points="147,-490 0,-490 0,-426 147,-426 147,-490"/>
<text text-anchor="start" x="5.5" y="-478" font-family="Helvetica,sans-Serif" font-size="10.00">vanetza::dcc::RequestInterface</text>
<text text-anchor="start" x="72" y="-463" font-family="Helvetica,sans-Serif" font-size="10.00"> </text>
<text text-anchor="start" x="14.5" y="-448" font-family="Helvetica,sans-Serif" font-size="10.00">+</text>
<text text-anchor="start" x="35.5" y="-448" font-family="Helvetica,sans-Serif" font-size="10.00">request()</text>
<text text-anchor="start" x="14.5" y="-433" font-family="Helvetica,sans-Serif" font-size="10.00">+</text>
<text text-anchor="start" x="35.5" y="-433" font-family="Helvetica,sans-Serif" font-size="10.00">~RequestInterface()</text>
<polygon fill="#666666" stroke="#666666" points="0.5,-473 0.5,-473 147.5,-473 147.5,-473 0.5,-473"/>
<polygon fill="#666666" stroke="#666666" points="0.5,-458 0.5,-458 147.5,-458 147.5,-458 0.5,-458"/>
<polygon fill="none" stroke="#666666" points="0,-426 0,-490 147,-490 147,-426 0,-426"/>
</a>
</g>
</g>
<!-- Node2&#45;&gt;Node1 -->
<g id="edge1_Node000001_Node000002" class="edge">
<title>Node2&#45;&gt;Node1</title>
<g id="a_edge1_Node000001_Node000002"><a xlink:title=" ">
<path fill="none" stroke="#63b8ff" d="M73.5,-415.71C73.5,-407.95 73.5,-399.38 73.5,-390.25"/>
<polygon fill="none" stroke="#63b8ff" points="70,-415.78 73.5,-425.78 77,-415.78 70,-415.78"/>
</a>
</g>
</g>
</g>
</svg>
