<?xml version="1.0" encoding="UTF-8" standalone="no"?>
<!DOCTYPE svg PUBLIC "-//W3C//DTD SVG 1.1//EN"
 "http://www.w3.org/Graphics/SVG/1.1/DTD/svg11.dtd">
<!-- Generated by graphviz version 2.42.3 (0)
 -->
<!-- Title: vanetza::security::v3::Choice&lt; Extensible &gt; Pages: 1 -->
<svg width="815pt" height="321pt"
 viewBox="0.00 0.00 815.00 321.00" xmlns="http://www.w3.org/2000/svg" xmlns:xlink="http://www.w3.org/1999/xlink">
<g id="graph0" class="graph" transform="scale(1 1) rotate(0) translate(4 317)">
<title>vanetza::security::v3::Choice&lt; Extensible &gt;</title>
<polygon fill="white" stroke="transparent" points="-4,4 -4,-317 811,-317 811,4 -4,4"/>
<!-- Node1 -->
<g id="node1" class="node">
<title>Node1</title>
<g id="a_node1"><a xlink:title=" ">
<polygon fill="#bfbfbf" stroke="black" points="185,-244.5 185,-312.5 313,-312.5 313,-244.5 185,-244.5"/>
<text text-anchor="start" x="193" y="-300.5" font-family="Helvetica,sans-Serif" font-size="10.00">vanetza::security::</text>
<text text-anchor="middle" x="249" y="-289.5" font-family="Helvetica,sans-Serif" font-size="10.00">v3::Choice&lt; Extensible &gt;</text>
<polyline fill="none" stroke="black" points="185,-282.5 313,-282.5 "/>
<text text-anchor="start" x="193" y="-270.5" font-family="Helvetica,sans-Serif" font-size="10.00">+ choice</text>
<polyline fill="none" stroke="black" points="185,-263.5 313,-263.5 "/>
<text text-anchor="middle" x="249" y="-251.5" font-family="Helvetica,sans-Serif" font-size="10.00"> </text>
</a>
</g>
</g>
<!-- Node2 -->
<g id="node2" class="node">
<title>Node2</title>
<g id="a_node2"><a xlink:href="../../d2/d53/structvanetza_1_1security_1_1v3_1_1Choice.html" target="_top" xlink:title=" ">
<polygon fill="white" stroke="black" points="28,-128.5 28,-196.5 124,-196.5 124,-128.5 28,-128.5"/>
<text text-anchor="start" x="36" y="-184.5" font-family="Helvetica,sans-Serif" font-size="10.00">vanetza::security::</text>
<text text-anchor="middle" x="76" y="-173.5" font-family="Helvetica,sans-Serif" font-size="10.00">v3::Choice&lt;&gt;</text>
<polyline fill="none" stroke="black" points="28,-166.5 124,-166.5 "/>
<text text-anchor="start" x="36" y="-154.5" font-family="Helvetica,sans-Serif" font-size="10.00">+ choice</text>
<polyline fill="none" stroke="black" points="28,-147.5 124,-147.5 "/>
<text text-anchor="middle" x="76" y="-135.5" font-family="Helvetica,sans-Serif" font-size="10.00"> </text>
</a>
</g>
</g>
<!-- Node1&#45;&gt;Node2 -->
<g id="edge1" class="edge">
<title>Node1&#45;&gt;Node2</title>
<path fill="none" stroke="orange" d="M190.09,-238.68C168.62,-224.53 144.62,-208.72 124.19,-195.25"/>
<polygon fill="orange" stroke="orange" points="188.22,-241.64 198.5,-244.22 192.07,-235.8 188.22,-241.64"/>
<text text-anchor="middle" x="176" y="-218" font-family="Helvetica,sans-Serif" font-size="10.00"> &lt;&gt;</text>
</g>
<!-- Node4 -->
<g id="node4" class="node">
<title>Node4</title>
<g id="a_node4"><a xlink:href="../../d2/d53/structvanetza_1_1security_1_1v3_1_1Choice.html" target="_top" xlink:title=" ">
<polygon fill="white" stroke="black" points="197.5,-128.5 197.5,-196.5 300.5,-196.5 300.5,-128.5 197.5,-128.5"/>
<text text-anchor="start" x="205.5" y="-184.5" font-family="Helvetica,sans-Serif" font-size="10.00">vanetza::security::</text>
<text text-anchor="middle" x="249" y="-173.5" font-family="Helvetica,sans-Serif" font-size="10.00">v3::Choice&lt; false &gt;</text>
<polyline fill="none" stroke="black" points="197.5,-166.5 300.5,-166.5 "/>
<text text-anchor="start" x="205.5" y="-154.5" font-family="Helvetica,sans-Serif" font-size="10.00">+ choice</text>
<polyline fill="none" stroke="black" points="197.5,-147.5 300.5,-147.5 "/>
<text text-anchor="middle" x="249" y="-135.5" font-family="Helvetica,sans-Serif" font-size="10.00"> </text>
</a>
</g>
</g>
<!-- Node1&#45;&gt;Node4 -->
<g id="edge3" class="edge">
<title>Node1&#45;&gt;Node4</title>
<path fill="none" stroke="orange" d="M249,-234.06C249,-221.64 249,-208.32 249,-196.62"/>
<polygon fill="orange" stroke="orange" points="245.5,-234.22 249,-244.22 252.5,-234.22 245.5,-234.22"/>
<text text-anchor="middle" x="270.5" y="-218" font-family="Helvetica,sans-Serif" font-size="10.00"> &lt; false &gt;</text>
</g>
<!-- Node7 -->
<g id="node7" class="node">
<title>Node7</title>
<g id="a_node7"><a xlink:href="../../d2/d53/structvanetza_1_1security_1_1v3_1_1Choice.html" target="_top" xlink:title=" ">
<polygon fill="white" stroke="black" points="466,-128.5 466,-196.5 564,-196.5 564,-128.5 466,-128.5"/>
<text text-anchor="start" x="474" y="-184.5" font-family="Helvetica,sans-Serif" font-size="10.00">vanetza::security::</text>
<text text-anchor="middle" x="515" y="-173.5" font-family="Helvetica,sans-Serif" font-size="10.00">v3::Choice&lt; true &gt;</text>
<polyline fill="none" stroke="black" points="466,-166.5 564,-166.5 "/>
<text text-anchor="start" x="474" y="-154.5" font-family="Helvetica,sans-Serif" font-size="10.00">+ choice</text>
<polyline fill="none" stroke="black" points="466,-147.5 564,-147.5 "/>
<text text-anchor="middle" x="515" y="-135.5" font-family="Helvetica,sans-Serif" font-size="10.00"> </text>
</a>
</g>
</g>
<!-- Node1&#45;&gt;Node7 -->
<g id="edge6" class="edge">
<title>Node1&#45;&gt;Node7</title>
<path fill="none" stroke="orange" d="M322.31,-246.08C367.94,-226.53 425.4,-201.9 465.65,-184.65"/>
<polygon fill="orange" stroke="orange" points="320.86,-242.89 313.05,-250.05 323.62,-249.33 320.86,-242.89"/>
<text text-anchor="middle" x="409" y="-218" font-family="Helvetica,sans-Serif" font-size="10.00"> &lt; true &gt;</text>
</g>
<!-- Node3 -->
<g id="node3" class="node">
<title>Node3</title>
<g id="a_node3"><a xlink:href="../../d8/d60/structvanetza_1_1security_1_1v3_1_1Foo.html" target="_top" xlink:title=" ">
<polygon fill="white" stroke="black" points="0,-11.5 0,-79.5 96,-79.5 96,-11.5 0,-11.5"/>
<text text-anchor="start" x="8" y="-67.5" font-family="Helvetica,sans-Serif" font-size="10.00">vanetza::security::</text>
<text text-anchor="middle" x="48" y="-56.5" font-family="Helvetica,sans-Serif" font-size="10.00">v3::Foo</text>
<polyline fill="none" stroke="black" points="0,-49.5 96,-49.5 "/>
<text text-anchor="middle" x="48" y="-37.5" font-family="Helvetica,sans-Serif" font-size="10.00"> </text>
<polyline fill="none" stroke="black" points="0,-30.5 96,-30.5 "/>
<text text-anchor="middle" x="48" y="-18.5" font-family="Helvetica,sans-Serif" font-size="10.00"> </text>
</a>
</g>
</g>
<!-- Node2&#45;&gt;Node3 -->
<g id="edge2" class="edge">
<title>Node2&#45;&gt;Node3</title>
<path fill="none" stroke="midnightblue" d="M65.47,-118.26C62.36,-105.49 59.01,-91.72 56.08,-79.69"/>
<polygon fill="none" stroke="midnightblue" points="62.13,-119.35 67.9,-128.24 68.94,-117.69 62.13,-119.35"/>
</g>
<!-- Node5 -->
<g id="node5" class="node">
<title>Node5</title>
<g id="a_node5"><a xlink:href="../../d2/d33/structvanetza_1_1security_1_1v3_1_1Duration.html" target="_top" xlink:title=" ">
<polygon fill="white" stroke="black" points="114,-11.5 114,-79.5 210,-79.5 210,-11.5 114,-11.5"/>
<text text-anchor="start" x="122" y="-67.5" font-family="Helvetica,sans-Serif" font-size="10.00">vanetza::security::</text>
<text text-anchor="middle" x="162" y="-56.5" font-family="Helvetica,sans-Serif" font-size="10.00">v3::Duration</text>
<polyline fill="none" stroke="black" points="114,-49.5 210,-49.5 "/>
<text text-anchor="middle" x="162" y="-37.5" font-family="Helvetica,sans-Serif" font-size="10.00"> </text>
<polyline fill="none" stroke="black" points="114,-30.5 210,-30.5 "/>
<text text-anchor="middle" x="162" y="-18.5" font-family="Helvetica,sans-Serif" font-size="10.00"> </text>
</a>
</g>
</g>
<!-- Node4&#45;&gt;Node5 -->
<g id="edge4" class="edge">
<title>Node4&#45;&gt;Node5</title>
<path fill="none" stroke="midnightblue" d="M217.72,-120.15C207.66,-106.86 196.66,-92.32 187.11,-79.69"/>
<polygon fill="none" stroke="midnightblue" points="215.01,-122.37 223.84,-128.24 220.59,-118.15 215.01,-122.37"/>
</g>
<!-- Node6 -->
<g id="node6" class="node">
<title>Node6</title>
<g id="a_node6"><a xlink:href="../../dc/d4d/structvanetza_1_1security_1_1v3_1_1EncryptionKey.html" target="_top" xlink:title=" ">
<polygon fill="white" stroke="black" points="228.5,-11.5 228.5,-79.5 325.5,-79.5 325.5,-11.5 228.5,-11.5"/>
<text text-anchor="start" x="236.5" y="-67.5" font-family="Helvetica,sans-Serif" font-size="10.00">vanetza::security::</text>
<text text-anchor="middle" x="277" y="-56.5" font-family="Helvetica,sans-Serif" font-size="10.00">v3::EncryptionKey</text>
<polyline fill="none" stroke="black" points="228.5,-49.5 325.5,-49.5 "/>
<text text-anchor="middle" x="277" y="-37.5" font-family="Helvetica,sans-Serif" font-size="10.00"> </text>
<polyline fill="none" stroke="black" points="228.5,-30.5 325.5,-30.5 "/>
<text text-anchor="middle" x="277" y="-18.5" font-family="Helvetica,sans-Serif" font-size="10.00"> </text>
</a>
</g>
</g>
<!-- Node4&#45;&gt;Node6 -->
<g id="edge5" class="edge">
<title>Node4&#45;&gt;Node6</title>
<path fill="none" stroke="midnightblue" d="M259.53,-118.26C262.64,-105.49 265.99,-91.72 268.92,-79.69"/>
<polygon fill="none" stroke="midnightblue" points="256.06,-117.69 257.1,-128.24 262.87,-119.35 256.06,-117.69"/>
</g>
<!-- Node8 -->
<g id="node8" class="node">
<title>Node8</title>
<g id="a_node8"><a xlink:href="../../db/d2d/structvanetza_1_1security_1_1v3_1_1CertificateId.html" target="_top" xlink:title=" ">
<polygon fill="white" stroke="black" points="344,-11.5 344,-79.5 440,-79.5 440,-11.5 344,-11.5"/>
<text text-anchor="start" x="352" y="-67.5" font-family="Helvetica,sans-Serif" font-size="10.00">vanetza::security::</text>
<text text-anchor="middle" x="392" y="-56.5" font-family="Helvetica,sans-Serif" font-size="10.00">v3::CertificateId</text>
<polyline fill="none" stroke="black" points="344,-49.5 440,-49.5 "/>
<text text-anchor="middle" x="392" y="-37.5" font-family="Helvetica,sans-Serif" font-size="10.00"> </text>
<polyline fill="none" stroke="black" points="344,-30.5 440,-30.5 "/>
<text text-anchor="middle" x="392" y="-18.5" font-family="Helvetica,sans-Serif" font-size="10.00"> </text>
</a>
</g>
</g>
<!-- Node7&#45;&gt;Node8 -->
<g id="edge7" class="edge">
<title>Node7&#45;&gt;Node8</title>
<path fill="none" stroke="midnightblue" d="M471.98,-121.28C457.44,-107.68 441.38,-92.67 427.5,-79.69"/>
<polygon fill="none" stroke="midnightblue" points="469.73,-123.96 479.42,-128.24 474.51,-118.85 469.73,-123.96"/>
</g>
<!-- Node9 -->
<g id="node9" class="node">
<title>Node9</title>
<g id="a_node9"><a xlink:href="../../d1/d42/structvanetza_1_1security_1_1v3_1_1GeographicRegion.html" target="_top" xlink:title=" ">
<polygon fill="white" stroke="black" points="458.5,-11.5 458.5,-79.5 571.5,-79.5 571.5,-11.5 458.5,-11.5"/>
<text text-anchor="start" x="466.5" y="-67.5" font-family="Helvetica,sans-Serif" font-size="10.00">vanetza::security::</text>
<text text-anchor="middle" x="515" y="-56.5" font-family="Helvetica,sans-Serif" font-size="10.00">v3::GeographicRegion</text>
<polyline fill="none" stroke="black" points="458.5,-49.5 571.5,-49.5 "/>
<text text-anchor="middle" x="515" y="-37.5" font-family="Helvetica,sans-Serif" font-size="10.00"> </text>
<polyline fill="none" stroke="black" points="458.5,-30.5 571.5,-30.5 "/>
<text text-anchor="middle" x="515" y="-18.5" font-family="Helvetica,sans-Serif" font-size="10.00"> </text>
</a>
</g>
</g>
<!-- Node7&#45;&gt;Node9 -->
<g id="edge8" class="edge">
<title>Node7&#45;&gt;Node9</title>
<path fill="none" stroke="midnightblue" d="M515,-117.88C515,-105.22 515,-91.6 515,-79.69"/>
<polygon fill="none" stroke="midnightblue" points="511.5,-118.24 515,-128.24 518.5,-118.24 511.5,-118.24"/>
</g>
<!-- Node10 -->
<g id="node10" class="node">
<title>Node10</title>
<g id="a_node10"><a xlink:href="../../dc/dd7/structvanetza_1_1security_1_1v3_1_1IssuerIdentifier.html" target="_top" xlink:title=" ">
<polygon fill="white" stroke="black" points="589.5,-0.5 589.5,-90.5 692.5,-90.5 692.5,-0.5 589.5,-0.5"/>
<text text-anchor="start" x="597.5" y="-78.5" font-family="Helvetica,sans-Serif" font-size="10.00">vanetza::security::</text>
<text text-anchor="middle" x="641" y="-67.5" font-family="Helvetica,sans-Serif" font-size="10.00">v3::IssuerIdentifier</text>
<polyline fill="none" stroke="black" points="589.5,-60.5 692.5,-60.5 "/>
<text text-anchor="start" x="597.5" y="-48.5" font-family="Helvetica,sans-Serif" font-size="10.00">+ sha256AndDigest</text>
<text text-anchor="start" x="597.5" y="-37.5" font-family="Helvetica,sans-Serif" font-size="10.00">+ self</text>
<text text-anchor="start" x="597.5" y="-26.5" font-family="Helvetica,sans-Serif" font-size="10.00">+ sha384AndDigest</text>
<polyline fill="none" stroke="black" points="589.5,-19.5 692.5,-19.5 "/>
<text text-anchor="middle" x="641" y="-7.5" font-family="Helvetica,sans-Serif" font-size="10.00"> </text>
</a>
</g>
</g>
<!-- Node7&#45;&gt;Node10 -->
<g id="edge9" class="edge">
<title>Node7&#45;&gt;Node10</title>
<path fill="none" stroke="midnightblue" d="M559.12,-121.23C569.9,-111.4 581.48,-100.83 592.44,-90.82"/>
<polygon fill="none" stroke="midnightblue" points="556.47,-118.91 551.44,-128.24 561.19,-124.08 556.47,-118.91"/>
</g>
<!-- Node11 -->
<g id="node11" class="node">
<title>Node11</title>
<g id="a_node11"><a xlink:href="../../d7/dc5/structvanetza_1_1security_1_1v3_1_1Signature.html" target="_top" xlink:title=" ">
<polygon fill="white" stroke="black" points="711,-11.5 711,-79.5 807,-79.5 807,-11.5 711,-11.5"/>
<text text-anchor="start" x="719" y="-67.5" font-family="Helvetica,sans-Serif" font-size="10.00">vanetza::security::</text>
<text text-anchor="middle" x="759" y="-56.5" font-family="Helvetica,sans-Serif" font-size="10.00">v3::Signature</text>
<polyline fill="none" stroke="black" points="711,-49.5 807,-49.5 "/>
<text text-anchor="middle" x="759" y="-37.5" font-family="Helvetica,sans-Serif" font-size="10.00"> </text>
<polyline fill="none" stroke="black" points="711,-30.5 807,-30.5 "/>
<text text-anchor="middle" x="759" y="-18.5" font-family="Helvetica,sans-Serif" font-size="10.00"> </text>
</a>
</g>
</g>
<!-- Node7&#45;&gt;Node11 -->
<g id="edge10" class="edge">
<title>Node7&#45;&gt;Node11</title>
<path fill="none" stroke="midnightblue" d="M573.9,-144.08C611.49,-131.79 660.57,-113.53 701,-91 706.99,-87.66 713.03,-83.76 718.84,-79.66"/>
<polygon fill="none" stroke="midnightblue" points="572.56,-140.83 564.12,-147.23 574.71,-147.5 572.56,-140.83"/>
</g>
</g>
</svg>
