<?xml version="1.0" encoding="UTF-8" standalone="no"?>
<!DOCTYPE svg PUBLIC "-//W3C//DTD SVG 1.1//EN"
 "http://www.w3.org/Graphics/SVG/1.1/DTD/svg11.dtd">
<!-- Generated by graphviz version 2.49.3 (0)
 -->
<!-- Title: vanetza::security::BackendOpenSsl Pages: 1 -->
<svg width="141pt" height="449pt"
 viewBox="0.00 0.00 141.00 449.00" xmlns="http://www.w3.org/2000/svg" xmlns:xlink="http://www.w3.org/1999/xlink">
<g id="graph0" class="graph" transform="scale(1 1) rotate(0) translate(4 445)">
<title>vanetza::security::BackendOpenSsl</title>
<!-- Node1 -->
<g id="Node000001" class="node">
<title>Node1</title>
<g id="a_Node000001"><a xlink:title="Backend implementation based on OpenSSL.">
<polygon fill="#999999" stroke="transparent" points="133,-255 0,-255 0,0 133,0 133,-255"/>
<text text-anchor="start" x="27" y="-242.5" font-family="Helvetica,sans-Serif" font-size="10.00">vanetza::security::</text>
<text text-anchor="start" x="29" y="-231.5" font-family="Helvetica,sans-Serif" font-size="10.00">BackendOpenSsl</text>
<text text-anchor="start" x="4.5" y="-216.5" font-family="Helvetica,sans-Serif" font-size="10.00">+</text>
<text text-anchor="start" x="15.5" y="-216.5" font-family="Helvetica,sans-Serif" font-size="10.00">backend_name</text>
<text text-anchor="start" x="4.5" y="-201.5" font-family="Helvetica,sans-Serif" font-size="10.00">+</text>
<text text-anchor="start" x="15.5" y="-201.5" font-family="Helvetica,sans-Serif" font-size="10.00">BackendOpenSsl()</text>
<text text-anchor="start" x="4.5" y="-186.5" font-family="Helvetica,sans-Serif" font-size="10.00">+</text>
<text text-anchor="start" x="15.5" y="-186.5" font-family="Helvetica,sans-Serif" font-size="10.00">sign_data()</text>
<text text-anchor="start" x="4.5" y="-171.5" font-family="Helvetica,sans-Serif" font-size="10.00">+</text>
<text text-anchor="start" x="15.5" y="-171.5" font-family="Helvetica,sans-Serif" font-size="10.00">sign_digest()</text>
<text text-anchor="start" x="4.5" y="-156.5" font-family="Helvetica,sans-Serif" font-size="10.00">+</text>
<text text-anchor="start" x="15.5" y="-156.5" font-family="Helvetica,sans-Serif" font-size="10.00">verify_data()</text>
<text text-anchor="start" x="4.5" y="-141.5" font-family="Helvetica,sans-Serif" font-size="10.00">+</text>
<text text-anchor="start" x="15.5" y="-141.5" font-family="Helvetica,sans-Serif" font-size="10.00">verify_digest()</text>
<text text-anchor="start" x="4.5" y="-126.5" font-family="Helvetica,sans-Serif" font-size="10.00">+</text>
<text text-anchor="start" x="15.5" y="-126.5" font-family="Helvetica,sans-Serif" font-size="10.00">calculate_hash()</text>
<text text-anchor="start" x="4.5" y="-111.5" font-family="Helvetica,sans-Serif" font-size="10.00">+</text>
<text text-anchor="start" x="15.5" y="-111.5" font-family="Helvetica,sans-Serif" font-size="10.00">decompress_point()</text>
<text text-anchor="start" x="6" y="-96.5" font-family="Helvetica,sans-Serif" font-size="10.00">&#45;</text>
<text text-anchor="start" x="15.5" y="-96.5" font-family="Helvetica,sans-Serif" font-size="10.00">calculate_sha256_digest()</text>
<text text-anchor="start" x="6" y="-81.5" font-family="Helvetica,sans-Serif" font-size="10.00">&#45;</text>
<text text-anchor="start" x="15.5" y="-81.5" font-family="Helvetica,sans-Serif" font-size="10.00">calculate_sha384_digest()</text>
<text text-anchor="start" x="6" y="-66.5" font-family="Helvetica,sans-Serif" font-size="10.00">&#45;</text>
<text text-anchor="start" x="15.5" y="-66.5" font-family="Helvetica,sans-Serif" font-size="10.00">internal_private_key()</text>
<text text-anchor="start" x="6" y="-51.5" font-family="Helvetica,sans-Serif" font-size="10.00">&#45;</text>
<text text-anchor="start" x="15.5" y="-51.5" font-family="Helvetica,sans-Serif" font-size="10.00">internal_private_key()</text>
<text text-anchor="start" x="6" y="-36.5" font-family="Helvetica,sans-Serif" font-size="10.00">&#45;</text>
<text text-anchor="start" x="15.5" y="-36.5" font-family="Helvetica,sans-Serif" font-size="10.00">internal_public_key()</text>
<text text-anchor="start" x="6" y="-21.5" font-family="Helvetica,sans-Serif" font-size="10.00">&#45;</text>
<text text-anchor="start" x="15.5" y="-21.5" font-family="Helvetica,sans-Serif" font-size="10.00">internal_public_key()</text>
<text text-anchor="start" x="6" y="-6.5" font-family="Helvetica,sans-Serif" font-size="10.00">&#45;</text>
<text text-anchor="start" x="15.5" y="-6.5" font-family="Helvetica,sans-Serif" font-size="10.00">internal_ec_point()</text>
<polygon fill="#666666" stroke="#666666" points="0.5,-226.5 0.5,-226.5 133.5,-226.5 133.5,-226.5 0.5,-226.5"/>
<polygon fill="#666666" stroke="#666666" points="0.5,-211.5 0.5,-211.5 13.5,-211.5 13.5,-211.5 0.5,-211.5"/>
<polygon fill="#666666" stroke="#666666" points="13.5,-211.5 13.5,-211.5 133.5,-211.5 133.5,-211.5 13.5,-211.5"/>
<polygon fill="none" stroke="#666666" points="0,0 0,-255 133,-255 133,0 0,0"/>
</a>
</g>
</g>
<!-- Node2 -->
<g id="Node000002" class="node">
<title>Node2</title>
<g id="a_Node000002"><a xlink:href="../../d1/d75/classvanetza_1_1security_1_1Backend.html" target="_top" xlink:title=" ">
<polygon fill="white" stroke="transparent" points="119,-441 14,-441 14,-291 119,-291 119,-441"/>
<text text-anchor="start" x="27" y="-429" font-family="Helvetica,sans-Serif" font-size="10.00">vanetza::security::</text>
<text text-anchor="start" x="48" y="-418" font-family="Helvetica,sans-Serif" font-size="10.00">Backend</text>
<text text-anchor="start" x="65" y="-403" font-family="Helvetica,sans-Serif" font-size="10.00"> </text>
<text text-anchor="start" x="18.5" y="-388" font-family="Helvetica,sans-Serif" font-size="10.00">+</text>
<text text-anchor="start" x="29.5" y="-388" font-family="Helvetica,sans-Serif" font-size="10.00">sign_data()</text>
<text text-anchor="start" x="18.5" y="-373" font-family="Helvetica,sans-Serif" font-size="10.00">+</text>
<text text-anchor="start" x="29.5" y="-373" font-family="Helvetica,sans-Serif" font-size="10.00">sign_digest()</text>
<text text-anchor="start" x="18.5" y="-358" font-family="Helvetica,sans-Serif" font-size="10.00">+</text>
<text text-anchor="start" x="29.5" y="-358" font-family="Helvetica,sans-Serif" font-size="10.00">verify_data()</text>
<text text-anchor="start" x="18.5" y="-343" font-family="Helvetica,sans-Serif" font-size="10.00">+</text>
<text text-anchor="start" x="29.5" y="-343" font-family="Helvetica,sans-Serif" font-size="10.00">verify_digest()</text>
<text text-anchor="start" x="18.5" y="-328" font-family="Helvetica,sans-Serif" font-size="10.00">+</text>
<text text-anchor="start" x="29.5" y="-328" font-family="Helvetica,sans-Serif" font-size="10.00">decompress_point()</text>
<text text-anchor="start" x="18.5" y="-313" font-family="Helvetica,sans-Serif" font-size="10.00">+</text>
<text text-anchor="start" x="29.5" y="-313" font-family="Helvetica,sans-Serif" font-size="10.00">calculate_hash()</text>
<text text-anchor="start" x="18.5" y="-298" font-family="Helvetica,sans-Serif" font-size="10.00">+</text>
<text text-anchor="start" x="29.5" y="-298" font-family="Helvetica,sans-Serif" font-size="10.00">~Backend()</text>
<polygon fill="#666666" stroke="#666666" points="14.5,-413 14.5,-413 119.5,-413 119.5,-413 14.5,-413"/>
<polygon fill="#666666" stroke="#666666" points="14.5,-398 14.5,-398 119.5,-398 119.5,-398 14.5,-398"/>
<polygon fill="none" stroke="#666666" points="14,-291 14,-441 119,-441 119,-291 14,-291"/>
</a>
</g>
</g>
<!-- Node2&#45;&gt;Node1 -->
<g id="edge1_Node000001_Node000002" class="edge">
<title>Node2&#45;&gt;Node1</title>
<g id="a_edge1_Node000001_Node000002"><a xlink:title=" ">
<path fill="none" stroke="#63b8ff" d="M66.5,-280.8C66.5,-272.48 66.5,-263.92 66.5,-255.29"/>
<polygon fill="none" stroke="#63b8ff" points="63,-280.82 66.5,-290.82 70,-280.82 63,-280.82"/>
</a>
</g>
</g>
</g>
</svg>
