<?xml version="1.0" encoding="UTF-8" standalone="no"?>
<!DOCTYPE svg PUBLIC "-//W3C//DTD SVG 1.1//EN"
 "http://www.w3.org/Graphics/SVG/1.1/DTD/svg11.dtd">
<!-- Generated by graphviz version 2.42.1 (0)
 -->
<!-- Title: vanetza::security::BackendOpenSsl Pages: 1 -->
<svg width="124pt" height="281pt"
 viewBox="0.00 0.00 124.00 281.00" xmlns="http://www.w3.org/2000/svg" xmlns:xlink="http://www.w3.org/1999/xlink">
<g id="graph0" class="graph" transform="scale(1 1) rotate(0) translate(4 277)">
<title>vanetza::security::BackendOpenSsl</title>
<polygon fill="white" stroke="transparent" points="-4,4 -4,-277 120,-277 120,4 -4,4"/>
<!-- Node0 -->
<g id="node1" class="node">
<title>Node0</title>
<g id="a_node1"><a xlink:title="Backend implementation based on OpenSSL.">
<polygon fill="#bfbfbf" stroke="black" points="0,-0.5 0,-134.5 116,-134.5 116,-0.5 0,-0.5"/>
<text text-anchor="start" x="8" y="-122.5" font-family="Helvetica,sans-Serif" font-size="10.00">vanetza::security::</text>
<text text-anchor="middle" x="58" y="-111.5" font-family="Helvetica,sans-Serif" font-size="10.00">BackendOpenSsl</text>
<polyline fill="none" stroke="black" points="0,-104.5 116,-104.5 "/>
<text text-anchor="start" x="8" y="-92.5" font-family="Helvetica,sans-Serif" font-size="10.00">+ backend_name</text>
<polyline fill="none" stroke="black" points="0,-85.5 116,-85.5 "/>
<text text-anchor="start" x="8" y="-73.5" font-family="Helvetica,sans-Serif" font-size="10.00">+ BackendOpenSsl()</text>
<text text-anchor="start" x="8" y="-62.5" font-family="Helvetica,sans-Serif" font-size="10.00">+ sign_data()</text>
<text text-anchor="start" x="8" y="-51.5" font-family="Helvetica,sans-Serif" font-size="10.00">+ verify_data()</text>
<text text-anchor="start" x="8" y="-40.5" font-family="Helvetica,sans-Serif" font-size="10.00">+ decompress_point()</text>
<text text-anchor="start" x="8" y="-29.5" font-family="Helvetica,sans-Serif" font-size="10.00">&#45; calculate_digest()</text>
<text text-anchor="start" x="8" y="-18.5" font-family="Helvetica,sans-Serif" font-size="10.00">&#45; internal_private_key()</text>
<text text-anchor="start" x="8" y="-7.5" font-family="Helvetica,sans-Serif" font-size="10.00">&#45; internal_public_key()</text>
</a>
</g>
</g>
<!-- Node1 -->
<g id="node2" class="node">
<title>Node1</title>
<g id="a_node2"><a xlink:href="../../d1/d75/classvanetza_1_1security_1_1Backend.html" target="_top" xlink:title=" ">
<polygon fill="white" stroke="black" points="2.5,-171.5 2.5,-272.5 113.5,-272.5 113.5,-171.5 2.5,-171.5"/>
<text text-anchor="start" x="10.5" y="-260.5" font-family="Helvetica,sans-Serif" font-size="10.00">vanetza::security::</text>
<text text-anchor="middle" x="58" y="-249.5" font-family="Helvetica,sans-Serif" font-size="10.00">Backend</text>
<polyline fill="none" stroke="black" points="2.5,-242.5 113.5,-242.5 "/>
<text text-anchor="middle" x="58" y="-230.5" font-family="Helvetica,sans-Serif" font-size="10.00"> </text>
<polyline fill="none" stroke="black" points="2.5,-223.5 113.5,-223.5 "/>
<text text-anchor="start" x="10.5" y="-211.5" font-family="Helvetica,sans-Serif" font-size="10.00">+ sign_data()</text>
<text text-anchor="start" x="10.5" y="-200.5" font-family="Helvetica,sans-Serif" font-size="10.00">+ verify_data()</text>
<text text-anchor="start" x="10.5" y="-189.5" font-family="Helvetica,sans-Serif" font-size="10.00">+ decompress_point()</text>
<text text-anchor="start" x="10.5" y="-178.5" font-family="Helvetica,sans-Serif" font-size="10.00">+ ~Backend()</text>
</a>
</g>
</g>
<!-- Node1&#45;&gt;Node0 -->
<g id="edge1" class="edge">
<title>Node1&#45;&gt;Node0</title>
<path fill="none" stroke="midnightblue" d="M58,-161.38C58,-152.63 58,-143.56 58,-134.69"/>
<polygon fill="none" stroke="midnightblue" points="54.5,-161.49 58,-171.49 61.5,-161.49 54.5,-161.49"/>
</g>
</g>
</svg>
