<?xml version="1.0" encoding="UTF-8" standalone="no"?>
<!DOCTYPE svg PUBLIC "-//W3C//DTD SVG 1.1//EN"
 "http://www.w3.org/Graphics/SVG/1.1/DTD/svg11.dtd">
<!-- Generated by graphviz version 14.1.2 (0)
 -->
<!-- Title: vanetza::asn1::r2::Cam Pages: 1 -->
<svg width="319pt" height="958pt"
 viewBox="0.00 0.00 319.00 958.00" xmlns="http://www.w3.org/2000/svg" xmlns:xlink="http://www.w3.org/1999/xlink">
<g id="graph0" class="graph" transform="scale(1 1) rotate(0) translate(4 953.5)">
<title>vanetza::asn1::r2::Cam</title>
<!-- Node1 -->
<g id="Node000001" class="node">
<title>Node1</title>
<g id="a_Node000001"><a xlink:title=" ">
<polygon fill="#999999" stroke="none" points="185,-54.25 64.5,-54.25 64.5,0 185,0 185,-54.25"/>
<text xml:space="preserve" text-anchor="start" x="68.5" y="-40.75" font-family="Helvetica,sans-Serif" font-size="10.00">vanetza::asn1::r2::Cam</text>
<text xml:space="preserve" text-anchor="start" x="123.25" y="-24" font-family="Helvetica,sans-Serif" font-size="10.00"> </text>
<text xml:space="preserve" text-anchor="start" x="86.06" y="-7.25" font-family="Helvetica,sans-Serif" font-size="10.00">+</text>
<text xml:space="preserve" text-anchor="start" x="115.88" y="-7.25" font-family="Helvetica,sans-Serif" font-size="10.00">Cam()</text>
<polygon fill="#666666" stroke="#666666" points="64.5,-35.5 64.5,-35.5 185,-35.5 185,-35.5 64.5,-35.5"/>
<polygon fill="#666666" stroke="#666666" points="64.5,-18.75 64.5,-18.75 185,-18.75 185,-18.75 64.5,-18.75"/>
<polygon fill="none" stroke="#666666" points="64.5,0 64.5,-54.25 185,-54.25 185,0 64.5,0"/>
</a>
</g>
</g>
<!-- Node2 -->
<g id="Node000002" class="node">
<title>Node2</title>
<g id="a_Node000002"><a xlink:href="../../dc/dbf/classvanetza_1_1asn1_1_1asn1c__per__wrapper.html" target="_top" xlink:title=" ">
<polygon fill="white" stroke="none" points="186.88,-355.25 62.62,-355.25 62.62,-91.25 186.88,-91.25 186.88,-355.25"/>
<text xml:space="preserve" text-anchor="start" x="66.62" y="-341.75" font-family="Helvetica,sans-Serif" font-size="10.00">vanetza::asn1::asn1c</text>
<text xml:space="preserve" text-anchor="start" x="66.62" y="-329" font-family="Helvetica,sans-Serif" font-size="10.00">_per_wrapper&lt; Vanetza</text>
<text xml:space="preserve" text-anchor="start" x="87.62" y="-316.25" font-family="Helvetica,sans-Serif" font-size="10.00">_ITS2_CAM_t &gt;</text>
<text xml:space="preserve" text-anchor="start" x="76.5" y="-299.5" font-family="Helvetica,sans-Serif" font-size="10.00">#</text>
<text xml:space="preserve" text-anchor="start" x="98.62" y="-299.5" font-family="Helvetica,sans-Serif" font-size="10.00">m_struct</text>
<text xml:space="preserve" text-anchor="start" x="76.5" y="-282.75" font-family="Helvetica,sans-Serif" font-size="10.00">#</text>
<text xml:space="preserve" text-anchor="start" x="98.62" y="-282.75" font-family="Helvetica,sans-Serif" font-size="10.00">m_type</text>
<text xml:space="preserve" text-anchor="start" x="76.5" y="-266" font-family="Helvetica,sans-Serif" font-size="10.00">+</text>
<text xml:space="preserve" text-anchor="start" x="98.62" y="-266" font-family="Helvetica,sans-Serif" font-size="10.00">encode()</text>
<text xml:space="preserve" text-anchor="start" x="76.5" y="-249.25" font-family="Helvetica,sans-Serif" font-size="10.00">+</text>
<text xml:space="preserve" text-anchor="start" x="98.62" y="-249.25" font-family="Helvetica,sans-Serif" font-size="10.00">decode()</text>
<text xml:space="preserve" text-anchor="start" x="76.5" y="-232.5" font-family="Helvetica,sans-Serif" font-size="10.00">+</text>
<text xml:space="preserve" text-anchor="start" x="98.62" y="-232.5" font-family="Helvetica,sans-Serif" font-size="10.00">decode()</text>
<text xml:space="preserve" text-anchor="start" x="76.5" y="-215.75" font-family="Helvetica,sans-Serif" font-size="10.00">+</text>
<text xml:space="preserve" text-anchor="start" x="98.62" y="-215.75" font-family="Helvetica,sans-Serif" font-size="10.00">decode()</text>
<text xml:space="preserve" text-anchor="start" x="76.5" y="-199" font-family="Helvetica,sans-Serif" font-size="10.00">+</text>
<text xml:space="preserve" text-anchor="start" x="98.62" y="-199" font-family="Helvetica,sans-Serif" font-size="10.00">size()</text>
<text xml:space="preserve" text-anchor="start" x="76.5" y="-182.25" font-family="Helvetica,sans-Serif" font-size="10.00">+</text>
<text xml:space="preserve" text-anchor="start" x="98.62" y="-182.25" font-family="Helvetica,sans-Serif" font-size="10.00">operator*()</text>
<text xml:space="preserve" text-anchor="start" x="76.5" y="-165.5" font-family="Helvetica,sans-Serif" font-size="10.00">+</text>
<text xml:space="preserve" text-anchor="start" x="98.62" y="-165.5" font-family="Helvetica,sans-Serif" font-size="10.00">operator*()</text>
<text xml:space="preserve" text-anchor="start" x="76.5" y="-148.75" font-family="Helvetica,sans-Serif" font-size="10.00">+</text>
<text xml:space="preserve" text-anchor="start" x="98.62" y="-148.75" font-family="Helvetica,sans-Serif" font-size="10.00">operator&#45;&gt;()</text>
<text xml:space="preserve" text-anchor="start" x="76.5" y="-132" font-family="Helvetica,sans-Serif" font-size="10.00">+</text>
<text xml:space="preserve" text-anchor="start" x="98.62" y="-132" font-family="Helvetica,sans-Serif" font-size="10.00">operator&#45;&gt;()</text>
<text xml:space="preserve" text-anchor="start" x="76.5" y="-115.25" font-family="Helvetica,sans-Serif" font-size="10.00">+</text>
<text xml:space="preserve" text-anchor="start" x="98.62" y="-115.25" font-family="Helvetica,sans-Serif" font-size="10.00">content()</text>
<text xml:space="preserve" text-anchor="start" x="98.62" y="-98.5" font-family="Helvetica,sans-Serif" font-size="10.00">and 9 more...</text>
<polygon fill="#bfbfbf" stroke="#bfbfbf" points="62.62,-311 62.62,-311 186.88,-311 186.88,-311 62.62,-311"/>
<polygon fill="#bfbfbf" stroke="#bfbfbf" points="62.62,-277.5 62.62,-277.5 96.62,-277.5 96.62,-277.5 62.62,-277.5"/>
<polygon fill="#bfbfbf" stroke="#bfbfbf" points="96.62,-277.5 96.62,-277.5 186.88,-277.5 186.88,-277.5 96.62,-277.5"/>
<polygon fill="none" stroke="#bfbfbf" points="62.62,-91.25 62.62,-355.25 186.88,-355.25 186.88,-91.25 62.62,-91.25"/>
</a>
</g>
</g>
<!-- Node2&#45;&gt;Node1 -->
<g id="edge1_Node000001_Node000002" class="edge">
<title>Node2&#45;&gt;Node1</title>
<g id="a_edge1_Node000001_Node000002"><a xlink:title=" ">
<path fill="none" stroke="#63b8ff" d="M124.75,-79.94C124.75,-70.43 124.75,-61.66 124.75,-54.15"/>
<polygon fill="none" stroke="#63b8ff" points="121.25,-79.91 124.75,-89.91 128.25,-79.91 121.25,-79.91"/>
</a>
</g>
</g>
<!-- Node3 -->
<g id="Node000003" class="node">
<title>Node3</title>
<g id="a_Node000003"><a xlink:href="../../d0/d68/classvanetza_1_1asn1_1_1asn1c__wrapper__common.html" target="_top" xlink:title=" ">
<polygon fill="white" stroke="none" points="157.5,-661.25 0,-661.25 0,-410 157.5,-410 157.5,-661.25"/>
<text xml:space="preserve" text-anchor="start" x="18" y="-647.75" font-family="Helvetica,sans-Serif" font-size="10.00">vanetza::asn1::asn1c</text>
<text xml:space="preserve" text-anchor="start" x="18" y="-635" font-family="Helvetica,sans-Serif" font-size="10.00">_wrapper_common&lt; T &gt;</text>
<text xml:space="preserve" text-anchor="start" x="4" y="-618.25" font-family="Helvetica,sans-Serif" font-size="10.00">#</text>
<text xml:space="preserve" text-anchor="start" x="16.25" y="-618.25" font-family="Helvetica,sans-Serif" font-size="10.00">m_struct</text>
<text xml:space="preserve" text-anchor="start" x="4" y="-601.5" font-family="Helvetica,sans-Serif" font-size="10.00">#</text>
<text xml:space="preserve" text-anchor="start" x="16.25" y="-601.5" font-family="Helvetica,sans-Serif" font-size="10.00">m_type</text>
<text xml:space="preserve" text-anchor="start" x="4" y="-584.75" font-family="Helvetica,sans-Serif" font-size="10.00">+</text>
<text xml:space="preserve" text-anchor="start" x="16.25" y="-584.75" font-family="Helvetica,sans-Serif" font-size="10.00">asn1c_wrapper_common()</text>
<text xml:space="preserve" text-anchor="start" x="4" y="-568" font-family="Helvetica,sans-Serif" font-size="10.00">+</text>
<text xml:space="preserve" text-anchor="start" x="16.25" y="-568" font-family="Helvetica,sans-Serif" font-size="10.00">asn1c_wrapper_common()</text>
<text xml:space="preserve" text-anchor="start" x="4" y="-551.25" font-family="Helvetica,sans-Serif" font-size="10.00">+</text>
<text xml:space="preserve" text-anchor="start" x="16.25" y="-551.25" font-family="Helvetica,sans-Serif" font-size="10.00">~asn1c_wrapper_common()</text>
<text xml:space="preserve" text-anchor="start" x="4" y="-534.5" font-family="Helvetica,sans-Serif" font-size="10.00">+</text>
<text xml:space="preserve" text-anchor="start" x="16.25" y="-534.5" font-family="Helvetica,sans-Serif" font-size="10.00">asn1c_wrapper_common()</text>
<text xml:space="preserve" text-anchor="start" x="4" y="-517.75" font-family="Helvetica,sans-Serif" font-size="10.00">+</text>
<text xml:space="preserve" text-anchor="start" x="16.25" y="-517.75" font-family="Helvetica,sans-Serif" font-size="10.00">operator=()</text>
<text xml:space="preserve" text-anchor="start" x="4" y="-501" font-family="Helvetica,sans-Serif" font-size="10.00">+</text>
<text xml:space="preserve" text-anchor="start" x="16.25" y="-501" font-family="Helvetica,sans-Serif" font-size="10.00">asn1c_wrapper_common()</text>
<text xml:space="preserve" text-anchor="start" x="4" y="-484.25" font-family="Helvetica,sans-Serif" font-size="10.00">+</text>
<text xml:space="preserve" text-anchor="start" x="16.25" y="-484.25" font-family="Helvetica,sans-Serif" font-size="10.00">operator=()</text>
<text xml:space="preserve" text-anchor="start" x="4" y="-467.5" font-family="Helvetica,sans-Serif" font-size="10.00">+</text>
<text xml:space="preserve" text-anchor="start" x="16.25" y="-467.5" font-family="Helvetica,sans-Serif" font-size="10.00">operator*()</text>
<text xml:space="preserve" text-anchor="start" x="4" y="-450.75" font-family="Helvetica,sans-Serif" font-size="10.00">+</text>
<text xml:space="preserve" text-anchor="start" x="16.25" y="-450.75" font-family="Helvetica,sans-Serif" font-size="10.00">operator&#45;&gt;()</text>
<text xml:space="preserve" text-anchor="start" x="4" y="-434" font-family="Helvetica,sans-Serif" font-size="10.00">+</text>
<text xml:space="preserve" text-anchor="start" x="16.25" y="-434" font-family="Helvetica,sans-Serif" font-size="10.00">operator*()</text>
<text xml:space="preserve" text-anchor="start" x="16.25" y="-417.25" font-family="Helvetica,sans-Serif" font-size="10.00">and 11 more...</text>
<polygon fill="#bfbfbf" stroke="#bfbfbf" points="0,-629.75 0,-629.75 157.5,-629.75 157.5,-629.75 0,-629.75"/>
<polygon fill="#bfbfbf" stroke="#bfbfbf" points="0,-596.25 0,-596.25 14.25,-596.25 14.25,-596.25 0,-596.25"/>
<polygon fill="#bfbfbf" stroke="#bfbfbf" points="14.25,-596.25 14.25,-596.25 157.5,-596.25 157.5,-596.25 14.25,-596.25"/>
<polygon fill="none" stroke="#bfbfbf" points="0,-410 0,-661.25 157.5,-661.25 157.5,-410 0,-410"/>
</a>
</g>
</g>
<!-- Node3&#45;&gt;Node2 -->
<g id="edge2_Node000002_Node000003" class="edge">
<title>Node3&#45;&gt;Node2</title>
<g id="a_edge2_Node000002_Node000003"><a xlink:title=" ">
<path fill="none" stroke="#63b8ff" d="M98.84,-399.06C101.01,-384.46 103.2,-369.62 105.36,-355.08"/>
<polygon fill="none" stroke="#63b8ff" points="95.42,-398.27 97.42,-408.67 102.35,-399.3 95.42,-398.27"/>
</a>
</g>
</g>
<!-- Node4 -->
<g id="Node000004" class="node">
<title>Node4</title>
<g id="a_Node000004"><a xlink:href="../../dc/dbf/classvanetza_1_1asn1_1_1asn1c__per__wrapper.html" target="_top" xlink:title=" ">
<polygon fill="white" stroke="none" points="286.12,-602.62 175.38,-602.62 175.38,-468.62 286.12,-468.62 286.12,-602.62"/>
<text xml:space="preserve" text-anchor="start" x="179.38" y="-589.12" font-family="Helvetica,sans-Serif" font-size="10.00">vanetza::asn1::asn1c</text>
<text xml:space="preserve" text-anchor="start" x="183.5" y="-576.38" font-family="Helvetica,sans-Serif" font-size="10.00">_per_wrapper&lt; T &gt;</text>
<text xml:space="preserve" text-anchor="start" x="229.25" y="-559.62" font-family="Helvetica,sans-Serif" font-size="10.00"> </text>
<text xml:space="preserve" text-anchor="start" x="191.31" y="-542.88" font-family="Helvetica,sans-Serif" font-size="10.00">+</text>
<text xml:space="preserve" text-anchor="start" x="215.5" y="-542.88" font-family="Helvetica,sans-Serif" font-size="10.00">encode()</text>
<text xml:space="preserve" text-anchor="start" x="191.31" y="-526.12" font-family="Helvetica,sans-Serif" font-size="10.00">+</text>
<text xml:space="preserve" text-anchor="start" x="215.5" y="-526.12" font-family="Helvetica,sans-Serif" font-size="10.00">decode()</text>
<text xml:space="preserve" text-anchor="start" x="191.31" y="-509.38" font-family="Helvetica,sans-Serif" font-size="10.00">+</text>
<text xml:space="preserve" text-anchor="start" x="215.5" y="-509.38" font-family="Helvetica,sans-Serif" font-size="10.00">decode()</text>
<text xml:space="preserve" text-anchor="start" x="191.31" y="-492.62" font-family="Helvetica,sans-Serif" font-size="10.00">+</text>
<text xml:space="preserve" text-anchor="start" x="215.5" y="-492.62" font-family="Helvetica,sans-Serif" font-size="10.00">decode()</text>
<text xml:space="preserve" text-anchor="start" x="191.31" y="-475.88" font-family="Helvetica,sans-Serif" font-size="10.00">+</text>
<text xml:space="preserve" text-anchor="start" x="215.5" y="-475.88" font-family="Helvetica,sans-Serif" font-size="10.00">size()</text>
<polygon fill="#bfbfbf" stroke="#bfbfbf" points="175.38,-571.12 175.38,-571.12 286.12,-571.12 286.12,-571.12 175.38,-571.12"/>
<polygon fill="#bfbfbf" stroke="#bfbfbf" points="175.38,-554.38 175.38,-554.38 286.12,-554.38 286.12,-554.38 175.38,-554.38"/>
<polygon fill="none" stroke="#bfbfbf" points="175.38,-468.62 175.38,-602.62 286.12,-602.62 286.12,-468.62 175.38,-468.62"/>
</a>
</g>
</g>
<!-- Node4&#45;&gt;Node2 -->
<g id="edge3_Node000002_Node000004" class="edge">
<title>Node4&#45;&gt;Node2</title>
<g id="a_edge3_Node000002_Node000004"><a xlink:title=" ">
<path fill="none" stroke="orange" d="M204.6,-458.07C194,-427.01 181.44,-390.25 169.46,-355.17"/>
<polygon fill="orange" stroke="orange" points="201.24,-459.04 207.78,-467.37 207.86,-456.78 201.24,-459.04"/>
</a>
</g>
<text xml:space="preserve" text-anchor="start" x="183.93" y="-379.5" font-family="Helvetica,sans-Serif" font-size="10.00" fill="grey">&lt; Vanetza_ITS2_CAM_t &gt;</text>
</g>
<!-- Node5 -->
<g id="Node000005" class="node">
<title>Node5</title>
<g id="a_Node000005"><a xlink:href="../../d0/d68/classvanetza_1_1asn1_1_1asn1c__wrapper__common.html" target="_top" xlink:title=" ">
<polygon fill="white" stroke="none" points="309.5,-949.5 152,-949.5 152,-698.25 309.5,-698.25 309.5,-949.5"/>
<text xml:space="preserve" text-anchor="start" x="170" y="-936" font-family="Helvetica,sans-Serif" font-size="10.00">vanetza::asn1::asn1c</text>
<text xml:space="preserve" text-anchor="start" x="170" y="-923.25" font-family="Helvetica,sans-Serif" font-size="10.00">_wrapper_common&lt; T &gt;</text>
<text xml:space="preserve" text-anchor="start" x="156" y="-906.5" font-family="Helvetica,sans-Serif" font-size="10.00">#</text>
<text xml:space="preserve" text-anchor="start" x="168.25" y="-906.5" font-family="Helvetica,sans-Serif" font-size="10.00">m_struct</text>
<text xml:space="preserve" text-anchor="start" x="156" y="-889.75" font-family="Helvetica,sans-Serif" font-size="10.00">#</text>
<text xml:space="preserve" text-anchor="start" x="168.25" y="-889.75" font-family="Helvetica,sans-Serif" font-size="10.00">m_type</text>
<text xml:space="preserve" text-anchor="start" x="156" y="-873" font-family="Helvetica,sans-Serif" font-size="10.00">+</text>
<text xml:space="preserve" text-anchor="start" x="168.25" y="-873" font-family="Helvetica,sans-Serif" font-size="10.00">asn1c_wrapper_common()</text>
<text xml:space="preserve" text-anchor="start" x="156" y="-856.25" font-family="Helvetica,sans-Serif" font-size="10.00">+</text>
<text xml:space="preserve" text-anchor="start" x="168.25" y="-856.25" font-family="Helvetica,sans-Serif" font-size="10.00">asn1c_wrapper_common()</text>
<text xml:space="preserve" text-anchor="start" x="156" y="-839.5" font-family="Helvetica,sans-Serif" font-size="10.00">+</text>
<text xml:space="preserve" text-anchor="start" x="168.25" y="-839.5" font-family="Helvetica,sans-Serif" font-size="10.00">~asn1c_wrapper_common()</text>
<text xml:space="preserve" text-anchor="start" x="156" y="-822.75" font-family="Helvetica,sans-Serif" font-size="10.00">+</text>
<text xml:space="preserve" text-anchor="start" x="168.25" y="-822.75" font-family="Helvetica,sans-Serif" font-size="10.00">asn1c_wrapper_common()</text>
<text xml:space="preserve" text-anchor="start" x="156" y="-806" font-family="Helvetica,sans-Serif" font-size="10.00">+</text>
<text xml:space="preserve" text-anchor="start" x="168.25" y="-806" font-family="Helvetica,sans-Serif" font-size="10.00">operator=()</text>
<text xml:space="preserve" text-anchor="start" x="156" y="-789.25" font-family="Helvetica,sans-Serif" font-size="10.00">+</text>
<text xml:space="preserve" text-anchor="start" x="168.25" y="-789.25" font-family="Helvetica,sans-Serif" font-size="10.00">asn1c_wrapper_common()</text>
<text xml:space="preserve" text-anchor="start" x="156" y="-772.5" font-family="Helvetica,sans-Serif" font-size="10.00">+</text>
<text xml:space="preserve" text-anchor="start" x="168.25" y="-772.5" font-family="Helvetica,sans-Serif" font-size="10.00">operator=()</text>
<text xml:space="preserve" text-anchor="start" x="156" y="-755.75" font-family="Helvetica,sans-Serif" font-size="10.00">+</text>
<text xml:space="preserve" text-anchor="start" x="168.25" y="-755.75" font-family="Helvetica,sans-Serif" font-size="10.00">operator*()</text>
<text xml:space="preserve" text-anchor="start" x="156" y="-739" font-family="Helvetica,sans-Serif" font-size="10.00">+</text>
<text xml:space="preserve" text-anchor="start" x="168.25" y="-739" font-family="Helvetica,sans-Serif" font-size="10.00">operator&#45;&gt;()</text>
<text xml:space="preserve" text-anchor="start" x="156" y="-722.25" font-family="Helvetica,sans-Serif" font-size="10.00">+</text>
<text xml:space="preserve" text-anchor="start" x="168.25" y="-722.25" font-family="Helvetica,sans-Serif" font-size="10.00">operator*()</text>
<text xml:space="preserve" text-anchor="start" x="168.25" y="-705.5" font-family="Helvetica,sans-Serif" font-size="10.00">and 11 more...</text>
<polygon fill="#bfbfbf" stroke="#bfbfbf" points="152,-918 152,-918 309.5,-918 309.5,-918 152,-918"/>
<polygon fill="#bfbfbf" stroke="#bfbfbf" points="152,-884.5 152,-884.5 166.25,-884.5 166.25,-884.5 152,-884.5"/>
<polygon fill="#bfbfbf" stroke="#bfbfbf" points="166.25,-884.5 166.25,-884.5 309.5,-884.5 309.5,-884.5 166.25,-884.5"/>
<polygon fill="none" stroke="#bfbfbf" points="152,-698.25 152,-949.5 309.5,-949.5 309.5,-698.25 152,-698.25"/>
</a>
</g>
</g>
<!-- Node5&#45;&gt;Node4 -->
<g id="edge4_Node000004_Node000005" class="edge">
<title>Node5&#45;&gt;Node4</title>
<g id="a_edge4_Node000004_Node000005"><a xlink:title=" ">
<path fill="none" stroke="#63b8ff" d="M230.75,-687.3C230.75,-657.81 230.75,-627.89 230.75,-602.57"/>
<polygon fill="none" stroke="#63b8ff" points="227.25,-687.06 230.75,-697.06 234.25,-687.06 227.25,-687.06"/>
</a>
</g>
</g>
</g>
</svg>
