<?xml version="1.0" encoding="UTF-8" standalone="no"?>
<!DOCTYPE svg PUBLIC "-//W3C//DTD SVG 1.1//EN"
 "http://www.w3.org/Graphics/SVG/1.1/DTD/svg11.dtd">
<!-- Generated by graphviz version 2.49.3 (0)
 -->
<!-- Title: vanetza::dcc::SingleReactiveTransmitRateControl Pages: 1 -->
<svg width="288pt" height="361pt"
 viewBox="0.00 0.00 288.00 361.00" xmlns="http://www.w3.org/2000/svg" xmlns:xlink="http://www.w3.org/1999/xlink">
<g id="graph0" class="graph" transform="scale(1 1) rotate(0) translate(4 357)">
<title>vanetza::dcc::SingleReactiveTransmitRateControl</title>
<!-- Node1 -->
<g id="Node000001" class="node">
<title>Node1</title>
<g id="a_Node000001"><a xlink:title=" ">
<polygon fill="#999999" stroke="transparent" points="210,-131 68,-131 68,0 210,0 210,-131"/>
<text text-anchor="start" x="75.5" y="-118.5" font-family="Helvetica,sans-Serif" font-size="10.00">vanetza::dcc::SingleReactive</text>
<text text-anchor="start" x="94" y="-107.5" font-family="Helvetica,sans-Serif" font-size="10.00">TransmitRateControl</text>
<text text-anchor="start" x="73.5" y="-92.5" font-family="Helvetica,sans-Serif" font-size="10.00">&#45;</text>
<text text-anchor="start" x="83" y="-92.5" font-family="Helvetica,sans-Serif" font-size="10.00">m_fsm</text>
<text text-anchor="start" x="73.5" y="-77.5" font-family="Helvetica,sans-Serif" font-size="10.00">&#45;</text>
<text text-anchor="start" x="83" y="-77.5" font-family="Helvetica,sans-Serif" font-size="10.00">m_fsm_budget</text>
<text text-anchor="start" x="72" y="-62.5" font-family="Helvetica,sans-Serif" font-size="10.00">+</text>
<text text-anchor="start" x="83" y="-62.5" font-family="Helvetica,sans-Serif" font-size="10.00">SingleReactiveTransmitRate</text>
<text text-anchor="start" x="83" y="-51.5" font-family="Helvetica,sans-Serif" font-size="10.00">Control()</text>
<text text-anchor="start" x="72" y="-36.5" font-family="Helvetica,sans-Serif" font-size="10.00">+</text>
<text text-anchor="start" x="83" y="-36.5" font-family="Helvetica,sans-Serif" font-size="10.00">delay()</text>
<text text-anchor="start" x="72" y="-21.5" font-family="Helvetica,sans-Serif" font-size="10.00">+</text>
<text text-anchor="start" x="83" y="-21.5" font-family="Helvetica,sans-Serif" font-size="10.00">interval()</text>
<text text-anchor="start" x="72" y="-6.5" font-family="Helvetica,sans-Serif" font-size="10.00">+</text>
<text text-anchor="start" x="83" y="-6.5" font-family="Helvetica,sans-Serif" font-size="10.00">notify()</text>
<polygon fill="#666666" stroke="#666666" points="68,-102.5 68,-102.5 210,-102.5 210,-102.5 68,-102.5"/>
<polygon fill="#666666" stroke="#666666" points="68,-72.5 68,-72.5 81,-72.5 81,-72.5 68,-72.5"/>
<polygon fill="#666666" stroke="#666666" points="81,-72.5 81,-72.5 210,-72.5 210,-72.5 81,-72.5"/>
<polygon fill="none" stroke="#666666" points="68,0 68,-131 210,-131 210,0 68,0"/>
</a>
</g>
</g>
<!-- Node2 -->
<g id="Node000002" class="node">
<title>Node2</title>
<g id="a_Node000002"><a xlink:href="../../de/d9c/classvanetza_1_1dcc_1_1TransmitRateControl.html" target="_top" xlink:title=" ">
<polygon fill="white" stroke="transparent" points="204,-227 74,-227 74,-167 204,-167 204,-227"/>
<text text-anchor="start" x="79" y="-215" font-family="Helvetica,sans-Serif" font-size="10.00">vanetza::dcc::TransmitRate</text>
<text text-anchor="start" x="123" y="-204" font-family="Helvetica,sans-Serif" font-size="10.00">Control</text>
<text text-anchor="start" x="137" y="-189" font-family="Helvetica,sans-Serif" font-size="10.00"> </text>
<text text-anchor="start" x="137" y="-174" font-family="Helvetica,sans-Serif" font-size="10.00"> </text>
<polygon fill="#bfbfbf" stroke="#bfbfbf" points="74,-199 74,-199 204,-199 204,-199 74,-199"/>
<polygon fill="#bfbfbf" stroke="#bfbfbf" points="74,-184 74,-184 204,-184 204,-184 74,-184"/>
<polygon fill="none" stroke="#bfbfbf" points="74,-167 74,-227 204,-227 204,-167 74,-167"/>
</a>
</g>
</g>
<!-- Node2&#45;&gt;Node1 -->
<g id="edge1_Node000001_Node000002" class="edge">
<title>Node2&#45;&gt;Node1</title>
<g id="a_edge1_Node000001_Node000002"><a xlink:title=" ">
<path fill="none" stroke="#63b8ff" d="M139,-156.72C139,-148.63 139,-139.91 139,-131.19"/>
<polygon fill="none" stroke="#63b8ff" points="135.5,-156.94 139,-166.94 142.5,-156.94 135.5,-156.94"/>
</a>
</g>
</g>
<!-- Node3 -->
<g id="Node000003" class="node">
<title>Node3</title>
<g id="a_Node000003"><a xlink:href="../../dd/dbf/classvanetza_1_1dcc_1_1TransmitRateThrottle.html" target="_top" xlink:title=" ">
<polygon fill="white" stroke="transparent" points="130,-353 0,-353 0,-263 130,-263 130,-353"/>
<text text-anchor="start" x="5" y="-341" font-family="Helvetica,sans-Serif" font-size="10.00">vanetza::dcc::TransmitRate</text>
<text text-anchor="start" x="48" y="-330" font-family="Helvetica,sans-Serif" font-size="10.00">Throttle</text>
<text text-anchor="start" x="63" y="-315" font-family="Helvetica,sans-Serif" font-size="10.00"> </text>
<text text-anchor="start" x="6" y="-300" font-family="Helvetica,sans-Serif" font-size="10.00">+</text>
<text text-anchor="start" x="19" y="-300" font-family="Helvetica,sans-Serif" font-size="10.00">delay()</text>
<text text-anchor="start" x="6" y="-285" font-family="Helvetica,sans-Serif" font-size="10.00">+</text>
<text text-anchor="start" x="19" y="-285" font-family="Helvetica,sans-Serif" font-size="10.00">interval()</text>
<text text-anchor="start" x="6" y="-270" font-family="Helvetica,sans-Serif" font-size="10.00">+</text>
<text text-anchor="start" x="19" y="-270" font-family="Helvetica,sans-Serif" font-size="10.00">~TransmitRateThrottle()</text>
<polygon fill="#bfbfbf" stroke="#bfbfbf" points="0,-325 0,-325 130,-325 130,-325 0,-325"/>
<polygon fill="#bfbfbf" stroke="#bfbfbf" points="0,-310 0,-310 130,-310 130,-310 0,-310"/>
<polygon fill="none" stroke="#bfbfbf" points="0,-263 0,-353 130,-353 130,-263 0,-263"/>
</a>
</g>
</g>
<!-- Node3&#45;&gt;Node2 -->
<g id="edge2_Node000002_Node000003" class="edge">
<title>Node3&#45;&gt;Node2</title>
<g id="a_edge2_Node000002_Node000003"><a xlink:title=" ">
<path fill="none" stroke="#63b8ff" d="M100.7,-254.42C107.06,-245.04 113.48,-235.59 119.2,-227.17"/>
<polygon fill="none" stroke="#63b8ff" points="97.61,-252.74 94.89,-262.98 103.4,-256.67 97.61,-252.74"/>
</a>
</g>
</g>
<!-- Node4 -->
<g id="Node000004" class="node">
<title>Node4</title>
<g id="a_Node000004"><a xlink:href="../../d2/d13/classvanetza_1_1dcc_1_1TransmitRateFeedback.html" target="_top" xlink:title=" ">
<polygon fill="white" stroke="transparent" points="280,-345.5 148,-345.5 148,-270.5 280,-270.5 280,-345.5"/>
<text text-anchor="start" x="154" y="-333" font-family="Helvetica,sans-Serif" font-size="10.00">vanetza::dcc::TransmitRate</text>
<text text-anchor="start" x="192.5" y="-322" font-family="Helvetica,sans-Serif" font-size="10.00">Feedback</text>
<text text-anchor="start" x="212" y="-307" font-family="Helvetica,sans-Serif" font-size="10.00"> </text>
<text text-anchor="start" x="152" y="-292" font-family="Helvetica,sans-Serif" font-size="10.00">+</text>
<text text-anchor="start" x="163" y="-292" font-family="Helvetica,sans-Serif" font-size="10.00">notify()</text>
<text text-anchor="start" x="152" y="-277" font-family="Helvetica,sans-Serif" font-size="10.00">+</text>
<text text-anchor="start" x="163" y="-277" font-family="Helvetica,sans-Serif" font-size="10.00">~TransmitRateFeedback()</text>
<polygon fill="#bfbfbf" stroke="#bfbfbf" points="148,-317 148,-317 280,-317 280,-317 148,-317"/>
<polygon fill="#bfbfbf" stroke="#bfbfbf" points="148,-302 148,-302 280,-302 280,-302 148,-302"/>
<polygon fill="none" stroke="#bfbfbf" points="148,-270.5 148,-345.5 280,-345.5 280,-270.5 148,-270.5"/>
</a>
</g>
</g>
<!-- Node4&#45;&gt;Node2 -->
<g id="edge3_Node000002_Node000004" class="edge">
<title>Node4&#45;&gt;Node2</title>
<g id="a_edge3_Node000002_Node000004"><a xlink:title=" ">
<path fill="none" stroke="#63b8ff" d="M183.01,-261.97C174.91,-250.19 166.39,-237.8 159.02,-227.1"/>
<polygon fill="none" stroke="#63b8ff" points="180.27,-264.15 188.82,-270.4 186.03,-260.18 180.27,-264.15"/>
</a>
</g>
</g>
</g>
</svg>
