<?xml version="1.0" encoding="UTF-8" standalone="no"?>
<!DOCTYPE svg PUBLIC "-//W3C//DTD SVG 1.1//EN"
 "http://www.w3.org/Graphics/SVG/1.1/DTD/svg11.dtd">
<!-- Generated by graphviz version 2.49.3 (0)
 -->
<!-- Title: vanetza::dcc::SingleReactiveTransmitRateControl Pages: 1 -->
<svg width="300pt" height="364pt"
 viewBox="0.00 0.00 300.00 364.00" xmlns="http://www.w3.org/2000/svg" xmlns:xlink="http://www.w3.org/1999/xlink">
<g id="graph0" class="graph" transform="scale(1 1) rotate(0) translate(4 360)">
<title>vanetza::dcc::SingleReactiveTransmitRateControl</title>
<polygon fill="white" stroke="transparent" points="-4,4 -4,-360 296,-360 296,4 -4,4"/>
<!-- Node1 -->
<g id="node1" class="node">
<title>Node1</title>
<g id="a_node1"><a xlink:title=" ">
<polygon fill="#bfbfbf" stroke="black" points="71,-0.5 71,-123.5 219,-123.5 219,-0.5 71,-0.5"/>
<text text-anchor="start" x="79" y="-111.5" font-family="Helvetica,sans-Serif" font-size="10.00">vanetza::dcc::SingleReactive</text>
<text text-anchor="middle" x="145" y="-100.5" font-family="Helvetica,sans-Serif" font-size="10.00">TransmitRateControl</text>
<polyline fill="none" stroke="black" points="71,-93.5 219,-93.5 "/>
<text text-anchor="start" x="79" y="-81.5" font-family="Helvetica,sans-Serif" font-size="10.00">&#45; m_fsm</text>
<text text-anchor="start" x="79" y="-70.5" font-family="Helvetica,sans-Serif" font-size="10.00">&#45; m_fsm_budget</text>
<polyline fill="none" stroke="black" points="71,-63.5 219,-63.5 "/>
<text text-anchor="start" x="79" y="-51.5" font-family="Helvetica,sans-Serif" font-size="10.00">+ SingleReactiveTransmitRate</text>
<text text-anchor="start" x="79" y="-40.5" font-family="Helvetica,sans-Serif" font-size="10.00">Control()</text>
<text text-anchor="start" x="79" y="-29.5" font-family="Helvetica,sans-Serif" font-size="10.00">+ delay()</text>
<text text-anchor="start" x="79" y="-18.5" font-family="Helvetica,sans-Serif" font-size="10.00">+ interval()</text>
<text text-anchor="start" x="79" y="-7.5" font-family="Helvetica,sans-Serif" font-size="10.00">+ notify()</text>
</a>
</g>
</g>
<!-- Node2 -->
<g id="node2" class="node">
<title>Node2</title>
<g id="a_node2"><a xlink:href="../../de/d9c/classvanetza_1_1dcc_1_1TransmitRateControl.html" target="_top" xlink:title=" ">
<polygon fill="white" stroke="#bfbfbf" points="77,-160.5 77,-228.5 213,-228.5 213,-160.5 77,-160.5"/>
<text text-anchor="start" x="85" y="-216.5" font-family="Helvetica,sans-Serif" font-size="10.00">vanetza::dcc::TransmitRate</text>
<text text-anchor="middle" x="145" y="-205.5" font-family="Helvetica,sans-Serif" font-size="10.00">Control</text>
<polyline fill="none" stroke="#bfbfbf" points="77,-198.5 213,-198.5 "/>
<text text-anchor="middle" x="145" y="-186.5" font-family="Helvetica,sans-Serif" font-size="10.00"> </text>
<polyline fill="none" stroke="#bfbfbf" points="77,-179.5 213,-179.5 "/>
<text text-anchor="middle" x="145" y="-167.5" font-family="Helvetica,sans-Serif" font-size="10.00"> </text>
</a>
</g>
</g>
<!-- Node2&#45;&gt;Node1 -->
<g id="edge1" class="edge">
<title>Node2&#45;&gt;Node1</title>
<path fill="none" stroke="midnightblue" d="M145,-150.17C145,-141.65 145,-132.57 145,-123.61"/>
<polygon fill="none" stroke="midnightblue" points="141.5,-150.23 145,-160.23 148.5,-150.23 141.5,-150.23"/>
</g>
<!-- Node3 -->
<g id="node3" class="node">
<title>Node3</title>
<g id="a_node3"><a xlink:href="../../dd/dbf/classvanetza_1_1dcc_1_1TransmitRateThrottle.html" target="_top" xlink:title=" ">
<polygon fill="white" stroke="#bfbfbf" points="0,-265.5 0,-355.5 136,-355.5 136,-265.5 0,-265.5"/>
<text text-anchor="start" x="8" y="-343.5" font-family="Helvetica,sans-Serif" font-size="10.00">vanetza::dcc::TransmitRate</text>
<text text-anchor="middle" x="68" y="-332.5" font-family="Helvetica,sans-Serif" font-size="10.00">Throttle</text>
<polyline fill="none" stroke="#bfbfbf" points="0,-325.5 136,-325.5 "/>
<text text-anchor="middle" x="68" y="-313.5" font-family="Helvetica,sans-Serif" font-size="10.00"> </text>
<polyline fill="none" stroke="#bfbfbf" points="0,-306.5 136,-306.5 "/>
<text text-anchor="start" x="8" y="-294.5" font-family="Helvetica,sans-Serif" font-size="10.00">+ delay()</text>
<text text-anchor="start" x="8" y="-283.5" font-family="Helvetica,sans-Serif" font-size="10.00">+ interval()</text>
<text text-anchor="start" x="8" y="-272.5" font-family="Helvetica,sans-Serif" font-size="10.00">+ ~TransmitRateThrottle()</text>
</a>
</g>
</g>
<!-- Node3&#45;&gt;Node2 -->
<g id="edge2" class="edge">
<title>Node3&#45;&gt;Node2</title>
<path fill="none" stroke="midnightblue" d="M103.42,-257.06C109.9,-247.47 116.5,-237.7 122.48,-228.85"/>
<polygon fill="none" stroke="midnightblue" points="100.47,-255.18 97.77,-265.42 106.27,-259.1 100.47,-255.18"/>
</g>
<!-- Node4 -->
<g id="node4" class="node">
<title>Node4</title>
<g id="a_node4"><a xlink:href="../../d2/d13/classvanetza_1_1dcc_1_1TransmitRateFeedback.html" target="_top" xlink:title=" ">
<polygon fill="white" stroke="#bfbfbf" points="154,-271 154,-350 292,-350 292,-271 154,-271"/>
<text text-anchor="start" x="162" y="-338" font-family="Helvetica,sans-Serif" font-size="10.00">vanetza::dcc::TransmitRate</text>
<text text-anchor="middle" x="223" y="-327" font-family="Helvetica,sans-Serif" font-size="10.00">Feedback</text>
<polyline fill="none" stroke="#bfbfbf" points="154,-320 292,-320 "/>
<text text-anchor="middle" x="223" y="-308" font-family="Helvetica,sans-Serif" font-size="10.00"> </text>
<polyline fill="none" stroke="#bfbfbf" points="154,-301 292,-301 "/>
<text text-anchor="start" x="162" y="-289" font-family="Helvetica,sans-Serif" font-size="10.00">+ notify()</text>
<text text-anchor="start" x="162" y="-278" font-family="Helvetica,sans-Serif" font-size="10.00">+ ~TransmitRateFeedback()</text>
</a>
</g>
</g>
<!-- Node4&#45;&gt;Node2 -->
<g id="edge3" class="edge">
<title>Node4&#45;&gt;Node2</title>
<path fill="none" stroke="midnightblue" d="M190.77,-262.39C183.03,-251.09 174.93,-239.25 167.73,-228.72"/>
<polygon fill="none" stroke="midnightblue" points="188.06,-264.63 196.59,-270.9 193.83,-260.68 188.06,-264.63"/>
</g>
</g>
</svg>
