<?xml version="1.0" encoding="UTF-8" standalone="no"?>
<!DOCTYPE svg PUBLIC "-//W3C//DTD SVG 1.1//EN"
 "http://www.w3.org/Graphics/SVG/1.1/DTD/svg11.dtd">
<!-- Generated by graphviz version 14.1.2 (0)
 -->
<!-- Title: vanetza::security::v3::StaticCertificateProvider Pages: 1 -->
<svg width="154pt" height="432pt"
 viewBox="0.00 0.00 154.00 432.00" xmlns="http://www.w3.org/2000/svg" xmlns:xlink="http://www.w3.org/1999/xlink">

<svg id="main" version="1.1" xmlns="http://www.w3.org/2000/svg" xmlns:xlink="http://www.w3.org/1999/xlink" xml:space="preserve">

<style type="text/css"><![CDATA[
.node, .edge {opacity: 0.7;}
.node.selected, .edge.selected {opacity: 1;}
.edge:hover path { stroke: red; }
.edge:hover polygon { stroke: red; fill: red; }
]]></style>
<script type="application/ecmascript" xlink:href="../../svg.min.js"/>
<svg id="graph" class="graph">
<g id="graph0" class="graph" transform="scale(1 1) rotate(0) translate(4 427.75)">
<title>vanetza::security::v3::StaticCertificateProvider</title>
<!-- Node1 -->
<g id="Node000001" class="node">
<title>Node1</title>
<g id="a_Node000001"><a xlink:title="A simple certificate provider.">
<polygon fill="#999999" stroke="none" points="146.25,-134 0,-134 0,0 146.25,0 146.25,-134"/>
<text xml:space="preserve" text-anchor="start" x="4.88" y="-120.5" font-family="Helvetica,sans-Serif" font-size="10.00">vanetza::security::</text>
<text xml:space="preserve" text-anchor="start" x="4.88" y="-107.75" font-family="Helvetica,sans-Serif" font-size="10.00">v3::StaticCertificateProvider</text>
<text xml:space="preserve" text-anchor="start" x="6.25" y="-91" font-family="Helvetica,sans-Serif" font-size="10.00">&#45;</text>
<text xml:space="preserve" text-anchor="start" x="16.25" y="-91" font-family="Helvetica,sans-Serif" font-size="10.00">authorization_ticket</text>
<text xml:space="preserve" text-anchor="start" x="6.25" y="-74.25" font-family="Helvetica,sans-Serif" font-size="10.00">&#45;</text>
<text xml:space="preserve" text-anchor="start" x="16.25" y="-74.25" font-family="Helvetica,sans-Serif" font-size="10.00">authorization_ticket_key</text>
<text xml:space="preserve" text-anchor="start" x="6.25" y="-57.5" font-family="Helvetica,sans-Serif" font-size="10.00">&#45;</text>
<text xml:space="preserve" text-anchor="start" x="16.25" y="-57.5" font-family="Helvetica,sans-Serif" font-size="10.00">chain</text>
<text xml:space="preserve" text-anchor="start" x="4" y="-40.75" font-family="Helvetica,sans-Serif" font-size="10.00">+</text>
<text xml:space="preserve" text-anchor="start" x="16.25" y="-40.75" font-family="Helvetica,sans-Serif" font-size="10.00">StaticCertificateProvider()</text>
<text xml:space="preserve" text-anchor="start" x="4" y="-24" font-family="Helvetica,sans-Serif" font-size="10.00">+</text>
<text xml:space="preserve" text-anchor="start" x="16.25" y="-24" font-family="Helvetica,sans-Serif" font-size="10.00">own_certificate()</text>
<text xml:space="preserve" text-anchor="start" x="4" y="-7.25" font-family="Helvetica,sans-Serif" font-size="10.00">+</text>
<text xml:space="preserve" text-anchor="start" x="16.25" y="-7.25" font-family="Helvetica,sans-Serif" font-size="10.00">own_private_key()</text>
<polygon fill="#666666" stroke="#666666" points="0,-102.5 0,-102.5 146.25,-102.5 146.25,-102.5 0,-102.5"/>
<polygon fill="#666666" stroke="#666666" points="0,-52.25 0,-52.25 14.25,-52.25 14.25,-52.25 0,-52.25"/>
<polygon fill="#666666" stroke="#666666" points="14.25,-52.25 14.25,-52.25 146.25,-52.25 146.25,-52.25 14.25,-52.25"/>
<polygon fill="none" stroke="#666666" points="0,0 0,-134 146.25,-134 146.25,0 0,0"/>
</a>
</g>
</g>
<!-- Node2 -->
<g id="Node000002" class="node">
<title>Node2</title>
<g id="a_Node000002"><a xlink:href="../../d3/dd7/classvanetza_1_1security_1_1v3_1_1BaseCertificateProvider.html" target="_top" xlink:title=" ">
<polygon fill="white" stroke="none" points="143.5,-253.75 2.75,-253.75 2.75,-170 143.5,-170 143.5,-253.75"/>
<text xml:space="preserve" text-anchor="start" x="6.75" y="-240.25" font-family="Helvetica,sans-Serif" font-size="10.00">vanetza::security::</text>
<text xml:space="preserve" text-anchor="start" x="6.75" y="-227.5" font-family="Helvetica,sans-Serif" font-size="10.00">v3::BaseCertificateProvider</text>
<text xml:space="preserve" text-anchor="start" x="28.25" y="-210.75" font-family="Helvetica,sans-Serif" font-size="10.00">&#45;</text>
<text xml:space="preserve" text-anchor="start" x="57.5" y="-210.75" font-family="Helvetica,sans-Serif" font-size="10.00">m_cache</text>
<text xml:space="preserve" text-anchor="start" x="26" y="-194" font-family="Helvetica,sans-Serif" font-size="10.00">+</text>
<text xml:space="preserve" text-anchor="start" x="57.5" y="-194" font-family="Helvetica,sans-Serif" font-size="10.00">cache()</text>
<text xml:space="preserve" text-anchor="start" x="26" y="-177.25" font-family="Helvetica,sans-Serif" font-size="10.00">+</text>
<text xml:space="preserve" text-anchor="start" x="57.5" y="-177.25" font-family="Helvetica,sans-Serif" font-size="10.00">cache()</text>
<polygon fill="#bfbfbf" stroke="#bfbfbf" points="2.75,-222.25 2.75,-222.25 143.5,-222.25 143.5,-222.25 2.75,-222.25"/>
<polygon fill="#bfbfbf" stroke="#bfbfbf" points="2.75,-205.5 2.75,-205.5 55.5,-205.5 55.5,-205.5 2.75,-205.5"/>
<polygon fill="#bfbfbf" stroke="#bfbfbf" points="55.5,-205.5 55.5,-205.5 143.5,-205.5 143.5,-205.5 55.5,-205.5"/>
<polygon fill="none" stroke="#bfbfbf" points="2.75,-170 2.75,-253.75 143.5,-253.75 143.5,-170 2.75,-170"/>
</a>
</g>
</g>
<!-- Node2&#45;&gt;Node1 -->
<g id="edge1_Node000001_Node000002" class="edge">
<title>Node2&#45;&gt;Node1</title>
<g id="a_edge1_Node000001_Node000002"><a xlink:title=" ">
<path fill="none" stroke="#63b8ff" d="M73.12,-159.03C73.12,-150.83 73.12,-142.26 73.12,-133.8"/>
<polygon fill="none" stroke="#63b8ff" points="69.63,-158.8 73.13,-168.8 76.63,-158.8 69.63,-158.8"/>
</a>
</g>
</g>
<!-- Node3 -->
<g id="Node000003" class="node">
<title>Node3</title>
<g id="a_Node000003"><a xlink:href="../../d7/d65/classvanetza_1_1security_1_1v3_1_1CertificateProvider.html" target="_top" xlink:title=" ">
<polygon fill="white" stroke="none" points="136.5,-423.75 9.75,-423.75 9.75,-289.75 136.5,-289.75 136.5,-423.75"/>
<text xml:space="preserve" text-anchor="start" x="18.75" y="-410.25" font-family="Helvetica,sans-Serif" font-size="10.00">vanetza::security::</text>
<text xml:space="preserve" text-anchor="start" x="18.75" y="-397.5" font-family="Helvetica,sans-Serif" font-size="10.00">v3::CertificateProvider</text>
<text xml:space="preserve" text-anchor="start" x="71.62" y="-380.75" font-family="Helvetica,sans-Serif" font-size="10.00"> </text>
<text xml:space="preserve" text-anchor="start" x="13.75" y="-364" font-family="Helvetica,sans-Serif" font-size="10.00">+</text>
<text xml:space="preserve" text-anchor="start" x="26" y="-364" font-family="Helvetica,sans-Serif" font-size="10.00">own_certificate()</text>
<text xml:space="preserve" text-anchor="start" x="13.75" y="-347.25" font-family="Helvetica,sans-Serif" font-size="10.00">+</text>
<text xml:space="preserve" text-anchor="start" x="26" y="-347.25" font-family="Helvetica,sans-Serif" font-size="10.00">own_private_key()</text>
<text xml:space="preserve" text-anchor="start" x="13.75" y="-330.5" font-family="Helvetica,sans-Serif" font-size="10.00">+</text>
<text xml:space="preserve" text-anchor="start" x="26" y="-330.5" font-family="Helvetica,sans-Serif" font-size="10.00">cache()</text>
<text xml:space="preserve" text-anchor="start" x="13.75" y="-313.75" font-family="Helvetica,sans-Serif" font-size="10.00">+</text>
<text xml:space="preserve" text-anchor="start" x="26" y="-313.75" font-family="Helvetica,sans-Serif" font-size="10.00">cache()</text>
<text xml:space="preserve" text-anchor="start" x="13.75" y="-297" font-family="Helvetica,sans-Serif" font-size="10.00">+</text>
<text xml:space="preserve" text-anchor="start" x="26" y="-297" font-family="Helvetica,sans-Serif" font-size="10.00">~CertificateProvider()</text>
<polygon fill="#bfbfbf" stroke="#bfbfbf" points="9.75,-392.25 9.75,-392.25 136.5,-392.25 136.5,-392.25 9.75,-392.25"/>
<polygon fill="#bfbfbf" stroke="#bfbfbf" points="9.75,-375.5 9.75,-375.5 136.5,-375.5 136.5,-375.5 9.75,-375.5"/>
<polygon fill="none" stroke="#bfbfbf" points="9.75,-289.75 9.75,-423.75 136.5,-423.75 136.5,-289.75 9.75,-289.75"/>
</a>
</g>
</g>
<!-- Node3&#45;&gt;Node2 -->
<g id="edge2_Node000002_Node000003" class="edge">
<title>Node3&#45;&gt;Node2</title>
<g id="a_edge2_Node000002_Node000003"><a xlink:title=" ">
<path fill="none" stroke="#63b8ff" d="M73.12,-278.74C73.12,-270.07 73.12,-261.51 73.12,-253.57"/>
<polygon fill="none" stroke="#63b8ff" points="69.63,-278.65 73.13,-288.65 76.63,-278.65 69.63,-278.65"/>
</a>
</g>
</g>
</g>
</svg>
</svg>

<style type='text/css'>
<![CDATA[
[data-mouse-over-selected='false'] { opacity: 0.7; }
[data-mouse-over-selected='true']  { opacity: 1.0; }
]]>
</style>
<script type="application/ecmascript"><![CDATA[
document.addEventListener('DOMContentLoaded', (event) => {
  highlightEdges();
  highlightAdjacentNodes();
});
]]></script>
</svg>
