<?xml version="1.0" encoding="UTF-8" standalone="no"?>
<!DOCTYPE svg PUBLIC "-//W3C//DTD SVG 1.1//EN"
 "http://www.w3.org/Graphics/SVG/1.1/DTD/svg11.dtd">
<!-- Generated by graphviz version 2.49.3 (0)
 -->
<!-- Title: vanetza::security::v3::StaticCertificateProvider Pages: 1 -->
<svg width="142pt" height="395pt"
 viewBox="0.00 0.00 142.00 395.00" xmlns="http://www.w3.org/2000/svg" xmlns:xlink="http://www.w3.org/1999/xlink">

<svg id="main" version="1.1" xmlns="http://www.w3.org/2000/svg" xmlns:xlink="http://www.w3.org/1999/xlink" xml:space="preserve">

<style type="text/css"><![CDATA[
.node, .edge {opacity: 0.7;}
.node.selected, .edge.selected {opacity: 1;}
.edge:hover path { stroke: red; }
.edge:hover polygon { stroke: red; fill: red; }
]]></style>
<script type="application/ecmascript" xlink:href="../../svg.min.js"/>
<svg id="graph" class="graph">
<g id="graph0" class="graph" transform="scale(1 1) rotate(0) translate(4 391)">
<title>vanetza::security::v3::StaticCertificateProvider</title>
<!-- Node1 -->
<g id="Node000001" class="node">
<title>Node1</title>
<g id="a_Node000001"><a xlink:title="A simple certificate provider.">
<polygon fill="#999999" stroke="transparent" points="134,-120 0,-120 0,0 134,0 134,-120"/>
<text text-anchor="start" x="5" y="-108" font-family="Helvetica,sans-Serif" font-size="10.00">vanetza::security::</text>
<text text-anchor="start" x="5" y="-97" font-family="Helvetica,sans-Serif" font-size="10.00">v3::StaticCertificateProvider</text>
<text text-anchor="start" x="5.5" y="-82" font-family="Helvetica,sans-Serif" font-size="10.00">&#45;</text>
<text text-anchor="start" x="15" y="-82" font-family="Helvetica,sans-Serif" font-size="10.00">authorization_ticket</text>
<text text-anchor="start" x="5.5" y="-67" font-family="Helvetica,sans-Serif" font-size="10.00">&#45;</text>
<text text-anchor="start" x="15" y="-67" font-family="Helvetica,sans-Serif" font-size="10.00">authorization_ticket_key</text>
<text text-anchor="start" x="5.5" y="-52" font-family="Helvetica,sans-Serif" font-size="10.00">&#45;</text>
<text text-anchor="start" x="15" y="-52" font-family="Helvetica,sans-Serif" font-size="10.00">chain</text>
<text text-anchor="start" x="4" y="-37" font-family="Helvetica,sans-Serif" font-size="10.00">+</text>
<text text-anchor="start" x="15" y="-37" font-family="Helvetica,sans-Serif" font-size="10.00">StaticCertificateProvider()</text>
<text text-anchor="start" x="4" y="-22" font-family="Helvetica,sans-Serif" font-size="10.00">+</text>
<text text-anchor="start" x="15" y="-22" font-family="Helvetica,sans-Serif" font-size="10.00">own_certificate()</text>
<text text-anchor="start" x="4" y="-7" font-family="Helvetica,sans-Serif" font-size="10.00">+</text>
<text text-anchor="start" x="15" y="-7" font-family="Helvetica,sans-Serif" font-size="10.00">own_private_key()</text>
<polygon fill="#666666" stroke="#666666" points="0,-92 0,-92 134,-92 134,-92 0,-92"/>
<polygon fill="#666666" stroke="#666666" points="0,-47 0,-47 13,-47 13,-47 0,-47"/>
<polygon fill="#666666" stroke="#666666" points="13,-47 13,-47 134,-47 134,-47 13,-47"/>
<polygon fill="none" stroke="#666666" points="0,0 0,-120 134,-120 134,0 0,0"/>
</a>
</g>
</g>
<!-- Node2 -->
<g id="Node000002" class="node">
<title>Node2</title>
<g id="a_Node000002"><a xlink:href="../../d3/dd7/classvanetza_1_1security_1_1v3_1_1BaseCertificateProvider.html" target="_top" xlink:title=" ">
<polygon fill="white" stroke="transparent" points="132.5,-231 1.5,-231 1.5,-156 132.5,-156 132.5,-231"/>
<text text-anchor="start" x="7" y="-218.5" font-family="Helvetica,sans-Serif" font-size="10.00">vanetza::security::</text>
<text text-anchor="start" x="7" y="-207.5" font-family="Helvetica,sans-Serif" font-size="10.00">v3::BaseCertificateProvider</text>
<text text-anchor="start" x="25.5" y="-192.5" font-family="Helvetica,sans-Serif" font-size="10.00">&#45;</text>
<text text-anchor="start" x="53" y="-192.5" font-family="Helvetica,sans-Serif" font-size="10.00">m_cache</text>
<text text-anchor="start" x="24" y="-177.5" font-family="Helvetica,sans-Serif" font-size="10.00">+</text>
<text text-anchor="start" x="53" y="-177.5" font-family="Helvetica,sans-Serif" font-size="10.00">cache()</text>
<text text-anchor="start" x="24" y="-162.5" font-family="Helvetica,sans-Serif" font-size="10.00">+</text>
<text text-anchor="start" x="53" y="-162.5" font-family="Helvetica,sans-Serif" font-size="10.00">cache()</text>
<polygon fill="#bfbfbf" stroke="#bfbfbf" points="2,-202.5 2,-202.5 133,-202.5 133,-202.5 2,-202.5"/>
<polygon fill="#bfbfbf" stroke="#bfbfbf" points="2,-187.5 2,-187.5 51,-187.5 51,-187.5 2,-187.5"/>
<polygon fill="#bfbfbf" stroke="#bfbfbf" points="51,-187.5 51,-187.5 133,-187.5 133,-187.5 51,-187.5"/>
<polygon fill="none" stroke="#bfbfbf" points="1.5,-156 1.5,-231 132.5,-231 132.5,-156 1.5,-156"/>
</a>
</g>
</g>
<!-- Node2&#45;&gt;Node1 -->
<g id="edge1_Node000001_Node000002" class="edge">
<title>Node2&#45;&gt;Node1</title>
<g id="a_edge1_Node000001_Node000002"><a xlink:title=" ">
<path fill="none" stroke="#63b8ff" d="M67,-145.67C67,-137.39 67,-128.68 67,-120.12"/>
<polygon fill="none" stroke="#63b8ff" points="63.5,-145.87 67,-155.87 70.5,-145.87 63.5,-145.87"/>
</a>
</g>
</g>
<!-- Node3 -->
<g id="Node000003" class="node">
<title>Node3</title>
<g id="a_Node000003"><a xlink:href="../../d7/d65/classvanetza_1_1security_1_1v3_1_1CertificateProvider.html" target="_top" xlink:title=" ">
<polygon fill="white" stroke="transparent" points="123.5,-387 10.5,-387 10.5,-267 123.5,-267 123.5,-387"/>
<text text-anchor="start" x="18" y="-375" font-family="Helvetica,sans-Serif" font-size="10.00">vanetza::security::</text>
<text text-anchor="start" x="18" y="-364" font-family="Helvetica,sans-Serif" font-size="10.00">v3::CertificateProvider</text>
<text text-anchor="start" x="65.5" y="-349" font-family="Helvetica,sans-Serif" font-size="10.00"> </text>
<text text-anchor="start" x="15" y="-334" font-family="Helvetica,sans-Serif" font-size="10.00">+</text>
<text text-anchor="start" x="26" y="-334" font-family="Helvetica,sans-Serif" font-size="10.00">own_certificate()</text>
<text text-anchor="start" x="15" y="-319" font-family="Helvetica,sans-Serif" font-size="10.00">+</text>
<text text-anchor="start" x="26" y="-319" font-family="Helvetica,sans-Serif" font-size="10.00">own_private_key()</text>
<text text-anchor="start" x="15" y="-304" font-family="Helvetica,sans-Serif" font-size="10.00">+</text>
<text text-anchor="start" x="26" y="-304" font-family="Helvetica,sans-Serif" font-size="10.00">cache()</text>
<text text-anchor="start" x="15" y="-289" font-family="Helvetica,sans-Serif" font-size="10.00">+</text>
<text text-anchor="start" x="26" y="-289" font-family="Helvetica,sans-Serif" font-size="10.00">cache()</text>
<text text-anchor="start" x="15" y="-274" font-family="Helvetica,sans-Serif" font-size="10.00">+</text>
<text text-anchor="start" x="26" y="-274" font-family="Helvetica,sans-Serif" font-size="10.00">~CertificateProvider()</text>
<polygon fill="#bfbfbf" stroke="#bfbfbf" points="11,-359 11,-359 124,-359 124,-359 11,-359"/>
<polygon fill="#bfbfbf" stroke="#bfbfbf" points="11,-344 11,-344 124,-344 124,-344 11,-344"/>
<polygon fill="none" stroke="#bfbfbf" points="10.5,-267 10.5,-387 123.5,-387 123.5,-267 10.5,-267"/>
</a>
</g>
</g>
<!-- Node3&#45;&gt;Node2 -->
<g id="edge2_Node000002_Node000003" class="edge">
<title>Node3&#45;&gt;Node2</title>
<g id="a_edge2_Node000002_Node000003"><a xlink:title=" ">
<path fill="none" stroke="#63b8ff" d="M67,-256.52C67,-247.77 67,-239.11 67,-231.16"/>
<polygon fill="none" stroke="#63b8ff" points="63.5,-256.79 67,-266.79 70.5,-256.79 63.5,-256.79"/>
</a>
</g>
</g>
</g>
</svg>
</svg>

<style type='text/css'>
<![CDATA[
[data-mouse-over-selected='false'] { opacity: 0.7; }
[data-mouse-over-selected='true']  { opacity: 1.0; }
]]>
</style>
<script type="application/ecmascript"><![CDATA[
document.addEventListener('DOMContentLoaded', (event) => {
  highlightEdges();
  highlightAdjacentNodes();
});
]]></script>
</svg>
