<?xml version="1.0" encoding="UTF-8" standalone="no"?>
<!DOCTYPE svg PUBLIC "-//W3C//DTD SVG 1.1//EN"
 "http://www.w3.org/Graphics/SVG/1.1/DTD/svg11.dtd">
<!-- Generated by graphviz version 14.1.2 (0)
 -->
<!-- Title: vanetza::asn1::PacketVisitor&lt; T &gt; Pages: 1 -->
<svg width="182pt" height="283pt"
 viewBox="0.00 0.00 182.00 283.00" xmlns="http://www.w3.org/2000/svg" xmlns:xlink="http://www.w3.org/1999/xlink">

<svg id="main" version="1.1" xmlns="http://www.w3.org/2000/svg" xmlns:xlink="http://www.w3.org/1999/xlink" xml:space="preserve">

<style type="text/css"><![CDATA[
.node, .edge {opacity: 0.7;}
.node.selected, .edge.selected {opacity: 1;}
.edge:hover path { stroke: red; }
.edge:hover polygon { stroke: red; fill: red; }
]]></style>
<script type="application/ecmascript" xlink:href="../../svg.min.js"/>
<svg id="graph" class="graph">
<g id="graph0" class="graph" transform="scale(1 1) rotate(0) translate(4 278.5)">
<title>vanetza::asn1::PacketVisitor&lt; T &gt;</title>
<!-- Node1 -->
<g id="Node000001" class="node">
<title>Node1</title>
<g id="a_Node000001"><a xlink:title=" ">
<polygon fill="#999999" stroke="none" points="173.75,-171.5 0,-171.5 0,0 173.75,0 173.75,-171.5"/>
<text xml:space="preserve" text-anchor="start" x="4" y="-158" font-family="Helvetica,sans-Serif" font-size="10.00">vanetza::asn1::PacketVisitor&lt; T &gt;</text>
<text xml:space="preserve" text-anchor="start" x="8.25" y="-141.25" font-family="Helvetica,sans-Serif" font-size="10.00">&#45;</text>
<text xml:space="preserve" text-anchor="start" x="20.25" y="-141.25" font-family="Helvetica,sans-Serif" font-size="10.00">m_wrapper</text>
<text xml:space="preserve" text-anchor="start" x="8.25" y="-124.5" font-family="Helvetica,sans-Serif" font-size="10.00">&#45;</text>
<text xml:space="preserve" text-anchor="start" x="20.25" y="-124.5" font-family="Helvetica,sans-Serif" font-size="10.00">m_deserialize_chunk</text>
<text xml:space="preserve" text-anchor="start" x="8.25" y="-107.75" font-family="Helvetica,sans-Serif" font-size="10.00">&#45;</text>
<text xml:space="preserve" text-anchor="start" x="20.25" y="-107.75" font-family="Helvetica,sans-Serif" font-size="10.00">m_start_layer</text>
<text xml:space="preserve" text-anchor="start" x="6" y="-91" font-family="Helvetica,sans-Serif" font-size="10.00">+</text>
<text xml:space="preserve" text-anchor="start" x="20.25" y="-91" font-family="Helvetica,sans-Serif" font-size="10.00">operator()()</text>
<text xml:space="preserve" text-anchor="start" x="6" y="-74.25" font-family="Helvetica,sans-Serif" font-size="10.00">+</text>
<text xml:space="preserve" text-anchor="start" x="20.25" y="-74.25" font-family="Helvetica,sans-Serif" font-size="10.00">operator()()</text>
<text xml:space="preserve" text-anchor="start" x="6" y="-57.5" font-family="Helvetica,sans-Serif" font-size="10.00">+</text>
<text xml:space="preserve" text-anchor="start" x="20.25" y="-57.5" font-family="Helvetica,sans-Serif" font-size="10.00">get_shared_wrapper()</text>
<text xml:space="preserve" text-anchor="start" x="6" y="-40.75" font-family="Helvetica,sans-Serif" font-size="10.00">+</text>
<text xml:space="preserve" text-anchor="start" x="20.25" y="-40.75" font-family="Helvetica,sans-Serif" font-size="10.00">allow_chunk_deserialization()</text>
<text xml:space="preserve" text-anchor="start" x="6" y="-24" font-family="Helvetica,sans-Serif" font-size="10.00">+</text>
<text xml:space="preserve" text-anchor="start" x="20.25" y="-24" font-family="Helvetica,sans-Serif" font-size="10.00">start_deserialization_at()</text>
<text xml:space="preserve" text-anchor="start" x="8.25" y="-7.25" font-family="Helvetica,sans-Serif" font-size="10.00">&#45;</text>
<text xml:space="preserve" text-anchor="start" x="20.25" y="-7.25" font-family="Helvetica,sans-Serif" font-size="10.00">deserialize()</text>
<polygon fill="#666666" stroke="#666666" points="0,-152.75 0,-152.75 173.75,-152.75 173.75,-152.75 0,-152.75"/>
<polygon fill="#666666" stroke="#666666" points="0,-102.5 0,-102.5 18.25,-102.5 18.25,-102.5 0,-102.5"/>
<polygon fill="#666666" stroke="#666666" points="18.25,-102.5 18.25,-102.5 173.75,-102.5 173.75,-102.5 18.25,-102.5"/>
<polygon fill="none" stroke="#666666" points="0,0 0,-171.5 173.75,-171.5 173.75,0 0,0"/>
</a>
</g>
</g>
<!-- Node2 -->
<g id="Node000002" class="node">
<title>Node2</title>
<g id="a_Node000002"><a xlink:title=" ">
<polygon fill="white" stroke="none" points="167.38,-274.5 6.38,-274.5 6.38,-207.5 167.38,-207.5 167.38,-274.5"/>
<text xml:space="preserve" text-anchor="start" x="10.38" y="-261" font-family="Helvetica,sans-Serif" font-size="10.00">boost::static_visitor</text>
<text xml:space="preserve" text-anchor="start" x="10.38" y="-248.25" font-family="Helvetica,sans-Serif" font-size="10.00">&lt; std::shared_ptr&lt; const T &gt; &gt;</text>
<text xml:space="preserve" text-anchor="start" x="85.38" y="-231.5" font-family="Helvetica,sans-Serif" font-size="10.00"> </text>
<text xml:space="preserve" text-anchor="start" x="85.38" y="-214.75" font-family="Helvetica,sans-Serif" font-size="10.00"> </text>
<polygon fill="#bfbfbf" stroke="#bfbfbf" points="6.38,-243 6.38,-243 167.38,-243 167.38,-243 6.38,-243"/>
<polygon fill="#bfbfbf" stroke="#bfbfbf" points="6.38,-226.25 6.38,-226.25 167.38,-226.25 167.38,-226.25 6.38,-226.25"/>
<polygon fill="none" stroke="#bfbfbf" points="6.38,-207.5 6.38,-274.5 167.38,-274.5 167.38,-207.5 6.38,-207.5"/>
</a>
</g>
</g>
<!-- Node2&#45;&gt;Node1 -->
<g id="edge1_Node000001_Node000002" class="edge">
<title>Node2&#45;&gt;Node1</title>
<g id="a_edge1_Node000001_Node000002"><a xlink:title=" ">
<path fill="none" stroke="#63b8ff" d="M86.88,-196.62C86.88,-188.61 86.88,-180 86.88,-171.25"/>
<polygon fill="none" stroke="#63b8ff" points="83.38,-196.36 86.88,-206.36 90.38,-196.36 83.38,-196.36"/>
</a>
</g>
</g>
</g>
</svg>
</svg>

<style type='text/css'>
<![CDATA[
[data-mouse-over-selected='false'] { opacity: 0.7; }
[data-mouse-over-selected='true']  { opacity: 1.0; }
]]>
</style>
<script type="application/ecmascript"><![CDATA[
document.addEventListener('DOMContentLoaded', (event) => {
  highlightEdges();
  highlightAdjacentNodes();
});
]]></script>
</svg>
