<?xml version="1.0" encoding="UTF-8" standalone="no"?>
<!DOCTYPE svg PUBLIC "-//W3C//DTD SVG 1.1//EN"
 "http://www.w3.org/Graphics/SVG/1.1/DTD/svg11.dtd">
<!-- Generated by graphviz version 2.42.1 (0)
 -->
<!-- Title: vanetza::asn1::PacketVisitor&lt; T, DeserializeChunk &gt; Pages: 1 -->
<svg width="159pt" height="215pt"
 viewBox="0.00 0.00 159.00 215.00" xmlns="http://www.w3.org/2000/svg" xmlns:xlink="http://www.w3.org/1999/xlink">
<g id="graph0" class="graph" transform="scale(1 1) rotate(0) translate(4 211)">
<title>vanetza::asn1::PacketVisitor&lt; T, DeserializeChunk &gt;</title>
<polygon fill="white" stroke="transparent" points="-4,4 -4,-211 155,-211 155,4 -4,4"/>
<!-- Node0 -->
<g id="node1" class="node">
<title>Node0</title>
<g id="a_node1"><a xlink:title=" ">
<polygon fill="#bfbfbf" stroke="black" points="4,-0.5 4,-101.5 147,-101.5 147,-0.5 4,-0.5"/>
<text text-anchor="start" x="12" y="-89.5" font-family="Helvetica,sans-Serif" font-size="10.00">vanetza::asn1::PacketVisitor</text>
<text text-anchor="middle" x="75.5" y="-78.5" font-family="Helvetica,sans-Serif" font-size="10.00">&lt; T, DeserializeChunk &gt;</text>
<polyline fill="none" stroke="black" points="4,-71.5 147,-71.5 "/>
<text text-anchor="start" x="12" y="-59.5" font-family="Helvetica,sans-Serif" font-size="10.00">&#45; m_wrapper</text>
<polyline fill="none" stroke="black" points="4,-52.5 147,-52.5 "/>
<text text-anchor="start" x="12" y="-40.5" font-family="Helvetica,sans-Serif" font-size="10.00">+ operator()()</text>
<text text-anchor="start" x="12" y="-29.5" font-family="Helvetica,sans-Serif" font-size="10.00">+ operator()()</text>
<text text-anchor="start" x="12" y="-18.5" font-family="Helvetica,sans-Serif" font-size="10.00">+ get_shared_wrapper()</text>
<text text-anchor="start" x="12" y="-7.5" font-family="Helvetica,sans-Serif" font-size="10.00">&#45; deserialize()</text>
</a>
</g>
</g>
<!-- Node1 -->
<g id="node2" class="node">
<title>Node1</title>
<g id="a_node2"><a xlink:title=" ">
<polygon fill="white" stroke="#bfbfbf" points="0,-138.5 0,-206.5 151,-206.5 151,-138.5 0,-138.5"/>
<text text-anchor="start" x="8" y="-194.5" font-family="Helvetica,sans-Serif" font-size="10.00">boost::static_visitor</text>
<text text-anchor="middle" x="75.5" y="-183.5" font-family="Helvetica,sans-Serif" font-size="10.00">&lt; std::shared_ptr&lt; const T &gt; &gt;</text>
<polyline fill="none" stroke="#bfbfbf" points="0,-176.5 151,-176.5 "/>
<text text-anchor="middle" x="75.5" y="-164.5" font-family="Helvetica,sans-Serif" font-size="10.00"> </text>
<polyline fill="none" stroke="#bfbfbf" points="0,-157.5 151,-157.5 "/>
<text text-anchor="middle" x="75.5" y="-145.5" font-family="Helvetica,sans-Serif" font-size="10.00"> </text>
</a>
</g>
</g>
<!-- Node1&#45;&gt;Node0 -->
<g id="edge1" class="edge">
<title>Node1&#45;&gt;Node0</title>
<path fill="none" stroke="midnightblue" d="M75.5,-128.05C75.5,-119.47 75.5,-110.41 75.5,-101.65"/>
<polygon fill="none" stroke="midnightblue" points="72,-128.21 75.5,-138.21 79,-128.21 72,-128.21"/>
</g>
</g>
</svg>
