<?xml version="1.0" encoding="UTF-8" standalone="no"?>
<!DOCTYPE svg PUBLIC "-//W3C//DTD SVG 1.1//EN"
 "http://www.w3.org/Graphics/SVG/1.1/DTD/svg11.dtd">
<!-- Generated by graphviz version 14.1.2 (0)
 -->
<!-- Title: vanetza::geonet::InputArchive::Exception Pages: 1 -->
<svg width="162pt" height="165pt"
 viewBox="0.00 0.00 162.00 165.00" xmlns="http://www.w3.org/2000/svg" xmlns:xlink="http://www.w3.org/1999/xlink">
<g id="graph0" class="graph" transform="scale(1 1) rotate(0) translate(4 161.25)">
<title>vanetza::geonet::InputArchive::Exception</title>
<!-- Node1 -->
<g id="Node000001" class="node">
<title>Node1</title>
<g id="a_Node000001"><a xlink:title=" ">
<polygon fill="#999999" stroke="none" points="154.25,-67 0,-67 0,0 154.25,0 154.25,-67"/>
<text xml:space="preserve" text-anchor="start" x="4" y="-53.5" font-family="Helvetica,sans-Serif" font-size="10.00">vanetza::geonet::InputArchive</text>
<text xml:space="preserve" text-anchor="start" x="50.12" y="-40.75" font-family="Helvetica,sans-Serif" font-size="10.00">::Exception</text>
<text xml:space="preserve" text-anchor="start" x="75.62" y="-24" font-family="Helvetica,sans-Serif" font-size="10.00"> </text>
<text xml:space="preserve" text-anchor="start" x="75.62" y="-7.25" font-family="Helvetica,sans-Serif" font-size="10.00"> </text>
<polygon fill="#666666" stroke="#666666" points="0,-35.5 0,-35.5 154.25,-35.5 154.25,-35.5 0,-35.5"/>
<polygon fill="#666666" stroke="#666666" points="0,-18.75 0,-18.75 154.25,-18.75 154.25,-18.75 0,-18.75"/>
<polygon fill="none" stroke="#666666" points="0,0 0,-67 154.25,-67 154.25,0 0,0"/>
</a>
</g>
</g>
<!-- Node2 -->
<g id="Node000002" class="node">
<title>Node2</title>
<g id="a_Node000002"><a xlink:title=" ">
<polygon fill="white" stroke="none" points="125,-157.25 29.25,-157.25 29.25,-103 125,-103 125,-157.25"/>
<text xml:space="preserve" text-anchor="start" x="33.25" y="-143.75" font-family="Helvetica,sans-Serif" font-size="10.00">std::runtime_error</text>
<text xml:space="preserve" text-anchor="start" x="75.62" y="-127" font-family="Helvetica,sans-Serif" font-size="10.00"> </text>
<text xml:space="preserve" text-anchor="start" x="75.62" y="-110.25" font-family="Helvetica,sans-Serif" font-size="10.00"> </text>
<polygon fill="#bfbfbf" stroke="#bfbfbf" points="29.25,-138.5 29.25,-138.5 125,-138.5 125,-138.5 29.25,-138.5"/>
<polygon fill="#bfbfbf" stroke="#bfbfbf" points="29.25,-121.75 29.25,-121.75 125,-121.75 125,-121.75 29.25,-121.75"/>
<polygon fill="none" stroke="#bfbfbf" points="29.25,-103 29.25,-157.25 125,-157.25 125,-103 29.25,-103"/>
</a>
</g>
</g>
<!-- Node2&#45;&gt;Node1 -->
<g id="edge1_Node000001_Node000002" class="edge">
<title>Node2&#45;&gt;Node1</title>
<g id="a_edge1_Node000001_Node000002"><a xlink:title=" ">
<path fill="none" stroke="#63b8ff" d="M77.12,-91.51C77.12,-83.38 77.12,-74.85 77.12,-66.94"/>
<polygon fill="none" stroke="#63b8ff" points="73.63,-91.5 77.13,-101.5 80.63,-91.5 73.63,-91.5"/>
</a>
</g>
</g>
</g>
</svg>
