<?xml version="1.0" encoding="UTF-8" standalone="no"?>
<!DOCTYPE svg PUBLIC "-//W3C//DTD SVG 1.1//EN"
 "http://www.w3.org/Graphics/SVG/1.1/DTD/svg11.dtd">
<!-- Generated by graphviz version 2.49.3 (0)
 -->
<!-- Title: vanetza::geonet::InputArchive::Exception Pages: 1 -->
<svg width="147pt" height="238pt"
 viewBox="0.00 0.00 147.00 238.00" xmlns="http://www.w3.org/2000/svg" xmlns:xlink="http://www.w3.org/1999/xlink">
<g id="graph0" class="graph" transform="scale(1 1) rotate(0) translate(4 234)">
<title>vanetza::geonet::InputArchive::Exception</title>
<!-- Node1 -->
<g id="Node000001" class="node">
<title>Node1</title>
<g id="a_Node000001"><a xlink:title=" ">
<polygon fill="#999999" stroke="transparent" points="139,-60 0,-60 0,0 139,0 139,-60"/>
<text text-anchor="start" x="5.5" y="-48" font-family="Helvetica,sans-Serif" font-size="10.00">vanetza::geonet::InputArchive</text>
<text text-anchor="start" x="45.5" y="-37" font-family="Helvetica,sans-Serif" font-size="10.00">::Exception</text>
<text text-anchor="start" x="68" y="-22" font-family="Helvetica,sans-Serif" font-size="10.00"> </text>
<text text-anchor="start" x="68" y="-7" font-family="Helvetica,sans-Serif" font-size="10.00"> </text>
<polygon fill="#666666" stroke="#666666" points="0.5,-32 0.5,-32 139.5,-32 139.5,-32 0.5,-32"/>
<polygon fill="#666666" stroke="#666666" points="0.5,-17 0.5,-17 139.5,-17 139.5,-17 0.5,-17"/>
<polygon fill="none" stroke="#666666" points="0,0 0,-60 139,-60 139,0 0,0"/>
</a>
</g>
</g>
<!-- Node2 -->
<g id="Node000002" class="node">
<title>Node2</title>
<g id="a_Node000002"><a xlink:title=" ">
<polygon fill="white" stroke="transparent" points="113,-145 26,-145 26,-96 113,-96 113,-145"/>
<text text-anchor="start" x="31.5" y="-132.5" font-family="Helvetica,sans-Serif" font-size="10.00">std::runtime_error</text>
<text text-anchor="start" x="68" y="-117.5" font-family="Helvetica,sans-Serif" font-size="10.00"> </text>
<text text-anchor="start" x="68" y="-102.5" font-family="Helvetica,sans-Serif" font-size="10.00"> </text>
<polygon fill="#666666" stroke="#666666" points="26.5,-127.5 26.5,-127.5 113.5,-127.5 113.5,-127.5 26.5,-127.5"/>
<polygon fill="#666666" stroke="#666666" points="26.5,-112.5 26.5,-112.5 113.5,-112.5 113.5,-112.5 26.5,-112.5"/>
<polygon fill="none" stroke="#666666" points="26,-96 26,-145 113,-145 113,-96 26,-96"/>
</a>
</g>
</g>
<!-- Node2&#45;&gt;Node1 -->
<g id="edge1_Node000001_Node000002" class="edge">
<title>Node2&#45;&gt;Node1</title>
<g id="a_edge1_Node000001_Node000002"><a xlink:title=" ">
<path fill="none" stroke="#63b8ff" d="M69.5,-85.55C69.5,-77.18 69.5,-68.28 69.5,-60.16"/>
<polygon fill="none" stroke="#63b8ff" points="66,-85.78 69.5,-95.78 73,-85.78 66,-85.78"/>
</a>
</g>
</g>
<!-- Node3 -->
<g id="Node000003" class="node">
<title>Node3</title>
<g id="a_Node000003"><a xlink:title=" ">
<polygon fill="white" stroke="transparent" points="105,-230 34,-230 34,-181 105,-181 105,-230"/>
<text text-anchor="start" x="39.5" y="-217.5" font-family="Helvetica,sans-Serif" font-size="10.00">std::exception</text>
<text text-anchor="start" x="68" y="-202.5" font-family="Helvetica,sans-Serif" font-size="10.00"> </text>
<text text-anchor="start" x="68" y="-187.5" font-family="Helvetica,sans-Serif" font-size="10.00"> </text>
<polygon fill="#666666" stroke="#666666" points="34.5,-212.5 34.5,-212.5 105.5,-212.5 105.5,-212.5 34.5,-212.5"/>
<polygon fill="#666666" stroke="#666666" points="34.5,-197.5 34.5,-197.5 105.5,-197.5 105.5,-197.5 34.5,-197.5"/>
<polygon fill="none" stroke="#666666" points="34,-181 34,-230 105,-230 105,-181 34,-181"/>
</a>
</g>
</g>
<!-- Node3&#45;&gt;Node2 -->
<g id="edge2_Node000002_Node000003" class="edge">
<title>Node3&#45;&gt;Node2</title>
<g id="a_edge2_Node000002_Node000003"><a xlink:title=" ">
<path fill="none" stroke="#63b8ff" d="M69.5,-170.77C69.5,-162.17 69.5,-153.1 69.5,-145.12"/>
<polygon fill="none" stroke="#63b8ff" points="66,-170.94 69.5,-180.94 73,-170.94 66,-170.94"/>
</a>
</g>
</g>
</g>
</svg>
