<?xml version="1.0" encoding="UTF-8" standalone="no"?>
<!DOCTYPE svg PUBLIC "-//W3C//DTD SVG 1.1//EN"
 "http://www.w3.org/Graphics/SVG/1.1/DTD/svg11.dtd">
<!-- Generated by graphviz version 2.42.1 (0)
 -->
<!-- Title: vanetza::dcc::RequestInterface Pages: 1 -->
<svg width="306pt" height="413pt"
 viewBox="0.00 0.00 305.50 413.00" xmlns="http://www.w3.org/2000/svg" xmlns:xlink="http://www.w3.org/1999/xlink">
<g id="graph0" class="graph" transform="scale(1 1) rotate(0) translate(4 409)">
<title>vanetza::dcc::RequestInterface</title>
<polygon fill="white" stroke="transparent" points="-4,4 -4,-409 301.5,-409 301.5,4 -4,4"/>
<!-- Node0 -->
<g id="node1" class="node">
<title>Node0</title>
<g id="a_node1"><a xlink:title=" ">
<polygon fill="#bfbfbf" stroke="black" points="75,-336.5 75,-404.5 229,-404.5 229,-336.5 75,-336.5"/>
<text text-anchor="middle" x="152" y="-392.5" font-family="Helvetica,sans-Serif" font-size="10.00">vanetza::dcc::RequestInterface</text>
<polyline fill="none" stroke="black" points="75,-385.5 229,-385.5 "/>
<text text-anchor="middle" x="152" y="-373.5" font-family="Helvetica,sans-Serif" font-size="10.00"> </text>
<polyline fill="none" stroke="black" points="75,-366.5 229,-366.5 "/>
<text text-anchor="start" x="83" y="-354.5" font-family="Helvetica,sans-Serif" font-size="10.00">+ request()</text>
<text text-anchor="start" x="83" y="-343.5" font-family="Helvetica,sans-Serif" font-size="10.00">+ ~RequestInterface()</text>
</a>
</g>
</g>
<!-- Node1 -->
<g id="node2" class="node">
<title>Node1</title>
<g id="a_node2"><a xlink:href="../../d8/da4/classvanetza_1_1dcc_1_1FlowControl.html" target="_top" xlink:title=" ">
<polygon fill="white" stroke="black" points="0,-0.5 0,-299.5 146,-299.5 146,-0.5 0,-0.5"/>
<text text-anchor="middle" x="73" y="-287.5" font-family="Helvetica,sans-Serif" font-size="10.00">vanetza::dcc::FlowControl</text>
<polyline fill="none" stroke="black" points="0,-280.5 146,-280.5 "/>
<text text-anchor="start" x="8" y="-268.5" font-family="Helvetica,sans-Serif" font-size="10.00">&#45; m_runtime</text>
<text text-anchor="start" x="8" y="-257.5" font-family="Helvetica,sans-Serif" font-size="10.00">&#45; m_trc</text>
<text text-anchor="start" x="8" y="-246.5" font-family="Helvetica,sans-Serif" font-size="10.00">&#45; m_access</text>
<text text-anchor="start" x="8" y="-235.5" font-family="Helvetica,sans-Serif" font-size="10.00">&#45; m_queues</text>
<text text-anchor="start" x="8" y="-224.5" font-family="Helvetica,sans-Serif" font-size="10.00">&#45; m_queue_length</text>
<text text-anchor="start" x="8" y="-213.5" font-family="Helvetica,sans-Serif" font-size="10.00">&#45; m_packet_drop_hook</text>
<text text-anchor="start" x="8" y="-202.5" font-family="Helvetica,sans-Serif" font-size="10.00">&#45; m_packet_transmit_hook</text>
<polyline fill="none" stroke="black" points="0,-195.5 146,-195.5 "/>
<text text-anchor="start" x="8" y="-183.5" font-family="Helvetica,sans-Serif" font-size="10.00">+ FlowControl()</text>
<text text-anchor="start" x="8" y="-172.5" font-family="Helvetica,sans-Serif" font-size="10.00">+ ~FlowControl()</text>
<text text-anchor="start" x="8" y="-161.5" font-family="Helvetica,sans-Serif" font-size="10.00">+ request()</text>
<text text-anchor="start" x="8" y="-150.5" font-family="Helvetica,sans-Serif" font-size="10.00">+ set_packet_drop_hook()</text>
<text text-anchor="start" x="8" y="-139.5" font-family="Helvetica,sans-Serif" font-size="10.00">+ set_packet_transmit_hook()</text>
<text text-anchor="start" x="8" y="-128.5" font-family="Helvetica,sans-Serif" font-size="10.00">+ queue_length()</text>
<text text-anchor="start" x="8" y="-117.5" font-family="Helvetica,sans-Serif" font-size="10.00">+ reschedule()</text>
<text text-anchor="start" x="8" y="-106.5" font-family="Helvetica,sans-Serif" font-size="10.00">&#45; enqueue()</text>
<text text-anchor="start" x="8" y="-95.5" font-family="Helvetica,sans-Serif" font-size="10.00">&#45; dequeue()</text>
<text text-anchor="start" x="8" y="-84.5" font-family="Helvetica,sans-Serif" font-size="10.00">&#45; transmit()</text>
<text text-anchor="start" x="8" y="-73.5" font-family="Helvetica,sans-Serif" font-size="10.00">&#45; transmit_immediately()</text>
<text text-anchor="start" x="8" y="-62.5" font-family="Helvetica,sans-Serif" font-size="10.00">&#45; drop_expired()</text>
<text text-anchor="start" x="8" y="-51.5" font-family="Helvetica,sans-Serif" font-size="10.00">&#45; empty()</text>
<text text-anchor="start" x="8" y="-40.5" font-family="Helvetica,sans-Serif" font-size="10.00">&#45; trigger()</text>
<text text-anchor="start" x="8" y="-29.5" font-family="Helvetica,sans-Serif" font-size="10.00">&#45; schedule_trigger()</text>
<text text-anchor="start" x="8" y="-18.5" font-family="Helvetica,sans-Serif" font-size="10.00">&#45; next_transmission()</text>
<text text-anchor="start" x="8" y="-7.5" font-family="Helvetica,sans-Serif" font-size="10.00">&#45; next_queue()</text>
</a>
</g>
</g>
<!-- Node0&#45;&gt;Node1 -->
<g id="edge1" class="edge">
<title>Node0&#45;&gt;Node1</title>
<path fill="none" stroke="midnightblue" d="M136.51,-326.65C133.51,-318.37 130.22,-309.27 126.77,-299.71"/>
<polygon fill="none" stroke="midnightblue" points="133.31,-328.1 140,-336.31 139.89,-325.72 133.31,-328.1"/>
</g>
<!-- Node2 -->
<g id="node3" class="node">
<title>Node2</title>
<g id="a_node3"><a xlink:href="../../d3/d6b/classvanetza_1_1dcc_1_1NullRequestInterface.html" target="_top" xlink:title=" ">
<polygon fill="white" stroke="black" points="164.5,-116 164.5,-184 297.5,-184 297.5,-116 164.5,-116"/>
<text text-anchor="start" x="172.5" y="-172" font-family="Helvetica,sans-Serif" font-size="10.00">vanetza::dcc::NullRequest</text>
<text text-anchor="middle" x="231" y="-161" font-family="Helvetica,sans-Serif" font-size="10.00">Interface</text>
<polyline fill="none" stroke="black" points="164.5,-154 297.5,-154 "/>
<text text-anchor="middle" x="231" y="-142" font-family="Helvetica,sans-Serif" font-size="10.00"> </text>
<polyline fill="none" stroke="black" points="164.5,-135 297.5,-135 "/>
<text text-anchor="start" x="172.5" y="-123" font-family="Helvetica,sans-Serif" font-size="10.00">+ request()</text>
</a>
</g>
</g>
<!-- Node0&#45;&gt;Node2 -->
<g id="edge2" class="edge">
<title>Node0&#45;&gt;Node2</title>
<path fill="none" stroke="midnightblue" d="M167.48,-326.69C182.58,-284.92 205.24,-222.25 219.02,-184.14"/>
<polygon fill="none" stroke="midnightblue" points="164.11,-325.72 164,-336.31 170.69,-328.1 164.11,-325.72"/>
</g>
</g>
</svg>
