<?xml version="1.0" encoding="UTF-8" standalone="no"?>
<!DOCTYPE svg PUBLIC "-//W3C//DTD SVG 1.1//EN"
 "http://www.w3.org/Graphics/SVG/1.1/DTD/svg11.dtd">
<!-- Generated by graphviz version 14.1.2 (0)
 -->
<!-- Title: vanetza::dcc::RequestInterface Pages: 1 -->
<!--zoomable 551 -->

<svg id="main" version="1.1" xmlns="http://www.w3.org/2000/svg" xmlns:xlink="http://www.w3.org/1999/xlink" xml:space="preserve" onload="init(evt)">

<style type="text/css"><![CDATA[
.node, .edge {opacity: 0.7;}
.node.selected, .edge.selected {opacity: 1;}
.edge:hover path { stroke: red; }
.edge:hover polygon { stroke: red; fill: red; }
]]></style>

<defs>
  <circle id="rim" cx="0" cy="0" r="7"/>
  <circle id="rim2" cx="0" cy="0" r="3.5"/>
  <g id="zoomPlus">
    <use xlink:href="#rim" fill="#404040"><set attributeName="fill" to="#808080" begin="zoomplus.mouseover" end="zoomplus.mouseout"/></use>
    <path d="M-4,0h8M0,-4v8" fill="none" stroke="white" stroke-width="1.5" pointer-events="none"/>
  </g>
  <g id="zoomMin">
    <use xlink:href="#rim" fill="#404040"><set attributeName="fill" to="#808080" begin="zoomminus.mouseover" end="zoomminus.mouseout"/></use>
    <path d="M-4,0h8" fill="none" stroke="white" stroke-width="1.5" pointer-events="none"/>
  </g>
  <g id="arrowUp" transform="translate(30 24)">
    <use xlink:href="#rim"/>
    <path pointer-events="none" fill="none" stroke="white" stroke-width="1.5" d="M0,-3.0v7 M-2.5,-0.5L0,-3.0L2.5,-0.5"/>
  </g>
  <g id="arrowRight" transform="rotate(90) translate(36 -43)">
    <use xlink:href="#rim"/>
    <path pointer-events="none" fill="none" stroke="white" stroke-width="1.5" d="M0,-3.0v7 M-2.5,-0.5L0,-3.0L2.5,-0.5"/>
  </g>
  <g id="arrowDown" transform="rotate(180) translate(-30 -48)">
    <use xlink:href="#rim"/>
    <path pointer-events="none" fill="none" stroke="white" stroke-width="1.5" d="M0,-3.0v7 M-2.5,-0.5L0,-3.0L2.5,-0.5"/>
  </g>
  <g id="arrowLeft" transform="rotate(270) translate(-36 17)">
    <use xlink:href="#rim"/>
    <path pointer-events="none" fill="none" stroke="white" stroke-width="1.5" d="M0,-3.0v7 M-2.5,-0.5L0,-3.0L2.5,-0.5"/>
  </g>
  <g id="resetDef">
    <use xlink:href="#rim2" fill="#404040"><set attributeName="fill" to="#808080" begin="reset.mouseover" end="reset.mouseout"/></use>
  </g>
</defs>
<script type="application/ecmascript">
var viewWidth = 304;
var viewHeight = 551;
var sectionId = 'dynsection-0';
</script>
<script type="application/ecmascript" xlink:href="../../svg.min.js"/>
<svg id="graph" class="graph">
<g id="viewport">
<title>vanetza::dcc::RequestInterface</title>
<!-- Node1 -->
<g id="Node000001" class="node">
<title>Node1</title>
<g id="a_Node000001"><a xlink:title=" ">
<polygon fill="#999999" stroke="none" points="229,-542.5 70.25,-542.5 70.25,-471.5 229,-471.5 229,-542.5"/>
<text xml:space="preserve" text-anchor="start" x="74.25" y="-529" font-family="Helvetica,sans-Serif" font-size="10.00">vanetza::dcc::RequestInterface</text>
<text xml:space="preserve" text-anchor="start" x="148.12" y="-512.25" font-family="Helvetica,sans-Serif" font-size="10.00"> </text>
<text xml:space="preserve" text-anchor="start" x="84.12" y="-495.5" font-family="Helvetica,sans-Serif" font-size="10.00">+</text>
<text xml:space="preserve" text-anchor="start" x="106.25" y="-495.5" font-family="Helvetica,sans-Serif" font-size="10.00">request()</text>
<text xml:space="preserve" text-anchor="start" x="84.12" y="-478.75" font-family="Helvetica,sans-Serif" font-size="10.00">+</text>
<text xml:space="preserve" text-anchor="start" x="106.25" y="-478.75" font-family="Helvetica,sans-Serif" font-size="10.00">~RequestInterface()</text>
<polygon fill="#666666" stroke="#666666" points="70.25,-523.75 70.25,-523.75 229,-523.75 229,-523.75 70.25,-523.75"/>
<polygon fill="#666666" stroke="#666666" points="70.25,-507 70.25,-507 229,-507 229,-507 70.25,-507"/>
<polygon fill="none" stroke="#666666" points="70.25,-471.5 70.25,-542.5 229,-542.5 229,-471.5 70.25,-471.5"/>
</a>
</g>
</g>
<!-- Node2 -->
<g id="Node000002" class="node">
<title>Node2</title>
<g id="a_Node000002"><a xlink:href="../../d8/da4/classvanetza_1_1dcc_1_1FlowControl.html" target="_top" xlink:title=" ">
<polygon fill="white" stroke="none" points="143.25,-435.5 0,-435.5 0,0 143.25,0 143.25,-435.5"/>
<text xml:space="preserve" text-anchor="start" x="8.62" y="-422" font-family="Helvetica,sans-Serif" font-size="10.00">vanetza::dcc::FlowControl</text>
<text xml:space="preserve" text-anchor="start" x="6.25" y="-405.25" font-family="Helvetica,sans-Serif" font-size="10.00">&#45;</text>
<text xml:space="preserve" text-anchor="start" x="16.25" y="-405.25" font-family="Helvetica,sans-Serif" font-size="10.00">m_runtime</text>
<text xml:space="preserve" text-anchor="start" x="6.25" y="-388.5" font-family="Helvetica,sans-Serif" font-size="10.00">&#45;</text>
<text xml:space="preserve" text-anchor="start" x="16.25" y="-388.5" font-family="Helvetica,sans-Serif" font-size="10.00">m_trc</text>
<text xml:space="preserve" text-anchor="start" x="6.25" y="-371.75" font-family="Helvetica,sans-Serif" font-size="10.00">&#45;</text>
<text xml:space="preserve" text-anchor="start" x="16.25" y="-371.75" font-family="Helvetica,sans-Serif" font-size="10.00">m_access</text>
<text xml:space="preserve" text-anchor="start" x="6.25" y="-355" font-family="Helvetica,sans-Serif" font-size="10.00">&#45;</text>
<text xml:space="preserve" text-anchor="start" x="16.25" y="-355" font-family="Helvetica,sans-Serif" font-size="10.00">m_queues</text>
<text xml:space="preserve" text-anchor="start" x="6.25" y="-338.25" font-family="Helvetica,sans-Serif" font-size="10.00">&#45;</text>
<text xml:space="preserve" text-anchor="start" x="16.25" y="-338.25" font-family="Helvetica,sans-Serif" font-size="10.00">m_queue_length</text>
<text xml:space="preserve" text-anchor="start" x="6.25" y="-321.5" font-family="Helvetica,sans-Serif" font-size="10.00">&#45;</text>
<text xml:space="preserve" text-anchor="start" x="16.25" y="-321.5" font-family="Helvetica,sans-Serif" font-size="10.00">m_packet_drop_hook</text>
<text xml:space="preserve" text-anchor="start" x="6.25" y="-304.75" font-family="Helvetica,sans-Serif" font-size="10.00">&#45;</text>
<text xml:space="preserve" text-anchor="start" x="16.25" y="-304.75" font-family="Helvetica,sans-Serif" font-size="10.00">m_packet_transmit_hook</text>
<text xml:space="preserve" text-anchor="start" x="4" y="-288" font-family="Helvetica,sans-Serif" font-size="10.00">+</text>
<text xml:space="preserve" text-anchor="start" x="16.25" y="-288" font-family="Helvetica,sans-Serif" font-size="10.00">FlowControl()</text>
<text xml:space="preserve" text-anchor="start" x="4" y="-271.25" font-family="Helvetica,sans-Serif" font-size="10.00">+</text>
<text xml:space="preserve" text-anchor="start" x="16.25" y="-271.25" font-family="Helvetica,sans-Serif" font-size="10.00">~FlowControl()</text>
<text xml:space="preserve" text-anchor="start" x="4" y="-254.5" font-family="Helvetica,sans-Serif" font-size="10.00">+</text>
<text xml:space="preserve" text-anchor="start" x="16.25" y="-254.5" font-family="Helvetica,sans-Serif" font-size="10.00">request()</text>
<text xml:space="preserve" text-anchor="start" x="4" y="-237.75" font-family="Helvetica,sans-Serif" font-size="10.00">+</text>
<text xml:space="preserve" text-anchor="start" x="16.25" y="-237.75" font-family="Helvetica,sans-Serif" font-size="10.00">set_packet_drop_hook()</text>
<text xml:space="preserve" text-anchor="start" x="4" y="-221" font-family="Helvetica,sans-Serif" font-size="10.00">+</text>
<text xml:space="preserve" text-anchor="start" x="16.25" y="-221" font-family="Helvetica,sans-Serif" font-size="10.00">set_packet_transmit</text>
<text xml:space="preserve" text-anchor="start" x="16.25" y="-208.25" font-family="Helvetica,sans-Serif" font-size="10.00">_hook()</text>
<text xml:space="preserve" text-anchor="start" x="4" y="-191.5" font-family="Helvetica,sans-Serif" font-size="10.00">+</text>
<text xml:space="preserve" text-anchor="start" x="16.25" y="-191.5" font-family="Helvetica,sans-Serif" font-size="10.00">queue_length()</text>
<text xml:space="preserve" text-anchor="start" x="4" y="-174.75" font-family="Helvetica,sans-Serif" font-size="10.00">+</text>
<text xml:space="preserve" text-anchor="start" x="16.25" y="-174.75" font-family="Helvetica,sans-Serif" font-size="10.00">reschedule()</text>
<text xml:space="preserve" text-anchor="start" x="6.25" y="-158" font-family="Helvetica,sans-Serif" font-size="10.00">&#45;</text>
<text xml:space="preserve" text-anchor="start" x="16.25" y="-158" font-family="Helvetica,sans-Serif" font-size="10.00">enqueue()</text>
<text xml:space="preserve" text-anchor="start" x="6.25" y="-141.25" font-family="Helvetica,sans-Serif" font-size="10.00">&#45;</text>
<text xml:space="preserve" text-anchor="start" x="16.25" y="-141.25" font-family="Helvetica,sans-Serif" font-size="10.00">dequeue()</text>
<text xml:space="preserve" text-anchor="start" x="6.25" y="-124.5" font-family="Helvetica,sans-Serif" font-size="10.00">&#45;</text>
<text xml:space="preserve" text-anchor="start" x="16.25" y="-124.5" font-family="Helvetica,sans-Serif" font-size="10.00">transmit()</text>
<text xml:space="preserve" text-anchor="start" x="6.25" y="-107.75" font-family="Helvetica,sans-Serif" font-size="10.00">&#45;</text>
<text xml:space="preserve" text-anchor="start" x="16.25" y="-107.75" font-family="Helvetica,sans-Serif" font-size="10.00">transmit_immediately()</text>
<text xml:space="preserve" text-anchor="start" x="6.25" y="-91" font-family="Helvetica,sans-Serif" font-size="10.00">&#45;</text>
<text xml:space="preserve" text-anchor="start" x="16.25" y="-91" font-family="Helvetica,sans-Serif" font-size="10.00">drop_expired()</text>
<text xml:space="preserve" text-anchor="start" x="6.25" y="-74.25" font-family="Helvetica,sans-Serif" font-size="10.00">&#45;</text>
<text xml:space="preserve" text-anchor="start" x="16.25" y="-74.25" font-family="Helvetica,sans-Serif" font-size="10.00">empty()</text>
<text xml:space="preserve" text-anchor="start" x="6.25" y="-57.5" font-family="Helvetica,sans-Serif" font-size="10.00">&#45;</text>
<text xml:space="preserve" text-anchor="start" x="16.25" y="-57.5" font-family="Helvetica,sans-Serif" font-size="10.00">trigger()</text>
<text xml:space="preserve" text-anchor="start" x="6.25" y="-40.75" font-family="Helvetica,sans-Serif" font-size="10.00">&#45;</text>
<text xml:space="preserve" text-anchor="start" x="16.25" y="-40.75" font-family="Helvetica,sans-Serif" font-size="10.00">schedule_trigger()</text>
<text xml:space="preserve" text-anchor="start" x="6.25" y="-24" font-family="Helvetica,sans-Serif" font-size="10.00">&#45;</text>
<text xml:space="preserve" text-anchor="start" x="16.25" y="-24" font-family="Helvetica,sans-Serif" font-size="10.00">next_transmission()</text>
<text xml:space="preserve" text-anchor="start" x="6.25" y="-7.25" font-family="Helvetica,sans-Serif" font-size="10.00">&#45;</text>
<text xml:space="preserve" text-anchor="start" x="16.25" y="-7.25" font-family="Helvetica,sans-Serif" font-size="10.00">next_queue()</text>
<polygon fill="#666666" stroke="#666666" points="0,-416.75 0,-416.75 143.25,-416.75 143.25,-416.75 0,-416.75"/>
<polygon fill="#666666" stroke="#666666" points="0,-299.5 0,-299.5 14.25,-299.5 14.25,-299.5 0,-299.5"/>
<polygon fill="#666666" stroke="#666666" points="14.25,-299.5 14.25,-299.5 143.25,-299.5 143.25,-299.5 14.25,-299.5"/>
<polygon fill="none" stroke="#666666" points="0,0 0,-435.5 143.25,-435.5 143.25,0 0,0"/>
</a>
</g>
</g>
<!-- Node1&#45;&gt;Node2 -->
<g id="edge1_Node000001_Node000002" class="edge">
<title>Node1&#45;&gt;Node2</title>
<g id="a_edge1_Node000001_Node000002"><a xlink:title=" ">
<path fill="none" stroke="#63b8ff" d="M137.35,-460.79C135.24,-453.01 132.92,-444.49 130.47,-435.44"/>
<polygon fill="none" stroke="#63b8ff" points="133.9,-461.44 139.9,-470.18 140.65,-459.61 133.9,-461.44"/>
</a>
</g>
</g>
<!-- Node3 -->
<g id="Node000003" class="node">
<title>Node3</title>
<g id="a_Node000003"><a xlink:href="../../d3/d6b/classvanetza_1_1dcc_1_1NullRequestInterface.html" target="_top" xlink:title=" ">
<polygon fill="white" stroke="none" points="296,-251.25 161.25,-251.25 161.25,-184.25 296,-184.25 296,-251.25"/>
<text xml:space="preserve" text-anchor="start" x="165.25" y="-237.75" font-family="Helvetica,sans-Serif" font-size="10.00">vanetza::dcc::NullRequest</text>
<text xml:space="preserve" text-anchor="start" x="206.88" y="-225" font-family="Helvetica,sans-Serif" font-size="10.00">Interface</text>
<text xml:space="preserve" text-anchor="start" x="227.12" y="-208.25" font-family="Helvetica,sans-Serif" font-size="10.00"> </text>
<text xml:space="preserve" text-anchor="start" x="182.81" y="-191.5" font-family="Helvetica,sans-Serif" font-size="10.00">+</text>
<text xml:space="preserve" text-anchor="start" x="212.62" y="-191.5" font-family="Helvetica,sans-Serif" font-size="10.00">request()</text>
<polygon fill="#666666" stroke="#666666" points="161.25,-219.75 161.25,-219.75 296,-219.75 296,-219.75 161.25,-219.75"/>
<polygon fill="#666666" stroke="#666666" points="161.25,-203 161.25,-203 296,-203 296,-203 161.25,-203"/>
<polygon fill="none" stroke="#666666" points="161.25,-184.25 161.25,-251.25 296,-251.25 296,-184.25 161.25,-184.25"/>
</a>
</g>
</g>
<!-- Node1&#45;&gt;Node3 -->
<g id="edge2_Node000001_Node000003" class="edge">
<title>Node1&#45;&gt;Node3</title>
<g id="a_edge2_Node000001_Node000003"><a xlink:title=" ">
<path fill="none" stroke="#63b8ff" d="M162.03,-460.89C178.09,-402.51 205.67,-302.2 219.77,-250.95"/>
<polygon fill="none" stroke="#63b8ff" points="158.75,-459.61 159.48,-470.18 165.5,-461.46 158.75,-459.61"/>
</a>
</g>
</g>
</g>
</svg>

<g id="navigator" transform="translate(0 0)" fill="#404254">
  <rect fill="#f2f5e9" fill-opacity="0.5" stroke="#606060" stroke-width=".5" x="0" y="0" width="60" height="60"/>
  <use id="zoomplus" xlink:href="#zoomPlus" x="17" y="9" onmousedown="handleZoom(evt,'in')"/>
  <use id="zoomminus" xlink:href="#zoomMin" x="42" y="9" onmousedown="handleZoom(evt,'out')"/>
  <use id="reset" xlink:href="#resetDef" x="30" y="36" onmousedown="handleReset()"/>
   <use id="arrowup" xlink:href="#arrowUp" x="0" y="0" onmousedown="handlePan(0,-1)"/>
  <use id="arrowright" xlink:href="#arrowRight" x="0" y="0" onmousedown="handlePan(1,0)"/>
  <use id="arrowdown" xlink:href="#arrowDown" x="0" y="0" onmousedown="handlePan(0,1)"/>
  <use id="arrowleft" xlink:href="#arrowLeft" x="0" y="0" onmousedown="handlePan(-1,0)"/>
</g>
<svg viewBox="0 0 15 15" width="100%" height="30px" preserveAspectRatio="xMaxYMin meet">
 <g id="arrow_out" transform="scale(0.3 0.3)">
  <a xlink:href="classvanetza_1_1dcc_1_1RequestInterface__inherit__graph_org.svg" target="_base">
   <rect id="button" ry="5" rx="5" y="6" x="6" height="38" width="38"
        fill="#f2f5e9" fill-opacity="0.5" stroke="#606060" stroke-width="1.0"/>
   <path id="arrow"
     d="M 11.500037,31.436501 C 11.940474,20.09759 22.043105,11.32322 32.158766,21.979434 L 37.068811,17.246167 C 37.068811,17.246167 37.088388,32 37.088388,32 L 22.160133,31.978069 C 22.160133,31.978069 26.997745,27.140456 26.997745,27.140456 C 18.528582,18.264221 13.291696,25.230495 11.500037,31.436501 z"
     style="fill:#404040;"/>
  </a>
 </g>
</svg>

<style type='text/css'>
<![CDATA[
[data-mouse-over-selected='false'] { opacity: 0.7; }
[data-mouse-over-selected='true']  { opacity: 1.0; }
]]>
</style>
<script type="application/ecmascript"><![CDATA[
document.addEventListener('DOMContentLoaded', (event) => {
  highlightEdges();
  highlightAdjacentNodes();
});
]]></script>
</svg>
