<?xml version="1.0" encoding="UTF-8" standalone="no"?>
<!DOCTYPE svg PUBLIC "-//W3C//DTD SVG 1.1//EN"
 "http://www.w3.org/Graphics/SVG/1.1/DTD/svg11.dtd">
<!-- Generated by graphviz version 2.49.3 (0)
 -->
<!-- Title: vanetza::asn1::asn1c_wrapper_common&lt; T &gt; Pages: 1 -->
<!--zoomable 734 -->
<svg id="main" version="1.1" xmlns="http://www.w3.org/2000/svg" xmlns:xlink="http://www.w3.org/1999/xlink" xml:space="preserve" onload="init(evt)">
<style type="text/css"><![CDATA[
.edge:hover path { stroke: red; }
.edge:hover polygon { stroke: red; fill: red; }
]]></style>
<script type="text/javascript"><![CDATA[
var edges = document.getElementsByTagName('g');
if (edges && edges.length) {
  for (var i=0;i<edges.length;i++) {
    if (edges[i].id.substr(0,4)=='edge') {
      edges[i].setAttribute('class','edge');
    }
  }
}
]]></script>
        <defs>
                <circle id="rim" cx="0" cy="0" r="7"/>
                <circle id="rim2" cx="0" cy="0" r="3.5"/>
                <g id="zoomPlus">
                        <use xlink:href="#rim" fill="#404040">
                                <set attributeName="fill" to="#808080" begin="zoomplus.mouseover" end="zoomplus.mouseout"/>
                        </use>
                        <path d="M-4,0h8M0,-4v8" fill="none" stroke="white" stroke-width="1.5" pointer-events="none"/>
                </g>
                <g id="zoomMin">
                        <use xlink:href="#rim" fill="#404040">
                                <set attributeName="fill" to="#808080" begin="zoomminus.mouseover" end="zoomminus.mouseout"/>
                        </use>
                        <path d="M-4,0h8" fill="none" stroke="white" stroke-width="1.5" pointer-events="none"/>
                </g>
                <g id="dirArrow">
                        <path fill="none" stroke="white" stroke-width="1.5" d="M0,-3.0v7 M-2.5,-0.5L0,-3.0L2.5,-0.5"/>
                </g>
               <g id="resetDef">
                       <use xlink:href="#rim2" fill="#404040">
                               <set attributeName="fill" to="#808080" begin="reset.mouseover" end="reset.mouseout"/>
                       </use>
               </g>
        </defs>

<script type="text/javascript">
var viewWidth = 1116;
var viewHeight = 734;
var sectionId = 'dynsection-0';
</script>
<script xlink:href="../../svgpan.js"/>
<svg id="graph" class="graph">
<g id="viewport">
<title>vanetza::asn1::asn1c_wrapper_common&lt; T &gt;</title>
<polygon fill="white" stroke="transparent" points="-4,4 -4,-730 1111.5,-730 1111.5,4 -4,4"/>
<!-- Node1 -->
<g id="node1" class="node">
<title>Node1</title>
<g id="a_node1"><a xlink:title=" ">
<polygon fill="#bfbfbf" stroke="black" points="479,-514.5 479,-725.5 625,-725.5 625,-514.5 479,-514.5"/>
<text text-anchor="start" x="487" y="-713.5" font-family="Helvetica,sans-Serif" font-size="10.00">vanetza::asn1::asn1c</text>
<text text-anchor="middle" x="552" y="-702.5" font-family="Helvetica,sans-Serif" font-size="10.00">_wrapper_common&lt; T &gt;</text>
<polyline fill="none" stroke="black" points="479,-695.5 625,-695.5 "/>
<text text-anchor="start" x="487" y="-683.5" font-family="Helvetica,sans-Serif" font-size="10.00"># m_struct</text>
<text text-anchor="start" x="487" y="-672.5" font-family="Helvetica,sans-Serif" font-size="10.00"># m_type</text>
<polyline fill="none" stroke="black" points="479,-665.5 625,-665.5 "/>
<text text-anchor="start" x="487" y="-653.5" font-family="Helvetica,sans-Serif" font-size="10.00">+ asn1c_wrapper_common()</text>
<text text-anchor="start" x="487" y="-642.5" font-family="Helvetica,sans-Serif" font-size="10.00">+ ~asn1c_wrapper_common()</text>
<text text-anchor="start" x="487" y="-631.5" font-family="Helvetica,sans-Serif" font-size="10.00">+ asn1c_wrapper_common()</text>
<text text-anchor="start" x="487" y="-620.5" font-family="Helvetica,sans-Serif" font-size="10.00">+ operator=()</text>
<text text-anchor="start" x="487" y="-609.5" font-family="Helvetica,sans-Serif" font-size="10.00">+ asn1c_wrapper_common()</text>
<text text-anchor="start" x="487" y="-598.5" font-family="Helvetica,sans-Serif" font-size="10.00">+ operator=()</text>
<text text-anchor="start" x="487" y="-587.5" font-family="Helvetica,sans-Serif" font-size="10.00">+ operator*()</text>
<text text-anchor="start" x="487" y="-576.5" font-family="Helvetica,sans-Serif" font-size="10.00">+ operator&#45;&gt;()</text>
<text text-anchor="start" x="487" y="-565.5" font-family="Helvetica,sans-Serif" font-size="10.00">+ operator*()</text>
<text text-anchor="start" x="487" y="-554.5" font-family="Helvetica,sans-Serif" font-size="10.00">+ operator&#45;&gt;()</text>
<text text-anchor="start" x="487" y="-543.5" font-family="Helvetica,sans-Serif" font-size="10.00">+ validate()</text>
<text text-anchor="start" x="487" y="-532.5" font-family="Helvetica,sans-Serif" font-size="10.00">+ validate()</text>
<text text-anchor="start" x="487" y="-521.5" font-family="Helvetica,sans-Serif" font-size="10.00">+ swap()</text>
</a>
</g>
</g>
<!-- Node2 -->
<g id="node2" class="node">
<title>Node2</title>
<g id="a_node2"><a xlink:href="../../de/dbf/classvanetza_1_1asn1_1_1asn1c__oer__wrapper.html" target="_top" xlink:title=" ">
<polygon fill="white" stroke="#bfbfbf" points="0,-305 0,-417 110,-417 110,-305 0,-305"/>
<text text-anchor="start" x="8" y="-405" font-family="Helvetica,sans-Serif" font-size="10.00">vanetza::asn1::asn1c</text>
<text text-anchor="middle" x="55" y="-394" font-family="Helvetica,sans-Serif" font-size="10.00">_oer_wrapper&lt; T &gt;</text>
<polyline fill="none" stroke="#bfbfbf" points="0,-387 110,-387 "/>
<text text-anchor="middle" x="55" y="-375" font-family="Helvetica,sans-Serif" font-size="10.00"> </text>
<polyline fill="none" stroke="#bfbfbf" points="0,-368 110,-368 "/>
<text text-anchor="start" x="8" y="-356" font-family="Helvetica,sans-Serif" font-size="10.00">+ encode()</text>
<text text-anchor="start" x="8" y="-345" font-family="Helvetica,sans-Serif" font-size="10.00">+ decode()</text>
<text text-anchor="start" x="8" y="-334" font-family="Helvetica,sans-Serif" font-size="10.00">+ decode()</text>
<text text-anchor="start" x="8" y="-323" font-family="Helvetica,sans-Serif" font-size="10.00">+ decode()</text>
<text text-anchor="start" x="8" y="-312" font-family="Helvetica,sans-Serif" font-size="10.00">+ size()</text>
</a>
</g>
</g>
<!-- Node1&#45;&gt;Node2 -->
<g id="edge1" class="edge">
<title>Node1&#45;&gt;Node2</title>
<path fill="none" stroke="midnightblue" d="M468.74,-606.99C375.02,-589.85 222.36,-550.67 119,-467 102.57,-453.7 89.28,-434.99 79.15,-417.03"/>
<polygon fill="none" stroke="midnightblue" points="468.29,-610.46 478.75,-608.77 469.52,-603.57 468.29,-610.46"/>
</g>
<!-- Node3 -->
<g id="node3" class="node">
<title>Node3</title>
<g id="a_node3"><a xlink:href="../../dc/dbf/classvanetza_1_1asn1_1_1asn1c__per__wrapper.html" target="_top" xlink:title=" ">
<polygon fill="white" stroke="#bfbfbf" points="648,-305 648,-417 758,-417 758,-305 648,-305"/>
<text text-anchor="start" x="656" y="-405" font-family="Helvetica,sans-Serif" font-size="10.00">vanetza::asn1::asn1c</text>
<text text-anchor="middle" x="703" y="-394" font-family="Helvetica,sans-Serif" font-size="10.00">_per_wrapper&lt; T &gt;</text>
<polyline fill="none" stroke="#bfbfbf" points="648,-387 758,-387 "/>
<text text-anchor="middle" x="703" y="-375" font-family="Helvetica,sans-Serif" font-size="10.00"> </text>
<polyline fill="none" stroke="#bfbfbf" points="648,-368 758,-368 "/>
<text text-anchor="start" x="656" y="-356" font-family="Helvetica,sans-Serif" font-size="10.00">+ encode()</text>
<text text-anchor="start" x="656" y="-345" font-family="Helvetica,sans-Serif" font-size="10.00">+ decode()</text>
<text text-anchor="start" x="656" y="-334" font-family="Helvetica,sans-Serif" font-size="10.00">+ decode()</text>
<text text-anchor="start" x="656" y="-323" font-family="Helvetica,sans-Serif" font-size="10.00">+ decode()</text>
<text text-anchor="start" x="656" y="-312" font-family="Helvetica,sans-Serif" font-size="10.00">+ size()</text>
</a>
</g>
</g>
<!-- Node1&#45;&gt;Node3 -->
<g id="edge2" class="edge">
<title>Node1&#45;&gt;Node3</title>
<path fill="none" stroke="midnightblue" d="M618.5,-505.83C636.58,-475.05 655.36,-443.09 670.61,-417.13"/>
<polygon fill="none" stroke="midnightblue" points="615.47,-504.07 613.42,-514.47 621.5,-507.62 615.47,-504.07"/>
</g>
<!-- Node14 -->
<g id="node14" class="node">
<title>Node14</title>
<g id="a_node14"><a xlink:href="../../d0/d68/classvanetza_1_1asn1_1_1asn1c__wrapper__common.html" target="_top" xlink:title=" ">
<polygon fill="white" stroke="#bfbfbf" points="128.5,-255.5 128.5,-466.5 275.5,-466.5 275.5,-255.5 128.5,-255.5"/>
<text text-anchor="start" x="136.5" y="-454.5" font-family="Helvetica,sans-Serif" font-size="10.00">vanetza::asn1::asn1c</text>
<text text-anchor="middle" x="202" y="-443.5" font-family="Helvetica,sans-Serif" font-size="10.00">_wrapper_common&lt; CAM_t &gt;</text>
<polyline fill="none" stroke="#bfbfbf" points="128.5,-436.5 275.5,-436.5 "/>
<text text-anchor="start" x="136.5" y="-424.5" font-family="Helvetica,sans-Serif" font-size="10.00"># m_struct</text>
<text text-anchor="start" x="136.5" y="-413.5" font-family="Helvetica,sans-Serif" font-size="10.00"># m_type</text>
<polyline fill="none" stroke="#bfbfbf" points="128.5,-406.5 275.5,-406.5 "/>
<text text-anchor="start" x="136.5" y="-394.5" font-family="Helvetica,sans-Serif" font-size="10.00">+ asn1c_wrapper_common()</text>
<text text-anchor="start" x="136.5" y="-383.5" font-family="Helvetica,sans-Serif" font-size="10.00">+ asn1c_wrapper_common()</text>
<text text-anchor="start" x="136.5" y="-372.5" font-family="Helvetica,sans-Serif" font-size="10.00">+ asn1c_wrapper_common()</text>
<text text-anchor="start" x="136.5" y="-361.5" font-family="Helvetica,sans-Serif" font-size="10.00">+ ~asn1c_wrapper_common()</text>
<text text-anchor="start" x="136.5" y="-350.5" font-family="Helvetica,sans-Serif" font-size="10.00">+ operator=()</text>
<text text-anchor="start" x="136.5" y="-339.5" font-family="Helvetica,sans-Serif" font-size="10.00">+ operator=()</text>
<text text-anchor="start" x="136.5" y="-328.5" font-family="Helvetica,sans-Serif" font-size="10.00">+ operator*()</text>
<text text-anchor="start" x="136.5" y="-317.5" font-family="Helvetica,sans-Serif" font-size="10.00">+ operator*()</text>
<text text-anchor="start" x="136.5" y="-306.5" font-family="Helvetica,sans-Serif" font-size="10.00">+ operator&#45;&gt;()</text>
<text text-anchor="start" x="136.5" y="-295.5" font-family="Helvetica,sans-Serif" font-size="10.00">+ operator&#45;&gt;()</text>
<text text-anchor="start" x="136.5" y="-284.5" font-family="Helvetica,sans-Serif" font-size="10.00">+ validate()</text>
<text text-anchor="start" x="136.5" y="-273.5" font-family="Helvetica,sans-Serif" font-size="10.00">+ validate()</text>
<text text-anchor="start" x="136.5" y="-262.5" font-family="Helvetica,sans-Serif" font-size="10.00">+ swap()</text>
</a>
</g>
</g>
<!-- Node1&#45;&gt;Node14 -->
<g id="edge13" class="edge">
<title>Node1&#45;&gt;Node14</title>
<path fill="none" stroke="orange" d="M469.78,-582.5C414.13,-555.42 340.86,-514.99 285,-467 281.83,-464.27 278.69,-461.41 275.6,-458.45"/>
<polygon fill="orange" stroke="orange" points="468.38,-585.71 478.9,-586.89 471.41,-579.4 468.38,-585.71"/>
<text text-anchor="middle" x="344" y="-488" font-family="Helvetica,sans-Serif" font-size="10.00"> &lt; CAM_t &gt;</text>
</g>
<!-- Node15 -->
<g id="node15" class="node">
<title>Node15</title>
<g id="a_node15"><a xlink:href="../../d0/d68/classvanetza_1_1asn1_1_1asn1c__wrapper__common.html" target="_top" xlink:title=" ">
<polygon fill="white" stroke="#bfbfbf" points="776,-255.5 776,-466.5 924,-466.5 924,-255.5 776,-255.5"/>
<text text-anchor="start" x="784" y="-454.5" font-family="Helvetica,sans-Serif" font-size="10.00">vanetza::asn1::asn1c</text>
<text text-anchor="middle" x="850" y="-443.5" font-family="Helvetica,sans-Serif" font-size="10.00">_wrapper_common&lt; CPM_t &gt;</text>
<polyline fill="none" stroke="#bfbfbf" points="776,-436.5 924,-436.5 "/>
<text text-anchor="start" x="784" y="-424.5" font-family="Helvetica,sans-Serif" font-size="10.00"># m_struct</text>
<text text-anchor="start" x="784" y="-413.5" font-family="Helvetica,sans-Serif" font-size="10.00"># m_type</text>
<polyline fill="none" stroke="#bfbfbf" points="776,-406.5 924,-406.5 "/>
<text text-anchor="start" x="784" y="-394.5" font-family="Helvetica,sans-Serif" font-size="10.00">+ asn1c_wrapper_common()</text>
<text text-anchor="start" x="784" y="-383.5" font-family="Helvetica,sans-Serif" font-size="10.00">+ asn1c_wrapper_common()</text>
<text text-anchor="start" x="784" y="-372.5" font-family="Helvetica,sans-Serif" font-size="10.00">+ asn1c_wrapper_common()</text>
<text text-anchor="start" x="784" y="-361.5" font-family="Helvetica,sans-Serif" font-size="10.00">+ ~asn1c_wrapper_common()</text>
<text text-anchor="start" x="784" y="-350.5" font-family="Helvetica,sans-Serif" font-size="10.00">+ operator=()</text>
<text text-anchor="start" x="784" y="-339.5" font-family="Helvetica,sans-Serif" font-size="10.00">+ operator=()</text>
<text text-anchor="start" x="784" y="-328.5" font-family="Helvetica,sans-Serif" font-size="10.00">+ operator*()</text>
<text text-anchor="start" x="784" y="-317.5" font-family="Helvetica,sans-Serif" font-size="10.00">+ operator*()</text>
<text text-anchor="start" x="784" y="-306.5" font-family="Helvetica,sans-Serif" font-size="10.00">+ operator&#45;&gt;()</text>
<text text-anchor="start" x="784" y="-295.5" font-family="Helvetica,sans-Serif" font-size="10.00">+ operator&#45;&gt;()</text>
<text text-anchor="start" x="784" y="-284.5" font-family="Helvetica,sans-Serif" font-size="10.00">+ validate()</text>
<text text-anchor="start" x="784" y="-273.5" font-family="Helvetica,sans-Serif" font-size="10.00">+ validate()</text>
<text text-anchor="start" x="784" y="-262.5" font-family="Helvetica,sans-Serif" font-size="10.00">+ swap()</text>
</a>
</g>
</g>
<!-- Node1&#45;&gt;Node15 -->
<g id="edge15" class="edge">
<title>Node1&#45;&gt;Node15</title>
<path fill="none" stroke="orange" d="M633.69,-569.26C675.72,-541.74 726.49,-505.39 767,-467 769.95,-464.2 772.89,-461.3 775.8,-458.31"/>
<polygon fill="orange" stroke="orange" points="631.61,-566.43 625.14,-574.81 635.43,-572.3 631.61,-566.43"/>
<text text-anchor="middle" x="772" y="-488" font-family="Helvetica,sans-Serif" font-size="10.00"> &lt; CPM_t &gt;</text>
</g>
<!-- Node16 -->
<g id="node16" class="node">
<title>Node16</title>
<g id="a_node16"><a xlink:href="../../d0/d68/classvanetza_1_1asn1_1_1asn1c__wrapper__common.html" target="_top" xlink:title=" ">
<polygon fill="white" stroke="#bfbfbf" points="474.5,-255.5 474.5,-466.5 629.5,-466.5 629.5,-255.5 474.5,-255.5"/>
<text text-anchor="start" x="482.5" y="-454.5" font-family="Helvetica,sans-Serif" font-size="10.00">vanetza::asn1::asn1c</text>
<text text-anchor="middle" x="552" y="-443.5" font-family="Helvetica,sans-Serif" font-size="10.00">_wrapper_common&lt; DENM_t &gt;</text>
<polyline fill="none" stroke="#bfbfbf" points="474.5,-436.5 629.5,-436.5 "/>
<text text-anchor="start" x="482.5" y="-424.5" font-family="Helvetica,sans-Serif" font-size="10.00"># m_struct</text>
<text text-anchor="start" x="482.5" y="-413.5" font-family="Helvetica,sans-Serif" font-size="10.00"># m_type</text>
<polyline fill="none" stroke="#bfbfbf" points="474.5,-406.5 629.5,-406.5 "/>
<text text-anchor="start" x="482.5" y="-394.5" font-family="Helvetica,sans-Serif" font-size="10.00">+ asn1c_wrapper_common()</text>
<text text-anchor="start" x="482.5" y="-383.5" font-family="Helvetica,sans-Serif" font-size="10.00">+ asn1c_wrapper_common()</text>
<text text-anchor="start" x="482.5" y="-372.5" font-family="Helvetica,sans-Serif" font-size="10.00">+ asn1c_wrapper_common()</text>
<text text-anchor="start" x="482.5" y="-361.5" font-family="Helvetica,sans-Serif" font-size="10.00">+ ~asn1c_wrapper_common()</text>
<text text-anchor="start" x="482.5" y="-350.5" font-family="Helvetica,sans-Serif" font-size="10.00">+ operator=()</text>
<text text-anchor="start" x="482.5" y="-339.5" font-family="Helvetica,sans-Serif" font-size="10.00">+ operator=()</text>
<text text-anchor="start" x="482.5" y="-328.5" font-family="Helvetica,sans-Serif" font-size="10.00">+ operator*()</text>
<text text-anchor="start" x="482.5" y="-317.5" font-family="Helvetica,sans-Serif" font-size="10.00">+ operator*()</text>
<text text-anchor="start" x="482.5" y="-306.5" font-family="Helvetica,sans-Serif" font-size="10.00">+ operator&#45;&gt;()</text>
<text text-anchor="start" x="482.5" y="-295.5" font-family="Helvetica,sans-Serif" font-size="10.00">+ operator&#45;&gt;()</text>
<text text-anchor="start" x="482.5" y="-284.5" font-family="Helvetica,sans-Serif" font-size="10.00">+ validate()</text>
<text text-anchor="start" x="482.5" y="-273.5" font-family="Helvetica,sans-Serif" font-size="10.00">+ validate()</text>
<text text-anchor="start" x="482.5" y="-262.5" font-family="Helvetica,sans-Serif" font-size="10.00">+ swap()</text>
</a>
</g>
</g>
<!-- Node1&#45;&gt;Node16 -->
<g id="edge17" class="edge">
<title>Node1&#45;&gt;Node16</title>
<path fill="none" stroke="orange" d="M552,-504.1C552,-491.7 552,-479.13 552,-466.86"/>
<polygon fill="orange" stroke="orange" points="548.5,-504.47 552,-514.47 555.5,-504.47 548.5,-504.47"/>
<text text-anchor="middle" x="582" y="-488" font-family="Helvetica,sans-Serif" font-size="10.00"> &lt; DENM_t &gt;</text>
</g>
<!-- Node17 -->
<g id="node17" class="node">
<title>Node17</title>
<g id="a_node17"><a xlink:href="../../d0/d68/classvanetza_1_1asn1_1_1asn1c__wrapper__common.html" target="_top" xlink:title=" ">
<polygon fill="white" stroke="#bfbfbf" points="294,-255.5 294,-466.5 456,-466.5 456,-255.5 294,-255.5"/>
<text text-anchor="start" x="302" y="-454.5" font-family="Helvetica,sans-Serif" font-size="10.00">vanetza::asn1::asn1c</text>
<text text-anchor="middle" x="375" y="-443.5" font-family="Helvetica,sans-Serif" font-size="10.00">_wrapper_common&lt; MAPEM_t &gt;</text>
<polyline fill="none" stroke="#bfbfbf" points="294,-436.5 456,-436.5 "/>
<text text-anchor="start" x="302" y="-424.5" font-family="Helvetica,sans-Serif" font-size="10.00"># m_struct</text>
<text text-anchor="start" x="302" y="-413.5" font-family="Helvetica,sans-Serif" font-size="10.00"># m_type</text>
<polyline fill="none" stroke="#bfbfbf" points="294,-406.5 456,-406.5 "/>
<text text-anchor="start" x="302" y="-394.5" font-family="Helvetica,sans-Serif" font-size="10.00">+ asn1c_wrapper_common()</text>
<text text-anchor="start" x="302" y="-383.5" font-family="Helvetica,sans-Serif" font-size="10.00">+ asn1c_wrapper_common()</text>
<text text-anchor="start" x="302" y="-372.5" font-family="Helvetica,sans-Serif" font-size="10.00">+ asn1c_wrapper_common()</text>
<text text-anchor="start" x="302" y="-361.5" font-family="Helvetica,sans-Serif" font-size="10.00">+ ~asn1c_wrapper_common()</text>
<text text-anchor="start" x="302" y="-350.5" font-family="Helvetica,sans-Serif" font-size="10.00">+ operator=()</text>
<text text-anchor="start" x="302" y="-339.5" font-family="Helvetica,sans-Serif" font-size="10.00">+ operator=()</text>
<text text-anchor="start" x="302" y="-328.5" font-family="Helvetica,sans-Serif" font-size="10.00">+ operator*()</text>
<text text-anchor="start" x="302" y="-317.5" font-family="Helvetica,sans-Serif" font-size="10.00">+ operator*()</text>
<text text-anchor="start" x="302" y="-306.5" font-family="Helvetica,sans-Serif" font-size="10.00">+ operator&#45;&gt;()</text>
<text text-anchor="start" x="302" y="-295.5" font-family="Helvetica,sans-Serif" font-size="10.00">+ operator&#45;&gt;()</text>
<text text-anchor="start" x="302" y="-284.5" font-family="Helvetica,sans-Serif" font-size="10.00">+ validate()</text>
<text text-anchor="start" x="302" y="-273.5" font-family="Helvetica,sans-Serif" font-size="10.00">+ validate()</text>
<text text-anchor="start" x="302" y="-262.5" font-family="Helvetica,sans-Serif" font-size="10.00">+ swap()</text>
</a>
</g>
</g>
<!-- Node1&#45;&gt;Node17 -->
<g id="edge19" class="edge">
<title>Node1&#45;&gt;Node17</title>
<path fill="none" stroke="orange" d="M474.15,-505.96C465.19,-492.96 456.09,-479.74 447.22,-466.86"/>
<polygon fill="orange" stroke="orange" points="471.45,-508.22 480.01,-514.47 477.22,-504.25 471.45,-508.22"/>
<text text-anchor="middle" x="497.5" y="-488" font-family="Helvetica,sans-Serif" font-size="10.00"> &lt; MAPEM_t &gt;</text>
</g>
<!-- Node18 -->
<g id="node18" class="node">
<title>Node18</title>
<g id="a_node18"><a xlink:href="../../d0/d68/classvanetza_1_1asn1_1_1asn1c__wrapper__common.html" target="_top" xlink:title=" ">
<polygon fill="white" stroke="#bfbfbf" points="942.5,-255.5 942.5,-466.5 1107.5,-466.5 1107.5,-255.5 942.5,-255.5"/>
<text text-anchor="start" x="950.5" y="-454.5" font-family="Helvetica,sans-Serif" font-size="10.00">vanetza::asn1::asn1c</text>
<text text-anchor="middle" x="1025" y="-443.5" font-family="Helvetica,sans-Serif" font-size="10.00">_wrapper_common&lt; SPATEM_t &gt;</text>
<polyline fill="none" stroke="#bfbfbf" points="942.5,-436.5 1107.5,-436.5 "/>
<text text-anchor="start" x="950.5" y="-424.5" font-family="Helvetica,sans-Serif" font-size="10.00"># m_struct</text>
<text text-anchor="start" x="950.5" y="-413.5" font-family="Helvetica,sans-Serif" font-size="10.00"># m_type</text>
<polyline fill="none" stroke="#bfbfbf" points="942.5,-406.5 1107.5,-406.5 "/>
<text text-anchor="start" x="950.5" y="-394.5" font-family="Helvetica,sans-Serif" font-size="10.00">+ asn1c_wrapper_common()</text>
<text text-anchor="start" x="950.5" y="-383.5" font-family="Helvetica,sans-Serif" font-size="10.00">+ asn1c_wrapper_common()</text>
<text text-anchor="start" x="950.5" y="-372.5" font-family="Helvetica,sans-Serif" font-size="10.00">+ asn1c_wrapper_common()</text>
<text text-anchor="start" x="950.5" y="-361.5" font-family="Helvetica,sans-Serif" font-size="10.00">+ ~asn1c_wrapper_common()</text>
<text text-anchor="start" x="950.5" y="-350.5" font-family="Helvetica,sans-Serif" font-size="10.00">+ operator=()</text>
<text text-anchor="start" x="950.5" y="-339.5" font-family="Helvetica,sans-Serif" font-size="10.00">+ operator=()</text>
<text text-anchor="start" x="950.5" y="-328.5" font-family="Helvetica,sans-Serif" font-size="10.00">+ operator*()</text>
<text text-anchor="start" x="950.5" y="-317.5" font-family="Helvetica,sans-Serif" font-size="10.00">+ operator*()</text>
<text text-anchor="start" x="950.5" y="-306.5" font-family="Helvetica,sans-Serif" font-size="10.00">+ operator&#45;&gt;()</text>
<text text-anchor="start" x="950.5" y="-295.5" font-family="Helvetica,sans-Serif" font-size="10.00">+ operator&#45;&gt;()</text>
<text text-anchor="start" x="950.5" y="-284.5" font-family="Helvetica,sans-Serif" font-size="10.00">+ validate()</text>
<text text-anchor="start" x="950.5" y="-273.5" font-family="Helvetica,sans-Serif" font-size="10.00">+ validate()</text>
<text text-anchor="start" x="950.5" y="-262.5" font-family="Helvetica,sans-Serif" font-size="10.00">+ swap()</text>
</a>
</g>
</g>
<!-- Node1&#45;&gt;Node18 -->
<g id="edge21" class="edge">
<title>Node1&#45;&gt;Node18</title>
<path fill="none" stroke="orange" d="M634.77,-598.24C715.91,-575.19 840.52,-532.39 933,-467 936.17,-464.76 939.3,-462.39 942.38,-459.92"/>
<polygon fill="orange" stroke="orange" points="633.78,-594.88 625.1,-600.95 635.67,-601.62 633.78,-594.88"/>
<text text-anchor="middle" x="941" y="-488" font-family="Helvetica,sans-Serif" font-size="10.00"> &lt; SPATEM_t &gt;</text>
</g>
<!-- Node4 -->
<g id="node4" class="node">
<title>Node4</title>
<g id="a_node4"><a xlink:href="../../dc/dbf/classvanetza_1_1asn1_1_1asn1c__per__wrapper.html" target="_top" xlink:title=" ">
<polygon fill="white" stroke="#bfbfbf" points="207.5,-95.5 207.5,-207.5 330.5,-207.5 330.5,-95.5 207.5,-95.5"/>
<text text-anchor="start" x="215.5" y="-195.5" font-family="Helvetica,sans-Serif" font-size="10.00">vanetza::asn1::asn1c</text>
<text text-anchor="middle" x="269" y="-184.5" font-family="Helvetica,sans-Serif" font-size="10.00">_per_wrapper&lt; CAM_t &gt;</text>
<polyline fill="none" stroke="#bfbfbf" points="207.5,-177.5 330.5,-177.5 "/>
<text text-anchor="middle" x="269" y="-165.5" font-family="Helvetica,sans-Serif" font-size="10.00"> </text>
<polyline fill="none" stroke="#bfbfbf" points="207.5,-158.5 330.5,-158.5 "/>
<text text-anchor="start" x="215.5" y="-146.5" font-family="Helvetica,sans-Serif" font-size="10.00">+ encode()</text>
<text text-anchor="start" x="215.5" y="-135.5" font-family="Helvetica,sans-Serif" font-size="10.00">+ decode()</text>
<text text-anchor="start" x="215.5" y="-124.5" font-family="Helvetica,sans-Serif" font-size="10.00">+ decode()</text>
<text text-anchor="start" x="215.5" y="-113.5" font-family="Helvetica,sans-Serif" font-size="10.00">+ decode()</text>
<text text-anchor="start" x="215.5" y="-102.5" font-family="Helvetica,sans-Serif" font-size="10.00">+ size()</text>
</a>
</g>
</g>
<!-- Node3&#45;&gt;Node4 -->
<g id="edge3" class="edge">
<title>Node3&#45;&gt;Node4</title>
<path fill="none" stroke="orange" d="M675.76,-296.04C666.07,-280.26 653.6,-265.03 638,-255 611.24,-237.8 527.35,-242.37 496,-237 435.94,-226.71 418.69,-230.35 362,-208 351.5,-203.86 340.82,-198.61 330.61,-193.01"/>
<polygon fill="orange" stroke="orange" points="672.81,-297.94 680.86,-304.84 678.87,-294.43 672.81,-297.94"/>
<text text-anchor="middle" x="522" y="-229" font-family="Helvetica,sans-Serif" font-size="10.00"> &lt; CAM_t &gt;</text>
</g>
<!-- Node6 -->
<g id="node6" class="node">
<title>Node6</title>
<g id="a_node6"><a xlink:href="../../dc/dbf/classvanetza_1_1asn1_1_1asn1c__per__wrapper.html" target="_top" xlink:title=" ">
<polygon fill="white" stroke="#bfbfbf" points="693,-95.5 693,-207.5 817,-207.5 817,-95.5 693,-95.5"/>
<text text-anchor="start" x="701" y="-195.5" font-family="Helvetica,sans-Serif" font-size="10.00">vanetza::asn1::asn1c</text>
<text text-anchor="middle" x="755" y="-184.5" font-family="Helvetica,sans-Serif" font-size="10.00">_per_wrapper&lt; CPM_t &gt;</text>
<polyline fill="none" stroke="#bfbfbf" points="693,-177.5 817,-177.5 "/>
<text text-anchor="middle" x="755" y="-165.5" font-family="Helvetica,sans-Serif" font-size="10.00"> </text>
<polyline fill="none" stroke="#bfbfbf" points="693,-158.5 817,-158.5 "/>
<text text-anchor="start" x="701" y="-146.5" font-family="Helvetica,sans-Serif" font-size="10.00">+ encode()</text>
<text text-anchor="start" x="701" y="-135.5" font-family="Helvetica,sans-Serif" font-size="10.00">+ decode()</text>
<text text-anchor="start" x="701" y="-124.5" font-family="Helvetica,sans-Serif" font-size="10.00">+ decode()</text>
<text text-anchor="start" x="701" y="-113.5" font-family="Helvetica,sans-Serif" font-size="10.00">+ decode()</text>
<text text-anchor="start" x="701" y="-102.5" font-family="Helvetica,sans-Serif" font-size="10.00">+ size()</text>
</a>
</g>
</g>
<!-- Node3&#45;&gt;Node6 -->
<g id="edge5" class="edge">
<title>Node3&#45;&gt;Node6</title>
<path fill="none" stroke="orange" d="M715.09,-295C719.58,-272.97 725.05,-248.3 731,-226 732.59,-220.03 734.39,-213.84 736.26,-207.69"/>
<polygon fill="orange" stroke="orange" points="711.64,-294.42 713.1,-304.92 718.5,-295.8 711.64,-294.42"/>
<text text-anchor="middle" x="757" y="-229" font-family="Helvetica,sans-Serif" font-size="10.00"> &lt; CPM_t &gt;</text>
</g>
<!-- Node8 -->
<g id="node8" class="node">
<title>Node8</title>
<g id="a_node8"><a xlink:href="../../dc/dbf/classvanetza_1_1asn1_1_1asn1c__per__wrapper.html" target="_top" xlink:title=" ">
<polygon fill="white" stroke="#bfbfbf" points="538.5,-95.5 538.5,-207.5 669.5,-207.5 669.5,-95.5 538.5,-95.5"/>
<text text-anchor="start" x="546.5" y="-195.5" font-family="Helvetica,sans-Serif" font-size="10.00">vanetza::asn1::asn1c</text>
<text text-anchor="middle" x="604" y="-184.5" font-family="Helvetica,sans-Serif" font-size="10.00">_per_wrapper&lt; DENM_t &gt;</text>
<polyline fill="none" stroke="#bfbfbf" points="538.5,-177.5 669.5,-177.5 "/>
<text text-anchor="middle" x="604" y="-165.5" font-family="Helvetica,sans-Serif" font-size="10.00"> </text>
<polyline fill="none" stroke="#bfbfbf" points="538.5,-158.5 669.5,-158.5 "/>
<text text-anchor="start" x="546.5" y="-146.5" font-family="Helvetica,sans-Serif" font-size="10.00">+ encode()</text>
<text text-anchor="start" x="546.5" y="-135.5" font-family="Helvetica,sans-Serif" font-size="10.00">+ decode()</text>
<text text-anchor="start" x="546.5" y="-124.5" font-family="Helvetica,sans-Serif" font-size="10.00">+ decode()</text>
<text text-anchor="start" x="546.5" y="-113.5" font-family="Helvetica,sans-Serif" font-size="10.00">+ decode()</text>
<text text-anchor="start" x="546.5" y="-102.5" font-family="Helvetica,sans-Serif" font-size="10.00">+ size()</text>
</a>
</g>
</g>
<!-- Node3&#45;&gt;Node8 -->
<g id="edge7" class="edge">
<title>Node3&#45;&gt;Node8</title>
<path fill="none" stroke="orange" d="M672.27,-295.59C658.85,-267.47 643.28,-234.82 630.39,-207.82"/>
<polygon fill="orange" stroke="orange" points="669.26,-297.42 676.73,-304.94 675.58,-294.41 669.26,-297.42"/>
<text text-anchor="middle" x="672" y="-229" font-family="Helvetica,sans-Serif" font-size="10.00"> &lt; DENM_t &gt;</text>
</g>
<!-- Node10 -->
<g id="node10" class="node">
<title>Node10</title>
<g id="a_node10"><a xlink:href="../../dc/dbf/classvanetza_1_1asn1_1_1asn1c__per__wrapper.html" target="_top" xlink:title=" ">
<polygon fill="white" stroke="#bfbfbf" points="371,-95.5 371,-207.5 509,-207.5 509,-95.5 371,-95.5"/>
<text text-anchor="start" x="379" y="-195.5" font-family="Helvetica,sans-Serif" font-size="10.00">vanetza::asn1::asn1c</text>
<text text-anchor="middle" x="440" y="-184.5" font-family="Helvetica,sans-Serif" font-size="10.00">_per_wrapper&lt; MAPEM_t &gt;</text>
<polyline fill="none" stroke="#bfbfbf" points="371,-177.5 509,-177.5 "/>
<text text-anchor="middle" x="440" y="-165.5" font-family="Helvetica,sans-Serif" font-size="10.00"> </text>
<polyline fill="none" stroke="#bfbfbf" points="371,-158.5 509,-158.5 "/>
<text text-anchor="start" x="379" y="-146.5" font-family="Helvetica,sans-Serif" font-size="10.00">+ encode()</text>
<text text-anchor="start" x="379" y="-135.5" font-family="Helvetica,sans-Serif" font-size="10.00">+ decode()</text>
<text text-anchor="start" x="379" y="-124.5" font-family="Helvetica,sans-Serif" font-size="10.00">+ decode()</text>
<text text-anchor="start" x="379" y="-113.5" font-family="Helvetica,sans-Serif" font-size="10.00">+ decode()</text>
<text text-anchor="start" x="379" y="-102.5" font-family="Helvetica,sans-Serif" font-size="10.00">+ size()</text>
</a>
</g>
</g>
<!-- Node3&#45;&gt;Node10 -->
<g id="edge9" class="edge">
<title>Node3&#45;&gt;Node10</title>
<path fill="none" stroke="orange" d="M673.83,-295.83C664.3,-280.6 652.38,-265.7 638,-255 613.26,-236.6 599.18,-249.51 571,-237 549.97,-227.67 528.47,-215.22 509.12,-202.75"/>
<polygon fill="orange" stroke="orange" points="671.05,-298 679.17,-304.8 677.07,-294.42 671.05,-298"/>
<text text-anchor="middle" x="604.5" y="-229" font-family="Helvetica,sans-Serif" font-size="10.00"> &lt; MAPEM_t &gt;</text>
</g>
<!-- Node12 -->
<g id="node12" class="node">
<title>Node12</title>
<g id="a_node12"><a xlink:href="../../dc/dbf/classvanetza_1_1asn1_1_1asn1c__per__wrapper.html" target="_top" xlink:title=" ">
<polygon fill="white" stroke="#bfbfbf" points="838.5,-95.5 838.5,-207.5 979.5,-207.5 979.5,-95.5 838.5,-95.5"/>
<text text-anchor="start" x="846.5" y="-195.5" font-family="Helvetica,sans-Serif" font-size="10.00">vanetza::asn1::asn1c</text>
<text text-anchor="middle" x="909" y="-184.5" font-family="Helvetica,sans-Serif" font-size="10.00">_per_wrapper&lt; SPATEM_t &gt;</text>
<polyline fill="none" stroke="#bfbfbf" points="838.5,-177.5 979.5,-177.5 "/>
<text text-anchor="middle" x="909" y="-165.5" font-family="Helvetica,sans-Serif" font-size="10.00"> </text>
<polyline fill="none" stroke="#bfbfbf" points="838.5,-158.5 979.5,-158.5 "/>
<text text-anchor="start" x="846.5" y="-146.5" font-family="Helvetica,sans-Serif" font-size="10.00">+ encode()</text>
<text text-anchor="start" x="846.5" y="-135.5" font-family="Helvetica,sans-Serif" font-size="10.00">+ decode()</text>
<text text-anchor="start" x="846.5" y="-124.5" font-family="Helvetica,sans-Serif" font-size="10.00">+ decode()</text>
<text text-anchor="start" x="846.5" y="-113.5" font-family="Helvetica,sans-Serif" font-size="10.00">+ decode()</text>
<text text-anchor="start" x="846.5" y="-102.5" font-family="Helvetica,sans-Serif" font-size="10.00">+ size()</text>
</a>
</g>
</g>
<!-- Node3&#45;&gt;Node12 -->
<g id="edge11" class="edge">
<title>Node3&#45;&gt;Node12</title>
<path fill="none" stroke="orange" d="M736.45,-295.95C745.38,-281.69 755.72,-267.2 767,-255 778.92,-242.11 808.99,-219.99 838.41,-199.59"/>
<polygon fill="orange" stroke="orange" points="733.29,-294.41 731.08,-304.77 739.27,-298.05 733.29,-294.41"/>
<text text-anchor="middle" x="834" y="-229" font-family="Helvetica,sans-Serif" font-size="10.00"> &lt; SPATEM_t &gt;</text>
</g>
<!-- Node5 -->
<g id="node5" class="node">
<title>Node5</title>
<g id="a_node5"><a xlink:href="../../d6/d47/classvanetza_1_1asn1_1_1Cam.html" target="_top" xlink:title=" ">
<polygon fill="white" stroke="#bfbfbf" points="217,-0.5 217,-57.5 321,-57.5 321,-0.5 217,-0.5"/>
<text text-anchor="middle" x="269" y="-45.5" font-family="Helvetica,sans-Serif" font-size="10.00">vanetza::asn1::Cam</text>
<polyline fill="none" stroke="#bfbfbf" points="217,-38.5 321,-38.5 "/>
<text text-anchor="middle" x="269" y="-26.5" font-family="Helvetica,sans-Serif" font-size="10.00"> </text>
<polyline fill="none" stroke="#bfbfbf" points="217,-19.5 321,-19.5 "/>
<text text-anchor="start" x="225" y="-7.5" font-family="Helvetica,sans-Serif" font-size="10.00">+ Cam()</text>
</a>
</g>
</g>
<!-- Node4&#45;&gt;Node5 -->
<g id="edge4" class="edge">
<title>Node4&#45;&gt;Node5</title>
<path fill="none" stroke="midnightblue" d="M269,-85.12C269,-75.48 269,-66.01 269,-57.72"/>
<polygon fill="none" stroke="midnightblue" points="265.5,-85.19 269,-95.19 272.5,-85.19 265.5,-85.19"/>
</g>
<!-- Node7 -->
<g id="node7" class="node">
<title>Node7</title>
<g id="a_node7"><a xlink:href="../../d3/d6a/classvanetza_1_1asn1_1_1Cpm.html" target="_top" xlink:title=" ">
<polygon fill="white" stroke="#bfbfbf" points="703,-0.5 703,-57.5 807,-57.5 807,-0.5 703,-0.5"/>
<text text-anchor="middle" x="755" y="-45.5" font-family="Helvetica,sans-Serif" font-size="10.00">vanetza::asn1::Cpm</text>
<polyline fill="none" stroke="#bfbfbf" points="703,-38.5 807,-38.5 "/>
<text text-anchor="middle" x="755" y="-26.5" font-family="Helvetica,sans-Serif" font-size="10.00"> </text>
<polyline fill="none" stroke="#bfbfbf" points="703,-19.5 807,-19.5 "/>
<text text-anchor="start" x="711" y="-7.5" font-family="Helvetica,sans-Serif" font-size="10.00">+ Cpm()</text>
</a>
</g>
</g>
<!-- Node6&#45;&gt;Node7 -->
<g id="edge6" class="edge">
<title>Node6&#45;&gt;Node7</title>
<path fill="none" stroke="midnightblue" d="M755,-85.12C755,-75.48 755,-66.01 755,-57.72"/>
<polygon fill="none" stroke="midnightblue" points="751.5,-85.19 755,-95.19 758.5,-85.19 751.5,-85.19"/>
</g>
<!-- Node9 -->
<g id="node9" class="node">
<title>Node9</title>
<g id="a_node9"><a xlink:href="../../da/dbc/classvanetza_1_1asn1_1_1Denm.html" target="_top" xlink:title=" ">
<polygon fill="white" stroke="#bfbfbf" points="549,-0.5 549,-57.5 659,-57.5 659,-0.5 549,-0.5"/>
<text text-anchor="middle" x="604" y="-45.5" font-family="Helvetica,sans-Serif" font-size="10.00">vanetza::asn1::Denm</text>
<polyline fill="none" stroke="#bfbfbf" points="549,-38.5 659,-38.5 "/>
<text text-anchor="middle" x="604" y="-26.5" font-family="Helvetica,sans-Serif" font-size="10.00"> </text>
<polyline fill="none" stroke="#bfbfbf" points="549,-19.5 659,-19.5 "/>
<text text-anchor="start" x="557" y="-7.5" font-family="Helvetica,sans-Serif" font-size="10.00">+ Denm()</text>
</a>
</g>
</g>
<!-- Node8&#45;&gt;Node9 -->
<g id="edge8" class="edge">
<title>Node8&#45;&gt;Node9</title>
<path fill="none" stroke="midnightblue" d="M604,-85.12C604,-75.48 604,-66.01 604,-57.72"/>
<polygon fill="none" stroke="midnightblue" points="600.5,-85.19 604,-95.19 607.5,-85.19 600.5,-85.19"/>
</g>
<!-- Node11 -->
<g id="node11" class="node">
<title>Node11</title>
<g id="a_node11"><a xlink:href="../../d4/dfa/classvanetza_1_1asn1_1_1Mapem.html" target="_top" xlink:title=" ">
<polygon fill="white" stroke="#bfbfbf" points="382,-0.5 382,-57.5 498,-57.5 498,-0.5 382,-0.5"/>
<text text-anchor="middle" x="440" y="-45.5" font-family="Helvetica,sans-Serif" font-size="10.00">vanetza::asn1::Mapem</text>
<polyline fill="none" stroke="#bfbfbf" points="382,-38.5 498,-38.5 "/>
<text text-anchor="middle" x="440" y="-26.5" font-family="Helvetica,sans-Serif" font-size="10.00"> </text>
<polyline fill="none" stroke="#bfbfbf" points="382,-19.5 498,-19.5 "/>
<text text-anchor="start" x="390" y="-7.5" font-family="Helvetica,sans-Serif" font-size="10.00">+ Mapem()</text>
</a>
</g>
</g>
<!-- Node10&#45;&gt;Node11 -->
<g id="edge10" class="edge">
<title>Node10&#45;&gt;Node11</title>
<path fill="none" stroke="midnightblue" d="M440,-85.12C440,-75.48 440,-66.01 440,-57.72"/>
<polygon fill="none" stroke="midnightblue" points="436.5,-85.19 440,-95.19 443.5,-85.19 436.5,-85.19"/>
</g>
<!-- Node13 -->
<g id="node13" class="node">
<title>Node13</title>
<g id="a_node13"><a xlink:href="../../d4/d0f/classvanetza_1_1asn1_1_1Spatem.html" target="_top" xlink:title=" ">
<polygon fill="white" stroke="#bfbfbf" points="850.5,-0.5 850.5,-57.5 967.5,-57.5 967.5,-0.5 850.5,-0.5"/>
<text text-anchor="middle" x="909" y="-45.5" font-family="Helvetica,sans-Serif" font-size="10.00">vanetza::asn1::Spatem</text>
<polyline fill="none" stroke="#bfbfbf" points="850.5,-38.5 967.5,-38.5 "/>
<text text-anchor="middle" x="909" y="-26.5" font-family="Helvetica,sans-Serif" font-size="10.00"> </text>
<polyline fill="none" stroke="#bfbfbf" points="850.5,-19.5 967.5,-19.5 "/>
<text text-anchor="start" x="858.5" y="-7.5" font-family="Helvetica,sans-Serif" font-size="10.00">+ Spatem()</text>
</a>
</g>
</g>
<!-- Node12&#45;&gt;Node13 -->
<g id="edge12" class="edge">
<title>Node12&#45;&gt;Node13</title>
<path fill="none" stroke="midnightblue" d="M909,-85.12C909,-75.48 909,-66.01 909,-57.72"/>
<polygon fill="none" stroke="midnightblue" points="905.5,-85.19 909,-95.19 912.5,-85.19 905.5,-85.19"/>
</g>
<!-- Node14&#45;&gt;Node4 -->
<g id="edge14" class="edge">
<title>Node14&#45;&gt;Node4</title>
<path fill="none" stroke="midnightblue" d="M238.91,-245.68C243.19,-232.44 247.38,-219.45 251.22,-207.55"/>
<polygon fill="none" stroke="midnightblue" points="235.54,-244.75 235.79,-255.34 242.2,-246.9 235.54,-244.75"/>
</g>
<!-- Node15&#45;&gt;Node6 -->
<g id="edge16" class="edge">
<title>Node15&#45;&gt;Node6</title>
<path fill="none" stroke="midnightblue" d="M884.53,-245.16C882.86,-238.42 880.11,-231.97 876,-226 863.32,-207.57 848.58,-218.81 829,-208 825.06,-205.83 821.1,-203.46 817.17,-200.98"/>
<polygon fill="none" stroke="midnightblue" points="881.11,-245.94 886.22,-255.21 888.01,-244.77 881.11,-245.94"/>
</g>
<!-- Node16&#45;&gt;Node8 -->
<g id="edge18" class="edge">
<title>Node16&#45;&gt;Node8</title>
<path fill="none" stroke="midnightblue" d="M532.9,-244.94C534.01,-238.45 535.67,-232.09 538,-226 540.39,-219.75 543.59,-213.71 547.29,-207.94"/>
<polygon fill="none" stroke="midnightblue" points="529.38,-244.86 531.61,-255.22 536.33,-245.74 529.38,-244.86"/>
</g>
<!-- Node17&#45;&gt;Node10 -->
<g id="edge20" class="edge">
<title>Node17&#45;&gt;Node10</title>
<path fill="none" stroke="midnightblue" d="M410.81,-245.68C414.96,-232.44 419.03,-219.45 422.76,-207.55"/>
<polygon fill="none" stroke="midnightblue" points="407.44,-244.75 407.79,-255.34 414.11,-246.84 407.44,-244.75"/>
</g>
<!-- Node18&#45;&gt;Node12 -->
<g id="edge22" class="edge">
<title>Node18&#45;&gt;Node12</title>
<path fill="none" stroke="midnightblue" d="M961.52,-246.45C953.97,-232.95 946.55,-219.68 939.78,-207.55"/>
<polygon fill="none" stroke="midnightblue" points="958.56,-248.32 966.49,-255.34 964.67,-244.9 958.56,-248.32"/>
</g>
</g>
</svg>
        <g id="navigator" transform="translate(0 0)" fill="#404254">
                <rect fill="#f2f5e9" fill-opacity="0.5" stroke="#606060" stroke-width=".5" x="0" y="0" width="60" height="60"/>
                <use id="zoomplus" xlink:href="#zoomPlus" x="17" y="9" onmousedown="handleZoom(evt,'in')"/>
                <use id="zoomminus" xlink:href="#zoomMin" x="42" y="9" onmousedown="handleZoom(evt,'out')"/>
                <use id="reset" xlink:href="#resetDef" x="30" y="36" onmousedown="handleReset()"/>
                <g id="arrowUp" xlink:href="#dirArrow" transform="translate(30 24)" onmousedown="handlePan(0,-1)">
                  <use xlink:href="#rim" fill="#404040">
                        <set attributeName="fill" to="#808080" begin="arrowUp.mouseover" end="arrowUp.mouseout"/>
                  </use>
                  <path fill="none" stroke="white" stroke-width="1.5" d="M0,-3.0v7 M-2.5,-0.5L0,-3.0L2.5,-0.5"/>
                </g>
                <g id="arrowRight" xlink:href="#dirArrow" transform="rotate(90) translate(36 -43)" onmousedown="handlePan(1,0)">
                  <use xlink:href="#rim" fill="#404040">
                        <set attributeName="fill" to="#808080" begin="arrowRight.mouseover" end="arrowRight.mouseout"/>
                  </use>
                  <path fill="none" stroke="white" stroke-width="1.5" d="M0,-3.0v7 M-2.5,-0.5L0,-3.0L2.5,-0.5"/>
                </g>
                <g id="arrowDown" xlink:href="#dirArrow" transform="rotate(180) translate(-30 -48)" onmousedown="handlePan(0,1)">
                  <use xlink:href="#rim" fill="#404040">
                        <set attributeName="fill" to="#808080" begin="arrowDown.mouseover" end="arrowDown.mouseout"/>
                  </use>
                  <path fill="none" stroke="white" stroke-width="1.5" d="M0,-3.0v7 M-2.5,-0.5L0,-3.0L2.5,-0.5"/>
                </g>
                <g id="arrowLeft" xlink:href="#dirArrow" transform="rotate(270) translate(-36 17)" onmousedown="handlePan(-1,0)">
                  <use xlink:href="#rim" fill="#404040">
                        <set attributeName="fill" to="#808080" begin="arrowLeft.mouseover" end="arrowLeft.mouseout"/>
                  </use>
                  <path fill="none" stroke="white" stroke-width="1.5" d="M0,-3.0v7 M-2.5,-0.5L0,-3.0L2.5,-0.5"/>
                </g>
        </g>
        <svg viewBox="0 0 15 15" width="100%" height="30px" preserveAspectRatio="xMaxYMin meet">
         <g id="arrow_out" transform="scale(0.3 0.3)">
          <a xlink:href="classvanetza_1_1asn1_1_1asn1c__wrapper__common__inherit__graph_org.svg" target="_base">
           <rect id="button" ry="5" rx="5" y="6" x="6" height="38" width="38"
                fill="#f2f5e9" fill-opacity="0.5" stroke="#606060" stroke-width="1.0"/>
           <path id="arrow"
             d="M 11.500037,31.436501 C 11.940474,20.09759 22.043105,11.32322 32.158766,21.979434 L 37.068811,17.246167 C 37.068811,17.246167 37.088388,32 37.088388,32 L 22.160133,31.978069 C 22.160133,31.978069 26.997745,27.140456 26.997745,27.140456 C 18.528582,18.264221 13.291696,25.230495 11.500037,31.436501 z"
             style="fill:#404040;"/>
          </a>
         </g>
        </svg>
</svg>
