<?xml version="1.0" encoding="UTF-8" standalone="no"?>
<!DOCTYPE svg PUBLIC "-//W3C//DTD SVG 1.1//EN"
 "http://www.w3.org/Graphics/SVG/1.1/DTD/svg11.dtd">
<!-- Generated by graphviz version 2.49.3 (0)
 -->
<!-- Title: vanetza::geonet::SoftStateDefaultCreator&lt; VALUE &gt; Pages: 1 -->
<svg width="164pt" height="181pt"
 viewBox="0.00 0.00 163.50 181.00" xmlns="http://www.w3.org/2000/svg" xmlns:xlink="http://www.w3.org/1999/xlink">

<svg id="main" version="1.1" xmlns="http://www.w3.org/2000/svg" xmlns:xlink="http://www.w3.org/1999/xlink" xml:space="preserve">

<style type="text/css"><![CDATA[
.node, .edge {opacity: 0.7;}
.node.selected, .edge.selected {opacity: 1;}
.edge:hover path { stroke: red; }
.edge:hover polygon { stroke: red; fill: red; }
]]></style>
<script type="application/ecmascript" xlink:href="../../svg.min.js"/>
<svg id="graph" class="graph">
<g id="graph0" class="graph" transform="scale(1 1) rotate(0) translate(4 177)">
<title>vanetza::geonet::SoftStateDefaultCreator&lt; VALUE &gt;</title>
<!-- Node1 -->
<g id="Node000001" class="node">
<title>Node1</title>
<g id="a_Node000001"><a xlink:title=" ">
<polygon fill="#999999" stroke="transparent" points="137.5,-173 11.5,-173 11.5,-113 137.5,-113 137.5,-173"/>
<text text-anchor="start" x="16.5" y="-161" font-family="Helvetica,sans-Serif" font-size="10.00">vanetza::geonet::SoftState</text>
<text text-anchor="start" x="17" y="-150" font-family="Helvetica,sans-Serif" font-size="10.00">DefaultCreator&lt; VALUE &gt;</text>
<text text-anchor="start" x="72.5" y="-135" font-family="Helvetica,sans-Serif" font-size="10.00"> </text>
<text text-anchor="start" x="30" y="-120" font-family="Helvetica,sans-Serif" font-size="10.00">+</text>
<text text-anchor="start" x="55.5" y="-120" font-family="Helvetica,sans-Serif" font-size="10.00">operator()()</text>
<polygon fill="#666666" stroke="#666666" points="11.5,-145 11.5,-145 137.5,-145 137.5,-145 11.5,-145"/>
<polygon fill="#666666" stroke="#666666" points="11.5,-130 11.5,-130 137.5,-130 137.5,-130 11.5,-130"/>
<polygon fill="none" stroke="#666666" points="11.5,-113 11.5,-173 137.5,-173 137.5,-113 11.5,-113"/>
</a>
</g>
</g>
<!-- Node2 -->
<g id="Node000002" class="node">
<title>Node2</title>
<g id="a_Node000002"><a xlink:href="../../db/dd8/structvanetza_1_1geonet_1_1SoftStateDefaultCreator.html" target="_top" xlink:title=" ">
<polygon fill="white" stroke="transparent" points="149,-60 0,-60 0,0 149,0 149,-60"/>
<text text-anchor="start" x="5.5" y="-48" font-family="Helvetica,sans-Serif" font-size="10.00">vanetza::geonet::SoftState</text>
<text text-anchor="start" x="5.5" y="-37" font-family="Helvetica,sans-Serif" font-size="10.00">DefaultCreator&lt; counter_type &gt;</text>
<text text-anchor="start" x="73" y="-22" font-family="Helvetica,sans-Serif" font-size="10.00"> </text>
<text text-anchor="start" x="25" y="-7" font-family="Helvetica,sans-Serif" font-size="10.00">+</text>
<text text-anchor="start" x="56.5" y="-7" font-family="Helvetica,sans-Serif" font-size="10.00">operator()()</text>
<polygon fill="#bfbfbf" stroke="#bfbfbf" points="0.5,-32 0.5,-32 149.5,-32 149.5,-32 0.5,-32"/>
<polygon fill="#bfbfbf" stroke="#bfbfbf" points="0.5,-17 0.5,-17 149.5,-17 149.5,-17 0.5,-17"/>
<polygon fill="none" stroke="#bfbfbf" points="0,0 0,-60 149,-60 149,0 0,0"/>
</a>
</g>
</g>
<!-- Node1&#45;&gt;Node2 -->
<g id="edge1_Node000001_Node000002" class="edge">
<title>Node1&#45;&gt;Node2</title>
<g id="a_edge1_Node000001_Node000002"><a xlink:title=" ">
<path fill="none" stroke="orange" d="M74.5,-102.56C74.5,-88.65 74.5,-73.28 74.5,-60.35"/>
<polygon fill="orange" stroke="orange" points="71,-102.84 74.5,-112.84 78,-102.84 71,-102.84"/>
</a>
</g>
<text text-anchor="start" x="78" y="-83.5" font-family="Helvetica,sans-Serif" font-size="10.00" fill="grey">&lt; counter_type &gt;</text>
</g>
</g>
</svg>
</svg>

<style type='text/css'>
<![CDATA[
[data-mouse-over-selected='false'] { opacity: 0.7; }
[data-mouse-over-selected='true']  { opacity: 1.0; }
]]>
</style>
<script type="application/ecmascript"><![CDATA[
document.addEventListener('DOMContentLoaded', (event) => {
  highlightEdges();
  highlightAdjacentNodes();
});
]]></script>
</svg>
