<?xml version="1.0" encoding="UTF-8" standalone="no"?>
<!DOCTYPE svg PUBLIC "-//W3C//DTD SVG 1.1//EN"
 "http://www.w3.org/Graphics/SVG/1.1/DTD/svg11.dtd">
<!-- Generated by graphviz version 14.1.2 (0)
 -->
<!-- Title: vanetza::geonet::SoftStateDefaultCreator&lt; VALUE &gt; Pages: 1 -->
<svg width="183pt" height="197pt"
 viewBox="0.00 0.00 183.00 197.00" xmlns="http://www.w3.org/2000/svg" xmlns:xlink="http://www.w3.org/1999/xlink">

<svg id="main" version="1.1" xmlns="http://www.w3.org/2000/svg" xmlns:xlink="http://www.w3.org/1999/xlink" xml:space="preserve">

<style type="text/css"><![CDATA[
.node, .edge {opacity: 0.7;}
.node.selected, .edge.selected {opacity: 1;}
.edge:hover path { stroke: red; }
.edge:hover polygon { stroke: red; fill: red; }
]]></style>
<script type="application/ecmascript" xlink:href="../../svg.min.js"/>
<svg id="graph" class="graph">
<g id="graph0" class="graph" transform="scale(1 1) rotate(0) translate(4 192.75)">
<title>vanetza::geonet::SoftStateDefaultCreator&lt; VALUE &gt;</title>
<!-- Node1 -->
<g id="Node000001" class="node">
<title>Node1</title>
<g id="a_Node000001"><a xlink:title=" ">
<polygon fill="#999999" stroke="none" points="151.62,-188.75 14.62,-188.75 14.62,-121.75 151.62,-121.75 151.62,-188.75"/>
<text xml:space="preserve" text-anchor="start" x="18.62" y="-175.25" font-family="Helvetica,sans-Serif" font-size="10.00">vanetza::geonet::SoftState</text>
<text xml:space="preserve" text-anchor="start" x="20.12" y="-162.5" font-family="Helvetica,sans-Serif" font-size="10.00">DefaultCreator&lt; VALUE &gt;</text>
<text xml:space="preserve" text-anchor="start" x="81.62" y="-145.75" font-family="Helvetica,sans-Serif" font-size="10.00"> </text>
<text xml:space="preserve" text-anchor="start" x="33.75" y="-129" font-family="Helvetica,sans-Serif" font-size="10.00">+</text>
<text xml:space="preserve" text-anchor="start" x="61.12" y="-129" font-family="Helvetica,sans-Serif" font-size="10.00">operator()()</text>
<polygon fill="#666666" stroke="#666666" points="14.62,-157.25 14.62,-157.25 151.62,-157.25 151.62,-157.25 14.62,-157.25"/>
<polygon fill="#666666" stroke="#666666" points="14.62,-140.5 14.62,-140.5 151.62,-140.5 151.62,-140.5 14.62,-140.5"/>
<polygon fill="none" stroke="#666666" points="14.62,-121.75 14.62,-188.75 151.62,-188.75 151.62,-121.75 14.62,-121.75"/>
</a>
</g>
</g>
<!-- Node2 -->
<g id="Node000002" class="node">
<title>Node2</title>
<g id="a_Node000002"><a xlink:href="../../db/dd8/structvanetza_1_1geonet_1_1SoftStateDefaultCreator.html" target="_top" xlink:title=" ">
<polygon fill="white" stroke="none" points="166.25,-67 0,-67 0,0 166.25,0 166.25,-67"/>
<text xml:space="preserve" text-anchor="start" x="4" y="-53.5" font-family="Helvetica,sans-Serif" font-size="10.00">vanetza::geonet::SoftState</text>
<text xml:space="preserve" text-anchor="start" x="4" y="-40.75" font-family="Helvetica,sans-Serif" font-size="10.00">DefaultCreator&lt; counter_type &gt;</text>
<text xml:space="preserve" text-anchor="start" x="81.62" y="-24" font-family="Helvetica,sans-Serif" font-size="10.00"> </text>
<text xml:space="preserve" text-anchor="start" x="26.44" y="-7.25" font-family="Helvetica,sans-Serif" font-size="10.00">+</text>
<text xml:space="preserve" text-anchor="start" x="61.12" y="-7.25" font-family="Helvetica,sans-Serif" font-size="10.00">operator()()</text>
<polygon fill="#bfbfbf" stroke="#bfbfbf" points="0,-35.5 0,-35.5 166.25,-35.5 166.25,-35.5 0,-35.5"/>
<polygon fill="#bfbfbf" stroke="#bfbfbf" points="0,-18.75 0,-18.75 166.25,-18.75 166.25,-18.75 0,-18.75"/>
<polygon fill="none" stroke="#bfbfbf" points="0,0 0,-67 166.25,-67 166.25,0 0,0"/>
</a>
</g>
</g>
<!-- Node1&#45;&gt;Node2 -->
<g id="edge1_Node000001_Node000002" class="edge">
<title>Node1&#45;&gt;Node2</title>
<g id="a_edge1_Node000001_Node000002"><a xlink:title=" ">
<path fill="none" stroke="orange" d="M83.12,-110.63C83.12,-96.19 83.12,-80.38 83.12,-66.93"/>
<polygon fill="orange" stroke="orange" points="79.63,-110.33 83.13,-120.33 86.63,-110.33 79.63,-110.33"/>
</a>
</g>
<text xml:space="preserve" text-anchor="start" x="86.12" y="-91.25" font-family="Helvetica,sans-Serif" font-size="10.00" fill="grey">&lt; counter_type &gt;</text>
</g>
</g>
</svg>
</svg>

<style type='text/css'>
<![CDATA[
[data-mouse-over-selected='false'] { opacity: 0.7; }
[data-mouse-over-selected='true']  { opacity: 1.0; }
]]>
</style>
<script type="application/ecmascript"><![CDATA[
document.addEventListener('DOMContentLoaded', (event) => {
  highlightEdges();
  highlightAdjacentNodes();
});
]]></script>
</svg>
