<?xml version="1.0" encoding="UTF-8" standalone="no"?>
<!DOCTYPE svg PUBLIC "-//W3C//DTD SVG 1.1//EN"
 "http://www.w3.org/Graphics/SVG/1.1/DTD/svg11.dtd">
<!-- Generated by graphviz version 14.1.2 (0)
 -->
<!-- Title: vanetza::security::v3::CertificateValidator Pages: 1 -->
<svg width="322pt" height="409pt"
 viewBox="0.00 0.00 322.00 409.00" xmlns="http://www.w3.org/2000/svg" xmlns:xlink="http://www.w3.org/1999/xlink">

<svg id="main" version="1.1" xmlns="http://www.w3.org/2000/svg" xmlns:xlink="http://www.w3.org/1999/xlink" xml:space="preserve">

<style type="text/css"><![CDATA[
.node, .edge {opacity: 0.7;}
.node.selected, .edge.selected {opacity: 1;}
.edge:hover path { stroke: red; }
.edge:hover polygon { stroke: red; fill: red; }
]]></style>
<script type="application/ecmascript" xlink:href="../../svg.min.js"/>
<svg id="graph" class="graph">
<g id="graph0" class="graph" transform="scale(1 1) rotate(0) translate(4 404.5)">
<title>vanetza::security::v3::CertificateValidator</title>
<!-- Node1 -->
<g id="Node000001" class="node">
<title>Node1</title>
<g id="a_Node000001"><a xlink:title=" ">
<polygon fill="#999999" stroke="none" points="225.75,-400.5 96,-400.5 96,-316.75 225.75,-316.75 225.75,-400.5"/>
<text xml:space="preserve" text-anchor="start" x="105" y="-387" font-family="Helvetica,sans-Serif" font-size="10.00">vanetza::security::</text>
<text xml:space="preserve" text-anchor="start" x="105" y="-374.25" font-family="Helvetica,sans-Serif" font-size="10.00">v3::CertificateValidator</text>
<text xml:space="preserve" text-anchor="start" x="159.38" y="-357.5" font-family="Helvetica,sans-Serif" font-size="10.00"> </text>
<text xml:space="preserve" text-anchor="start" x="100" y="-340.75" font-family="Helvetica,sans-Serif" font-size="10.00">+</text>
<text xml:space="preserve" text-anchor="start" x="112.25" y="-340.75" font-family="Helvetica,sans-Serif" font-size="10.00">valid_for_signing()</text>
<text xml:space="preserve" text-anchor="start" x="100" y="-324" font-family="Helvetica,sans-Serif" font-size="10.00">+</text>
<text xml:space="preserve" text-anchor="start" x="112.25" y="-324" font-family="Helvetica,sans-Serif" font-size="10.00">~CertificateValidator()</text>
<polygon fill="#666666" stroke="#666666" points="96,-369 96,-369 225.75,-369 225.75,-369 96,-369"/>
<polygon fill="#666666" stroke="#666666" points="96,-352.25 96,-352.25 225.75,-352.25 225.75,-352.25 96,-352.25"/>
<polygon fill="none" stroke="#666666" points="96,-316.75 96,-400.5 225.75,-400.5 225.75,-316.75 96,-316.75"/>
</a>
</g>
</g>
<!-- Node2 -->
<g id="Node000002" class="node">
<title>Node2</title>
<g id="a_Node000002"><a xlink:href="../../de/ddc/classvanetza_1_1security_1_1v3_1_1DefaultCertificateValidator.html" target="_top" xlink:title=" ">
<polygon fill="white" stroke="none" points="155.75,-280.75 0,-280.75 0,0 155.75,0 155.75,-280.75"/>
<text xml:space="preserve" text-anchor="start" x="4" y="-267.25" font-family="Helvetica,sans-Serif" font-size="10.00">vanetza::security::</text>
<text xml:space="preserve" text-anchor="start" x="4" y="-254.5" font-family="Helvetica,sans-Serif" font-size="10.00">v3::DefaultCertificateValidator</text>
<text xml:space="preserve" text-anchor="start" x="8.62" y="-237.75" font-family="Helvetica,sans-Serif" font-size="10.00">&#45;</text>
<text xml:space="preserve" text-anchor="start" x="21" y="-237.75" font-family="Helvetica,sans-Serif" font-size="10.00">m_runtime</text>
<text xml:space="preserve" text-anchor="start" x="8.62" y="-221" font-family="Helvetica,sans-Serif" font-size="10.00">&#45;</text>
<text xml:space="preserve" text-anchor="start" x="21" y="-221" font-family="Helvetica,sans-Serif" font-size="10.00">m_position_provider</text>
<text xml:space="preserve" text-anchor="start" x="8.62" y="-204.25" font-family="Helvetica,sans-Serif" font-size="10.00">&#45;</text>
<text xml:space="preserve" text-anchor="start" x="21" y="-204.25" font-family="Helvetica,sans-Serif" font-size="10.00">m_certificate_cache</text>
<text xml:space="preserve" text-anchor="start" x="8.62" y="-187.5" font-family="Helvetica,sans-Serif" font-size="10.00">&#45;</text>
<text xml:space="preserve" text-anchor="start" x="21" y="-187.5" font-family="Helvetica,sans-Serif" font-size="10.00">m_location_checker</text>
<text xml:space="preserve" text-anchor="start" x="8.62" y="-170.75" font-family="Helvetica,sans-Serif" font-size="10.00">&#45;</text>
<text xml:space="preserve" text-anchor="start" x="21" y="-170.75" font-family="Helvetica,sans-Serif" font-size="10.00">m_disable_time_checks</text>
<text xml:space="preserve" text-anchor="start" x="8.62" y="-154" font-family="Helvetica,sans-Serif" font-size="10.00">&#45;</text>
<text xml:space="preserve" text-anchor="start" x="21" y="-154" font-family="Helvetica,sans-Serif" font-size="10.00">m_disable_location</text>
<text xml:space="preserve" text-anchor="start" x="21" y="-141.25" font-family="Helvetica,sans-Serif" font-size="10.00">_checks</text>
<text xml:space="preserve" text-anchor="start" x="6.38" y="-124.5" font-family="Helvetica,sans-Serif" font-size="10.00">+</text>
<text xml:space="preserve" text-anchor="start" x="21" y="-124.5" font-family="Helvetica,sans-Serif" font-size="10.00">valid_for_signing()</text>
<text xml:space="preserve" text-anchor="start" x="6.38" y="-107.75" font-family="Helvetica,sans-Serif" font-size="10.00">+</text>
<text xml:space="preserve" text-anchor="start" x="21" y="-107.75" font-family="Helvetica,sans-Serif" font-size="10.00">use_runtime()</text>
<text xml:space="preserve" text-anchor="start" x="6.38" y="-91" font-family="Helvetica,sans-Serif" font-size="10.00">+</text>
<text xml:space="preserve" text-anchor="start" x="21" y="-91" font-family="Helvetica,sans-Serif" font-size="10.00">use_position_provider()</text>
<text xml:space="preserve" text-anchor="start" x="6.38" y="-74.25" font-family="Helvetica,sans-Serif" font-size="10.00">+</text>
<text xml:space="preserve" text-anchor="start" x="21" y="-74.25" font-family="Helvetica,sans-Serif" font-size="10.00">use_certificate_cache()</text>
<text xml:space="preserve" text-anchor="start" x="6.38" y="-57.5" font-family="Helvetica,sans-Serif" font-size="10.00">+</text>
<text xml:space="preserve" text-anchor="start" x="21" y="-57.5" font-family="Helvetica,sans-Serif" font-size="10.00">use_location_checker()</text>
<text xml:space="preserve" text-anchor="start" x="6.38" y="-40.75" font-family="Helvetica,sans-Serif" font-size="10.00">+</text>
<text xml:space="preserve" text-anchor="start" x="21" y="-40.75" font-family="Helvetica,sans-Serif" font-size="10.00">disable_time_checks()</text>
<text xml:space="preserve" text-anchor="start" x="6.38" y="-24" font-family="Helvetica,sans-Serif" font-size="10.00">+</text>
<text xml:space="preserve" text-anchor="start" x="21" y="-24" font-family="Helvetica,sans-Serif" font-size="10.00">disable_location_checks()</text>
<text xml:space="preserve" text-anchor="start" x="8.62" y="-7.25" font-family="Helvetica,sans-Serif" font-size="10.00">&#45;</text>
<text xml:space="preserve" text-anchor="start" x="21" y="-7.25" font-family="Helvetica,sans-Serif" font-size="10.00">find_issuer_certificate()</text>
<polygon fill="#bfbfbf" stroke="#bfbfbf" points="0,-249.25 0,-249.25 155.75,-249.25 155.75,-249.25 0,-249.25"/>
<polygon fill="#bfbfbf" stroke="#bfbfbf" points="0,-136 0,-136 19,-136 19,-136 0,-136"/>
<polygon fill="#bfbfbf" stroke="#bfbfbf" points="19,-136 19,-136 155.75,-136 155.75,-136 19,-136"/>
<polygon fill="none" stroke="#bfbfbf" points="0,0 0,-280.75 155.75,-280.75 155.75,0 0,0"/>
</a>
</g>
</g>
<!-- Node1&#45;&gt;Node2 -->
<g id="edge1_Node000001_Node000002" class="edge">
<title>Node1&#45;&gt;Node2</title>
<g id="a_edge1_Node000001_Node000002"><a xlink:title=" ">
<path fill="none" stroke="#63b8ff" d="M141.18,-306.32C138.08,-298.24 134.75,-289.57 131.3,-280.58"/>
<polygon fill="none" stroke="#63b8ff" points="137.87,-307.46 144.72,-315.54 144.41,-304.95 137.87,-307.46"/>
</a>
</g>
</g>
<!-- Node3 -->
<g id="Node000003" class="node">
<title>Node3</title>
<g id="a_Node000003"><a xlink:href="../../dd/d55/classvanetza_1_1security_1_1v3_1_1NullCertificateValidator.html" target="_top" xlink:title=" ">
<polygon fill="white" stroke="none" points="313.5,-173.88 174.25,-173.88 174.25,-106.88 313.5,-106.88 313.5,-173.88"/>
<text xml:space="preserve" text-anchor="start" x="178.25" y="-160.38" font-family="Helvetica,sans-Serif" font-size="10.00">vanetza::security::</text>
<text xml:space="preserve" text-anchor="start" x="178.25" y="-147.62" font-family="Helvetica,sans-Serif" font-size="10.00">v3::NullCertificateValidator</text>
<text xml:space="preserve" text-anchor="start" x="242.38" y="-130.88" font-family="Helvetica,sans-Serif" font-size="10.00"> </text>
<text xml:space="preserve" text-anchor="start" x="185.31" y="-114.12" font-family="Helvetica,sans-Serif" font-size="10.00">+</text>
<text xml:space="preserve" text-anchor="start" x="204.62" y="-114.12" font-family="Helvetica,sans-Serif" font-size="10.00">valid_for_signing()</text>
<polygon fill="#bfbfbf" stroke="#bfbfbf" points="174.25,-142.38 174.25,-142.38 313.5,-142.38 313.5,-142.38 174.25,-142.38"/>
<polygon fill="#bfbfbf" stroke="#bfbfbf" points="174.25,-125.62 174.25,-125.62 313.5,-125.62 313.5,-125.62 174.25,-125.62"/>
<polygon fill="none" stroke="#bfbfbf" points="174.25,-106.88 174.25,-173.88 313.5,-173.88 313.5,-106.88 174.25,-106.88"/>
</a>
</g>
</g>
<!-- Node1&#45;&gt;Node3 -->
<g id="edge2_Node000001_Node000003" class="edge">
<title>Node1&#45;&gt;Node3</title>
<g id="a_edge2_Node000001_Node000003"><a xlink:title=" ">
<path fill="none" stroke="#63b8ff" d="M180.57,-306.32C196.34,-265.22 217.99,-208.82 231.45,-173.76"/>
<polygon fill="none" stroke="#63b8ff" points="177.34,-304.95 177.03,-315.54 183.88,-307.46 177.34,-304.95"/>
</a>
</g>
</g>
</g>
</svg>
</svg>

<style type='text/css'>
<![CDATA[
[data-mouse-over-selected='false'] { opacity: 0.7; }
[data-mouse-over-selected='true']  { opacity: 1.0; }
]]>
</style>
<script type="application/ecmascript"><![CDATA[
document.addEventListener('DOMContentLoaded', (event) => {
  highlightEdges();
  highlightAdjacentNodes();
});
]]></script>
</svg>
