<?xml version="1.0" encoding="UTF-8" standalone="no"?>
<!DOCTYPE svg PUBLIC "-//W3C//DTD SVG 1.1//EN"
 "http://www.w3.org/Graphics/SVG/1.1/DTD/svg11.dtd">
<!-- Generated by graphviz version 2.42.3 (0)
 -->
<!-- Title: vanetza::security::v3::Integer Pages: 1 -->
<svg width="947pt" height="493pt"
 viewBox="0.00 0.00 946.50 493.00" xmlns="http://www.w3.org/2000/svg" xmlns:xlink="http://www.w3.org/1999/xlink">
<g id="graph0" class="graph" transform="scale(1 1) rotate(0) translate(4 489)">
<title>vanetza::security::v3::Integer</title>
<polygon fill="white" stroke="transparent" points="-4,4 -4,-489 942.5,-489 942.5,4 -4,4"/>
<!-- Node1 -->
<g id="node1" class="node">
<title>Node1</title>
<g id="a_node1"><a xlink:title=" ">
<polygon fill="#bfbfbf" stroke="black" points="370.5,-394.5 370.5,-484.5 466.5,-484.5 466.5,-394.5 370.5,-394.5"/>
<text text-anchor="start" x="378.5" y="-472.5" font-family="Helvetica,sans-Serif" font-size="10.00">vanetza::security::</text>
<text text-anchor="middle" x="418.5" y="-461.5" font-family="Helvetica,sans-Serif" font-size="10.00">v3::Integer</text>
<polyline fill="none" stroke="black" points="370.5,-454.5 466.5,-454.5 "/>
<text text-anchor="start" x="378.5" y="-442.5" font-family="Helvetica,sans-Serif" font-size="10.00">+ Min</text>
<text text-anchor="start" x="378.5" y="-431.5" font-family="Helvetica,sans-Serif" font-size="10.00">+ Max</text>
<polyline fill="none" stroke="black" points="370.5,-424.5 466.5,-424.5 "/>
<text text-anchor="start" x="378.5" y="-412.5" font-family="Helvetica,sans-Serif" font-size="10.00">+ Integer()</text>
<text text-anchor="start" x="378.5" y="-401.5" font-family="Helvetica,sans-Serif" font-size="10.00">+ Integer()</text>
</a>
</g>
</g>
<!-- Node2 -->
<g id="node2" class="node">
<title>Node2</title>
<g id="a_node2"><a xlink:href="../../d3/d3c/structvanetza_1_1security_1_1v3_1_1IntegerFixed.html" target="_top" xlink:title=" ">
<polygon fill="white" stroke="black" points="314.5,-128.5 314.5,-218.5 448.5,-218.5 448.5,-128.5 314.5,-128.5"/>
<text text-anchor="start" x="322.5" y="-206.5" font-family="Helvetica,sans-Serif" font-size="10.00">vanetza::security::</text>
<text text-anchor="middle" x="381.5" y="-195.5" font-family="Helvetica,sans-Serif" font-size="10.00">v3::IntegerFixed&lt; int32_t &gt;</text>
<polyline fill="none" stroke="black" points="314.5,-188.5 448.5,-188.5 "/>
<text text-anchor="start" x="322.5" y="-176.5" font-family="Helvetica,sans-Serif" font-size="10.00">+ value</text>
<polyline fill="none" stroke="black" points="314.5,-169.5 448.5,-169.5 "/>
<text text-anchor="start" x="322.5" y="-157.5" font-family="Helvetica,sans-Serif" font-size="10.00">+ IntegerFixed()</text>
<text text-anchor="start" x="322.5" y="-146.5" font-family="Helvetica,sans-Serif" font-size="10.00">+ IntegerFixed()</text>
<text text-anchor="start" x="322.5" y="-135.5" font-family="Helvetica,sans-Serif" font-size="10.00">+ IntegerFixed()</text>
</a>
</g>
</g>
<!-- Node1&#45;&gt;Node2 -->
<g id="edge1" class="edge">
<title>Node1&#45;&gt;Node2</title>
<path fill="none" stroke="midnightblue" d="M374.3,-386.5C346.96,-350.34 314.96,-299.54 303.5,-248 300.55,-234.74 305.63,-223.07 314.39,-213.15"/>
<polygon fill="none" stroke="midnightblue" points="371.54,-388.66 380.41,-394.45 377.09,-384.39 371.54,-388.66"/>
</g>
<!-- Node5 -->
<g id="node5" class="node">
<title>Node5</title>
<g id="a_node5"><a xlink:href="../../d3/d3c/structvanetza_1_1security_1_1v3_1_1IntegerFixed.html" target="_top" xlink:title=" ">
<polygon fill="white" stroke="black" points="157,-128.5 157,-218.5 296,-218.5 296,-128.5 157,-128.5"/>
<text text-anchor="start" x="165" y="-206.5" font-family="Helvetica,sans-Serif" font-size="10.00">vanetza::security::</text>
<text text-anchor="middle" x="226.5" y="-195.5" font-family="Helvetica,sans-Serif" font-size="10.00">v3::IntegerFixed&lt; uint16_t &gt;</text>
<polyline fill="none" stroke="black" points="157,-188.5 296,-188.5 "/>
<text text-anchor="start" x="165" y="-176.5" font-family="Helvetica,sans-Serif" font-size="10.00">+ value</text>
<polyline fill="none" stroke="black" points="157,-169.5 296,-169.5 "/>
<text text-anchor="start" x="165" y="-157.5" font-family="Helvetica,sans-Serif" font-size="10.00">+ IntegerFixed()</text>
<text text-anchor="start" x="165" y="-146.5" font-family="Helvetica,sans-Serif" font-size="10.00">+ IntegerFixed()</text>
<text text-anchor="start" x="165" y="-135.5" font-family="Helvetica,sans-Serif" font-size="10.00">+ IntegerFixed()</text>
</a>
</g>
</g>
<!-- Node1&#45;&gt;Node5 -->
<g id="edge4" class="edge">
<title>Node1&#45;&gt;Node5</title>
<path fill="none" stroke="midnightblue" d="M361.43,-411.42C304.63,-380.83 221.23,-325.07 187.5,-248 183.27,-238.34 184.63,-228.21 188.72,-218.67"/>
<polygon fill="none" stroke="midnightblue" points="359.82,-414.54 370.3,-416.12 363.1,-408.35 359.82,-414.54"/>
</g>
<!-- Node7 -->
<g id="node7" class="node">
<title>Node7</title>
<g id="a_node7"><a xlink:href="../../d3/d3c/structvanetza_1_1security_1_1v3_1_1IntegerFixed.html" target="_top" xlink:title=" ">
<polygon fill="white" stroke="black" points="0,-128.5 0,-218.5 139,-218.5 139,-128.5 0,-128.5"/>
<text text-anchor="start" x="8" y="-206.5" font-family="Helvetica,sans-Serif" font-size="10.00">vanetza::security::</text>
<text text-anchor="middle" x="69.5" y="-195.5" font-family="Helvetica,sans-Serif" font-size="10.00">v3::IntegerFixed&lt; uint32_t &gt;</text>
<polyline fill="none" stroke="black" points="0,-188.5 139,-188.5 "/>
<text text-anchor="start" x="8" y="-176.5" font-family="Helvetica,sans-Serif" font-size="10.00">+ value</text>
<polyline fill="none" stroke="black" points="0,-169.5 139,-169.5 "/>
<text text-anchor="start" x="8" y="-157.5" font-family="Helvetica,sans-Serif" font-size="10.00">+ IntegerFixed()</text>
<text text-anchor="start" x="8" y="-146.5" font-family="Helvetica,sans-Serif" font-size="10.00">+ IntegerFixed()</text>
<text text-anchor="start" x="8" y="-135.5" font-family="Helvetica,sans-Serif" font-size="10.00">+ IntegerFixed()</text>
</a>
</g>
</g>
<!-- Node1&#45;&gt;Node7 -->
<g id="edge6" class="edge">
<title>Node1&#45;&gt;Node7</title>
<path fill="none" stroke="midnightblue" d="M360.32,-427.89C311.78,-416.74 242.8,-395.32 193.5,-357 146.02,-320.09 110.14,-259.81 89.49,-218.71"/>
<polygon fill="none" stroke="midnightblue" points="359.84,-431.37 370.36,-430.12 361.36,-424.54 359.84,-431.37"/>
</g>
<!-- Node9 -->
<g id="node9" class="node">
<title>Node9</title>
<g id="a_node9"><a xlink:href="../../d3/d3c/structvanetza_1_1security_1_1v3_1_1IntegerFixed.html" target="_top" xlink:title=" ">
<polygon fill="white" stroke="black" points="478,-128.5 478,-218.5 617,-218.5 617,-128.5 478,-128.5"/>
<text text-anchor="start" x="486" y="-206.5" font-family="Helvetica,sans-Serif" font-size="10.00">vanetza::security::</text>
<text text-anchor="middle" x="547.5" y="-195.5" font-family="Helvetica,sans-Serif" font-size="10.00">v3::IntegerFixed&lt; uint64_t &gt;</text>
<polyline fill="none" stroke="black" points="478,-188.5 617,-188.5 "/>
<text text-anchor="start" x="486" y="-176.5" font-family="Helvetica,sans-Serif" font-size="10.00">+ value</text>
<polyline fill="none" stroke="black" points="478,-169.5 617,-169.5 "/>
<text text-anchor="start" x="486" y="-157.5" font-family="Helvetica,sans-Serif" font-size="10.00">+ IntegerFixed()</text>
<text text-anchor="start" x="486" y="-146.5" font-family="Helvetica,sans-Serif" font-size="10.00">+ IntegerFixed()</text>
<text text-anchor="start" x="486" y="-135.5" font-family="Helvetica,sans-Serif" font-size="10.00">+ IntegerFixed()</text>
</a>
</g>
</g>
<!-- Node1&#45;&gt;Node9 -->
<g id="edge8" class="edge">
<title>Node1&#45;&gt;Node9</title>
<path fill="none" stroke="midnightblue" d="M474.41,-394.71C514.09,-359.84 564.14,-307.17 586.5,-248 590.18,-238.27 588.7,-228.2 584.68,-218.75"/>
<polygon fill="none" stroke="midnightblue" points="471.89,-392.26 466.62,-401.45 476.47,-397.56 471.89,-392.26"/>
</g>
<!-- Node11 -->
<g id="node11" class="node">
<title>Node11</title>
<g id="a_node11"><a xlink:href="../../d3/d3c/structvanetza_1_1security_1_1v3_1_1IntegerFixed.html" target="_top" xlink:title=" ">
<polygon fill="white" stroke="black" points="635.5,-128.5 635.5,-218.5 769.5,-218.5 769.5,-128.5 635.5,-128.5"/>
<text text-anchor="start" x="643.5" y="-206.5" font-family="Helvetica,sans-Serif" font-size="10.00">vanetza::security::</text>
<text text-anchor="middle" x="702.5" y="-195.5" font-family="Helvetica,sans-Serif" font-size="10.00">v3::IntegerFixed&lt; uint8_t &gt;</text>
<polyline fill="none" stroke="black" points="635.5,-188.5 769.5,-188.5 "/>
<text text-anchor="start" x="643.5" y="-176.5" font-family="Helvetica,sans-Serif" font-size="10.00">+ value</text>
<polyline fill="none" stroke="black" points="635.5,-169.5 769.5,-169.5 "/>
<text text-anchor="start" x="643.5" y="-157.5" font-family="Helvetica,sans-Serif" font-size="10.00">+ IntegerFixed()</text>
<text text-anchor="start" x="643.5" y="-146.5" font-family="Helvetica,sans-Serif" font-size="10.00">+ IntegerFixed()</text>
<text text-anchor="start" x="643.5" y="-135.5" font-family="Helvetica,sans-Serif" font-size="10.00">+ IntegerFixed()</text>
</a>
</g>
</g>
<!-- Node1&#45;&gt;Node11 -->
<g id="edge10" class="edge">
<title>Node1&#45;&gt;Node11</title>
<path fill="none" stroke="midnightblue" d="M476.28,-418.53C543.84,-391.66 652.3,-336.72 698.5,-248 703.1,-239.16 705.27,-228.88 706.06,-218.87"/>
<polygon fill="none" stroke="midnightblue" points="474.67,-415.4 466.62,-422.29 477.21,-421.92 474.67,-415.4"/>
</g>
<!-- Node14 -->
<g id="node14" class="node">
<title>Node14</title>
<g id="a_node14"><a xlink:href="../../d3/d3c/structvanetza_1_1security_1_1v3_1_1IntegerFixed.html" target="_top" xlink:title=" ">
<polygon fill="white" stroke="black" points="788,-128.5 788,-218.5 935,-218.5 935,-128.5 788,-128.5"/>
<text text-anchor="start" x="796" y="-206.5" font-family="Helvetica,sans-Serif" font-size="10.00">vanetza::security::</text>
<text text-anchor="middle" x="861.5" y="-195.5" font-family="Helvetica,sans-Serif" font-size="10.00">v3::IntegerFixed&lt; uintmax_t &gt;</text>
<polyline fill="none" stroke="black" points="788,-188.5 935,-188.5 "/>
<text text-anchor="start" x="796" y="-176.5" font-family="Helvetica,sans-Serif" font-size="10.00">+ value</text>
<polyline fill="none" stroke="black" points="788,-169.5 935,-169.5 "/>
<text text-anchor="start" x="796" y="-157.5" font-family="Helvetica,sans-Serif" font-size="10.00">+ IntegerFixed()</text>
<text text-anchor="start" x="796" y="-146.5" font-family="Helvetica,sans-Serif" font-size="10.00">+ IntegerFixed()</text>
<text text-anchor="start" x="796" y="-135.5" font-family="Helvetica,sans-Serif" font-size="10.00">+ IntegerFixed()</text>
</a>
</g>
</g>
<!-- Node1&#45;&gt;Node14 -->
<g id="edge13" class="edge">
<title>Node1&#45;&gt;Node14</title>
<path fill="none" stroke="midnightblue" d="M476.6,-425.07C525.87,-412.15 597.28,-389.71 653.5,-357 718.48,-319.19 781.75,-259.4 821.11,-218.64"/>
<polygon fill="none" stroke="midnightblue" points="475.55,-421.72 466.74,-427.61 477.3,-428.5 475.55,-421.72"/>
</g>
<!-- Node16 -->
<g id="node16" class="node">
<title>Node16</title>
<g id="a_node16"><a xlink:href="../../d3/d3c/structvanetza_1_1security_1_1v3_1_1IntegerFixed.html" target="_top" xlink:title=" ">
<polygon fill="white" stroke="black" points="363.5,-266.5 363.5,-356.5 473.5,-356.5 473.5,-266.5 363.5,-266.5"/>
<text text-anchor="start" x="371.5" y="-344.5" font-family="Helvetica,sans-Serif" font-size="10.00">vanetza::security::</text>
<text text-anchor="middle" x="418.5" y="-333.5" font-family="Helvetica,sans-Serif" font-size="10.00">v3::IntegerFixed&lt; T &gt;</text>
<polyline fill="none" stroke="black" points="363.5,-326.5 473.5,-326.5 "/>
<text text-anchor="start" x="371.5" y="-314.5" font-family="Helvetica,sans-Serif" font-size="10.00">+ value</text>
<polyline fill="none" stroke="black" points="363.5,-307.5 473.5,-307.5 "/>
<text text-anchor="start" x="371.5" y="-295.5" font-family="Helvetica,sans-Serif" font-size="10.00">+ IntegerFixed()</text>
<text text-anchor="start" x="371.5" y="-284.5" font-family="Helvetica,sans-Serif" font-size="10.00">+ IntegerFixed()</text>
<text text-anchor="start" x="371.5" y="-273.5" font-family="Helvetica,sans-Serif" font-size="10.00">+ IntegerFixed()</text>
</a>
</g>
</g>
<!-- Node1&#45;&gt;Node16 -->
<g id="edge15" class="edge">
<title>Node1&#45;&gt;Node16</title>
<path fill="none" stroke="midnightblue" d="M418.5,-384.23C418.5,-375.06 418.5,-365.63 418.5,-356.76"/>
<polygon fill="none" stroke="midnightblue" points="415,-384.43 418.5,-394.43 422,-384.43 415,-384.43"/>
</g>
<!-- Node3 -->
<g id="node3" class="node">
<title>Node3</title>
<g id="a_node3"><a xlink:href="../../d1/d1f/structvanetza_1_1security_1_1v3_1_1NinetyDegreeInt.html" target="_top" xlink:title=" ">
<polygon fill="white" stroke="black" points="378.5,-0.5 378.5,-90.5 482.5,-90.5 482.5,-0.5 378.5,-0.5"/>
<text text-anchor="start" x="386.5" y="-78.5" font-family="Helvetica,sans-Serif" font-size="10.00">vanetza::security::</text>
<text text-anchor="middle" x="430.5" y="-67.5" font-family="Helvetica,sans-Serif" font-size="10.00">v3::NinetyDegreeInt</text>
<polyline fill="none" stroke="black" points="378.5,-60.5 482.5,-60.5 "/>
<text text-anchor="start" x="386.5" y="-48.5" font-family="Helvetica,sans-Serif" font-size="10.00">+ min</text>
<text text-anchor="start" x="386.5" y="-37.5" font-family="Helvetica,sans-Serif" font-size="10.00">+ max</text>
<text text-anchor="start" x="386.5" y="-26.5" font-family="Helvetica,sans-Serif" font-size="10.00">+ unknown</text>
<polyline fill="none" stroke="black" points="378.5,-19.5 482.5,-19.5 "/>
<text text-anchor="start" x="386.5" y="-7.5" font-family="Helvetica,sans-Serif" font-size="10.00">+ NinetyDegreeInt()</text>
</a>
</g>
</g>
<!-- Node2&#45;&gt;Node3 -->
<g id="edge2" class="edge">
<title>Node2&#45;&gt;Node3</title>
<path fill="none" stroke="midnightblue" d="M402.38,-118.82C406.02,-109.46 409.76,-99.82 413.29,-90.76"/>
<polygon fill="none" stroke="midnightblue" points="399,-117.84 398.64,-128.43 405.52,-120.38 399,-117.84"/>
</g>
<!-- Node4 -->
<g id="node4" class="node">
<title>Node4</title>
<g id="a_node4"><a xlink:href="../../dc/d21/structvanetza_1_1security_1_1v3_1_1OneEightyDegreeInt.html" target="_top" xlink:title=" ">
<polygon fill="white" stroke="black" points="238.5,-0.5 238.5,-90.5 360.5,-90.5 360.5,-0.5 238.5,-0.5"/>
<text text-anchor="start" x="246.5" y="-78.5" font-family="Helvetica,sans-Serif" font-size="10.00">vanetza::security::</text>
<text text-anchor="middle" x="299.5" y="-67.5" font-family="Helvetica,sans-Serif" font-size="10.00">v3::OneEightyDegreeInt</text>
<polyline fill="none" stroke="black" points="238.5,-60.5 360.5,-60.5 "/>
<text text-anchor="start" x="246.5" y="-48.5" font-family="Helvetica,sans-Serif" font-size="10.00">+ min</text>
<text text-anchor="start" x="246.5" y="-37.5" font-family="Helvetica,sans-Serif" font-size="10.00">+ max</text>
<text text-anchor="start" x="246.5" y="-26.5" font-family="Helvetica,sans-Serif" font-size="10.00">+ unknown</text>
<polyline fill="none" stroke="black" points="238.5,-19.5 360.5,-19.5 "/>
<text text-anchor="start" x="246.5" y="-7.5" font-family="Helvetica,sans-Serif" font-size="10.00">+ OneEightyDegreeInt()</text>
</a>
</g>
</g>
<!-- Node2&#45;&gt;Node4 -->
<g id="edge3" class="edge">
<title>Node2&#45;&gt;Node4</title>
<path fill="none" stroke="midnightblue" d="M347.33,-120C341,-110.27 334.45,-100.21 328.3,-90.76"/>
<polygon fill="none" stroke="midnightblue" points="344.43,-121.96 352.82,-128.43 350.3,-118.14 344.43,-121.96"/>
</g>
<!-- Node6 -->
<g id="node6" class="node">
<title>Node6</title>
<g id="a_node6"><a xlink:href="../../d9/d2c/structvanetza_1_1security_1_1v3_1_1Uint16.html" target="_top" xlink:title=" ">
<polygon fill="white" stroke="black" points="124.5,-11.5 124.5,-79.5 220.5,-79.5 220.5,-11.5 124.5,-11.5"/>
<text text-anchor="start" x="132.5" y="-67.5" font-family="Helvetica,sans-Serif" font-size="10.00">vanetza::security::</text>
<text text-anchor="middle" x="172.5" y="-56.5" font-family="Helvetica,sans-Serif" font-size="10.00">v3::Uint16</text>
<polyline fill="none" stroke="black" points="124.5,-49.5 220.5,-49.5 "/>
<text text-anchor="middle" x="172.5" y="-37.5" font-family="Helvetica,sans-Serif" font-size="10.00"> </text>
<polyline fill="none" stroke="black" points="124.5,-30.5 220.5,-30.5 "/>
<text text-anchor="start" x="132.5" y="-18.5" font-family="Helvetica,sans-Serif" font-size="10.00">+ Uint16()</text>
</a>
</g>
</g>
<!-- Node5&#45;&gt;Node6 -->
<g id="edge5" class="edge">
<title>Node5&#45;&gt;Node6</title>
<path fill="none" stroke="midnightblue" d="M203.51,-118.86C197.8,-105.53 191.84,-91.63 186.69,-79.62"/>
<polygon fill="none" stroke="midnightblue" points="200.46,-120.62 207.61,-128.43 206.89,-117.86 200.46,-120.62"/>
</g>
<!-- Node8 -->
<g id="node8" class="node">
<title>Node8</title>
<g id="a_node8"><a xlink:href="../../d4/d50/structvanetza_1_1security_1_1v3_1_1Uint32.html" target="_top" xlink:title=" ">
<polygon fill="white" stroke="black" points="10.5,-11.5 10.5,-79.5 106.5,-79.5 106.5,-11.5 10.5,-11.5"/>
<text text-anchor="start" x="18.5" y="-67.5" font-family="Helvetica,sans-Serif" font-size="10.00">vanetza::security::</text>
<text text-anchor="middle" x="58.5" y="-56.5" font-family="Helvetica,sans-Serif" font-size="10.00">v3::Uint32</text>
<polyline fill="none" stroke="black" points="10.5,-49.5 106.5,-49.5 "/>
<text text-anchor="middle" x="58.5" y="-37.5" font-family="Helvetica,sans-Serif" font-size="10.00"> </text>
<polyline fill="none" stroke="black" points="10.5,-30.5 106.5,-30.5 "/>
<text text-anchor="start" x="18.5" y="-18.5" font-family="Helvetica,sans-Serif" font-size="10.00">+ Uint32()</text>
</a>
</g>
</g>
<!-- Node7&#45;&gt;Node8 -->
<g id="edge7" class="edge">
<title>Node7&#45;&gt;Node8</title>
<path fill="none" stroke="midnightblue" d="M64.75,-118.09C63.61,-105 62.42,-91.4 61.39,-79.62"/>
<polygon fill="none" stroke="midnightblue" points="61.3,-118.77 65.65,-128.43 68.27,-118.16 61.3,-118.77"/>
</g>
<!-- Node10 -->
<g id="node10" class="node">
<title>Node10</title>
<g id="a_node10"><a xlink:href="../../d1/d4a/structvanetza_1_1security_1_1v3_1_1Uint64.html" target="_top" xlink:title=" ">
<polygon fill="white" stroke="black" points="500.5,-11.5 500.5,-79.5 596.5,-79.5 596.5,-11.5 500.5,-11.5"/>
<text text-anchor="start" x="508.5" y="-67.5" font-family="Helvetica,sans-Serif" font-size="10.00">vanetza::security::</text>
<text text-anchor="middle" x="548.5" y="-56.5" font-family="Helvetica,sans-Serif" font-size="10.00">v3::Uint64</text>
<polyline fill="none" stroke="black" points="500.5,-49.5 596.5,-49.5 "/>
<text text-anchor="middle" x="548.5" y="-37.5" font-family="Helvetica,sans-Serif" font-size="10.00"> </text>
<polyline fill="none" stroke="black" points="500.5,-30.5 596.5,-30.5 "/>
<text text-anchor="start" x="508.5" y="-18.5" font-family="Helvetica,sans-Serif" font-size="10.00">+ Uint64()</text>
</a>
</g>
</g>
<!-- Node9&#45;&gt;Node10 -->
<g id="edge9" class="edge">
<title>Node9&#45;&gt;Node10</title>
<path fill="none" stroke="midnightblue" d="M547.93,-118.09C548.04,-105 548.14,-91.4 548.24,-79.62"/>
<polygon fill="none" stroke="midnightblue" points="544.43,-118.4 547.85,-128.43 551.43,-118.46 544.43,-118.4"/>
</g>
<!-- Node12 -->
<g id="node12" class="node">
<title>Node12</title>
<g id="a_node12"><a xlink:href="../../d3/da9/structvanetza_1_1security_1_1v3_1_1Uint3.html" target="_top" xlink:title=" ">
<polygon fill="white" stroke="black" points="614.5,-11.5 614.5,-79.5 710.5,-79.5 710.5,-11.5 614.5,-11.5"/>
<text text-anchor="start" x="622.5" y="-67.5" font-family="Helvetica,sans-Serif" font-size="10.00">vanetza::security::</text>
<text text-anchor="middle" x="662.5" y="-56.5" font-family="Helvetica,sans-Serif" font-size="10.00">v3::Uint3</text>
<polyline fill="none" stroke="black" points="614.5,-49.5 710.5,-49.5 "/>
<text text-anchor="middle" x="662.5" y="-37.5" font-family="Helvetica,sans-Serif" font-size="10.00"> </text>
<polyline fill="none" stroke="black" points="614.5,-30.5 710.5,-30.5 "/>
<text text-anchor="start" x="622.5" y="-18.5" font-family="Helvetica,sans-Serif" font-size="10.00">+ Uint3()</text>
</a>
</g>
</g>
<!-- Node11&#45;&gt;Node12 -->
<g id="edge11" class="edge">
<title>Node11&#45;&gt;Node12</title>
<path fill="none" stroke="midnightblue" d="M685.47,-118.86C681.24,-105.53 676.83,-91.63 673.01,-79.62"/>
<polygon fill="none" stroke="midnightblue" points="682.15,-119.96 688.51,-128.43 688.82,-117.84 682.15,-119.96"/>
</g>
<!-- Node13 -->
<g id="node13" class="node">
<title>Node13</title>
<g id="a_node13"><a xlink:href="../../d5/d61/structvanetza_1_1security_1_1v3_1_1Uint8.html" target="_top" xlink:title=" ">
<polygon fill="white" stroke="black" points="728.5,-11.5 728.5,-79.5 824.5,-79.5 824.5,-11.5 728.5,-11.5"/>
<text text-anchor="start" x="736.5" y="-67.5" font-family="Helvetica,sans-Serif" font-size="10.00">vanetza::security::</text>
<text text-anchor="middle" x="776.5" y="-56.5" font-family="Helvetica,sans-Serif" font-size="10.00">v3::Uint8</text>
<polyline fill="none" stroke="black" points="728.5,-49.5 824.5,-49.5 "/>
<text text-anchor="middle" x="776.5" y="-37.5" font-family="Helvetica,sans-Serif" font-size="10.00"> </text>
<polyline fill="none" stroke="black" points="728.5,-30.5 824.5,-30.5 "/>
<text text-anchor="start" x="736.5" y="-18.5" font-family="Helvetica,sans-Serif" font-size="10.00">+ Uint8()</text>
</a>
</g>
</g>
<!-- Node11&#45;&gt;Node13 -->
<g id="edge12" class="edge">
<title>Node11&#45;&gt;Node13</title>
<path fill="none" stroke="midnightblue" d="M733.55,-119.64C741.51,-106.07 749.86,-91.87 757.05,-79.62"/>
<polygon fill="none" stroke="midnightblue" points="730.43,-118.04 728.38,-128.43 736.46,-121.58 730.43,-118.04"/>
</g>
<!-- Node15 -->
<g id="node15" class="node">
<title>Node15</title>
<g id="a_node15"><a xlink:href="../../dd/ddf/structvanetza_1_1security_1_1v3_1_1Psid.html" target="_top" xlink:title=" ">
<polygon fill="white" stroke="black" points="842.5,-11.5 842.5,-79.5 938.5,-79.5 938.5,-11.5 842.5,-11.5"/>
<text text-anchor="start" x="850.5" y="-67.5" font-family="Helvetica,sans-Serif" font-size="10.00">vanetza::security::</text>
<text text-anchor="middle" x="890.5" y="-56.5" font-family="Helvetica,sans-Serif" font-size="10.00">v3::Psid</text>
<polyline fill="none" stroke="black" points="842.5,-49.5 938.5,-49.5 "/>
<text text-anchor="middle" x="890.5" y="-37.5" font-family="Helvetica,sans-Serif" font-size="10.00"> </text>
<polyline fill="none" stroke="black" points="842.5,-30.5 938.5,-30.5 "/>
<text text-anchor="start" x="850.5" y="-18.5" font-family="Helvetica,sans-Serif" font-size="10.00">+ Psid()</text>
</a>
</g>
</g>
<!-- Node14&#45;&gt;Node15 -->
<g id="edge14" class="edge">
<title>Node14&#45;&gt;Node15</title>
<path fill="none" stroke="midnightblue" d="M873.93,-118.47C876.97,-105.26 880.14,-91.52 882.88,-79.62"/>
<polygon fill="none" stroke="midnightblue" points="870.47,-117.9 871.64,-128.43 877.3,-119.47 870.47,-117.9"/>
</g>
<!-- Node16&#45;&gt;Node2 -->
<g id="edge19" class="edge">
<title>Node16&#45;&gt;Node2</title>
<path fill="none" stroke="orange" d="M385.45,-256.94C384.32,-253.97 383.32,-250.98 382.5,-248 379.93,-238.65 378.8,-228.37 378.48,-218.54"/>
<polygon fill="orange" stroke="orange" points="382.31,-258.49 389.47,-266.3 388.74,-255.73 382.31,-258.49"/>
<text text-anchor="middle" x="408" y="-240" font-family="Helvetica,sans-Serif" font-size="10.00"> &lt; int32_t &gt;</text>
</g>
<!-- Node16&#45;&gt;Node5 -->
<g id="edge20" class="edge">
<title>Node16&#45;&gt;Node5</title>
<path fill="none" stroke="orange" d="M354.72,-271.08C343.2,-263.6 331.4,-255.71 320.5,-248 307.48,-238.79 293.78,-228.47 281,-218.54"/>
<polygon fill="orange" stroke="orange" points="353.16,-274.23 363.46,-276.7 356.94,-268.35 353.16,-274.23"/>
<text text-anchor="middle" x="348.5" y="-240" font-family="Helvetica,sans-Serif" font-size="10.00"> &lt; uint16_t &gt;</text>
</g>
<!-- Node16&#45;&gt;Node7 -->
<g id="edge16" class="edge">
<title>Node16&#45;&gt;Node7</title>
<path fill="none" stroke="orange" d="M353.58,-292.43C297.83,-276.01 215.88,-249.7 147.5,-219 144.8,-217.79 142.07,-216.51 139.33,-215.18"/>
<polygon fill="orange" stroke="orange" points="352.75,-295.83 363.33,-295.28 354.72,-289.11 352.75,-295.83"/>
<text text-anchor="middle" x="241.5" y="-240" font-family="Helvetica,sans-Serif" font-size="10.00"> &lt; uint32_t &gt;</text>
</g>
<!-- Node16&#45;&gt;Node9 -->
<g id="edge21" class="edge">
<title>Node16&#45;&gt;Node9</title>
<path fill="none" stroke="orange" d="M442.04,-257.15C446.32,-250 451.15,-243.06 456.5,-237 462.84,-229.81 470.18,-223.05 477.88,-216.82"/>
<polygon fill="orange" stroke="orange" points="438.76,-255.83 436.9,-266.26 444.86,-259.27 438.76,-255.83"/>
<text text-anchor="middle" x="484.5" y="-240" font-family="Helvetica,sans-Serif" font-size="10.00"> &lt; uint64_t &gt;</text>
</g>
<!-- Node16&#45;&gt;Node11 -->
<g id="edge18" class="edge">
<title>Node16&#45;&gt;Node11</title>
<path fill="none" stroke="orange" d="M482.53,-273.7C506.48,-260.92 534.24,-247.24 560.5,-237 588.83,-225.95 598.47,-230.78 626.5,-219 629.46,-217.76 632.45,-216.42 635.43,-215"/>
<polygon fill="orange" stroke="orange" points="480.69,-270.72 473.55,-278.54 484.01,-276.88 480.69,-270.72"/>
<text text-anchor="middle" x="586" y="-240" font-family="Helvetica,sans-Serif" font-size="10.00"> &lt; uint8_t &gt;</text>
</g>
<!-- Node16&#45;&gt;Node14 -->
<g id="edge17" class="edge">
<title>Node16&#45;&gt;Node14</title>
<path fill="none" stroke="orange" d="M483.77,-298.88C557.05,-284.71 678.75,-257.75 778.5,-219 781.55,-217.82 784.63,-216.55 787.71,-215.21"/>
<polygon fill="orange" stroke="orange" points="482.93,-295.48 473.76,-300.8 484.24,-302.36 482.93,-295.48"/>
<text text-anchor="middle" x="752.5" y="-240" font-family="Helvetica,sans-Serif" font-size="10.00"> &lt; uintmax_t &gt;</text>
</g>
</g>
</svg>
