<?xml version="1.0" encoding="UTF-8" standalone="no"?>
<!DOCTYPE svg PUBLIC "-//W3C//DTD SVG 1.1//EN"
 "http://www.w3.org/Graphics/SVG/1.1/DTD/svg11.dtd">
<!-- Generated by graphviz version 14.1.2 (0)
 -->
<!-- Title: vanetza::security::v3::NaiveCertificateProvider Pages: 1 -->
<svg width="158pt" height="608pt"
 viewBox="0.00 0.00 158.00 608.00" xmlns="http://www.w3.org/2000/svg" xmlns:xlink="http://www.w3.org/1999/xlink">
<g id="graph0" class="graph" transform="scale(1 1) rotate(0) translate(4 604)">
<title>vanetza::security::v3::NaiveCertificateProvider</title>
<!-- Node1 -->
<g id="Node000001" class="node">
<title>Node1</title>
<g id="a_Node000001"><a xlink:title="A very simplistic certificate provider.">
<polygon fill="#999999" stroke="none" points="150,-310.25 0,-310.25 0,0 150,0 150,-310.25"/>
<text xml:space="preserve" text-anchor="start" x="6.38" y="-296.75" font-family="Helvetica,sans-Serif" font-size="10.00">vanetza::security::</text>
<text xml:space="preserve" text-anchor="start" x="6.38" y="-284" font-family="Helvetica,sans-Serif" font-size="10.00">v3::NaiveCertificateProvider</text>
<text xml:space="preserve" text-anchor="start" x="6.25" y="-267.25" font-family="Helvetica,sans-Serif" font-size="10.00">&#45;</text>
<text xml:space="preserve" text-anchor="start" x="16.25" y="-267.25" font-family="Helvetica,sans-Serif" font-size="10.00">m_crypto_backend</text>
<text xml:space="preserve" text-anchor="start" x="6.25" y="-250.5" font-family="Helvetica,sans-Serif" font-size="10.00">&#45;</text>
<text xml:space="preserve" text-anchor="start" x="16.25" y="-250.5" font-family="Helvetica,sans-Serif" font-size="10.00">m_runtime</text>
<text xml:space="preserve" text-anchor="start" x="6.25" y="-233.75" font-family="Helvetica,sans-Serif" font-size="10.00">&#45;</text>
<text xml:space="preserve" text-anchor="start" x="16.25" y="-233.75" font-family="Helvetica,sans-Serif" font-size="10.00">m_own_key_pair</text>
<text xml:space="preserve" text-anchor="start" x="6.25" y="-217" font-family="Helvetica,sans-Serif" font-size="10.00">&#45;</text>
<text xml:space="preserve" text-anchor="start" x="16.25" y="-217" font-family="Helvetica,sans-Serif" font-size="10.00">m_own_certificate</text>
<text xml:space="preserve" text-anchor="start" x="4" y="-200.25" font-family="Helvetica,sans-Serif" font-size="10.00">+</text>
<text xml:space="preserve" text-anchor="start" x="16.25" y="-200.25" font-family="Helvetica,sans-Serif" font-size="10.00">NaiveCertificateProvider()</text>
<text xml:space="preserve" text-anchor="start" x="4" y="-183.5" font-family="Helvetica,sans-Serif" font-size="10.00">+</text>
<text xml:space="preserve" text-anchor="start" x="16.25" y="-183.5" font-family="Helvetica,sans-Serif" font-size="10.00">own_certificate()</text>
<text xml:space="preserve" text-anchor="start" x="4" y="-166.75" font-family="Helvetica,sans-Serif" font-size="10.00">+</text>
<text xml:space="preserve" text-anchor="start" x="16.25" y="-166.75" font-family="Helvetica,sans-Serif" font-size="10.00">own_private_key()</text>
<text xml:space="preserve" text-anchor="start" x="4" y="-150" font-family="Helvetica,sans-Serif" font-size="10.00">+</text>
<text xml:space="preserve" text-anchor="start" x="16.25" y="-150" font-family="Helvetica,sans-Serif" font-size="10.00">aa_certificate()</text>
<text xml:space="preserve" text-anchor="start" x="4" y="-133.25" font-family="Helvetica,sans-Serif" font-size="10.00">+</text>
<text xml:space="preserve" text-anchor="start" x="16.25" y="-133.25" font-family="Helvetica,sans-Serif" font-size="10.00">root_certificate()</text>
<text xml:space="preserve" text-anchor="start" x="4" y="-116.5" font-family="Helvetica,sans-Serif" font-size="10.00">+</text>
<text xml:space="preserve" text-anchor="start" x="16.25" y="-116.5" font-family="Helvetica,sans-Serif" font-size="10.00">generate_authorization</text>
<text xml:space="preserve" text-anchor="start" x="16.25" y="-103.75" font-family="Helvetica,sans-Serif" font-size="10.00">_ticket()</text>
<text xml:space="preserve" text-anchor="start" x="4" y="-87" font-family="Helvetica,sans-Serif" font-size="10.00">+</text>
<text xml:space="preserve" text-anchor="start" x="16.25" y="-87" font-family="Helvetica,sans-Serif" font-size="10.00">sign_authorization</text>
<text xml:space="preserve" text-anchor="start" x="16.25" y="-74.25" font-family="Helvetica,sans-Serif" font-size="10.00">_ticket()</text>
<text xml:space="preserve" text-anchor="start" x="6.25" y="-57.5" font-family="Helvetica,sans-Serif" font-size="10.00">&#45;</text>
<text xml:space="preserve" text-anchor="start" x="16.25" y="-57.5" font-family="Helvetica,sans-Serif" font-size="10.00">aa_key_pair()</text>
<text xml:space="preserve" text-anchor="start" x="6.25" y="-40.75" font-family="Helvetica,sans-Serif" font-size="10.00">&#45;</text>
<text xml:space="preserve" text-anchor="start" x="16.25" y="-40.75" font-family="Helvetica,sans-Serif" font-size="10.00">root_key_pair()</text>
<text xml:space="preserve" text-anchor="start" x="6.25" y="-24" font-family="Helvetica,sans-Serif" font-size="10.00">&#45;</text>
<text xml:space="preserve" text-anchor="start" x="16.25" y="-24" font-family="Helvetica,sans-Serif" font-size="10.00">generate_aa_certificate()</text>
<text xml:space="preserve" text-anchor="start" x="6.25" y="-7.25" font-family="Helvetica,sans-Serif" font-size="10.00">&#45;</text>
<text xml:space="preserve" text-anchor="start" x="16.25" y="-7.25" font-family="Helvetica,sans-Serif" font-size="10.00">generate_root_certificate()</text>
<polygon fill="#666666" stroke="#666666" points="0,-278.75 0,-278.75 150,-278.75 150,-278.75 0,-278.75"/>
<polygon fill="#666666" stroke="#666666" points="0,-211.75 0,-211.75 14.25,-211.75 14.25,-211.75 0,-211.75"/>
<polygon fill="#666666" stroke="#666666" points="14.25,-211.75 14.25,-211.75 150,-211.75 150,-211.75 14.25,-211.75"/>
<polygon fill="none" stroke="#666666" points="0,0 0,-310.25 150,-310.25 150,0 0,0"/>
</a>
</g>
</g>
<!-- Node2 -->
<g id="Node000002" class="node">
<title>Node2</title>
<g id="a_Node000002"><a xlink:href="../../d3/dd7/classvanetza_1_1security_1_1v3_1_1BaseCertificateProvider.html" target="_top" xlink:title=" ">
<polygon fill="white" stroke="none" points="145.38,-430 4.62,-430 4.62,-346.25 145.38,-346.25 145.38,-430"/>
<text xml:space="preserve" text-anchor="start" x="8.62" y="-416.5" font-family="Helvetica,sans-Serif" font-size="10.00">vanetza::security::</text>
<text xml:space="preserve" text-anchor="start" x="8.62" y="-403.75" font-family="Helvetica,sans-Serif" font-size="10.00">v3::BaseCertificateProvider</text>
<text xml:space="preserve" text-anchor="start" x="30.12" y="-387" font-family="Helvetica,sans-Serif" font-size="10.00">&#45;</text>
<text xml:space="preserve" text-anchor="start" x="59.38" y="-387" font-family="Helvetica,sans-Serif" font-size="10.00">m_cache</text>
<text xml:space="preserve" text-anchor="start" x="27.88" y="-370.25" font-family="Helvetica,sans-Serif" font-size="10.00">+</text>
<text xml:space="preserve" text-anchor="start" x="59.38" y="-370.25" font-family="Helvetica,sans-Serif" font-size="10.00">cache()</text>
<text xml:space="preserve" text-anchor="start" x="27.88" y="-353.5" font-family="Helvetica,sans-Serif" font-size="10.00">+</text>
<text xml:space="preserve" text-anchor="start" x="59.38" y="-353.5" font-family="Helvetica,sans-Serif" font-size="10.00">cache()</text>
<polygon fill="#bfbfbf" stroke="#bfbfbf" points="4.62,-398.5 4.62,-398.5 145.38,-398.5 145.38,-398.5 4.62,-398.5"/>
<polygon fill="#bfbfbf" stroke="#bfbfbf" points="4.62,-381.75 4.62,-381.75 57.38,-381.75 57.38,-381.75 4.62,-381.75"/>
<polygon fill="#bfbfbf" stroke="#bfbfbf" points="57.38,-381.75 57.38,-381.75 145.38,-381.75 145.38,-381.75 57.38,-381.75"/>
<polygon fill="none" stroke="#bfbfbf" points="4.62,-346.25 4.62,-430 145.38,-430 145.38,-346.25 4.62,-346.25"/>
</a>
</g>
</g>
<!-- Node2&#45;&gt;Node1 -->
<g id="edge1_Node000001_Node000002" class="edge">
<title>Node2&#45;&gt;Node1</title>
<g id="a_edge1_Node000001_Node000002"><a xlink:title=" ">
<path fill="none" stroke="#63b8ff" d="M75,-334.9C75,-327.04 75,-318.62 75,-309.87"/>
<polygon fill="none" stroke="#63b8ff" points="71.5,-334.85 75,-344.85 78.5,-334.85 71.5,-334.85"/>
</a>
</g>
</g>
<!-- Node3 -->
<g id="Node000003" class="node">
<title>Node3</title>
<g id="a_Node000003"><a xlink:href="../../d7/d65/classvanetza_1_1security_1_1v3_1_1CertificateProvider.html" target="_top" xlink:title=" ">
<polygon fill="white" stroke="none" points="138.38,-600 11.62,-600 11.62,-466 138.38,-466 138.38,-600"/>
<text xml:space="preserve" text-anchor="start" x="20.62" y="-586.5" font-family="Helvetica,sans-Serif" font-size="10.00">vanetza::security::</text>
<text xml:space="preserve" text-anchor="start" x="20.62" y="-573.75" font-family="Helvetica,sans-Serif" font-size="10.00">v3::CertificateProvider</text>
<text xml:space="preserve" text-anchor="start" x="73.5" y="-557" font-family="Helvetica,sans-Serif" font-size="10.00"> </text>
<text xml:space="preserve" text-anchor="start" x="15.62" y="-540.25" font-family="Helvetica,sans-Serif" font-size="10.00">+</text>
<text xml:space="preserve" text-anchor="start" x="27.88" y="-540.25" font-family="Helvetica,sans-Serif" font-size="10.00">own_certificate()</text>
<text xml:space="preserve" text-anchor="start" x="15.62" y="-523.5" font-family="Helvetica,sans-Serif" font-size="10.00">+</text>
<text xml:space="preserve" text-anchor="start" x="27.88" y="-523.5" font-family="Helvetica,sans-Serif" font-size="10.00">own_private_key()</text>
<text xml:space="preserve" text-anchor="start" x="15.62" y="-506.75" font-family="Helvetica,sans-Serif" font-size="10.00">+</text>
<text xml:space="preserve" text-anchor="start" x="27.88" y="-506.75" font-family="Helvetica,sans-Serif" font-size="10.00">cache()</text>
<text xml:space="preserve" text-anchor="start" x="15.62" y="-490" font-family="Helvetica,sans-Serif" font-size="10.00">+</text>
<text xml:space="preserve" text-anchor="start" x="27.88" y="-490" font-family="Helvetica,sans-Serif" font-size="10.00">cache()</text>
<text xml:space="preserve" text-anchor="start" x="15.62" y="-473.25" font-family="Helvetica,sans-Serif" font-size="10.00">+</text>
<text xml:space="preserve" text-anchor="start" x="27.88" y="-473.25" font-family="Helvetica,sans-Serif" font-size="10.00">~CertificateProvider()</text>
<polygon fill="#bfbfbf" stroke="#bfbfbf" points="11.62,-568.5 11.62,-568.5 138.38,-568.5 138.38,-568.5 11.62,-568.5"/>
<polygon fill="#bfbfbf" stroke="#bfbfbf" points="11.62,-551.75 11.62,-551.75 138.38,-551.75 138.38,-551.75 11.62,-551.75"/>
<polygon fill="none" stroke="#bfbfbf" points="11.62,-466 11.62,-600 138.38,-600 138.38,-466 11.62,-466"/>
</a>
</g>
</g>
<!-- Node3&#45;&gt;Node2 -->
<g id="edge2_Node000002_Node000003" class="edge">
<title>Node3&#45;&gt;Node2</title>
<g id="a_edge2_Node000002_Node000003"><a xlink:title=" ">
<path fill="none" stroke="#63b8ff" d="M75,-454.99C75,-446.32 75,-437.76 75,-429.82"/>
<polygon fill="none" stroke="#63b8ff" points="71.5,-454.9 75,-464.9 78.5,-454.9 71.5,-454.9"/>
</a>
</g>
</g>
</g>
</svg>
