<?xml version="1.0" encoding="UTF-8" standalone="no"?>
<!DOCTYPE svg PUBLIC "-//W3C//DTD SVG 1.1//EN"
 "http://www.w3.org/Graphics/SVG/1.1/DTD/svg11.dtd">
<!-- Generated by graphviz version 14.1.2 (0)
 -->
<!-- Title: vanetza::security::openssl::Group Pages: 1 -->
<svg width="142pt" height="199pt"
 viewBox="0.00 0.00 142.00 199.00" xmlns="http://www.w3.org/2000/svg" xmlns:xlink="http://www.w3.org/1999/xlink">

<svg id="main" version="1.1" xmlns="http://www.w3.org/2000/svg" xmlns:xlink="http://www.w3.org/1999/xlink" xml:space="preserve">

<style type="text/css"><![CDATA[
.node, .edge {opacity: 0.7;}
.node.selected, .edge.selected {opacity: 1;}
.edge:hover path { stroke: red; }
.edge:hover polygon { stroke: red; fill: red; }
]]></style>
<script type="application/ecmascript" xlink:href="../../svg.min.js"/>
<svg id="graph" class="graph">
<g id="graph0" class="graph" transform="scale(1 1) rotate(0) translate(4 194.75)">
<title>vanetza::security::openssl::Group</title>
<!-- Node1 -->
<g id="Node000001" class="node">
<title>Node1</title>
<g id="a_Node000001"><a xlink:title=" ">
<polygon fill="#999999" stroke="none" points="133.5,-100.5 0,-100.5 0,0 133.5,0 133.5,-100.5"/>
<text xml:space="preserve" text-anchor="start" x="22.12" y="-87" font-family="Helvetica,sans-Serif" font-size="10.00">vanetza::security::</text>
<text xml:space="preserve" text-anchor="start" x="30.38" y="-74.25" font-family="Helvetica,sans-Serif" font-size="10.00">openssl::Group</text>
<text xml:space="preserve" text-anchor="start" x="6.25" y="-57.5" font-family="Helvetica,sans-Serif" font-size="10.00">&#45;</text>
<text xml:space="preserve" text-anchor="start" x="16.25" y="-57.5" font-family="Helvetica,sans-Serif" font-size="10.00">group</text>
<text xml:space="preserve" text-anchor="start" x="4" y="-40.75" font-family="Helvetica,sans-Serif" font-size="10.00">+</text>
<text xml:space="preserve" text-anchor="start" x="16.25" y="-40.75" font-family="Helvetica,sans-Serif" font-size="10.00">Group()</text>
<text xml:space="preserve" text-anchor="start" x="4" y="-24" font-family="Helvetica,sans-Serif" font-size="10.00">+</text>
<text xml:space="preserve" text-anchor="start" x="16.25" y="-24" font-family="Helvetica,sans-Serif" font-size="10.00">~Group()</text>
<text xml:space="preserve" text-anchor="start" x="4" y="-7.25" font-family="Helvetica,sans-Serif" font-size="10.00">+</text>
<text xml:space="preserve" text-anchor="start" x="16.25" y="-7.25" font-family="Helvetica,sans-Serif" font-size="10.00">operator EC_GROUP *()</text>
<polygon fill="#666666" stroke="#666666" points="0,-69 0,-69 133.5,-69 133.5,-69 0,-69"/>
<polygon fill="#666666" stroke="#666666" points="0,-52.25 0,-52.25 14.25,-52.25 14.25,-52.25 0,-52.25"/>
<polygon fill="#666666" stroke="#666666" points="14.25,-52.25 14.25,-52.25 133.5,-52.25 133.5,-52.25 14.25,-52.25"/>
<polygon fill="none" stroke="#666666" points="0,0 0,-100.5 133.5,-100.5 133.5,0 0,0"/>
</a>
</g>
</g>
<!-- Node2 -->
<g id="Node000002" class="node">
<title>Node2</title>
<g id="a_Node000002"><a xlink:title=" ">
<polygon fill="white" stroke="none" points="118.38,-190.75 15.12,-190.75 15.12,-136.5 118.38,-136.5 118.38,-190.75"/>
<text xml:space="preserve" text-anchor="start" x="19.12" y="-177.25" font-family="Helvetica,sans-Serif" font-size="10.00">boost::noncopyable</text>
<text xml:space="preserve" text-anchor="start" x="65.25" y="-160.5" font-family="Helvetica,sans-Serif" font-size="10.00"> </text>
<text xml:space="preserve" text-anchor="start" x="65.25" y="-143.75" font-family="Helvetica,sans-Serif" font-size="10.00"> </text>
<polygon fill="#bfbfbf" stroke="#bfbfbf" points="15.12,-172 15.12,-172 118.38,-172 118.38,-172 15.12,-172"/>
<polygon fill="#bfbfbf" stroke="#bfbfbf" points="15.12,-155.25 15.12,-155.25 118.38,-155.25 118.38,-155.25 15.12,-155.25"/>
<polygon fill="none" stroke="#bfbfbf" points="15.12,-136.5 15.12,-190.75 118.38,-190.75 118.38,-136.5 15.12,-136.5"/>
</a>
</g>
</g>
<!-- Node2&#45;&gt;Node1 -->
<g id="edge1_Node000001_Node000002" class="edge">
<title>Node2&#45;&gt;Node1</title>
<g id="a_edge1_Node000001_Node000002"><a xlink:title=" ">
<path fill="none" stroke="#8b1a1a" d="M66.75,-125.01C66.75,-117.1 66.75,-108.64 66.75,-100.37"/>
<polygon fill="none" stroke="#8b1a1a" points="63.25,-125 66.75,-135 70.25,-125 63.25,-125"/>
</a>
</g>
</g>
</g>
</svg>
</svg>

<style type='text/css'>
<![CDATA[
[data-mouse-over-selected='false'] { opacity: 0.7; }
[data-mouse-over-selected='true']  { opacity: 1.0; }
]]>
</style>
<script type="application/ecmascript"><![CDATA[
document.addEventListener('DOMContentLoaded', (event) => {
  highlightEdges();
  highlightAdjacentNodes();
});
]]></script>
</svg>
