<?xml version="1.0" encoding="UTF-8" standalone="no"?>
<!DOCTYPE svg PUBLIC "-//W3C//DTD SVG 1.1//EN"
 "http://www.w3.org/Graphics/SVG/1.1/DTD/svg11.dtd">
<!-- Generated by graphviz version 14.1.2 (0)
 -->
<!-- Title: vanetza::geonet::IndicationContextSecured Pages: 1 -->
<svg width="318pt" height="612pt"
 viewBox="0.00 0.00 318.00 612.00" xmlns="http://www.w3.org/2000/svg" xmlns:xlink="http://www.w3.org/1999/xlink">
<g id="graph0" class="graph" transform="scale(1 1) rotate(0) translate(4 608)">
<title>vanetza::geonet::IndicationContextSecured</title>
<!-- Node1 -->
<g id="Node000001" class="node">
<title>Node1</title>
<g id="a_Node000001"><a xlink:title=" ">
<polygon fill="#999999" stroke="none" points="231.25,-350.25 78.25,-350.25 78.25,-182.75 231.25,-182.75 231.25,-350.25"/>
<text xml:space="preserve" text-anchor="start" x="88.38" y="-336.75" font-family="Helvetica,sans-Serif" font-size="10.00">vanetza::geonet::Indication</text>
<text xml:space="preserve" text-anchor="start" x="116.12" y="-324" font-family="Helvetica,sans-Serif" font-size="10.00">ContextSecured</text>
<text xml:space="preserve" text-anchor="start" x="82.25" y="-307.25" font-family="Helvetica,sans-Serif" font-size="10.00">#</text>
<text xml:space="preserve" text-anchor="start" x="94.5" y="-307.25" font-family="Helvetica,sans-Serif" font-size="10.00">m_parent</text>
<text xml:space="preserve" text-anchor="start" x="82.25" y="-290.5" font-family="Helvetica,sans-Serif" font-size="10.00">+</text>
<text xml:space="preserve" text-anchor="start" x="94.5" y="-290.5" font-family="Helvetica,sans-Serif" font-size="10.00">IndicationContextSecured()</text>
<text xml:space="preserve" text-anchor="start" x="82.25" y="-273.75" font-family="Helvetica,sans-Serif" font-size="10.00">+</text>
<text xml:space="preserve" text-anchor="start" x="94.5" y="-273.75" font-family="Helvetica,sans-Serif" font-size="10.00">link_layer()</text>
<text xml:space="preserve" text-anchor="start" x="82.25" y="-257" font-family="Helvetica,sans-Serif" font-size="10.00">+</text>
<text xml:space="preserve" text-anchor="start" x="94.5" y="-257" font-family="Helvetica,sans-Serif" font-size="10.00">service_primitive()</text>
<text xml:space="preserve" text-anchor="start" x="82.25" y="-240.25" font-family="Helvetica,sans-Serif" font-size="10.00">+</text>
<text xml:space="preserve" text-anchor="start" x="94.5" y="-240.25" font-family="Helvetica,sans-Serif" font-size="10.00">pdu()</text>
<text xml:space="preserve" text-anchor="start" x="82.25" y="-223.5" font-family="Helvetica,sans-Serif" font-size="10.00">+</text>
<text xml:space="preserve" text-anchor="start" x="94.5" y="-223.5" font-family="Helvetica,sans-Serif" font-size="10.00">pdu()</text>
<text xml:space="preserve" text-anchor="start" x="82.25" y="-206.75" font-family="Helvetica,sans-Serif" font-size="10.00">+</text>
<text xml:space="preserve" text-anchor="start" x="94.5" y="-206.75" font-family="Helvetica,sans-Serif" font-size="10.00">parse_basic()</text>
<text xml:space="preserve" text-anchor="start" x="82.25" y="-190" font-family="Helvetica,sans-Serif" font-size="10.00">+</text>
<text xml:space="preserve" text-anchor="start" x="94.5" y="-190" font-family="Helvetica,sans-Serif" font-size="10.00">parse_secured()</text>
<polygon fill="#666666" stroke="#666666" points="78.25,-318.75 78.25,-318.75 231.25,-318.75 231.25,-318.75 78.25,-318.75"/>
<polygon fill="#666666" stroke="#666666" points="78.25,-302 78.25,-302 92.5,-302 92.5,-302 78.25,-302"/>
<polygon fill="#666666" stroke="#666666" points="92.5,-302 92.5,-302 231.25,-302 231.25,-302 92.5,-302"/>
<polygon fill="none" stroke="#666666" points="78.25,-182.75 78.25,-350.25 231.25,-350.25 231.25,-182.75 78.25,-182.75"/>
</a>
</g>
</g>
<!-- Node3 -->
<g id="Node000003" class="node">
<title>Node3</title>
<g id="a_Node000003"><a xlink:href="../../db/d0c/classvanetza_1_1geonet_1_1IndicationContextSecuredCast.html" target="_top" xlink:title=" ">
<polygon fill="white" stroke="none" points="145.5,-138.38 0,-138.38 0,-8.38 145.5,-8.38 145.5,-138.38"/>
<text xml:space="preserve" text-anchor="start" x="6.38" y="-124.88" font-family="Helvetica,sans-Serif" font-size="10.00">vanetza::geonet::Indication</text>
<text xml:space="preserve" text-anchor="start" x="23.25" y="-112.12" font-family="Helvetica,sans-Serif" font-size="10.00">ContextSecuredCast</text>
<text xml:space="preserve" text-anchor="start" x="6.25" y="-95.38" font-family="Helvetica,sans-Serif" font-size="10.00">&#45;</text>
<text xml:space="preserve" text-anchor="start" x="16.25" y="-95.38" font-family="Helvetica,sans-Serif" font-size="10.00">m_packet</text>
<text xml:space="preserve" text-anchor="start" x="4" y="-78.62" font-family="Helvetica,sans-Serif" font-size="10.00">+</text>
<text xml:space="preserve" text-anchor="start" x="16.25" y="-78.62" font-family="Helvetica,sans-Serif" font-size="10.00">IndicationContextSecured</text>
<text xml:space="preserve" text-anchor="start" x="16.25" y="-65.88" font-family="Helvetica,sans-Serif" font-size="10.00">Cast()</text>
<text xml:space="preserve" text-anchor="start" x="4" y="-49.12" font-family="Helvetica,sans-Serif" font-size="10.00">+</text>
<text xml:space="preserve" text-anchor="start" x="16.25" y="-49.12" font-family="Helvetica,sans-Serif" font-size="10.00">parse_common()</text>
<text xml:space="preserve" text-anchor="start" x="4" y="-32.38" font-family="Helvetica,sans-Serif" font-size="10.00">+</text>
<text xml:space="preserve" text-anchor="start" x="16.25" y="-32.38" font-family="Helvetica,sans-Serif" font-size="10.00">parse_extended()</text>
<text xml:space="preserve" text-anchor="start" x="4" y="-15.62" font-family="Helvetica,sans-Serif" font-size="10.00">+</text>
<text xml:space="preserve" text-anchor="start" x="16.25" y="-15.62" font-family="Helvetica,sans-Serif" font-size="10.00">finish()</text>
<polygon fill="#bfbfbf" stroke="#bfbfbf" points="0,-106.88 0,-106.88 145.5,-106.88 145.5,-106.88 0,-106.88"/>
<polygon fill="#bfbfbf" stroke="#bfbfbf" points="0,-90.12 0,-90.12 14.25,-90.12 14.25,-90.12 0,-90.12"/>
<polygon fill="#bfbfbf" stroke="#bfbfbf" points="14.25,-90.12 14.25,-90.12 145.5,-90.12 145.5,-90.12 14.25,-90.12"/>
<polygon fill="none" stroke="#bfbfbf" points="0,-8.38 0,-138.38 145.5,-138.38 145.5,-8.38 0,-8.38"/>
</a>
</g>
</g>
<!-- Node1&#45;&gt;Node3 -->
<g id="edge2_Node000001_Node000003" class="edge">
<title>Node1&#45;&gt;Node3</title>
<g id="a_edge2_Node000001_Node000003"><a xlink:title=" ">
<path fill="none" stroke="#63b8ff" d="M114.73,-172.23C109.79,-160.71 104.83,-149.14 100.13,-138.2"/>
<polygon fill="none" stroke="#63b8ff" points="111.5,-173.58 118.66,-181.39 117.94,-170.82 111.5,-173.58"/>
</a>
</g>
</g>
<!-- Node4 -->
<g id="Node000004" class="node">
<title>Node4</title>
<g id="a_Node000004"><a xlink:href="../../d4/d6d/classvanetza_1_1geonet_1_1IndicationContextSecuredDeserialize.html" target="_top" xlink:title=" ">
<polygon fill="white" stroke="none" points="309.5,-146.75 164,-146.75 164,0 309.5,0 309.5,-146.75"/>
<text xml:space="preserve" text-anchor="start" x="170.38" y="-133.25" font-family="Helvetica,sans-Serif" font-size="10.00">vanetza::geonet::Indication</text>
<text xml:space="preserve" text-anchor="start" x="170.75" y="-120.5" font-family="Helvetica,sans-Serif" font-size="10.00">ContextSecuredDeserialize</text>
<text xml:space="preserve" text-anchor="start" x="170.25" y="-103.75" font-family="Helvetica,sans-Serif" font-size="10.00">&#45;</text>
<text xml:space="preserve" text-anchor="start" x="180.25" y="-103.75" font-family="Helvetica,sans-Serif" font-size="10.00">m_packet</text>
<text xml:space="preserve" text-anchor="start" x="170.25" y="-87" font-family="Helvetica,sans-Serif" font-size="10.00">&#45;</text>
<text xml:space="preserve" text-anchor="start" x="180.25" y="-87" font-family="Helvetica,sans-Serif" font-size="10.00">m_parser</text>
<text xml:space="preserve" text-anchor="start" x="168" y="-70.25" font-family="Helvetica,sans-Serif" font-size="10.00">+</text>
<text xml:space="preserve" text-anchor="start" x="180.25" y="-70.25" font-family="Helvetica,sans-Serif" font-size="10.00">IndicationContextSecured</text>
<text xml:space="preserve" text-anchor="start" x="180.25" y="-57.5" font-family="Helvetica,sans-Serif" font-size="10.00">Deserialize()</text>
<text xml:space="preserve" text-anchor="start" x="168" y="-40.75" font-family="Helvetica,sans-Serif" font-size="10.00">+</text>
<text xml:space="preserve" text-anchor="start" x="180.25" y="-40.75" font-family="Helvetica,sans-Serif" font-size="10.00">parse_common()</text>
<text xml:space="preserve" text-anchor="start" x="168" y="-24" font-family="Helvetica,sans-Serif" font-size="10.00">+</text>
<text xml:space="preserve" text-anchor="start" x="180.25" y="-24" font-family="Helvetica,sans-Serif" font-size="10.00">parse_extended()</text>
<text xml:space="preserve" text-anchor="start" x="168" y="-7.25" font-family="Helvetica,sans-Serif" font-size="10.00">+</text>
<text xml:space="preserve" text-anchor="start" x="180.25" y="-7.25" font-family="Helvetica,sans-Serif" font-size="10.00">finish()</text>
<polygon fill="#bfbfbf" stroke="#bfbfbf" points="164,-115.25 164,-115.25 309.5,-115.25 309.5,-115.25 164,-115.25"/>
<polygon fill="#bfbfbf" stroke="#bfbfbf" points="164,-81.75 164,-81.75 178.25,-81.75 178.25,-81.75 164,-81.75"/>
<polygon fill="#bfbfbf" stroke="#bfbfbf" points="178.25,-81.75 178.25,-81.75 309.5,-81.75 309.5,-81.75 178.25,-81.75"/>
<polygon fill="none" stroke="#bfbfbf" points="164,0 164,-146.75 309.5,-146.75 309.5,0 164,0"/>
</a>
</g>
</g>
<!-- Node1&#45;&gt;Node4 -->
<g id="edge3_Node000001_Node000004" class="edge">
<title>Node1&#45;&gt;Node4</title>
<g id="a_edge3_Node000001_Node000004"><a xlink:title=" ">
<path fill="none" stroke="#63b8ff" d="M194.73,-172.32C198.42,-163.72 202.12,-155.09 205.71,-146.72"/>
<polygon fill="none" stroke="#63b8ff" points="191.56,-170.82 190.84,-181.39 198,-173.58 191.56,-170.82"/>
</a>
</g>
</g>
<!-- Node2 -->
<g id="Node000002" class="node">
<title>Node2</title>
<g id="a_Node000002"><a xlink:href="../../d0/db4/classvanetza_1_1geonet_1_1IndicationContext.html" target="_top" xlink:title=" ">
<polygon fill="white" stroke="none" points="225.12,-604 84.38,-604 84.38,-386.25 225.12,-386.25 225.12,-604"/>
<text xml:space="preserve" text-anchor="start" x="88.38" y="-590.5" font-family="Helvetica,sans-Serif" font-size="10.00">vanetza::geonet::Indication</text>
<text xml:space="preserve" text-anchor="start" x="135.62" y="-577.75" font-family="Helvetica,sans-Serif" font-size="10.00">Context</text>
<text xml:space="preserve" text-anchor="start" x="153.25" y="-561" font-family="Helvetica,sans-Serif" font-size="10.00"> </text>
<text xml:space="preserve" text-anchor="start" x="93" y="-544.25" font-family="Helvetica,sans-Serif" font-size="10.00">+</text>
<text xml:space="preserve" text-anchor="start" x="109.88" y="-544.25" font-family="Helvetica,sans-Serif" font-size="10.00">parse_basic()</text>
<text xml:space="preserve" text-anchor="start" x="93" y="-527.5" font-family="Helvetica,sans-Serif" font-size="10.00">+</text>
<text xml:space="preserve" text-anchor="start" x="109.88" y="-527.5" font-family="Helvetica,sans-Serif" font-size="10.00">parse_common()</text>
<text xml:space="preserve" text-anchor="start" x="93" y="-510.75" font-family="Helvetica,sans-Serif" font-size="10.00">+</text>
<text xml:space="preserve" text-anchor="start" x="109.88" y="-510.75" font-family="Helvetica,sans-Serif" font-size="10.00">parse_secured()</text>
<text xml:space="preserve" text-anchor="start" x="93" y="-494" font-family="Helvetica,sans-Serif" font-size="10.00">+</text>
<text xml:space="preserve" text-anchor="start" x="109.88" y="-494" font-family="Helvetica,sans-Serif" font-size="10.00">parse_extended()</text>
<text xml:space="preserve" text-anchor="start" x="93" y="-477.25" font-family="Helvetica,sans-Serif" font-size="10.00">+</text>
<text xml:space="preserve" text-anchor="start" x="109.88" y="-477.25" font-family="Helvetica,sans-Serif" font-size="10.00">pdu()</text>
<text xml:space="preserve" text-anchor="start" x="93" y="-460.5" font-family="Helvetica,sans-Serif" font-size="10.00">+</text>
<text xml:space="preserve" text-anchor="start" x="109.88" y="-460.5" font-family="Helvetica,sans-Serif" font-size="10.00">pdu()</text>
<text xml:space="preserve" text-anchor="start" x="93" y="-443.75" font-family="Helvetica,sans-Serif" font-size="10.00">+</text>
<text xml:space="preserve" text-anchor="start" x="109.88" y="-443.75" font-family="Helvetica,sans-Serif" font-size="10.00">link_layer()</text>
<text xml:space="preserve" text-anchor="start" x="93" y="-427" font-family="Helvetica,sans-Serif" font-size="10.00">+</text>
<text xml:space="preserve" text-anchor="start" x="109.88" y="-427" font-family="Helvetica,sans-Serif" font-size="10.00">service_primitive()</text>
<text xml:space="preserve" text-anchor="start" x="93" y="-410.25" font-family="Helvetica,sans-Serif" font-size="10.00">+</text>
<text xml:space="preserve" text-anchor="start" x="109.88" y="-410.25" font-family="Helvetica,sans-Serif" font-size="10.00">finish()</text>
<text xml:space="preserve" text-anchor="start" x="93" y="-393.5" font-family="Helvetica,sans-Serif" font-size="10.00">+</text>
<text xml:space="preserve" text-anchor="start" x="109.88" y="-393.5" font-family="Helvetica,sans-Serif" font-size="10.00">~IndicationContext()</text>
<polygon fill="#666666" stroke="#666666" points="84.38,-572.5 84.38,-572.5 225.12,-572.5 225.12,-572.5 84.38,-572.5"/>
<polygon fill="#666666" stroke="#666666" points="84.38,-555.75 84.38,-555.75 225.12,-555.75 225.12,-555.75 84.38,-555.75"/>
<polygon fill="none" stroke="#666666" points="84.38,-386.25 84.38,-604 225.12,-604 225.12,-386.25 84.38,-386.25"/>
</a>
</g>
</g>
<!-- Node2&#45;&gt;Node1 -->
<g id="edge1_Node000001_Node000002" class="edge">
<title>Node2&#45;&gt;Node1</title>
<g id="a_edge1_Node000001_Node000002"><a xlink:title=" ">
<path fill="none" stroke="#63b8ff" d="M154.75,-374.99C154.75,-366.59 154.75,-358.23 154.75,-350.1"/>
<polygon fill="none" stroke="#63b8ff" points="151.25,-374.94 154.75,-384.94 158.25,-374.94 151.25,-374.94"/>
</a>
</g>
</g>
</g>
</svg>
