<?xml version="1.0" encoding="UTF-8" standalone="no"?>
<!DOCTYPE svg PUBLIC "-//W3C//DTD SVG 1.1//EN"
 "http://www.w3.org/Graphics/SVG/1.1/DTD/svg11.dtd">
<!-- Generated by graphviz version 2.42.3 (0)
 -->
<!-- Title: vanetza::geonet::IndicationContextSecured Pages: 1 -->
<svg width="330pt" height="507pt"
 viewBox="0.00 0.00 329.50 507.00" xmlns="http://www.w3.org/2000/svg" xmlns:xlink="http://www.w3.org/1999/xlink">
<g id="graph0" class="graph" transform="scale(1 1) rotate(0) translate(4 503)">
<title>vanetza::geonet::IndicationContextSecured</title>
<polygon fill="white" stroke="transparent" points="-4,4 -4,-503 325.5,-503 325.5,4 -4,4"/>
<!-- Node1 -->
<g id="node1" class="node">
<title>Node1</title>
<g id="a_node1"><a xlink:title=" ">
<polygon fill="#bfbfbf" stroke="black" points="95.5,-160.5 95.5,-294.5 239.5,-294.5 239.5,-160.5 95.5,-160.5"/>
<text text-anchor="start" x="103.5" y="-282.5" font-family="Helvetica,sans-Serif" font-size="10.00">vanetza::geonet::Indication</text>
<text text-anchor="middle" x="167.5" y="-271.5" font-family="Helvetica,sans-Serif" font-size="10.00">ContextSecured</text>
<polyline fill="none" stroke="black" points="95.5,-264.5 239.5,-264.5 "/>
<text text-anchor="start" x="103.5" y="-252.5" font-family="Helvetica,sans-Serif" font-size="10.00"># m_parent</text>
<polyline fill="none" stroke="black" points="95.5,-245.5 239.5,-245.5 "/>
<text text-anchor="start" x="103.5" y="-233.5" font-family="Helvetica,sans-Serif" font-size="10.00">+ IndicationContextSecured()</text>
<text text-anchor="start" x="103.5" y="-222.5" font-family="Helvetica,sans-Serif" font-size="10.00">+ link_layer()</text>
<text text-anchor="start" x="103.5" y="-211.5" font-family="Helvetica,sans-Serif" font-size="10.00">+ service_primitive()</text>
<text text-anchor="start" x="103.5" y="-200.5" font-family="Helvetica,sans-Serif" font-size="10.00">+ pdu()</text>
<text text-anchor="start" x="103.5" y="-189.5" font-family="Helvetica,sans-Serif" font-size="10.00">+ pdu()</text>
<text text-anchor="start" x="103.5" y="-178.5" font-family="Helvetica,sans-Serif" font-size="10.00">+ parse_basic()</text>
<text text-anchor="start" x="103.5" y="-167.5" font-family="Helvetica,sans-Serif" font-size="10.00">+ parse_secured()</text>
</a>
</g>
</g>
<!-- Node3 -->
<g id="node3" class="node">
<title>Node3</title>
<g id="a_node3"><a xlink:href="../../db/d0c/classvanetza_1_1geonet_1_1IndicationContextSecuredCast.html" target="_top" xlink:title=" ">
<polygon fill="white" stroke="black" points="0,-11.5 0,-112.5 165,-112.5 165,-11.5 0,-11.5"/>
<text text-anchor="start" x="8" y="-100.5" font-family="Helvetica,sans-Serif" font-size="10.00">vanetza::geonet::Indication</text>
<text text-anchor="middle" x="82.5" y="-89.5" font-family="Helvetica,sans-Serif" font-size="10.00">ContextSecuredCast</text>
<polyline fill="none" stroke="black" points="0,-82.5 165,-82.5 "/>
<text text-anchor="start" x="8" y="-70.5" font-family="Helvetica,sans-Serif" font-size="10.00">&#45; m_packet</text>
<polyline fill="none" stroke="black" points="0,-63.5 165,-63.5 "/>
<text text-anchor="start" x="8" y="-51.5" font-family="Helvetica,sans-Serif" font-size="10.00">+ IndicationContextSecuredCast()</text>
<text text-anchor="start" x="8" y="-40.5" font-family="Helvetica,sans-Serif" font-size="10.00">+ parse_common()</text>
<text text-anchor="start" x="8" y="-29.5" font-family="Helvetica,sans-Serif" font-size="10.00">+ parse_extended()</text>
<text text-anchor="start" x="8" y="-18.5" font-family="Helvetica,sans-Serif" font-size="10.00">+ finish()</text>
</a>
</g>
</g>
<!-- Node1&#45;&gt;Node3 -->
<g id="edge2" class="edge">
<title>Node1&#45;&gt;Node3</title>
<path fill="none" stroke="midnightblue" d="M128.47,-151.43C121.64,-138.28 114.69,-124.91 108.33,-112.68"/>
<polygon fill="none" stroke="midnightblue" points="125.45,-153.21 133.17,-160.47 131.66,-149.98 125.45,-153.21"/>
</g>
<!-- Node4 -->
<g id="node4" class="node">
<title>Node4</title>
<g id="a_node4"><a xlink:href="../../d4/d6d/classvanetza_1_1geonet_1_1IndicationContextSecuredDeserialize.html" target="_top" xlink:title=" ">
<polygon fill="white" stroke="black" points="183.5,-0.5 183.5,-123.5 321.5,-123.5 321.5,-0.5 183.5,-0.5"/>
<text text-anchor="start" x="191.5" y="-111.5" font-family="Helvetica,sans-Serif" font-size="10.00">vanetza::geonet::Indication</text>
<text text-anchor="middle" x="252.5" y="-100.5" font-family="Helvetica,sans-Serif" font-size="10.00">ContextSecuredDeserialize</text>
<polyline fill="none" stroke="black" points="183.5,-93.5 321.5,-93.5 "/>
<text text-anchor="start" x="191.5" y="-81.5" font-family="Helvetica,sans-Serif" font-size="10.00">&#45; m_packet</text>
<text text-anchor="start" x="191.5" y="-70.5" font-family="Helvetica,sans-Serif" font-size="10.00">&#45; m_parser</text>
<polyline fill="none" stroke="black" points="183.5,-63.5 321.5,-63.5 "/>
<text text-anchor="start" x="191.5" y="-51.5" font-family="Helvetica,sans-Serif" font-size="10.00">+ IndicationContextSecured</text>
<text text-anchor="start" x="191.5" y="-40.5" font-family="Helvetica,sans-Serif" font-size="10.00">Deserialize()</text>
<text text-anchor="start" x="191.5" y="-29.5" font-family="Helvetica,sans-Serif" font-size="10.00">+ parse_common()</text>
<text text-anchor="start" x="191.5" y="-18.5" font-family="Helvetica,sans-Serif" font-size="10.00">+ parse_extended()</text>
<text text-anchor="start" x="191.5" y="-7.5" font-family="Helvetica,sans-Serif" font-size="10.00">+ finish()</text>
</a>
</g>
</g>
<!-- Node1&#45;&gt;Node4 -->
<g id="edge3" class="edge">
<title>Node1&#45;&gt;Node4</title>
<path fill="none" stroke="midnightblue" d="M206.45,-151.58C211.3,-142.25 216.21,-132.8 220.93,-123.73"/>
<polygon fill="none" stroke="midnightblue" points="203.34,-149.98 201.83,-160.47 209.55,-153.21 203.34,-149.98"/>
</g>
<!-- Node2 -->
<g id="node2" class="node">
<title>Node2</title>
<g id="a_node2"><a xlink:href="../../d0/db4/classvanetza_1_1geonet_1_1IndicationContext.html" target="_top" xlink:title=" ">
<polygon fill="white" stroke="black" points="101,-331.5 101,-498.5 234,-498.5 234,-331.5 101,-331.5"/>
<text text-anchor="start" x="109" y="-486.5" font-family="Helvetica,sans-Serif" font-size="10.00">vanetza::geonet::Indication</text>
<text text-anchor="middle" x="167.5" y="-475.5" font-family="Helvetica,sans-Serif" font-size="10.00">Context</text>
<polyline fill="none" stroke="black" points="101,-468.5 234,-468.5 "/>
<text text-anchor="middle" x="167.5" y="-456.5" font-family="Helvetica,sans-Serif" font-size="10.00"> </text>
<polyline fill="none" stroke="black" points="101,-449.5 234,-449.5 "/>
<text text-anchor="start" x="109" y="-437.5" font-family="Helvetica,sans-Serif" font-size="10.00">+ parse_basic()</text>
<text text-anchor="start" x="109" y="-426.5" font-family="Helvetica,sans-Serif" font-size="10.00">+ parse_common()</text>
<text text-anchor="start" x="109" y="-415.5" font-family="Helvetica,sans-Serif" font-size="10.00">+ parse_secured()</text>
<text text-anchor="start" x="109" y="-404.5" font-family="Helvetica,sans-Serif" font-size="10.00">+ parse_extended()</text>
<text text-anchor="start" x="109" y="-393.5" font-family="Helvetica,sans-Serif" font-size="10.00">+ pdu()</text>
<text text-anchor="start" x="109" y="-382.5" font-family="Helvetica,sans-Serif" font-size="10.00">+ pdu()</text>
<text text-anchor="start" x="109" y="-371.5" font-family="Helvetica,sans-Serif" font-size="10.00">+ link_layer()</text>
<text text-anchor="start" x="109" y="-360.5" font-family="Helvetica,sans-Serif" font-size="10.00">+ service_primitive()</text>
<text text-anchor="start" x="109" y="-349.5" font-family="Helvetica,sans-Serif" font-size="10.00">+ finish()</text>
<text text-anchor="start" x="109" y="-338.5" font-family="Helvetica,sans-Serif" font-size="10.00">+ ~IndicationContext()</text>
</a>
</g>
</g>
<!-- Node2&#45;&gt;Node1 -->
<g id="edge1" class="edge">
<title>Node2&#45;&gt;Node1</title>
<path fill="none" stroke="midnightblue" d="M167.5,-321.19C167.5,-312.22 167.5,-303.26 167.5,-294.64"/>
<polygon fill="none" stroke="midnightblue" points="164,-321.29 167.5,-331.29 171,-321.29 164,-321.29"/>
</g>
</g>
</svg>
