<?xml version="1.0" encoding="UTF-8" standalone="no"?>
<!DOCTYPE svg PUBLIC "-//W3C//DTD SVG 1.1//EN"
 "http://www.w3.org/Graphics/SVG/1.1/DTD/svg11.dtd">
<!-- Generated by graphviz version 2.49.3 (0)
 -->
<!-- Title: vanetza::geonet::IndicationContextSecured Pages: 1 -->
<svg width="290pt" height="556pt"
 viewBox="0.00 0.00 290.00 556.00" xmlns="http://www.w3.org/2000/svg" xmlns:xlink="http://www.w3.org/1999/xlink">
<g id="graph0" class="graph" transform="scale(1 1) rotate(0) translate(4 552)">
<title>vanetza::geonet::IndicationContextSecured</title>
<!-- Node1 -->
<g id="Node000001" class="node">
<title>Node1</title>
<g id="a_Node000001"><a xlink:title=" ">
<polygon fill="#999999" stroke="transparent" points="210,-317 72,-317 72,-167 210,-167 210,-317"/>
<text text-anchor="start" x="82.5" y="-305" font-family="Helvetica,sans-Serif" font-size="10.00">vanetza::geonet::Indication</text>
<text text-anchor="start" x="105.5" y="-294" font-family="Helvetica,sans-Serif" font-size="10.00">ContextSecured</text>
<text text-anchor="start" x="76.5" y="-279" font-family="Helvetica,sans-Serif" font-size="10.00">#</text>
<text text-anchor="start" x="87" y="-279" font-family="Helvetica,sans-Serif" font-size="10.00">m_parent</text>
<text text-anchor="start" x="76" y="-264" font-family="Helvetica,sans-Serif" font-size="10.00">+</text>
<text text-anchor="start" x="87" y="-264" font-family="Helvetica,sans-Serif" font-size="10.00">IndicationContextSecured()</text>
<text text-anchor="start" x="76" y="-249" font-family="Helvetica,sans-Serif" font-size="10.00">+</text>
<text text-anchor="start" x="87" y="-249" font-family="Helvetica,sans-Serif" font-size="10.00">link_layer()</text>
<text text-anchor="start" x="76" y="-234" font-family="Helvetica,sans-Serif" font-size="10.00">+</text>
<text text-anchor="start" x="87" y="-234" font-family="Helvetica,sans-Serif" font-size="10.00">service_primitive()</text>
<text text-anchor="start" x="76" y="-219" font-family="Helvetica,sans-Serif" font-size="10.00">+</text>
<text text-anchor="start" x="87" y="-219" font-family="Helvetica,sans-Serif" font-size="10.00">pdu()</text>
<text text-anchor="start" x="76" y="-204" font-family="Helvetica,sans-Serif" font-size="10.00">+</text>
<text text-anchor="start" x="87" y="-204" font-family="Helvetica,sans-Serif" font-size="10.00">pdu()</text>
<text text-anchor="start" x="76" y="-189" font-family="Helvetica,sans-Serif" font-size="10.00">+</text>
<text text-anchor="start" x="87" y="-189" font-family="Helvetica,sans-Serif" font-size="10.00">parse_basic()</text>
<text text-anchor="start" x="76" y="-174" font-family="Helvetica,sans-Serif" font-size="10.00">+</text>
<text text-anchor="start" x="87" y="-174" font-family="Helvetica,sans-Serif" font-size="10.00">parse_secured()</text>
<polygon fill="#666666" stroke="#666666" points="72,-289 72,-289 210,-289 210,-289 72,-289"/>
<polygon fill="#666666" stroke="#666666" points="72,-274 72,-274 85,-274 85,-274 72,-274"/>
<polygon fill="#666666" stroke="#666666" points="85,-274 85,-274 210,-274 210,-274 85,-274"/>
<polygon fill="none" stroke="#666666" points="72,-167 72,-317 210,-317 210,-167 72,-167"/>
</a>
</g>
</g>
<!-- Node3 -->
<g id="Node000003" class="node">
<title>Node3</title>
<g id="a_Node000003"><a xlink:href="../../db/d0c/classvanetza_1_1geonet_1_1IndicationContextSecuredCast.html" target="_top" xlink:title=" ">
<polygon fill="white" stroke="transparent" points="132,-123.5 0,-123.5 0,-7.5 132,-7.5 132,-123.5"/>
<text text-anchor="start" x="7.5" y="-111.5" font-family="Helvetica,sans-Serif" font-size="10.00">vanetza::geonet::Indication</text>
<text text-anchor="start" x="20" y="-100.5" font-family="Helvetica,sans-Serif" font-size="10.00">ContextSecuredCast</text>
<text text-anchor="start" x="5.5" y="-85.5" font-family="Helvetica,sans-Serif" font-size="10.00">&#45;</text>
<text text-anchor="start" x="15" y="-85.5" font-family="Helvetica,sans-Serif" font-size="10.00">m_packet</text>
<text text-anchor="start" x="4" y="-70.5" font-family="Helvetica,sans-Serif" font-size="10.00">+</text>
<text text-anchor="start" x="15" y="-70.5" font-family="Helvetica,sans-Serif" font-size="10.00">IndicationContextSecured</text>
<text text-anchor="start" x="15" y="-59.5" font-family="Helvetica,sans-Serif" font-size="10.00">Cast()</text>
<text text-anchor="start" x="4" y="-44.5" font-family="Helvetica,sans-Serif" font-size="10.00">+</text>
<text text-anchor="start" x="15" y="-44.5" font-family="Helvetica,sans-Serif" font-size="10.00">parse_common()</text>
<text text-anchor="start" x="4" y="-29.5" font-family="Helvetica,sans-Serif" font-size="10.00">+</text>
<text text-anchor="start" x="15" y="-29.5" font-family="Helvetica,sans-Serif" font-size="10.00">parse_extended()</text>
<text text-anchor="start" x="4" y="-14.5" font-family="Helvetica,sans-Serif" font-size="10.00">+</text>
<text text-anchor="start" x="15" y="-14.5" font-family="Helvetica,sans-Serif" font-size="10.00">finish()</text>
<polygon fill="#bfbfbf" stroke="#bfbfbf" points="0,-95.5 0,-95.5 132,-95.5 132,-95.5 0,-95.5"/>
<polygon fill="#bfbfbf" stroke="#bfbfbf" points="0,-80.5 0,-80.5 13,-80.5 13,-80.5 0,-80.5"/>
<polygon fill="#bfbfbf" stroke="#bfbfbf" points="13,-80.5 13,-80.5 132,-80.5 132,-80.5 13,-80.5"/>
<polygon fill="none" stroke="#bfbfbf" points="0,-7.5 0,-123.5 132,-123.5 132,-7.5 0,-7.5"/>
</a>
</g>
</g>
<!-- Node1&#45;&gt;Node3 -->
<g id="edge2_Node000001_Node000003" class="edge">
<title>Node1&#45;&gt;Node3</title>
<g id="a_edge2_Node000001_Node000003"><a xlink:title=" ">
<path fill="none" stroke="#63b8ff" d="M105.23,-157.78C100.27,-146.23 95.27,-134.6 90.57,-123.68"/>
<polygon fill="none" stroke="#63b8ff" points="102.03,-159.19 109.19,-167 108.46,-156.43 102.03,-159.19"/>
</a>
</g>
</g>
<!-- Node4 -->
<g id="Node000004" class="node">
<title>Node4</title>
<g id="a_Node000004"><a xlink:href="../../d4/d6d/classvanetza_1_1geonet_1_1IndicationContextSecuredDeserialize.html" target="_top" xlink:title=" ">
<polygon fill="white" stroke="transparent" points="282,-131 150,-131 150,0 282,0 282,-131"/>
<text text-anchor="start" x="156" y="-118.5" font-family="Helvetica,sans-Serif" font-size="10.00">vanetza::geonet::Indication</text>
<text text-anchor="start" x="156" y="-107.5" font-family="Helvetica,sans-Serif" font-size="10.00">ContextSecuredDeserialize</text>
<text text-anchor="start" x="155.5" y="-92.5" font-family="Helvetica,sans-Serif" font-size="10.00">&#45;</text>
<text text-anchor="start" x="165" y="-92.5" font-family="Helvetica,sans-Serif" font-size="10.00">m_packet</text>
<text text-anchor="start" x="155.5" y="-77.5" font-family="Helvetica,sans-Serif" font-size="10.00">&#45;</text>
<text text-anchor="start" x="165" y="-77.5" font-family="Helvetica,sans-Serif" font-size="10.00">m_parser</text>
<text text-anchor="start" x="154" y="-62.5" font-family="Helvetica,sans-Serif" font-size="10.00">+</text>
<text text-anchor="start" x="165" y="-62.5" font-family="Helvetica,sans-Serif" font-size="10.00">IndicationContextSecured</text>
<text text-anchor="start" x="165" y="-51.5" font-family="Helvetica,sans-Serif" font-size="10.00">Deserialize()</text>
<text text-anchor="start" x="154" y="-36.5" font-family="Helvetica,sans-Serif" font-size="10.00">+</text>
<text text-anchor="start" x="165" y="-36.5" font-family="Helvetica,sans-Serif" font-size="10.00">parse_common()</text>
<text text-anchor="start" x="154" y="-21.5" font-family="Helvetica,sans-Serif" font-size="10.00">+</text>
<text text-anchor="start" x="165" y="-21.5" font-family="Helvetica,sans-Serif" font-size="10.00">parse_extended()</text>
<text text-anchor="start" x="154" y="-6.5" font-family="Helvetica,sans-Serif" font-size="10.00">+</text>
<text text-anchor="start" x="165" y="-6.5" font-family="Helvetica,sans-Serif" font-size="10.00">finish()</text>
<polygon fill="#bfbfbf" stroke="#bfbfbf" points="150,-102.5 150,-102.5 282,-102.5 282,-102.5 150,-102.5"/>
<polygon fill="#bfbfbf" stroke="#bfbfbf" points="150,-72.5 150,-72.5 163,-72.5 163,-72.5 150,-72.5"/>
<polygon fill="#bfbfbf" stroke="#bfbfbf" points="163,-72.5 163,-72.5 282,-72.5 282,-72.5 163,-72.5"/>
<polygon fill="none" stroke="#bfbfbf" points="150,0 150,-131 282,-131 282,0 150,0"/>
</a>
</g>
</g>
<!-- Node1&#45;&gt;Node4 -->
<g id="edge3_Node000001_Node000004" class="edge">
<title>Node1&#45;&gt;Node4</title>
<g id="a_edge3_Node000001_Node000004"><a xlink:title=" ">
<path fill="none" stroke="#63b8ff" d="M176.78,-157.75C180.61,-148.84 184.46,-139.88 188.18,-131.23"/>
<polygon fill="none" stroke="#63b8ff" points="173.54,-156.43 172.81,-167 179.97,-159.19 173.54,-156.43"/>
</a>
</g>
</g>
<!-- Node2 -->
<g id="Node000002" class="node">
<title>Node2</title>
<g id="a_Node000002"><a xlink:href="../../d0/db4/classvanetza_1_1geonet_1_1IndicationContext.html" target="_top" xlink:title=" ">
<polygon fill="white" stroke="transparent" points="204.5,-548 77.5,-548 77.5,-353 204.5,-353 204.5,-548"/>
<text text-anchor="start" x="83" y="-535.5" font-family="Helvetica,sans-Serif" font-size="10.00">vanetza::geonet::Indication</text>
<text text-anchor="start" x="124" y="-524.5" font-family="Helvetica,sans-Serif" font-size="10.00">Context</text>
<text text-anchor="start" x="139.5" y="-509.5" font-family="Helvetica,sans-Serif" font-size="10.00"> </text>
<text text-anchor="start" x="86.5" y="-494.5" font-family="Helvetica,sans-Serif" font-size="10.00">+</text>
<text text-anchor="start" x="102" y="-494.5" font-family="Helvetica,sans-Serif" font-size="10.00">parse_basic()</text>
<text text-anchor="start" x="86.5" y="-479.5" font-family="Helvetica,sans-Serif" font-size="10.00">+</text>
<text text-anchor="start" x="102" y="-479.5" font-family="Helvetica,sans-Serif" font-size="10.00">parse_common()</text>
<text text-anchor="start" x="86.5" y="-464.5" font-family="Helvetica,sans-Serif" font-size="10.00">+</text>
<text text-anchor="start" x="102" y="-464.5" font-family="Helvetica,sans-Serif" font-size="10.00">parse_secured()</text>
<text text-anchor="start" x="86.5" y="-449.5" font-family="Helvetica,sans-Serif" font-size="10.00">+</text>
<text text-anchor="start" x="102" y="-449.5" font-family="Helvetica,sans-Serif" font-size="10.00">parse_extended()</text>
<text text-anchor="start" x="86.5" y="-434.5" font-family="Helvetica,sans-Serif" font-size="10.00">+</text>
<text text-anchor="start" x="102" y="-434.5" font-family="Helvetica,sans-Serif" font-size="10.00">pdu()</text>
<text text-anchor="start" x="86.5" y="-419.5" font-family="Helvetica,sans-Serif" font-size="10.00">+</text>
<text text-anchor="start" x="102" y="-419.5" font-family="Helvetica,sans-Serif" font-size="10.00">pdu()</text>
<text text-anchor="start" x="86.5" y="-404.5" font-family="Helvetica,sans-Serif" font-size="10.00">+</text>
<text text-anchor="start" x="102" y="-404.5" font-family="Helvetica,sans-Serif" font-size="10.00">link_layer()</text>
<text text-anchor="start" x="86.5" y="-389.5" font-family="Helvetica,sans-Serif" font-size="10.00">+</text>
<text text-anchor="start" x="102" y="-389.5" font-family="Helvetica,sans-Serif" font-size="10.00">service_primitive()</text>
<text text-anchor="start" x="86.5" y="-374.5" font-family="Helvetica,sans-Serif" font-size="10.00">+</text>
<text text-anchor="start" x="102" y="-374.5" font-family="Helvetica,sans-Serif" font-size="10.00">finish()</text>
<text text-anchor="start" x="86.5" y="-359.5" font-family="Helvetica,sans-Serif" font-size="10.00">+</text>
<text text-anchor="start" x="102" y="-359.5" font-family="Helvetica,sans-Serif" font-size="10.00">~IndicationContext()</text>
<polygon fill="#666666" stroke="#666666" points="78,-519.5 78,-519.5 205,-519.5 205,-519.5 78,-519.5"/>
<polygon fill="#666666" stroke="#666666" points="78,-504.5 78,-504.5 205,-504.5 205,-504.5 78,-504.5"/>
<polygon fill="none" stroke="#666666" points="77.5,-353 77.5,-548 204.5,-548 204.5,-353 77.5,-353"/>
</a>
</g>
</g>
<!-- Node2&#45;&gt;Node1 -->
<g id="edge1_Node000001_Node000002" class="edge">
<title>Node2&#45;&gt;Node1</title>
<g id="a_edge1_Node000001_Node000002"><a xlink:title=" ">
<path fill="none" stroke="#63b8ff" d="M141,-342.79C141,-334.18 141,-325.6 141,-317.29"/>
<polygon fill="none" stroke="#63b8ff" points="137.5,-342.9 141,-352.9 144.5,-342.9 137.5,-342.9"/>
</a>
</g>
</g>
</g>
</svg>
