<?xml version="1.0" encoding="UTF-8" standalone="no"?>
<!DOCTYPE svg PUBLIC "-//W3C//DTD SVG 1.1//EN"
 "http://www.w3.org/Graphics/SVG/1.1/DTD/svg11.dtd">
<!-- Generated by graphviz version 14.1.2 (0)
 -->
<!-- Title: vanetza::security::openssl::BigNumber Pages: 1 -->
<svg width="130pt" height="266pt"
 viewBox="0.00 0.00 130.00 266.00" xmlns="http://www.w3.org/2000/svg" xmlns:xlink="http://www.w3.org/1999/xlink">

<svg id="main" version="1.1" xmlns="http://www.w3.org/2000/svg" xmlns:xlink="http://www.w3.org/1999/xlink" xml:space="preserve">

<style type="text/css"><![CDATA[
.node, .edge {opacity: 0.7;}
.node.selected, .edge.selected {opacity: 1;}
.edge:hover path { stroke: red; }
.edge:hover polygon { stroke: red; fill: red; }
]]></style>
<script type="application/ecmascript" xlink:href="../../svg.min.js"/>
<svg id="graph" class="graph">
<g id="graph0" class="graph" transform="scale(1 1) rotate(0) translate(4 261.75)">
<title>vanetza::security::openssl::BigNumber</title>
<!-- Node1 -->
<g id="Node000001" class="node">
<title>Node1</title>
<g id="a_Node000001"><a xlink:title=" ">
<polygon fill="#999999" stroke="none" points="121.5,-167.5 0,-167.5 0,0 121.5,0 121.5,-167.5"/>
<text xml:space="preserve" text-anchor="start" x="11.62" y="-154" font-family="Helvetica,sans-Serif" font-size="10.00">vanetza::security::</text>
<text xml:space="preserve" text-anchor="start" x="11.62" y="-141.25" font-family="Helvetica,sans-Serif" font-size="10.00">openssl::BigNumber</text>
<text xml:space="preserve" text-anchor="start" x="6.25" y="-124.5" font-family="Helvetica,sans-Serif" font-size="10.00">&#45;</text>
<text xml:space="preserve" text-anchor="start" x="16.25" y="-124.5" font-family="Helvetica,sans-Serif" font-size="10.00">bignum</text>
<text xml:space="preserve" text-anchor="start" x="4" y="-107.75" font-family="Helvetica,sans-Serif" font-size="10.00">+</text>
<text xml:space="preserve" text-anchor="start" x="16.25" y="-107.75" font-family="Helvetica,sans-Serif" font-size="10.00">BigNumber()</text>
<text xml:space="preserve" text-anchor="start" x="4" y="-91" font-family="Helvetica,sans-Serif" font-size="10.00">+</text>
<text xml:space="preserve" text-anchor="start" x="16.25" y="-91" font-family="Helvetica,sans-Serif" font-size="10.00">~BigNumber()</text>
<text xml:space="preserve" text-anchor="start" x="4" y="-74.25" font-family="Helvetica,sans-Serif" font-size="10.00">+</text>
<text xml:space="preserve" text-anchor="start" x="16.25" y="-74.25" font-family="Helvetica,sans-Serif" font-size="10.00">BigNumber()</text>
<text xml:space="preserve" text-anchor="start" x="4" y="-57.5" font-family="Helvetica,sans-Serif" font-size="10.00">+</text>
<text xml:space="preserve" text-anchor="start" x="16.25" y="-57.5" font-family="Helvetica,sans-Serif" font-size="10.00">BigNumber()</text>
<text xml:space="preserve" text-anchor="start" x="4" y="-40.75" font-family="Helvetica,sans-Serif" font-size="10.00">+</text>
<text xml:space="preserve" text-anchor="start" x="16.25" y="-40.75" font-family="Helvetica,sans-Serif" font-size="10.00">operator BIGNUM *()</text>
<text xml:space="preserve" text-anchor="start" x="4" y="-24" font-family="Helvetica,sans-Serif" font-size="10.00">+</text>
<text xml:space="preserve" text-anchor="start" x="16.25" y="-24" font-family="Helvetica,sans-Serif" font-size="10.00">move()</text>
<text xml:space="preserve" text-anchor="start" x="6.25" y="-7.25" font-family="Helvetica,sans-Serif" font-size="10.00">&#45;</text>
<text xml:space="preserve" text-anchor="start" x="16.25" y="-7.25" font-family="Helvetica,sans-Serif" font-size="10.00">BigNumber()</text>
<polygon fill="#666666" stroke="#666666" points="0,-136 0,-136 121.5,-136 121.5,-136 0,-136"/>
<polygon fill="#666666" stroke="#666666" points="0,-119.25 0,-119.25 14.25,-119.25 14.25,-119.25 0,-119.25"/>
<polygon fill="#666666" stroke="#666666" points="14.25,-119.25 14.25,-119.25 121.5,-119.25 121.5,-119.25 14.25,-119.25"/>
<polygon fill="none" stroke="#666666" points="0,0 0,-167.5 121.5,-167.5 121.5,0 0,0"/>
</a>
</g>
</g>
<!-- Node2 -->
<g id="Node000002" class="node">
<title>Node2</title>
<g id="a_Node000002"><a xlink:title=" ">
<polygon fill="white" stroke="none" points="112.38,-257.75 9.12,-257.75 9.12,-203.5 112.38,-203.5 112.38,-257.75"/>
<text xml:space="preserve" text-anchor="start" x="13.12" y="-244.25" font-family="Helvetica,sans-Serif" font-size="10.00">boost::noncopyable</text>
<text xml:space="preserve" text-anchor="start" x="59.25" y="-227.5" font-family="Helvetica,sans-Serif" font-size="10.00"> </text>
<text xml:space="preserve" text-anchor="start" x="59.25" y="-210.75" font-family="Helvetica,sans-Serif" font-size="10.00"> </text>
<polygon fill="#bfbfbf" stroke="#bfbfbf" points="9.12,-239 9.12,-239 112.38,-239 112.38,-239 9.12,-239"/>
<polygon fill="#bfbfbf" stroke="#bfbfbf" points="9.12,-222.25 9.12,-222.25 112.38,-222.25 112.38,-222.25 9.12,-222.25"/>
<polygon fill="none" stroke="#bfbfbf" points="9.12,-203.5 9.12,-257.75 112.38,-257.75 112.38,-203.5 9.12,-203.5"/>
</a>
</g>
</g>
<!-- Node2&#45;&gt;Node1 -->
<g id="edge1_Node000001_Node000002" class="edge">
<title>Node2&#45;&gt;Node1</title>
<g id="a_edge1_Node000001_Node000002"><a xlink:title=" ">
<path fill="none" stroke="#8b1a1a" d="M60.75,-192.45C60.75,-184.6 60.75,-176.02 60.75,-167.25"/>
<polygon fill="none" stroke="#8b1a1a" points="57.25,-192.21 60.75,-202.21 64.25,-192.21 57.25,-192.21"/>
</a>
</g>
</g>
</g>
</svg>
</svg>

<style type='text/css'>
<![CDATA[
[data-mouse-over-selected='false'] { opacity: 0.7; }
[data-mouse-over-selected='true']  { opacity: 1.0; }
]]>
</style>
<script type="application/ecmascript"><![CDATA[
document.addEventListener('DOMContentLoaded', (event) => {
  highlightEdges();
  highlightAdjacentNodes();
});
]]></script>
</svg>
