<?xml version="1.0" encoding="UTF-8" standalone="no"?>
<!DOCTYPE svg PUBLIC "-//W3C//DTD SVG 1.1//EN"
 "http://www.w3.org/Graphics/SVG/1.1/DTD/svg11.dtd">
<!-- Generated by graphviz version 2.49.3 (0)
 -->
<!-- Title: vanetza::LruCache&lt; KEY, VALUE, GENERATOR &gt; Pages: 1 -->
<svg width="281pt" height="391pt"
 viewBox="0.00 0.00 280.50 391.00" xmlns="http://www.w3.org/2000/svg" xmlns:xlink="http://www.w3.org/1999/xlink">
<g id="graph0" class="graph" transform="scale(1 1) rotate(0) translate(4 387)">
<title>vanetza::LruCache&lt; KEY, VALUE, GENERATOR &gt;</title>
<polygon fill="white" stroke="transparent" points="-4,4 -4,-387 276.5,-387 276.5,4 -4,4"/>
<!-- Node1 -->
<g id="node1" class="node">
<title>Node1</title>
<g id="a_node1"><a xlink:title="Least&#45;Recently&#45;Used cache.">
<polygon fill="#bfbfbf" stroke="black" points="44,-237.5 44,-382.5 199,-382.5 199,-237.5 44,-237.5"/>
<text text-anchor="start" x="52" y="-370.5" font-family="Helvetica,sans-Serif" font-size="10.00">vanetza::LruCache&lt;</text>
<text text-anchor="middle" x="121.5" y="-359.5" font-family="Helvetica,sans-Serif" font-size="10.00"> KEY, VALUE, GENERATOR &gt;</text>
<polyline fill="none" stroke="black" points="44,-352.5 199,-352.5 "/>
<text text-anchor="start" x="52" y="-340.5" font-family="Helvetica,sans-Serif" font-size="10.00">&#45; m_generator</text>
<text text-anchor="start" x="52" y="-329.5" font-family="Helvetica,sans-Serif" font-size="10.00">&#45; m_capacity</text>
<text text-anchor="start" x="52" y="-318.5" font-family="Helvetica,sans-Serif" font-size="10.00">&#45; m_index</text>
<text text-anchor="start" x="52" y="-307.5" font-family="Helvetica,sans-Serif" font-size="10.00">&#45; m_cache</text>
<polyline fill="none" stroke="black" points="44,-300.5 199,-300.5 "/>
<text text-anchor="start" x="52" y="-288.5" font-family="Helvetica,sans-Serif" font-size="10.00">+ LruCache()</text>
<text text-anchor="start" x="52" y="-277.5" font-family="Helvetica,sans-Serif" font-size="10.00">+ operator[]()</text>
<text text-anchor="start" x="52" y="-266.5" font-family="Helvetica,sans-Serif" font-size="10.00">&#45; add()</text>
<text text-anchor="start" x="52" y="-255.5" font-family="Helvetica,sans-Serif" font-size="10.00">&#45; refresh()</text>
<text text-anchor="start" x="52" y="-244.5" font-family="Helvetica,sans-Serif" font-size="10.00">&#45; remove()</text>
</a>
</g>
</g>
<!-- Node2 -->
<g id="node2" class="node">
<title>Node2</title>
<g id="a_node2"><a xlink:href="../../db/d4d/classvanetza_1_1LruCache.html" target="_top" xlink:title=" ">
<polygon fill="white" stroke="black" points="0,-0.5 0,-167.5 113,-167.5 113,-0.5 0,-0.5"/>
<text text-anchor="start" x="8" y="-155.5" font-family="Helvetica,sans-Serif" font-size="10.00">vanetza::LruCache&lt;</text>
<text text-anchor="start" x="8" y="-144.5" font-family="Helvetica,sans-Serif" font-size="10.00"> vanetza::security::</text>
<text text-anchor="start" x="8" y="-133.5" font-family="Helvetica,sans-Serif" font-size="10.00">ecdsa256::PrivateKey,</text>
<text text-anchor="middle" x="56.5" y="-122.5" font-family="Helvetica,sans-Serif" font-size="10.00"> PrivateKey &gt;</text>
<polyline fill="none" stroke="black" points="0,-115.5 113,-115.5 "/>
<text text-anchor="start" x="8" y="-103.5" font-family="Helvetica,sans-Serif" font-size="10.00">&#45; m_generator</text>
<text text-anchor="start" x="8" y="-92.5" font-family="Helvetica,sans-Serif" font-size="10.00">&#45; m_capacity</text>
<text text-anchor="start" x="8" y="-81.5" font-family="Helvetica,sans-Serif" font-size="10.00">&#45; m_index</text>
<text text-anchor="start" x="8" y="-70.5" font-family="Helvetica,sans-Serif" font-size="10.00">&#45; m_cache</text>
<polyline fill="none" stroke="black" points="0,-63.5 113,-63.5 "/>
<text text-anchor="start" x="8" y="-51.5" font-family="Helvetica,sans-Serif" font-size="10.00">+ LruCache()</text>
<text text-anchor="start" x="8" y="-40.5" font-family="Helvetica,sans-Serif" font-size="10.00">+ operator[]()</text>
<text text-anchor="start" x="8" y="-29.5" font-family="Helvetica,sans-Serif" font-size="10.00">&#45; add()</text>
<text text-anchor="start" x="8" y="-18.5" font-family="Helvetica,sans-Serif" font-size="10.00">&#45; refresh()</text>
<text text-anchor="start" x="8" y="-7.5" font-family="Helvetica,sans-Serif" font-size="10.00">&#45; remove()</text>
</a>
</g>
</g>
<!-- Node1&#45;&gt;Node2 -->
<g id="edge1" class="edge">
<title>Node1&#45;&gt;Node2</title>
<path fill="none" stroke="orange" d="M64.76,-227.93C63.56,-224.97 62.47,-221.99 61.5,-219 56.27,-202.83 53.62,-184.99 52.5,-167.74"/>
<polygon fill="orange" stroke="orange" points="61.68,-229.6 68.95,-237.31 68.07,-226.75 61.68,-229.6"/>
<text text-anchor="start" x="61.5" y="-211" font-family="Helvetica,sans-Serif" font-size="10.00"> &lt; vanetza::security</text>
<text text-anchor="start" x="61.5" y="-200" font-family="Helvetica,sans-Serif" font-size="10.00">::ecdsa256::PrivateKey,</text>
<text text-anchor="middle" x="113" y="-189" font-family="Helvetica,sans-Serif" font-size="10.00"> PrivateKey &gt;</text>
</g>
<!-- Node3 -->
<g id="node3" class="node">
<title>Node3</title>
<g id="a_node3"><a xlink:href="../../db/d4d/classvanetza_1_1LruCache.html" target="_top" xlink:title=" ">
<polygon fill="white" stroke="black" points="131.5,-0.5 131.5,-167.5 241.5,-167.5 241.5,-0.5 131.5,-0.5"/>
<text text-anchor="start" x="139.5" y="-155.5" font-family="Helvetica,sans-Serif" font-size="10.00">vanetza::LruCache&lt;</text>
<text text-anchor="start" x="139.5" y="-144.5" font-family="Helvetica,sans-Serif" font-size="10.00"> vanetza::security::</text>
<text text-anchor="start" x="139.5" y="-133.5" font-family="Helvetica,sans-Serif" font-size="10.00">ecdsa256::PublicKey,</text>
<text text-anchor="middle" x="186.5" y="-122.5" font-family="Helvetica,sans-Serif" font-size="10.00"> PublicKey &gt;</text>
<polyline fill="none" stroke="black" points="131.5,-115.5 241.5,-115.5 "/>
<text text-anchor="start" x="139.5" y="-103.5" font-family="Helvetica,sans-Serif" font-size="10.00">&#45; m_generator</text>
<text text-anchor="start" x="139.5" y="-92.5" font-family="Helvetica,sans-Serif" font-size="10.00">&#45; m_capacity</text>
<text text-anchor="start" x="139.5" y="-81.5" font-family="Helvetica,sans-Serif" font-size="10.00">&#45; m_index</text>
<text text-anchor="start" x="139.5" y="-70.5" font-family="Helvetica,sans-Serif" font-size="10.00">&#45; m_cache</text>
<polyline fill="none" stroke="black" points="131.5,-63.5 241.5,-63.5 "/>
<text text-anchor="start" x="139.5" y="-51.5" font-family="Helvetica,sans-Serif" font-size="10.00">+ LruCache()</text>
<text text-anchor="start" x="139.5" y="-40.5" font-family="Helvetica,sans-Serif" font-size="10.00">+ operator[]()</text>
<text text-anchor="start" x="139.5" y="-29.5" font-family="Helvetica,sans-Serif" font-size="10.00">&#45; add()</text>
<text text-anchor="start" x="139.5" y="-18.5" font-family="Helvetica,sans-Serif" font-size="10.00">&#45; refresh()</text>
<text text-anchor="start" x="139.5" y="-7.5" font-family="Helvetica,sans-Serif" font-size="10.00">&#45; remove()</text>
</a>
</g>
</g>
<!-- Node1&#45;&gt;Node3 -->
<g id="edge2" class="edge">
<title>Node1&#45;&gt;Node3</title>
<path fill="none" stroke="orange" d="M161.53,-227.82C162.59,-224.87 163.58,-221.92 164.5,-219 169.62,-202.69 173.6,-184.87 176.69,-167.71"/>
<polygon fill="orange" stroke="orange" points="158.22,-226.68 157.95,-237.27 164.77,-229.16 158.22,-226.68"/>
<text text-anchor="start" x="172.5" y="-211" font-family="Helvetica,sans-Serif" font-size="10.00"> &lt; vanetza::security</text>
<text text-anchor="start" x="172.5" y="-200" font-family="Helvetica,sans-Serif" font-size="10.00">::ecdsa256::PublicKey,</text>
<text text-anchor="middle" x="222.5" y="-189" font-family="Helvetica,sans-Serif" font-size="10.00"> PublicKey &gt;</text>
</g>
</g>
</svg>
