<?xml version="1.0" encoding="UTF-8" standalone="no"?>
<!DOCTYPE svg PUBLIC "-//W3C//DTD SVG 1.1//EN"
 "http://www.w3.org/Graphics/SVG/1.1/DTD/svg11.dtd">
<!-- Generated by graphviz version 2.42.1 (0)
 -->
<!-- Title: vanetza::LruCache&lt; KEY, VALUE, GENERATOR &gt; Pages: 1 -->
<svg width="283pt" height="391pt"
 viewBox="0.00 0.00 283.00 391.00" xmlns="http://www.w3.org/2000/svg" xmlns:xlink="http://www.w3.org/1999/xlink">
<g id="graph0" class="graph" transform="scale(1 1) rotate(0) translate(4 387)">
<title>vanetza::LruCache&lt; KEY, VALUE, GENERATOR &gt;</title>
<polygon fill="white" stroke="transparent" points="-4,4 -4,-387 279,-387 279,4 -4,4"/>
<!-- Node0 -->
<g id="node1" class="node">
<title>Node0</title>
<g id="a_node1"><a xlink:title="Least&#45;Recently&#45;Used cache.">
<polygon fill="#bfbfbf" stroke="black" points="43,-237.5 43,-382.5 197,-382.5 197,-237.5 43,-237.5"/>
<text text-anchor="start" x="51" y="-370.5" font-family="Helvetica,sans-Serif" font-size="10.00">vanetza::LruCache&lt;</text>
<text text-anchor="middle" x="120" y="-359.5" font-family="Helvetica,sans-Serif" font-size="10.00"> KEY, VALUE, GENERATOR &gt;</text>
<polyline fill="none" stroke="black" points="43,-352.5 197,-352.5 "/>
<text text-anchor="start" x="51" y="-340.5" font-family="Helvetica,sans-Serif" font-size="10.00">&#45; m_generator</text>
<text text-anchor="start" x="51" y="-329.5" font-family="Helvetica,sans-Serif" font-size="10.00">&#45; m_capacity</text>
<text text-anchor="start" x="51" y="-318.5" font-family="Helvetica,sans-Serif" font-size="10.00">&#45; m_index</text>
<text text-anchor="start" x="51" y="-307.5" font-family="Helvetica,sans-Serif" font-size="10.00">&#45; m_cache</text>
<polyline fill="none" stroke="black" points="43,-300.5 197,-300.5 "/>
<text text-anchor="start" x="51" y="-288.5" font-family="Helvetica,sans-Serif" font-size="10.00">+ LruCache()</text>
<text text-anchor="start" x="51" y="-277.5" font-family="Helvetica,sans-Serif" font-size="10.00">+ operator[]()</text>
<text text-anchor="start" x="51" y="-266.5" font-family="Helvetica,sans-Serif" font-size="10.00">&#45; add()</text>
<text text-anchor="start" x="51" y="-255.5" font-family="Helvetica,sans-Serif" font-size="10.00">&#45; refresh()</text>
<text text-anchor="start" x="51" y="-244.5" font-family="Helvetica,sans-Serif" font-size="10.00">&#45; remove()</text>
</a>
</g>
</g>
<!-- Node1 -->
<g id="node2" class="node">
<title>Node1</title>
<g id="a_node2"><a xlink:href="../../db/d4d/classvanetza_1_1LruCache.html" target="_top" xlink:title=" ">
<polygon fill="white" stroke="black" points="0,-0.5 0,-167.5 110,-167.5 110,-0.5 0,-0.5"/>
<text text-anchor="start" x="8" y="-155.5" font-family="Helvetica,sans-Serif" font-size="10.00">vanetza::LruCache&lt;</text>
<text text-anchor="start" x="8" y="-144.5" font-family="Helvetica,sans-Serif" font-size="10.00"> vanetza::security::</text>
<text text-anchor="start" x="8" y="-133.5" font-family="Helvetica,sans-Serif" font-size="10.00">ecdsa256::PublicKey,</text>
<text text-anchor="middle" x="55" y="-122.5" font-family="Helvetica,sans-Serif" font-size="10.00"> PublicKey &gt;</text>
<polyline fill="none" stroke="black" points="0,-115.5 110,-115.5 "/>
<text text-anchor="start" x="8" y="-103.5" font-family="Helvetica,sans-Serif" font-size="10.00">&#45; m_generator</text>
<text text-anchor="start" x="8" y="-92.5" font-family="Helvetica,sans-Serif" font-size="10.00">&#45; m_capacity</text>
<text text-anchor="start" x="8" y="-81.5" font-family="Helvetica,sans-Serif" font-size="10.00">&#45; m_index</text>
<text text-anchor="start" x="8" y="-70.5" font-family="Helvetica,sans-Serif" font-size="10.00">&#45; m_cache</text>
<polyline fill="none" stroke="black" points="0,-63.5 110,-63.5 "/>
<text text-anchor="start" x="8" y="-51.5" font-family="Helvetica,sans-Serif" font-size="10.00">+ LruCache()</text>
<text text-anchor="start" x="8" y="-40.5" font-family="Helvetica,sans-Serif" font-size="10.00">+ operator[]()</text>
<text text-anchor="start" x="8" y="-29.5" font-family="Helvetica,sans-Serif" font-size="10.00">&#45; add()</text>
<text text-anchor="start" x="8" y="-18.5" font-family="Helvetica,sans-Serif" font-size="10.00">&#45; refresh()</text>
<text text-anchor="start" x="8" y="-7.5" font-family="Helvetica,sans-Serif" font-size="10.00">&#45; remove()</text>
</a>
</g>
</g>
<!-- Node0&#45;&gt;Node1 -->
<g id="edge1" class="edge">
<title>Node0&#45;&gt;Node1</title>
<path fill="none" stroke="orange" d="M66.24,-227.94C65.05,-224.97 63.96,-221.98 63,-219 57.78,-202.81 54.88,-184.96 53.41,-167.71"/>
<polygon fill="orange" stroke="orange" points="63.14,-229.6 70.35,-237.36 69.56,-226.8 63.14,-229.6"/>
<text text-anchor="start" x="63" y="-211" font-family="Helvetica,sans-Serif" font-size="10.00"> &lt; vanetza::security</text>
<text text-anchor="start" x="63" y="-200" font-family="Helvetica,sans-Serif" font-size="10.00">::ecdsa256::PublicKey,</text>
<text text-anchor="middle" x="113" y="-189" font-family="Helvetica,sans-Serif" font-size="10.00"> PublicKey &gt;</text>
</g>
<!-- Node2 -->
<g id="node3" class="node">
<title>Node2</title>
<g id="a_node3"><a xlink:href="../../db/d4d/classvanetza_1_1LruCache.html" target="_top" xlink:title=" ">
<polygon fill="white" stroke="black" points="128,-0.5 128,-167.5 242,-167.5 242,-0.5 128,-0.5"/>
<text text-anchor="start" x="136" y="-155.5" font-family="Helvetica,sans-Serif" font-size="10.00">vanetza::LruCache&lt;</text>
<text text-anchor="start" x="136" y="-144.5" font-family="Helvetica,sans-Serif" font-size="10.00"> vanetza::security::</text>
<text text-anchor="start" x="136" y="-133.5" font-family="Helvetica,sans-Serif" font-size="10.00">ecdsa256::PrivateKey,</text>
<text text-anchor="middle" x="185" y="-122.5" font-family="Helvetica,sans-Serif" font-size="10.00"> PrivateKey &gt;</text>
<polyline fill="none" stroke="black" points="128,-115.5 242,-115.5 "/>
<text text-anchor="start" x="136" y="-103.5" font-family="Helvetica,sans-Serif" font-size="10.00">&#45; m_generator</text>
<text text-anchor="start" x="136" y="-92.5" font-family="Helvetica,sans-Serif" font-size="10.00">&#45; m_capacity</text>
<text text-anchor="start" x="136" y="-81.5" font-family="Helvetica,sans-Serif" font-size="10.00">&#45; m_index</text>
<text text-anchor="start" x="136" y="-70.5" font-family="Helvetica,sans-Serif" font-size="10.00">&#45; m_cache</text>
<polyline fill="none" stroke="black" points="128,-63.5 242,-63.5 "/>
<text text-anchor="start" x="136" y="-51.5" font-family="Helvetica,sans-Serif" font-size="10.00">+ LruCache()</text>
<text text-anchor="start" x="136" y="-40.5" font-family="Helvetica,sans-Serif" font-size="10.00">+ operator[]()</text>
<text text-anchor="start" x="136" y="-29.5" font-family="Helvetica,sans-Serif" font-size="10.00">&#45; add()</text>
<text text-anchor="start" x="136" y="-18.5" font-family="Helvetica,sans-Serif" font-size="10.00">&#45; refresh()</text>
<text text-anchor="start" x="136" y="-7.5" font-family="Helvetica,sans-Serif" font-size="10.00">&#45; remove()</text>
</a>
</g>
</g>
<!-- Node0&#45;&gt;Node2 -->
<g id="edge2" class="edge">
<title>Node0&#45;&gt;Node2</title>
<path fill="none" stroke="orange" d="M160.03,-227.82C161.09,-224.87 162.08,-221.92 163,-219 168.12,-202.69 172.1,-184.87 175.19,-167.71"/>
<polygon fill="orange" stroke="orange" points="156.72,-226.68 156.45,-237.27 163.27,-229.16 156.72,-226.68"/>
<text text-anchor="start" x="171" y="-211" font-family="Helvetica,sans-Serif" font-size="10.00"> &lt; vanetza::security</text>
<text text-anchor="start" x="171" y="-200" font-family="Helvetica,sans-Serif" font-size="10.00">::ecdsa256::PrivateKey,</text>
<text text-anchor="middle" x="223" y="-189" font-family="Helvetica,sans-Serif" font-size="10.00"> PrivateKey &gt;</text>
</g>
</g>
</svg>
