<?xml version="1.0" encoding="UTF-8" standalone="no"?>
<!DOCTYPE svg PUBLIC "-//W3C//DTD SVG 1.1//EN"
 "http://www.w3.org/Graphics/SVG/1.1/DTD/svg11.dtd">
<!-- Generated by graphviz version 14.1.2 (0)
 -->
<!-- Title: vanetza::InputArchive::Exception Pages: 1 -->
<svg width="123pt" height="165pt"
 viewBox="0.00 0.00 123.00 165.00" xmlns="http://www.w3.org/2000/svg" xmlns:xlink="http://www.w3.org/1999/xlink">
<g id="graph0" class="graph" transform="scale(1 1) rotate(0) translate(4 161.25)">
<title>vanetza::InputArchive::Exception</title>
<!-- Node1 -->
<g id="Node000001" class="node">
<title>Node1</title>
<g id="a_Node000001"><a xlink:title=" ">
<polygon fill="#999999" stroke="none" points="114.5,-67 0,-67 0,0 114.5,0 114.5,-67"/>
<text xml:space="preserve" text-anchor="start" x="4" y="-53.5" font-family="Helvetica,sans-Serif" font-size="10.00">vanetza::InputArchive</text>
<text xml:space="preserve" text-anchor="start" x="30.25" y="-40.75" font-family="Helvetica,sans-Serif" font-size="10.00">::Exception</text>
<text xml:space="preserve" text-anchor="start" x="55.75" y="-24" font-family="Helvetica,sans-Serif" font-size="10.00"> </text>
<text xml:space="preserve" text-anchor="start" x="55.75" y="-7.25" font-family="Helvetica,sans-Serif" font-size="10.00"> </text>
<polygon fill="#666666" stroke="#666666" points="0,-35.5 0,-35.5 114.5,-35.5 114.5,-35.5 0,-35.5"/>
<polygon fill="#666666" stroke="#666666" points="0,-18.75 0,-18.75 114.5,-18.75 114.5,-18.75 0,-18.75"/>
<polygon fill="none" stroke="#666666" points="0,0 0,-67 114.5,-67 114.5,0 0,0"/>
</a>
</g>
</g>
<!-- Node2 -->
<g id="Node000002" class="node">
<title>Node2</title>
<g id="a_Node000002"><a xlink:title=" ">
<polygon fill="white" stroke="none" points="105.12,-157.25 9.38,-157.25 9.38,-103 105.12,-103 105.12,-157.25"/>
<text xml:space="preserve" text-anchor="start" x="13.38" y="-143.75" font-family="Helvetica,sans-Serif" font-size="10.00">std::runtime_error</text>
<text xml:space="preserve" text-anchor="start" x="55.75" y="-127" font-family="Helvetica,sans-Serif" font-size="10.00"> </text>
<text xml:space="preserve" text-anchor="start" x="55.75" y="-110.25" font-family="Helvetica,sans-Serif" font-size="10.00"> </text>
<polygon fill="#bfbfbf" stroke="#bfbfbf" points="9.38,-138.5 9.38,-138.5 105.12,-138.5 105.12,-138.5 9.38,-138.5"/>
<polygon fill="#bfbfbf" stroke="#bfbfbf" points="9.38,-121.75 9.38,-121.75 105.12,-121.75 105.12,-121.75 9.38,-121.75"/>
<polygon fill="none" stroke="#bfbfbf" points="9.38,-103 9.38,-157.25 105.12,-157.25 105.12,-103 9.38,-103"/>
</a>
</g>
</g>
<!-- Node2&#45;&gt;Node1 -->
<g id="edge1_Node000001_Node000002" class="edge">
<title>Node2&#45;&gt;Node1</title>
<g id="a_edge1_Node000001_Node000002"><a xlink:title=" ">
<path fill="none" stroke="#63b8ff" d="M57.25,-91.51C57.25,-83.38 57.25,-74.85 57.25,-66.94"/>
<polygon fill="none" stroke="#63b8ff" points="53.75,-91.5 57.25,-101.5 60.75,-91.5 53.75,-91.5"/>
</a>
</g>
</g>
</g>
</svg>
