<?xml version="1.0" encoding="UTF-8" standalone="no"?>
<!DOCTYPE svg PUBLIC "-//W3C//DTD SVG 1.1//EN"
 "http://www.w3.org/Graphics/SVG/1.1/DTD/svg11.dtd">
<!-- Generated by graphviz version 2.42.1 (0)
 -->
<!-- Title: vanetza::InputArchive::Exception Pages: 1 -->
<svg width="120pt" height="265pt"
 viewBox="0.00 0.00 120.00 265.00" xmlns="http://www.w3.org/2000/svg" xmlns:xlink="http://www.w3.org/1999/xlink">
<g id="graph0" class="graph" transform="scale(1 1) rotate(0) translate(4 261)">
<title>vanetza::InputArchive::Exception</title>
<polygon fill="white" stroke="transparent" points="-4,4 -4,-261 116,-261 116,4 -4,4"/>
<!-- Node0 -->
<g id="node1" class="node">
<title>Node0</title>
<g id="a_node1"><a xlink:title=" ">
<polygon fill="#bfbfbf" stroke="black" points="0,-0.5 0,-68.5 112,-68.5 112,-0.5 0,-0.5"/>
<text text-anchor="start" x="8" y="-56.5" font-family="Helvetica,sans-Serif" font-size="10.00">vanetza::InputArchive</text>
<text text-anchor="middle" x="56" y="-45.5" font-family="Helvetica,sans-Serif" font-size="10.00">::Exception</text>
<polyline fill="none" stroke="black" points="0,-38.5 112,-38.5 "/>
<text text-anchor="middle" x="56" y="-26.5" font-family="Helvetica,sans-Serif" font-size="10.00"> </text>
<polyline fill="none" stroke="black" points="0,-19.5 112,-19.5 "/>
<text text-anchor="middle" x="56" y="-7.5" font-family="Helvetica,sans-Serif" font-size="10.00"> </text>
</a>
</g>
</g>
<!-- Node1 -->
<g id="node2" class="node">
<title>Node1</title>
<g id="a_node2"><a xlink:title="STL class.">
<polygon fill="white" stroke="#bfbfbf" points="9.5,-105.5 9.5,-162.5 102.5,-162.5 102.5,-105.5 9.5,-105.5"/>
<text text-anchor="middle" x="56" y="-150.5" font-family="Helvetica,sans-Serif" font-size="10.00">std::runtime_error</text>
<polyline fill="none" stroke="#bfbfbf" points="9.5,-143.5 102.5,-143.5 "/>
<text text-anchor="middle" x="56" y="-131.5" font-family="Helvetica,sans-Serif" font-size="10.00"> </text>
<polyline fill="none" stroke="#bfbfbf" points="9.5,-124.5 102.5,-124.5 "/>
<text text-anchor="middle" x="56" y="-112.5" font-family="Helvetica,sans-Serif" font-size="10.00"> </text>
</a>
</g>
</g>
<!-- Node1&#45;&gt;Node0 -->
<g id="edge1" class="edge">
<title>Node1&#45;&gt;Node0</title>
<path fill="none" stroke="midnightblue" d="M56,-95.06C56,-86.39 56,-77.24 56,-68.79"/>
<polygon fill="none" stroke="midnightblue" points="52.5,-95.32 56,-105.32 59.5,-95.32 52.5,-95.32"/>
</g>
<!-- Node2 -->
<g id="node3" class="node">
<title>Node2</title>
<g id="a_node3"><a xlink:title="STL class.">
<polygon fill="white" stroke="#bfbfbf" points="17,-199.5 17,-256.5 95,-256.5 95,-199.5 17,-199.5"/>
<text text-anchor="middle" x="56" y="-244.5" font-family="Helvetica,sans-Serif" font-size="10.00">std::exception</text>
<polyline fill="none" stroke="#bfbfbf" points="17,-237.5 95,-237.5 "/>
<text text-anchor="middle" x="56" y="-225.5" font-family="Helvetica,sans-Serif" font-size="10.00"> </text>
<polyline fill="none" stroke="#bfbfbf" points="17,-218.5 95,-218.5 "/>
<text text-anchor="middle" x="56" y="-206.5" font-family="Helvetica,sans-Serif" font-size="10.00"> </text>
</a>
</g>
</g>
<!-- Node2&#45;&gt;Node1 -->
<g id="edge2" class="edge">
<title>Node2&#45;&gt;Node1</title>
<path fill="none" stroke="midnightblue" d="M56,-189.21C56,-180.29 56,-170.95 56,-162.58"/>
<polygon fill="none" stroke="midnightblue" points="52.5,-189.4 56,-199.4 59.5,-189.4 52.5,-189.4"/>
</g>
</g>
</svg>
