<?xml version="1.0" encoding="UTF-8" standalone="no"?>
<!DOCTYPE svg PUBLIC "-//W3C//DTD SVG 1.1//EN"
 "http://www.w3.org/Graphics/SVG/1.1/DTD/svg11.dtd">
<!-- Generated by graphviz version 14.1.2 (0)
 -->
<!-- Title: vanetza::asn1::r1::Cpm Pages: 1 -->
<!--zoomable 979 -->

<svg id="main" version="1.1" xmlns="http://www.w3.org/2000/svg" xmlns:xlink="http://www.w3.org/1999/xlink" xml:space="preserve" onload="init(evt)">

<style type="text/css"><![CDATA[
.node, .edge {opacity: 0.7;}
.node.selected, .edge.selected {opacity: 1;}
.edge:hover path { stroke: red; }
.edge:hover polygon { stroke: red; fill: red; }
]]></style>

<defs>
  <circle id="rim" cx="0" cy="0" r="7"/>
  <circle id="rim2" cx="0" cy="0" r="3.5"/>
  <g id="zoomPlus">
    <use xlink:href="#rim" fill="#404040"><set attributeName="fill" to="#808080" begin="zoomplus.mouseover" end="zoomplus.mouseout"/></use>
    <path d="M-4,0h8M0,-4v8" fill="none" stroke="white" stroke-width="1.5" pointer-events="none"/>
  </g>
  <g id="zoomMin">
    <use xlink:href="#rim" fill="#404040"><set attributeName="fill" to="#808080" begin="zoomminus.mouseover" end="zoomminus.mouseout"/></use>
    <path d="M-4,0h8" fill="none" stroke="white" stroke-width="1.5" pointer-events="none"/>
  </g>
  <g id="arrowUp" transform="translate(30 24)">
    <use xlink:href="#rim"/>
    <path pointer-events="none" fill="none" stroke="white" stroke-width="1.5" d="M0,-3.0v7 M-2.5,-0.5L0,-3.0L2.5,-0.5"/>
  </g>
  <g id="arrowRight" transform="rotate(90) translate(36 -43)">
    <use xlink:href="#rim"/>
    <path pointer-events="none" fill="none" stroke="white" stroke-width="1.5" d="M0,-3.0v7 M-2.5,-0.5L0,-3.0L2.5,-0.5"/>
  </g>
  <g id="arrowDown" transform="rotate(180) translate(-30 -48)">
    <use xlink:href="#rim"/>
    <path pointer-events="none" fill="none" stroke="white" stroke-width="1.5" d="M0,-3.0v7 M-2.5,-0.5L0,-3.0L2.5,-0.5"/>
  </g>
  <g id="arrowLeft" transform="rotate(270) translate(-36 17)">
    <use xlink:href="#rim"/>
    <path pointer-events="none" fill="none" stroke="white" stroke-width="1.5" d="M0,-3.0v7 M-2.5,-0.5L0,-3.0L2.5,-0.5"/>
  </g>
  <g id="resetDef">
    <use xlink:href="#rim2" fill="#404040"><set attributeName="fill" to="#808080" begin="reset.mouseover" end="reset.mouseout"/></use>
  </g>
</defs>
<script type="application/ecmascript">
var viewWidth = 342;
var viewHeight = 979;
var sectionId = 'dynsection-0';
</script>
<script type="application/ecmascript" xlink:href="../../svg.min.js"/>
<svg id="graph" class="graph">
<g id="viewport">
<title>vanetza::asn1::r1::Cpm</title>
<!-- Node1 -->
<g id="Node000001" class="node">
<title>Node1</title>
<g id="a_Node000001"><a xlink:title=" ">
<polygon fill="#999999" stroke="none" points="220,-54.25 99.5,-54.25 99.5,0 220,0 220,-54.25"/>
<text xml:space="preserve" text-anchor="start" x="103.5" y="-40.75" font-family="Helvetica,sans-Serif" font-size="10.00">vanetza::asn1::r1::Cpm</text>
<text xml:space="preserve" text-anchor="start" x="158.25" y="-24" font-family="Helvetica,sans-Serif" font-size="10.00"> </text>
<text xml:space="preserve" text-anchor="start" x="121.06" y="-7.25" font-family="Helvetica,sans-Serif" font-size="10.00">+</text>
<text xml:space="preserve" text-anchor="start" x="150.88" y="-7.25" font-family="Helvetica,sans-Serif" font-size="10.00">Cpm()</text>
<polygon fill="#666666" stroke="#666666" points="99.5,-35.5 99.5,-35.5 220,-35.5 220,-35.5 99.5,-35.5"/>
<polygon fill="#666666" stroke="#666666" points="99.5,-18.75 99.5,-18.75 220,-18.75 220,-18.75 99.5,-18.75"/>
<polygon fill="none" stroke="#666666" points="99.5,0 99.5,-54.25 220,-54.25 220,0 99.5,0"/>
</a>
</g>
</g>
<!-- Node2 -->
<g id="Node000002" class="node">
<title>Node2</title>
<g id="a_Node000002"><a xlink:href="../../dc/dbf/classvanetza_1_1asn1_1_1asn1c__per__wrapper.html" target="_top" xlink:title=" ">
<polygon fill="white" stroke="none" points="223.38,-342.5 96.12,-342.5 96.12,-91.25 223.38,-91.25 223.38,-342.5"/>
<text xml:space="preserve" text-anchor="start" x="100.12" y="-329" font-family="Helvetica,sans-Serif" font-size="10.00">vanetza::asn1::asn1c</text>
<text xml:space="preserve" text-anchor="start" x="100.12" y="-316.25" font-family="Helvetica,sans-Serif" font-size="10.00">_per_wrapper&lt; CPM_t &gt;</text>
<text xml:space="preserve" text-anchor="start" x="110.56" y="-299.5" font-family="Helvetica,sans-Serif" font-size="10.00">#</text>
<text xml:space="preserve" text-anchor="start" x="133.25" y="-299.5" font-family="Helvetica,sans-Serif" font-size="10.00">m_struct</text>
<text xml:space="preserve" text-anchor="start" x="110.56" y="-282.75" font-family="Helvetica,sans-Serif" font-size="10.00">#</text>
<text xml:space="preserve" text-anchor="start" x="133.25" y="-282.75" font-family="Helvetica,sans-Serif" font-size="10.00">m_type</text>
<text xml:space="preserve" text-anchor="start" x="110.56" y="-266" font-family="Helvetica,sans-Serif" font-size="10.00">+</text>
<text xml:space="preserve" text-anchor="start" x="133.25" y="-266" font-family="Helvetica,sans-Serif" font-size="10.00">encode()</text>
<text xml:space="preserve" text-anchor="start" x="110.56" y="-249.25" font-family="Helvetica,sans-Serif" font-size="10.00">+</text>
<text xml:space="preserve" text-anchor="start" x="133.25" y="-249.25" font-family="Helvetica,sans-Serif" font-size="10.00">decode()</text>
<text xml:space="preserve" text-anchor="start" x="110.56" y="-232.5" font-family="Helvetica,sans-Serif" font-size="10.00">+</text>
<text xml:space="preserve" text-anchor="start" x="133.25" y="-232.5" font-family="Helvetica,sans-Serif" font-size="10.00">size()</text>
<text xml:space="preserve" text-anchor="start" x="110.56" y="-215.75" font-family="Helvetica,sans-Serif" font-size="10.00">+</text>
<text xml:space="preserve" text-anchor="start" x="133.25" y="-215.75" font-family="Helvetica,sans-Serif" font-size="10.00">operator*()</text>
<text xml:space="preserve" text-anchor="start" x="110.56" y="-199" font-family="Helvetica,sans-Serif" font-size="10.00">+</text>
<text xml:space="preserve" text-anchor="start" x="133.25" y="-199" font-family="Helvetica,sans-Serif" font-size="10.00">operator*()</text>
<text xml:space="preserve" text-anchor="start" x="110.56" y="-182.25" font-family="Helvetica,sans-Serif" font-size="10.00">+</text>
<text xml:space="preserve" text-anchor="start" x="133.25" y="-182.25" font-family="Helvetica,sans-Serif" font-size="10.00">operator&#45;&gt;()</text>
<text xml:space="preserve" text-anchor="start" x="110.56" y="-165.5" font-family="Helvetica,sans-Serif" font-size="10.00">+</text>
<text xml:space="preserve" text-anchor="start" x="133.25" y="-165.5" font-family="Helvetica,sans-Serif" font-size="10.00">operator&#45;&gt;()</text>
<text xml:space="preserve" text-anchor="start" x="110.56" y="-148.75" font-family="Helvetica,sans-Serif" font-size="10.00">+</text>
<text xml:space="preserve" text-anchor="start" x="133.25" y="-148.75" font-family="Helvetica,sans-Serif" font-size="10.00">content()</text>
<text xml:space="preserve" text-anchor="start" x="110.56" y="-132" font-family="Helvetica,sans-Serif" font-size="10.00">+</text>
<text xml:space="preserve" text-anchor="start" x="133.25" y="-132" font-family="Helvetica,sans-Serif" font-size="10.00">content()</text>
<text xml:space="preserve" text-anchor="start" x="110.56" y="-115.25" font-family="Helvetica,sans-Serif" font-size="10.00">+</text>
<text xml:space="preserve" text-anchor="start" x="133.25" y="-115.25" font-family="Helvetica,sans-Serif" font-size="10.00">operator==()</text>
<text xml:space="preserve" text-anchor="start" x="133.25" y="-98.5" font-family="Helvetica,sans-Serif" font-size="10.00">and 7 more...</text>
<polygon fill="#bfbfbf" stroke="#bfbfbf" points="96.12,-311 96.12,-311 223.38,-311 223.38,-311 96.12,-311"/>
<polygon fill="#bfbfbf" stroke="#bfbfbf" points="96.12,-277.5 96.12,-277.5 131.25,-277.5 131.25,-277.5 96.12,-277.5"/>
<polygon fill="#bfbfbf" stroke="#bfbfbf" points="131.25,-277.5 131.25,-277.5 223.38,-277.5 223.38,-277.5 131.25,-277.5"/>
<polygon fill="none" stroke="#bfbfbf" points="96.12,-91.25 96.12,-342.5 223.38,-342.5 223.38,-91.25 96.12,-91.25"/>
</a>
</g>
</g>
<!-- Node2&#45;&gt;Node1 -->
<g id="edge1_Node000001_Node000002" class="edge">
<title>Node2&#45;&gt;Node1</title>
<g id="a_edge1_Node000001_Node000002"><a xlink:title=" ">
<path fill="none" stroke="#63b8ff" d="M159.75,-80C159.75,-70.52 159.75,-61.75 159.75,-54.24"/>
<polygon fill="none" stroke="#63b8ff" points="156.25,-79.91 159.75,-89.91 163.25,-79.91 156.25,-79.91"/>
</a>
</g>
</g>
<!-- Node3 -->
<g id="Node000003" class="node">
<title>Node3</title>
<g id="a_Node000003"><a xlink:href="../../d0/d68/classvanetza_1_1asn1_1_1asn1c__wrapper__common.html" target="_top" xlink:title=" ">
<polygon fill="white" stroke="none" points="163.5,-665.25 6,-665.25 6,-397.25 163.5,-397.25 163.5,-665.25"/>
<text xml:space="preserve" text-anchor="start" x="11.62" y="-651.75" font-family="Helvetica,sans-Serif" font-size="10.00">vanetza::asn1::asn1c</text>
<text xml:space="preserve" text-anchor="start" x="11.62" y="-639" font-family="Helvetica,sans-Serif" font-size="10.00">_wrapper_common&lt; CPM_t &gt;</text>
<text xml:space="preserve" text-anchor="start" x="10" y="-622.25" font-family="Helvetica,sans-Serif" font-size="10.00">#</text>
<text xml:space="preserve" text-anchor="start" x="22.25" y="-622.25" font-family="Helvetica,sans-Serif" font-size="10.00">m_struct</text>
<text xml:space="preserve" text-anchor="start" x="10" y="-605.5" font-family="Helvetica,sans-Serif" font-size="10.00">#</text>
<text xml:space="preserve" text-anchor="start" x="22.25" y="-605.5" font-family="Helvetica,sans-Serif" font-size="10.00">m_type</text>
<text xml:space="preserve" text-anchor="start" x="10" y="-588.75" font-family="Helvetica,sans-Serif" font-size="10.00">+</text>
<text xml:space="preserve" text-anchor="start" x="22.25" y="-588.75" font-family="Helvetica,sans-Serif" font-size="10.00">asn1c_wrapper_common()</text>
<text xml:space="preserve" text-anchor="start" x="10" y="-572" font-family="Helvetica,sans-Serif" font-size="10.00">+</text>
<text xml:space="preserve" text-anchor="start" x="22.25" y="-572" font-family="Helvetica,sans-Serif" font-size="10.00">~asn1c_wrapper_common()</text>
<text xml:space="preserve" text-anchor="start" x="10" y="-555.25" font-family="Helvetica,sans-Serif" font-size="10.00">+</text>
<text xml:space="preserve" text-anchor="start" x="22.25" y="-555.25" font-family="Helvetica,sans-Serif" font-size="10.00">operator=()</text>
<text xml:space="preserve" text-anchor="start" x="10" y="-538.5" font-family="Helvetica,sans-Serif" font-size="10.00">+</text>
<text xml:space="preserve" text-anchor="start" x="22.25" y="-538.5" font-family="Helvetica,sans-Serif" font-size="10.00">operator*()</text>
<text xml:space="preserve" text-anchor="start" x="10" y="-521.75" font-family="Helvetica,sans-Serif" font-size="10.00">+</text>
<text xml:space="preserve" text-anchor="start" x="22.25" y="-521.75" font-family="Helvetica,sans-Serif" font-size="10.00">operator&#45;&gt;()</text>
<text xml:space="preserve" text-anchor="start" x="10" y="-505" font-family="Helvetica,sans-Serif" font-size="10.00">+</text>
<text xml:space="preserve" text-anchor="start" x="22.25" y="-505" font-family="Helvetica,sans-Serif" font-size="10.00">content()</text>
<text xml:space="preserve" text-anchor="start" x="10" y="-488.25" font-family="Helvetica,sans-Serif" font-size="10.00">+</text>
<text xml:space="preserve" text-anchor="start" x="22.25" y="-488.25" font-family="Helvetica,sans-Serif" font-size="10.00">operator==()</text>
<text xml:space="preserve" text-anchor="start" x="10" y="-471.5" font-family="Helvetica,sans-Serif" font-size="10.00">+</text>
<text xml:space="preserve" text-anchor="start" x="22.25" y="-471.5" font-family="Helvetica,sans-Serif" font-size="10.00">operator!=()</text>
<text xml:space="preserve" text-anchor="start" x="10" y="-454.75" font-family="Helvetica,sans-Serif" font-size="10.00">+</text>
<text xml:space="preserve" text-anchor="start" x="22.25" y="-454.75" font-family="Helvetica,sans-Serif" font-size="10.00">validate()</text>
<text xml:space="preserve" text-anchor="start" x="10" y="-438" font-family="Helvetica,sans-Serif" font-size="10.00">+</text>
<text xml:space="preserve" text-anchor="start" x="22.25" y="-438" font-family="Helvetica,sans-Serif" font-size="10.00">compare()</text>
<text xml:space="preserve" text-anchor="start" x="10" y="-421.25" font-family="Helvetica,sans-Serif" font-size="10.00">+</text>
<text xml:space="preserve" text-anchor="start" x="22.25" y="-421.25" font-family="Helvetica,sans-Serif" font-size="10.00">print()</text>
<text xml:space="preserve" text-anchor="start" x="10" y="-404.5" font-family="Helvetica,sans-Serif" font-size="10.00">+</text>
<text xml:space="preserve" text-anchor="start" x="22.25" y="-404.5" font-family="Helvetica,sans-Serif" font-size="10.00">swap()</text>
<polygon fill="#bfbfbf" stroke="#bfbfbf" points="6,-633.75 6,-633.75 163.5,-633.75 163.5,-633.75 6,-633.75"/>
<polygon fill="#bfbfbf" stroke="#bfbfbf" points="6,-600.25 6,-600.25 20.25,-600.25 20.25,-600.25 6,-600.25"/>
<polygon fill="#bfbfbf" stroke="#bfbfbf" points="20.25,-600.25 20.25,-600.25 163.5,-600.25 163.5,-600.25 20.25,-600.25"/>
<polygon fill="none" stroke="#bfbfbf" points="6,-397.25 6,-665.25 163.5,-665.25 163.5,-397.25 6,-397.25"/>
</a>
</g>
</g>
<!-- Node3&#45;&gt;Node2 -->
<g id="edge2_Node000002_Node000003" class="edge">
<title>Node3&#45;&gt;Node2</title>
<g id="a_edge2_Node000002_Node000003"><a xlink:title=" ">
<path fill="none" stroke="#63b8ff" d="M119.35,-386.15C122.87,-371.48 126.42,-356.68 129.89,-342.25"/>
<polygon fill="none" stroke="#63b8ff" points="115.95,-385.31 117.02,-395.85 122.76,-386.94 115.95,-385.31"/>
</a>
</g>
</g>
<!-- Node4 -->
<g id="Node000004" class="node">
<title>Node4</title>
<g id="a_Node000004"><a xlink:href="../../d0/d68/classvanetza_1_1asn1_1_1asn1c__wrapper__common.html" target="_top" xlink:title=" ">
<polygon fill="white" stroke="none" points="157.5,-971.25 0,-971.25 0,-720 157.5,-720 157.5,-971.25"/>
<text xml:space="preserve" text-anchor="start" x="18" y="-957.75" font-family="Helvetica,sans-Serif" font-size="10.00">vanetza::asn1::asn1c</text>
<text xml:space="preserve" text-anchor="start" x="18" y="-945" font-family="Helvetica,sans-Serif" font-size="10.00">_wrapper_common&lt; T &gt;</text>
<text xml:space="preserve" text-anchor="start" x="4" y="-928.25" font-family="Helvetica,sans-Serif" font-size="10.00">#</text>
<text xml:space="preserve" text-anchor="start" x="16.25" y="-928.25" font-family="Helvetica,sans-Serif" font-size="10.00">m_struct</text>
<text xml:space="preserve" text-anchor="start" x="4" y="-911.5" font-family="Helvetica,sans-Serif" font-size="10.00">#</text>
<text xml:space="preserve" text-anchor="start" x="16.25" y="-911.5" font-family="Helvetica,sans-Serif" font-size="10.00">m_type</text>
<text xml:space="preserve" text-anchor="start" x="4" y="-894.75" font-family="Helvetica,sans-Serif" font-size="10.00">+</text>
<text xml:space="preserve" text-anchor="start" x="16.25" y="-894.75" font-family="Helvetica,sans-Serif" font-size="10.00">asn1c_wrapper_common()</text>
<text xml:space="preserve" text-anchor="start" x="4" y="-878" font-family="Helvetica,sans-Serif" font-size="10.00">+</text>
<text xml:space="preserve" text-anchor="start" x="16.25" y="-878" font-family="Helvetica,sans-Serif" font-size="10.00">asn1c_wrapper_common()</text>
<text xml:space="preserve" text-anchor="start" x="4" y="-861.25" font-family="Helvetica,sans-Serif" font-size="10.00">+</text>
<text xml:space="preserve" text-anchor="start" x="16.25" y="-861.25" font-family="Helvetica,sans-Serif" font-size="10.00">~asn1c_wrapper_common()</text>
<text xml:space="preserve" text-anchor="start" x="4" y="-844.5" font-family="Helvetica,sans-Serif" font-size="10.00">+</text>
<text xml:space="preserve" text-anchor="start" x="16.25" y="-844.5" font-family="Helvetica,sans-Serif" font-size="10.00">asn1c_wrapper_common()</text>
<text xml:space="preserve" text-anchor="start" x="4" y="-827.75" font-family="Helvetica,sans-Serif" font-size="10.00">+</text>
<text xml:space="preserve" text-anchor="start" x="16.25" y="-827.75" font-family="Helvetica,sans-Serif" font-size="10.00">operator=()</text>
<text xml:space="preserve" text-anchor="start" x="4" y="-811" font-family="Helvetica,sans-Serif" font-size="10.00">+</text>
<text xml:space="preserve" text-anchor="start" x="16.25" y="-811" font-family="Helvetica,sans-Serif" font-size="10.00">asn1c_wrapper_common()</text>
<text xml:space="preserve" text-anchor="start" x="4" y="-794.25" font-family="Helvetica,sans-Serif" font-size="10.00">+</text>
<text xml:space="preserve" text-anchor="start" x="16.25" y="-794.25" font-family="Helvetica,sans-Serif" font-size="10.00">operator=()</text>
<text xml:space="preserve" text-anchor="start" x="4" y="-777.5" font-family="Helvetica,sans-Serif" font-size="10.00">+</text>
<text xml:space="preserve" text-anchor="start" x="16.25" y="-777.5" font-family="Helvetica,sans-Serif" font-size="10.00">operator*()</text>
<text xml:space="preserve" text-anchor="start" x="4" y="-760.75" font-family="Helvetica,sans-Serif" font-size="10.00">+</text>
<text xml:space="preserve" text-anchor="start" x="16.25" y="-760.75" font-family="Helvetica,sans-Serif" font-size="10.00">operator&#45;&gt;()</text>
<text xml:space="preserve" text-anchor="start" x="4" y="-744" font-family="Helvetica,sans-Serif" font-size="10.00">+</text>
<text xml:space="preserve" text-anchor="start" x="16.25" y="-744" font-family="Helvetica,sans-Serif" font-size="10.00">operator*()</text>
<text xml:space="preserve" text-anchor="start" x="16.25" y="-727.25" font-family="Helvetica,sans-Serif" font-size="10.00">and 11 more...</text>
<polygon fill="#bfbfbf" stroke="#bfbfbf" points="0,-939.75 0,-939.75 157.5,-939.75 157.5,-939.75 0,-939.75"/>
<polygon fill="#bfbfbf" stroke="#bfbfbf" points="0,-906.25 0,-906.25 14.25,-906.25 14.25,-906.25 0,-906.25"/>
<polygon fill="#bfbfbf" stroke="#bfbfbf" points="14.25,-906.25 14.25,-906.25 157.5,-906.25 157.5,-906.25 14.25,-906.25"/>
<polygon fill="none" stroke="#bfbfbf" points="0,-720 0,-971.25 157.5,-971.25 157.5,-720 0,-720"/>
</a>
</g>
</g>
<!-- Node4&#45;&gt;Node3 -->
<g id="edge3_Node000003_Node000004" class="edge">
<title>Node4&#45;&gt;Node3</title>
<g id="a_edge3_Node000003_Node000004"><a xlink:title=" ">
<path fill="none" stroke="orange" d="M81.35,-709.16C81.63,-694.56 81.92,-679.72 82.2,-665.15"/>
<polygon fill="orange" stroke="orange" points="77.86,-708.69 81.17,-718.76 84.86,-708.82 77.86,-708.69"/>
</a>
</g>
<text xml:space="preserve" text-anchor="start" x="84.75" y="-689.5" font-family="Helvetica,sans-Serif" font-size="10.00" fill="grey">&lt; CPM_t &gt;</text>
</g>
<!-- Node5 -->
<g id="Node000005" class="node">
<title>Node5</title>
<g id="a_Node000005"><a xlink:href="../../dc/dbf/classvanetza_1_1asn1_1_1asn1c__per__wrapper.html" target="_top" xlink:title=" ">
<polygon fill="white" stroke="none" points="304.12,-598.25 193.38,-598.25 193.38,-464.25 304.12,-464.25 304.12,-598.25"/>
<text xml:space="preserve" text-anchor="start" x="197.38" y="-584.75" font-family="Helvetica,sans-Serif" font-size="10.00">vanetza::asn1::asn1c</text>
<text xml:space="preserve" text-anchor="start" x="201.5" y="-572" font-family="Helvetica,sans-Serif" font-size="10.00">_per_wrapper&lt; T &gt;</text>
<text xml:space="preserve" text-anchor="start" x="247.25" y="-555.25" font-family="Helvetica,sans-Serif" font-size="10.00"> </text>
<text xml:space="preserve" text-anchor="start" x="209.31" y="-538.5" font-family="Helvetica,sans-Serif" font-size="10.00">+</text>
<text xml:space="preserve" text-anchor="start" x="233.5" y="-538.5" font-family="Helvetica,sans-Serif" font-size="10.00">encode()</text>
<text xml:space="preserve" text-anchor="start" x="209.31" y="-521.75" font-family="Helvetica,sans-Serif" font-size="10.00">+</text>
<text xml:space="preserve" text-anchor="start" x="233.5" y="-521.75" font-family="Helvetica,sans-Serif" font-size="10.00">decode()</text>
<text xml:space="preserve" text-anchor="start" x="209.31" y="-505" font-family="Helvetica,sans-Serif" font-size="10.00">+</text>
<text xml:space="preserve" text-anchor="start" x="233.5" y="-505" font-family="Helvetica,sans-Serif" font-size="10.00">decode()</text>
<text xml:space="preserve" text-anchor="start" x="209.31" y="-488.25" font-family="Helvetica,sans-Serif" font-size="10.00">+</text>
<text xml:space="preserve" text-anchor="start" x="233.5" y="-488.25" font-family="Helvetica,sans-Serif" font-size="10.00">decode()</text>
<text xml:space="preserve" text-anchor="start" x="209.31" y="-471.5" font-family="Helvetica,sans-Serif" font-size="10.00">+</text>
<text xml:space="preserve" text-anchor="start" x="233.5" y="-471.5" font-family="Helvetica,sans-Serif" font-size="10.00">size()</text>
<polygon fill="#bfbfbf" stroke="#bfbfbf" points="193.38,-566.75 193.38,-566.75 304.12,-566.75 304.12,-566.75 193.38,-566.75"/>
<polygon fill="#bfbfbf" stroke="#bfbfbf" points="193.38,-550 193.38,-550 304.12,-550 304.12,-550 193.38,-550"/>
<polygon fill="none" stroke="#bfbfbf" points="193.38,-464.25 193.38,-598.25 304.12,-598.25 304.12,-464.25 193.38,-464.25"/>
</a>
</g>
</g>
<!-- Node5&#45;&gt;Node2 -->
<g id="edge4_Node000002_Node000005" class="edge">
<title>Node5&#45;&gt;Node2</title>
<g id="a_edge4_Node000002_Node000005"><a xlink:title=" ">
<path fill="none" stroke="orange" d="M226.95,-453.74C217.4,-420.2 205.93,-379.97 195.2,-342.31"/>
<polygon fill="orange" stroke="orange" points="223.46,-454.27 229.57,-462.93 230.2,-452.35 223.46,-454.27"/>
</a>
</g>
<text xml:space="preserve" text-anchor="start" x="207.25" y="-366.75" font-family="Helvetica,sans-Serif" font-size="10.00" fill="grey">&lt; CPM_t &gt;</text>
</g>
<!-- Node6 -->
<g id="Node000006" class="node">
<title>Node6</title>
<g id="a_Node000006"><a xlink:href="../../d0/d68/classvanetza_1_1asn1_1_1asn1c__wrapper__common.html" target="_top" xlink:title=" ">
<polygon fill="white" stroke="none" points="333.5,-971.25 176,-971.25 176,-720 333.5,-720 333.5,-971.25"/>
<text xml:space="preserve" text-anchor="start" x="194" y="-957.75" font-family="Helvetica,sans-Serif" font-size="10.00">vanetza::asn1::asn1c</text>
<text xml:space="preserve" text-anchor="start" x="194" y="-945" font-family="Helvetica,sans-Serif" font-size="10.00">_wrapper_common&lt; T &gt;</text>
<text xml:space="preserve" text-anchor="start" x="180" y="-928.25" font-family="Helvetica,sans-Serif" font-size="10.00">#</text>
<text xml:space="preserve" text-anchor="start" x="192.25" y="-928.25" font-family="Helvetica,sans-Serif" font-size="10.00">m_struct</text>
<text xml:space="preserve" text-anchor="start" x="180" y="-911.5" font-family="Helvetica,sans-Serif" font-size="10.00">#</text>
<text xml:space="preserve" text-anchor="start" x="192.25" y="-911.5" font-family="Helvetica,sans-Serif" font-size="10.00">m_type</text>
<text xml:space="preserve" text-anchor="start" x="180" y="-894.75" font-family="Helvetica,sans-Serif" font-size="10.00">+</text>
<text xml:space="preserve" text-anchor="start" x="192.25" y="-894.75" font-family="Helvetica,sans-Serif" font-size="10.00">asn1c_wrapper_common()</text>
<text xml:space="preserve" text-anchor="start" x="180" y="-878" font-family="Helvetica,sans-Serif" font-size="10.00">+</text>
<text xml:space="preserve" text-anchor="start" x="192.25" y="-878" font-family="Helvetica,sans-Serif" font-size="10.00">asn1c_wrapper_common()</text>
<text xml:space="preserve" text-anchor="start" x="180" y="-861.25" font-family="Helvetica,sans-Serif" font-size="10.00">+</text>
<text xml:space="preserve" text-anchor="start" x="192.25" y="-861.25" font-family="Helvetica,sans-Serif" font-size="10.00">~asn1c_wrapper_common()</text>
<text xml:space="preserve" text-anchor="start" x="180" y="-844.5" font-family="Helvetica,sans-Serif" font-size="10.00">+</text>
<text xml:space="preserve" text-anchor="start" x="192.25" y="-844.5" font-family="Helvetica,sans-Serif" font-size="10.00">asn1c_wrapper_common()</text>
<text xml:space="preserve" text-anchor="start" x="180" y="-827.75" font-family="Helvetica,sans-Serif" font-size="10.00">+</text>
<text xml:space="preserve" text-anchor="start" x="192.25" y="-827.75" font-family="Helvetica,sans-Serif" font-size="10.00">operator=()</text>
<text xml:space="preserve" text-anchor="start" x="180" y="-811" font-family="Helvetica,sans-Serif" font-size="10.00">+</text>
<text xml:space="preserve" text-anchor="start" x="192.25" y="-811" font-family="Helvetica,sans-Serif" font-size="10.00">asn1c_wrapper_common()</text>
<text xml:space="preserve" text-anchor="start" x="180" y="-794.25" font-family="Helvetica,sans-Serif" font-size="10.00">+</text>
<text xml:space="preserve" text-anchor="start" x="192.25" y="-794.25" font-family="Helvetica,sans-Serif" font-size="10.00">operator=()</text>
<text xml:space="preserve" text-anchor="start" x="180" y="-777.5" font-family="Helvetica,sans-Serif" font-size="10.00">+</text>
<text xml:space="preserve" text-anchor="start" x="192.25" y="-777.5" font-family="Helvetica,sans-Serif" font-size="10.00">operator*()</text>
<text xml:space="preserve" text-anchor="start" x="180" y="-760.75" font-family="Helvetica,sans-Serif" font-size="10.00">+</text>
<text xml:space="preserve" text-anchor="start" x="192.25" y="-760.75" font-family="Helvetica,sans-Serif" font-size="10.00">operator&#45;&gt;()</text>
<text xml:space="preserve" text-anchor="start" x="180" y="-744" font-family="Helvetica,sans-Serif" font-size="10.00">+</text>
<text xml:space="preserve" text-anchor="start" x="192.25" y="-744" font-family="Helvetica,sans-Serif" font-size="10.00">operator*()</text>
<text xml:space="preserve" text-anchor="start" x="192.25" y="-727.25" font-family="Helvetica,sans-Serif" font-size="10.00">and 11 more...</text>
<polygon fill="#bfbfbf" stroke="#bfbfbf" points="176,-939.75 176,-939.75 333.5,-939.75 333.5,-939.75 176,-939.75"/>
<polygon fill="#bfbfbf" stroke="#bfbfbf" points="176,-906.25 176,-906.25 190.25,-906.25 190.25,-906.25 176,-906.25"/>
<polygon fill="#bfbfbf" stroke="#bfbfbf" points="190.25,-906.25 190.25,-906.25 333.5,-906.25 333.5,-906.25 190.25,-906.25"/>
<polygon fill="none" stroke="#bfbfbf" points="176,-720 176,-971.25 333.5,-971.25 333.5,-720 176,-720"/>
</a>
</g>
</g>
<!-- Node6&#45;&gt;Node5 -->
<g id="edge5_Node000005_Node000006" class="edge">
<title>Node6&#45;&gt;Node5</title>
<g id="a_edge5_Node000005_Node000006"><a xlink:title=" ">
<path fill="none" stroke="#63b8ff" d="M252.14,-708.92C251.4,-670.4 250.63,-630.19 250.01,-597.87"/>
<polygon fill="none" stroke="#63b8ff" points="248.64,-708.82 252.33,-718.76 255.64,-708.69 248.64,-708.82"/>
</a>
</g>
</g>
</g>
</svg>

<g id="navigator" transform="translate(0 0)" fill="#404254">
  <rect fill="#f2f5e9" fill-opacity="0.5" stroke="#606060" stroke-width=".5" x="0" y="0" width="60" height="60"/>
  <use id="zoomplus" xlink:href="#zoomPlus" x="17" y="9" onmousedown="handleZoom(evt,'in')"/>
  <use id="zoomminus" xlink:href="#zoomMin" x="42" y="9" onmousedown="handleZoom(evt,'out')"/>
  <use id="reset" xlink:href="#resetDef" x="30" y="36" onmousedown="handleReset()"/>
   <use id="arrowup" xlink:href="#arrowUp" x="0" y="0" onmousedown="handlePan(0,-1)"/>
  <use id="arrowright" xlink:href="#arrowRight" x="0" y="0" onmousedown="handlePan(1,0)"/>
  <use id="arrowdown" xlink:href="#arrowDown" x="0" y="0" onmousedown="handlePan(0,1)"/>
  <use id="arrowleft" xlink:href="#arrowLeft" x="0" y="0" onmousedown="handlePan(-1,0)"/>
</g>
<svg viewBox="0 0 15 15" width="100%" height="30px" preserveAspectRatio="xMaxYMin meet">
 <g id="arrow_out" transform="scale(0.3 0.3)">
  <a xlink:href="classvanetza_1_1asn1_1_1r1_1_1Cpm__inherit__graph_org.svg" target="_base">
   <rect id="button" ry="5" rx="5" y="6" x="6" height="38" width="38"
        fill="#f2f5e9" fill-opacity="0.5" stroke="#606060" stroke-width="1.0"/>
   <path id="arrow"
     d="M 11.500037,31.436501 C 11.940474,20.09759 22.043105,11.32322 32.158766,21.979434 L 37.068811,17.246167 C 37.068811,17.246167 37.088388,32 37.088388,32 L 22.160133,31.978069 C 22.160133,31.978069 26.997745,27.140456 26.997745,27.140456 C 18.528582,18.264221 13.291696,25.230495 11.500037,31.436501 z"
     style="fill:#404040;"/>
  </a>
 </g>
</svg>

<style type='text/css'>
<![CDATA[
[data-mouse-over-selected='false'] { opacity: 0.7; }
[data-mouse-over-selected='true']  { opacity: 1.0; }
]]>
</style>
<script type="application/ecmascript"><![CDATA[
document.addEventListener('DOMContentLoaded', (event) => {
  highlightEdges();
  highlightAdjacentNodes();
});
]]></script>
</svg>
