<?xml version="1.0" encoding="UTF-8" standalone="no"?>
<!DOCTYPE svg PUBLIC "-//W3C//DTD SVG 1.1//EN"
 "http://www.w3.org/Graphics/SVG/1.1/DTD/svg11.dtd">
<!-- Generated by graphviz version 2.49.3 (0)
 -->
<!-- Title: vanetza::asn1::r1::Cpm Pages: 1 -->
<!--zoomable 890 -->

<svg id="main" version="1.1" xmlns="http://www.w3.org/2000/svg" xmlns:xlink="http://www.w3.org/1999/xlink" xml:space="preserve" onload="init(evt)">

<style type="text/css"><![CDATA[
.node, .edge {opacity: 0.7;}
.node.selected, .edge.selected {opacity: 1;}
.edge:hover path { stroke: red; }
.edge:hover polygon { stroke: red; fill: red; }
]]></style>

<defs>
  <circle id="rim" cx="0" cy="0" r="7"/>
  <circle id="rim2" cx="0" cy="0" r="3.5"/>
  <g id="zoomPlus">
    <use xlink:href="#rim" fill="#404040"><set attributeName="fill" to="#808080" begin="zoomplus.mouseover" end="zoomplus.mouseout"/></use>
    <path d="M-4,0h8M0,-4v8" fill="none" stroke="white" stroke-width="1.5" pointer-events="none"/>
  </g>
  <g id="zoomMin">
    <use xlink:href="#rim" fill="#404040"><set attributeName="fill" to="#808080" begin="zoomminus.mouseover" end="zoomminus.mouseout"/></use>
    <path d="M-4,0h8" fill="none" stroke="white" stroke-width="1.5" pointer-events="none"/>
  </g>
  <g id="arrowUp" transform="translate(30 24)">
    <use xlink:href="#rim"/>
    <path pointer-events="none" fill="none" stroke="white" stroke-width="1.5" d="M0,-3.0v7 M-2.5,-0.5L0,-3.0L2.5,-0.5"/>
  </g>
  <g id="arrowRight" transform="rotate(90) translate(36 -43)">
    <use xlink:href="#rim"/>
    <path pointer-events="none" fill="none" stroke="white" stroke-width="1.5" d="M0,-3.0v7 M-2.5,-0.5L0,-3.0L2.5,-0.5"/>
  </g>
  <g id="arrowDown" transform="rotate(180) translate(-30 -48)">
    <use xlink:href="#rim"/>
    <path pointer-events="none" fill="none" stroke="white" stroke-width="1.5" d="M0,-3.0v7 M-2.5,-0.5L0,-3.0L2.5,-0.5"/>
  </g>
  <g id="arrowLeft" transform="rotate(270) translate(-36 17)">
    <use xlink:href="#rim"/>
    <path pointer-events="none" fill="none" stroke="white" stroke-width="1.5" d="M0,-3.0v7 M-2.5,-0.5L0,-3.0L2.5,-0.5"/>
  </g>
  <g id="resetDef">
    <use xlink:href="#rim2" fill="#404040"><set attributeName="fill" to="#808080" begin="reset.mouseover" end="reset.mouseout"/></use>
  </g>
</defs>
<script type="application/ecmascript">
var viewWidth = 306;
var viewHeight = 890;
var sectionId = 'dynsection-0';
</script>
<script type="application/ecmascript" xlink:href="../../svg.min.js"/>
<svg id="graph" class="graph">
<g id="viewport">
<title>vanetza::asn1::r1::Cpm</title>
<!-- Node1 -->
<g id="Node000001" class="node">
<title>Node1</title>
<g id="a_Node000001"><a xlink:title=" ">
<polygon fill="#999999" stroke="transparent" points="201.5,-49 88.5,-49 88.5,0 201.5,0 201.5,-49"/>
<text text-anchor="start" x="94" y="-36.5" font-family="Helvetica,sans-Serif" font-size="10.00">vanetza::asn1::r1::Cpm</text>
<text text-anchor="start" x="143.5" y="-21.5" font-family="Helvetica,sans-Serif" font-size="10.00"> </text>
<text text-anchor="start" x="109.5" y="-6.5" font-family="Helvetica,sans-Serif" font-size="10.00">+</text>
<text text-anchor="start" x="137" y="-6.5" font-family="Helvetica,sans-Serif" font-size="10.00">Cpm()</text>
<polygon fill="#666666" stroke="#666666" points="89,-31.5 89,-31.5 202,-31.5 202,-31.5 89,-31.5"/>
<polygon fill="#666666" stroke="#666666" points="89,-16.5 89,-16.5 202,-16.5 202,-16.5 89,-16.5"/>
<polygon fill="none" stroke="#666666" points="88.5,0 88.5,-49 201.5,-49 201.5,0 88.5,0"/>
</a>
</g>
</g>
<!-- Node2 -->
<g id="Node000002" class="node">
<title>Node2</title>
<g id="a_Node000002"><a xlink:href="../../dc/dbf/classvanetza_1_1asn1_1_1asn1c__per__wrapper.html" target="_top" xlink:title=" ">
<polygon fill="white" stroke="transparent" points="204,-311 86,-311 86,-86 204,-86 204,-311"/>
<text text-anchor="start" x="91" y="-298.5" font-family="Helvetica,sans-Serif" font-size="10.00">vanetza::asn1::asn1c</text>
<text text-anchor="start" x="91" y="-287.5" font-family="Helvetica,sans-Serif" font-size="10.00">_per_wrapper&lt; CPM_t &gt;</text>
<text text-anchor="start" x="100.5" y="-272.5" font-family="Helvetica,sans-Serif" font-size="10.00">#</text>
<text text-anchor="start" x="121" y="-272.5" font-family="Helvetica,sans-Serif" font-size="10.00">m_struct</text>
<text text-anchor="start" x="100.5" y="-257.5" font-family="Helvetica,sans-Serif" font-size="10.00">#</text>
<text text-anchor="start" x="121" y="-257.5" font-family="Helvetica,sans-Serif" font-size="10.00">m_type</text>
<text text-anchor="start" x="100" y="-242.5" font-family="Helvetica,sans-Serif" font-size="10.00">+</text>
<text text-anchor="start" x="121" y="-242.5" font-family="Helvetica,sans-Serif" font-size="10.00">encode()</text>
<text text-anchor="start" x="100" y="-227.5" font-family="Helvetica,sans-Serif" font-size="10.00">+</text>
<text text-anchor="start" x="121" y="-227.5" font-family="Helvetica,sans-Serif" font-size="10.00">decode()</text>
<text text-anchor="start" x="100" y="-212.5" font-family="Helvetica,sans-Serif" font-size="10.00">+</text>
<text text-anchor="start" x="121" y="-212.5" font-family="Helvetica,sans-Serif" font-size="10.00">size()</text>
<text text-anchor="start" x="100" y="-197.5" font-family="Helvetica,sans-Serif" font-size="10.00">+</text>
<text text-anchor="start" x="121" y="-197.5" font-family="Helvetica,sans-Serif" font-size="10.00">operator*()</text>
<text text-anchor="start" x="100" y="-182.5" font-family="Helvetica,sans-Serif" font-size="10.00">+</text>
<text text-anchor="start" x="121" y="-182.5" font-family="Helvetica,sans-Serif" font-size="10.00">operator*()</text>
<text text-anchor="start" x="100" y="-167.5" font-family="Helvetica,sans-Serif" font-size="10.00">+</text>
<text text-anchor="start" x="121" y="-167.5" font-family="Helvetica,sans-Serif" font-size="10.00">operator&#45;&gt;()</text>
<text text-anchor="start" x="100" y="-152.5" font-family="Helvetica,sans-Serif" font-size="10.00">+</text>
<text text-anchor="start" x="121" y="-152.5" font-family="Helvetica,sans-Serif" font-size="10.00">operator&#45;&gt;()</text>
<text text-anchor="start" x="100" y="-137.5" font-family="Helvetica,sans-Serif" font-size="10.00">+</text>
<text text-anchor="start" x="121" y="-137.5" font-family="Helvetica,sans-Serif" font-size="10.00">content()</text>
<text text-anchor="start" x="100" y="-122.5" font-family="Helvetica,sans-Serif" font-size="10.00">+</text>
<text text-anchor="start" x="121" y="-122.5" font-family="Helvetica,sans-Serif" font-size="10.00">content()</text>
<text text-anchor="start" x="100" y="-107.5" font-family="Helvetica,sans-Serif" font-size="10.00">+</text>
<text text-anchor="start" x="121" y="-107.5" font-family="Helvetica,sans-Serif" font-size="10.00">operator==()</text>
<text text-anchor="start" x="121" y="-92.5" font-family="Helvetica,sans-Serif" font-size="10.00">and 7 more...</text>
<polygon fill="#bfbfbf" stroke="#bfbfbf" points="86,-282.5 86,-282.5 204,-282.5 204,-282.5 86,-282.5"/>
<polygon fill="#bfbfbf" stroke="#bfbfbf" points="86,-252.5 86,-252.5 119,-252.5 119,-252.5 86,-252.5"/>
<polygon fill="#bfbfbf" stroke="#bfbfbf" points="119,-252.5 119,-252.5 204,-252.5 204,-252.5 119,-252.5"/>
<polygon fill="none" stroke="#bfbfbf" points="86,-86 86,-311 204,-311 204,-86 86,-86"/>
</a>
</g>
</g>
<!-- Node2&#45;&gt;Node1 -->
<g id="edge1_Node000001_Node000002" class="edge">
<title>Node2&#45;&gt;Node1</title>
<g id="a_edge1_Node000001_Node000002"><a xlink:title=" ">
<path fill="none" stroke="#63b8ff" d="M145,-75.35C145,-65.7 145,-56.78 145,-49.25"/>
<polygon fill="none" stroke="#63b8ff" points="141.5,-75.66 145,-85.66 148.5,-75.66 141.5,-75.66"/>
</a>
</g>
</g>
<!-- Node3 -->
<g id="Node000003" class="node">
<title>Node3</title>
<g id="a_Node000003"><a xlink:href="../../d0/d68/classvanetza_1_1asn1_1_1asn1c__wrapper__common.html" target="_top" xlink:title=" ">
<polygon fill="white" stroke="transparent" points="146,-604 4,-604 4,-364 146,-364 146,-604"/>
<text text-anchor="start" x="9" y="-592" font-family="Helvetica,sans-Serif" font-size="10.00">vanetza::asn1::asn1c</text>
<text text-anchor="start" x="9" y="-581" font-family="Helvetica,sans-Serif" font-size="10.00">_wrapper_common&lt; CPM_t &gt;</text>
<text text-anchor="start" x="9" y="-566" font-family="Helvetica,sans-Serif" font-size="10.00">#</text>
<text text-anchor="start" x="20" y="-566" font-family="Helvetica,sans-Serif" font-size="10.00">m_struct</text>
<text text-anchor="start" x="9" y="-551" font-family="Helvetica,sans-Serif" font-size="10.00">#</text>
<text text-anchor="start" x="20" y="-551" font-family="Helvetica,sans-Serif" font-size="10.00">m_type</text>
<text text-anchor="start" x="8.5" y="-536" font-family="Helvetica,sans-Serif" font-size="10.00">+</text>
<text text-anchor="start" x="20" y="-536" font-family="Helvetica,sans-Serif" font-size="10.00">asn1c_wrapper_common()</text>
<text text-anchor="start" x="8.5" y="-521" font-family="Helvetica,sans-Serif" font-size="10.00">+</text>
<text text-anchor="start" x="20" y="-521" font-family="Helvetica,sans-Serif" font-size="10.00">~asn1c_wrapper_common()</text>
<text text-anchor="start" x="8.5" y="-506" font-family="Helvetica,sans-Serif" font-size="10.00">+</text>
<text text-anchor="start" x="20" y="-506" font-family="Helvetica,sans-Serif" font-size="10.00">operator=()</text>
<text text-anchor="start" x="8.5" y="-491" font-family="Helvetica,sans-Serif" font-size="10.00">+</text>
<text text-anchor="start" x="20" y="-491" font-family="Helvetica,sans-Serif" font-size="10.00">operator*()</text>
<text text-anchor="start" x="8.5" y="-476" font-family="Helvetica,sans-Serif" font-size="10.00">+</text>
<text text-anchor="start" x="20" y="-476" font-family="Helvetica,sans-Serif" font-size="10.00">operator&#45;&gt;()</text>
<text text-anchor="start" x="8.5" y="-461" font-family="Helvetica,sans-Serif" font-size="10.00">+</text>
<text text-anchor="start" x="20" y="-461" font-family="Helvetica,sans-Serif" font-size="10.00">content()</text>
<text text-anchor="start" x="8.5" y="-446" font-family="Helvetica,sans-Serif" font-size="10.00">+</text>
<text text-anchor="start" x="20" y="-446" font-family="Helvetica,sans-Serif" font-size="10.00">operator==()</text>
<text text-anchor="start" x="8.5" y="-431" font-family="Helvetica,sans-Serif" font-size="10.00">+</text>
<text text-anchor="start" x="20" y="-431" font-family="Helvetica,sans-Serif" font-size="10.00">operator!=()</text>
<text text-anchor="start" x="8.5" y="-416" font-family="Helvetica,sans-Serif" font-size="10.00">+</text>
<text text-anchor="start" x="20" y="-416" font-family="Helvetica,sans-Serif" font-size="10.00">validate()</text>
<text text-anchor="start" x="8.5" y="-401" font-family="Helvetica,sans-Serif" font-size="10.00">+</text>
<text text-anchor="start" x="20" y="-401" font-family="Helvetica,sans-Serif" font-size="10.00">compare()</text>
<text text-anchor="start" x="8.5" y="-386" font-family="Helvetica,sans-Serif" font-size="10.00">+</text>
<text text-anchor="start" x="20" y="-386" font-family="Helvetica,sans-Serif" font-size="10.00">print()</text>
<text text-anchor="start" x="8.5" y="-371" font-family="Helvetica,sans-Serif" font-size="10.00">+</text>
<text text-anchor="start" x="20" y="-371" font-family="Helvetica,sans-Serif" font-size="10.00">swap()</text>
<polygon fill="#bfbfbf" stroke="#bfbfbf" points="4,-576 4,-576 146,-576 146,-576 4,-576"/>
<polygon fill="#bfbfbf" stroke="#bfbfbf" points="4,-546 4,-546 18,-546 18,-546 4,-546"/>
<polygon fill="#bfbfbf" stroke="#bfbfbf" points="18,-546 18,-546 146,-546 146,-546 18,-546"/>
<polygon fill="none" stroke="#bfbfbf" points="4,-364 4,-604 146,-604 146,-364 4,-364"/>
</a>
</g>
</g>
<!-- Node3&#45;&gt;Node2 -->
<g id="edge2_Node000002_Node000003" class="edge">
<title>Node3&#45;&gt;Node2</title>
<g id="a_edge2_Node000002_Node000003"><a xlink:title=" ">
<path fill="none" stroke="#63b8ff" d="M106.91,-353.76C110.43,-339.51 113.99,-325.09 117.45,-311.09"/>
<polygon fill="none" stroke="#63b8ff" points="103.48,-353.04 104.48,-363.59 110.28,-354.72 103.48,-353.04"/>
</a>
</g>
</g>
<!-- Node4 -->
<g id="Node000004" class="node">
<title>Node4</title>
<g id="a_Node000004"><a xlink:href="../../d0/d68/classvanetza_1_1asn1_1_1asn1c__wrapper__common.html" target="_top" xlink:title=" ">
<polygon fill="white" stroke="transparent" points="140,-882 0,-882 0,-657 140,-657 140,-882"/>
<text text-anchor="start" x="16.5" y="-869.5" font-family="Helvetica,sans-Serif" font-size="10.00">vanetza::asn1::asn1c</text>
<text text-anchor="start" x="16.5" y="-858.5" font-family="Helvetica,sans-Serif" font-size="10.00">_wrapper_common&lt; T &gt;</text>
<text text-anchor="start" x="4.5" y="-843.5" font-family="Helvetica,sans-Serif" font-size="10.00">#</text>
<text text-anchor="start" x="15" y="-843.5" font-family="Helvetica,sans-Serif" font-size="10.00">m_struct</text>
<text text-anchor="start" x="4.5" y="-828.5" font-family="Helvetica,sans-Serif" font-size="10.00">#</text>
<text text-anchor="start" x="15" y="-828.5" font-family="Helvetica,sans-Serif" font-size="10.00">m_type</text>
<text text-anchor="start" x="4" y="-813.5" font-family="Helvetica,sans-Serif" font-size="10.00">+</text>
<text text-anchor="start" x="15" y="-813.5" font-family="Helvetica,sans-Serif" font-size="10.00">asn1c_wrapper_common()</text>
<text text-anchor="start" x="4" y="-798.5" font-family="Helvetica,sans-Serif" font-size="10.00">+</text>
<text text-anchor="start" x="15" y="-798.5" font-family="Helvetica,sans-Serif" font-size="10.00">asn1c_wrapper_common()</text>
<text text-anchor="start" x="4" y="-783.5" font-family="Helvetica,sans-Serif" font-size="10.00">+</text>
<text text-anchor="start" x="15" y="-783.5" font-family="Helvetica,sans-Serif" font-size="10.00">~asn1c_wrapper_common()</text>
<text text-anchor="start" x="4" y="-768.5" font-family="Helvetica,sans-Serif" font-size="10.00">+</text>
<text text-anchor="start" x="15" y="-768.5" font-family="Helvetica,sans-Serif" font-size="10.00">asn1c_wrapper_common()</text>
<text text-anchor="start" x="4" y="-753.5" font-family="Helvetica,sans-Serif" font-size="10.00">+</text>
<text text-anchor="start" x="15" y="-753.5" font-family="Helvetica,sans-Serif" font-size="10.00">operator=()</text>
<text text-anchor="start" x="4" y="-738.5" font-family="Helvetica,sans-Serif" font-size="10.00">+</text>
<text text-anchor="start" x="15" y="-738.5" font-family="Helvetica,sans-Serif" font-size="10.00">asn1c_wrapper_common()</text>
<text text-anchor="start" x="4" y="-723.5" font-family="Helvetica,sans-Serif" font-size="10.00">+</text>
<text text-anchor="start" x="15" y="-723.5" font-family="Helvetica,sans-Serif" font-size="10.00">operator=()</text>
<text text-anchor="start" x="4" y="-708.5" font-family="Helvetica,sans-Serif" font-size="10.00">+</text>
<text text-anchor="start" x="15" y="-708.5" font-family="Helvetica,sans-Serif" font-size="10.00">operator*()</text>
<text text-anchor="start" x="4" y="-693.5" font-family="Helvetica,sans-Serif" font-size="10.00">+</text>
<text text-anchor="start" x="15" y="-693.5" font-family="Helvetica,sans-Serif" font-size="10.00">operator&#45;&gt;()</text>
<text text-anchor="start" x="4" y="-678.5" font-family="Helvetica,sans-Serif" font-size="10.00">+</text>
<text text-anchor="start" x="15" y="-678.5" font-family="Helvetica,sans-Serif" font-size="10.00">operator*()</text>
<text text-anchor="start" x="15" y="-663.5" font-family="Helvetica,sans-Serif" font-size="10.00">and 11 more...</text>
<polygon fill="#bfbfbf" stroke="#bfbfbf" points="0,-853.5 0,-853.5 140,-853.5 140,-853.5 0,-853.5"/>
<polygon fill="#bfbfbf" stroke="#bfbfbf" points="0,-823.5 0,-823.5 13,-823.5 13,-823.5 0,-823.5"/>
<polygon fill="#bfbfbf" stroke="#bfbfbf" points="13,-823.5 13,-823.5 140,-823.5 140,-823.5 13,-823.5"/>
<polygon fill="none" stroke="#bfbfbf" points="0,-657 0,-882 140,-882 140,-657 0,-657"/>
</a>
</g>
</g>
<!-- Node4&#45;&gt;Node3 -->
<g id="edge3_Node000003_Node000004" class="edge">
<title>Node4&#45;&gt;Node3</title>
<g id="a_edge3_Node000003_Node000004"><a xlink:title=" ">
<path fill="none" stroke="orange" d="M72.15,-646.63C72.4,-632.5 72.65,-618.1 72.9,-604.01"/>
<polygon fill="orange" stroke="orange" points="68.65,-646.8 71.97,-656.86 75.64,-646.92 68.65,-646.8"/>
</a>
</g>
<text text-anchor="start" x="76.5" y="-627.5" font-family="Helvetica,sans-Serif" font-size="10.00" fill="grey">&lt; CPM_t &gt;</text>
</g>
<!-- Node5 -->
<g id="Node000005" class="node">
<title>Node5</title>
<g id="a_Node000005"><a xlink:href="../../dc/dbf/classvanetza_1_1asn1_1_1asn1c__per__wrapper.html" target="_top" xlink:title=" ">
<polygon fill="white" stroke="transparent" points="276,-544 172,-544 172,-424 276,-424 276,-544"/>
<text text-anchor="start" x="177" y="-532" font-family="Helvetica,sans-Serif" font-size="10.00">vanetza::asn1::asn1c</text>
<text text-anchor="start" x="182.5" y="-521" font-family="Helvetica,sans-Serif" font-size="10.00">_per_wrapper&lt; T &gt;</text>
<text text-anchor="start" x="222" y="-506" font-family="Helvetica,sans-Serif" font-size="10.00"> </text>
<text text-anchor="start" x="187.5" y="-491" font-family="Helvetica,sans-Serif" font-size="10.00">+</text>
<text text-anchor="start" x="210" y="-491" font-family="Helvetica,sans-Serif" font-size="10.00">encode()</text>
<text text-anchor="start" x="187.5" y="-476" font-family="Helvetica,sans-Serif" font-size="10.00">+</text>
<text text-anchor="start" x="210" y="-476" font-family="Helvetica,sans-Serif" font-size="10.00">decode()</text>
<text text-anchor="start" x="187.5" y="-461" font-family="Helvetica,sans-Serif" font-size="10.00">+</text>
<text text-anchor="start" x="210" y="-461" font-family="Helvetica,sans-Serif" font-size="10.00">decode()</text>
<text text-anchor="start" x="187.5" y="-446" font-family="Helvetica,sans-Serif" font-size="10.00">+</text>
<text text-anchor="start" x="210" y="-446" font-family="Helvetica,sans-Serif" font-size="10.00">decode()</text>
<text text-anchor="start" x="187.5" y="-431" font-family="Helvetica,sans-Serif" font-size="10.00">+</text>
<text text-anchor="start" x="210" y="-431" font-family="Helvetica,sans-Serif" font-size="10.00">size()</text>
<polygon fill="#bfbfbf" stroke="#bfbfbf" points="172,-516 172,-516 276,-516 276,-516 172,-516"/>
<polygon fill="#bfbfbf" stroke="#bfbfbf" points="172,-501 172,-501 276,-501 276,-501 172,-501"/>
<polygon fill="none" stroke="#bfbfbf" points="172,-424 172,-544 276,-544 276,-424 172,-424"/>
</a>
</g>
</g>
<!-- Node5&#45;&gt;Node2 -->
<g id="edge4_Node000002_Node000005" class="edge">
<title>Node5&#45;&gt;Node2</title>
<g id="a_edge4_Node000002_Node000005"><a xlink:title=" ">
<path fill="none" stroke="orange" d="M204.8,-414.11C196.19,-383.2 185.81,-345.94 176.13,-311.21"/>
<polygon fill="orange" stroke="orange" points="201.48,-415.22 207.54,-423.91 208.22,-413.34 201.48,-415.22"/>
</a>
</g>
<text text-anchor="start" x="187.5" y="-334.5" font-family="Helvetica,sans-Serif" font-size="10.00" fill="grey">&lt; CPM_t &gt;</text>
</g>
<!-- Node6 -->
<g id="Node000006" class="node">
<title>Node6</title>
<g id="a_Node000006"><a xlink:href="../../d0/d68/classvanetza_1_1asn1_1_1asn1c__wrapper__common.html" target="_top" xlink:title=" ">
<polygon fill="white" stroke="transparent" points="298,-882 158,-882 158,-657 298,-657 298,-882"/>
<text text-anchor="start" x="174.5" y="-869.5" font-family="Helvetica,sans-Serif" font-size="10.00">vanetza::asn1::asn1c</text>
<text text-anchor="start" x="174.5" y="-858.5" font-family="Helvetica,sans-Serif" font-size="10.00">_wrapper_common&lt; T &gt;</text>
<text text-anchor="start" x="162.5" y="-843.5" font-family="Helvetica,sans-Serif" font-size="10.00">#</text>
<text text-anchor="start" x="173" y="-843.5" font-family="Helvetica,sans-Serif" font-size="10.00">m_struct</text>
<text text-anchor="start" x="162.5" y="-828.5" font-family="Helvetica,sans-Serif" font-size="10.00">#</text>
<text text-anchor="start" x="173" y="-828.5" font-family="Helvetica,sans-Serif" font-size="10.00">m_type</text>
<text text-anchor="start" x="162" y="-813.5" font-family="Helvetica,sans-Serif" font-size="10.00">+</text>
<text text-anchor="start" x="173" y="-813.5" font-family="Helvetica,sans-Serif" font-size="10.00">asn1c_wrapper_common()</text>
<text text-anchor="start" x="162" y="-798.5" font-family="Helvetica,sans-Serif" font-size="10.00">+</text>
<text text-anchor="start" x="173" y="-798.5" font-family="Helvetica,sans-Serif" font-size="10.00">asn1c_wrapper_common()</text>
<text text-anchor="start" x="162" y="-783.5" font-family="Helvetica,sans-Serif" font-size="10.00">+</text>
<text text-anchor="start" x="173" y="-783.5" font-family="Helvetica,sans-Serif" font-size="10.00">~asn1c_wrapper_common()</text>
<text text-anchor="start" x="162" y="-768.5" font-family="Helvetica,sans-Serif" font-size="10.00">+</text>
<text text-anchor="start" x="173" y="-768.5" font-family="Helvetica,sans-Serif" font-size="10.00">asn1c_wrapper_common()</text>
<text text-anchor="start" x="162" y="-753.5" font-family="Helvetica,sans-Serif" font-size="10.00">+</text>
<text text-anchor="start" x="173" y="-753.5" font-family="Helvetica,sans-Serif" font-size="10.00">operator=()</text>
<text text-anchor="start" x="162" y="-738.5" font-family="Helvetica,sans-Serif" font-size="10.00">+</text>
<text text-anchor="start" x="173" y="-738.5" font-family="Helvetica,sans-Serif" font-size="10.00">asn1c_wrapper_common()</text>
<text text-anchor="start" x="162" y="-723.5" font-family="Helvetica,sans-Serif" font-size="10.00">+</text>
<text text-anchor="start" x="173" y="-723.5" font-family="Helvetica,sans-Serif" font-size="10.00">operator=()</text>
<text text-anchor="start" x="162" y="-708.5" font-family="Helvetica,sans-Serif" font-size="10.00">+</text>
<text text-anchor="start" x="173" y="-708.5" font-family="Helvetica,sans-Serif" font-size="10.00">operator*()</text>
<text text-anchor="start" x="162" y="-693.5" font-family="Helvetica,sans-Serif" font-size="10.00">+</text>
<text text-anchor="start" x="173" y="-693.5" font-family="Helvetica,sans-Serif" font-size="10.00">operator&#45;&gt;()</text>
<text text-anchor="start" x="162" y="-678.5" font-family="Helvetica,sans-Serif" font-size="10.00">+</text>
<text text-anchor="start" x="173" y="-678.5" font-family="Helvetica,sans-Serif" font-size="10.00">operator*()</text>
<text text-anchor="start" x="173" y="-663.5" font-family="Helvetica,sans-Serif" font-size="10.00">and 11 more...</text>
<polygon fill="#bfbfbf" stroke="#bfbfbf" points="158,-853.5 158,-853.5 298,-853.5 298,-853.5 158,-853.5"/>
<polygon fill="#bfbfbf" stroke="#bfbfbf" points="158,-823.5 158,-823.5 171,-823.5 171,-823.5 158,-823.5"/>
<polygon fill="#bfbfbf" stroke="#bfbfbf" points="171,-823.5 171,-823.5 298,-823.5 298,-823.5 171,-823.5"/>
<polygon fill="none" stroke="#bfbfbf" points="158,-657 158,-882 298,-882 298,-657 158,-657"/>
</a>
</g>
</g>
<!-- Node6&#45;&gt;Node5 -->
<g id="edge5_Node000005_Node000006" class="edge">
<title>Node6&#45;&gt;Node5</title>
<g id="a_edge5_Node000005_Node000006"><a xlink:title=" ">
<path fill="none" stroke="#63b8ff" d="M226.28,-646.44C225.78,-611.04 225.26,-573.98 224.84,-544.31"/>
<polygon fill="none" stroke="#63b8ff" points="222.78,-646.91 226.42,-656.86 229.78,-646.81 222.78,-646.91"/>
</a>
</g>
</g>
</g>
</svg>

<g id="navigator" transform="translate(0 0)" fill="#404254">
  <rect fill="#f2f5e9" fill-opacity="0.5" stroke="#606060" stroke-width=".5" x="0" y="0" width="60" height="60"/>
  <use id="zoomplus" xlink:href="#zoomPlus" x="17" y="9" onmousedown="handleZoom(evt,'in')"/>
  <use id="zoomminus" xlink:href="#zoomMin" x="42" y="9" onmousedown="handleZoom(evt,'out')"/>
  <use id="reset" xlink:href="#resetDef" x="30" y="36" onmousedown="handleReset()"/>
   <use id="arrowup" xlink:href="#arrowUp" x="0" y="0" onmousedown="handlePan(0,-1)"/>
  <use id="arrowright" xlink:href="#arrowRight" x="0" y="0" onmousedown="handlePan(1,0)"/>
  <use id="arrowdown" xlink:href="#arrowDown" x="0" y="0" onmousedown="handlePan(0,1)"/>
  <use id="arrowleft" xlink:href="#arrowLeft" x="0" y="0" onmousedown="handlePan(-1,0)"/>
</g>
<svg viewBox="0 0 15 15" width="100%" height="30px" preserveAspectRatio="xMaxYMin meet">
 <g id="arrow_out" transform="scale(0.3 0.3)">
  <a xlink:href="classvanetza_1_1asn1_1_1r1_1_1Cpm__inherit__graph_org.svg" target="_base">
   <rect id="button" ry="5" rx="5" y="6" x="6" height="38" width="38"
        fill="#f2f5e9" fill-opacity="0.5" stroke="#606060" stroke-width="1.0"/>
   <path id="arrow"
     d="M 11.500037,31.436501 C 11.940474,20.09759 22.043105,11.32322 32.158766,21.979434 L 37.068811,17.246167 C 37.068811,17.246167 37.088388,32 37.088388,32 L 22.160133,31.978069 C 22.160133,31.978069 26.997745,27.140456 26.997745,27.140456 C 18.528582,18.264221 13.291696,25.230495 11.500037,31.436501 z"
     style="fill:#404040;"/>
  </a>
 </g>
</svg>

<style type='text/css'>
<![CDATA[
[data-mouse-over-selected='false'] { opacity: 0.7; }
[data-mouse-over-selected='true']  { opacity: 1.0; }
]]>
</style>
<script type="application/ecmascript"><![CDATA[
document.addEventListener('DOMContentLoaded', (event) => {
  highlightEdges();
  highlightAdjacentNodes();
});
]]></script>
</svg>
