<?xml version="1.0" encoding="UTF-8" standalone="no"?>
<!DOCTYPE svg PUBLIC "-//W3C//DTD SVG 1.1//EN"
 "http://www.w3.org/Graphics/SVG/1.1/DTD/svg11.dtd">
<!-- Generated by graphviz version 14.1.2 (0)
 -->
<!-- Title: vanetza::asn1::r1::Cpm Pages: 1 -->
<svg width="342pt" height="979pt"
 viewBox="0.00 0.00 342.00 979.00" xmlns="http://www.w3.org/2000/svg" xmlns:xlink="http://www.w3.org/1999/xlink">
<g id="graph0" class="graph" transform="scale(1 1) rotate(0) translate(4 975.25)">
<title>vanetza::asn1::r1::Cpm</title>
<!-- Node1 -->
<g id="Node000001" class="node">
<title>Node1</title>
<g id="a_Node000001"><a xlink:title=" ">
<polygon fill="#999999" stroke="none" points="220,-54.25 99.5,-54.25 99.5,0 220,0 220,-54.25"/>
<text xml:space="preserve" text-anchor="start" x="103.5" y="-40.75" font-family="Helvetica,sans-Serif" font-size="10.00">vanetza::asn1::r1::Cpm</text>
<text xml:space="preserve" text-anchor="start" x="158.25" y="-24" font-family="Helvetica,sans-Serif" font-size="10.00"> </text>
<text xml:space="preserve" text-anchor="start" x="121.06" y="-7.25" font-family="Helvetica,sans-Serif" font-size="10.00">+</text>
<text xml:space="preserve" text-anchor="start" x="150.88" y="-7.25" font-family="Helvetica,sans-Serif" font-size="10.00">Cpm()</text>
<polygon fill="#666666" stroke="#666666" points="99.5,-35.5 99.5,-35.5 220,-35.5 220,-35.5 99.5,-35.5"/>
<polygon fill="#666666" stroke="#666666" points="99.5,-18.75 99.5,-18.75 220,-18.75 220,-18.75 99.5,-18.75"/>
<polygon fill="none" stroke="#666666" points="99.5,0 99.5,-54.25 220,-54.25 220,0 99.5,0"/>
</a>
</g>
</g>
<!-- Node2 -->
<g id="Node000002" class="node">
<title>Node2</title>
<g id="a_Node000002"><a xlink:href="../../dc/dbf/classvanetza_1_1asn1_1_1asn1c__per__wrapper.html" target="_top" xlink:title=" ">
<polygon fill="white" stroke="none" points="223.38,-342.5 96.12,-342.5 96.12,-91.25 223.38,-91.25 223.38,-342.5"/>
<text xml:space="preserve" text-anchor="start" x="100.12" y="-329" font-family="Helvetica,sans-Serif" font-size="10.00">vanetza::asn1::asn1c</text>
<text xml:space="preserve" text-anchor="start" x="100.12" y="-316.25" font-family="Helvetica,sans-Serif" font-size="10.00">_per_wrapper&lt; CPM_t &gt;</text>
<text xml:space="preserve" text-anchor="start" x="110.56" y="-299.5" font-family="Helvetica,sans-Serif" font-size="10.00">#</text>
<text xml:space="preserve" text-anchor="start" x="133.25" y="-299.5" font-family="Helvetica,sans-Serif" font-size="10.00">m_struct</text>
<text xml:space="preserve" text-anchor="start" x="110.56" y="-282.75" font-family="Helvetica,sans-Serif" font-size="10.00">#</text>
<text xml:space="preserve" text-anchor="start" x="133.25" y="-282.75" font-family="Helvetica,sans-Serif" font-size="10.00">m_type</text>
<text xml:space="preserve" text-anchor="start" x="110.56" y="-266" font-family="Helvetica,sans-Serif" font-size="10.00">+</text>
<text xml:space="preserve" text-anchor="start" x="133.25" y="-266" font-family="Helvetica,sans-Serif" font-size="10.00">encode()</text>
<text xml:space="preserve" text-anchor="start" x="110.56" y="-249.25" font-family="Helvetica,sans-Serif" font-size="10.00">+</text>
<text xml:space="preserve" text-anchor="start" x="133.25" y="-249.25" font-family="Helvetica,sans-Serif" font-size="10.00">decode()</text>
<text xml:space="preserve" text-anchor="start" x="110.56" y="-232.5" font-family="Helvetica,sans-Serif" font-size="10.00">+</text>
<text xml:space="preserve" text-anchor="start" x="133.25" y="-232.5" font-family="Helvetica,sans-Serif" font-size="10.00">size()</text>
<text xml:space="preserve" text-anchor="start" x="110.56" y="-215.75" font-family="Helvetica,sans-Serif" font-size="10.00">+</text>
<text xml:space="preserve" text-anchor="start" x="133.25" y="-215.75" font-family="Helvetica,sans-Serif" font-size="10.00">operator*()</text>
<text xml:space="preserve" text-anchor="start" x="110.56" y="-199" font-family="Helvetica,sans-Serif" font-size="10.00">+</text>
<text xml:space="preserve" text-anchor="start" x="133.25" y="-199" font-family="Helvetica,sans-Serif" font-size="10.00">operator*()</text>
<text xml:space="preserve" text-anchor="start" x="110.56" y="-182.25" font-family="Helvetica,sans-Serif" font-size="10.00">+</text>
<text xml:space="preserve" text-anchor="start" x="133.25" y="-182.25" font-family="Helvetica,sans-Serif" font-size="10.00">operator&#45;&gt;()</text>
<text xml:space="preserve" text-anchor="start" x="110.56" y="-165.5" font-family="Helvetica,sans-Serif" font-size="10.00">+</text>
<text xml:space="preserve" text-anchor="start" x="133.25" y="-165.5" font-family="Helvetica,sans-Serif" font-size="10.00">operator&#45;&gt;()</text>
<text xml:space="preserve" text-anchor="start" x="110.56" y="-148.75" font-family="Helvetica,sans-Serif" font-size="10.00">+</text>
<text xml:space="preserve" text-anchor="start" x="133.25" y="-148.75" font-family="Helvetica,sans-Serif" font-size="10.00">content()</text>
<text xml:space="preserve" text-anchor="start" x="110.56" y="-132" font-family="Helvetica,sans-Serif" font-size="10.00">+</text>
<text xml:space="preserve" text-anchor="start" x="133.25" y="-132" font-family="Helvetica,sans-Serif" font-size="10.00">content()</text>
<text xml:space="preserve" text-anchor="start" x="110.56" y="-115.25" font-family="Helvetica,sans-Serif" font-size="10.00">+</text>
<text xml:space="preserve" text-anchor="start" x="133.25" y="-115.25" font-family="Helvetica,sans-Serif" font-size="10.00">operator==()</text>
<text xml:space="preserve" text-anchor="start" x="133.25" y="-98.5" font-family="Helvetica,sans-Serif" font-size="10.00">and 7 more...</text>
<polygon fill="#bfbfbf" stroke="#bfbfbf" points="96.12,-311 96.12,-311 223.38,-311 223.38,-311 96.12,-311"/>
<polygon fill="#bfbfbf" stroke="#bfbfbf" points="96.12,-277.5 96.12,-277.5 131.25,-277.5 131.25,-277.5 96.12,-277.5"/>
<polygon fill="#bfbfbf" stroke="#bfbfbf" points="131.25,-277.5 131.25,-277.5 223.38,-277.5 223.38,-277.5 131.25,-277.5"/>
<polygon fill="none" stroke="#bfbfbf" points="96.12,-91.25 96.12,-342.5 223.38,-342.5 223.38,-91.25 96.12,-91.25"/>
</a>
</g>
</g>
<!-- Node2&#45;&gt;Node1 -->
<g id="edge1_Node000001_Node000002" class="edge">
<title>Node2&#45;&gt;Node1</title>
<g id="a_edge1_Node000001_Node000002"><a xlink:title=" ">
<path fill="none" stroke="#63b8ff" d="M159.75,-80C159.75,-70.52 159.75,-61.75 159.75,-54.24"/>
<polygon fill="none" stroke="#63b8ff" points="156.25,-79.91 159.75,-89.91 163.25,-79.91 156.25,-79.91"/>
</a>
</g>
</g>
<!-- Node3 -->
<g id="Node000003" class="node">
<title>Node3</title>
<g id="a_Node000003"><a xlink:href="../../d0/d68/classvanetza_1_1asn1_1_1asn1c__wrapper__common.html" target="_top" xlink:title=" ">
<polygon fill="white" stroke="none" points="163.5,-665.25 6,-665.25 6,-397.25 163.5,-397.25 163.5,-665.25"/>
<text xml:space="preserve" text-anchor="start" x="11.62" y="-651.75" font-family="Helvetica,sans-Serif" font-size="10.00">vanetza::asn1::asn1c</text>
<text xml:space="preserve" text-anchor="start" x="11.62" y="-639" font-family="Helvetica,sans-Serif" font-size="10.00">_wrapper_common&lt; CPM_t &gt;</text>
<text xml:space="preserve" text-anchor="start" x="10" y="-622.25" font-family="Helvetica,sans-Serif" font-size="10.00">#</text>
<text xml:space="preserve" text-anchor="start" x="22.25" y="-622.25" font-family="Helvetica,sans-Serif" font-size="10.00">m_struct</text>
<text xml:space="preserve" text-anchor="start" x="10" y="-605.5" font-family="Helvetica,sans-Serif" font-size="10.00">#</text>
<text xml:space="preserve" text-anchor="start" x="22.25" y="-605.5" font-family="Helvetica,sans-Serif" font-size="10.00">m_type</text>
<text xml:space="preserve" text-anchor="start" x="10" y="-588.75" font-family="Helvetica,sans-Serif" font-size="10.00">+</text>
<text xml:space="preserve" text-anchor="start" x="22.25" y="-588.75" font-family="Helvetica,sans-Serif" font-size="10.00">asn1c_wrapper_common()</text>
<text xml:space="preserve" text-anchor="start" x="10" y="-572" font-family="Helvetica,sans-Serif" font-size="10.00">+</text>
<text xml:space="preserve" text-anchor="start" x="22.25" y="-572" font-family="Helvetica,sans-Serif" font-size="10.00">~asn1c_wrapper_common()</text>
<text xml:space="preserve" text-anchor="start" x="10" y="-555.25" font-family="Helvetica,sans-Serif" font-size="10.00">+</text>
<text xml:space="preserve" text-anchor="start" x="22.25" y="-555.25" font-family="Helvetica,sans-Serif" font-size="10.00">operator=()</text>
<text xml:space="preserve" text-anchor="start" x="10" y="-538.5" font-family="Helvetica,sans-Serif" font-size="10.00">+</text>
<text xml:space="preserve" text-anchor="start" x="22.25" y="-538.5" font-family="Helvetica,sans-Serif" font-size="10.00">operator*()</text>
<text xml:space="preserve" text-anchor="start" x="10" y="-521.75" font-family="Helvetica,sans-Serif" font-size="10.00">+</text>
<text xml:space="preserve" text-anchor="start" x="22.25" y="-521.75" font-family="Helvetica,sans-Serif" font-size="10.00">operator&#45;&gt;()</text>
<text xml:space="preserve" text-anchor="start" x="10" y="-505" font-family="Helvetica,sans-Serif" font-size="10.00">+</text>
<text xml:space="preserve" text-anchor="start" x="22.25" y="-505" font-family="Helvetica,sans-Serif" font-size="10.00">content()</text>
<text xml:space="preserve" text-anchor="start" x="10" y="-488.25" font-family="Helvetica,sans-Serif" font-size="10.00">+</text>
<text xml:space="preserve" text-anchor="start" x="22.25" y="-488.25" font-family="Helvetica,sans-Serif" font-size="10.00">operator==()</text>
<text xml:space="preserve" text-anchor="start" x="10" y="-471.5" font-family="Helvetica,sans-Serif" font-size="10.00">+</text>
<text xml:space="preserve" text-anchor="start" x="22.25" y="-471.5" font-family="Helvetica,sans-Serif" font-size="10.00">operator!=()</text>
<text xml:space="preserve" text-anchor="start" x="10" y="-454.75" font-family="Helvetica,sans-Serif" font-size="10.00">+</text>
<text xml:space="preserve" text-anchor="start" x="22.25" y="-454.75" font-family="Helvetica,sans-Serif" font-size="10.00">validate()</text>
<text xml:space="preserve" text-anchor="start" x="10" y="-438" font-family="Helvetica,sans-Serif" font-size="10.00">+</text>
<text xml:space="preserve" text-anchor="start" x="22.25" y="-438" font-family="Helvetica,sans-Serif" font-size="10.00">compare()</text>
<text xml:space="preserve" text-anchor="start" x="10" y="-421.25" font-family="Helvetica,sans-Serif" font-size="10.00">+</text>
<text xml:space="preserve" text-anchor="start" x="22.25" y="-421.25" font-family="Helvetica,sans-Serif" font-size="10.00">print()</text>
<text xml:space="preserve" text-anchor="start" x="10" y="-404.5" font-family="Helvetica,sans-Serif" font-size="10.00">+</text>
<text xml:space="preserve" text-anchor="start" x="22.25" y="-404.5" font-family="Helvetica,sans-Serif" font-size="10.00">swap()</text>
<polygon fill="#bfbfbf" stroke="#bfbfbf" points="6,-633.75 6,-633.75 163.5,-633.75 163.5,-633.75 6,-633.75"/>
<polygon fill="#bfbfbf" stroke="#bfbfbf" points="6,-600.25 6,-600.25 20.25,-600.25 20.25,-600.25 6,-600.25"/>
<polygon fill="#bfbfbf" stroke="#bfbfbf" points="20.25,-600.25 20.25,-600.25 163.5,-600.25 163.5,-600.25 20.25,-600.25"/>
<polygon fill="none" stroke="#bfbfbf" points="6,-397.25 6,-665.25 163.5,-665.25 163.5,-397.25 6,-397.25"/>
</a>
</g>
</g>
<!-- Node3&#45;&gt;Node2 -->
<g id="edge2_Node000002_Node000003" class="edge">
<title>Node3&#45;&gt;Node2</title>
<g id="a_edge2_Node000002_Node000003"><a xlink:title=" ">
<path fill="none" stroke="#63b8ff" d="M119.35,-386.15C122.87,-371.48 126.42,-356.68 129.89,-342.25"/>
<polygon fill="none" stroke="#63b8ff" points="115.95,-385.31 117.02,-395.85 122.76,-386.94 115.95,-385.31"/>
</a>
</g>
</g>
<!-- Node4 -->
<g id="Node000004" class="node">
<title>Node4</title>
<g id="a_Node000004"><a xlink:href="../../d0/d68/classvanetza_1_1asn1_1_1asn1c__wrapper__common.html" target="_top" xlink:title=" ">
<polygon fill="white" stroke="none" points="157.5,-971.25 0,-971.25 0,-720 157.5,-720 157.5,-971.25"/>
<text xml:space="preserve" text-anchor="start" x="18" y="-957.75" font-family="Helvetica,sans-Serif" font-size="10.00">vanetza::asn1::asn1c</text>
<text xml:space="preserve" text-anchor="start" x="18" y="-945" font-family="Helvetica,sans-Serif" font-size="10.00">_wrapper_common&lt; T &gt;</text>
<text xml:space="preserve" text-anchor="start" x="4" y="-928.25" font-family="Helvetica,sans-Serif" font-size="10.00">#</text>
<text xml:space="preserve" text-anchor="start" x="16.25" y="-928.25" font-family="Helvetica,sans-Serif" font-size="10.00">m_struct</text>
<text xml:space="preserve" text-anchor="start" x="4" y="-911.5" font-family="Helvetica,sans-Serif" font-size="10.00">#</text>
<text xml:space="preserve" text-anchor="start" x="16.25" y="-911.5" font-family="Helvetica,sans-Serif" font-size="10.00">m_type</text>
<text xml:space="preserve" text-anchor="start" x="4" y="-894.75" font-family="Helvetica,sans-Serif" font-size="10.00">+</text>
<text xml:space="preserve" text-anchor="start" x="16.25" y="-894.75" font-family="Helvetica,sans-Serif" font-size="10.00">asn1c_wrapper_common()</text>
<text xml:space="preserve" text-anchor="start" x="4" y="-878" font-family="Helvetica,sans-Serif" font-size="10.00">+</text>
<text xml:space="preserve" text-anchor="start" x="16.25" y="-878" font-family="Helvetica,sans-Serif" font-size="10.00">asn1c_wrapper_common()</text>
<text xml:space="preserve" text-anchor="start" x="4" y="-861.25" font-family="Helvetica,sans-Serif" font-size="10.00">+</text>
<text xml:space="preserve" text-anchor="start" x="16.25" y="-861.25" font-family="Helvetica,sans-Serif" font-size="10.00">~asn1c_wrapper_common()</text>
<text xml:space="preserve" text-anchor="start" x="4" y="-844.5" font-family="Helvetica,sans-Serif" font-size="10.00">+</text>
<text xml:space="preserve" text-anchor="start" x="16.25" y="-844.5" font-family="Helvetica,sans-Serif" font-size="10.00">asn1c_wrapper_common()</text>
<text xml:space="preserve" text-anchor="start" x="4" y="-827.75" font-family="Helvetica,sans-Serif" font-size="10.00">+</text>
<text xml:space="preserve" text-anchor="start" x="16.25" y="-827.75" font-family="Helvetica,sans-Serif" font-size="10.00">operator=()</text>
<text xml:space="preserve" text-anchor="start" x="4" y="-811" font-family="Helvetica,sans-Serif" font-size="10.00">+</text>
<text xml:space="preserve" text-anchor="start" x="16.25" y="-811" font-family="Helvetica,sans-Serif" font-size="10.00">asn1c_wrapper_common()</text>
<text xml:space="preserve" text-anchor="start" x="4" y="-794.25" font-family="Helvetica,sans-Serif" font-size="10.00">+</text>
<text xml:space="preserve" text-anchor="start" x="16.25" y="-794.25" font-family="Helvetica,sans-Serif" font-size="10.00">operator=()</text>
<text xml:space="preserve" text-anchor="start" x="4" y="-777.5" font-family="Helvetica,sans-Serif" font-size="10.00">+</text>
<text xml:space="preserve" text-anchor="start" x="16.25" y="-777.5" font-family="Helvetica,sans-Serif" font-size="10.00">operator*()</text>
<text xml:space="preserve" text-anchor="start" x="4" y="-760.75" font-family="Helvetica,sans-Serif" font-size="10.00">+</text>
<text xml:space="preserve" text-anchor="start" x="16.25" y="-760.75" font-family="Helvetica,sans-Serif" font-size="10.00">operator&#45;&gt;()</text>
<text xml:space="preserve" text-anchor="start" x="4" y="-744" font-family="Helvetica,sans-Serif" font-size="10.00">+</text>
<text xml:space="preserve" text-anchor="start" x="16.25" y="-744" font-family="Helvetica,sans-Serif" font-size="10.00">operator*()</text>
<text xml:space="preserve" text-anchor="start" x="16.25" y="-727.25" font-family="Helvetica,sans-Serif" font-size="10.00">and 11 more...</text>
<polygon fill="#bfbfbf" stroke="#bfbfbf" points="0,-939.75 0,-939.75 157.5,-939.75 157.5,-939.75 0,-939.75"/>
<polygon fill="#bfbfbf" stroke="#bfbfbf" points="0,-906.25 0,-906.25 14.25,-906.25 14.25,-906.25 0,-906.25"/>
<polygon fill="#bfbfbf" stroke="#bfbfbf" points="14.25,-906.25 14.25,-906.25 157.5,-906.25 157.5,-906.25 14.25,-906.25"/>
<polygon fill="none" stroke="#bfbfbf" points="0,-720 0,-971.25 157.5,-971.25 157.5,-720 0,-720"/>
</a>
</g>
</g>
<!-- Node4&#45;&gt;Node3 -->
<g id="edge3_Node000003_Node000004" class="edge">
<title>Node4&#45;&gt;Node3</title>
<g id="a_edge3_Node000003_Node000004"><a xlink:title=" ">
<path fill="none" stroke="orange" d="M81.35,-709.16C81.63,-694.56 81.92,-679.72 82.2,-665.15"/>
<polygon fill="orange" stroke="orange" points="77.86,-708.69 81.17,-718.76 84.86,-708.82 77.86,-708.69"/>
</a>
</g>
<text xml:space="preserve" text-anchor="start" x="84.75" y="-689.5" font-family="Helvetica,sans-Serif" font-size="10.00" fill="grey">&lt; CPM_t &gt;</text>
</g>
<!-- Node5 -->
<g id="Node000005" class="node">
<title>Node5</title>
<g id="a_Node000005"><a xlink:href="../../dc/dbf/classvanetza_1_1asn1_1_1asn1c__per__wrapper.html" target="_top" xlink:title=" ">
<polygon fill="white" stroke="none" points="304.12,-598.25 193.38,-598.25 193.38,-464.25 304.12,-464.25 304.12,-598.25"/>
<text xml:space="preserve" text-anchor="start" x="197.38" y="-584.75" font-family="Helvetica,sans-Serif" font-size="10.00">vanetza::asn1::asn1c</text>
<text xml:space="preserve" text-anchor="start" x="201.5" y="-572" font-family="Helvetica,sans-Serif" font-size="10.00">_per_wrapper&lt; T &gt;</text>
<text xml:space="preserve" text-anchor="start" x="247.25" y="-555.25" font-family="Helvetica,sans-Serif" font-size="10.00"> </text>
<text xml:space="preserve" text-anchor="start" x="209.31" y="-538.5" font-family="Helvetica,sans-Serif" font-size="10.00">+</text>
<text xml:space="preserve" text-anchor="start" x="233.5" y="-538.5" font-family="Helvetica,sans-Serif" font-size="10.00">encode()</text>
<text xml:space="preserve" text-anchor="start" x="209.31" y="-521.75" font-family="Helvetica,sans-Serif" font-size="10.00">+</text>
<text xml:space="preserve" text-anchor="start" x="233.5" y="-521.75" font-family="Helvetica,sans-Serif" font-size="10.00">decode()</text>
<text xml:space="preserve" text-anchor="start" x="209.31" y="-505" font-family="Helvetica,sans-Serif" font-size="10.00">+</text>
<text xml:space="preserve" text-anchor="start" x="233.5" y="-505" font-family="Helvetica,sans-Serif" font-size="10.00">decode()</text>
<text xml:space="preserve" text-anchor="start" x="209.31" y="-488.25" font-family="Helvetica,sans-Serif" font-size="10.00">+</text>
<text xml:space="preserve" text-anchor="start" x="233.5" y="-488.25" font-family="Helvetica,sans-Serif" font-size="10.00">decode()</text>
<text xml:space="preserve" text-anchor="start" x="209.31" y="-471.5" font-family="Helvetica,sans-Serif" font-size="10.00">+</text>
<text xml:space="preserve" text-anchor="start" x="233.5" y="-471.5" font-family="Helvetica,sans-Serif" font-size="10.00">size()</text>
<polygon fill="#bfbfbf" stroke="#bfbfbf" points="193.38,-566.75 193.38,-566.75 304.12,-566.75 304.12,-566.75 193.38,-566.75"/>
<polygon fill="#bfbfbf" stroke="#bfbfbf" points="193.38,-550 193.38,-550 304.12,-550 304.12,-550 193.38,-550"/>
<polygon fill="none" stroke="#bfbfbf" points="193.38,-464.25 193.38,-598.25 304.12,-598.25 304.12,-464.25 193.38,-464.25"/>
</a>
</g>
</g>
<!-- Node5&#45;&gt;Node2 -->
<g id="edge4_Node000002_Node000005" class="edge">
<title>Node5&#45;&gt;Node2</title>
<g id="a_edge4_Node000002_Node000005"><a xlink:title=" ">
<path fill="none" stroke="orange" d="M226.95,-453.74C217.4,-420.2 205.93,-379.97 195.2,-342.31"/>
<polygon fill="orange" stroke="orange" points="223.46,-454.27 229.57,-462.93 230.2,-452.35 223.46,-454.27"/>
</a>
</g>
<text xml:space="preserve" text-anchor="start" x="207.25" y="-366.75" font-family="Helvetica,sans-Serif" font-size="10.00" fill="grey">&lt; CPM_t &gt;</text>
</g>
<!-- Node6 -->
<g id="Node000006" class="node">
<title>Node6</title>
<g id="a_Node000006"><a xlink:href="../../d0/d68/classvanetza_1_1asn1_1_1asn1c__wrapper__common.html" target="_top" xlink:title=" ">
<polygon fill="white" stroke="none" points="333.5,-971.25 176,-971.25 176,-720 333.5,-720 333.5,-971.25"/>
<text xml:space="preserve" text-anchor="start" x="194" y="-957.75" font-family="Helvetica,sans-Serif" font-size="10.00">vanetza::asn1::asn1c</text>
<text xml:space="preserve" text-anchor="start" x="194" y="-945" font-family="Helvetica,sans-Serif" font-size="10.00">_wrapper_common&lt; T &gt;</text>
<text xml:space="preserve" text-anchor="start" x="180" y="-928.25" font-family="Helvetica,sans-Serif" font-size="10.00">#</text>
<text xml:space="preserve" text-anchor="start" x="192.25" y="-928.25" font-family="Helvetica,sans-Serif" font-size="10.00">m_struct</text>
<text xml:space="preserve" text-anchor="start" x="180" y="-911.5" font-family="Helvetica,sans-Serif" font-size="10.00">#</text>
<text xml:space="preserve" text-anchor="start" x="192.25" y="-911.5" font-family="Helvetica,sans-Serif" font-size="10.00">m_type</text>
<text xml:space="preserve" text-anchor="start" x="180" y="-894.75" font-family="Helvetica,sans-Serif" font-size="10.00">+</text>
<text xml:space="preserve" text-anchor="start" x="192.25" y="-894.75" font-family="Helvetica,sans-Serif" font-size="10.00">asn1c_wrapper_common()</text>
<text xml:space="preserve" text-anchor="start" x="180" y="-878" font-family="Helvetica,sans-Serif" font-size="10.00">+</text>
<text xml:space="preserve" text-anchor="start" x="192.25" y="-878" font-family="Helvetica,sans-Serif" font-size="10.00">asn1c_wrapper_common()</text>
<text xml:space="preserve" text-anchor="start" x="180" y="-861.25" font-family="Helvetica,sans-Serif" font-size="10.00">+</text>
<text xml:space="preserve" text-anchor="start" x="192.25" y="-861.25" font-family="Helvetica,sans-Serif" font-size="10.00">~asn1c_wrapper_common()</text>
<text xml:space="preserve" text-anchor="start" x="180" y="-844.5" font-family="Helvetica,sans-Serif" font-size="10.00">+</text>
<text xml:space="preserve" text-anchor="start" x="192.25" y="-844.5" font-family="Helvetica,sans-Serif" font-size="10.00">asn1c_wrapper_common()</text>
<text xml:space="preserve" text-anchor="start" x="180" y="-827.75" font-family="Helvetica,sans-Serif" font-size="10.00">+</text>
<text xml:space="preserve" text-anchor="start" x="192.25" y="-827.75" font-family="Helvetica,sans-Serif" font-size="10.00">operator=()</text>
<text xml:space="preserve" text-anchor="start" x="180" y="-811" font-family="Helvetica,sans-Serif" font-size="10.00">+</text>
<text xml:space="preserve" text-anchor="start" x="192.25" y="-811" font-family="Helvetica,sans-Serif" font-size="10.00">asn1c_wrapper_common()</text>
<text xml:space="preserve" text-anchor="start" x="180" y="-794.25" font-family="Helvetica,sans-Serif" font-size="10.00">+</text>
<text xml:space="preserve" text-anchor="start" x="192.25" y="-794.25" font-family="Helvetica,sans-Serif" font-size="10.00">operator=()</text>
<text xml:space="preserve" text-anchor="start" x="180" y="-777.5" font-family="Helvetica,sans-Serif" font-size="10.00">+</text>
<text xml:space="preserve" text-anchor="start" x="192.25" y="-777.5" font-family="Helvetica,sans-Serif" font-size="10.00">operator*()</text>
<text xml:space="preserve" text-anchor="start" x="180" y="-760.75" font-family="Helvetica,sans-Serif" font-size="10.00">+</text>
<text xml:space="preserve" text-anchor="start" x="192.25" y="-760.75" font-family="Helvetica,sans-Serif" font-size="10.00">operator&#45;&gt;()</text>
<text xml:space="preserve" text-anchor="start" x="180" y="-744" font-family="Helvetica,sans-Serif" font-size="10.00">+</text>
<text xml:space="preserve" text-anchor="start" x="192.25" y="-744" font-family="Helvetica,sans-Serif" font-size="10.00">operator*()</text>
<text xml:space="preserve" text-anchor="start" x="192.25" y="-727.25" font-family="Helvetica,sans-Serif" font-size="10.00">and 11 more...</text>
<polygon fill="#bfbfbf" stroke="#bfbfbf" points="176,-939.75 176,-939.75 333.5,-939.75 333.5,-939.75 176,-939.75"/>
<polygon fill="#bfbfbf" stroke="#bfbfbf" points="176,-906.25 176,-906.25 190.25,-906.25 190.25,-906.25 176,-906.25"/>
<polygon fill="#bfbfbf" stroke="#bfbfbf" points="190.25,-906.25 190.25,-906.25 333.5,-906.25 333.5,-906.25 190.25,-906.25"/>
<polygon fill="none" stroke="#bfbfbf" points="176,-720 176,-971.25 333.5,-971.25 333.5,-720 176,-720"/>
</a>
</g>
</g>
<!-- Node6&#45;&gt;Node5 -->
<g id="edge5_Node000005_Node000006" class="edge">
<title>Node6&#45;&gt;Node5</title>
<g id="a_edge5_Node000005_Node000006"><a xlink:title=" ">
<path fill="none" stroke="#63b8ff" d="M252.14,-708.92C251.4,-670.4 250.63,-630.19 250.01,-597.87"/>
<polygon fill="none" stroke="#63b8ff" points="248.64,-708.82 252.33,-718.76 255.64,-708.69 248.64,-708.82"/>
</a>
</g>
</g>
</g>
</svg>
