<?xml version="1.0" encoding="UTF-8" standalone="no"?>
<!DOCTYPE svg PUBLIC "-//W3C//DTD SVG 1.1//EN"
 "http://www.w3.org/Graphics/SVG/1.1/DTD/svg11.dtd">
<!-- Generated by graphviz version 2.42.1 (0)
 -->
<!-- Title: vanetza::security::CertificateCache::Expiry Pages: 1 -->
<svg width="132pt" height="171pt"
 viewBox="0.00 0.00 132.00 171.00" xmlns="http://www.w3.org/2000/svg" xmlns:xlink="http://www.w3.org/1999/xlink">
<g id="graph0" class="graph" transform="scale(1 1) rotate(0) translate(4 167)">
<title>vanetza::security::CertificateCache::Expiry</title>
<polygon fill="white" stroke="transparent" points="-4,4 -4,-167 128,-167 128,4 -4,4"/>
<!-- Node0 -->
<g id="node1" class="node">
<title>Node0</title>
<g id="a_node1"><a xlink:title=" ">
<polygon fill="#bfbfbf" stroke="black" points="0,-0.5 0,-68.5 124,-68.5 124,-0.5 0,-0.5"/>
<text text-anchor="start" x="8" y="-56.5" font-family="Helvetica,sans-Serif" font-size="10.00">vanetza::security::</text>
<text text-anchor="middle" x="62" y="-45.5" font-family="Helvetica,sans-Serif" font-size="10.00">CertificateCache::Expiry</text>
<polyline fill="none" stroke="black" points="0,-38.5 124,-38.5 "/>
<text text-anchor="start" x="8" y="-26.5" font-family="Helvetica,sans-Serif" font-size="10.00">+ certificate</text>
<polyline fill="none" stroke="black" points="0,-19.5 124,-19.5 "/>
<text text-anchor="start" x="8" y="-7.5" font-family="Helvetica,sans-Serif" font-size="10.00">+ Expiry()</text>
</a>
</g>
</g>
<!-- Node1 -->
<g id="node2" class="node">
<title>Node1</title>
<g id="a_node2"><a xlink:title=" ">
<polygon fill="white" stroke="#bfbfbf" points="15.5,-105.5 15.5,-162.5 108.5,-162.5 108.5,-105.5 15.5,-105.5"/>
<text text-anchor="middle" x="62" y="-150.5" font-family="Helvetica,sans-Serif" font-size="10.00">Clock::time_point</text>
<polyline fill="none" stroke="#bfbfbf" points="15.5,-143.5 108.5,-143.5 "/>
<text text-anchor="middle" x="62" y="-131.5" font-family="Helvetica,sans-Serif" font-size="10.00"> </text>
<polyline fill="none" stroke="#bfbfbf" points="15.5,-124.5 108.5,-124.5 "/>
<text text-anchor="middle" x="62" y="-112.5" font-family="Helvetica,sans-Serif" font-size="10.00"> </text>
</a>
</g>
</g>
<!-- Node1&#45;&gt;Node0 -->
<g id="edge1" class="edge">
<title>Node1&#45;&gt;Node0</title>
<path fill="none" stroke="midnightblue" d="M62,-95.06C62,-86.39 62,-77.24 62,-68.79"/>
<polygon fill="none" stroke="midnightblue" points="58.5,-95.32 62,-105.32 65.5,-95.32 58.5,-95.32"/>
</g>
</g>
</svg>
