<?xml version="1.0" encoding="UTF-8" standalone="no"?>
<!DOCTYPE svg PUBLIC "-//W3C//DTD SVG 1.1//EN"
 "http://www.w3.org/Graphics/SVG/1.1/DTD/svg11.dtd">
<!-- Generated by graphviz version 14.1.2 (0)
 -->
<!-- Title: vanetza::dcc::TransmitRateFeedback Pages: 1 -->
<svg width="524pt" height="382pt"
 viewBox="0.00 0.00 524.00 382.00" xmlns="http://www.w3.org/2000/svg" xmlns:xlink="http://www.w3.org/1999/xlink">
<g id="graph0" class="graph" transform="scale(1 1) rotate(0) translate(4 377.5)">
<title>vanetza::dcc::TransmitRateFeedback</title>
<!-- Node1 -->
<g id="Node000001" class="node">
<title>Node1</title>
<g id="a_Node000001"><a xlink:title=" ">
<polygon fill="#999999" stroke="none" points="332,-373.5 185,-373.5 185,-289.75 332,-289.75 332,-373.5"/>
<text xml:space="preserve" text-anchor="start" x="192.5" y="-360" font-family="Helvetica,sans-Serif" font-size="10.00">vanetza::dcc::TransmitRate</text>
<text xml:space="preserve" text-anchor="start" x="235.25" y="-347.25" font-family="Helvetica,sans-Serif" font-size="10.00">Feedback</text>
<text xml:space="preserve" text-anchor="start" x="257" y="-330.5" font-family="Helvetica,sans-Serif" font-size="10.00"> </text>
<text xml:space="preserve" text-anchor="start" x="189" y="-313.75" font-family="Helvetica,sans-Serif" font-size="10.00">+</text>
<text xml:space="preserve" text-anchor="start" x="201.25" y="-313.75" font-family="Helvetica,sans-Serif" font-size="10.00">notify()</text>
<text xml:space="preserve" text-anchor="start" x="189" y="-297" font-family="Helvetica,sans-Serif" font-size="10.00">+</text>
<text xml:space="preserve" text-anchor="start" x="201.25" y="-297" font-family="Helvetica,sans-Serif" font-size="10.00">~TransmitRateFeedback()</text>
<polygon fill="#666666" stroke="#666666" points="185,-342 185,-342 332,-342 332,-342 185,-342"/>
<polygon fill="#666666" stroke="#666666" points="185,-325.25 185,-325.25 332,-325.25 332,-325.25 185,-325.25"/>
<polygon fill="none" stroke="#666666" points="185,-289.75 185,-373.5 332,-373.5 332,-289.75 185,-289.75"/>
</a>
</g>
</g>
<!-- Node2 -->
<g id="Node000002" class="node">
<title>Node2</title>
<g id="a_Node000002"><a xlink:href="../../de/d9c/classvanetza_1_1dcc_1_1TransmitRateControl.html" target="_top" xlink:title=" ">
<polygon fill="white" stroke="none" points="328.5,-253.75 188.5,-253.75 188.5,-186.75 328.5,-186.75 328.5,-253.75"/>
<text xml:space="preserve" text-anchor="start" x="192.5" y="-240.25" font-family="Helvetica,sans-Serif" font-size="10.00">vanetza::dcc::TransmitRate</text>
<text xml:space="preserve" text-anchor="start" x="240.88" y="-227.5" font-family="Helvetica,sans-Serif" font-size="10.00">Control</text>
<text xml:space="preserve" text-anchor="start" x="257" y="-210.75" font-family="Helvetica,sans-Serif" font-size="10.00"> </text>
<text xml:space="preserve" text-anchor="start" x="257" y="-194" font-family="Helvetica,sans-Serif" font-size="10.00"> </text>
<polygon fill="#bfbfbf" stroke="#bfbfbf" points="188.5,-222.25 188.5,-222.25 328.5,-222.25 328.5,-222.25 188.5,-222.25"/>
<polygon fill="#bfbfbf" stroke="#bfbfbf" points="188.5,-205.5 188.5,-205.5 328.5,-205.5 328.5,-205.5 188.5,-205.5"/>
<polygon fill="none" stroke="#bfbfbf" points="188.5,-186.75 188.5,-253.75 328.5,-253.75 328.5,-186.75 188.5,-186.75"/>
</a>
</g>
</g>
<!-- Node1&#45;&gt;Node2 -->
<g id="edge1_Node000001_Node000002" class="edge">
<title>Node1&#45;&gt;Node2</title>
<g id="a_edge1_Node000001_Node000002"><a xlink:title=" ">
<path fill="none" stroke="#63b8ff" d="M258.5,-278.42C258.5,-269.91 258.5,-261.32 258.5,-253.47"/>
<polygon fill="none" stroke="#63b8ff" points="255,-278.38 258.5,-288.38 262,-278.38 255,-278.38"/>
</a>
</g>
</g>
<!-- Node3 -->
<g id="Node000003" class="node">
<title>Node3</title>
<g id="a_Node000003"><a xlink:href="../../d1/d1c/classvanetza_1_1dcc_1_1BurstyTransmitRateControl.html" target="_top" xlink:title=" ">
<polygon fill="white" stroke="none" points="159,-150.75 0,-150.75 0,0 159,0 159,-150.75"/>
<text xml:space="preserve" text-anchor="start" x="9" y="-137.25" font-family="Helvetica,sans-Serif" font-size="10.00">vanetza::dcc::BurstyTransmit</text>
<text xml:space="preserve" text-anchor="start" x="50.62" y="-124.5" font-family="Helvetica,sans-Serif" font-size="10.00">RateControl</text>
<text xml:space="preserve" text-anchor="start" x="6.25" y="-107.75" font-family="Helvetica,sans-Serif" font-size="10.00">&#45;</text>
<text xml:space="preserve" text-anchor="start" x="16.25" y="-107.75" font-family="Helvetica,sans-Serif" font-size="10.00">m_burst_budget</text>
<text xml:space="preserve" text-anchor="start" x="6.25" y="-91" font-family="Helvetica,sans-Serif" font-size="10.00">&#45;</text>
<text xml:space="preserve" text-anchor="start" x="16.25" y="-91" font-family="Helvetica,sans-Serif" font-size="10.00">m_fsm_budget</text>
<text xml:space="preserve" text-anchor="start" x="6.25" y="-74.25" font-family="Helvetica,sans-Serif" font-size="10.00">&#45;</text>
<text xml:space="preserve" text-anchor="start" x="16.25" y="-74.25" font-family="Helvetica,sans-Serif" font-size="10.00">m_fsm</text>
<text xml:space="preserve" text-anchor="start" x="4" y="-57.5" font-family="Helvetica,sans-Serif" font-size="10.00">+</text>
<text xml:space="preserve" text-anchor="start" x="16.25" y="-57.5" font-family="Helvetica,sans-Serif" font-size="10.00">BurstyTransmitRateControl()</text>
<text xml:space="preserve" text-anchor="start" x="4" y="-40.75" font-family="Helvetica,sans-Serif" font-size="10.00">+</text>
<text xml:space="preserve" text-anchor="start" x="16.25" y="-40.75" font-family="Helvetica,sans-Serif" font-size="10.00">delay()</text>
<text xml:space="preserve" text-anchor="start" x="4" y="-24" font-family="Helvetica,sans-Serif" font-size="10.00">+</text>
<text xml:space="preserve" text-anchor="start" x="16.25" y="-24" font-family="Helvetica,sans-Serif" font-size="10.00">interval()</text>
<text xml:space="preserve" text-anchor="start" x="4" y="-7.25" font-family="Helvetica,sans-Serif" font-size="10.00">+</text>
<text xml:space="preserve" text-anchor="start" x="16.25" y="-7.25" font-family="Helvetica,sans-Serif" font-size="10.00">notify()</text>
<polygon fill="#666666" stroke="#666666" points="0,-119.25 0,-119.25 159,-119.25 159,-119.25 0,-119.25"/>
<polygon fill="#666666" stroke="#666666" points="0,-69 0,-69 14.25,-69 14.25,-69 0,-69"/>
<polygon fill="#666666" stroke="#666666" points="14.25,-69 14.25,-69 159,-69 159,-69 14.25,-69"/>
<polygon fill="none" stroke="#666666" points="0,0 0,-150.75 159,-150.75 159,0 0,0"/>
</a>
</g>
</g>
<!-- Node2&#45;&gt;Node3 -->
<g id="edge2_Node000002_Node000003" class="edge">
<title>Node2&#45;&gt;Node3</title>
<g id="a_edge2_Node000002_Node000003"><a xlink:title=" ">
<path fill="none" stroke="#63b8ff" d="M205.59,-180.22C193,-170.71 179.69,-160.48 167.5,-150.75 164.69,-148.5 161.83,-146.21 158.96,-143.88"/>
<polygon fill="none" stroke="#63b8ff" points="203.3,-182.87 213.4,-186.08 207.51,-177.28 203.3,-182.87"/>
</a>
</g>
</g>
<!-- Node4 -->
<g id="Node000004" class="node">
<title>Node4</title>
<g id="a_Node000004"><a xlink:href="../../df/d62/classvanetza_1_1dcc_1_1LimericTransmitRateControl.html" target="_top" xlink:title=" ">
<polygon fill="white" stroke="none" points="340.25,-142.38 176.75,-142.38 176.75,-8.38 340.25,-8.38 340.25,-142.38"/>
<text xml:space="preserve" text-anchor="start" x="185.75" y="-128.88" font-family="Helvetica,sans-Serif" font-size="10.00">vanetza::dcc::LimericTransmit</text>
<text xml:space="preserve" text-anchor="start" x="229.62" y="-116.12" font-family="Helvetica,sans-Serif" font-size="10.00">RateControl</text>
<text xml:space="preserve" text-anchor="start" x="183" y="-99.38" font-family="Helvetica,sans-Serif" font-size="10.00">&#45;</text>
<text xml:space="preserve" text-anchor="start" x="193" y="-99.38" font-family="Helvetica,sans-Serif" font-size="10.00">m_budget</text>
<text xml:space="preserve" text-anchor="start" x="180.75" y="-82.62" font-family="Helvetica,sans-Serif" font-size="10.00">+</text>
<text xml:space="preserve" text-anchor="start" x="193" y="-82.62" font-family="Helvetica,sans-Serif" font-size="10.00">LimericTransmitRateControl()</text>
<text xml:space="preserve" text-anchor="start" x="180.75" y="-65.88" font-family="Helvetica,sans-Serif" font-size="10.00">+</text>
<text xml:space="preserve" text-anchor="start" x="193" y="-65.88" font-family="Helvetica,sans-Serif" font-size="10.00">delay()</text>
<text xml:space="preserve" text-anchor="start" x="180.75" y="-49.12" font-family="Helvetica,sans-Serif" font-size="10.00">+</text>
<text xml:space="preserve" text-anchor="start" x="193" y="-49.12" font-family="Helvetica,sans-Serif" font-size="10.00">interval()</text>
<text xml:space="preserve" text-anchor="start" x="180.75" y="-32.38" font-family="Helvetica,sans-Serif" font-size="10.00">+</text>
<text xml:space="preserve" text-anchor="start" x="193" y="-32.38" font-family="Helvetica,sans-Serif" font-size="10.00">notify()</text>
<text xml:space="preserve" text-anchor="start" x="180.75" y="-15.62" font-family="Helvetica,sans-Serif" font-size="10.00">+</text>
<text xml:space="preserve" text-anchor="start" x="193" y="-15.62" font-family="Helvetica,sans-Serif" font-size="10.00">update()</text>
<polygon fill="#666666" stroke="#666666" points="176.75,-110.88 176.75,-110.88 340.25,-110.88 340.25,-110.88 176.75,-110.88"/>
<polygon fill="#666666" stroke="#666666" points="176.75,-94.12 176.75,-94.12 191,-94.12 191,-94.12 176.75,-94.12"/>
<polygon fill="#666666" stroke="#666666" points="191,-94.12 191,-94.12 340.25,-94.12 340.25,-94.12 191,-94.12"/>
<polygon fill="none" stroke="#666666" points="176.75,-8.38 176.75,-142.38 340.25,-142.38 340.25,-8.38 176.75,-8.38"/>
</a>
</g>
</g>
<!-- Node2&#45;&gt;Node4 -->
<g id="edge3_Node000002_Node000004" class="edge">
<title>Node2&#45;&gt;Node4</title>
<g id="a_edge3_Node000002_Node000004"><a xlink:title=" ">
<path fill="none" stroke="#63b8ff" d="M258.5,-175.44C258.5,-164.94 258.5,-153.5 258.5,-142.24"/>
<polygon fill="none" stroke="#63b8ff" points="255,-175.32 258.5,-185.32 262,-175.32 255,-175.32"/>
</a>
</g>
</g>
<!-- Node5 -->
<g id="Node000005" class="node">
<title>Node5</title>
<g id="a_Node000005"><a xlink:href="../../dc/d2b/classvanetza_1_1dcc_1_1SingleReactiveTransmitRateControl.html" target="_top" xlink:title=" ">
<polygon fill="white" stroke="none" points="516.25,-148.75 358.75,-148.75 358.75,-2 516.25,-2 516.25,-148.75"/>
<text xml:space="preserve" text-anchor="start" x="367.38" y="-135.25" font-family="Helvetica,sans-Serif" font-size="10.00">vanetza::dcc::SingleReactive</text>
<text xml:space="preserve" text-anchor="start" x="387.62" y="-122.5" font-family="Helvetica,sans-Serif" font-size="10.00">TransmitRateControl</text>
<text xml:space="preserve" text-anchor="start" x="365" y="-105.75" font-family="Helvetica,sans-Serif" font-size="10.00">&#45;</text>
<text xml:space="preserve" text-anchor="start" x="375" y="-105.75" font-family="Helvetica,sans-Serif" font-size="10.00">m_fsm</text>
<text xml:space="preserve" text-anchor="start" x="365" y="-89" font-family="Helvetica,sans-Serif" font-size="10.00">&#45;</text>
<text xml:space="preserve" text-anchor="start" x="375" y="-89" font-family="Helvetica,sans-Serif" font-size="10.00">m_fsm_budget</text>
<text xml:space="preserve" text-anchor="start" x="362.75" y="-72.25" font-family="Helvetica,sans-Serif" font-size="10.00">+</text>
<text xml:space="preserve" text-anchor="start" x="375" y="-72.25" font-family="Helvetica,sans-Serif" font-size="10.00">SingleReactiveTransmitRate</text>
<text xml:space="preserve" text-anchor="start" x="375" y="-59.5" font-family="Helvetica,sans-Serif" font-size="10.00">Control()</text>
<text xml:space="preserve" text-anchor="start" x="362.75" y="-42.75" font-family="Helvetica,sans-Serif" font-size="10.00">+</text>
<text xml:space="preserve" text-anchor="start" x="375" y="-42.75" font-family="Helvetica,sans-Serif" font-size="10.00">delay()</text>
<text xml:space="preserve" text-anchor="start" x="362.75" y="-26" font-family="Helvetica,sans-Serif" font-size="10.00">+</text>
<text xml:space="preserve" text-anchor="start" x="375" y="-26" font-family="Helvetica,sans-Serif" font-size="10.00">interval()</text>
<text xml:space="preserve" text-anchor="start" x="362.75" y="-9.25" font-family="Helvetica,sans-Serif" font-size="10.00">+</text>
<text xml:space="preserve" text-anchor="start" x="375" y="-9.25" font-family="Helvetica,sans-Serif" font-size="10.00">notify()</text>
<polygon fill="#666666" stroke="#666666" points="358.75,-117.25 358.75,-117.25 516.25,-117.25 516.25,-117.25 358.75,-117.25"/>
<polygon fill="#666666" stroke="#666666" points="358.75,-83.75 358.75,-83.75 373,-83.75 373,-83.75 358.75,-83.75"/>
<polygon fill="#666666" stroke="#666666" points="373,-83.75 373,-83.75 516.25,-83.75 516.25,-83.75 373,-83.75"/>
<polygon fill="none" stroke="#666666" points="358.75,-2 358.75,-148.75 516.25,-148.75 516.25,-2 358.75,-2"/>
</a>
</g>
</g>
<!-- Node2&#45;&gt;Node5 -->
<g id="edge4_Node000002_Node000005" class="edge">
<title>Node2&#45;&gt;Node5</title>
<g id="a_edge4_Node000002_Node000005"><a xlink:title=" ">
<path fill="none" stroke="#63b8ff" d="M311.41,-180.22C324,-170.71 337.31,-160.48 349.5,-150.75 352.63,-148.25 355.8,-145.7 359,-143.1"/>
<polygon fill="none" stroke="#63b8ff" points="309.49,-177.28 303.6,-186.08 313.7,-182.87 309.49,-177.28"/>
</a>
</g>
</g>
</g>
</svg>
