<?xml version="1.0" encoding="UTF-8" standalone="no"?>
<!DOCTYPE svg PUBLIC "-//W3C//DTD SVG 1.1//EN"
 "http://www.w3.org/Graphics/SVG/1.1/DTD/svg11.dtd">
<!-- Generated by graphviz version 2.42.3 (0)
 -->
<!-- Title: vanetza::security::v3::IssuerIdentifier Pages: 1 -->
<svg width="136pt" height="321pt"
 viewBox="0.00 0.00 136.00 321.00" xmlns="http://www.w3.org/2000/svg" xmlns:xlink="http://www.w3.org/1999/xlink">
<g id="graph0" class="graph" transform="scale(1 1) rotate(0) translate(4 317)">
<title>vanetza::security::v3::IssuerIdentifier</title>
<polygon fill="white" stroke="transparent" points="-4,4 -4,-317 132,-317 132,4 -4,4"/>
<!-- Node1 -->
<g id="node1" class="node">
<title>Node1</title>
<g id="a_node1"><a xlink:title=" ">
<polygon fill="#bfbfbf" stroke="black" points="12.5,-0.5 12.5,-90.5 115.5,-90.5 115.5,-0.5 12.5,-0.5"/>
<text text-anchor="start" x="20.5" y="-78.5" font-family="Helvetica,sans-Serif" font-size="10.00">vanetza::security::</text>
<text text-anchor="middle" x="64" y="-67.5" font-family="Helvetica,sans-Serif" font-size="10.00">v3::IssuerIdentifier</text>
<polyline fill="none" stroke="black" points="12.5,-60.5 115.5,-60.5 "/>
<text text-anchor="start" x="20.5" y="-48.5" font-family="Helvetica,sans-Serif" font-size="10.00">+ sha256AndDigest</text>
<text text-anchor="start" x="20.5" y="-37.5" font-family="Helvetica,sans-Serif" font-size="10.00">+ self</text>
<text text-anchor="start" x="20.5" y="-26.5" font-family="Helvetica,sans-Serif" font-size="10.00">+ sha384AndDigest</text>
<polyline fill="none" stroke="black" points="12.5,-19.5 115.5,-19.5 "/>
<text text-anchor="middle" x="64" y="-7.5" font-family="Helvetica,sans-Serif" font-size="10.00"> </text>
</a>
</g>
</g>
<!-- Node2 -->
<g id="node2" class="node">
<title>Node2</title>
<g id="a_node2"><a xlink:href="../../d2/d53/structvanetza_1_1security_1_1v3_1_1Choice.html" target="_top" xlink:title=" ">
<polygon fill="white" stroke="black" points="15,-128.5 15,-196.5 113,-196.5 113,-128.5 15,-128.5"/>
<text text-anchor="start" x="23" y="-184.5" font-family="Helvetica,sans-Serif" font-size="10.00">vanetza::security::</text>
<text text-anchor="middle" x="64" y="-173.5" font-family="Helvetica,sans-Serif" font-size="10.00">v3::Choice&lt; true &gt;</text>
<polyline fill="none" stroke="black" points="15,-166.5 113,-166.5 "/>
<text text-anchor="start" x="23" y="-154.5" font-family="Helvetica,sans-Serif" font-size="10.00">+ choice</text>
<polyline fill="none" stroke="black" points="15,-147.5 113,-147.5 "/>
<text text-anchor="middle" x="64" y="-135.5" font-family="Helvetica,sans-Serif" font-size="10.00"> </text>
</a>
</g>
</g>
<!-- Node2&#45;&gt;Node1 -->
<g id="edge1" class="edge">
<title>Node2&#45;&gt;Node1</title>
<path fill="none" stroke="midnightblue" d="M64,-118.05C64,-109.15 64,-99.76 64,-90.82"/>
<polygon fill="none" stroke="midnightblue" points="60.5,-118.24 64,-128.24 67.5,-118.24 60.5,-118.24"/>
</g>
<!-- Node3 -->
<g id="node3" class="node">
<title>Node3</title>
<g id="a_node3"><a xlink:href="../../d2/d53/structvanetza_1_1security_1_1v3_1_1Choice.html" target="_top" xlink:title=" ">
<polygon fill="white" stroke="black" points="0,-244.5 0,-312.5 128,-312.5 128,-244.5 0,-244.5"/>
<text text-anchor="start" x="8" y="-300.5" font-family="Helvetica,sans-Serif" font-size="10.00">vanetza::security::</text>
<text text-anchor="middle" x="64" y="-289.5" font-family="Helvetica,sans-Serif" font-size="10.00">v3::Choice&lt; Extensible &gt;</text>
<polyline fill="none" stroke="black" points="0,-282.5 128,-282.5 "/>
<text text-anchor="start" x="8" y="-270.5" font-family="Helvetica,sans-Serif" font-size="10.00">+ choice</text>
<polyline fill="none" stroke="black" points="0,-263.5 128,-263.5 "/>
<text text-anchor="middle" x="64" y="-251.5" font-family="Helvetica,sans-Serif" font-size="10.00"> </text>
</a>
</g>
</g>
<!-- Node3&#45;&gt;Node2 -->
<g id="edge2" class="edge">
<title>Node3&#45;&gt;Node2</title>
<path fill="none" stroke="orange" d="M64,-234.06C64,-221.64 64,-208.32 64,-196.62"/>
<polygon fill="orange" stroke="orange" points="60.5,-234.22 64,-244.22 67.5,-234.22 60.5,-234.22"/>
<text text-anchor="middle" x="83" y="-218" font-family="Helvetica,sans-Serif" font-size="10.00"> &lt; true &gt;</text>
</g>
</g>
</svg>
