<?xml version="1.0" encoding="UTF-8" standalone="no"?>
<!DOCTYPE svg PUBLIC "-//W3C//DTD SVG 1.1//EN"
 "http://www.w3.org/Graphics/SVG/1.1/DTD/svg11.dtd">
<!-- Generated by graphviz version 2.42.3 (0)
 -->
<!-- Title: vanetza::convertible::byte_buffer Pages: 1 -->
<!--zoomable 270 -->
<svg id="main" version="1.1" xmlns="http://www.w3.org/2000/svg" xmlns:xlink="http://www.w3.org/1999/xlink" xml:space="preserve" onload="init(evt)">
<style type="text/css"><![CDATA[
.edge:hover path { stroke: red; }
.edge:hover polygon { stroke: red; fill: red; }
]]></style>
<script type="text/javascript"><![CDATA[
var edges = document.getElementsByTagName('g');
if (edges && edges.length) {
  for (var i=0;i<edges.length;i++) {
    if (edges[i].id.substr(0,4)=='edge') {
      edges[i].setAttribute('class','edge');
    }
  }
}
]]></script>
        <defs>
                <circle id="rim" cx="0" cy="0" r="7"/>
                <circle id="rim2" cx="0" cy="0" r="3.5"/>
                <g id="zoomPlus">
                        <use xlink:href="#rim" fill="#404040">
                                <set attributeName="fill" to="#808080" begin="zoomplus.mouseover" end="zoomplus.mouseout"/>
                        </use>
                        <path d="M-4,0h8M0,-4v8" fill="none" stroke="white" stroke-width="1.5" pointer-events="none"/>
                </g>
                <g id="zoomMin">
                        <use xlink:href="#rim" fill="#404040">
                                <set attributeName="fill" to="#808080" begin="zoomminus.mouseover" end="zoomminus.mouseout"/>
                        </use>
                        <path d="M-4,0h8" fill="none" stroke="white" stroke-width="1.5" pointer-events="none"/>
                </g>
                <g id="dirArrow">
                        <path fill="none" stroke="white" stroke-width="1.5" d="M0,-3.0v7 M-2.5,-0.5L0,-3.0L2.5,-0.5"/>
                </g>
               <g id="resetDef">
                       <use xlink:href="#rim2" fill="#404040">
                               <set attributeName="fill" to="#808080" begin="reset.mouseover" end="reset.mouseout"/>
                       </use>
               </g>
        </defs>

<script type="text/javascript">
var viewWidth = 1289;
var viewHeight = 270;
var sectionId = 'dynsection-0';
</script>
<script xlink:href="../../svgpan.js"/>
<svg id="graph" class="graph">
<g id="viewport">
<title>vanetza::convertible::byte_buffer</title>
<polygon fill="white" stroke="transparent" points="-4,4 -4,-266 1285,-266 1285,4 -4,4"/>
<!-- Node1 -->
<g id="node1" class="node">
<title>Node1</title>
<g id="a_node1"><a xlink:title=" ">
<polygon fill="#bfbfbf" stroke="black" points="598.5,-160.5 598.5,-261.5 702.5,-261.5 702.5,-160.5 598.5,-160.5"/>
<text text-anchor="start" x="606.5" y="-249.5" font-family="Helvetica,sans-Serif" font-size="10.00">vanetza::convertible</text>
<text text-anchor="middle" x="650.5" y="-238.5" font-family="Helvetica,sans-Serif" font-size="10.00">::byte_buffer</text>
<polyline fill="none" stroke="black" points="598.5,-231.5 702.5,-231.5 "/>
<text text-anchor="middle" x="650.5" y="-219.5" font-family="Helvetica,sans-Serif" font-size="10.00"> </text>
<polyline fill="none" stroke="black" points="598.5,-212.5 702.5,-212.5 "/>
<text text-anchor="start" x="606.5" y="-200.5" font-family="Helvetica,sans-Serif" font-size="10.00">+ convert()</text>
<text text-anchor="start" x="606.5" y="-189.5" font-family="Helvetica,sans-Serif" font-size="10.00">+ size()</text>
<text text-anchor="start" x="606.5" y="-178.5" font-family="Helvetica,sans-Serif" font-size="10.00">+ duplicate()</text>
<text text-anchor="start" x="606.5" y="-167.5" font-family="Helvetica,sans-Serif" font-size="10.00">+ ~byte_buffer()</text>
</a>
</g>
</g>
<!-- Node2 -->
<g id="node2" class="node">
<title>Node2</title>
<g id="a_node2"><a xlink:href="../../d7/deb/structvanetza_1_1convertible_1_1byte__buffer__impl.html" target="_top" xlink:title=" ">
<polygon fill="white" stroke="black" points="0,-0.5 0,-123.5 119,-123.5 119,-0.5 0,-0.5"/>
<text text-anchor="start" x="8" y="-111.5" font-family="Helvetica,sans-Serif" font-size="10.00">vanetza::convertible</text>
<text text-anchor="middle" x="59.5" y="-100.5" font-family="Helvetica,sans-Serif" font-size="10.00">::byte_buffer_impl&lt; T &gt;</text>
<polyline fill="none" stroke="black" points="0,-93.5 119,-93.5 "/>
<text text-anchor="start" x="8" y="-81.5" font-family="Helvetica,sans-Serif" font-size="10.00">&#45; m_wrapper</text>
<polyline fill="none" stroke="black" points="0,-74.5 119,-74.5 "/>
<text text-anchor="start" x="8" y="-62.5" font-family="Helvetica,sans-Serif" font-size="10.00">+ byte_buffer_impl()</text>
<text text-anchor="start" x="8" y="-51.5" font-family="Helvetica,sans-Serif" font-size="10.00">+ byte_buffer_impl()</text>
<text text-anchor="start" x="8" y="-40.5" font-family="Helvetica,sans-Serif" font-size="10.00">+ convert()</text>
<text text-anchor="start" x="8" y="-29.5" font-family="Helvetica,sans-Serif" font-size="10.00">+ duplicate()</text>
<text text-anchor="start" x="8" y="-18.5" font-family="Helvetica,sans-Serif" font-size="10.00">+ size()</text>
<text text-anchor="start" x="8" y="-7.5" font-family="Helvetica,sans-Serif" font-size="10.00">+ wrapper()</text>
</a>
</g>
</g>
<!-- Node1&#45;&gt;Node2 -->
<g id="edge1" class="edge">
<title>Node1&#45;&gt;Node2</title>
<path fill="none" stroke="midnightblue" d="M588.18,-210.81C486.62,-209.79 281.32,-197.75 127.5,-124 124.64,-122.63 121.81,-121.1 119.03,-119.44"/>
<polygon fill="none" stroke="midnightblue" points="588.25,-214.31 598.27,-210.88 588.3,-207.31 588.25,-214.31"/>
</g>
<!-- Node3 -->
<g id="node3" class="node">
<title>Node3</title>
<g id="a_node3"><a xlink:href="../../d2/d99/structvanetza_1_1convertible_1_1byte__buffer__impl_3_01btp_1_1HeaderA_01_4.html" target="_top" xlink:title=" ">
<polygon fill="white" stroke="black" points="137,-11.5 137,-112.5 254,-112.5 254,-11.5 137,-11.5"/>
<text text-anchor="start" x="145" y="-100.5" font-family="Helvetica,sans-Serif" font-size="10.00">vanetza::convertible</text>
<text text-anchor="start" x="145" y="-89.5" font-family="Helvetica,sans-Serif" font-size="10.00">::byte_buffer_impl&lt; btp</text>
<text text-anchor="middle" x="195.5" y="-78.5" font-family="Helvetica,sans-Serif" font-size="10.00">::HeaderA &gt;</text>
<polyline fill="none" stroke="black" points="137,-71.5 254,-71.5 "/>
<text text-anchor="start" x="145" y="-59.5" font-family="Helvetica,sans-Serif" font-size="10.00">+ m_header</text>
<polyline fill="none" stroke="black" points="137,-52.5 254,-52.5 "/>
<text text-anchor="start" x="145" y="-40.5" font-family="Helvetica,sans-Serif" font-size="10.00">+ byte_buffer_impl()</text>
<text text-anchor="start" x="145" y="-29.5" font-family="Helvetica,sans-Serif" font-size="10.00">+ convert()</text>
<text text-anchor="start" x="145" y="-18.5" font-family="Helvetica,sans-Serif" font-size="10.00">+ size()</text>
</a>
</g>
</g>
<!-- Node1&#45;&gt;Node3 -->
<g id="edge2" class="edge">
<title>Node1&#45;&gt;Node3</title>
<path fill="none" stroke="midnightblue" d="M587.98,-206.07C508.38,-198.9 368.46,-178.94 262.5,-124 256.36,-120.81 250.34,-116.92 244.6,-112.66"/>
<polygon fill="none" stroke="midnightblue" points="588.07,-209.59 598.33,-206.96 588.67,-202.61 588.07,-209.59"/>
</g>
<!-- Node4 -->
<g id="node4" class="node">
<title>Node4</title>
<g id="a_node4"><a xlink:href="../../d8/dda/structvanetza_1_1convertible_1_1byte__buffer__impl_3_01btp_1_1HeaderB_01_4.html" target="_top" xlink:title=" ">
<polygon fill="white" stroke="black" points="272,-11.5 272,-112.5 389,-112.5 389,-11.5 272,-11.5"/>
<text text-anchor="start" x="280" y="-100.5" font-family="Helvetica,sans-Serif" font-size="10.00">vanetza::convertible</text>
<text text-anchor="start" x="280" y="-89.5" font-family="Helvetica,sans-Serif" font-size="10.00">::byte_buffer_impl&lt; btp</text>
<text text-anchor="middle" x="330.5" y="-78.5" font-family="Helvetica,sans-Serif" font-size="10.00">::HeaderB &gt;</text>
<polyline fill="none" stroke="black" points="272,-71.5 389,-71.5 "/>
<text text-anchor="start" x="280" y="-59.5" font-family="Helvetica,sans-Serif" font-size="10.00">+ m_header</text>
<polyline fill="none" stroke="black" points="272,-52.5 389,-52.5 "/>
<text text-anchor="start" x="280" y="-40.5" font-family="Helvetica,sans-Serif" font-size="10.00">+ byte_buffer_impl()</text>
<text text-anchor="start" x="280" y="-29.5" font-family="Helvetica,sans-Serif" font-size="10.00">+ convert()</text>
<text text-anchor="start" x="280" y="-18.5" font-family="Helvetica,sans-Serif" font-size="10.00">+ size()</text>
</a>
</g>
</g>
<!-- Node1&#45;&gt;Node4 -->
<g id="edge3" class="edge">
<title>Node1&#45;&gt;Node4</title>
<path fill="none" stroke="midnightblue" d="M588.44,-196.5C535.27,-183.2 457.93,-159.66 397.5,-124 391.81,-120.64 386.18,-116.74 380.75,-112.57"/>
<polygon fill="none" stroke="midnightblue" points="587.87,-199.96 598.41,-198.94 589.53,-193.16 587.87,-199.96"/>
</g>
<!-- Node5 -->
<g id="node5" class="node">
<title>Node5</title>
<g id="a_node5"><a xlink:href="../../d9/d3a/structvanetza_1_1convertible_1_1byte__buffer__impl_3_01ByteBuffer_01_4.html" target="_top" xlink:title=" ">
<polygon fill="white" stroke="black" points="407,-17 407,-107 566,-107 566,-17 407,-17"/>
<text text-anchor="start" x="415" y="-95" font-family="Helvetica,sans-Serif" font-size="10.00">vanetza::convertible</text>
<text text-anchor="middle" x="486.5" y="-84" font-family="Helvetica,sans-Serif" font-size="10.00">::byte_buffer_impl&lt; ByteBuffer &gt;</text>
<polyline fill="none" stroke="black" points="407,-77 566,-77 "/>
<text text-anchor="start" x="415" y="-65" font-family="Helvetica,sans-Serif" font-size="10.00">+ m_buffer</text>
<polyline fill="none" stroke="black" points="407,-58 566,-58 "/>
<text text-anchor="start" x="415" y="-46" font-family="Helvetica,sans-Serif" font-size="10.00">+ byte_buffer_impl()</text>
<text text-anchor="start" x="415" y="-35" font-family="Helvetica,sans-Serif" font-size="10.00">+ convert()</text>
<text text-anchor="start" x="415" y="-24" font-family="Helvetica,sans-Serif" font-size="10.00">+ size()</text>
</a>
</g>
</g>
<!-- Node1&#45;&gt;Node5 -->
<g id="edge4" class="edge">
<title>Node1&#45;&gt;Node5</title>
<path fill="none" stroke="midnightblue" d="M590.55,-156.27C572.57,-140.15 553.05,-122.65 535.83,-107.22"/>
<polygon fill="none" stroke="midnightblue" points="588.38,-159.02 598.16,-163.08 593.05,-153.8 588.38,-159.02"/>
</g>
<!-- Node6 -->
<g id="node6" class="node">
<title>Node6</title>
<g id="a_node6"><a xlink:href="../../da/dac/structvanetza_1_1convertible_1_1byte__buffer__impl_3_01geonet_1_1SecuredPdu_01_4.html" target="_top" xlink:title=" ">
<polygon fill="white" stroke="black" points="584,-6 584,-118 717,-118 717,-6 584,-6"/>
<text text-anchor="start" x="592" y="-106" font-family="Helvetica,sans-Serif" font-size="10.00">vanetza::convertible</text>
<text text-anchor="start" x="592" y="-95" font-family="Helvetica,sans-Serif" font-size="10.00">::byte_buffer_impl&lt; geonet</text>
<text text-anchor="middle" x="650.5" y="-84" font-family="Helvetica,sans-Serif" font-size="10.00">::SecuredPdu &gt;</text>
<polyline fill="none" stroke="black" points="584,-77 717,-77 "/>
<text text-anchor="start" x="592" y="-65" font-family="Helvetica,sans-Serif" font-size="10.00">+ pdu</text>
<polyline fill="none" stroke="black" points="584,-58 717,-58 "/>
<text text-anchor="start" x="592" y="-46" font-family="Helvetica,sans-Serif" font-size="10.00">+ byte_buffer_impl()</text>
<text text-anchor="start" x="592" y="-35" font-family="Helvetica,sans-Serif" font-size="10.00">+ convert()</text>
<text text-anchor="start" x="592" y="-24" font-family="Helvetica,sans-Serif" font-size="10.00">+ size()</text>
<text text-anchor="start" x="592" y="-13" font-family="Helvetica,sans-Serif" font-size="10.00">+ duplicate()</text>
</a>
</g>
</g>
<!-- Node1&#45;&gt;Node6 -->
<g id="edge5" class="edge">
<title>Node1&#45;&gt;Node6</title>
<path fill="none" stroke="midnightblue" d="M650.5,-150.19C650.5,-139.55 650.5,-128.51 650.5,-118.02"/>
<polygon fill="none" stroke="midnightblue" points="647,-150.23 650.5,-160.23 654,-150.23 647,-150.23"/>
</g>
<!-- Node7 -->
<g id="node7" class="node">
<title>Node7</title>
<g id="a_node7"><a xlink:title=" ">
<polygon fill="white" stroke="#bfbfbf" points="735,-22.5 735,-101.5 852,-101.5 852,-22.5 735,-22.5"/>
<text text-anchor="start" x="743" y="-89.5" font-family="Helvetica,sans-Serif" font-size="10.00">vanetza::convertible</text>
<text text-anchor="start" x="743" y="-78.5" font-family="Helvetica,sans-Serif" font-size="10.00">::byte_buffer_impl&lt; std</text>
<text text-anchor="middle" x="793.5" y="-67.5" font-family="Helvetica,sans-Serif" font-size="10.00">::nullptr_t &gt;</text>
<polyline fill="none" stroke="#bfbfbf" points="735,-60.5 852,-60.5 "/>
<text text-anchor="middle" x="793.5" y="-48.5" font-family="Helvetica,sans-Serif" font-size="10.00"> </text>
<polyline fill="none" stroke="#bfbfbf" points="735,-41.5 852,-41.5 "/>
<text text-anchor="middle" x="793.5" y="-29.5" font-family="Helvetica,sans-Serif" font-size="10.00"> </text>
</a>
</g>
</g>
<!-- Node1&#45;&gt;Node7 -->
<g id="edge6" class="edge">
<title>Node1&#45;&gt;Node7</title>
<path fill="none" stroke="midnightblue" d="M706,-152.95C722.74,-135.74 740.71,-117.27 755.99,-101.56"/>
<polygon fill="none" stroke="midnightblue" points="703.38,-150.62 698.91,-160.23 708.39,-155.51 703.38,-150.62"/>
</g>
<!-- Node8 -->
<g id="node8" class="node">
<title>Node8</title>
<g id="a_node8"><a xlink:title=" ">
<polygon fill="white" stroke="#bfbfbf" points="870,-22.5 870,-101.5 987,-101.5 987,-22.5 870,-22.5"/>
<text text-anchor="start" x="878" y="-89.5" font-family="Helvetica,sans-Serif" font-size="10.00">vanetza::convertible</text>
<text text-anchor="start" x="878" y="-78.5" font-family="Helvetica,sans-Serif" font-size="10.00">::byte_buffer_impl&lt; std</text>
<text text-anchor="middle" x="928.5" y="-67.5" font-family="Helvetica,sans-Serif" font-size="10.00">::string &gt;</text>
<polyline fill="none" stroke="#bfbfbf" points="870,-60.5 987,-60.5 "/>
<text text-anchor="middle" x="928.5" y="-48.5" font-family="Helvetica,sans-Serif" font-size="10.00"> </text>
<polyline fill="none" stroke="#bfbfbf" points="870,-41.5 987,-41.5 "/>
<text text-anchor="middle" x="928.5" y="-29.5" font-family="Helvetica,sans-Serif" font-size="10.00"> </text>
</a>
</g>
</g>
<!-- Node1&#45;&gt;Node8 -->
<g id="edge7" class="edge">
<title>Node1&#45;&gt;Node8</title>
<path fill="none" stroke="midnightblue" d="M712.43,-191.2C756.02,-176.47 814.69,-153.53 861.5,-124 871.61,-117.62 881.62,-109.65 890.71,-101.6"/>
<polygon fill="none" stroke="midnightblue" points="711.2,-187.93 702.81,-194.41 713.41,-194.57 711.2,-187.93"/>
</g>
<!-- Node9 -->
<g id="node9" class="node">
<title>Node9</title>
<g id="a_node9"><a xlink:title=" ">
<polygon fill="white" stroke="#bfbfbf" points="1005,-22.5 1005,-101.5 1146,-101.5 1146,-22.5 1005,-22.5"/>
<text text-anchor="start" x="1013" y="-89.5" font-family="Helvetica,sans-Serif" font-size="10.00">vanetza::convertible</text>
<text text-anchor="start" x="1013" y="-78.5" font-family="Helvetica,sans-Serif" font-size="10.00">::byte_buffer_impl&lt; std</text>
<text text-anchor="middle" x="1075.5" y="-67.5" font-family="Helvetica,sans-Serif" font-size="10.00">::unique_ptr&lt; ByteBuffer &gt; &gt;</text>
<polyline fill="none" stroke="#bfbfbf" points="1005,-60.5 1146,-60.5 "/>
<text text-anchor="middle" x="1075.5" y="-48.5" font-family="Helvetica,sans-Serif" font-size="10.00"> </text>
<polyline fill="none" stroke="#bfbfbf" points="1005,-41.5 1146,-41.5 "/>
<text text-anchor="middle" x="1075.5" y="-29.5" font-family="Helvetica,sans-Serif" font-size="10.00"> </text>
</a>
</g>
</g>
<!-- Node1&#45;&gt;Node9 -->
<g id="edge8" class="edge">
<title>Node1&#45;&gt;Node9</title>
<path fill="none" stroke="midnightblue" d="M712.79,-202.42C784.17,-191.97 903.3,-169.09 996.5,-124 1008.82,-118.04 1021.06,-109.95 1032.1,-101.61"/>
<polygon fill="none" stroke="midnightblue" points="712.02,-198.99 702.61,-203.87 713.01,-205.92 712.02,-198.99"/>
</g>
<!-- Node10 -->
<g id="node10" class="node">
<title>Node10</title>
<g id="a_node10"><a xlink:title=" ">
<polygon fill="white" stroke="#bfbfbf" points="1164,-17 1164,-107 1281,-107 1281,-17 1164,-17"/>
<text text-anchor="start" x="1172" y="-95" font-family="Helvetica,sans-Serif" font-size="10.00">vanetza::convertible</text>
<text text-anchor="start" x="1172" y="-84" font-family="Helvetica,sans-Serif" font-size="10.00">::byte_buffer_impl&lt; std</text>
<text text-anchor="start" x="1172" y="-73" font-family="Helvetica,sans-Serif" font-size="10.00">::unique_ptr&lt; vanetza::</text>
<text text-anchor="middle" x="1222.5" y="-62" font-family="Helvetica,sans-Serif" font-size="10.00">geonet::Pdu &gt; &gt;</text>
<polyline fill="none" stroke="#bfbfbf" points="1164,-55 1281,-55 "/>
<text text-anchor="middle" x="1222.5" y="-43" font-family="Helvetica,sans-Serif" font-size="10.00"> </text>
<polyline fill="none" stroke="#bfbfbf" points="1164,-36 1281,-36 "/>
<text text-anchor="middle" x="1222.5" y="-24" font-family="Helvetica,sans-Serif" font-size="10.00"> </text>
</a>
</g>
</g>
<!-- Node1&#45;&gt;Node10 -->
<g id="edge9" class="edge">
<title>Node1&#45;&gt;Node10</title>
<path fill="none" stroke="midnightblue" d="M712.98,-210.44C811.9,-208.76 1008.42,-195.71 1155.5,-124 1164.55,-119.59 1173.26,-113.57 1181.24,-107.02"/>
<polygon fill="none" stroke="midnightblue" points="712.8,-206.94 702.85,-210.57 712.9,-213.94 712.8,-206.94"/>
</g>
</g>
</svg>
        <g id="navigator" transform="translate(0 0)" fill="#404254">
                <rect fill="#f2f5e9" fill-opacity="0.5" stroke="#606060" stroke-width=".5" x="0" y="0" width="60" height="60"/>
                <use id="zoomplus" xlink:href="#zoomPlus" x="17" y="9" onmousedown="handleZoom(evt,'in')"/>
                <use id="zoomminus" xlink:href="#zoomMin" x="42" y="9" onmousedown="handleZoom(evt,'out')"/>
                <use id="reset" xlink:href="#resetDef" x="30" y="36" onmousedown="handleReset()"/>
                <g id="arrowUp" xlink:href="#dirArrow" transform="translate(30 24)" onmousedown="handlePan(0,-1)">
                  <use xlink:href="#rim" fill="#404040">
                        <set attributeName="fill" to="#808080" begin="arrowUp.mouseover" end="arrowUp.mouseout"/>
                  </use>
                  <path fill="none" stroke="white" stroke-width="1.5" d="M0,-3.0v7 M-2.5,-0.5L0,-3.0L2.5,-0.5"/>
                </g>
                <g id="arrowRight" xlink:href="#dirArrow" transform="rotate(90) translate(36 -43)" onmousedown="handlePan(1,0)">
                  <use xlink:href="#rim" fill="#404040">
                        <set attributeName="fill" to="#808080" begin="arrowRight.mouseover" end="arrowRight.mouseout"/>
                  </use>
                  <path fill="none" stroke="white" stroke-width="1.5" d="M0,-3.0v7 M-2.5,-0.5L0,-3.0L2.5,-0.5"/>
                </g>
                <g id="arrowDown" xlink:href="#dirArrow" transform="rotate(180) translate(-30 -48)" onmousedown="handlePan(0,1)">
                  <use xlink:href="#rim" fill="#404040">
                        <set attributeName="fill" to="#808080" begin="arrowDown.mouseover" end="arrowDown.mouseout"/>
                  </use>
                  <path fill="none" stroke="white" stroke-width="1.5" d="M0,-3.0v7 M-2.5,-0.5L0,-3.0L2.5,-0.5"/>
                </g>
                <g id="arrowLeft" xlink:href="#dirArrow" transform="rotate(270) translate(-36 17)" onmousedown="handlePan(-1,0)">
                  <use xlink:href="#rim" fill="#404040">
                        <set attributeName="fill" to="#808080" begin="arrowLeft.mouseover" end="arrowLeft.mouseout"/>
                  </use>
                  <path fill="none" stroke="white" stroke-width="1.5" d="M0,-3.0v7 M-2.5,-0.5L0,-3.0L2.5,-0.5"/>
                </g>
        </g>
        <svg viewBox="0 0 15 15" width="100%" height="30px" preserveAspectRatio="xMaxYMin meet">
         <g id="arrow_out" transform="scale(0.3 0.3)">
          <a xlink:href="structvanetza_1_1convertible_1_1byte__buffer__inherit__graph_org.svg" target="_base">
           <rect id="button" ry="5" rx="5" y="6" x="6" height="38" width="38"
                fill="#f2f5e9" fill-opacity="0.5" stroke="#606060" stroke-width="1.0"/>
           <path id="arrow"
             d="M 11.500037,31.436501 C 11.940474,20.09759 22.043105,11.32322 32.158766,21.979434 L 37.068811,17.246167 C 37.068811,17.246167 37.088388,32 37.088388,32 L 22.160133,31.978069 C 22.160133,31.978069 26.997745,27.140456 26.997745,27.140456 C 18.528582,18.264221 13.291696,25.230495 11.500037,31.436501 z"
             style="fill:#404040;"/>
          </a>
         </g>
        </svg>
</svg>
