<?xml version="1.0" encoding="UTF-8" standalone="no"?>
<!DOCTYPE svg PUBLIC "-//W3C//DTD SVG 1.1//EN"
 "http://www.w3.org/Graphics/SVG/1.1/DTD/svg11.dtd">
<!-- Generated by graphviz version 2.49.3 (0)
 -->
<!-- Title: vanetza::convertible::byte_buffer Pages: 1 -->
<!--zoomable 499 -->

<svg id="main" version="1.1" xmlns="http://www.w3.org/2000/svg" xmlns:xlink="http://www.w3.org/1999/xlink" xml:space="preserve" onload="init(evt)">

<style type="text/css"><![CDATA[
.node, .edge {opacity: 0.7;}
.node.selected, .edge.selected {opacity: 1;}
.edge:hover path { stroke: red; }
.edge:hover polygon { stroke: red; fill: red; }
]]></style>

<defs>
  <circle id="rim" cx="0" cy="0" r="7"/>
  <circle id="rim2" cx="0" cy="0" r="3.5"/>
  <g id="zoomPlus">
    <use xlink:href="#rim" fill="#404040"><set attributeName="fill" to="#808080" begin="zoomplus.mouseover" end="zoomplus.mouseout"/></use>
    <path d="M-4,0h8M0,-4v8" fill="none" stroke="white" stroke-width="1.5" pointer-events="none"/>
  </g>
  <g id="zoomMin">
    <use xlink:href="#rim" fill="#404040"><set attributeName="fill" to="#808080" begin="zoomminus.mouseover" end="zoomminus.mouseout"/></use>
    <path d="M-4,0h8" fill="none" stroke="white" stroke-width="1.5" pointer-events="none"/>
  </g>
  <g id="arrowUp" transform="translate(30 24)">
    <use xlink:href="#rim"/>
    <path pointer-events="none" fill="none" stroke="white" stroke-width="1.5" d="M0,-3.0v7 M-2.5,-0.5L0,-3.0L2.5,-0.5"/>
  </g>
  <g id="arrowRight" transform="rotate(90) translate(36 -43)">
    <use xlink:href="#rim"/>
    <path pointer-events="none" fill="none" stroke="white" stroke-width="1.5" d="M0,-3.0v7 M-2.5,-0.5L0,-3.0L2.5,-0.5"/>
  </g>
  <g id="arrowDown" transform="rotate(180) translate(-30 -48)">
    <use xlink:href="#rim"/>
    <path pointer-events="none" fill="none" stroke="white" stroke-width="1.5" d="M0,-3.0v7 M-2.5,-0.5L0,-3.0L2.5,-0.5"/>
  </g>
  <g id="arrowLeft" transform="rotate(270) translate(-36 17)">
    <use xlink:href="#rim"/>
    <path pointer-events="none" fill="none" stroke="white" stroke-width="1.5" d="M0,-3.0v7 M-2.5,-0.5L0,-3.0L2.5,-0.5"/>
  </g>
  <g id="resetDef">
    <use xlink:href="#rim2" fill="#404040"><set attributeName="fill" to="#808080" begin="reset.mouseover" end="reset.mouseout"/></use>
  </g>
</defs>
<script type="application/ecmascript">
var viewWidth = 1421;
var viewHeight = 499;
var sectionId = 'dynsection-0';
</script>
<script type="application/ecmascript" xlink:href="../../svg.min.js"/>
<svg id="graph" class="graph">
<g id="viewport">
<title>vanetza::convertible::byte_buffer</title>
<!-- Node1 -->
<g id="Node000001" class="node">
<title>Node1</title>
<g id="a_Node000001"><a xlink:title=" ">
<polygon fill="#999999" stroke="transparent" points="736.5,-491 638.5,-491 638.5,-386 736.5,-386 736.5,-491"/>
<text text-anchor="start" x="643.5" y="-478.5" font-family="Helvetica,sans-Serif" font-size="10.00">vanetza::convertible</text>
<text text-anchor="start" x="660" y="-467.5" font-family="Helvetica,sans-Serif" font-size="10.00">::byte_buffer</text>
<text text-anchor="start" x="685.5" y="-452.5" font-family="Helvetica,sans-Serif" font-size="10.00"> </text>
<text text-anchor="start" x="647" y="-437.5" font-family="Helvetica,sans-Serif" font-size="10.00">+</text>
<text text-anchor="start" x="662.5" y="-437.5" font-family="Helvetica,sans-Serif" font-size="10.00">convert()</text>
<text text-anchor="start" x="647" y="-422.5" font-family="Helvetica,sans-Serif" font-size="10.00">+</text>
<text text-anchor="start" x="662.5" y="-422.5" font-family="Helvetica,sans-Serif" font-size="10.00">size()</text>
<text text-anchor="start" x="647" y="-407.5" font-family="Helvetica,sans-Serif" font-size="10.00">+</text>
<text text-anchor="start" x="662.5" y="-407.5" font-family="Helvetica,sans-Serif" font-size="10.00">duplicate()</text>
<text text-anchor="start" x="647" y="-392.5" font-family="Helvetica,sans-Serif" font-size="10.00">+</text>
<text text-anchor="start" x="662.5" y="-392.5" font-family="Helvetica,sans-Serif" font-size="10.00">~byte_buffer()</text>
<polygon fill="#666666" stroke="#666666" points="638.5,-462.5 638.5,-462.5 736.5,-462.5 736.5,-462.5 638.5,-462.5"/>
<polygon fill="#666666" stroke="#666666" points="638.5,-447.5 638.5,-447.5 736.5,-447.5 736.5,-447.5 638.5,-447.5"/>
<polygon fill="none" stroke="#666666" points="638.5,-386 638.5,-491 736.5,-491 736.5,-386 638.5,-386"/>
</a>
</g>
</g>
<!-- Node2 -->
<g id="Node000002" class="node">
<title>Node2</title>
<g id="a_Node000002"><a xlink:href="../../d9/d3a/structvanetza_1_1convertible_1_1byte__buffer__impl_3_01ByteBuffer_01_4.html" target="_top" xlink:title=" ">
<polygon fill="white" stroke="transparent" points="153,-140.5 0,-140.5 0,-5.5 153,-5.5 153,-140.5"/>
<text text-anchor="start" x="5.5" y="-128" font-family="Helvetica,sans-Serif" font-size="10.00">vanetza::convertible</text>
<text text-anchor="start" x="5.5" y="-117" font-family="Helvetica,sans-Serif" font-size="10.00">::byte_buffer_impl&lt; ByteBuffer &gt;</text>
<text text-anchor="start" x="18" y="-102" font-family="Helvetica,sans-Serif" font-size="10.00">+</text>
<text text-anchor="start" x="42.5" y="-102" font-family="Helvetica,sans-Serif" font-size="10.00">m_buffer</text>
<text text-anchor="start" x="19.5" y="-87" font-family="Helvetica,sans-Serif" font-size="10.00">&#45;</text>
<text text-anchor="start" x="42.5" y="-87" font-family="Helvetica,sans-Serif" font-size="10.00">m_wrapper</text>
<text text-anchor="start" x="18" y="-72" font-family="Helvetica,sans-Serif" font-size="10.00">+</text>
<text text-anchor="start" x="42.5" y="-72" font-family="Helvetica,sans-Serif" font-size="10.00">byte_buffer_impl()</text>
<text text-anchor="start" x="18" y="-57" font-family="Helvetica,sans-Serif" font-size="10.00">+</text>
<text text-anchor="start" x="42.5" y="-57" font-family="Helvetica,sans-Serif" font-size="10.00">convert()</text>
<text text-anchor="start" x="18" y="-42" font-family="Helvetica,sans-Serif" font-size="10.00">+</text>
<text text-anchor="start" x="42.5" y="-42" font-family="Helvetica,sans-Serif" font-size="10.00">size()</text>
<text text-anchor="start" x="18" y="-27" font-family="Helvetica,sans-Serif" font-size="10.00">+</text>
<text text-anchor="start" x="42.5" y="-27" font-family="Helvetica,sans-Serif" font-size="10.00">duplicate()</text>
<text text-anchor="start" x="18" y="-12" font-family="Helvetica,sans-Serif" font-size="10.00">+</text>
<text text-anchor="start" x="42.5" y="-12" font-family="Helvetica,sans-Serif" font-size="10.00">wrapper()</text>
<polygon fill="#bfbfbf" stroke="#bfbfbf" points="0.5,-112 0.5,-112 153.5,-112 153.5,-112 0.5,-112"/>
<polygon fill="#bfbfbf" stroke="#bfbfbf" points="0.5,-82 0.5,-82 40.5,-82 40.5,-82 0.5,-82"/>
<polygon fill="#bfbfbf" stroke="#bfbfbf" points="40.5,-82 40.5,-82 153.5,-82 153.5,-82 40.5,-82"/>
<polygon fill="none" stroke="#bfbfbf" points="0,-5.5 0,-140.5 153,-140.5 153,-5.5 0,-5.5"/>
</a>
</g>
</g>
<!-- Node1&#45;&gt;Node2 -->
<g id="edge1_Node000001_Node000002" class="edge">
<title>Node1&#45;&gt;Node2</title>
<g id="a_edge1_Node000001_Node000002"><a xlink:title=" ">
<path fill="none" stroke="#63b8ff" d="M627.9,-433.3C514.12,-423.91 271.88,-398.09 206.5,-349 138.48,-297.93 101.34,-204.21 85.11,-140.53"/>
<polygon fill="none" stroke="#63b8ff" points="627.92,-436.81 638.17,-434.13 628.48,-429.83 627.92,-436.81"/>
</a>
</g>
</g>
<!-- Node1&#45;&gt;Node2 -->
<g id="edge18_Node000001_Node000002" class="edge">
<title>Node1&#45;&gt;Node2</title>
<g id="a_edge18_Node000001_Node000002"><a xlink:title=" ">
<path fill="none" stroke="#63b8ff" d="M628.13,-432.43C518.02,-422.37 287.96,-396.65 224.5,-349 156.48,-297.93 119.34,-204.21 98.79,-140.53"/>
<polygon fill="none" stroke="#63b8ff" points="628.13,-435.94 638.41,-433.35 628.76,-428.97 628.13,-435.94"/>
</a>
</g>
</g>
<!-- Node3 -->
<g id="Node000003" class="node">
<title>Node3</title>
<g id="a_Node000003"><a xlink:href="../../d2/d99/structvanetza_1_1convertible_1_1byte__buffer__impl_3_01btp_1_1HeaderA_01_4.html" target="_top" xlink:title=" ">
<polygon fill="white" stroke="transparent" points="282,-146 171,-146 171,0 282,0 282,-146"/>
<text text-anchor="start" x="176.5" y="-134" font-family="Helvetica,sans-Serif" font-size="10.00">vanetza::convertible</text>
<text text-anchor="start" x="176.5" y="-123" font-family="Helvetica,sans-Serif" font-size="10.00">::byte_buffer_impl&lt; btp</text>
<text text-anchor="start" x="200" y="-112" font-family="Helvetica,sans-Serif" font-size="10.00">::HeaderA &gt;</text>
<text text-anchor="start" x="178.5" y="-97" font-family="Helvetica,sans-Serif" font-size="10.00">+</text>
<text text-anchor="start" x="192.5" y="-97" font-family="Helvetica,sans-Serif" font-size="10.00">m_header</text>
<text text-anchor="start" x="180" y="-82" font-family="Helvetica,sans-Serif" font-size="10.00">&#45;</text>
<text text-anchor="start" x="192.5" y="-82" font-family="Helvetica,sans-Serif" font-size="10.00">m_wrapper</text>
<text text-anchor="start" x="178.5" y="-67" font-family="Helvetica,sans-Serif" font-size="10.00">+</text>
<text text-anchor="start" x="192.5" y="-67" font-family="Helvetica,sans-Serif" font-size="10.00">byte_buffer_impl()</text>
<text text-anchor="start" x="178.5" y="-52" font-family="Helvetica,sans-Serif" font-size="10.00">+</text>
<text text-anchor="start" x="192.5" y="-52" font-family="Helvetica,sans-Serif" font-size="10.00">convert()</text>
<text text-anchor="start" x="178.5" y="-37" font-family="Helvetica,sans-Serif" font-size="10.00">+</text>
<text text-anchor="start" x="192.5" y="-37" font-family="Helvetica,sans-Serif" font-size="10.00">size()</text>
<text text-anchor="start" x="178.5" y="-22" font-family="Helvetica,sans-Serif" font-size="10.00">+</text>
<text text-anchor="start" x="192.5" y="-22" font-family="Helvetica,sans-Serif" font-size="10.00">duplicate()</text>
<text text-anchor="start" x="178.5" y="-7" font-family="Helvetica,sans-Serif" font-size="10.00">+</text>
<text text-anchor="start" x="192.5" y="-7" font-family="Helvetica,sans-Serif" font-size="10.00">wrapper()</text>
<polygon fill="#bfbfbf" stroke="#bfbfbf" points="171.5,-107 171.5,-107 282.5,-107 282.5,-107 171.5,-107"/>
<polygon fill="#bfbfbf" stroke="#bfbfbf" points="171.5,-77 171.5,-77 190.5,-77 190.5,-77 171.5,-77"/>
<polygon fill="#bfbfbf" stroke="#bfbfbf" points="190.5,-77 190.5,-77 282.5,-77 282.5,-77 190.5,-77"/>
<polygon fill="none" stroke="#bfbfbf" points="171,0 171,-146 282,-146 282,0 171,0"/>
</a>
</g>
</g>
<!-- Node1&#45;&gt;Node3 -->
<g id="edge2_Node000001_Node000003" class="edge">
<title>Node1&#45;&gt;Node3</title>
<g id="a_edge2_Node000001_Node000003"><a xlink:title=" ">
<path fill="none" stroke="#63b8ff" d="M628.32,-432.44C556.9,-423.95 435.6,-402.18 346.5,-349 266.32,-301.14 236.92,-282.8 202.5,-196 196.32,-180.43 195.35,-162.93 197.22,-146.16"/>
<polygon fill="none" stroke="#63b8ff" points="628.16,-435.95 638.49,-433.6 628.95,-428.99 628.16,-435.95"/>
</a>
</g>
</g>
<!-- Node1&#45;&gt;Node3 -->
<g id="edge19_Node000001_Node000003" class="edge">
<title>Node1&#45;&gt;Node3</title>
<g id="a_edge19_Node000001_Node000003"><a xlink:title=" ">
<path fill="none" stroke="#63b8ff" d="M628.37,-430.78C560.58,-421.25 448.3,-399.02 364.5,-349 284.32,-301.14 254.92,-282.8 220.5,-196 214.32,-180.43 213.35,-162.93 214.7,-146.16"/>
<polygon fill="none" stroke="#63b8ff" points="628.07,-434.27 638.45,-432.15 629.01,-427.34 628.07,-434.27"/>
</a>
</g>
</g>
<!-- Node4 -->
<g id="Node000004" class="node">
<title>Node4</title>
<g id="a_Node000004"><a xlink:href="../../d8/dda/structvanetza_1_1convertible_1_1byte__buffer__impl_3_01btp_1_1HeaderB_01_4.html" target="_top" xlink:title=" ">
<polygon fill="white" stroke="transparent" points="411,-146 300,-146 300,0 411,0 411,-146"/>
<text text-anchor="start" x="305.5" y="-134" font-family="Helvetica,sans-Serif" font-size="10.00">vanetza::convertible</text>
<text text-anchor="start" x="305.5" y="-123" font-family="Helvetica,sans-Serif" font-size="10.00">::byte_buffer_impl&lt; btp</text>
<text text-anchor="start" x="329" y="-112" font-family="Helvetica,sans-Serif" font-size="10.00">::HeaderB &gt;</text>
<text text-anchor="start" x="307.5" y="-97" font-family="Helvetica,sans-Serif" font-size="10.00">+</text>
<text text-anchor="start" x="321.5" y="-97" font-family="Helvetica,sans-Serif" font-size="10.00">m_header</text>
<text text-anchor="start" x="309" y="-82" font-family="Helvetica,sans-Serif" font-size="10.00">&#45;</text>
<text text-anchor="start" x="321.5" y="-82" font-family="Helvetica,sans-Serif" font-size="10.00">m_wrapper</text>
<text text-anchor="start" x="307.5" y="-67" font-family="Helvetica,sans-Serif" font-size="10.00">+</text>
<text text-anchor="start" x="321.5" y="-67" font-family="Helvetica,sans-Serif" font-size="10.00">byte_buffer_impl()</text>
<text text-anchor="start" x="307.5" y="-52" font-family="Helvetica,sans-Serif" font-size="10.00">+</text>
<text text-anchor="start" x="321.5" y="-52" font-family="Helvetica,sans-Serif" font-size="10.00">convert()</text>
<text text-anchor="start" x="307.5" y="-37" font-family="Helvetica,sans-Serif" font-size="10.00">+</text>
<text text-anchor="start" x="321.5" y="-37" font-family="Helvetica,sans-Serif" font-size="10.00">size()</text>
<text text-anchor="start" x="307.5" y="-22" font-family="Helvetica,sans-Serif" font-size="10.00">+</text>
<text text-anchor="start" x="321.5" y="-22" font-family="Helvetica,sans-Serif" font-size="10.00">duplicate()</text>
<text text-anchor="start" x="307.5" y="-7" font-family="Helvetica,sans-Serif" font-size="10.00">+</text>
<text text-anchor="start" x="321.5" y="-7" font-family="Helvetica,sans-Serif" font-size="10.00">wrapper()</text>
<polygon fill="#bfbfbf" stroke="#bfbfbf" points="300.5,-107 300.5,-107 411.5,-107 411.5,-107 300.5,-107"/>
<polygon fill="#bfbfbf" stroke="#bfbfbf" points="300.5,-77 300.5,-77 319.5,-77 319.5,-77 300.5,-77"/>
<polygon fill="#bfbfbf" stroke="#bfbfbf" points="319.5,-77 319.5,-77 411.5,-77 411.5,-77 319.5,-77"/>
<polygon fill="none" stroke="#bfbfbf" points="300,0 300,-146 411,-146 411,0 300,0"/>
</a>
</g>
</g>
<!-- Node1&#45;&gt;Node4 -->
<g id="edge3_Node000001_Node000004" class="edge">
<title>Node1&#45;&gt;Node4</title>
<g id="a_edge3_Node000001_Node000004"><a xlink:title=" ">
<path fill="none" stroke="#63b8ff" d="M628.77,-420.16C543.5,-389.97 390.42,-318.94 339.5,-196 333.09,-180.52 331.3,-162.97 332.15,-146.11"/>
<polygon fill="none" stroke="#63b8ff" points="627.72,-423.5 638.31,-423.47 630.01,-416.89 627.72,-423.5"/>
</a>
</g>
</g>
<!-- Node1&#45;&gt;Node4 -->
<g id="edge20_Node000001_Node000004" class="edge">
<title>Node1&#45;&gt;Node4</title>
<g id="a_edge20_Node000001_Node000004"><a xlink:title=" ">
<path fill="none" stroke="#63b8ff" d="M628.67,-415.7C547.52,-383.27 406.06,-313.24 357.5,-196 351.09,-180.52 349.3,-162.97 349.63,-146.11"/>
<polygon fill="none" stroke="#63b8ff" points="627.67,-419.06 638.26,-419.47 630.23,-412.55 627.67,-419.06"/>
</a>
</g>
</g>
<!-- Node5 -->
<g id="Node000005" class="node">
<title>Node5</title>
<g id="a_Node000005"><a xlink:href="../../da/dac/structvanetza_1_1convertible_1_1byte__buffer__impl_3_01geonet_1_1SecuredPdu_01_4.html" target="_top" xlink:title=" ">
<polygon fill="white" stroke="transparent" points="556,-146 429,-146 429,0 556,0 556,-146"/>
<text text-anchor="start" x="434.5" y="-134" font-family="Helvetica,sans-Serif" font-size="10.00">vanetza::convertible</text>
<text text-anchor="start" x="434.5" y="-123" font-family="Helvetica,sans-Serif" font-size="10.00">::byte_buffer_impl&lt; geonet</text>
<text text-anchor="start" x="458.5" y="-112" font-family="Helvetica,sans-Serif" font-size="10.00">::SecuredPdu &gt;</text>
<text text-anchor="start" x="440.5" y="-97" font-family="Helvetica,sans-Serif" font-size="10.00">+</text>
<text text-anchor="start" x="458.5" y="-97" font-family="Helvetica,sans-Serif" font-size="10.00">pdu</text>
<text text-anchor="start" x="442" y="-82" font-family="Helvetica,sans-Serif" font-size="10.00">&#45;</text>
<text text-anchor="start" x="458.5" y="-82" font-family="Helvetica,sans-Serif" font-size="10.00">m_wrapper</text>
<text text-anchor="start" x="440.5" y="-67" font-family="Helvetica,sans-Serif" font-size="10.00">+</text>
<text text-anchor="start" x="458.5" y="-67" font-family="Helvetica,sans-Serif" font-size="10.00">byte_buffer_impl()</text>
<text text-anchor="start" x="440.5" y="-52" font-family="Helvetica,sans-Serif" font-size="10.00">+</text>
<text text-anchor="start" x="458.5" y="-52" font-family="Helvetica,sans-Serif" font-size="10.00">convert()</text>
<text text-anchor="start" x="440.5" y="-37" font-family="Helvetica,sans-Serif" font-size="10.00">+</text>
<text text-anchor="start" x="458.5" y="-37" font-family="Helvetica,sans-Serif" font-size="10.00">size()</text>
<text text-anchor="start" x="440.5" y="-22" font-family="Helvetica,sans-Serif" font-size="10.00">+</text>
<text text-anchor="start" x="458.5" y="-22" font-family="Helvetica,sans-Serif" font-size="10.00">duplicate()</text>
<text text-anchor="start" x="440.5" y="-7" font-family="Helvetica,sans-Serif" font-size="10.00">+</text>
<text text-anchor="start" x="458.5" y="-7" font-family="Helvetica,sans-Serif" font-size="10.00">wrapper()</text>
<polygon fill="#bfbfbf" stroke="#bfbfbf" points="429.5,-107 429.5,-107 556.5,-107 556.5,-107 429.5,-107"/>
<polygon fill="#bfbfbf" stroke="#bfbfbf" points="429.5,-77 429.5,-77 456.5,-77 456.5,-77 429.5,-77"/>
<polygon fill="#bfbfbf" stroke="#bfbfbf" points="456.5,-77 456.5,-77 556.5,-77 556.5,-77 456.5,-77"/>
<polygon fill="none" stroke="#bfbfbf" points="429,0 429,-146 556,-146 556,0 429,0"/>
</a>
</g>
</g>
<!-- Node1&#45;&gt;Node5 -->
<g id="edge4_Node000001_Node000005" class="edge">
<title>Node1&#45;&gt;Node5</title>
<g id="a_edge4_Node000001_Node000005"><a xlink:title=" ">
<path fill="none" stroke="#63b8ff" d="M630.88,-393.33C582.53,-348.76 516.55,-275.33 487.5,-196 481.78,-180.38 479.19,-162.87 478.61,-146.09"/>
<polygon fill="none" stroke="#63b8ff" points="628.73,-396.1 638.48,-400.23 633.43,-390.92 628.73,-396.1"/>
</a>
</g>
</g>
<!-- Node1&#45;&gt;Node5 -->
<g id="edge21_Node000001_Node000005" class="edge">
<title>Node1&#45;&gt;Node5</title>
<g id="a_edge21_Node000001_Node000005"><a xlink:title=" ">
<path fill="none" stroke="#63b8ff" d="M631.11,-379.42C587.95,-334.31 531.7,-267.56 505.5,-196 499.78,-180.38 497.19,-162.87 496.09,-146.09"/>
<polygon fill="none" stroke="#63b8ff" points="628.72,-381.99 638.19,-386.75 633.76,-377.13 628.72,-381.99"/>
</a>
</g>
</g>
<!-- Node6 -->
<g id="Node000006" class="node">
<title>Node6</title>
<g id="a_Node000006"><a xlink:title=" ">
<polygon fill="white" stroke="transparent" points="1002,-108.5 891,-108.5 891,-37.5 1002,-37.5 1002,-108.5"/>
<text text-anchor="start" x="896.5" y="-96" font-family="Helvetica,sans-Serif" font-size="10.00">vanetza::convertible</text>
<text text-anchor="start" x="896.5" y="-85" font-family="Helvetica,sans-Serif" font-size="10.00">::byte_buffer_impl&lt; std</text>
<text text-anchor="start" x="922" y="-74" font-family="Helvetica,sans-Serif" font-size="10.00">::nullptr_t &gt;</text>
<text text-anchor="start" x="945" y="-59" font-family="Helvetica,sans-Serif" font-size="10.00"> </text>
<text text-anchor="start" x="945" y="-44" font-family="Helvetica,sans-Serif" font-size="10.00"> </text>
<polygon fill="#bfbfbf" stroke="#bfbfbf" points="891.5,-69 891.5,-69 1002.5,-69 1002.5,-69 891.5,-69"/>
<polygon fill="#bfbfbf" stroke="#bfbfbf" points="891.5,-54 891.5,-54 1002.5,-54 1002.5,-54 891.5,-54"/>
<polygon fill="none" stroke="#bfbfbf" points="891,-37.5 891,-108.5 1002,-108.5 1002,-37.5 891,-37.5"/>
</a>
</g>
</g>
<!-- Node1&#45;&gt;Node6 -->
<g id="edge5_Node000001_Node000006" class="edge">
<title>Node1&#45;&gt;Node6</title>
<g id="a_edge5_Node000001_Node000006"><a xlink:title=" ">
<path fill="none" stroke="#63b8ff" d="M744.81,-391.25C798.53,-347.53 876.35,-276.73 917.5,-196 931.39,-168.75 936.01,-134.04 938.93,-108.61"/>
<polygon fill="none" stroke="#63b8ff" points="742.32,-388.76 736.73,-397.77 746.71,-394.21 742.32,-388.76"/>
</a>
</g>
</g>
<!-- Node1&#45;&gt;Node6 -->
<g id="edge22_Node000001_Node000006" class="edge">
<title>Node1&#45;&gt;Node6</title>
<g id="a_edge22_Node000001_Node000006"><a xlink:title=" ">
<path fill="none" stroke="#63b8ff" d="M745.07,-401.54C803.41,-359.18 890.95,-283.41 935.5,-196 949.39,-168.75 954.01,-134.04 953.83,-108.61"/>
<polygon fill="none" stroke="#63b8ff" points="742.78,-398.87 736.68,-407.54 746.85,-404.56 742.78,-398.87"/>
</a>
</g>
</g>
<!-- Node7 -->
<g id="Node000007" class="node">
<title>Node7</title>
<g id="a_Node000007"><a xlink:title=" ">
<polygon fill="white" stroke="transparent" points="1131,-108.5 1020,-108.5 1020,-37.5 1131,-37.5 1131,-108.5"/>
<text text-anchor="start" x="1025.5" y="-96" font-family="Helvetica,sans-Serif" font-size="10.00">vanetza::convertible</text>
<text text-anchor="start" x="1025.5" y="-85" font-family="Helvetica,sans-Serif" font-size="10.00">::byte_buffer_impl&lt; std</text>
<text text-anchor="start" x="1056" y="-74" font-family="Helvetica,sans-Serif" font-size="10.00">::string &gt;</text>
<text text-anchor="start" x="1074" y="-59" font-family="Helvetica,sans-Serif" font-size="10.00"> </text>
<text text-anchor="start" x="1074" y="-44" font-family="Helvetica,sans-Serif" font-size="10.00"> </text>
<polygon fill="#bfbfbf" stroke="#bfbfbf" points="1020.5,-69 1020.5,-69 1131.5,-69 1131.5,-69 1020.5,-69"/>
<polygon fill="#bfbfbf" stroke="#bfbfbf" points="1020.5,-54 1020.5,-54 1131.5,-54 1131.5,-54 1020.5,-54"/>
<polygon fill="none" stroke="#bfbfbf" points="1020,-37.5 1020,-108.5 1131,-108.5 1131,-37.5 1020,-37.5"/>
</a>
</g>
</g>
<!-- Node1&#45;&gt;Node7 -->
<g id="edge6_Node000001_Node000007" class="edge">
<title>Node1&#45;&gt;Node7</title>
<g id="a_edge6_Node000001_Node000007"><a xlink:title=" ">
<path fill="none" stroke="#63b8ff" d="M746.36,-420.82C836.81,-392.65 1005.86,-325.6 1069.5,-196 1082.81,-168.9 1080.37,-134.17 1077.15,-108.7"/>
<polygon fill="none" stroke="#63b8ff" points="745.07,-417.56 736.53,-423.83 747.11,-424.25 745.07,-417.56"/>
</a>
</g>
</g>
<!-- Node1&#45;&gt;Node7 -->
<g id="edge23_Node000001_Node000007" class="edge">
<title>Node1&#45;&gt;Node7</title>
<g id="a_edge23_Node000001_Node000007"><a xlink:title=" ">
<path fill="none" stroke="#63b8ff" d="M746.18,-424.17C840.4,-398.18 1021.18,-331.05 1087.5,-196 1100.81,-168.9 1098.37,-134.17 1092.04,-108.7"/>
<polygon fill="none" stroke="#63b8ff" points="745.26,-420.8 736.51,-426.78 747.08,-427.56 745.26,-420.8"/>
</a>
</g>
</g>
<!-- Node8 -->
<g id="Node000008" class="node">
<title>Node8</title>
<g id="a_Node000008"><a xlink:title=" ">
<polygon fill="white" stroke="transparent" points="1284,-108.5 1149,-108.5 1149,-37.5 1284,-37.5 1284,-108.5"/>
<text text-anchor="start" x="1154.5" y="-96" font-family="Helvetica,sans-Serif" font-size="10.00">vanetza::convertible</text>
<text text-anchor="start" x="1154.5" y="-85" font-family="Helvetica,sans-Serif" font-size="10.00">::byte_buffer_impl&lt; std</text>
<text text-anchor="start" x="1154.5" y="-74" font-family="Helvetica,sans-Serif" font-size="10.00">::unique_ptr&lt; ByteBuffer &gt; &gt;</text>
<text text-anchor="start" x="1215" y="-59" font-family="Helvetica,sans-Serif" font-size="10.00"> </text>
<text text-anchor="start" x="1215" y="-44" font-family="Helvetica,sans-Serif" font-size="10.00"> </text>
<polygon fill="#bfbfbf" stroke="#bfbfbf" points="1149.5,-69 1149.5,-69 1284.5,-69 1284.5,-69 1149.5,-69"/>
<polygon fill="#bfbfbf" stroke="#bfbfbf" points="1149.5,-54 1149.5,-54 1284.5,-54 1284.5,-54 1149.5,-54"/>
<polygon fill="none" stroke="#bfbfbf" points="1149,-37.5 1149,-108.5 1284,-108.5 1284,-37.5 1149,-37.5"/>
</a>
</g>
</g>
<!-- Node1&#45;&gt;Node8 -->
<g id="edge7_Node000001_Node000008" class="edge">
<title>Node1&#45;&gt;Node8</title>
<g id="a_edge7_Node000001_Node000008"><a xlink:title=" ">
<path fill="none" stroke="#63b8ff" d="M746.62,-434.68C870.79,-425.04 1155.48,-382.62 1260.5,-196 1276.47,-167.62 1258.77,-133.5 1241.15,-108.56"/>
<polygon fill="none" stroke="#63b8ff" points="746.25,-431.19 736.53,-435.41 746.76,-438.18 746.25,-431.19"/>
</a>
</g>
</g>
<!-- Node1&#45;&gt;Node8 -->
<g id="edge24_Node000001_Node000008" class="edge">
<title>Node1&#45;&gt;Node8</title>
<g id="a_edge24_Node000001_Node000008"><a xlink:title=" ">
<path fill="none" stroke="#63b8ff" d="M747,-435.34C874.53,-427.06 1170.87,-387.25 1278.5,-196 1294.47,-167.62 1276.77,-133.5 1256.14,-108.56"/>
<polygon fill="none" stroke="#63b8ff" points="746.42,-431.86 736.65,-435.96 746.85,-438.85 746.42,-431.86"/>
</a>
</g>
</g>
<!-- Node9 -->
<g id="Node000009" class="node">
<title>Node9</title>
<g id="a_Node000009"><a xlink:title=" ">
<polygon fill="white" stroke="transparent" points="1413,-114 1302,-114 1302,-32 1413,-32 1413,-114"/>
<text text-anchor="start" x="1307.5" y="-102" font-family="Helvetica,sans-Serif" font-size="10.00">vanetza::convertible</text>
<text text-anchor="start" x="1307.5" y="-91" font-family="Helvetica,sans-Serif" font-size="10.00">::byte_buffer_impl&lt; std</text>
<text text-anchor="start" x="1307.5" y="-80" font-family="Helvetica,sans-Serif" font-size="10.00">::unique_ptr&lt; vanetza::</text>
<text text-anchor="start" x="1323" y="-69" font-family="Helvetica,sans-Serif" font-size="10.00">geonet::Pdu &gt; &gt;</text>
<text text-anchor="start" x="1356" y="-54" font-family="Helvetica,sans-Serif" font-size="10.00"> </text>
<text text-anchor="start" x="1356" y="-39" font-family="Helvetica,sans-Serif" font-size="10.00"> </text>
<polygon fill="#bfbfbf" stroke="#bfbfbf" points="1302.5,-64 1302.5,-64 1413.5,-64 1413.5,-64 1302.5,-64"/>
<polygon fill="#bfbfbf" stroke="#bfbfbf" points="1302.5,-49 1302.5,-49 1413.5,-49 1413.5,-49 1302.5,-49"/>
<polygon fill="none" stroke="#bfbfbf" points="1302,-32 1302,-114 1413,-114 1413,-32 1302,-32"/>
</a>
</g>
</g>
<!-- Node1&#45;&gt;Node9 -->
<g id="edge8_Node000001_Node000009" class="edge">
<title>Node1&#45;&gt;Node9</title>
<g id="a_edge8_Node000001_Node000009"><a xlink:title=" ">
<path fill="none" stroke="#63b8ff" d="M747.12,-432.86C864.1,-423.15 1118.23,-397.47 1190.5,-349 1274.41,-292.72 1319.21,-175.83 1341.17,-114.13"/>
<polygon fill="none" stroke="#63b8ff" points="746.59,-429.39 736.91,-433.69 747.16,-436.37 746.59,-429.39"/>
</a>
</g>
</g>
<!-- Node1&#45;&gt;Node9 -->
<g id="edge25_Node000001_Node000009" class="edge">
<title>Node1&#45;&gt;Node9</title>
<g id="a_edge25_Node000001_Node000009"><a xlink:title=" ">
<path fill="none" stroke="#63b8ff" d="M747,-433.65C867.36,-424.6 1134.16,-398.86 1208.5,-349 1292.41,-292.72 1337.21,-175.83 1352.54,-114.13"/>
<polygon fill="none" stroke="#63b8ff" points="746.57,-430.18 736.86,-434.4 747.09,-437.16 746.57,-430.18"/>
</a>
</g>
</g>
<!-- Node10 -->
<g id="Node000010" class="node">
<title>Node10</title>
<g id="a_Node000010"><a xlink:href="../../d7/deb/structvanetza_1_1convertible_1_1byte__buffer__impl.html" target="_top" xlink:title=" ">
<polygon fill="white" stroke="transparent" points="744,-349 631,-349 631,-214 744,-214 744,-349"/>
<text text-anchor="start" x="636.5" y="-336.5" font-family="Helvetica,sans-Serif" font-size="10.00">vanetza::convertible</text>
<text text-anchor="start" x="636.5" y="-325.5" font-family="Helvetica,sans-Serif" font-size="10.00">::byte_buffer_impl&lt; T &gt;</text>
<text text-anchor="start" x="640.5" y="-310.5" font-family="Helvetica,sans-Serif" font-size="10.00">&#45;</text>
<text text-anchor="start" x="653.5" y="-310.5" font-family="Helvetica,sans-Serif" font-size="10.00">m_wrapper</text>
<text text-anchor="start" x="639" y="-295.5" font-family="Helvetica,sans-Serif" font-size="10.00">+</text>
<text text-anchor="start" x="653.5" y="-295.5" font-family="Helvetica,sans-Serif" font-size="10.00">byte_buffer_impl()</text>
<text text-anchor="start" x="639" y="-280.5" font-family="Helvetica,sans-Serif" font-size="10.00">+</text>
<text text-anchor="start" x="653.5" y="-280.5" font-family="Helvetica,sans-Serif" font-size="10.00">byte_buffer_impl()</text>
<text text-anchor="start" x="639" y="-265.5" font-family="Helvetica,sans-Serif" font-size="10.00">+</text>
<text text-anchor="start" x="653.5" y="-265.5" font-family="Helvetica,sans-Serif" font-size="10.00">convert()</text>
<text text-anchor="start" x="639" y="-250.5" font-family="Helvetica,sans-Serif" font-size="10.00">+</text>
<text text-anchor="start" x="653.5" y="-250.5" font-family="Helvetica,sans-Serif" font-size="10.00">duplicate()</text>
<text text-anchor="start" x="639" y="-235.5" font-family="Helvetica,sans-Serif" font-size="10.00">+</text>
<text text-anchor="start" x="653.5" y="-235.5" font-family="Helvetica,sans-Serif" font-size="10.00">size()</text>
<text text-anchor="start" x="639" y="-220.5" font-family="Helvetica,sans-Serif" font-size="10.00">+</text>
<text text-anchor="start" x="653.5" y="-220.5" font-family="Helvetica,sans-Serif" font-size="10.00">wrapper()</text>
<polygon fill="#bfbfbf" stroke="#bfbfbf" points="631.5,-320.5 631.5,-320.5 744.5,-320.5 744.5,-320.5 631.5,-320.5"/>
<polygon fill="#bfbfbf" stroke="#bfbfbf" points="631.5,-305.5 631.5,-305.5 651.5,-305.5 651.5,-305.5 631.5,-305.5"/>
<polygon fill="#bfbfbf" stroke="#bfbfbf" points="651.5,-305.5 651.5,-305.5 744.5,-305.5 744.5,-305.5 651.5,-305.5"/>
<polygon fill="none" stroke="#bfbfbf" points="631,-214 631,-349 744,-349 744,-214 631,-214"/>
</a>
</g>
</g>
<!-- Node1&#45;&gt;Node10 -->
<g id="edge9_Node000001_Node000010" class="edge">
<title>Node1&#45;&gt;Node10</title>
<g id="a_edge9_Node000001_Node000010"><a xlink:title=" ">
<path fill="none" stroke="#63b8ff" d="M687.5,-375.74C687.5,-366.97 687.5,-357.91 687.5,-349.05"/>
<polygon fill="none" stroke="#63b8ff" points="684,-375.89 687.5,-385.89 691,-375.89 684,-375.89"/>
</a>
</g>
</g>
<!-- Node10&#45;&gt;Node2 -->
<g id="edge10_Node000010_Node000002" class="edge">
<title>Node10&#45;&gt;Node2</title>
<g id="a_edge10_Node000010_Node000002"><a xlink:title=" ">
<path fill="none" stroke="orange" d="M620.72,-276.21C530.77,-268.61 367.03,-248.3 237.5,-196 205.31,-183 173.93,-161.81 147.56,-140.71"/>
<polygon fill="orange" stroke="orange" points="620.53,-279.71 630.78,-277.04 621.1,-272.73 620.53,-279.71"/>
</a>
</g>
<text text-anchor="start" x="241" y="-177" font-family="Helvetica,sans-Serif" font-size="10.00" fill="grey">&lt; ByteBuffer &gt;</text>
</g>
<!-- Node10&#45;&gt;Node3 -->
<g id="edge11_Node000010_Node000003" class="edge">
<title>Node10&#45;&gt;Node3</title>
<g id="a_edge11_Node000010_Node000003"><a xlink:title=" ">
<path fill="none" stroke="orange" d="M620.87,-269.31C554.66,-256.74 451.2,-233.08 367.5,-196 330.19,-179.47 321.44,-172.6 290.5,-146 287.71,-143.6 284.93,-141.08 282.17,-138.48"/>
<polygon fill="orange" stroke="orange" points="620.29,-272.77 630.76,-271.16 621.57,-265.89 620.29,-272.77"/>
</a>
</g>
<text text-anchor="start" x="370.5" y="-177" font-family="Helvetica,sans-Serif" font-size="10.00" fill="grey">&lt; btp::HeaderA &gt;</text>
</g>
<!-- Node10&#45;&gt;Node4 -->
<g id="edge12_Node000010_Node000004" class="edge">
<title>Node10&#45;&gt;Node4</title>
<g id="a_edge12_Node000010_Node000004"><a xlink:title=" ">
<path fill="none" stroke="orange" d="M621.72,-249.64C588.75,-233.94 548.32,-214.35 512.5,-196 485.95,-182.4 479.79,-178.09 453.5,-164 438.43,-155.92 432.95,-156.56 419.5,-146 416.74,-143.83 414,-141.53 411.29,-139.14"/>
<polygon fill="orange" stroke="orange" points="620.28,-252.83 630.82,-253.96 623.29,-246.51 620.28,-252.83"/>
</a>
</g>
<text text-anchor="start" x="515.5" y="-177" font-family="Helvetica,sans-Serif" font-size="10.00" fill="grey">&lt; btp::HeaderB &gt;</text>
</g>
<!-- Node10&#45;&gt;Node5 -->
<g id="edge13_Node000010_Node000005" class="edge">
<title>Node10&#45;&gt;Node5</title>
<g id="a_edge13_Node000010_Node000005"><a xlink:title=" ">
<path fill="none" stroke="orange" d="M628.8,-205.67C626.32,-202.41 623.88,-199.18 621.5,-196 611,-181.98 610.37,-176.87 598.5,-164 585.65,-150.07 570.72,-136.22 556.18,-123.71"/>
<polygon fill="orange" stroke="orange" points="626.16,-207.98 635.01,-213.81 631.73,-203.74 626.16,-207.98"/>
</a>
</g>
<text text-anchor="start" x="624.5" y="-177" font-family="Helvetica,sans-Serif" font-size="10.00" fill="grey">&lt; geonet::SecuredPdu &gt;</text>
</g>
<!-- Node10&#45;&gt;Node6 -->
<g id="edge14_Node000010_Node000006" class="edge">
<title>Node10&#45;&gt;Node6</title>
<g id="a_edge14_Node000010_Node000006"><a xlink:title=" ">
<path fill="none" stroke="orange" d="M729.85,-205.2C741.63,-185.07 752.34,-167.79 756.5,-164 795.07,-128.84 849.84,-104.87 890.67,-90.57"/>
<polygon fill="orange" stroke="orange" points="726.75,-203.56 724.76,-213.97 732.81,-207.08 726.75,-203.56"/>
</a>
</g>
<text text-anchor="start" x="760" y="-177" font-family="Helvetica,sans-Serif" font-size="10.00" fill="grey">&lt; std::nullptr_t &gt;</text>
</g>
<!-- Node10&#45;&gt;Node7 -->
<g id="edge15_Node000010_Node000007" class="edge">
<title>Node10&#45;&gt;Node7</title>
<g id="a_edge15_Node000010_Node000007"><a xlink:title=" ">
<path fill="none" stroke="orange" d="M753.17,-243.31C810.16,-211.26 885.93,-169.34 901.5,-164 948.36,-147.93 968.1,-169.89 1011.5,-146 1027.76,-137.05 1041.96,-122.32 1052.81,-108.51"/>
<polygon fill="orange" stroke="orange" points="751.19,-240.4 744.19,-248.36 754.62,-246.5 751.19,-240.4"/>
</a>
</g>
<text text-anchor="start" x="904.5" y="-177" font-family="Helvetica,sans-Serif" font-size="10.00" fill="grey">&lt; std::string &gt;</text>
</g>
<!-- Node10&#45;&gt;Node8 -->
<g id="edge16_Node000010_Node000008" class="edge">
<title>Node10&#45;&gt;Node8</title>
<g id="a_edge16_Node000010_Node000008"><a xlink:title=" ">
<path fill="none" stroke="orange" d="M753.78,-263.87C811.58,-248.6 897.24,-224.13 969.5,-196 999.88,-184.17 1004.46,-173.96 1035.5,-164 1080.58,-149.53 1098.16,-167.19 1140.5,-146 1158.38,-137.05 1174.92,-122.5 1187.98,-108.81"/>
<polygon fill="orange" stroke="orange" points="752.82,-260.5 744.04,-266.42 754.6,-267.27 752.82,-260.5"/>
</a>
</g>
<text text-anchor="start" x="1038.5" y="-185" font-family="Helvetica,sans-Serif" font-size="10.00" fill="grey">&lt; std::unique_ptr&lt;</text>
<text text-anchor="start" x="1038.5" y="-170" font-family="Helvetica,sans-Serif" font-size="10.00" fill="grey">   ByteBuffer &gt; &gt;</text>
</g>
<!-- Node10&#45;&gt;Node9 -->
<g id="edge17_Node000010_Node000009" class="edge">
<title>Node10&#45;&gt;Node9</title>
<g id="a_edge17_Node000010_Node000009"><a xlink:title=" ">
<path fill="none" stroke="orange" d="M754.18,-271.08C840.08,-258.13 993.58,-232.26 1121.5,-196 1160.34,-184.99 1167.73,-175.23 1206.5,-164 1244.43,-153.01 1259.31,-165.76 1293.5,-146 1307.26,-138.05 1319.62,-126.08 1329.72,-114.18"/>
<polygon fill="orange" stroke="orange" points="753.42,-267.65 744.04,-272.59 754.45,-274.58 753.42,-267.65"/>
</a>
</g>
<text text-anchor="start" x="1210" y="-185" font-family="Helvetica,sans-Serif" font-size="10.00" fill="grey">&lt; std::unique_ptr&lt;</text>
<text text-anchor="start" x="1210" y="-170" font-family="Helvetica,sans-Serif" font-size="10.00" fill="grey">   vanetza::geonet::Pdu &gt; &gt;</text>
</g>
</g>
</svg>

<g id="navigator" transform="translate(0 0)" fill="#404254">
  <rect fill="#f2f5e9" fill-opacity="0.5" stroke="#606060" stroke-width=".5" x="0" y="0" width="60" height="60"/>
  <use id="zoomplus" xlink:href="#zoomPlus" x="17" y="9" onmousedown="handleZoom(evt,'in')"/>
  <use id="zoomminus" xlink:href="#zoomMin" x="42" y="9" onmousedown="handleZoom(evt,'out')"/>
  <use id="reset" xlink:href="#resetDef" x="30" y="36" onmousedown="handleReset()"/>
   <use id="arrowup" xlink:href="#arrowUp" x="0" y="0" onmousedown="handlePan(0,-1)"/>
  <use id="arrowright" xlink:href="#arrowRight" x="0" y="0" onmousedown="handlePan(1,0)"/>
  <use id="arrowdown" xlink:href="#arrowDown" x="0" y="0" onmousedown="handlePan(0,1)"/>
  <use id="arrowleft" xlink:href="#arrowLeft" x="0" y="0" onmousedown="handlePan(-1,0)"/>
</g>
<svg viewBox="0 0 15 15" width="100%" height="30px" preserveAspectRatio="xMaxYMin meet">
 <g id="arrow_out" transform="scale(0.3 0.3)">
  <a xlink:href="structvanetza_1_1convertible_1_1byte__buffer__inherit__graph_org.svg" target="_base">
   <rect id="button" ry="5" rx="5" y="6" x="6" height="38" width="38"
        fill="#f2f5e9" fill-opacity="0.5" stroke="#606060" stroke-width="1.0"/>
   <path id="arrow"
     d="M 11.500037,31.436501 C 11.940474,20.09759 22.043105,11.32322 32.158766,21.979434 L 37.068811,17.246167 C 37.068811,17.246167 37.088388,32 37.088388,32 L 22.160133,31.978069 C 22.160133,31.978069 26.997745,27.140456 26.997745,27.140456 C 18.528582,18.264221 13.291696,25.230495 11.500037,31.436501 z"
     style="fill:#404040;"/>
  </a>
 </g>
</svg>

<style type='text/css'>
<![CDATA[
[data-mouse-over-selected='false'] { opacity: 0.7; }
[data-mouse-over-selected='true']  { opacity: 1.0; }
]]>
</style>
<script type="application/ecmascript"><![CDATA[
document.addEventListener('DOMContentLoaded', (event) => {
  highlightEdges();
  highlightAdjacentNodes();
});
]]></script>
</svg>
