<?xml version="1.0" encoding="UTF-8" standalone="no"?>
<!DOCTYPE svg PUBLIC "-//W3C//DTD SVG 1.1//EN"
 "http://www.w3.org/Graphics/SVG/1.1/DTD/svg11.dtd">
<!-- Generated by graphviz version 2.42.3 (0)
 -->
<!-- Title: vanetza::security::v3::OctetStringFixedSize&lt; SIZE &gt; Pages: 1 -->
<svg width="324pt" height="310pt"
 viewBox="0.00 0.00 324.00 310.00" xmlns="http://www.w3.org/2000/svg" xmlns:xlink="http://www.w3.org/1999/xlink">
<g id="graph0" class="graph" transform="scale(1 1) rotate(0) translate(4 306)">
<title>vanetza::security::v3::OctetStringFixedSize&lt; SIZE &gt;</title>
<polygon fill="white" stroke="transparent" points="-4,4 -4,-306 320,-306 320,4 -4,4"/>
<!-- Node1 -->
<g id="node1" class="node">
<title>Node1</title>
<g id="a_node1"><a xlink:title=" ">
<polygon fill="#bfbfbf" stroke="black" points="95,-116.5 95,-195.5 220,-195.5 220,-116.5 95,-116.5"/>
<text text-anchor="start" x="103" y="-183.5" font-family="Helvetica,sans-Serif" font-size="10.00">vanetza::security::</text>
<text text-anchor="start" x="103" y="-172.5" font-family="Helvetica,sans-Serif" font-size="10.00">v3::OctetStringFixedSize</text>
<text text-anchor="middle" x="157.5" y="-161.5" font-family="Helvetica,sans-Serif" font-size="10.00">&lt; SIZE &gt;</text>
<polyline fill="none" stroke="black" points="95,-154.5 220,-154.5 "/>
<text text-anchor="start" x="103" y="-142.5" font-family="Helvetica,sans-Serif" font-size="10.00">+ buffer</text>
<polyline fill="none" stroke="black" points="95,-135.5 220,-135.5 "/>
<text text-anchor="middle" x="157.5" y="-123.5" font-family="Helvetica,sans-Serif" font-size="10.00"> </text>
</a>
</g>
</g>
<!-- Node3 -->
<g id="node3" class="node">
<title>Node3</title>
<g id="a_node3"><a xlink:href="../../d0/d47/structvanetza_1_1security_1_1v3_1_1OctetStringFixedSize.html" target="_top" xlink:title=" ">
<polygon fill="white" stroke="black" points="0,-0.5 0,-68.5 149,-68.5 149,-0.5 0,-0.5"/>
<text text-anchor="start" x="8" y="-56.5" font-family="Helvetica,sans-Serif" font-size="10.00">vanetza::security::</text>
<text text-anchor="middle" x="74.5" y="-45.5" font-family="Helvetica,sans-Serif" font-size="10.00">v3::OctetStringFixedSize&lt; 3 &gt;</text>
<polyline fill="none" stroke="black" points="0,-38.5 149,-38.5 "/>
<text text-anchor="start" x="8" y="-26.5" font-family="Helvetica,sans-Serif" font-size="10.00">+ buffer</text>
<polyline fill="none" stroke="black" points="0,-19.5 149,-19.5 "/>
<text text-anchor="middle" x="74.5" y="-7.5" font-family="Helvetica,sans-Serif" font-size="10.00"> </text>
</a>
</g>
</g>
<!-- Node1&#45;&gt;Node3 -->
<g id="edge2" class="edge">
<title>Node1&#45;&gt;Node3</title>
<path fill="none" stroke="orange" d="M124.72,-107.8C115.68,-94.78 106.06,-80.94 97.69,-68.89"/>
<polygon fill="orange" stroke="orange" points="121.97,-109.99 130.55,-116.2 127.72,-105.99 121.97,-109.99"/>
<text text-anchor="middle" x="130" y="-90" font-family="Helvetica,sans-Serif" font-size="10.00"> &lt; 3 &gt;</text>
</g>
<!-- Node4 -->
<g id="node4" class="node">
<title>Node4</title>
<g id="a_node4"><a xlink:href="../../d0/d47/structvanetza_1_1security_1_1v3_1_1OctetStringFixedSize.html" target="_top" xlink:title=" ">
<polygon fill="white" stroke="black" points="167,-0.5 167,-68.5 316,-68.5 316,-0.5 167,-0.5"/>
<text text-anchor="start" x="175" y="-56.5" font-family="Helvetica,sans-Serif" font-size="10.00">vanetza::security::</text>
<text text-anchor="middle" x="241.5" y="-45.5" font-family="Helvetica,sans-Serif" font-size="10.00">v3::OctetStringFixedSize&lt; 8 &gt;</text>
<polyline fill="none" stroke="black" points="167,-38.5 316,-38.5 "/>
<text text-anchor="start" x="175" y="-26.5" font-family="Helvetica,sans-Serif" font-size="10.00">+ buffer</text>
<polyline fill="none" stroke="black" points="167,-19.5 316,-19.5 "/>
<text text-anchor="middle" x="241.5" y="-7.5" font-family="Helvetica,sans-Serif" font-size="10.00"> </text>
</a>
</g>
</g>
<!-- Node1&#45;&gt;Node4 -->
<g id="edge3" class="edge">
<title>Node1&#45;&gt;Node4</title>
<path fill="none" stroke="orange" d="M190.68,-107.8C199.83,-94.78 209.56,-80.94 218.03,-68.89"/>
<polygon fill="orange" stroke="orange" points="187.66,-106.01 184.77,-116.2 193.39,-110.03 187.66,-106.01"/>
<text text-anchor="middle" x="219" y="-90" font-family="Helvetica,sans-Serif" font-size="10.00"> &lt; 8 &gt;</text>
</g>
<!-- Node2 -->
<g id="node2" class="node">
<title>Node2</title>
<g id="a_node2"><a xlink:href="../../db/d3e/structvanetza_1_1security_1_1v3_1_1OctetString.html" target="_top" xlink:title=" ">
<polygon fill="white" stroke="black" points="109.5,-233.5 109.5,-301.5 205.5,-301.5 205.5,-233.5 109.5,-233.5"/>
<text text-anchor="start" x="117.5" y="-289.5" font-family="Helvetica,sans-Serif" font-size="10.00">vanetza::security::</text>
<text text-anchor="middle" x="157.5" y="-278.5" font-family="Helvetica,sans-Serif" font-size="10.00">v3::OctetString</text>
<polyline fill="none" stroke="black" points="109.5,-271.5 205.5,-271.5 "/>
<text text-anchor="middle" x="157.5" y="-259.5" font-family="Helvetica,sans-Serif" font-size="10.00"> </text>
<polyline fill="none" stroke="black" points="109.5,-252.5 205.5,-252.5 "/>
<text text-anchor="middle" x="157.5" y="-240.5" font-family="Helvetica,sans-Serif" font-size="10.00"> </text>
</a>
</g>
</g>
<!-- Node2&#45;&gt;Node1 -->
<g id="edge1" class="edge">
<title>Node2&#45;&gt;Node1</title>
<path fill="none" stroke="midnightblue" d="M157.5,-223.34C157.5,-214.25 157.5,-204.72 157.5,-195.81"/>
<polygon fill="none" stroke="midnightblue" points="154,-223.35 157.5,-233.35 161,-223.35 154,-223.35"/>
</g>
</g>
</svg>
