<?xml version="1.0" encoding="UTF-8" standalone="no"?>
<!DOCTYPE svg PUBLIC "-//W3C//DTD SVG 1.1//EN"
 "http://www.w3.org/Graphics/SVG/1.1/DTD/svg11.dtd">
<!-- Generated by graphviz version 2.49.3 (0)
 -->
<!-- Title: vanetza::security::openssl::BigNumberContext Pages: 1 -->
<svg width="142pt" height="183pt"
 viewBox="0.00 0.00 142.00 183.00" xmlns="http://www.w3.org/2000/svg" xmlns:xlink="http://www.w3.org/1999/xlink">

<svg id="main" version="1.1" xmlns="http://www.w3.org/2000/svg" xmlns:xlink="http://www.w3.org/1999/xlink" xml:space="preserve">

<style type="text/css"><![CDATA[
.node, .edge {opacity: 0.7;}
.node.selected, .edge.selected {opacity: 1;}
.edge:hover path { stroke: red; }
.edge:hover polygon { stroke: red; fill: red; }
]]></style>
<script type="application/ecmascript" xlink:href="../../svg.min.js"/>
<svg id="graph" class="graph">
<g id="graph0" class="graph" transform="scale(1 1) rotate(0) translate(4 179)">
<title>vanetza::security::openssl::BigNumberContext</title>
<!-- Node1 -->
<g id="Node000001" class="node">
<title>Node1</title>
<g id="a_Node000001"><a xlink:title=" ">
<polygon fill="#999999" stroke="transparent" points="134,-90 0,-90 0,0 134,0 134,-90"/>
<text text-anchor="start" x="5" y="-78" font-family="Helvetica,sans-Serif" font-size="10.00">vanetza::security::</text>
<text text-anchor="start" x="5" y="-67" font-family="Helvetica,sans-Serif" font-size="10.00">openssl::BigNumberContext</text>
<text text-anchor="start" x="10" y="-52" font-family="Helvetica,sans-Serif" font-size="10.00">&#45;</text>
<text text-anchor="start" x="24" y="-52" font-family="Helvetica,sans-Serif" font-size="10.00">ctx</text>
<text text-anchor="start" x="8.5" y="-37" font-family="Helvetica,sans-Serif" font-size="10.00">+</text>
<text text-anchor="start" x="24" y="-37" font-family="Helvetica,sans-Serif" font-size="10.00">BigNumberContext()</text>
<text text-anchor="start" x="8.5" y="-22" font-family="Helvetica,sans-Serif" font-size="10.00">+</text>
<text text-anchor="start" x="24" y="-22" font-family="Helvetica,sans-Serif" font-size="10.00">~BigNumberContext()</text>
<text text-anchor="start" x="8.5" y="-7" font-family="Helvetica,sans-Serif" font-size="10.00">+</text>
<text text-anchor="start" x="24" y="-7" font-family="Helvetica,sans-Serif" font-size="10.00">operator BN_CTX *()</text>
<polygon fill="#666666" stroke="#666666" points="0,-62 0,-62 134,-62 134,-62 0,-62"/>
<polygon fill="#666666" stroke="#666666" points="0,-47 0,-47 22,-47 22,-47 0,-47"/>
<polygon fill="#666666" stroke="#666666" points="22,-47 22,-47 134,-47 134,-47 22,-47"/>
<polygon fill="none" stroke="#666666" points="0,0 0,-90 134,-90 134,0 0,0"/>
</a>
</g>
</g>
<!-- Node2 -->
<g id="Node000002" class="node">
<title>Node2</title>
<g id="a_Node000002"><a xlink:title=" ">
<polygon fill="white" stroke="transparent" points="114,-175 20,-175 20,-126 114,-126 114,-175"/>
<text text-anchor="start" x="25" y="-162.5" font-family="Helvetica,sans-Serif" font-size="10.00">boost::noncopyable</text>
<text text-anchor="start" x="65" y="-147.5" font-family="Helvetica,sans-Serif" font-size="10.00"> </text>
<text text-anchor="start" x="65" y="-132.5" font-family="Helvetica,sans-Serif" font-size="10.00"> </text>
<polygon fill="#bfbfbf" stroke="#bfbfbf" points="20,-157.5 20,-157.5 114,-157.5 114,-157.5 20,-157.5"/>
<polygon fill="#bfbfbf" stroke="#bfbfbf" points="20,-142.5 20,-142.5 114,-142.5 114,-142.5 20,-142.5"/>
<polygon fill="none" stroke="#bfbfbf" points="20,-126 20,-175 114,-175 114,-126 20,-126"/>
</a>
</g>
</g>
<!-- Node2&#45;&gt;Node1 -->
<g id="edge1_Node000001_Node000002" class="edge">
<title>Node2&#45;&gt;Node1</title>
<g id="a_edge1_Node000001_Node000002"><a xlink:title=" ">
<path fill="none" stroke="#8b1a1a" d="M67,-115.62C67,-107.56 67,-98.84 67,-90.39"/>
<polygon fill="none" stroke="#8b1a1a" points="63.5,-115.75 67,-125.76 70.5,-115.76 63.5,-115.75"/>
</a>
</g>
</g>
</g>
</svg>
</svg>

<style type='text/css'>
<![CDATA[
[data-mouse-over-selected='false'] { opacity: 0.7; }
[data-mouse-over-selected='true']  { opacity: 1.0; }
]]>
</style>
<script type="application/ecmascript"><![CDATA[
document.addEventListener('DOMContentLoaded', (event) => {
  highlightEdges();
  highlightAdjacentNodes();
});
]]></script>
</svg>
