<?xml version="1.0" encoding="UTF-8" standalone="no"?>
<!DOCTYPE svg PUBLIC "-//W3C//DTD SVG 1.1//EN"
 "http://www.w3.org/Graphics/SVG/1.1/DTD/svg11.dtd">
<!-- Generated by graphviz version 14.1.2 (0)
 -->
<!-- Title: vanetza::security::openssl::BigNumberContext Pages: 1 -->
<svg width="153pt" height="199pt"
 viewBox="0.00 0.00 153.00 199.00" xmlns="http://www.w3.org/2000/svg" xmlns:xlink="http://www.w3.org/1999/xlink">
<g id="graph0" class="graph" transform="scale(1 1) rotate(0) translate(4 194.75)">
<title>vanetza::security::openssl::BigNumberContext</title>
<!-- Node1 -->
<g id="Node000001" class="node">
<title>Node1</title>
<g id="a_Node000001"><a xlink:title=" ">
<polygon fill="#999999" stroke="none" points="144.5,-100.5 0,-100.5 0,0 144.5,0 144.5,-100.5"/>
<text xml:space="preserve" text-anchor="start" x="4" y="-87" font-family="Helvetica,sans-Serif" font-size="10.00">vanetza::security::</text>
<text xml:space="preserve" text-anchor="start" x="4" y="-74.25" font-family="Helvetica,sans-Serif" font-size="10.00">openssl::BigNumberContext</text>
<text xml:space="preserve" text-anchor="start" x="10.12" y="-57.5" font-family="Helvetica,sans-Serif" font-size="10.00">&#45;</text>
<text xml:space="preserve" text-anchor="start" x="24" y="-57.5" font-family="Helvetica,sans-Serif" font-size="10.00">ctx</text>
<text xml:space="preserve" text-anchor="start" x="7.88" y="-40.75" font-family="Helvetica,sans-Serif" font-size="10.00">+</text>
<text xml:space="preserve" text-anchor="start" x="24" y="-40.75" font-family="Helvetica,sans-Serif" font-size="10.00">BigNumberContext()</text>
<text xml:space="preserve" text-anchor="start" x="7.88" y="-24" font-family="Helvetica,sans-Serif" font-size="10.00">+</text>
<text xml:space="preserve" text-anchor="start" x="24" y="-24" font-family="Helvetica,sans-Serif" font-size="10.00">~BigNumberContext()</text>
<text xml:space="preserve" text-anchor="start" x="7.88" y="-7.25" font-family="Helvetica,sans-Serif" font-size="10.00">+</text>
<text xml:space="preserve" text-anchor="start" x="24" y="-7.25" font-family="Helvetica,sans-Serif" font-size="10.00">operator BN_CTX *()</text>
<polygon fill="#666666" stroke="#666666" points="0,-69 0,-69 144.5,-69 144.5,-69 0,-69"/>
<polygon fill="#666666" stroke="#666666" points="0,-52.25 0,-52.25 22,-52.25 22,-52.25 0,-52.25"/>
<polygon fill="#666666" stroke="#666666" points="22,-52.25 22,-52.25 144.5,-52.25 144.5,-52.25 22,-52.25"/>
<polygon fill="none" stroke="#666666" points="0,0 0,-100.5 144.5,-100.5 144.5,0 0,0"/>
</a>
</g>
</g>
<!-- Node2 -->
<g id="Node000002" class="node">
<title>Node2</title>
<g id="a_Node000002"><a xlink:title=" ">
<polygon fill="white" stroke="none" points="123.88,-190.75 20.62,-190.75 20.62,-136.5 123.88,-136.5 123.88,-190.75"/>
<text xml:space="preserve" text-anchor="start" x="24.62" y="-177.25" font-family="Helvetica,sans-Serif" font-size="10.00">boost::noncopyable</text>
<text xml:space="preserve" text-anchor="start" x="70.75" y="-160.5" font-family="Helvetica,sans-Serif" font-size="10.00"> </text>
<text xml:space="preserve" text-anchor="start" x="70.75" y="-143.75" font-family="Helvetica,sans-Serif" font-size="10.00"> </text>
<polygon fill="#bfbfbf" stroke="#bfbfbf" points="20.62,-172 20.62,-172 123.88,-172 123.88,-172 20.62,-172"/>
<polygon fill="#bfbfbf" stroke="#bfbfbf" points="20.62,-155.25 20.62,-155.25 123.88,-155.25 123.88,-155.25 20.62,-155.25"/>
<polygon fill="none" stroke="#bfbfbf" points="20.62,-136.5 20.62,-190.75 123.88,-190.75 123.88,-136.5 20.62,-136.5"/>
</a>
</g>
</g>
<!-- Node2&#45;&gt;Node1 -->
<g id="edge1_Node000001_Node000002" class="edge">
<title>Node2&#45;&gt;Node1</title>
<g id="a_edge1_Node000001_Node000002"><a xlink:title=" ">
<path fill="none" stroke="#8b1a1a" d="M72.25,-125.01C72.25,-117.1 72.25,-108.64 72.25,-100.37"/>
<polygon fill="none" stroke="#8b1a1a" points="68.75,-125 72.25,-135 75.75,-125 68.75,-125"/>
</a>
</g>
</g>
</g>
</svg>
