<?xml version="1.0" encoding="UTF-8" standalone="no"?>
<!DOCTYPE svg PUBLIC "-//W3C//DTD SVG 1.1//EN"
 "http://www.w3.org/Graphics/SVG/1.1/DTD/svg11.dtd">
<!-- Generated by graphviz version 2.49.3 (0)
 -->
<!-- Title: vanetza::pdu_tags::phy_tag Pages: 1 -->
<svg width="104pt" height="260pt"
 viewBox="0.00 0.00 104.00 260.00" xmlns="http://www.w3.org/2000/svg" xmlns:xlink="http://www.w3.org/1999/xlink">
<g id="graph0" class="graph" transform="scale(1 1) rotate(0) translate(4 256)">
<title>vanetza::pdu_tags::phy_tag</title>
<!-- Node1 -->
<g id="Node000001" class="node">
<title>Node1</title>
<g id="a_Node000001"><a xlink:title=" ">
<polygon fill="#999999" stroke="transparent" points="96,-156 0,-156 0,-96 96,-96 96,-156"/>
<text text-anchor="start" x="5" y="-144" font-family="Helvetica,sans-Serif" font-size="10.00">vanetza::pdu_tags::</text>
<text text-anchor="start" x="30.5" y="-133" font-family="Helvetica,sans-Serif" font-size="10.00">phy_tag</text>
<text text-anchor="start" x="46" y="-118" font-family="Helvetica,sans-Serif" font-size="10.00"> </text>
<text text-anchor="start" x="46" y="-103" font-family="Helvetica,sans-Serif" font-size="10.00"> </text>
<polygon fill="#666666" stroke="#666666" points="0,-128 0,-128 96,-128 96,-128 0,-128"/>
<polygon fill="#666666" stroke="#666666" points="0,-113 0,-113 96,-113 96,-113 0,-113"/>
<polygon fill="none" stroke="#666666" points="0,-96 0,-156 96,-156 96,-96 0,-96"/>
</a>
</g>
</g>
<!-- Node3 -->
<g id="Node000003" class="node">
<title>Node3</title>
<g id="a_Node000003"><a xlink:href="../../d5/d6d/structvanetza_1_1pdu__tags_1_1mk2__tag.html" target="_top" xlink:title=" ">
<polygon fill="white" stroke="transparent" points="96,-60 0,-60 0,0 96,0 96,-60"/>
<text text-anchor="start" x="5" y="-48" font-family="Helvetica,sans-Serif" font-size="10.00">vanetza::pdu_tags::</text>
<text text-anchor="start" x="29" y="-37" font-family="Helvetica,sans-Serif" font-size="10.00">mk2_tag</text>
<text text-anchor="start" x="46" y="-22" font-family="Helvetica,sans-Serif" font-size="10.00"> </text>
<text text-anchor="start" x="46" y="-7" font-family="Helvetica,sans-Serif" font-size="10.00"> </text>
<polygon fill="#bfbfbf" stroke="#bfbfbf" points="0,-32 0,-32 96,-32 96,-32 0,-32"/>
<polygon fill="#bfbfbf" stroke="#bfbfbf" points="0,-17 0,-17 96,-17 96,-17 0,-17"/>
<polygon fill="none" stroke="#bfbfbf" points="0,0 0,-60 96,-60 96,0 0,0"/>
</a>
</g>
</g>
<!-- Node1&#45;&gt;Node3 -->
<g id="edge2_Node000001_Node000003" class="edge">
<title>Node1&#45;&gt;Node3</title>
<g id="a_edge2_Node000001_Node000003"><a xlink:title=" ">
<path fill="none" stroke="#63b8ff" d="M48,-85.63C48,-77.11 48,-68.25 48,-60.21"/>
<polygon fill="none" stroke="#63b8ff" points="44.5,-85.77 48,-95.77 51.5,-85.77 44.5,-85.77"/>
</a>
</g>
</g>
<!-- Node2 -->
<g id="Node000002" class="node">
<title>Node2</title>
<g id="a_Node000002"><a xlink:href="../../d5/d0a/structvanetza_1_1pdu__tags_1_1pdu__tag.html" target="_top" xlink:title=" ">
<polygon fill="white" stroke="transparent" points="96,-252 0,-252 0,-192 96,-192 96,-252"/>
<text text-anchor="start" x="5" y="-240" font-family="Helvetica,sans-Serif" font-size="10.00">vanetza::pdu_tags::</text>
<text text-anchor="start" x="30.5" y="-229" font-family="Helvetica,sans-Serif" font-size="10.00">pdu_tag</text>
<text text-anchor="start" x="46" y="-214" font-family="Helvetica,sans-Serif" font-size="10.00"> </text>
<text text-anchor="start" x="46" y="-199" font-family="Helvetica,sans-Serif" font-size="10.00"> </text>
<polygon fill="#bfbfbf" stroke="#bfbfbf" points="0,-224 0,-224 96,-224 96,-224 0,-224"/>
<polygon fill="#bfbfbf" stroke="#bfbfbf" points="0,-209 0,-209 96,-209 96,-209 0,-209"/>
<polygon fill="none" stroke="#bfbfbf" points="0,-192 0,-252 96,-252 96,-192 0,-192"/>
</a>
</g>
</g>
<!-- Node2&#45;&gt;Node1 -->
<g id="edge1_Node000001_Node000002" class="edge">
<title>Node2&#45;&gt;Node1</title>
<g id="a_edge1_Node000001_Node000002"><a xlink:title=" ">
<path fill="none" stroke="#63b8ff" d="M48,-181.63C48,-173.11 48,-164.25 48,-156.21"/>
<polygon fill="none" stroke="#63b8ff" points="44.5,-181.77 48,-191.77 51.5,-181.77 44.5,-181.77"/>
</a>
</g>
</g>
</g>
</svg>
