<?xml version="1.0" encoding="UTF-8" standalone="no"?>
<!DOCTYPE svg PUBLIC "-//W3C//DTD SVG 1.1//EN"
 "http://www.w3.org/Graphics/SVG/1.1/DTD/svg11.dtd">
<!-- Generated by graphviz version 2.42.3 (0)
 -->
<!-- Title: vanetza::pdu_tags::phy_tag Pages: 1 -->
<svg width="110pt" height="287pt"
 viewBox="0.00 0.00 110.00 287.00" xmlns="http://www.w3.org/2000/svg" xmlns:xlink="http://www.w3.org/1999/xlink">
<g id="graph0" class="graph" transform="scale(1 1) rotate(0) translate(4 283)">
<title>vanetza::pdu_tags::phy_tag</title>
<polygon fill="white" stroke="transparent" points="-4,4 -4,-283 106,-283 106,4 -4,4"/>
<!-- Node1 -->
<g id="node1" class="node">
<title>Node1</title>
<g id="a_node1"><a xlink:title=" ">
<polygon fill="#bfbfbf" stroke="black" points="0,-105.5 0,-173.5 102,-173.5 102,-105.5 0,-105.5"/>
<text text-anchor="start" x="8" y="-161.5" font-family="Helvetica,sans-Serif" font-size="10.00">vanetza::pdu_tags::</text>
<text text-anchor="middle" x="51" y="-150.5" font-family="Helvetica,sans-Serif" font-size="10.00">phy_tag</text>
<polyline fill="none" stroke="black" points="0,-143.5 102,-143.5 "/>
<text text-anchor="middle" x="51" y="-131.5" font-family="Helvetica,sans-Serif" font-size="10.00"> </text>
<polyline fill="none" stroke="black" points="0,-124.5 102,-124.5 "/>
<text text-anchor="middle" x="51" y="-112.5" font-family="Helvetica,sans-Serif" font-size="10.00"> </text>
</a>
</g>
</g>
<!-- Node3 -->
<g id="node3" class="node">
<title>Node3</title>
<g id="a_node3"><a xlink:href="../../d5/d6d/structvanetza_1_1pdu__tags_1_1mk2__tag.html" target="_top" xlink:title=" ">
<polygon fill="white" stroke="black" points="0,-0.5 0,-68.5 102,-68.5 102,-0.5 0,-0.5"/>
<text text-anchor="start" x="8" y="-56.5" font-family="Helvetica,sans-Serif" font-size="10.00">vanetza::pdu_tags::</text>
<text text-anchor="middle" x="51" y="-45.5" font-family="Helvetica,sans-Serif" font-size="10.00">mk2_tag</text>
<polyline fill="none" stroke="black" points="0,-38.5 102,-38.5 "/>
<text text-anchor="middle" x="51" y="-26.5" font-family="Helvetica,sans-Serif" font-size="10.00"> </text>
<polyline fill="none" stroke="black" points="0,-19.5 102,-19.5 "/>
<text text-anchor="middle" x="51" y="-7.5" font-family="Helvetica,sans-Serif" font-size="10.00"> </text>
</a>
</g>
</g>
<!-- Node1&#45;&gt;Node3 -->
<g id="edge2" class="edge">
<title>Node1&#45;&gt;Node3</title>
<path fill="none" stroke="midnightblue" d="M51,-95.14C51,-86.26 51,-77.04 51,-68.59"/>
<polygon fill="none" stroke="midnightblue" points="47.5,-95.34 51,-105.34 54.5,-95.34 47.5,-95.34"/>
</g>
<!-- Node2 -->
<g id="node2" class="node">
<title>Node2</title>
<g id="a_node2"><a xlink:href="../../d5/d0a/structvanetza_1_1pdu__tags_1_1pdu__tag.html" target="_top" xlink:title=" ">
<polygon fill="white" stroke="black" points="0,-210.5 0,-278.5 102,-278.5 102,-210.5 0,-210.5"/>
<text text-anchor="start" x="8" y="-266.5" font-family="Helvetica,sans-Serif" font-size="10.00">vanetza::pdu_tags::</text>
<text text-anchor="middle" x="51" y="-255.5" font-family="Helvetica,sans-Serif" font-size="10.00">pdu_tag</text>
<polyline fill="none" stroke="black" points="0,-248.5 102,-248.5 "/>
<text text-anchor="middle" x="51" y="-236.5" font-family="Helvetica,sans-Serif" font-size="10.00"> </text>
<polyline fill="none" stroke="black" points="0,-229.5 102,-229.5 "/>
<text text-anchor="middle" x="51" y="-217.5" font-family="Helvetica,sans-Serif" font-size="10.00"> </text>
</a>
</g>
</g>
<!-- Node2&#45;&gt;Node1 -->
<g id="edge1" class="edge">
<title>Node2&#45;&gt;Node1</title>
<path fill="none" stroke="midnightblue" d="M51,-200.14C51,-191.26 51,-182.04 51,-173.59"/>
<polygon fill="none" stroke="midnightblue" points="47.5,-200.34 51,-210.34 54.5,-200.34 47.5,-200.34"/>
</g>
</g>
</svg>
