<?xml version="1.0" encoding="UTF-8" standalone="no"?>
<!DOCTYPE svg PUBLIC "-//W3C//DTD SVG 1.1//EN"
 "http://www.w3.org/Graphics/SVG/1.1/DTD/svg11.dtd">
<!-- Generated by graphviz version 2.49.3 (0)
 -->
<!-- Title: vanetza::geonet::CbfCounterContending Pages: 1 -->
<svg width="191pt" height="369pt"
 viewBox="0.00 0.00 191.00 369.00" xmlns="http://www.w3.org/2000/svg" xmlns:xlink="http://www.w3.org/1999/xlink">

<svg id="main" version="1.1" xmlns="http://www.w3.org/2000/svg" xmlns:xlink="http://www.w3.org/1999/xlink" xml:space="preserve">

<style type="text/css"><![CDATA[
.node, .edge {opacity: 0.7;}
.node.selected, .edge.selected {opacity: 1;}
.edge:hover path { stroke: red; }
.edge:hover polygon { stroke: red; fill: red; }
]]></style>
<script type="application/ecmascript" xlink:href="../../svg.min.js"/>
<svg id="graph" class="graph">
<g id="graph0" class="graph" transform="scale(1 1) rotate(0) translate(4 365)">
<title>vanetza::geonet::CbfCounterContending</title>
<!-- Node1 -->
<g id="Node000001" class="node">
<title>Node1</title>
<g id="a_Node000001"><a xlink:title=" ">
<polygon fill="#999999" stroke="transparent" points="135,-75 0,-75 0,0 135,0 135,-75"/>
<text text-anchor="start" x="5.5" y="-62.5" font-family="Helvetica,sans-Serif" font-size="10.00">vanetza::geonet::CbfCounter</text>
<text text-anchor="start" x="43" y="-51.5" font-family="Helvetica,sans-Serif" font-size="10.00">Contending</text>
<text text-anchor="start" x="66" y="-36.5" font-family="Helvetica,sans-Serif" font-size="10.00"> </text>
<text text-anchor="start" x="24" y="-21.5" font-family="Helvetica,sans-Serif" font-size="10.00">+</text>
<text text-anchor="start" x="54.5" y="-21.5" font-family="Helvetica,sans-Serif" font-size="10.00">add()</text>
<text text-anchor="start" x="24" y="-6.5" font-family="Helvetica,sans-Serif" font-size="10.00">+</text>
<text text-anchor="start" x="54.5" y="-6.5" font-family="Helvetica,sans-Serif" font-size="10.00">remove()</text>
<polygon fill="#666666" stroke="#666666" points="0.5,-46.5 0.5,-46.5 135.5,-46.5 135.5,-46.5 0.5,-46.5"/>
<polygon fill="#666666" stroke="#666666" points="0.5,-31.5 0.5,-31.5 135.5,-31.5 135.5,-31.5 0.5,-31.5"/>
<polygon fill="none" stroke="#666666" points="0,0 0,-75 135,-75 135,0 0,0"/>
</a>
</g>
</g>
<!-- Node2 -->
<g id="Node000002" class="node">
<title>Node2</title>
<g id="a_Node000002"><a xlink:href="../../db/d2d/classvanetza_1_1geonet_1_1CbfCounter.html" target="_top" xlink:title=" ">
<polygon fill="white" stroke="transparent" points="135,-361 0,-361 0,-252 135,-252 135,-361"/>
<text text-anchor="start" x="5.5" y="-348.5" font-family="Helvetica,sans-Serif" font-size="10.00">vanetza::geonet::CbfCounter</text>
<text text-anchor="start" x="66" y="-333.5" font-family="Helvetica,sans-Serif" font-size="10.00"> </text>
<text text-anchor="start" x="17.5" y="-318.5" font-family="Helvetica,sans-Serif" font-size="10.00">+</text>
<text text-anchor="start" x="41.5" y="-318.5" font-family="Helvetica,sans-Serif" font-size="10.00">add()</text>
<text text-anchor="start" x="17.5" y="-303.5" font-family="Helvetica,sans-Serif" font-size="10.00">+</text>
<text text-anchor="start" x="41.5" y="-303.5" font-family="Helvetica,sans-Serif" font-size="10.00">remove()</text>
<text text-anchor="start" x="17.5" y="-288.5" font-family="Helvetica,sans-Serif" font-size="10.00">+</text>
<text text-anchor="start" x="41.5" y="-288.5" font-family="Helvetica,sans-Serif" font-size="10.00">increment()</text>
<text text-anchor="start" x="17.5" y="-273.5" font-family="Helvetica,sans-Serif" font-size="10.00">+</text>
<text text-anchor="start" x="41.5" y="-273.5" font-family="Helvetica,sans-Serif" font-size="10.00">counter()</text>
<text text-anchor="start" x="17.5" y="-258.5" font-family="Helvetica,sans-Serif" font-size="10.00">+</text>
<text text-anchor="start" x="41.5" y="-258.5" font-family="Helvetica,sans-Serif" font-size="10.00">~CbfCounter()</text>
<polygon fill="#666666" stroke="#666666" points="0.5,-343.5 0.5,-343.5 135.5,-343.5 135.5,-343.5 0.5,-343.5"/>
<polygon fill="#666666" stroke="#666666" points="0.5,-328.5 0.5,-328.5 135.5,-328.5 135.5,-328.5 0.5,-328.5"/>
<polygon fill="none" stroke="#666666" points="0,-252 0,-361 135,-361 135,-252 0,-252"/>
</a>
</g>
</g>
<!-- Node2&#45;&gt;Node1 -->
<g id="edge1_Node000001_Node000002" class="edge">
<title>Node2&#45;&gt;Node1</title>
<g id="a_edge1_Node000001_Node000002"><a xlink:title=" ">
<path fill="none" stroke="#63b8ff" d="M44.27,-242.07C41.89,-233.41 39.85,-224.56 38.5,-216 31.22,-169.9 29.67,-156.82 38.5,-111 40.81,-99.02 45.08,-86.5 49.64,-75.31"/>
<polygon fill="none" stroke="#63b8ff" points="40.93,-243.11 47.08,-251.74 47.65,-241.16 40.93,-243.11"/>
</a>
</g>
</g>
<!-- Node3 -->
<g id="Node000003" class="node">
<title>Node3</title>
<g id="a_Node000003"><a xlink:href="../../db/d11/classvanetza_1_1geonet_1_1CbfCounterImmortal.html" target="_top" xlink:title=" ">
<polygon fill="white" stroke="transparent" points="183,-216 48,-216 48,-111 183,-111 183,-216"/>
<text text-anchor="start" x="53.5" y="-203.5" font-family="Helvetica,sans-Serif" font-size="10.00">vanetza::geonet::CbfCounter</text>
<text text-anchor="start" x="96" y="-192.5" font-family="Helvetica,sans-Serif" font-size="10.00">Immortal</text>
<text text-anchor="start" x="69" y="-177.5" font-family="Helvetica,sans-Serif" font-size="10.00">#</text>
<text text-anchor="start" x="95.5" y="-177.5" font-family="Helvetica,sans-Serif" font-size="10.00">m_counters</text>
<text text-anchor="start" x="68.5" y="-162.5" font-family="Helvetica,sans-Serif" font-size="10.00">+</text>
<text text-anchor="start" x="95.5" y="-162.5" font-family="Helvetica,sans-Serif" font-size="10.00">add()</text>
<text text-anchor="start" x="68.5" y="-147.5" font-family="Helvetica,sans-Serif" font-size="10.00">+</text>
<text text-anchor="start" x="95.5" y="-147.5" font-family="Helvetica,sans-Serif" font-size="10.00">remove()</text>
<text text-anchor="start" x="68.5" y="-132.5" font-family="Helvetica,sans-Serif" font-size="10.00">+</text>
<text text-anchor="start" x="95.5" y="-132.5" font-family="Helvetica,sans-Serif" font-size="10.00">increment()</text>
<text text-anchor="start" x="68.5" y="-117.5" font-family="Helvetica,sans-Serif" font-size="10.00">+</text>
<text text-anchor="start" x="95.5" y="-117.5" font-family="Helvetica,sans-Serif" font-size="10.00">counter()</text>
<polygon fill="#666666" stroke="#666666" points="48.5,-187.5 48.5,-187.5 183.5,-187.5 183.5,-187.5 48.5,-187.5"/>
<polygon fill="#666666" stroke="#666666" points="48.5,-172.5 48.5,-172.5 93.5,-172.5 93.5,-172.5 48.5,-172.5"/>
<polygon fill="#666666" stroke="#666666" points="93.5,-172.5 93.5,-172.5 183.5,-172.5 183.5,-172.5 93.5,-172.5"/>
<polygon fill="none" stroke="#666666" points="48,-111 48,-216 183,-216 183,-111 48,-111"/>
</a>
</g>
</g>
<!-- Node2&#45;&gt;Node3 -->
<g id="edge3_Node000003_Node000002" class="edge">
<title>Node2&#45;&gt;Node3</title>
<g id="a_edge3_Node000003_Node000002"><a xlink:title=" ">
<path fill="none" stroke="#63b8ff" d="M89.08,-242.1C92.03,-233.43 95.03,-224.62 97.9,-216.2"/>
<polygon fill="none" stroke="#63b8ff" points="85.69,-241.2 85.78,-251.79 92.32,-243.45 85.69,-241.2"/>
</a>
</g>
</g>
<!-- Node3&#45;&gt;Node1 -->
<g id="edge2_Node000001_Node000003" class="edge">
<title>Node3&#45;&gt;Node1</title>
<g id="a_edge2_Node000001_Node000003"><a xlink:title=" ">
<path fill="none" stroke="#8b1a1a" d="M91.95,-101.65C88.46,-92.65 84.96,-83.61 81.75,-75.3"/>
<polygon fill="none" stroke="#8b1a1a" points="88.69,-102.93 95.56,-110.99 95.21,-100.4 88.69,-102.93"/>
</a>
</g>
</g>
</g>
</svg>
</svg>

<style type='text/css'>
<![CDATA[
[data-mouse-over-selected='false'] { opacity: 0.7; }
[data-mouse-over-selected='true']  { opacity: 1.0; }
]]>
</style>
<script type="application/ecmascript"><![CDATA[
document.addEventListener('DOMContentLoaded', (event) => {
  highlightEdges();
  highlightAdjacentNodes();
});
]]></script>
</svg>
