<?xml version="1.0" encoding="UTF-8" standalone="no"?>
<!DOCTYPE svg PUBLIC "-//W3C//DTD SVG 1.1//EN"
 "http://www.w3.org/Graphics/SVG/1.1/DTD/svg11.dtd">
<!-- Generated by graphviz version 14.1.2 (0)
 -->
<!-- Title: vanetza::geonet::CbfCounterContending Pages: 1 -->
<svg width="207pt" height="402pt"
 viewBox="0.00 0.00 207.00 402.00" xmlns="http://www.w3.org/2000/svg" xmlns:xlink="http://www.w3.org/1999/xlink">

<svg id="main" version="1.1" xmlns="http://www.w3.org/2000/svg" xmlns:xlink="http://www.w3.org/1999/xlink" xml:space="preserve">

<style type="text/css"><![CDATA[
.node, .edge {opacity: 0.7;}
.node.selected, .edge.selected {opacity: 1;}
.edge:hover path { stroke: red; }
.edge:hover polygon { stroke: red; fill: red; }
]]></style>
<script type="application/ecmascript" xlink:href="../../svg.min.js"/>
<svg id="graph" class="graph">
<g id="graph0" class="graph" transform="scale(1 1) rotate(0) translate(4 398.25)">
<title>vanetza::geonet::CbfCounterContending</title>
<!-- Node1 -->
<g id="Node000001" class="node">
<title>Node1</title>
<g id="a_Node000001"><a xlink:title=" ">
<polygon fill="#999999" stroke="none" points="147.5,-83.75 0,-83.75 0,0 147.5,0 147.5,-83.75"/>
<text xml:space="preserve" text-anchor="start" x="4" y="-70.25" font-family="Helvetica,sans-Serif" font-size="10.00">vanetza::geonet::CbfCounter</text>
<text xml:space="preserve" text-anchor="start" x="46" y="-57.5" font-family="Helvetica,sans-Serif" font-size="10.00">Contending</text>
<text xml:space="preserve" text-anchor="start" x="72.25" y="-40.75" font-family="Helvetica,sans-Serif" font-size="10.00"> </text>
<text xml:space="preserve" text-anchor="start" x="24.56" y="-24" font-family="Helvetica,sans-Serif" font-size="10.00">+</text>
<text xml:space="preserve" text-anchor="start" x="57.38" y="-24" font-family="Helvetica,sans-Serif" font-size="10.00">add()</text>
<text xml:space="preserve" text-anchor="start" x="24.56" y="-7.25" font-family="Helvetica,sans-Serif" font-size="10.00">+</text>
<text xml:space="preserve" text-anchor="start" x="57.38" y="-7.25" font-family="Helvetica,sans-Serif" font-size="10.00">remove()</text>
<polygon fill="#666666" stroke="#666666" points="0,-52.25 0,-52.25 147.5,-52.25 147.5,-52.25 0,-52.25"/>
<polygon fill="#666666" stroke="#666666" points="0,-35.5 0,-35.5 147.5,-35.5 147.5,-35.5 0,-35.5"/>
<polygon fill="none" stroke="#666666" points="0,0 0,-83.75 147.5,-83.75 147.5,0 0,0"/>
</a>
</g>
</g>
<!-- Node2 -->
<g id="Node000002" class="node">
<title>Node2</title>
<g id="a_Node000002"><a xlink:href="../../db/d2d/classvanetza_1_1geonet_1_1CbfCounter.html" target="_top" xlink:title=" ">
<polygon fill="white" stroke="none" points="147.5,-394.25 0,-394.25 0,-273 147.5,-273 147.5,-394.25"/>
<text xml:space="preserve" text-anchor="start" x="4" y="-380.75" font-family="Helvetica,sans-Serif" font-size="10.00">vanetza::geonet::CbfCounter</text>
<text xml:space="preserve" text-anchor="start" x="72.25" y="-364" font-family="Helvetica,sans-Serif" font-size="10.00"> </text>
<text xml:space="preserve" text-anchor="start" x="18.19" y="-347.25" font-family="Helvetica,sans-Serif" font-size="10.00">+</text>
<text xml:space="preserve" text-anchor="start" x="44.62" y="-347.25" font-family="Helvetica,sans-Serif" font-size="10.00">add()</text>
<text xml:space="preserve" text-anchor="start" x="18.19" y="-330.5" font-family="Helvetica,sans-Serif" font-size="10.00">+</text>
<text xml:space="preserve" text-anchor="start" x="44.62" y="-330.5" font-family="Helvetica,sans-Serif" font-size="10.00">remove()</text>
<text xml:space="preserve" text-anchor="start" x="18.19" y="-313.75" font-family="Helvetica,sans-Serif" font-size="10.00">+</text>
<text xml:space="preserve" text-anchor="start" x="44.62" y="-313.75" font-family="Helvetica,sans-Serif" font-size="10.00">increment()</text>
<text xml:space="preserve" text-anchor="start" x="18.19" y="-297" font-family="Helvetica,sans-Serif" font-size="10.00">+</text>
<text xml:space="preserve" text-anchor="start" x="44.62" y="-297" font-family="Helvetica,sans-Serif" font-size="10.00">counter()</text>
<text xml:space="preserve" text-anchor="start" x="18.19" y="-280.25" font-family="Helvetica,sans-Serif" font-size="10.00">+</text>
<text xml:space="preserve" text-anchor="start" x="44.62" y="-280.25" font-family="Helvetica,sans-Serif" font-size="10.00">~CbfCounter()</text>
<polygon fill="#666666" stroke="#666666" points="0,-375.5 0,-375.5 147.5,-375.5 147.5,-375.5 0,-375.5"/>
<polygon fill="#666666" stroke="#666666" points="0,-358.75 0,-358.75 147.5,-358.75 147.5,-358.75 0,-358.75"/>
<polygon fill="none" stroke="#666666" points="0,-273 0,-394.25 147.5,-394.25 147.5,-273 0,-273"/>
</a>
</g>
</g>
<!-- Node2&#45;&gt;Node1 -->
<g id="edge1_Node000001_Node000002" class="edge">
<title>Node2&#45;&gt;Node1</title>
<g id="a_edge1_Node000001_Node000002"><a xlink:title=" ">
<path fill="none" stroke="#63b8ff" d="M47.38,-262.24C45.07,-253.83 43.1,-245.29 41.75,-237 33.37,-185.57 31.54,-170.85 41.75,-119.75 44.19,-107.56 48.6,-94.88 53.38,-83.42"/>
<polygon fill="none" stroke="#63b8ff" points="43.98,-263.11 50.15,-271.73 50.7,-261.15 43.98,-263.11"/>
</a>
</g>
</g>
<!-- Node3 -->
<g id="Node000003" class="node">
<title>Node3</title>
<g id="a_Node000003"><a xlink:href="../../db/d11/classvanetza_1_1geonet_1_1CbfCounterImmortal.html" target="_top" xlink:title=" ">
<polygon fill="white" stroke="none" points="198.5,-237 51,-237 51,-119.75 198.5,-119.75 198.5,-237"/>
<text xml:space="preserve" text-anchor="start" x="55" y="-223.5" font-family="Helvetica,sans-Serif" font-size="10.00">vanetza::geonet::CbfCounter</text>
<text xml:space="preserve" text-anchor="start" x="102.25" y="-210.75" font-family="Helvetica,sans-Serif" font-size="10.00">Immortal</text>
<text xml:space="preserve" text-anchor="start" x="72.56" y="-194" font-family="Helvetica,sans-Serif" font-size="10.00">#</text>
<text xml:space="preserve" text-anchor="start" x="102.38" y="-194" font-family="Helvetica,sans-Serif" font-size="10.00">m_counters</text>
<text xml:space="preserve" text-anchor="start" x="72.56" y="-177.25" font-family="Helvetica,sans-Serif" font-size="10.00">+</text>
<text xml:space="preserve" text-anchor="start" x="102.38" y="-177.25" font-family="Helvetica,sans-Serif" font-size="10.00">add()</text>
<text xml:space="preserve" text-anchor="start" x="72.56" y="-160.5" font-family="Helvetica,sans-Serif" font-size="10.00">+</text>
<text xml:space="preserve" text-anchor="start" x="102.38" y="-160.5" font-family="Helvetica,sans-Serif" font-size="10.00">remove()</text>
<text xml:space="preserve" text-anchor="start" x="72.56" y="-143.75" font-family="Helvetica,sans-Serif" font-size="10.00">+</text>
<text xml:space="preserve" text-anchor="start" x="102.38" y="-143.75" font-family="Helvetica,sans-Serif" font-size="10.00">increment()</text>
<text xml:space="preserve" text-anchor="start" x="72.56" y="-127" font-family="Helvetica,sans-Serif" font-size="10.00">+</text>
<text xml:space="preserve" text-anchor="start" x="102.38" y="-127" font-family="Helvetica,sans-Serif" font-size="10.00">counter()</text>
<polygon fill="#666666" stroke="#666666" points="51,-205.5 51,-205.5 198.5,-205.5 198.5,-205.5 51,-205.5"/>
<polygon fill="#666666" stroke="#666666" points="51,-188.75 51,-188.75 100.38,-188.75 100.38,-188.75 51,-188.75"/>
<polygon fill="#666666" stroke="#666666" points="100.38,-188.75 100.38,-188.75 198.5,-188.75 198.5,-188.75 100.38,-188.75"/>
<polygon fill="none" stroke="#666666" points="51,-119.75 51,-237 198.5,-237 198.5,-119.75 51,-119.75"/>
</a>
</g>
</g>
<!-- Node2&#45;&gt;Node3 -->
<g id="edge3_Node000003_Node000002" class="edge">
<title>Node2&#45;&gt;Node3</title>
<g id="a_edge3_Node000003_Node000002"><a xlink:title=" ">
<path fill="none" stroke="#63b8ff" d="M97.05,-262.6C99.91,-254.02 102.8,-245.32 105.59,-236.96"/>
<polygon fill="none" stroke="#63b8ff" points="93.78,-261.34 93.95,-271.94 100.42,-263.56 93.78,-261.34"/>
</a>
</g>
</g>
<!-- Node3&#45;&gt;Node1 -->
<g id="edge2_Node000001_Node000003" class="edge">
<title>Node3&#45;&gt;Node1</title>
<g id="a_edge2_Node000001_Node000003"><a xlink:title=" ">
<path fill="none" stroke="#8b1a1a" d="M98.91,-109.22C95.57,-100.41 92.23,-91.62 89.13,-83.45"/>
<polygon fill="none" stroke="#8b1a1a" points="95.62,-110.42 102.44,-118.53 102.16,-107.94 95.62,-110.42"/>
</a>
</g>
</g>
</g>
</svg>
</svg>

<style type='text/css'>
<![CDATA[
[data-mouse-over-selected='false'] { opacity: 0.7; }
[data-mouse-over-selected='true']  { opacity: 1.0; }
]]>
</style>
<script type="application/ecmascript"><![CDATA[
document.addEventListener('DOMContentLoaded', (event) => {
  highlightEdges();
  highlightAdjacentNodes();
});
]]></script>
</svg>
