<?xml version="1.0" encoding="UTF-8" standalone="no"?>
<!DOCTYPE svg PUBLIC "-//W3C//DTD SVG 1.1//EN"
 "http://www.w3.org/Graphics/SVG/1.1/DTD/svg11.dtd">
<!-- Generated by graphviz version 2.49.3 (0)
 -->
<!-- Title: vanetza::geonet::CbfCounterContending Pages: 1 -->
<svg width="199pt" height="364pt"
 viewBox="0.00 0.00 199.00 364.00" xmlns="http://www.w3.org/2000/svg" xmlns:xlink="http://www.w3.org/1999/xlink">
<g id="graph0" class="graph" transform="scale(1 1) rotate(0) translate(4 360)">
<title>vanetza::geonet::CbfCounterContending</title>
<!-- Node1 -->
<g id="node1" class="node">
<title>Node1</title>
<g id="a_node1"><a xlink:title=" ">
<polygon fill="#999999" stroke="#666666" points="0,-0.5 0,-79.5 141,-79.5 141,-0.5 0,-0.5"/>
<text text-anchor="start" x="8" y="-67.5" font-family="Helvetica,sans-Serif" font-size="10.00">vanetza::geonet::CbfCounter</text>
<text text-anchor="middle" x="70.5" y="-56.5" font-family="Helvetica,sans-Serif" font-size="10.00">Contending</text>
<polyline fill="none" stroke="#666666" points="0,-49.5 141,-49.5 "/>
<text text-anchor="middle" x="70.5" y="-37.5" font-family="Helvetica,sans-Serif" font-size="10.00"> </text>
<polyline fill="none" stroke="#666666" points="0,-30.5 141,-30.5 "/>
<text text-anchor="start" x="8" y="-18.5" font-family="Helvetica,sans-Serif" font-size="10.00">+ add()</text>
<text text-anchor="start" x="8" y="-7.5" font-family="Helvetica,sans-Serif" font-size="10.00">+ remove()</text>
</a>
</g>
</g>
<!-- Node2 -->
<g id="node2" class="node">
<title>Node2</title>
<g id="a_node2"><a xlink:href="../../db/d2d/classvanetza_1_1geonet_1_1CbfCounter.html" target="_top" xlink:title=" ">
<polygon fill="white" stroke="#666666" points="0,-254.5 0,-355.5 141,-355.5 141,-254.5 0,-254.5"/>
<text text-anchor="middle" x="70.5" y="-343.5" font-family="Helvetica,sans-Serif" font-size="10.00">vanetza::geonet::CbfCounter</text>
<polyline fill="none" stroke="#666666" points="0,-336.5 141,-336.5 "/>
<text text-anchor="middle" x="70.5" y="-324.5" font-family="Helvetica,sans-Serif" font-size="10.00"> </text>
<polyline fill="none" stroke="#666666" points="0,-317.5 141,-317.5 "/>
<text text-anchor="start" x="8" y="-305.5" font-family="Helvetica,sans-Serif" font-size="10.00">+ add()</text>
<text text-anchor="start" x="8" y="-294.5" font-family="Helvetica,sans-Serif" font-size="10.00">+ remove()</text>
<text text-anchor="start" x="8" y="-283.5" font-family="Helvetica,sans-Serif" font-size="10.00">+ increment()</text>
<text text-anchor="start" x="8" y="-272.5" font-family="Helvetica,sans-Serif" font-size="10.00">+ counter()</text>
<text text-anchor="start" x="8" y="-261.5" font-family="Helvetica,sans-Serif" font-size="10.00">+ ~CbfCounter()</text>
</a>
</g>
</g>
<!-- Node2&#45;&gt;Node1 -->
<g id="edge1" class="edge">
<title>Node2&#45;&gt;Node1</title>
<path fill="none" stroke="#63b8ff" d="M46.88,-244.51C44.24,-235.74 41.98,-226.72 40.5,-218 32.93,-173.3 31.93,-160.52 40.5,-116 42.83,-103.88 47.11,-91.23 51.71,-79.85"/>
<polygon fill="none" stroke="#63b8ff" points="43.62,-245.8 49.99,-254.27 50.29,-243.68 43.62,-245.8"/>
</g>
<!-- Node3 -->
<g id="node3" class="node">
<title>Node3</title>
<g id="a_node3"><a xlink:href="../../db/d11/classvanetza_1_1geonet_1_1CbfCounterImmortal.html" target="_top" xlink:title=" ">
<polygon fill="white" stroke="#666666" points="50,-116.5 50,-217.5 191,-217.5 191,-116.5 50,-116.5"/>
<text text-anchor="start" x="58" y="-205.5" font-family="Helvetica,sans-Serif" font-size="10.00">vanetza::geonet::CbfCounter</text>
<text text-anchor="middle" x="120.5" y="-194.5" font-family="Helvetica,sans-Serif" font-size="10.00">Immortal</text>
<polyline fill="none" stroke="#666666" points="50,-187.5 191,-187.5 "/>
<text text-anchor="start" x="58" y="-175.5" font-family="Helvetica,sans-Serif" font-size="10.00"># m_counters</text>
<polyline fill="none" stroke="#666666" points="50,-168.5 191,-168.5 "/>
<text text-anchor="start" x="58" y="-156.5" font-family="Helvetica,sans-Serif" font-size="10.00">+ add()</text>
<text text-anchor="start" x="58" y="-145.5" font-family="Helvetica,sans-Serif" font-size="10.00">+ remove()</text>
<text text-anchor="start" x="58" y="-134.5" font-family="Helvetica,sans-Serif" font-size="10.00">+ increment()</text>
<text text-anchor="start" x="58" y="-123.5" font-family="Helvetica,sans-Serif" font-size="10.00">+ counter()</text>
</a>
</g>
</g>
<!-- Node2&#45;&gt;Node3 -->
<g id="edge3" class="edge">
<title>Node2&#45;&gt;Node3</title>
<path fill="none" stroke="#63b8ff" d="M92.35,-244.57C95.63,-235.66 98.98,-226.55 102.17,-217.86"/>
<polygon fill="none" stroke="#63b8ff" points="89,-243.54 88.83,-254.13 95.57,-245.95 89,-243.54"/>
</g>
<!-- Node3&#45;&gt;Node1 -->
<g id="edge2" class="edge">
<title>Node3&#45;&gt;Node1</title>
<path fill="none" stroke="#8b1a1a" d="M96.81,-106.76C93.14,-97.61 89.44,-88.36 86.02,-79.81"/>
<polygon fill="none" stroke="#8b1a1a" points="93.63,-108.25 100.6,-116.24 100.13,-105.65 93.63,-108.25"/>
</g>
</g>
</svg>
