<?xml version="1.0" encoding="UTF-8" standalone="no"?>
<!DOCTYPE svg PUBLIC "-//W3C//DTD SVG 1.1//EN"
 "http://www.w3.org/Graphics/SVG/1.1/DTD/svg11.dtd">
<!-- Generated by graphviz version 2.49.3 (0)
 -->
<!-- Title: vanetza::convertible::byte_buffer_impl&lt; geonet::SecuredPdu &gt; Pages: 1 -->
<svg width="233pt" height="484pt"
 viewBox="0.00 0.00 232.50 484.00" xmlns="http://www.w3.org/2000/svg" xmlns:xlink="http://www.w3.org/1999/xlink">
<g id="graph0" class="graph" transform="scale(1 1) rotate(0) translate(4 480)">
<title>vanetza::convertible::byte_buffer_impl&lt; geonet::SecuredPdu &gt;</title>
<!-- Node1 -->
<g id="Node000001" class="node">
<title>Node1</title>
<g id="a_Node000001"><a xlink:title=" ">
<polygon fill="#999999" stroke="transparent" points="127,-146 0,-146 0,0 127,0 127,-146"/>
<text text-anchor="start" x="5.5" y="-134" font-family="Helvetica,sans-Serif" font-size="10.00">vanetza::convertible</text>
<text text-anchor="start" x="5.5" y="-123" font-family="Helvetica,sans-Serif" font-size="10.00">::byte_buffer_impl&lt; geonet</text>
<text text-anchor="start" x="29.5" y="-112" font-family="Helvetica,sans-Serif" font-size="10.00">::SecuredPdu &gt;</text>
<text text-anchor="start" x="11.5" y="-97" font-family="Helvetica,sans-Serif" font-size="10.00">+</text>
<text text-anchor="start" x="29.5" y="-97" font-family="Helvetica,sans-Serif" font-size="10.00">pdu</text>
<text text-anchor="start" x="13" y="-82" font-family="Helvetica,sans-Serif" font-size="10.00">&#45;</text>
<text text-anchor="start" x="29.5" y="-82" font-family="Helvetica,sans-Serif" font-size="10.00">m_wrapper</text>
<text text-anchor="start" x="11.5" y="-67" font-family="Helvetica,sans-Serif" font-size="10.00">+</text>
<text text-anchor="start" x="29.5" y="-67" font-family="Helvetica,sans-Serif" font-size="10.00">byte_buffer_impl()</text>
<text text-anchor="start" x="11.5" y="-52" font-family="Helvetica,sans-Serif" font-size="10.00">+</text>
<text text-anchor="start" x="29.5" y="-52" font-family="Helvetica,sans-Serif" font-size="10.00">convert()</text>
<text text-anchor="start" x="11.5" y="-37" font-family="Helvetica,sans-Serif" font-size="10.00">+</text>
<text text-anchor="start" x="29.5" y="-37" font-family="Helvetica,sans-Serif" font-size="10.00">size()</text>
<text text-anchor="start" x="11.5" y="-22" font-family="Helvetica,sans-Serif" font-size="10.00">+</text>
<text text-anchor="start" x="29.5" y="-22" font-family="Helvetica,sans-Serif" font-size="10.00">duplicate()</text>
<text text-anchor="start" x="11.5" y="-7" font-family="Helvetica,sans-Serif" font-size="10.00">+</text>
<text text-anchor="start" x="29.5" y="-7" font-family="Helvetica,sans-Serif" font-size="10.00">wrapper()</text>
<polygon fill="#666666" stroke="#666666" points="0.5,-107 0.5,-107 127.5,-107 127.5,-107 0.5,-107"/>
<polygon fill="#666666" stroke="#666666" points="0.5,-77 0.5,-77 27.5,-77 27.5,-77 0.5,-77"/>
<polygon fill="#666666" stroke="#666666" points="27.5,-77 27.5,-77 127.5,-77 127.5,-77 27.5,-77"/>
<polygon fill="none" stroke="#666666" points="0,0 0,-146 127,-146 127,0 0,0"/>
</a>
</g>
</g>
<!-- Node2 -->
<g id="Node000002" class="node">
<title>Node2</title>
<g id="a_Node000002"><a xlink:href="../../d4/dce/structvanetza_1_1convertible_1_1byte__buffer.html" target="_top" xlink:title=" ">
<polygon fill="white" stroke="transparent" points="112.5,-476 14.5,-476 14.5,-371 112.5,-371 112.5,-476"/>
<text text-anchor="start" x="19.5" y="-463.5" font-family="Helvetica,sans-Serif" font-size="10.00">vanetza::convertible</text>
<text text-anchor="start" x="36" y="-452.5" font-family="Helvetica,sans-Serif" font-size="10.00">::byte_buffer</text>
<text text-anchor="start" x="61.5" y="-437.5" font-family="Helvetica,sans-Serif" font-size="10.00"> </text>
<text text-anchor="start" x="23" y="-422.5" font-family="Helvetica,sans-Serif" font-size="10.00">+</text>
<text text-anchor="start" x="38.5" y="-422.5" font-family="Helvetica,sans-Serif" font-size="10.00">convert()</text>
<text text-anchor="start" x="23" y="-407.5" font-family="Helvetica,sans-Serif" font-size="10.00">+</text>
<text text-anchor="start" x="38.5" y="-407.5" font-family="Helvetica,sans-Serif" font-size="10.00">size()</text>
<text text-anchor="start" x="23" y="-392.5" font-family="Helvetica,sans-Serif" font-size="10.00">+</text>
<text text-anchor="start" x="38.5" y="-392.5" font-family="Helvetica,sans-Serif" font-size="10.00">duplicate()</text>
<text text-anchor="start" x="23" y="-377.5" font-family="Helvetica,sans-Serif" font-size="10.00">+</text>
<text text-anchor="start" x="38.5" y="-377.5" font-family="Helvetica,sans-Serif" font-size="10.00">~byte_buffer()</text>
<polygon fill="#bfbfbf" stroke="#bfbfbf" points="14.5,-447.5 14.5,-447.5 112.5,-447.5 112.5,-447.5 14.5,-447.5"/>
<polygon fill="#bfbfbf" stroke="#bfbfbf" points="14.5,-432.5 14.5,-432.5 112.5,-432.5 112.5,-432.5 14.5,-432.5"/>
<polygon fill="none" stroke="#bfbfbf" points="14.5,-371 14.5,-476 112.5,-476 112.5,-371 14.5,-371"/>
</a>
</g>
</g>
<!-- Node2&#45;&gt;Node1 -->
<g id="edge1_Node000001_Node000002" class="edge">
<title>Node2&#45;&gt;Node1</title>
<g id="a_edge1_Node000001_Node000002"><a xlink:title=" ">
<path fill="none" stroke="#63b8ff" d="M58.2,-360.6C56.37,-300.53 56.27,-209.4 57.91,-146.09"/>
<polygon fill="none" stroke="#63b8ff" points="54.7,-360.82 58.53,-370.7 61.7,-360.59 54.7,-360.82"/>
</a>
</g>
</g>
<!-- Node2&#45;&gt;Node1 -->
<g id="edge2_Node000001_Node000002" class="edge">
<title>Node2&#45;&gt;Node1</title>
<g id="a_edge2_Node000001_Node000002"><a xlink:title=" ">
<path fill="none" stroke="#63b8ff" d="M68.8,-360.6C70.63,-300.53 70.73,-209.4 69.09,-146.09"/>
<polygon fill="none" stroke="#63b8ff" points="65.3,-360.59 68.47,-370.7 72.3,-360.82 65.3,-360.59"/>
</a>
</g>
</g>
<!-- Node3 -->
<g id="Node000003" class="node">
<title>Node3</title>
<g id="a_Node000003"><a xlink:href="../../d7/deb/structvanetza_1_1convertible_1_1byte__buffer__impl.html" target="_top" xlink:title=" ">
<polygon fill="white" stroke="transparent" points="214,-334 101,-334 101,-199 214,-199 214,-334"/>
<text text-anchor="start" x="106.5" y="-321.5" font-family="Helvetica,sans-Serif" font-size="10.00">vanetza::convertible</text>
<text text-anchor="start" x="106.5" y="-310.5" font-family="Helvetica,sans-Serif" font-size="10.00">::byte_buffer_impl&lt; T &gt;</text>
<text text-anchor="start" x="110.5" y="-295.5" font-family="Helvetica,sans-Serif" font-size="10.00">&#45;</text>
<text text-anchor="start" x="123.5" y="-295.5" font-family="Helvetica,sans-Serif" font-size="10.00">m_wrapper</text>
<text text-anchor="start" x="109" y="-280.5" font-family="Helvetica,sans-Serif" font-size="10.00">+</text>
<text text-anchor="start" x="123.5" y="-280.5" font-family="Helvetica,sans-Serif" font-size="10.00">byte_buffer_impl()</text>
<text text-anchor="start" x="109" y="-265.5" font-family="Helvetica,sans-Serif" font-size="10.00">+</text>
<text text-anchor="start" x="123.5" y="-265.5" font-family="Helvetica,sans-Serif" font-size="10.00">byte_buffer_impl()</text>
<text text-anchor="start" x="109" y="-250.5" font-family="Helvetica,sans-Serif" font-size="10.00">+</text>
<text text-anchor="start" x="123.5" y="-250.5" font-family="Helvetica,sans-Serif" font-size="10.00">convert()</text>
<text text-anchor="start" x="109" y="-235.5" font-family="Helvetica,sans-Serif" font-size="10.00">+</text>
<text text-anchor="start" x="123.5" y="-235.5" font-family="Helvetica,sans-Serif" font-size="10.00">duplicate()</text>
<text text-anchor="start" x="109" y="-220.5" font-family="Helvetica,sans-Serif" font-size="10.00">+</text>
<text text-anchor="start" x="123.5" y="-220.5" font-family="Helvetica,sans-Serif" font-size="10.00">size()</text>
<text text-anchor="start" x="109" y="-205.5" font-family="Helvetica,sans-Serif" font-size="10.00">+</text>
<text text-anchor="start" x="123.5" y="-205.5" font-family="Helvetica,sans-Serif" font-size="10.00">wrapper()</text>
<polygon fill="#bfbfbf" stroke="#bfbfbf" points="101.5,-305.5 101.5,-305.5 214.5,-305.5 214.5,-305.5 101.5,-305.5"/>
<polygon fill="#bfbfbf" stroke="#bfbfbf" points="101.5,-290.5 101.5,-290.5 121.5,-290.5 121.5,-290.5 101.5,-290.5"/>
<polygon fill="#bfbfbf" stroke="#bfbfbf" points="121.5,-290.5 121.5,-290.5 214.5,-290.5 214.5,-290.5 121.5,-290.5"/>
<polygon fill="none" stroke="#bfbfbf" points="101,-199 101,-334 214,-334 214,-199 101,-199"/>
</a>
</g>
</g>
<!-- Node2&#45;&gt;Node3 -->
<g id="edge4_Node000003_Node000002" class="edge">
<title>Node2&#45;&gt;Node3</title>
<g id="a_edge4_Node000003_Node000002"><a xlink:title=" ">
<path fill="none" stroke="#63b8ff" d="M100.09,-362.17C105.68,-352.95 111.47,-343.4 117.14,-334.05"/>
<polygon fill="none" stroke="#63b8ff" points="96.99,-360.52 94.8,-370.89 102.98,-364.15 96.99,-360.52"/>
</a>
</g>
</g>
<!-- Node3&#45;&gt;Node1 -->
<g id="edge3_Node000001_Node000003" class="edge">
<title>Node3&#45;&gt;Node1</title>
<g id="a_edge3_Node000001_Node000003"><a xlink:title=" ">
<path fill="none" stroke="orange" d="M120.18,-189.48C113.15,-175.16 105.82,-160.21 98.85,-146.02"/>
<polygon fill="orange" stroke="orange" points="117.21,-191.36 124.76,-198.79 123.49,-188.27 117.21,-191.36"/>
</a>
</g>
<text text-anchor="start" x="115.5" y="-169.5" font-family="Helvetica,sans-Serif" font-size="10.00" fill="grey">&lt; geonet::SecuredPdu &gt;</text>
</g>
</g>
</svg>
