<?xml version="1.0" encoding="UTF-8" standalone="no"?>
<!DOCTYPE svg PUBLIC "-//W3C//DTD SVG 1.1//EN"
 "http://www.w3.org/Graphics/SVG/1.1/DTD/svg11.dtd">
<!-- Generated by graphviz version 14.1.2 (0)
 -->
<!-- Title: vanetza::security::VerifyService Pages: 1 -->
<!--zoomable 580 -->

<svg id="main" version="1.1" xmlns="http://www.w3.org/2000/svg" xmlns:xlink="http://www.w3.org/1999/xlink" xml:space="preserve" onload="init(evt)">

<style type="text/css"><![CDATA[
.node, .edge {opacity: 0.7;}
.node.selected, .edge.selected {opacity: 1;}
.edge:hover path { stroke: red; }
.edge:hover polygon { stroke: red; fill: red; }
]]></style>

<defs>
  <circle id="rim" cx="0" cy="0" r="7"/>
  <circle id="rim2" cx="0" cy="0" r="3.5"/>
  <g id="zoomPlus">
    <use xlink:href="#rim" fill="#404040"><set attributeName="fill" to="#808080" begin="zoomplus.mouseover" end="zoomplus.mouseout"/></use>
    <path d="M-4,0h8M0,-4v8" fill="none" stroke="white" stroke-width="1.5" pointer-events="none"/>
  </g>
  <g id="zoomMin">
    <use xlink:href="#rim" fill="#404040"><set attributeName="fill" to="#808080" begin="zoomminus.mouseover" end="zoomminus.mouseout"/></use>
    <path d="M-4,0h8" fill="none" stroke="white" stroke-width="1.5" pointer-events="none"/>
  </g>
  <g id="arrowUp" transform="translate(30 24)">
    <use xlink:href="#rim"/>
    <path pointer-events="none" fill="none" stroke="white" stroke-width="1.5" d="M0,-3.0v7 M-2.5,-0.5L0,-3.0L2.5,-0.5"/>
  </g>
  <g id="arrowRight" transform="rotate(90) translate(36 -43)">
    <use xlink:href="#rim"/>
    <path pointer-events="none" fill="none" stroke="white" stroke-width="1.5" d="M0,-3.0v7 M-2.5,-0.5L0,-3.0L2.5,-0.5"/>
  </g>
  <g id="arrowDown" transform="rotate(180) translate(-30 -48)">
    <use xlink:href="#rim"/>
    <path pointer-events="none" fill="none" stroke="white" stroke-width="1.5" d="M0,-3.0v7 M-2.5,-0.5L0,-3.0L2.5,-0.5"/>
  </g>
  <g id="arrowLeft" transform="rotate(270) translate(-36 17)">
    <use xlink:href="#rim"/>
    <path pointer-events="none" fill="none" stroke="white" stroke-width="1.5" d="M0,-3.0v7 M-2.5,-0.5L0,-3.0L2.5,-0.5"/>
  </g>
  <g id="resetDef">
    <use xlink:href="#rim2" fill="#404040"><set attributeName="fill" to="#808080" begin="reset.mouseover" end="reset.mouseout"/></use>
  </g>
</defs>
<script type="application/ecmascript">
var viewWidth = 304;
var viewHeight = 580;
var sectionId = 'dynsection-0';
</script>
<script type="application/ecmascript" xlink:href="../../svg.min.js"/>
<svg id="graph" class="graph">
<g id="viewport">
<title>vanetza::security::VerifyService</title>
<!-- Node1 -->
<g id="Node000001" class="node">
<title>Node1</title>
<g id="a_Node000001"><a xlink:title=" ">
<polygon fill="#999999" stroke="none" points="193.12,-572 93.38,-572 93.38,-488.25 193.12,-488.25 193.12,-572"/>
<text xml:space="preserve" text-anchor="start" x="98.62" y="-558.5" font-family="Helvetica,sans-Serif" font-size="10.00">vanetza::security::</text>
<text xml:space="preserve" text-anchor="start" x="111.38" y="-545.75" font-family="Helvetica,sans-Serif" font-size="10.00">VerifyService</text>
<text xml:space="preserve" text-anchor="start" x="141.75" y="-529" font-family="Helvetica,sans-Serif" font-size="10.00"> </text>
<text xml:space="preserve" text-anchor="start" x="97.38" y="-512.25" font-family="Helvetica,sans-Serif" font-size="10.00">+</text>
<text xml:space="preserve" text-anchor="start" x="109.62" y="-512.25" font-family="Helvetica,sans-Serif" font-size="10.00">~VerifyService()</text>
<text xml:space="preserve" text-anchor="start" x="97.38" y="-495.5" font-family="Helvetica,sans-Serif" font-size="10.00">+</text>
<text xml:space="preserve" text-anchor="start" x="109.62" y="-495.5" font-family="Helvetica,sans-Serif" font-size="10.00">verify()</text>
<polygon fill="#666666" stroke="#666666" points="93.38,-540.5 93.38,-540.5 193.12,-540.5 193.12,-540.5 93.38,-540.5"/>
<polygon fill="#666666" stroke="#666666" points="93.38,-523.75 93.38,-523.75 193.12,-523.75 193.12,-523.75 93.38,-523.75"/>
<polygon fill="none" stroke="#666666" points="93.38,-488.25 93.38,-572 193.12,-572 193.12,-488.25 93.38,-488.25"/>
</a>
</g>
</g>
<!-- Node2 -->
<g id="Node000002" class="node">
<title>Node2</title>
<g id="a_Node000002"><a xlink:href="../../d7/db6/classvanetza_1_1security_1_1DummyVerifyService.html" target="_top" xlink:title=" ">
<polygon fill="white" stroke="none" points="130.5,-276.38 0,-276.38 0,-175.88 130.5,-175.88 130.5,-276.38"/>
<text xml:space="preserve" text-anchor="start" x="13.88" y="-262.88" font-family="Helvetica,sans-Serif" font-size="10.00">vanetza::security::</text>
<text xml:space="preserve" text-anchor="start" x="13.88" y="-250.12" font-family="Helvetica,sans-Serif" font-size="10.00">DummyVerifyService</text>
<text xml:space="preserve" text-anchor="start" x="6.25" y="-233.38" font-family="Helvetica,sans-Serif" font-size="10.00">&#45;</text>
<text xml:space="preserve" text-anchor="start" x="16.25" y="-233.38" font-family="Helvetica,sans-Serif" font-size="10.00">m_report</text>
<text xml:space="preserve" text-anchor="start" x="6.25" y="-216.62" font-family="Helvetica,sans-Serif" font-size="10.00">&#45;</text>
<text xml:space="preserve" text-anchor="start" x="16.25" y="-216.62" font-family="Helvetica,sans-Serif" font-size="10.00">m_validity</text>
<text xml:space="preserve" text-anchor="start" x="4" y="-199.88" font-family="Helvetica,sans-Serif" font-size="10.00">+</text>
<text xml:space="preserve" text-anchor="start" x="16.25" y="-199.88" font-family="Helvetica,sans-Serif" font-size="10.00">DummyVerifyService()</text>
<text xml:space="preserve" text-anchor="start" x="4" y="-183.12" font-family="Helvetica,sans-Serif" font-size="10.00">+</text>
<text xml:space="preserve" text-anchor="start" x="16.25" y="-183.12" font-family="Helvetica,sans-Serif" font-size="10.00">verify()</text>
<polygon fill="#666666" stroke="#666666" points="0,-244.88 0,-244.88 130.5,-244.88 130.5,-244.88 0,-244.88"/>
<polygon fill="#666666" stroke="#666666" points="0,-211.38 0,-211.38 14.25,-211.38 14.25,-211.38 0,-211.38"/>
<polygon fill="#666666" stroke="#666666" points="14.25,-211.38 14.25,-211.38 130.5,-211.38 130.5,-211.38 14.25,-211.38"/>
<polygon fill="none" stroke="#666666" points="0,-175.88 0,-276.38 130.5,-276.38 130.5,-175.88 0,-175.88"/>
</a>
</g>
</g>
<!-- Node1&#45;&gt;Node2 -->
<g id="edge1_Node000001_Node000002" class="edge">
<title>Node1&#45;&gt;Node2</title>
<g id="a_edge1_Node000001_Node000002"><a xlink:title=" ">
<path fill="none" stroke="#63b8ff" d="M129.94,-477.59C115.38,-421.23 92.22,-331.57 77.92,-276.2"/>
<polygon fill="none" stroke="#63b8ff" points="126.46,-478.12 132.35,-486.93 133.24,-476.37 126.46,-478.12"/>
</a>
</g>
</g>
<!-- Node3 -->
<g id="Node000003" class="node">
<title>Node3</title>
<g id="a_Node000003"><a xlink:href="../../de/d9b/classvanetza_1_1security_1_1StraightVerifyService.html" target="_top" xlink:title=" ">
<polygon fill="white" stroke="none" points="296.12,-452.25 148.38,-452.25 148.38,0 296.12,0 296.12,-452.25"/>
<text xml:space="preserve" text-anchor="start" x="171.25" y="-438.75" font-family="Helvetica,sans-Serif" font-size="10.00">vanetza::security::</text>
<text xml:space="preserve" text-anchor="start" x="171.25" y="-426" font-family="Helvetica,sans-Serif" font-size="10.00">StraightVerifyService</text>
<text xml:space="preserve" text-anchor="start" x="152.38" y="-409.25" font-family="Helvetica,sans-Serif" font-size="10.00">+</text>
<text xml:space="preserve" text-anchor="start" x="164.62" y="-409.25" font-family="Helvetica,sans-Serif" font-size="10.00">m_cert_cache</text>
<text xml:space="preserve" text-anchor="start" x="152.38" y="-392.5" font-family="Helvetica,sans-Serif" font-size="10.00">+</text>
<text xml:space="preserve" text-anchor="start" x="164.62" y="-392.5" font-family="Helvetica,sans-Serif" font-size="10.00">m_cert_provider</text>
<text xml:space="preserve" text-anchor="start" x="152.38" y="-375.75" font-family="Helvetica,sans-Serif" font-size="10.00">+</text>
<text xml:space="preserve" text-anchor="start" x="164.62" y="-375.75" font-family="Helvetica,sans-Serif" font-size="10.00">m_cert_validator</text>
<text xml:space="preserve" text-anchor="start" x="152.38" y="-359" font-family="Helvetica,sans-Serif" font-size="10.00">+</text>
<text xml:space="preserve" text-anchor="start" x="164.62" y="-359" font-family="Helvetica,sans-Serif" font-size="10.00">m_sign_policy</text>
<text xml:space="preserve" text-anchor="start" x="152.38" y="-342.25" font-family="Helvetica,sans-Serif" font-size="10.00">+</text>
<text xml:space="preserve" text-anchor="start" x="164.62" y="-342.25" font-family="Helvetica,sans-Serif" font-size="10.00">m_cert_cache</text>
<text xml:space="preserve" text-anchor="start" x="152.38" y="-325.5" font-family="Helvetica,sans-Serif" font-size="10.00">+</text>
<text xml:space="preserve" text-anchor="start" x="164.62" y="-325.5" font-family="Helvetica,sans-Serif" font-size="10.00">m_cert_validator</text>
<text xml:space="preserve" text-anchor="start" x="152.38" y="-308.75" font-family="Helvetica,sans-Serif" font-size="10.00">+</text>
<text xml:space="preserve" text-anchor="start" x="164.62" y="-308.75" font-family="Helvetica,sans-Serif" font-size="10.00">m_sign_policy</text>
<text xml:space="preserve" text-anchor="start" x="154.62" y="-292" font-family="Helvetica,sans-Serif" font-size="10.00">&#45;</text>
<text xml:space="preserve" text-anchor="start" x="164.62" y="-292" font-family="Helvetica,sans-Serif" font-size="10.00">m_runtime</text>
<text xml:space="preserve" text-anchor="start" x="154.62" y="-275.25" font-family="Helvetica,sans-Serif" font-size="10.00">&#45;</text>
<text xml:space="preserve" text-anchor="start" x="164.62" y="-275.25" font-family="Helvetica,sans-Serif" font-size="10.00">m_backend</text>
<text xml:space="preserve" text-anchor="start" x="154.62" y="-258.5" font-family="Helvetica,sans-Serif" font-size="10.00">&#45;</text>
<text xml:space="preserve" text-anchor="start" x="164.62" y="-258.5" font-family="Helvetica,sans-Serif" font-size="10.00">m_position_provider</text>
<text xml:space="preserve" text-anchor="start" x="154.62" y="-241.75" font-family="Helvetica,sans-Serif" font-size="10.00">&#45;</text>
<text xml:space="preserve" text-anchor="start" x="164.62" y="-241.75" font-family="Helvetica,sans-Serif" font-size="10.00">m_context_v2</text>
<text xml:space="preserve" text-anchor="start" x="154.62" y="-225" font-family="Helvetica,sans-Serif" font-size="10.00">&#45;</text>
<text xml:space="preserve" text-anchor="start" x="164.62" y="-225" font-family="Helvetica,sans-Serif" font-size="10.00">m_context_v3</text>
<text xml:space="preserve" text-anchor="start" x="152.38" y="-208.25" font-family="Helvetica,sans-Serif" font-size="10.00">+</text>
<text xml:space="preserve" text-anchor="start" x="164.62" y="-208.25" font-family="Helvetica,sans-Serif" font-size="10.00">StraightVerifyService()</text>
<text xml:space="preserve" text-anchor="start" x="152.38" y="-191.5" font-family="Helvetica,sans-Serif" font-size="10.00">+</text>
<text xml:space="preserve" text-anchor="start" x="164.62" y="-191.5" font-family="Helvetica,sans-Serif" font-size="10.00">StraightVerifyService()</text>
<text xml:space="preserve" text-anchor="start" x="152.38" y="-174.75" font-family="Helvetica,sans-Serif" font-size="10.00">+</text>
<text xml:space="preserve" text-anchor="start" x="164.62" y="-174.75" font-family="Helvetica,sans-Serif" font-size="10.00">use_certificate_cache()</text>
<text xml:space="preserve" text-anchor="start" x="152.38" y="-158" font-family="Helvetica,sans-Serif" font-size="10.00">+</text>
<text xml:space="preserve" text-anchor="start" x="164.62" y="-158" font-family="Helvetica,sans-Serif" font-size="10.00">use_certificate_provider()</text>
<text xml:space="preserve" text-anchor="start" x="152.38" y="-141.25" font-family="Helvetica,sans-Serif" font-size="10.00">+</text>
<text xml:space="preserve" text-anchor="start" x="164.62" y="-141.25" font-family="Helvetica,sans-Serif" font-size="10.00">use_certificate_validator()</text>
<text xml:space="preserve" text-anchor="start" x="152.38" y="-124.5" font-family="Helvetica,sans-Serif" font-size="10.00">+</text>
<text xml:space="preserve" text-anchor="start" x="164.62" y="-124.5" font-family="Helvetica,sans-Serif" font-size="10.00">use_sign_header_policy()</text>
<text xml:space="preserve" text-anchor="start" x="152.38" y="-107.75" font-family="Helvetica,sans-Serif" font-size="10.00">+</text>
<text xml:space="preserve" text-anchor="start" x="164.62" y="-107.75" font-family="Helvetica,sans-Serif" font-size="10.00">use_certificate_provider()</text>
<text xml:space="preserve" text-anchor="start" x="152.38" y="-91" font-family="Helvetica,sans-Serif" font-size="10.00">+</text>
<text xml:space="preserve" text-anchor="start" x="164.62" y="-91" font-family="Helvetica,sans-Serif" font-size="10.00">use_certificate_cache()</text>
<text xml:space="preserve" text-anchor="start" x="152.38" y="-74.25" font-family="Helvetica,sans-Serif" font-size="10.00">+</text>
<text xml:space="preserve" text-anchor="start" x="164.62" y="-74.25" font-family="Helvetica,sans-Serif" font-size="10.00">use_certificate_validator()</text>
<text xml:space="preserve" text-anchor="start" x="152.38" y="-57.5" font-family="Helvetica,sans-Serif" font-size="10.00">+</text>
<text xml:space="preserve" text-anchor="start" x="164.62" y="-57.5" font-family="Helvetica,sans-Serif" font-size="10.00">use_sign_header_policy()</text>
<text xml:space="preserve" text-anchor="start" x="152.38" y="-40.75" font-family="Helvetica,sans-Serif" font-size="10.00">+</text>
<text xml:space="preserve" text-anchor="start" x="164.62" y="-40.75" font-family="Helvetica,sans-Serif" font-size="10.00">verify()</text>
<text xml:space="preserve" text-anchor="start" x="152.38" y="-24" font-family="Helvetica,sans-Serif" font-size="10.00">+</text>
<text xml:space="preserve" text-anchor="start" x="164.62" y="-24" font-family="Helvetica,sans-Serif" font-size="10.00">verify()</text>
<text xml:space="preserve" text-anchor="start" x="152.38" y="-7.25" font-family="Helvetica,sans-Serif" font-size="10.00">+</text>
<text xml:space="preserve" text-anchor="start" x="164.62" y="-7.25" font-family="Helvetica,sans-Serif" font-size="10.00">verify()</text>
<polygon fill="#666666" stroke="#666666" points="148.38,-420.75 148.38,-420.75 296.12,-420.75 296.12,-420.75 148.38,-420.75"/>
<polygon fill="#666666" stroke="#666666" points="148.38,-219.75 148.38,-219.75 162.62,-219.75 162.62,-219.75 148.38,-219.75"/>
<polygon fill="#666666" stroke="#666666" points="162.62,-219.75 162.62,-219.75 296.12,-219.75 296.12,-219.75 162.62,-219.75"/>
<polygon fill="none" stroke="#666666" points="148.38,0 148.38,-452.25 296.12,-452.25 296.12,0 148.38,0"/>
</a>
</g>
</g>
<!-- Node1&#45;&gt;Node3 -->
<g id="edge2_Node000001_Node000003" class="edge">
<title>Node1&#45;&gt;Node3</title>
<g id="a_edge2_Node000001_Node000003"><a xlink:title=" ">
<path fill="none" stroke="#63b8ff" d="M156.79,-477.35C158.85,-469.49 161.08,-460.97 163.43,-452"/>
<polygon fill="none" stroke="#63b8ff" points="153.43,-476.37 154.29,-486.93 160.2,-478.14 153.43,-476.37"/>
</a>
</g>
</g>
</g>
</svg>

<g id="navigator" transform="translate(0 0)" fill="#404254">
  <rect fill="#f2f5e9" fill-opacity="0.5" stroke="#606060" stroke-width=".5" x="0" y="0" width="60" height="60"/>
  <use id="zoomplus" xlink:href="#zoomPlus" x="17" y="9" onmousedown="handleZoom(evt,'in')"/>
  <use id="zoomminus" xlink:href="#zoomMin" x="42" y="9" onmousedown="handleZoom(evt,'out')"/>
  <use id="reset" xlink:href="#resetDef" x="30" y="36" onmousedown="handleReset()"/>
   <use id="arrowup" xlink:href="#arrowUp" x="0" y="0" onmousedown="handlePan(0,-1)"/>
  <use id="arrowright" xlink:href="#arrowRight" x="0" y="0" onmousedown="handlePan(1,0)"/>
  <use id="arrowdown" xlink:href="#arrowDown" x="0" y="0" onmousedown="handlePan(0,1)"/>
  <use id="arrowleft" xlink:href="#arrowLeft" x="0" y="0" onmousedown="handlePan(-1,0)"/>
</g>
<svg viewBox="0 0 15 15" width="100%" height="30px" preserveAspectRatio="xMaxYMin meet">
 <g id="arrow_out" transform="scale(0.3 0.3)">
  <a xlink:href="classvanetza_1_1security_1_1VerifyService__inherit__graph_org.svg" target="_base">
   <rect id="button" ry="5" rx="5" y="6" x="6" height="38" width="38"
        fill="#f2f5e9" fill-opacity="0.5" stroke="#606060" stroke-width="1.0"/>
   <path id="arrow"
     d="M 11.500037,31.436501 C 11.940474,20.09759 22.043105,11.32322 32.158766,21.979434 L 37.068811,17.246167 C 37.068811,17.246167 37.088388,32 37.088388,32 L 22.160133,31.978069 C 22.160133,31.978069 26.997745,27.140456 26.997745,27.140456 C 18.528582,18.264221 13.291696,25.230495 11.500037,31.436501 z"
     style="fill:#404040;"/>
  </a>
 </g>
</svg>

<style type='text/css'>
<![CDATA[
[data-mouse-over-selected='false'] { opacity: 0.7; }
[data-mouse-over-selected='true']  { opacity: 1.0; }
]]>
</style>
<script type="application/ecmascript"><![CDATA[
document.addEventListener('DOMContentLoaded', (event) => {
  highlightEdges();
  highlightAdjacentNodes();
});
]]></script>
</svg>
