<?xml version="1.0" encoding="UTF-8" standalone="no"?>
<!DOCTYPE svg PUBLIC "-//W3C//DTD SVG 1.1//EN"
 "http://www.w3.org/Graphics/SVG/1.1/DTD/svg11.dtd">
<!-- Generated by graphviz version 2.49.3 (0)
 -->
<!-- Title: vanetza::security::VerifyService Pages: 1 -->
<!--zoomable 494 -->

<svg id="main" version="1.1" xmlns="http://www.w3.org/2000/svg" xmlns:xlink="http://www.w3.org/1999/xlink" xml:space="preserve" onload="init(evt)">

<style type="text/css"><![CDATA[
.node, .edge {opacity: 0.7;}
.node.selected, .edge.selected {opacity: 1;}
.edge:hover path { stroke: red; }
.edge:hover polygon { stroke: red; fill: red; }
]]></style>

<defs>
  <circle id="rim" cx="0" cy="0" r="7"/>
  <circle id="rim2" cx="0" cy="0" r="3.5"/>
  <g id="zoomPlus">
    <use xlink:href="#rim" fill="#404040"><set attributeName="fill" to="#808080" begin="zoomplus.mouseover" end="zoomplus.mouseout"/></use>
    <path d="M-4,0h8M0,-4v8" fill="none" stroke="white" stroke-width="1.5" pointer-events="none"/>
  </g>
  <g id="zoomMin">
    <use xlink:href="#rim" fill="#404040"><set attributeName="fill" to="#808080" begin="zoomminus.mouseover" end="zoomminus.mouseout"/></use>
    <path d="M-4,0h8" fill="none" stroke="white" stroke-width="1.5" pointer-events="none"/>
  </g>
  <g id="arrowUp" transform="translate(30 24)">
    <use xlink:href="#rim"/>
    <path pointer-events="none" fill="none" stroke="white" stroke-width="1.5" d="M0,-3.0v7 M-2.5,-0.5L0,-3.0L2.5,-0.5"/>
  </g>
  <g id="arrowRight" transform="rotate(90) translate(36 -43)">
    <use xlink:href="#rim"/>
    <path pointer-events="none" fill="none" stroke="white" stroke-width="1.5" d="M0,-3.0v7 M-2.5,-0.5L0,-3.0L2.5,-0.5"/>
  </g>
  <g id="arrowDown" transform="rotate(180) translate(-30 -48)">
    <use xlink:href="#rim"/>
    <path pointer-events="none" fill="none" stroke="white" stroke-width="1.5" d="M0,-3.0v7 M-2.5,-0.5L0,-3.0L2.5,-0.5"/>
  </g>
  <g id="arrowLeft" transform="rotate(270) translate(-36 17)">
    <use xlink:href="#rim"/>
    <path pointer-events="none" fill="none" stroke="white" stroke-width="1.5" d="M0,-3.0v7 M-2.5,-0.5L0,-3.0L2.5,-0.5"/>
  </g>
  <g id="resetDef">
    <use xlink:href="#rim2" fill="#404040"><set attributeName="fill" to="#808080" begin="reset.mouseover" end="reset.mouseout"/></use>
  </g>
</defs>
<script type="application/ecmascript">
var viewWidth = 276;
var viewHeight = 494;
var sectionId = 'dynsection-0';
</script>
<script type="application/ecmascript" xlink:href="../../svg.min.js"/>
<svg id="graph" class="graph">
<g id="viewport">
<title>vanetza::security::VerifyService</title>
<!-- Node1 -->
<g id="Node000001" class="node">
<title>Node1</title>
<g id="a_Node000001"><a xlink:title=" ">
<polygon fill="#999999" stroke="transparent" points="175.5,-486 85.5,-486 85.5,-411 175.5,-411 175.5,-486"/>
<text text-anchor="start" x="90.5" y="-473.5" font-family="Helvetica,sans-Serif" font-size="10.00">vanetza::security::</text>
<text text-anchor="start" x="101" y="-462.5" font-family="Helvetica,sans-Serif" font-size="10.00">VerifyService</text>
<text text-anchor="start" x="128.5" y="-447.5" font-family="Helvetica,sans-Serif" font-size="10.00"> </text>
<text text-anchor="start" x="89.5" y="-432.5" font-family="Helvetica,sans-Serif" font-size="10.00">+</text>
<text text-anchor="start" x="100.5" y="-432.5" font-family="Helvetica,sans-Serif" font-size="10.00">~VerifyService()</text>
<text text-anchor="start" x="89.5" y="-417.5" font-family="Helvetica,sans-Serif" font-size="10.00">+</text>
<text text-anchor="start" x="100.5" y="-417.5" font-family="Helvetica,sans-Serif" font-size="10.00">verify()</text>
<polygon fill="#666666" stroke="#666666" points="85.5,-457.5 85.5,-457.5 175.5,-457.5 175.5,-457.5 85.5,-457.5"/>
<polygon fill="#666666" stroke="#666666" points="85.5,-442.5 85.5,-442.5 175.5,-442.5 175.5,-442.5 85.5,-442.5"/>
<polygon fill="none" stroke="#666666" points="85.5,-411 85.5,-486 175.5,-486 175.5,-411 85.5,-411"/>
</a>
</g>
</g>
<!-- Node2 -->
<g id="Node000002" class="node">
<title>Node2</title>
<g id="a_Node000002"><a xlink:href="../../d7/db6/classvanetza_1_1security_1_1DummyVerifyService.html" target="_top" xlink:title=" ">
<polygon fill="white" stroke="transparent" points="119,-232.5 0,-232.5 0,-142.5 119,-142.5 119,-232.5"/>
<text text-anchor="start" x="13" y="-220.5" font-family="Helvetica,sans-Serif" font-size="10.00">vanetza::security::</text>
<text text-anchor="start" x="13" y="-209.5" font-family="Helvetica,sans-Serif" font-size="10.00">DummyVerifyService</text>
<text text-anchor="start" x="6" y="-194.5" font-family="Helvetica,sans-Serif" font-size="10.00">&#45;</text>
<text text-anchor="start" x="15.5" y="-194.5" font-family="Helvetica,sans-Serif" font-size="10.00">m_report</text>
<text text-anchor="start" x="6" y="-179.5" font-family="Helvetica,sans-Serif" font-size="10.00">&#45;</text>
<text text-anchor="start" x="15.5" y="-179.5" font-family="Helvetica,sans-Serif" font-size="10.00">m_validity</text>
<text text-anchor="start" x="4.5" y="-164.5" font-family="Helvetica,sans-Serif" font-size="10.00">+</text>
<text text-anchor="start" x="15.5" y="-164.5" font-family="Helvetica,sans-Serif" font-size="10.00">DummyVerifyService()</text>
<text text-anchor="start" x="4.5" y="-149.5" font-family="Helvetica,sans-Serif" font-size="10.00">+</text>
<text text-anchor="start" x="15.5" y="-149.5" font-family="Helvetica,sans-Serif" font-size="10.00">verify()</text>
<polygon fill="#666666" stroke="#666666" points="0.5,-204.5 0.5,-204.5 119.5,-204.5 119.5,-204.5 0.5,-204.5"/>
<polygon fill="#666666" stroke="#666666" points="0.5,-174.5 0.5,-174.5 13.5,-174.5 13.5,-174.5 0.5,-174.5"/>
<polygon fill="#666666" stroke="#666666" points="13.5,-174.5 13.5,-174.5 119.5,-174.5 119.5,-174.5 13.5,-174.5"/>
<polygon fill="none" stroke="#666666" points="0,-142.5 0,-232.5 119,-232.5 119,-142.5 0,-142.5"/>
</a>
</g>
</g>
<!-- Node1&#45;&gt;Node2 -->
<g id="edge1_Node000001_Node000002" class="edge">
<title>Node1&#45;&gt;Node2</title>
<g id="a_edge1_Node000001_Node000002"><a xlink:title=" ">
<path fill="none" stroke="#63b8ff" d="M117.8,-401.17C104.72,-353.45 84.47,-279.6 71.61,-232.67"/>
<polygon fill="none" stroke="#63b8ff" points="114.46,-402.22 120.48,-410.94 121.21,-400.37 114.46,-402.22"/>
</a>
</g>
</g>
<!-- Node3 -->
<g id="Node000003" class="node">
<title>Node3</title>
<g id="a_Node000003"><a xlink:href="../../de/d9b/classvanetza_1_1security_1_1StraightVerifyService.html" target="_top" xlink:title=" ">
<polygon fill="white" stroke="transparent" points="268,-375 137,-375 137,0 268,0 268,-375"/>
<text text-anchor="start" x="156.5" y="-362.5" font-family="Helvetica,sans-Serif" font-size="10.00">vanetza::security::</text>
<text text-anchor="start" x="156.5" y="-351.5" font-family="Helvetica,sans-Serif" font-size="10.00">StraightVerifyService</text>
<text text-anchor="start" x="141.5" y="-336.5" font-family="Helvetica,sans-Serif" font-size="10.00">+</text>
<text text-anchor="start" x="152.5" y="-336.5" font-family="Helvetica,sans-Serif" font-size="10.00">m_cert_cache</text>
<text text-anchor="start" x="141.5" y="-321.5" font-family="Helvetica,sans-Serif" font-size="10.00">+</text>
<text text-anchor="start" x="152.5" y="-321.5" font-family="Helvetica,sans-Serif" font-size="10.00">m_cert_provider</text>
<text text-anchor="start" x="141.5" y="-306.5" font-family="Helvetica,sans-Serif" font-size="10.00">+</text>
<text text-anchor="start" x="152.5" y="-306.5" font-family="Helvetica,sans-Serif" font-size="10.00">m_cert_validator</text>
<text text-anchor="start" x="141.5" y="-291.5" font-family="Helvetica,sans-Serif" font-size="10.00">+</text>
<text text-anchor="start" x="152.5" y="-291.5" font-family="Helvetica,sans-Serif" font-size="10.00">m_sign_policy</text>
<text text-anchor="start" x="141.5" y="-276.5" font-family="Helvetica,sans-Serif" font-size="10.00">+</text>
<text text-anchor="start" x="152.5" y="-276.5" font-family="Helvetica,sans-Serif" font-size="10.00">m_cert_provider</text>
<text text-anchor="start" x="141.5" y="-261.5" font-family="Helvetica,sans-Serif" font-size="10.00">+</text>
<text text-anchor="start" x="152.5" y="-261.5" font-family="Helvetica,sans-Serif" font-size="10.00">m_cert_validator</text>
<text text-anchor="start" x="141.5" y="-246.5" font-family="Helvetica,sans-Serif" font-size="10.00">+</text>
<text text-anchor="start" x="152.5" y="-246.5" font-family="Helvetica,sans-Serif" font-size="10.00">m_sign_policy</text>
<text text-anchor="start" x="143" y="-231.5" font-family="Helvetica,sans-Serif" font-size="10.00">&#45;</text>
<text text-anchor="start" x="152.5" y="-231.5" font-family="Helvetica,sans-Serif" font-size="10.00">m_runtime</text>
<text text-anchor="start" x="143" y="-216.5" font-family="Helvetica,sans-Serif" font-size="10.00">&#45;</text>
<text text-anchor="start" x="152.5" y="-216.5" font-family="Helvetica,sans-Serif" font-size="10.00">m_backend</text>
<text text-anchor="start" x="143" y="-201.5" font-family="Helvetica,sans-Serif" font-size="10.00">&#45;</text>
<text text-anchor="start" x="152.5" y="-201.5" font-family="Helvetica,sans-Serif" font-size="10.00">m_position_provider</text>
<text text-anchor="start" x="143" y="-186.5" font-family="Helvetica,sans-Serif" font-size="10.00">&#45;</text>
<text text-anchor="start" x="152.5" y="-186.5" font-family="Helvetica,sans-Serif" font-size="10.00">m_context_v2</text>
<text text-anchor="start" x="143" y="-171.5" font-family="Helvetica,sans-Serif" font-size="10.00">&#45;</text>
<text text-anchor="start" x="152.5" y="-171.5" font-family="Helvetica,sans-Serif" font-size="10.00">m_context_v3</text>
<text text-anchor="start" x="141.5" y="-156.5" font-family="Helvetica,sans-Serif" font-size="10.00">+</text>
<text text-anchor="start" x="152.5" y="-156.5" font-family="Helvetica,sans-Serif" font-size="10.00">StraightVerifyService()</text>
<text text-anchor="start" x="141.5" y="-141.5" font-family="Helvetica,sans-Serif" font-size="10.00">+</text>
<text text-anchor="start" x="152.5" y="-141.5" font-family="Helvetica,sans-Serif" font-size="10.00">use_certificate_cache()</text>
<text text-anchor="start" x="141.5" y="-126.5" font-family="Helvetica,sans-Serif" font-size="10.00">+</text>
<text text-anchor="start" x="152.5" y="-126.5" font-family="Helvetica,sans-Serif" font-size="10.00">use_certificate_provider()</text>
<text text-anchor="start" x="141.5" y="-111.5" font-family="Helvetica,sans-Serif" font-size="10.00">+</text>
<text text-anchor="start" x="152.5" y="-111.5" font-family="Helvetica,sans-Serif" font-size="10.00">use_certificate_validator()</text>
<text text-anchor="start" x="141.5" y="-96.5" font-family="Helvetica,sans-Serif" font-size="10.00">+</text>
<text text-anchor="start" x="152.5" y="-96.5" font-family="Helvetica,sans-Serif" font-size="10.00">use_sign_header_policy()</text>
<text text-anchor="start" x="141.5" y="-81.5" font-family="Helvetica,sans-Serif" font-size="10.00">+</text>
<text text-anchor="start" x="152.5" y="-81.5" font-family="Helvetica,sans-Serif" font-size="10.00">use_certificate_provider()</text>
<text text-anchor="start" x="141.5" y="-66.5" font-family="Helvetica,sans-Serif" font-size="10.00">+</text>
<text text-anchor="start" x="152.5" y="-66.5" font-family="Helvetica,sans-Serif" font-size="10.00">use_certificate_validator()</text>
<text text-anchor="start" x="141.5" y="-51.5" font-family="Helvetica,sans-Serif" font-size="10.00">+</text>
<text text-anchor="start" x="152.5" y="-51.5" font-family="Helvetica,sans-Serif" font-size="10.00">use_sign_header_policy()</text>
<text text-anchor="start" x="141.5" y="-36.5" font-family="Helvetica,sans-Serif" font-size="10.00">+</text>
<text text-anchor="start" x="152.5" y="-36.5" font-family="Helvetica,sans-Serif" font-size="10.00">verify()</text>
<text text-anchor="start" x="141.5" y="-21.5" font-family="Helvetica,sans-Serif" font-size="10.00">+</text>
<text text-anchor="start" x="152.5" y="-21.5" font-family="Helvetica,sans-Serif" font-size="10.00">verify()</text>
<text text-anchor="start" x="141.5" y="-6.5" font-family="Helvetica,sans-Serif" font-size="10.00">+</text>
<text text-anchor="start" x="152.5" y="-6.5" font-family="Helvetica,sans-Serif" font-size="10.00">verify()</text>
<polygon fill="#666666" stroke="#666666" points="137.5,-346.5 137.5,-346.5 268.5,-346.5 268.5,-346.5 137.5,-346.5"/>
<polygon fill="#666666" stroke="#666666" points="137.5,-166.5 137.5,-166.5 150.5,-166.5 150.5,-166.5 137.5,-166.5"/>
<polygon fill="#666666" stroke="#666666" points="150.5,-166.5 150.5,-166.5 268.5,-166.5 268.5,-166.5 150.5,-166.5"/>
<polygon fill="none" stroke="#666666" points="137,0 137,-375 268,-375 268,0 137,0"/>
</a>
</g>
</g>
<!-- Node1&#45;&gt;Node3 -->
<g id="edge2_Node000001_Node000003" class="edge">
<title>Node1&#45;&gt;Node3</title>
<g id="a_edge2_Node000001_Node000003"><a xlink:title=" ">
<path fill="none" stroke="#63b8ff" d="M143.37,-401.19C145.6,-393.17 148.04,-384.41 150.61,-375.16"/>
<polygon fill="none" stroke="#63b8ff" points="139.97,-400.37 140.66,-410.94 146.71,-402.24 139.97,-400.37"/>
</a>
</g>
</g>
</g>
</svg>

<g id="navigator" transform="translate(0 0)" fill="#404254">
  <rect fill="#f2f5e9" fill-opacity="0.5" stroke="#606060" stroke-width=".5" x="0" y="0" width="60" height="60"/>
  <use id="zoomplus" xlink:href="#zoomPlus" x="17" y="9" onmousedown="handleZoom(evt,'in')"/>
  <use id="zoomminus" xlink:href="#zoomMin" x="42" y="9" onmousedown="handleZoom(evt,'out')"/>
  <use id="reset" xlink:href="#resetDef" x="30" y="36" onmousedown="handleReset()"/>
   <use id="arrowup" xlink:href="#arrowUp" x="0" y="0" onmousedown="handlePan(0,-1)"/>
  <use id="arrowright" xlink:href="#arrowRight" x="0" y="0" onmousedown="handlePan(1,0)"/>
  <use id="arrowdown" xlink:href="#arrowDown" x="0" y="0" onmousedown="handlePan(0,1)"/>
  <use id="arrowleft" xlink:href="#arrowLeft" x="0" y="0" onmousedown="handlePan(-1,0)"/>
</g>
<svg viewBox="0 0 15 15" width="100%" height="30px" preserveAspectRatio="xMaxYMin meet">
 <g id="arrow_out" transform="scale(0.3 0.3)">
  <a xlink:href="classvanetza_1_1security_1_1VerifyService__inherit__graph_org.svg" target="_base">
   <rect id="button" ry="5" rx="5" y="6" x="6" height="38" width="38"
        fill="#f2f5e9" fill-opacity="0.5" stroke="#606060" stroke-width="1.0"/>
   <path id="arrow"
     d="M 11.500037,31.436501 C 11.940474,20.09759 22.043105,11.32322 32.158766,21.979434 L 37.068811,17.246167 C 37.068811,17.246167 37.088388,32 37.088388,32 L 22.160133,31.978069 C 22.160133,31.978069 26.997745,27.140456 26.997745,27.140456 C 18.528582,18.264221 13.291696,25.230495 11.500037,31.436501 z"
     style="fill:#404040;"/>
  </a>
 </g>
</svg>

<style type='text/css'>
<![CDATA[
[data-mouse-over-selected='false'] { opacity: 0.7; }
[data-mouse-over-selected='true']  { opacity: 1.0; }
]]>
</style>
<script type="application/ecmascript"><![CDATA[
document.addEventListener('DOMContentLoaded', (event) => {
  highlightEdges();
  highlightAdjacentNodes();
});
]]></script>
</svg>
