<?xml version="1.0" encoding="UTF-8" standalone="no"?>
<!DOCTYPE svg PUBLIC "-//W3C//DTD SVG 1.1//EN"
 "http://www.w3.org/Graphics/SVG/1.1/DTD/svg11.dtd">
<!-- Generated by graphviz version 2.49.3 (0)
 -->
<!-- Title: vanetza::security::SecurityEntity Pages: 1 -->
<svg width="142pt" height="239pt"
 viewBox="0.00 0.00 142.00 239.00" xmlns="http://www.w3.org/2000/svg" xmlns:xlink="http://www.w3.org/1999/xlink">

<svg id="main" version="1.1" xmlns="http://www.w3.org/2000/svg" xmlns:xlink="http://www.w3.org/1999/xlink" xml:space="preserve">

<style type="text/css"><![CDATA[
.node, .edge {opacity: 0.7;}
.node.selected, .edge.selected {opacity: 1;}
.edge:hover path { stroke: red; }
.edge:hover polygon { stroke: red; fill: red; }
]]></style>
<script type="application/ecmascript" xlink:href="../../svg.min.js"/>
<svg id="graph" class="graph">
<g id="graph0" class="graph" transform="scale(1 1) rotate(0) translate(4 235)">
<title>vanetza::security::SecurityEntity</title>
<!-- Node1 -->
<g id="Node000001" class="node">
<title>Node1</title>
<g id="a_Node000001"><a xlink:title=" ">
<polygon fill="#999999" stroke="transparent" points="123,-231 11,-231 11,-141 123,-141 123,-231"/>
<text text-anchor="start" x="27" y="-219" font-family="Helvetica,sans-Serif" font-size="10.00">vanetza::security::</text>
<text text-anchor="start" x="36" y="-208" font-family="Helvetica,sans-Serif" font-size="10.00">SecurityEntity</text>
<text text-anchor="start" x="65" y="-193" font-family="Helvetica,sans-Serif" font-size="10.00"> </text>
<text text-anchor="start" x="15" y="-178" font-family="Helvetica,sans-Serif" font-size="10.00">+</text>
<text text-anchor="start" x="26" y="-178" font-family="Helvetica,sans-Serif" font-size="10.00">encapsulate_packet()</text>
<text text-anchor="start" x="15" y="-163" font-family="Helvetica,sans-Serif" font-size="10.00">+</text>
<text text-anchor="start" x="26" y="-163" font-family="Helvetica,sans-Serif" font-size="10.00">decapsulate_packet()</text>
<text text-anchor="start" x="15" y="-148" font-family="Helvetica,sans-Serif" font-size="10.00">+</text>
<text text-anchor="start" x="26" y="-148" font-family="Helvetica,sans-Serif" font-size="10.00">~SecurityEntity()</text>
<polygon fill="#666666" stroke="#666666" points="11,-203 11,-203 123,-203 123,-203 11,-203"/>
<polygon fill="#666666" stroke="#666666" points="11,-188 11,-188 123,-188 123,-188 11,-188"/>
<polygon fill="none" stroke="#666666" points="11,-141 11,-231 123,-231 123,-141 11,-141"/>
</a>
</g>
</g>
<!-- Node2 -->
<g id="Node000002" class="node">
<title>Node2</title>
<g id="a_Node000002"><a xlink:href="../../d0/dff/classvanetza_1_1security_1_1DelegatingSecurityEntity.html" target="_top" xlink:title=" ">
<polygon fill="white" stroke="transparent" points="134,-105 0,-105 0,0 134,0 134,-105"/>
<text text-anchor="start" x="12.5" y="-92.5" font-family="Helvetica,sans-Serif" font-size="10.00">vanetza::security::</text>
<text text-anchor="start" x="12.5" y="-81.5" font-family="Helvetica,sans-Serif" font-size="10.00">DelegatingSecurityEntity</text>
<text text-anchor="start" x="5.5" y="-66.5" font-family="Helvetica,sans-Serif" font-size="10.00">&#45;</text>
<text text-anchor="start" x="15" y="-66.5" font-family="Helvetica,sans-Serif" font-size="10.00">m_sign_service</text>
<text text-anchor="start" x="5.5" y="-51.5" font-family="Helvetica,sans-Serif" font-size="10.00">&#45;</text>
<text text-anchor="start" x="15" y="-51.5" font-family="Helvetica,sans-Serif" font-size="10.00">m_verify_service</text>
<text text-anchor="start" x="4" y="-36.5" font-family="Helvetica,sans-Serif" font-size="10.00">+</text>
<text text-anchor="start" x="15" y="-36.5" font-family="Helvetica,sans-Serif" font-size="10.00">DelegatingSecurityEntity()</text>
<text text-anchor="start" x="4" y="-21.5" font-family="Helvetica,sans-Serif" font-size="10.00">+</text>
<text text-anchor="start" x="15" y="-21.5" font-family="Helvetica,sans-Serif" font-size="10.00">encapsulate_packet()</text>
<text text-anchor="start" x="4" y="-6.5" font-family="Helvetica,sans-Serif" font-size="10.00">+</text>
<text text-anchor="start" x="15" y="-6.5" font-family="Helvetica,sans-Serif" font-size="10.00">decapsulate_packet()</text>
<polygon fill="#666666" stroke="#666666" points="0,-76.5 0,-76.5 134,-76.5 134,-76.5 0,-76.5"/>
<polygon fill="#666666" stroke="#666666" points="0,-46.5 0,-46.5 13,-46.5 13,-46.5 0,-46.5"/>
<polygon fill="#666666" stroke="#666666" points="13,-46.5 13,-46.5 134,-46.5 134,-46.5 13,-46.5"/>
<polygon fill="none" stroke="#666666" points="0,0 0,-105 134,-105 134,0 0,0"/>
</a>
</g>
</g>
<!-- Node1&#45;&gt;Node2 -->
<g id="edge1_Node000001_Node000002" class="edge">
<title>Node1&#45;&gt;Node2</title>
<g id="a_edge1_Node000001_Node000002"><a xlink:title=" ">
<path fill="none" stroke="#63b8ff" d="M67,-130.67C67,-122.19 67,-113.45 67,-105.04"/>
<polygon fill="none" stroke="#63b8ff" points="63.5,-130.85 67,-140.85 70.5,-130.85 63.5,-130.85"/>
</a>
</g>
</g>
</g>
</svg>
</svg>

<style type='text/css'>
<![CDATA[
[data-mouse-over-selected='false'] { opacity: 0.7; }
[data-mouse-over-selected='true']  { opacity: 1.0; }
]]>
</style>
<script type="application/ecmascript"><![CDATA[
document.addEventListener('DOMContentLoaded', (event) => {
  highlightEdges();
  highlightAdjacentNodes();
});
]]></script>
</svg>
