<?xml version="1.0" encoding="UTF-8" standalone="no"?>
<!DOCTYPE svg PUBLIC "-//W3C//DTD SVG 1.1//EN"
 "http://www.w3.org/Graphics/SVG/1.1/DTD/svg11.dtd">
<!-- Generated by graphviz version 14.1.2 (0)
 -->
<!-- Title: vanetza::security::v3::NullCertificateValidator Pages: 1 -->
<svg width="147pt" height="195pt"
 viewBox="0.00 0.00 147.00 195.00" xmlns="http://www.w3.org/2000/svg" xmlns:xlink="http://www.w3.org/1999/xlink">
<g id="graph0" class="graph" transform="scale(1 1) rotate(0) translate(4 190.75)">
<title>vanetza::security::v3::NullCertificateValidator</title>
<!-- Node1 -->
<g id="Node000001" class="node">
<title>Node1</title>
<g id="a_Node000001"><a xlink:title=" ">
<polygon fill="#999999" stroke="none" points="139.25,-67 0,-67 0,0 139.25,0 139.25,-67"/>
<text xml:space="preserve" text-anchor="start" x="4" y="-53.5" font-family="Helvetica,sans-Serif" font-size="10.00">vanetza::security::</text>
<text xml:space="preserve" text-anchor="start" x="4" y="-40.75" font-family="Helvetica,sans-Serif" font-size="10.00">v3::NullCertificateValidator</text>
<text xml:space="preserve" text-anchor="start" x="68.12" y="-24" font-family="Helvetica,sans-Serif" font-size="10.00"> </text>
<text xml:space="preserve" text-anchor="start" x="11.06" y="-7.25" font-family="Helvetica,sans-Serif" font-size="10.00">+</text>
<text xml:space="preserve" text-anchor="start" x="30.38" y="-7.25" font-family="Helvetica,sans-Serif" font-size="10.00">valid_for_signing()</text>
<polygon fill="#666666" stroke="#666666" points="0,-35.5 0,-35.5 139.25,-35.5 139.25,-35.5 0,-35.5"/>
<polygon fill="#666666" stroke="#666666" points="0,-18.75 0,-18.75 139.25,-18.75 139.25,-18.75 0,-18.75"/>
<polygon fill="none" stroke="#666666" points="0,0 0,-67 139.25,-67 139.25,0 0,0"/>
</a>
</g>
</g>
<!-- Node2 -->
<g id="Node000002" class="node">
<title>Node2</title>
<g id="a_Node000002"><a xlink:href="../../d6/da0/classvanetza_1_1security_1_1v3_1_1CertificateValidator.html" target="_top" xlink:title=" ">
<polygon fill="white" stroke="none" points="134.5,-186.75 4.75,-186.75 4.75,-103 134.5,-103 134.5,-186.75"/>
<text xml:space="preserve" text-anchor="start" x="13.75" y="-173.25" font-family="Helvetica,sans-Serif" font-size="10.00">vanetza::security::</text>
<text xml:space="preserve" text-anchor="start" x="13.75" y="-160.5" font-family="Helvetica,sans-Serif" font-size="10.00">v3::CertificateValidator</text>
<text xml:space="preserve" text-anchor="start" x="68.12" y="-143.75" font-family="Helvetica,sans-Serif" font-size="10.00"> </text>
<text xml:space="preserve" text-anchor="start" x="8.75" y="-127" font-family="Helvetica,sans-Serif" font-size="10.00">+</text>
<text xml:space="preserve" text-anchor="start" x="21" y="-127" font-family="Helvetica,sans-Serif" font-size="10.00">valid_for_signing()</text>
<text xml:space="preserve" text-anchor="start" x="8.75" y="-110.25" font-family="Helvetica,sans-Serif" font-size="10.00">+</text>
<text xml:space="preserve" text-anchor="start" x="21" y="-110.25" font-family="Helvetica,sans-Serif" font-size="10.00">~CertificateValidator()</text>
<polygon fill="#bfbfbf" stroke="#bfbfbf" points="4.75,-155.25 4.75,-155.25 134.5,-155.25 134.5,-155.25 4.75,-155.25"/>
<polygon fill="#bfbfbf" stroke="#bfbfbf" points="4.75,-138.5 4.75,-138.5 134.5,-138.5 134.5,-138.5 4.75,-138.5"/>
<polygon fill="none" stroke="#bfbfbf" points="4.75,-103 4.75,-186.75 134.5,-186.75 134.5,-103 4.75,-103"/>
</a>
</g>
</g>
<!-- Node2&#45;&gt;Node1 -->
<g id="edge1_Node000001_Node000002" class="edge">
<title>Node2&#45;&gt;Node1</title>
<g id="a_edge1_Node000001_Node000002"><a xlink:title=" ">
<path fill="none" stroke="#63b8ff" d="M69.62,-91.67C69.62,-83.16 69.62,-74.57 69.62,-66.72"/>
<polygon fill="none" stroke="#63b8ff" points="66.13,-91.63 69.63,-101.63 73.13,-91.63 66.13,-91.63"/>
</a>
</g>
</g>
</g>
</svg>
