<?xml version="1.0" encoding="UTF-8" standalone="no"?>
<!DOCTYPE svg PUBLIC "-//W3C//DTD SVG 1.1//EN"
 "http://www.w3.org/Graphics/SVG/1.1/DTD/svg11.dtd">
<!-- Generated by graphviz version 2.49.3 (0)
 -->
<!-- Title: vanetza::security::BackendNull Pages: 1 -->
<svg width="119pt" height="292pt"
 viewBox="0.00 0.00 119.00 292.00" xmlns="http://www.w3.org/2000/svg" xmlns:xlink="http://www.w3.org/1999/xlink">
<g id="graph0" class="graph" transform="scale(1 1) rotate(0) translate(4 288)">
<title>vanetza::security::BackendNull</title>
<!-- Node1 -->
<g id="node1" class="node">
<title>Node1</title>
<g id="a_node1"><a xlink:title="A backend doing nothing.">
<polygon fill="#999999" stroke="#666666" points="0,-0.5 0,-123.5 111,-123.5 111,-0.5 0,-0.5"/>
<text text-anchor="start" x="8" y="-111.5" font-family="Helvetica,sans-Serif" font-size="10.00">vanetza::security::</text>
<text text-anchor="middle" x="55.5" y="-100.5" font-family="Helvetica,sans-Serif" font-size="10.00">BackendNull</text>
<polyline fill="none" stroke="#666666" points="0,-93.5 111,-93.5 "/>
<text text-anchor="start" x="8" y="-81.5" font-family="Helvetica,sans-Serif" font-size="10.00">+ backend_name</text>
<polyline fill="none" stroke="#666666" points="0,-74.5 111,-74.5 "/>
<text text-anchor="start" x="8" y="-62.5" font-family="Helvetica,sans-Serif" font-size="10.00">+ sign_data()</text>
<text text-anchor="start" x="8" y="-51.5" font-family="Helvetica,sans-Serif" font-size="10.00">+ verify_data()</text>
<text text-anchor="start" x="8" y="-40.5" font-family="Helvetica,sans-Serif" font-size="10.00">+ verify_digest()</text>
<text text-anchor="start" x="8" y="-29.5" font-family="Helvetica,sans-Serif" font-size="10.00">+ decompress_point()</text>
<text text-anchor="start" x="8" y="-18.5" font-family="Helvetica,sans-Serif" font-size="10.00">+ calculate_hash()</text>
<text text-anchor="start" x="8" y="-7.5" font-family="Helvetica,sans-Serif" font-size="10.00">&#45; fake_signature()</text>
</a>
</g>
</g>
<!-- Node2 -->
<g id="node2" class="node">
<title>Node2</title>
<g id="a_node2"><a xlink:href="../../d1/d75/classvanetza_1_1security_1_1Backend.html" target="_top" xlink:title=" ">
<polygon fill="white" stroke="#666666" points="0,-160.5 0,-283.5 111,-283.5 111,-160.5 0,-160.5"/>
<text text-anchor="start" x="8" y="-271.5" font-family="Helvetica,sans-Serif" font-size="10.00">vanetza::security::</text>
<text text-anchor="middle" x="55.5" y="-260.5" font-family="Helvetica,sans-Serif" font-size="10.00">Backend</text>
<polyline fill="none" stroke="#666666" points="0,-253.5 111,-253.5 "/>
<text text-anchor="middle" x="55.5" y="-241.5" font-family="Helvetica,sans-Serif" font-size="10.00"> </text>
<polyline fill="none" stroke="#666666" points="0,-234.5 111,-234.5 "/>
<text text-anchor="start" x="8" y="-222.5" font-family="Helvetica,sans-Serif" font-size="10.00">+ sign_data()</text>
<text text-anchor="start" x="8" y="-211.5" font-family="Helvetica,sans-Serif" font-size="10.00">+ verify_data()</text>
<text text-anchor="start" x="8" y="-200.5" font-family="Helvetica,sans-Serif" font-size="10.00">+ verify_digest()</text>
<text text-anchor="start" x="8" y="-189.5" font-family="Helvetica,sans-Serif" font-size="10.00">+ decompress_point()</text>
<text text-anchor="start" x="8" y="-178.5" font-family="Helvetica,sans-Serif" font-size="10.00">+ calculate_hash()</text>
<text text-anchor="start" x="8" y="-167.5" font-family="Helvetica,sans-Serif" font-size="10.00">+ ~Backend()</text>
</a>
</g>
</g>
<!-- Node2&#45;&gt;Node1 -->
<g id="edge1" class="edge">
<title>Node2&#45;&gt;Node1</title>
<path fill="none" stroke="#63b8ff" d="M55.5,-150.12C55.5,-141.31 55.5,-132.37 55.5,-123.73"/>
<polygon fill="none" stroke="#63b8ff" points="52,-150.36 55.5,-160.36 59,-150.36 52,-150.36"/>
</g>
</g>
</svg>
