<?xml version="1.0" encoding="UTF-8" standalone="no"?>
<!DOCTYPE svg PUBLIC "-//W3C//DTD SVG 1.1//EN"
 "http://www.w3.org/Graphics/SVG/1.1/DTD/svg11.dtd">
<!-- Generated by graphviz version 14.1.2 (0)
 -->
<!-- Title: vanetza::security::BackendNull Pages: 1 -->
<svg width="125pt" height="379pt"
 viewBox="0.00 0.00 125.00 379.00" xmlns="http://www.w3.org/2000/svg" xmlns:xlink="http://www.w3.org/1999/xlink">
<g id="graph0" class="graph" transform="scale(1 1) rotate(0) translate(4 375)">
<title>vanetza::security::BackendNull</title>
<!-- Node1 -->
<g id="Node000001" class="node">
<title>Node1</title>
<g id="a_Node000001"><a xlink:title="A backend doing nothing.">
<polygon fill="#999999" stroke="none" points="117,-167.5 0,-167.5 0,0 117,0 117,-167.5"/>
<text xml:space="preserve" text-anchor="start" x="13.88" y="-154" font-family="Helvetica,sans-Serif" font-size="10.00">vanetza::security::</text>
<text xml:space="preserve" text-anchor="start" x="28.12" y="-141.25" font-family="Helvetica,sans-Serif" font-size="10.00">BackendNull</text>
<text xml:space="preserve" text-anchor="start" x="4" y="-124.5" font-family="Helvetica,sans-Serif" font-size="10.00">+</text>
<text xml:space="preserve" text-anchor="start" x="16.25" y="-124.5" font-family="Helvetica,sans-Serif" font-size="10.00">backend_name</text>
<text xml:space="preserve" text-anchor="start" x="4" y="-107.75" font-family="Helvetica,sans-Serif" font-size="10.00">+</text>
<text xml:space="preserve" text-anchor="start" x="16.25" y="-107.75" font-family="Helvetica,sans-Serif" font-size="10.00">sign_data()</text>
<text xml:space="preserve" text-anchor="start" x="4" y="-91" font-family="Helvetica,sans-Serif" font-size="10.00">+</text>
<text xml:space="preserve" text-anchor="start" x="16.25" y="-91" font-family="Helvetica,sans-Serif" font-size="10.00">sign_digest()</text>
<text xml:space="preserve" text-anchor="start" x="4" y="-74.25" font-family="Helvetica,sans-Serif" font-size="10.00">+</text>
<text xml:space="preserve" text-anchor="start" x="16.25" y="-74.25" font-family="Helvetica,sans-Serif" font-size="10.00">verify_data()</text>
<text xml:space="preserve" text-anchor="start" x="4" y="-57.5" font-family="Helvetica,sans-Serif" font-size="10.00">+</text>
<text xml:space="preserve" text-anchor="start" x="16.25" y="-57.5" font-family="Helvetica,sans-Serif" font-size="10.00">verify_digest()</text>
<text xml:space="preserve" text-anchor="start" x="4" y="-40.75" font-family="Helvetica,sans-Serif" font-size="10.00">+</text>
<text xml:space="preserve" text-anchor="start" x="16.25" y="-40.75" font-family="Helvetica,sans-Serif" font-size="10.00">decompress_point()</text>
<text xml:space="preserve" text-anchor="start" x="4" y="-24" font-family="Helvetica,sans-Serif" font-size="10.00">+</text>
<text xml:space="preserve" text-anchor="start" x="16.25" y="-24" font-family="Helvetica,sans-Serif" font-size="10.00">calculate_hash()</text>
<text xml:space="preserve" text-anchor="start" x="6.25" y="-7.25" font-family="Helvetica,sans-Serif" font-size="10.00">&#45;</text>
<text xml:space="preserve" text-anchor="start" x="16.25" y="-7.25" font-family="Helvetica,sans-Serif" font-size="10.00">fake_signature()</text>
<polygon fill="#666666" stroke="#666666" points="0,-136 0,-136 117,-136 117,-136 0,-136"/>
<polygon fill="#666666" stroke="#666666" points="0,-119.25 0,-119.25 14.25,-119.25 14.25,-119.25 0,-119.25"/>
<polygon fill="#666666" stroke="#666666" points="14.25,-119.25 14.25,-119.25 117,-119.25 117,-119.25 14.25,-119.25"/>
<polygon fill="none" stroke="#666666" points="0,0 0,-167.5 117,-167.5 117,0 0,0"/>
</a>
</g>
</g>
<!-- Node2 -->
<g id="Node000002" class="node">
<title>Node2</title>
<g id="a_Node000002"><a xlink:href="../../d1/d75/classvanetza_1_1security_1_1Backend.html" target="_top" xlink:title=" ">
<polygon fill="white" stroke="none" points="117,-371 0,-371 0,-203.5 117,-203.5 117,-371"/>
<text xml:space="preserve" text-anchor="start" x="13.88" y="-357.5" font-family="Helvetica,sans-Serif" font-size="10.00">vanetza::security::</text>
<text xml:space="preserve" text-anchor="start" x="37.88" y="-344.75" font-family="Helvetica,sans-Serif" font-size="10.00">Backend</text>
<text xml:space="preserve" text-anchor="start" x="57" y="-328" font-family="Helvetica,sans-Serif" font-size="10.00"> </text>
<text xml:space="preserve" text-anchor="start" x="4" y="-311.25" font-family="Helvetica,sans-Serif" font-size="10.00">+</text>
<text xml:space="preserve" text-anchor="start" x="16.25" y="-311.25" font-family="Helvetica,sans-Serif" font-size="10.00">sign_data()</text>
<text xml:space="preserve" text-anchor="start" x="4" y="-294.5" font-family="Helvetica,sans-Serif" font-size="10.00">+</text>
<text xml:space="preserve" text-anchor="start" x="16.25" y="-294.5" font-family="Helvetica,sans-Serif" font-size="10.00">sign_digest()</text>
<text xml:space="preserve" text-anchor="start" x="4" y="-277.75" font-family="Helvetica,sans-Serif" font-size="10.00">+</text>
<text xml:space="preserve" text-anchor="start" x="16.25" y="-277.75" font-family="Helvetica,sans-Serif" font-size="10.00">verify_data()</text>
<text xml:space="preserve" text-anchor="start" x="4" y="-261" font-family="Helvetica,sans-Serif" font-size="10.00">+</text>
<text xml:space="preserve" text-anchor="start" x="16.25" y="-261" font-family="Helvetica,sans-Serif" font-size="10.00">verify_digest()</text>
<text xml:space="preserve" text-anchor="start" x="4" y="-244.25" font-family="Helvetica,sans-Serif" font-size="10.00">+</text>
<text xml:space="preserve" text-anchor="start" x="16.25" y="-244.25" font-family="Helvetica,sans-Serif" font-size="10.00">decompress_point()</text>
<text xml:space="preserve" text-anchor="start" x="4" y="-227.5" font-family="Helvetica,sans-Serif" font-size="10.00">+</text>
<text xml:space="preserve" text-anchor="start" x="16.25" y="-227.5" font-family="Helvetica,sans-Serif" font-size="10.00">calculate_hash()</text>
<text xml:space="preserve" text-anchor="start" x="4" y="-210.75" font-family="Helvetica,sans-Serif" font-size="10.00">+</text>
<text xml:space="preserve" text-anchor="start" x="16.25" y="-210.75" font-family="Helvetica,sans-Serif" font-size="10.00">~Backend()</text>
<polygon fill="#666666" stroke="#666666" points="0,-339.5 0,-339.5 117,-339.5 117,-339.5 0,-339.5"/>
<polygon fill="#666666" stroke="#666666" points="0,-322.75 0,-322.75 117,-322.75 117,-322.75 0,-322.75"/>
<polygon fill="none" stroke="#666666" points="0,-203.5 0,-371 117,-371 117,-203.5 0,-203.5"/>
</a>
</g>
</g>
<!-- Node2&#45;&gt;Node1 -->
<g id="edge1_Node000001_Node000002" class="edge">
<title>Node2&#45;&gt;Node1</title>
<g id="a_edge1_Node000001_Node000002"><a xlink:title=" ">
<path fill="none" stroke="#63b8ff" d="M58.5,-192.42C58.5,-184.1 58.5,-175.71 58.5,-167.49"/>
<polygon fill="none" stroke="#63b8ff" points="55,-192.2 58.5,-202.2 62,-192.2 55,-192.2"/>
</a>
</g>
</g>
</g>
</svg>
