<?xml version="1.0" encoding="UTF-8" standalone="no"?>
<!DOCTYPE svg PUBLIC "-//W3C//DTD SVG 1.1//EN"
 "http://www.w3.org/Graphics/SVG/1.1/DTD/svg11.dtd">
<!-- Generated by graphviz version 2.42.3 (0)
 -->
<!-- Title: vanetza::geonet::Lifetime Pages: 1 -->
<svg width="133pt" height="292pt"
 viewBox="0.00 0.00 133.00 292.00" xmlns="http://www.w3.org/2000/svg" xmlns:xlink="http://www.w3.org/1999/xlink">
<g id="graph0" class="graph" transform="scale(1 1) rotate(0) translate(4 288)">
<title>vanetza::geonet::Lifetime</title>
<polygon fill="white" stroke="transparent" points="-4,4 -4,-288 129,-288 129,4 -4,4"/>
<!-- Node1 -->
<g id="node1" class="node">
<title>Node1</title>
<g id="a_node1"><a xlink:title=" ">
<polygon fill="#bfbfbf" stroke="black" points="0,-0.5 0,-178.5 125,-178.5 125,-0.5 0,-0.5"/>
<text text-anchor="middle" x="62.5" y="-166.5" font-family="Helvetica,sans-Serif" font-size="10.00">vanetza::geonet::Lifetime</text>
<polyline fill="none" stroke="black" points="0,-159.5 125,-159.5 "/>
<text text-anchor="start" x="8" y="-147.5" font-family="Helvetica,sans-Serif" font-size="10.00">+ multiplier_mask</text>
<text text-anchor="start" x="8" y="-136.5" font-family="Helvetica,sans-Serif" font-size="10.00">+ base_mask</text>
<text text-anchor="start" x="8" y="-125.5" font-family="Helvetica,sans-Serif" font-size="10.00">&#45; m_lifetime</text>
<polyline fill="none" stroke="black" points="0,-118.5 125,-118.5 "/>
<text text-anchor="start" x="8" y="-106.5" font-family="Helvetica,sans-Serif" font-size="10.00">+ Lifetime()</text>
<text text-anchor="start" x="8" y="-95.5" font-family="Helvetica,sans-Serif" font-size="10.00">+ Lifetime()</text>
<text text-anchor="start" x="8" y="-84.5" font-family="Helvetica,sans-Serif" font-size="10.00">+ set()</text>
<text text-anchor="start" x="8" y="-73.5" font-family="Helvetica,sans-Serif" font-size="10.00">+ raw()</text>
<text text-anchor="start" x="8" y="-62.5" font-family="Helvetica,sans-Serif" font-size="10.00">+ raw()</text>
<text text-anchor="start" x="8" y="-51.5" font-family="Helvetica,sans-Serif" font-size="10.00">+ operator&lt;()</text>
<text text-anchor="start" x="8" y="-40.5" font-family="Helvetica,sans-Serif" font-size="10.00">+ operator==()</text>
<text text-anchor="start" x="8" y="-29.5" font-family="Helvetica,sans-Serif" font-size="10.00">+ decode()</text>
<text text-anchor="start" x="8" y="-18.5" font-family="Helvetica,sans-Serif" font-size="10.00">+ encode()</text>
<text text-anchor="start" x="8" y="-7.5" font-family="Helvetica,sans-Serif" font-size="10.00">+ zero()</text>
</a>
</g>
</g>
<!-- Node2 -->
<g id="node2" class="node">
<title>Node2</title>
<g id="a_node2"><a xlink:title=" ">
<polygon fill="white" stroke="#bfbfbf" points="7.5,-215.5 7.5,-283.5 117.5,-283.5 117.5,-215.5 7.5,-215.5"/>
<text text-anchor="start" x="15.5" y="-271.5" font-family="Helvetica,sans-Serif" font-size="10.00">boost::totally_ordered</text>
<text text-anchor="middle" x="62.5" y="-260.5" font-family="Helvetica,sans-Serif" font-size="10.00">&lt; Lifetime &gt;</text>
<polyline fill="none" stroke="#bfbfbf" points="7.5,-253.5 117.5,-253.5 "/>
<text text-anchor="middle" x="62.5" y="-241.5" font-family="Helvetica,sans-Serif" font-size="10.00"> </text>
<polyline fill="none" stroke="#bfbfbf" points="7.5,-234.5 117.5,-234.5 "/>
<text text-anchor="middle" x="62.5" y="-222.5" font-family="Helvetica,sans-Serif" font-size="10.00"> </text>
</a>
</g>
</g>
<!-- Node2&#45;&gt;Node1 -->
<g id="edge1" class="edge">
<title>Node2&#45;&gt;Node1</title>
<path fill="none" stroke="midnightblue" d="M62.5,-205.19C62.5,-196.83 62.5,-187.8 62.5,-178.59"/>
<polygon fill="none" stroke="midnightblue" points="59,-205.38 62.5,-215.38 66,-205.38 59,-205.38"/>
</g>
</g>
</svg>
