<?xml version="1.0" encoding="UTF-8" standalone="no"?>
<!DOCTYPE svg PUBLIC "-//W3C//DTD SVG 1.1//EN"
 "http://www.w3.org/Graphics/SVG/1.1/DTD/svg11.dtd">
<!-- Generated by graphviz version 14.1.2 (0)
 -->
<!-- Title: vanetza::geonet::Lifetime Pages: 1 -->
<svg width="141pt" height="350pt"
 viewBox="0.00 0.00 141.00 350.00" xmlns="http://www.w3.org/2000/svg" xmlns:xlink="http://www.w3.org/1999/xlink">
<g id="graph0" class="graph" transform="scale(1 1) rotate(0) translate(4 345.5)">
<title>vanetza::geonet::Lifetime</title>
<!-- Node1 -->
<g id="Node000001" class="node">
<title>Node1</title>
<g id="a_Node000001"><a xlink:title=" ">
<polygon fill="#999999" stroke="none" points="133.25,-238.5 0,-238.5 0,0 133.25,0 133.25,-238.5"/>
<text xml:space="preserve" text-anchor="start" x="4" y="-225" font-family="Helvetica,sans-Serif" font-size="10.00">vanetza::geonet::Lifetime</text>
<text xml:space="preserve" text-anchor="start" x="12.38" y="-208.25" font-family="Helvetica,sans-Serif" font-size="10.00">+</text>
<text xml:space="preserve" text-anchor="start" x="33" y="-208.25" font-family="Helvetica,sans-Serif" font-size="10.00">multiplier_mask</text>
<text xml:space="preserve" text-anchor="start" x="12.38" y="-191.5" font-family="Helvetica,sans-Serif" font-size="10.00">+</text>
<text xml:space="preserve" text-anchor="start" x="33" y="-191.5" font-family="Helvetica,sans-Serif" font-size="10.00">base_mask</text>
<text xml:space="preserve" text-anchor="start" x="14.62" y="-174.75" font-family="Helvetica,sans-Serif" font-size="10.00">&#45;</text>
<text xml:space="preserve" text-anchor="start" x="33" y="-174.75" font-family="Helvetica,sans-Serif" font-size="10.00">m_lifetime</text>
<text xml:space="preserve" text-anchor="start" x="12.38" y="-158" font-family="Helvetica,sans-Serif" font-size="10.00">+</text>
<text xml:space="preserve" text-anchor="start" x="33" y="-158" font-family="Helvetica,sans-Serif" font-size="10.00">Lifetime()</text>
<text xml:space="preserve" text-anchor="start" x="12.38" y="-141.25" font-family="Helvetica,sans-Serif" font-size="10.00">+</text>
<text xml:space="preserve" text-anchor="start" x="33" y="-141.25" font-family="Helvetica,sans-Serif" font-size="10.00">Lifetime()</text>
<text xml:space="preserve" text-anchor="start" x="12.38" y="-124.5" font-family="Helvetica,sans-Serif" font-size="10.00">+</text>
<text xml:space="preserve" text-anchor="start" x="33" y="-124.5" font-family="Helvetica,sans-Serif" font-size="10.00">set()</text>
<text xml:space="preserve" text-anchor="start" x="12.38" y="-107.75" font-family="Helvetica,sans-Serif" font-size="10.00">+</text>
<text xml:space="preserve" text-anchor="start" x="33" y="-107.75" font-family="Helvetica,sans-Serif" font-size="10.00">raw()</text>
<text xml:space="preserve" text-anchor="start" x="12.38" y="-91" font-family="Helvetica,sans-Serif" font-size="10.00">+</text>
<text xml:space="preserve" text-anchor="start" x="33" y="-91" font-family="Helvetica,sans-Serif" font-size="10.00">raw()</text>
<text xml:space="preserve" text-anchor="start" x="12.38" y="-74.25" font-family="Helvetica,sans-Serif" font-size="10.00">+</text>
<text xml:space="preserve" text-anchor="start" x="33" y="-74.25" font-family="Helvetica,sans-Serif" font-size="10.00">operator&lt;()</text>
<text xml:space="preserve" text-anchor="start" x="12.38" y="-57.5" font-family="Helvetica,sans-Serif" font-size="10.00">+</text>
<text xml:space="preserve" text-anchor="start" x="33" y="-57.5" font-family="Helvetica,sans-Serif" font-size="10.00">operator==()</text>
<text xml:space="preserve" text-anchor="start" x="12.38" y="-40.75" font-family="Helvetica,sans-Serif" font-size="10.00">+</text>
<text xml:space="preserve" text-anchor="start" x="33" y="-40.75" font-family="Helvetica,sans-Serif" font-size="10.00">decode()</text>
<text xml:space="preserve" text-anchor="start" x="12.38" y="-24" font-family="Helvetica,sans-Serif" font-size="10.00">+</text>
<text xml:space="preserve" text-anchor="start" x="33" y="-24" font-family="Helvetica,sans-Serif" font-size="10.00">encode()</text>
<text xml:space="preserve" text-anchor="start" x="12.38" y="-7.25" font-family="Helvetica,sans-Serif" font-size="10.00">+</text>
<text xml:space="preserve" text-anchor="start" x="33" y="-7.25" font-family="Helvetica,sans-Serif" font-size="10.00">zero()</text>
<polygon fill="#666666" stroke="#666666" points="0,-219.75 0,-219.75 133.25,-219.75 133.25,-219.75 0,-219.75"/>
<polygon fill="#666666" stroke="#666666" points="0,-169.5 0,-169.5 31,-169.5 31,-169.5 0,-169.5"/>
<polygon fill="#666666" stroke="#666666" points="31,-169.5 31,-169.5 133.25,-169.5 133.25,-169.5 31,-169.5"/>
<polygon fill="none" stroke="#666666" points="0,0 0,-238.5 133.25,-238.5 133.25,0 0,0"/>
</a>
</g>
</g>
<!-- Node2 -->
<g id="Node000002" class="node">
<title>Node2</title>
<g id="a_Node000002"><a xlink:title=" ">
<polygon fill="white" stroke="none" points="124.25,-341.5 9,-341.5 9,-274.5 124.25,-274.5 124.25,-341.5"/>
<text xml:space="preserve" text-anchor="start" x="13" y="-328" font-family="Helvetica,sans-Serif" font-size="10.00">boost::totally_ordered</text>
<text xml:space="preserve" text-anchor="start" x="35.12" y="-315.25" font-family="Helvetica,sans-Serif" font-size="10.00">&lt; Lifetime &gt;</text>
<text xml:space="preserve" text-anchor="start" x="65.12" y="-298.5" font-family="Helvetica,sans-Serif" font-size="10.00"> </text>
<text xml:space="preserve" text-anchor="start" x="65.12" y="-281.75" font-family="Helvetica,sans-Serif" font-size="10.00"> </text>
<polygon fill="#bfbfbf" stroke="#bfbfbf" points="9,-310 9,-310 124.25,-310 124.25,-310 9,-310"/>
<polygon fill="#bfbfbf" stroke="#bfbfbf" points="9,-293.25 9,-293.25 124.25,-293.25 124.25,-293.25 9,-293.25"/>
<polygon fill="none" stroke="#bfbfbf" points="9,-274.5 9,-341.5 124.25,-341.5 124.25,-274.5 9,-274.5"/>
</a>
</g>
</g>
<!-- Node2&#45;&gt;Node1 -->
<g id="edge1_Node000001_Node000002" class="edge">
<title>Node2&#45;&gt;Node1</title>
<g id="a_edge1_Node000001_Node000002"><a xlink:title=" ">
<path fill="none" stroke="#63b8ff" d="M66.62,-263.58C66.62,-255.76 66.62,-247.27 66.62,-238.47"/>
<polygon fill="none" stroke="#63b8ff" points="63.13,-263.38 66.63,-273.38 70.13,-263.38 63.13,-263.38"/>
</a>
</g>
</g>
</g>
</svg>
