<?xml version="1.0" encoding="UTF-8" standalone="no"?>
<!DOCTYPE svg PUBLIC "-//W3C//DTD SVG 1.1//EN"
 "http://www.w3.org/Graphics/SVG/1.1/DTD/svg11.dtd">
<!-- Generated by graphviz version 14.1.2 (0)
 -->
<!-- Title: vanetza::security::v3::BaseCertificateProvider Pages: 1 -->
<svg width="322pt" height="608pt"
 viewBox="0.00 0.00 322.00 608.00" xmlns="http://www.w3.org/2000/svg" xmlns:xlink="http://www.w3.org/1999/xlink">
<g id="graph0" class="graph" transform="scale(1 1) rotate(0) translate(4 604)">
<title>vanetza::security::v3::BaseCertificateProvider</title>
<!-- Node1 -->
<g id="Node000001" class="node">
<title>Node1</title>
<g id="a_Node000001"><a xlink:title=" ">
<polygon fill="#999999" stroke="none" points="228.38,-430 87.62,-430 87.62,-346.25 228.38,-346.25 228.38,-430"/>
<text xml:space="preserve" text-anchor="start" x="91.62" y="-416.5" font-family="Helvetica,sans-Serif" font-size="10.00">vanetza::security::</text>
<text xml:space="preserve" text-anchor="start" x="91.62" y="-403.75" font-family="Helvetica,sans-Serif" font-size="10.00">v3::BaseCertificateProvider</text>
<text xml:space="preserve" text-anchor="start" x="113.12" y="-387" font-family="Helvetica,sans-Serif" font-size="10.00">&#45;</text>
<text xml:space="preserve" text-anchor="start" x="142.38" y="-387" font-family="Helvetica,sans-Serif" font-size="10.00">m_cache</text>
<text xml:space="preserve" text-anchor="start" x="110.88" y="-370.25" font-family="Helvetica,sans-Serif" font-size="10.00">+</text>
<text xml:space="preserve" text-anchor="start" x="142.38" y="-370.25" font-family="Helvetica,sans-Serif" font-size="10.00">cache()</text>
<text xml:space="preserve" text-anchor="start" x="110.88" y="-353.5" font-family="Helvetica,sans-Serif" font-size="10.00">+</text>
<text xml:space="preserve" text-anchor="start" x="142.38" y="-353.5" font-family="Helvetica,sans-Serif" font-size="10.00">cache()</text>
<polygon fill="#666666" stroke="#666666" points="87.62,-398.5 87.62,-398.5 228.38,-398.5 228.38,-398.5 87.62,-398.5"/>
<polygon fill="#666666" stroke="#666666" points="87.62,-381.75 87.62,-381.75 140.38,-381.75 140.38,-381.75 87.62,-381.75"/>
<polygon fill="#666666" stroke="#666666" points="140.38,-381.75 140.38,-381.75 228.38,-381.75 228.38,-381.75 140.38,-381.75"/>
<polygon fill="none" stroke="#666666" points="87.62,-346.25 87.62,-430 228.38,-430 228.38,-346.25 87.62,-346.25"/>
</a>
</g>
</g>
<!-- Node3 -->
<g id="Node000003" class="node">
<title>Node3</title>
<g id="a_Node000003"><a xlink:href="../../db/daa/classvanetza_1_1security_1_1v3_1_1NaiveCertificateProvider.html" target="_top" xlink:title="A very simplistic certificate provider.">
<polygon fill="white" stroke="none" points="150,-310.25 0,-310.25 0,0 150,0 150,-310.25"/>
<text xml:space="preserve" text-anchor="start" x="6.38" y="-296.75" font-family="Helvetica,sans-Serif" font-size="10.00">vanetza::security::</text>
<text xml:space="preserve" text-anchor="start" x="6.38" y="-284" font-family="Helvetica,sans-Serif" font-size="10.00">v3::NaiveCertificateProvider</text>
<text xml:space="preserve" text-anchor="start" x="6.25" y="-267.25" font-family="Helvetica,sans-Serif" font-size="10.00">&#45;</text>
<text xml:space="preserve" text-anchor="start" x="16.25" y="-267.25" font-family="Helvetica,sans-Serif" font-size="10.00">m_crypto_backend</text>
<text xml:space="preserve" text-anchor="start" x="6.25" y="-250.5" font-family="Helvetica,sans-Serif" font-size="10.00">&#45;</text>
<text xml:space="preserve" text-anchor="start" x="16.25" y="-250.5" font-family="Helvetica,sans-Serif" font-size="10.00">m_runtime</text>
<text xml:space="preserve" text-anchor="start" x="6.25" y="-233.75" font-family="Helvetica,sans-Serif" font-size="10.00">&#45;</text>
<text xml:space="preserve" text-anchor="start" x="16.25" y="-233.75" font-family="Helvetica,sans-Serif" font-size="10.00">m_own_key_pair</text>
<text xml:space="preserve" text-anchor="start" x="6.25" y="-217" font-family="Helvetica,sans-Serif" font-size="10.00">&#45;</text>
<text xml:space="preserve" text-anchor="start" x="16.25" y="-217" font-family="Helvetica,sans-Serif" font-size="10.00">m_own_certificate</text>
<text xml:space="preserve" text-anchor="start" x="4" y="-200.25" font-family="Helvetica,sans-Serif" font-size="10.00">+</text>
<text xml:space="preserve" text-anchor="start" x="16.25" y="-200.25" font-family="Helvetica,sans-Serif" font-size="10.00">NaiveCertificateProvider()</text>
<text xml:space="preserve" text-anchor="start" x="4" y="-183.5" font-family="Helvetica,sans-Serif" font-size="10.00">+</text>
<text xml:space="preserve" text-anchor="start" x="16.25" y="-183.5" font-family="Helvetica,sans-Serif" font-size="10.00">own_certificate()</text>
<text xml:space="preserve" text-anchor="start" x="4" y="-166.75" font-family="Helvetica,sans-Serif" font-size="10.00">+</text>
<text xml:space="preserve" text-anchor="start" x="16.25" y="-166.75" font-family="Helvetica,sans-Serif" font-size="10.00">own_private_key()</text>
<text xml:space="preserve" text-anchor="start" x="4" y="-150" font-family="Helvetica,sans-Serif" font-size="10.00">+</text>
<text xml:space="preserve" text-anchor="start" x="16.25" y="-150" font-family="Helvetica,sans-Serif" font-size="10.00">aa_certificate()</text>
<text xml:space="preserve" text-anchor="start" x="4" y="-133.25" font-family="Helvetica,sans-Serif" font-size="10.00">+</text>
<text xml:space="preserve" text-anchor="start" x="16.25" y="-133.25" font-family="Helvetica,sans-Serif" font-size="10.00">root_certificate()</text>
<text xml:space="preserve" text-anchor="start" x="4" y="-116.5" font-family="Helvetica,sans-Serif" font-size="10.00">+</text>
<text xml:space="preserve" text-anchor="start" x="16.25" y="-116.5" font-family="Helvetica,sans-Serif" font-size="10.00">generate_authorization</text>
<text xml:space="preserve" text-anchor="start" x="16.25" y="-103.75" font-family="Helvetica,sans-Serif" font-size="10.00">_ticket()</text>
<text xml:space="preserve" text-anchor="start" x="4" y="-87" font-family="Helvetica,sans-Serif" font-size="10.00">+</text>
<text xml:space="preserve" text-anchor="start" x="16.25" y="-87" font-family="Helvetica,sans-Serif" font-size="10.00">sign_authorization</text>
<text xml:space="preserve" text-anchor="start" x="16.25" y="-74.25" font-family="Helvetica,sans-Serif" font-size="10.00">_ticket()</text>
<text xml:space="preserve" text-anchor="start" x="6.25" y="-57.5" font-family="Helvetica,sans-Serif" font-size="10.00">&#45;</text>
<text xml:space="preserve" text-anchor="start" x="16.25" y="-57.5" font-family="Helvetica,sans-Serif" font-size="10.00">aa_key_pair()</text>
<text xml:space="preserve" text-anchor="start" x="6.25" y="-40.75" font-family="Helvetica,sans-Serif" font-size="10.00">&#45;</text>
<text xml:space="preserve" text-anchor="start" x="16.25" y="-40.75" font-family="Helvetica,sans-Serif" font-size="10.00">root_key_pair()</text>
<text xml:space="preserve" text-anchor="start" x="6.25" y="-24" font-family="Helvetica,sans-Serif" font-size="10.00">&#45;</text>
<text xml:space="preserve" text-anchor="start" x="16.25" y="-24" font-family="Helvetica,sans-Serif" font-size="10.00">generate_aa_certificate()</text>
<text xml:space="preserve" text-anchor="start" x="6.25" y="-7.25" font-family="Helvetica,sans-Serif" font-size="10.00">&#45;</text>
<text xml:space="preserve" text-anchor="start" x="16.25" y="-7.25" font-family="Helvetica,sans-Serif" font-size="10.00">generate_root_certificate()</text>
<polygon fill="#666666" stroke="#666666" points="0,-278.75 0,-278.75 150,-278.75 150,-278.75 0,-278.75"/>
<polygon fill="#666666" stroke="#666666" points="0,-211.75 0,-211.75 14.25,-211.75 14.25,-211.75 0,-211.75"/>
<polygon fill="#666666" stroke="#666666" points="14.25,-211.75 14.25,-211.75 150,-211.75 150,-211.75 14.25,-211.75"/>
<polygon fill="none" stroke="#666666" points="0,0 0,-310.25 150,-310.25 150,0 0,0"/>
</a>
</g>
</g>
<!-- Node1&#45;&gt;Node3 -->
<g id="edge2_Node000001_Node000003" class="edge">
<title>Node1&#45;&gt;Node3</title>
<g id="a_edge2_Node000001_Node000003"><a xlink:title=" ">
<path fill="none" stroke="#63b8ff" d="M139.53,-335.73C136.63,-327.64 133.5,-318.93 130.24,-309.87"/>
<polygon fill="none" stroke="#63b8ff" points="136.17,-336.71 142.84,-344.93 142.75,-334.34 136.17,-336.71"/>
</a>
</g>
</g>
<!-- Node4 -->
<g id="Node000004" class="node">
<title>Node4</title>
<g id="a_Node000004"><a xlink:href="../../dc/d7a/classvanetza_1_1security_1_1v3_1_1StaticCertificateProvider.html" target="_top" xlink:title="A simple certificate provider.">
<polygon fill="white" stroke="none" points="314.12,-222.12 167.88,-222.12 167.88,-88.12 314.12,-88.12 314.12,-222.12"/>
<text xml:space="preserve" text-anchor="start" x="172.75" y="-208.62" font-family="Helvetica,sans-Serif" font-size="10.00">vanetza::security::</text>
<text xml:space="preserve" text-anchor="start" x="172.75" y="-195.88" font-family="Helvetica,sans-Serif" font-size="10.00">v3::StaticCertificateProvider</text>
<text xml:space="preserve" text-anchor="start" x="174.12" y="-179.12" font-family="Helvetica,sans-Serif" font-size="10.00">&#45;</text>
<text xml:space="preserve" text-anchor="start" x="184.12" y="-179.12" font-family="Helvetica,sans-Serif" font-size="10.00">authorization_ticket</text>
<text xml:space="preserve" text-anchor="start" x="174.12" y="-162.38" font-family="Helvetica,sans-Serif" font-size="10.00">&#45;</text>
<text xml:space="preserve" text-anchor="start" x="184.12" y="-162.38" font-family="Helvetica,sans-Serif" font-size="10.00">authorization_ticket_key</text>
<text xml:space="preserve" text-anchor="start" x="174.12" y="-145.62" font-family="Helvetica,sans-Serif" font-size="10.00">&#45;</text>
<text xml:space="preserve" text-anchor="start" x="184.12" y="-145.62" font-family="Helvetica,sans-Serif" font-size="10.00">chain</text>
<text xml:space="preserve" text-anchor="start" x="171.88" y="-128.88" font-family="Helvetica,sans-Serif" font-size="10.00">+</text>
<text xml:space="preserve" text-anchor="start" x="184.12" y="-128.88" font-family="Helvetica,sans-Serif" font-size="10.00">StaticCertificateProvider()</text>
<text xml:space="preserve" text-anchor="start" x="171.88" y="-112.12" font-family="Helvetica,sans-Serif" font-size="10.00">+</text>
<text xml:space="preserve" text-anchor="start" x="184.12" y="-112.12" font-family="Helvetica,sans-Serif" font-size="10.00">own_certificate()</text>
<text xml:space="preserve" text-anchor="start" x="171.88" y="-95.38" font-family="Helvetica,sans-Serif" font-size="10.00">+</text>
<text xml:space="preserve" text-anchor="start" x="184.12" y="-95.38" font-family="Helvetica,sans-Serif" font-size="10.00">own_private_key()</text>
<polygon fill="#666666" stroke="#666666" points="167.88,-190.62 167.88,-190.62 314.12,-190.62 314.12,-190.62 167.88,-190.62"/>
<polygon fill="#666666" stroke="#666666" points="167.88,-140.38 167.88,-140.38 182.12,-140.38 182.12,-140.38 167.88,-140.38"/>
<polygon fill="#666666" stroke="#666666" points="182.12,-140.38 182.12,-140.38 314.12,-140.38 314.12,-140.38 182.12,-140.38"/>
<polygon fill="none" stroke="#666666" points="167.88,-88.12 167.88,-222.12 314.12,-222.12 314.12,-88.12 167.88,-88.12"/>
</a>
</g>
</g>
<!-- Node1&#45;&gt;Node4 -->
<g id="edge3_Node000001_Node000004" class="edge">
<title>Node1&#45;&gt;Node4</title>
<g id="a_edge3_Node000001_Node000004"><a xlink:title=" ">
<path fill="none" stroke="#63b8ff" d="M176.43,-335.84C188.5,-302.23 204.4,-257.99 217.4,-221.81"/>
<polygon fill="none" stroke="#63b8ff" points="173.25,-334.34 173.16,-344.93 179.83,-336.71 173.25,-334.34"/>
</a>
</g>
</g>
<!-- Node2 -->
<g id="Node000002" class="node">
<title>Node2</title>
<g id="a_Node000002"><a xlink:href="../../d7/d65/classvanetza_1_1security_1_1v3_1_1CertificateProvider.html" target="_top" xlink:title=" ">
<polygon fill="white" stroke="none" points="221.38,-600 94.62,-600 94.62,-466 221.38,-466 221.38,-600"/>
<text xml:space="preserve" text-anchor="start" x="103.62" y="-586.5" font-family="Helvetica,sans-Serif" font-size="10.00">vanetza::security::</text>
<text xml:space="preserve" text-anchor="start" x="103.62" y="-573.75" font-family="Helvetica,sans-Serif" font-size="10.00">v3::CertificateProvider</text>
<text xml:space="preserve" text-anchor="start" x="156.5" y="-557" font-family="Helvetica,sans-Serif" font-size="10.00"> </text>
<text xml:space="preserve" text-anchor="start" x="98.62" y="-540.25" font-family="Helvetica,sans-Serif" font-size="10.00">+</text>
<text xml:space="preserve" text-anchor="start" x="110.88" y="-540.25" font-family="Helvetica,sans-Serif" font-size="10.00">own_certificate()</text>
<text xml:space="preserve" text-anchor="start" x="98.62" y="-523.5" font-family="Helvetica,sans-Serif" font-size="10.00">+</text>
<text xml:space="preserve" text-anchor="start" x="110.88" y="-523.5" font-family="Helvetica,sans-Serif" font-size="10.00">own_private_key()</text>
<text xml:space="preserve" text-anchor="start" x="98.62" y="-506.75" font-family="Helvetica,sans-Serif" font-size="10.00">+</text>
<text xml:space="preserve" text-anchor="start" x="110.88" y="-506.75" font-family="Helvetica,sans-Serif" font-size="10.00">cache()</text>
<text xml:space="preserve" text-anchor="start" x="98.62" y="-490" font-family="Helvetica,sans-Serif" font-size="10.00">+</text>
<text xml:space="preserve" text-anchor="start" x="110.88" y="-490" font-family="Helvetica,sans-Serif" font-size="10.00">cache()</text>
<text xml:space="preserve" text-anchor="start" x="98.62" y="-473.25" font-family="Helvetica,sans-Serif" font-size="10.00">+</text>
<text xml:space="preserve" text-anchor="start" x="110.88" y="-473.25" font-family="Helvetica,sans-Serif" font-size="10.00">~CertificateProvider()</text>
<polygon fill="#bfbfbf" stroke="#bfbfbf" points="94.62,-568.5 94.62,-568.5 221.38,-568.5 221.38,-568.5 94.62,-568.5"/>
<polygon fill="#bfbfbf" stroke="#bfbfbf" points="94.62,-551.75 94.62,-551.75 221.38,-551.75 221.38,-551.75 94.62,-551.75"/>
<polygon fill="none" stroke="#bfbfbf" points="94.62,-466 94.62,-600 221.38,-600 221.38,-466 94.62,-466"/>
</a>
</g>
</g>
<!-- Node2&#45;&gt;Node1 -->
<g id="edge1_Node000001_Node000002" class="edge">
<title>Node2&#45;&gt;Node1</title>
<g id="a_edge1_Node000001_Node000002"><a xlink:title=" ">
<path fill="none" stroke="#63b8ff" d="M158,-454.99C158,-446.32 158,-437.76 158,-429.82"/>
<polygon fill="none" stroke="#63b8ff" points="154.5,-454.9 158,-464.9 161.5,-454.9 154.5,-454.9"/>
</a>
</g>
</g>
</g>
</svg>
