<?xml version="1.0" encoding="UTF-8" standalone="no"?>
<!DOCTYPE svg PUBLIC "-//W3C//DTD SVG 1.1//EN"
 "http://www.w3.org/Graphics/SVG/1.1/DTD/svg11.dtd">
<!-- Generated by graphviz version 2.49.3 (0)
 -->
<!-- Title: vanetza::security::v3::SecuredMessage Pages: 1 -->
<svg width="325pt" height="1118pt"
 viewBox="0.00 0.00 325.00 1118.00" xmlns="http://www.w3.org/2000/svg" xmlns:xlink="http://www.w3.org/1999/xlink">
<g id="graph0" class="graph" transform="scale(1 1) rotate(0) translate(4 1114)">
<title>vanetza::security::v3::SecuredMessage</title>
<!-- Node1 -->
<g id="Node000001" class="node">
<title>Node1</title>
<g id="a_Node000001"><a xlink:title=" ">
<polygon fill="#999999" stroke="transparent" points="212,-255 84,-255 84,0 212,0 212,-255"/>
<text text-anchor="start" x="101.5" y="-242.5" font-family="Helvetica,sans-Serif" font-size="10.00">vanetza::security::</text>
<text text-anchor="start" x="101.5" y="-231.5" font-family="Helvetica,sans-Serif" font-size="10.00">v3::SecuredMessage</text>
<text text-anchor="start" x="146" y="-216.5" font-family="Helvetica,sans-Serif" font-size="10.00"> </text>
<text text-anchor="start" x="88" y="-201.5" font-family="Helvetica,sans-Serif" font-size="10.00">+</text>
<text text-anchor="start" x="99" y="-201.5" font-family="Helvetica,sans-Serif" font-size="10.00">SecuredMessage()</text>
<text text-anchor="start" x="88" y="-186.5" font-family="Helvetica,sans-Serif" font-size="10.00">+</text>
<text text-anchor="start" x="99" y="-186.5" font-family="Helvetica,sans-Serif" font-size="10.00">protocol_version()</text>
<text text-anchor="start" x="88" y="-171.5" font-family="Helvetica,sans-Serif" font-size="10.00">+</text>
<text text-anchor="start" x="99" y="-171.5" font-family="Helvetica,sans-Serif" font-size="10.00">its_aid()</text>
<text text-anchor="start" x="88" y="-156.5" font-family="Helvetica,sans-Serif" font-size="10.00">+</text>
<text text-anchor="start" x="99" y="-156.5" font-family="Helvetica,sans-Serif" font-size="10.00">payload()</text>
<text text-anchor="start" x="88" y="-141.5" font-family="Helvetica,sans-Serif" font-size="10.00">+</text>
<text text-anchor="start" x="99" y="-141.5" font-family="Helvetica,sans-Serif" font-size="10.00">is_signed()</text>
<text text-anchor="start" x="88" y="-126.5" font-family="Helvetica,sans-Serif" font-size="10.00">+</text>
<text text-anchor="start" x="99" y="-126.5" font-family="Helvetica,sans-Serif" font-size="10.00">is_encrypted()</text>
<text text-anchor="start" x="88" y="-111.5" font-family="Helvetica,sans-Serif" font-size="10.00">+</text>
<text text-anchor="start" x="99" y="-111.5" font-family="Helvetica,sans-Serif" font-size="10.00">generation_time()</text>
<text text-anchor="start" x="88" y="-96.5" font-family="Helvetica,sans-Serif" font-size="10.00">+</text>
<text text-anchor="start" x="99" y="-96.5" font-family="Helvetica,sans-Serif" font-size="10.00">signature()</text>
<text text-anchor="start" x="88" y="-81.5" font-family="Helvetica,sans-Serif" font-size="10.00">+</text>
<text text-anchor="start" x="99" y="-81.5" font-family="Helvetica,sans-Serif" font-size="10.00">signer_identifier()</text>
<text text-anchor="start" x="88" y="-66.5" font-family="Helvetica,sans-Serif" font-size="10.00">+</text>
<text text-anchor="start" x="99" y="-66.5" font-family="Helvetica,sans-Serif" font-size="10.00">signing_payload()</text>
<text text-anchor="start" x="99" y="-51.5" font-family="Helvetica,sans-Serif" font-size="10.00">and 21 more...</text>
<text text-anchor="start" x="88" y="-36.5" font-family="Helvetica,sans-Serif" font-size="10.00">+</text>
<text text-anchor="start" x="99" y="-36.5" font-family="Helvetica,sans-Serif" font-size="10.00">with_signed_data()</text>
<text text-anchor="start" x="88" y="-21.5" font-family="Helvetica,sans-Serif" font-size="10.00">+</text>
<text text-anchor="start" x="99" y="-21.5" font-family="Helvetica,sans-Serif" font-size="10.00">with_signed_data_hash()</text>
<text text-anchor="start" x="88" y="-6.5" font-family="Helvetica,sans-Serif" font-size="10.00">+</text>
<text text-anchor="start" x="99" y="-6.5" font-family="Helvetica,sans-Serif" font-size="10.00">with_encrypted_data()</text>
<polygon fill="#666666" stroke="#666666" points="84,-226.5 84,-226.5 212,-226.5 212,-226.5 84,-226.5"/>
<polygon fill="#666666" stroke="#666666" points="84,-211.5 84,-211.5 212,-211.5 212,-211.5 84,-211.5"/>
<polygon fill="none" stroke="#666666" points="84,0 84,-255 212,-255 212,0 84,0"/>
</a>
</g>
</g>
<!-- Node2 -->
<g id="Node000002" class="node">
<title>Node2</title>
<g id="a_Node000002"><a xlink:href="../../de/dbf/classvanetza_1_1asn1_1_1asn1c__oer__wrapper.html" target="_top" xlink:title=" ">
<polygon fill="white" stroke="transparent" points="230,-528 66,-528 66,-292 230,-292 230,-528"/>
<text text-anchor="start" x="71" y="-516" font-family="Helvetica,sans-Serif" font-size="10.00">vanetza::asn1::asn1c</text>
<text text-anchor="start" x="71" y="-505" font-family="Helvetica,sans-Serif" font-size="10.00">_oer_wrapper&lt; asn1::EtsiTs103097</text>
<text text-anchor="start" x="132.5" y="-494" font-family="Helvetica,sans-Serif" font-size="10.00">Data &gt;</text>
<text text-anchor="start" x="92" y="-479" font-family="Helvetica,sans-Serif" font-size="10.00">#</text>
<text text-anchor="start" x="124" y="-479" font-family="Helvetica,sans-Serif" font-size="10.00">m_struct</text>
<text text-anchor="start" x="92" y="-464" font-family="Helvetica,sans-Serif" font-size="10.00">#</text>
<text text-anchor="start" x="124" y="-464" font-family="Helvetica,sans-Serif" font-size="10.00">m_type</text>
<text text-anchor="start" x="91.5" y="-449" font-family="Helvetica,sans-Serif" font-size="10.00">+</text>
<text text-anchor="start" x="124" y="-449" font-family="Helvetica,sans-Serif" font-size="10.00">encode()</text>
<text text-anchor="start" x="91.5" y="-434" font-family="Helvetica,sans-Serif" font-size="10.00">+</text>
<text text-anchor="start" x="124" y="-434" font-family="Helvetica,sans-Serif" font-size="10.00">decode()</text>
<text text-anchor="start" x="91.5" y="-419" font-family="Helvetica,sans-Serif" font-size="10.00">+</text>
<text text-anchor="start" x="124" y="-419" font-family="Helvetica,sans-Serif" font-size="10.00">size()</text>
<text text-anchor="start" x="91.5" y="-404" font-family="Helvetica,sans-Serif" font-size="10.00">+</text>
<text text-anchor="start" x="124" y="-404" font-family="Helvetica,sans-Serif" font-size="10.00">operator*()</text>
<text text-anchor="start" x="91.5" y="-389" font-family="Helvetica,sans-Serif" font-size="10.00">+</text>
<text text-anchor="start" x="124" y="-389" font-family="Helvetica,sans-Serif" font-size="10.00">operator*()</text>
<text text-anchor="start" x="91.5" y="-374" font-family="Helvetica,sans-Serif" font-size="10.00">+</text>
<text text-anchor="start" x="124" y="-374" font-family="Helvetica,sans-Serif" font-size="10.00">operator&#45;&gt;()</text>
<text text-anchor="start" x="91.5" y="-359" font-family="Helvetica,sans-Serif" font-size="10.00">+</text>
<text text-anchor="start" x="124" y="-359" font-family="Helvetica,sans-Serif" font-size="10.00">operator&#45;&gt;()</text>
<text text-anchor="start" x="91.5" y="-344" font-family="Helvetica,sans-Serif" font-size="10.00">+</text>
<text text-anchor="start" x="124" y="-344" font-family="Helvetica,sans-Serif" font-size="10.00">content()</text>
<text text-anchor="start" x="91.5" y="-329" font-family="Helvetica,sans-Serif" font-size="10.00">+</text>
<text text-anchor="start" x="124" y="-329" font-family="Helvetica,sans-Serif" font-size="10.00">content()</text>
<text text-anchor="start" x="91.5" y="-314" font-family="Helvetica,sans-Serif" font-size="10.00">+</text>
<text text-anchor="start" x="124" y="-314" font-family="Helvetica,sans-Serif" font-size="10.00">operator==()</text>
<text text-anchor="start" x="124" y="-299" font-family="Helvetica,sans-Serif" font-size="10.00">and 7 more...</text>
<polygon fill="#bfbfbf" stroke="#bfbfbf" points="66,-489 66,-489 230,-489 230,-489 66,-489"/>
<polygon fill="#bfbfbf" stroke="#bfbfbf" points="66,-459 66,-459 122,-459 122,-459 66,-459"/>
<polygon fill="#bfbfbf" stroke="#bfbfbf" points="122,-459 122,-459 230,-459 230,-459 122,-459"/>
<polygon fill="none" stroke="#bfbfbf" points="66,-292 66,-528 230,-528 230,-292 66,-292"/>
</a>
</g>
</g>
<!-- Node2&#45;&gt;Node1 -->
<g id="edge1_Node000001_Node000002" class="edge">
<title>Node2&#45;&gt;Node1</title>
<g id="a_edge1_Node000001_Node000002"><a xlink:title=" ">
<path fill="none" stroke="#63b8ff" d="M148,-281.49C148,-272.78 148,-264.01 148,-255.31"/>
<polygon fill="none" stroke="#63b8ff" points="144.5,-281.67 148,-291.67 151.5,-281.67 144.5,-281.67"/>
</a>
</g>
</g>
<!-- Node3 -->
<g id="Node000003" class="node">
<title>Node3</title>
<g id="a_Node000003"><a xlink:href="../../d0/d68/classvanetza_1_1asn1_1_1asn1c__wrapper__common.html" target="_top" xlink:title=" ">
<polygon fill="white" stroke="transparent" points="149,-832 9,-832 9,-581 149,-581 149,-832"/>
<text text-anchor="start" x="22.5" y="-819.5" font-family="Helvetica,sans-Serif" font-size="10.00">vanetza::asn1::asn1c</text>
<text text-anchor="start" x="22.5" y="-808.5" font-family="Helvetica,sans-Serif" font-size="10.00">_wrapper_common&lt; asn1</text>
<text text-anchor="start" x="31" y="-797.5" font-family="Helvetica,sans-Serif" font-size="10.00">::EtsiTs103097Data &gt;</text>
<text text-anchor="start" x="13.5" y="-782.5" font-family="Helvetica,sans-Serif" font-size="10.00">#</text>
<text text-anchor="start" x="24" y="-782.5" font-family="Helvetica,sans-Serif" font-size="10.00">m_struct</text>
<text text-anchor="start" x="13.5" y="-767.5" font-family="Helvetica,sans-Serif" font-size="10.00">#</text>
<text text-anchor="start" x="24" y="-767.5" font-family="Helvetica,sans-Serif" font-size="10.00">m_type</text>
<text text-anchor="start" x="13" y="-752.5" font-family="Helvetica,sans-Serif" font-size="10.00">+</text>
<text text-anchor="start" x="24" y="-752.5" font-family="Helvetica,sans-Serif" font-size="10.00">asn1c_wrapper_common()</text>
<text text-anchor="start" x="13" y="-737.5" font-family="Helvetica,sans-Serif" font-size="10.00">+</text>
<text text-anchor="start" x="24" y="-737.5" font-family="Helvetica,sans-Serif" font-size="10.00">~asn1c_wrapper_common()</text>
<text text-anchor="start" x="13" y="-722.5" font-family="Helvetica,sans-Serif" font-size="10.00">+</text>
<text text-anchor="start" x="24" y="-722.5" font-family="Helvetica,sans-Serif" font-size="10.00">operator=()</text>
<text text-anchor="start" x="13" y="-707.5" font-family="Helvetica,sans-Serif" font-size="10.00">+</text>
<text text-anchor="start" x="24" y="-707.5" font-family="Helvetica,sans-Serif" font-size="10.00">operator*()</text>
<text text-anchor="start" x="13" y="-692.5" font-family="Helvetica,sans-Serif" font-size="10.00">+</text>
<text text-anchor="start" x="24" y="-692.5" font-family="Helvetica,sans-Serif" font-size="10.00">operator&#45;&gt;()</text>
<text text-anchor="start" x="13" y="-677.5" font-family="Helvetica,sans-Serif" font-size="10.00">+</text>
<text text-anchor="start" x="24" y="-677.5" font-family="Helvetica,sans-Serif" font-size="10.00">content()</text>
<text text-anchor="start" x="13" y="-662.5" font-family="Helvetica,sans-Serif" font-size="10.00">+</text>
<text text-anchor="start" x="24" y="-662.5" font-family="Helvetica,sans-Serif" font-size="10.00">operator==()</text>
<text text-anchor="start" x="13" y="-647.5" font-family="Helvetica,sans-Serif" font-size="10.00">+</text>
<text text-anchor="start" x="24" y="-647.5" font-family="Helvetica,sans-Serif" font-size="10.00">operator!=()</text>
<text text-anchor="start" x="13" y="-632.5" font-family="Helvetica,sans-Serif" font-size="10.00">+</text>
<text text-anchor="start" x="24" y="-632.5" font-family="Helvetica,sans-Serif" font-size="10.00">validate()</text>
<text text-anchor="start" x="13" y="-617.5" font-family="Helvetica,sans-Serif" font-size="10.00">+</text>
<text text-anchor="start" x="24" y="-617.5" font-family="Helvetica,sans-Serif" font-size="10.00">compare()</text>
<text text-anchor="start" x="13" y="-602.5" font-family="Helvetica,sans-Serif" font-size="10.00">+</text>
<text text-anchor="start" x="24" y="-602.5" font-family="Helvetica,sans-Serif" font-size="10.00">print()</text>
<text text-anchor="start" x="13" y="-587.5" font-family="Helvetica,sans-Serif" font-size="10.00">+</text>
<text text-anchor="start" x="24" y="-587.5" font-family="Helvetica,sans-Serif" font-size="10.00">swap()</text>
<polygon fill="#bfbfbf" stroke="#bfbfbf" points="9,-792.5 9,-792.5 149,-792.5 149,-792.5 9,-792.5"/>
<polygon fill="#bfbfbf" stroke="#bfbfbf" points="9,-762.5 9,-762.5 22,-762.5 22,-762.5 9,-762.5"/>
<polygon fill="#bfbfbf" stroke="#bfbfbf" points="22,-762.5 22,-762.5 149,-762.5 149,-762.5 22,-762.5"/>
<polygon fill="none" stroke="#bfbfbf" points="9,-581 9,-832 149,-832 149,-581 9,-581"/>
</a>
</g>
</g>
<!-- Node3&#45;&gt;Node2 -->
<g id="edge2_Node000002_Node000003" class="edge">
<title>Node3&#45;&gt;Node2</title>
<g id="a_edge2_Node000002_Node000003"><a xlink:title=" ">
<path fill="none" stroke="#63b8ff" d="M110.56,-570.78C113.9,-556.54 117.27,-542.14 120.56,-528.12"/>
<polygon fill="none" stroke="#63b8ff" points="107.14,-570.07 108.26,-580.61 113.95,-571.67 107.14,-570.07"/>
</a>
</g>
</g>
<!-- Node4 -->
<g id="Node000004" class="node">
<title>Node4</title>
<g id="a_Node000004"><a xlink:href="../../d0/d68/classvanetza_1_1asn1_1_1asn1c__wrapper__common.html" target="_top" xlink:title=" ">
<polygon fill="white" stroke="transparent" points="140,-1110 0,-1110 0,-885 140,-885 140,-1110"/>
<text text-anchor="start" x="16.5" y="-1097.5" font-family="Helvetica,sans-Serif" font-size="10.00">vanetza::asn1::asn1c</text>
<text text-anchor="start" x="16.5" y="-1086.5" font-family="Helvetica,sans-Serif" font-size="10.00">_wrapper_common&lt; T &gt;</text>
<text text-anchor="start" x="4.5" y="-1071.5" font-family="Helvetica,sans-Serif" font-size="10.00">#</text>
<text text-anchor="start" x="15" y="-1071.5" font-family="Helvetica,sans-Serif" font-size="10.00">m_struct</text>
<text text-anchor="start" x="4.5" y="-1056.5" font-family="Helvetica,sans-Serif" font-size="10.00">#</text>
<text text-anchor="start" x="15" y="-1056.5" font-family="Helvetica,sans-Serif" font-size="10.00">m_type</text>
<text text-anchor="start" x="4" y="-1041.5" font-family="Helvetica,sans-Serif" font-size="10.00">+</text>
<text text-anchor="start" x="15" y="-1041.5" font-family="Helvetica,sans-Serif" font-size="10.00">asn1c_wrapper_common()</text>
<text text-anchor="start" x="4" y="-1026.5" font-family="Helvetica,sans-Serif" font-size="10.00">+</text>
<text text-anchor="start" x="15" y="-1026.5" font-family="Helvetica,sans-Serif" font-size="10.00">asn1c_wrapper_common()</text>
<text text-anchor="start" x="4" y="-1011.5" font-family="Helvetica,sans-Serif" font-size="10.00">+</text>
<text text-anchor="start" x="15" y="-1011.5" font-family="Helvetica,sans-Serif" font-size="10.00">~asn1c_wrapper_common()</text>
<text text-anchor="start" x="4" y="-996.5" font-family="Helvetica,sans-Serif" font-size="10.00">+</text>
<text text-anchor="start" x="15" y="-996.5" font-family="Helvetica,sans-Serif" font-size="10.00">asn1c_wrapper_common()</text>
<text text-anchor="start" x="4" y="-981.5" font-family="Helvetica,sans-Serif" font-size="10.00">+</text>
<text text-anchor="start" x="15" y="-981.5" font-family="Helvetica,sans-Serif" font-size="10.00">operator=()</text>
<text text-anchor="start" x="4" y="-966.5" font-family="Helvetica,sans-Serif" font-size="10.00">+</text>
<text text-anchor="start" x="15" y="-966.5" font-family="Helvetica,sans-Serif" font-size="10.00">asn1c_wrapper_common()</text>
<text text-anchor="start" x="4" y="-951.5" font-family="Helvetica,sans-Serif" font-size="10.00">+</text>
<text text-anchor="start" x="15" y="-951.5" font-family="Helvetica,sans-Serif" font-size="10.00">operator=()</text>
<text text-anchor="start" x="4" y="-936.5" font-family="Helvetica,sans-Serif" font-size="10.00">+</text>
<text text-anchor="start" x="15" y="-936.5" font-family="Helvetica,sans-Serif" font-size="10.00">operator*()</text>
<text text-anchor="start" x="4" y="-921.5" font-family="Helvetica,sans-Serif" font-size="10.00">+</text>
<text text-anchor="start" x="15" y="-921.5" font-family="Helvetica,sans-Serif" font-size="10.00">operator&#45;&gt;()</text>
<text text-anchor="start" x="4" y="-906.5" font-family="Helvetica,sans-Serif" font-size="10.00">+</text>
<text text-anchor="start" x="15" y="-906.5" font-family="Helvetica,sans-Serif" font-size="10.00">operator*()</text>
<text text-anchor="start" x="15" y="-891.5" font-family="Helvetica,sans-Serif" font-size="10.00">and 11 more...</text>
<polygon fill="#bfbfbf" stroke="#bfbfbf" points="0,-1081.5 0,-1081.5 140,-1081.5 140,-1081.5 0,-1081.5"/>
<polygon fill="#bfbfbf" stroke="#bfbfbf" points="0,-1051.5 0,-1051.5 13,-1051.5 13,-1051.5 0,-1051.5"/>
<polygon fill="#bfbfbf" stroke="#bfbfbf" points="13,-1051.5 13,-1051.5 140,-1051.5 140,-1051.5 13,-1051.5"/>
<polygon fill="none" stroke="#bfbfbf" points="0,-885 0,-1110 140,-1110 140,-885 0,-885"/>
</a>
</g>
</g>
<!-- Node4&#45;&gt;Node3 -->
<g id="edge3_Node000003_Node000004" class="edge">
<title>Node4&#45;&gt;Node3</title>
<g id="a_edge3_Node000003_Node000004"><a xlink:title=" ">
<path fill="none" stroke="orange" d="M73.79,-874.65C74.23,-860.67 74.67,-846.4 75.11,-832.39"/>
<polygon fill="orange" stroke="orange" points="70.29,-874.66 73.48,-884.77 77.29,-874.88 70.29,-874.66"/>
</a>
</g>
<text text-anchor="start" x="78" y="-855.5" font-family="Helvetica,sans-Serif" font-size="10.00" fill="grey">&lt; asn1::EtsiTs103097Data &gt;</text>
</g>
<!-- Node5 -->
<g id="Node000005" class="node">
<title>Node5</title>
<g id="a_Node000005"><a xlink:href="../../de/dbf/classvanetza_1_1asn1_1_1asn1c__oer__wrapper.html" target="_top" xlink:title=" ">
<polygon fill="white" stroke="transparent" points="275,-766.5 171,-766.5 171,-646.5 275,-646.5 275,-766.5"/>
<text text-anchor="start" x="176" y="-754.5" font-family="Helvetica,sans-Serif" font-size="10.00">vanetza::asn1::asn1c</text>
<text text-anchor="start" x="181.5" y="-743.5" font-family="Helvetica,sans-Serif" font-size="10.00">_oer_wrapper&lt; T &gt;</text>
<text text-anchor="start" x="221" y="-728.5" font-family="Helvetica,sans-Serif" font-size="10.00"> </text>
<text text-anchor="start" x="186.5" y="-713.5" font-family="Helvetica,sans-Serif" font-size="10.00">+</text>
<text text-anchor="start" x="209" y="-713.5" font-family="Helvetica,sans-Serif" font-size="10.00">encode()</text>
<text text-anchor="start" x="186.5" y="-698.5" font-family="Helvetica,sans-Serif" font-size="10.00">+</text>
<text text-anchor="start" x="209" y="-698.5" font-family="Helvetica,sans-Serif" font-size="10.00">decode()</text>
<text text-anchor="start" x="186.5" y="-683.5" font-family="Helvetica,sans-Serif" font-size="10.00">+</text>
<text text-anchor="start" x="209" y="-683.5" font-family="Helvetica,sans-Serif" font-size="10.00">decode()</text>
<text text-anchor="start" x="186.5" y="-668.5" font-family="Helvetica,sans-Serif" font-size="10.00">+</text>
<text text-anchor="start" x="209" y="-668.5" font-family="Helvetica,sans-Serif" font-size="10.00">decode()</text>
<text text-anchor="start" x="186.5" y="-653.5" font-family="Helvetica,sans-Serif" font-size="10.00">+</text>
<text text-anchor="start" x="209" y="-653.5" font-family="Helvetica,sans-Serif" font-size="10.00">size()</text>
<polygon fill="#bfbfbf" stroke="#bfbfbf" points="171,-738.5 171,-738.5 275,-738.5 275,-738.5 171,-738.5"/>
<polygon fill="#bfbfbf" stroke="#bfbfbf" points="171,-723.5 171,-723.5 275,-723.5 275,-723.5 171,-723.5"/>
<polygon fill="none" stroke="#bfbfbf" points="171,-646.5 171,-766.5 275,-766.5 275,-646.5 171,-646.5"/>
</a>
</g>
</g>
<!-- Node5&#45;&gt;Node2 -->
<g id="edge4_Node000002_Node000005" class="edge">
<title>Node5&#45;&gt;Node2</title>
<g id="a_edge4_Node000002_Node000005"><a xlink:title=" ">
<path fill="none" stroke="orange" d="M205.43,-636.49C197.22,-604.26 187.21,-564.97 177.87,-528.28"/>
<polygon fill="orange" stroke="orange" points="202.05,-637.43 207.91,-646.26 208.84,-635.7 202.05,-637.43"/>
</a>
</g>
<text text-anchor="start" x="188" y="-551.5" font-family="Helvetica,sans-Serif" font-size="10.00" fill="grey">&lt; asn1::EtsiTs103097Data &gt;</text>
</g>
<!-- Node6 -->
<g id="Node000006" class="node">
<title>Node6</title>
<g id="a_Node000006"><a xlink:href="../../d0/d68/classvanetza_1_1asn1_1_1asn1c__wrapper__common.html" target="_top" xlink:title=" ">
<polygon fill="white" stroke="transparent" points="298,-1110 158,-1110 158,-885 298,-885 298,-1110"/>
<text text-anchor="start" x="174.5" y="-1097.5" font-family="Helvetica,sans-Serif" font-size="10.00">vanetza::asn1::asn1c</text>
<text text-anchor="start" x="174.5" y="-1086.5" font-family="Helvetica,sans-Serif" font-size="10.00">_wrapper_common&lt; T &gt;</text>
<text text-anchor="start" x="162.5" y="-1071.5" font-family="Helvetica,sans-Serif" font-size="10.00">#</text>
<text text-anchor="start" x="173" y="-1071.5" font-family="Helvetica,sans-Serif" font-size="10.00">m_struct</text>
<text text-anchor="start" x="162.5" y="-1056.5" font-family="Helvetica,sans-Serif" font-size="10.00">#</text>
<text text-anchor="start" x="173" y="-1056.5" font-family="Helvetica,sans-Serif" font-size="10.00">m_type</text>
<text text-anchor="start" x="162" y="-1041.5" font-family="Helvetica,sans-Serif" font-size="10.00">+</text>
<text text-anchor="start" x="173" y="-1041.5" font-family="Helvetica,sans-Serif" font-size="10.00">asn1c_wrapper_common()</text>
<text text-anchor="start" x="162" y="-1026.5" font-family="Helvetica,sans-Serif" font-size="10.00">+</text>
<text text-anchor="start" x="173" y="-1026.5" font-family="Helvetica,sans-Serif" font-size="10.00">asn1c_wrapper_common()</text>
<text text-anchor="start" x="162" y="-1011.5" font-family="Helvetica,sans-Serif" font-size="10.00">+</text>
<text text-anchor="start" x="173" y="-1011.5" font-family="Helvetica,sans-Serif" font-size="10.00">~asn1c_wrapper_common()</text>
<text text-anchor="start" x="162" y="-996.5" font-family="Helvetica,sans-Serif" font-size="10.00">+</text>
<text text-anchor="start" x="173" y="-996.5" font-family="Helvetica,sans-Serif" font-size="10.00">asn1c_wrapper_common()</text>
<text text-anchor="start" x="162" y="-981.5" font-family="Helvetica,sans-Serif" font-size="10.00">+</text>
<text text-anchor="start" x="173" y="-981.5" font-family="Helvetica,sans-Serif" font-size="10.00">operator=()</text>
<text text-anchor="start" x="162" y="-966.5" font-family="Helvetica,sans-Serif" font-size="10.00">+</text>
<text text-anchor="start" x="173" y="-966.5" font-family="Helvetica,sans-Serif" font-size="10.00">asn1c_wrapper_common()</text>
<text text-anchor="start" x="162" y="-951.5" font-family="Helvetica,sans-Serif" font-size="10.00">+</text>
<text text-anchor="start" x="173" y="-951.5" font-family="Helvetica,sans-Serif" font-size="10.00">operator=()</text>
<text text-anchor="start" x="162" y="-936.5" font-family="Helvetica,sans-Serif" font-size="10.00">+</text>
<text text-anchor="start" x="173" y="-936.5" font-family="Helvetica,sans-Serif" font-size="10.00">operator*()</text>
<text text-anchor="start" x="162" y="-921.5" font-family="Helvetica,sans-Serif" font-size="10.00">+</text>
<text text-anchor="start" x="173" y="-921.5" font-family="Helvetica,sans-Serif" font-size="10.00">operator&#45;&gt;()</text>
<text text-anchor="start" x="162" y="-906.5" font-family="Helvetica,sans-Serif" font-size="10.00">+</text>
<text text-anchor="start" x="173" y="-906.5" font-family="Helvetica,sans-Serif" font-size="10.00">operator*()</text>
<text text-anchor="start" x="173" y="-891.5" font-family="Helvetica,sans-Serif" font-size="10.00">and 11 more...</text>
<polygon fill="#bfbfbf" stroke="#bfbfbf" points="158,-1081.5 158,-1081.5 298,-1081.5 298,-1081.5 158,-1081.5"/>
<polygon fill="#bfbfbf" stroke="#bfbfbf" points="158,-1051.5 158,-1051.5 171,-1051.5 171,-1051.5 158,-1051.5"/>
<polygon fill="#bfbfbf" stroke="#bfbfbf" points="171,-1051.5 171,-1051.5 298,-1051.5 298,-1051.5 171,-1051.5"/>
<polygon fill="none" stroke="#bfbfbf" points="158,-885 158,-1110 298,-1110 298,-885 158,-885"/>
</a>
</g>
</g>
<!-- Node6&#45;&gt;Node5 -->
<g id="edge5_Node000005_Node000006" class="edge">
<title>Node6&#45;&gt;Node5</title>
<g id="a_edge5_Node000005_Node000006"><a xlink:title=" ">
<path fill="none" stroke="#63b8ff" d="M225.89,-874.33C225.24,-837.13 224.56,-797.9 224.03,-766.84"/>
<polygon fill="none" stroke="#63b8ff" points="222.39,-874.83 226.07,-884.77 229.39,-874.71 222.39,-874.83"/>
</a>
</g>
</g>
</g>
</svg>
