<?xml version="1.0" encoding="UTF-8" standalone="no"?>
<!DOCTYPE svg PUBLIC "-//W3C//DTD SVG 1.1//EN"
 "http://www.w3.org/Graphics/SVG/1.1/DTD/svg11.dtd">
<!-- Generated by graphviz version 2.42.3 (0)
 -->
<!-- Title: vanetza::security::v3::MissingCrlIdentifier Pages: 1 -->
<svg width="148pt" height="310pt"
 viewBox="0.00 0.00 148.00 310.00" xmlns="http://www.w3.org/2000/svg" xmlns:xlink="http://www.w3.org/1999/xlink">
<g id="graph0" class="graph" transform="scale(1 1) rotate(0) translate(4 306)">
<title>vanetza::security::v3::MissingCrlIdentifier</title>
<polygon fill="white" stroke="transparent" points="-4,4 -4,-306 144,-306 144,4 -4,4"/>
<!-- Node1 -->
<g id="node1" class="node">
<title>Node1</title>
<g id="a_node1"><a xlink:title=" ">
<polygon fill="#bfbfbf" stroke="black" points="11.5,-0.5 11.5,-79.5 128.5,-79.5 128.5,-0.5 11.5,-0.5"/>
<text text-anchor="start" x="19.5" y="-67.5" font-family="Helvetica,sans-Serif" font-size="10.00">vanetza::security::</text>
<text text-anchor="middle" x="70" y="-56.5" font-family="Helvetica,sans-Serif" font-size="10.00">v3::MissingCrlIdentifier</text>
<polyline fill="none" stroke="black" points="11.5,-49.5 128.5,-49.5 "/>
<text text-anchor="start" x="19.5" y="-37.5" font-family="Helvetica,sans-Serif" font-size="10.00">+ cracaId</text>
<text text-anchor="start" x="19.5" y="-26.5" font-family="Helvetica,sans-Serif" font-size="10.00">+ crlSeries</text>
<polyline fill="none" stroke="black" points="11.5,-19.5 128.5,-19.5 "/>
<text text-anchor="middle" x="70" y="-7.5" font-family="Helvetica,sans-Serif" font-size="10.00"> </text>
</a>
</g>
</g>
<!-- Node2 -->
<g id="node2" class="node">
<title>Node2</title>
<g id="a_node2"><a xlink:href="../../d3/df0/structvanetza_1_1security_1_1v3_1_1Sequence.html" target="_top" xlink:title=" ">
<polygon fill="white" stroke="black" points="14.5,-117.5 14.5,-185.5 125.5,-185.5 125.5,-117.5 14.5,-117.5"/>
<text text-anchor="start" x="22.5" y="-173.5" font-family="Helvetica,sans-Serif" font-size="10.00">vanetza::security::</text>
<text text-anchor="middle" x="70" y="-162.5" font-family="Helvetica,sans-Serif" font-size="10.00">v3::Sequence&lt; true &gt;</text>
<polyline fill="none" stroke="black" points="14.5,-155.5 125.5,-155.5 "/>
<text text-anchor="middle" x="70" y="-143.5" font-family="Helvetica,sans-Serif" font-size="10.00"> </text>
<polyline fill="none" stroke="black" points="14.5,-136.5 125.5,-136.5 "/>
<text text-anchor="middle" x="70" y="-124.5" font-family="Helvetica,sans-Serif" font-size="10.00"> </text>
</a>
</g>
</g>
<!-- Node2&#45;&gt;Node1 -->
<g id="edge1" class="edge">
<title>Node2&#45;&gt;Node1</title>
<path fill="none" stroke="midnightblue" d="M70,-107.34C70,-98.25 70,-88.72 70,-79.81"/>
<polygon fill="none" stroke="midnightblue" points="66.5,-107.35 70,-117.35 73.5,-107.35 66.5,-107.35"/>
</g>
<!-- Node3 -->
<g id="node3" class="node">
<title>Node3</title>
<g id="a_node3"><a xlink:href="../../d3/df0/structvanetza_1_1security_1_1v3_1_1Sequence.html" target="_top" xlink:title=" ">
<polygon fill="white" stroke="black" points="0,-233.5 0,-301.5 140,-301.5 140,-233.5 0,-233.5"/>
<text text-anchor="start" x="8" y="-289.5" font-family="Helvetica,sans-Serif" font-size="10.00">vanetza::security::</text>
<text text-anchor="middle" x="70" y="-278.5" font-family="Helvetica,sans-Serif" font-size="10.00">v3::Sequence&lt; Extensible &gt;</text>
<polyline fill="none" stroke="black" points="0,-271.5 140,-271.5 "/>
<text text-anchor="middle" x="70" y="-259.5" font-family="Helvetica,sans-Serif" font-size="10.00"> </text>
<polyline fill="none" stroke="black" points="0,-252.5 140,-252.5 "/>
<text text-anchor="middle" x="70" y="-240.5" font-family="Helvetica,sans-Serif" font-size="10.00"> </text>
</a>
</g>
</g>
<!-- Node3&#45;&gt;Node2 -->
<g id="edge2" class="edge">
<title>Node3&#45;&gt;Node2</title>
<path fill="none" stroke="orange" d="M70,-223.06C70,-210.64 70,-197.32 70,-185.62"/>
<polygon fill="orange" stroke="orange" points="66.5,-223.22 70,-233.22 73.5,-223.22 66.5,-223.22"/>
<text text-anchor="middle" x="89" y="-207" font-family="Helvetica,sans-Serif" font-size="10.00"> &lt; true &gt;</text>
</g>
</g>
</svg>
