<?xml version="1.0" encoding="UTF-8" standalone="no"?>
<!DOCTYPE svg PUBLIC "-//W3C//DTD SVG 1.1//EN"
 "http://www.w3.org/Graphics/SVG/1.1/DTD/svg11.dtd">
<!-- Generated by graphviz version 2.49.3 (0)
 -->
<!-- Title: vanetza::asio::linklayer_endpoint&lt; Protocol &gt; Pages: 1 -->
<svg width="118pt" height="301pt"
 viewBox="0.00 0.00 118.00 301.00" xmlns="http://www.w3.org/2000/svg" xmlns:xlink="http://www.w3.org/1999/xlink">
<g id="graph0" class="graph" transform="scale(1 1) rotate(0) translate(4 297)">
<title>vanetza::asio::linklayer_endpoint&lt; Protocol &gt;</title>
<!-- Node1 -->
<g id="Node000001" class="node">
<title>Node1</title>
<g id="a_Node000001"><a xlink:title=" ">
<polygon fill="#999999" stroke="transparent" points="110,-293 0,-293 0,-173 110,-173 110,-293"/>
<text text-anchor="start" x="5" y="-281" font-family="Helvetica,sans-Serif" font-size="10.00">vanetza::asio::linklayer</text>
<text text-anchor="start" x="6.5" y="-270" font-family="Helvetica,sans-Serif" font-size="10.00">_endpoint&lt; Protocol &gt;</text>
<text text-anchor="start" x="7" y="-255" font-family="Helvetica,sans-Serif" font-size="10.00">&#45;</text>
<text text-anchor="start" x="18" y="-255" font-family="Helvetica,sans-Serif" font-size="10.00">m_data</text>
<text text-anchor="start" x="5.5" y="-240" font-family="Helvetica,sans-Serif" font-size="10.00">+</text>
<text text-anchor="start" x="18" y="-240" font-family="Helvetica,sans-Serif" font-size="10.00">linklayer_endpoint()</text>
<text text-anchor="start" x="5.5" y="-225" font-family="Helvetica,sans-Serif" font-size="10.00">+</text>
<text text-anchor="start" x="18" y="-225" font-family="Helvetica,sans-Serif" font-size="10.00">linklayer_endpoint()</text>
<text text-anchor="start" x="5.5" y="-210" font-family="Helvetica,sans-Serif" font-size="10.00">+</text>
<text text-anchor="start" x="18" y="-210" font-family="Helvetica,sans-Serif" font-size="10.00">data()</text>
<text text-anchor="start" x="5.5" y="-195" font-family="Helvetica,sans-Serif" font-size="10.00">+</text>
<text text-anchor="start" x="18" y="-195" font-family="Helvetica,sans-Serif" font-size="10.00">size()</text>
<text text-anchor="start" x="5.5" y="-180" font-family="Helvetica,sans-Serif" font-size="10.00">+</text>
<text text-anchor="start" x="18" y="-180" font-family="Helvetica,sans-Serif" font-size="10.00">protocol()</text>
<polygon fill="#666666" stroke="#666666" points="0,-265 0,-265 110,-265 110,-265 0,-265"/>
<polygon fill="#666666" stroke="#666666" points="0,-250 0,-250 16,-250 16,-250 0,-250"/>
<polygon fill="#666666" stroke="#666666" points="16,-250 16,-250 110,-250 110,-250 16,-250"/>
<polygon fill="none" stroke="#666666" points="0,-173 0,-293 110,-293 110,-173 0,-173"/>
</a>
</g>
</g>
<!-- Node2 -->
<g id="Node000002" class="node">
<title>Node2</title>
<g id="a_Node000002"><a xlink:href="../../d5/d62/classvanetza_1_1asio_1_1linklayer__endpoint.html" target="_top" xlink:title=" ">
<polygon fill="white" stroke="transparent" points="110,-120 0,-120 0,0 110,0 110,-120"/>
<text text-anchor="start" x="5" y="-108" font-family="Helvetica,sans-Serif" font-size="10.00">vanetza::asio::linklayer</text>
<text text-anchor="start" x="11.5" y="-97" font-family="Helvetica,sans-Serif" font-size="10.00">_endpoint&lt; cohda &gt;</text>
<text text-anchor="start" x="7" y="-82" font-family="Helvetica,sans-Serif" font-size="10.00">&#45;</text>
<text text-anchor="start" x="18" y="-82" font-family="Helvetica,sans-Serif" font-size="10.00">m_data</text>
<text text-anchor="start" x="5.5" y="-67" font-family="Helvetica,sans-Serif" font-size="10.00">+</text>
<text text-anchor="start" x="18" y="-67" font-family="Helvetica,sans-Serif" font-size="10.00">linklayer_endpoint()</text>
<text text-anchor="start" x="5.5" y="-52" font-family="Helvetica,sans-Serif" font-size="10.00">+</text>
<text text-anchor="start" x="18" y="-52" font-family="Helvetica,sans-Serif" font-size="10.00">linklayer_endpoint()</text>
<text text-anchor="start" x="5.5" y="-37" font-family="Helvetica,sans-Serif" font-size="10.00">+</text>
<text text-anchor="start" x="18" y="-37" font-family="Helvetica,sans-Serif" font-size="10.00">data()</text>
<text text-anchor="start" x="5.5" y="-22" font-family="Helvetica,sans-Serif" font-size="10.00">+</text>
<text text-anchor="start" x="18" y="-22" font-family="Helvetica,sans-Serif" font-size="10.00">size()</text>
<text text-anchor="start" x="5.5" y="-7" font-family="Helvetica,sans-Serif" font-size="10.00">+</text>
<text text-anchor="start" x="18" y="-7" font-family="Helvetica,sans-Serif" font-size="10.00">protocol()</text>
<polygon fill="#bfbfbf" stroke="#bfbfbf" points="0,-92 0,-92 110,-92 110,-92 0,-92"/>
<polygon fill="#bfbfbf" stroke="#bfbfbf" points="0,-77 0,-77 16,-77 16,-77 0,-77"/>
<polygon fill="#bfbfbf" stroke="#bfbfbf" points="16,-77 16,-77 110,-77 110,-77 16,-77"/>
<polygon fill="none" stroke="#bfbfbf" points="0,0 0,-120 110,-120 110,0 0,0"/>
</a>
</g>
</g>
<!-- Node1&#45;&gt;Node2 -->
<g id="edge1_Node000001_Node000002" class="edge">
<title>Node1&#45;&gt;Node2</title>
<g id="a_edge1_Node000001_Node000002"><a xlink:title=" ">
<path fill="none" stroke="orange" d="M55,-162.57C55,-148.53 55,-133.88 55,-120.22"/>
<polygon fill="orange" stroke="orange" points="51.5,-162.67 55,-172.67 58.5,-162.67 51.5,-162.67"/>
</a>
</g>
<text text-anchor="start" x="58.5" y="-143.5" font-family="Helvetica,sans-Serif" font-size="10.00" fill="grey">&lt; cohda &gt;</text>
</g>
</g>
</svg>
