<?xml version="1.0" encoding="UTF-8" standalone="no"?>
<!DOCTYPE svg PUBLIC "-//W3C//DTD SVG 1.1//EN"
 "http://www.w3.org/Graphics/SVG/1.1/DTD/svg11.dtd">
<!-- Generated by graphviz version 2.49.3 (0)
 -->
<!-- Title: vanetza::dcc::FlowControl::PendingTransmission Pages: 1 -->
<svg width="138pt" height="288pt"
 viewBox="0.00 0.00 138.00 288.00" xmlns="http://www.w3.org/2000/svg" xmlns:xlink="http://www.w3.org/1999/xlink">
<g id="graph0" class="graph" transform="scale(1 1) rotate(0) translate(4 284)">
<title>vanetza::dcc::FlowControl::PendingTransmission</title>
<!-- Node1 -->
<g id="Node000001" class="node">
<title>Node1</title>
<g id="a_Node000001"><a xlink:title=" ">
<polygon fill="#999999" stroke="transparent" points="127.5,-135 2.5,-135 2.5,0 127.5,0 127.5,-135"/>
<text text-anchor="start" x="8" y="-122.5" font-family="Helvetica,sans-Serif" font-size="10.00">vanetza::dcc::FlowControl</text>
<text text-anchor="start" x="16" y="-111.5" font-family="Helvetica,sans-Serif" font-size="10.00">::PendingTransmission</text>
<text text-anchor="start" x="8.5" y="-96.5" font-family="Helvetica,sans-Serif" font-size="10.00">+</text>
<text text-anchor="start" x="21" y="-96.5" font-family="Helvetica,sans-Serif" font-size="10.00">expiry</text>
<text text-anchor="start" x="8.5" y="-81.5" font-family="Helvetica,sans-Serif" font-size="10.00">+</text>
<text text-anchor="start" x="21" y="-81.5" font-family="Helvetica,sans-Serif" font-size="10.00">request</text>
<text text-anchor="start" x="8.5" y="-66.5" font-family="Helvetica,sans-Serif" font-size="10.00">+</text>
<text text-anchor="start" x="21" y="-66.5" font-family="Helvetica,sans-Serif" font-size="10.00">packet</text>
<text text-anchor="start" x="8.5" y="-51.5" font-family="Helvetica,sans-Serif" font-size="10.00">+</text>
<text text-anchor="start" x="21" y="-51.5" font-family="Helvetica,sans-Serif" font-size="10.00">PendingTransmission()</text>
<text text-anchor="start" x="8.5" y="-36.5" font-family="Helvetica,sans-Serif" font-size="10.00">+</text>
<text text-anchor="start" x="21" y="-36.5" font-family="Helvetica,sans-Serif" font-size="10.00">profile()</text>
<text text-anchor="start" x="8.5" y="-21.5" font-family="Helvetica,sans-Serif" font-size="10.00">+</text>
<text text-anchor="start" x="21" y="-21.5" font-family="Helvetica,sans-Serif" font-size="10.00">data_rate()</text>
<text text-anchor="start" x="8.5" y="-6.5" font-family="Helvetica,sans-Serif" font-size="10.00">+</text>
<text text-anchor="start" x="21" y="-6.5" font-family="Helvetica,sans-Serif" font-size="10.00">body_length()</text>
<polygon fill="#666666" stroke="#666666" points="3,-106.5 3,-106.5 128,-106.5 128,-106.5 3,-106.5"/>
<polygon fill="#666666" stroke="#666666" points="3,-61.5 3,-61.5 19,-61.5 19,-61.5 3,-61.5"/>
<polygon fill="#666666" stroke="#666666" points="19,-61.5 19,-61.5 128,-61.5 128,-61.5 19,-61.5"/>
<polygon fill="none" stroke="#666666" points="2.5,0 2.5,-135 127.5,-135 127.5,0 2.5,0"/>
</a>
</g>
</g>
<!-- Node2 -->
<g id="Node000002" class="node">
<title>Node2</title>
<g id="a_Node000002"><a xlink:href="../../df/dd5/classvanetza_1_1dcc_1_1Transmission.html" target="_top" xlink:title=" ">
<polygon fill="white" stroke="transparent" points="130,-280 0,-280 0,-171 130,-171 130,-280"/>
<text text-anchor="start" x="5" y="-267.5" font-family="Helvetica,sans-Serif" font-size="10.00">vanetza::dcc::Transmission</text>
<text text-anchor="start" x="63" y="-252.5" font-family="Helvetica,sans-Serif" font-size="10.00"> </text>
<text text-anchor="start" x="8.5" y="-237.5" font-family="Helvetica,sans-Serif" font-size="10.00">+</text>
<text text-anchor="start" x="24" y="-237.5" font-family="Helvetica,sans-Serif" font-size="10.00">profile()</text>
<text text-anchor="start" x="8.5" y="-222.5" font-family="Helvetica,sans-Serif" font-size="10.00">+</text>
<text text-anchor="start" x="24" y="-222.5" font-family="Helvetica,sans-Serif" font-size="10.00">data_rate()</text>
<text text-anchor="start" x="8.5" y="-207.5" font-family="Helvetica,sans-Serif" font-size="10.00">+</text>
<text text-anchor="start" x="24" y="-207.5" font-family="Helvetica,sans-Serif" font-size="10.00">body_length()</text>
<text text-anchor="start" x="8.5" y="-192.5" font-family="Helvetica,sans-Serif" font-size="10.00">+</text>
<text text-anchor="start" x="24" y="-192.5" font-family="Helvetica,sans-Serif" font-size="10.00">channel_occupancy()</text>
<text text-anchor="start" x="8.5" y="-177.5" font-family="Helvetica,sans-Serif" font-size="10.00">+</text>
<text text-anchor="start" x="24" y="-177.5" font-family="Helvetica,sans-Serif" font-size="10.00">~Transmission()</text>
<polygon fill="#bfbfbf" stroke="#bfbfbf" points="0,-262.5 0,-262.5 130,-262.5 130,-262.5 0,-262.5"/>
<polygon fill="#bfbfbf" stroke="#bfbfbf" points="0,-247.5 0,-247.5 130,-247.5 130,-247.5 0,-247.5"/>
<polygon fill="none" stroke="#bfbfbf" points="0,-171 0,-280 130,-280 130,-171 0,-171"/>
</a>
</g>
</g>
<!-- Node2&#45;&gt;Node1 -->
<g id="edge1_Node000001_Node000002" class="edge">
<title>Node2&#45;&gt;Node1</title>
<g id="a_edge1_Node000001_Node000002"><a xlink:title=" ">
<path fill="none" stroke="#63b8ff" d="M65,-160.71C65,-152.31 65,-143.69 65,-135.24"/>
<polygon fill="none" stroke="#63b8ff" points="61.5,-160.81 65,-170.81 68.5,-160.81 61.5,-160.81"/>
</a>
</g>
</g>
</g>
</svg>
