<?xml version="1.0" encoding="UTF-8" standalone="no"?>
<!DOCTYPE svg PUBLIC "-//W3C//DTD SVG 1.1//EN"
 "http://www.w3.org/Graphics/SVG/1.1/DTD/svg11.dtd">
<!-- Generated by graphviz version 2.42.3 (0)
 -->
<!-- Title: vanetza::geonet::GeoBroadcastHeader Pages: 1 -->
<svg width="161pt" height="314pt"
 viewBox="0.00 0.00 161.00 314.00" xmlns="http://www.w3.org/2000/svg" xmlns:xlink="http://www.w3.org/1999/xlink">
<g id="graph0" class="graph" transform="scale(1 1) rotate(0) translate(4 310)">
<title>vanetza::geonet::GeoBroadcastHeader</title>
<polygon fill="white" stroke="transparent" points="-4,4 -4,-310 157,-310 157,4 -4,4"/>
<!-- Node1 -->
<g id="node1" class="node">
<title>Node1</title>
<g id="a_node1"><a xlink:title=" ">
<polygon fill="#bfbfbf" stroke="black" points="0,-0.5 0,-68.5 153,-68.5 153,-0.5 0,-0.5"/>
<text text-anchor="start" x="8" y="-56.5" font-family="Helvetica,sans-Serif" font-size="10.00">vanetza::geonet::GeoBroadcast</text>
<text text-anchor="middle" x="76.5" y="-45.5" font-family="Helvetica,sans-Serif" font-size="10.00">Header</text>
<polyline fill="none" stroke="black" points="0,-38.5 153,-38.5 "/>
<text text-anchor="middle" x="76.5" y="-26.5" font-family="Helvetica,sans-Serif" font-size="10.00"> </text>
<polyline fill="none" stroke="black" points="0,-19.5 153,-19.5 "/>
<text text-anchor="start" x="8" y="-7.5" font-family="Helvetica,sans-Serif" font-size="10.00">+ destination()</text>
</a>
</g>
</g>
<!-- Node2 -->
<g id="node2" class="node">
<title>Node2</title>
<g id="a_node2"><a xlink:href="../../dc/dc6/structvanetza_1_1geonet_1_1detail_1_1GbcGacHeader.html" target="_top" xlink:title=" ">
<polygon fill="white" stroke="black" points="11,-105.5 11,-305.5 142,-305.5 142,-105.5 11,-105.5"/>
<text text-anchor="start" x="19" y="-293.5" font-family="Helvetica,sans-Serif" font-size="10.00">vanetza::geonet::detail</text>
<text text-anchor="middle" x="76.5" y="-282.5" font-family="Helvetica,sans-Serif" font-size="10.00">::GbcGacHeader</text>
<polyline fill="none" stroke="black" points="11,-275.5 142,-275.5 "/>
<text text-anchor="start" x="19" y="-263.5" font-family="Helvetica,sans-Serif" font-size="10.00">+ sequence_number</text>
<text text-anchor="start" x="19" y="-252.5" font-family="Helvetica,sans-Serif" font-size="10.00">+ reserved1</text>
<text text-anchor="start" x="19" y="-241.5" font-family="Helvetica,sans-Serif" font-size="10.00">+ source_position</text>
<text text-anchor="start" x="19" y="-230.5" font-family="Helvetica,sans-Serif" font-size="10.00">+ geo_area_pos_latitude</text>
<text text-anchor="start" x="19" y="-219.5" font-family="Helvetica,sans-Serif" font-size="10.00">+ geo_area_pos_longitude</text>
<text text-anchor="start" x="19" y="-208.5" font-family="Helvetica,sans-Serif" font-size="10.00">+ distance_a</text>
<text text-anchor="start" x="19" y="-197.5" font-family="Helvetica,sans-Serif" font-size="10.00">+ distance_b</text>
<text text-anchor="start" x="19" y="-186.5" font-family="Helvetica,sans-Serif" font-size="10.00">+ angle</text>
<text text-anchor="start" x="19" y="-175.5" font-family="Helvetica,sans-Serif" font-size="10.00">+ reserved2</text>
<text text-anchor="start" x="19" y="-164.5" font-family="Helvetica,sans-Serif" font-size="10.00">+ length_bytes</text>
<polyline fill="none" stroke="black" points="11,-157.5 142,-157.5 "/>
<text text-anchor="start" x="19" y="-145.5" font-family="Helvetica,sans-Serif" font-size="10.00">+ destination()</text>
<text text-anchor="start" x="19" y="-134.5" font-family="Helvetica,sans-Serif" font-size="10.00">+ position()</text>
<text text-anchor="start" x="19" y="-123.5" font-family="Helvetica,sans-Serif" font-size="10.00">+ position()</text>
<text text-anchor="start" x="19" y="-112.5" font-family="Helvetica,sans-Serif" font-size="10.00"># destination()</text>
</a>
</g>
</g>
<!-- Node2&#45;&gt;Node1 -->
<g id="edge1" class="edge">
<title>Node2&#45;&gt;Node1</title>
<path fill="none" stroke="midnightblue" d="M76.5,-94.92C76.5,-85.58 76.5,-76.68 76.5,-68.75"/>
<polygon fill="none" stroke="midnightblue" points="73,-95.21 76.5,-105.21 80,-95.21 73,-95.21"/>
</g>
</g>
</svg>
