<?xml version="1.0" encoding="UTF-8" standalone="no"?>
<!DOCTYPE svg PUBLIC "-//W3C//DTD SVG 1.1//EN"
 "http://www.w3.org/Graphics/SVG/1.1/DTD/svg11.dtd">
<!-- Generated by graphviz version 14.1.2 (0)
 -->
<!-- Title: vanetza::security::v2::detail::validity_restriction_type&lt; ValidityRestrictionType::Time_End &gt; Pages: 1 -->
<svg width="211pt" height="265pt"
 viewBox="0.00 0.00 211.00 265.00" xmlns="http://www.w3.org/2000/svg" xmlns:xlink="http://www.w3.org/1999/xlink">
<g id="graph0" class="graph" transform="scale(1 1) rotate(0) translate(4 260.5)">
<title>vanetza::security::v2::detail::validity_restriction_type&lt; ValidityRestrictionType::Time_End &gt;</title>
<!-- Node1 -->
<g id="Node000001" class="node">
<title>Node1</title>
<g id="a_Node000001"><a xlink:title=" ">
<polygon fill="#999999" stroke="none" points="148.25,-92.5 0,-92.5 0,0 148.25,0 148.25,-92.5"/>
<text xml:space="preserve" text-anchor="start" x="4" y="-79" font-family="Helvetica,sans-Serif" font-size="10.00">vanetza::security::</text>
<text xml:space="preserve" text-anchor="start" x="4" y="-66.25" font-family="Helvetica,sans-Serif" font-size="10.00">v2::detail::validity</text>
<text xml:space="preserve" text-anchor="start" x="4" y="-53.5" font-family="Helvetica,sans-Serif" font-size="10.00">_restriction_type&lt; Validity</text>
<text xml:space="preserve" text-anchor="start" x="4" y="-40.75" font-family="Helvetica,sans-Serif" font-size="10.00">RestrictionType::Time_End &gt;</text>
<text xml:space="preserve" text-anchor="start" x="72.62" y="-24" font-family="Helvetica,sans-Serif" font-size="10.00"> </text>
<text xml:space="preserve" text-anchor="start" x="72.62" y="-7.25" font-family="Helvetica,sans-Serif" font-size="10.00"> </text>
<polygon fill="#666666" stroke="#666666" points="0,-35.5 0,-35.5 148.25,-35.5 148.25,-35.5 0,-35.5"/>
<polygon fill="#666666" stroke="#666666" points="0,-18.75 0,-18.75 148.25,-18.75 148.25,-18.75 0,-18.75"/>
<polygon fill="none" stroke="#666666" points="0,0 0,-92.5 148.25,-92.5 148.25,0 0,0"/>
</a>
</g>
</g>
<!-- Node2 -->
<g id="Node000002" class="node">
<title>Node2</title>
<g id="a_Node000002"><a xlink:href="../../df/d49/structvanetza_1_1security_1_1v2_1_1detail_1_1validity__restriction__type.html" target="_top" xlink:title=" ">
<polygon fill="white" stroke="none" points="143,-256.5 5.25,-256.5 5.25,-164 143,-164 143,-256.5"/>
<text xml:space="preserve" text-anchor="start" x="9.25" y="-243" font-family="Helvetica,sans-Serif" font-size="10.00">vanetza::security::</text>
<text xml:space="preserve" text-anchor="start" x="9.25" y="-230.25" font-family="Helvetica,sans-Serif" font-size="10.00">v2::detail::validity</text>
<text xml:space="preserve" text-anchor="start" x="9.25" y="-217.5" font-family="Helvetica,sans-Serif" font-size="10.00">_restriction_type&lt; Validity</text>
<text xml:space="preserve" text-anchor="start" x="31" y="-204.75" font-family="Helvetica,sans-Serif" font-size="10.00">RestrictionType &gt;</text>
<text xml:space="preserve" text-anchor="start" x="72.62" y="-188" font-family="Helvetica,sans-Serif" font-size="10.00"> </text>
<text xml:space="preserve" text-anchor="start" x="72.62" y="-171.25" font-family="Helvetica,sans-Serif" font-size="10.00"> </text>
<polygon fill="#bfbfbf" stroke="#bfbfbf" points="5.25,-199.5 5.25,-199.5 143,-199.5 143,-199.5 5.25,-199.5"/>
<polygon fill="#bfbfbf" stroke="#bfbfbf" points="5.25,-182.75 5.25,-182.75 143,-182.75 143,-182.75 5.25,-182.75"/>
<polygon fill="none" stroke="#bfbfbf" points="5.25,-164 5.25,-256.5 143,-256.5 143,-164 5.25,-164"/>
</a>
</g>
</g>
<!-- Node2&#45;&gt;Node1 -->
<g id="edge1_Node000001_Node000002" class="edge">
<title>Node2&#45;&gt;Node1</title>
<g id="a_edge1_Node000001_Node000002"><a xlink:title=" ">
<path fill="none" stroke="orange" d="M74.12,-152.78C74.12,-133.03 74.12,-111.12 74.12,-92.41"/>
<polygon fill="orange" stroke="orange" points="70.63,-152.61 74.13,-162.61 77.63,-152.61 70.63,-152.61"/>
</a>
</g>
<text xml:space="preserve" text-anchor="start" x="77.12" y="-133.5" font-family="Helvetica,sans-Serif" font-size="10.00" fill="grey">&lt; ValidityRestrictionType</text>
<text xml:space="preserve" text-anchor="start" x="77.12" y="-116.75" font-family="Helvetica,sans-Serif" font-size="10.00" fill="grey">  ::Time_End &gt;</text>
</g>
</g>
</svg>
