<?xml version="1.0" encoding="UTF-8" standalone="no"?>
<!DOCTYPE svg PUBLIC "-//W3C//DTD SVG 1.1//EN"
 "http://www.w3.org/Graphics/SVG/1.1/DTD/svg11.dtd">
<!-- Generated by graphviz version 2.49.3 (0)
 -->
<!-- Title: vanetza::security::v2::detail::validity_restriction_type&lt; ValidityRestrictionType::Time_End &gt; Pages: 1 -->
<svg width="191pt" height="240pt"
 viewBox="0.00 0.00 190.50 240.00" xmlns="http://www.w3.org/2000/svg" xmlns:xlink="http://www.w3.org/1999/xlink">
<g id="graph0" class="graph" transform="scale(1 1) rotate(0) translate(4 236)">
<title>vanetza::security::v2::detail::validity_restriction_type&lt; ValidityRestrictionType::Time_End &gt;</title>
<!-- Node1 -->
<g id="Node000001" class="node">
<title>Node1</title>
<g id="a_Node000001"><a xlink:title=" ">
<polygon fill="#999999" stroke="transparent" points="137,-82 0,-82 0,0 137,0 137,-82"/>
<text text-anchor="start" x="5.5" y="-70" font-family="Helvetica,sans-Serif" font-size="10.00">vanetza::security::</text>
<text text-anchor="start" x="5.5" y="-59" font-family="Helvetica,sans-Serif" font-size="10.00">v2::detail::validity</text>
<text text-anchor="start" x="5.5" y="-48" font-family="Helvetica,sans-Serif" font-size="10.00">_restriction_type&lt; Validity</text>
<text text-anchor="start" x="5.5" y="-37" font-family="Helvetica,sans-Serif" font-size="10.00">RestrictionType::Time_End &gt;</text>
<text text-anchor="start" x="67" y="-22" font-family="Helvetica,sans-Serif" font-size="10.00"> </text>
<text text-anchor="start" x="67" y="-7" font-family="Helvetica,sans-Serif" font-size="10.00"> </text>
<polygon fill="#666666" stroke="#666666" points="0.5,-32 0.5,-32 137.5,-32 137.5,-32 0.5,-32"/>
<polygon fill="#666666" stroke="#666666" points="0.5,-17 0.5,-17 137.5,-17 137.5,-17 0.5,-17"/>
<polygon fill="none" stroke="#666666" points="0,0 0,-82 137,-82 137,0 0,0"/>
</a>
</g>
</g>
<!-- Node2 -->
<g id="Node000002" class="node">
<title>Node2</title>
<g id="a_Node000002"><a xlink:href="../../df/d49/structvanetza_1_1security_1_1v2_1_1detail_1_1validity__restriction__type.html" target="_top" xlink:title=" ">
<polygon fill="white" stroke="transparent" points="130,-232 7,-232 7,-150 130,-150 130,-232"/>
<text text-anchor="start" x="12.5" y="-220" font-family="Helvetica,sans-Serif" font-size="10.00">vanetza::security::</text>
<text text-anchor="start" x="12.5" y="-209" font-family="Helvetica,sans-Serif" font-size="10.00">v2::detail::validity</text>
<text text-anchor="start" x="12.5" y="-198" font-family="Helvetica,sans-Serif" font-size="10.00">_restriction_type&lt; Validity</text>
<text text-anchor="start" x="31" y="-187" font-family="Helvetica,sans-Serif" font-size="10.00">RestrictionType &gt;</text>
<text text-anchor="start" x="67" y="-172" font-family="Helvetica,sans-Serif" font-size="10.00"> </text>
<text text-anchor="start" x="67" y="-157" font-family="Helvetica,sans-Serif" font-size="10.00"> </text>
<polygon fill="#bfbfbf" stroke="#bfbfbf" points="7.5,-182 7.5,-182 130.5,-182 130.5,-182 7.5,-182"/>
<polygon fill="#bfbfbf" stroke="#bfbfbf" points="7.5,-167 7.5,-167 130.5,-167 130.5,-167 7.5,-167"/>
<polygon fill="none" stroke="#bfbfbf" points="7,-150 7,-232 130,-232 130,-150 7,-150"/>
</a>
</g>
</g>
<!-- Node2&#45;&gt;Node1 -->
<g id="edge1_Node000001_Node000002" class="edge">
<title>Node2&#45;&gt;Node1</title>
<g id="a_edge1_Node000001_Node000002"><a xlink:title=" ">
<path fill="none" stroke="orange" d="M68.5,-139.77C68.5,-120.96 68.5,-99.86 68.5,-82.08"/>
<polygon fill="orange" stroke="orange" points="65,-139.95 68.5,-149.95 72,-139.95 65,-139.95"/>
</a>
</g>
<text text-anchor="start" x="71.5" y="-121" font-family="Helvetica,sans-Serif" font-size="10.00" fill="grey">&lt; ValidityRestrictionType</text>
<text text-anchor="start" x="71.5" y="-106" font-family="Helvetica,sans-Serif" font-size="10.00" fill="grey">  ::Time_End &gt;</text>
</g>
</g>
</svg>
