<?xml version="1.0" encoding="UTF-8" standalone="no"?>
<!DOCTYPE svg PUBLIC "-//W3C//DTD SVG 1.1//EN"
 "http://www.w3.org/Graphics/SVG/1.1/DTD/svg11.dtd">
<!-- Generated by graphviz version 14.1.2 (0)
 -->
<!-- Title: vanetza::pdu_tags::mk2_tag Pages: 1 -->
<svg width="111pt" height="281pt"
 viewBox="0.00 0.00 111.00 281.00" xmlns="http://www.w3.org/2000/svg" xmlns:xlink="http://www.w3.org/1999/xlink">

<svg id="main" version="1.1" xmlns="http://www.w3.org/2000/svg" xmlns:xlink="http://www.w3.org/1999/xlink" xml:space="preserve">

<style type="text/css"><![CDATA[
.node, .edge {opacity: 0.7;}
.node.selected, .edge.selected {opacity: 1;}
.edge:hover path { stroke: red; }
.edge:hover polygon { stroke: red; fill: red; }
]]></style>
<script type="application/ecmascript" xlink:href="../../svg.min.js"/>
<svg id="graph" class="graph">
<g id="graph0" class="graph" transform="scale(1 1) rotate(0) translate(4 277)">
<title>vanetza::pdu_tags::mk2_tag</title>
<!-- Node1 -->
<g id="Node000001" class="node">
<title>Node1</title>
<g id="a_Node000001"><a xlink:title=" ">
<polygon fill="#999999" stroke="none" points="103.25,-67 0,-67 0,0 103.25,0 103.25,-67"/>
<text xml:space="preserve" text-anchor="start" x="4" y="-53.5" font-family="Helvetica,sans-Serif" font-size="10.00">vanetza::pdu_tags::</text>
<text xml:space="preserve" text-anchor="start" x="30.25" y="-40.75" font-family="Helvetica,sans-Serif" font-size="10.00">mk2_tag</text>
<text xml:space="preserve" text-anchor="start" x="50.12" y="-24" font-family="Helvetica,sans-Serif" font-size="10.00"> </text>
<text xml:space="preserve" text-anchor="start" x="50.12" y="-7.25" font-family="Helvetica,sans-Serif" font-size="10.00"> </text>
<polygon fill="#666666" stroke="#666666" points="0,-35.5 0,-35.5 103.25,-35.5 103.25,-35.5 0,-35.5"/>
<polygon fill="#666666" stroke="#666666" points="0,-18.75 0,-18.75 103.25,-18.75 103.25,-18.75 0,-18.75"/>
<polygon fill="none" stroke="#666666" points="0,0 0,-67 103.25,-67 103.25,0 0,0"/>
</a>
</g>
</g>
<!-- Node2 -->
<g id="Node000002" class="node">
<title>Node2</title>
<g id="a_Node000002"><a xlink:href="../../dd/de8/structvanetza_1_1pdu__tags_1_1phy__tag.html" target="_top" xlink:title=" ">
<polygon fill="white" stroke="none" points="103.25,-170 0,-170 0,-103 103.25,-103 103.25,-170"/>
<text xml:space="preserve" text-anchor="start" x="4" y="-156.5" font-family="Helvetica,sans-Serif" font-size="10.00">vanetza::pdu_tags::</text>
<text xml:space="preserve" text-anchor="start" x="32.12" y="-143.75" font-family="Helvetica,sans-Serif" font-size="10.00">phy_tag</text>
<text xml:space="preserve" text-anchor="start" x="50.12" y="-127" font-family="Helvetica,sans-Serif" font-size="10.00"> </text>
<text xml:space="preserve" text-anchor="start" x="50.12" y="-110.25" font-family="Helvetica,sans-Serif" font-size="10.00"> </text>
<polygon fill="#bfbfbf" stroke="#bfbfbf" points="0,-138.5 0,-138.5 103.25,-138.5 103.25,-138.5 0,-138.5"/>
<polygon fill="#bfbfbf" stroke="#bfbfbf" points="0,-121.75 0,-121.75 103.25,-121.75 103.25,-121.75 0,-121.75"/>
<polygon fill="none" stroke="#bfbfbf" points="0,-103 0,-170 103.25,-170 103.25,-103 0,-103"/>
</a>
</g>
</g>
<!-- Node2&#45;&gt;Node1 -->
<g id="edge1_Node000001_Node000002" class="edge">
<title>Node2&#45;&gt;Node1</title>
<g id="a_edge1_Node000001_Node000002"><a xlink:title=" ">
<path fill="none" stroke="#63b8ff" d="M51.62,-91.98C51.62,-83.52 51.62,-74.79 51.62,-66.77"/>
<polygon fill="none" stroke="#63b8ff" points="48.13,-91.75 51.63,-101.75 55.13,-91.75 48.13,-91.75"/>
</a>
</g>
</g>
<!-- Node3 -->
<g id="Node000003" class="node">
<title>Node3</title>
<g id="a_Node000003"><a xlink:href="../../d5/d0a/structvanetza_1_1pdu__tags_1_1pdu__tag.html" target="_top" xlink:title=" ">
<polygon fill="white" stroke="none" points="103.25,-273 0,-273 0,-206 103.25,-206 103.25,-273"/>
<text xml:space="preserve" text-anchor="start" x="4" y="-259.5" font-family="Helvetica,sans-Serif" font-size="10.00">vanetza::pdu_tags::</text>
<text xml:space="preserve" text-anchor="start" x="32.12" y="-246.75" font-family="Helvetica,sans-Serif" font-size="10.00">pdu_tag</text>
<text xml:space="preserve" text-anchor="start" x="50.12" y="-230" font-family="Helvetica,sans-Serif" font-size="10.00"> </text>
<text xml:space="preserve" text-anchor="start" x="50.12" y="-213.25" font-family="Helvetica,sans-Serif" font-size="10.00"> </text>
<polygon fill="#bfbfbf" stroke="#bfbfbf" points="0,-241.5 0,-241.5 103.25,-241.5 103.25,-241.5 0,-241.5"/>
<polygon fill="#bfbfbf" stroke="#bfbfbf" points="0,-224.75 0,-224.75 103.25,-224.75 103.25,-224.75 0,-224.75"/>
<polygon fill="none" stroke="#bfbfbf" points="0,-206 0,-273 103.25,-273 103.25,-206 0,-206"/>
</a>
</g>
</g>
<!-- Node3&#45;&gt;Node2 -->
<g id="edge2_Node000002_Node000003" class="edge">
<title>Node3&#45;&gt;Node2</title>
<g id="a_edge2_Node000002_Node000003"><a xlink:title=" ">
<path fill="none" stroke="#63b8ff" d="M51.62,-194.98C51.62,-186.52 51.62,-177.79 51.62,-169.77"/>
<polygon fill="none" stroke="#63b8ff" points="48.13,-194.75 51.63,-204.75 55.13,-194.75 48.13,-194.75"/>
</a>
</g>
</g>
</g>
</svg>
</svg>

<style type='text/css'>
<![CDATA[
[data-mouse-over-selected='false'] { opacity: 0.7; }
[data-mouse-over-selected='true']  { opacity: 1.0; }
]]>
</style>
<script type="application/ecmascript"><![CDATA[
document.addEventListener('DOMContentLoaded', (event) => {
  highlightEdges();
  highlightAdjacentNodes();
});
]]></script>
</svg>
