<?xml version="1.0" encoding="UTF-8" standalone="no"?>
<!DOCTYPE svg PUBLIC "-//W3C//DTD SVG 1.1//EN"
 "http://www.w3.org/Graphics/SVG/1.1/DTD/svg11.dtd">
<!-- Generated by graphviz version 2.49.3 (0)
 -->
<!-- Title: vanetza::security::v2::DefaultCertificateValidator Pages: 1 -->
<svg width="156pt" height="226pt"
 viewBox="0.00 0.00 156.00 226.00" xmlns="http://www.w3.org/2000/svg" xmlns:xlink="http://www.w3.org/1999/xlink">
<g id="graph0" class="graph" transform="scale(1 1) rotate(0) translate(4 222)">
<title>vanetza::security::v2::DefaultCertificateValidator</title>
<!-- Node1 -->
<g id="node1" class="node">
<title>Node1</title>
<g id="a_node1"><a xlink:title="The default certificate validator.">
<polygon fill="#999999" stroke="#666666" points="0,-0.5 0,-101.5 148,-101.5 148,-0.5 0,-0.5"/>
<text text-anchor="start" x="8" y="-89.5" font-family="Helvetica,sans-Serif" font-size="10.00">vanetza::security::</text>
<text text-anchor="middle" x="74" y="-78.5" font-family="Helvetica,sans-Serif" font-size="10.00">v2::DefaultCertificateValidator</text>
<polyline fill="none" stroke="#666666" points="0,-71.5 148,-71.5 "/>
<text text-anchor="start" x="8" y="-59.5" font-family="Helvetica,sans-Serif" font-size="10.00">&#45; m_crypto_backend</text>
<text text-anchor="start" x="8" y="-48.5" font-family="Helvetica,sans-Serif" font-size="10.00">&#45; m_cert_cache</text>
<text text-anchor="start" x="8" y="-37.5" font-family="Helvetica,sans-Serif" font-size="10.00">&#45; m_trust_store</text>
<polyline fill="none" stroke="#666666" points="0,-30.5 148,-30.5 "/>
<text text-anchor="start" x="8" y="-18.5" font-family="Helvetica,sans-Serif" font-size="10.00">+ DefaultCertificateValidator()</text>
<text text-anchor="start" x="8" y="-7.5" font-family="Helvetica,sans-Serif" font-size="10.00">+ check_certificate()</text>
</a>
</g>
</g>
<!-- Node2 -->
<g id="node2" class="node">
<title>Node2</title>
<g id="a_node2"><a xlink:href="../../d0/d13/classvanetza_1_1security_1_1v2_1_1CertificateValidator.html" target="_top" xlink:title=" ">
<polygon fill="white" stroke="#bfbfbf" points="13.5,-138.5 13.5,-217.5 134.5,-217.5 134.5,-138.5 13.5,-138.5"/>
<text text-anchor="start" x="21.5" y="-205.5" font-family="Helvetica,sans-Serif" font-size="10.00">vanetza::security::</text>
<text text-anchor="middle" x="74" y="-194.5" font-family="Helvetica,sans-Serif" font-size="10.00">v2::CertificateValidator</text>
<polyline fill="none" stroke="#bfbfbf" points="13.5,-187.5 134.5,-187.5 "/>
<text text-anchor="middle" x="74" y="-175.5" font-family="Helvetica,sans-Serif" font-size="10.00"> </text>
<polyline fill="none" stroke="#bfbfbf" points="13.5,-168.5 134.5,-168.5 "/>
<text text-anchor="start" x="21.5" y="-156.5" font-family="Helvetica,sans-Serif" font-size="10.00">+ check_certificate()</text>
<text text-anchor="start" x="21.5" y="-145.5" font-family="Helvetica,sans-Serif" font-size="10.00">+ ~CertificateValidator()</text>
</a>
</g>
</g>
<!-- Node2&#45;&gt;Node1 -->
<g id="edge1" class="edge">
<title>Node2&#45;&gt;Node1</title>
<path fill="none" stroke="#63b8ff" d="M74,-128.41C74,-119.64 74,-110.49 74,-101.69"/>
<polygon fill="none" stroke="#63b8ff" points="70.5,-128.48 74,-138.48 77.5,-128.48 70.5,-128.48"/>
</g>
</g>
</svg>
