<?xml version="1.0" encoding="UTF-8" standalone="no"?>
<!DOCTYPE svg PUBLIC "-//W3C//DTD SVG 1.1//EN"
 "http://www.w3.org/Graphics/SVG/1.1/DTD/svg11.dtd">
<!-- Generated by graphviz version 14.1.2 (0)
 -->
<!-- Title: vanetza::security::EncapConfirm Pages: 1 -->
<svg width="180pt" height="212pt"
 viewBox="0.00 0.00 180.00 212.00" xmlns="http://www.w3.org/2000/svg" xmlns:xlink="http://www.w3.org/1999/xlink">
<g id="graph0" class="graph" transform="scale(1 1) rotate(0) translate(4 207.5)">
<title>vanetza::security::EncapConfirm</title>
<!-- Node1 -->
<g id="Node000001" class="node">
<title>Node1</title>
<g id="a_Node000001"><a xlink:title=" ">
<polygon fill="#999999" stroke="none" points="143.88,-100.5 28.38,-100.5 28.38,0 143.88,0 143.88,-100.5"/>
<text xml:space="preserve" text-anchor="start" x="41.5" y="-87" font-family="Helvetica,sans-Serif" font-size="10.00">vanetza::security::</text>
<text xml:space="preserve" text-anchor="start" x="52.38" y="-74.25" font-family="Helvetica,sans-Serif" font-size="10.00">EncapConfirm</text>
<text xml:space="preserve" text-anchor="start" x="84.62" y="-57.5" font-family="Helvetica,sans-Serif" font-size="10.00"> </text>
<text xml:space="preserve" text-anchor="start" x="32.38" y="-40.75" font-family="Helvetica,sans-Serif" font-size="10.00">+</text>
<text xml:space="preserve" text-anchor="start" x="44.62" y="-40.75" font-family="Helvetica,sans-Serif" font-size="10.00">secured_message()</text>
<text xml:space="preserve" text-anchor="start" x="32.38" y="-24" font-family="Helvetica,sans-Serif" font-size="10.00">+</text>
<text xml:space="preserve" text-anchor="start" x="44.62" y="-24" font-family="Helvetica,sans-Serif" font-size="10.00">secured_message()</text>
<text xml:space="preserve" text-anchor="start" x="32.38" y="-7.25" font-family="Helvetica,sans-Serif" font-size="10.00">+</text>
<text xml:space="preserve" text-anchor="start" x="44.62" y="-7.25" font-family="Helvetica,sans-Serif" font-size="10.00">from()</text>
<polygon fill="#666666" stroke="#666666" points="28.38,-69 28.38,-69 143.88,-69 143.88,-69 28.38,-69"/>
<polygon fill="#666666" stroke="#666666" points="28.38,-52.25 28.38,-52.25 143.88,-52.25 143.88,-52.25 28.38,-52.25"/>
<polygon fill="none" stroke="#666666" points="28.38,0 28.38,-100.5 143.88,-100.5 143.88,0 28.38,0"/>
</a>
</g>
</g>
<!-- Node2 -->
<g id="Node000002" class="node">
<title>Node2</title>
<g id="a_Node000002"><a xlink:title=" ">
<polygon fill="white" stroke="none" points="172.25,-203.5 0,-203.5 0,-136.5 172.25,-136.5 172.25,-203.5"/>
<text xml:space="preserve" text-anchor="start" x="4" y="-190" font-family="Helvetica,sans-Serif" font-size="10.00">boost::variant&lt; SecuredMessage,</text>
<text xml:space="preserve" text-anchor="start" x="37.75" y="-177.25" font-family="Helvetica,sans-Serif" font-size="10.00"> SignConfirmError &gt;</text>
<text xml:space="preserve" text-anchor="start" x="84.62" y="-160.5" font-family="Helvetica,sans-Serif" font-size="10.00"> </text>
<text xml:space="preserve" text-anchor="start" x="84.62" y="-143.75" font-family="Helvetica,sans-Serif" font-size="10.00"> </text>
<polygon fill="#bfbfbf" stroke="#bfbfbf" points="0,-172 0,-172 172.25,-172 172.25,-172 0,-172"/>
<polygon fill="#bfbfbf" stroke="#bfbfbf" points="0,-155.25 0,-155.25 172.25,-155.25 172.25,-155.25 0,-155.25"/>
<polygon fill="none" stroke="#bfbfbf" points="0,-136.5 0,-203.5 172.25,-203.5 172.25,-136.5 0,-136.5"/>
</a>
</g>
</g>
<!-- Node2&#45;&gt;Node1 -->
<g id="edge1_Node000001_Node000002" class="edge">
<title>Node2&#45;&gt;Node1</title>
<g id="a_edge1_Node000001_Node000002"><a xlink:title=" ">
<path fill="none" stroke="#63b8ff" d="M86.12,-125.08C86.12,-117.04 86.12,-108.59 86.12,-100.4"/>
<polygon fill="none" stroke="#63b8ff" points="82.63,-125 86.13,-135 89.63,-125 82.63,-125"/>
</a>
</g>
</g>
</g>
</svg>
