<?xml version="1.0" encoding="UTF-8" standalone="no"?>
<!DOCTYPE svg PUBLIC "-//W3C//DTD SVG 1.1//EN"
 "http://www.w3.org/Graphics/SVG/1.1/DTD/svg11.dtd">
<!-- Generated by graphviz version 2.49.3 (0)
 -->
<!-- Title: vanetza::security::EncapConfirm Pages: 1 -->
<svg width="164pt" height="194pt"
 viewBox="0.00 0.00 164.00 194.00" xmlns="http://www.w3.org/2000/svg" xmlns:xlink="http://www.w3.org/1999/xlink">

<svg id="main" version="1.1" xmlns="http://www.w3.org/2000/svg" xmlns:xlink="http://www.w3.org/1999/xlink" xml:space="preserve">

<style type="text/css"><![CDATA[
.node, .edge {opacity: 0.7;}
.node.selected, .edge.selected {opacity: 1;}
.edge:hover path { stroke: red; }
.edge:hover polygon { stroke: red; fill: red; }
]]></style>
<script type="application/ecmascript" xlink:href="../../svg.min.js"/>
<svg id="graph" class="graph">
<g id="graph0" class="graph" transform="scale(1 1) rotate(0) translate(4 190)">
<title>vanetza::security::EncapConfirm</title>
<!-- Node1 -->
<g id="Node000001" class="node">
<title>Node1</title>
<g id="a_Node000001"><a xlink:title=" ">
<polygon fill="#999999" stroke="transparent" points="130.5,-90 25.5,-90 25.5,0 130.5,0 130.5,-90"/>
<text text-anchor="start" x="38.5" y="-78" font-family="Helvetica,sans-Serif" font-size="10.00">vanetza::security::</text>
<text text-anchor="start" x="47" y="-67" font-family="Helvetica,sans-Serif" font-size="10.00">EncapConfirm</text>
<text text-anchor="start" x="76.5" y="-52" font-family="Helvetica,sans-Serif" font-size="10.00"> </text>
<text text-anchor="start" x="30" y="-37" font-family="Helvetica,sans-Serif" font-size="10.00">+</text>
<text text-anchor="start" x="41" y="-37" font-family="Helvetica,sans-Serif" font-size="10.00">secured_message()</text>
<text text-anchor="start" x="30" y="-22" font-family="Helvetica,sans-Serif" font-size="10.00">+</text>
<text text-anchor="start" x="41" y="-22" font-family="Helvetica,sans-Serif" font-size="10.00">secured_message()</text>
<text text-anchor="start" x="30" y="-7" font-family="Helvetica,sans-Serif" font-size="10.00">+</text>
<text text-anchor="start" x="41" y="-7" font-family="Helvetica,sans-Serif" font-size="10.00">from()</text>
<polygon fill="#666666" stroke="#666666" points="26,-62 26,-62 131,-62 131,-62 26,-62"/>
<polygon fill="#666666" stroke="#666666" points="26,-47 26,-47 131,-47 131,-47 26,-47"/>
<polygon fill="none" stroke="#666666" points="25.5,0 25.5,-90 130.5,-90 130.5,0 25.5,0"/>
</a>
</g>
</g>
<!-- Node2 -->
<g id="Node000002" class="node">
<title>Node2</title>
<g id="a_Node000002"><a xlink:title=" ">
<polygon fill="white" stroke="transparent" points="156,-186 0,-186 0,-126 156,-126 156,-186"/>
<text text-anchor="start" x="5" y="-174" font-family="Helvetica,sans-Serif" font-size="10.00">boost::variant&lt; SecuredMessage,</text>
<text text-anchor="start" x="34" y="-163" font-family="Helvetica,sans-Serif" font-size="10.00"> SignConfirmError &gt;</text>
<text text-anchor="start" x="76" y="-148" font-family="Helvetica,sans-Serif" font-size="10.00"> </text>
<text text-anchor="start" x="76" y="-133" font-family="Helvetica,sans-Serif" font-size="10.00"> </text>
<polygon fill="#bfbfbf" stroke="#bfbfbf" points="0,-158 0,-158 156,-158 156,-158 0,-158"/>
<polygon fill="#bfbfbf" stroke="#bfbfbf" points="0,-143 0,-143 156,-143 156,-143 0,-143"/>
<polygon fill="none" stroke="#bfbfbf" points="0,-126 0,-186 156,-186 156,-126 0,-126"/>
</a>
</g>
</g>
<!-- Node2&#45;&gt;Node1 -->
<g id="edge1_Node000001_Node000002" class="edge">
<title>Node2&#45;&gt;Node1</title>
<g id="a_edge1_Node000001_Node000002"><a xlink:title=" ">
<path fill="none" stroke="#63b8ff" d="M78,-115.62C78,-107.32 78,-98.52 78,-90.06"/>
<polygon fill="none" stroke="#63b8ff" points="74.5,-115.79 78,-125.79 81.5,-115.79 74.5,-115.79"/>
</a>
</g>
</g>
</g>
</svg>
</svg>

<style type='text/css'>
<![CDATA[
[data-mouse-over-selected='false'] { opacity: 0.7; }
[data-mouse-over-selected='true']  { opacity: 1.0; }
]]>
</style>
<script type="application/ecmascript"><![CDATA[
document.addEventListener('DOMContentLoaded', (event) => {
  highlightEdges();
  highlightAdjacentNodes();
});
]]></script>
</svg>
