<?xml version="1.0" encoding="UTF-8" standalone="no"?>
<!DOCTYPE svg PUBLIC "-//W3C//DTD SVG 1.1//EN"
 "http://www.w3.org/Graphics/SVG/1.1/DTD/svg11.dtd">
<!-- Generated by graphviz version 2.49.3 (0)
 -->
<!-- Title: vanetza::security::deserialization_error Pages: 1 -->
<svg width="106pt" height="238pt"
 viewBox="0.00 0.00 106.00 238.00" xmlns="http://www.w3.org/2000/svg" xmlns:xlink="http://www.w3.org/1999/xlink">
<g id="graph0" class="graph" transform="scale(1 1) rotate(0) translate(4 234)">
<title>vanetza::security::deserialization_error</title>
<!-- Node1 -->
<g id="Node000001" class="node">
<title>Node1</title>
<g id="a_Node000001"><a xlink:title="thrown when a deserialization error occurred">
<polygon fill="#999999" stroke="transparent" points="98,-60 0,-60 0,0 98,0 98,-60"/>
<text text-anchor="start" x="5" y="-48" font-family="Helvetica,sans-Serif" font-size="10.00">vanetza::security::</text>
<text text-anchor="start" x="5" y="-37" font-family="Helvetica,sans-Serif" font-size="10.00">deserialization_error</text>
<text text-anchor="start" x="47" y="-22" font-family="Helvetica,sans-Serif" font-size="10.00"> </text>
<text text-anchor="start" x="47" y="-7" font-family="Helvetica,sans-Serif" font-size="10.00"> </text>
<polygon fill="#666666" stroke="#666666" points="0,-32 0,-32 98,-32 98,-32 0,-32"/>
<polygon fill="#666666" stroke="#666666" points="0,-17 0,-17 98,-17 98,-17 0,-17"/>
<polygon fill="none" stroke="#666666" points="0,0 0,-60 98,-60 98,0 0,0"/>
</a>
</g>
</g>
<!-- Node2 -->
<g id="Node000002" class="node">
<title>Node2</title>
<g id="a_Node000002"><a xlink:title=" ">
<polygon fill="white" stroke="transparent" points="92.5,-145 5.5,-145 5.5,-96 92.5,-96 92.5,-145"/>
<text text-anchor="start" x="11" y="-132.5" font-family="Helvetica,sans-Serif" font-size="10.00">std::runtime_error</text>
<text text-anchor="start" x="47.5" y="-117.5" font-family="Helvetica,sans-Serif" font-size="10.00"> </text>
<text text-anchor="start" x="47.5" y="-102.5" font-family="Helvetica,sans-Serif" font-size="10.00"> </text>
<polygon fill="#666666" stroke="#666666" points="6,-127.5 6,-127.5 93,-127.5 93,-127.5 6,-127.5"/>
<polygon fill="#666666" stroke="#666666" points="6,-112.5 6,-112.5 93,-112.5 93,-112.5 6,-112.5"/>
<polygon fill="none" stroke="#666666" points="5.5,-96 5.5,-145 92.5,-145 92.5,-96 5.5,-96"/>
</a>
</g>
</g>
<!-- Node2&#45;&gt;Node1 -->
<g id="edge1_Node000001_Node000002" class="edge">
<title>Node2&#45;&gt;Node1</title>
<g id="a_edge1_Node000001_Node000002"><a xlink:title=" ">
<path fill="none" stroke="#63b8ff" d="M49,-85.55C49,-77.18 49,-68.28 49,-60.16"/>
<polygon fill="none" stroke="#63b8ff" points="45.5,-85.78 49,-95.78 52.5,-85.78 45.5,-85.78"/>
</a>
</g>
</g>
<!-- Node3 -->
<g id="Node000003" class="node">
<title>Node3</title>
<g id="a_Node000003"><a xlink:title=" ">
<polygon fill="white" stroke="transparent" points="84.5,-230 13.5,-230 13.5,-181 84.5,-181 84.5,-230"/>
<text text-anchor="start" x="19" y="-217.5" font-family="Helvetica,sans-Serif" font-size="10.00">std::exception</text>
<text text-anchor="start" x="47.5" y="-202.5" font-family="Helvetica,sans-Serif" font-size="10.00"> </text>
<text text-anchor="start" x="47.5" y="-187.5" font-family="Helvetica,sans-Serif" font-size="10.00"> </text>
<polygon fill="#666666" stroke="#666666" points="14,-212.5 14,-212.5 85,-212.5 85,-212.5 14,-212.5"/>
<polygon fill="#666666" stroke="#666666" points="14,-197.5 14,-197.5 85,-197.5 85,-197.5 14,-197.5"/>
<polygon fill="none" stroke="#666666" points="13.5,-181 13.5,-230 84.5,-230 84.5,-181 13.5,-181"/>
</a>
</g>
</g>
<!-- Node3&#45;&gt;Node2 -->
<g id="edge2_Node000002_Node000003" class="edge">
<title>Node3&#45;&gt;Node2</title>
<g id="a_edge2_Node000002_Node000003"><a xlink:title=" ">
<path fill="none" stroke="#63b8ff" d="M49,-170.77C49,-162.17 49,-153.1 49,-145.12"/>
<polygon fill="none" stroke="#63b8ff" points="45.5,-170.94 49,-180.94 52.5,-170.94 45.5,-170.94"/>
</a>
</g>
</g>
</g>
</svg>
