<?xml version="1.0" encoding="UTF-8" standalone="no"?>
<!DOCTYPE svg PUBLIC "-//W3C//DTD SVG 1.1//EN"
 "http://www.w3.org/Graphics/SVG/1.1/DTD/svg11.dtd">
<!-- Generated by graphviz version 14.1.2 (0)
 -->
<!-- Title: vanetza::security::deserialization_error Pages: 1 -->
<svg width="117pt" height="165pt"
 viewBox="0.00 0.00 117.00 165.00" xmlns="http://www.w3.org/2000/svg" xmlns:xlink="http://www.w3.org/1999/xlink">

<svg id="main" version="1.1" xmlns="http://www.w3.org/2000/svg" xmlns:xlink="http://www.w3.org/1999/xlink" xml:space="preserve">

<style type="text/css"><![CDATA[
.node, .edge {opacity: 0.7;}
.node.selected, .edge.selected {opacity: 1;}
.edge:hover path { stroke: red; }
.edge:hover polygon { stroke: red; fill: red; }
]]></style>
<script type="application/ecmascript" xlink:href="../../svg.min.js"/>
<svg id="graph" class="graph">
<g id="graph0" class="graph" transform="scale(1 1) rotate(0) translate(4 161.25)">
<title>vanetza::security::deserialization_error</title>
<!-- Node1 -->
<g id="Node000001" class="node">
<title>Node1</title>
<g id="a_Node000001"><a xlink:title="thrown when a deserialization error occurred">
<polygon fill="#999999" stroke="none" points="108.5,-67 0,-67 0,0 108.5,0 108.5,-67"/>
<text xml:space="preserve" text-anchor="start" x="4" y="-53.5" font-family="Helvetica,sans-Serif" font-size="10.00">vanetza::security::</text>
<text xml:space="preserve" text-anchor="start" x="4" y="-40.75" font-family="Helvetica,sans-Serif" font-size="10.00">deserialization_error</text>
<text xml:space="preserve" text-anchor="start" x="52.75" y="-24" font-family="Helvetica,sans-Serif" font-size="10.00"> </text>
<text xml:space="preserve" text-anchor="start" x="52.75" y="-7.25" font-family="Helvetica,sans-Serif" font-size="10.00"> </text>
<polygon fill="#666666" stroke="#666666" points="0,-35.5 0,-35.5 108.5,-35.5 108.5,-35.5 0,-35.5"/>
<polygon fill="#666666" stroke="#666666" points="0,-18.75 0,-18.75 108.5,-18.75 108.5,-18.75 0,-18.75"/>
<polygon fill="none" stroke="#666666" points="0,0 0,-67 108.5,-67 108.5,0 0,0"/>
</a>
</g>
</g>
<!-- Node2 -->
<g id="Node000002" class="node">
<title>Node2</title>
<g id="a_Node000002"><a xlink:title=" ">
<polygon fill="white" stroke="none" points="102.12,-157.25 6.38,-157.25 6.38,-103 102.12,-103 102.12,-157.25"/>
<text xml:space="preserve" text-anchor="start" x="10.38" y="-143.75" font-family="Helvetica,sans-Serif" font-size="10.00">std::runtime_error</text>
<text xml:space="preserve" text-anchor="start" x="52.75" y="-127" font-family="Helvetica,sans-Serif" font-size="10.00"> </text>
<text xml:space="preserve" text-anchor="start" x="52.75" y="-110.25" font-family="Helvetica,sans-Serif" font-size="10.00"> </text>
<polygon fill="#bfbfbf" stroke="#bfbfbf" points="6.38,-138.5 6.38,-138.5 102.12,-138.5 102.12,-138.5 6.38,-138.5"/>
<polygon fill="#bfbfbf" stroke="#bfbfbf" points="6.38,-121.75 6.38,-121.75 102.12,-121.75 102.12,-121.75 6.38,-121.75"/>
<polygon fill="none" stroke="#bfbfbf" points="6.38,-103 6.38,-157.25 102.12,-157.25 102.12,-103 6.38,-103"/>
</a>
</g>
</g>
<!-- Node2&#45;&gt;Node1 -->
<g id="edge1_Node000001_Node000002" class="edge">
<title>Node2&#45;&gt;Node1</title>
<g id="a_edge1_Node000001_Node000002"><a xlink:title=" ">
<path fill="none" stroke="#63b8ff" d="M54.25,-91.51C54.25,-83.38 54.25,-74.85 54.25,-66.94"/>
<polygon fill="none" stroke="#63b8ff" points="50.75,-91.5 54.25,-101.5 57.75,-91.5 50.75,-91.5"/>
</a>
</g>
</g>
</g>
</svg>
</svg>

<style type='text/css'>
<![CDATA[
[data-mouse-over-selected='false'] { opacity: 0.7; }
[data-mouse-over-selected='true']  { opacity: 1.0; }
]]>
</style>
<script type="application/ecmascript"><![CDATA[
document.addEventListener('DOMContentLoaded', (event) => {
  highlightEdges();
  highlightAdjacentNodes();
});
]]></script>
</svg>
