<?xml version="1.0" encoding="UTF-8" standalone="no"?>
<!DOCTYPE svg PUBLIC "-//W3C//DTD SVG 1.1//EN"
 "http://www.w3.org/Graphics/SVG/1.1/DTD/svg11.dtd">
<!-- Generated by graphviz version 2.42.1 (0)
 -->
<!-- Title: vanetza/access/access_category.hpp Pages: 1 -->
<!--zoomable 173 -->
<svg id="main" version="1.1" xmlns="http://www.w3.org/2000/svg" xmlns:xlink="http://www.w3.org/1999/xlink" xml:space="preserve" onload="init(evt)">
<style type="text/css"><![CDATA[
.edge:hover path { stroke: red; }
.edge:hover polygon { stroke: red; fill: red; }
]]></style>
<script type="text/javascript"><![CDATA[
var edges = document.getElementsByTagName('g');
if (edges && edges.length) {
  for (var i=0;i<edges.length;i++) {
    if (edges[i].id.substr(0,4)=='edge') {
      edges[i].setAttribute('class','edge');
    }
  }
}
]]></script>
        <defs>
                <circle id="rim" cx="0" cy="0" r="7"/>
                <circle id="rim2" cx="0" cy="0" r="3.5"/>
                <g id="zoomPlus">
                        <use xlink:href="#rim" fill="#404040">
                                <set attributeName="fill" to="#808080" begin="zoomplus.mouseover" end="zoomplus.mouseout"/>
                        </use>
                        <path d="M-4,0h8M0,-4v8" fill="none" stroke="white" stroke-width="1.5" pointer-events="none"/>
                </g>
                <g id="zoomMin">
                        <use xlink:href="#rim" fill="#404040">
                                <set attributeName="fill" to="#808080" begin="zoomminus.mouseover" end="zoomminus.mouseout"/>
                        </use>
                        <path d="M-4,0h8" fill="none" stroke="white" stroke-width="1.5" pointer-events="none"/>
                </g>
                <g id="dirArrow">
                        <path fill="none" stroke="white" stroke-width="1.5" d="M0,-3.0v7 M-2.5,-0.5L0,-3.0L2.5,-0.5"/>
                </g>
               <g id="resetDef">
                       <use xlink:href="#rim2" fill="#404040">
                               <set attributeName="fill" to="#808080" begin="reset.mouseover" end="reset.mouseout"/>
                       </use>
               </g>
        </defs>

<script type="text/javascript">
var viewWidth = 865;
var viewHeight = 173;
var sectionId = 'dynsection-1';
</script>
<script xlink:href="../../svgpan.js"/>
<svg id="graph" class="graph">
<g id="viewport">
<title>vanetza/access/access_category.hpp</title>
<polygon fill="white" stroke="transparent" points="-4,4 -4,-169 860.5,-169 860.5,4 -4,4"/>
<!-- Node2 -->
<g id="node1" class="node">
<title>Node2</title>
<g id="a_node1"><a xlink:title=" ">
<polygon fill="#bfbfbf" stroke="black" points="353,-134.5 353,-164.5 473,-164.5 473,-134.5 353,-134.5"/>
<text text-anchor="start" x="361" y="-152.5" font-family="Helvetica,sans-Serif" font-size="10.00">vanetza/access/access</text>
<text text-anchor="middle" x="413" y="-141.5" font-family="Helvetica,sans-Serif" font-size="10.00">_category.hpp</text>
</a>
</g>
</g>
<!-- Node3 -->
<g id="node2" class="node">
<title>Node3</title>
<g id="a_node2"><a xlink:href="../../d8/ddd/access__category_8cpp_source.html" target="_top" xlink:title=" ">
<polygon fill="white" stroke="black" points="0,-67.5 0,-97.5 120,-97.5 120,-67.5 0,-67.5"/>
<text text-anchor="start" x="8" y="-85.5" font-family="Helvetica,sans-Serif" font-size="10.00">vanetza/access/access</text>
<text text-anchor="middle" x="60" y="-74.5" font-family="Helvetica,sans-Serif" font-size="10.00">_category.cpp</text>
</a>
</g>
</g>
<!-- Node2&#45;&gt;Node3 -->
<g id="edge1" class="edge">
<title>Node2&#45;&gt;Node3</title>
<path fill="none" stroke="midnightblue" d="M342.71,-136.63C285.17,-126.76 201.7,-112.1 129,-98 126.12,-97.44 123.17,-96.86 120.19,-96.26"/>
<polygon fill="midnightblue" stroke="midnightblue" points="342.34,-140.12 352.79,-138.35 343.52,-133.22 342.34,-140.12"/>
</g>
<!-- Node4 -->
<g id="node3" class="node">
<title>Node4</title>
<g id="a_node3"><a xlink:href="../../d9/dd4/access_2data__request_8hpp_source.html" target="_top" xlink:title=" ">
<polygon fill="white" stroke="black" points="138.5,-67.5 138.5,-97.5 245.5,-97.5 245.5,-67.5 138.5,-67.5"/>
<text text-anchor="start" x="146.5" y="-85.5" font-family="Helvetica,sans-Serif" font-size="10.00">vanetza/access/data</text>
<text text-anchor="middle" x="192" y="-74.5" font-family="Helvetica,sans-Serif" font-size="10.00">_request.hpp</text>
</a>
</g>
</g>
<!-- Node2&#45;&gt;Node4 -->
<g id="edge2" class="edge">
<title>Node2&#45;&gt;Node4</title>
<path fill="none" stroke="midnightblue" d="M355.47,-131.58C319.58,-121.02 273.91,-107.59 239.98,-97.61"/>
<polygon fill="midnightblue" stroke="midnightblue" points="354.74,-135.01 365.32,-134.48 356.71,-128.3 354.74,-135.01"/>
</g>
<!-- Node6 -->
<g id="node5" class="node">
<title>Node6</title>
<g id="a_node5"><a xlink:href="../../d1/d84/g5__link__layer_8hpp_source.html" target="_top" xlink:title=" ">
<polygon fill="white" stroke="black" points="572.5,-67.5 572.5,-97.5 691.5,-97.5 691.5,-67.5 572.5,-67.5"/>
<text text-anchor="start" x="580.5" y="-85.5" font-family="Helvetica,sans-Serif" font-size="10.00">vanetza/access/g5_link</text>
<text text-anchor="middle" x="632" y="-74.5" font-family="Helvetica,sans-Serif" font-size="10.00">_layer.hpp</text>
</a>
</g>
</g>
<!-- Node2&#45;&gt;Node6 -->
<g id="edge4" class="edge">
<title>Node2&#45;&gt;Node6</title>
<path fill="none" stroke="midnightblue" d="M470.01,-131.58C505.58,-121.02 550.83,-107.59 584.46,-97.61"/>
<polygon fill="midnightblue" stroke="midnightblue" points="468.84,-128.28 460.25,-134.48 470.83,-134.99 468.84,-128.28"/>
</g>
<!-- Node8 -->
<g id="node7" class="node">
<title>Node8</title>
<g id="a_node7"><a xlink:href="../../d7/da7/flow__control_8hpp_source.html" target="_top" xlink:title=" ">
<polygon fill="white" stroke="black" points="264,-73 264,-92 408,-92 408,-73 264,-73"/>
<text text-anchor="middle" x="336" y="-80" font-family="Helvetica,sans-Serif" font-size="10.00">vanetza/dcc/flow_control.hpp</text>
</a>
</g>
</g>
<!-- Node2&#45;&gt;Node8 -->
<g id="edge6" class="edge">
<title>Node2&#45;&gt;Node8</title>
<path fill="none" stroke="midnightblue" d="M388.33,-127.67C374.11,-115.67 356.99,-101.22 346.3,-92.19"/>
<polygon fill="midnightblue" stroke="midnightblue" points="386.39,-130.62 396.29,-134.4 390.91,-125.27 386.39,-130.62"/>
</g>
<!-- Node9 -->
<g id="node8" class="node">
<title>Node9</title>
<g id="a_node8"><a xlink:href="../../d5/ddf/mapping_8hpp_source.html" target="_top" xlink:title=" ">
<polygon fill="white" stroke="black" points="426,-73 426,-92 554,-92 554,-73 426,-73"/>
<text text-anchor="middle" x="490" y="-80" font-family="Helvetica,sans-Serif" font-size="10.00">vanetza/dcc/mapping.hpp</text>
</a>
</g>
</g>
<!-- Node2&#45;&gt;Node9 -->
<g id="edge8" class="edge">
<title>Node2&#45;&gt;Node9</title>
<path fill="none" stroke="midnightblue" d="M437.67,-127.67C451.89,-115.67 469.01,-101.22 479.7,-92.19"/>
<polygon fill="midnightblue" stroke="midnightblue" points="435.09,-125.27 429.71,-134.4 439.61,-130.62 435.09,-125.27"/>
</g>
<!-- Node11 -->
<g id="node10" class="node">
<title>Node11</title>
<g id="a_node10"><a xlink:href="../../d2/d3c/proxy__header_8hpp_source.html" target="_top" xlink:title=" ">
<polygon fill="white" stroke="black" points="709.5,-73 709.5,-92 856.5,-92 856.5,-73 709.5,-73"/>
<text text-anchor="middle" x="783" y="-80" font-family="Helvetica,sans-Serif" font-size="10.00">vanetza/net/proxy_header.hpp</text>
</a>
</g>
</g>
<!-- Node2&#45;&gt;Node11 -->
<g id="edge11" class="edge">
<title>Node2&#45;&gt;Node11</title>
<path fill="none" stroke="midnightblue" d="M483.34,-136.2C541.65,-125.99 626.72,-111.08 701,-98 711.96,-96.07 723.75,-93.99 734.87,-92.02"/>
<polygon fill="midnightblue" stroke="midnightblue" points="482.38,-132.81 473.13,-137.98 483.58,-139.71 482.38,-132.81"/>
</g>
<!-- Node5 -->
<g id="node4" class="node">
<title>Node5</title>
<g id="a_node4"><a xlink:href="../../d9/d38/flow__control_8cpp_source.html" target="_top" xlink:title=" ">
<polygon fill="white" stroke="black" points="264,-6 264,-25 408,-25 408,-6 264,-6"/>
<text text-anchor="middle" x="336" y="-13" font-family="Helvetica,sans-Serif" font-size="10.00">vanetza/dcc/flow_control.cpp</text>
</a>
</g>
</g>
<!-- Node4&#45;&gt;Node5 -->
<g id="edge3" class="edge">
<title>Node4&#45;&gt;Node5</title>
<path fill="none" stroke="midnightblue" d="M232.69,-63.13C260.41,-50.62 295.81,-34.64 317.15,-25.01"/>
<polygon fill="midnightblue" stroke="midnightblue" points="230.92,-60.09 223.25,-67.4 233.8,-66.47 230.92,-60.09"/>
</g>
<!-- Node7 -->
<g id="node6" class="node">
<title>Node7</title>
<g id="a_node6"><a xlink:href="../../d6/dd4/g5__link__layer_8cpp_source.html" target="_top" xlink:title=" ">
<polygon fill="white" stroke="black" points="572.5,-0.5 572.5,-30.5 691.5,-30.5 691.5,-0.5 572.5,-0.5"/>
<text text-anchor="start" x="580.5" y="-18.5" font-family="Helvetica,sans-Serif" font-size="10.00">vanetza/access/g5_link</text>
<text text-anchor="middle" x="632" y="-7.5" font-family="Helvetica,sans-Serif" font-size="10.00">_layer.cpp</text>
</a>
</g>
</g>
<!-- Node6&#45;&gt;Node7 -->
<g id="edge5" class="edge">
<title>Node6&#45;&gt;Node7</title>
<path fill="none" stroke="midnightblue" d="M632,-57.11C632,-48.15 632,-38.32 632,-30.58"/>
<polygon fill="midnightblue" stroke="midnightblue" points="628.5,-57.4 632,-67.4 635.5,-57.4 628.5,-57.4"/>
</g>
<!-- Node8&#45;&gt;Node5 -->
<g id="edge7" class="edge">
<title>Node8&#45;&gt;Node5</title>
<path fill="none" stroke="midnightblue" d="M336,-62.54C336,-50.17 336,-34.62 336,-25.13"/>
<polygon fill="midnightblue" stroke="midnightblue" points="332.5,-62.73 336,-72.73 339.5,-62.73 332.5,-62.73"/>
</g>
<!-- Node9&#45;&gt;Node5 -->
<g id="edge9" class="edge">
<title>Node9&#45;&gt;Node5</title>
<path fill="none" stroke="midnightblue" d="M460.26,-68.95C429.77,-56.08 383.16,-36.4 356.53,-25.17"/>
<polygon fill="midnightblue" stroke="midnightblue" points="458.98,-72.2 469.55,-72.87 461.7,-65.76 458.98,-72.2"/>
</g>
<!-- Node10 -->
<g id="node9" class="node">
<title>Node10</title>
<g id="a_node9"><a xlink:href="../../d3/d00/mapping_8cpp_source.html" target="_top" xlink:title=" ">
<polygon fill="white" stroke="black" points="426,-6 426,-25 554,-25 554,-6 426,-6"/>
<text text-anchor="middle" x="490" y="-13" font-family="Helvetica,sans-Serif" font-size="10.00">vanetza/dcc/mapping.cpp</text>
</a>
</g>
</g>
<!-- Node9&#45;&gt;Node10 -->
<g id="edge10" class="edge">
<title>Node9&#45;&gt;Node10</title>
<path fill="none" stroke="midnightblue" d="M490,-62.54C490,-50.17 490,-34.62 490,-25.13"/>
<polygon fill="midnightblue" stroke="midnightblue" points="486.5,-62.73 490,-72.73 493.5,-62.73 486.5,-62.73"/>
</g>
<!-- Node12 -->
<g id="node11" class="node">
<title>Node12</title>
<g id="a_node11"><a xlink:href="../../d2/d02/proxy__header_8cpp_source.html" target="_top" xlink:title=" ">
<polygon fill="white" stroke="black" points="709.5,-6 709.5,-25 856.5,-25 856.5,-6 709.5,-6"/>
<text text-anchor="middle" x="783" y="-13" font-family="Helvetica,sans-Serif" font-size="10.00">vanetza/net/proxy_header.cpp</text>
</a>
</g>
</g>
<!-- Node11&#45;&gt;Node12 -->
<g id="edge12" class="edge">
<title>Node11&#45;&gt;Node12</title>
<path fill="none" stroke="midnightblue" d="M783,-62.54C783,-50.17 783,-34.62 783,-25.13"/>
<polygon fill="midnightblue" stroke="midnightblue" points="779.5,-62.73 783,-72.73 786.5,-62.73 779.5,-62.73"/>
</g>
</g>
</svg>
        <g id="navigator" transform="translate(0 0)" fill="#404254">
                <rect fill="#f2f5e9" fill-opacity="0.5" stroke="#606060" stroke-width=".5" x="0" y="0" width="60" height="60"/>
                <use id="zoomplus" xlink:href="#zoomPlus" x="17" y="9" onmousedown="handleZoom(evt,'in')"/>
                <use id="zoomminus" xlink:href="#zoomMin" x="42" y="9" onmousedown="handleZoom(evt,'out')"/>
                <use id="reset" xlink:href="#resetDef" x="30" y="36" onmousedown="handleReset()"/>
                <g id="arrowUp" xlink:href="#dirArrow" transform="translate(30 24)" onmousedown="handlePan(0,-1)">
                  <use xlink:href="#rim" fill="#404040">
                        <set attributeName="fill" to="#808080" begin="arrowUp.mouseover" end="arrowUp.mouseout"/>
                  </use>
                  <path fill="none" stroke="white" stroke-width="1.5" d="M0,-3.0v7 M-2.5,-0.5L0,-3.0L2.5,-0.5"/>
                </g>
                <g id="arrowRight" xlink:href="#dirArrow" transform="rotate(90) translate(36 -43)" onmousedown="handlePan(1,0)">
                  <use xlink:href="#rim" fill="#404040">
                        <set attributeName="fill" to="#808080" begin="arrowRight.mouseover" end="arrowRight.mouseout"/>
                  </use>
                  <path fill="none" stroke="white" stroke-width="1.5" d="M0,-3.0v7 M-2.5,-0.5L0,-3.0L2.5,-0.5"/>
                </g>
                <g id="arrowDown" xlink:href="#dirArrow" transform="rotate(180) translate(-30 -48)" onmousedown="handlePan(0,1)">
                  <use xlink:href="#rim" fill="#404040">
                        <set attributeName="fill" to="#808080" begin="arrowDown.mouseover" end="arrowDown.mouseout"/>
                  </use>
                  <path fill="none" stroke="white" stroke-width="1.5" d="M0,-3.0v7 M-2.5,-0.5L0,-3.0L2.5,-0.5"/>
                </g>
                <g id="arrowLeft" xlink:href="#dirArrow" transform="rotate(270) translate(-36 17)" onmousedown="handlePan(-1,0)">
                  <use xlink:href="#rim" fill="#404040">
                        <set attributeName="fill" to="#808080" begin="arrowLeft.mouseover" end="arrowLeft.mouseout"/>
                  </use>
                  <path fill="none" stroke="white" stroke-width="1.5" d="M0,-3.0v7 M-2.5,-0.5L0,-3.0L2.5,-0.5"/>
                </g>
        </g>
        <svg viewBox="0 0 15 15" width="100%" height="30px" preserveAspectRatio="xMaxYMin meet">
         <g id="arrow_out" transform="scale(0.3 0.3)">
          <a xlink:href="access__category_8hpp__dep__incl_org.svg" target="_base">
           <rect id="button" ry="5" rx="5" y="6" x="6" height="38" width="38"
                fill="#f2f5e9" fill-opacity="0.5" stroke="#606060" stroke-width="1.0"/>
           <path id="arrow"
             d="M 11.500037,31.436501 C 11.940474,20.09759 22.043105,11.32322 32.158766,21.979434 L 37.068811,17.246167 C 37.068811,17.246167 37.088388,32 37.088388,32 L 22.160133,31.978069 C 22.160133,31.978069 26.997745,27.140456 26.997745,27.140456 C 18.528582,18.264221 13.291696,25.230495 11.500037,31.436501 z"
             style="fill:#404040;"/>
          </a>
         </g>
        </svg>
</svg>
