<?xml version="1.0" encoding="UTF-8" standalone="no"?>
<!DOCTYPE svg PUBLIC "-//W3C//DTD SVG 1.1//EN"
 "http://www.w3.org/Graphics/SVG/1.1/DTD/svg11.dtd">
<!-- Generated by graphviz version 2.42.3 (0)
 -->
<!-- Title: vanetza/access/access_category.hpp Pages: 1 -->
<svg width="862pt" height="173pt"
 viewBox="0.00 0.00 862.00 173.00" xmlns="http://www.w3.org/2000/svg" xmlns:xlink="http://www.w3.org/1999/xlink">
<g id="graph0" class="graph" transform="scale(1 1) rotate(0) translate(4 169)">
<title>vanetza/access/access_category.hpp</title>
<polygon fill="white" stroke="transparent" points="-4,4 -4,-169 858,-169 858,4 -4,4"/>
<!-- Node1 -->
<g id="node1" class="node">
<title>Node1</title>
<g id="a_node1"><a xlink:title=" ">
<polygon fill="#bfbfbf" stroke="black" points="351,-134.5 351,-164.5 470,-164.5 470,-134.5 351,-134.5"/>
<text text-anchor="start" x="359" y="-152.5" font-family="Helvetica,sans-Serif" font-size="10.00">vanetza/access/access</text>
<text text-anchor="middle" x="410.5" y="-141.5" font-family="Helvetica,sans-Serif" font-size="10.00">_category.hpp</text>
</a>
</g>
</g>
<!-- Node2 -->
<g id="node2" class="node">
<title>Node2</title>
<g id="a_node2"><a xlink:href="../../d8/ddd/access__category_8cpp_source.html" target="_top" xlink:title=" ">
<polygon fill="white" stroke="black" points="0,-67.5 0,-97.5 119,-97.5 119,-67.5 0,-67.5"/>
<text text-anchor="start" x="8" y="-85.5" font-family="Helvetica,sans-Serif" font-size="10.00">vanetza/access/access</text>
<text text-anchor="middle" x="59.5" y="-74.5" font-family="Helvetica,sans-Serif" font-size="10.00">_category.cpp</text>
</a>
</g>
</g>
<!-- Node1&#45;&gt;Node2 -->
<g id="edge1" class="edge">
<title>Node1&#45;&gt;Node2</title>
<path fill="none" stroke="midnightblue" d="M340.72,-136.72C283.37,-126.87 200.04,-112.2 127.5,-98 124.78,-97.47 121.99,-96.91 119.18,-96.34"/>
<polygon fill="midnightblue" stroke="midnightblue" points="340.32,-140.2 350.76,-138.44 341.5,-133.3 340.32,-140.2"/>
</g>
<!-- Node3 -->
<g id="node3" class="node">
<title>Node3</title>
<g id="a_node3"><a xlink:href="../../d9/dd4/access_2data__request_8hpp_source.html" target="_top" xlink:title=" ">
<polygon fill="white" stroke="black" points="137,-67.5 137,-97.5 244,-97.5 244,-67.5 137,-67.5"/>
<text text-anchor="start" x="145" y="-85.5" font-family="Helvetica,sans-Serif" font-size="10.00">vanetza/access/data</text>
<text text-anchor="middle" x="190.5" y="-74.5" font-family="Helvetica,sans-Serif" font-size="10.00">_request.hpp</text>
</a>
</g>
</g>
<!-- Node1&#45;&gt;Node3 -->
<g id="edge2" class="edge">
<title>Node1&#45;&gt;Node3</title>
<path fill="none" stroke="midnightblue" d="M353.23,-131.58C317.5,-121.02 272.04,-107.59 238.26,-97.61"/>
<polygon fill="midnightblue" stroke="midnightblue" points="352.45,-135 363.03,-134.48 354.44,-128.29 352.45,-135"/>
</g>
<!-- Node5 -->
<g id="node5" class="node">
<title>Node5</title>
<g id="a_node5"><a xlink:href="../../d1/d84/g5__link__layer_8hpp_source.html" target="_top" xlink:title=" ">
<polygon fill="white" stroke="black" points="570,-67.5 570,-97.5 689,-97.5 689,-67.5 570,-67.5"/>
<text text-anchor="start" x="578" y="-85.5" font-family="Helvetica,sans-Serif" font-size="10.00">vanetza/access/g5_link</text>
<text text-anchor="middle" x="629.5" y="-74.5" font-family="Helvetica,sans-Serif" font-size="10.00">_layer.hpp</text>
</a>
</g>
</g>
<!-- Node1&#45;&gt;Node5 -->
<g id="edge4" class="edge">
<title>Node1&#45;&gt;Node5</title>
<path fill="none" stroke="midnightblue" d="M467.51,-131.58C503.08,-121.02 548.33,-107.59 581.96,-97.61"/>
<polygon fill="midnightblue" stroke="midnightblue" points="466.34,-128.28 457.75,-134.48 468.33,-134.99 466.34,-128.28"/>
</g>
<!-- Node7 -->
<g id="node7" class="node">
<title>Node7</title>
<g id="a_node7"><a xlink:href="../../d7/da7/flow__control_8hpp_source.html" target="_top" xlink:title=" ">
<polygon fill="white" stroke="black" points="262,-73 262,-92 405,-92 405,-73 262,-73"/>
<text text-anchor="middle" x="333.5" y="-80" font-family="Helvetica,sans-Serif" font-size="10.00">vanetza/dcc/flow_control.hpp</text>
</a>
</g>
</g>
<!-- Node1&#45;&gt;Node7 -->
<g id="edge6" class="edge">
<title>Node1&#45;&gt;Node7</title>
<path fill="none" stroke="midnightblue" d="M385.83,-127.67C371.61,-115.67 354.49,-101.22 343.8,-92.19"/>
<polygon fill="midnightblue" stroke="midnightblue" points="383.89,-130.62 393.79,-134.4 388.41,-125.27 383.89,-130.62"/>
</g>
<!-- Node8 -->
<g id="node8" class="node">
<title>Node8</title>
<g id="a_node8"><a xlink:href="../../d5/ddf/mapping_8hpp_source.html" target="_top" xlink:title=" ">
<polygon fill="white" stroke="black" points="423.5,-73 423.5,-92 551.5,-92 551.5,-73 423.5,-73"/>
<text text-anchor="middle" x="487.5" y="-80" font-family="Helvetica,sans-Serif" font-size="10.00">vanetza/dcc/mapping.hpp</text>
</a>
</g>
</g>
<!-- Node1&#45;&gt;Node8 -->
<g id="edge8" class="edge">
<title>Node1&#45;&gt;Node8</title>
<path fill="none" stroke="midnightblue" d="M435.17,-127.67C449.39,-115.67 466.51,-101.22 477.2,-92.19"/>
<polygon fill="midnightblue" stroke="midnightblue" points="432.59,-125.27 427.21,-134.4 437.11,-130.62 432.59,-125.27"/>
</g>
<!-- Node10 -->
<g id="node10" class="node">
<title>Node10</title>
<g id="a_node10"><a xlink:href="../../d2/d3c/proxy__header_8hpp_source.html" target="_top" xlink:title=" ">
<polygon fill="white" stroke="black" points="707,-73 707,-92 854,-92 854,-73 707,-73"/>
<text text-anchor="middle" x="780.5" y="-80" font-family="Helvetica,sans-Serif" font-size="10.00">vanetza/net/proxy_header.hpp</text>
</a>
</g>
</g>
<!-- Node1&#45;&gt;Node10 -->
<g id="edge11" class="edge">
<title>Node1&#45;&gt;Node10</title>
<path fill="none" stroke="midnightblue" d="M480.28,-136.29C538.61,-126.08 623.98,-111.12 698.5,-98 709.46,-96.07 721.25,-93.99 732.37,-92.02"/>
<polygon fill="midnightblue" stroke="midnightblue" points="479.32,-132.91 470.08,-138.08 480.53,-139.8 479.32,-132.91"/>
</g>
<!-- Node4 -->
<g id="node4" class="node">
<title>Node4</title>
<g id="a_node4"><a xlink:href="../../d9/d38/flow__control_8cpp_source.html" target="_top" xlink:title=" ">
<polygon fill="white" stroke="black" points="262,-6 262,-25 405,-25 405,-6 262,-6"/>
<text text-anchor="middle" x="333.5" y="-13" font-family="Helvetica,sans-Serif" font-size="10.00">vanetza/dcc/flow_control.cpp</text>
</a>
</g>
</g>
<!-- Node3&#45;&gt;Node4 -->
<g id="edge3" class="edge">
<title>Node3&#45;&gt;Node4</title>
<path fill="none" stroke="midnightblue" d="M230.91,-63.13C258.43,-50.62 293.59,-34.64 314.78,-25.01"/>
<polygon fill="midnightblue" stroke="midnightblue" points="229.18,-60.07 221.53,-67.4 232.08,-66.44 229.18,-60.07"/>
</g>
<!-- Node6 -->
<g id="node6" class="node">
<title>Node6</title>
<g id="a_node6"><a xlink:href="../../d6/dd4/g5__link__layer_8cpp_source.html" target="_top" xlink:title=" ">
<polygon fill="white" stroke="black" points="570,-0.5 570,-30.5 689,-30.5 689,-0.5 570,-0.5"/>
<text text-anchor="start" x="578" y="-18.5" font-family="Helvetica,sans-Serif" font-size="10.00">vanetza/access/g5_link</text>
<text text-anchor="middle" x="629.5" y="-7.5" font-family="Helvetica,sans-Serif" font-size="10.00">_layer.cpp</text>
</a>
</g>
</g>
<!-- Node5&#45;&gt;Node6 -->
<g id="edge5" class="edge">
<title>Node5&#45;&gt;Node6</title>
<path fill="none" stroke="midnightblue" d="M629.5,-57.11C629.5,-48.15 629.5,-38.32 629.5,-30.58"/>
<polygon fill="midnightblue" stroke="midnightblue" points="626,-57.4 629.5,-67.4 633,-57.4 626,-57.4"/>
</g>
<!-- Node7&#45;&gt;Node4 -->
<g id="edge7" class="edge">
<title>Node7&#45;&gt;Node4</title>
<path fill="none" stroke="midnightblue" d="M333.5,-62.54C333.5,-50.17 333.5,-34.62 333.5,-25.13"/>
<polygon fill="midnightblue" stroke="midnightblue" points="330,-62.73 333.5,-72.73 337,-62.73 330,-62.73"/>
</g>
<!-- Node8&#45;&gt;Node4 -->
<g id="edge9" class="edge">
<title>Node8&#45;&gt;Node4</title>
<path fill="none" stroke="midnightblue" d="M457.76,-68.95C427.27,-56.08 380.66,-36.4 354.03,-25.17"/>
<polygon fill="midnightblue" stroke="midnightblue" points="456.48,-72.2 467.05,-72.87 459.2,-65.76 456.48,-72.2"/>
</g>
<!-- Node9 -->
<g id="node9" class="node">
<title>Node9</title>
<g id="a_node9"><a xlink:href="../../d3/d00/mapping_8cpp_source.html" target="_top" xlink:title=" ">
<polygon fill="white" stroke="black" points="423.5,-6 423.5,-25 551.5,-25 551.5,-6 423.5,-6"/>
<text text-anchor="middle" x="487.5" y="-13" font-family="Helvetica,sans-Serif" font-size="10.00">vanetza/dcc/mapping.cpp</text>
</a>
</g>
</g>
<!-- Node8&#45;&gt;Node9 -->
<g id="edge10" class="edge">
<title>Node8&#45;&gt;Node9</title>
<path fill="none" stroke="midnightblue" d="M487.5,-62.54C487.5,-50.17 487.5,-34.62 487.5,-25.13"/>
<polygon fill="midnightblue" stroke="midnightblue" points="484,-62.73 487.5,-72.73 491,-62.73 484,-62.73"/>
</g>
<!-- Node11 -->
<g id="node11" class="node">
<title>Node11</title>
<g id="a_node11"><a xlink:href="../../d2/d02/proxy__header_8cpp_source.html" target="_top" xlink:title=" ">
<polygon fill="white" stroke="black" points="707,-6 707,-25 854,-25 854,-6 707,-6"/>
<text text-anchor="middle" x="780.5" y="-13" font-family="Helvetica,sans-Serif" font-size="10.00">vanetza/net/proxy_header.cpp</text>
</a>
</g>
</g>
<!-- Node10&#45;&gt;Node11 -->
<g id="edge12" class="edge">
<title>Node10&#45;&gt;Node11</title>
<path fill="none" stroke="midnightblue" d="M780.5,-62.54C780.5,-50.17 780.5,-34.62 780.5,-25.13"/>
<polygon fill="midnightblue" stroke="midnightblue" points="777,-62.73 780.5,-72.73 784,-62.73 777,-62.73"/>
</g>
</g>
</svg>
