<?xml version="1.0" encoding="UTF-8" standalone="no"?>
<!DOCTYPE svg PUBLIC "-//W3C//DTD SVG 1.1//EN"
 "http://www.w3.org/Graphics/SVG/1.1/DTD/svg11.dtd">
<!-- Generated by graphviz version 2.49.3 (0)
 -->
<!-- Title: vanetza/access/access_category.hpp Pages: 1 -->
<!--zoomable 170 -->
<svg id="main" version="1.1" xmlns="http://www.w3.org/2000/svg" xmlns:xlink="http://www.w3.org/1999/xlink" xml:space="preserve" onload="init(evt)">
<style type="text/css"><![CDATA[
.edge:hover path { stroke: red; }
.edge:hover polygon { stroke: red; fill: red; }
]]></style>
<script type="text/javascript"><![CDATA[
var edges = document.getElementsByTagName('g');
if (edges && edges.length) {
  for (var i=0;i<edges.length;i++) {
    if (edges[i].id.substr(0,4)=='edge') {
      edges[i].setAttribute('class','edge');
    }
  }
}
]]></script>
        <defs>
                <circle id="rim" cx="0" cy="0" r="7"/>
                <circle id="rim2" cx="0" cy="0" r="3.5"/>
                <g id="zoomPlus">
                        <use xlink:href="#rim" fill="#404040">
                                <set attributeName="fill" to="#808080" begin="zoomplus.mouseover" end="zoomplus.mouseout"/>
                        </use>
                        <path d="M-4,0h8M0,-4v8" fill="none" stroke="white" stroke-width="1.5" pointer-events="none"/>
                </g>
                <g id="zoomMin">
                        <use xlink:href="#rim" fill="#404040">
                                <set attributeName="fill" to="#808080" begin="zoomminus.mouseover" end="zoomminus.mouseout"/>
                        </use>
                        <path d="M-4,0h8" fill="none" stroke="white" stroke-width="1.5" pointer-events="none"/>
                </g>
                <g id="dirArrow">
                        <path fill="none" stroke="white" stroke-width="1.5" d="M0,-3.0v7 M-2.5,-0.5L0,-3.0L2.5,-0.5"/>
                </g>
               <g id="resetDef">
                       <use xlink:href="#rim2" fill="#404040">
                               <set attributeName="fill" to="#808080" begin="reset.mouseover" end="reset.mouseout"/>
                       </use>
               </g>
        </defs>

<script type="text/javascript">
var viewWidth = 862;
var viewHeight = 170;
var sectionId = 'dynsection-1';
</script>
<script xlink:href="../../svgpan.js"/>
<svg id="graph" class="graph">
<g id="viewport">
<title>vanetza/access/access_category.hpp</title>
<!-- Node1 -->
<g id="node1" class="node">
<title>Node1</title>
<g id="a_node1"><a xlink:title=" ">
<polygon fill="#999999" stroke="#666666" points="470,-162 351,-162 351,-132 470,-132 470,-162"/>
<text text-anchor="start" x="359" y="-150" font-family="Helvetica,sans-Serif" font-size="10.00">vanetza/access/access</text>
<text text-anchor="middle" x="410.5" y="-139" font-family="Helvetica,sans-Serif" font-size="10.00">_category.hpp</text>
</a>
</g>
</g>
<!-- Node2 -->
<g id="node2" class="node">
<title>Node2</title>
<g id="a_node2"><a xlink:href="../../d8/ddd/access__category_8cpp_source.html" target="_top" xlink:title=" ">
<polygon fill="white" stroke="#666666" points="119,-96 0,-96 0,-66 119,-66 119,-96"/>
<text text-anchor="start" x="8" y="-84" font-family="Helvetica,sans-Serif" font-size="10.00">vanetza/access/access</text>
<text text-anchor="middle" x="59.5" y="-73" font-family="Helvetica,sans-Serif" font-size="10.00">_category.cpp</text>
</a>
</g>
</g>
<!-- Node1&#45;&gt;Node2 -->
<g id="edge1" class="edge">
<title>Node1&#45;&gt;Node2</title>
<path fill="none" stroke="#63b8ff" d="M340.74,-134.24C283.4,-124.44 200.08,-109.88 127.5,-96 124.78,-95.48 121.99,-94.94 119.19,-94.39"/>
<polygon fill="#63b8ff" stroke="#63b8ff" points="340.34,-137.72 350.78,-135.95 341.51,-130.82 340.34,-137.72"/>
</g>
<!-- Node3 -->
<g id="node3" class="node">
<title>Node3</title>
<g id="a_node3"><a xlink:href="../../d9/dd4/access_2data__request_8hpp_source.html" target="_top" xlink:title=" ">
<polygon fill="white" stroke="#666666" points="244,-96 137,-96 137,-66 244,-66 244,-96"/>
<text text-anchor="start" x="145" y="-84" font-family="Helvetica,sans-Serif" font-size="10.00">vanetza/access/data</text>
<text text-anchor="middle" x="190.5" y="-73" font-family="Helvetica,sans-Serif" font-size="10.00">_request.hpp</text>
</a>
</g>
</g>
<!-- Node1&#45;&gt;Node3 -->
<g id="edge2" class="edge">
<title>Node1&#45;&gt;Node3</title>
<path fill="none" stroke="#63b8ff" d="M352.48,-129.12C317.01,-118.8 272.17,-105.76 238.67,-96.01"/>
<polygon fill="#63b8ff" stroke="#63b8ff" points="351.64,-132.52 362.22,-131.95 353.6,-125.8 351.64,-132.52"/>
</g>
<!-- Node5 -->
<g id="node5" class="node">
<title>Node5</title>
<g id="a_node5"><a xlink:href="../../d1/d84/g5__link__layer_8hpp_source.html" target="_top" xlink:title=" ">
<polygon fill="white" stroke="#666666" points="689,-96 570,-96 570,-66 689,-66 689,-96"/>
<text text-anchor="start" x="578" y="-84" font-family="Helvetica,sans-Serif" font-size="10.00">vanetza/access/g5_link</text>
<text text-anchor="middle" x="629.5" y="-73" font-family="Helvetica,sans-Serif" font-size="10.00">_layer.hpp</text>
</a>
</g>
</g>
<!-- Node1&#45;&gt;Node5 -->
<g id="edge4" class="edge">
<title>Node1&#45;&gt;Node5</title>
<path fill="none" stroke="#63b8ff" d="M468.26,-129.12C503.57,-118.8 548.2,-105.76 581.55,-96.01"/>
<polygon fill="#63b8ff" stroke="#63b8ff" points="467.18,-125.79 458.56,-131.95 469.14,-132.51 467.18,-125.79"/>
</g>
<!-- Node7 -->
<g id="node7" class="node">
<title>Node7</title>
<g id="a_node7"><a xlink:href="../../d7/da7/flow__control_8hpp_source.html" target="_top" xlink:title=" ">
<polygon fill="white" stroke="#666666" points="405,-90.5 262,-90.5 262,-71.5 405,-71.5 405,-90.5"/>
<text text-anchor="middle" x="333.5" y="-78.5" font-family="Helvetica,sans-Serif" font-size="10.00">vanetza/dcc/flow_control.hpp</text>
</a>
</g>
</g>
<!-- Node1&#45;&gt;Node7 -->
<g id="edge6" class="edge">
<title>Node1&#45;&gt;Node7</title>
<path fill="none" stroke="#63b8ff" d="M385.55,-125.26C371.54,-113.61 354.78,-99.69 344.14,-90.84"/>
<polygon fill="#63b8ff" stroke="#63b8ff" points="383.48,-128.1 393.41,-131.8 387.96,-122.71 383.48,-128.1"/>
</g>
<!-- Node8 -->
<g id="node8" class="node">
<title>Node8</title>
<g id="a_node8"><a xlink:href="../../d5/ddf/mapping_8hpp_source.html" target="_top" xlink:title=" ">
<polygon fill="white" stroke="#666666" points="551.5,-90.5 423.5,-90.5 423.5,-71.5 551.5,-71.5 551.5,-90.5"/>
<text text-anchor="middle" x="487.5" y="-78.5" font-family="Helvetica,sans-Serif" font-size="10.00">vanetza/dcc/mapping.hpp</text>
</a>
</g>
</g>
<!-- Node1&#45;&gt;Node8 -->
<g id="edge8" class="edge">
<title>Node1&#45;&gt;Node8</title>
<path fill="none" stroke="#63b8ff" d="M435.45,-125.26C449.46,-113.61 466.22,-99.69 476.86,-90.84"/>
<polygon fill="#63b8ff" stroke="#63b8ff" points="433.04,-122.71 427.59,-131.8 437.52,-128.1 433.04,-122.71"/>
</g>
<!-- Node10 -->
<g id="node10" class="node">
<title>Node10</title>
<g id="a_node10"><a xlink:href="../../d2/d3c/proxy__header_8hpp_source.html" target="_top" xlink:title=" ">
<polygon fill="white" stroke="#666666" points="854,-90.5 707,-90.5 707,-71.5 854,-71.5 854,-90.5"/>
<text text-anchor="middle" x="780.5" y="-78.5" font-family="Helvetica,sans-Serif" font-size="10.00">vanetza/net/proxy_header.hpp</text>
</a>
</g>
</g>
<!-- Node1&#45;&gt;Node10 -->
<g id="edge11" class="edge">
<title>Node1&#45;&gt;Node10</title>
<path fill="none" stroke="#63b8ff" d="M480.41,-133.91C553.61,-121.25 666.68,-101.69 731.09,-90.55"/>
<polygon fill="#63b8ff" stroke="#63b8ff" points="479.62,-130.49 470.36,-135.65 480.81,-137.39 479.62,-130.49"/>
</g>
<!-- Node4 -->
<g id="node4" class="node">
<title>Node4</title>
<g id="a_node4"><a xlink:href="../../d9/d38/flow__control_8cpp_source.html" target="_top" xlink:title=" ">
<polygon fill="white" stroke="#666666" points="405,-24.5 262,-24.5 262,-5.5 405,-5.5 405,-24.5"/>
<text text-anchor="middle" x="333.5" y="-12.5" font-family="Helvetica,sans-Serif" font-size="10.00">vanetza/dcc/flow_control.cpp</text>
</a>
</g>
</g>
<!-- Node3&#45;&gt;Node4 -->
<g id="edge3" class="edge">
<title>Node3&#45;&gt;Node4</title>
<path fill="none" stroke="#63b8ff" d="M231.21,-61.78C258.55,-49.54 293.32,-33.98 314.47,-24.52"/>
<polygon fill="#63b8ff" stroke="#63b8ff" points="229.58,-58.68 221.88,-65.95 232.44,-65.06 229.58,-58.68"/>
</g>
<!-- Node6 -->
<g id="node6" class="node">
<title>Node6</title>
<g id="a_node6"><a xlink:href="../../d6/dd4/g5__link__layer_8cpp_source.html" target="_top" xlink:title=" ">
<polygon fill="white" stroke="#666666" points="689,-30 570,-30 570,0 689,0 689,-30"/>
<text text-anchor="start" x="578" y="-18" font-family="Helvetica,sans-Serif" font-size="10.00">vanetza/access/g5_link</text>
<text text-anchor="middle" x="629.5" y="-7" font-family="Helvetica,sans-Serif" font-size="10.00">_layer.cpp</text>
</a>
</g>
</g>
<!-- Node5&#45;&gt;Node6 -->
<g id="edge5" class="edge">
<title>Node5&#45;&gt;Node6</title>
<path fill="none" stroke="#63b8ff" d="M629.5,-55.54C629.5,-46.96 629.5,-37.61 629.5,-30.16"/>
<polygon fill="#63b8ff" stroke="#63b8ff" points="626,-55.8 629.5,-65.8 633,-55.8 626,-55.8"/>
</g>
<!-- Node7&#45;&gt;Node4 -->
<g id="edge7" class="edge">
<title>Node7&#45;&gt;Node4</title>
<path fill="none" stroke="#63b8ff" d="M333.5,-61.08C333.5,-49.13 333.5,-34.22 333.5,-24.91"/>
<polygon fill="#63b8ff" stroke="#63b8ff" points="330,-61.37 333.5,-71.37 337,-61.37 330,-61.37"/>
</g>
<!-- Node8&#45;&gt;Node4 -->
<g id="edge9" class="edge">
<title>Node8&#45;&gt;Node4</title>
<path fill="none" stroke="#63b8ff" d="M457.48,-67.52C427.13,-54.91 381.03,-35.75 354.43,-24.7"/>
<polygon fill="#63b8ff" stroke="#63b8ff" points="456.15,-70.76 466.73,-71.37 458.84,-64.3 456.15,-70.76"/>
</g>
<!-- Node9 -->
<g id="node9" class="node">
<title>Node9</title>
<g id="a_node9"><a xlink:href="../../d3/d00/mapping_8cpp_source.html" target="_top" xlink:title=" ">
<polygon fill="white" stroke="#666666" points="551.5,-24.5 423.5,-24.5 423.5,-5.5 551.5,-5.5 551.5,-24.5"/>
<text text-anchor="middle" x="487.5" y="-12.5" font-family="Helvetica,sans-Serif" font-size="10.00">vanetza/dcc/mapping.cpp</text>
</a>
</g>
</g>
<!-- Node8&#45;&gt;Node9 -->
<g id="edge10" class="edge">
<title>Node8&#45;&gt;Node9</title>
<path fill="none" stroke="#63b8ff" d="M487.5,-61.08C487.5,-49.13 487.5,-34.22 487.5,-24.91"/>
<polygon fill="#63b8ff" stroke="#63b8ff" points="484,-61.37 487.5,-71.37 491,-61.37 484,-61.37"/>
</g>
<!-- Node11 -->
<g id="node11" class="node">
<title>Node11</title>
<g id="a_node11"><a xlink:href="../../d2/d02/proxy__header_8cpp_source.html" target="_top" xlink:title=" ">
<polygon fill="white" stroke="#666666" points="854,-24.5 707,-24.5 707,-5.5 854,-5.5 854,-24.5"/>
<text text-anchor="middle" x="780.5" y="-12.5" font-family="Helvetica,sans-Serif" font-size="10.00">vanetza/net/proxy_header.cpp</text>
</a>
</g>
</g>
<!-- Node10&#45;&gt;Node11 -->
<g id="edge12" class="edge">
<title>Node10&#45;&gt;Node11</title>
<path fill="none" stroke="#63b8ff" d="M780.5,-61.08C780.5,-49.13 780.5,-34.22 780.5,-24.91"/>
<polygon fill="#63b8ff" stroke="#63b8ff" points="777,-61.37 780.5,-71.37 784,-61.37 777,-61.37"/>
</g>
</g>
</svg>
        <g id="navigator" transform="translate(0 0)" fill="#404254">
                <rect fill="#f2f5e9" fill-opacity="0.5" stroke="#606060" stroke-width=".5" x="0" y="0" width="60" height="60"/>
                <use id="zoomplus" xlink:href="#zoomPlus" x="17" y="9" onmousedown="handleZoom(evt,'in')"/>
                <use id="zoomminus" xlink:href="#zoomMin" x="42" y="9" onmousedown="handleZoom(evt,'out')"/>
                <use id="reset" xlink:href="#resetDef" x="30" y="36" onmousedown="handleReset()"/>
                <g id="arrowUp" xlink:href="#dirArrow" transform="translate(30 24)" onmousedown="handlePan(0,-1)">
                  <use xlink:href="#rim" fill="#404040">
                        <set attributeName="fill" to="#808080" begin="arrowUp.mouseover" end="arrowUp.mouseout"/>
                  </use>
                  <path fill="none" stroke="white" stroke-width="1.5" d="M0,-3.0v7 M-2.5,-0.5L0,-3.0L2.5,-0.5"/>
                </g>
                <g id="arrowRight" xlink:href="#dirArrow" transform="rotate(90) translate(36 -43)" onmousedown="handlePan(1,0)">
                  <use xlink:href="#rim" fill="#404040">
                        <set attributeName="fill" to="#808080" begin="arrowRight.mouseover" end="arrowRight.mouseout"/>
                  </use>
                  <path fill="none" stroke="white" stroke-width="1.5" d="M0,-3.0v7 M-2.5,-0.5L0,-3.0L2.5,-0.5"/>
                </g>
                <g id="arrowDown" xlink:href="#dirArrow" transform="rotate(180) translate(-30 -48)" onmousedown="handlePan(0,1)">
                  <use xlink:href="#rim" fill="#404040">
                        <set attributeName="fill" to="#808080" begin="arrowDown.mouseover" end="arrowDown.mouseout"/>
                  </use>
                  <path fill="none" stroke="white" stroke-width="1.5" d="M0,-3.0v7 M-2.5,-0.5L0,-3.0L2.5,-0.5"/>
                </g>
                <g id="arrowLeft" xlink:href="#dirArrow" transform="rotate(270) translate(-36 17)" onmousedown="handlePan(-1,0)">
                  <use xlink:href="#rim" fill="#404040">
                        <set attributeName="fill" to="#808080" begin="arrowLeft.mouseover" end="arrowLeft.mouseout"/>
                  </use>
                  <path fill="none" stroke="white" stroke-width="1.5" d="M0,-3.0v7 M-2.5,-0.5L0,-3.0L2.5,-0.5"/>
                </g>
        </g>
        <svg viewBox="0 0 15 15" width="100%" height="30px" preserveAspectRatio="xMaxYMin meet">
         <g id="arrow_out" transform="scale(0.3 0.3)">
          <a xlink:href="access__category_8hpp__dep__incl_org.svg" target="_base">
           <rect id="button" ry="5" rx="5" y="6" x="6" height="38" width="38"
                fill="#f2f5e9" fill-opacity="0.5" stroke="#606060" stroke-width="1.0"/>
           <path id="arrow"
             d="M 11.500037,31.436501 C 11.940474,20.09759 22.043105,11.32322 32.158766,21.979434 L 37.068811,17.246167 C 37.068811,17.246167 37.088388,32 37.088388,32 L 22.160133,31.978069 C 22.160133,31.978069 26.997745,27.140456 26.997745,27.140456 C 18.528582,18.264221 13.291696,25.230495 11.500037,31.436501 z"
             style="fill:#404040;"/>
          </a>
         </g>
        </svg>
</svg>
