<?xml version="1.0" encoding="UTF-8" standalone="no"?>
<!DOCTYPE svg PUBLIC "-//W3C//DTD SVG 1.1//EN"
 "http://www.w3.org/Graphics/SVG/1.1/DTD/svg11.dtd">
<!-- Generated by graphviz version 2.49.3 (0)
 -->
<!-- Title: vanetza::security::v2::header_field_type&lt; HeaderFieldType::Request_Unrecognized_Certificate &gt; Pages: 1 -->
<svg width="190pt" height="244pt"
 viewBox="0.00 0.00 190.00 244.00" xmlns="http://www.w3.org/2000/svg" xmlns:xlink="http://www.w3.org/1999/xlink">
<g id="graph0" class="graph" transform="scale(1 1) rotate(0) translate(4 240)">
<title>vanetza::security::v2::header_field_type&lt; HeaderFieldType::Request_Unrecognized_Certificate &gt;</title>
<!-- Node1 -->
<g id="Node000001" class="node">
<title>Node1</title>
<g id="a_Node000001"><a xlink:title=" ">
<polygon fill="#999999" stroke="transparent" points="136,-82 0,-82 0,0 136,0 136,-82"/>
<text text-anchor="start" x="5" y="-70" font-family="Helvetica,sans-Serif" font-size="10.00">vanetza::security::</text>
<text text-anchor="start" x="5" y="-59" font-family="Helvetica,sans-Serif" font-size="10.00">v2::header_field_type</text>
<text text-anchor="start" x="5" y="-48" font-family="Helvetica,sans-Serif" font-size="10.00">&lt; HeaderFieldType::Request</text>
<text text-anchor="start" x="5" y="-37" font-family="Helvetica,sans-Serif" font-size="10.00">_Unrecognized_Certificate &gt;</text>
<text text-anchor="start" x="66" y="-22" font-family="Helvetica,sans-Serif" font-size="10.00"> </text>
<text text-anchor="start" x="66" y="-7" font-family="Helvetica,sans-Serif" font-size="10.00"> </text>
<polygon fill="#666666" stroke="#666666" points="0,-32 0,-32 136,-32 136,-32 0,-32"/>
<polygon fill="#666666" stroke="#666666" points="0,-17 0,-17 136,-17 136,-17 0,-17"/>
<polygon fill="none" stroke="#666666" points="0,0 0,-82 136,-82 136,0 0,0"/>
</a>
</g>
</g>
<!-- Node2 -->
<g id="Node000002" class="node">
<title>Node2</title>
<g id="a_Node000002"><a xlink:href="../../d9/d3a/structvanetza_1_1security_1_1v2_1_1header__field__type.html" target="_top" xlink:title="resolve type for matching HeaderFieldType">
<polygon fill="white" stroke="transparent" points="120,-236 16,-236 16,-165 120,-165 120,-236"/>
<text text-anchor="start" x="21" y="-223.5" font-family="Helvetica,sans-Serif" font-size="10.00">vanetza::security::</text>
<text text-anchor="start" x="21" y="-212.5" font-family="Helvetica,sans-Serif" font-size="10.00">v2::header_field_type</text>
<text text-anchor="start" x="22" y="-201.5" font-family="Helvetica,sans-Serif" font-size="10.00">&lt; HeaderFieldType &gt;</text>
<text text-anchor="start" x="66" y="-186.5" font-family="Helvetica,sans-Serif" font-size="10.00"> </text>
<text text-anchor="start" x="66" y="-171.5" font-family="Helvetica,sans-Serif" font-size="10.00"> </text>
<polygon fill="#666666" stroke="#666666" points="16,-196.5 16,-196.5 120,-196.5 120,-196.5 16,-196.5"/>
<polygon fill="#666666" stroke="#666666" points="16,-181.5 16,-181.5 120,-181.5 120,-181.5 16,-181.5"/>
<polygon fill="none" stroke="#666666" points="16,-165 16,-236 120,-236 120,-165 16,-165"/>
</a>
</g>
</g>
<!-- Node2&#45;&gt;Node1 -->
<g id="edge1_Node000001_Node000002" class="edge">
<title>Node2&#45;&gt;Node1</title>
<g id="a_edge1_Node000001_Node000002"><a xlink:title=" ">
<path fill="none" stroke="orange" d="M68,-154.79C68,-131.89 68,-104.24 68,-82.04"/>
<polygon fill="orange" stroke="orange" points="64.5,-154.94 68,-164.94 71.5,-154.94 64.5,-154.94"/>
</a>
</g>
<text text-anchor="start" x="71" y="-135.5" font-family="Helvetica,sans-Serif" font-size="10.00" fill="grey">&lt; HeaderFieldType::</text>
<text text-anchor="start" x="71" y="-120.5" font-family="Helvetica,sans-Serif" font-size="10.00" fill="grey">  Request_Unrecognized</text>
<text text-anchor="start" x="71" y="-105.5" font-family="Helvetica,sans-Serif" font-size="10.00" fill="grey">  _Certificate &gt;</text>
</g>
</g>
</svg>
