<?xml version="1.0" encoding="UTF-8" standalone="no"?>
<!DOCTYPE svg PUBLIC "-//W3C//DTD SVG 1.1//EN"
 "http://www.w3.org/Graphics/SVG/1.1/DTD/svg11.dtd">
<!-- Generated by graphviz version 2.49.3 (0)
 -->
<!-- Title: vanetza::security::v3::LocationChecker Pages: 1 -->
<svg width="423pt" height="179pt"
 viewBox="0.00 0.00 422.50 179.00" xmlns="http://www.w3.org/2000/svg" xmlns:xlink="http://www.w3.org/1999/xlink">

<svg id="main" version="1.1" xmlns="http://www.w3.org/2000/svg" xmlns:xlink="http://www.w3.org/1999/xlink" xml:space="preserve">

<style type="text/css"><![CDATA[
.node, .edge {opacity: 0.7;}
.node.selected, .edge.selected {opacity: 1;}
.edge:hover path { stroke: red; }
.edge:hover polygon { stroke: red; fill: red; }
]]></style>
<script type="application/ecmascript" xlink:href="../../svg.min.js"/>
<svg id="graph" class="graph">
<g id="graph0" class="graph" transform="scale(1 1) rotate(0) translate(4 175)">
<title>vanetza::security::v3::LocationChecker</title>
<!-- Node1 -->
<g id="Node000001" class="node">
<title>Node1</title>
<g id="a_Node000001"><a xlink:title=" ">
<polygon fill="#999999" stroke="transparent" points="260,-171 156,-171 156,-96 260,-96 260,-171"/>
<text text-anchor="start" x="163" y="-158.5" font-family="Helvetica,sans-Serif" font-size="10.00">vanetza::security::</text>
<text text-anchor="start" x="163" y="-147.5" font-family="Helvetica,sans-Serif" font-size="10.00">v3::LocationChecker</text>
<text text-anchor="start" x="206" y="-132.5" font-family="Helvetica,sans-Serif" font-size="10.00"> </text>
<text text-anchor="start" x="160" y="-117.5" font-family="Helvetica,sans-Serif" font-size="10.00">+</text>
<text text-anchor="start" x="171" y="-117.5" font-family="Helvetica,sans-Serif" font-size="10.00">valid_at_location()</text>
<text text-anchor="start" x="160" y="-102.5" font-family="Helvetica,sans-Serif" font-size="10.00">+</text>
<text text-anchor="start" x="171" y="-102.5" font-family="Helvetica,sans-Serif" font-size="10.00">~LocationChecker()</text>
<polygon fill="#666666" stroke="#666666" points="156,-142.5 156,-142.5 260,-142.5 260,-142.5 156,-142.5"/>
<polygon fill="#666666" stroke="#666666" points="156,-127.5 156,-127.5 260,-127.5 260,-127.5 156,-127.5"/>
<polygon fill="none" stroke="#666666" points="156,-96 156,-171 260,-171 260,-96 156,-96"/>
</a>
</g>
</g>
<!-- Node2 -->
<g id="Node000002" class="node">
<title>Node2</title>
<g id="a_Node000002"><a xlink:href="../../de/d90/classvanetza_1_1security_1_1v3_1_1AllowLocationChecker.html" target="_top" xlink:title=" ">
<polygon fill="white" stroke="transparent" points="124,-60 0,-60 0,0 124,0 124,-60"/>
<text text-anchor="start" x="5" y="-48" font-family="Helvetica,sans-Serif" font-size="10.00">vanetza::security::</text>
<text text-anchor="start" x="5" y="-37" font-family="Helvetica,sans-Serif" font-size="10.00">v3::AllowLocationChecker</text>
<text text-anchor="start" x="60" y="-22" font-family="Helvetica,sans-Serif" font-size="10.00"> </text>
<text text-anchor="start" x="10.5" y="-7" font-family="Helvetica,sans-Serif" font-size="10.00">+</text>
<text text-anchor="start" x="28" y="-7" font-family="Helvetica,sans-Serif" font-size="10.00">valid_at_location()</text>
<polygon fill="#666666" stroke="#666666" points="0,-32 0,-32 124,-32 124,-32 0,-32"/>
<polygon fill="#666666" stroke="#666666" points="0,-17 0,-17 124,-17 124,-17 0,-17"/>
<polygon fill="none" stroke="#666666" points="0,0 0,-60 124,-60 124,0 0,0"/>
</a>
</g>
</g>
<!-- Node1&#45;&gt;Node2 -->
<g id="edge1_Node000001_Node000002" class="edge">
<title>Node1&#45;&gt;Node2</title>
<g id="a_edge1_Node000001_Node000002"><a xlink:title=" ">
<path fill="none" stroke="#63b8ff" d="M147.21,-90.24C132.63,-80.1 117.38,-69.5 103.87,-60.11"/>
<polygon fill="none" stroke="#63b8ff" points="145.49,-93.31 155.7,-96.14 149.49,-87.56 145.49,-93.31"/>
</a>
</g>
</g>
<!-- Node3 -->
<g id="Node000003" class="node">
<title>Node3</title>
<g id="a_Node000003"><a xlink:href="../../de/d22/classvanetza_1_1security_1_1v3_1_1DefaultLocationChecker.html" target="_top" xlink:title=" ">
<polygon fill="white" stroke="transparent" points="273.5,-60 142.5,-60 142.5,0 273.5,0 273.5,-60"/>
<text text-anchor="start" x="148" y="-48" font-family="Helvetica,sans-Serif" font-size="10.00">vanetza::security::</text>
<text text-anchor="start" x="148" y="-37" font-family="Helvetica,sans-Serif" font-size="10.00">v3::DefaultLocationChecker</text>
<text text-anchor="start" x="206.5" y="-22" font-family="Helvetica,sans-Serif" font-size="10.00"> </text>
<text text-anchor="start" x="155" y="-7" font-family="Helvetica,sans-Serif" font-size="10.00">+</text>
<text text-anchor="start" x="174" y="-7" font-family="Helvetica,sans-Serif" font-size="10.00">valid_at_location()</text>
<polygon fill="#666666" stroke="#666666" points="143,-32 143,-32 274,-32 274,-32 143,-32"/>
<polygon fill="#666666" stroke="#666666" points="143,-17 143,-17 274,-17 274,-17 143,-17"/>
<polygon fill="none" stroke="#666666" points="142.5,0 142.5,-60 273.5,-60 273.5,0 142.5,0"/>
</a>
</g>
</g>
<!-- Node1&#45;&gt;Node3 -->
<g id="edge2_Node000001_Node000003" class="edge">
<title>Node1&#45;&gt;Node3</title>
<g id="a_edge2_Node000001_Node000003"><a xlink:title=" ">
<path fill="none" stroke="#63b8ff" d="M208,-85.79C208,-77.1 208,-68.25 208,-60.27"/>
<polygon fill="none" stroke="#63b8ff" points="204.5,-85.86 208,-95.86 211.5,-85.86 204.5,-85.86"/>
</a>
</g>
</g>
<!-- Node4 -->
<g id="Node000004" class="node">
<title>Node4</title>
<g id="a_Node000004"><a xlink:href="../../d6/d28/classvanetza_1_1security_1_1v3_1_1DenyLocationChecker.html" target="_top" xlink:title=" ">
<polygon fill="white" stroke="transparent" points="414.5,-60 291.5,-60 291.5,0 414.5,0 414.5,-60"/>
<text text-anchor="start" x="297" y="-48" font-family="Helvetica,sans-Serif" font-size="10.00">vanetza::security::</text>
<text text-anchor="start" x="297" y="-37" font-family="Helvetica,sans-Serif" font-size="10.00">v3::DenyLocationChecker</text>
<text text-anchor="start" x="351.5" y="-22" font-family="Helvetica,sans-Serif" font-size="10.00"> </text>
<text text-anchor="start" x="302" y="-7" font-family="Helvetica,sans-Serif" font-size="10.00">+</text>
<text text-anchor="start" x="319" y="-7" font-family="Helvetica,sans-Serif" font-size="10.00">valid_at_location()</text>
<polygon fill="#666666" stroke="#666666" points="292,-32 292,-32 415,-32 415,-32 292,-32"/>
<polygon fill="#666666" stroke="#666666" points="292,-17 292,-17 415,-17 415,-17 292,-17"/>
<polygon fill="none" stroke="#666666" points="291.5,0 291.5,-60 414.5,-60 414.5,0 291.5,0"/>
</a>
</g>
</g>
<!-- Node1&#45;&gt;Node4 -->
<g id="edge3_Node000001_Node000004" class="edge">
<title>Node1&#45;&gt;Node4</title>
<g id="a_edge3_Node000001_Node000004"><a xlink:title=" ">
<path fill="none" stroke="#63b8ff" d="M268.68,-90.02C282.99,-80.01 297.92,-69.55 311.18,-60.27"/>
<polygon fill="none" stroke="#63b8ff" points="266.53,-87.25 260.35,-95.86 270.55,-92.99 266.53,-87.25"/>
</a>
</g>
</g>
</g>
</svg>
</svg>

<style type='text/css'>
<![CDATA[
[data-mouse-over-selected='false'] { opacity: 0.7; }
[data-mouse-over-selected='true']  { opacity: 1.0; }
]]>
</style>
<script type="application/ecmascript"><![CDATA[
document.addEventListener('DOMContentLoaded', (event) => {
  highlightEdges();
  highlightAdjacentNodes();
});
]]></script>
</svg>
