<?xml version="1.0" encoding="UTF-8" standalone="no"?>
<!DOCTYPE svg PUBLIC "-//W3C//DTD SVG 1.1//EN"
 "http://www.w3.org/Graphics/SVG/1.1/DTD/svg11.dtd">
<!-- Generated by graphviz version 2.42.3 (0)
 -->
<!-- Title: vanetza::geonet::Timestamp Pages: 1 -->
<svg width="148pt" height="292pt"
 viewBox="0.00 0.00 148.00 292.00" xmlns="http://www.w3.org/2000/svg" xmlns:xlink="http://www.w3.org/1999/xlink">
<g id="graph0" class="graph" transform="scale(1 1) rotate(0) translate(4 288)">
<title>vanetza::geonet::Timestamp</title>
<polygon fill="white" stroke="transparent" points="-4,4 -4,-288 144,-288 144,4 -4,4"/>
<!-- Node1 -->
<g id="node1" class="node">
<title>Node1</title>
<g id="a_node1"><a xlink:title=" ">
<polygon fill="#bfbfbf" stroke="black" points="0,-0.5 0,-178.5 140,-178.5 140,-0.5 0,-0.5"/>
<text text-anchor="middle" x="70" y="-166.5" font-family="Helvetica,sans-Serif" font-size="10.00">vanetza::geonet::Timestamp</text>
<polyline fill="none" stroke="black" points="0,-159.5 140,-159.5 "/>
<text text-anchor="start" x="8" y="-147.5" font-family="Helvetica,sans-Serif" font-size="10.00">&#45; m_timestamp</text>
<polyline fill="none" stroke="black" points="0,-140.5 140,-140.5 "/>
<text text-anchor="start" x="8" y="-128.5" font-family="Helvetica,sans-Serif" font-size="10.00">+ Timestamp()</text>
<text text-anchor="start" x="8" y="-117.5" font-family="Helvetica,sans-Serif" font-size="10.00">+ Timestamp()</text>
<text text-anchor="start" x="8" y="-106.5" font-family="Helvetica,sans-Serif" font-size="10.00">+ Timestamp()</text>
<text text-anchor="start" x="8" y="-95.5" font-family="Helvetica,sans-Serif" font-size="10.00">+ Timestamp()</text>
<text text-anchor="start" x="8" y="-84.5" font-family="Helvetica,sans-Serif" font-size="10.00">+ raw()</text>
<text text-anchor="start" x="8" y="-73.5" font-family="Helvetica,sans-Serif" font-size="10.00">+ quantity()</text>
<text text-anchor="start" x="8" y="-62.5" font-family="Helvetica,sans-Serif" font-size="10.00">+ operator+=()</text>
<text text-anchor="start" x="8" y="-51.5" font-family="Helvetica,sans-Serif" font-size="10.00">+ operator&#45;=()</text>
<text text-anchor="start" x="8" y="-40.5" font-family="Helvetica,sans-Serif" font-size="10.00">+ before()</text>
<text text-anchor="start" x="8" y="-29.5" font-family="Helvetica,sans-Serif" font-size="10.00">+ after()</text>
<text text-anchor="start" x="8" y="-18.5" font-family="Helvetica,sans-Serif" font-size="10.00">+ millisecond()</text>
<text text-anchor="start" x="8" y="-7.5" font-family="Helvetica,sans-Serif" font-size="10.00">+ start_time()</text>
</a>
</g>
</g>
<!-- Node2 -->
<g id="node2" class="node">
<title>Node2</title>
<g id="a_node2"><a xlink:title=" ">
<polygon fill="white" stroke="#bfbfbf" points="15,-215.5 15,-283.5 125,-283.5 125,-215.5 15,-215.5"/>
<text text-anchor="start" x="23" y="-271.5" font-family="Helvetica,sans-Serif" font-size="10.00">boost::totally_ordered</text>
<text text-anchor="middle" x="70" y="-260.5" font-family="Helvetica,sans-Serif" font-size="10.00">&lt; Timestamp &gt;</text>
<polyline fill="none" stroke="#bfbfbf" points="15,-253.5 125,-253.5 "/>
<text text-anchor="middle" x="70" y="-241.5" font-family="Helvetica,sans-Serif" font-size="10.00"> </text>
<polyline fill="none" stroke="#bfbfbf" points="15,-234.5 125,-234.5 "/>
<text text-anchor="middle" x="70" y="-222.5" font-family="Helvetica,sans-Serif" font-size="10.00"> </text>
</a>
</g>
</g>
<!-- Node2&#45;&gt;Node1 -->
<g id="edge1" class="edge">
<title>Node2&#45;&gt;Node1</title>
<path fill="none" stroke="midnightblue" d="M70,-205.19C70,-196.83 70,-187.8 70,-178.59"/>
<polygon fill="none" stroke="midnightblue" points="66.5,-205.38 70,-215.38 73.5,-205.38 66.5,-205.38"/>
</g>
</g>
</svg>
