<?xml version="1.0" encoding="UTF-8" standalone="no"?>
<!DOCTYPE svg PUBLIC "-//W3C//DTD SVG 1.1//EN"
 "http://www.w3.org/Graphics/SVG/1.1/DTD/svg11.dtd">
<!-- Generated by graphviz version 14.1.2 (0)
 -->
<!-- Title: vanetza::security::v3::StraightSignService Pages: 1 -->
<svg width="131pt" height="262pt"
 viewBox="0.00 0.00 131.00 262.00" xmlns="http://www.w3.org/2000/svg" xmlns:xlink="http://www.w3.org/1999/xlink">
<g id="graph0" class="graph" transform="scale(1 1) rotate(0) translate(4 257.75)">
<title>vanetza::security::v3::StraightSignService</title>
<!-- Node1 -->
<g id="Node000001" class="node">
<title>Node1</title>
<g id="a_Node000001"><a xlink:title=" ">
<polygon fill="#999999" stroke="none" points="123,-134 0,-134 0,0 123,0 123,-134"/>
<text xml:space="preserve" text-anchor="start" x="4.88" y="-120.5" font-family="Helvetica,sans-Serif" font-size="10.00">vanetza::security::</text>
<text xml:space="preserve" text-anchor="start" x="4.88" y="-107.75" font-family="Helvetica,sans-Serif" font-size="10.00">v3::StraightSignService</text>
<text xml:space="preserve" text-anchor="start" x="6.25" y="-91" font-family="Helvetica,sans-Serif" font-size="10.00">&#45;</text>
<text xml:space="preserve" text-anchor="start" x="16.25" y="-91" font-family="Helvetica,sans-Serif" font-size="10.00">m_certificates</text>
<text xml:space="preserve" text-anchor="start" x="6.25" y="-74.25" font-family="Helvetica,sans-Serif" font-size="10.00">&#45;</text>
<text xml:space="preserve" text-anchor="start" x="16.25" y="-74.25" font-family="Helvetica,sans-Serif" font-size="10.00">m_backend</text>
<text xml:space="preserve" text-anchor="start" x="6.25" y="-57.5" font-family="Helvetica,sans-Serif" font-size="10.00">&#45;</text>
<text xml:space="preserve" text-anchor="start" x="16.25" y="-57.5" font-family="Helvetica,sans-Serif" font-size="10.00">m_policy</text>
<text xml:space="preserve" text-anchor="start" x="6.25" y="-40.75" font-family="Helvetica,sans-Serif" font-size="10.00">&#45;</text>
<text xml:space="preserve" text-anchor="start" x="16.25" y="-40.75" font-family="Helvetica,sans-Serif" font-size="10.00">m_validator</text>
<text xml:space="preserve" text-anchor="start" x="4" y="-24" font-family="Helvetica,sans-Serif" font-size="10.00">+</text>
<text xml:space="preserve" text-anchor="start" x="16.25" y="-24" font-family="Helvetica,sans-Serif" font-size="10.00">StraightSignService()</text>
<text xml:space="preserve" text-anchor="start" x="4" y="-7.25" font-family="Helvetica,sans-Serif" font-size="10.00">+</text>
<text xml:space="preserve" text-anchor="start" x="16.25" y="-7.25" font-family="Helvetica,sans-Serif" font-size="10.00">sign()</text>
<polygon fill="#666666" stroke="#666666" points="0,-102.5 0,-102.5 123,-102.5 123,-102.5 0,-102.5"/>
<polygon fill="#666666" stroke="#666666" points="0,-35.5 0,-35.5 14.25,-35.5 14.25,-35.5 0,-35.5"/>
<polygon fill="#666666" stroke="#666666" points="14.25,-35.5 14.25,-35.5 123,-35.5 123,-35.5 14.25,-35.5"/>
<polygon fill="none" stroke="#666666" points="0,0 0,-134 123,-134 123,0 0,0"/>
</a>
</g>
</g>
<!-- Node2 -->
<g id="Node000002" class="node">
<title>Node2</title>
<g id="a_Node000002"><a xlink:href="../../de/d08/classvanetza_1_1security_1_1SignService.html" target="_top" xlink:title=" ">
<polygon fill="white" stroke="none" points="110.12,-253.75 12.88,-253.75 12.88,-170 110.12,-170 110.12,-253.75"/>
<text xml:space="preserve" text-anchor="start" x="16.88" y="-240.25" font-family="Helvetica,sans-Serif" font-size="10.00">vanetza::security::</text>
<text xml:space="preserve" text-anchor="start" x="33" y="-227.5" font-family="Helvetica,sans-Serif" font-size="10.00">SignService</text>
<text xml:space="preserve" text-anchor="start" x="60" y="-210.75" font-family="Helvetica,sans-Serif" font-size="10.00"> </text>
<text xml:space="preserve" text-anchor="start" x="17.94" y="-194" font-family="Helvetica,sans-Serif" font-size="10.00">+</text>
<text xml:space="preserve" text-anchor="start" x="31.25" y="-194" font-family="Helvetica,sans-Serif" font-size="10.00">~SignService()</text>
<text xml:space="preserve" text-anchor="start" x="17.94" y="-177.25" font-family="Helvetica,sans-Serif" font-size="10.00">+</text>
<text xml:space="preserve" text-anchor="start" x="31.25" y="-177.25" font-family="Helvetica,sans-Serif" font-size="10.00">sign()</text>
<polygon fill="#666666" stroke="#666666" points="12.88,-222.25 12.88,-222.25 110.12,-222.25 110.12,-222.25 12.88,-222.25"/>
<polygon fill="#666666" stroke="#666666" points="12.88,-205.5 12.88,-205.5 110.12,-205.5 110.12,-205.5 12.88,-205.5"/>
<polygon fill="none" stroke="#666666" points="12.88,-170 12.88,-253.75 110.12,-253.75 110.12,-170 12.88,-170"/>
</a>
</g>
</g>
<!-- Node2&#45;&gt;Node1 -->
<g id="edge1_Node000001_Node000002" class="edge">
<title>Node2&#45;&gt;Node1</title>
<g id="a_edge1_Node000001_Node000002"><a xlink:title=" ">
<path fill="none" stroke="#63b8ff" d="M61.5,-159.03C61.5,-150.83 61.5,-142.26 61.5,-133.8"/>
<polygon fill="none" stroke="#63b8ff" points="58,-158.8 61.5,-168.8 65,-158.8 58,-158.8"/>
</a>
</g>
</g>
</g>
</svg>
