<?xml version="1.0" encoding="UTF-8" standalone="no"?>
<!DOCTYPE svg PUBLIC "-//W3C//DTD SVG 1.1//EN"
 "http://www.w3.org/Graphics/SVG/1.1/DTD/svg11.dtd">
<!-- Generated by graphviz version 2.42.1 (0)
 -->
<!-- Title: vanetza Pages: 1 -->
<svg width="886pt" height="148pt"
 viewBox="0.00 0.00 886.00 148.00" xmlns="http://www.w3.org/2000/svg" xmlns:xlink="http://www.w3.org/1999/xlink">
<g id="graph0" class="graph" transform="scale(1 1) rotate(0) translate(4 144)">
<title>vanetza</title>
<polygon fill="white" stroke="transparent" points="-4,4 -4,-144 882,-144 882,4 -4,4"/>
<g id="clust1" class="cluster">
<title>clusterdir_edefd300a084f7114123c5e0d2ea07a3</title>
<g id="a_clust1"><a xlink:href="dir_edefd300a084f7114123c5e0d2ea07a3.html" target="_top">
<polygon fill="#eeeeff" stroke="black" points="8,-8 8,-132 870,-132 870,-8 8,-8"/>
</a>
</g>
</g>
<!-- dir_edefd300a084f7114123c5e0d2ea07a3 -->
<g id="node1" class="node">
<title>dir_edefd300a084f7114123c5e0d2ea07a3</title>
<text text-anchor="middle" x="835" y="-103.5" font-family="Helvetica,sans-Serif" font-size="10.00">vanetza</text>
</g>
<!-- dir_09064ab19e874383b51aaf97c28aa477 -->
<g id="node2" class="node">
<title>dir_09064ab19e874383b51aaf97c28aa477</title>
<g id="a_node2"><a xlink:href="dir_09064ab19e874383b51aaf97c28aa477.html" target="_top" xlink:title="access">
<polygon fill="white" stroke="black" points="358,-52 304,-52 304,-16 358,-16 358,-52"/>
<text text-anchor="middle" x="331" y="-31.5" font-family="Helvetica,sans-Serif" font-size="10.00">access</text>
</a>
</g>
</g>
<!-- dir_e5fa22832bf2d329923ada9f57e017a3 -->
<g id="node3" class="node">
<title>dir_e5fa22832bf2d329923ada9f57e017a3</title>
<g id="a_node3"><a xlink:href="dir_e5fa22832bf2d329923ada9f57e017a3.html" target="_top" xlink:title="asio">
<polygon fill="white" stroke="black" points="790,-124 736,-124 736,-88 790,-88 790,-124"/>
<text text-anchor="middle" x="763" y="-103.5" font-family="Helvetica,sans-Serif" font-size="10.00">asio</text>
</a>
</g>
</g>
<!-- dir_5ec4e2f36303eaf82f5c0be58696df55 -->
<g id="node4" class="node">
<title>dir_5ec4e2f36303eaf82f5c0be58696df55</title>
<g id="a_node4"><a xlink:href="dir_5ec4e2f36303eaf82f5c0be58696df55.html" target="_top" xlink:title="asn1">
<polygon fill="white" stroke="black" points="718,-124 664,-124 664,-88 718,-88 718,-124"/>
<text text-anchor="middle" x="691" y="-103.5" font-family="Helvetica,sans-Serif" font-size="10.00">asn1</text>
</a>
</g>
</g>
<!-- dir_4620ccd0126066ad2c3368675d33ad63 -->
<g id="node5" class="node">
<title>dir_4620ccd0126066ad2c3368675d33ad63</title>
<g id="a_node5"><a xlink:href="dir_4620ccd0126066ad2c3368675d33ad63.html" target="_top" xlink:title="btp">
<polygon fill="white" stroke="black" points="646,-124 592,-124 592,-88 646,-88 646,-124"/>
<text text-anchor="middle" x="619" y="-103.5" font-family="Helvetica,sans-Serif" font-size="10.00">btp</text>
</a>
</g>
</g>
<!-- dir_2d6685d782a795e372ebfb3337bfbcbc -->
<g id="node6" class="node">
<title>dir_2d6685d782a795e372ebfb3337bfbcbc</title>
<g id="a_node6"><a xlink:href="dir_2d6685d782a795e372ebfb3337bfbcbc.html" target="_top" xlink:title="common">
<polygon fill="white" stroke="black" points="574,-124 520,-124 520,-88 574,-88 574,-124"/>
<text text-anchor="middle" x="547" y="-103.5" font-family="Helvetica,sans-Serif" font-size="10.00">common</text>
</a>
</g>
</g>
<!-- dir_9ccc8a18135134cf87681c1754d588df -->
<g id="node7" class="node">
<title>dir_9ccc8a18135134cf87681c1754d588df</title>
<g id="a_node7"><a xlink:href="dir_9ccc8a18135134cf87681c1754d588df.html" target="_top" xlink:title="dcc">
<polygon fill="white" stroke="black" points="502,-124 448,-124 448,-88 502,-88 502,-124"/>
<text text-anchor="middle" x="475" y="-103.5" font-family="Helvetica,sans-Serif" font-size="10.00">dcc</text>
</a>
</g>
</g>
<!-- dir_9ccc8a18135134cf87681c1754d588df&#45;&gt;dir_09064ab19e874383b51aaf97c28aa477 -->
<g id="edge1" class="edge">
<title>dir_9ccc8a18135134cf87681c1754d588df&#45;&gt;dir_09064ab19e874383b51aaf97c28aa477</title>
<path fill="none" stroke="black" d="M447.91,-91.83C425.23,-80.81 392.64,-64.97 367.63,-52.81"/>
<polygon fill="black" stroke="black" points="368.98,-49.57 358.45,-48.35 365.92,-55.87 368.98,-49.57"/>
<g id="a_edge1&#45;headlabel"><a xlink:href="dir_000004_000002.html" target="_top" xlink:title="2">
<text text-anchor="middle" x="373.45" y="-46.09" font-family="Helvetica,sans-Serif" font-size="10.00">2</text>
</a>
</g>
</g>
<!-- dir_1964f9f2074b1f2dad9205cbe61245ad -->
<g id="node8" class="node">
<title>dir_1964f9f2074b1f2dad9205cbe61245ad</title>
<g id="a_node8"><a xlink:href="dir_1964f9f2074b1f2dad9205cbe61245ad.html" target="_top" xlink:title="facilities">
<polygon fill="white" stroke="black" points="430,-124 376,-124 376,-88 430,-88 430,-124"/>
<text text-anchor="middle" x="403" y="-103.5" font-family="Helvetica,sans-Serif" font-size="10.00">facilities</text>
</a>
</g>
</g>
<!-- dir_b0af8d58c5e1a50def071c5615044c4f -->
<g id="node9" class="node">
<title>dir_b0af8d58c5e1a50def071c5615044c4f</title>
<g id="a_node9"><a xlink:href="dir_b0af8d58c5e1a50def071c5615044c4f.html" target="_top" xlink:title="geonet">
<polygon fill="white" stroke="black" points="358,-124 304,-124 304,-88 358,-88 358,-124"/>
<text text-anchor="middle" x="331" y="-103.5" font-family="Helvetica,sans-Serif" font-size="10.00">geonet</text>
</a>
</g>
</g>
<!-- dir_49fb97734d53c24be7bd943288e98f7c -->
<g id="node10" class="node">
<title>dir_49fb97734d53c24be7bd943288e98f7c</title>
<g id="a_node10"><a xlink:href="dir_49fb97734d53c24be7bd943288e98f7c.html" target="_top" xlink:title="gnss">
<polygon fill="white" stroke="black" points="286,-124 232,-124 232,-88 286,-88 286,-124"/>
<text text-anchor="middle" x="259" y="-103.5" font-family="Helvetica,sans-Serif" font-size="10.00">gnss</text>
</a>
</g>
</g>
<!-- dir_1e9006f1c48aaaedd042dda5201c799b -->
<g id="node11" class="node">
<title>dir_1e9006f1c48aaaedd042dda5201c799b</title>
<g id="a_node11"><a xlink:href="dir_1e9006f1c48aaaedd042dda5201c799b.html" target="_top" xlink:title="net">
<polygon fill="white" stroke="black" points="214,-124 160,-124 160,-88 214,-88 214,-124"/>
<text text-anchor="middle" x="187" y="-103.5" font-family="Helvetica,sans-Serif" font-size="10.00">net</text>
</a>
</g>
</g>
<!-- dir_1e9006f1c48aaaedd042dda5201c799b&#45;&gt;dir_09064ab19e874383b51aaf97c28aa477 -->
<g id="edge2" class="edge">
<title>dir_1e9006f1c48aaaedd042dda5201c799b&#45;&gt;dir_09064ab19e874383b51aaf97c28aa477</title>
<path fill="none" stroke="black" d="M214.09,-91.83C236.77,-80.81 269.36,-64.97 294.37,-52.81"/>
<polygon fill="black" stroke="black" points="296.08,-55.87 303.55,-48.35 293.02,-49.57 296.08,-55.87"/>
<g id="a_edge2&#45;headlabel"><a xlink:href="dir_000010_000002.html" target="_top" xlink:title="1">
<text text-anchor="middle" x="294.09" y="-57.49" font-family="Helvetica,sans-Serif" font-size="10.00">1</text>
</a>
</g>
</g>
<!-- dir_ce407276b81b6cc94fee3f5e0d561f0a -->
<g id="node12" class="node">
<title>dir_ce407276b81b6cc94fee3f5e0d561f0a</title>
<g id="a_node12"><a xlink:href="dir_ce407276b81b6cc94fee3f5e0d561f0a.html" target="_top" xlink:title="security">
<polygon fill="white" stroke="black" points="142,-124 88,-124 88,-88 142,-88 142,-124"/>
<text text-anchor="middle" x="115" y="-103.5" font-family="Helvetica,sans-Serif" font-size="10.00">security</text>
</a>
</g>
</g>
<!-- dir_554b7c3b0b057056732def01c4145c0d -->
<g id="node13" class="node">
<title>dir_554b7c3b0b057056732def01c4145c0d</title>
<g id="a_node13"><a xlink:href="dir_554b7c3b0b057056732def01c4145c0d.html" target="_top" xlink:title="units">
<polygon fill="white" stroke="black" points="70,-124 16,-124 16,-88 70,-88 70,-124"/>
<text text-anchor="middle" x="43" y="-103.5" font-family="Helvetica,sans-Serif" font-size="10.00">units</text>
</a>
</g>
</g>
</g>
</svg>
