<?xml version="1.0" encoding="UTF-8" standalone="no"?>
<!DOCTYPE svg PUBLIC "-//W3C//DTD SVG 1.1//EN"
 "http://www.w3.org/Graphics/SVG/1.1/DTD/svg11.dtd">
<!-- Generated by graphviz version 2.49.3 (0)
 -->
<!-- Title: vanetza/net Pages: 1 -->
<svg width="94pt" height="167pt"
 viewBox="0.00 0.00 94.00 167.00" xmlns="http://www.w3.org/2000/svg" xmlns:xlink="http://www.w3.org/1999/xlink">
<g id="graph0" class="graph" transform="scale(1 1) rotate(0) translate(4 163)">
<title>vanetza/net</title>
<polygon fill="white" stroke="transparent" points="-4,4 -4,-163 90,-163 90,4 -4,4"/>
<g id="clust1" class="cluster">
<title>clusterdir_edefd300a084f7114123c5e0d2ea07a3</title>
<g id="a_clust1"><a xlink:href="dir_edefd300a084f7114123c5e0d2ea07a3.html" target="_top" xlink:title="vanetza">
<polygon fill="#f0f1f3" stroke="#404040" stroke-dasharray="5,2" points="8,-8 8,-151 78,-151 78,-8 8,-8"/>
<text text-anchor="middle" x="43" y="-139" font-family="Helvetica,sans-Serif" font-size="10.00">vanetza</text>
</a>
</g>
</g>
<!-- dir_09064ab19e874383b51aaf97c28aa477 -->
<g id="node1" class="node">
<title>dir_09064ab19e874383b51aaf97c28aa477</title>
<g id="a_node1"><a xlink:href="dir_09064ab19e874383b51aaf97c28aa477.html" target="_top" xlink:title="access">
<polygon fill="#b3bac6" stroke="#404040" points="70,-52 16,-52 16,-16 70,-16 70,-52"/>
<text text-anchor="middle" x="43" y="-31.5" font-family="Helvetica,sans-Serif" font-size="10.00">access</text>
</a>
</g>
</g>
<!-- dir_1e9006f1c48aaaedd042dda5201c799b -->
<g id="node2" class="node">
<title>dir_1e9006f1c48aaaedd042dda5201c799b</title>
<g id="a_node2"><a xlink:href="dir_1e9006f1c48aaaedd042dda5201c799b.html" target="_top" xlink:title="net">
<polygon fill="#f0f1f3" stroke="#404040" stroke-width="2" points="70,-124 16,-124 16,-88 70,-88 70,-124"/>
<text text-anchor="middle" x="43" y="-103.5" font-family="Helvetica,sans-Serif" font-size="10.00">net</text>
</a>
</g>
</g>
<!-- dir_1e9006f1c48aaaedd042dda5201c799b&#45;&gt;dir_09064ab19e874383b51aaf97c28aa477 -->
<g id="edge1" class="edge">
<title>dir_1e9006f1c48aaaedd042dda5201c799b&#45;&gt;dir_09064ab19e874383b51aaf97c28aa477</title>
<path fill="none" stroke="black" d="M43,-87.7C43,-79.98 43,-70.71 43,-62.11"/>
<polygon fill="black" stroke="black" points="46.5,-62.1 43,-52.1 39.5,-62.1 46.5,-62.1"/>
<g id="a_edge1&#45;headlabel"><a xlink:href="dir_000009_000000.html" target="_top" xlink:title="1">
<text text-anchor="middle" x="49.34" y="-63.2" font-family="Helvetica,sans-Serif" font-size="10.00">1</text>
</a>
</g>
</g>
</g>
</svg>
