<?xml version="1.0" encoding="UTF-8" standalone="no"?>
<!DOCTYPE svg PUBLIC "-//W3C//DTD SVG 1.1//EN"
 "http://www.w3.org/Graphics/SVG/1.1/DTD/svg11.dtd">
<!-- Generated by graphviz version 2.49.3 (0)
 -->
<!-- Title: Graphical Class Hierarchy Pages: 1 -->
<svg width="284pt" height="230pt"
 viewBox="0.00 0.00 284.00 230.00" xmlns="http://www.w3.org/2000/svg" xmlns:xlink="http://www.w3.org/1999/xlink">
<g id="graph0" class="graph" transform="scale(1 1) rotate(0) translate(4 226)">
<title>Graphical Class Hierarchy</title>
<!-- Node0 -->
<g id="node1" class="node">
<title>Node0</title>
<g id="a_node1"><a xlink:title=" ">
<polygon fill="#e0e0e0" stroke="#999999" points="100,-120.5 0,-120.5 0,-101.5 100,-101.5 100,-120.5"/>
<text text-anchor="middle" x="50" y="-108.5" font-family="Helvetica,sans-Serif" font-size="10.00">boost::noncopyable</text>
</a>
</g>
</g>
<!-- Node1 -->
<g id="node2" class="node">
<title>Node1</title>
<g id="a_node2"><a xlink:href="d1/d9d/classvanetza_1_1security_1_1openssl_1_1BigNumber.html" target="_top" xlink:title=" ">
<polygon fill="white" stroke="#666666" points="258.5,-222 153.5,-222 153.5,-192 258.5,-192 258.5,-222"/>
<text text-anchor="start" x="161.5" y="-210" font-family="Helvetica,sans-Serif" font-size="10.00">vanetza::security::</text>
<text text-anchor="middle" x="206" y="-199" font-family="Helvetica,sans-Serif" font-size="10.00">openssl::BigNumber</text>
</a>
</g>
</g>
<!-- Node0&#45;&gt;Node1 -->
<g id="edge1" class="edge">
<title>Node0&#45;&gt;Node1</title>
<path fill="none" stroke="#8b1a1a" d="M67.13,-127.88C83.26,-143.94 109.44,-167.84 136,-183 141.84,-186.33 148.22,-189.31 154.66,-191.95"/>
<polygon fill="#8b1a1a" stroke="#8b1a1a" points="69.57,-125.36 60.06,-120.7 64.58,-130.28 69.57,-125.36"/>
</g>
<!-- Node2 -->
<g id="node3" class="node">
<title>Node2</title>
<g id="a_node3"><a xlink:href="d3/d61/classvanetza_1_1security_1_1openssl_1_1BigNumberContext.html" target="_top" xlink:title=" ">
<polygon fill="white" stroke="#666666" points="276,-174 136,-174 136,-144 276,-144 276,-174"/>
<text text-anchor="start" x="144" y="-162" font-family="Helvetica,sans-Serif" font-size="10.00">vanetza::security::</text>
<text text-anchor="middle" x="206" y="-151" font-family="Helvetica,sans-Serif" font-size="10.00">openssl::BigNumberContext</text>
</a>
</g>
</g>
<!-- Node0&#45;&gt;Node2 -->
<g id="edge2" class="edge">
<title>Node0&#45;&gt;Node2</title>
<path fill="none" stroke="#8b1a1a" d="M91.52,-123.63C111.5,-129.86 135.73,-137.41 156.67,-143.94"/>
<polygon fill="#8b1a1a" stroke="#8b1a1a" points="92.38,-120.23 81.79,-120.6 90.3,-126.92 92.38,-120.23"/>
</g>
<!-- Node3 -->
<g id="node4" class="node">
<title>Node3</title>
<g id="a_node4"><a xlink:href="d0/dd1/classvanetza_1_1security_1_1openssl_1_1Group.html" target="_top" xlink:title=" ">
<polygon fill="white" stroke="#666666" points="254,-126 158,-126 158,-96 254,-96 254,-126"/>
<text text-anchor="start" x="166" y="-114" font-family="Helvetica,sans-Serif" font-size="10.00">vanetza::security::</text>
<text text-anchor="middle" x="206" y="-103" font-family="Helvetica,sans-Serif" font-size="10.00">openssl::Group</text>
</a>
</g>
</g>
<!-- Node0&#45;&gt;Node3 -->
<g id="edge3" class="edge">
<title>Node0&#45;&gt;Node3</title>
<path fill="none" stroke="#8b1a1a" d="M110.32,-111C126.08,-111 142.88,-111 157.89,-111"/>
<polygon fill="#8b1a1a" stroke="#8b1a1a" points="110.15,-107.5 100.15,-111 110.15,-114.5 110.15,-107.5"/>
</g>
<!-- Node4 -->
<g id="node5" class="node">
<title>Node4</title>
<g id="a_node5"><a xlink:href="d2/d5b/classvanetza_1_1security_1_1openssl_1_1Point.html" target="_top" xlink:title=" ">
<polygon fill="white" stroke="#666666" points="254,-78 158,-78 158,-48 254,-48 254,-78"/>
<text text-anchor="start" x="166" y="-66" font-family="Helvetica,sans-Serif" font-size="10.00">vanetza::security::</text>
<text text-anchor="middle" x="206" y="-55" font-family="Helvetica,sans-Serif" font-size="10.00">openssl::Point</text>
</a>
</g>
</g>
<!-- Node0&#45;&gt;Node4 -->
<g id="edge4" class="edge">
<title>Node0&#45;&gt;Node4</title>
<path fill="none" stroke="#8b1a1a" d="M91.41,-98.41C111.79,-92.05 136.63,-84.31 157.87,-77.69"/>
<polygon fill="#8b1a1a" stroke="#8b1a1a" points="90.3,-95.08 81.79,-101.4 92.38,-101.77 90.3,-95.08"/>
</g>
<!-- Node5 -->
<g id="node6" class="node">
<title>Node5</title>
<g id="a_node6"><a xlink:href="d2/def/classvanetza_1_1security_1_1openssl_1_1Signature.html" target="_top" xlink:title=" ">
<polygon fill="white" stroke="#666666" points="255,-30 157,-30 157,0 255,0 255,-30"/>
<text text-anchor="start" x="165" y="-18" font-family="Helvetica,sans-Serif" font-size="10.00">vanetza::security::</text>
<text text-anchor="middle" x="206" y="-7" font-family="Helvetica,sans-Serif" font-size="10.00">openssl::Signature</text>
</a>
</g>
</g>
<!-- Node0&#45;&gt;Node5 -->
<g id="edge5" class="edge">
<title>Node0&#45;&gt;Node5</title>
<path fill="none" stroke="#8b1a1a" d="M67.13,-94.12C83.26,-78.06 109.44,-54.16 136,-39 142.5,-35.29 149.67,-32.02 156.85,-29.17"/>
<polygon fill="#8b1a1a" stroke="#8b1a1a" points="64.58,-91.72 60.06,-101.3 69.57,-96.64 64.58,-91.72"/>
</g>
</g>
</svg>
