<?xml version="1.0" encoding="UTF-8" standalone="no"?>
<!DOCTYPE svg PUBLIC "-//W3C//DTD SVG 1.1//EN"
 "http://www.w3.org/Graphics/SVG/1.1/DTD/svg11.dtd">
<!-- Generated by graphviz version 14.1.2 (0)
 -->
<!-- Title: Graphical Class Hierarchy Pages: 1 -->
<svg width="506pt" height="404pt"
 viewBox="0.00 0.00 506.00 404.00" xmlns="http://www.w3.org/2000/svg" xmlns:xlink="http://www.w3.org/1999/xlink">
<g id="graph0" class="graph" transform="scale(1 1) rotate(0) translate(4 399.5)">
<title>Graphical Class Hierarchy</title>
<!-- Node0 -->
<g id="Node000000" class="node">
<title>Node0</title>
<g id="a_Node000000"><a xlink:title=" ">
<polygon fill="#e0e0e0" stroke="#999999" points="106,-389.12 17.25,-389.12 17.25,-368.38 106,-368.38 106,-389.12"/>
<text xml:space="preserve" text-anchor="middle" x="61.62" y="-375.62" font-family="Helvetica,sans-Serif" font-size="10.00">boost::additive</text>
</a>
</g>
</g>
<!-- Node1 -->
<g id="Node000001" class="node">
<title>Node1</title>
<g id="a_Node000001"><a xlink:href="de/d8f/classvanetza_1_1geonet_1_1SequenceNumber.html" target="_top" xlink:title=" ">
<polygon fill="white" stroke="#666666" points="311.38,-395.5 163.38,-395.5 163.38,-362 311.38,-362 311.38,-395.5"/>
<text xml:space="preserve" text-anchor="start" x="171.38" y="-382" font-family="Helvetica,sans-Serif" font-size="10.00">vanetza::geonet::Sequence</text>
<text xml:space="preserve" text-anchor="middle" x="237.38" y="-369.25" font-family="Helvetica,sans-Serif" font-size="10.00">Number</text>
</a>
</g>
</g>
<!-- Node0&#45;&gt;Node1 -->
<g id="edge1_Node000000_Node000001" class="edge">
<title>Node0&#45;&gt;Node1</title>
<g id="a_edge1_Node000000_Node000001"><a xlink:title=" ">
<path fill="none" stroke="#63b8ff" d="M117.71,-378.75C132.14,-378.75 147.93,-378.75 163.14,-378.75"/>
<polygon fill="#63b8ff" stroke="#63b8ff" points="117.98,-375.25 107.98,-378.75 117.98,-382.25 117.98,-375.25"/>
</a>
</g>
</g>
<!-- Node10 -->
<g id="Node000010" class="node">
<title>Node10</title>
<g id="a_Node000010"><a xlink:title=" ">
<polygon fill="#e0e0e0" stroke="#999999" points="111.25,-344.12 12,-344.12 12,-323.38 111.25,-323.38 111.25,-344.12"/>
<text xml:space="preserve" text-anchor="middle" x="61.62" y="-330.62" font-family="Helvetica,sans-Serif" font-size="10.00">boost::arithmetic</text>
</a>
</g>
</g>
<!-- Node8 -->
<g id="Node000008" class="node">
<title>Node8</title>
<g id="a_Node000008"><a xlink:href="d4/d40/classvanetza_1_1UnitInterval.html" target="_top" xlink:title=" ">
<polygon fill="white" stroke="#666666" points="296.75,-344.12 178,-344.12 178,-323.38 296.75,-323.38 296.75,-344.12"/>
<text xml:space="preserve" text-anchor="middle" x="237.38" y="-330.62" font-family="Helvetica,sans-Serif" font-size="10.00">vanetza::UnitInterval</text>
</a>
</g>
</g>
<!-- Node10&#45;&gt;Node8 -->
<g id="edge2_Node000010_Node000008" class="edge">
<title>Node10&#45;&gt;Node8</title>
<g id="a_edge2_Node000010_Node000008"><a xlink:title=" ">
<path fill="none" stroke="#8b1a1a" d="M122.89,-333.75C140.65,-333.75 160.05,-333.75 177.71,-333.75"/>
<polygon fill="#8b1a1a" stroke="#8b1a1a" points="123,-330.25 113,-333.75 123,-337.25 123,-330.25"/>
</a>
</g>
</g>
<!-- Node9 -->
<g id="Node000009" class="node">
<title>Node9</title>
<g id="a_Node000009"><a xlink:href="dc/d86/classvanetza_1_1dcc_1_1ChannelLoad.html" target="_top" xlink:title=" ">
<polygon fill="white" stroke="#666666" points="498,-344.12 351.5,-344.12 351.5,-323.38 498,-323.38 498,-344.12"/>
<text xml:space="preserve" text-anchor="middle" x="424.75" y="-330.62" font-family="Helvetica,sans-Serif" font-size="10.00">vanetza::dcc::ChannelLoad</text>
</a>
</g>
</g>
<!-- Node8&#45;&gt;Node9 -->
<g id="edge3_Node000008_Node000009" class="edge">
<title>Node8&#45;&gt;Node9</title>
<g id="a_edge3_Node000008_Node000009"><a xlink:title=" ">
<path fill="none" stroke="#63b8ff" d="M308.54,-333.75C322.47,-333.75 337.13,-333.75 351.15,-333.75"/>
<polygon fill="#63b8ff" stroke="#63b8ff" points="308.54,-330.25 298.54,-333.75 308.54,-337.25 308.54,-330.25"/>
</a>
</g>
</g>
<!-- Node2 -->
<g id="Node000002" class="node">
<title>Node2</title>
<g id="a_Node000002"><a xlink:title=" ">
<polygon fill="#e0e0e0" stroke="#999999" points="123.25,-195.12 0,-195.12 0,-174.38 123.25,-174.38 123.25,-195.12"/>
<text xml:space="preserve" text-anchor="middle" x="61.62" y="-181.62" font-family="Helvetica,sans-Serif" font-size="10.00">boost::totally_ordered</text>
</a>
</g>
</g>
<!-- Node2&#45;&gt;Node1 -->
<g id="edge11_Node000002_Node000001" class="edge">
<title>Node2&#45;&gt;Node1</title>
<g id="a_edge11_Node000002_Node000001"><a xlink:title=" ">
<path fill="none" stroke="#63b8ff" d="M69.32,-206.16C81.51,-241.69 110.64,-312.87 159.25,-352.75 163.29,-356.07 167.78,-358.97 172.49,-361.5"/>
<polygon fill="#63b8ff" stroke="#63b8ff" points="72.76,-205.41 66.31,-197.01 66.11,-207.6 72.76,-205.41"/>
</a>
</g>
</g>
<!-- Node2&#45;&gt;Node8 -->
<g id="edge9_Node000002_Node000008" class="edge">
<title>Node2&#45;&gt;Node8</title>
<g id="a_edge9_Node000002_Node000008"><a xlink:title=" ">
<path fill="none" stroke="#8b1a1a" d="M72.38,-205.72C87.02,-234.82 117.49,-286.99 159.25,-314.75 164.88,-318.49 171.18,-321.49 177.68,-323.91"/>
<polygon fill="#8b1a1a" stroke="#8b1a1a" points="75.57,-204.29 68.06,-196.83 69.28,-207.35 75.57,-204.29"/>
</a>
</g>
</g>
<!-- Node3 -->
<g id="Node000003" class="node">
<title>Node3</title>
<g id="a_Node000003"><a xlink:href="dd/dba/classvanetza_1_1BitNumber.html" target="_top" xlink:title=" ">
<polygon fill="white" stroke="#666666" points="294.12,-33.5 180.62,-33.5 180.62,0 294.12,0 294.12,-33.5"/>
<text xml:space="preserve" text-anchor="start" x="188.62" y="-20" font-family="Helvetica,sans-Serif" font-size="10.00">vanetza::BitNumber</text>
<text xml:space="preserve" text-anchor="middle" x="237.38" y="-7.25" font-family="Helvetica,sans-Serif" font-size="10.00">&lt; unsigned, 5 &gt;</text>
</a>
</g>
</g>
<!-- Node2&#45;&gt;Node3 -->
<g id="edge4_Node000002_Node000003" class="edge">
<title>Node2&#45;&gt;Node3</title>
<g id="a_edge4_Node000002_Node000003"><a xlink:title=" ">
<path fill="none" stroke="#63b8ff" d="M71.6,-163.67C85.79,-132.78 116.28,-75.36 159.25,-42.75 165.55,-37.97 172.79,-34.03 180.25,-30.8"/>
<polygon fill="#63b8ff" stroke="#63b8ff" points="68.44,-162.16 67.58,-172.72 74.84,-165 68.44,-162.16"/>
</a>
</g>
</g>
<!-- Node4 -->
<g id="Node000004" class="node">
<title>Node4</title>
<g id="a_Node000004"><a xlink:href="dd/dba/classvanetza_1_1BitNumber.html" target="_top" xlink:title=" ">
<polygon fill="white" stroke="#666666" points="294.12,-305.5 180.62,-305.5 180.62,-272 294.12,-272 294.12,-305.5"/>
<text xml:space="preserve" text-anchor="start" x="188.62" y="-292" font-family="Helvetica,sans-Serif" font-size="10.00">vanetza::BitNumber</text>
<text xml:space="preserve" text-anchor="middle" x="237.38" y="-279.25" font-family="Helvetica,sans-Serif" font-size="10.00">&lt; unsigned, 10 &gt;</text>
</a>
</g>
</g>
<!-- Node2&#45;&gt;Node4 -->
<g id="edge5_Node000002_Node000004" class="edge">
<title>Node2&#45;&gt;Node4</title>
<g id="a_edge5_Node000002_Node000004"><a xlink:title=" ">
<path fill="none" stroke="#63b8ff" d="M81.39,-203.33C99.86,-220.73 129.53,-246.43 159.25,-262.75 165.81,-266.35 172.97,-269.58 180.18,-272.43"/>
<polygon fill="#63b8ff" stroke="#63b8ff" points="84.01,-200.98 74.37,-196.58 79.16,-206.03 84.01,-200.98"/>
</a>
</g>
</g>
<!-- Node5 -->
<g id="Node000005" class="node">
<title>Node5</title>
<g id="a_Node000005"><a xlink:href="dd/dba/classvanetza_1_1BitNumber.html" target="_top" xlink:title=" ">
<polygon fill="white" stroke="#666666" points="294.12,-253.5 180.62,-253.5 180.62,-220 294.12,-220 294.12,-253.5"/>
<text xml:space="preserve" text-anchor="start" x="188.62" y="-240" font-family="Helvetica,sans-Serif" font-size="10.00">vanetza::BitNumber</text>
<text xml:space="preserve" text-anchor="middle" x="237.38" y="-227.25" font-family="Helvetica,sans-Serif" font-size="10.00">&lt; unsigned, 4 &gt;</text>
</a>
</g>
</g>
<!-- Node2&#45;&gt;Node5 -->
<g id="edge6_Node000002_Node000005" class="edge">
<title>Node2&#45;&gt;Node5</title>
<g id="a_edge6_Node000002_Node000005"><a xlink:title=" ">
<path fill="none" stroke="#63b8ff" d="M109.59,-198.8C131.37,-205.32 157.42,-213.12 180.24,-219.95"/>
<polygon fill="#63b8ff" stroke="#63b8ff" points="110.66,-195.47 100.08,-195.96 108.65,-202.18 110.66,-195.47"/>
</a>
</g>
</g>
<!-- Node6 -->
<g id="Node000006" class="node">
<title>Node6</title>
<g id="a_Node000006"><a xlink:href="dd/dba/classvanetza_1_1BitNumber.html" target="_top" xlink:title=" ">
<polygon fill="white" stroke="#666666" points="294.12,-201.5 180.62,-201.5 180.62,-168 294.12,-168 294.12,-201.5"/>
<text xml:space="preserve" text-anchor="start" x="188.62" y="-188" font-family="Helvetica,sans-Serif" font-size="10.00">vanetza::BitNumber</text>
<text xml:space="preserve" text-anchor="middle" x="237.38" y="-175.25" font-family="Helvetica,sans-Serif" font-size="10.00">&lt; T, WIDTH &gt;</text>
</a>
</g>
</g>
<!-- Node2&#45;&gt;Node6 -->
<g id="edge7_Node000002_Node000006" class="edge">
<title>Node2&#45;&gt;Node6</title>
<g id="a_edge7_Node000002_Node000006"><a xlink:title=" ">
<path fill="none" stroke="#63b8ff" d="M134.85,-184.75C150.03,-184.75 165.82,-184.75 180.3,-184.75"/>
<polygon fill="#63b8ff" stroke="#63b8ff" points="134.91,-181.25 124.91,-184.75 134.91,-188.25 134.91,-181.25"/>
</a>
</g>
</g>
<!-- Node7 -->
<g id="Node000007" class="node">
<title>Node7</title>
<g id="a_Node000007"><a xlink:href="db/da9/classvanetza_1_1MacAddress.html" target="_top" xlink:title=" ">
<polygon fill="white" stroke="#666666" points="297.5,-150.12 177.25,-150.12 177.25,-129.38 297.5,-129.38 297.5,-150.12"/>
<text xml:space="preserve" text-anchor="middle" x="237.38" y="-136.62" font-family="Helvetica,sans-Serif" font-size="10.00">vanetza::MacAddress</text>
</a>
</g>
</g>
<!-- Node2&#45;&gt;Node7 -->
<g id="edge8_Node000002_Node000007" class="edge">
<title>Node2&#45;&gt;Node7</title>
<g id="a_edge8_Node000002_Node000007"><a xlink:title=" ">
<path fill="none" stroke="#63b8ff" d="M113.1,-170.95C127.95,-166.95 144.24,-162.62 159.25,-158.75 169.8,-156.03 181.18,-153.18 191.88,-150.54"/>
<polygon fill="#63b8ff" stroke="#63b8ff" points="112.27,-167.55 103.53,-173.54 114.09,-174.31 112.27,-167.55"/>
</a>
</g>
</g>
<!-- Node11 -->
<g id="Node000011" class="node">
<title>Node11</title>
<g id="a_Node000011"><a xlink:href="d7/d9a/classvanetza_1_1geonet_1_1Lifetime.html" target="_top" xlink:title=" ">
<polygon fill="white" stroke="#666666" points="308,-111.12 166.75,-111.12 166.75,-90.38 308,-90.38 308,-111.12"/>
<text xml:space="preserve" text-anchor="middle" x="237.38" y="-97.62" font-family="Helvetica,sans-Serif" font-size="10.00">vanetza::geonet::Lifetime</text>
</a>
</g>
</g>
<!-- Node2&#45;&gt;Node11 -->
<g id="edge10_Node000002_Node000011" class="edge">
<title>Node2&#45;&gt;Node11</title>
<g id="a_edge10_Node000002_Node000011"><a xlink:title=" ">
<path fill="none" stroke="#63b8ff" d="M84.79,-166.96C103.62,-152.64 131.86,-132.96 159.25,-120.75 167.34,-117.15 176.2,-114.09 184.95,-111.54"/>
<polygon fill="#63b8ff" stroke="#63b8ff" points="82.81,-164.07 77.06,-172.96 87.11,-169.6 82.81,-164.07"/>
</a>
</g>
</g>
<!-- Node12 -->
<g id="Node000012" class="node">
<title>Node12</title>
<g id="a_Node000012"><a xlink:href="d0/dc8/classvanetza_1_1geonet_1_1Timestamp.html" target="_top" xlink:title=" ">
<polygon fill="white" stroke="#666666" points="315.5,-72.12 159.25,-72.12 159.25,-51.38 315.5,-51.38 315.5,-72.12"/>
<text xml:space="preserve" text-anchor="middle" x="237.38" y="-58.62" font-family="Helvetica,sans-Serif" font-size="10.00">vanetza::geonet::Timestamp</text>
</a>
</g>
</g>
<!-- Node2&#45;&gt;Node12 -->
<g id="edge12_Node000002_Node000012" class="edge">
<title>Node2&#45;&gt;Node12</title>
<g id="a_edge12_Node000002_Node000012"><a xlink:title=" ">
<path fill="none" stroke="#63b8ff" d="M75.92,-164.83C92.61,-141.4 123.43,-103 159.25,-81.75 165.44,-78.08 172.29,-75.07 179.29,-72.62"/>
<polygon fill="#63b8ff" stroke="#63b8ff" points="73.14,-162.69 70.33,-172.9 78.9,-166.68 73.14,-162.69"/>
</a>
</g>
</g>
</g>
</svg>
