<?xml version="1.0" encoding="UTF-8" standalone="no"?>
<!DOCTYPE svg PUBLIC "-//W3C//DTD SVG 1.1//EN"
 "http://www.w3.org/Graphics/SVG/1.1/DTD/svg11.dtd">
<!-- Generated by graphviz version 14.1.2 (0)
 -->
<!-- Title: Graphical Class Hierarchy Pages: 1 -->
<svg width="268pt" height="94pt"
 viewBox="0.00 0.00 268.00 94.00" xmlns="http://www.w3.org/2000/svg" xmlns:xlink="http://www.w3.org/1999/xlink">
<g id="graph0" class="graph" transform="scale(1 1) rotate(0) translate(4 89.5)">
<title>Graphical Class Hierarchy</title>
<!-- Node0 -->
<g id="Node000000" class="node">
<title>Node0</title>
<g id="a_Node000000"><a xlink:href="de/dce/classvanetza_1_1security_1_1VerifyService.html" target="_top" xlink:title=" ">
<polygon fill="white" stroke="#666666" points="105.25,-59.5 0,-59.5 0,-26 105.25,-26 105.25,-59.5"/>
<text xml:space="preserve" text-anchor="start" x="8" y="-46" font-family="Helvetica,sans-Serif" font-size="10.00">vanetza::security::</text>
<text xml:space="preserve" text-anchor="middle" x="52.62" y="-33.25" font-family="Helvetica,sans-Serif" font-size="10.00">VerifyService</text>
</a>
</g>
</g>
<!-- Node1 -->
<g id="Node000001" class="node">
<title>Node1</title>
<g id="a_Node000001"><a xlink:href="d7/db6/classvanetza_1_1security_1_1DummyVerifyService.html" target="_top" xlink:title=" ">
<polygon fill="white" stroke="#666666" points="260,-85.5 141.25,-85.5 141.25,-52 260,-52 260,-85.5"/>
<text xml:space="preserve" text-anchor="start" x="149.25" y="-72" font-family="Helvetica,sans-Serif" font-size="10.00">vanetza::security::</text>
<text xml:space="preserve" text-anchor="middle" x="200.62" y="-59.25" font-family="Helvetica,sans-Serif" font-size="10.00">DummyVerifyService</text>
</a>
</g>
</g>
<!-- Node0&#45;&gt;Node1 -->
<g id="edge149_Node000000_Node000001" class="edge">
<title>Node0&#45;&gt;Node1</title>
<g id="a_edge149_Node000000_Node000001"><a xlink:title=" ">
<path fill="none" stroke="#63b8ff" d="M116.73,-53.99C124.77,-55.42 132.98,-56.88 140.94,-58.3"/>
<polygon fill="#63b8ff" stroke="#63b8ff" points="117.46,-50.56 107,-52.26 116.23,-57.45 117.46,-50.56"/>
</a>
</g>
</g>
<!-- Node2 -->
<g id="Node000002" class="node">
<title>Node2</title>
<g id="a_Node000002"><a xlink:href="de/d9b/classvanetza_1_1security_1_1StraightVerifyService.html" target="_top" xlink:title=" ">
<polygon fill="white" stroke="#666666" points="259.62,-33.5 141.62,-33.5 141.62,0 259.62,0 259.62,-33.5"/>
<text xml:space="preserve" text-anchor="start" x="149.62" y="-20" font-family="Helvetica,sans-Serif" font-size="10.00">vanetza::security::</text>
<text xml:space="preserve" text-anchor="middle" x="200.62" y="-7.25" font-family="Helvetica,sans-Serif" font-size="10.00">StraightVerifyService</text>
</a>
</g>
</g>
<!-- Node0&#45;&gt;Node2 -->
<g id="edge150_Node000000_Node000002" class="edge">
<title>Node0&#45;&gt;Node2</title>
<g id="a_edge150_Node000000_Node000002"><a xlink:title=" ">
<path fill="none" stroke="#63b8ff" d="M116.81,-31.5C124.91,-30.06 133.18,-28.58 141.2,-27.16"/>
<polygon fill="#63b8ff" stroke="#63b8ff" points="116.23,-28.05 107,-33.24 117.46,-34.94 116.23,-28.05"/>
</a>
</g>
</g>
</g>
</svg>
