<?xml version="1.0" encoding="UTF-8" standalone="no"?>
<!DOCTYPE svg PUBLIC "-//W3C//DTD SVG 1.1//EN"
 "http://www.w3.org/Graphics/SVG/1.1/DTD/svg11.dtd">
<!-- Generated by graphviz version 2.49.3 (0)
 -->
<!-- Title: Graphical Class Hierarchy Pages: 1 -->
<svg width="587pt" height="49pt"
 viewBox="0.00 0.00 587.00 49.00" xmlns="http://www.w3.org/2000/svg" xmlns:xlink="http://www.w3.org/1999/xlink">
<g id="graph0" class="graph" transform="scale(1 1) rotate(0) translate(4 45)">
<title>Graphical Class Hierarchy</title>
<!-- Node0 -->
<g id="Node000000" class="node">
<title>Node0</title>
<g id="a_Node000000"><a xlink:href="d0/d68/classvanetza_1_1asn1_1_1asn1c__wrapper__common.html" target="_top" xlink:title=" ">
<polygon fill="white" stroke="#666666" points="194,-41 0,-41 0,0 194,0 194,-41"/>
<text text-anchor="start" x="8" y="-29" font-family="Helvetica,sans-Serif" font-size="10.00">vanetza::asn1::asn1c</text>
<text text-anchor="start" x="8" y="-18" font-family="Helvetica,sans-Serif" font-size="10.00">_wrapper_common&lt; Vanetza</text>
<text text-anchor="middle" x="97" y="-7" font-family="Helvetica,sans-Serif" font-size="10.00">_ITS2_CollectivePerceptionMessage_t &gt;</text>
</a>
</g>
</g>
<!-- Node1 -->
<g id="Node000001" class="node">
<title>Node1</title>
<g id="a_Node000001"><a xlink:href="dc/dbf/classvanetza_1_1asn1_1_1asn1c__per__wrapper.html" target="_top" xlink:title=" ">
<polygon fill="white" stroke="#666666" points="424,-41 230,-41 230,0 424,0 424,-41"/>
<text text-anchor="start" x="238" y="-29" font-family="Helvetica,sans-Serif" font-size="10.00">vanetza::asn1::asn1c</text>
<text text-anchor="start" x="238" y="-18" font-family="Helvetica,sans-Serif" font-size="10.00">_per_wrapper&lt; Vanetza</text>
<text text-anchor="middle" x="327" y="-7" font-family="Helvetica,sans-Serif" font-size="10.00">_ITS2_CollectivePerceptionMessage_t &gt;</text>
</a>
</g>
</g>
<!-- Node0&#45;&gt;Node1 -->
<g id="edge63_Node000000_Node000001" class="edge">
<title>Node0&#45;&gt;Node1</title>
<g id="a_edge63_Node000000_Node000001"><a xlink:title=" ">
<path fill="none" stroke="#63b8ff" d="M204.04,-20.5C212.6,-20.5 221.23,-20.5 229.71,-20.5"/>
<polygon fill="#63b8ff" stroke="#63b8ff" points="204.03,-17 194.03,-20.5 204.03,-24 204.03,-17"/>
</a>
</g>
</g>
<!-- Node2 -->
<g id="Node000002" class="node">
<title>Node2</title>
<g id="a_Node000002"><a xlink:href="d2/d11/classvanetza_1_1asn1_1_1r2_1_1Cpm.html" target="_top" xlink:title=" ">
<polygon fill="white" stroke="#666666" points="579,-30 460,-30 460,-11 579,-11 579,-30"/>
<text text-anchor="middle" x="519.5" y="-18" font-family="Helvetica,sans-Serif" font-size="10.00">vanetza::asn1::r2::Cpm</text>
</a>
</g>
</g>
<!-- Node1&#45;&gt;Node2 -->
<g id="edge64_Node000001_Node000002" class="edge">
<title>Node1&#45;&gt;Node2</title>
<g id="a_edge64_Node000001_Node000002"><a xlink:title=" ">
<path fill="none" stroke="#63b8ff" d="M434.36,-20.5C443.08,-20.5 451.68,-20.5 459.85,-20.5"/>
<polygon fill="#63b8ff" stroke="#63b8ff" points="434.09,-17 424.09,-20.5 434.09,-24 434.09,-17"/>
</a>
</g>
</g>
</g>
</svg>
