<?xml version="1.0" encoding="UTF-8" standalone="no"?>
<!DOCTYPE svg PUBLIC "-//W3C//DTD SVG 1.1//EN"
 "http://www.w3.org/Graphics/SVG/1.1/DTD/svg11.dtd">
<!-- Generated by graphviz version 2.49.3 (0)
 -->
<!-- Title: Graphical Class Hierarchy Pages: 1 -->
<svg width="496pt" height="39pt"
 viewBox="0.00 0.00 496.00 39.00" xmlns="http://www.w3.org/2000/svg" xmlns:xlink="http://www.w3.org/1999/xlink">
<g id="graph0" class="graph" transform="scale(1 1) rotate(0) translate(4 35)">
<title>Graphical Class Hierarchy</title>
<polygon fill="white" stroke="transparent" points="-4,4 -4,-35 492,-35 492,4 -4,4"/>
<!-- Node0 -->
<g id="node1" class="node">
<title>Node0</title>
<g id="a_node1"><a xlink:href="d0/d68/classvanetza_1_1asn1_1_1asn1c__wrapper__common.html" target="_top" xlink:title=" ">
<polygon fill="white" stroke="black" points="0,-0.5 0,-30.5 162,-30.5 162,-0.5 0,-0.5"/>
<text text-anchor="start" x="8" y="-18.5" font-family="Helvetica,sans-Serif" font-size="10.00">vanetza::asn1::asn1c</text>
<text text-anchor="middle" x="81" y="-7.5" font-family="Helvetica,sans-Serif" font-size="10.00">_wrapper_common&lt; MAPEM_t &gt;</text>
</a>
</g>
</g>
<!-- Node1 -->
<g id="node2" class="node">
<title>Node1</title>
<g id="a_node2"><a xlink:href="dc/dbf/classvanetza_1_1asn1_1_1asn1c__per__wrapper.html" target="_top" xlink:title=" ">
<polygon fill="white" stroke="black" points="198,-0.5 198,-30.5 336,-30.5 336,-0.5 198,-0.5"/>
<text text-anchor="start" x="206" y="-18.5" font-family="Helvetica,sans-Serif" font-size="10.00">vanetza::asn1::asn1c</text>
<text text-anchor="middle" x="267" y="-7.5" font-family="Helvetica,sans-Serif" font-size="10.00">_per_wrapper&lt; MAPEM_t &gt;</text>
</a>
</g>
</g>
<!-- Node0&#45;&gt;Node1 -->
<g id="edge1" class="edge">
<title>Node0&#45;&gt;Node1</title>
<path fill="none" stroke="midnightblue" d="M172.27,-15.5C180.89,-15.5 189.53,-15.5 197.9,-15.5"/>
<polygon fill="midnightblue" stroke="midnightblue" points="172.17,-12 162.17,-15.5 172.17,-19 172.17,-12"/>
</g>
<!-- Node2 -->
<g id="node3" class="node">
<title>Node2</title>
<g id="a_node3"><a xlink:href="d4/dfa/classvanetza_1_1asn1_1_1Mapem.html" target="_top" xlink:title=" ">
<polygon fill="white" stroke="black" points="372,-6 372,-25 488,-25 488,-6 372,-6"/>
<text text-anchor="middle" x="430" y="-13" font-family="Helvetica,sans-Serif" font-size="10.00">vanetza::asn1::Mapem</text>
</a>
</g>
</g>
<!-- Node1&#45;&gt;Node2 -->
<g id="edge2" class="edge">
<title>Node1&#45;&gt;Node2</title>
<path fill="none" stroke="midnightblue" d="M346.32,-15.5C354.91,-15.5 363.53,-15.5 371.79,-15.5"/>
<polygon fill="midnightblue" stroke="midnightblue" points="346.28,-12 336.28,-15.5 346.28,-19 346.28,-12"/>
</g>
</g>
</svg>
