<?xml version="1.0" encoding="UTF-8" standalone="no"?>
<!DOCTYPE svg PUBLIC "-//W3C//DTD SVG 1.1//EN"
 "http://www.w3.org/Graphics/SVG/1.1/DTD/svg11.dtd">
<!-- Generated by graphviz version 2.49.3 (0)
 -->
<!-- Title: Graphical Class Hierarchy Pages: 1 -->
<svg width="549pt" height="268pt"
 viewBox="0.00 0.00 549.00 267.50" xmlns="http://www.w3.org/2000/svg" xmlns:xlink="http://www.w3.org/1999/xlink">
<g id="graph0" class="graph" transform="scale(1 1) rotate(0) translate(4 263.5)">
<title>Graphical Class Hierarchy</title>
<!-- Node0 -->
<g id="Node000000" class="node">
<title>Node0</title>
<g id="a_Node000000"><a xlink:href="da/dcb/classvanetza_1_1geonet_1_1ConstAccessiblePdu.html" target="_top" xlink:title=" ">
<polygon fill="white" stroke="#666666" points="182,-155 0,-155 0,-136 182,-136 182,-155"/>
<text text-anchor="middle" x="91" y="-143" font-family="Helvetica,sans-Serif" font-size="10.00">vanetza::geonet::ConstAccessiblePdu</text>
</a>
</g>
</g>
<!-- Node1 -->
<g id="Node000001" class="node">
<title>Node1</title>
<g id="a_Node000001"><a xlink:href="d5/d01/classvanetza_1_1geonet_1_1ExtendedPduConstRefs.html" target="_top" xlink:title=" ">
<polygon fill="white" stroke="#666666" points="359,-182.5 218,-182.5 218,-152.5 359,-152.5 359,-182.5"/>
<text text-anchor="start" x="226" y="-170.5" font-family="Helvetica,sans-Serif" font-size="10.00">vanetza::geonet::Extended</text>
<text text-anchor="middle" x="288.5" y="-159.5" font-family="Helvetica,sans-Serif" font-size="10.00">PduConstRefs&lt; HEADER &gt;</text>
</a>
</g>
</g>
<!-- Node0&#45;&gt;Node1 -->
<g id="edge93_Node000000_Node000001" class="edge">
<title>Node0&#45;&gt;Node1</title>
<g id="a_edge93_Node000000_Node000001"><a xlink:title=" ">
<path fill="none" stroke="#63b8ff" d="M186.63,-156.15C197.11,-157.33 207.64,-158.51 217.73,-159.65"/>
<polygon fill="#63b8ff" stroke="#63b8ff" points="186.94,-152.66 176.61,-155.02 186.16,-159.62 186.94,-152.66"/>
</a>
</g>
</g>
<!-- Node2 -->
<g id="Node000002" class="node">
<title>Node2</title>
<g id="a_Node000002"><a xlink:href="dc/d8c/classvanetza_1_1geonet_1_1Pdu.html" target="_top" xlink:title=" ">
<polygon fill="white" stroke="#666666" points="342.5,-134 234.5,-134 234.5,-115 342.5,-115 342.5,-134"/>
<text text-anchor="middle" x="288.5" y="-122" font-family="Helvetica,sans-Serif" font-size="10.00">vanetza::geonet::Pdu</text>
</a>
</g>
</g>
<!-- Node0&#45;&gt;Node2 -->
<g id="edge94_Node000000_Node000002" class="edge">
<title>Node0&#45;&gt;Node2</title>
<g id="a_edge94_Node000000_Node000002"><a xlink:title=" ">
<path fill="none" stroke="#63b8ff" d="M190.97,-134.87C205.97,-133.26 220.93,-131.65 234.43,-130.2"/>
<polygon fill="#63b8ff" stroke="#63b8ff" points="190.17,-131.44 180.6,-135.98 190.91,-138.39 190.17,-131.44"/>
</a>
</g>
</g>
<!-- Node3 -->
<g id="Node000003" class="node">
<title>Node3</title>
<g id="a_Node000003"><a xlink:href="d9/d6e/classvanetza_1_1geonet_1_1ExtendedPdu.html" target="_top" xlink:title=" ">
<polygon fill="white" stroke="#666666" points="534,-259.5 402,-259.5 402,-229.5 534,-229.5 534,-259.5"/>
<text text-anchor="start" x="410" y="-247.5" font-family="Helvetica,sans-Serif" font-size="10.00">vanetza::geonet::Extended</text>
<text text-anchor="middle" x="468" y="-236.5" font-family="Helvetica,sans-Serif" font-size="10.00">Pdu&lt; ShbHeader &gt;</text>
</a>
</g>
</g>
<!-- Node2&#45;&gt;Node3 -->
<g id="edge95_Node000002_Node000003" class="edge">
<title>Node2&#45;&gt;Node3</title>
<g id="a_edge95_Node000002_Node000003"><a xlink:title=" ">
<path fill="none" stroke="#63b8ff" d="M351.81,-138.37C354.34,-139.91 356.76,-141.61 359,-143.5 387.89,-167.84 366.79,-195.37 395,-220.5 398.84,-223.92 403.18,-226.85 407.78,-229.37"/>
<polygon fill="#63b8ff" stroke="#63b8ff" points="353.29,-135.2 342.79,-133.78 350.11,-141.44 353.29,-135.2"/>
</a>
</g>
</g>
<!-- Node4 -->
<g id="Node000004" class="node">
<title>Node4</title>
<g id="a_Node000004"><a xlink:href="d9/d6e/classvanetza_1_1geonet_1_1ExtendedPdu.html" target="_top" xlink:title=" ">
<polygon fill="white" stroke="#666666" points="534,-211.5 402,-211.5 402,-181.5 534,-181.5 534,-211.5"/>
<text text-anchor="start" x="410" y="-199.5" font-family="Helvetica,sans-Serif" font-size="10.00">vanetza::geonet::Extended</text>
<text text-anchor="middle" x="468" y="-188.5" font-family="Helvetica,sans-Serif" font-size="10.00">Pdu&lt; TsbHeader &gt;</text>
</a>
</g>
</g>
<!-- Node2&#45;&gt;Node4 -->
<g id="edge96_Node000002_Node000004" class="edge">
<title>Node2&#45;&gt;Node4</title>
<g id="a_edge96_Node000002_Node000004"><a xlink:title=" ">
<path fill="none" stroke="#63b8ff" d="M344.62,-137.28C349.59,-139.11 354.45,-141.18 359,-143.5 377.29,-152.85 376.97,-162.65 395,-172.5 401.13,-175.85 407.81,-178.84 414.54,-181.48"/>
<polygon fill="#63b8ff" stroke="#63b8ff" points="345.6,-133.91 335.01,-134.04 343.37,-140.55 345.6,-133.91"/>
</a>
</g>
</g>
<!-- Node5 -->
<g id="Node000005" class="node">
<title>Node5</title>
<g id="a_Node000005"><a xlink:href="d9/d6e/classvanetza_1_1geonet_1_1ExtendedPdu.html" target="_top" xlink:title=" ">
<polygon fill="white" stroke="#666666" points="534,-163.5 402,-163.5 402,-133.5 534,-133.5 534,-163.5"/>
<text text-anchor="start" x="410" y="-151.5" font-family="Helvetica,sans-Serif" font-size="10.00">vanetza::geonet::Extended</text>
<text text-anchor="middle" x="468" y="-140.5" font-family="Helvetica,sans-Serif" font-size="10.00">Pdu&lt; BeaconHeader &gt;</text>
</a>
</g>
</g>
<!-- Node2&#45;&gt;Node5 -->
<g id="edge97_Node000002_Node000005" class="edge">
<title>Node2&#45;&gt;Node5</title>
<g id="a_edge97_Node000002_Node000005"><a xlink:title=" ">
<path fill="none" stroke="#63b8ff" d="M352.99,-133.08C368.86,-135.23 385.91,-137.54 401.85,-139.69"/>
<polygon fill="#63b8ff" stroke="#63b8ff" points="353.13,-129.57 342.76,-131.7 352.2,-136.51 353.13,-129.57"/>
</a>
</g>
</g>
<!-- Node6 -->
<g id="Node000006" class="node">
<title>Node6</title>
<g id="a_Node000006"><a xlink:href="d9/d6e/classvanetza_1_1geonet_1_1ExtendedPdu.html" target="_top" xlink:title=" ">
<polygon fill="white" stroke="#666666" points="541,-115.5 395,-115.5 395,-85.5 541,-85.5 541,-115.5"/>
<text text-anchor="start" x="403" y="-103.5" font-family="Helvetica,sans-Serif" font-size="10.00">vanetza::geonet::Extended</text>
<text text-anchor="middle" x="468" y="-92.5" font-family="Helvetica,sans-Serif" font-size="10.00">Pdu&lt; GeoBroadcastHeader &gt;</text>
</a>
</g>
</g>
<!-- Node2&#45;&gt;Node6 -->
<g id="edge98_Node000002_Node000006" class="edge">
<title>Node2&#45;&gt;Node6</title>
<g id="a_edge98_Node000002_Node000006"><a xlink:title=" ">
<path fill="none" stroke="#63b8ff" d="M352.93,-115.92C366.48,-114.09 380.89,-112.14 394.74,-110.27"/>
<polygon fill="#63b8ff" stroke="#63b8ff" points="352.2,-112.49 342.76,-117.3 353.13,-119.43 352.2,-112.49"/>
</a>
</g>
</g>
<!-- Node7 -->
<g id="Node000007" class="node">
<title>Node7</title>
<g id="a_Node000007"><a xlink:href="d9/d6e/classvanetza_1_1geonet_1_1ExtendedPdu.html" target="_top" xlink:title=" ">
<polygon fill="white" stroke="#666666" points="534,-67.5 402,-67.5 402,-37.5 534,-37.5 534,-67.5"/>
<text text-anchor="start" x="410" y="-55.5" font-family="Helvetica,sans-Serif" font-size="10.00">vanetza::geonet::Extended</text>
<text text-anchor="middle" x="468" y="-44.5" font-family="Helvetica,sans-Serif" font-size="10.00">Pdu&lt; HEADER &gt;</text>
</a>
</g>
</g>
<!-- Node2&#45;&gt;Node7 -->
<g id="edge99_Node000002_Node000007" class="edge">
<title>Node2&#45;&gt;Node7</title>
<g id="a_edge99_Node000002_Node000007"><a xlink:title=" ">
<path fill="none" stroke="#63b8ff" d="M318.1,-110.5C339.12,-100.45 368.53,-86.9 395,-76.5 402.85,-73.42 411.27,-70.37 419.49,-67.55"/>
<polygon fill="#63b8ff" stroke="#63b8ff" points="316.56,-107.36 309.07,-114.85 319.6,-113.66 316.56,-107.36"/>
</a>
</g>
</g>
<!-- Node8 -->
<g id="Node000008" class="node">
<title>Node8</title>
<g id="a_Node000008"><a xlink:href="d7/d84/classvanetza_1_1geonet_1_1VariantPdu.html" target="_top" xlink:title=" ">
<polygon fill="white" stroke="#666666" points="537,-19 399,-19 399,0 537,0 537,-19"/>
<text text-anchor="middle" x="468" y="-7" font-family="Helvetica,sans-Serif" font-size="10.00">vanetza::geonet::VariantPdu</text>
</a>
</g>
</g>
<!-- Node2&#45;&gt;Node8 -->
<g id="edge100_Node000002_Node000008" class="edge">
<title>Node2&#45;&gt;Node8</title>
<g id="a_edge100_Node000002_Node000008"><a xlink:title=" ">
<path fill="none" stroke="#63b8ff" d="M303.7,-107.24C322.4,-85.63 357.36,-48.97 395,-28.5 402.04,-24.67 409.89,-21.58 417.75,-19.1"/>
<polygon fill="#63b8ff" stroke="#63b8ff" points="300.94,-105.08 297.14,-114.97 306.28,-109.61 300.94,-105.08"/>
</a>
</g>
</g>
</g>
</svg>
