<?xml version="1.0" encoding="UTF-8" standalone="no"?>
<!DOCTYPE svg PUBLIC "-//W3C//DTD SVG 1.1//EN"
 "http://www.w3.org/Graphics/SVG/1.1/DTD/svg11.dtd">
<!-- Generated by graphviz version 2.49.3 (0)
 -->
<!-- Title: Graphical Class Hierarchy Pages: 1 -->
<svg width="526pt" height="566pt"
 viewBox="0.00 0.00 526.00 566.00" xmlns="http://www.w3.org/2000/svg" xmlns:xlink="http://www.w3.org/1999/xlink">
<g id="graph0" class="graph" transform="scale(1 1) rotate(0) translate(4 562)">
<title>Graphical Class Hierarchy</title>
<!-- Node0 -->
<g id="node1" class="node">
<title>Node0</title>
<g id="a_node1"><a xlink:href="d0/d68/classvanetza_1_1asn1_1_1asn1c__wrapper__common.html" target="_top" xlink:title=" ">
<polygon fill="white" stroke="#666666" points="123,-294 0,-294 0,-264 123,-264 123,-294"/>
<text text-anchor="start" x="8" y="-282" font-family="Helvetica,sans-Serif" font-size="10.00">vanetza::asn1::asn1c</text>
<text text-anchor="middle" x="61.5" y="-271" font-family="Helvetica,sans-Serif" font-size="10.00">_wrapper_common&lt; T &gt;</text>
</a>
</g>
</g>
<!-- Node1 -->
<g id="node2" class="node">
<title>Node1</title>
<g id="a_node2"><a xlink:href="de/dbf/classvanetza_1_1asn1_1_1asn1c__oer__wrapper.html" target="_top" xlink:title=" ">
<polygon fill="white" stroke="#666666" points="365,-558 159,-558 159,-528 365,-528 365,-558"/>
<text text-anchor="start" x="167" y="-546" font-family="Helvetica,sans-Serif" font-size="10.00">vanetza::asn1::asn1c</text>
<text text-anchor="middle" x="262" y="-535" font-family="Helvetica,sans-Serif" font-size="10.00">_oer_wrapper&lt; EtsiTs103097Certificate_t &gt;</text>
</a>
</g>
</g>
<!-- Node0&#45;&gt;Node1 -->
<g id="edge1" class="edge">
<title>Node0&#45;&gt;Node1</title>
<path fill="none" stroke="#63b8ff" d="M65.08,-304.19C71.51,-353.33 92.81,-462.13 159,-519 163,-522.44 167.41,-525.41 172.07,-527.96"/>
<polygon fill="#63b8ff" stroke="#63b8ff" points="68.54,-303.62 63.86,-294.11 61.59,-304.46 68.54,-303.62"/>
</g>
<!-- Node3 -->
<g id="node4" class="node">
<title>Node3</title>
<g id="a_node4"><a xlink:href="de/dbf/classvanetza_1_1asn1_1_1asn1c__oer__wrapper.html" target="_top" xlink:title=" ">
<polygon fill="white" stroke="#666666" points="353,-510 171,-510 171,-480 353,-480 353,-510"/>
<text text-anchor="start" x="179" y="-498" font-family="Helvetica,sans-Serif" font-size="10.00">vanetza::asn1::asn1c</text>
<text text-anchor="middle" x="262" y="-487" font-family="Helvetica,sans-Serif" font-size="10.00">_oer_wrapper&lt; EtsiTs103097Data_t &gt;</text>
</a>
</g>
</g>
<!-- Node0&#45;&gt;Node3 -->
<g id="edge3" class="edge">
<title>Node0&#45;&gt;Node3</title>
<path fill="none" stroke="#63b8ff" d="M67.86,-304.08C78.06,-345.48 104.31,-427.84 159,-471 163.28,-474.38 167.97,-477.3 172.89,-479.82"/>
<polygon fill="#63b8ff" stroke="#63b8ff" points="71.24,-303.18 65.55,-294.25 64.43,-304.78 71.24,-303.18"/>
</g>
<!-- Node5 -->
<g id="node6" class="node">
<title>Node5</title>
<g id="a_node6"><a xlink:href="dc/dbf/classvanetza_1_1asn1_1_1asn1c__per__wrapper.html" target="_top" xlink:title=" ">
<polygon fill="white" stroke="#666666" points="323.5,-462 200.5,-462 200.5,-432 323.5,-432 323.5,-462"/>
<text text-anchor="start" x="208.5" y="-450" font-family="Helvetica,sans-Serif" font-size="10.00">vanetza::asn1::asn1c</text>
<text text-anchor="middle" x="262" y="-439" font-family="Helvetica,sans-Serif" font-size="10.00">_per_wrapper&lt; CAM_t &gt;</text>
</a>
</g>
</g>
<!-- Node0&#45;&gt;Node5 -->
<g id="edge5" class="edge">
<title>Node0&#45;&gt;Node5</title>
<path fill="none" stroke="#63b8ff" d="M72.17,-303.67C86.24,-336.21 115.5,-392.87 159,-423 171.19,-431.44 185.95,-436.94 200.42,-440.52"/>
<polygon fill="#63b8ff" stroke="#63b8ff" points="75.38,-302.27 68.29,-294.4 68.92,-304.97 75.38,-302.27"/>
</g>
<!-- Node7 -->
<g id="node8" class="node">
<title>Node7</title>
<g id="a_node8"><a xlink:href="dc/dbf/classvanetza_1_1asn1_1_1asn1c__per__wrapper.html" target="_top" xlink:title=" ">
<polygon fill="white" stroke="#666666" points="324,-414 200,-414 200,-384 324,-384 324,-414"/>
<text text-anchor="start" x="208" y="-402" font-family="Helvetica,sans-Serif" font-size="10.00">vanetza::asn1::asn1c</text>
<text text-anchor="middle" x="262" y="-391" font-family="Helvetica,sans-Serif" font-size="10.00">_per_wrapper&lt; CPM_t &gt;</text>
</a>
</g>
</g>
<!-- Node0&#45;&gt;Node7 -->
<g id="edge7" class="edge">
<title>Node0&#45;&gt;Node7</title>
<path fill="none" stroke="#63b8ff" d="M79.74,-302.45C97.24,-324.54 126.35,-356.87 159,-375 171.48,-381.93 185.9,-386.87 199.9,-390.39"/>
<polygon fill="#63b8ff" stroke="#63b8ff" points="82.29,-300.03 73.4,-294.26 76.75,-304.31 82.29,-300.03"/>
</g>
<!-- Node9 -->
<g id="node10" class="node">
<title>Node9</title>
<g id="a_node10"><a xlink:href="dc/dbf/classvanetza_1_1asn1_1_1asn1c__per__wrapper.html" target="_top" xlink:title=" ">
<polygon fill="white" stroke="#666666" points="327.5,-366 196.5,-366 196.5,-336 327.5,-336 327.5,-366"/>
<text text-anchor="start" x="204.5" y="-354" font-family="Helvetica,sans-Serif" font-size="10.00">vanetza::asn1::asn1c</text>
<text text-anchor="middle" x="262" y="-343" font-family="Helvetica,sans-Serif" font-size="10.00">_per_wrapper&lt; DENM_t &gt;</text>
</a>
</g>
</g>
<!-- Node0&#45;&gt;Node9 -->
<g id="edge9" class="edge">
<title>Node0&#45;&gt;Node9</title>
<path fill="none" stroke="#63b8ff" d="M97.74,-298.98C115.65,-308.5 138.02,-319.43 159,-327 170.89,-331.29 183.85,-335.02 196.41,-338.18"/>
<polygon fill="#63b8ff" stroke="#63b8ff" points="99.27,-295.83 88.81,-294.16 95.94,-301.99 99.27,-295.83"/>
</g>
<!-- Node11 -->
<g id="node12" class="node">
<title>Node11</title>
<g id="a_node12"><a xlink:href="dc/dbf/classvanetza_1_1asn1_1_1asn1c__per__wrapper.html" target="_top" xlink:title=" ">
<polygon fill="white" stroke="#666666" points="323,-318 201,-318 201,-288 323,-288 323,-318"/>
<text text-anchor="start" x="209" y="-306" font-family="Helvetica,sans-Serif" font-size="10.00">vanetza::asn1::asn1c</text>
<text text-anchor="middle" x="262" y="-295" font-family="Helvetica,sans-Serif" font-size="10.00">_per_wrapper&lt; IVIM_t &gt;</text>
</a>
</g>
</g>
<!-- Node0&#45;&gt;Node11 -->
<g id="edge11" class="edge">
<title>Node0&#45;&gt;Node11</title>
<path fill="none" stroke="#63b8ff" d="M133.13,-287.54C155.23,-290.21 179.41,-293.14 200.74,-295.71"/>
<polygon fill="#63b8ff" stroke="#63b8ff" points="133.48,-284.06 123.14,-286.33 132.64,-291.01 133.48,-284.06"/>
</g>
<!-- Node13 -->
<g id="node14" class="node">
<title>Node13</title>
<g id="a_node14"><a xlink:href="dc/dbf/classvanetza_1_1asn1_1_1asn1c__per__wrapper.html" target="_top" xlink:title=" ">
<polygon fill="white" stroke="#666666" points="331,-270 193,-270 193,-240 331,-240 331,-270"/>
<text text-anchor="start" x="201" y="-258" font-family="Helvetica,sans-Serif" font-size="10.00">vanetza::asn1::asn1c</text>
<text text-anchor="middle" x="262" y="-247" font-family="Helvetica,sans-Serif" font-size="10.00">_per_wrapper&lt; MAPEM_t &gt;</text>
</a>
</g>
</g>
<!-- Node0&#45;&gt;Node13 -->
<g id="edge13" class="edge">
<title>Node0&#45;&gt;Node13</title>
<path fill="none" stroke="#63b8ff" d="M133.11,-270.46C152.51,-268.12 173.5,-265.58 192.76,-263.25"/>
<polygon fill="#63b8ff" stroke="#63b8ff" points="132.64,-266.99 123.14,-271.67 133.48,-273.94 132.64,-266.99"/>
</g>
<!-- Node15 -->
<g id="node16" class="node">
<title>Node15</title>
<g id="a_node16"><a xlink:href="dc/dbf/classvanetza_1_1asn1_1_1asn1c__per__wrapper.html" target="_top" xlink:title=" ">
<polygon fill="white" stroke="#666666" points="332.5,-222 191.5,-222 191.5,-192 332.5,-192 332.5,-222"/>
<text text-anchor="start" x="199.5" y="-210" font-family="Helvetica,sans-Serif" font-size="10.00">vanetza::asn1::asn1c</text>
<text text-anchor="middle" x="262" y="-199" font-family="Helvetica,sans-Serif" font-size="10.00">_per_wrapper&lt; SPATEM_t &gt;</text>
</a>
</g>
</g>
<!-- Node0&#45;&gt;Node15 -->
<g id="edge15" class="edge">
<title>Node0&#45;&gt;Node15</title>
<path fill="none" stroke="#63b8ff" d="M97.74,-259.02C115.65,-249.5 138.02,-238.57 159,-231 169.27,-227.29 180.32,-224.01 191.24,-221.15"/>
<polygon fill="#63b8ff" stroke="#63b8ff" points="95.94,-256.01 88.81,-263.84 99.27,-262.17 95.94,-256.01"/>
</g>
<!-- Node17 -->
<g id="node18" class="node">
<title>Node17</title>
<g id="a_node18"><a xlink:href="dc/dbf/classvanetza_1_1asn1_1_1asn1c__per__wrapper.html" target="_top" xlink:title=" ">
<polygon fill="white" stroke="#666666" points="327.5,-174 196.5,-174 196.5,-144 327.5,-144 327.5,-174"/>
<text text-anchor="start" x="204.5" y="-162" font-family="Helvetica,sans-Serif" font-size="10.00">vanetza::asn1::asn1c</text>
<text text-anchor="middle" x="262" y="-151" font-family="Helvetica,sans-Serif" font-size="10.00">_per_wrapper&lt; SREM_t &gt;</text>
</a>
</g>
</g>
<!-- Node0&#45;&gt;Node17 -->
<g id="edge17" class="edge">
<title>Node0&#45;&gt;Node17</title>
<path fill="none" stroke="#63b8ff" d="M79.74,-255.55C97.24,-233.46 126.35,-201.13 159,-183 170.45,-176.64 183.53,-171.96 196.41,-168.52"/>
<polygon fill="#63b8ff" stroke="#63b8ff" points="76.75,-253.69 73.4,-263.74 82.29,-257.97 76.75,-253.69"/>
</g>
<!-- Node19 -->
<g id="node20" class="node">
<title>Node19</title>
<g id="a_node20"><a xlink:href="dc/dbf/classvanetza_1_1asn1_1_1asn1c__per__wrapper.html" target="_top" xlink:title=" ">
<polygon fill="white" stroke="#666666" points="327,-126 197,-126 197,-96 327,-96 327,-126"/>
<text text-anchor="start" x="205" y="-114" font-family="Helvetica,sans-Serif" font-size="10.00">vanetza::asn1::asn1c</text>
<text text-anchor="middle" x="262" y="-103" font-family="Helvetica,sans-Serif" font-size="10.00">_per_wrapper&lt; SSEM_t &gt;</text>
</a>
</g>
</g>
<!-- Node0&#45;&gt;Node19 -->
<g id="edge19" class="edge">
<title>Node0&#45;&gt;Node19</title>
<path fill="none" stroke="#63b8ff" d="M72.17,-254.33C86.24,-221.79 115.5,-165.13 159,-135 170.22,-127.23 183.62,-121.95 196.96,-118.38"/>
<polygon fill="#63b8ff" stroke="#63b8ff" points="68.92,-253.03 68.29,-263.6 75.38,-255.73 68.92,-253.03"/>
</g>
<!-- Node21 -->
<g id="node22" class="node">
<title>Node21</title>
<g id="a_node22"><a xlink:href="de/dbf/classvanetza_1_1asn1_1_1asn1c__oer__wrapper.html" target="_top" xlink:title=" ">
<polygon fill="white" stroke="#666666" points="317,-78 207,-78 207,-48 317,-48 317,-78"/>
<text text-anchor="start" x="215" y="-66" font-family="Helvetica,sans-Serif" font-size="10.00">vanetza::asn1::asn1c</text>
<text text-anchor="middle" x="262" y="-55" font-family="Helvetica,sans-Serif" font-size="10.00">_oer_wrapper&lt; T &gt;</text>
</a>
</g>
</g>
<!-- Node0&#45;&gt;Node21 -->
<g id="edge21" class="edge">
<title>Node0&#45;&gt;Node21</title>
<path fill="none" stroke="#63b8ff" d="M67.86,-253.92C78.06,-212.52 104.31,-130.16 159,-87 172.57,-76.29 190.11,-70.23 206.81,-66.83"/>
<polygon fill="#63b8ff" stroke="#63b8ff" points="64.43,-253.22 65.55,-263.75 71.24,-254.82 64.43,-253.22"/>
</g>
<!-- Node22 -->
<g id="node23" class="node">
<title>Node22</title>
<g id="a_node23"><a xlink:href="dc/dbf/classvanetza_1_1asn1_1_1asn1c__per__wrapper.html" target="_top" xlink:title=" ">
<polygon fill="white" stroke="#666666" points="317,-30 207,-30 207,0 317,0 317,-30"/>
<text text-anchor="start" x="215" y="-18" font-family="Helvetica,sans-Serif" font-size="10.00">vanetza::asn1::asn1c</text>
<text text-anchor="middle" x="262" y="-7" font-family="Helvetica,sans-Serif" font-size="10.00">_per_wrapper&lt; T &gt;</text>
</a>
</g>
</g>
<!-- Node0&#45;&gt;Node22 -->
<g id="edge22" class="edge">
<title>Node0&#45;&gt;Node22</title>
<path fill="none" stroke="#63b8ff" d="M65.08,-253.81C71.51,-204.67 92.81,-95.87 159,-39 172.25,-27.62 189.9,-21.4 206.8,-18.07"/>
<polygon fill="#63b8ff" stroke="#63b8ff" points="61.59,-253.54 63.86,-263.89 68.54,-254.38 61.59,-253.54"/>
</g>
<!-- Node2 -->
<g id="node3" class="node">
<title>Node2</title>
<g id="a_node3"><a xlink:href="d8/d1b/structvanetza_1_1security_1_1v3_1_1Certificate.html" target="_top" xlink:title=" ">
<polygon fill="white" stroke="#666666" points="507.5,-558 411.5,-558 411.5,-528 507.5,-528 507.5,-558"/>
<text text-anchor="start" x="419.5" y="-546" font-family="Helvetica,sans-Serif" font-size="10.00">vanetza::security::</text>
<text text-anchor="middle" x="459.5" y="-535" font-family="Helvetica,sans-Serif" font-size="10.00">v3::Certificate</text>
</a>
</g>
</g>
<!-- Node1&#45;&gt;Node2 -->
<g id="edge2" class="edge">
<title>Node1&#45;&gt;Node2</title>
<path fill="none" stroke="#63b8ff" d="M375.2,-543C387.8,-543 400.07,-543 411.15,-543"/>
<polygon fill="#63b8ff" stroke="#63b8ff" points="375.04,-539.5 365.04,-543 375.04,-546.5 375.04,-539.5"/>
</g>
<!-- Node4 -->
<g id="node5" class="node">
<title>Node4</title>
<g id="a_node5"><a xlink:href="df/d3d/structvanetza_1_1security_1_1v3_1_1SecuredMessage.html" target="_top" xlink:title=" ">
<polygon fill="white" stroke="#666666" points="514,-510 405,-510 405,-480 514,-480 514,-510"/>
<text text-anchor="start" x="413" y="-498" font-family="Helvetica,sans-Serif" font-size="10.00">vanetza::security::</text>
<text text-anchor="middle" x="459.5" y="-487" font-family="Helvetica,sans-Serif" font-size="10.00">v3::SecuredMessage</text>
</a>
</g>
</g>
<!-- Node3&#45;&gt;Node4 -->
<g id="edge4" class="edge">
<title>Node3&#45;&gt;Node4</title>
<path fill="none" stroke="#63b8ff" d="M363.44,-495C377.75,-495 391.98,-495 404.91,-495"/>
<polygon fill="#63b8ff" stroke="#63b8ff" points="363.03,-491.5 353.02,-495 363.02,-498.5 363.03,-491.5"/>
</g>
<!-- Node6 -->
<g id="node7" class="node">
<title>Node6</title>
<g id="a_node7"><a xlink:href="d6/d47/classvanetza_1_1asn1_1_1Cam.html" target="_top" xlink:title=" ">
<polygon fill="white" stroke="#666666" points="511.5,-456.5 407.5,-456.5 407.5,-437.5 511.5,-437.5 511.5,-456.5"/>
<text text-anchor="middle" x="459.5" y="-444.5" font-family="Helvetica,sans-Serif" font-size="10.00">vanetza::asn1::Cam</text>
</a>
</g>
</g>
<!-- Node5&#45;&gt;Node6 -->
<g id="edge6" class="edge">
<title>Node5&#45;&gt;Node6</title>
<path fill="none" stroke="#63b8ff" d="M333.8,-447C358.18,-447 384.99,-447 407.48,-447"/>
<polygon fill="#63b8ff" stroke="#63b8ff" points="333.52,-443.5 323.52,-447 333.52,-450.5 333.52,-443.5"/>
</g>
<!-- Node8 -->
<g id="node9" class="node">
<title>Node8</title>
<g id="a_node9"><a xlink:href="d3/d6a/classvanetza_1_1asn1_1_1Cpm.html" target="_top" xlink:title=" ">
<polygon fill="white" stroke="#666666" points="511.5,-408.5 407.5,-408.5 407.5,-389.5 511.5,-389.5 511.5,-408.5"/>
<text text-anchor="middle" x="459.5" y="-396.5" font-family="Helvetica,sans-Serif" font-size="10.00">vanetza::asn1::Cpm</text>
</a>
</g>
</g>
<!-- Node7&#45;&gt;Node8 -->
<g id="edge8" class="edge">
<title>Node7&#45;&gt;Node8</title>
<path fill="none" stroke="#63b8ff" d="M334.28,-399C358.51,-399 385.09,-399 407.43,-399"/>
<polygon fill="#63b8ff" stroke="#63b8ff" points="334.05,-395.5 324.05,-399 334.05,-402.5 334.05,-395.5"/>
</g>
<!-- Node10 -->
<g id="node11" class="node">
<title>Node10</title>
<g id="a_node11"><a xlink:href="da/dbc/classvanetza_1_1asn1_1_1Denm.html" target="_top" xlink:title=" ">
<polygon fill="white" stroke="#666666" points="514.5,-360.5 404.5,-360.5 404.5,-341.5 514.5,-341.5 514.5,-360.5"/>
<text text-anchor="middle" x="459.5" y="-348.5" font-family="Helvetica,sans-Serif" font-size="10.00">vanetza::asn1::Denm</text>
</a>
</g>
</g>
<!-- Node9&#45;&gt;Node10 -->
<g id="edge10" class="edge">
<title>Node9&#45;&gt;Node10</title>
<path fill="none" stroke="#63b8ff" d="M337.64,-351C359.88,-351 383.81,-351 404.46,-351"/>
<polygon fill="#63b8ff" stroke="#63b8ff" points="337.56,-347.5 327.56,-351 337.56,-354.5 337.56,-347.5"/>
</g>
<!-- Node12 -->
<g id="node13" class="node">
<title>Node12</title>
<g id="a_node13"><a xlink:href="dd/d62/classvanetza_1_1asn1_1_1Ivim.html" target="_top" xlink:title=" ">
<polygon fill="white" stroke="#666666" points="510.5,-312.5 408.5,-312.5 408.5,-293.5 510.5,-293.5 510.5,-312.5"/>
<text text-anchor="middle" x="459.5" y="-300.5" font-family="Helvetica,sans-Serif" font-size="10.00">vanetza::asn1::Ivim</text>
</a>
</g>
</g>
<!-- Node11&#45;&gt;Node12 -->
<g id="edge12" class="edge">
<title>Node11&#45;&gt;Node12</title>
<path fill="none" stroke="#63b8ff" d="M333.34,-303C358.14,-303 385.51,-303 408.31,-303"/>
<polygon fill="#63b8ff" stroke="#63b8ff" points="333.25,-299.5 323.25,-303 333.25,-306.5 333.25,-299.5"/>
</g>
<!-- Node14 -->
<g id="node15" class="node">
<title>Node14</title>
<g id="a_node15"><a xlink:href="d4/dfa/classvanetza_1_1asn1_1_1Mapem.html" target="_top" xlink:title=" ">
<polygon fill="white" stroke="#666666" points="517.5,-264.5 401.5,-264.5 401.5,-245.5 517.5,-245.5 517.5,-264.5"/>
<text text-anchor="middle" x="459.5" y="-252.5" font-family="Helvetica,sans-Serif" font-size="10.00">vanetza::asn1::Mapem</text>
</a>
</g>
</g>
<!-- Node13&#45;&gt;Node14 -->
<g id="edge14" class="edge">
<title>Node13&#45;&gt;Node14</title>
<path fill="none" stroke="#63b8ff" d="M341.17,-255C361.27,-255 382.52,-255 401.34,-255"/>
<polygon fill="#63b8ff" stroke="#63b8ff" points="341.1,-251.5 331.1,-255 341.1,-258.5 341.1,-251.5"/>
</g>
<!-- Node16 -->
<g id="node17" class="node">
<title>Node16</title>
<g id="a_node17"><a xlink:href="d4/d0f/classvanetza_1_1asn1_1_1Spatem.html" target="_top" xlink:title=" ">
<polygon fill="white" stroke="#666666" points="518,-216.5 401,-216.5 401,-197.5 518,-197.5 518,-216.5"/>
<text text-anchor="middle" x="459.5" y="-204.5" font-family="Helvetica,sans-Serif" font-size="10.00">vanetza::asn1::Spatem</text>
</a>
</g>
</g>
<!-- Node15&#45;&gt;Node16 -->
<g id="edge16" class="edge">
<title>Node15&#45;&gt;Node16</title>
<path fill="none" stroke="#63b8ff" d="M342.79,-207C362.18,-207 382.55,-207 400.7,-207"/>
<polygon fill="#63b8ff" stroke="#63b8ff" points="342.75,-203.5 332.75,-207 342.75,-210.5 342.75,-203.5"/>
</g>
<!-- Node18 -->
<g id="node19" class="node">
<title>Node18</title>
<g id="a_node19"><a xlink:href="d0/d8a/classvanetza_1_1asn1_1_1Srem.html" target="_top" xlink:title=" ">
<polygon fill="white" stroke="#666666" points="513,-168.5 406,-168.5 406,-149.5 513,-149.5 513,-168.5"/>
<text text-anchor="middle" x="459.5" y="-156.5" font-family="Helvetica,sans-Serif" font-size="10.00">vanetza::asn1::Srem</text>
</a>
</g>
</g>
<!-- Node17&#45;&gt;Node18 -->
<g id="edge18" class="edge">
<title>Node17&#45;&gt;Node18</title>
<path fill="none" stroke="#63b8ff" d="M337.82,-159C360.47,-159 384.85,-159 405.74,-159"/>
<polygon fill="#63b8ff" stroke="#63b8ff" points="337.56,-155.5 327.56,-159 337.56,-162.5 337.56,-155.5"/>
</g>
<!-- Node20 -->
<g id="node21" class="node">
<title>Node20</title>
<g id="a_node21"><a xlink:href="d8/dbe/classvanetza_1_1asn1_1_1Ssem.html" target="_top" xlink:title=" ">
<polygon fill="white" stroke="#666666" points="514,-120.5 405,-120.5 405,-101.5 514,-101.5 514,-120.5"/>
<text text-anchor="middle" x="459.5" y="-108.5" font-family="Helvetica,sans-Serif" font-size="10.00">vanetza::asn1::Ssem</text>
</a>
</g>
</g>
<!-- Node19&#45;&gt;Node20 -->
<g id="edge20" class="edge">
<title>Node19&#45;&gt;Node20</title>
<path fill="none" stroke="#63b8ff" d="M337.2,-111C359.69,-111 383.95,-111 404.81,-111"/>
<polygon fill="#63b8ff" stroke="#63b8ff" points="337.01,-107.5 327.01,-111 337.01,-114.5 337.01,-107.5"/>
</g>
</g>
</svg>
