<?xml version="1.0" encoding="UTF-8" standalone="no"?>
<!DOCTYPE svg PUBLIC "-//W3C//DTD SVG 1.1//EN"
 "http://www.w3.org/Graphics/SVG/1.1/DTD/svg11.dtd">
<!-- Generated by graphviz version 2.49.3 (0)
 -->
<!-- Title: Graphical Class Hierarchy Pages: 1 -->
<svg width="482pt" height="182pt"
 viewBox="0.00 0.00 482.00 182.00" xmlns="http://www.w3.org/2000/svg" xmlns:xlink="http://www.w3.org/1999/xlink">
<g id="graph0" class="graph" transform="scale(1 1) rotate(0) translate(4 178)">
<title>Graphical Class Hierarchy</title>
<!-- Node0 -->
<g id="node1" class="node">
<title>Node0</title>
<g id="a_node1"><a xlink:href="d0/db4/classvanetza_1_1geonet_1_1IndicationContext.html" target="_top" xlink:title=" ">
<polygon fill="white" stroke="#666666" points="133,-102 0,-102 0,-72 133,-72 133,-102"/>
<text text-anchor="start" x="8" y="-90" font-family="Helvetica,sans-Serif" font-size="10.00">vanetza::geonet::Indication</text>
<text text-anchor="middle" x="66.5" y="-79" font-family="Helvetica,sans-Serif" font-size="10.00">Context</text>
</a>
</g>
</g>
<!-- Node1 -->
<g id="node2" class="node">
<title>Node1</title>
<g id="a_node2"><a xlink:href="d6/d4a/classvanetza_1_1geonet_1_1IndicationContextBasic.html" target="_top" xlink:title=" ">
<polygon fill="white" stroke="#666666" points="302,-126 169,-126 169,-96 302,-96 302,-126"/>
<text text-anchor="start" x="177" y="-114" font-family="Helvetica,sans-Serif" font-size="10.00">vanetza::geonet::Indication</text>
<text text-anchor="middle" x="235.5" y="-103" font-family="Helvetica,sans-Serif" font-size="10.00">ContextBasic</text>
</a>
</g>
</g>
<!-- Node0&#45;&gt;Node1 -->
<g id="edge1" class="edge">
<title>Node0&#45;&gt;Node1</title>
<path fill="none" stroke="#63b8ff" d="M143.07,-97.86C151.68,-99.1 160.42,-100.35 168.89,-101.57"/>
<polygon fill="#63b8ff" stroke="#63b8ff" points="143.42,-94.37 133.02,-96.42 142.42,-101.3 143.42,-94.37"/>
</g>
<!-- Node4 -->
<g id="node5" class="node">
<title>Node4</title>
<g id="a_node5"><a xlink:href="db/d97/classvanetza_1_1geonet_1_1IndicationContextSecured.html" target="_top" xlink:title=" ">
<polygon fill="white" stroke="#666666" points="302,-78 169,-78 169,-48 302,-48 302,-78"/>
<text text-anchor="start" x="177" y="-66" font-family="Helvetica,sans-Serif" font-size="10.00">vanetza::geonet::Indication</text>
<text text-anchor="middle" x="235.5" y="-55" font-family="Helvetica,sans-Serif" font-size="10.00">ContextSecured</text>
</a>
</g>
</g>
<!-- Node0&#45;&gt;Node4 -->
<g id="edge4" class="edge">
<title>Node0&#45;&gt;Node4</title>
<path fill="none" stroke="#63b8ff" d="M143.07,-76.14C151.68,-74.9 160.42,-73.65 168.89,-72.43"/>
<polygon fill="#63b8ff" stroke="#63b8ff" points="142.42,-72.7 133.02,-77.58 143.42,-79.63 142.42,-72.7"/>
</g>
<!-- Node2 -->
<g id="node3" class="node">
<title>Node2</title>
<g id="a_node3"><a xlink:href="dc/dad/classvanetza_1_1geonet_1_1IndicationContextCast.html" target="_top" xlink:title=" ">
<polygon fill="white" stroke="#666666" points="472.5,-174 339.5,-174 339.5,-144 472.5,-144 472.5,-174"/>
<text text-anchor="start" x="347.5" y="-162" font-family="Helvetica,sans-Serif" font-size="10.00">vanetza::geonet::Indication</text>
<text text-anchor="middle" x="406" y="-151" font-family="Helvetica,sans-Serif" font-size="10.00">ContextCast</text>
</a>
</g>
</g>
<!-- Node1&#45;&gt;Node2 -->
<g id="edge2" class="edge">
<title>Node1&#45;&gt;Node2</title>
<path fill="none" stroke="#63b8ff" d="M299.43,-128.93C316.85,-133.89 335.57,-139.22 352.34,-144"/>
<polygon fill="#63b8ff" stroke="#63b8ff" points="299.93,-125.43 289.35,-126.06 298.01,-132.16 299.93,-125.43"/>
</g>
<!-- Node3 -->
<g id="node4" class="node">
<title>Node3</title>
<g id="a_node4"><a xlink:href="dd/d8e/classvanetza_1_1geonet_1_1IndicationContextDeserialize.html" target="_top" xlink:title=" ">
<polygon fill="white" stroke="#666666" points="472.5,-126 339.5,-126 339.5,-96 472.5,-96 472.5,-126"/>
<text text-anchor="start" x="347.5" y="-114" font-family="Helvetica,sans-Serif" font-size="10.00">vanetza::geonet::Indication</text>
<text text-anchor="middle" x="406" y="-103" font-family="Helvetica,sans-Serif" font-size="10.00">ContextDeserialize</text>
</a>
</g>
</g>
<!-- Node1&#45;&gt;Node3 -->
<g id="edge3" class="edge">
<title>Node1&#45;&gt;Node3</title>
<path fill="none" stroke="#63b8ff" d="M312.24,-111C321.26,-111 330.41,-111 339.27,-111"/>
<polygon fill="#63b8ff" stroke="#63b8ff" points="312.13,-107.5 302.13,-111 312.13,-114.5 312.13,-107.5"/>
</g>
<!-- Node5 -->
<g id="node6" class="node">
<title>Node5</title>
<g id="a_node6"><a xlink:href="db/d0c/classvanetza_1_1geonet_1_1IndicationContextSecuredCast.html" target="_top" xlink:title=" ">
<polygon fill="white" stroke="#666666" points="472.5,-78 339.5,-78 339.5,-48 472.5,-48 472.5,-78"/>
<text text-anchor="start" x="347.5" y="-66" font-family="Helvetica,sans-Serif" font-size="10.00">vanetza::geonet::Indication</text>
<text text-anchor="middle" x="406" y="-55" font-family="Helvetica,sans-Serif" font-size="10.00">ContextSecuredCast</text>
</a>
</g>
</g>
<!-- Node4&#45;&gt;Node5 -->
<g id="edge5" class="edge">
<title>Node4&#45;&gt;Node5</title>
<path fill="none" stroke="#63b8ff" d="M312.24,-63C321.26,-63 330.41,-63 339.27,-63"/>
<polygon fill="#63b8ff" stroke="#63b8ff" points="312.13,-59.5 302.13,-63 312.13,-66.5 312.13,-59.5"/>
</g>
<!-- Node6 -->
<g id="node7" class="node">
<title>Node6</title>
<g id="a_node7"><a xlink:href="d4/d6d/classvanetza_1_1geonet_1_1IndicationContextSecuredDeserialize.html" target="_top" xlink:title=" ">
<polygon fill="white" stroke="#666666" points="474,-30 338,-30 338,0 474,0 474,-30"/>
<text text-anchor="start" x="346" y="-18" font-family="Helvetica,sans-Serif" font-size="10.00">vanetza::geonet::Indication</text>
<text text-anchor="middle" x="406" y="-7" font-family="Helvetica,sans-Serif" font-size="10.00">ContextSecuredDeserialize</text>
</a>
</g>
</g>
<!-- Node4&#45;&gt;Node6 -->
<g id="edge6" class="edge">
<title>Node4&#45;&gt;Node6</title>
<path fill="none" stroke="#63b8ff" d="M299.43,-45.07C316.85,-40.11 335.57,-34.78 352.34,-30"/>
<polygon fill="#63b8ff" stroke="#63b8ff" points="298.01,-41.84 289.35,-47.94 299.93,-48.57 298.01,-41.84"/>
</g>
</g>
</svg>
