<?xml version="1.0" encoding="UTF-8" standalone="no"?>
<!DOCTYPE svg PUBLIC "-//W3C//DTD SVG 1.1//EN"
 "http://www.w3.org/Graphics/SVG/1.1/DTD/svg11.dtd">
<!-- Generated by graphviz version 2.42.3 (0)
 -->
<!-- Title: Graphical Class Hierarchy Pages: 1 -->
<svg width="482pt" height="186pt"
 viewBox="0.00 0.00 482.00 186.00" xmlns="http://www.w3.org/2000/svg" xmlns:xlink="http://www.w3.org/1999/xlink">
<g id="graph0" class="graph" transform="scale(1 1) rotate(0) translate(4 182)">
<title>Graphical Class Hierarchy</title>
<polygon fill="white" stroke="transparent" points="-4,4 -4,-182 478,-182 478,4 -4,4"/>
<!-- Node0 -->
<g id="node1" class="node">
<title>Node0</title>
<g id="a_node1"><a xlink:href="d0/db4/classvanetza_1_1geonet_1_1IndicationContext.html" target="_top" xlink:title=" ">
<polygon fill="white" stroke="black" points="0,-73.5 0,-103.5 133,-103.5 133,-73.5 0,-73.5"/>
<text text-anchor="start" x="8" y="-91.5" font-family="Helvetica,sans-Serif" font-size="10.00">vanetza::geonet::Indication</text>
<text text-anchor="middle" x="66.5" y="-80.5" font-family="Helvetica,sans-Serif" font-size="10.00">Context</text>
</a>
</g>
</g>
<!-- Node1 -->
<g id="node2" class="node">
<title>Node1</title>
<g id="a_node2"><a xlink:href="d6/d4a/classvanetza_1_1geonet_1_1IndicationContextBasic.html" target="_top" xlink:title=" ">
<polygon fill="white" stroke="black" points="169,-98.5 169,-128.5 302,-128.5 302,-98.5 169,-98.5"/>
<text text-anchor="start" x="177" y="-116.5" font-family="Helvetica,sans-Serif" font-size="10.00">vanetza::geonet::Indication</text>
<text text-anchor="middle" x="235.5" y="-105.5" font-family="Helvetica,sans-Serif" font-size="10.00">ContextBasic</text>
</a>
</g>
</g>
<!-- Node0&#45;&gt;Node1 -->
<g id="edge1" class="edge">
<title>Node0&#45;&gt;Node1</title>
<path fill="none" stroke="midnightblue" d="M143.07,-99.81C151.68,-101.1 160.42,-102.41 168.89,-103.68"/>
<polygon fill="midnightblue" stroke="midnightblue" points="143.43,-96.33 133.02,-98.31 142.4,-103.25 143.43,-96.33"/>
</g>
<!-- Node4 -->
<g id="node5" class="node">
<title>Node4</title>
<g id="a_node5"><a xlink:href="db/d97/classvanetza_1_1geonet_1_1IndicationContextSecured.html" target="_top" xlink:title=" ">
<polygon fill="white" stroke="black" points="169,-49.5 169,-79.5 302,-79.5 302,-49.5 169,-49.5"/>
<text text-anchor="start" x="177" y="-67.5" font-family="Helvetica,sans-Serif" font-size="10.00">vanetza::geonet::Indication</text>
<text text-anchor="middle" x="235.5" y="-56.5" font-family="Helvetica,sans-Serif" font-size="10.00">ContextSecured</text>
</a>
</g>
</g>
<!-- Node0&#45;&gt;Node4 -->
<g id="edge4" class="edge">
<title>Node0&#45;&gt;Node4</title>
<path fill="none" stroke="midnightblue" d="M143.07,-77.64C151.68,-76.4 160.42,-75.15 168.89,-73.93"/>
<polygon fill="midnightblue" stroke="midnightblue" points="142.42,-74.2 133.02,-79.08 143.42,-81.13 142.42,-74.2"/>
</g>
<!-- Node2 -->
<g id="node3" class="node">
<title>Node2</title>
<g id="a_node3"><a xlink:href="dc/dad/classvanetza_1_1geonet_1_1IndicationContextCast.html" target="_top" xlink:title=" ">
<polygon fill="white" stroke="black" points="339.5,-147.5 339.5,-177.5 472.5,-177.5 472.5,-147.5 339.5,-147.5"/>
<text text-anchor="start" x="347.5" y="-165.5" font-family="Helvetica,sans-Serif" font-size="10.00">vanetza::geonet::Indication</text>
<text text-anchor="middle" x="406" y="-154.5" font-family="Helvetica,sans-Serif" font-size="10.00">ContextCast</text>
</a>
</g>
</g>
<!-- Node1&#45;&gt;Node2 -->
<g id="edge2" class="edge">
<title>Node1&#45;&gt;Node2</title>
<path fill="none" stroke="midnightblue" d="M298.03,-131.39C316.16,-136.66 335.8,-142.38 353.24,-147.45"/>
<polygon fill="midnightblue" stroke="midnightblue" points="299.01,-128.03 288.43,-128.6 297.06,-134.75 299.01,-128.03"/>
</g>
<!-- Node3 -->
<g id="node4" class="node">
<title>Node3</title>
<g id="a_node4"><a xlink:href="dd/d8e/classvanetza_1_1geonet_1_1IndicationContextDeserialize.html" target="_top" xlink:title=" ">
<polygon fill="white" stroke="black" points="339.5,-98.5 339.5,-128.5 472.5,-128.5 472.5,-98.5 339.5,-98.5"/>
<text text-anchor="start" x="347.5" y="-116.5" font-family="Helvetica,sans-Serif" font-size="10.00">vanetza::geonet::Indication</text>
<text text-anchor="middle" x="406" y="-105.5" font-family="Helvetica,sans-Serif" font-size="10.00">ContextDeserialize</text>
</a>
</g>
</g>
<!-- Node1&#45;&gt;Node3 -->
<g id="edge3" class="edge">
<title>Node1&#45;&gt;Node3</title>
<path fill="none" stroke="midnightblue" d="M312.24,-113.5C321.26,-113.5 330.41,-113.5 339.27,-113.5"/>
<polygon fill="midnightblue" stroke="midnightblue" points="312.13,-110 302.13,-113.5 312.13,-117 312.13,-110"/>
</g>
<!-- Node5 -->
<g id="node6" class="node">
<title>Node5</title>
<g id="a_node6"><a xlink:href="db/d0c/classvanetza_1_1geonet_1_1IndicationContextSecuredCast.html" target="_top" xlink:title=" ">
<polygon fill="white" stroke="black" points="339.5,-49.5 339.5,-79.5 472.5,-79.5 472.5,-49.5 339.5,-49.5"/>
<text text-anchor="start" x="347.5" y="-67.5" font-family="Helvetica,sans-Serif" font-size="10.00">vanetza::geonet::Indication</text>
<text text-anchor="middle" x="406" y="-56.5" font-family="Helvetica,sans-Serif" font-size="10.00">ContextSecuredCast</text>
</a>
</g>
</g>
<!-- Node4&#45;&gt;Node5 -->
<g id="edge5" class="edge">
<title>Node4&#45;&gt;Node5</title>
<path fill="none" stroke="midnightblue" d="M312.24,-64.5C321.26,-64.5 330.41,-64.5 339.27,-64.5"/>
<polygon fill="midnightblue" stroke="midnightblue" points="312.13,-61 302.13,-64.5 312.13,-68 312.13,-61"/>
</g>
<!-- Node6 -->
<g id="node7" class="node">
<title>Node6</title>
<g id="a_node7"><a xlink:href="d4/d6d/classvanetza_1_1geonet_1_1IndicationContextSecuredDeserialize.html" target="_top" xlink:title=" ">
<polygon fill="white" stroke="black" points="338,-0.5 338,-30.5 474,-30.5 474,-0.5 338,-0.5"/>
<text text-anchor="start" x="346" y="-18.5" font-family="Helvetica,sans-Serif" font-size="10.00">vanetza::geonet::Indication</text>
<text text-anchor="middle" x="406" y="-7.5" font-family="Helvetica,sans-Serif" font-size="10.00">ContextSecuredDeserialize</text>
</a>
</g>
</g>
<!-- Node4&#45;&gt;Node6 -->
<g id="edge6" class="edge">
<title>Node4&#45;&gt;Node6</title>
<path fill="none" stroke="midnightblue" d="M298.03,-46.61C316.16,-41.34 335.8,-35.62 353.24,-30.55"/>
<polygon fill="midnightblue" stroke="midnightblue" points="297.06,-43.25 288.43,-49.4 299.01,-49.97 297.06,-43.25"/>
</g>
</g>
</svg>
