<?xml version="1.0" encoding="UTF-8" standalone="no"?>
<!DOCTYPE svg PUBLIC "-//W3C//DTD SVG 1.1//EN"
 "http://www.w3.org/Graphics/SVG/1.1/DTD/svg11.dtd">
<!-- Generated by graphviz version 2.49.3 (0)
 -->
<!-- Title: Graphical Class Hierarchy Pages: 1 -->
<svg width="269pt" height="104pt"
 viewBox="0.00 0.00 269.00 104.00" xmlns="http://www.w3.org/2000/svg" xmlns:xlink="http://www.w3.org/1999/xlink">
<g id="graph0" class="graph" transform="scale(1 1) rotate(0) translate(4 100)">
<title>Graphical Class Hierarchy</title>
<polygon fill="white" stroke="transparent" points="-4,4 -4,-100 265,-100 265,4 -4,4"/>
<!-- Node0 -->
<g id="node1" class="node">
<title>Node0</title>
<g id="a_node1"><a xlink:href="d9/d97/classvanetza_1_1dcc_1_1State.html" target="_top" xlink:title=" ">
<polygon fill="white" stroke="black" points="0,-38.5 0,-57.5 101,-57.5 101,-38.5 0,-38.5"/>
<text text-anchor="middle" x="50.5" y="-45.5" font-family="Helvetica,sans-Serif" font-size="10.00">vanetza::dcc::State</text>
</a>
</g>
</g>
<!-- Node1 -->
<g id="node2" class="node">
<title>Node1</title>
<g id="a_node2"><a xlink:href="de/d96/classvanetza_1_1dcc_1_1Active.html" target="_top" xlink:title=" ">
<polygon fill="white" stroke="black" points="146.5,-76.5 146.5,-95.5 251.5,-95.5 251.5,-76.5 146.5,-76.5"/>
<text text-anchor="middle" x="199" y="-83.5" font-family="Helvetica,sans-Serif" font-size="10.00">vanetza::dcc::Active</text>
</a>
</g>
</g>
<!-- Node0&#45;&gt;Node1 -->
<g id="edge1" class="edge">
<title>Node0&#45;&gt;Node1</title>
<path fill="none" stroke="midnightblue" d="M98.2,-60.11C118.6,-65.4 142.18,-71.52 161.3,-76.48"/>
<polygon fill="midnightblue" stroke="midnightblue" points="99.03,-56.71 88.47,-57.59 97.27,-63.49 99.03,-56.71"/>
</g>
<!-- Node2 -->
<g id="node3" class="node">
<title>Node2</title>
<g id="a_node3"><a xlink:href="da/d03/classvanetza_1_1dcc_1_1Relaxed.html" target="_top" xlink:title=" ">
<polygon fill="white" stroke="black" points="142.5,-38.5 142.5,-57.5 255.5,-57.5 255.5,-38.5 142.5,-38.5"/>
<text text-anchor="middle" x="199" y="-45.5" font-family="Helvetica,sans-Serif" font-size="10.00">vanetza::dcc::Relaxed</text>
</a>
</g>
</g>
<!-- Node0&#45;&gt;Node2 -->
<g id="edge2" class="edge">
<title>Node0&#45;&gt;Node2</title>
<path fill="none" stroke="midnightblue" d="M111.25,-48C121.55,-48 132.22,-48 142.41,-48"/>
<polygon fill="midnightblue" stroke="midnightblue" points="111.1,-44.5 101.1,-48 111.1,-51.5 111.1,-44.5"/>
</g>
<!-- Node3 -->
<g id="node4" class="node">
<title>Node3</title>
<g id="a_node4"><a xlink:href="de/d46/classvanetza_1_1dcc_1_1Restrictive.html" target="_top" xlink:title=" ">
<polygon fill="white" stroke="black" points="137,-0.5 137,-19.5 261,-19.5 261,-0.5 137,-0.5"/>
<text text-anchor="middle" x="199" y="-7.5" font-family="Helvetica,sans-Serif" font-size="10.00">vanetza::dcc::Restrictive</text>
</a>
</g>
</g>
<!-- Node0&#45;&gt;Node3 -->
<g id="edge3" class="edge">
<title>Node0&#45;&gt;Node3</title>
<path fill="none" stroke="midnightblue" d="M98.2,-35.89C118.6,-30.6 142.18,-24.48 161.3,-19.52"/>
<polygon fill="midnightblue" stroke="midnightblue" points="97.27,-32.51 88.47,-38.41 99.03,-39.29 97.27,-32.51"/>
</g>
</g>
</svg>
