<?xml version="1.0" encoding="UTF-8" standalone="no"?>
<!DOCTYPE svg PUBLIC "-//W3C//DTD SVG 1.1//EN"
 "http://www.w3.org/Graphics/SVG/1.1/DTD/svg11.dtd">
<!-- Generated by graphviz version 2.49.3 (0)
 -->
<!-- Title: Graphical Class Hierarchy Pages: 1 -->
<svg width="310pt" height="78pt"
 viewBox="0.00 0.00 310.00 77.50" xmlns="http://www.w3.org/2000/svg" xmlns:xlink="http://www.w3.org/1999/xlink">
<g id="graph0" class="graph" transform="scale(1 1) rotate(0) translate(4 73.5)">
<title>Graphical Class Hierarchy</title>
<polygon fill="white" stroke="transparent" points="-4,4 -4,-73.5 306,-73.5 306,4 -4,4"/>
<!-- Node0 -->
<g id="node1" class="node">
<title>Node0</title>
<g id="a_node1"><a xlink:title=" ">
<polygon fill="white" stroke="#bfbfbf" points="0,-28 0,-47 101,-47 101,-28 0,-28"/>
<text text-anchor="middle" x="50.5" y="-35" font-family="Helvetica,sans-Serif" font-size="10.00">boost::static_visitor</text>
</a>
</g>
</g>
<!-- Node1 -->
<g id="node2" class="node">
<title>Node1</title>
<g id="a_node2"><a xlink:href="d5/d3f/classvanetza_1_1asn1_1_1PacketVisitor.html" target="_top" xlink:title=" ">
<polygon fill="white" stroke="black" points="137,-50 137,-69 302,-69 302,-50 137,-50"/>
<text text-anchor="middle" x="219.5" y="-57" font-family="Helvetica,sans-Serif" font-size="10.00">vanetza::asn1::PacketVisitor&lt; T &gt;</text>
</a>
</g>
</g>
<!-- Node0&#45;&gt;Node1 -->
<g id="edge1" class="edge">
<title>Node0&#45;&gt;Node1</title>
<path fill="none" stroke="midnightblue" d="M111.32,-45.38C122.61,-46.87 134.54,-48.44 146.17,-49.97"/>
<polygon fill="midnightblue" stroke="midnightblue" points="111.52,-41.88 101.15,-44.04 110.61,-48.82 111.52,-41.88"/>
</g>
<!-- Node2 -->
<g id="node3" class="node">
<title>Node2</title>
<g id="a_node3"><a xlink:href="dc/ddc/classvanetza_1_1geonet_1_1RepetitionDispatcher.html" target="_top" xlink:title=" ">
<polygon fill="white" stroke="black" points="152.5,-0.5 152.5,-30.5 286.5,-30.5 286.5,-0.5 152.5,-0.5"/>
<text text-anchor="start" x="160.5" y="-18.5" font-family="Helvetica,sans-Serif" font-size="10.00">vanetza::geonet::Repetition</text>
<text text-anchor="middle" x="219.5" y="-7.5" font-family="Helvetica,sans-Serif" font-size="10.00">Dispatcher</text>
</a>
</g>
</g>
<!-- Node0&#45;&gt;Node2 -->
<g id="edge2" class="edge">
<title>Node0&#45;&gt;Node2</title>
<path fill="none" stroke="midnightblue" d="M111.16,-29.64C124.51,-27.88 138.74,-26.01 152.33,-24.22"/>
<polygon fill="midnightblue" stroke="midnightblue" points="110.61,-26.18 101.15,-30.96 111.52,-33.12 110.61,-26.18"/>
</g>
</g>
</svg>
