<?xml version="1.0" encoding="UTF-8" standalone="no"?>
<!DOCTYPE svg PUBLIC "-//W3C//DTD SVG 1.1//EN"
 "http://www.w3.org/Graphics/SVG/1.1/DTD/svg11.dtd">
<!-- Generated by graphviz version 2.42.1 (0)
 -->
<!-- Title: Graphical Class Hierarchy Pages: 1 -->
<svg width="437pt" height="389pt"
 viewBox="0.00 0.00 437.00 389.00" xmlns="http://www.w3.org/2000/svg" xmlns:xlink="http://www.w3.org/1999/xlink">
<g id="graph0" class="graph" transform="scale(1 1) rotate(0) translate(4 385)">
<title>Graphical Class Hierarchy</title>
<polygon fill="white" stroke="transparent" points="-4,4 -4,-385 433,-385 433,4 -4,4"/>
<!-- Node321 -->
<g id="node1" class="node">
<title>Node321</title>
<g id="a_node1"><a xlink:title=" ">
<polygon fill="white" stroke="#bfbfbf" points="15,-356 15,-375 65,-375 65,-356 15,-356"/>
<text text-anchor="middle" x="40" y="-363" font-family="Helvetica,sans-Serif" font-size="10.00">additive</text>
</a>
</g>
</g>
<!-- Node36 -->
<g id="node2" class="node">
<title>Node36</title>
<g id="a_node2"><a xlink:href="de/d8f/classvanetza_1_1geonet_1_1SequenceNumber.html" target="_top" xlink:title=" ">
<polygon fill="white" stroke="black" points="118.5,-350.5 118.5,-380.5 254.5,-380.5 254.5,-350.5 118.5,-350.5"/>
<text text-anchor="start" x="126.5" y="-368.5" font-family="Helvetica,sans-Serif" font-size="10.00">vanetza::geonet::Sequence</text>
<text text-anchor="middle" x="186.5" y="-357.5" font-family="Helvetica,sans-Serif" font-size="10.00">Number</text>
</a>
</g>
</g>
<!-- Node321&#45;&gt;Node36 -->
<g id="edge1" class="edge">
<title>Node321&#45;&gt;Node36</title>
<path fill="none" stroke="midnightblue" d="M75.42,-365.5C88.29,-365.5 103.39,-365.5 118.21,-365.5"/>
<polygon fill="midnightblue" stroke="midnightblue" points="75.19,-362 65.19,-365.5 75.19,-369 75.19,-362"/>
</g>
<!-- Node318 -->
<g id="node3" class="node">
<title>Node318</title>
<g id="a_node3"><a xlink:title=" ">
<polygon fill="white" stroke="#bfbfbf" points="10.5,-312 10.5,-331 69.5,-331 69.5,-312 10.5,-312"/>
<text text-anchor="middle" x="40" y="-319" font-family="Helvetica,sans-Serif" font-size="10.00">arithmetic</text>
</a>
</g>
</g>
<!-- Node39 -->
<g id="node4" class="node">
<title>Node39</title>
<g id="a_node4"><a xlink:href="d4/d40/classvanetza_1_1UnitInterval.html" target="_top" xlink:title=" ">
<polygon fill="white" stroke="black" points="133,-312 133,-331 240,-331 240,-312 133,-312"/>
<text text-anchor="middle" x="186.5" y="-319" font-family="Helvetica,sans-Serif" font-size="10.00">vanetza::UnitInterval</text>
</a>
</g>
</g>
<!-- Node318&#45;&gt;Node39 -->
<g id="edge2" class="edge">
<title>Node318&#45;&gt;Node39</title>
<path fill="none" stroke="#8b1a1a" d="M79.77,-321.5C96.04,-321.5 115.22,-321.5 132.74,-321.5"/>
<polygon fill="#8b1a1a" stroke="#8b1a1a" points="79.55,-318 69.55,-321.5 79.55,-325 79.55,-318"/>
</g>
<!-- Node40 -->
<g id="node5" class="node">
<title>Node40</title>
<g id="a_node5"><a xlink:href="dc/d86/classvanetza_1_1dcc_1_1ChannelLoad.html" target="_top" xlink:title=" ">
<polygon fill="white" stroke="black" points="293,-312 293,-331 429,-331 429,-312 293,-312"/>
<text text-anchor="middle" x="361" y="-319" font-family="Helvetica,sans-Serif" font-size="10.00">vanetza::dcc::ChannelLoad</text>
</a>
</g>
</g>
<!-- Node39&#45;&gt;Node40 -->
<g id="edge3" class="edge">
<title>Node39&#45;&gt;Node40</title>
<path fill="none" stroke="midnightblue" d="M250.55,-321.5C264.36,-321.5 279.02,-321.5 292.97,-321.5"/>
<polygon fill="midnightblue" stroke="midnightblue" points="250.19,-318 240.19,-321.5 250.19,-325 250.19,-318"/>
</g>
<!-- Node30 -->
<g id="node6" class="node">
<title>Node30</title>
<g id="a_node6"><a xlink:title=" ">
<polygon fill="white" stroke="#bfbfbf" points="0,-170 0,-189 80,-189 80,-170 0,-170"/>
<text text-anchor="middle" x="40" y="-177" font-family="Helvetica,sans-Serif" font-size="10.00">totally_ordered</text>
</a>
</g>
</g>
<!-- Node30&#45;&gt;Node36 -->
<g id="edge9" class="edge">
<title>Node30&#45;&gt;Node36</title>
<path fill="none" stroke="midnightblue" d="M45.03,-199.39C52.86,-233.07 73.25,-301.46 116,-340.5 120.26,-344.39 125.17,-347.69 130.37,-350.48"/>
<polygon fill="midnightblue" stroke="midnightblue" points="48.4,-198.41 42.84,-189.39 41.56,-199.91 48.4,-198.41"/>
</g>
<!-- Node30&#45;&gt;Node39 -->
<g id="edge12" class="edge">
<title>Node30&#45;&gt;Node39</title>
<path fill="none" stroke="#8b1a1a" d="M47.62,-198.57C57.96,-225.54 80.53,-274.54 116,-301.5 121.7,-305.83 128.3,-309.22 135.13,-311.88"/>
<polygon fill="#8b1a1a" stroke="#8b1a1a" points="50.88,-197.28 44.15,-189.1 44.3,-199.69 50.88,-197.28"/>
</g>
<!-- Node0 -->
<g id="node7" class="node">
<title>Node0</title>
<g id="a_node7"><a xlink:href="dd/dba/classvanetza_1_1BitNumber.html" target="_top" xlink:title=" ">
<polygon fill="white" stroke="black" points="134.5,-0.5 134.5,-30.5 238.5,-30.5 238.5,-0.5 134.5,-0.5"/>
<text text-anchor="start" x="142.5" y="-18.5" font-family="Helvetica,sans-Serif" font-size="10.00">vanetza::BitNumber</text>
<text text-anchor="middle" x="186.5" y="-7.5" font-family="Helvetica,sans-Serif" font-size="10.00">&lt; unsigned, 10 &gt;</text>
</a>
</g>
</g>
<!-- Node30&#45;&gt;Node0 -->
<g id="edge4" class="edge">
<title>Node30&#45;&gt;Node0</title>
<path fill="none" stroke="midnightblue" d="M46.47,-160.25C55.87,-130.49 77.87,-73.32 116,-40.5 121.44,-35.82 127.83,-31.98 134.49,-28.86"/>
<polygon fill="midnightblue" stroke="midnightblue" points="43.1,-159.3 43.57,-169.88 49.8,-161.32 43.1,-159.3"/>
</g>
<!-- Node32 -->
<g id="node8" class="node">
<title>Node32</title>
<g id="a_node8"><a xlink:href="dd/dba/classvanetza_1_1BitNumber.html" target="_top" xlink:title=" ">
<polygon fill="white" stroke="black" points="134.5,-262.5 134.5,-292.5 238.5,-292.5 238.5,-262.5 134.5,-262.5"/>
<text text-anchor="start" x="142.5" y="-280.5" font-family="Helvetica,sans-Serif" font-size="10.00">vanetza::BitNumber</text>
<text text-anchor="middle" x="186.5" y="-269.5" font-family="Helvetica,sans-Serif" font-size="10.00">&lt; unsigned, 4 &gt;</text>
</a>
</g>
</g>
<!-- Node30&#45;&gt;Node32 -->
<g id="edge5" class="edge">
<title>Node30&#45;&gt;Node32</title>
<path fill="none" stroke="midnightblue" d="M55.2,-197.12C69.17,-213.45 91.86,-237.41 116,-252.5 121.98,-256.24 128.6,-259.52 135.31,-262.38"/>
<polygon fill="midnightblue" stroke="midnightblue" points="57.83,-194.8 48.73,-189.37 52.45,-199.29 57.83,-194.8"/>
</g>
<!-- Node33 -->
<g id="node9" class="node">
<title>Node33</title>
<g id="a_node9"><a xlink:href="dd/dba/classvanetza_1_1BitNumber.html" target="_top" xlink:title=" ">
<polygon fill="white" stroke="black" points="134.5,-213.5 134.5,-243.5 238.5,-243.5 238.5,-213.5 134.5,-213.5"/>
<text text-anchor="start" x="142.5" y="-231.5" font-family="Helvetica,sans-Serif" font-size="10.00">vanetza::BitNumber</text>
<text text-anchor="middle" x="186.5" y="-220.5" font-family="Helvetica,sans-Serif" font-size="10.00">&lt; unsigned, 5 &gt;</text>
</a>
</g>
</g>
<!-- Node30&#45;&gt;Node33 -->
<g id="edge6" class="edge">
<title>Node30&#45;&gt;Node33</title>
<path fill="none" stroke="midnightblue" d="M78.77,-192.31C97.89,-198.79 121.2,-206.7 141.16,-213.46"/>
<polygon fill="midnightblue" stroke="midnightblue" points="79.8,-188.96 69.2,-189.06 77.55,-195.59 79.8,-188.96"/>
</g>
<!-- Node34 -->
<g id="node10" class="node">
<title>Node34</title>
<g id="a_node10"><a xlink:href="dd/dba/classvanetza_1_1BitNumber.html" target="_top" xlink:title=" ">
<polygon fill="white" stroke="black" points="134.5,-164.5 134.5,-194.5 238.5,-194.5 238.5,-164.5 134.5,-164.5"/>
<text text-anchor="start" x="142.5" y="-182.5" font-family="Helvetica,sans-Serif" font-size="10.00">vanetza::BitNumber</text>
<text text-anchor="middle" x="186.5" y="-171.5" font-family="Helvetica,sans-Serif" font-size="10.00">&lt; T, WIDTH &gt;</text>
</a>
</g>
</g>
<!-- Node30&#45;&gt;Node34 -->
<g id="edge7" class="edge">
<title>Node30&#45;&gt;Node34</title>
<path fill="none" stroke="midnightblue" d="M90.21,-179.5C104.46,-179.5 120.05,-179.5 134.41,-179.5"/>
<polygon fill="midnightblue" stroke="midnightblue" points="90.1,-176 80.1,-179.5 90.1,-183 90.1,-176"/>
</g>
<!-- Node35 -->
<g id="node11" class="node">
<title>Node35</title>
<g id="a_node11"><a xlink:href="d7/d9a/classvanetza_1_1geonet_1_1Lifetime.html" target="_top" xlink:title=" ">
<polygon fill="white" stroke="black" points="123,-126 123,-145 250,-145 250,-126 123,-126"/>
<text text-anchor="middle" x="186.5" y="-133" font-family="Helvetica,sans-Serif" font-size="10.00">vanetza::geonet::Lifetime</text>
</a>
</g>
</g>
<!-- Node30&#45;&gt;Node35 -->
<g id="edge8" class="edge">
<title>Node30&#45;&gt;Node35</title>
<path fill="none" stroke="midnightblue" d="M78.05,-166.7C90.11,-162.66 103.58,-158.26 116,-154.5 126.65,-151.27 138.3,-147.99 148.96,-145.08"/>
<polygon fill="midnightblue" stroke="midnightblue" points="76.67,-163.48 68.31,-169.99 78.91,-170.11 76.67,-163.48"/>
</g>
<!-- Node37 -->
<g id="node12" class="node">
<title>Node37</title>
<g id="a_node12"><a xlink:href="d0/dc8/classvanetza_1_1geonet_1_1Timestamp.html" target="_top" xlink:title=" ">
<polygon fill="white" stroke="black" points="116,-88 116,-107 257,-107 257,-88 116,-88"/>
<text text-anchor="middle" x="186.5" y="-95" font-family="Helvetica,sans-Serif" font-size="10.00">vanetza::geonet::Timestamp</text>
</a>
</g>
</g>
<!-- Node30&#45;&gt;Node37 -->
<g id="edge10" class="edge">
<title>Node30&#45;&gt;Node37</title>
<path fill="none" stroke="midnightblue" d="M56.78,-162.66C70.99,-148.43 93.13,-128.49 116,-116.5 123.31,-112.67 131.47,-109.55 139.56,-107.03"/>
<polygon fill="midnightblue" stroke="midnightblue" points="54.2,-160.29 49.74,-169.9 59.22,-165.17 54.2,-160.29"/>
</g>
<!-- Node38 -->
<g id="node13" class="node">
<title>Node38</title>
<g id="a_node13"><a xlink:href="db/da9/classvanetza_1_1MacAddress.html" target="_top" xlink:title=" ">
<polygon fill="white" stroke="black" points="130.5,-50 130.5,-69 242.5,-69 242.5,-50 130.5,-50"/>
<text text-anchor="middle" x="186.5" y="-57" font-family="Helvetica,sans-Serif" font-size="10.00">vanetza::MacAddress</text>
</a>
</g>
</g>
<!-- Node30&#45;&gt;Node38 -->
<g id="edge11" class="edge">
<title>Node30&#45;&gt;Node38</title>
<path fill="none" stroke="midnightblue" d="M49.99,-160.7C61.9,-137.83 85.06,-99.65 116,-78.5 121.68,-74.62 128.13,-71.53 134.75,-69.07"/>
<polygon fill="midnightblue" stroke="midnightblue" points="46.81,-159.24 45.45,-169.75 53.07,-162.38 46.81,-159.24"/>
</g>
</g>
</svg>
