<?xml version="1.0" encoding="UTF-8" standalone="no"?>
<!DOCTYPE svg PUBLIC "-//W3C//DTD SVG 1.1//EN"
 "http://www.w3.org/Graphics/SVG/1.1/DTD/svg11.dtd">
<!-- Generated by graphviz version 14.1.2 (0)
 -->
<!-- Title: Graphical Class Hierarchy Pages: 1 -->
<svg width="506pt" height="42pt"
 viewBox="0.00 0.00 506.00 42.00" xmlns="http://www.w3.org/2000/svg" xmlns:xlink="http://www.w3.org/1999/xlink">
<g id="graph0" class="graph" transform="scale(1 1) rotate(0) translate(4 37.5)">
<title>Graphical Class Hierarchy</title>
<!-- Node0 -->
<g id="Node000000" class="node">
<title>Node0</title>
<g id="a_Node000000"><a xlink:href="d0/d68/classvanetza_1_1asn1_1_1asn1c__wrapper__common.html" target="_top" xlink:title=" ">
<polygon fill="white" stroke="#666666" points="162.25,-33.5 0,-33.5 0,0 162.25,0 162.25,-33.5"/>
<text xml:space="preserve" text-anchor="start" x="8" y="-20" font-family="Helvetica,sans-Serif" font-size="10.00">vanetza::asn1::asn1c</text>
<text xml:space="preserve" text-anchor="middle" x="81.12" y="-7.25" font-family="Helvetica,sans-Serif" font-size="10.00">_wrapper_common&lt; CPM_t &gt;</text>
</a>
</g>
</g>
<!-- Node1 -->
<g id="Node000001" class="node">
<title>Node1</title>
<g id="a_Node000001"><a xlink:href="dc/dbf/classvanetza_1_1asn1_1_1asn1c__per__wrapper.html" target="_top" xlink:title=" ">
<polygon fill="white" stroke="#666666" points="333.5,-33.5 198.25,-33.5 198.25,0 333.5,0 333.5,-33.5"/>
<text xml:space="preserve" text-anchor="start" x="206.25" y="-20" font-family="Helvetica,sans-Serif" font-size="10.00">vanetza::asn1::asn1c</text>
<text xml:space="preserve" text-anchor="middle" x="265.88" y="-7.25" font-family="Helvetica,sans-Serif" font-size="10.00">_per_wrapper&lt; CPM_t &gt;</text>
</a>
</g>
</g>
<!-- Node0&#45;&gt;Node1 -->
<g id="edge36_Node000000_Node000001" class="edge">
<title>Node0&#45;&gt;Node1</title>
<g id="a_edge36_Node000000_Node000001"><a xlink:title=" ">
<path fill="none" stroke="#63b8ff" d="M173.92,-16.75C181.97,-16.75 190.03,-16.75 197.82,-16.75"/>
<polygon fill="#63b8ff" stroke="#63b8ff" points="174.06,-13.25 164.06,-16.75 174.06,-20.25 174.06,-13.25"/>
</a>
</g>
</g>
<!-- Node2 -->
<g id="Node000002" class="node">
<title>Node2</title>
<g id="a_Node000002"><a xlink:href="d8/d95/classvanetza_1_1asn1_1_1r1_1_1Cpm.html" target="_top" xlink:title=" ">
<polygon fill="white" stroke="#666666" points="498,-27.12 369.5,-27.12 369.5,-6.38 498,-6.38 498,-27.12"/>
<text xml:space="preserve" text-anchor="middle" x="433.75" y="-13.62" font-family="Helvetica,sans-Serif" font-size="10.00">vanetza::asn1::r1::Cpm</text>
</a>
</g>
</g>
<!-- Node1&#45;&gt;Node2 -->
<g id="edge37_Node000001_Node000002" class="edge">
<title>Node1&#45;&gt;Node2</title>
<g id="a_edge37_Node000001_Node000002"><a xlink:title=" ">
<path fill="none" stroke="#63b8ff" d="M345.11,-16.75C353.12,-16.75 361.18,-16.75 369,-16.75"/>
<polygon fill="#63b8ff" stroke="#63b8ff" points="345.38,-13.25 335.38,-16.75 345.38,-20.25 345.38,-13.25"/>
</a>
</g>
</g>
</g>
</svg>
