<?xml version="1.0" encoding="UTF-8" standalone="no"?>
<!DOCTYPE svg PUBLIC "-//W3C//DTD SVG 1.1//EN"
 "http://www.w3.org/Graphics/SVG/1.1/DTD/svg11.dtd">
<!-- Generated by graphviz version 2.49.3 (0)
 -->
<!-- Title: Graphical Class Hierarchy Pages: 1 -->
<svg width="238pt" height="137pt"
 viewBox="0.00 0.00 238.00 137.00" xmlns="http://www.w3.org/2000/svg" xmlns:xlink="http://www.w3.org/1999/xlink">
<g id="graph0" class="graph" transform="scale(1 1) rotate(0) translate(4 133)">
<title>Graphical Class Hierarchy</title>
<polygon fill="white" stroke="transparent" points="-4,4 -4,-133 234,-133 234,4 -4,4"/>
<!-- Node0 -->
<g id="node1" class="node">
<title>Node0</title>
<g id="a_node1"><a xlink:title=" ">
<polygon fill="white" stroke="#bfbfbf" points="0,-55 0,-74 70,-74 70,-55 0,-55"/>
<text text-anchor="middle" x="35" y="-62" font-family="Helvetica,sans-Serif" font-size="10.00">SignService</text>
</a>
</g>
</g>
<!-- Node1 -->
<g id="node2" class="node">
<title>Node1</title>
<g id="a_node2"><a xlink:href="d3/d37/classvanetza_1_1security_1_1v2_1_1DeferredSignService.html" target="_top" xlink:title=" ">
<polygon fill="white" stroke="black" points="106,-98.5 106,-128.5 230,-128.5 230,-98.5 106,-98.5"/>
<text text-anchor="start" x="114" y="-116.5" font-family="Helvetica,sans-Serif" font-size="10.00">vanetza::security::</text>
<text text-anchor="middle" x="168" y="-105.5" font-family="Helvetica,sans-Serif" font-size="10.00">v2::DeferredSignService</text>
</a>
</g>
</g>
<!-- Node0&#45;&gt;Node1 -->
<g id="edge1" class="edge">
<title>Node0&#45;&gt;Node1</title>
<path fill="none" stroke="midnightblue" d="M71.2,-77.67C88.35,-84.08 109.04,-91.82 126.8,-98.46"/>
<polygon fill="midnightblue" stroke="midnightblue" points="72.16,-74.29 61.57,-74.06 69.71,-80.85 72.16,-74.29"/>
</g>
<!-- Node2 -->
<g id="node3" class="node">
<title>Node2</title>
<g id="a_node3"><a xlink:href="dd/d92/classvanetza_1_1security_1_1v2_1_1DummySignService.html" target="_top" xlink:title=" ">
<polygon fill="white" stroke="black" points="107.5,-49.5 107.5,-79.5 228.5,-79.5 228.5,-49.5 107.5,-49.5"/>
<text text-anchor="start" x="115.5" y="-67.5" font-family="Helvetica,sans-Serif" font-size="10.00">vanetza::security::</text>
<text text-anchor="middle" x="168" y="-56.5" font-family="Helvetica,sans-Serif" font-size="10.00">v2::DummySignService</text>
</a>
</g>
</g>
<!-- Node0&#45;&gt;Node2 -->
<g id="edge2" class="edge">
<title>Node0&#45;&gt;Node2</title>
<path fill="none" stroke="midnightblue" d="M80.09,-64.5C88.88,-64.5 98.25,-64.5 107.47,-64.5"/>
<polygon fill="midnightblue" stroke="midnightblue" points="80.08,-61 70.08,-64.5 80.08,-68 80.08,-61"/>
</g>
<!-- Node3 -->
<g id="node4" class="node">
<title>Node3</title>
<g id="a_node4"><a xlink:href="d7/d8c/classvanetza_1_1security_1_1v2_1_1StraightSignService.html" target="_top" xlink:title=" ">
<polygon fill="white" stroke="black" points="108,-0.5 108,-30.5 228,-30.5 228,-0.5 108,-0.5"/>
<text text-anchor="start" x="116" y="-18.5" font-family="Helvetica,sans-Serif" font-size="10.00">vanetza::security::</text>
<text text-anchor="middle" x="168" y="-7.5" font-family="Helvetica,sans-Serif" font-size="10.00">v2::StraightSignService</text>
</a>
</g>
</g>
<!-- Node0&#45;&gt;Node3 -->
<g id="edge3" class="edge">
<title>Node0&#45;&gt;Node3</title>
<path fill="none" stroke="midnightblue" d="M71.2,-51.33C88.35,-44.92 109.04,-37.18 126.8,-30.54"/>
<polygon fill="midnightblue" stroke="midnightblue" points="69.71,-48.15 61.57,-54.94 72.16,-54.71 69.71,-48.15"/>
</g>
</g>
</svg>
