<?xml version="1.0" encoding="UTF-8" standalone="no"?>
<!DOCTYPE svg PUBLIC "-//W3C//DTD SVG 1.1//EN"
 "http://www.w3.org/Graphics/SVG/1.1/DTD/svg11.dtd">
<!-- Generated by graphviz version 14.1.2 (0)
 -->
<!-- Title: Graphical Class Hierarchy Pages: 1 -->
<svg width="585pt" height="288pt"
 viewBox="0.00 0.00 585.00 288.00" xmlns="http://www.w3.org/2000/svg" xmlns:xlink="http://www.w3.org/1999/xlink">
<g id="graph0" class="graph" transform="scale(1 1) rotate(0) translate(4 284.12)">
<title>Graphical Class Hierarchy</title>
<!-- Node0 -->
<g id="Node000000" class="node">
<title>Node0</title>
<g id="a_Node000000"><a xlink:href="da/dcb/classvanetza_1_1geonet_1_1ConstAccessiblePdu.html" target="_top" xlink:title=" ">
<polygon fill="white" stroke="#666666" points="198.25,-165.75 0,-165.75 0,-145 198.25,-145 198.25,-165.75"/>
<text xml:space="preserve" text-anchor="middle" x="99.12" y="-152.25" font-family="Helvetica,sans-Serif" font-size="10.00">vanetza::geonet::ConstAccessiblePdu</text>
</a>
</g>
</g>
<!-- Node1 -->
<g id="Node000001" class="node">
<title>Node1</title>
<g id="a_Node000001"><a xlink:href="d5/d01/classvanetza_1_1geonet_1_1ExtendedPduConstRefs.html" target="_top" xlink:title=" ">
<polygon fill="white" stroke="#666666" points="380.75,-195.12 234.25,-195.12 234.25,-161.62 380.75,-161.62 380.75,-195.12"/>
<text xml:space="preserve" text-anchor="start" x="242.25" y="-181.62" font-family="Helvetica,sans-Serif" font-size="10.00">vanetza::geonet::Extended</text>
<text xml:space="preserve" text-anchor="middle" x="307.5" y="-168.88" font-family="Helvetica,sans-Serif" font-size="10.00">PduConstRefs&lt; HEADER &gt;</text>
</a>
</g>
</g>
<!-- Node0&#45;&gt;Node1 -->
<g id="edge92_Node000000_Node000001" class="edge">
<title>Node0&#45;&gt;Node1</title>
<g id="a_edge92_Node000000_Node000001"><a xlink:title=" ">
<path fill="none" stroke="#63b8ff" d="M208.74,-167.48C217.23,-168.43 225.68,-169.37 233.84,-170.28"/>
<polygon fill="#63b8ff" stroke="#63b8ff" points="209.4,-164.03 199.08,-166.4 208.63,-170.99 209.4,-164.03"/>
</a>
</g>
</g>
<!-- Node2 -->
<g id="Node000002" class="node">
<title>Node2</title>
<g id="a_Node000002"><a xlink:href="dc/d8c/classvanetza_1_1geonet_1_1Pdu.html" target="_top" xlink:title=" ">
<polygon fill="white" stroke="#666666" points="366.88,-143.75 248.12,-143.75 248.12,-123 366.88,-123 366.88,-143.75"/>
<text xml:space="preserve" text-anchor="middle" x="307.5" y="-130.25" font-family="Helvetica,sans-Serif" font-size="10.00">vanetza::geonet::Pdu</text>
</a>
</g>
</g>
<!-- Node0&#45;&gt;Node2 -->
<g id="edge93_Node000000_Node000002" class="edge">
<title>Node0&#45;&gt;Node2</title>
<g id="a_edge93_Node000000_Node000002"><a xlink:title=" ">
<path fill="none" stroke="#63b8ff" d="M209.91,-143.67C222.91,-142.29 235.77,-140.92 247.65,-139.65"/>
<polygon fill="#63b8ff" stroke="#63b8ff" points="209.55,-140.19 199.98,-144.73 210.3,-147.15 209.55,-140.19"/>
</a>
</g>
</g>
<!-- Node3 -->
<g id="Node000003" class="node">
<title>Node3</title>
<g id="a_Node000003"><a xlink:href="d9/d6e/classvanetza_1_1geonet_1_1ExtendedPdu.html" target="_top" xlink:title=" ">
<polygon fill="white" stroke="#666666" points="570,-280.12 423.5,-280.12 423.5,-246.62 570,-246.62 570,-280.12"/>
<text xml:space="preserve" text-anchor="start" x="431.5" y="-266.62" font-family="Helvetica,sans-Serif" font-size="10.00">vanetza::geonet::Extended</text>
<text xml:space="preserve" text-anchor="middle" x="496.75" y="-253.88" font-family="Helvetica,sans-Serif" font-size="10.00">Pdu&lt; ShbHeader &gt;</text>
</a>
</g>
</g>
<!-- Node2&#45;&gt;Node3 -->
<g id="edge94_Node000002_Node000003" class="edge">
<title>Node2&#45;&gt;Node3</title>
<g id="a_edge94_Node000002_Node000003"><a xlink:title=" ">
<path fill="none" stroke="#63b8ff" d="M376.82,-149.29C378.18,-150.26 379.49,-151.29 380.75,-152.38 411.76,-179.23 386.57,-209.59 416.75,-237.38 420.36,-240.7 424.41,-243.6 428.71,-246.13"/>
<polygon fill="#63b8ff" stroke="#63b8ff" points="378.98,-146.5 368.58,-144.47 375.45,-152.54 378.98,-146.5"/>
</a>
</g>
</g>
<!-- Node4 -->
<g id="Node000004" class="node">
<title>Node4</title>
<g id="a_Node000004"><a xlink:href="d9/d6e/classvanetza_1_1geonet_1_1ExtendedPdu.html" target="_top" xlink:title=" ">
<polygon fill="white" stroke="#666666" points="570,-228.12 423.5,-228.12 423.5,-194.62 570,-194.62 570,-228.12"/>
<text xml:space="preserve" text-anchor="start" x="431.5" y="-214.62" font-family="Helvetica,sans-Serif" font-size="10.00">vanetza::geonet::Extended</text>
<text xml:space="preserve" text-anchor="middle" x="496.75" y="-201.88" font-family="Helvetica,sans-Serif" font-size="10.00">Pdu&lt; TsbHeader &gt;</text>
</a>
</g>
</g>
<!-- Node2&#45;&gt;Node4 -->
<g id="edge95_Node000002_Node000004" class="edge">
<title>Node2&#45;&gt;Node4</title>
<g id="a_edge95_Node000002_Node000004"><a xlink:title=" ">
<path fill="none" stroke="#63b8ff" d="M372.39,-148.3C375.27,-149.56 378.07,-150.91 380.75,-152.38 399.8,-162.77 398.02,-174.4 416.75,-185.38 422.36,-188.66 428.43,-191.59 434.64,-194.2"/>
<polygon fill="#63b8ff" stroke="#63b8ff" points="373.74,-145.07 363.15,-144.73 371.22,-151.6 373.74,-145.07"/>
</a>
</g>
</g>
<!-- Node5 -->
<g id="Node000005" class="node">
<title>Node5</title>
<g id="a_Node000005"><a xlink:href="d9/d6e/classvanetza_1_1geonet_1_1ExtendedPdu.html" target="_top" xlink:title=" ">
<polygon fill="white" stroke="#666666" points="570,-176.12 423.5,-176.12 423.5,-142.62 570,-142.62 570,-176.12"/>
<text xml:space="preserve" text-anchor="start" x="431.5" y="-162.62" font-family="Helvetica,sans-Serif" font-size="10.00">vanetza::geonet::Extended</text>
<text xml:space="preserve" text-anchor="middle" x="496.75" y="-149.88" font-family="Helvetica,sans-Serif" font-size="10.00">Pdu&lt; BeaconHeader &gt;</text>
</a>
</g>
</g>
<!-- Node2&#45;&gt;Node5 -->
<g id="edge96_Node000002_Node000005" class="edge">
<title>Node2&#45;&gt;Node5</title>
<g id="a_edge96_Node000002_Node000005"><a xlink:title=" ">
<path fill="none" stroke="#63b8ff" d="M378.23,-143.06C392.86,-145.09 408.32,-147.24 423.06,-149.28"/>
<polygon fill="#63b8ff" stroke="#63b8ff" points="379.12,-139.65 368.73,-141.74 378.16,-146.58 379.12,-139.65"/>
</a>
</g>
</g>
<!-- Node6 -->
<g id="Node000006" class="node">
<title>Node6</title>
<g id="a_Node000006"><a xlink:href="d9/d6e/classvanetza_1_1geonet_1_1ExtendedPdu.html" target="_top" xlink:title=" ">
<polygon fill="white" stroke="#666666" points="576.75,-124.12 416.75,-124.12 416.75,-90.62 576.75,-90.62 576.75,-124.12"/>
<text xml:space="preserve" text-anchor="start" x="424.75" y="-110.62" font-family="Helvetica,sans-Serif" font-size="10.00">vanetza::geonet::Extended</text>
<text xml:space="preserve" text-anchor="middle" x="496.75" y="-97.88" font-family="Helvetica,sans-Serif" font-size="10.00">Pdu&lt; GeoBroadcastHeader &gt;</text>
</a>
</g>
</g>
<!-- Node2&#45;&gt;Node6 -->
<g id="edge97_Node000002_Node000006" class="edge">
<title>Node2&#45;&gt;Node6</title>
<g id="a_edge97_Node000002_Node000006"><a xlink:title=" ">
<path fill="none" stroke="#63b8ff" d="M378.39,-123.67C390.74,-121.96 403.69,-120.16 416.29,-118.41"/>
<polygon fill="#63b8ff" stroke="#63b8ff" points="378.16,-120.17 368.73,-125.01 379.12,-127.1 378.16,-120.17"/>
</a>
</g>
</g>
<!-- Node7 -->
<g id="Node000007" class="node">
<title>Node7</title>
<g id="a_Node000007"><a xlink:href="d9/d6e/classvanetza_1_1geonet_1_1ExtendedPdu.html" target="_top" xlink:title=" ">
<polygon fill="white" stroke="#666666" points="570,-72.12 423.5,-72.12 423.5,-38.62 570,-38.62 570,-72.12"/>
<text xml:space="preserve" text-anchor="start" x="431.5" y="-58.62" font-family="Helvetica,sans-Serif" font-size="10.00">vanetza::geonet::Extended</text>
<text xml:space="preserve" text-anchor="middle" x="496.75" y="-45.88" font-family="Helvetica,sans-Serif" font-size="10.00">Pdu&lt; HEADER &gt;</text>
</a>
</g>
</g>
<!-- Node2&#45;&gt;Node7 -->
<g id="edge98_Node000002_Node000007" class="edge">
<title>Node2&#45;&gt;Node7</title>
<g id="a_edge98_Node000002_Node000007"><a xlink:title=" ">
<path fill="none" stroke="#63b8ff" d="M339.01,-117.41C360.44,-106.52 389.95,-92.17 416.75,-81.38 424.38,-78.3 432.54,-75.31 440.59,-72.51"/>
<polygon fill="#63b8ff" stroke="#63b8ff" points="337.54,-114.23 330.24,-121.9 340.74,-120.45 337.54,-114.23"/>
</a>
</g>
</g>
<!-- Node8 -->
<g id="Node000008" class="node">
<title>Node8</title>
<g id="a_Node000008"><a xlink:href="d7/d84/classvanetza_1_1geonet_1_1VariantPdu.html" target="_top" xlink:title=" ">
<polygon fill="white" stroke="#666666" points="573.38,-20.75 420.12,-20.75 420.12,0 573.38,0 573.38,-20.75"/>
<text xml:space="preserve" text-anchor="middle" x="496.75" y="-7.25" font-family="Helvetica,sans-Serif" font-size="10.00">vanetza::geonet::VariantPdu</text>
</a>
</g>
</g>
<!-- Node2&#45;&gt;Node8 -->
<g id="edge99_Node000002_Node000008" class="edge">
<title>Node2&#45;&gt;Node8</title>
<g id="a_edge99_Node000002_Node000008"><a xlink:title=" ">
<path fill="none" stroke="#63b8ff" d="M323.32,-113.83C342.33,-90.16 377.57,-50.82 416.75,-29.38 422.69,-26.12 429.18,-23.43 435.8,-21.18"/>
<polygon fill="#63b8ff" stroke="#63b8ff" points="320.77,-111.41 317.35,-121.44 326.28,-115.73 320.77,-111.41"/>
</a>
</g>
</g>
</g>
</svg>
