<?xml version="1.0" encoding="UTF-8" standalone="no"?>
<!DOCTYPE svg PUBLIC "-//W3C//DTD SVG 1.1//EN"
 "http://www.w3.org/Graphics/SVG/1.1/DTD/svg11.dtd">
<!-- Generated by graphviz version 14.1.2 (0)
 -->
<!-- Title: Graphical Class Hierarchy Pages: 1 -->
<svg width="550pt" height="198pt"
 viewBox="0.00 0.00 550.00 198.00" xmlns="http://www.w3.org/2000/svg" xmlns:xlink="http://www.w3.org/1999/xlink">
<g id="graph0" class="graph" transform="scale(1 1) rotate(0) translate(4 193.5)">
<title>Graphical Class Hierarchy</title>
<!-- Node0 -->
<g id="Node000000" class="node">
<title>Node0</title>
<g id="a_Node000000"><a xlink:href="d1/d1f/structvanetza_1_1geonet_1_1DataRequest.html" target="_top" xlink:title=" ">
<polygon fill="white" stroke="#666666" points="163.75,-105.12 0,-105.12 0,-84.38 163.75,-84.38 163.75,-105.12"/>
<text xml:space="preserve" text-anchor="middle" x="81.88" y="-91.62" font-family="Helvetica,sans-Serif" font-size="10.00">vanetza::geonet::DataRequest</text>
</a>
</g>
</g>
<!-- Node1 -->
<g id="Node000001" class="node">
<title>Node1</title>
<g id="a_Node000001"><a xlink:href="d4/d96/structvanetza_1_1geonet_1_1DataRequestWithAddress.html" target="_top" xlink:title=" ">
<polygon fill="white" stroke="#666666" points="363.5,-189.5 199.75,-189.5 199.75,-156 363.5,-156 363.5,-189.5"/>
<text xml:space="preserve" text-anchor="start" x="207.75" y="-176" font-family="Helvetica,sans-Serif" font-size="10.00">vanetza::geonet::DataRequest</text>
<text xml:space="preserve" text-anchor="middle" x="281.62" y="-163.25" font-family="Helvetica,sans-Serif" font-size="10.00">WithAddress</text>
</a>
</g>
</g>
<!-- Node0&#45;&gt;Node1 -->
<g id="edge100_Node000000_Node000001" class="edge">
<title>Node0&#45;&gt;Node1</title>
<g id="a_edge100_Node000000_Node000001"><a xlink:title=" ">
<path fill="none" stroke="#63b8ff" d="M115.3,-110.31C138.54,-121.18 170.74,-135.67 199.75,-146.75 207.74,-149.8 216.26,-152.81 224.66,-155.63"/>
<polygon fill="#63b8ff" stroke="#63b8ff" points="116.89,-107.18 106.35,-106.09 113.9,-113.52 116.89,-107.18"/>
</a>
</g>
</g>
<!-- Node3 -->
<g id="Node000003" class="node">
<title>Node3</title>
<g id="a_Node000003"><a xlink:href="d9/d1d/structvanetza_1_1geonet_1_1DataRequestWithArea.html" target="_top" xlink:title=" ">
<polygon fill="white" stroke="#666666" points="363.5,-137.5 199.75,-137.5 199.75,-104 363.5,-104 363.5,-137.5"/>
<text xml:space="preserve" text-anchor="start" x="207.75" y="-124" font-family="Helvetica,sans-Serif" font-size="10.00">vanetza::geonet::DataRequest</text>
<text xml:space="preserve" text-anchor="middle" x="281.62" y="-111.25" font-family="Helvetica,sans-Serif" font-size="10.00">WithArea</text>
</a>
</g>
</g>
<!-- Node0&#45;&gt;Node3 -->
<g id="edge102_Node000000_Node000003" class="edge">
<title>Node0&#45;&gt;Node3</title>
<g id="a_edge102_Node000000_Node000003"><a xlink:title=" ">
<path fill="none" stroke="#63b8ff" d="M175.4,-106.92C183.39,-107.97 191.44,-109.02 199.33,-110.06"/>
<polygon fill="#63b8ff" stroke="#63b8ff" points="176.04,-103.47 165.66,-105.64 175.12,-110.41 176.04,-103.47"/>
</a>
</g>
</g>
<!-- Node6 -->
<g id="Node000006" class="node">
<title>Node6</title>
<g id="a_Node000006"><a xlink:href="d0/d57/structvanetza_1_1geonet_1_1ShbDataRequest.html" target="_top" xlink:title=" ">
<polygon fill="white" stroke="#666666" points="352.62,-85.5 210.62,-85.5 210.62,-52 352.62,-52 352.62,-85.5"/>
<text xml:space="preserve" text-anchor="start" x="218.62" y="-72" font-family="Helvetica,sans-Serif" font-size="10.00">vanetza::geonet::ShbData</text>
<text xml:space="preserve" text-anchor="middle" x="281.62" y="-59.25" font-family="Helvetica,sans-Serif" font-size="10.00">Request</text>
</a>
</g>
</g>
<!-- Node0&#45;&gt;Node6 -->
<g id="edge105_Node000000_Node000006" class="edge">
<title>Node0&#45;&gt;Node6</title>
<g id="a_edge105_Node000000_Node000006"><a xlink:title=" ">
<path fill="none" stroke="#63b8ff" d="M175.39,-82.59C187.16,-81.04 199.05,-79.48 210.39,-77.98"/>
<polygon fill="#63b8ff" stroke="#63b8ff" points="175.12,-79.09 165.66,-83.86 176.04,-86.03 175.12,-79.09"/>
</a>
</g>
</g>
<!-- Node7 -->
<g id="Node000007" class="node">
<title>Node7</title>
<g id="a_Node000007"><a xlink:href="d4/d19/structvanetza_1_1geonet_1_1TsbDataRequest.html" target="_top" xlink:title=" ">
<polygon fill="white" stroke="#666666" points="351.5,-33.5 211.75,-33.5 211.75,0 351.5,0 351.5,-33.5"/>
<text xml:space="preserve" text-anchor="start" x="219.75" y="-20" font-family="Helvetica,sans-Serif" font-size="10.00">vanetza::geonet::TsbData</text>
<text xml:space="preserve" text-anchor="middle" x="281.62" y="-7.25" font-family="Helvetica,sans-Serif" font-size="10.00">Request</text>
</a>
</g>
</g>
<!-- Node0&#45;&gt;Node7 -->
<g id="edge106_Node000000_Node000007" class="edge">
<title>Node0&#45;&gt;Node7</title>
<g id="a_edge106_Node000000_Node000007"><a xlink:title=" ">
<path fill="none" stroke="#63b8ff" d="M115.3,-79.19C138.54,-68.32 170.74,-53.83 199.75,-42.75 207.74,-39.7 216.26,-36.69 224.66,-33.87"/>
<polygon fill="#63b8ff" stroke="#63b8ff" points="113.9,-75.98 106.35,-83.41 116.89,-82.32 113.9,-75.98"/>
</a>
</g>
</g>
<!-- Node2 -->
<g id="Node000002" class="node">
<title>Node2</title>
<g id="a_Node000002"><a xlink:href="d0/db3/structvanetza_1_1geonet_1_1GucDataRequest.html" target="_top" xlink:title=" ">
<polygon fill="white" stroke="#666666" points="542.25,-189.5 399.5,-189.5 399.5,-156 542.25,-156 542.25,-189.5"/>
<text xml:space="preserve" text-anchor="start" x="407.5" y="-176" font-family="Helvetica,sans-Serif" font-size="10.00">vanetza::geonet::GucData</text>
<text xml:space="preserve" text-anchor="middle" x="470.88" y="-163.25" font-family="Helvetica,sans-Serif" font-size="10.00">Request</text>
</a>
</g>
</g>
<!-- Node1&#45;&gt;Node2 -->
<g id="edge101_Node000001_Node000002" class="edge">
<title>Node1&#45;&gt;Node2</title>
<g id="a_edge101_Node000001_Node000002"><a xlink:title=" ">
<path fill="none" stroke="#63b8ff" d="M375.28,-172.75C383.33,-172.75 391.38,-172.75 399.21,-172.75"/>
<polygon fill="#63b8ff" stroke="#63b8ff" points="375.45,-169.25 365.45,-172.75 375.45,-176.25 375.45,-169.25"/>
</a>
</g>
</g>
<!-- Node4 -->
<g id="Node000004" class="node">
<title>Node4</title>
<g id="a_Node000004"><a xlink:href="d7/d84/structvanetza_1_1geonet_1_1GacDataRequest.html" target="_top" xlink:title=" ">
<polygon fill="white" stroke="#666666" points="542.25,-137.5 399.5,-137.5 399.5,-104 542.25,-104 542.25,-137.5"/>
<text xml:space="preserve" text-anchor="start" x="407.5" y="-124" font-family="Helvetica,sans-Serif" font-size="10.00">vanetza::geonet::GacData</text>
<text xml:space="preserve" text-anchor="middle" x="470.88" y="-111.25" font-family="Helvetica,sans-Serif" font-size="10.00">Request</text>
</a>
</g>
</g>
<!-- Node3&#45;&gt;Node4 -->
<g id="edge103_Node000003_Node000004" class="edge">
<title>Node3&#45;&gt;Node4</title>
<g id="a_edge103_Node000003_Node000004"><a xlink:title=" ">
<path fill="none" stroke="#63b8ff" d="M375.28,-120.75C383.33,-120.75 391.38,-120.75 399.21,-120.75"/>
<polygon fill="#63b8ff" stroke="#63b8ff" points="375.45,-117.25 365.45,-120.75 375.45,-124.25 375.45,-117.25"/>
</a>
</g>
</g>
<!-- Node5 -->
<g id="Node000005" class="node">
<title>Node5</title>
<g id="a_Node000005"><a xlink:href="de/d7b/structvanetza_1_1geonet_1_1GbcDataRequest.html" target="_top" xlink:title=" ">
<polygon fill="white" stroke="#666666" points="542.25,-85.5 399.5,-85.5 399.5,-52 542.25,-52 542.25,-85.5"/>
<text xml:space="preserve" text-anchor="start" x="407.5" y="-72" font-family="Helvetica,sans-Serif" font-size="10.00">vanetza::geonet::GbcData</text>
<text xml:space="preserve" text-anchor="middle" x="470.88" y="-59.25" font-family="Helvetica,sans-Serif" font-size="10.00">Request</text>
</a>
</g>
</g>
<!-- Node3&#45;&gt;Node5 -->
<g id="edge104_Node000003_Node000005" class="edge">
<title>Node3&#45;&gt;Node5</title>
<g id="a_edge104_Node000003_Node000005"><a xlink:title=" ">
<path fill="none" stroke="#63b8ff" d="M355.38,-100.55C372.75,-95.72 391.12,-90.62 407.95,-85.95"/>
<polygon fill="#63b8ff" stroke="#63b8ff" points="354.87,-97.05 346.17,-103.1 356.75,-103.8 354.87,-97.05"/>
</a>
</g>
</g>
</g>
</svg>
