<?xml version="1.0" encoding="UTF-8" standalone="no"?>
<!DOCTYPE svg PUBLIC "-//W3C//DTD SVG 1.1//EN"
 "http://www.w3.org/Graphics/SVG/1.1/DTD/svg11.dtd">
<!-- Generated by graphviz version 2.42.3 (0)
 -->
<!-- Title: Graphical Class Hierarchy Pages: 1 -->
<svg width="251pt" height="100pt"
 viewBox="0.00 0.00 251.00 99.50" xmlns="http://www.w3.org/2000/svg" xmlns:xlink="http://www.w3.org/1999/xlink">
<g id="graph0" class="graph" transform="scale(1 1) rotate(0) translate(4 95.5)">
<title>Graphical Class Hierarchy</title>
<polygon fill="white" stroke="transparent" points="-4,4 -4,-95.5 247,-95.5 247,4 -4,4"/>
<!-- Node45 -->
<g id="node1" class="node">
<title>Node45</title>
<g id="a_node1"><a xlink:title=" ">
<polygon fill="white" stroke="#bfbfbf" points="0,-33 0,-52 62,-52 62,-33 0,-33"/>
<text text-anchor="middle" x="31" y="-40" font-family="Helvetica,sans-Serif" font-size="10.00">time_point</text>
</a>
</g>
</g>
<!-- Node0 -->
<g id="node2" class="node">
<title>Node0</title>
<g id="a_node2"><a xlink:href="dd/df9/classvanetza_1_1geonet_1_1SoftStateMap_1_1ExpiryWithKey.html" target="_top" xlink:title=" ">
<polygon fill="white" stroke="black" points="98,-50 98,-91 243,-91 243,-50 98,-50"/>
<text text-anchor="start" x="106" y="-79" font-family="Helvetica,sans-Serif" font-size="10.00">vanetza::geonet::SoftState</text>
<text text-anchor="start" x="106" y="-68" font-family="Helvetica,sans-Serif" font-size="10.00">Map&lt; KEY, VALUE, CTOR &gt;</text>
<text text-anchor="middle" x="170.5" y="-57" font-family="Helvetica,sans-Serif" font-size="10.00">::ExpiryWithKey</text>
</a>
</g>
</g>
<!-- Node45&#45;&gt;Node0 -->
<g id="edge1" class="edge">
<title>Node45&#45;&gt;Node0</title>
<path fill="none" stroke="midnightblue" d="M72.12,-50.67C80.28,-52.33 89.1,-54.13 97.98,-55.94"/>
<polygon fill="midnightblue" stroke="midnightblue" points="72.67,-47.21 62.17,-48.64 71.28,-54.07 72.67,-47.21"/>
</g>
<!-- Node47 -->
<g id="node3" class="node">
<title>Node47</title>
<g id="a_node3"><a xlink:href="d0/d5f/structvanetza_1_1security_1_1CertificateCache_1_1Expiry.html" target="_top" xlink:title=" ">
<polygon fill="white" stroke="black" points="108,-0.5 108,-30.5 233,-30.5 233,-0.5 108,-0.5"/>
<text text-anchor="start" x="116" y="-18.5" font-family="Helvetica,sans-Serif" font-size="10.00">vanetza::security::</text>
<text text-anchor="middle" x="170.5" y="-7.5" font-family="Helvetica,sans-Serif" font-size="10.00">CertificateCache::Expiry</text>
</a>
</g>
</g>
<!-- Node45&#45;&gt;Node47 -->
<g id="edge2" class="edge">
<title>Node45&#45;&gt;Node47</title>
<path fill="none" stroke="midnightblue" d="M72.06,-34.63C83.25,-32.44 95.67,-30 107.8,-27.62"/>
<polygon fill="midnightblue" stroke="midnightblue" points="71.31,-31.21 62.17,-36.57 72.66,-38.08 71.31,-31.21"/>
</g>
</g>
</svg>
