<?xml version="1.0" encoding="UTF-8" standalone="no"?>
<!DOCTYPE svg PUBLIC "-//W3C//DTD SVG 1.1//EN"
 "http://www.w3.org/Graphics/SVG/1.1/DTD/svg11.dtd">
<!-- Generated by graphviz version 2.49.3 (0)
 -->
<!-- Title: Graphical Class Hierarchy Pages: 1 -->
<svg width="238pt" height="137pt"
 viewBox="0.00 0.00 238.00 137.00" xmlns="http://www.w3.org/2000/svg" xmlns:xlink="http://www.w3.org/1999/xlink">
<g id="graph0" class="graph" transform="scale(1 1) rotate(0) translate(4 133)">
<title>Graphical Class Hierarchy</title>
<polygon fill="white" stroke="transparent" points="-4,4 -4,-133 234,-133 234,4 -4,4"/>
<!-- Node0 -->
<g id="node1" class="node">
<title>Node0</title>
<g id="a_node1"><a xlink:href="d1/d75/classvanetza_1_1security_1_1Backend.html" target="_top" xlink:title=" ">
<polygon fill="white" stroke="black" points="0,-49.5 0,-79.5 96,-79.5 96,-49.5 0,-49.5"/>
<text text-anchor="start" x="8" y="-67.5" font-family="Helvetica,sans-Serif" font-size="10.00">vanetza::security::</text>
<text text-anchor="middle" x="48" y="-56.5" font-family="Helvetica,sans-Serif" font-size="10.00">Backend</text>
</a>
</g>
</g>
<!-- Node1 -->
<g id="node2" class="node">
<title>Node1</title>
<g id="a_node2"><a xlink:href="d1/ded/classvanetza_1_1security_1_1BackendCryptoPP.html" target="_top" xlink:title=" ">
<polygon fill="white" stroke="black" points="132,-98.5 132,-128.5 230,-128.5 230,-98.5 132,-98.5"/>
<text text-anchor="start" x="140" y="-116.5" font-family="Helvetica,sans-Serif" font-size="10.00">vanetza::security::</text>
<text text-anchor="middle" x="181" y="-105.5" font-family="Helvetica,sans-Serif" font-size="10.00">BackendCryptoPP</text>
</a>
</g>
</g>
<!-- Node0&#45;&gt;Node1 -->
<g id="edge1" class="edge">
<title>Node0&#45;&gt;Node1</title>
<path fill="none" stroke="midnightblue" d="M98.94,-83.18C112.36,-88.2 126.7,-93.56 139.53,-98.36"/>
<polygon fill="midnightblue" stroke="midnightblue" points="99.97,-79.83 89.37,-79.6 97.51,-86.38 99.97,-79.83"/>
</g>
<!-- Node2 -->
<g id="node3" class="node">
<title>Node2</title>
<g id="a_node3"><a xlink:href="d4/d9f/classvanetza_1_1security_1_1BackendNull.html" target="_top" xlink:title="A backend doing nothing.">
<polygon fill="white" stroke="black" points="133,-49.5 133,-79.5 229,-79.5 229,-49.5 133,-49.5"/>
<text text-anchor="start" x="141" y="-67.5" font-family="Helvetica,sans-Serif" font-size="10.00">vanetza::security::</text>
<text text-anchor="middle" x="181" y="-56.5" font-family="Helvetica,sans-Serif" font-size="10.00">BackendNull</text>
</a>
</g>
</g>
<!-- Node0&#45;&gt;Node2 -->
<g id="edge2" class="edge">
<title>Node0&#45;&gt;Node2</title>
<path fill="none" stroke="midnightblue" d="M106.48,-64.5C115.26,-64.5 124.24,-64.5 132.78,-64.5"/>
<polygon fill="midnightblue" stroke="midnightblue" points="106.29,-61 96.29,-64.5 106.29,-68 106.29,-61"/>
</g>
<!-- Node3 -->
<g id="node4" class="node">
<title>Node3</title>
<g id="a_node4"><a xlink:href="d1/dee/classvanetza_1_1security_1_1BackendOpenSsl.html" target="_top" xlink:title="Backend implementation based on OpenSSL.">
<polygon fill="white" stroke="black" points="133,-0.5 133,-30.5 229,-30.5 229,-0.5 133,-0.5"/>
<text text-anchor="start" x="141" y="-18.5" font-family="Helvetica,sans-Serif" font-size="10.00">vanetza::security::</text>
<text text-anchor="middle" x="181" y="-7.5" font-family="Helvetica,sans-Serif" font-size="10.00">BackendOpenSsl</text>
</a>
</g>
</g>
<!-- Node0&#45;&gt;Node3 -->
<g id="edge3" class="edge">
<title>Node0&#45;&gt;Node3</title>
<path fill="none" stroke="midnightblue" d="M98.94,-45.82C112.36,-40.8 126.7,-35.44 139.53,-30.64"/>
<polygon fill="midnightblue" stroke="midnightblue" points="97.51,-42.62 89.37,-49.4 99.97,-49.17 97.51,-42.62"/>
</g>
</g>
</svg>
