<?xml version="1.0" encoding="UTF-8" standalone="no"?>
<!DOCTYPE svg PUBLIC "-//W3C//DTD SVG 1.1//EN"
 "http://www.w3.org/Graphics/SVG/1.1/DTD/svg11.dtd">
<!-- Generated by graphviz version 2.49.3 (0)
 -->
<!-- Title: Graphical Class Hierarchy Pages: 1 -->
<svg width="497pt" height="698pt"
 viewBox="0.00 0.00 497.00 698.00" xmlns="http://www.w3.org/2000/svg" xmlns:xlink="http://www.w3.org/1999/xlink">
<g id="graph0" class="graph" transform="scale(1 1) rotate(0) translate(4 694)">
<title>Graphical Class Hierarchy</title>
<!-- Node0 -->
<g id="Node000000" class="node">
<title>Node0</title>
<g id="a_Node000000"><a xlink:href="d0/d68/classvanetza_1_1asn1_1_1asn1c__wrapper__common.html" target="_top" xlink:title=" ">
<polygon fill="white" stroke="#666666" points="123,-378 0,-378 0,-348 123,-348 123,-378"/>
<text text-anchor="start" x="8" y="-366" font-family="Helvetica,sans-Serif" font-size="10.00">vanetza::asn1::asn1c</text>
<text text-anchor="middle" x="61.5" y="-355" font-family="Helvetica,sans-Serif" font-size="10.00">_wrapper_common&lt; T &gt;</text>
</a>
</g>
</g>
<!-- Node1 -->
<g id="Node000001" class="node">
<title>Node1</title>
<g id="a_Node000001"><a xlink:href="de/dbf/classvanetza_1_1asn1_1_1asn1c__oer__wrapper.html" target="_top" xlink:title=" ">
<polygon fill="white" stroke="#666666" points="329,-329.5 159,-329.5 159,-288.5 329,-288.5 329,-329.5"/>
<text text-anchor="start" x="167" y="-317.5" font-family="Helvetica,sans-Serif" font-size="10.00">vanetza::asn1::asn1c</text>
<text text-anchor="start" x="167" y="-306.5" font-family="Helvetica,sans-Serif" font-size="10.00">_oer_wrapper&lt; asn1::EtsiTs103097</text>
<text text-anchor="middle" x="244" y="-295.5" font-family="Helvetica,sans-Serif" font-size="10.00">Certificate &gt;</text>
</a>
</g>
</g>
<!-- Node0&#45;&gt;Node1 -->
<g id="edge39_Node000000_Node000001" class="edge">
<title>Node0&#45;&gt;Node1</title>
<g id="a_edge39_Node000000_Node000001"><a xlink:title=" ">
<path fill="none" stroke="#63b8ff" d="M122.4,-345.08C139.07,-340.09 157.31,-334.64 174.44,-329.51"/>
<polygon fill="#63b8ff" stroke="#63b8ff" points="121.36,-341.74 112.78,-347.96 123.36,-348.44 121.36,-341.74"/>
</a>
</g>
</g>
<!-- Node4 -->
<g id="Node000004" class="node">
<title>Node4</title>
<g id="a_Node000004"><a xlink:href="dc/dbf/classvanetza_1_1asn1_1_1asn1c__per__wrapper.html" target="_top" xlink:title=" ">
<polygon fill="white" stroke="#666666" points="305.5,-642 182.5,-642 182.5,-612 305.5,-612 305.5,-642"/>
<text text-anchor="start" x="190.5" y="-630" font-family="Helvetica,sans-Serif" font-size="10.00">vanetza::asn1::asn1c</text>
<text text-anchor="middle" x="244" y="-619" font-family="Helvetica,sans-Serif" font-size="10.00">_per_wrapper&lt; CAM_t &gt;</text>
</a>
</g>
</g>
<!-- Node0&#45;&gt;Node4 -->
<g id="edge41_Node000000_Node000004" class="edge">
<title>Node0&#45;&gt;Node4</title>
<g id="a_edge41_Node000000_Node000004"><a xlink:title=" ">
<path fill="none" stroke="#63b8ff" d="M65.37,-388.27C72.27,-437.1 94.33,-544.73 159,-603 165.65,-608.99 173.69,-613.49 182.14,-616.88"/>
<polygon fill="#63b8ff" stroke="#63b8ff" points="68.82,-387.71 64.05,-378.25 61.88,-388.62 68.82,-387.71"/>
</a>
</g>
</g>
<!-- Node6 -->
<g id="Node000006" class="node">
<title>Node6</title>
<g id="a_Node000006"><a xlink:href="dc/dbf/classvanetza_1_1asn1_1_1asn1c__per__wrapper.html" target="_top" xlink:title=" ">
<polygon fill="white" stroke="#666666" points="303.5,-593.5 184.5,-593.5 184.5,-552.5 303.5,-552.5 303.5,-593.5"/>
<text text-anchor="start" x="192.5" y="-581.5" font-family="Helvetica,sans-Serif" font-size="10.00">vanetza::asn1::asn1c</text>
<text text-anchor="start" x="192.5" y="-570.5" font-family="Helvetica,sans-Serif" font-size="10.00">_per_wrapper&lt; Vanetza</text>
<text text-anchor="middle" x="244" y="-559.5" font-family="Helvetica,sans-Serif" font-size="10.00">_ITS2_CAM_t &gt;</text>
</a>
</g>
</g>
<!-- Node0&#45;&gt;Node6 -->
<g id="edge43_Node000000_Node000006" class="edge">
<title>Node0&#45;&gt;Node6</title>
<g id="a_edge43_Node000000_Node000006"><a xlink:title=" ">
<path fill="none" stroke="#63b8ff" d="M69.52,-388.06C81.56,-426.66 109.76,-500.6 159,-543 166.39,-549.37 175.23,-554.41 184.36,-558.41"/>
<polygon fill="#63b8ff" stroke="#63b8ff" points="72.77,-386.74 66.54,-378.17 66.07,-388.76 72.77,-386.74"/>
</a>
</g>
</g>
<!-- Node8 -->
<g id="Node000008" class="node">
<title>Node8</title>
<g id="a_Node000008"><a xlink:href="dc/dbf/classvanetza_1_1asn1_1_1asn1c__per__wrapper.html" target="_top" xlink:title=" ">
<polygon fill="white" stroke="#666666" points="309.5,-534 178.5,-534 178.5,-504 309.5,-504 309.5,-534"/>
<text text-anchor="start" x="186.5" y="-522" font-family="Helvetica,sans-Serif" font-size="10.00">vanetza::asn1::asn1c</text>
<text text-anchor="middle" x="244" y="-511" font-family="Helvetica,sans-Serif" font-size="10.00">_per_wrapper&lt; DENM_t &gt;</text>
</a>
</g>
</g>
<!-- Node0&#45;&gt;Node8 -->
<g id="edge45_Node000000_Node000008" class="edge">
<title>Node0&#45;&gt;Node8</title>
<g id="a_edge45_Node000000_Node000008"><a xlink:title=" ">
<path fill="none" stroke="#63b8ff" d="M74.02,-387.5C89.29,-417.32 119.04,-467.14 159,-495 164.85,-499.08 171.38,-502.47 178.15,-505.28"/>
<polygon fill="#63b8ff" stroke="#63b8ff" points="76.99,-385.61 69.4,-378.21 70.72,-388.72 76.99,-385.61"/>
</a>
</g>
</g>
<!-- Node10 -->
<g id="Node000010" class="node">
<title>Node10</title>
<g id="a_Node000010"><a xlink:href="dc/dbf/classvanetza_1_1asn1_1_1asn1c__per__wrapper.html" target="_top" xlink:title=" ">
<polygon fill="white" stroke="#666666" points="303.5,-485.5 184.5,-485.5 184.5,-444.5 303.5,-444.5 303.5,-485.5"/>
<text text-anchor="start" x="192.5" y="-473.5" font-family="Helvetica,sans-Serif" font-size="10.00">vanetza::asn1::asn1c</text>
<text text-anchor="start" x="192.5" y="-462.5" font-family="Helvetica,sans-Serif" font-size="10.00">_per_wrapper&lt; Vanetza</text>
<text text-anchor="middle" x="244" y="-451.5" font-family="Helvetica,sans-Serif" font-size="10.00">_ITS2_DENM_t &gt;</text>
</a>
</g>
</g>
<!-- Node0&#45;&gt;Node10 -->
<g id="edge47_Node000000_Node000010" class="edge">
<title>Node0&#45;&gt;Node10</title>
<g id="a_edge47_Node000000_Node000010"><a xlink:title=" ">
<path fill="none" stroke="#63b8ff" d="M87.31,-384.78C106.01,-400.36 132.84,-420.98 159,-435 166.92,-439.24 175.56,-443.1 184.19,-446.54"/>
<polygon fill="#63b8ff" stroke="#63b8ff" points="89.46,-382.02 79.56,-378.23 84.94,-387.36 89.46,-382.02"/>
</a>
</g>
</g>
<!-- Node12 -->
<g id="Node000012" class="node">
<title>Node12</title>
<g id="a_Node000012"><a xlink:href="dc/dbf/classvanetza_1_1asn1_1_1asn1c__per__wrapper.html" target="_top" xlink:title=" ">
<polygon fill="white" stroke="#666666" points="305,-426 183,-426 183,-396 305,-396 305,-426"/>
<text text-anchor="start" x="191" y="-414" font-family="Helvetica,sans-Serif" font-size="10.00">vanetza::asn1::asn1c</text>
<text text-anchor="middle" x="244" y="-403" font-family="Helvetica,sans-Serif" font-size="10.00">_per_wrapper&lt; IVIM_t &gt;</text>
</a>
</g>
</g>
<!-- Node0&#45;&gt;Node12 -->
<g id="edge49_Node000000_Node000012" class="edge">
<title>Node0&#45;&gt;Node12</title>
<g id="a_edge49_Node000000_Node000012"><a xlink:title=" ">
<path fill="none" stroke="#63b8ff" d="M128.87,-380.65C147.82,-385.69 168.29,-391.13 186.58,-396"/>
<polygon fill="#63b8ff" stroke="#63b8ff" points="129.68,-377.24 119.12,-378.06 127.88,-384.01 129.68,-377.24"/>
</a>
</g>
</g>
<!-- Node14 -->
<g id="Node000014" class="node">
<title>Node14</title>
<g id="a_Node000014"><a xlink:href="dc/dbf/classvanetza_1_1asn1_1_1asn1c__per__wrapper.html" target="_top" xlink:title=" ">
<polygon fill="white" stroke="#666666" points="313,-378 175,-378 175,-348 313,-348 313,-378"/>
<text text-anchor="start" x="183" y="-366" font-family="Helvetica,sans-Serif" font-size="10.00">vanetza::asn1::asn1c</text>
<text text-anchor="middle" x="244" y="-355" font-family="Helvetica,sans-Serif" font-size="10.00">_per_wrapper&lt; MAPEM_t &gt;</text>
</a>
</g>
</g>
<!-- Node0&#45;&gt;Node14 -->
<g id="edge51_Node000000_Node000014" class="edge">
<title>Node0&#45;&gt;Node14</title>
<g id="a_edge51_Node000000_Node000014"><a xlink:title=" ">
<path fill="none" stroke="#63b8ff" d="M133.38,-363C147,-363 161.24,-363 174.78,-363"/>
<polygon fill="#63b8ff" stroke="#63b8ff" points="133.11,-359.5 123.11,-363 133.11,-366.5 133.11,-359.5"/>
</a>
</g>
</g>
<!-- Node16 -->
<g id="Node000016" class="node">
<title>Node16</title>
<g id="a_Node000016"><a xlink:href="dc/dbf/classvanetza_1_1asn1_1_1asn1c__per__wrapper.html" target="_top" xlink:title=" ">
<polygon fill="white" stroke="#666666" points="314.5,-222 173.5,-222 173.5,-192 314.5,-192 314.5,-222"/>
<text text-anchor="start" x="181.5" y="-210" font-family="Helvetica,sans-Serif" font-size="10.00">vanetza::asn1::asn1c</text>
<text text-anchor="middle" x="244" y="-199" font-family="Helvetica,sans-Serif" font-size="10.00">_per_wrapper&lt; SPATEM_t &gt;</text>
</a>
</g>
</g>
<!-- Node0&#45;&gt;Node16 -->
<g id="edge53_Node000000_Node000016" class="edge">
<title>Node0&#45;&gt;Node16</title>
<g id="a_edge53_Node000000_Node000016"><a xlink:title=" ">
<path fill="none" stroke="#63b8ff" d="M74.02,-338.5C89.29,-308.68 119.04,-258.86 159,-231 163.98,-227.53 169.45,-224.56 175.14,-222.01"/>
<polygon fill="#63b8ff" stroke="#63b8ff" points="70.72,-337.28 69.4,-347.79 76.99,-340.39 70.72,-337.28"/>
</a>
</g>
</g>
<!-- Node18 -->
<g id="Node000018" class="node">
<title>Node18</title>
<g id="a_Node000018"><a xlink:href="dc/dbf/classvanetza_1_1asn1_1_1asn1c__per__wrapper.html" target="_top" xlink:title=" ">
<polygon fill="white" stroke="#666666" points="309.5,-174 178.5,-174 178.5,-144 309.5,-144 309.5,-174"/>
<text text-anchor="start" x="186.5" y="-162" font-family="Helvetica,sans-Serif" font-size="10.00">vanetza::asn1::asn1c</text>
<text text-anchor="middle" x="244" y="-151" font-family="Helvetica,sans-Serif" font-size="10.00">_per_wrapper&lt; SREM_t &gt;</text>
</a>
</g>
</g>
<!-- Node0&#45;&gt;Node18 -->
<g id="edge55_Node000000_Node000018" class="edge">
<title>Node0&#45;&gt;Node18</title>
<g id="a_edge55_Node000000_Node000018"><a xlink:title=" ">
<path fill="none" stroke="#63b8ff" d="M69.1,-337.84C80.66,-298.8 108.28,-223.89 159,-183 164.79,-178.34 171.43,-174.58 178.4,-171.55"/>
<polygon fill="#63b8ff" stroke="#63b8ff" points="65.63,-337.26 66.27,-347.84 72.36,-339.17 65.63,-337.26"/>
</a>
</g>
</g>
<!-- Node20 -->
<g id="Node000020" class="node">
<title>Node20</title>
<g id="a_Node000020"><a xlink:href="dc/dbf/classvanetza_1_1asn1_1_1asn1c__per__wrapper.html" target="_top" xlink:title=" ">
<polygon fill="white" stroke="#666666" points="309,-30 179,-30 179,0 309,0 309,-30"/>
<text text-anchor="start" x="187" y="-18" font-family="Helvetica,sans-Serif" font-size="10.00">vanetza::asn1::asn1c</text>
<text text-anchor="middle" x="244" y="-7" font-family="Helvetica,sans-Serif" font-size="10.00">_per_wrapper&lt; SSEM_t &gt;</text>
</a>
</g>
</g>
<!-- Node0&#45;&gt;Node20 -->
<g id="edge57_Node000000_Node000020" class="edge">
<title>Node0&#45;&gt;Node20</title>
<g id="a_edge57_Node000000_Node000020"><a xlink:title=" ">
<path fill="none" stroke="#63b8ff" d="M62.3,-337.75C63.26,-277.23 74.34,-122.72 159,-39 164.61,-33.45 171.4,-29.17 178.67,-25.87"/>
<polygon fill="#63b8ff" stroke="#63b8ff" points="58.8,-337.89 62.23,-347.92 65.8,-337.94 58.8,-337.89"/>
</a>
</g>
</g>
<!-- Node22 -->
<g id="Node000022" class="node">
<title>Node22</title>
<g id="a_Node000022"><a xlink:href="de/dbf/classvanetza_1_1asn1_1_1asn1c__oer__wrapper.html" target="_top" xlink:title=" ">
<polygon fill="white" stroke="#666666" points="299,-126 189,-126 189,-96 299,-96 299,-126"/>
<text text-anchor="start" x="197" y="-114" font-family="Helvetica,sans-Serif" font-size="10.00">vanetza::asn1::asn1c</text>
<text text-anchor="middle" x="244" y="-103" font-family="Helvetica,sans-Serif" font-size="10.00">_oer_wrapper&lt; T &gt;</text>
</a>
</g>
</g>
<!-- Node0&#45;&gt;Node22 -->
<g id="edge59_Node000000_Node000022" class="edge">
<title>Node0&#45;&gt;Node22</title>
<g id="a_edge59_Node000000_Node000022"><a xlink:title=" ">
<path fill="none" stroke="#63b8ff" d="M65.93,-338C73.69,-291.12 97.03,-189.83 159,-135 167.41,-127.56 177.97,-122.42 188.74,-118.87"/>
<polygon fill="#63b8ff" stroke="#63b8ff" points="62.46,-337.5 64.39,-347.91 69.38,-338.57 62.46,-337.5"/>
</a>
</g>
</g>
<!-- Node23 -->
<g id="Node000023" class="node">
<title>Node23</title>
<g id="a_Node000023"><a xlink:href="dc/dbf/classvanetza_1_1asn1_1_1asn1c__per__wrapper.html" target="_top" xlink:title=" ">
<polygon fill="white" stroke="#666666" points="299,-78 189,-78 189,-48 299,-48 299,-78"/>
<text text-anchor="start" x="197" y="-66" font-family="Helvetica,sans-Serif" font-size="10.00">vanetza::asn1::asn1c</text>
<text text-anchor="middle" x="244" y="-55" font-family="Helvetica,sans-Serif" font-size="10.00">_per_wrapper&lt; T &gt;</text>
</a>
</g>
</g>
<!-- Node0&#45;&gt;Node23 -->
<g id="edge60_Node000000_Node000023" class="edge">
<title>Node0&#45;&gt;Node23</title>
<g id="a_edge60_Node000000_Node000023"><a xlink:title=" ">
<path fill="none" stroke="#63b8ff" d="M63.84,-337.81C68.09,-283.79 85.77,-156.09 159,-87 167.27,-79.19 177.91,-73.9 188.81,-70.32"/>
<polygon fill="#63b8ff" stroke="#63b8ff" points="60.34,-337.67 63.14,-347.89 67.32,-338.16 60.34,-337.67"/>
</a>
</g>
</g>
<!-- Node24 -->
<g id="Node000024" class="node">
<title>Node24</title>
<g id="a_Node000024"><a xlink:href="d0/dce/classvanetza_1_1asn1_1_1asn1c__xer__wrapper.html" target="_top" xlink:title=" ">
<polygon fill="white" stroke="#666666" points="299,-690 189,-690 189,-660 299,-660 299,-690"/>
<text text-anchor="start" x="197" y="-678" font-family="Helvetica,sans-Serif" font-size="10.00">vanetza::asn1::asn1c</text>
<text text-anchor="middle" x="244" y="-667" font-family="Helvetica,sans-Serif" font-size="10.00">_xer_wrapper&lt; T &gt;</text>
</a>
</g>
</g>
<!-- Node0&#45;&gt;Node24 -->
<g id="edge61_Node000000_Node000024" class="edge">
<title>Node0&#45;&gt;Node24</title>
<g id="a_edge61_Node000000_Node000024"><a xlink:title=" ">
<path fill="none" stroke="#63b8ff" d="M63.4,-388.11C66.8,-443.76 82.89,-578.24 159,-651 167.22,-658.86 177.84,-664.18 188.74,-667.76"/>
<polygon fill="#63b8ff" stroke="#63b8ff" points="66.9,-387.88 62.88,-378.08 59.91,-388.25 66.9,-387.88"/>
</a>
</g>
</g>
<!-- Node2 -->
<g id="Node000002" class="node">
<title>Node2</title>
<g id="a_Node000002"><a xlink:href="d8/d1b/structvanetza_1_1security_1_1v3_1_1Certificate.html" target="_top" xlink:title=" ">
<polygon fill="white" stroke="#666666" points="475,-297 379,-297 379,-267 475,-267 475,-297"/>
<text text-anchor="start" x="387" y="-285" font-family="Helvetica,sans-Serif" font-size="10.00">vanetza::security::</text>
<text text-anchor="middle" x="427" y="-274" font-family="Helvetica,sans-Serif" font-size="10.00">v3::Certificate</text>
</a>
</g>
</g>
<!-- Node1&#45;&gt;Node2 -->
<g id="edge40_Node000001_Node000002" class="edge">
<title>Node1&#45;&gt;Node2</title>
<g id="a_edge40_Node000001_Node000002"><a xlink:title=" ">
<path fill="none" stroke="#63b8ff" d="M339.11,-294.96C352.8,-292.92 366.38,-290.89 378.59,-289.07"/>
<polygon fill="#63b8ff" stroke="#63b8ff" points="338.52,-291.51 329.14,-296.45 339.55,-298.43 338.52,-291.51"/>
</a>
</g>
</g>
<!-- Node5 -->
<g id="Node000005" class="node">
<title>Node5</title>
<g id="a_Node000005"><a xlink:href="d0/dcc/classvanetza_1_1asn1_1_1r1_1_1Cam.html" target="_top" xlink:title=" ">
<polygon fill="white" stroke="#666666" points="486.5,-636.5 367.5,-636.5 367.5,-617.5 486.5,-617.5 486.5,-636.5"/>
<text text-anchor="middle" x="427" y="-624.5" font-family="Helvetica,sans-Serif" font-size="10.00">vanetza::asn1::r1::Cam</text>
</a>
</g>
</g>
<!-- Node4&#45;&gt;Node5 -->
<g id="edge42_Node000004_Node000005" class="edge">
<title>Node4&#45;&gt;Node5</title>
<g id="a_edge42_Node000004_Node000005"><a xlink:title=" ">
<path fill="none" stroke="#63b8ff" d="M315.97,-627C333,-627 350.99,-627 367.38,-627"/>
<polygon fill="#63b8ff" stroke="#63b8ff" points="315.52,-623.5 305.52,-627 315.52,-630.5 315.52,-623.5"/>
</a>
</g>
</g>
<!-- Node7 -->
<g id="Node000007" class="node">
<title>Node7</title>
<g id="a_Node000007"><a xlink:href="d1/d0e/classvanetza_1_1asn1_1_1r2_1_1Cam.html" target="_top" xlink:title=" ">
<polygon fill="white" stroke="#666666" points="486.5,-582.5 367.5,-582.5 367.5,-563.5 486.5,-563.5 486.5,-582.5"/>
<text text-anchor="middle" x="427" y="-570.5" font-family="Helvetica,sans-Serif" font-size="10.00">vanetza::asn1::r2::Cam</text>
</a>
</g>
</g>
<!-- Node6&#45;&gt;Node7 -->
<g id="edge44_Node000006_Node000007" class="edge">
<title>Node6&#45;&gt;Node7</title>
<g id="a_edge44_Node000006_Node000007"><a xlink:title=" ">
<path fill="none" stroke="#63b8ff" d="M313.95,-573C331.51,-573 350.22,-573 367.22,-573"/>
<polygon fill="#63b8ff" stroke="#63b8ff" points="313.77,-569.5 303.77,-573 313.77,-576.5 313.77,-569.5"/>
</a>
</g>
</g>
<!-- Node9 -->
<g id="Node000009" class="node">
<title>Node9</title>
<g id="a_Node000009"><a xlink:href="d1/d1b/classvanetza_1_1asn1_1_1r1_1_1Denm.html" target="_top" xlink:title=" ">
<polygon fill="white" stroke="#666666" points="489,-528.5 365,-528.5 365,-509.5 489,-509.5 489,-528.5"/>
<text text-anchor="middle" x="427" y="-516.5" font-family="Helvetica,sans-Serif" font-size="10.00">vanetza::asn1::r1::Denm</text>
</a>
</g>
</g>
<!-- Node8&#45;&gt;Node9 -->
<g id="edge46_Node000008_Node000009" class="edge">
<title>Node8&#45;&gt;Node9</title>
<g id="a_edge46_Node000008_Node000009"><a xlink:title=" ">
<path fill="none" stroke="#63b8ff" d="M319.82,-519C334.79,-519 350.34,-519 364.78,-519"/>
<polygon fill="#63b8ff" stroke="#63b8ff" points="319.58,-515.5 309.58,-519 319.58,-522.5 319.58,-515.5"/>
</a>
</g>
</g>
<!-- Node11 -->
<g id="Node000011" class="node">
<title>Node11</title>
<g id="a_Node000011"><a xlink:href="de/d6e/classvanetza_1_1asn1_1_1r2_1_1Denm.html" target="_top" xlink:title=" ">
<polygon fill="white" stroke="#666666" points="489,-474.5 365,-474.5 365,-455.5 489,-455.5 489,-474.5"/>
<text text-anchor="middle" x="427" y="-462.5" font-family="Helvetica,sans-Serif" font-size="10.00">vanetza::asn1::r2::Denm</text>
</a>
</g>
</g>
<!-- Node10&#45;&gt;Node11 -->
<g id="edge48_Node000010_Node000011" class="edge">
<title>Node10&#45;&gt;Node11</title>
<g id="a_edge48_Node000010_Node000011"><a xlink:title=" ">
<path fill="none" stroke="#63b8ff" d="M314,-465C330.69,-465 348.42,-465 364.73,-465"/>
<polygon fill="#63b8ff" stroke="#63b8ff" points="313.77,-461.5 303.77,-465 313.77,-468.5 313.77,-461.5"/>
</a>
</g>
</g>
<!-- Node13 -->
<g id="Node000013" class="node">
<title>Node13</title>
<g id="a_Node000013"><a xlink:href="dd/d62/classvanetza_1_1asn1_1_1Ivim.html" target="_top" xlink:title=" ">
<polygon fill="white" stroke="#666666" points="478,-420.5 376,-420.5 376,-401.5 478,-401.5 478,-420.5"/>
<text text-anchor="middle" x="427" y="-408.5" font-family="Helvetica,sans-Serif" font-size="10.00">vanetza::asn1::Ivim</text>
</a>
</g>
</g>
<!-- Node12&#45;&gt;Node13 -->
<g id="edge50_Node000012_Node000013" class="edge">
<title>Node12&#45;&gt;Node13</title>
<g id="a_edge50_Node000012_Node000013"><a xlink:title=" ">
<path fill="none" stroke="#63b8ff" d="M315.13,-411C335.37,-411 357.05,-411 375.81,-411"/>
<polygon fill="#63b8ff" stroke="#63b8ff" points="315.02,-407.5 305.02,-411 315.02,-414.5 315.02,-407.5"/>
</a>
</g>
</g>
<!-- Node15 -->
<g id="Node000015" class="node">
<title>Node15</title>
<g id="a_Node000015"><a xlink:href="d4/dfa/classvanetza_1_1asn1_1_1Mapem.html" target="_top" xlink:title=" ">
<polygon fill="white" stroke="#666666" points="485,-372.5 369,-372.5 369,-353.5 485,-353.5 485,-372.5"/>
<text text-anchor="middle" x="427" y="-360.5" font-family="Helvetica,sans-Serif" font-size="10.00">vanetza::asn1::Mapem</text>
</a>
</g>
</g>
<!-- Node14&#45;&gt;Node15 -->
<g id="edge52_Node000014_Node000015" class="edge">
<title>Node14&#45;&gt;Node15</title>
<g id="a_edge52_Node000014_Node000015"><a xlink:title=" ">
<path fill="none" stroke="#63b8ff" d="M323.6,-363C338.81,-363 354.47,-363 368.83,-363"/>
<polygon fill="#63b8ff" stroke="#63b8ff" points="323.17,-359.5 313.17,-363 323.17,-366.5 323.17,-359.5"/>
</a>
</g>
</g>
<!-- Node17 -->
<g id="Node000017" class="node">
<title>Node17</title>
<g id="a_Node000017"><a xlink:href="d4/d0f/classvanetza_1_1asn1_1_1Spatem.html" target="_top" xlink:title=" ">
<polygon fill="white" stroke="#666666" points="485.5,-216.5 368.5,-216.5 368.5,-197.5 485.5,-197.5 485.5,-216.5"/>
<text text-anchor="middle" x="427" y="-204.5" font-family="Helvetica,sans-Serif" font-size="10.00">vanetza::asn1::Spatem</text>
</a>
</g>
</g>
<!-- Node16&#45;&gt;Node17 -->
<g id="edge54_Node000016_Node000017" class="edge">
<title>Node16&#45;&gt;Node17</title>
<g id="a_edge54_Node000016_Node000017"><a xlink:title=" ">
<path fill="none" stroke="#63b8ff" d="M324.79,-207C339.45,-207 354.49,-207 368.35,-207"/>
<polygon fill="#63b8ff" stroke="#63b8ff" points="324.72,-203.5 314.72,-207 324.72,-210.5 324.72,-203.5"/>
</a>
</g>
</g>
<!-- Node19 -->
<g id="Node000019" class="node">
<title>Node19</title>
<g id="a_Node000019"><a xlink:href="d0/d8a/classvanetza_1_1asn1_1_1Srem.html" target="_top" xlink:title=" ">
<polygon fill="white" stroke="#666666" points="480.5,-168.5 373.5,-168.5 373.5,-149.5 480.5,-149.5 480.5,-168.5"/>
<text text-anchor="middle" x="427" y="-156.5" font-family="Helvetica,sans-Serif" font-size="10.00">vanetza::asn1::Srem</text>
</a>
</g>
</g>
<!-- Node18&#45;&gt;Node19 -->
<g id="edge56_Node000018_Node000019" class="edge">
<title>Node18&#45;&gt;Node19</title>
<g id="a_edge56_Node000018_Node000019"><a xlink:title=" ">
<path fill="none" stroke="#63b8ff" d="M319.76,-159C337.76,-159 356.62,-159 373.36,-159"/>
<polygon fill="#63b8ff" stroke="#63b8ff" points="319.58,-155.5 309.58,-159 319.58,-162.5 319.58,-155.5"/>
</a>
</g>
</g>
<!-- Node21 -->
<g id="Node000021" class="node">
<title>Node21</title>
<g id="a_Node000021"><a xlink:href="d8/dbe/classvanetza_1_1asn1_1_1Ssem.html" target="_top" xlink:title=" ">
<polygon fill="white" stroke="#666666" points="481.5,-24.5 372.5,-24.5 372.5,-5.5 481.5,-5.5 481.5,-24.5"/>
<text text-anchor="middle" x="427" y="-12.5" font-family="Helvetica,sans-Serif" font-size="10.00">vanetza::asn1::Ssem</text>
</a>
</g>
</g>
<!-- Node20&#45;&gt;Node21 -->
<g id="edge58_Node000020_Node000021" class="edge">
<title>Node20&#45;&gt;Node21</title>
<g id="a_edge58_Node000020_Node000021"><a xlink:title=" ">
<path fill="none" stroke="#63b8ff" d="M319.42,-15C337.21,-15 355.86,-15 372.49,-15"/>
<polygon fill="#63b8ff" stroke="#63b8ff" points="319.07,-11.5 309.07,-15 319.07,-18.5 319.07,-11.5"/>
</a>
</g>
</g>
<!-- Node3 -->
<g id="Node000003" class="node">
<title>Node3</title>
<g id="a_Node000003"><a xlink:href="d8/dce/classvanetza_1_1security_1_1v3_1_1CertificateView.html" target="_top" xlink:title=" ">
<polygon fill="white" stroke="#666666" points="294.5,-270 193.5,-270 193.5,-240 294.5,-240 294.5,-270"/>
<text text-anchor="start" x="201.5" y="-258" font-family="Helvetica,sans-Serif" font-size="10.00">vanetza::security::</text>
<text text-anchor="middle" x="244" y="-247" font-family="Helvetica,sans-Serif" font-size="10.00">v3::CertificateView</text>
</a>
</g>
</g>
<!-- Node3&#45;&gt;Node2 -->
<g id="edge62_Node000003_Node000002" class="edge">
<title>Node3&#45;&gt;Node2</title>
<g id="a_edge62_Node000003_Node000002"><a xlink:title=" ">
<path fill="none" stroke="#63b8ff" d="M304.99,-263.95C328.97,-267.53 356.18,-271.58 378.72,-274.95"/>
<polygon fill="#63b8ff" stroke="#63b8ff" points="305.35,-260.46 294.94,-262.45 304.31,-267.39 305.35,-260.46"/>
</a>
</g>
</g>
</g>
</svg>
