<?xml version="1.0" encoding="UTF-8" standalone="no"?>
<!DOCTYPE svg PUBLIC "-//W3C//DTD SVG 1.1//EN"
 "http://www.w3.org/Graphics/SVG/1.1/DTD/svg11.dtd">
<!-- Generated by graphviz version 14.1.2 (0)
 -->
<!-- Title: Graphical Class Hierarchy Pages: 1 -->
<svg width="538pt" height="146pt"
 viewBox="0.00 0.00 538.00 146.00" xmlns="http://www.w3.org/2000/svg" xmlns:xlink="http://www.w3.org/1999/xlink">
<g id="graph0" class="graph" transform="scale(1 1) rotate(0) translate(4 141.5)">
<title>Graphical Class Hierarchy</title>
<!-- Node0 -->
<g id="Node000000" class="node">
<title>Node0</title>
<g id="a_Node000000"><a xlink:href="d2/d13/classvanetza_1_1dcc_1_1TransmitRateFeedback.html" target="_top" xlink:title=" ">
<polygon fill="white" stroke="#666666" points="148,-111.5 0,-111.5 0,-78 148,-78 148,-111.5"/>
<text xml:space="preserve" text-anchor="start" x="8" y="-98" font-family="Helvetica,sans-Serif" font-size="10.00">vanetza::dcc::TransmitRate</text>
<text xml:space="preserve" text-anchor="middle" x="74" y="-85.25" font-family="Helvetica,sans-Serif" font-size="10.00">Feedback</text>
</a>
</g>
</g>
<!-- Node1 -->
<g id="Node000001" class="node">
<title>Node1</title>
<g id="a_Node000001"><a xlink:href="de/d9c/classvanetza_1_1dcc_1_1TransmitRateControl.html" target="_top" xlink:title=" ">
<polygon fill="white" stroke="#666666" points="332,-85.5 184,-85.5 184,-52 332,-52 332,-85.5"/>
<text xml:space="preserve" text-anchor="start" x="192" y="-72" font-family="Helvetica,sans-Serif" font-size="10.00">vanetza::dcc::TransmitRate</text>
<text xml:space="preserve" text-anchor="middle" x="258" y="-59.25" font-family="Helvetica,sans-Serif" font-size="10.00">Control</text>
</a>
</g>
</g>
<!-- Node0&#45;&gt;Node1 -->
<g id="edge83_Node000000_Node000001" class="edge">
<title>Node0&#45;&gt;Node1</title>
<g id="a_edge83_Node000000_Node000001"><a xlink:title=" ">
<path fill="none" stroke="#63b8ff" d="M159.54,-82.67C167.58,-81.52 175.69,-80.37 183.61,-79.23"/>
<polygon fill="#63b8ff" stroke="#63b8ff" points="159.14,-79.19 149.74,-84.07 160.13,-86.12 159.14,-79.19"/>
</a>
</g>
</g>
<!-- Node2 -->
<g id="Node000002" class="node">
<title>Node2</title>
<g id="a_Node000002"><a xlink:href="d1/d1c/classvanetza_1_1dcc_1_1BurstyTransmitRateControl.html" target="_top" xlink:title=" ">
<polygon fill="white" stroke="#666666" points="527.25,-137.5 370.25,-137.5 370.25,-104 527.25,-104 527.25,-137.5"/>
<text xml:space="preserve" text-anchor="start" x="378.25" y="-124" font-family="Helvetica,sans-Serif" font-size="10.00">vanetza::dcc::BurstyTransmit</text>
<text xml:space="preserve" text-anchor="middle" x="448.75" y="-111.25" font-family="Helvetica,sans-Serif" font-size="10.00">RateControl</text>
</a>
</g>
</g>
<!-- Node1&#45;&gt;Node2 -->
<g id="edge84_Node000001_Node000002" class="edge">
<title>Node1&#45;&gt;Node2</title>
<g id="a_edge84_Node000001_Node000002"><a xlink:title=" ">
<path fill="none" stroke="#63b8ff" d="M332.33,-88.95C349.84,-93.78 368.37,-98.88 385.33,-103.55"/>
<polygon fill="#63b8ff" stroke="#63b8ff" points="333.62,-85.68 323.05,-86.4 331.76,-92.43 333.62,-85.68"/>
</a>
</g>
</g>
<!-- Node3 -->
<g id="Node000003" class="node">
<title>Node3</title>
<g id="a_Node000003"><a xlink:href="df/d62/classvanetza_1_1dcc_1_1LimericTransmitRateControl.html" target="_top" xlink:title=" ">
<polygon fill="white" stroke="#666666" points="529.5,-85.5 368,-85.5 368,-52 529.5,-52 529.5,-85.5"/>
<text xml:space="preserve" text-anchor="start" x="376" y="-72" font-family="Helvetica,sans-Serif" font-size="10.00">vanetza::dcc::LimericTransmit</text>
<text xml:space="preserve" text-anchor="middle" x="448.75" y="-59.25" font-family="Helvetica,sans-Serif" font-size="10.00">RateControl</text>
</a>
</g>
</g>
<!-- Node1&#45;&gt;Node3 -->
<g id="edge85_Node000001_Node000003" class="edge">
<title>Node1&#45;&gt;Node3</title>
<g id="a_edge85_Node000001_Node000003"><a xlink:title=" ">
<path fill="none" stroke="#63b8ff" d="M343.51,-68.75C351.54,-68.75 359.67,-68.75 367.66,-68.75"/>
<polygon fill="#63b8ff" stroke="#63b8ff" points="343.76,-65.25 333.76,-68.75 343.76,-72.25 343.76,-65.25"/>
</a>
</g>
</g>
<!-- Node4 -->
<g id="Node000004" class="node">
<title>Node4</title>
<g id="a_Node000004"><a xlink:href="dc/d2b/classvanetza_1_1dcc_1_1SingleReactiveTransmitRateControl.html" target="_top" xlink:title=" ">
<polygon fill="white" stroke="#666666" points="526.88,-33.5 370.62,-33.5 370.62,0 526.88,0 526.88,-33.5"/>
<text xml:space="preserve" text-anchor="start" x="378.62" y="-20" font-family="Helvetica,sans-Serif" font-size="10.00">vanetza::dcc::SingleReactive</text>
<text xml:space="preserve" text-anchor="middle" x="448.75" y="-7.25" font-family="Helvetica,sans-Serif" font-size="10.00">TransmitRateControl</text>
</a>
</g>
</g>
<!-- Node1&#45;&gt;Node4 -->
<g id="edge86_Node000001_Node000004" class="edge">
<title>Node1&#45;&gt;Node4</title>
<g id="a_edge86_Node000001_Node000004"><a xlink:title=" ">
<path fill="none" stroke="#63b8ff" d="M332.33,-48.55C349.84,-43.72 368.37,-38.62 385.33,-33.95"/>
<polygon fill="#63b8ff" stroke="#63b8ff" points="331.76,-45.07 323.05,-51.1 333.62,-51.82 331.76,-45.07"/>
</a>
</g>
</g>
<!-- Node5 -->
<g id="Node000005" class="node">
<title>Node5</title>
<g id="a_Node000005"><a xlink:href="dd/dbf/classvanetza_1_1dcc_1_1TransmitRateThrottle.html" target="_top" xlink:title=" ">
<polygon fill="white" stroke="#666666" points="148,-59.5 0,-59.5 0,-26 148,-26 148,-59.5"/>
<text xml:space="preserve" text-anchor="start" x="8" y="-46" font-family="Helvetica,sans-Serif" font-size="10.00">vanetza::dcc::TransmitRate</text>
<text xml:space="preserve" text-anchor="middle" x="74" y="-33.25" font-family="Helvetica,sans-Serif" font-size="10.00">Throttle</text>
</a>
</g>
</g>
<!-- Node5&#45;&gt;Node1 -->
<g id="edge87_Node000005_Node000001" class="edge">
<title>Node5&#45;&gt;Node1</title>
<g id="a_edge87_Node000005_Node000001"><a xlink:title=" ">
<path fill="none" stroke="#63b8ff" d="M159.54,-54.83C167.58,-55.98 175.69,-57.13 183.61,-58.27"/>
<polygon fill="#63b8ff" stroke="#63b8ff" points="160.13,-51.38 149.74,-53.43 159.14,-58.31 160.13,-51.38"/>
</a>
</g>
</g>
</g>
</svg>
