<?xml version="1.0" encoding="UTF-8" standalone="no"?>
<!DOCTYPE svg PUBLIC "-//W3C//DTD SVG 1.1//EN"
 "http://www.w3.org/Graphics/SVG/1.1/DTD/svg11.dtd">
<!-- Generated by graphviz version 14.1.2 (0)
 -->
<!-- Title: Graphical Class Hierarchy Pages: 1 -->
<svg width="338pt" height="80pt"
 viewBox="0.00 0.00 338.00 80.00" xmlns="http://www.w3.org/2000/svg" xmlns:xlink="http://www.w3.org/1999/xlink">
<g id="graph0" class="graph" transform="scale(1 1) rotate(0) translate(4 76.12)">
<title>Graphical Class Hierarchy</title>
<!-- Node0 -->
<g id="Node000000" class="node">
<title>Node0</title>
<g id="a_Node000000"><a xlink:title=" ">
<polygon fill="#e0e0e0" stroke="#999999" points="112,-49.12 0,-49.12 0,-28.38 112,-28.38 112,-49.12"/>
<text xml:space="preserve" text-anchor="middle" x="56" y="-35.62" font-family="Helvetica,sans-Serif" font-size="10.00">boost::static_visitor</text>
</a>
</g>
</g>
<!-- Node1 -->
<g id="Node000001" class="node">
<title>Node1</title>
<g id="a_Node000001"><a xlink:href="d5/d3f/classvanetza_1_1asn1_1_1PacketVisitor.html" target="_top" xlink:title=" ">
<polygon fill="white" stroke="#666666" points="329.75,-72.12 148,-72.12 148,-51.38 329.75,-51.38 329.75,-72.12"/>
<text xml:space="preserve" text-anchor="middle" x="238.88" y="-58.62" font-family="Helvetica,sans-Serif" font-size="10.00">vanetza::asn1::PacketVisitor&lt; T &gt;</text>
</a>
</g>
</g>
<!-- Node0&#45;&gt;Node1 -->
<g id="edge21_Node000000_Node000001" class="edge">
<title>Node0&#45;&gt;Node1</title>
<g id="a_edge21_Node000000_Node000001"><a xlink:title=" ">
<path fill="none" stroke="#63b8ff" d="M123.58,-47.22C133.05,-48.42 142.89,-49.67 152.65,-50.91"/>
<polygon fill="#63b8ff" stroke="#63b8ff" points="124.11,-43.76 113.75,-45.97 123.23,-50.7 124.11,-43.76"/>
</a>
</g>
</g>
<!-- Node2 -->
<g id="Node000002" class="node">
<title>Node2</title>
<g id="a_Node000002"><a xlink:href="dc/ddc/classvanetza_1_1geonet_1_1RepetitionDispatcher.html" target="_top" xlink:title=" ">
<polygon fill="white" stroke="#666666" points="314.38,-33.5 163.38,-33.5 163.38,0 314.38,0 314.38,-33.5"/>
<text xml:space="preserve" text-anchor="start" x="171.38" y="-20" font-family="Helvetica,sans-Serif" font-size="10.00">vanetza::geonet::Repetition</text>
<text xml:space="preserve" text-anchor="middle" x="238.88" y="-7.25" font-family="Helvetica,sans-Serif" font-size="10.00">Dispatcher</text>
</a>
</g>
</g>
<!-- Node0&#45;&gt;Node2 -->
<g id="edge22_Node000000_Node000002" class="edge">
<title>Node0&#45;&gt;Node2</title>
<g id="a_edge22_Node000000_Node000002"><a xlink:title=" ">
<path fill="none" stroke="#63b8ff" d="M123.36,-30.68C136.25,-29.11 149.84,-27.46 162.98,-25.86"/>
<polygon fill="#63b8ff" stroke="#63b8ff" points="123.26,-27.17 113.75,-31.85 124.1,-34.11 123.26,-27.17"/>
</a>
</g>
</g>
</g>
</svg>
