<?xml version="1.0" encoding="UTF-8" standalone="no"?>
<!DOCTYPE svg PUBLIC "-//W3C//DTD SVG 1.1//EN"
 "http://www.w3.org/Graphics/SVG/1.1/DTD/svg11.dtd">
<!-- Generated by graphviz version 2.42.1 (0)
 -->
<!-- Title: Graphical Class Hierarchy Pages: 1 -->
<svg width="546pt" height="100pt"
 viewBox="0.00 0.00 546.00 99.50" xmlns="http://www.w3.org/2000/svg" xmlns:xlink="http://www.w3.org/1999/xlink">
<g id="graph0" class="graph" transform="scale(1 1) rotate(0) translate(4 95.5)">
<title>Graphical Class Hierarchy</title>
<polygon fill="white" stroke="transparent" points="-4,4 -4,-95.5 542,-95.5 542,4 -4,4"/>
<!-- Node0 -->
<g id="node1" class="node">
<title>Node0</title>
<g id="a_node1"><a xlink:href="da/dcb/classvanetza_1_1geonet_1_1ConstAccessiblePdu.html" target="_top" xlink:title=" ">
<polygon fill="white" stroke="black" points="0,-44.5 0,-63.5 184,-63.5 184,-44.5 0,-44.5"/>
<text text-anchor="middle" x="92" y="-51.5" font-family="Helvetica,sans-Serif" font-size="10.00">vanetza::geonet::ConstAccessiblePdu</text>
</a>
</g>
</g>
<!-- Node1 -->
<g id="node2" class="node">
<title>Node1</title>
<g id="a_node2"><a xlink:href="d5/d01/classvanetza_1_1geonet_1_1ExtendedPduConstRefs.html" target="_top" xlink:title=" ">
<polygon fill="white" stroke="black" points="220,-61 220,-91 362,-91 362,-61 220,-61"/>
<text text-anchor="start" x="228" y="-79" font-family="Helvetica,sans-Serif" font-size="10.00">vanetza::geonet::Extended</text>
<text text-anchor="middle" x="291" y="-68" font-family="Helvetica,sans-Serif" font-size="10.00">PduConstRefs&lt; HEADER &gt;</text>
</a>
</g>
</g>
<!-- Node0&#45;&gt;Node1 -->
<g id="edge1" class="edge">
<title>Node0&#45;&gt;Node1</title>
<path fill="none" stroke="midnightblue" d="M188.36,-64.65C198.92,-65.83 209.53,-67.01 219.7,-68.15"/>
<polygon fill="midnightblue" stroke="midnightblue" points="188.59,-61.15 178.26,-63.52 187.81,-68.11 188.59,-61.15"/>
</g>
<!-- Node2 -->
<g id="node3" class="node">
<title>Node2</title>
<g id="a_node3"><a xlink:href="dc/d8c/classvanetza_1_1geonet_1_1Pdu.html" target="_top" xlink:title=" ">
<polygon fill="white" stroke="black" points="236,-22.5 236,-41.5 346,-41.5 346,-22.5 236,-22.5"/>
<text text-anchor="middle" x="291" y="-29.5" font-family="Helvetica,sans-Serif" font-size="10.00">vanetza::geonet::Pdu</text>
</a>
</g>
</g>
<!-- Node0&#45;&gt;Node2 -->
<g id="edge2" class="edge">
<title>Node0&#45;&gt;Node2</title>
<path fill="none" stroke="midnightblue" d="M188.39,-43.35C204.7,-41.53 221.13,-39.69 235.88,-38.04"/>
<polygon fill="midnightblue" stroke="midnightblue" points="187.81,-39.89 178.26,-44.48 188.59,-46.85 187.81,-39.89"/>
</g>
<!-- Node3 -->
<g id="node4" class="node">
<title>Node3</title>
<g id="a_node4"><a xlink:href="d9/d6e/classvanetza_1_1geonet_1_1ExtendedPdu.html" target="_top" xlink:title=" ">
<polygon fill="white" stroke="black" points="401,-39 401,-69 535,-69 535,-39 401,-39"/>
<text text-anchor="start" x="409" y="-57" font-family="Helvetica,sans-Serif" font-size="10.00">vanetza::geonet::Extended</text>
<text text-anchor="middle" x="468" y="-46" font-family="Helvetica,sans-Serif" font-size="10.00">Pdu&lt; HEADER &gt;</text>
</a>
</g>
</g>
<!-- Node2&#45;&gt;Node3 -->
<g id="edge3" class="edge">
<title>Node2&#45;&gt;Node3</title>
<path fill="none" stroke="midnightblue" d="M356.73,-40.14C371.15,-41.95 386.45,-43.87 400.93,-45.69"/>
<polygon fill="midnightblue" stroke="midnightblue" points="356.77,-36.62 346.41,-38.84 355.9,-43.56 356.77,-36.62"/>
</g>
<!-- Node4 -->
<g id="node5" class="node">
<title>Node4</title>
<g id="a_node5"><a xlink:href="d7/d84/classvanetza_1_1geonet_1_1VariantPdu.html" target="_top" xlink:title=" ">
<polygon fill="white" stroke="black" points="398,-0.5 398,-19.5 538,-19.5 538,-0.5 398,-0.5"/>
<text text-anchor="middle" x="468" y="-7.5" font-family="Helvetica,sans-Serif" font-size="10.00">vanetza::geonet::VariantPdu</text>
</a>
</g>
</g>
<!-- Node2&#45;&gt;Node4 -->
<g id="edge4" class="edge">
<title>Node2&#45;&gt;Node4</title>
<path fill="none" stroke="midnightblue" d="M356.51,-23.89C369.96,-22.2 384.17,-20.41 397.78,-18.7"/>
<polygon fill="midnightblue" stroke="midnightblue" points="355.9,-20.44 346.41,-25.16 356.77,-27.38 355.9,-20.44"/>
</g>
</g>
</svg>
