<?xml version="1.0" encoding="UTF-8" standalone="no"?>
<!DOCTYPE svg PUBLIC "-//W3C//DTD SVG 1.1//EN"
 "http://www.w3.org/Graphics/SVG/1.1/DTD/svg11.dtd">
<!-- Generated by graphviz version 14.1.2 (0)
 -->
<!-- Title: Graphical Class Hierarchy Pages: 1 -->
<svg width="507pt" height="94pt"
 viewBox="0.00 0.00 507.00 94.00" xmlns="http://www.w3.org/2000/svg" xmlns:xlink="http://www.w3.org/1999/xlink">
<g id="graph0" class="graph" transform="scale(1 1) rotate(0) translate(4 89.5)">
<title>Graphical Class Hierarchy</title>
<!-- Node0 -->
<g id="Node000000" class="node">
<title>Node0</title>
<g id="a_Node000000"><a xlink:href="d7/d65/classvanetza_1_1security_1_1v3_1_1CertificateProvider.html" target="_top" xlink:title=" ">
<polygon fill="white" stroke="#666666" points="124.75,-59.5 0,-59.5 0,-26 124.75,-26 124.75,-59.5"/>
<text xml:space="preserve" text-anchor="start" x="8" y="-46" font-family="Helvetica,sans-Serif" font-size="10.00">vanetza::security::</text>
<text xml:space="preserve" text-anchor="middle" x="62.38" y="-33.25" font-family="Helvetica,sans-Serif" font-size="10.00">v3::CertificateProvider</text>
</a>
</g>
</g>
<!-- Node1 -->
<g id="Node000001" class="node">
<title>Node1</title>
<g id="a_Node000001"><a xlink:href="d3/dd7/classvanetza_1_1security_1_1v3_1_1BaseCertificateProvider.html" target="_top" xlink:title=" ">
<polygon fill="white" stroke="#666666" points="309.5,-59.5 160.75,-59.5 160.75,-26 309.5,-26 309.5,-59.5"/>
<text xml:space="preserve" text-anchor="start" x="168.75" y="-46" font-family="Helvetica,sans-Serif" font-size="10.00">vanetza::security::</text>
<text xml:space="preserve" text-anchor="middle" x="235.12" y="-33.25" font-family="Helvetica,sans-Serif" font-size="10.00">v3::BaseCertificateProvider</text>
</a>
</g>
</g>
<!-- Node0&#45;&gt;Node1 -->
<g id="edge140_Node000000_Node000001" class="edge">
<title>Node0&#45;&gt;Node1</title>
<g id="a_edge140_Node000000_Node000001"><a xlink:title=" ">
<path fill="none" stroke="#63b8ff" d="M136.47,-42.75C144.38,-42.75 152.43,-42.75 160.35,-42.75"/>
<polygon fill="#63b8ff" stroke="#63b8ff" points="136.53,-39.25 126.53,-42.75 136.53,-46.25 136.53,-39.25"/>
</a>
</g>
</g>
<!-- Node2 -->
<g id="Node000002" class="node">
<title>Node2</title>
<g id="a_Node000002"><a xlink:href="db/daa/classvanetza_1_1security_1_1v3_1_1NaiveCertificateProvider.html" target="_top" xlink:title="A very simplistic certificate provider.">
<polygon fill="white" stroke="#666666" points="498.75,-85.5 345.5,-85.5 345.5,-52 498.75,-52 498.75,-85.5"/>
<text xml:space="preserve" text-anchor="start" x="353.5" y="-72" font-family="Helvetica,sans-Serif" font-size="10.00">vanetza::security::</text>
<text xml:space="preserve" text-anchor="middle" x="422.12" y="-59.25" font-family="Helvetica,sans-Serif" font-size="10.00">v3::NaiveCertificateProvider</text>
</a>
</g>
</g>
<!-- Node1&#45;&gt;Node2 -->
<g id="edge141_Node000001_Node000002" class="edge">
<title>Node1&#45;&gt;Node2</title>
<g id="a_edge141_Node000001_Node000002"><a xlink:title=" ">
<path fill="none" stroke="#63b8ff" d="M321.01,-54.68C329.01,-55.8 337.09,-56.94 345,-58.05"/>
<polygon fill="#63b8ff" stroke="#63b8ff" points="321.66,-51.24 311.27,-53.31 320.69,-58.17 321.66,-51.24"/>
</a>
</g>
</g>
<!-- Node3 -->
<g id="Node000003" class="node">
<title>Node3</title>
<g id="a_Node000003"><a xlink:href="dc/d7a/classvanetza_1_1security_1_1v3_1_1StaticCertificateProvider.html" target="_top" xlink:title="A simple certificate provider.">
<polygon fill="white" stroke="#666666" points="498.38,-33.5 345.88,-33.5 345.88,0 498.38,0 498.38,-33.5"/>
<text xml:space="preserve" text-anchor="start" x="353.88" y="-20" font-family="Helvetica,sans-Serif" font-size="10.00">vanetza::security::</text>
<text xml:space="preserve" text-anchor="middle" x="422.12" y="-7.25" font-family="Helvetica,sans-Serif" font-size="10.00">v3::StaticCertificateProvider</text>
</a>
</g>
</g>
<!-- Node1&#45;&gt;Node3 -->
<g id="edge142_Node000001_Node000003" class="edge">
<title>Node1&#45;&gt;Node3</title>
<g id="a_edge142_Node000001_Node000003"><a xlink:title=" ">
<path fill="none" stroke="#63b8ff" d="M320.93,-30.83C329.16,-29.67 337.48,-28.51 345.61,-27.36"/>
<polygon fill="#63b8ff" stroke="#63b8ff" points="320.69,-27.33 311.27,-32.19 321.66,-34.26 320.69,-27.33"/>
</a>
</g>
</g>
</g>
</svg>
