<?xml version="1.0" encoding="UTF-8" standalone="no"?>
<!DOCTYPE svg PUBLIC "-//W3C//DTD SVG 1.1//EN"
 "http://www.w3.org/Graphics/SVG/1.1/DTD/svg11.dtd">
<!-- Generated by graphviz version 14.1.2 (0)
 -->
<!-- Title: Graphical Class Hierarchy Pages: 1 -->
<svg width="362pt" height="94pt"
 viewBox="0.00 0.00 362.00 94.00" xmlns="http://www.w3.org/2000/svg" xmlns:xlink="http://www.w3.org/1999/xlink">
<g id="graph0" class="graph" transform="scale(1 1) rotate(0) translate(4 89.5)">
<title>Graphical Class Hierarchy</title>
<!-- Node0 -->
<g id="Node000000" class="node">
<title>Node0</title>
<g id="a_Node000000"><a xlink:href="d2/d6f/classvanetza_1_1geonet_1_1DccFieldGenerator.html" target="_top" xlink:title=" ">
<polygon fill="white" stroke="#666666" points="142,-59.5 0,-59.5 0,-26 142,-26 142,-59.5"/>
<text xml:space="preserve" text-anchor="start" x="8" y="-46" font-family="Helvetica,sans-Serif" font-size="10.00">vanetza::geonet::DccField</text>
<text xml:space="preserve" text-anchor="middle" x="71" y="-33.25" font-family="Helvetica,sans-Serif" font-size="10.00">Generator</text>
</a>
</g>
</g>
<!-- Node1 -->
<g id="Node000001" class="node">
<title>Node1</title>
<g id="a_Node000001"><a xlink:href="d4/d6e/classvanetza_1_1geonet_1_1DccInformationSharing.html" target="_top" xlink:title=" ">
<polygon fill="white" stroke="#666666" points="353.75,-85.5 178,-85.5 178,-52 353.75,-52 353.75,-85.5"/>
<text xml:space="preserve" text-anchor="start" x="186" y="-72" font-family="Helvetica,sans-Serif" font-size="10.00">vanetza::geonet::DccInformation</text>
<text xml:space="preserve" text-anchor="middle" x="265.88" y="-59.25" font-family="Helvetica,sans-Serif" font-size="10.00">Sharing</text>
</a>
</g>
</g>
<!-- Node0&#45;&gt;Node1 -->
<g id="edge107_Node000000_Node000001" class="edge">
<title>Node0&#45;&gt;Node1</title>
<g id="a_edge107_Node000000_Node000001"><a xlink:title=" ">
<path fill="none" stroke="#63b8ff" d="M153.82,-53.78C161.67,-54.84 169.64,-55.91 177.54,-56.98"/>
<polygon fill="#63b8ff" stroke="#63b8ff" points="154.33,-50.32 143.95,-52.45 153.39,-57.25 154.33,-50.32"/>
</a>
</g>
</g>
<!-- Node2 -->
<g id="Node000002" class="node">
<title>Node2</title>
<g id="a_Node000002"><a xlink:href="d1/dd1/classvanetza_1_1geonet_1_1NullDccFieldGenerator.html" target="_top" xlink:title=" ">
<polygon fill="white" stroke="#666666" points="335,-33.5 196.75,-33.5 196.75,0 335,0 335,-33.5"/>
<text xml:space="preserve" text-anchor="start" x="204.75" y="-20" font-family="Helvetica,sans-Serif" font-size="10.00">vanetza::geonet::NullDcc</text>
<text xml:space="preserve" text-anchor="middle" x="265.88" y="-7.25" font-family="Helvetica,sans-Serif" font-size="10.00">FieldGenerator</text>
</a>
</g>
</g>
<!-- Node0&#45;&gt;Node2 -->
<g id="edge108_Node000000_Node000002" class="edge">
<title>Node0&#45;&gt;Node2</title>
<g id="a_edge108_Node000000_Node000002"><a xlink:title=" ">
<path fill="none" stroke="#63b8ff" d="M153.76,-31.73C168.01,-29.81 182.7,-27.83 196.55,-25.96"/>
<polygon fill="#63b8ff" stroke="#63b8ff" points="153.39,-28.25 143.95,-33.05 154.33,-35.18 153.39,-28.25"/>
</a>
</g>
</g>
</g>
</svg>
