<?xml version="1.0" encoding="UTF-8" standalone="no"?>
<!DOCTYPE svg PUBLIC "-//W3C//DTD SVG 1.1//EN"
 "http://www.w3.org/Graphics/SVG/1.1/DTD/svg11.dtd">
<!-- Generated by graphviz version 2.49.3 (0)
 -->
<!-- Title: Graphical Class Hierarchy Pages: 1 -->
<svg width="317pt" height="86pt"
 viewBox="0.00 0.00 317.00 86.00" xmlns="http://www.w3.org/2000/svg" xmlns:xlink="http://www.w3.org/1999/xlink">
<g id="graph0" class="graph" transform="scale(1 1) rotate(0) translate(4 82)">
<title>Graphical Class Hierarchy</title>
<!-- Node0 -->
<g id="node1" class="node">
<title>Node0</title>
<g id="a_node1"><a xlink:href="d8/db3/classvanetza_1_1dcc_1_1StateMachine.html" target="_top" xlink:title=" ">
<polygon fill="white" stroke="#666666" points="138,-48.5 0,-48.5 0,-29.5 138,-29.5 138,-48.5"/>
<text text-anchor="middle" x="69" y="-36.5" font-family="Helvetica,sans-Serif" font-size="10.00">vanetza::dcc::StateMachine</text>
</a>
</g>
</g>
<!-- Node1 -->
<g id="node2" class="node">
<title>Node1</title>
<g id="a_node2"><a xlink:href="d2/d3b/classvanetza_1_1dcc_1_1FullyMeshedStateMachine.html" target="_top" xlink:title=" ">
<polygon fill="white" stroke="#666666" points="308.5,-78 174.5,-78 174.5,-48 308.5,-48 308.5,-78"/>
<text text-anchor="start" x="182.5" y="-66" font-family="Helvetica,sans-Serif" font-size="10.00">vanetza::dcc::FullyMeshed</text>
<text text-anchor="middle" x="241.5" y="-55" font-family="Helvetica,sans-Serif" font-size="10.00">StateMachine</text>
</a>
</g>
</g>
<!-- Node0&#45;&gt;Node1 -->
<g id="edge1" class="edge">
<title>Node0&#45;&gt;Node1</title>
<path fill="none" stroke="#63b8ff" d="M147.79,-49.95C156.63,-51.19 165.58,-52.45 174.25,-53.67"/>
<polygon fill="#63b8ff" stroke="#63b8ff" points="148.27,-46.48 137.88,-48.55 147.29,-53.41 148.27,-46.48"/>
</g>
<!-- Node2 -->
<g id="node3" class="node">
<title>Node2</title>
<g id="a_node3"><a xlink:href="df/dd9/classvanetza_1_1dcc_1_1GradualStateMachine.html" target="_top" xlink:title=" ">
<polygon fill="white" stroke="#666666" points="309,-30 174,-30 174,0 309,0 309,-30"/>
<text text-anchor="start" x="182" y="-18" font-family="Helvetica,sans-Serif" font-size="10.00">vanetza::dcc::GradualState</text>
<text text-anchor="middle" x="241.5" y="-7" font-family="Helvetica,sans-Serif" font-size="10.00">Machine</text>
</a>
</g>
</g>
<!-- Node0&#45;&gt;Node2 -->
<g id="edge2" class="edge">
<title>Node0&#45;&gt;Node2</title>
<path fill="none" stroke="#63b8ff" d="M148,-28.02C156.67,-26.8 165.45,-25.56 173.97,-24.36"/>
<polygon fill="#63b8ff" stroke="#63b8ff" points="147.29,-24.59 137.88,-29.45 148.27,-31.52 147.29,-24.59"/>
</g>
</g>
</svg>
