<?xml version="1.0" encoding="UTF-8" standalone="no"?>
<!DOCTYPE svg PUBLIC "-//W3C//DTD SVG 1.1//EN"
 "http://www.w3.org/Graphics/SVG/1.1/DTD/svg11.dtd">
<!-- Generated by graphviz version 2.42.3 (0)
 -->
<!-- Title: Graphical Class Hierarchy Pages: 1 -->
<svg width="255pt" height="235pt"
 viewBox="0.00 0.00 255.00 235.00" xmlns="http://www.w3.org/2000/svg" xmlns:xlink="http://www.w3.org/1999/xlink">
<g id="graph0" class="graph" transform="scale(1 1) rotate(0) translate(4 231)">
<title>Graphical Class Hierarchy</title>
<polygon fill="white" stroke="transparent" points="-4,4 -4,-231 251,-231 251,4 -4,4"/>
<!-- Node155 -->
<g id="node1" class="node">
<title>Node155</title>
<g id="a_node1"><a xlink:title=" ">
<polygon fill="white" stroke="#bfbfbf" points="0,-104 0,-123 71,-123 71,-104 0,-104"/>
<text text-anchor="middle" x="35.5" y="-111" font-family="Helvetica,sans-Serif" font-size="10.00">noncopyable</text>
</a>
</g>
</g>
<!-- Node0 -->
<g id="node2" class="node">
<title>Node0</title>
<g id="a_node2"><a xlink:href="d1/d9d/classvanetza_1_1security_1_1openssl_1_1BigNumber.html" target="_top" xlink:title=" ">
<polygon fill="white" stroke="black" points="124.5,-196.5 124.5,-226.5 229.5,-226.5 229.5,-196.5 124.5,-196.5"/>
<text text-anchor="start" x="132.5" y="-214.5" font-family="Helvetica,sans-Serif" font-size="10.00">vanetza::security::</text>
<text text-anchor="middle" x="177" y="-203.5" font-family="Helvetica,sans-Serif" font-size="10.00">openssl::BigNumber</text>
</a>
</g>
</g>
<!-- Node155&#45;&gt;Node0 -->
<g id="edge1" class="edge">
<title>Node155&#45;&gt;Node0</title>
<path fill="none" stroke="#8b1a1a" d="M49.48,-131.39C62.39,-148.02 83.59,-172.42 107,-187.5 112.33,-190.93 118.21,-193.94 124.23,-196.56"/>
<polygon fill="#8b1a1a" stroke="#8b1a1a" points="52.02,-128.94 43.21,-123.06 46.43,-133.16 52.02,-128.94"/>
</g>
<!-- Node157 -->
<g id="node3" class="node">
<title>Node157</title>
<g id="a_node3"><a xlink:href="d3/d61/classvanetza_1_1security_1_1openssl_1_1BigNumberContext.html" target="_top" xlink:title=" ">
<polygon fill="white" stroke="black" points="107,-147.5 107,-177.5 247,-177.5 247,-147.5 107,-147.5"/>
<text text-anchor="start" x="115" y="-165.5" font-family="Helvetica,sans-Serif" font-size="10.00">vanetza::security::</text>
<text text-anchor="middle" x="177" y="-154.5" font-family="Helvetica,sans-Serif" font-size="10.00">openssl::BigNumberContext</text>
</a>
</g>
</g>
<!-- Node155&#45;&gt;Node157 -->
<g id="edge2" class="edge">
<title>Node155&#45;&gt;Node157</title>
<path fill="none" stroke="#8b1a1a" d="M72.95,-126.47C83.89,-130.35 95.93,-134.61 107,-138.5 115.26,-141.4 124.08,-144.48 132.55,-147.43"/>
<polygon fill="#8b1a1a" stroke="#8b1a1a" points="73.86,-123.08 63.27,-123.04 71.52,-129.68 73.86,-123.08"/>
</g>
<!-- Node158 -->
<g id="node4" class="node">
<title>Node158</title>
<g id="a_node4"><a xlink:href="d0/dd1/classvanetza_1_1security_1_1openssl_1_1Group.html" target="_top" xlink:title=" ">
<polygon fill="white" stroke="black" points="129,-98.5 129,-128.5 225,-128.5 225,-98.5 129,-98.5"/>
<text text-anchor="start" x="137" y="-116.5" font-family="Helvetica,sans-Serif" font-size="10.00">vanetza::security::</text>
<text text-anchor="middle" x="177" y="-105.5" font-family="Helvetica,sans-Serif" font-size="10.00">openssl::Group</text>
</a>
</g>
</g>
<!-- Node155&#45;&gt;Node158 -->
<g id="edge3" class="edge">
<title>Node155&#45;&gt;Node158</title>
<path fill="none" stroke="#8b1a1a" d="M81.52,-113.5C96.69,-113.5 113.66,-113.5 128.98,-113.5"/>
<polygon fill="#8b1a1a" stroke="#8b1a1a" points="81.34,-110 71.34,-113.5 81.34,-117 81.34,-110"/>
</g>
<!-- Node159 -->
<g id="node5" class="node">
<title>Node159</title>
<g id="a_node5"><a xlink:href="d2/d5b/classvanetza_1_1security_1_1openssl_1_1Point.html" target="_top" xlink:title=" ">
<polygon fill="white" stroke="black" points="129,-49.5 129,-79.5 225,-79.5 225,-49.5 129,-49.5"/>
<text text-anchor="start" x="137" y="-67.5" font-family="Helvetica,sans-Serif" font-size="10.00">vanetza::security::</text>
<text text-anchor="middle" x="177" y="-56.5" font-family="Helvetica,sans-Serif" font-size="10.00">openssl::Point</text>
</a>
</g>
</g>
<!-- Node155&#45;&gt;Node159 -->
<g id="edge4" class="edge">
<title>Node155&#45;&gt;Node159</title>
<path fill="none" stroke="#8b1a1a" d="M73.22,-100.6C91.62,-94.14 114.01,-86.27 133.19,-79.54"/>
<polygon fill="#8b1a1a" stroke="#8b1a1a" points="72,-97.32 63.73,-103.94 74.32,-103.92 72,-97.32"/>
</g>
<!-- Node160 -->
<g id="node6" class="node">
<title>Node160</title>
<g id="a_node6"><a xlink:href="d2/def/classvanetza_1_1security_1_1openssl_1_1Signature.html" target="_top" xlink:title=" ">
<polygon fill="white" stroke="black" points="128,-0.5 128,-30.5 226,-30.5 226,-0.5 128,-0.5"/>
<text text-anchor="start" x="136" y="-18.5" font-family="Helvetica,sans-Serif" font-size="10.00">vanetza::security::</text>
<text text-anchor="middle" x="177" y="-7.5" font-family="Helvetica,sans-Serif" font-size="10.00">openssl::Signature</text>
</a>
</g>
</g>
<!-- Node155&#45;&gt;Node160 -->
<g id="edge5" class="edge">
<title>Node155&#45;&gt;Node160</title>
<path fill="none" stroke="#8b1a1a" d="M50,-95.39C63.01,-79.06 84.05,-55.38 107,-40.5 113.41,-36.34 120.61,-32.76 127.87,-29.71"/>
<polygon fill="#8b1a1a" stroke="#8b1a1a" points="46.99,-93.56 43.64,-103.61 52.53,-97.85 46.99,-93.56"/>
</g>
</g>
</svg>
