<?xml version="1.0" encoding="UTF-8" standalone="no"?>
<!DOCTYPE svg PUBLIC "-//W3C//DTD SVG 1.1//EN"
 "http://www.w3.org/Graphics/SVG/1.1/DTD/svg11.dtd">
<!-- Generated by graphviz version 2.49.3 (0)
 -->
<!-- Title: Graphical Class Hierarchy Pages: 1 -->
<svg width="307pt" height="264pt"
 viewBox="0.00 0.00 307.00 263.50" xmlns="http://www.w3.org/2000/svg" xmlns:xlink="http://www.w3.org/1999/xlink">
<g id="graph0" class="graph" transform="scale(1 1) rotate(0) translate(4 259.5)">
<title>Graphical Class Hierarchy</title>
<!-- Node0 -->
<g id="node1" class="node">
<title>Node0</title>
<g id="a_node1"><a xlink:href="d4/dce/structvanetza_1_1convertible_1_1byte__buffer.html" target="_top" xlink:title=" ">
<polygon fill="white" stroke="#666666" points="104,-153.5 0,-153.5 0,-123.5 104,-123.5 104,-153.5"/>
<text text-anchor="start" x="8" y="-141.5" font-family="Helvetica,sans-Serif" font-size="10.00">vanetza::convertible</text>
<text text-anchor="middle" x="52" y="-130.5" font-family="Helvetica,sans-Serif" font-size="10.00">::byte_buffer</text>
</a>
</g>
</g>
<!-- Node1 -->
<g id="node2" class="node">
<title>Node1</title>
<g id="a_node2"><a xlink:href="d7/deb/structvanetza_1_1convertible_1_1byte__buffer__impl.html" target="_top" xlink:title=" ">
<polygon fill="white" stroke="#666666" points="279,-255.5 160,-255.5 160,-225.5 279,-225.5 279,-255.5"/>
<text text-anchor="start" x="168" y="-243.5" font-family="Helvetica,sans-Serif" font-size="10.00">vanetza::convertible</text>
<text text-anchor="middle" x="219.5" y="-232.5" font-family="Helvetica,sans-Serif" font-size="10.00">::byte_buffer_impl&lt; T &gt;</text>
</a>
</g>
</g>
<!-- Node0&#45;&gt;Node1 -->
<g id="edge1" class="edge">
<title>Node0&#45;&gt;Node1</title>
<path fill="none" stroke="#63b8ff" d="M72.91,-161.07C89.35,-178.44 114.11,-201.89 140,-216.5 146.21,-220 152.98,-223.05 159.87,-225.69"/>
<polygon fill="#63b8ff" stroke="#63b8ff" points="75.33,-158.53 65.97,-153.56 70.19,-163.28 75.33,-158.53"/>
</g>
<!-- Node2 -->
<g id="node3" class="node">
<title>Node2</title>
<g id="a_node3"><a xlink:href="d9/d3a/structvanetza_1_1convertible_1_1byte__buffer__impl_3_01ByteBuffer_01_4.html" target="_top" xlink:title=" ">
<polygon fill="white" stroke="#666666" points="299,-207.5 140,-207.5 140,-177.5 299,-177.5 299,-207.5"/>
<text text-anchor="start" x="148" y="-195.5" font-family="Helvetica,sans-Serif" font-size="10.00">vanetza::convertible</text>
<text text-anchor="middle" x="219.5" y="-184.5" font-family="Helvetica,sans-Serif" font-size="10.00">::byte_buffer_impl&lt; ByteBuffer &gt;</text>
</a>
</g>
</g>
<!-- Node0&#45;&gt;Node2 -->
<g id="edge2" class="edge">
<title>Node0&#45;&gt;Node2</title>
<path fill="none" stroke="#63b8ff" d="M105.59,-156.97C116.91,-160.85 128.84,-164.87 140,-168.5 149.08,-171.45 158.78,-174.5 168.16,-177.4"/>
<polygon fill="#63b8ff" stroke="#63b8ff" points="106.42,-153.55 95.82,-153.6 104.14,-160.17 106.42,-153.55"/>
</g>
<!-- Node3 -->
<g id="node4" class="node">
<title>Node3</title>
<g id="a_node4"><a xlink:href="d2/d99/structvanetza_1_1convertible_1_1byte__buffer__impl_3_01btp_1_1HeaderA_01_4.html" target="_top" xlink:title=" ">
<polygon fill="white" stroke="#666666" points="278,-159 161,-159 161,-118 278,-118 278,-159"/>
<text text-anchor="start" x="169" y="-147" font-family="Helvetica,sans-Serif" font-size="10.00">vanetza::convertible</text>
<text text-anchor="start" x="169" y="-136" font-family="Helvetica,sans-Serif" font-size="10.00">::byte_buffer_impl&lt; btp</text>
<text text-anchor="middle" x="219.5" y="-125" font-family="Helvetica,sans-Serif" font-size="10.00">::HeaderA &gt;</text>
</a>
</g>
</g>
<!-- Node0&#45;&gt;Node3 -->
<g id="edge3" class="edge">
<title>Node0&#45;&gt;Node3</title>
<path fill="none" stroke="#63b8ff" d="M114.32,-138.5C129.5,-138.5 145.72,-138.5 160.72,-138.5"/>
<polygon fill="#63b8ff" stroke="#63b8ff" points="114.01,-135 104.01,-138.5 114.01,-142 114.01,-135"/>
</g>
<!-- Node4 -->
<g id="node5" class="node">
<title>Node4</title>
<g id="a_node5"><a xlink:href="d8/dda/structvanetza_1_1convertible_1_1byte__buffer__impl_3_01btp_1_1HeaderB_01_4.html" target="_top" xlink:title=" ">
<polygon fill="white" stroke="#666666" points="278,-100 161,-100 161,-59 278,-59 278,-100"/>
<text text-anchor="start" x="169" y="-88" font-family="Helvetica,sans-Serif" font-size="10.00">vanetza::convertible</text>
<text text-anchor="start" x="169" y="-77" font-family="Helvetica,sans-Serif" font-size="10.00">::byte_buffer_impl&lt; btp</text>
<text text-anchor="middle" x="219.5" y="-66" font-family="Helvetica,sans-Serif" font-size="10.00">::HeaderB &gt;</text>
</a>
</g>
</g>
<!-- Node0&#45;&gt;Node4 -->
<g id="edge4" class="edge">
<title>Node0&#45;&gt;Node4</title>
<path fill="none" stroke="#63b8ff" d="M104.81,-120.03C122.58,-113.7 142.57,-106.57 160.78,-100.08"/>
<polygon fill="#63b8ff" stroke="#63b8ff" points="103.43,-116.8 95.19,-123.46 105.79,-123.4 103.43,-116.8"/>
</g>
<!-- Node5 -->
<g id="node6" class="node">
<title>Node5</title>
<g id="a_node6"><a xlink:href="da/dac/structvanetza_1_1convertible_1_1byte__buffer__impl_3_01geonet_1_1SecuredPdu_01_4.html" target="_top" xlink:title=" ">
<polygon fill="white" stroke="#666666" points="286,-41 153,-41 153,0 286,0 286,-41"/>
<text text-anchor="start" x="161" y="-29" font-family="Helvetica,sans-Serif" font-size="10.00">vanetza::convertible</text>
<text text-anchor="start" x="161" y="-18" font-family="Helvetica,sans-Serif" font-size="10.00">::byte_buffer_impl&lt; geonet</text>
<text text-anchor="middle" x="219.5" y="-7" font-family="Helvetica,sans-Serif" font-size="10.00">::SecuredPdu &gt;</text>
</a>
</g>
</g>
<!-- Node0&#45;&gt;Node5 -->
<g id="edge5" class="edge">
<title>Node0&#45;&gt;Node5</title>
<path fill="none" stroke="#63b8ff" d="M70.79,-115.66C87.02,-96.11 112.61,-68.37 140,-50.5 145.25,-47.07 150.96,-43.95 156.81,-41.13"/>
<polygon fill="#63b8ff" stroke="#63b8ff" points="68.02,-113.52 64.42,-123.48 73.45,-117.94 68.02,-113.52"/>
</g>
</g>
</svg>
