<?xml version="1.0" encoding="UTF-8" standalone="no"?>
<!DOCTYPE svg PUBLIC "-//W3C//DTD SVG 1.1//EN"
 "http://www.w3.org/Graphics/SVG/1.1/DTD/svg11.dtd">
<!-- Generated by graphviz version 14.1.2 (0)
 -->
<!-- Title: Graphical Class Hierarchy Pages: 1 -->
<svg width="308pt" height="250pt"
 viewBox="0.00 0.00 308.00 250.00" xmlns="http://www.w3.org/2000/svg" xmlns:xlink="http://www.w3.org/1999/xlink">
<g id="graph0" class="graph" transform="scale(1 1) rotate(0) translate(4 245.5)">
<title>Graphical Class Hierarchy</title>
<!-- Node0 -->
<g id="Node000000" class="node">
<title>Node0</title>
<g id="a_Node000000"><a xlink:title=" ">
<polygon fill="#e0e0e0" stroke="#999999" points="111.25,-131.12 0,-131.12 0,-110.38 111.25,-110.38 111.25,-131.12"/>
<text xml:space="preserve" text-anchor="middle" x="55.62" y="-117.62" font-family="Helvetica,sans-Serif" font-size="10.00">boost::noncopyable</text>
</a>
</g>
</g>
<!-- Node1 -->
<g id="Node000001" class="node">
<title>Node1</title>
<g id="a_Node000001"><a xlink:href="d1/d9d/classvanetza_1_1security_1_1openssl_1_1BigNumber.html" target="_top" xlink:title=" ">
<polygon fill="white" stroke="#666666" points="280.62,-241.5 166.38,-241.5 166.38,-208 280.62,-208 280.62,-241.5"/>
<text xml:space="preserve" text-anchor="start" x="174.38" y="-228" font-family="Helvetica,sans-Serif" font-size="10.00">vanetza::security::</text>
<text xml:space="preserve" text-anchor="middle" x="223.5" y="-215.25" font-family="Helvetica,sans-Serif" font-size="10.00">openssl::BigNumber</text>
</a>
</g>
</g>
<!-- Node0&#45;&gt;Node1 -->
<g id="edge16_Node000000_Node000001" class="edge">
<title>Node0&#45;&gt;Node1</title>
<g id="a_edge16_Node000000_Node000001"><a xlink:title=" ">
<path fill="none" stroke="#8b1a1a" d="M74.04,-139.35C91.22,-156.76 118.95,-182.48 147.25,-198.75 153.12,-202.13 159.5,-205.16 165.98,-207.86"/>
<polygon fill="#8b1a1a" stroke="#8b1a1a" points="77.01,-137.39 67.55,-132.63 71.98,-142.25 77.01,-137.39"/>
</a>
</g>
</g>
<!-- Node2 -->
<g id="Node000002" class="node">
<title>Node2</title>
<g id="a_Node000002"><a xlink:href="d3/d61/classvanetza_1_1security_1_1openssl_1_1BigNumberContext.html" target="_top" xlink:title=" ">
<polygon fill="white" stroke="#666666" points="299.75,-189.5 147.25,-189.5 147.25,-156 299.75,-156 299.75,-189.5"/>
<text xml:space="preserve" text-anchor="start" x="155.25" y="-176" font-family="Helvetica,sans-Serif" font-size="10.00">vanetza::security::</text>
<text xml:space="preserve" text-anchor="middle" x="223.5" y="-163.25" font-family="Helvetica,sans-Serif" font-size="10.00">openssl::BigNumberContext</text>
</a>
</g>
</g>
<!-- Node0&#45;&gt;Node2 -->
<g id="edge17_Node000000_Node000002" class="edge">
<title>Node0&#45;&gt;Node2</title>
<g id="a_edge17_Node000000_Node000002"><a xlink:title=" ">
<path fill="none" stroke="#8b1a1a" d="M101.84,-134.92C122.14,-141.29 146.28,-148.85 167.61,-155.54"/>
<polygon fill="#8b1a1a" stroke="#8b1a1a" points="103.03,-131.63 92.44,-131.98 100.93,-138.31 103.03,-131.63"/>
</a>
</g>
</g>
<!-- Node3 -->
<g id="Node000003" class="node">
<title>Node3</title>
<g id="a_Node000003"><a xlink:href="d0/dd1/classvanetza_1_1security_1_1openssl_1_1Group.html" target="_top" xlink:title=" ">
<polygon fill="white" stroke="#666666" points="276.12,-137.5 170.88,-137.5 170.88,-104 276.12,-104 276.12,-137.5"/>
<text xml:space="preserve" text-anchor="start" x="178.88" y="-124" font-family="Helvetica,sans-Serif" font-size="10.00">vanetza::security::</text>
<text xml:space="preserve" text-anchor="middle" x="223.5" y="-111.25" font-family="Helvetica,sans-Serif" font-size="10.00">openssl::Group</text>
</a>
</g>
</g>
<!-- Node0&#45;&gt;Node3 -->
<g id="edge18_Node000000_Node000003" class="edge">
<title>Node0&#45;&gt;Node3</title>
<g id="a_edge18_Node000000_Node000003"><a xlink:title=" ">
<path fill="none" stroke="#8b1a1a" d="M122.79,-120.75C138.69,-120.75 155.45,-120.75 170.6,-120.75"/>
<polygon fill="#8b1a1a" stroke="#8b1a1a" points="122.91,-117.25 112.91,-120.75 122.91,-124.25 122.91,-117.25"/>
</a>
</g>
</g>
<!-- Node4 -->
<g id="Node000004" class="node">
<title>Node4</title>
<g id="a_Node000004"><a xlink:href="d2/d5b/classvanetza_1_1security_1_1openssl_1_1Point.html" target="_top" xlink:title=" ">
<polygon fill="white" stroke="#666666" points="276.12,-85.5 170.88,-85.5 170.88,-52 276.12,-52 276.12,-85.5"/>
<text xml:space="preserve" text-anchor="start" x="178.88" y="-72" font-family="Helvetica,sans-Serif" font-size="10.00">vanetza::security::</text>
<text xml:space="preserve" text-anchor="middle" x="223.5" y="-59.25" font-family="Helvetica,sans-Serif" font-size="10.00">openssl::Point</text>
</a>
</g>
</g>
<!-- Node0&#45;&gt;Node4 -->
<g id="edge19_Node000000_Node000004" class="edge">
<title>Node0&#45;&gt;Node4</title>
<g id="a_edge19_Node000000_Node000004"><a xlink:title=" ">
<path fill="none" stroke="#8b1a1a" d="M101.98,-106.53C123.18,-99.88 148.54,-91.93 170.52,-85.05"/>
<polygon fill="#8b1a1a" stroke="#8b1a1a" points="100.93,-103.19 92.44,-109.52 103.03,-109.87 100.93,-103.19"/>
</a>
</g>
</g>
<!-- Node5 -->
<g id="Node000005" class="node">
<title>Node5</title>
<g id="a_Node000005"><a xlink:href="d2/def/classvanetza_1_1security_1_1openssl_1_1Signature.html" target="_top" xlink:title=" ">
<polygon fill="white" stroke="#666666" points="276.5,-33.5 170.5,-33.5 170.5,0 276.5,0 276.5,-33.5"/>
<text xml:space="preserve" text-anchor="start" x="178.5" y="-20" font-family="Helvetica,sans-Serif" font-size="10.00">vanetza::security::</text>
<text xml:space="preserve" text-anchor="middle" x="223.5" y="-7.25" font-family="Helvetica,sans-Serif" font-size="10.00">openssl::Signature</text>
</a>
</g>
</g>
<!-- Node0&#45;&gt;Node5 -->
<g id="edge20_Node000000_Node000005" class="edge">
<title>Node0&#45;&gt;Node5</title>
<g id="a_edge20_Node000000_Node000005"><a xlink:title=" ">
<path fill="none" stroke="#8b1a1a" d="M74.04,-102.15C91.22,-84.74 118.95,-59.02 147.25,-42.75 154.44,-38.62 162.39,-34.99 170.36,-31.87"/>
<polygon fill="#8b1a1a" stroke="#8b1a1a" points="71.98,-99.25 67.55,-108.87 77.01,-104.11 71.98,-99.25"/>
</a>
</g>
</g>
</g>
</svg>
