<?xml version="1.0" encoding="UTF-8" standalone="no"?>
<!DOCTYPE svg PUBLIC "-//W3C//DTD SVG 1.1//EN"
 "http://www.w3.org/Graphics/SVG/1.1/DTD/svg11.dtd">
<!-- Generated by graphviz version 2.49.3 (0)
 -->
<!-- Title: Graphical Class Hierarchy Pages: 1 -->
<svg width="284pt" height="235pt"
 viewBox="0.00 0.00 284.00 235.00" xmlns="http://www.w3.org/2000/svg" xmlns:xlink="http://www.w3.org/1999/xlink">
<g id="graph0" class="graph" transform="scale(1 1) rotate(0) translate(4 231)">
<title>Graphical Class Hierarchy</title>
<polygon fill="white" stroke="transparent" points="-4,4 -4,-231 280,-231 280,4 -4,4"/>
<!-- Node0 -->
<g id="node1" class="node">
<title>Node0</title>
<g id="a_node1"><a xlink:title=" ">
<polygon fill="white" stroke="#bfbfbf" points="0,-104 0,-123 100,-123 100,-104 0,-104"/>
<text text-anchor="middle" x="50" y="-111" font-family="Helvetica,sans-Serif" font-size="10.00">boost::noncopyable</text>
</a>
</g>
</g>
<!-- Node1 -->
<g id="node2" class="node">
<title>Node1</title>
<g id="a_node2"><a xlink:href="d1/d9d/classvanetza_1_1security_1_1openssl_1_1BigNumber.html" target="_top" xlink:title=" ">
<polygon fill="white" stroke="black" points="153.5,-196.5 153.5,-226.5 258.5,-226.5 258.5,-196.5 153.5,-196.5"/>
<text text-anchor="start" x="161.5" y="-214.5" font-family="Helvetica,sans-Serif" font-size="10.00">vanetza::security::</text>
<text text-anchor="middle" x="206" y="-203.5" font-family="Helvetica,sans-Serif" font-size="10.00">openssl::BigNumber</text>
</a>
</g>
</g>
<!-- Node0&#45;&gt;Node1 -->
<g id="edge1" class="edge">
<title>Node0&#45;&gt;Node1</title>
<path fill="none" stroke="#8b1a1a" d="M67.04,-130.87C83.11,-147.4 109.24,-171.98 136,-187.5 141.71,-190.81 147.94,-193.76 154.25,-196.37"/>
<polygon fill="#8b1a1a" stroke="#8b1a1a" points="69.43,-128.31 60,-123.48 64.36,-133.14 69.43,-128.31"/>
</g>
<!-- Node2 -->
<g id="node3" class="node">
<title>Node2</title>
<g id="a_node3"><a xlink:href="d3/d61/classvanetza_1_1security_1_1openssl_1_1BigNumberContext.html" target="_top" xlink:title=" ">
<polygon fill="white" stroke="black" points="136,-147.5 136,-177.5 276,-177.5 276,-147.5 136,-147.5"/>
<text text-anchor="start" x="144" y="-165.5" font-family="Helvetica,sans-Serif" font-size="10.00">vanetza::security::</text>
<text text-anchor="middle" x="206" y="-154.5" font-family="Helvetica,sans-Serif" font-size="10.00">openssl::BigNumberContext</text>
</a>
</g>
</g>
<!-- Node0&#45;&gt;Node2 -->
<g id="edge2" class="edge">
<title>Node0&#45;&gt;Node2</title>
<path fill="none" stroke="#8b1a1a" d="M90.7,-126.13C111.17,-132.64 136.28,-140.63 157.74,-147.46"/>
<polygon fill="#8b1a1a" stroke="#8b1a1a" points="91.65,-122.76 81.06,-123.06 89.53,-129.43 91.65,-122.76"/>
</g>
<!-- Node3 -->
<g id="node4" class="node">
<title>Node3</title>
<g id="a_node4"><a xlink:href="d0/dd1/classvanetza_1_1security_1_1openssl_1_1Group.html" target="_top" xlink:title=" ">
<polygon fill="white" stroke="black" points="158,-98.5 158,-128.5 254,-128.5 254,-98.5 158,-98.5"/>
<text text-anchor="start" x="166" y="-116.5" font-family="Helvetica,sans-Serif" font-size="10.00">vanetza::security::</text>
<text text-anchor="middle" x="206" y="-105.5" font-family="Helvetica,sans-Serif" font-size="10.00">openssl::Group</text>
</a>
</g>
</g>
<!-- Node0&#45;&gt;Node3 -->
<g id="edge3" class="edge">
<title>Node0&#45;&gt;Node3</title>
<path fill="none" stroke="#8b1a1a" d="M110.32,-113.5C126.08,-113.5 142.88,-113.5 157.89,-113.5"/>
<polygon fill="#8b1a1a" stroke="#8b1a1a" points="110.15,-110 100.15,-113.5 110.15,-117 110.15,-110"/>
</g>
<!-- Node4 -->
<g id="node5" class="node">
<title>Node4</title>
<g id="a_node5"><a xlink:href="d2/d5b/classvanetza_1_1security_1_1openssl_1_1Point.html" target="_top" xlink:title=" ">
<polygon fill="white" stroke="black" points="158,-49.5 158,-79.5 254,-79.5 254,-49.5 158,-49.5"/>
<text text-anchor="start" x="166" y="-67.5" font-family="Helvetica,sans-Serif" font-size="10.00">vanetza::security::</text>
<text text-anchor="middle" x="206" y="-56.5" font-family="Helvetica,sans-Serif" font-size="10.00">openssl::Point</text>
</a>
</g>
</g>
<!-- Node0&#45;&gt;Node4 -->
<g id="edge4" class="edge">
<title>Node0&#45;&gt;Node4</title>
<path fill="none" stroke="#8b1a1a" d="M90.7,-100.87C111.17,-94.36 136.28,-86.37 157.74,-79.54"/>
<polygon fill="#8b1a1a" stroke="#8b1a1a" points="89.53,-97.57 81.06,-103.94 91.65,-104.24 89.53,-97.57"/>
</g>
<!-- Node5 -->
<g id="node6" class="node">
<title>Node5</title>
<g id="a_node6"><a xlink:href="d2/def/classvanetza_1_1security_1_1openssl_1_1Signature.html" target="_top" xlink:title=" ">
<polygon fill="white" stroke="black" points="157,-0.5 157,-30.5 255,-30.5 255,-0.5 157,-0.5"/>
<text text-anchor="start" x="165" y="-18.5" font-family="Helvetica,sans-Serif" font-size="10.00">vanetza::security::</text>
<text text-anchor="middle" x="206" y="-7.5" font-family="Helvetica,sans-Serif" font-size="10.00">openssl::Signature</text>
</a>
</g>
</g>
<!-- Node0&#45;&gt;Node5 -->
<g id="edge5" class="edge">
<title>Node0&#45;&gt;Node5</title>
<path fill="none" stroke="#8b1a1a" d="M67.13,-96.45C83.26,-80.21 109.44,-56.01 136,-40.5 142.49,-36.71 149.66,-33.34 156.84,-30.39"/>
<polygon fill="#8b1a1a" stroke="#8b1a1a" points="64.53,-94.1 60.05,-103.71 69.54,-98.99 64.53,-94.1"/>
</g>
</g>
</svg>
