<?xml version="1.0" encoding="UTF-8" standalone="no"?>
<!DOCTYPE svg PUBLIC "-//W3C//DTD SVG 1.1//EN"
 "http://www.w3.org/Graphics/SVG/1.1/DTD/svg11.dtd">
<!-- Generated by graphviz version 2.42.1 (0)
 -->
<!-- Title: Graphical Class Hierarchy Pages: 1 -->
<svg width="484pt" height="186pt"
 viewBox="0.00 0.00 484.00 186.00" xmlns="http://www.w3.org/2000/svg" xmlns:xlink="http://www.w3.org/1999/xlink">
<g id="graph0" class="graph" transform="scale(1 1) rotate(0) translate(4 182)">
<title>Graphical Class Hierarchy</title>
<polygon fill="white" stroke="transparent" points="-4,4 -4,-182 480,-182 480,4 -4,4"/>
<!-- Node0 -->
<g id="node1" class="node">
<title>Node0</title>
<g id="a_node1"><a xlink:href="d0/db4/classvanetza_1_1geonet_1_1IndicationContext.html" target="_top" xlink:title=" ">
<polygon fill="white" stroke="black" points="0,-73.5 0,-103.5 134,-103.5 134,-73.5 0,-73.5"/>
<text text-anchor="start" x="8" y="-91.5" font-family="Helvetica,sans-Serif" font-size="10.00">vanetza::geonet::Indication</text>
<text text-anchor="middle" x="67" y="-80.5" font-family="Helvetica,sans-Serif" font-size="10.00">Context</text>
</a>
</g>
</g>
<!-- Node1 -->
<g id="node2" class="node">
<title>Node1</title>
<g id="a_node2"><a xlink:href="d6/d4a/classvanetza_1_1geonet_1_1IndicationContextBasic.html" target="_top" xlink:title=" ">
<polygon fill="white" stroke="black" points="170,-98.5 170,-128.5 304,-128.5 304,-98.5 170,-98.5"/>
<text text-anchor="start" x="178" y="-116.5" font-family="Helvetica,sans-Serif" font-size="10.00">vanetza::geonet::Indication</text>
<text text-anchor="middle" x="237" y="-105.5" font-family="Helvetica,sans-Serif" font-size="10.00">ContextBasic</text>
</a>
</g>
</g>
<!-- Node0&#45;&gt;Node1 -->
<g id="edge1" class="edge">
<title>Node0&#45;&gt;Node1</title>
<path fill="none" stroke="midnightblue" d="M144.32,-99.86C152.83,-101.12 161.44,-102.4 169.81,-103.65"/>
<polygon fill="midnightblue" stroke="midnightblue" points="144.8,-96.39 134.4,-98.38 143.77,-103.31 144.8,-96.39"/>
</g>
<!-- Node4 -->
<g id="node5" class="node">
<title>Node4</title>
<g id="a_node5"><a xlink:href="db/d97/classvanetza_1_1geonet_1_1IndicationContextSecured.html" target="_top" xlink:title=" ">
<polygon fill="white" stroke="black" points="170,-49.5 170,-79.5 304,-79.5 304,-49.5 170,-49.5"/>
<text text-anchor="start" x="178" y="-67.5" font-family="Helvetica,sans-Serif" font-size="10.00">vanetza::geonet::Indication</text>
<text text-anchor="middle" x="237" y="-56.5" font-family="Helvetica,sans-Serif" font-size="10.00">ContextSecured</text>
</a>
</g>
</g>
<!-- Node0&#45;&gt;Node4 -->
<g id="edge4" class="edge">
<title>Node0&#45;&gt;Node4</title>
<path fill="none" stroke="midnightblue" d="M144.32,-77.6C152.83,-76.38 161.44,-75.15 169.81,-73.96"/>
<polygon fill="midnightblue" stroke="midnightblue" points="143.8,-74.14 134.4,-79.01 144.79,-81.07 143.8,-74.14"/>
</g>
<!-- Node2 -->
<g id="node3" class="node">
<title>Node2</title>
<g id="a_node3"><a xlink:href="dc/dad/classvanetza_1_1geonet_1_1IndicationContextCast.html" target="_top" xlink:title=" ">
<polygon fill="white" stroke="black" points="341,-147.5 341,-177.5 475,-177.5 475,-147.5 341,-147.5"/>
<text text-anchor="start" x="349" y="-165.5" font-family="Helvetica,sans-Serif" font-size="10.00">vanetza::geonet::Indication</text>
<text text-anchor="middle" x="408" y="-154.5" font-family="Helvetica,sans-Serif" font-size="10.00">ContextCast</text>
</a>
</g>
</g>
<!-- Node1&#45;&gt;Node2 -->
<g id="edge2" class="edge">
<title>Node1&#45;&gt;Node2</title>
<path fill="none" stroke="midnightblue" d="M299.72,-131.39C317.89,-136.66 337.59,-142.38 355.09,-147.45"/>
<polygon fill="midnightblue" stroke="midnightblue" points="300.66,-128.02 290.08,-128.6 298.71,-134.75 300.66,-128.02"/>
</g>
<!-- Node3 -->
<g id="node4" class="node">
<title>Node3</title>
<g id="a_node4"><a xlink:href="dd/d8e/classvanetza_1_1geonet_1_1IndicationContextDeserialize.html" target="_top" xlink:title=" ">
<polygon fill="white" stroke="black" points="341,-98.5 341,-128.5 475,-128.5 475,-98.5 341,-98.5"/>
<text text-anchor="start" x="349" y="-116.5" font-family="Helvetica,sans-Serif" font-size="10.00">vanetza::geonet::Indication</text>
<text text-anchor="middle" x="408" y="-105.5" font-family="Helvetica,sans-Serif" font-size="10.00">ContextDeserialize</text>
</a>
</g>
</g>
<!-- Node1&#45;&gt;Node3 -->
<g id="edge3" class="edge">
<title>Node1&#45;&gt;Node3</title>
<path fill="none" stroke="midnightblue" d="M314.55,-113.5C323.34,-113.5 332.25,-113.5 340.88,-113.5"/>
<polygon fill="midnightblue" stroke="midnightblue" points="314.31,-110 304.31,-113.5 314.31,-117 314.31,-110"/>
</g>
<!-- Node5 -->
<g id="node6" class="node">
<title>Node5</title>
<g id="a_node6"><a xlink:href="db/d0c/classvanetza_1_1geonet_1_1IndicationContextSecuredCast.html" target="_top" xlink:title=" ">
<polygon fill="white" stroke="black" points="341,-49.5 341,-79.5 475,-79.5 475,-49.5 341,-49.5"/>
<text text-anchor="start" x="349" y="-67.5" font-family="Helvetica,sans-Serif" font-size="10.00">vanetza::geonet::Indication</text>
<text text-anchor="middle" x="408" y="-56.5" font-family="Helvetica,sans-Serif" font-size="10.00">ContextSecuredCast</text>
</a>
</g>
</g>
<!-- Node4&#45;&gt;Node5 -->
<g id="edge5" class="edge">
<title>Node4&#45;&gt;Node5</title>
<path fill="none" stroke="midnightblue" d="M314.55,-64.5C323.34,-64.5 332.25,-64.5 340.88,-64.5"/>
<polygon fill="midnightblue" stroke="midnightblue" points="314.31,-61 304.31,-64.5 314.31,-68 314.31,-61"/>
</g>
<!-- Node6 -->
<g id="node7" class="node">
<title>Node6</title>
<g id="a_node7"><a xlink:href="d4/d6d/classvanetza_1_1geonet_1_1IndicationContextSecuredDeserialize.html" target="_top" xlink:title=" ">
<polygon fill="white" stroke="black" points="340,-0.5 340,-30.5 476,-30.5 476,-0.5 340,-0.5"/>
<text text-anchor="start" x="348" y="-18.5" font-family="Helvetica,sans-Serif" font-size="10.00">vanetza::geonet::Indication</text>
<text text-anchor="middle" x="408" y="-7.5" font-family="Helvetica,sans-Serif" font-size="10.00">ContextSecuredDeserialize</text>
</a>
</g>
</g>
<!-- Node4&#45;&gt;Node6 -->
<g id="edge6" class="edge">
<title>Node4&#45;&gt;Node6</title>
<path fill="none" stroke="midnightblue" d="M299.72,-46.61C317.89,-41.34 337.59,-35.62 355.09,-30.55"/>
<polygon fill="midnightblue" stroke="midnightblue" points="298.71,-43.25 290.08,-49.4 300.66,-49.98 298.71,-43.25"/>
</g>
</g>
</svg>
