<?xml version="1.0" encoding="UTF-8" standalone="no"?>
<!DOCTYPE svg PUBLIC "-//W3C//DTD SVG 1.1//EN"
 "http://www.w3.org/Graphics/SVG/1.1/DTD/svg11.dtd">
<!-- Generated by graphviz version 2.49.3 (0)
 -->
<!-- Title: Graphical Class Hierarchy Pages: 1 -->
<svg width="465pt" height="380pt"
 viewBox="0.00 0.00 465.00 380.00" xmlns="http://www.w3.org/2000/svg" xmlns:xlink="http://www.w3.org/1999/xlink">
<g id="graph0" class="graph" transform="scale(1 1) rotate(0) translate(4 376)">
<title>Graphical Class Hierarchy</title>
<!-- Node0 -->
<g id="node1" class="node">
<title>Node0</title>
<g id="a_node1"><a xlink:title=" ">
<polygon fill="#e0e0e0" stroke="#999999" points="94.5,-366.5 15.5,-366.5 15.5,-347.5 94.5,-347.5 94.5,-366.5"/>
<text text-anchor="middle" x="55" y="-354.5" font-family="Helvetica,sans-Serif" font-size="10.00">boost::additive</text>
</a>
</g>
</g>
<!-- Node1 -->
<g id="node2" class="node">
<title>Node1</title>
<g id="a_node2"><a xlink:href="de/d8f/classvanetza_1_1geonet_1_1SequenceNumber.html" target="_top" xlink:title=" ">
<polygon fill="white" stroke="#666666" points="283,-372 149,-372 149,-342 283,-342 283,-372"/>
<text text-anchor="start" x="157" y="-360" font-family="Helvetica,sans-Serif" font-size="10.00">vanetza::geonet::Sequence</text>
<text text-anchor="middle" x="216" y="-349" font-family="Helvetica,sans-Serif" font-size="10.00">Number</text>
</a>
</g>
</g>
<!-- Node0&#45;&gt;Node1 -->
<g id="edge1" class="edge">
<title>Node0&#45;&gt;Node1</title>
<path fill="none" stroke="#63b8ff" d="M105.16,-357C119,-357 134.28,-357 148.93,-357"/>
<polygon fill="#63b8ff" stroke="#63b8ff" points="104.9,-353.5 94.9,-357 104.9,-360.5 104.9,-353.5"/>
</g>
<!-- Node10 -->
<g id="node3" class="node">
<title>Node10</title>
<g id="a_node3"><a xlink:title=" ">
<polygon fill="#e0e0e0" stroke="#999999" points="99.5,-323.5 10.5,-323.5 10.5,-304.5 99.5,-304.5 99.5,-323.5"/>
<text text-anchor="middle" x="55" y="-311.5" font-family="Helvetica,sans-Serif" font-size="10.00">boost::arithmetic</text>
</a>
</g>
</g>
<!-- Node8 -->
<g id="node4" class="node">
<title>Node8</title>
<g id="a_node4"><a xlink:href="d4/d40/classvanetza_1_1UnitInterval.html" target="_top" xlink:title=" ">
<polygon fill="white" stroke="#666666" points="269.5,-323.5 162.5,-323.5 162.5,-304.5 269.5,-304.5 269.5,-323.5"/>
<text text-anchor="middle" x="216" y="-311.5" font-family="Helvetica,sans-Serif" font-size="10.00">vanetza::UnitInterval</text>
</a>
</g>
</g>
<!-- Node10&#45;&gt;Node8 -->
<g id="edge2" class="edge">
<title>Node10&#45;&gt;Node8</title>
<path fill="none" stroke="#8b1a1a" d="M110.1,-314C126.94,-314 145.48,-314 162.23,-314"/>
<polygon fill="#8b1a1a" stroke="#8b1a1a" points="109.87,-310.5 99.87,-314 109.87,-317.5 109.87,-310.5"/>
</g>
<!-- Node9 -->
<g id="node5" class="node">
<title>Node9</title>
<g id="a_node5"><a xlink:href="dc/d86/classvanetza_1_1dcc_1_1ChannelLoad.html" target="_top" xlink:title=" ">
<polygon fill="white" stroke="#666666" points="457,-323.5 322,-323.5 322,-304.5 457,-304.5 457,-323.5"/>
<text text-anchor="middle" x="389.5" y="-311.5" font-family="Helvetica,sans-Serif" font-size="10.00">vanetza::dcc::ChannelLoad</text>
</a>
</g>
</g>
<!-- Node8&#45;&gt;Node9 -->
<g id="edge3" class="edge">
<title>Node8&#45;&gt;Node9</title>
<path fill="none" stroke="#63b8ff" d="M280.08,-314C293.7,-314 308.13,-314 321.88,-314"/>
<polygon fill="#63b8ff" stroke="#63b8ff" points="279.86,-310.5 269.86,-314 279.86,-317.5 279.86,-310.5"/>
</g>
<!-- Node2 -->
<g id="node6" class="node">
<title>Node2</title>
<g id="a_node6"><a xlink:title=" ">
<polygon fill="#e0e0e0" stroke="#999999" points="110,-184.5 0,-184.5 0,-165.5 110,-165.5 110,-184.5"/>
<text text-anchor="middle" x="55" y="-172.5" font-family="Helvetica,sans-Serif" font-size="10.00">boost::totally_ordered</text>
</a>
</g>
</g>
<!-- Node2&#45;&gt;Node1 -->
<g id="edge11" class="edge">
<title>Node2&#45;&gt;Node1</title>
<path fill="none" stroke="#63b8ff" d="M62.15,-194.42C73.51,-227.3 100.84,-294.04 146,-332 150.58,-335.85 155.81,-339.13 161.29,-341.92"/>
<polygon fill="#63b8ff" stroke="#63b8ff" points="65.38,-193.05 58.9,-184.66 58.74,-195.25 65.38,-193.05"/>
</g>
<!-- Node2&#45;&gt;Node8 -->
<g id="edge9" class="edge">
<title>Node2&#45;&gt;Node8</title>
<path fill="none" stroke="#8b1a1a" d="M65.05,-193.86C78.79,-220.48 107.45,-268.74 146,-295 151.65,-298.85 158.05,-301.92 164.63,-304.37"/>
<polygon fill="#8b1a1a" stroke="#8b1a1a" points="68.12,-192.19 60.52,-184.81 61.86,-195.32 68.12,-192.19"/>
</g>
<!-- Node3 -->
<g id="node7" class="node">
<title>Node3</title>
<g id="a_node7"><a xlink:href="dd/dba/classvanetza_1_1BitNumber.html" target="_top" xlink:title=" ">
<polygon fill="white" stroke="#666666" points="267.5,-30 164.5,-30 164.5,0 267.5,0 267.5,-30"/>
<text text-anchor="start" x="172.5" y="-18" font-family="Helvetica,sans-Serif" font-size="10.00">vanetza::BitNumber</text>
<text text-anchor="middle" x="216" y="-7" font-family="Helvetica,sans-Serif" font-size="10.00">&lt; unsigned, 10 &gt;</text>
</a>
</g>
</g>
<!-- Node2&#45;&gt;Node3 -->
<g id="edge4" class="edge">
<title>Node2&#45;&gt;Node3</title>
<path fill="none" stroke="#63b8ff" d="M63.89,-155.68C76.81,-126.37 105.18,-70.71 146,-39 151.51,-34.72 157.84,-31.17 164.37,-28.24"/>
<polygon fill="#63b8ff" stroke="#63b8ff" points="60.53,-154.63 59.84,-165.2 66.97,-157.37 60.53,-154.63"/>
</g>
<!-- Node4 -->
<g id="node8" class="node">
<title>Node4</title>
<g id="a_node8"><a xlink:href="dd/dba/classvanetza_1_1BitNumber.html" target="_top" xlink:title=" ">
<polygon fill="white" stroke="#666666" points="267.5,-286 164.5,-286 164.5,-256 267.5,-256 267.5,-286"/>
<text text-anchor="start" x="172.5" y="-274" font-family="Helvetica,sans-Serif" font-size="10.00">vanetza::BitNumber</text>
<text text-anchor="middle" x="216" y="-263" font-family="Helvetica,sans-Serif" font-size="10.00">&lt; unsigned, 4 &gt;</text>
</a>
</g>
</g>
<!-- Node2&#45;&gt;Node4 -->
<g id="edge5" class="edge">
<title>Node2&#45;&gt;Node4</title>
<path fill="none" stroke="#63b8ff" d="M73.26,-191.82C90.49,-207.83 118.31,-231.7 146,-247 151.99,-250.31 158.53,-253.29 165.11,-255.94"/>
<polygon fill="#63b8ff" stroke="#63b8ff" points="75.37,-188.99 65.71,-184.66 70.56,-194.08 75.37,-188.99"/>
</g>
<!-- Node5 -->
<g id="node9" class="node">
<title>Node5</title>
<g id="a_node9"><a xlink:href="dd/dba/classvanetza_1_1BitNumber.html" target="_top" xlink:title=" ">
<polygon fill="white" stroke="#666666" points="267.5,-238 164.5,-238 164.5,-208 267.5,-208 267.5,-238"/>
<text text-anchor="start" x="172.5" y="-226" font-family="Helvetica,sans-Serif" font-size="10.00">vanetza::BitNumber</text>
<text text-anchor="middle" x="216" y="-215" font-family="Helvetica,sans-Serif" font-size="10.00">&lt; unsigned, 5 &gt;</text>
</a>
</g>
</g>
<!-- Node2&#45;&gt;Node5 -->
<g id="edge6" class="edge">
<title>Node2&#45;&gt;Node5</title>
<path fill="none" stroke="#63b8ff" d="M97.55,-187.54C118.23,-193.79 143.39,-201.38 165.1,-207.94"/>
<polygon fill="#63b8ff" stroke="#63b8ff" points="98.38,-184.14 87.79,-184.6 96.36,-190.84 98.38,-184.14"/>
</g>
<!-- Node6 -->
<g id="node10" class="node">
<title>Node6</title>
<g id="a_node10"><a xlink:href="dd/dba/classvanetza_1_1BitNumber.html" target="_top" xlink:title=" ">
<polygon fill="white" stroke="#666666" points="267.5,-190 164.5,-190 164.5,-160 267.5,-160 267.5,-190"/>
<text text-anchor="start" x="172.5" y="-178" font-family="Helvetica,sans-Serif" font-size="10.00">vanetza::BitNumber</text>
<text text-anchor="middle" x="216" y="-167" font-family="Helvetica,sans-Serif" font-size="10.00">&lt; T, WIDTH &gt;</text>
</a>
</g>
</g>
<!-- Node2&#45;&gt;Node6 -->
<g id="edge7" class="edge">
<title>Node2&#45;&gt;Node6</title>
<path fill="none" stroke="#63b8ff" d="M120.31,-175C135.01,-175 150.42,-175 164.45,-175"/>
<polygon fill="#63b8ff" stroke="#63b8ff" points="120.27,-171.5 110.27,-175 120.27,-178.5 120.27,-171.5"/>
</g>
<!-- Node7 -->
<g id="node11" class="node">
<title>Node7</title>
<g id="a_node11"><a xlink:href="db/da9/classvanetza_1_1MacAddress.html" target="_top" xlink:title=" ">
<polygon fill="white" stroke="#666666" points="271.5,-141.5 160.5,-141.5 160.5,-122.5 271.5,-122.5 271.5,-141.5"/>
<text text-anchor="middle" x="216" y="-129.5" font-family="Helvetica,sans-Serif" font-size="10.00">vanetza::MacAddress</text>
</a>
</g>
</g>
<!-- Node2&#45;&gt;Node7 -->
<g id="edge8" class="edge">
<title>Node2&#45;&gt;Node7</title>
<path fill="none" stroke="#63b8ff" d="M101.24,-162.76C126.18,-156.02 156.67,-147.77 179.81,-141.52"/>
<polygon fill="#63b8ff" stroke="#63b8ff" points="100.03,-159.47 91.29,-165.46 101.85,-166.22 100.03,-159.47"/>
</g>
<!-- Node11 -->
<g id="node12" class="node">
<title>Node11</title>
<g id="a_node12"><a xlink:href="d7/d9a/classvanetza_1_1geonet_1_1Lifetime.html" target="_top" xlink:title=" ">
<polygon fill="white" stroke="#666666" points="278.5,-104.5 153.5,-104.5 153.5,-85.5 278.5,-85.5 278.5,-104.5"/>
<text text-anchor="middle" x="216" y="-92.5" font-family="Helvetica,sans-Serif" font-size="10.00">vanetza::geonet::Lifetime</text>
</a>
</g>
</g>
<!-- Node2&#45;&gt;Node11 -->
<g id="edge10" class="edge">
<title>Node2&#45;&gt;Node11</title>
<path fill="none" stroke="#63b8ff" d="M75.36,-158.68C92.81,-144.72 119.7,-125.04 146,-113 153.32,-109.65 161.37,-106.84 169.31,-104.52"/>
<polygon fill="#63b8ff" stroke="#63b8ff" points="72.68,-156.35 67.15,-165.38 77.11,-161.77 72.68,-156.35"/>
</g>
<!-- Node12 -->
<g id="node13" class="node">
<title>Node12</title>
<g id="a_node13"><a xlink:href="d0/dc8/classvanetza_1_1geonet_1_1Timestamp.html" target="_top" xlink:title=" ">
<polygon fill="white" stroke="#666666" points="286,-67.5 146,-67.5 146,-48.5 286,-48.5 286,-67.5"/>
<text text-anchor="middle" x="216" y="-55.5" font-family="Helvetica,sans-Serif" font-size="10.00">vanetza::geonet::Timestamp</text>
</a>
</g>
</g>
<!-- Node2&#45;&gt;Node12 -->
<g id="edge12" class="edge">
<title>Node2&#45;&gt;Node12</title>
<path fill="none" stroke="#63b8ff" d="M67.57,-156.84C82.81,-134.43 111.74,-96.73 146,-76 151.61,-72.6 157.86,-69.84 164.24,-67.6"/>
<polygon fill="#63b8ff" stroke="#63b8ff" points="64.49,-155.15 61.9,-165.42 70.33,-159.01 64.49,-155.15"/>
</g>
</g>
</svg>
