<?xml version="1.0" encoding="UTF-8" standalone="no"?>
<!DOCTYPE svg PUBLIC "-//W3C//DTD SVG 1.1//EN"
 "http://www.w3.org/Graphics/SVG/1.1/DTD/svg11.dtd">
<!-- Generated by graphviz version 14.1.2 (0)
 -->
<!-- Title: Graphical Class Hierarchy Pages: 1 -->
<svg width="336pt" height="94pt"
 viewBox="0.00 0.00 336.00 94.00" xmlns="http://www.w3.org/2000/svg" xmlns:xlink="http://www.w3.org/1999/xlink">
<g id="graph0" class="graph" transform="scale(1 1) rotate(0) translate(4 89.5)">
<title>Graphical Class Hierarchy</title>
<!-- Node0 -->
<g id="Node000000" class="node">
<title>Node0</title>
<g id="a_Node000000"><a xlink:href="d6/da0/classvanetza_1_1security_1_1v3_1_1CertificateValidator.html" target="_top" xlink:title=" ">
<polygon fill="white" stroke="#666666" points="127.75,-59.5 0,-59.5 0,-26 127.75,-26 127.75,-59.5"/>
<text xml:space="preserve" text-anchor="start" x="8" y="-46" font-family="Helvetica,sans-Serif" font-size="10.00">vanetza::security::</text>
<text xml:space="preserve" text-anchor="middle" x="63.88" y="-33.25" font-family="Helvetica,sans-Serif" font-size="10.00">v3::CertificateValidator</text>
</a>
</g>
</g>
<!-- Node1 -->
<g id="Node000001" class="node">
<title>Node1</title>
<g id="a_Node000001"><a xlink:href="de/ddc/classvanetza_1_1security_1_1v3_1_1DefaultCertificateValidator.html" target="_top" xlink:title=" ">
<polygon fill="white" stroke="#666666" points="327.5,-85.5 163.75,-85.5 163.75,-52 327.5,-52 327.5,-85.5"/>
<text xml:space="preserve" text-anchor="start" x="171.75" y="-72" font-family="Helvetica,sans-Serif" font-size="10.00">vanetza::security::</text>
<text xml:space="preserve" text-anchor="middle" x="245.62" y="-59.25" font-family="Helvetica,sans-Serif" font-size="10.00">v3::DefaultCertificateValidator</text>
</a>
</g>
</g>
<!-- Node0&#45;&gt;Node1 -->
<g id="edge143_Node000000_Node000001" class="edge">
<title>Node0&#45;&gt;Node1</title>
<g id="a_edge143_Node000000_Node000001"><a xlink:title=" ">
<path fill="none" stroke="#63b8ff" d="M139.39,-53.53C147.37,-54.68 155.51,-55.86 163.56,-57.02"/>
<polygon fill="#63b8ff" stroke="#63b8ff" points="140.14,-50.1 129.75,-52.13 139.14,-57.03 140.14,-50.1"/>
</a>
</g>
</g>
<!-- Node2 -->
<g id="Node000002" class="node">
<title>Node2</title>
<g id="a_Node000002"><a xlink:href="dd/d55/classvanetza_1_1security_1_1v3_1_1NullCertificateValidator.html" target="_top" xlink:title=" ">
<polygon fill="white" stroke="#666666" points="319.25,-33.5 172,-33.5 172,0 319.25,0 319.25,-33.5"/>
<text xml:space="preserve" text-anchor="start" x="180" y="-20" font-family="Helvetica,sans-Serif" font-size="10.00">vanetza::security::</text>
<text xml:space="preserve" text-anchor="middle" x="245.62" y="-7.25" font-family="Helvetica,sans-Serif" font-size="10.00">v3::NullCertificateValidator</text>
</a>
</g>
</g>
<!-- Node0&#45;&gt;Node2 -->
<g id="edge144_Node000000_Node000002" class="edge">
<title>Node0&#45;&gt;Node2</title>
<g id="a_edge144_Node000000_Node000002"><a xlink:title=" ">
<path fill="none" stroke="#63b8ff" d="M139.62,-31.94C150.22,-30.4 161.12,-28.83 171.69,-27.3"/>
<polygon fill="#63b8ff" stroke="#63b8ff" points="139.14,-28.47 129.75,-33.37 140.14,-35.4 139.14,-28.47"/>
</a>
</g>
</g>
</g>
</svg>
