<?xml version="1.0" encoding="UTF-8" standalone="no"?>
<!DOCTYPE svg PUBLIC "-//W3C//DTD SVG 1.1//EN"
 "http://www.w3.org/Graphics/SVG/1.1/DTD/svg11.dtd">
<!-- Generated by graphviz version 14.1.2 (0)
 -->
<!-- Title: Graphical Class Hierarchy Pages: 1 -->
<svg width="322pt" height="146pt"
 viewBox="0.00 0.00 322.00 146.00" xmlns="http://www.w3.org/2000/svg" xmlns:xlink="http://www.w3.org/1999/xlink">
<g id="graph0" class="graph" transform="scale(1 1) rotate(0) translate(4 141.5)">
<title>Graphical Class Hierarchy</title>
<!-- Node0 -->
<g id="Node000000" class="node">
<title>Node0</title>
<g id="a_Node000000"><a xlink:href="dd/d76/classvanetza_1_1security_1_1v2_1_1CertificateProvider.html" target="_top" xlink:title=" ">
<polygon fill="white" stroke="#666666" points="124.75,-85.5 0,-85.5 0,-52 124.75,-52 124.75,-85.5"/>
<text xml:space="preserve" text-anchor="start" x="8" y="-72" font-family="Helvetica,sans-Serif" font-size="10.00">vanetza::security::</text>
<text xml:space="preserve" text-anchor="middle" x="62.38" y="-59.25" font-family="Helvetica,sans-Serif" font-size="10.00">v2::CertificateProvider</text>
</a>
</g>
</g>
<!-- Node1 -->
<g id="Node000001" class="node">
<title>Node1</title>
<g id="a_Node000001"><a xlink:href="d7/dff/classvanetza_1_1security_1_1v2_1_1NaiveCertificateProvider.html" target="_top" xlink:title="A very simplistic certificate provider.">
<polygon fill="white" stroke="#666666" points="314,-137.5 160.75,-137.5 160.75,-104 314,-104 314,-137.5"/>
<text xml:space="preserve" text-anchor="start" x="168.75" y="-124" font-family="Helvetica,sans-Serif" font-size="10.00">vanetza::security::</text>
<text xml:space="preserve" text-anchor="middle" x="237.38" y="-111.25" font-family="Helvetica,sans-Serif" font-size="10.00">v2::NaiveCertificateProvider</text>
</a>
</g>
</g>
<!-- Node0&#45;&gt;Node1 -->
<g id="edge134_Node000000_Node000001" class="edge">
<title>Node0&#45;&gt;Node1</title>
<g id="a_edge134_Node000000_Node000001"><a xlink:title=" ">
<path fill="none" stroke="#63b8ff" d="M131.27,-89.16C147.06,-93.9 163.73,-98.91 179.01,-103.51"/>
<polygon fill="#63b8ff" stroke="#63b8ff" points="132.53,-85.88 121.95,-86.36 130.52,-92.59 132.53,-85.88"/>
</a>
</g>
</g>
<!-- Node2 -->
<g id="Node000002" class="node">
<title>Node2</title>
<g id="a_Node000002"><a xlink:href="dc/d56/classvanetza_1_1security_1_1v2_1_1NullCertificateProvider.html" target="_top" xlink:title=" ">
<polygon fill="white" stroke="#666666" points="309.5,-85.5 165.25,-85.5 165.25,-52 309.5,-52 309.5,-85.5"/>
<text xml:space="preserve" text-anchor="start" x="173.25" y="-72" font-family="Helvetica,sans-Serif" font-size="10.00">vanetza::security::</text>
<text xml:space="preserve" text-anchor="middle" x="237.38" y="-59.25" font-family="Helvetica,sans-Serif" font-size="10.00">v2::NullCertificateProvider</text>
</a>
</g>
</g>
<!-- Node0&#45;&gt;Node2 -->
<g id="edge135_Node000000_Node000002" class="edge">
<title>Node0&#45;&gt;Node2</title>
<g id="a_edge135_Node000000_Node000002"><a xlink:title=" ">
<path fill="none" stroke="#63b8ff" d="M136.23,-68.75C145.67,-68.75 155.33,-68.75 164.75,-68.75"/>
<polygon fill="#63b8ff" stroke="#63b8ff" points="136.37,-65.25 126.37,-68.75 136.37,-72.25 136.37,-65.25"/>
</a>
</g>
</g>
<!-- Node3 -->
<g id="Node000003" class="node">
<title>Node3</title>
<g id="a_Node000003"><a xlink:href="d6/db8/classvanetza_1_1security_1_1v2_1_1StaticCertificateProvider.html" target="_top" xlink:title="A simple certificate provider.">
<polygon fill="white" stroke="#666666" points="313.62,-33.5 161.12,-33.5 161.12,0 313.62,0 313.62,-33.5"/>
<text xml:space="preserve" text-anchor="start" x="169.12" y="-20" font-family="Helvetica,sans-Serif" font-size="10.00">vanetza::security::</text>
<text xml:space="preserve" text-anchor="middle" x="237.38" y="-7.25" font-family="Helvetica,sans-Serif" font-size="10.00">v2::StaticCertificateProvider</text>
</a>
</g>
</g>
<!-- Node0&#45;&gt;Node3 -->
<g id="edge136_Node000000_Node000003" class="edge">
<title>Node0&#45;&gt;Node3</title>
<g id="a_edge136_Node000000_Node000003"><a xlink:title=" ">
<path fill="none" stroke="#63b8ff" d="M131.27,-48.34C147.06,-43.6 163.73,-38.59 179.01,-33.99"/>
<polygon fill="#63b8ff" stroke="#63b8ff" points="130.52,-44.91 121.95,-51.14 132.53,-51.62 130.52,-44.91"/>
</a>
</g>
</g>
</g>
</svg>
