<?xml version="1.0" encoding="UTF-8" standalone="no"?>
<!DOCTYPE svg PUBLIC "-//W3C//DTD SVG 1.1//EN"
 "http://www.w3.org/Graphics/SVG/1.1/DTD/svg11.dtd">
<!-- Generated by graphviz version 2.42.3 (0)
 -->
<!-- Title: Graphical Class Hierarchy Pages: 1 -->
<svg width="255pt" height="186pt"
 viewBox="0.00 0.00 255.00 186.00" xmlns="http://www.w3.org/2000/svg" xmlns:xlink="http://www.w3.org/1999/xlink">
<g id="graph0" class="graph" transform="scale(1 1) rotate(0) translate(4 182)">
<title>Graphical Class Hierarchy</title>
<polygon fill="white" stroke="transparent" points="-4,4 -4,-182 251,-182 251,4 -4,4"/>
<!-- Node0 -->
<g id="node1" class="node">
<title>Node0</title>
<g id="a_node1"><a xlink:href="d2/d53/structvanetza_1_1security_1_1v3_1_1Choice.html" target="_top" xlink:title=" ">
<polygon fill="white" stroke="black" points="0,-73.5 0,-103.5 98,-103.5 98,-73.5 0,-73.5"/>
<text text-anchor="start" x="8" y="-91.5" font-family="Helvetica,sans-Serif" font-size="10.00">vanetza::security::</text>
<text text-anchor="middle" x="49" y="-80.5" font-family="Helvetica,sans-Serif" font-size="10.00">v3::Choice&lt; true &gt;</text>
</a>
</g>
</g>
<!-- Node1 -->
<g id="node2" class="node">
<title>Node1</title>
<g id="a_node2"><a xlink:href="db/d2d/structvanetza_1_1security_1_1v3_1_1CertificateId.html" target="_top" xlink:title=" ">
<polygon fill="white" stroke="black" points="142.5,-147.5 142.5,-177.5 238.5,-177.5 238.5,-147.5 142.5,-147.5"/>
<text text-anchor="start" x="150.5" y="-165.5" font-family="Helvetica,sans-Serif" font-size="10.00">vanetza::security::</text>
<text text-anchor="middle" x="190.5" y="-154.5" font-family="Helvetica,sans-Serif" font-size="10.00">v3::CertificateId</text>
</a>
</g>
</g>
<!-- Node0&#45;&gt;Node1 -->
<g id="edge1" class="edge">
<title>Node0&#45;&gt;Node1</title>
<path fill="none" stroke="midnightblue" d="M82.08,-108.92C97.52,-118.4 116.44,-129.52 134,-138.5 139.98,-141.56 146.44,-144.59 152.77,-147.41"/>
<polygon fill="midnightblue" stroke="midnightblue" points="83.78,-105.85 73.44,-103.56 80.09,-111.8 83.78,-105.85"/>
</g>
<!-- Node2 -->
<g id="node3" class="node">
<title>Node2</title>
<g id="a_node3"><a xlink:href="d1/d42/structvanetza_1_1security_1_1v3_1_1GeographicRegion.html" target="_top" xlink:title=" ">
<polygon fill="white" stroke="black" points="134,-98.5 134,-128.5 247,-128.5 247,-98.5 134,-98.5"/>
<text text-anchor="start" x="142" y="-116.5" font-family="Helvetica,sans-Serif" font-size="10.00">vanetza::security::</text>
<text text-anchor="middle" x="190.5" y="-105.5" font-family="Helvetica,sans-Serif" font-size="10.00">v3::GeographicRegion</text>
</a>
</g>
</g>
<!-- Node0&#45;&gt;Node2 -->
<g id="edge2" class="edge">
<title>Node0&#45;&gt;Node2</title>
<path fill="none" stroke="midnightblue" d="M107.89,-98.88C116.44,-100.41 125.22,-101.98 133.72,-103.5"/>
<polygon fill="midnightblue" stroke="midnightblue" points="108.47,-95.42 98.01,-97.1 107.23,-102.31 108.47,-95.42"/>
</g>
<!-- Node3 -->
<g id="node4" class="node">
<title>Node3</title>
<g id="a_node4"><a xlink:href="dc/dd7/structvanetza_1_1security_1_1v3_1_1IssuerIdentifier.html" target="_top" xlink:title=" ">
<polygon fill="white" stroke="black" points="141.5,-49.5 141.5,-79.5 239.5,-79.5 239.5,-49.5 141.5,-49.5"/>
<text text-anchor="start" x="149.5" y="-67.5" font-family="Helvetica,sans-Serif" font-size="10.00">vanetza::security::</text>
<text text-anchor="middle" x="190.5" y="-56.5" font-family="Helvetica,sans-Serif" font-size="10.00">v3::IssuerIdentifier</text>
</a>
</g>
</g>
<!-- Node0&#45;&gt;Node3 -->
<g id="edge3" class="edge">
<title>Node0&#45;&gt;Node3</title>
<path fill="none" stroke="midnightblue" d="M108.05,-78.51C119.15,-76.6 130.66,-74.62 141.4,-72.77"/>
<polygon fill="midnightblue" stroke="midnightblue" points="107.27,-75.1 98.01,-80.24 108.46,-81.99 107.27,-75.1"/>
</g>
<!-- Node4 -->
<g id="node5" class="node">
<title>Node4</title>
<g id="a_node5"><a xlink:href="d7/dc5/structvanetza_1_1security_1_1v3_1_1Signature.html" target="_top" xlink:title=" ">
<polygon fill="white" stroke="black" points="142.5,-0.5 142.5,-30.5 238.5,-30.5 238.5,-0.5 142.5,-0.5"/>
<text text-anchor="start" x="150.5" y="-18.5" font-family="Helvetica,sans-Serif" font-size="10.00">vanetza::security::</text>
<text text-anchor="middle" x="190.5" y="-7.5" font-family="Helvetica,sans-Serif" font-size="10.00">v3::Signature</text>
</a>
</g>
</g>
<!-- Node0&#45;&gt;Node4 -->
<g id="edge4" class="edge">
<title>Node0&#45;&gt;Node4</title>
<path fill="none" stroke="midnightblue" d="M84.01,-68.08C99.13,-59.26 117.27,-49.02 134,-40.5 140.59,-37.14 147.73,-33.75 154.62,-30.6"/>
<polygon fill="midnightblue" stroke="midnightblue" points="81.86,-65.28 75.02,-73.37 85.41,-71.31 81.86,-65.28"/>
</g>
</g>
</svg>
