<?xml version="1.0" encoding="UTF-8" standalone="no"?>
<!DOCTYPE svg PUBLIC "-//W3C//DTD SVG 1.1//EN"
 "http://www.w3.org/Graphics/SVG/1.1/DTD/svg11.dtd">
<!-- Generated by graphviz version 2.49.3 (0)
 -->
<!-- Title: Graphical Class Hierarchy Pages: 1 -->
<svg width="308pt" height="86pt"
 viewBox="0.00 0.00 308.00 86.00" xmlns="http://www.w3.org/2000/svg" xmlns:xlink="http://www.w3.org/1999/xlink">
<g id="graph0" class="graph" transform="scale(1 1) rotate(0) translate(4 82)">
<title>Graphical Class Hierarchy</title>
<!-- Node0 -->
<g id="Node000000" class="node">
<title>Node0</title>
<g id="a_Node000000"><a xlink:href="d0/d13/classvanetza_1_1security_1_1v2_1_1CertificateValidator.html" target="_top" xlink:title=" ">
<polygon fill="white" stroke="#666666" points="116,-54 0,-54 0,-24 116,-24 116,-54"/>
<text text-anchor="start" x="8" y="-42" font-family="Helvetica,sans-Serif" font-size="10.00">vanetza::security::</text>
<text text-anchor="middle" x="58" y="-31" font-family="Helvetica,sans-Serif" font-size="10.00">v2::CertificateValidator</text>
</a>
</g>
</g>
<!-- Node1 -->
<g id="Node000001" class="node">
<title>Node1</title>
<g id="a_Node000001"><a xlink:href="de/d37/classvanetza_1_1security_1_1v2_1_1DefaultCertificateValidator.html" target="_top" xlink:title="The default certificate validator.">
<polygon fill="white" stroke="#666666" points="300,-78 152,-78 152,-48 300,-48 300,-78"/>
<text text-anchor="start" x="160" y="-66" font-family="Helvetica,sans-Serif" font-size="10.00">vanetza::security::</text>
<text text-anchor="middle" x="226" y="-55" font-family="Helvetica,sans-Serif" font-size="10.00">v2::DefaultCertificateValidator</text>
</a>
</g>
</g>
<!-- Node0&#45;&gt;Node1 -->
<g id="edge138_Node000000_Node000001" class="edge">
<title>Node0&#45;&gt;Node1</title>
<g id="a_edge138_Node000000_Node000001"><a xlink:title=" ">
<path fill="none" stroke="#63b8ff" d="M126.29,-48.73C134.74,-49.95 143.41,-51.2 151.94,-52.44"/>
<polygon fill="#63b8ff" stroke="#63b8ff" points="126.53,-45.23 116.13,-47.26 125.52,-52.15 126.53,-45.23"/>
</a>
</g>
</g>
<!-- Node2 -->
<g id="Node000002" class="node">
<title>Node2</title>
<g id="a_Node000002"><a xlink:href="d2/d3a/classvanetza_1_1security_1_1v2_1_1NullCertificateValidator.html" target="_top" xlink:title=" ">
<polygon fill="white" stroke="#666666" points="293,-30 159,-30 159,0 293,0 293,-30"/>
<text text-anchor="start" x="167" y="-18" font-family="Helvetica,sans-Serif" font-size="10.00">vanetza::security::</text>
<text text-anchor="middle" x="226" y="-7" font-family="Helvetica,sans-Serif" font-size="10.00">v2::NullCertificateValidator</text>
</a>
</g>
</g>
<!-- Node0&#45;&gt;Node2 -->
<g id="edge139_Node000000_Node000002" class="edge">
<title>Node0&#45;&gt;Node2</title>
<g id="a_edge139_Node000000_Node000002"><a xlink:title=" ">
<path fill="none" stroke="#63b8ff" d="M126.31,-29.27C137.06,-27.71 148.19,-26.11 158.92,-24.55"/>
<polygon fill="#63b8ff" stroke="#63b8ff" points="125.52,-25.85 116.13,-30.74 126.53,-32.77 125.52,-25.85"/>
</a>
</g>
</g>
</g>
</svg>
