<?xml version="1.0" encoding="UTF-8" standalone="no"?>
<!DOCTYPE svg PUBLIC "-//W3C//DTD SVG 1.1//EN"
 "http://www.w3.org/Graphics/SVG/1.1/DTD/svg11.dtd">
<!-- Generated by graphviz version 14.1.2 (0)
 -->
<!-- Title: Graphical Class Hierarchy Pages: 1 -->
<svg width="279pt" height="250pt"
 viewBox="0.00 0.00 279.00 250.00" xmlns="http://www.w3.org/2000/svg" xmlns:xlink="http://www.w3.org/1999/xlink">
<g id="graph0" class="graph" transform="scale(1 1) rotate(0) translate(4 245.5)">
<title>Graphical Class Hierarchy</title>
<!-- Node0 -->
<g id="Node000000" class="node">
<title>Node0</title>
<g id="a_Node000000"><a xlink:title=" ">
<polygon fill="#e0e0e0" stroke="#999999" points="103.75,-131.12 0,-131.12 0,-110.38 103.75,-110.38 103.75,-131.12"/>
<text xml:space="preserve" text-anchor="middle" x="51.88" y="-117.62" font-family="Helvetica,sans-Serif" font-size="10.00">std::runtime_error</text>
</a>
</g>
</g>
<!-- Node1 -->
<g id="Node000001" class="node">
<title>Node1</title>
<g id="a_Node000001"><a xlink:href="dd/d11/classvanetza_1_1InputArchive_1_1Exception.html" target="_top" xlink:title=" ">
<polygon fill="white" stroke="#666666" points="266.38,-241.5 143.88,-241.5 143.88,-208 266.38,-208 266.38,-241.5"/>
<text xml:space="preserve" text-anchor="start" x="151.88" y="-228" font-family="Helvetica,sans-Serif" font-size="10.00">vanetza::InputArchive</text>
<text xml:space="preserve" text-anchor="middle" x="205.12" y="-215.25" font-family="Helvetica,sans-Serif" font-size="10.00">::Exception</text>
</a>
</g>
</g>
<!-- Node0&#45;&gt;Node1 -->
<g id="edge29_Node000000_Node000001" class="edge">
<title>Node0&#45;&gt;Node1</title>
<g id="a_edge29_Node000000_Node000001"><a xlink:title=" ">
<path fill="none" stroke="#63b8ff" d="M70.06,-139.55C86.59,-156.76 112.95,-182.03 139.75,-198.75 144.86,-201.94 150.44,-204.88 156.09,-207.53"/>
<polygon fill="#63b8ff" stroke="#63b8ff" points="72.8,-137.36 63.4,-132.47 67.7,-142.15 72.8,-137.36"/>
</a>
</g>
</g>
<!-- Node2 -->
<g id="Node000002" class="node">
<title>Node2</title>
<g id="a_Node000002"><a xlink:href="d6/de5/classvanetza_1_1OutputArchive_1_1Exception.html" target="_top" xlink:title=" ">
<polygon fill="white" stroke="#666666" points="270.5,-189.5 139.75,-189.5 139.75,-156 270.5,-156 270.5,-189.5"/>
<text xml:space="preserve" text-anchor="start" x="147.75" y="-176" font-family="Helvetica,sans-Serif" font-size="10.00">vanetza::OutputArchive</text>
<text xml:space="preserve" text-anchor="middle" x="205.12" y="-163.25" font-family="Helvetica,sans-Serif" font-size="10.00">::Exception</text>
</a>
</g>
</g>
<!-- Node0&#45;&gt;Node2 -->
<g id="edge30_Node000000_Node000002" class="edge">
<title>Node0&#45;&gt;Node2</title>
<g id="a_edge30_Node000000_Node000002"><a xlink:title=" ">
<path fill="none" stroke="#63b8ff" d="M94.87,-135.19C113.22,-141.5 134.89,-148.95 154.07,-155.54"/>
<polygon fill="#63b8ff" stroke="#63b8ff" points="96.24,-131.96 85.65,-132.02 93.96,-138.58 96.24,-131.96"/>
</a>
</g>
</g>
<!-- Node3 -->
<g id="Node000003" class="node">
<title>Node3</title>
<g id="a_Node000003"><a xlink:href="d6/d77/classvanetza_1_1security_1_1deserialization__error.html" target="_top" xlink:title="thrown when a deserialization error occurred">
<polygon fill="white" stroke="#666666" points="263.38,-137.5 146.88,-137.5 146.88,-104 263.38,-104 263.38,-137.5"/>
<text xml:space="preserve" text-anchor="start" x="154.88" y="-124" font-family="Helvetica,sans-Serif" font-size="10.00">vanetza::security::</text>
<text xml:space="preserve" text-anchor="middle" x="205.12" y="-111.25" font-family="Helvetica,sans-Serif" font-size="10.00">deserialization_error</text>
</a>
</g>
</g>
<!-- Node0&#45;&gt;Node3 -->
<g id="edge31_Node000000_Node000003" class="edge">
<title>Node0&#45;&gt;Node3</title>
<g id="a_edge31_Node000000_Node000003"><a xlink:title=" ">
<path fill="none" stroke="#63b8ff" d="M115.48,-120.75C125.74,-120.75 136.33,-120.75 146.47,-120.75"/>
<polygon fill="#63b8ff" stroke="#63b8ff" points="115.59,-117.25 105.59,-120.75 115.59,-124.25 115.59,-117.25"/>
</a>
</g>
</g>
<!-- Node4 -->
<g id="Node000004" class="node">
<title>Node4</title>
<g id="a_Node000004"><a xlink:href="da/d93/classvanetza_1_1security_1_1openssl_1_1Exception.html" target="_top" xlink:title=" ">
<polygon fill="white" stroke="#666666" points="258.88,-85.5 151.38,-85.5 151.38,-52 258.88,-52 258.88,-85.5"/>
<text xml:space="preserve" text-anchor="start" x="159.38" y="-72" font-family="Helvetica,sans-Serif" font-size="10.00">vanetza::security::</text>
<text xml:space="preserve" text-anchor="middle" x="205.12" y="-59.25" font-family="Helvetica,sans-Serif" font-size="10.00">openssl::Exception</text>
</a>
</g>
</g>
<!-- Node0&#45;&gt;Node4 -->
<g id="edge32_Node000000_Node000004" class="edge">
<title>Node0&#45;&gt;Node4</title>
<g id="a_edge32_Node000000_Node000004"><a xlink:title=" ">
<path fill="none" stroke="#63b8ff" d="M94.87,-106.31C113.22,-100 134.89,-92.55 154.07,-85.96"/>
<polygon fill="#63b8ff" stroke="#63b8ff" points="93.96,-102.92 85.65,-109.48 96.24,-109.54 93.96,-102.92"/>
</a>
</g>
</g>
<!-- Node5 -->
<g id="Node000005" class="node">
<title>Node5</title>
<g id="a_Node000005"><a xlink:href="df/db4/classvanetza_1_1security_1_1serialization__error.html" target="_top" xlink:title="thrown when a serialization error occurred">
<polygon fill="white" stroke="#666666" points="257.75,-33.5 152.5,-33.5 152.5,0 257.75,0 257.75,-33.5"/>
<text xml:space="preserve" text-anchor="start" x="160.5" y="-20" font-family="Helvetica,sans-Serif" font-size="10.00">vanetza::security::</text>
<text xml:space="preserve" text-anchor="middle" x="205.12" y="-7.25" font-family="Helvetica,sans-Serif" font-size="10.00">serialization_error</text>
</a>
</g>
</g>
<!-- Node0&#45;&gt;Node5 -->
<g id="edge33_Node000000_Node000005" class="edge">
<title>Node0&#45;&gt;Node5</title>
<g id="a_edge33_Node000000_Node000005"><a xlink:title=" ">
<path fill="none" stroke="#63b8ff" d="M70.06,-101.95C86.59,-84.74 112.95,-59.47 139.75,-42.75 144.86,-39.56 150.44,-36.62 156.09,-33.97"/>
<polygon fill="#63b8ff" stroke="#63b8ff" points="67.7,-99.35 63.4,-109.03 72.8,-104.14 67.7,-99.35"/>
</a>
</g>
</g>
</g>
</svg>
