<?xml version="1.0" encoding="UTF-8" standalone="no"?>
<!DOCTYPE svg PUBLIC "-//W3C//DTD SVG 1.1//EN"
 "http://www.w3.org/Graphics/SVG/1.1/DTD/svg11.dtd">
<!-- Generated by graphviz version 2.42.1 (0)
 -->
<!-- Title: Graphical Class Hierarchy Pages: 1 -->
<svg width="370pt" height="235pt"
 viewBox="0.00 0.00 370.00 235.00" xmlns="http://www.w3.org/2000/svg" xmlns:xlink="http://www.w3.org/1999/xlink">
<g id="graph0" class="graph" transform="scale(1 1) rotate(0) translate(4 231)">
<title>Graphical Class Hierarchy</title>
<polygon fill="white" stroke="transparent" points="-4,4 -4,-231 366,-231 366,4 -4,4"/>
<!-- Node202 -->
<g id="node1" class="node">
<title>Node202</title>
<g id="a_node1"><a xlink:title="STL class.">
<polygon fill="white" stroke="#bfbfbf" points="0,-104 0,-123 78,-123 78,-104 0,-104"/>
<text text-anchor="middle" x="39" y="-111" font-family="Helvetica,sans-Serif" font-size="10.00">std::exception</text>
</a>
</g>
</g>
<!-- Node203 -->
<g id="node2" class="node">
<title>Node203</title>
<g id="a_node2"><a xlink:title="STL class.">
<polygon fill="white" stroke="#bfbfbf" points="114,-104 114,-123 207,-123 207,-104 114,-104"/>
<text text-anchor="middle" x="160.5" y="-111" font-family="Helvetica,sans-Serif" font-size="10.00">std::runtime_error</text>
</a>
</g>
</g>
<!-- Node202&#45;&gt;Node203 -->
<g id="edge1" class="edge">
<title>Node202&#45;&gt;Node203</title>
<path fill="none" stroke="midnightblue" d="M88.23,-113.5C96.66,-113.5 105.42,-113.5 113.79,-113.5"/>
<polygon fill="midnightblue" stroke="midnightblue" points="88.14,-110 78.14,-113.5 88.14,-117 88.14,-110"/>
</g>
<!-- Node0 -->
<g id="node3" class="node">
<title>Node0</title>
<g id="a_node3"><a xlink:href="dd/d11/classvanetza_1_1InputArchive_1_1Exception.html" target="_top" xlink:title=" ">
<polygon fill="white" stroke="black" points="246.5,-196.5 246.5,-226.5 358.5,-226.5 358.5,-196.5 246.5,-196.5"/>
<text text-anchor="start" x="254.5" y="-214.5" font-family="Helvetica,sans-Serif" font-size="10.00">vanetza::InputArchive</text>
<text text-anchor="middle" x="302.5" y="-203.5" font-family="Helvetica,sans-Serif" font-size="10.00">::Exception</text>
</a>
</g>
</g>
<!-- Node203&#45;&gt;Node0 -->
<g id="edge2" class="edge">
<title>Node203&#45;&gt;Node0</title>
<path fill="none" stroke="midnightblue" d="M177.35,-131.05C192.82,-147.37 217.68,-171.51 243,-187.5 248.2,-190.78 253.92,-193.78 259.69,-196.45"/>
<polygon fill="midnightblue" stroke="midnightblue" points="179.53,-128.26 170.16,-123.31 174.4,-133.02 179.53,-128.26"/>
</g>
<!-- Node205 -->
<g id="node4" class="node">
<title>Node205</title>
<g id="a_node4"><a xlink:href="d6/de5/classvanetza_1_1OutputArchive_1_1Exception.html" target="_top" xlink:title=" ">
<polygon fill="white" stroke="black" points="243,-147.5 243,-177.5 362,-177.5 362,-147.5 243,-147.5"/>
<text text-anchor="start" x="251" y="-165.5" font-family="Helvetica,sans-Serif" font-size="10.00">vanetza::OutputArchive</text>
<text text-anchor="middle" x="302.5" y="-154.5" font-family="Helvetica,sans-Serif" font-size="10.00">::Exception</text>
</a>
</g>
</g>
<!-- Node203&#45;&gt;Node205 -->
<g id="edge3" class="edge">
<title>Node203&#45;&gt;Node205</title>
<path fill="none" stroke="midnightblue" d="M198.35,-126.4C216.82,-132.86 239.29,-140.73 258.54,-147.46"/>
<polygon fill="midnightblue" stroke="midnightblue" points="199.42,-123.06 188.83,-123.06 197.11,-129.67 199.42,-123.06"/>
</g>
<!-- Node206 -->
<g id="node5" class="node">
<title>Node206</title>
<g id="a_node5"><a xlink:href="d6/d77/classvanetza_1_1security_1_1deserialization__error.html" target="_top" xlink:title="thrown when a deserialization error occurred">
<polygon fill="white" stroke="black" points="250.5,-98.5 250.5,-128.5 354.5,-128.5 354.5,-98.5 250.5,-98.5"/>
<text text-anchor="start" x="258.5" y="-116.5" font-family="Helvetica,sans-Serif" font-size="10.00">vanetza::security::</text>
<text text-anchor="middle" x="302.5" y="-105.5" font-family="Helvetica,sans-Serif" font-size="10.00">deserialization_error</text>
</a>
</g>
</g>
<!-- Node203&#45;&gt;Node206 -->
<g id="edge4" class="edge">
<title>Node203&#45;&gt;Node206</title>
<path fill="none" stroke="midnightblue" d="M217.52,-113.5C228.32,-113.5 239.59,-113.5 250.23,-113.5"/>
<polygon fill="midnightblue" stroke="midnightblue" points="217.34,-110 207.34,-113.5 217.34,-117 217.34,-110"/>
</g>
<!-- Node207 -->
<g id="node6" class="node">
<title>Node207</title>
<g id="a_node6"><a xlink:href="da/d93/classvanetza_1_1security_1_1openssl_1_1Exception.html" target="_top" xlink:title=" ">
<polygon fill="white" stroke="black" points="252.5,-49.5 252.5,-79.5 352.5,-79.5 352.5,-49.5 252.5,-49.5"/>
<text text-anchor="start" x="260.5" y="-67.5" font-family="Helvetica,sans-Serif" font-size="10.00">vanetza::security::</text>
<text text-anchor="middle" x="302.5" y="-56.5" font-family="Helvetica,sans-Serif" font-size="10.00">openssl::Exception</text>
</a>
</g>
</g>
<!-- Node203&#45;&gt;Node207 -->
<g id="edge5" class="edge">
<title>Node203&#45;&gt;Node207</title>
<path fill="none" stroke="midnightblue" d="M198.35,-100.6C216.82,-94.14 239.29,-86.27 258.54,-79.54"/>
<polygon fill="midnightblue" stroke="midnightblue" points="197.11,-97.33 188.83,-103.94 199.42,-103.94 197.11,-97.33"/>
</g>
<!-- Node208 -->
<g id="node7" class="node">
<title>Node208</title>
<g id="a_node7"><a xlink:href="df/db4/classvanetza_1_1security_1_1serialization__error.html" target="_top" xlink:title="thrown when a serialization error occurred">
<polygon fill="white" stroke="black" points="253.5,-0.5 253.5,-30.5 351.5,-30.5 351.5,-0.5 253.5,-0.5"/>
<text text-anchor="start" x="261.5" y="-18.5" font-family="Helvetica,sans-Serif" font-size="10.00">vanetza::security::</text>
<text text-anchor="middle" x="302.5" y="-7.5" font-family="Helvetica,sans-Serif" font-size="10.00">serialization_error</text>
</a>
</g>
</g>
<!-- Node203&#45;&gt;Node208 -->
<g id="edge6" class="edge">
<title>Node203&#45;&gt;Node208</title>
<path fill="none" stroke="midnightblue" d="M177.45,-96.28C192.99,-80.25 217.9,-56.49 243,-40.5 248.68,-36.88 254.98,-33.57 261.27,-30.62"/>
<polygon fill="midnightblue" stroke="midnightblue" points="174.58,-94.22 170.22,-103.88 179.65,-99.05 174.58,-94.22"/>
</g>
</g>
</svg>
