<?xml version="1.0" encoding="UTF-8" standalone="no"?>
<!DOCTYPE svg PUBLIC "-//W3C//DTD SVG 1.1//EN"
 "http://www.w3.org/Graphics/SVG/1.1/DTD/svg11.dtd">
<!-- Generated by graphviz version 2.49.3 (0)
 -->
<!-- Title: Graphical Class Hierarchy Pages: 1 -->
<svg width="506pt" height="182pt"
 viewBox="0.00 0.00 506.00 182.00" xmlns="http://www.w3.org/2000/svg" xmlns:xlink="http://www.w3.org/1999/xlink">
<g id="graph0" class="graph" transform="scale(1 1) rotate(0) translate(4 178)">
<title>Graphical Class Hierarchy</title>
<!-- Node0 -->
<g id="node1" class="node">
<title>Node0</title>
<g id="a_node1"><a xlink:href="d1/d1f/structvanetza_1_1geonet_1_1DataRequest.html" target="_top" xlink:title=" ">
<polygon fill="white" stroke="#666666" points="148,-96.5 0,-96.5 0,-77.5 148,-77.5 148,-96.5"/>
<text text-anchor="middle" x="74" y="-84.5" font-family="Helvetica,sans-Serif" font-size="10.00">vanetza::geonet::DataRequest</text>
</a>
</g>
</g>
<!-- Node1 -->
<g id="node2" class="node">
<title>Node1</title>
<g id="a_node2"><a xlink:href="d4/d96/structvanetza_1_1geonet_1_1DataRequestWithAddress.html" target="_top" xlink:title=" ">
<polygon fill="white" stroke="#666666" points="332,-174 184,-174 184,-144 332,-144 332,-174"/>
<text text-anchor="start" x="192" y="-162" font-family="Helvetica,sans-Serif" font-size="10.00">vanetza::geonet::DataRequest</text>
<text text-anchor="middle" x="258" y="-151" font-family="Helvetica,sans-Serif" font-size="10.00">WithAddress</text>
</a>
</g>
</g>
<!-- Node0&#45;&gt;Node1 -->
<g id="edge1" class="edge">
<title>Node0&#45;&gt;Node1</title>
<path fill="none" stroke="#63b8ff" d="M104.58,-100.96C126.33,-110.99 156.71,-124.53 184,-135 191.97,-138.06 200.52,-141.09 208.86,-143.91"/>
<polygon fill="#63b8ff" stroke="#63b8ff" points="105.79,-97.66 95.24,-96.62 102.84,-104.01 105.79,-97.66"/>
</g>
<!-- Node3 -->
<g id="node4" class="node">
<title>Node3</title>
<g id="a_node4"><a xlink:href="d9/d1d/structvanetza_1_1geonet_1_1DataRequestWithArea.html" target="_top" xlink:title=" ">
<polygon fill="white" stroke="#666666" points="332,-126 184,-126 184,-96 332,-96 332,-126"/>
<text text-anchor="start" x="192" y="-114" font-family="Helvetica,sans-Serif" font-size="10.00">vanetza::geonet::DataRequest</text>
<text text-anchor="middle" x="258" y="-103" font-family="Helvetica,sans-Serif" font-size="10.00">WithArea</text>
</a>
</g>
</g>
<!-- Node0&#45;&gt;Node3 -->
<g id="edge3" class="edge">
<title>Node0&#45;&gt;Node3</title>
<path fill="none" stroke="#63b8ff" d="M157.13,-97.83C165.99,-99 174.96,-100.18 183.7,-101.33"/>
<polygon fill="#63b8ff" stroke="#63b8ff" points="157.56,-94.36 147.19,-96.52 156.65,-101.3 157.56,-94.36"/>
</g>
<!-- Node6 -->
<g id="node7" class="node">
<title>Node6</title>
<g id="a_node7"><a xlink:href="d0/d57/structvanetza_1_1geonet_1_1ShbDataRequest.html" target="_top" xlink:title=" ">
<polygon fill="white" stroke="#666666" points="322.5,-78 193.5,-78 193.5,-48 322.5,-48 322.5,-78"/>
<text text-anchor="start" x="201.5" y="-66" font-family="Helvetica,sans-Serif" font-size="10.00">vanetza::geonet::ShbData</text>
<text text-anchor="middle" x="258" y="-55" font-family="Helvetica,sans-Serif" font-size="10.00">Request</text>
</a>
</g>
</g>
<!-- Node0&#45;&gt;Node6 -->
<g id="edge6" class="edge">
<title>Node0&#45;&gt;Node6</title>
<path fill="none" stroke="#63b8ff" d="M157.31,-76.15C169.43,-74.55 181.77,-72.92 193.44,-71.38"/>
<polygon fill="#63b8ff" stroke="#63b8ff" points="156.65,-72.7 147.19,-77.48 157.56,-79.64 156.65,-72.7"/>
</g>
<!-- Node7 -->
<g id="node8" class="node">
<title>Node7</title>
<g id="a_node8"><a xlink:href="d4/d19/structvanetza_1_1geonet_1_1TsbDataRequest.html" target="_top" xlink:title=" ">
<polygon fill="white" stroke="#666666" points="322,-30 194,-30 194,0 322,0 322,-30"/>
<text text-anchor="start" x="202" y="-18" font-family="Helvetica,sans-Serif" font-size="10.00">vanetza::geonet::TsbData</text>
<text text-anchor="middle" x="258" y="-7" font-family="Helvetica,sans-Serif" font-size="10.00">Request</text>
</a>
</g>
</g>
<!-- Node0&#45;&gt;Node7 -->
<g id="edge7" class="edge">
<title>Node0&#45;&gt;Node7</title>
<path fill="none" stroke="#63b8ff" d="M104.58,-73.04C126.33,-63.01 156.71,-49.47 184,-39 191.97,-35.94 200.52,-32.91 208.86,-30.09"/>
<polygon fill="#63b8ff" stroke="#63b8ff" points="102.84,-69.99 95.24,-77.38 105.79,-76.34 102.84,-69.99"/>
</g>
<!-- Node2 -->
<g id="node3" class="node">
<title>Node2</title>
<g id="a_node3"><a xlink:href="d0/db3/structvanetza_1_1geonet_1_1GucDataRequest.html" target="_top" xlink:title=" ">
<polygon fill="white" stroke="#666666" points="498,-174 368,-174 368,-144 498,-144 498,-174"/>
<text text-anchor="start" x="376" y="-162" font-family="Helvetica,sans-Serif" font-size="10.00">vanetza::geonet::GucData</text>
<text text-anchor="middle" x="433" y="-151" font-family="Helvetica,sans-Serif" font-size="10.00">Request</text>
</a>
</g>
</g>
<!-- Node1&#45;&gt;Node2 -->
<g id="edge2" class="edge">
<title>Node1&#45;&gt;Node2</title>
<path fill="none" stroke="#63b8ff" d="M342.22,-159C350.85,-159 359.53,-159 367.91,-159"/>
<polygon fill="#63b8ff" stroke="#63b8ff" points="342.12,-155.5 332.12,-159 342.12,-162.5 342.12,-155.5"/>
</g>
<!-- Node4 -->
<g id="node5" class="node">
<title>Node4</title>
<g id="a_node5"><a xlink:href="d7/d84/structvanetza_1_1geonet_1_1GacDataRequest.html" target="_top" xlink:title=" ">
<polygon fill="white" stroke="#666666" points="498,-126 368,-126 368,-96 498,-96 498,-126"/>
<text text-anchor="start" x="376" y="-114" font-family="Helvetica,sans-Serif" font-size="10.00">vanetza::geonet::GacData</text>
<text text-anchor="middle" x="433" y="-103" font-family="Helvetica,sans-Serif" font-size="10.00">Request</text>
</a>
</g>
</g>
<!-- Node3&#45;&gt;Node4 -->
<g id="edge4" class="edge">
<title>Node3&#45;&gt;Node4</title>
<path fill="none" stroke="#63b8ff" d="M342.22,-111C350.85,-111 359.53,-111 367.91,-111"/>
<polygon fill="#63b8ff" stroke="#63b8ff" points="342.12,-107.5 332.12,-111 342.12,-114.5 342.12,-107.5"/>
</g>
<!-- Node5 -->
<g id="node6" class="node">
<title>Node5</title>
<g id="a_node6"><a xlink:href="de/d7b/structvanetza_1_1geonet_1_1GbcDataRequest.html" target="_top" xlink:title=" ">
<polygon fill="white" stroke="#666666" points="498,-78 368,-78 368,-48 498,-48 498,-78"/>
<text text-anchor="start" x="376" y="-66" font-family="Helvetica,sans-Serif" font-size="10.00">vanetza::geonet::GbcData</text>
<text text-anchor="middle" x="433" y="-55" font-family="Helvetica,sans-Serif" font-size="10.00">Request</text>
</a>
</g>
</g>
<!-- Node3&#45;&gt;Node5 -->
<g id="edge5" class="edge">
<title>Node3&#45;&gt;Node5</title>
<path fill="none" stroke="#63b8ff" d="M323.11,-93.21C341.14,-88.21 360.55,-82.82 377.93,-78"/>
<polygon fill="#63b8ff" stroke="#63b8ff" points="321.96,-89.9 313.26,-95.94 323.84,-96.64 321.96,-89.9"/>
</g>
</g>
</svg>
