<?xml version="1.0" encoding="UTF-8" standalone="no"?>
<!DOCTYPE svg PUBLIC "-//W3C//DTD SVG 1.1//EN"
 "http://www.w3.org/Graphics/SVG/1.1/DTD/svg11.dtd">
<!-- Generated by graphviz version 2.49.3 (0)
 -->
<!-- Title: Graphical Class Hierarchy Pages: 1 -->
<svg width="282pt" height="160pt"
 viewBox="0.00 0.00 282.00 160.00" xmlns="http://www.w3.org/2000/svg" xmlns:xlink="http://www.w3.org/1999/xlink">
<g id="graph0" class="graph" transform="scale(1 1) rotate(0) translate(4 156)">
<title>Graphical Class Hierarchy</title>
<polygon fill="white" stroke="transparent" points="-4,4 -4,-156 278,-156 278,4 -4,4"/>
<!-- Node0 -->
<g id="node1" class="node">
<title>Node0</title>
<g id="a_node1"><a xlink:title=" ">
<polygon fill="white" stroke="#bfbfbf" points="0,-66.5 0,-85.5 93,-85.5 93,-66.5 0,-66.5"/>
<text text-anchor="middle" x="46.5" y="-73.5" font-family="Helvetica,sans-Serif" font-size="10.00">Clock::time_point</text>
</a>
</g>
</g>
<!-- Node1 -->
<g id="node2" class="node">
<title>Node1</title>
<g id="a_node2"><a xlink:href="dd/df9/classvanetza_1_1geonet_1_1SoftStateMap_1_1ExpiryWithKey.html" target="_top" xlink:title=" ">
<polygon fill="white" stroke="black" points="129,-110.5 129,-151.5 274,-151.5 274,-110.5 129,-110.5"/>
<text text-anchor="start" x="137" y="-139.5" font-family="Helvetica,sans-Serif" font-size="10.00">vanetza::geonet::SoftState</text>
<text text-anchor="start" x="137" y="-128.5" font-family="Helvetica,sans-Serif" font-size="10.00">Map&lt; KEY, VALUE, CTOR &gt;</text>
<text text-anchor="middle" x="201.5" y="-117.5" font-family="Helvetica,sans-Serif" font-size="10.00">::ExpiryWithKey</text>
</a>
</g>
</g>
<!-- Node0&#45;&gt;Node1 -->
<g id="edge1" class="edge">
<title>Node0&#45;&gt;Node1</title>
<path fill="none" stroke="midnightblue" d="M83.6,-88.98C101.44,-95.39 123.38,-103.28 143.43,-110.48"/>
<polygon fill="midnightblue" stroke="midnightblue" points="84.75,-85.67 74.15,-85.58 82.38,-92.26 84.75,-85.67"/>
</g>
<!-- Node2 -->
<g id="node3" class="node">
<title>Node2</title>
<g id="a_node3"><a xlink:href="d0/d5f/structvanetza_1_1security_1_1CertificateCache_1_1Expiry.html" target="_top" xlink:title=" ">
<polygon fill="white" stroke="black" points="139,-61 139,-91 264,-91 264,-61 139,-61"/>
<text text-anchor="start" x="147" y="-79" font-family="Helvetica,sans-Serif" font-size="10.00">vanetza::security::</text>
<text text-anchor="middle" x="201.5" y="-68" font-family="Helvetica,sans-Serif" font-size="10.00">CertificateCache::Expiry</text>
</a>
</g>
</g>
<!-- Node0&#45;&gt;Node2 -->
<g id="edge2" class="edge">
<title>Node0&#45;&gt;Node2</title>
<path fill="none" stroke="midnightblue" d="M103.68,-76C115.1,-76 127.17,-76 138.78,-76"/>
<polygon fill="midnightblue" stroke="midnightblue" points="103.41,-72.5 93.41,-76 103.41,-79.5 103.41,-72.5"/>
</g>
<!-- Node3 -->
<g id="node4" class="node">
<title>Node3</title>
<g id="a_node4"><a xlink:href="d2/d1e/structvanetza_1_1security_1_1v2_1_1CertificateCache_1_1Expiry.html" target="_top" xlink:title=" ">
<polygon fill="white" stroke="black" points="148,-0.5 148,-41.5 255,-41.5 255,-0.5 148,-0.5"/>
<text text-anchor="start" x="156" y="-29.5" font-family="Helvetica,sans-Serif" font-size="10.00">vanetza::security::</text>
<text text-anchor="start" x="156" y="-18.5" font-family="Helvetica,sans-Serif" font-size="10.00">v2::CertificateCache</text>
<text text-anchor="middle" x="201.5" y="-7.5" font-family="Helvetica,sans-Serif" font-size="10.00">::Expiry</text>
</a>
</g>
</g>
<!-- Node0&#45;&gt;Node3 -->
<g id="edge3" class="edge">
<title>Node0&#45;&gt;Node3</title>
<path fill="none" stroke="midnightblue" d="M83.69,-62.99C102.84,-56.11 126.71,-47.53 147.87,-39.92"/>
<polygon fill="midnightblue" stroke="midnightblue" points="82.38,-59.74 74.15,-66.42 84.75,-66.33 82.38,-59.74"/>
</g>
</g>
</svg>
