<?xml version="1.0" encoding="UTF-8" standalone="no"?>
<!DOCTYPE svg PUBLIC "-//W3C//DTD SVG 1.1//EN"
 "http://www.w3.org/Graphics/SVG/1.1/DTD/svg11.dtd">
<!-- Generated by graphviz version 14.1.2 (0)
 -->
<!-- Title: Graphical Class Hierarchy Pages: 1 -->
<svg width="339pt" height="286pt"
 viewBox="0.00 0.00 339.00 286.00" xmlns="http://www.w3.org/2000/svg" xmlns:xlink="http://www.w3.org/1999/xlink">
<g id="graph0" class="graph" transform="scale(1 1) rotate(0) translate(4 281.5)">
<title>Graphical Class Hierarchy</title>
<!-- Node0 -->
<g id="Node000000" class="node">
<title>Node0</title>
<g id="a_Node000000"><a xlink:href="d4/dce/structvanetza_1_1convertible_1_1byte__buffer.html" target="_top" xlink:title=" ">
<polygon fill="white" stroke="#666666" points="115.75,-155.5 0,-155.5 0,-122 115.75,-122 115.75,-155.5"/>
<text xml:space="preserve" text-anchor="start" x="8" y="-142" font-family="Helvetica,sans-Serif" font-size="10.00">vanetza::convertible</text>
<text xml:space="preserve" text-anchor="middle" x="57.88" y="-129.25" font-family="Helvetica,sans-Serif" font-size="10.00">::byte_buffer</text>
</a>
</g>
</g>
<!-- Node1 -->
<g id="Node000001" class="node">
<title>Node1</title>
<g id="a_Node000001"><a xlink:href="d9/d3a/structvanetza_1_1convertible_1_1byte__buffer__impl_3_01ByteBuffer_01_4.html" target="_top" xlink:title=" ">
<polygon fill="white" stroke="#666666" points="330.5,-277.5 151.75,-277.5 151.75,-244 330.5,-244 330.5,-277.5"/>
<text xml:space="preserve" text-anchor="start" x="159.75" y="-264" font-family="Helvetica,sans-Serif" font-size="10.00">vanetza::convertible</text>
<text xml:space="preserve" text-anchor="middle" x="241.12" y="-251.25" font-family="Helvetica,sans-Serif" font-size="10.00">::byte_buffer_impl&lt; ByteBuffer &gt;</text>
</a>
</g>
</g>
<!-- Node0&#45;&gt;Node1 -->
<g id="edge66_Node000000_Node000001" class="edge">
<title>Node0&#45;&gt;Node1</title>
<g id="a_edge66_Node000000_Node000001"><a xlink:title=" ">
<path fill="none" stroke="#63b8ff" d="M77.91,-164.93C94.97,-186.6 121.85,-216.66 151.75,-234.75 157.22,-238.06 163.14,-240.97 169.24,-243.53"/>
<polygon fill="#63b8ff" stroke="#63b8ff" points="80.79,-162.94 71.93,-157.13 75.24,-167.2 80.79,-162.94"/>
</a>
</g>
</g>
<!-- Node2 -->
<g id="Node000002" class="node">
<title>Node2</title>
<g id="a_Node000002"><a xlink:href="d2/d99/structvanetza_1_1convertible_1_1byte__buffer__impl_3_01btp_1_1HeaderA_01_4.html" target="_top" xlink:title=" ">
<polygon fill="white" stroke="#666666" points="306.88,-225.88 175.38,-225.88 175.38,-179.62 306.88,-179.62 306.88,-225.88"/>
<text xml:space="preserve" text-anchor="start" x="183.38" y="-212.38" font-family="Helvetica,sans-Serif" font-size="10.00">vanetza::convertible</text>
<text xml:space="preserve" text-anchor="start" x="183.38" y="-199.62" font-family="Helvetica,sans-Serif" font-size="10.00">::byte_buffer_impl&lt; btp</text>
<text xml:space="preserve" text-anchor="middle" x="241.12" y="-186.88" font-family="Helvetica,sans-Serif" font-size="10.00">::HeaderA &gt;</text>
</a>
</g>
</g>
<!-- Node0&#45;&gt;Node2 -->
<g id="edge67_Node000000_Node000002" class="edge">
<title>Node0&#45;&gt;Node2</title>
<g id="a_edge67_Node000000_Node000002"><a xlink:title=" ">
<path fill="none" stroke="#63b8ff" d="M118.2,-159.7C136.39,-166.12 156.5,-173.22 175.05,-179.77"/>
<polygon fill="#63b8ff" stroke="#63b8ff" points="119.47,-156.43 108.87,-156.4 117.14,-163.03 119.47,-156.43"/>
</a>
</g>
</g>
<!-- Node3 -->
<g id="Node000003" class="node">
<title>Node3</title>
<g id="a_Node000003"><a xlink:href="d8/dda/structvanetza_1_1convertible_1_1byte__buffer__impl_3_01btp_1_1HeaderB_01_4.html" target="_top" xlink:title=" ">
<polygon fill="white" stroke="#666666" points="306.88,-161.88 175.38,-161.88 175.38,-115.62 306.88,-115.62 306.88,-161.88"/>
<text xml:space="preserve" text-anchor="start" x="183.38" y="-148.38" font-family="Helvetica,sans-Serif" font-size="10.00">vanetza::convertible</text>
<text xml:space="preserve" text-anchor="start" x="183.38" y="-135.62" font-family="Helvetica,sans-Serif" font-size="10.00">::byte_buffer_impl&lt; btp</text>
<text xml:space="preserve" text-anchor="middle" x="241.12" y="-122.88" font-family="Helvetica,sans-Serif" font-size="10.00">::HeaderB &gt;</text>
</a>
</g>
</g>
<!-- Node0&#45;&gt;Node3 -->
<g id="edge68_Node000000_Node000003" class="edge">
<title>Node0&#45;&gt;Node3</title>
<g id="a_edge68_Node000000_Node000003"><a xlink:title=" ">
<path fill="none" stroke="#63b8ff" d="M127.38,-138.75C142.98,-138.75 159.5,-138.75 174.95,-138.75"/>
<polygon fill="#63b8ff" stroke="#63b8ff" points="127.74,-135.25 117.74,-138.75 127.74,-142.25 127.74,-135.25"/>
</a>
</g>
</g>
<!-- Node4 -->
<g id="Node000004" class="node">
<title>Node4</title>
<g id="a_Node000004"><a xlink:href="da/dac/structvanetza_1_1convertible_1_1byte__buffer__impl_3_01geonet_1_1SecuredPdu_01_4.html" target="_top" xlink:title=" ">
<polygon fill="white" stroke="#666666" points="315.88,-97.88 166.38,-97.88 166.38,-51.62 315.88,-51.62 315.88,-97.88"/>
<text xml:space="preserve" text-anchor="start" x="174.38" y="-84.38" font-family="Helvetica,sans-Serif" font-size="10.00">vanetza::convertible</text>
<text xml:space="preserve" text-anchor="start" x="174.38" y="-71.62" font-family="Helvetica,sans-Serif" font-size="10.00">::byte_buffer_impl&lt; geonet</text>
<text xml:space="preserve" text-anchor="middle" x="241.12" y="-58.88" font-family="Helvetica,sans-Serif" font-size="10.00">::SecuredPdu &gt;</text>
</a>
</g>
</g>
<!-- Node0&#45;&gt;Node4 -->
<g id="edge69_Node000000_Node000004" class="edge">
<title>Node0&#45;&gt;Node4</title>
<g id="a_edge69_Node000000_Node000004"><a xlink:title=" ">
<path fill="none" stroke="#63b8ff" d="M118.17,-117.81C135.82,-111.58 155.27,-104.71 173.36,-98.32"/>
<polygon fill="#63b8ff" stroke="#63b8ff" points="117.14,-114.47 108.87,-121.1 119.47,-121.07 117.14,-114.47"/>
</a>
</g>
</g>
<!-- Node5 -->
<g id="Node000005" class="node">
<title>Node5</title>
<g id="a_Node000005"><a xlink:href="d7/deb/structvanetza_1_1convertible_1_1byte__buffer__impl.html" target="_top" xlink:title=" ">
<polygon fill="white" stroke="#666666" points="307.62,-33.5 174.62,-33.5 174.62,0 307.62,0 307.62,-33.5"/>
<text xml:space="preserve" text-anchor="start" x="182.62" y="-20" font-family="Helvetica,sans-Serif" font-size="10.00">vanetza::convertible</text>
<text xml:space="preserve" text-anchor="middle" x="241.12" y="-7.25" font-family="Helvetica,sans-Serif" font-size="10.00">::byte_buffer_impl&lt; T &gt;</text>
</a>
</g>
</g>
<!-- Node0&#45;&gt;Node5 -->
<g id="edge70_Node000000_Node000005" class="edge">
<title>Node0&#45;&gt;Node5</title>
<g id="a_edge70_Node000000_Node000005"><a xlink:title=" ">
<path fill="none" stroke="#63b8ff" d="M77.91,-112.57C94.97,-90.9 121.85,-60.84 151.75,-42.75 158.73,-38.53 166.43,-34.96 174.3,-31.94"/>
<polygon fill="#63b8ff" stroke="#63b8ff" points="75.24,-110.3 71.93,-120.37 80.79,-114.56 75.24,-110.3"/>
</a>
</g>
</g>
</g>
</svg>
