<?xml version="1.0" encoding="UTF-8" standalone="no"?>
<!DOCTYPE svg PUBLIC "-//W3C//DTD SVG 1.1//EN"
 "http://www.w3.org/Graphics/SVG/1.1/DTD/svg11.dtd">
<!-- Generated by graphviz version 2.49.3 (0)
 -->
<!-- Title: Graphical Class Hierarchy Pages: 1 -->
<svg width="368pt" height="235pt"
 viewBox="0.00 0.00 368.00 235.00" xmlns="http://www.w3.org/2000/svg" xmlns:xlink="http://www.w3.org/1999/xlink">
<g id="graph0" class="graph" transform="scale(1 1) rotate(0) translate(4 231)">
<title>Graphical Class Hierarchy</title>
<polygon fill="white" stroke="transparent" points="-4,4 -4,-231 364,-231 364,4 -4,4"/>
<!-- Node0 -->
<g id="node1" class="node">
<title>Node0</title>
<g id="a_node1"><a xlink:title=" ">
<polygon fill="white" stroke="#bfbfbf" points="0,-104 0,-123 77,-123 77,-104 0,-104"/>
<text text-anchor="middle" x="38.5" y="-111" font-family="Helvetica,sans-Serif" font-size="10.00">std::exception</text>
</a>
</g>
</g>
<!-- Node1 -->
<g id="node2" class="node">
<title>Node1</title>
<g id="a_node2"><a xlink:title=" ">
<polygon fill="white" stroke="#bfbfbf" points="113,-104 113,-123 206,-123 206,-104 113,-104"/>
<text text-anchor="middle" x="159.5" y="-111" font-family="Helvetica,sans-Serif" font-size="10.00">std::runtime_error</text>
</a>
</g>
</g>
<!-- Node0&#45;&gt;Node1 -->
<g id="edge1" class="edge">
<title>Node0&#45;&gt;Node1</title>
<path fill="none" stroke="midnightblue" d="M87.21,-113.5C95.63,-113.5 104.38,-113.5 112.75,-113.5"/>
<polygon fill="midnightblue" stroke="midnightblue" points="87.15,-110 77.15,-113.5 87.15,-117 87.15,-110"/>
</g>
<!-- Node2 -->
<g id="node3" class="node">
<title>Node2</title>
<g id="a_node3"><a xlink:href="dd/d11/classvanetza_1_1InputArchive_1_1Exception.html" target="_top" xlink:title=" ">
<polygon fill="white" stroke="black" points="246,-196.5 246,-226.5 356,-226.5 356,-196.5 246,-196.5"/>
<text text-anchor="start" x="254" y="-214.5" font-family="Helvetica,sans-Serif" font-size="10.00">vanetza::InputArchive</text>
<text text-anchor="middle" x="301" y="-203.5" font-family="Helvetica,sans-Serif" font-size="10.00">::Exception</text>
</a>
</g>
</g>
<!-- Node1&#45;&gt;Node2 -->
<g id="edge2" class="edge">
<title>Node1&#45;&gt;Node2</title>
<path fill="none" stroke="midnightblue" d="M176.36,-131.03C191.84,-147.34 216.7,-171.47 242,-187.5 247.15,-190.77 252.83,-193.75 258.55,-196.42"/>
<polygon fill="midnightblue" stroke="midnightblue" points="178.54,-128.24 169.16,-123.3 173.41,-133.01 178.54,-128.24"/>
</g>
<!-- Node3 -->
<g id="node4" class="node">
<title>Node3</title>
<g id="a_node4"><a xlink:href="d6/de5/classvanetza_1_1OutputArchive_1_1Exception.html" target="_top" xlink:title=" ">
<polygon fill="white" stroke="black" points="242,-147.5 242,-177.5 360,-177.5 360,-147.5 242,-147.5"/>
<text text-anchor="start" x="250" y="-165.5" font-family="Helvetica,sans-Serif" font-size="10.00">vanetza::OutputArchive</text>
<text text-anchor="middle" x="301" y="-154.5" font-family="Helvetica,sans-Serif" font-size="10.00">::Exception</text>
</a>
</g>
</g>
<!-- Node1&#45;&gt;Node3 -->
<g id="edge3" class="edge">
<title>Node1&#45;&gt;Node3</title>
<path fill="none" stroke="midnightblue" d="M197.22,-126.4C215.62,-132.86 238.01,-140.73 257.19,-147.46"/>
<polygon fill="midnightblue" stroke="midnightblue" points="198.32,-123.08 187.73,-123.06 196,-129.68 198.32,-123.08"/>
</g>
<!-- Node4 -->
<g id="node5" class="node">
<title>Node4</title>
<g id="a_node5"><a xlink:href="d6/d77/classvanetza_1_1security_1_1deserialization__error.html" target="_top" xlink:title="thrown when a deserialization error occurred">
<polygon fill="white" stroke="black" points="249,-98.5 249,-128.5 353,-128.5 353,-98.5 249,-98.5"/>
<text text-anchor="start" x="257" y="-116.5" font-family="Helvetica,sans-Serif" font-size="10.00">vanetza::security::</text>
<text text-anchor="middle" x="301" y="-105.5" font-family="Helvetica,sans-Serif" font-size="10.00">deserialization_error</text>
</a>
</g>
</g>
<!-- Node1&#45;&gt;Node4 -->
<g id="edge4" class="edge">
<title>Node1&#45;&gt;Node4</title>
<path fill="none" stroke="midnightblue" d="M216.32,-113.5C227.08,-113.5 238.31,-113.5 248.91,-113.5"/>
<polygon fill="midnightblue" stroke="midnightblue" points="216.18,-110 206.18,-113.5 216.18,-117 216.18,-110"/>
</g>
<!-- Node5 -->
<g id="node6" class="node">
<title>Node5</title>
<g id="a_node6"><a xlink:href="da/d93/classvanetza_1_1security_1_1openssl_1_1Exception.html" target="_top" xlink:title=" ">
<polygon fill="white" stroke="black" points="251.5,-49.5 251.5,-79.5 350.5,-79.5 350.5,-49.5 251.5,-49.5"/>
<text text-anchor="start" x="259.5" y="-67.5" font-family="Helvetica,sans-Serif" font-size="10.00">vanetza::security::</text>
<text text-anchor="middle" x="301" y="-56.5" font-family="Helvetica,sans-Serif" font-size="10.00">openssl::Exception</text>
</a>
</g>
</g>
<!-- Node1&#45;&gt;Node5 -->
<g id="edge5" class="edge">
<title>Node1&#45;&gt;Node5</title>
<path fill="none" stroke="midnightblue" d="M197.22,-100.6C215.62,-94.14 238.01,-86.27 257.19,-79.54"/>
<polygon fill="midnightblue" stroke="midnightblue" points="196,-97.32 187.73,-103.94 198.32,-103.92 196,-97.32"/>
</g>
<!-- Node6 -->
<g id="node7" class="node">
<title>Node6</title>
<g id="a_node7"><a xlink:href="df/db4/classvanetza_1_1security_1_1serialization__error.html" target="_top" xlink:title="thrown when a serialization error occurred">
<polygon fill="white" stroke="black" points="253,-0.5 253,-30.5 349,-30.5 349,-0.5 253,-0.5"/>
<text text-anchor="start" x="261" y="-18.5" font-family="Helvetica,sans-Serif" font-size="10.00">vanetza::security::</text>
<text text-anchor="middle" x="301" y="-7.5" font-family="Helvetica,sans-Serif" font-size="10.00">serialization_error</text>
</a>
</g>
</g>
<!-- Node1&#45;&gt;Node6 -->
<g id="edge6" class="edge">
<title>Node1&#45;&gt;Node6</title>
<path fill="none" stroke="midnightblue" d="M176.46,-96.3C192.01,-80.28 216.92,-56.53 242,-40.5 247.73,-36.84 254.08,-33.48 260.43,-30.5"/>
<polygon fill="midnightblue" stroke="midnightblue" points="173.59,-94.24 169.23,-103.89 178.66,-99.07 173.59,-94.24"/>
</g>
</g>
</svg>
