<?xml version="1.0" encoding="UTF-8" standalone="no"?>
<!DOCTYPE svg PUBLIC "-//W3C//DTD SVG 1.1//EN"
 "http://www.w3.org/Graphics/SVG/1.1/DTD/svg11.dtd">
<!-- Generated by graphviz version 2.42.1 (0)
 -->
<!-- Title: Graphical Class Hierarchy Pages: 1 -->
<svg width="259pt" height="88pt"
 viewBox="0.00 0.00 259.00 88.00" xmlns="http://www.w3.org/2000/svg" xmlns:xlink="http://www.w3.org/1999/xlink">
<g id="graph0" class="graph" transform="scale(1 1) rotate(0) translate(4 84)">
<title>Graphical Class Hierarchy</title>
<polygon fill="white" stroke="transparent" points="-4,4 -4,-84 255,-84 255,4 -4,4"/>
<!-- Node56 -->
<g id="node1" class="node">
<title>Node56</title>
<g id="a_node1"><a xlink:title=" ">
<polygon fill="white" stroke="#bfbfbf" points="0,-30 0,-49 72,-49 72,-30 0,-30"/>
<text text-anchor="middle" x="36" y="-37" font-family="Helvetica,sans-Serif" font-size="10.00">static_visitor</text>
</a>
</g>
</g>
<!-- Node0 -->
<g id="node2" class="node">
<title>Node0</title>
<g id="a_node2"><a xlink:href="d5/d3f/classvanetza_1_1asn1_1_1PacketVisitor.html" target="_top" xlink:title=" ">
<polygon fill="white" stroke="black" points="108,-49.5 108,-79.5 251,-79.5 251,-49.5 108,-49.5"/>
<text text-anchor="start" x="116" y="-67.5" font-family="Helvetica,sans-Serif" font-size="10.00">vanetza::asn1::PacketVisitor</text>
<text text-anchor="middle" x="179.5" y="-56.5" font-family="Helvetica,sans-Serif" font-size="10.00">&lt; T, DeserializeChunk &gt;</text>
</a>
</g>
</g>
<!-- Node56&#45;&gt;Node0 -->
<g id="edge1" class="edge">
<title>Node56&#45;&gt;Node0</title>
<path fill="none" stroke="midnightblue" d="M82.32,-47.51C90.44,-48.94 99.09,-50.47 107.73,-52"/>
<polygon fill="midnightblue" stroke="midnightblue" points="82.8,-44.04 72.34,-45.74 81.58,-50.93 82.8,-44.04"/>
</g>
<!-- Node58 -->
<g id="node3" class="node">
<title>Node58</title>
<g id="a_node3"><a xlink:href="dc/ddc/classvanetza_1_1geonet_1_1RepetitionDispatcher.html" target="_top" xlink:title=" ">
<polygon fill="white" stroke="black" points="111,-0.5 111,-30.5 248,-30.5 248,-0.5 111,-0.5"/>
<text text-anchor="start" x="119" y="-18.5" font-family="Helvetica,sans-Serif" font-size="10.00">vanetza::geonet::Repetition</text>
<text text-anchor="middle" x="179.5" y="-7.5" font-family="Helvetica,sans-Serif" font-size="10.00">Dispatcher</text>
</a>
</g>
</g>
<!-- Node56&#45;&gt;Node58 -->
<g id="edge2" class="edge">
<title>Node56&#45;&gt;Node58</title>
<path fill="none" stroke="midnightblue" d="M82.3,-31.82C91.39,-30.27 101.13,-28.62 110.8,-26.98"/>
<polygon fill="midnightblue" stroke="midnightblue" points="81.62,-28.38 72.34,-33.51 82.79,-35.28 81.62,-28.38"/>
</g>
</g>
</svg>
