<?xml version="1.0" encoding="UTF-8" standalone="no"?>
<!DOCTYPE svg PUBLIC "-//W3C//DTD SVG 1.1//EN"
 "http://www.w3.org/Graphics/SVG/1.1/DTD/svg11.dtd">
<!-- Generated by graphviz version 2.49.3 (0)
 -->
<!-- Title: Graphical Class Hierarchy Pages: 1 -->
<svg width="250pt" height="86pt"
 viewBox="0.00 0.00 250.00 86.00" xmlns="http://www.w3.org/2000/svg" xmlns:xlink="http://www.w3.org/1999/xlink">
<g id="graph0" class="graph" transform="scale(1 1) rotate(0) translate(4 82)">
<title>Graphical Class Hierarchy</title>
<!-- Node0 -->
<g id="Node000000" class="node">
<title>Node0</title>
<g id="a_Node000000"><a xlink:href="de/dce/classvanetza_1_1security_1_1VerifyService.html" target="_top" xlink:title=" ">
<polygon fill="white" stroke="#666666" points="96,-54 0,-54 0,-24 96,-24 96,-54"/>
<text text-anchor="start" x="8" y="-42" font-family="Helvetica,sans-Serif" font-size="10.00">vanetza::security::</text>
<text text-anchor="middle" x="48" y="-31" font-family="Helvetica,sans-Serif" font-size="10.00">VerifyService</text>
</a>
</g>
</g>
<!-- Node1 -->
<g id="Node000001" class="node">
<title>Node1</title>
<g id="a_Node000001"><a xlink:href="d7/db6/classvanetza_1_1security_1_1DummyVerifyService.html" target="_top" xlink:title=" ">
<polygon fill="white" stroke="#666666" points="242,-78 132,-78 132,-48 242,-48 242,-78"/>
<text text-anchor="start" x="140" y="-66" font-family="Helvetica,sans-Serif" font-size="10.00">vanetza::security::</text>
<text text-anchor="middle" x="187" y="-55" font-family="Helvetica,sans-Serif" font-size="10.00">DummyVerifyService</text>
</a>
</g>
</g>
<!-- Node0&#45;&gt;Node1 -->
<g id="edge150_Node000000_Node000001" class="edge">
<title>Node0&#45;&gt;Node1</title>
<g id="a_edge150_Node000000_Node000001"><a xlink:title=" ">
<path fill="none" stroke="#63b8ff" d="M106.27,-49.03C114.69,-50.51 123.34,-52.02 131.7,-53.49"/>
<polygon fill="#63b8ff" stroke="#63b8ff" points="106.6,-45.54 96.15,-47.26 105.39,-52.43 106.6,-45.54"/>
</a>
</g>
</g>
<!-- Node2 -->
<g id="Node000002" class="node">
<title>Node2</title>
<g id="a_Node000002"><a xlink:href="de/d9b/classvanetza_1_1security_1_1StraightVerifyService.html" target="_top" xlink:title=" ">
<polygon fill="white" stroke="#666666" points="241.5,-30 132.5,-30 132.5,0 241.5,0 241.5,-30"/>
<text text-anchor="start" x="140.5" y="-18" font-family="Helvetica,sans-Serif" font-size="10.00">vanetza::security::</text>
<text text-anchor="middle" x="187" y="-7" font-family="Helvetica,sans-Serif" font-size="10.00">StraightVerifyService</text>
</a>
</g>
</g>
<!-- Node0&#45;&gt;Node2 -->
<g id="edge151_Node000000_Node000002" class="edge">
<title>Node0&#45;&gt;Node2</title>
<g id="a_edge151_Node000000_Node000002"><a xlink:title=" ">
<path fill="none" stroke="#63b8ff" d="M106.13,-28.99C114.75,-27.48 123.62,-25.93 132.18,-24.43"/>
<polygon fill="#63b8ff" stroke="#63b8ff" points="105.39,-25.57 96.15,-30.74 106.6,-32.46 105.39,-25.57"/>
</a>
</g>
</g>
</g>
</svg>
