<?xml version="1.0" encoding="UTF-8" standalone="no"?>
<!DOCTYPE svg PUBLIC "-//W3C//DTD SVG 1.1//EN"
 "http://www.w3.org/Graphics/SVG/1.1/DTD/svg11.dtd">
<!-- Generated by graphviz version 2.49.3 (0)
 -->
<!-- Title: Graphical Class Hierarchy Pages: 1 -->
<svg width="310pt" height="76pt"
 viewBox="0.00 0.00 310.00 75.50" xmlns="http://www.w3.org/2000/svg" xmlns:xlink="http://www.w3.org/1999/xlink">
<g id="graph0" class="graph" transform="scale(1 1) rotate(0) translate(4 71.5)">
<title>Graphical Class Hierarchy</title>
<!-- Node0 -->
<g id="Node000000" class="node">
<title>Node0</title>
<g id="a_Node000000"><a xlink:title=" ">
<polygon fill="#e0e0e0" stroke="#999999" points="101,-45.5 0,-45.5 0,-26.5 101,-26.5 101,-45.5"/>
<text text-anchor="middle" x="50.5" y="-33.5" font-family="Helvetica,sans-Serif" font-size="10.00">boost::static_visitor</text>
</a>
</g>
</g>
<!-- Node1 -->
<g id="Node000001" class="node">
<title>Node1</title>
<g id="a_Node000001"><a xlink:href="d5/d3f/classvanetza_1_1asn1_1_1PacketVisitor.html" target="_top" xlink:title=" ">
<polygon fill="white" stroke="#666666" points="302,-67.5 137,-67.5 137,-48.5 302,-48.5 302,-67.5"/>
<text text-anchor="middle" x="219.5" y="-55.5" font-family="Helvetica,sans-Serif" font-size="10.00">vanetza::asn1::PacketVisitor&lt; T &gt;</text>
</a>
</g>
</g>
<!-- Node0&#45;&gt;Node1 -->
<g id="edge21_Node000000_Node000001" class="edge">
<title>Node0&#45;&gt;Node1</title>
<g id="a_edge21_Node000000_Node000001"><a xlink:title=" ">
<path fill="none" stroke="#63b8ff" d="M111.32,-43.88C122.61,-45.37 134.54,-46.94 146.17,-48.47"/>
<polygon fill="#63b8ff" stroke="#63b8ff" points="111.52,-40.38 101.15,-42.54 110.61,-47.32 111.52,-40.38"/>
</a>
</g>
</g>
<!-- Node2 -->
<g id="Node000002" class="node">
<title>Node2</title>
<g id="a_Node000002"><a xlink:href="dc/ddc/classvanetza_1_1geonet_1_1RepetitionDispatcher.html" target="_top" xlink:title=" ">
<polygon fill="white" stroke="#666666" points="286.5,-30 152.5,-30 152.5,0 286.5,0 286.5,-30"/>
<text text-anchor="start" x="160.5" y="-18" font-family="Helvetica,sans-Serif" font-size="10.00">vanetza::geonet::Repetition</text>
<text text-anchor="middle" x="219.5" y="-7" font-family="Helvetica,sans-Serif" font-size="10.00">Dispatcher</text>
</a>
</g>
</g>
<!-- Node0&#45;&gt;Node2 -->
<g id="edge22_Node000000_Node000002" class="edge">
<title>Node0&#45;&gt;Node2</title>
<g id="a_edge22_Node000000_Node000002"><a xlink:title=" ">
<path fill="none" stroke="#63b8ff" d="M111.16,-28.5C124.51,-26.82 138.74,-25.03 152.33,-23.32"/>
<polygon fill="#63b8ff" stroke="#63b8ff" points="110.64,-25.04 101.15,-29.76 111.51,-31.98 110.64,-25.04"/>
</a>
</g>
</g>
</g>
</svg>
