<?xml version="1.0" encoding="UTF-8" standalone="no"?>
<!DOCTYPE svg PUBLIC "-//W3C//DTD SVG 1.1//EN"
 "http://www.w3.org/Graphics/SVG/1.1/DTD/svg11.dtd">
<!-- Generated by graphviz version 2.49.3 (0)
 -->
<!-- Title: Graphical Class Hierarchy Pages: 1 -->
<svg width="386pt" height="134pt"
 viewBox="0.00 0.00 386.00 134.00" xmlns="http://www.w3.org/2000/svg" xmlns:xlink="http://www.w3.org/1999/xlink">
<g id="graph0" class="graph" transform="scale(1 1) rotate(0) translate(4 130)">
<title>Graphical Class Hierarchy</title>
<!-- Node0 -->
<g id="node1" class="node">
<title>Node0</title>
<g id="a_node1"><a xlink:href="d5/d0a/structvanetza_1_1pdu__tags_1_1pdu__tag.html" target="_top" xlink:title=" ">
<polygon fill="white" stroke="#666666" points="102,-78 0,-78 0,-48 102,-48 102,-78"/>
<text text-anchor="start" x="8" y="-66" font-family="Helvetica,sans-Serif" font-size="10.00">vanetza::pdu_tags::</text>
<text text-anchor="middle" x="51" y="-55" font-family="Helvetica,sans-Serif" font-size="10.00">pdu_tag</text>
</a>
</g>
</g>
<!-- Node1 -->
<g id="node2" class="node">
<title>Node1</title>
<g id="a_node2"><a xlink:href="db/d41/structvanetza_1_1pdu__tags_1_1empty__pdu__tag.html" target="_top" xlink:title=" ">
<polygon fill="white" stroke="#666666" points="240,-126 138,-126 138,-96 240,-96 240,-126"/>
<text text-anchor="start" x="146" y="-114" font-family="Helvetica,sans-Serif" font-size="10.00">vanetza::pdu_tags::</text>
<text text-anchor="middle" x="189" y="-103" font-family="Helvetica,sans-Serif" font-size="10.00">empty_pdu_tag</text>
</a>
</g>
</g>
<!-- Node0&#45;&gt;Node1 -->
<g id="edge1" class="edge">
<title>Node0&#45;&gt;Node1</title>
<path fill="none" stroke="#63b8ff" d="M104.37,-81.49C117.98,-86.29 132.47,-91.4 145.49,-96"/>
<polygon fill="#63b8ff" stroke="#63b8ff" points="105.25,-78.08 94.66,-78.06 102.92,-84.68 105.25,-78.08"/>
</g>
<!-- Node2 -->
<g id="node3" class="node">
<title>Node2</title>
<g id="a_node3"><a xlink:href="d0/df3/structvanetza_1_1pdu__tags_1_1mac__tag.html" target="_top" xlink:title=" ">
<polygon fill="white" stroke="#666666" points="240,-78 138,-78 138,-48 240,-48 240,-78"/>
<text text-anchor="start" x="146" y="-66" font-family="Helvetica,sans-Serif" font-size="10.00">vanetza::pdu_tags::</text>
<text text-anchor="middle" x="189" y="-55" font-family="Helvetica,sans-Serif" font-size="10.00">mac_tag</text>
</a>
</g>
</g>
<!-- Node0&#45;&gt;Node2 -->
<g id="edge2" class="edge">
<title>Node0&#45;&gt;Node2</title>
<path fill="none" stroke="#63b8ff" d="M112.51,-63C121.01,-63 129.67,-63 137.95,-63"/>
<polygon fill="#63b8ff" stroke="#63b8ff" points="112.26,-59.5 102.25,-63 112.25,-66.5 112.26,-59.5"/>
</g>
<!-- Node4 -->
<g id="node5" class="node">
<title>Node4</title>
<g id="a_node5"><a xlink:href="dd/de8/structvanetza_1_1pdu__tags_1_1phy__tag.html" target="_top" xlink:title=" ">
<polygon fill="white" stroke="#666666" points="240,-30 138,-30 138,0 240,0 240,-30"/>
<text text-anchor="start" x="146" y="-18" font-family="Helvetica,sans-Serif" font-size="10.00">vanetza::pdu_tags::</text>
<text text-anchor="middle" x="189" y="-7" font-family="Helvetica,sans-Serif" font-size="10.00">phy_tag</text>
</a>
</g>
</g>
<!-- Node0&#45;&gt;Node4 -->
<g id="edge4" class="edge">
<title>Node0&#45;&gt;Node4</title>
<path fill="none" stroke="#63b8ff" d="M104.37,-44.51C117.98,-39.71 132.47,-34.6 145.49,-30"/>
<polygon fill="#63b8ff" stroke="#63b8ff" points="102.92,-41.32 94.66,-47.94 105.25,-47.92 102.92,-41.32"/>
</g>
<!-- Node3 -->
<g id="node4" class="node">
<title>Node3</title>
<g id="a_node4"><a xlink:href="d9/df4/structvanetza_1_1pdu__tags_1_1ethernet__tag.html" target="_top" xlink:title=" ">
<polygon fill="white" stroke="#666666" points="378,-78 276,-78 276,-48 378,-48 378,-78"/>
<text text-anchor="start" x="284" y="-66" font-family="Helvetica,sans-Serif" font-size="10.00">vanetza::pdu_tags::</text>
<text text-anchor="middle" x="327" y="-55" font-family="Helvetica,sans-Serif" font-size="10.00">ethernet_tag</text>
</a>
</g>
</g>
<!-- Node2&#45;&gt;Node3 -->
<g id="edge3" class="edge">
<title>Node2&#45;&gt;Node3</title>
<path fill="none" stroke="#63b8ff" d="M250.51,-63C259.01,-63 267.67,-63 275.95,-63"/>
<polygon fill="#63b8ff" stroke="#63b8ff" points="250.26,-59.5 240.25,-63 250.25,-66.5 250.26,-59.5"/>
</g>
<!-- Node5 -->
<g id="node6" class="node">
<title>Node5</title>
<g id="a_node6"><a xlink:href="d5/d6d/structvanetza_1_1pdu__tags_1_1mk2__tag.html" target="_top" xlink:title=" ">
<polygon fill="white" stroke="#666666" points="378,-30 276,-30 276,0 378,0 378,-30"/>
<text text-anchor="start" x="284" y="-18" font-family="Helvetica,sans-Serif" font-size="10.00">vanetza::pdu_tags::</text>
<text text-anchor="middle" x="327" y="-7" font-family="Helvetica,sans-Serif" font-size="10.00">mk2_tag</text>
</a>
</g>
</g>
<!-- Node4&#45;&gt;Node5 -->
<g id="edge5" class="edge">
<title>Node4&#45;&gt;Node5</title>
<path fill="none" stroke="#63b8ff" d="M250.51,-15C259.01,-15 267.67,-15 275.95,-15"/>
<polygon fill="#63b8ff" stroke="#63b8ff" points="250.26,-11.5 240.25,-15 250.25,-18.5 250.26,-11.5"/>
</g>
</g>
</svg>
