<?xml version="1.0" encoding="UTF-8" standalone="no"?>
<!DOCTYPE svg PUBLIC "-//W3C//DTD SVG 1.1//EN"
 "http://www.w3.org/Graphics/SVG/1.1/DTD/svg11.dtd">
<!-- Generated by graphviz version 14.1.2 (0)
 -->
<!-- Title: Graphical Class Hierarchy Pages: 1 -->
<svg width="354pt" height="80pt"
 viewBox="0.00 0.00 354.00 80.00" xmlns="http://www.w3.org/2000/svg" xmlns:xlink="http://www.w3.org/1999/xlink">
<g id="graph0" class="graph" transform="scale(1 1) rotate(0) translate(4 76.12)">
<title>Graphical Class Hierarchy</title>
<!-- Node0 -->
<g id="Node000000" class="node">
<title>Node0</title>
<g id="a_Node000000"><a xlink:href="db/d5b/classvanetza_1_1dcc_1_1RequestInterface.html" target="_top" xlink:title=" ">
<polygon fill="white" stroke="#666666" points="166.75,-49.12 0,-49.12 0,-28.38 166.75,-28.38 166.75,-49.12"/>
<text xml:space="preserve" text-anchor="middle" x="83.38" y="-35.62" font-family="Helvetica,sans-Serif" font-size="10.00">vanetza::dcc::RequestInterface</text>
</a>
</g>
</g>
<!-- Node1 -->
<g id="Node000001" class="node">
<title>Node1</title>
<g id="a_Node000001"><a xlink:href="d8/da4/classvanetza_1_1dcc_1_1FlowControl.html" target="_top" xlink:title=" ">
<polygon fill="white" stroke="#666666" points="345.12,-72.12 203.12,-72.12 203.12,-51.38 345.12,-51.38 345.12,-72.12"/>
<text xml:space="preserve" text-anchor="middle" x="274.12" y="-58.62" font-family="Helvetica,sans-Serif" font-size="10.00">vanetza::dcc::FlowControl</text>
</a>
</g>
</g>
<!-- Node0&#45;&gt;Node1 -->
<g id="edge74_Node000000_Node000001" class="edge">
<title>Node0&#45;&gt;Node1</title>
<g id="a_edge74_Node000000_Node000001"><a xlink:title=" ">
<path fill="none" stroke="#63b8ff" d="M178.36,-50.2C186.58,-51.2 194.81,-52.21 202.8,-53.18"/>
<polygon fill="#63b8ff" stroke="#63b8ff" points="179.02,-46.76 168.67,-49.02 178.17,-53.71 179.02,-46.76"/>
</a>
</g>
</g>
<!-- Node2 -->
<g id="Node000002" class="node">
<title>Node2</title>
<g id="a_Node000002"><a xlink:href="d3/d6b/classvanetza_1_1dcc_1_1NullRequestInterface.html" target="_top" xlink:title=" ">
<polygon fill="white" stroke="#666666" points="345.5,-33.5 202.75,-33.5 202.75,0 345.5,0 345.5,-33.5"/>
<text xml:space="preserve" text-anchor="start" x="210.75" y="-20" font-family="Helvetica,sans-Serif" font-size="10.00">vanetza::dcc::NullRequest</text>
<text xml:space="preserve" text-anchor="middle" x="274.12" y="-7.25" font-family="Helvetica,sans-Serif" font-size="10.00">Interface</text>
</a>
</g>
</g>
<!-- Node0&#45;&gt;Node2 -->
<g id="edge75_Node000000_Node000002" class="edge">
<title>Node0&#45;&gt;Node2</title>
<g id="a_edge75_Node000000_Node000002"><a xlink:title=" ">
<path fill="none" stroke="#63b8ff" d="M178.54,-27.77C186.61,-26.83 194.67,-25.89 202.51,-24.98"/>
<polygon fill="#63b8ff" stroke="#63b8ff" points="178.19,-24.29 168.67,-28.93 179,-31.24 178.19,-24.29"/>
</a>
</g>
</g>
</g>
</svg>
