<?xml version="1.0" encoding="UTF-8" standalone="no"?>
<!DOCTYPE svg PUBLIC "-//W3C//DTD SVG 1.1//EN"
 "http://www.w3.org/Graphics/SVG/1.1/DTD/svg11.dtd">
<!-- Generated by graphviz version 2.49.3 (0)
 -->
<!-- Title: Graphical Class Hierarchy Pages: 1 -->
<svg width="332pt" height="86pt"
 viewBox="0.00 0.00 332.00 86.00" xmlns="http://www.w3.org/2000/svg" xmlns:xlink="http://www.w3.org/1999/xlink">
<g id="graph0" class="graph" transform="scale(1 1) rotate(0) translate(4 82)">
<title>Graphical Class Hierarchy</title>
<!-- Node0 -->
<g id="node1" class="node">
<title>Node0</title>
<g id="a_node1"><a xlink:href="d2/d6f/classvanetza_1_1geonet_1_1DccFieldGenerator.html" target="_top" xlink:title=" ">
<polygon fill="white" stroke="#666666" points="130,-54 0,-54 0,-24 130,-24 130,-54"/>
<text text-anchor="start" x="8" y="-42" font-family="Helvetica,sans-Serif" font-size="10.00">vanetza::geonet::DccField</text>
<text text-anchor="middle" x="65" y="-31" font-family="Helvetica,sans-Serif" font-size="10.00">Generator</text>
</a>
</g>
</g>
<!-- Node1 -->
<g id="node2" class="node">
<title>Node1</title>
<g id="a_node2"><a xlink:href="d4/d6e/classvanetza_1_1geonet_1_1DccInformationSharing.html" target="_top" xlink:title=" ">
<polygon fill="white" stroke="#666666" points="324,-78 166,-78 166,-48 324,-48 324,-78"/>
<text text-anchor="start" x="174" y="-66" font-family="Helvetica,sans-Serif" font-size="10.00">vanetza::geonet::DccInformation</text>
<text text-anchor="middle" x="245" y="-55" font-family="Helvetica,sans-Serif" font-size="10.00">Sharing</text>
</a>
</g>
</g>
<!-- Node0&#45;&gt;Node1 -->
<g id="edge1" class="edge">
<title>Node0&#45;&gt;Node1</title>
<path fill="none" stroke="#63b8ff" d="M139.98,-48.97C148.56,-50.13 157.33,-51.31 165.97,-52.48"/>
<polygon fill="#63b8ff" stroke="#63b8ff" points="140.39,-45.5 130.01,-47.63 139.45,-52.44 140.39,-45.5"/>
</g>
<!-- Node2 -->
<g id="node3" class="node">
<title>Node2</title>
<g id="a_node3"><a xlink:href="d1/dd1/classvanetza_1_1geonet_1_1NullDccFieldGenerator.html" target="_top" xlink:title=" ">
<polygon fill="white" stroke="#666666" points="308,-30 182,-30 182,0 308,0 308,-30"/>
<text text-anchor="start" x="190" y="-18" font-family="Helvetica,sans-Serif" font-size="10.00">vanetza::geonet::NullDcc</text>
<text text-anchor="middle" x="245" y="-7" font-family="Helvetica,sans-Serif" font-size="10.00">FieldGenerator</text>
</a>
</g>
</g>
<!-- Node0&#45;&gt;Node2 -->
<g id="edge2" class="edge">
<title>Node0&#45;&gt;Node2</title>
<path fill="none" stroke="#63b8ff" d="M140.01,-29.02C153.89,-27.15 168.27,-25.21 181.75,-23.39"/>
<polygon fill="#63b8ff" stroke="#63b8ff" points="139.45,-25.56 130.01,-30.37 140.39,-32.5 139.45,-25.56"/>
</g>
</g>
</svg>
