<?xml version="1.0" encoding="UTF-8" standalone="no"?>
<!DOCTYPE svg PUBLIC "-//W3C//DTD SVG 1.1//EN"
 "http://www.w3.org/Graphics/SVG/1.1/DTD/svg11.dtd">
<!-- Generated by graphviz version 2.49.3 (0)
 -->
<!-- Title: Graphical Class Hierarchy Pages: 1 -->
<svg width="269pt" height="101pt"
 viewBox="0.00 0.00 269.00 101.00" xmlns="http://www.w3.org/2000/svg" xmlns:xlink="http://www.w3.org/1999/xlink">
<g id="graph0" class="graph" transform="scale(1 1) rotate(0) translate(4 97)">
<title>Graphical Class Hierarchy</title>
<!-- Node0 -->
<g id="Node000000" class="node">
<title>Node0</title>
<g id="a_Node000000"><a xlink:href="d9/d97/classvanetza_1_1dcc_1_1State.html" target="_top" xlink:title=" ">
<polygon fill="white" stroke="#666666" points="101,-56 0,-56 0,-37 101,-37 101,-56"/>
<text text-anchor="middle" x="50.5" y="-44" font-family="Helvetica,sans-Serif" font-size="10.00">vanetza::dcc::State</text>
</a>
</g>
</g>
<!-- Node1 -->
<g id="Node000001" class="node">
<title>Node1</title>
<g id="a_Node000001"><a xlink:href="de/d96/classvanetza_1_1dcc_1_1Active.html" target="_top" xlink:title=" ">
<polygon fill="white" stroke="#666666" points="251.5,-93 146.5,-93 146.5,-74 251.5,-74 251.5,-93"/>
<text text-anchor="middle" x="199" y="-81" font-family="Helvetica,sans-Serif" font-size="10.00">vanetza::dcc::Active</text>
</a>
</g>
</g>
<!-- Node0&#45;&gt;Node1 -->
<g id="edge77_Node000000_Node000001" class="edge">
<title>Node0&#45;&gt;Node1</title>
<g id="a_edge77_Node000000_Node000001"><a xlink:title=" ">
<path fill="none" stroke="#63b8ff" d="M98.99,-58.49C118.8,-63.5 141.49,-69.23 160.15,-73.94"/>
<polygon fill="#63b8ff" stroke="#63b8ff" points="99.78,-55.08 89.23,-56.03 98.07,-61.87 99.78,-55.08"/>
</a>
</g>
</g>
<!-- Node2 -->
<g id="Node000002" class="node">
<title>Node2</title>
<g id="a_Node000002"><a xlink:href="da/d03/classvanetza_1_1dcc_1_1Relaxed.html" target="_top" xlink:title=" ">
<polygon fill="white" stroke="#666666" points="255.5,-56 142.5,-56 142.5,-37 255.5,-37 255.5,-56"/>
<text text-anchor="middle" x="199" y="-44" font-family="Helvetica,sans-Serif" font-size="10.00">vanetza::dcc::Relaxed</text>
</a>
</g>
</g>
<!-- Node0&#45;&gt;Node2 -->
<g id="edge78_Node000000_Node000002" class="edge">
<title>Node0&#45;&gt;Node2</title>
<g id="a_edge78_Node000000_Node000002"><a xlink:title=" ">
<path fill="none" stroke="#63b8ff" d="M111.25,-46.5C121.55,-46.5 132.22,-46.5 142.41,-46.5"/>
<polygon fill="#63b8ff" stroke="#63b8ff" points="111.1,-43 101.1,-46.5 111.1,-50 111.1,-43"/>
</a>
</g>
</g>
<!-- Node3 -->
<g id="Node000003" class="node">
<title>Node3</title>
<g id="a_Node000003"><a xlink:href="de/d46/classvanetza_1_1dcc_1_1Restrictive.html" target="_top" xlink:title=" ">
<polygon fill="white" stroke="#666666" points="261,-19 137,-19 137,0 261,0 261,-19"/>
<text text-anchor="middle" x="199" y="-7" font-family="Helvetica,sans-Serif" font-size="10.00">vanetza::dcc::Restrictive</text>
</a>
</g>
</g>
<!-- Node0&#45;&gt;Node3 -->
<g id="edge79_Node000000_Node000003" class="edge">
<title>Node0&#45;&gt;Node3</title>
<g id="a_edge79_Node000000_Node000003"><a xlink:title=" ">
<path fill="none" stroke="#63b8ff" d="M98.99,-34.51C118.8,-29.5 141.49,-23.77 160.15,-19.06"/>
<polygon fill="#63b8ff" stroke="#63b8ff" points="98.07,-31.13 89.23,-36.97 99.78,-37.92 98.07,-31.13"/>
</a>
</g>
</g>
</g>
</svg>
