<?xml version="1.0" encoding="UTF-8" standalone="no"?>
<!DOCTYPE svg PUBLIC "-//W3C//DTD SVG 1.1//EN"
 "http://www.w3.org/Graphics/SVG/1.1/DTD/svg11.dtd">
<!-- Generated by graphviz version 2.49.3 (0)
 -->
<!-- Title: Graphical Class Hierarchy Pages: 1 -->
<svg width="465pt" height="389pt"
 viewBox="0.00 0.00 465.00 389.00" xmlns="http://www.w3.org/2000/svg" xmlns:xlink="http://www.w3.org/1999/xlink">
<g id="graph0" class="graph" transform="scale(1 1) rotate(0) translate(4 385)">
<title>Graphical Class Hierarchy</title>
<polygon fill="white" stroke="transparent" points="-4,4 -4,-385 461,-385 461,4 -4,4"/>
<!-- Node0 -->
<g id="node1" class="node">
<title>Node0</title>
<g id="a_node1"><a xlink:title=" ">
<polygon fill="white" stroke="#bfbfbf" points="15.5,-356 15.5,-375 94.5,-375 94.5,-356 15.5,-356"/>
<text text-anchor="middle" x="55" y="-363" font-family="Helvetica,sans-Serif" font-size="10.00">boost::additive</text>
</a>
</g>
</g>
<!-- Node1 -->
<g id="node2" class="node">
<title>Node1</title>
<g id="a_node2"><a xlink:href="de/d8f/classvanetza_1_1geonet_1_1SequenceNumber.html" target="_top" xlink:title=" ">
<polygon fill="white" stroke="black" points="149,-350.5 149,-380.5 283,-380.5 283,-350.5 149,-350.5"/>
<text text-anchor="start" x="157" y="-368.5" font-family="Helvetica,sans-Serif" font-size="10.00">vanetza::geonet::Sequence</text>
<text text-anchor="middle" x="216" y="-357.5" font-family="Helvetica,sans-Serif" font-size="10.00">Number</text>
</a>
</g>
</g>
<!-- Node0&#45;&gt;Node1 -->
<g id="edge1" class="edge">
<title>Node0&#45;&gt;Node1</title>
<path fill="none" stroke="midnightblue" d="M105.16,-365.5C119,-365.5 134.28,-365.5 148.93,-365.5"/>
<polygon fill="midnightblue" stroke="midnightblue" points="104.9,-362 94.9,-365.5 104.9,-369 104.9,-362"/>
</g>
<!-- Node10 -->
<g id="node3" class="node">
<title>Node10</title>
<g id="a_node3"><a xlink:title=" ">
<polygon fill="white" stroke="#bfbfbf" points="10.5,-312 10.5,-331 99.5,-331 99.5,-312 10.5,-312"/>
<text text-anchor="middle" x="55" y="-319" font-family="Helvetica,sans-Serif" font-size="10.00">boost::arithmetic</text>
</a>
</g>
</g>
<!-- Node8 -->
<g id="node4" class="node">
<title>Node8</title>
<g id="a_node4"><a xlink:href="d4/d40/classvanetza_1_1UnitInterval.html" target="_top" xlink:title=" ">
<polygon fill="white" stroke="black" points="162.5,-312 162.5,-331 269.5,-331 269.5,-312 162.5,-312"/>
<text text-anchor="middle" x="216" y="-319" font-family="Helvetica,sans-Serif" font-size="10.00">vanetza::UnitInterval</text>
</a>
</g>
</g>
<!-- Node10&#45;&gt;Node8 -->
<g id="edge2" class="edge">
<title>Node10&#45;&gt;Node8</title>
<path fill="none" stroke="#8b1a1a" d="M110.1,-321.5C126.94,-321.5 145.48,-321.5 162.23,-321.5"/>
<polygon fill="#8b1a1a" stroke="#8b1a1a" points="109.87,-318 99.87,-321.5 109.87,-325 109.87,-318"/>
</g>
<!-- Node9 -->
<g id="node5" class="node">
<title>Node9</title>
<g id="a_node5"><a xlink:href="dc/d86/classvanetza_1_1dcc_1_1ChannelLoad.html" target="_top" xlink:title=" ">
<polygon fill="white" stroke="black" points="322,-312 322,-331 457,-331 457,-312 322,-312"/>
<text text-anchor="middle" x="389.5" y="-319" font-family="Helvetica,sans-Serif" font-size="10.00">vanetza::dcc::ChannelLoad</text>
</a>
</g>
</g>
<!-- Node8&#45;&gt;Node9 -->
<g id="edge3" class="edge">
<title>Node8&#45;&gt;Node9</title>
<path fill="none" stroke="midnightblue" d="M280.08,-321.5C293.7,-321.5 308.13,-321.5 321.88,-321.5"/>
<polygon fill="midnightblue" stroke="midnightblue" points="279.86,-318 269.86,-321.5 279.86,-325 279.86,-318"/>
</g>
<!-- Node2 -->
<g id="node6" class="node">
<title>Node2</title>
<g id="a_node6"><a xlink:title=" ">
<polygon fill="white" stroke="#bfbfbf" points="0,-170 0,-189 110,-189 110,-170 0,-170"/>
<text text-anchor="middle" x="55" y="-177" font-family="Helvetica,sans-Serif" font-size="10.00">boost::totally_ordered</text>
</a>
</g>
</g>
<!-- Node2&#45;&gt;Node1 -->
<g id="edge11" class="edge">
<title>Node2&#45;&gt;Node1</title>
<path fill="none" stroke="midnightblue" d="M61.85,-198.93C72.9,-232.47 99.96,-301.38 146,-340.5 150.56,-344.38 155.78,-347.67 161.25,-350.47"/>
<polygon fill="midnightblue" stroke="midnightblue" points="65.06,-197.49 58.71,-189.01 58.39,-199.6 65.06,-197.49"/>
</g>
<!-- Node2&#45;&gt;Node8 -->
<g id="edge9" class="edge">
<title>Node2&#45;&gt;Node8</title>
<path fill="none" stroke="#8b1a1a" d="M64.81,-198.21C78.43,-225.1 107.13,-274.41 146,-301.5 152.24,-305.85 159.43,-309.26 166.75,-311.94"/>
<polygon fill="#8b1a1a" stroke="#8b1a1a" points="67.88,-196.53 60.34,-189.09 61.6,-199.61 67.88,-196.53"/>
</g>
<!-- Node3 -->
<g id="node7" class="node">
<title>Node3</title>
<g id="a_node7"><a xlink:href="dd/dba/classvanetza_1_1BitNumber.html" target="_top" xlink:title=" ">
<polygon fill="white" stroke="black" points="164.5,-0.5 164.5,-30.5 267.5,-30.5 267.5,-0.5 164.5,-0.5"/>
<text text-anchor="start" x="172.5" y="-18.5" font-family="Helvetica,sans-Serif" font-size="10.00">vanetza::BitNumber</text>
<text text-anchor="middle" x="216" y="-7.5" font-family="Helvetica,sans-Serif" font-size="10.00">&lt; unsigned, 10 &gt;</text>
</a>
</g>
</g>
<!-- Node2&#45;&gt;Node3 -->
<g id="edge4" class="edge">
<title>Node2&#45;&gt;Node3</title>
<path fill="none" stroke="midnightblue" d="M63.64,-160.26C76.38,-130.5 104.72,-73.33 146,-40.5 151.48,-36.14 157.8,-32.5 164.33,-29.47"/>
<polygon fill="midnightblue" stroke="midnightblue" points="60.24,-159.3 59.65,-169.88 66.71,-161.98 60.24,-159.3"/>
</g>
<!-- Node4 -->
<g id="node8" class="node">
<title>Node4</title>
<g id="a_node8"><a xlink:href="dd/dba/classvanetza_1_1BitNumber.html" target="_top" xlink:title=" ">
<polygon fill="white" stroke="black" points="164.5,-262.5 164.5,-292.5 267.5,-292.5 267.5,-262.5 164.5,-262.5"/>
<text text-anchor="start" x="172.5" y="-280.5" font-family="Helvetica,sans-Serif" font-size="10.00">vanetza::BitNumber</text>
<text text-anchor="middle" x="216" y="-269.5" font-family="Helvetica,sans-Serif" font-size="10.00">&lt; unsigned, 4 &gt;</text>
</a>
</g>
</g>
<!-- Node2&#45;&gt;Node4 -->
<g id="edge5" class="edge">
<title>Node2&#45;&gt;Node4</title>
<path fill="none" stroke="midnightblue" d="M73.26,-196.49C90.49,-212.68 118.31,-236.84 146,-252.5 152.54,-256.2 159.74,-259.52 166.93,-262.44"/>
<polygon fill="midnightblue" stroke="midnightblue" points="75.35,-193.64 65.71,-189.25 70.51,-198.7 75.35,-193.64"/>
</g>
<!-- Node5 -->
<g id="node9" class="node">
<title>Node5</title>
<g id="a_node9"><a xlink:href="dd/dba/classvanetza_1_1BitNumber.html" target="_top" xlink:title=" ">
<polygon fill="white" stroke="black" points="164.5,-213.5 164.5,-243.5 267.5,-243.5 267.5,-213.5 164.5,-213.5"/>
<text text-anchor="start" x="172.5" y="-231.5" font-family="Helvetica,sans-Serif" font-size="10.00">vanetza::BitNumber</text>
<text text-anchor="middle" x="216" y="-220.5" font-family="Helvetica,sans-Serif" font-size="10.00">&lt; unsigned, 5 &gt;</text>
</a>
</g>
</g>
<!-- Node2&#45;&gt;Node5 -->
<g id="edge6" class="edge">
<title>Node2&#45;&gt;Node5</title>
<path fill="none" stroke="midnightblue" d="M96.7,-192.04C117.89,-198.57 143.94,-206.6 166.21,-213.46"/>
<polygon fill="midnightblue" stroke="midnightblue" points="97.62,-188.66 87.03,-189.06 95.56,-195.35 97.62,-188.66"/>
</g>
<!-- Node6 -->
<g id="node10" class="node">
<title>Node6</title>
<g id="a_node10"><a xlink:href="dd/dba/classvanetza_1_1BitNumber.html" target="_top" xlink:title=" ">
<polygon fill="white" stroke="black" points="164.5,-164.5 164.5,-194.5 267.5,-194.5 267.5,-164.5 164.5,-164.5"/>
<text text-anchor="start" x="172.5" y="-182.5" font-family="Helvetica,sans-Serif" font-size="10.00">vanetza::BitNumber</text>
<text text-anchor="middle" x="216" y="-171.5" font-family="Helvetica,sans-Serif" font-size="10.00">&lt; T, WIDTH &gt;</text>
</a>
</g>
</g>
<!-- Node2&#45;&gt;Node6 -->
<g id="edge7" class="edge">
<title>Node2&#45;&gt;Node6</title>
<path fill="none" stroke="midnightblue" d="M120.31,-179.5C135.01,-179.5 150.42,-179.5 164.45,-179.5"/>
<polygon fill="midnightblue" stroke="midnightblue" points="120.27,-176 110.27,-179.5 120.27,-183 120.27,-176"/>
</g>
<!-- Node7 -->
<g id="node11" class="node">
<title>Node7</title>
<g id="a_node11"><a xlink:href="db/da9/classvanetza_1_1MacAddress.html" target="_top" xlink:title=" ">
<polygon fill="white" stroke="black" points="160.5,-126 160.5,-145 271.5,-145 271.5,-126 160.5,-126"/>
<text text-anchor="middle" x="216" y="-133" font-family="Helvetica,sans-Serif" font-size="10.00">vanetza::MacAddress</text>
</a>
</g>
</g>
<!-- Node2&#45;&gt;Node7 -->
<g id="edge8" class="edge">
<title>Node2&#45;&gt;Node7</title>
<path fill="none" stroke="midnightblue" d="M100,-167.26C114.63,-163.19 131.01,-158.64 146,-154.5 157.14,-151.42 169.29,-148.07 180.25,-145.05"/>
<polygon fill="midnightblue" stroke="midnightblue" points="98.88,-163.93 90.18,-169.98 100.76,-170.68 98.88,-163.93"/>
</g>
<!-- Node11 -->
<g id="node12" class="node">
<title>Node11</title>
<g id="a_node12"><a xlink:href="d7/d9a/classvanetza_1_1geonet_1_1Lifetime.html" target="_top" xlink:title=" ">
<polygon fill="white" stroke="black" points="153.5,-88 153.5,-107 278.5,-107 278.5,-88 153.5,-88"/>
<text text-anchor="middle" x="216" y="-95" font-family="Helvetica,sans-Serif" font-size="10.00">vanetza::geonet::Lifetime</text>
</a>
</g>
</g>
<!-- Node2&#45;&gt;Node11 -->
<g id="edge10" class="edge">
<title>Node2&#45;&gt;Node11</title>
<path fill="none" stroke="midnightblue" d="M74.88,-163.37C92.31,-149.22 119.45,-128.99 146,-116.5 153.98,-112.74 162.84,-109.61 171.48,-107.04"/>
<polygon fill="midnightblue" stroke="midnightblue" points="72.62,-160.7 67.14,-169.77 77.08,-166.09 72.62,-160.7"/>
</g>
<!-- Node12 -->
<g id="node13" class="node">
<title>Node12</title>
<g id="a_node13"><a xlink:href="d0/dc8/classvanetza_1_1geonet_1_1Timestamp.html" target="_top" xlink:title=" ">
<polygon fill="white" stroke="black" points="146,-50 146,-69 286,-69 286,-50 146,-50"/>
<text text-anchor="middle" x="216" y="-57" font-family="Helvetica,sans-Serif" font-size="10.00">vanetza::geonet::Timestamp</text>
</a>
</g>
</g>
<!-- Node2&#45;&gt;Node12 -->
<g id="edge12" class="edge">
<title>Node2&#45;&gt;Node12</title>
<path fill="none" stroke="midnightblue" d="M67.32,-161.35C82.47,-138.59 111.46,-99.96 146,-78.5 152.23,-74.63 159.25,-71.54 166.37,-69.07"/>
<polygon fill="midnightblue" stroke="midnightblue" points="64.37,-159.47 61.87,-169.77 70.25,-163.28 64.37,-159.47"/>
</g>
</g>
</svg>
