<?xml version="1.0" encoding="UTF-8" standalone="no"?>
<!DOCTYPE svg PUBLIC "-//W3C//DTD SVG 1.1//EN"
 "http://www.w3.org/Graphics/SVG/1.1/DTD/svg11.dtd">
<!-- Generated by graphviz version 2.49.3 (0)
 -->
<!-- Title: Graphical Class Hierarchy Pages: 1 -->
<svg width="503pt" height="101pt"
 viewBox="0.00 0.00 503.00 100.66" xmlns="http://www.w3.org/2000/svg" xmlns:xlink="http://www.w3.org/1999/xlink">
<g id="graph0" class="graph" transform="scale(1 1) rotate(0) translate(4 96.66)">
<title>Graphical Class Hierarchy</title>
<!-- Node0 -->
<g id="Node000000" class="node">
<title>Node0</title>
<g id="a_Node000000"><a xlink:href="db/d2d/classvanetza_1_1geonet_1_1CbfCounter.html" target="_top" xlink:title=" ">
<polygon fill="white" stroke="#666666" points="141,-72.5 0,-72.5 0,-53.5 141,-53.5 141,-72.5"/>
<text text-anchor="middle" x="70.5" y="-60.5" font-family="Helvetica,sans-Serif" font-size="10.00">vanetza::geonet::CbfCounter</text>
</a>
</g>
</g>
<!-- Node1 -->
<g id="Node000001" class="node">
<title>Node1</title>
<g id="a_Node000001"><a xlink:href="da/d5f/classvanetza_1_1geonet_1_1CbfCounterContending.html" target="_top" xlink:title=" ">
<polygon fill="white" stroke="#666666" points="495,-75 354,-75 354,-45 495,-45 495,-75"/>
<text text-anchor="start" x="362" y="-63" font-family="Helvetica,sans-Serif" font-size="10.00">vanetza::geonet::CbfCounter</text>
<text text-anchor="middle" x="424.5" y="-52" font-family="Helvetica,sans-Serif" font-size="10.00">Contending</text>
</a>
</g>
</g>
<!-- Node0&#45;&gt;Node1 -->
<g id="edge89_Node000000_Node000001" class="edge">
<title>Node0&#45;&gt;Node1</title>
<g id="a_edge89_Node000000_Node000001"><a xlink:title=" ">
<path fill="none" stroke="#63b8ff" d="M114.73,-75.13C133.68,-79.85 156.27,-84.67 177,-87 239.28,-93.99 255.82,-94.83 318,-87 337.04,-84.6 357.57,-79.86 375.41,-75.01"/>
<polygon fill="#63b8ff" stroke="#63b8ff" points="115.46,-71.71 104.91,-72.61 113.72,-78.49 115.46,-71.71"/>
</a>
</g>
</g>
<!-- Node3 -->
<g id="Node000003" class="node">
<title>Node3</title>
<g id="a_Node000003"><a xlink:href="d4/d50/classvanetza_1_1geonet_1_1CbfCounterFading.html" target="_top" xlink:title=" ">
<polygon fill="white" stroke="#666666" points="318,-78 177,-78 177,-48 318,-48 318,-78"/>
<text text-anchor="start" x="185" y="-66" font-family="Helvetica,sans-Serif" font-size="10.00">vanetza::geonet::CbfCounter</text>
<text text-anchor="middle" x="247.5" y="-55" font-family="Helvetica,sans-Serif" font-size="10.00">Fading</text>
</a>
</g>
</g>
<!-- Node0&#45;&gt;Node3 -->
<g id="edge90_Node000000_Node000003" class="edge">
<title>Node0&#45;&gt;Node3</title>
<g id="a_edge90_Node000000_Node000003"><a xlink:title=" ">
<path fill="none" stroke="#63b8ff" d="M151.42,-63C159.89,-63 168.45,-63 176.79,-63"/>
<polygon fill="#63b8ff" stroke="#63b8ff" points="151.17,-59.5 141.17,-63 151.17,-66.5 151.17,-59.5"/>
</a>
</g>
</g>
<!-- Node2 -->
<g id="Node000002" class="node">
<title>Node2</title>
<g id="a_Node000002"><a xlink:href="db/d11/classvanetza_1_1geonet_1_1CbfCounterImmortal.html" target="_top" xlink:title=" ">
<polygon fill="white" stroke="#666666" points="318,-30 177,-30 177,0 318,0 318,-30"/>
<text text-anchor="start" x="185" y="-18" font-family="Helvetica,sans-Serif" font-size="10.00">vanetza::geonet::CbfCounter</text>
<text text-anchor="middle" x="247.5" y="-7" font-family="Helvetica,sans-Serif" font-size="10.00">Immortal</text>
</a>
</g>
</g>
<!-- Node0&#45;&gt;Node2 -->
<g id="edge91_Node000000_Node000002" class="edge">
<title>Node0&#45;&gt;Node2</title>
<g id="a_edge91_Node000000_Node000002"><a xlink:title=" ">
<path fill="none" stroke="#63b8ff" d="M116.3,-50.71C139.24,-44.42 167.35,-36.71 191.58,-30.06"/>
<polygon fill="#63b8ff" stroke="#63b8ff" points="115.21,-47.38 106.49,-53.4 117.06,-54.13 115.21,-47.38"/>
</a>
</g>
</g>
<!-- Node2&#45;&gt;Node1 -->
<g id="edge92_Node000002_Node000001" class="edge">
<title>Node2&#45;&gt;Node1</title>
<g id="a_edge92_Node000002_Node000001"><a xlink:title=" ">
<path fill="none" stroke="#8b1a1a" d="M316.99,-32.61C332.82,-36.68 349.53,-40.98 364.9,-44.93"/>
<polygon fill="#8b1a1a" stroke="#8b1a1a" points="317.82,-29.21 307.26,-30.11 316.07,-35.99 317.82,-29.21"/>
</a>
</g>
</g>
</g>
</svg>
