<?xml version="1.0" encoding="UTF-8" standalone="no"?>
<!DOCTYPE svg PUBLIC "-//W3C//DTD SVG 1.1//EN"
 "http://www.w3.org/Graphics/SVG/1.1/DTD/svg11.dtd">
<!-- Generated by graphviz version 2.49.3 (0)
 -->
<!-- Title: Graphical Class Hierarchy Pages: 1 -->
<svg width="282pt" height="108pt"
 viewBox="0.00 0.00 282.00 108.00" xmlns="http://www.w3.org/2000/svg" xmlns:xlink="http://www.w3.org/1999/xlink">
<g id="graph0" class="graph" transform="scale(1 1) rotate(0) translate(4 104)">
<title>Graphical Class Hierarchy</title>
<!-- Node0 -->
<g id="node1" class="node">
<title>Node0</title>
<g id="a_node1"><a xlink:title=" ">
<polygon fill="#e0e0e0" stroke="#999999" points="93,-59 0,-59 0,-40 93,-40 93,-59"/>
<text text-anchor="middle" x="46.5" y="-47" font-family="Helvetica,sans-Serif" font-size="10.00">Clock::time_point</text>
</a>
</g>
</g>
<!-- Node1 -->
<g id="node2" class="node">
<title>Node1</title>
<g id="a_node2"><a xlink:href="dd/df9/classvanetza_1_1geonet_1_1SoftStateMap_1_1ExpiryWithKey.html" target="_top" xlink:title=" ">
<polygon fill="white" stroke="#666666" points="274,-100 129,-100 129,-59 274,-59 274,-100"/>
<text text-anchor="start" x="137" y="-88" font-family="Helvetica,sans-Serif" font-size="10.00">vanetza::geonet::SoftState</text>
<text text-anchor="start" x="137" y="-77" font-family="Helvetica,sans-Serif" font-size="10.00">Map&lt; KEY, VALUE, CTOR &gt;</text>
<text text-anchor="middle" x="201.5" y="-66" font-family="Helvetica,sans-Serif" font-size="10.00">::ExpiryWithKey</text>
</a>
</g>
</g>
<!-- Node0&#45;&gt;Node1 -->
<g id="edge1" class="edge">
<title>Node0&#45;&gt;Node1</title>
<path fill="none" stroke="#63b8ff" d="M103.33,-60.45C111.64,-62.08 120.29,-63.77 128.87,-65.45"/>
<polygon fill="#63b8ff" stroke="#63b8ff" points="103.89,-56.99 93.41,-58.5 102.54,-63.86 103.89,-56.99"/>
</g>
<!-- Node2 -->
<g id="node3" class="node">
<title>Node2</title>
<g id="a_node3"><a xlink:href="d2/d1e/structvanetza_1_1security_1_1v2_1_1CertificateCache_1_1Expiry.html" target="_top" xlink:title=" ">
<polygon fill="white" stroke="#666666" points="255,-41 148,-41 148,0 255,0 255,-41"/>
<text text-anchor="start" x="156" y="-29" font-family="Helvetica,sans-Serif" font-size="10.00">vanetza::security::</text>
<text text-anchor="start" x="156" y="-18" font-family="Helvetica,sans-Serif" font-size="10.00">v2::CertificateCache</text>
<text text-anchor="middle" x="201.5" y="-7" font-family="Helvetica,sans-Serif" font-size="10.00">::Expiry</text>
</a>
</g>
</g>
<!-- Node0&#45;&gt;Node2 -->
<g id="edge2" class="edge">
<title>Node0&#45;&gt;Node2</title>
<path fill="none" stroke="#63b8ff" d="M103.29,-38.93C117.86,-36.16 133.52,-33.2 147.91,-30.47"/>
<polygon fill="#63b8ff" stroke="#63b8ff" points="102.58,-35.5 93.41,-40.8 103.88,-42.38 102.58,-35.5"/>
</g>
</g>
</svg>
