<?xml version="1.0" encoding="UTF-8" standalone="no"?>
<!DOCTYPE svg PUBLIC "-//W3C//DTD SVG 1.1//EN"
 "http://www.w3.org/Graphics/SVG/1.1/DTD/svg11.dtd">
<!-- Generated by graphviz version 2.49.3 (0)
 -->
<!-- Title: Graphical Class Hierarchy Pages: 1 -->
<svg width="499pt" height="137pt"
 viewBox="0.00 0.00 499.00 137.00" xmlns="http://www.w3.org/2000/svg" xmlns:xlink="http://www.w3.org/1999/xlink">
<g id="graph0" class="graph" transform="scale(1 1) rotate(0) translate(4 133)">
<title>Graphical Class Hierarchy</title>
<polygon fill="white" stroke="transparent" points="-4,4 -4,-133 495,-133 495,4 -4,4"/>
<!-- Node0 -->
<g id="node1" class="node">
<title>Node0</title>
<g id="a_node1"><a xlink:href="d2/d13/classvanetza_1_1dcc_1_1TransmitRateFeedback.html" target="_top" xlink:title=" ">
<polygon fill="white" stroke="black" points="0,-74.5 0,-104.5 136,-104.5 136,-74.5 0,-74.5"/>
<text text-anchor="start" x="8" y="-92.5" font-family="Helvetica,sans-Serif" font-size="10.00">vanetza::dcc::TransmitRate</text>
<text text-anchor="middle" x="68" y="-81.5" font-family="Helvetica,sans-Serif" font-size="10.00">Feedback</text>
</a>
</g>
</g>
<!-- Node1 -->
<g id="node2" class="node">
<title>Node1</title>
<g id="a_node2"><a xlink:href="de/d9c/classvanetza_1_1dcc_1_1TransmitRateControl.html" target="_top" xlink:title=" ">
<polygon fill="white" stroke="black" points="172,-49.5 172,-79.5 308,-79.5 308,-49.5 172,-49.5"/>
<text text-anchor="start" x="180" y="-67.5" font-family="Helvetica,sans-Serif" font-size="10.00">vanetza::dcc::TransmitRate</text>
<text text-anchor="middle" x="240" y="-56.5" font-family="Helvetica,sans-Serif" font-size="10.00">Control</text>
</a>
</g>
</g>
<!-- Node0&#45;&gt;Node1 -->
<g id="edge1" class="edge">
<title>Node0&#45;&gt;Node1</title>
<path fill="none" stroke="midnightblue" d="M146.15,-78.15C154.69,-76.9 163.34,-75.63 171.74,-74.39"/>
<polygon fill="midnightblue" stroke="midnightblue" points="145.57,-74.7 136.19,-79.62 146.59,-81.63 145.57,-74.7"/>
</g>
<!-- Node2 -->
<g id="node3" class="node">
<title>Node2</title>
<g id="a_node3"><a xlink:href="d1/d1c/classvanetza_1_1dcc_1_1BurstyTransmitRateControl.html" target="_top" xlink:title=" ">
<polygon fill="white" stroke="black" points="345.5,-98.5 345.5,-128.5 489.5,-128.5 489.5,-98.5 345.5,-98.5"/>
<text text-anchor="start" x="353.5" y="-116.5" font-family="Helvetica,sans-Serif" font-size="10.00">vanetza::dcc::BurstyTransmit</text>
<text text-anchor="middle" x="417.5" y="-105.5" font-family="Helvetica,sans-Serif" font-size="10.00">RateControl</text>
</a>
</g>
</g>
<!-- Node1&#45;&gt;Node2 -->
<g id="edge2" class="edge">
<title>Node1&#45;&gt;Node2</title>
<path fill="none" stroke="midnightblue" d="M304.83,-82.32C323.78,-87.61 344.34,-93.35 362.59,-98.45"/>
<polygon fill="midnightblue" stroke="midnightblue" points="305.66,-78.92 295.09,-79.6 303.78,-85.66 305.66,-78.92"/>
</g>
<!-- Node3 -->
<g id="node4" class="node">
<title>Node3</title>
<g id="a_node4"><a xlink:href="df/d62/classvanetza_1_1dcc_1_1LimericTransmitRateControl.html" target="_top" xlink:title=" ">
<polygon fill="white" stroke="black" points="344,-49.5 344,-79.5 491,-79.5 491,-49.5 344,-49.5"/>
<text text-anchor="start" x="352" y="-67.5" font-family="Helvetica,sans-Serif" font-size="10.00">vanetza::dcc::LimericTransmit</text>
<text text-anchor="middle" x="417.5" y="-56.5" font-family="Helvetica,sans-Serif" font-size="10.00">RateControl</text>
</a>
</g>
</g>
<!-- Node1&#45;&gt;Node3 -->
<g id="edge3" class="edge">
<title>Node1&#45;&gt;Node3</title>
<path fill="none" stroke="midnightblue" d="M318.36,-64.5C326.85,-64.5 335.46,-64.5 343.89,-64.5"/>
<polygon fill="midnightblue" stroke="midnightblue" points="318.1,-61 308.1,-64.5 318.1,-68 318.1,-61"/>
</g>
<!-- Node4 -->
<g id="node5" class="node">
<title>Node4</title>
<g id="a_node5"><a xlink:href="dc/d2b/classvanetza_1_1dcc_1_1SingleReactiveTransmitRateControl.html" target="_top" xlink:title=" ">
<polygon fill="white" stroke="black" points="346,-0.5 346,-30.5 489,-30.5 489,-0.5 346,-0.5"/>
<text text-anchor="start" x="354" y="-18.5" font-family="Helvetica,sans-Serif" font-size="10.00">vanetza::dcc::SingleReactive</text>
<text text-anchor="middle" x="417.5" y="-7.5" font-family="Helvetica,sans-Serif" font-size="10.00">TransmitRateControl</text>
</a>
</g>
</g>
<!-- Node1&#45;&gt;Node4 -->
<g id="edge4" class="edge">
<title>Node1&#45;&gt;Node4</title>
<path fill="none" stroke="midnightblue" d="M304.83,-46.68C323.78,-41.39 344.34,-35.65 362.59,-30.55"/>
<polygon fill="midnightblue" stroke="midnightblue" points="303.78,-43.34 295.09,-49.4 305.66,-50.08 303.78,-43.34"/>
</g>
<!-- Node5 -->
<g id="node6" class="node">
<title>Node5</title>
<g id="a_node6"><a xlink:href="dd/dbf/classvanetza_1_1dcc_1_1TransmitRateThrottle.html" target="_top" xlink:title=" ">
<polygon fill="white" stroke="black" points="0,-25.5 0,-55.5 136,-55.5 136,-25.5 0,-25.5"/>
<text text-anchor="start" x="8" y="-43.5" font-family="Helvetica,sans-Serif" font-size="10.00">vanetza::dcc::TransmitRate</text>
<text text-anchor="middle" x="68" y="-32.5" font-family="Helvetica,sans-Serif" font-size="10.00">Throttle</text>
</a>
</g>
</g>
<!-- Node5&#45;&gt;Node1 -->
<g id="edge5" class="edge">
<title>Node5&#45;&gt;Node1</title>
<path fill="none" stroke="midnightblue" d="M146.15,-51.39C154.69,-52.6 163.34,-53.82 171.74,-55"/>
<polygon fill="midnightblue" stroke="midnightblue" points="146.58,-47.92 136.19,-49.99 145.6,-54.85 146.58,-47.92"/>
</g>
</g>
</svg>
