<?xml version="1.0" encoding="UTF-8" standalone="no"?>
<!DOCTYPE svg PUBLIC "-//W3C//DTD SVG 1.1//EN"
 "http://www.w3.org/Graphics/SVG/1.1/DTD/svg11.dtd">
<!-- Generated by graphviz version 2.42.3 (0)
 -->
<!-- Title: Graphical Class Hierarchy Pages: 1 -->
<svg width="281pt" height="78pt"
 viewBox="0.00 0.00 281.00 77.50" xmlns="http://www.w3.org/2000/svg" xmlns:xlink="http://www.w3.org/1999/xlink">
<g id="graph0" class="graph" transform="scale(1 1) rotate(0) translate(4 73.5)">
<title>Graphical Class Hierarchy</title>
<polygon fill="white" stroke="transparent" points="-4,4 -4,-73.5 277,-73.5 277,4 -4,4"/>
<!-- Node61 -->
<g id="node1" class="node">
<title>Node61</title>
<g id="a_node1"><a xlink:title=" ">
<polygon fill="white" stroke="#bfbfbf" points="0,-28 0,-47 72,-47 72,-28 0,-28"/>
<text text-anchor="middle" x="36" y="-35" font-family="Helvetica,sans-Serif" font-size="10.00">static_visitor</text>
</a>
</g>
</g>
<!-- Node0 -->
<g id="node2" class="node">
<title>Node0</title>
<g id="a_node2"><a xlink:href="d5/d3f/classvanetza_1_1asn1_1_1PacketVisitor.html" target="_top" xlink:title=" ">
<polygon fill="white" stroke="black" points="108,-50 108,-69 273,-69 273,-50 108,-50"/>
<text text-anchor="middle" x="190.5" y="-57" font-family="Helvetica,sans-Serif" font-size="10.00">vanetza::asn1::PacketVisitor&lt; T &gt;</text>
</a>
</g>
</g>
<!-- Node61&#45;&gt;Node0 -->
<g id="edge1" class="edge">
<title>Node61&#45;&gt;Node0</title>
<path fill="none" stroke="midnightblue" d="M82.38,-44.05C95.28,-45.91 109.61,-47.97 123.47,-49.97"/>
<polygon fill="midnightblue" stroke="midnightblue" points="82.77,-40.57 72.37,-42.6 81.77,-47.49 82.77,-40.57"/>
</g>
<!-- Node63 -->
<g id="node3" class="node">
<title>Node63</title>
<g id="a_node3"><a xlink:href="dc/ddc/classvanetza_1_1geonet_1_1RepetitionDispatcher.html" target="_top" xlink:title=" ">
<polygon fill="white" stroke="black" points="123.5,-0.5 123.5,-30.5 257.5,-30.5 257.5,-0.5 123.5,-0.5"/>
<text text-anchor="start" x="131.5" y="-18.5" font-family="Helvetica,sans-Serif" font-size="10.00">vanetza::geonet::Repetition</text>
<text text-anchor="middle" x="190.5" y="-7.5" font-family="Helvetica,sans-Serif" font-size="10.00">Dispatcher</text>
</a>
</g>
</g>
<!-- Node61&#45;&gt;Node63 -->
<g id="edge2" class="edge">
<title>Node61&#45;&gt;Node63</title>
<path fill="none" stroke="midnightblue" d="M82.38,-30.95C95.28,-29.09 109.61,-27.03 123.47,-25.03"/>
<polygon fill="midnightblue" stroke="midnightblue" points="81.77,-27.51 72.37,-32.4 82.77,-34.43 81.77,-27.51"/>
</g>
</g>
</svg>
