<?xml version="1.0" encoding="UTF-8" standalone="no"?>
<!DOCTYPE svg PUBLIC "-//W3C//DTD SVG 1.1//EN"
 "http://www.w3.org/Graphics/SVG/1.1/DTD/svg11.dtd">
<!-- Generated by graphviz version 14.1.2 (0)
 -->
<!-- Title: Graphical Class Hierarchy Pages: 1 -->
<svg width="357pt" height="80pt"
 viewBox="0.00 0.00 357.00 80.00" xmlns="http://www.w3.org/2000/svg" xmlns:xlink="http://www.w3.org/1999/xlink">
<g id="graph0" class="graph" transform="scale(1 1) rotate(0) translate(4 76.12)">
<title>Graphical Class Hierarchy</title>
<!-- Node0 -->
<g id="Node000000" class="node">
<title>Node0</title>
<g id="a_Node000000"><a xlink:href="df/dd5/classvanetza_1_1dcc_1_1Transmission.html" target="_top" xlink:title=" ">
<polygon fill="white" stroke="#666666" points="147.25,-42.75 0,-42.75 0,-22 147.25,-22 147.25,-42.75"/>
<text xml:space="preserve" text-anchor="middle" x="73.62" y="-29.25" font-family="Helvetica,sans-Serif" font-size="10.00">vanetza::dcc::Transmission</text>
</a>
</g>
</g>
<!-- Node1 -->
<g id="Node000001" class="node">
<title>Node1</title>
<g id="a_Node000001"><a xlink:href="d2/d56/structvanetza_1_1dcc_1_1FlowControl_1_1PendingTransmission.html" target="_top" xlink:title=" ">
<polygon fill="white" stroke="#666666" points="336.88,-72.12 194.88,-72.12 194.88,-38.62 336.88,-38.62 336.88,-72.12"/>
<text xml:space="preserve" text-anchor="start" x="202.88" y="-58.62" font-family="Helvetica,sans-Serif" font-size="10.00">vanetza::dcc::FlowControl</text>
<text xml:space="preserve" text-anchor="middle" x="265.88" y="-45.88" font-family="Helvetica,sans-Serif" font-size="10.00">::PendingTransmission</text>
</a>
</g>
</g>
<!-- Node0&#45;&gt;Node1 -->
<g id="edge81_Node000000_Node000001" class="edge">
<title>Node0&#45;&gt;Node1</title>
<g id="a_edge81_Node000000_Node000001"><a xlink:title=" ">
<path fill="none" stroke="#63b8ff" d="M158.95,-42.57C170.84,-44.01 182.97,-45.47 194.57,-46.87"/>
<polygon fill="#63b8ff" stroke="#63b8ff" points="159.49,-39.11 149.14,-41.38 158.65,-46.06 159.49,-39.11"/>
</a>
</g>
</g>
<!-- Node2 -->
<g id="Node000002" class="node">
<title>Node2</title>
<g id="a_Node000002"><a xlink:href="dc/da1/structvanetza_1_1dcc_1_1TransmissionLite.html" target="_top" xlink:title=" ">
<polygon fill="white" stroke="#666666" points="348.5,-20.75 183.25,-20.75 183.25,0 348.5,0 348.5,-20.75"/>
<text xml:space="preserve" text-anchor="middle" x="265.88" y="-7.25" font-family="Helvetica,sans-Serif" font-size="10.00">vanetza::dcc::TransmissionLite</text>
</a>
</g>
</g>
<!-- Node0&#45;&gt;Node2 -->
<g id="edge82_Node000000_Node000002" class="edge">
<title>Node0&#45;&gt;Node2</title>
<g id="a_edge82_Node000000_Node000002"><a xlink:title=" ">
<path fill="none" stroke="#63b8ff" d="M158.83,-22.64C166.81,-21.71 174.9,-20.78 182.86,-19.86"/>
<polygon fill="#63b8ff" stroke="#63b8ff" points="158.67,-19.13 149.14,-23.76 159.48,-26.09 158.67,-19.13"/>
</a>
</g>
</g>
</g>
</svg>
