<?xml version="1.0" encoding="UTF-8" standalone="no"?>
<!DOCTYPE svg PUBLIC "-//W3C//DTD SVG 1.1//EN"
 "http://www.w3.org/Graphics/SVG/1.1/DTD/svg11.dtd">
<!-- Generated by graphviz version 2.42.3 (0)
 -->
<!-- Title: Graphical Class Hierarchy Pages: 1 -->
<svg width="266pt" height="137pt"
 viewBox="0.00 0.00 266.00 137.00" xmlns="http://www.w3.org/2000/svg" xmlns:xlink="http://www.w3.org/1999/xlink">
<g id="graph0" class="graph" transform="scale(1 1) rotate(0) translate(4 133)">
<title>Graphical Class Hierarchy</title>
<polygon fill="white" stroke="transparent" points="-4,4 -4,-133 262,-133 262,4 -4,4"/>
<!-- Node0 -->
<g id="node1" class="node">
<title>Node0</title>
<g id="a_node1"><a xlink:href="dd/d27/classvanetza_1_1security_1_1CertificateProvider.html" target="_top" xlink:title=" ">
<polygon fill="white" stroke="black" points="0,-49.5 0,-79.5 98,-79.5 98,-49.5 0,-49.5"/>
<text text-anchor="start" x="8" y="-67.5" font-family="Helvetica,sans-Serif" font-size="10.00">vanetza::security::</text>
<text text-anchor="middle" x="49" y="-56.5" font-family="Helvetica,sans-Serif" font-size="10.00">CertificateProvider</text>
</a>
</g>
</g>
<!-- Node1 -->
<g id="node2" class="node">
<title>Node1</title>
<g id="a_node2"><a xlink:href="d5/dda/classvanetza_1_1security_1_1NaiveCertificateProvider.html" target="_top" xlink:title="A very simplistic certificate provider.">
<polygon fill="white" stroke="black" points="134.5,-98.5 134.5,-128.5 257.5,-128.5 257.5,-98.5 134.5,-98.5"/>
<text text-anchor="start" x="142.5" y="-116.5" font-family="Helvetica,sans-Serif" font-size="10.00">vanetza::security::</text>
<text text-anchor="middle" x="196" y="-105.5" font-family="Helvetica,sans-Serif" font-size="10.00">NaiveCertificateProvider</text>
</a>
</g>
</g>
<!-- Node0&#45;&gt;Node1 -->
<g id="edge1" class="edge">
<title>Node0&#45;&gt;Node1</title>
<path fill="none" stroke="midnightblue" d="M104.42,-82.89C119.52,-87.99 135.73,-93.47 150.21,-98.36"/>
<polygon fill="midnightblue" stroke="midnightblue" points="105.28,-79.49 94.69,-79.6 103.04,-86.12 105.28,-79.49"/>
</g>
<!-- Node2 -->
<g id="node3" class="node">
<title>Node2</title>
<g id="a_node3"><a xlink:href="d6/d85/classvanetza_1_1security_1_1NullCertificateProvider.html" target="_top" xlink:title=" ">
<polygon fill="white" stroke="black" points="138,-49.5 138,-79.5 254,-79.5 254,-49.5 138,-49.5"/>
<text text-anchor="start" x="146" y="-67.5" font-family="Helvetica,sans-Serif" font-size="10.00">vanetza::security::</text>
<text text-anchor="middle" x="196" y="-56.5" font-family="Helvetica,sans-Serif" font-size="10.00">NullCertificateProvider</text>
</a>
</g>
</g>
<!-- Node0&#45;&gt;Node2 -->
<g id="edge2" class="edge">
<title>Node0&#45;&gt;Node2</title>
<path fill="none" stroke="midnightblue" d="M108.29,-64.5C118.04,-64.5 128.15,-64.5 137.88,-64.5"/>
<polygon fill="midnightblue" stroke="midnightblue" points="108.28,-61 98.28,-64.5 108.28,-68 108.28,-61"/>
</g>
<!-- Node3 -->
<g id="node4" class="node">
<title>Node3</title>
<g id="a_node4"><a xlink:href="d1/dd6/classvanetza_1_1security_1_1StaticCertificateProvider.html" target="_top" xlink:title="A simple certificate provider.">
<polygon fill="white" stroke="black" points="134,-0.5 134,-30.5 258,-30.5 258,-0.5 134,-0.5"/>
<text text-anchor="start" x="142" y="-18.5" font-family="Helvetica,sans-Serif" font-size="10.00">vanetza::security::</text>
<text text-anchor="middle" x="196" y="-7.5" font-family="Helvetica,sans-Serif" font-size="10.00">StaticCertificateProvider</text>
</a>
</g>
</g>
<!-- Node0&#45;&gt;Node3 -->
<g id="edge3" class="edge">
<title>Node0&#45;&gt;Node3</title>
<path fill="none" stroke="midnightblue" d="M104.42,-46.11C119.52,-41.01 135.73,-35.53 150.21,-30.64"/>
<polygon fill="midnightblue" stroke="midnightblue" points="103.04,-42.88 94.69,-49.4 105.28,-49.51 103.04,-42.88"/>
</g>
</g>
</svg>
