<?xml version="1.0" encoding="UTF-8" standalone="no"?>
<!DOCTYPE svg PUBLIC "-//W3C//DTD SVG 1.1//EN"
 "http://www.w3.org/Graphics/SVG/1.1/DTD/svg11.dtd">
<!-- Generated by graphviz version 2.49.3 (0)
 -->
<!-- Title: Graphical Class Hierarchy Pages: 1 -->
<svg width="472pt" height="86pt"
 viewBox="0.00 0.00 472.00 86.00" xmlns="http://www.w3.org/2000/svg" xmlns:xlink="http://www.w3.org/1999/xlink">
<g id="graph0" class="graph" transform="scale(1 1) rotate(0) translate(4 82)">
<title>Graphical Class Hierarchy</title>
<!-- Node0 -->
<g id="Node000000" class="node">
<title>Node0</title>
<g id="a_Node000000"><a xlink:href="d7/d65/classvanetza_1_1security_1_1v3_1_1CertificateProvider.html" target="_top" xlink:title=" ">
<polygon fill="white" stroke="#666666" points="115,-54 0,-54 0,-24 115,-24 115,-54"/>
<text text-anchor="start" x="8" y="-42" font-family="Helvetica,sans-Serif" font-size="10.00">vanetza::security::</text>
<text text-anchor="middle" x="57.5" y="-31" font-family="Helvetica,sans-Serif" font-size="10.00">v3::CertificateProvider</text>
</a>
</g>
</g>
<!-- Node1 -->
<g id="Node000001" class="node">
<title>Node1</title>
<g id="a_Node000001"><a xlink:href="d3/dd7/classvanetza_1_1security_1_1v3_1_1BaseCertificateProvider.html" target="_top" xlink:title=" ">
<polygon fill="white" stroke="#666666" points="288,-54 151,-54 151,-24 288,-24 288,-54"/>
<text text-anchor="start" x="159" y="-42" font-family="Helvetica,sans-Serif" font-size="10.00">vanetza::security::</text>
<text text-anchor="middle" x="219.5" y="-31" font-family="Helvetica,sans-Serif" font-size="10.00">v3::BaseCertificateProvider</text>
</a>
</g>
</g>
<!-- Node0&#45;&gt;Node1 -->
<g id="edge141_Node000000_Node000001" class="edge">
<title>Node0&#45;&gt;Node1</title>
<g id="a_edge141_Node000000_Node000001"><a xlink:title=" ">
<path fill="none" stroke="#63b8ff" d="M125.48,-39C133.88,-39 142.47,-39 150.88,-39"/>
<polygon fill="#63b8ff" stroke="#63b8ff" points="125.36,-35.5 115.36,-39 125.36,-42.5 125.36,-35.5"/>
</a>
</g>
</g>
<!-- Node2 -->
<g id="Node000002" class="node">
<title>Node2</title>
<g id="a_Node000002"><a xlink:href="db/daa/classvanetza_1_1security_1_1v3_1_1NaiveCertificateProvider.html" target="_top" xlink:title="A very simplistic certificate provider.">
<polygon fill="white" stroke="#666666" points="464,-78 324,-78 324,-48 464,-48 464,-78"/>
<text text-anchor="start" x="332" y="-66" font-family="Helvetica,sans-Serif" font-size="10.00">vanetza::security::</text>
<text text-anchor="middle" x="394" y="-55" font-family="Helvetica,sans-Serif" font-size="10.00">v3::NaiveCertificateProvider</text>
</a>
</g>
</g>
<!-- Node1&#45;&gt;Node2 -->
<g id="edge142_Node000001_Node000002" class="edge">
<title>Node1&#45;&gt;Node2</title>
<g id="a_edge142_Node000001_Node000002"><a xlink:title=" ">
<path fill="none" stroke="#63b8ff" d="M298.15,-49.8C306.7,-50.99 315.37,-52.2 323.81,-53.37"/>
<polygon fill="#63b8ff" stroke="#63b8ff" points="298.57,-46.33 288.18,-48.42 297.6,-53.26 298.57,-46.33"/>
</a>
</g>
</g>
<!-- Node3 -->
<g id="Node000003" class="node">
<title>Node3</title>
<g id="a_Node000003"><a xlink:href="dc/d7a/classvanetza_1_1security_1_1v3_1_1StaticCertificateProvider.html" target="_top" xlink:title="A simple certificate provider.">
<polygon fill="white" stroke="#666666" points="464,-30 324,-30 324,0 464,0 464,-30"/>
<text text-anchor="start" x="332" y="-18" font-family="Helvetica,sans-Serif" font-size="10.00">vanetza::security::</text>
<text text-anchor="middle" x="394" y="-7" font-family="Helvetica,sans-Serif" font-size="10.00">v3::StaticCertificateProvider</text>
</a>
</g>
</g>
<!-- Node1&#45;&gt;Node3 -->
<g id="edge143_Node000001_Node000003" class="edge">
<title>Node1&#45;&gt;Node3</title>
<g id="a_edge143_Node000001_Node000003"><a xlink:title=" ">
<path fill="none" stroke="#63b8ff" d="M298.15,-28.2C306.7,-27.01 315.37,-25.8 323.81,-24.63"/>
<polygon fill="#63b8ff" stroke="#63b8ff" points="297.6,-24.74 288.18,-29.58 298.57,-31.67 297.6,-24.74"/>
</a>
</g>
</g>
</g>
</svg>
