<?xml version="1.0" encoding="UTF-8" standalone="no"?>
<!DOCTYPE svg PUBLIC "-//W3C//DTD SVG 1.1//EN"
 "http://www.w3.org/Graphics/SVG/1.1/DTD/svg11.dtd">
<!-- Generated by graphviz version 2.42.3 (0)
 -->
<!-- Title: Graphical Class Hierarchy Pages: 1 -->
<svg width="289pt" height="198pt"
 viewBox="0.00 0.00 289.00 198.00" xmlns="http://www.w3.org/2000/svg" xmlns:xlink="http://www.w3.org/1999/xlink">
<g id="graph0" class="graph" transform="scale(1 1) rotate(0) translate(4 194)">
<title>Graphical Class Hierarchy</title>
<polygon fill="white" stroke="transparent" points="-4,4 -4,-194 285,-194 285,4 -4,4"/>
<!-- Node0 -->
<g id="node1" class="node">
<title>Node0</title>
<g id="a_node1"><a xlink:href="db/d3e/structvanetza_1_1security_1_1v3_1_1OctetString.html" target="_top" xlink:title=" ">
<polygon fill="white" stroke="black" points="0,-82.5 0,-112.5 96,-112.5 96,-82.5 0,-82.5"/>
<text text-anchor="start" x="8" y="-100.5" font-family="Helvetica,sans-Serif" font-size="10.00">vanetza::security::</text>
<text text-anchor="middle" x="48" y="-89.5" font-family="Helvetica,sans-Serif" font-size="10.00">v3::OctetString</text>
</a>
</g>
</g>
<!-- Node1 -->
<g id="node2" class="node">
<title>Node1</title>
<g id="a_node2"><a xlink:href="d0/d47/structvanetza_1_1security_1_1v3_1_1OctetStringFixedSize.html" target="_top" xlink:title=" ">
<polygon fill="white" stroke="black" points="132,-159.5 132,-189.5 281,-189.5 281,-159.5 132,-159.5"/>
<text text-anchor="start" x="140" y="-177.5" font-family="Helvetica,sans-Serif" font-size="10.00">vanetza::security::</text>
<text text-anchor="middle" x="206.5" y="-166.5" font-family="Helvetica,sans-Serif" font-size="10.00">v3::OctetStringFixedSize&lt; 3 &gt;</text>
</a>
</g>
</g>
<!-- Node0&#45;&gt;Node1 -->
<g id="edge1" class="edge">
<title>Node0&#45;&gt;Node1</title>
<path fill="none" stroke="midnightblue" d="M77.9,-118.52C93.4,-129.11 113.14,-141.58 132,-150.5 138.92,-153.77 146.4,-156.78 153.85,-159.47"/>
<polygon fill="midnightblue" stroke="midnightblue" points="79.51,-115.37 69.31,-112.53 75.51,-121.12 79.51,-115.37"/>
</g>
<!-- Node2 -->
<g id="node3" class="node">
<title>Node2</title>
<g id="a_node3"><a xlink:href="d0/d47/structvanetza_1_1security_1_1v3_1_1OctetStringFixedSize.html" target="_top" xlink:title=" ">
<polygon fill="white" stroke="black" points="132,-110.5 132,-140.5 281,-140.5 281,-110.5 132,-110.5"/>
<text text-anchor="start" x="140" y="-128.5" font-family="Helvetica,sans-Serif" font-size="10.00">vanetza::security::</text>
<text text-anchor="middle" x="206.5" y="-117.5" font-family="Helvetica,sans-Serif" font-size="10.00">v3::OctetStringFixedSize&lt; 8 &gt;</text>
</a>
</g>
</g>
<!-- Node0&#45;&gt;Node2 -->
<g id="edge2" class="edge">
<title>Node0&#45;&gt;Node2</title>
<path fill="none" stroke="midnightblue" d="M106.36,-107.76C114.7,-109.25 123.38,-110.81 131.99,-112.35"/>
<polygon fill="midnightblue" stroke="midnightblue" points="106.84,-104.29 96.38,-105.98 105.61,-111.18 106.84,-104.29"/>
</g>
<!-- Node3 -->
<g id="node4" class="node">
<title>Node3</title>
<g id="a_node4"><a xlink:href="d0/d47/structvanetza_1_1security_1_1v3_1_1OctetStringFixedSize.html" target="_top" xlink:title=" ">
<polygon fill="white" stroke="black" points="144,-50 144,-91 269,-91 269,-50 144,-50"/>
<text text-anchor="start" x="152" y="-79" font-family="Helvetica,sans-Serif" font-size="10.00">vanetza::security::</text>
<text text-anchor="start" x="152" y="-68" font-family="Helvetica,sans-Serif" font-size="10.00">v3::OctetStringFixedSize</text>
<text text-anchor="middle" x="206.5" y="-57" font-family="Helvetica,sans-Serif" font-size="10.00">&lt; SIZE &gt;</text>
</a>
</g>
</g>
<!-- Node0&#45;&gt;Node3 -->
<g id="edge3" class="edge">
<title>Node0&#45;&gt;Node3</title>
<path fill="none" stroke="midnightblue" d="M106.41,-87.6C118.58,-85.5 131.49,-83.27 143.81,-81.14"/>
<polygon fill="midnightblue" stroke="midnightblue" points="105.64,-84.18 96.38,-89.33 106.83,-91.07 105.64,-84.18"/>
</g>
<!-- Node4 -->
<g id="node5" class="node">
<title>Node4</title>
<g id="a_node5"><a xlink:href="d4/ddd/structvanetza_1_1security_1_1v3_1_1OctetStringProxy.html" target="_top" xlink:title=" ">
<polygon fill="white" stroke="black" points="152.5,-0.5 152.5,-30.5 260.5,-30.5 260.5,-0.5 152.5,-0.5"/>
<text text-anchor="start" x="160.5" y="-18.5" font-family="Helvetica,sans-Serif" font-size="10.00">vanetza::security::</text>
<text text-anchor="middle" x="206.5" y="-7.5" font-family="Helvetica,sans-Serif" font-size="10.00">v3::OctetStringProxy</text>
</a>
</g>
</g>
<!-- Node0&#45;&gt;Node4 -->
<g id="edge4" class="edge">
<title>Node0&#45;&gt;Node4</title>
<path fill="none" stroke="midnightblue" d="M76.03,-76.13C91.71,-64.46 112.22,-50.42 132,-40.5 139.35,-36.81 147.37,-33.47 155.32,-30.5"/>
<polygon fill="midnightblue" stroke="midnightblue" points="73.71,-73.49 67.85,-82.32 77.94,-79.07 73.71,-73.49"/>
</g>
</g>
</svg>
