<?xml version="1.0" encoding="UTF-8" standalone="no"?>
<!DOCTYPE svg PUBLIC "-//W3C//DTD SVG 1.1//EN"
 "http://www.w3.org/Graphics/SVG/1.1/DTD/svg11.dtd">
<!-- Generated by graphviz version 2.42.3 (0)
 -->
<!-- Title: Graphical Class Hierarchy Pages: 1 -->
<svg width="244pt" height="88pt"
 viewBox="0.00 0.00 244.00 88.00" xmlns="http://www.w3.org/2000/svg" xmlns:xlink="http://www.w3.org/1999/xlink">
<g id="graph0" class="graph" transform="scale(1 1) rotate(0) translate(4 84)">
<title>Graphical Class Hierarchy</title>
<polygon fill="white" stroke="transparent" points="-4,4 -4,-84 240,-84 240,4 -4,4"/>
<!-- Node0 -->
<g id="node1" class="node">
<title>Node0</title>
<g id="a_node1"><a xlink:href="d2/d53/structvanetza_1_1security_1_1v3_1_1Choice.html" target="_top" xlink:title=" ">
<polygon fill="white" stroke="black" points="0,-24.5 0,-54.5 103,-54.5 103,-24.5 0,-24.5"/>
<text text-anchor="start" x="8" y="-42.5" font-family="Helvetica,sans-Serif" font-size="10.00">vanetza::security::</text>
<text text-anchor="middle" x="51.5" y="-31.5" font-family="Helvetica,sans-Serif" font-size="10.00">v3::Choice&lt; false &gt;</text>
</a>
</g>
</g>
<!-- Node1 -->
<g id="node2" class="node">
<title>Node1</title>
<g id="a_node2"><a xlink:href="d2/d33/structvanetza_1_1security_1_1v3_1_1Duration.html" target="_top" xlink:title=" ">
<polygon fill="white" stroke="black" points="139.5,-49.5 139.5,-79.5 235.5,-79.5 235.5,-49.5 139.5,-49.5"/>
<text text-anchor="start" x="147.5" y="-67.5" font-family="Helvetica,sans-Serif" font-size="10.00">vanetza::security::</text>
<text text-anchor="middle" x="187.5" y="-56.5" font-family="Helvetica,sans-Serif" font-size="10.00">v3::Duration</text>
</a>
</g>
</g>
<!-- Node0&#45;&gt;Node1 -->
<g id="edge1" class="edge">
<title>Node0&#45;&gt;Node1</title>
<path fill="none" stroke="midnightblue" d="M113.02,-50.79C121.83,-52.44 130.8,-54.11 139.3,-55.69"/>
<polygon fill="midnightblue" stroke="midnightblue" points="113.63,-47.34 103.16,-48.95 112.35,-54.23 113.63,-47.34"/>
</g>
<!-- Node2 -->
<g id="node3" class="node">
<title>Node2</title>
<g id="a_node3"><a xlink:href="dc/d4d/structvanetza_1_1security_1_1v3_1_1EncryptionKey.html" target="_top" xlink:title=" ">
<polygon fill="white" stroke="black" points="139,-0.5 139,-30.5 236,-30.5 236,-0.5 139,-0.5"/>
<text text-anchor="start" x="147" y="-18.5" font-family="Helvetica,sans-Serif" font-size="10.00">vanetza::security::</text>
<text text-anchor="middle" x="187.5" y="-7.5" font-family="Helvetica,sans-Serif" font-size="10.00">v3::EncryptionKey</text>
</a>
</g>
</g>
<!-- Node0&#45;&gt;Node2 -->
<g id="edge2" class="edge">
<title>Node0&#45;&gt;Node2</title>
<path fill="none" stroke="midnightblue" d="M113.17,-28.63C121.79,-27.09 130.54,-25.52 138.86,-24.03"/>
<polygon fill="midnightblue" stroke="midnightblue" points="112.39,-25.22 103.16,-30.43 113.62,-32.11 112.39,-25.22"/>
</g>
</g>
</svg>
