<?xml version="1.0" encoding="UTF-8" standalone="no"?>
<!DOCTYPE svg PUBLIC "-//W3C//DTD SVG 1.1//EN"
 "http://www.w3.org/Graphics/SVG/1.1/DTD/svg11.dtd">
<!-- Generated by graphviz version 2.42.3 (0)
 -->
<!-- Title: Graphical Class Hierarchy Pages: 1 -->
<svg width="445pt" height="382pt"
 viewBox="0.00 0.00 445.00 382.00" xmlns="http://www.w3.org/2000/svg" xmlns:xlink="http://www.w3.org/1999/xlink">
<g id="graph0" class="graph" transform="scale(1 1) rotate(0) translate(4 378)">
<title>Graphical Class Hierarchy</title>
<polygon fill="white" stroke="transparent" points="-4,4 -4,-378 441,-378 441,4 -4,4"/>
<!-- Node0 -->
<g id="node1" class="node">
<title>Node0</title>
<g id="a_node1"><a xlink:href="d5/d5c/structvanetza_1_1security_1_1v3_1_1Integer.html" target="_top" xlink:title=" ">
<polygon fill="white" stroke="black" points="0,-147.5 0,-177.5 96,-177.5 96,-147.5 0,-147.5"/>
<text text-anchor="start" x="8" y="-165.5" font-family="Helvetica,sans-Serif" font-size="10.00">vanetza::security::</text>
<text text-anchor="middle" x="48" y="-154.5" font-family="Helvetica,sans-Serif" font-size="10.00">v3::Integer</text>
</a>
</g>
</g>
<!-- Node1 -->
<g id="node2" class="node">
<title>Node1</title>
<g id="a_node2"><a xlink:href="d3/d3c/structvanetza_1_1security_1_1v3_1_1IntegerFixed.html" target="_top" xlink:title=" ">
<polygon fill="white" stroke="black" points="138.5,-294.5 138.5,-324.5 272.5,-324.5 272.5,-294.5 138.5,-294.5"/>
<text text-anchor="start" x="146.5" y="-312.5" font-family="Helvetica,sans-Serif" font-size="10.00">vanetza::security::</text>
<text text-anchor="middle" x="205.5" y="-301.5" font-family="Helvetica,sans-Serif" font-size="10.00">v3::IntegerFixed&lt; int32_t &gt;</text>
</a>
</g>
</g>
<!-- Node0&#45;&gt;Node1 -->
<g id="edge1" class="edge">
<title>Node0&#45;&gt;Node1</title>
<path fill="none" stroke="midnightblue" d="M59.58,-187.12C72.71,-214.86 97.62,-259.45 132,-285.5 136.54,-288.94 141.61,-291.91 146.89,-294.45"/>
<polygon fill="midnightblue" stroke="midnightblue" points="62.63,-185.37 55.29,-177.73 56.27,-188.28 62.63,-185.37"/>
</g>
<!-- Node4 -->
<g id="node5" class="node">
<title>Node4</title>
<g id="a_node5"><a xlink:href="d3/d3c/structvanetza_1_1security_1_1v3_1_1IntegerFixed.html" target="_top" xlink:title=" ">
<polygon fill="white" stroke="black" points="136,-245.5 136,-275.5 275,-275.5 275,-245.5 136,-245.5"/>
<text text-anchor="start" x="144" y="-263.5" font-family="Helvetica,sans-Serif" font-size="10.00">vanetza::security::</text>
<text text-anchor="middle" x="205.5" y="-252.5" font-family="Helvetica,sans-Serif" font-size="10.00">v3::IntegerFixed&lt; uint16_t &gt;</text>
</a>
</g>
</g>
<!-- Node0&#45;&gt;Node4 -->
<g id="edge4" class="edge">
<title>Node0&#45;&gt;Node4</title>
<path fill="none" stroke="midnightblue" d="M69.38,-185.07C85.11,-201.32 108.15,-222.72 132,-236.5 137.85,-239.88 144.25,-242.87 150.75,-245.49"/>
<polygon fill="midnightblue" stroke="midnightblue" points="71.69,-182.42 62.27,-177.56 66.61,-187.23 71.69,-182.42"/>
</g>
<!-- Node6 -->
<g id="node7" class="node">
<title>Node6</title>
<g id="a_node7"><a xlink:href="d3/d3c/structvanetza_1_1security_1_1v3_1_1IntegerFixed.html" target="_top" xlink:title=" ">
<polygon fill="white" stroke="black" points="136,-196.5 136,-226.5 275,-226.5 275,-196.5 136,-196.5"/>
<text text-anchor="start" x="144" y="-214.5" font-family="Helvetica,sans-Serif" font-size="10.00">vanetza::security::</text>
<text text-anchor="middle" x="205.5" y="-203.5" font-family="Helvetica,sans-Serif" font-size="10.00">v3::IntegerFixed&lt; uint32_t &gt;</text>
</a>
</g>
</g>
<!-- Node0&#45;&gt;Node6 -->
<g id="edge6" class="edge">
<title>Node0&#45;&gt;Node6</title>
<path fill="none" stroke="midnightblue" d="M105.75,-180.38C122.5,-185.66 140.66,-191.38 156.78,-196.46"/>
<polygon fill="midnightblue" stroke="midnightblue" points="106.67,-177 96.08,-177.33 104.56,-183.68 106.67,-177"/>
</g>
<!-- Node8 -->
<g id="node9" class="node">
<title>Node8</title>
<g id="a_node9"><a xlink:href="d3/d3c/structvanetza_1_1security_1_1v3_1_1IntegerFixed.html" target="_top" xlink:title=" ">
<polygon fill="white" stroke="black" points="136,-147.5 136,-177.5 275,-177.5 275,-147.5 136,-147.5"/>
<text text-anchor="start" x="144" y="-165.5" font-family="Helvetica,sans-Serif" font-size="10.00">vanetza::security::</text>
<text text-anchor="middle" x="205.5" y="-154.5" font-family="Helvetica,sans-Serif" font-size="10.00">v3::IntegerFixed&lt; uint64_t &gt;</text>
</a>
</g>
</g>
<!-- Node0&#45;&gt;Node8 -->
<g id="edge8" class="edge">
<title>Node0&#45;&gt;Node8</title>
<path fill="none" stroke="midnightblue" d="M106.29,-162.5C115.89,-162.5 125.93,-162.5 135.78,-162.5"/>
<polygon fill="midnightblue" stroke="midnightblue" points="106.08,-159 96.08,-162.5 106.08,-166 106.08,-159"/>
</g>
<!-- Node10 -->
<g id="node11" class="node">
<title>Node10</title>
<g id="a_node11"><a xlink:href="d3/d3c/structvanetza_1_1security_1_1v3_1_1IntegerFixed.html" target="_top" xlink:title=" ">
<polygon fill="white" stroke="black" points="138.5,-98.5 138.5,-128.5 272.5,-128.5 272.5,-98.5 138.5,-98.5"/>
<text text-anchor="start" x="146.5" y="-116.5" font-family="Helvetica,sans-Serif" font-size="10.00">vanetza::security::</text>
<text text-anchor="middle" x="205.5" y="-105.5" font-family="Helvetica,sans-Serif" font-size="10.00">v3::IntegerFixed&lt; uint8_t &gt;</text>
</a>
</g>
</g>
<!-- Node0&#45;&gt;Node10 -->
<g id="edge10" class="edge">
<title>Node0&#45;&gt;Node10</title>
<path fill="none" stroke="midnightblue" d="M105.75,-144.62C122.5,-139.34 140.66,-133.62 156.78,-128.54"/>
<polygon fill="midnightblue" stroke="midnightblue" points="104.56,-141.32 96.08,-147.67 106.67,-148 104.56,-141.32"/>
</g>
<!-- Node13 -->
<g id="node14" class="node">
<title>Node13</title>
<g id="a_node14"><a xlink:href="d3/d3c/structvanetza_1_1security_1_1v3_1_1IntegerFixed.html" target="_top" xlink:title=" ">
<polygon fill="white" stroke="black" points="132,-49.5 132,-79.5 279,-79.5 279,-49.5 132,-49.5"/>
<text text-anchor="start" x="140" y="-67.5" font-family="Helvetica,sans-Serif" font-size="10.00">vanetza::security::</text>
<text text-anchor="middle" x="205.5" y="-56.5" font-family="Helvetica,sans-Serif" font-size="10.00">v3::IntegerFixed&lt; uintmax_t &gt;</text>
</a>
</g>
</g>
<!-- Node0&#45;&gt;Node13 -->
<g id="edge13" class="edge">
<title>Node0&#45;&gt;Node13</title>
<path fill="none" stroke="midnightblue" d="M69.77,-140.05C85.55,-124.1 108.48,-103.18 132,-89.5 138.45,-85.75 145.54,-82.45 152.69,-79.57"/>
<polygon fill="midnightblue" stroke="midnightblue" points="67.07,-137.8 62.63,-147.42 72.1,-142.67 67.07,-137.8"/>
</g>
<!-- Node15 -->
<g id="node16" class="node">
<title>Node15</title>
<g id="a_node16"><a xlink:href="d3/d3c/structvanetza_1_1security_1_1v3_1_1IntegerFixed.html" target="_top" xlink:title=" ">
<polygon fill="white" stroke="black" points="150.5,-0.5 150.5,-30.5 260.5,-30.5 260.5,-0.5 150.5,-0.5"/>
<text text-anchor="start" x="158.5" y="-18.5" font-family="Helvetica,sans-Serif" font-size="10.00">vanetza::security::</text>
<text text-anchor="middle" x="205.5" y="-7.5" font-family="Helvetica,sans-Serif" font-size="10.00">v3::IntegerFixed&lt; T &gt;</text>
</a>
</g>
</g>
<!-- Node0&#45;&gt;Node15 -->
<g id="edge15" class="edge">
<title>Node0&#45;&gt;Node15</title>
<path fill="none" stroke="midnightblue" d="M59.69,-138.15C72.92,-110.71 97.92,-66.55 132,-40.5 137.5,-36.3 143.76,-32.77 150.24,-29.81"/>
<polygon fill="midnightblue" stroke="midnightblue" points="56.42,-136.9 55.36,-147.44 62.76,-139.86 56.42,-136.9"/>
</g>
<!-- Node2 -->
<g id="node3" class="node">
<title>Node2</title>
<g id="a_node3"><a xlink:href="d1/d1f/structvanetza_1_1security_1_1v3_1_1NinetyDegreeInt.html" target="_top" xlink:title=" ">
<polygon fill="white" stroke="black" points="324,-343.5 324,-373.5 428,-373.5 428,-343.5 324,-343.5"/>
<text text-anchor="start" x="332" y="-361.5" font-family="Helvetica,sans-Serif" font-size="10.00">vanetza::security::</text>
<text text-anchor="middle" x="376" y="-350.5" font-family="Helvetica,sans-Serif" font-size="10.00">v3::NinetyDegreeInt</text>
</a>
</g>
</g>
<!-- Node1&#45;&gt;Node2 -->
<g id="edge2" class="edge">
<title>Node1&#45;&gt;Node2</title>
<path fill="none" stroke="midnightblue" d="M268.13,-327.42C286.42,-332.74 306.26,-338.51 323.82,-343.62"/>
<polygon fill="midnightblue" stroke="midnightblue" points="269.01,-324.03 258.43,-324.6 267.06,-330.75 269.01,-324.03"/>
</g>
<!-- Node3 -->
<g id="node4" class="node">
<title>Node3</title>
<g id="a_node4"><a xlink:href="dc/d21/structvanetza_1_1security_1_1v3_1_1OneEightyDegreeInt.html" target="_top" xlink:title=" ">
<polygon fill="white" stroke="black" points="315,-294.5 315,-324.5 437,-324.5 437,-294.5 315,-294.5"/>
<text text-anchor="start" x="323" y="-312.5" font-family="Helvetica,sans-Serif" font-size="10.00">vanetza::security::</text>
<text text-anchor="middle" x="376" y="-301.5" font-family="Helvetica,sans-Serif" font-size="10.00">v3::OneEightyDegreeInt</text>
</a>
</g>
</g>
<!-- Node1&#45;&gt;Node3 -->
<g id="edge3" class="edge">
<title>Node1&#45;&gt;Node3</title>
<path fill="none" stroke="midnightblue" d="M282.83,-309.5C293.56,-309.5 304.47,-309.5 314.84,-309.5"/>
<polygon fill="midnightblue" stroke="midnightblue" points="282.61,-306 272.61,-309.5 282.61,-313 282.61,-306"/>
</g>
<!-- Node5 -->
<g id="node6" class="node">
<title>Node5</title>
<g id="a_node6"><a xlink:href="d9/d2c/structvanetza_1_1security_1_1v3_1_1Uint16.html" target="_top" xlink:title=" ">
<polygon fill="white" stroke="black" points="328,-245.5 328,-275.5 424,-275.5 424,-245.5 328,-245.5"/>
<text text-anchor="start" x="336" y="-263.5" font-family="Helvetica,sans-Serif" font-size="10.00">vanetza::security::</text>
<text text-anchor="middle" x="376" y="-252.5" font-family="Helvetica,sans-Serif" font-size="10.00">v3::Uint16</text>
</a>
</g>
</g>
<!-- Node4&#45;&gt;Node5 -->
<g id="edge5" class="edge">
<title>Node4&#45;&gt;Node5</title>
<path fill="none" stroke="midnightblue" d="M285.11,-260.5C299.75,-260.5 314.61,-260.5 327.92,-260.5"/>
<polygon fill="midnightblue" stroke="midnightblue" points="285.04,-257 275.04,-260.5 285.04,-264 285.04,-257"/>
</g>
<!-- Node7 -->
<g id="node8" class="node">
<title>Node7</title>
<g id="a_node8"><a xlink:href="d4/d50/structvanetza_1_1security_1_1v3_1_1Uint32.html" target="_top" xlink:title=" ">
<polygon fill="white" stroke="black" points="328,-196.5 328,-226.5 424,-226.5 424,-196.5 328,-196.5"/>
<text text-anchor="start" x="336" y="-214.5" font-family="Helvetica,sans-Serif" font-size="10.00">vanetza::security::</text>
<text text-anchor="middle" x="376" y="-203.5" font-family="Helvetica,sans-Serif" font-size="10.00">v3::Uint32</text>
</a>
</g>
</g>
<!-- Node6&#45;&gt;Node7 -->
<g id="edge7" class="edge">
<title>Node6&#45;&gt;Node7</title>
<path fill="none" stroke="midnightblue" d="M285.11,-211.5C299.75,-211.5 314.61,-211.5 327.92,-211.5"/>
<polygon fill="midnightblue" stroke="midnightblue" points="285.04,-208 275.04,-211.5 285.04,-215 285.04,-208"/>
</g>
<!-- Node9 -->
<g id="node10" class="node">
<title>Node9</title>
<g id="a_node10"><a xlink:href="d1/d4a/structvanetza_1_1security_1_1v3_1_1Uint64.html" target="_top" xlink:title=" ">
<polygon fill="white" stroke="black" points="328,-147.5 328,-177.5 424,-177.5 424,-147.5 328,-147.5"/>
<text text-anchor="start" x="336" y="-165.5" font-family="Helvetica,sans-Serif" font-size="10.00">vanetza::security::</text>
<text text-anchor="middle" x="376" y="-154.5" font-family="Helvetica,sans-Serif" font-size="10.00">v3::Uint64</text>
</a>
</g>
</g>
<!-- Node8&#45;&gt;Node9 -->
<g id="edge9" class="edge">
<title>Node8&#45;&gt;Node9</title>
<path fill="none" stroke="midnightblue" d="M285.11,-162.5C299.75,-162.5 314.61,-162.5 327.92,-162.5"/>
<polygon fill="midnightblue" stroke="midnightblue" points="285.04,-159 275.04,-162.5 285.04,-166 285.04,-159"/>
</g>
<!-- Node11 -->
<g id="node12" class="node">
<title>Node11</title>
<g id="a_node12"><a xlink:href="d3/da9/structvanetza_1_1security_1_1v3_1_1Uint3.html" target="_top" xlink:title=" ">
<polygon fill="white" stroke="black" points="328,-98.5 328,-128.5 424,-128.5 424,-98.5 328,-98.5"/>
<text text-anchor="start" x="336" y="-116.5" font-family="Helvetica,sans-Serif" font-size="10.00">vanetza::security::</text>
<text text-anchor="middle" x="376" y="-105.5" font-family="Helvetica,sans-Serif" font-size="10.00">v3::Uint3</text>
</a>
</g>
</g>
<!-- Node10&#45;&gt;Node11 -->
<g id="edge11" class="edge">
<title>Node10&#45;&gt;Node11</title>
<path fill="none" stroke="midnightblue" d="M282.65,-113.5C298.03,-113.5 313.78,-113.5 327.82,-113.5"/>
<polygon fill="midnightblue" stroke="midnightblue" points="282.61,-110 272.61,-113.5 282.61,-117 282.61,-110"/>
</g>
<!-- Node12 -->
<g id="node13" class="node">
<title>Node12</title>
<g id="a_node13"><a xlink:href="d5/d61/structvanetza_1_1security_1_1v3_1_1Uint8.html" target="_top" xlink:title=" ">
<polygon fill="white" stroke="black" points="328,-49.5 328,-79.5 424,-79.5 424,-49.5 328,-49.5"/>
<text text-anchor="start" x="336" y="-67.5" font-family="Helvetica,sans-Serif" font-size="10.00">vanetza::security::</text>
<text text-anchor="middle" x="376" y="-56.5" font-family="Helvetica,sans-Serif" font-size="10.00">v3::Uint8</text>
</a>
</g>
</g>
<!-- Node10&#45;&gt;Node12 -->
<g id="edge12" class="edge">
<title>Node10&#45;&gt;Node12</title>
<path fill="none" stroke="midnightblue" d="M268.23,-95.55C287.91,-89.83 309.35,-83.59 327.82,-78.22"/>
<polygon fill="midnightblue" stroke="midnightblue" points="267.06,-92.25 258.43,-98.4 269.01,-98.97 267.06,-92.25"/>
</g>
<!-- Node14 -->
<g id="node15" class="node">
<title>Node14</title>
<g id="a_node15"><a xlink:href="dd/ddf/structvanetza_1_1security_1_1v3_1_1Psid.html" target="_top" xlink:title=" ">
<polygon fill="white" stroke="black" points="328,-0.5 328,-30.5 424,-30.5 424,-0.5 328,-0.5"/>
<text text-anchor="start" x="336" y="-18.5" font-family="Helvetica,sans-Serif" font-size="10.00">vanetza::security::</text>
<text text-anchor="middle" x="376" y="-7.5" font-family="Helvetica,sans-Serif" font-size="10.00">v3::Psid</text>
</a>
</g>
</g>
<!-- Node13&#45;&gt;Node14 -->
<g id="edge14" class="edge">
<title>Node13&#45;&gt;Node14</title>
<path fill="none" stroke="midnightblue" d="M268.23,-46.55C287.91,-40.83 309.35,-34.59 327.82,-29.22"/>
<polygon fill="midnightblue" stroke="midnightblue" points="267.06,-43.25 258.43,-49.4 269.01,-49.97 267.06,-43.25"/>
</g>
</g>
</svg>
