<?xml version="1.0" encoding="UTF-8" standalone="no"?>
<!DOCTYPE svg PUBLIC "-//W3C//DTD SVG 1.1//EN"
 "http://www.w3.org/Graphics/SVG/1.1/DTD/svg11.dtd">
<!-- Generated by graphviz version 14.1.2 (0)
 -->
<!-- Title: vanetza::security::SigningPolicy Pages: 1 -->
<svg width="137pt" height="178pt"
 viewBox="0.00 0.00 137.00 178.00" xmlns="http://www.w3.org/2000/svg" xmlns:xlink="http://www.w3.org/1999/xlink">

<svg id="main" version="1.1" xmlns="http://www.w3.org/2000/svg" xmlns:xlink="http://www.w3.org/1999/xlink" xml:space="preserve">

<style type="text/css"><![CDATA[
.node, .edge {opacity: 0.7;}
.node.selected, .edge.selected {opacity: 1;}
.edge:hover path { stroke: red; }
.edge:hover polygon { stroke: red; fill: red; }
]]></style>
<script type="application/ecmascript" xlink:href="../../svg.min.js"/>
<svg id="graph" class="graph">
<g id="graph0" class="graph" transform="scale(1 1) rotate(0) translate(4 174)">
<title>vanetza::security::SigningPolicy</title>
<!-- Node1 -->
<g id="Node000001" class="node">
<title>Node1</title>
<g id="a_Node000001"><a xlink:title=" ">
<polygon fill="#999999" stroke="none" points="115.12,-170 13.88,-170 13.88,-103 115.12,-103 115.12,-170"/>
<text xml:space="preserve" text-anchor="start" x="19.88" y="-156.5" font-family="Helvetica,sans-Serif" font-size="10.00">vanetza::security::</text>
<text xml:space="preserve" text-anchor="start" x="31.88" y="-143.75" font-family="Helvetica,sans-Serif" font-size="10.00">SigningPolicy</text>
<text xml:space="preserve" text-anchor="start" x="63" y="-127" font-family="Helvetica,sans-Serif" font-size="10.00"> </text>
<text xml:space="preserve" text-anchor="start" x="17.88" y="-110.25" font-family="Helvetica,sans-Serif" font-size="10.00">+</text>
<text xml:space="preserve" text-anchor="start" x="30.12" y="-110.25" font-family="Helvetica,sans-Serif" font-size="10.00">~SigningPolicy()</text>
<polygon fill="#666666" stroke="#666666" points="13.88,-138.5 13.88,-138.5 115.12,-138.5 115.12,-138.5 13.88,-138.5"/>
<polygon fill="#666666" stroke="#666666" points="13.88,-121.75 13.88,-121.75 115.12,-121.75 115.12,-121.75 13.88,-121.75"/>
<polygon fill="none" stroke="#666666" points="13.88,-103 13.88,-170 115.12,-170 115.12,-103 13.88,-103"/>
</a>
</g>
</g>
<!-- Node2 -->
<g id="Node000002" class="node">
<title>Node2</title>
<g id="a_Node000002"><a xlink:href="../../d4/d16/classvanetza_1_1security_1_1DefaultSigningPolicy.html" target="_top" xlink:title=" ">
<polygon fill="white" stroke="none" points="129,-67 0,-67 0,0 129,0 129,-67"/>
<text xml:space="preserve" text-anchor="start" x="13.88" y="-53.5" font-family="Helvetica,sans-Serif" font-size="10.00">vanetza::security::</text>
<text xml:space="preserve" text-anchor="start" x="13.88" y="-40.75" font-family="Helvetica,sans-Serif" font-size="10.00">DefaultSigningPolicy</text>
<text xml:space="preserve" text-anchor="start" x="63" y="-24" font-family="Helvetica,sans-Serif" font-size="10.00"> </text>
<text xml:space="preserve" text-anchor="start" x="4" y="-7.25" font-family="Helvetica,sans-Serif" font-size="10.00">+</text>
<text xml:space="preserve" text-anchor="start" x="16.25" y="-7.25" font-family="Helvetica,sans-Serif" font-size="10.00">DefaultSigningPolicy()</text>
<polygon fill="#bfbfbf" stroke="#bfbfbf" points="0,-35.5 0,-35.5 129,-35.5 129,-35.5 0,-35.5"/>
<polygon fill="#bfbfbf" stroke="#bfbfbf" points="0,-18.75 0,-18.75 129,-18.75 129,-18.75 0,-18.75"/>
<polygon fill="none" stroke="#bfbfbf" points="0,0 0,-67 129,-67 129,0 0,0"/>
</a>
</g>
</g>
<!-- Node1&#45;&gt;Node2 -->
<g id="edge1_Node000001_Node000002" class="edge">
<title>Node1&#45;&gt;Node2</title>
<g id="a_edge1_Node000001_Node000002"><a xlink:title=" ">
<path fill="none" stroke="#63b8ff" d="M64.5,-91.98C64.5,-83.52 64.5,-74.79 64.5,-66.77"/>
<polygon fill="none" stroke="#63b8ff" points="61,-91.75 64.5,-101.75 68,-91.75 61,-91.75"/>
</a>
</g>
</g>
</g>
</svg>
</svg>

<style type='text/css'>
<![CDATA[
[data-mouse-over-selected='false'] { opacity: 0.7; }
[data-mouse-over-selected='true']  { opacity: 1.0; }
]]>
</style>
<script type="application/ecmascript"><![CDATA[
document.addEventListener('DOMContentLoaded', (event) => {
  highlightEdges();
  highlightAdjacentNodes();
});
]]></script>
</svg>
