<?xml version="1.0" encoding="UTF-8" standalone="no"?>
<!DOCTYPE svg PUBLIC "-//W3C//DTD SVG 1.1//EN"
 "http://www.w3.org/Graphics/SVG/1.1/DTD/svg11.dtd">
<!-- Generated by graphviz version 14.1.2 (0)
 -->
<!-- Title: vanetza::security::v2::trailer_field_type&lt; TrailerFieldType::Signature &gt; Pages: 1 -->
<svg width="180pt" height="239pt"
 viewBox="0.00 0.00 180.00 239.00" xmlns="http://www.w3.org/2000/svg" xmlns:xlink="http://www.w3.org/1999/xlink">

<svg id="main" version="1.1" xmlns="http://www.w3.org/2000/svg" xmlns:xlink="http://www.w3.org/1999/xlink" xml:space="preserve">

<style type="text/css"><![CDATA[
.node, .edge {opacity: 0.7;}
.node.selected, .edge.selected {opacity: 1;}
.edge:hover path { stroke: red; }
.edge:hover polygon { stroke: red; fill: red; }
]]></style>
<script type="application/ecmascript" xlink:href="../../svg.min.js"/>
<svg id="graph" class="graph">
<g id="graph0" class="graph" transform="scale(1 1) rotate(0) translate(4 235)">
<title>vanetza::security::v2::trailer_field_type&lt; TrailerFieldType::Signature &gt;</title>
<!-- Node1 -->
<g id="Node000001" class="node">
<title>Node1</title>
<g id="a_Node000001"><a xlink:title=" ">
<polygon fill="#999999" stroke="none" points="158.75,-79.75 0,-79.75 0,0 158.75,0 158.75,-79.75"/>
<text xml:space="preserve" text-anchor="start" x="4" y="-66.25" font-family="Helvetica,sans-Serif" font-size="10.00">vanetza::security::</text>
<text xml:space="preserve" text-anchor="start" x="4" y="-53.5" font-family="Helvetica,sans-Serif" font-size="10.00">v2::trailer_field_type</text>
<text xml:space="preserve" text-anchor="start" x="4" y="-40.75" font-family="Helvetica,sans-Serif" font-size="10.00">&lt; TrailerFieldType::Signature &gt;</text>
<text xml:space="preserve" text-anchor="start" x="77.88" y="-24" font-family="Helvetica,sans-Serif" font-size="10.00"> </text>
<text xml:space="preserve" text-anchor="start" x="77.88" y="-7.25" font-family="Helvetica,sans-Serif" font-size="10.00"> </text>
<polygon fill="#666666" stroke="#666666" points="0,-35.5 0,-35.5 158.75,-35.5 158.75,-35.5 0,-35.5"/>
<polygon fill="#666666" stroke="#666666" points="0,-18.75 0,-18.75 158.75,-18.75 158.75,-18.75 0,-18.75"/>
<polygon fill="none" stroke="#666666" points="0,0 0,-79.75 158.75,-79.75 158.75,0 0,0"/>
</a>
</g>
</g>
<!-- Node2 -->
<g id="Node000002" class="node">
<title>Node2</title>
<g id="a_Node000002"><a xlink:href="../../d0/dc4/structvanetza_1_1security_1_1v2_1_1trailer__field__type.html" target="_top" xlink:title="resolve type for matching TrailerFieldType">
<polygon fill="white" stroke="none" points="133.62,-231 25.12,-231 25.12,-151.25 133.62,-151.25 133.62,-231"/>
<text xml:space="preserve" text-anchor="start" x="29.12" y="-217.5" font-family="Helvetica,sans-Serif" font-size="10.00">vanetza::security::</text>
<text xml:space="preserve" text-anchor="start" x="29.12" y="-204.75" font-family="Helvetica,sans-Serif" font-size="10.00">v2::trailer_field_type</text>
<text xml:space="preserve" text-anchor="start" x="30.25" y="-192" font-family="Helvetica,sans-Serif" font-size="10.00">&lt; TrailerFieldType &gt;</text>
<text xml:space="preserve" text-anchor="start" x="77.88" y="-175.25" font-family="Helvetica,sans-Serif" font-size="10.00"> </text>
<text xml:space="preserve" text-anchor="start" x="77.88" y="-158.5" font-family="Helvetica,sans-Serif" font-size="10.00"> </text>
<polygon fill="#666666" stroke="#666666" points="25.12,-186.75 25.12,-186.75 133.62,-186.75 133.62,-186.75 25.12,-186.75"/>
<polygon fill="#666666" stroke="#666666" points="25.12,-170 25.12,-170 133.62,-170 133.62,-170 25.12,-170"/>
<polygon fill="none" stroke="#666666" points="25.12,-151.25 25.12,-231 133.62,-231 133.62,-151.25 25.12,-151.25"/>
</a>
</g>
</g>
<!-- Node2&#45;&gt;Node1 -->
<g id="edge1_Node000001_Node000002" class="edge">
<title>Node2&#45;&gt;Node1</title>
<g id="a_edge1_Node000001_Node000002"><a xlink:title=" ">
<path fill="none" stroke="orange" d="M79.38,-140.02C79.38,-120.28 79.38,-97.96 79.38,-79.5"/>
<polygon fill="orange" stroke="orange" points="75.88,-139.79 79.38,-149.79 82.88,-139.79 75.88,-139.79"/>
</a>
</g>
<text xml:space="preserve" text-anchor="start" x="82.38" y="-120.75" font-family="Helvetica,sans-Serif" font-size="10.00" fill="grey">&lt; TrailerFieldType</text>
<text xml:space="preserve" text-anchor="start" x="82.38" y="-104" font-family="Helvetica,sans-Serif" font-size="10.00" fill="grey">  ::Signature &gt;</text>
</g>
</g>
</svg>
</svg>

<style type='text/css'>
<![CDATA[
[data-mouse-over-selected='false'] { opacity: 0.7; }
[data-mouse-over-selected='true']  { opacity: 1.0; }
]]>
</style>
<script type="application/ecmascript"><![CDATA[
document.addEventListener('DOMContentLoaded', (event) => {
  highlightEdges();
  highlightAdjacentNodes();
});
]]></script>
</svg>
