<?xml version="1.0" encoding="UTF-8" standalone="no"?>
<!DOCTYPE svg PUBLIC "-//W3C//DTD SVG 1.1//EN"
 "http://www.w3.org/Graphics/SVG/1.1/DTD/svg11.dtd">
<!-- Generated by graphviz version 14.1.2 (0)
 -->
<!-- Title: vanetza::dcc::GradualStateMachine Pages: 1 -->
<svg width="150pt" height="299pt"
 viewBox="0.00 0.00 150.00 299.00" xmlns="http://www.w3.org/2000/svg" xmlns:xlink="http://www.w3.org/1999/xlink">
<g id="graph0" class="graph" transform="scale(1 1) rotate(0) translate(4 295.25)">
<title>vanetza::dcc::GradualStateMachine</title>
<!-- Node1 -->
<g id="Node000001" class="node">
<title>Node1</title>
<g id="a_Node000001"><a xlink:title=" ">
<polygon fill="#999999" stroke="none" points="140.75,-167.5 1.5,-167.5 1.5,0 140.75,0 140.75,-167.5"/>
<text xml:space="preserve" text-anchor="start" x="5.5" y="-154" font-family="Helvetica,sans-Serif" font-size="10.00">vanetza::dcc::GradualState</text>
<text xml:space="preserve" text-anchor="start" x="50.5" y="-141.25" font-family="Helvetica,sans-Serif" font-size="10.00">Machine</text>
<text xml:space="preserve" text-anchor="start" x="9.19" y="-124.5" font-family="Helvetica,sans-Serif" font-size="10.00">&#45;</text>
<text xml:space="preserve" text-anchor="start" x="20.62" y="-124.5" font-family="Helvetica,sans-Serif" font-size="10.00">m_states</text>
<text xml:space="preserve" text-anchor="start" x="9.19" y="-107.75" font-family="Helvetica,sans-Serif" font-size="10.00">&#45;</text>
<text xml:space="preserve" text-anchor="start" x="20.62" y="-107.75" font-family="Helvetica,sans-Serif" font-size="10.00">m_current</text>
<text xml:space="preserve" text-anchor="start" x="6.94" y="-91" font-family="Helvetica,sans-Serif" font-size="10.00">+</text>
<text xml:space="preserve" text-anchor="start" x="20.62" y="-91" font-family="Helvetica,sans-Serif" font-size="10.00">GradualStateMachine()</text>
<text xml:space="preserve" text-anchor="start" x="6.94" y="-74.25" font-family="Helvetica,sans-Serif" font-size="10.00">+</text>
<text xml:space="preserve" text-anchor="start" x="20.62" y="-74.25" font-family="Helvetica,sans-Serif" font-size="10.00">GradualStateMachine()</text>
<text xml:space="preserve" text-anchor="start" x="6.94" y="-57.5" font-family="Helvetica,sans-Serif" font-size="10.00">+</text>
<text xml:space="preserve" text-anchor="start" x="20.62" y="-57.5" font-family="Helvetica,sans-Serif" font-size="10.00">update()</text>
<text xml:space="preserve" text-anchor="start" x="6.94" y="-40.75" font-family="Helvetica,sans-Serif" font-size="10.00">+</text>
<text xml:space="preserve" text-anchor="start" x="20.62" y="-40.75" font-family="Helvetica,sans-Serif" font-size="10.00">transmission_interval()</text>
<text xml:space="preserve" text-anchor="start" x="6.94" y="-24" font-family="Helvetica,sans-Serif" font-size="10.00">+</text>
<text xml:space="preserve" text-anchor="start" x="20.62" y="-24" font-family="Helvetica,sans-Serif" font-size="10.00">state()</text>
<text xml:space="preserve" text-anchor="start" x="9.19" y="-7.25" font-family="Helvetica,sans-Serif" font-size="10.00">&#45;</text>
<text xml:space="preserve" text-anchor="start" x="20.62" y="-7.25" font-family="Helvetica,sans-Serif" font-size="10.00">repair()</text>
<polygon fill="#666666" stroke="#666666" points="1.5,-136 1.5,-136 140.75,-136 140.75,-136 1.5,-136"/>
<polygon fill="#666666" stroke="#666666" points="1.5,-102.5 1.5,-102.5 18.62,-102.5 18.62,-102.5 1.5,-102.5"/>
<polygon fill="#666666" stroke="#666666" points="18.62,-102.5 18.62,-102.5 140.75,-102.5 140.75,-102.5 18.62,-102.5"/>
<polygon fill="none" stroke="#666666" points="1.5,0 1.5,-167.5 140.75,-167.5 140.75,0 1.5,0"/>
</a>
</g>
</g>
<!-- Node2 -->
<g id="Node000002" class="node">
<title>Node2</title>
<g id="a_Node000002"><a xlink:href="../../d8/db3/classvanetza_1_1dcc_1_1StateMachine.html" target="_top" xlink:title=" ">
<polygon fill="white" stroke="none" points="142.25,-291.25 0,-291.25 0,-203.5 142.25,-203.5 142.25,-291.25"/>
<text xml:space="preserve" text-anchor="start" x="4" y="-277.75" font-family="Helvetica,sans-Serif" font-size="10.00">vanetza::dcc::StateMachine</text>
<text xml:space="preserve" text-anchor="start" x="69.62" y="-261" font-family="Helvetica,sans-Serif" font-size="10.00"> </text>
<text xml:space="preserve" text-anchor="start" x="6.19" y="-244.25" font-family="Helvetica,sans-Serif" font-size="10.00">+</text>
<text xml:space="preserve" text-anchor="start" x="20.62" y="-244.25" font-family="Helvetica,sans-Serif" font-size="10.00">update()</text>
<text xml:space="preserve" text-anchor="start" x="6.19" y="-227.5" font-family="Helvetica,sans-Serif" font-size="10.00">+</text>
<text xml:space="preserve" text-anchor="start" x="20.62" y="-227.5" font-family="Helvetica,sans-Serif" font-size="10.00">transmission_interval()</text>
<text xml:space="preserve" text-anchor="start" x="6.19" y="-210.75" font-family="Helvetica,sans-Serif" font-size="10.00">+</text>
<text xml:space="preserve" text-anchor="start" x="20.62" y="-210.75" font-family="Helvetica,sans-Serif" font-size="10.00">~StateMachine()</text>
<polygon fill="#666666" stroke="#666666" points="0,-272.5 0,-272.5 142.25,-272.5 142.25,-272.5 0,-272.5"/>
<polygon fill="#666666" stroke="#666666" points="0,-255.75 0,-255.75 142.25,-255.75 142.25,-255.75 0,-255.75"/>
<polygon fill="none" stroke="#666666" points="0,-203.5 0,-291.25 142.25,-291.25 142.25,-203.5 0,-203.5"/>
</a>
</g>
</g>
<!-- Node2&#45;&gt;Node1 -->
<g id="edge1_Node000001_Node000002" class="edge">
<title>Node2&#45;&gt;Node1</title>
<g id="a_edge1_Node000001_Node000002"><a xlink:title=" ">
<path fill="none" stroke="#63b8ff" d="M71.12,-192.67C71.12,-184.5 71.12,-175.91 71.12,-167.29"/>
<polygon fill="none" stroke="#63b8ff" points="67.63,-192.4 71.13,-202.4 74.63,-192.4 67.63,-192.4"/>
</a>
</g>
</g>
</g>
</svg>
