<?xml version="1.0" encoding="UTF-8" standalone="no"?>
<!DOCTYPE svg PUBLIC "-//W3C//DTD SVG 1.1//EN"
 "http://www.w3.org/Graphics/SVG/1.1/DTD/svg11.dtd">
<!-- Generated by graphviz version 2.42.1 (0)
 -->
<!-- Title: vanetza::dcc::GradualStateMachine Pages: 1 -->
<svg width="147pt" height="259pt"
 viewBox="0.00 0.00 147.00 259.00" xmlns="http://www.w3.org/2000/svg" xmlns:xlink="http://www.w3.org/1999/xlink">
<g id="graph0" class="graph" transform="scale(1 1) rotate(0) translate(4 255)">
<title>vanetza::dcc::GradualStateMachine</title>
<polygon fill="white" stroke="transparent" points="-4,4 -4,-255 143,-255 143,4 -4,4"/>
<!-- Node0 -->
<g id="node1" class="node">
<title>Node0</title>
<g id="a_node1"><a xlink:title=" ">
<polygon fill="#bfbfbf" stroke="black" points="1.5,-0.5 1.5,-134.5 137.5,-134.5 137.5,-0.5 1.5,-0.5"/>
<text text-anchor="start" x="9.5" y="-122.5" font-family="Helvetica,sans-Serif" font-size="10.00">vanetza::dcc::GradualState</text>
<text text-anchor="middle" x="69.5" y="-111.5" font-family="Helvetica,sans-Serif" font-size="10.00">Machine</text>
<polyline fill="none" stroke="black" points="1.5,-104.5 137.5,-104.5 "/>
<text text-anchor="start" x="9.5" y="-92.5" font-family="Helvetica,sans-Serif" font-size="10.00">&#45; m_states</text>
<text text-anchor="start" x="9.5" y="-81.5" font-family="Helvetica,sans-Serif" font-size="10.00">&#45; m_current</text>
<polyline fill="none" stroke="black" points="1.5,-74.5 137.5,-74.5 "/>
<text text-anchor="start" x="9.5" y="-62.5" font-family="Helvetica,sans-Serif" font-size="10.00">+ GradualStateMachine()</text>
<text text-anchor="start" x="9.5" y="-51.5" font-family="Helvetica,sans-Serif" font-size="10.00">+ GradualStateMachine()</text>
<text text-anchor="start" x="9.5" y="-40.5" font-family="Helvetica,sans-Serif" font-size="10.00">+ update()</text>
<text text-anchor="start" x="9.5" y="-29.5" font-family="Helvetica,sans-Serif" font-size="10.00">+ transmission_interval()</text>
<text text-anchor="start" x="9.5" y="-18.5" font-family="Helvetica,sans-Serif" font-size="10.00">+ state()</text>
<text text-anchor="start" x="9.5" y="-7.5" font-family="Helvetica,sans-Serif" font-size="10.00">&#45; repair()</text>
</a>
</g>
</g>
<!-- Node1 -->
<g id="node2" class="node">
<title>Node1</title>
<g id="a_node2"><a xlink:href="../../d8/db3/classvanetza_1_1dcc_1_1StateMachine.html" target="_top" xlink:title=" ">
<polygon fill="white" stroke="black" points="0,-171.5 0,-250.5 139,-250.5 139,-171.5 0,-171.5"/>
<text text-anchor="middle" x="69.5" y="-238.5" font-family="Helvetica,sans-Serif" font-size="10.00">vanetza::dcc::StateMachine</text>
<polyline fill="none" stroke="black" points="0,-231.5 139,-231.5 "/>
<text text-anchor="middle" x="69.5" y="-219.5" font-family="Helvetica,sans-Serif" font-size="10.00"> </text>
<polyline fill="none" stroke="black" points="0,-212.5 139,-212.5 "/>
<text text-anchor="start" x="8" y="-200.5" font-family="Helvetica,sans-Serif" font-size="10.00">+ update()</text>
<text text-anchor="start" x="8" y="-189.5" font-family="Helvetica,sans-Serif" font-size="10.00">+ transmission_interval()</text>
<text text-anchor="start" x="8" y="-178.5" font-family="Helvetica,sans-Serif" font-size="10.00">+ ~StateMachine()</text>
</a>
</g>
</g>
<!-- Node1&#45;&gt;Node0 -->
<g id="edge1" class="edge">
<title>Node1&#45;&gt;Node0</title>
<path fill="none" stroke="midnightblue" d="M69.5,-161.16C69.5,-152.59 69.5,-143.55 69.5,-134.6"/>
<polygon fill="none" stroke="midnightblue" points="66,-161.33 69.5,-171.33 73,-161.33 66,-161.33"/>
</g>
</g>
</svg>
