<?xml version="1.0" encoding="UTF-8" standalone="no"?>
<!DOCTYPE svg PUBLIC "-//W3C//DTD SVG 1.1//EN"
 "http://www.w3.org/Graphics/SVG/1.1/DTD/svg11.dtd">
<!-- Generated by graphviz version 14.1.2 (0)
 -->
<!-- Title: vanetza::dcc::ChannelLoad Pages: 1 -->
<!--zoomable 557 -->

<svg id="main" version="1.1" xmlns="http://www.w3.org/2000/svg" xmlns:xlink="http://www.w3.org/1999/xlink" xml:space="preserve" onload="init(evt)">

<style type="text/css"><![CDATA[
.node, .edge {opacity: 0.7;}
.node.selected, .edge.selected {opacity: 1;}
.edge:hover path { stroke: red; }
.edge:hover polygon { stroke: red; fill: red; }
]]></style>

<defs>
  <circle id="rim" cx="0" cy="0" r="7"/>
  <circle id="rim2" cx="0" cy="0" r="3.5"/>
  <g id="zoomPlus">
    <use xlink:href="#rim" fill="#404040"><set attributeName="fill" to="#808080" begin="zoomplus.mouseover" end="zoomplus.mouseout"/></use>
    <path d="M-4,0h8M0,-4v8" fill="none" stroke="white" stroke-width="1.5" pointer-events="none"/>
  </g>
  <g id="zoomMin">
    <use xlink:href="#rim" fill="#404040"><set attributeName="fill" to="#808080" begin="zoomminus.mouseover" end="zoomminus.mouseout"/></use>
    <path d="M-4,0h8" fill="none" stroke="white" stroke-width="1.5" pointer-events="none"/>
  </g>
  <g id="arrowUp" transform="translate(30 24)">
    <use xlink:href="#rim"/>
    <path pointer-events="none" fill="none" stroke="white" stroke-width="1.5" d="M0,-3.0v7 M-2.5,-0.5L0,-3.0L2.5,-0.5"/>
  </g>
  <g id="arrowRight" transform="rotate(90) translate(36 -43)">
    <use xlink:href="#rim"/>
    <path pointer-events="none" fill="none" stroke="white" stroke-width="1.5" d="M0,-3.0v7 M-2.5,-0.5L0,-3.0L2.5,-0.5"/>
  </g>
  <g id="arrowDown" transform="rotate(180) translate(-30 -48)">
    <use xlink:href="#rim"/>
    <path pointer-events="none" fill="none" stroke="white" stroke-width="1.5" d="M0,-3.0v7 M-2.5,-0.5L0,-3.0L2.5,-0.5"/>
  </g>
  <g id="arrowLeft" transform="rotate(270) translate(-36 17)">
    <use xlink:href="#rim"/>
    <path pointer-events="none" fill="none" stroke="white" stroke-width="1.5" d="M0,-3.0v7 M-2.5,-0.5L0,-3.0L2.5,-0.5"/>
  </g>
  <g id="resetDef">
    <use xlink:href="#rim2" fill="#404040"><set attributeName="fill" to="#808080" begin="reset.mouseover" end="reset.mouseout"/></use>
  </g>
</defs>
<script type="application/ecmascript">
var viewWidth = 377;
var viewHeight = 557;
var sectionId = 'dynsection-0';
</script>
<script type="application/ecmascript" xlink:href="../../svg.min.js"/>
<svg id="graph" class="graph">
<g id="viewport">
<title>vanetza::dcc::ChannelLoad</title>
<!-- Node1 -->
<g id="Node000001" class="node">
<title>Node1</title>
<g id="a_Node000001"><a xlink:title=" ">
<polygon fill="#999999" stroke="none" points="246,-154.75 107.5,-154.75 107.5,0 246,0 246,-154.75"/>
<text xml:space="preserve" text-anchor="start" x="111.5" y="-141.25" font-family="Helvetica,sans-Serif" font-size="10.00">vanetza::dcc::ChannelLoad</text>
<text xml:space="preserve" text-anchor="start" x="175.25" y="-124.5" font-family="Helvetica,sans-Serif" font-size="10.00"> </text>
<text xml:space="preserve" text-anchor="start" x="114.81" y="-107.75" font-family="Helvetica,sans-Serif" font-size="10.00">+</text>
<text xml:space="preserve" text-anchor="start" x="130.38" y="-107.75" font-family="Helvetica,sans-Serif" font-size="10.00">ChannelLoad()</text>
<text xml:space="preserve" text-anchor="start" x="114.81" y="-91" font-family="Helvetica,sans-Serif" font-size="10.00">+</text>
<text xml:space="preserve" text-anchor="start" x="130.38" y="-91" font-family="Helvetica,sans-Serif" font-size="10.00">ChannelLoad()</text>
<text xml:space="preserve" text-anchor="start" x="114.81" y="-74.25" font-family="Helvetica,sans-Serif" font-size="10.00">+</text>
<text xml:space="preserve" text-anchor="start" x="130.38" y="-74.25" font-family="Helvetica,sans-Serif" font-size="10.00">ChannelLoad()</text>
<text xml:space="preserve" text-anchor="start" x="114.81" y="-57.5" font-family="Helvetica,sans-Serif" font-size="10.00">+</text>
<text xml:space="preserve" text-anchor="start" x="130.38" y="-57.5" font-family="Helvetica,sans-Serif" font-size="10.00">UnitInterval()</text>
<text xml:space="preserve" text-anchor="start" x="114.81" y="-40.75" font-family="Helvetica,sans-Serif" font-size="10.00">+</text>
<text xml:space="preserve" text-anchor="start" x="130.38" y="-40.75" font-family="Helvetica,sans-Serif" font-size="10.00">UnitInterval()</text>
<text xml:space="preserve" text-anchor="start" x="114.81" y="-24" font-family="Helvetica,sans-Serif" font-size="10.00">+</text>
<text xml:space="preserve" text-anchor="start" x="130.38" y="-24" font-family="Helvetica,sans-Serif" font-size="10.00">UnitInterval()</text>
<text xml:space="preserve" text-anchor="start" x="114.81" y="-7.25" font-family="Helvetica,sans-Serif" font-size="10.00">+</text>
<text xml:space="preserve" text-anchor="start" x="130.38" y="-7.25" font-family="Helvetica,sans-Serif" font-size="10.00">create_from_probes()</text>
<polygon fill="#666666" stroke="#666666" points="107.5,-136 107.5,-136 246,-136 246,-136 107.5,-136"/>
<polygon fill="#666666" stroke="#666666" points="107.5,-119.25 107.5,-119.25 246,-119.25 246,-119.25 107.5,-119.25"/>
<polygon fill="none" stroke="#666666" points="107.5,0 107.5,-154.75 246,-154.75 246,0 107.5,0"/>
</a>
</g>
</g>
<!-- Node2 -->
<g id="Node000002" class="node">
<title>Node2</title>
<g id="a_Node000002"><a xlink:href="../../d4/d40/classvanetza_1_1UnitInterval.html" target="_top" xlink:title=" ">
<polygon fill="white" stroke="none" points="232.12,-446 121.38,-446 121.38,-190.75 232.12,-190.75 232.12,-446"/>
<text xml:space="preserve" text-anchor="start" x="125.38" y="-432.5" font-family="Helvetica,sans-Serif" font-size="10.00">vanetza::UnitInterval</text>
<text xml:space="preserve" text-anchor="start" x="133.94" y="-415.75" font-family="Helvetica,sans-Serif" font-size="10.00">&#45;</text>
<text xml:space="preserve" text-anchor="start" x="150.25" y="-415.75" font-family="Helvetica,sans-Serif" font-size="10.00">m_value</text>
<text xml:space="preserve" text-anchor="start" x="131.69" y="-399" font-family="Helvetica,sans-Serif" font-size="10.00">+</text>
<text xml:space="preserve" text-anchor="start" x="150.25" y="-399" font-family="Helvetica,sans-Serif" font-size="10.00">UnitInterval()</text>
<text xml:space="preserve" text-anchor="start" x="131.69" y="-382.25" font-family="Helvetica,sans-Serif" font-size="10.00">+</text>
<text xml:space="preserve" text-anchor="start" x="150.25" y="-382.25" font-family="Helvetica,sans-Serif" font-size="10.00">UnitInterval()</text>
<text xml:space="preserve" text-anchor="start" x="131.69" y="-365.5" font-family="Helvetica,sans-Serif" font-size="10.00">+</text>
<text xml:space="preserve" text-anchor="start" x="150.25" y="-365.5" font-family="Helvetica,sans-Serif" font-size="10.00">UnitInterval()</text>
<text xml:space="preserve" text-anchor="start" x="131.69" y="-348.75" font-family="Helvetica,sans-Serif" font-size="10.00">+</text>
<text xml:space="preserve" text-anchor="start" x="150.25" y="-348.75" font-family="Helvetica,sans-Serif" font-size="10.00">operator=()</text>
<text xml:space="preserve" text-anchor="start" x="131.69" y="-332" font-family="Helvetica,sans-Serif" font-size="10.00">+</text>
<text xml:space="preserve" text-anchor="start" x="150.25" y="-332" font-family="Helvetica,sans-Serif" font-size="10.00">operator+=()</text>
<text xml:space="preserve" text-anchor="start" x="131.69" y="-315.25" font-family="Helvetica,sans-Serif" font-size="10.00">+</text>
<text xml:space="preserve" text-anchor="start" x="150.25" y="-315.25" font-family="Helvetica,sans-Serif" font-size="10.00">operator&#45;=()</text>
<text xml:space="preserve" text-anchor="start" x="131.69" y="-298.5" font-family="Helvetica,sans-Serif" font-size="10.00">+</text>
<text xml:space="preserve" text-anchor="start" x="150.25" y="-298.5" font-family="Helvetica,sans-Serif" font-size="10.00">operator*=()</text>
<text xml:space="preserve" text-anchor="start" x="131.69" y="-281.75" font-family="Helvetica,sans-Serif" font-size="10.00">+</text>
<text xml:space="preserve" text-anchor="start" x="150.25" y="-281.75" font-family="Helvetica,sans-Serif" font-size="10.00">operator/=()</text>
<text xml:space="preserve" text-anchor="start" x="131.69" y="-265" font-family="Helvetica,sans-Serif" font-size="10.00">+</text>
<text xml:space="preserve" text-anchor="start" x="150.25" y="-265" font-family="Helvetica,sans-Serif" font-size="10.00">operator+=()</text>
<text xml:space="preserve" text-anchor="start" x="131.69" y="-248.25" font-family="Helvetica,sans-Serif" font-size="10.00">+</text>
<text xml:space="preserve" text-anchor="start" x="150.25" y="-248.25" font-family="Helvetica,sans-Serif" font-size="10.00">operator&#45;=()</text>
<text xml:space="preserve" text-anchor="start" x="150.25" y="-231.5" font-family="Helvetica,sans-Serif" font-size="10.00">and 6 more...</text>
<text xml:space="preserve" text-anchor="start" x="133.94" y="-214.75" font-family="Helvetica,sans-Serif" font-size="10.00">&#45;</text>
<text xml:space="preserve" text-anchor="start" x="150.25" y="-214.75" font-family="Helvetica,sans-Serif" font-size="10.00">clamp()</text>
<text xml:space="preserve" text-anchor="start" x="133.94" y="-198" font-family="Helvetica,sans-Serif" font-size="10.00">&#45;</text>
<text xml:space="preserve" text-anchor="start" x="150.25" y="-198" font-family="Helvetica,sans-Serif" font-size="10.00">clamp()</text>
<polygon fill="#666666" stroke="#666666" points="121.38,-427.25 121.38,-427.25 232.12,-427.25 232.12,-427.25 121.38,-427.25"/>
<polygon fill="#666666" stroke="#666666" points="121.38,-410.5 121.38,-410.5 148.25,-410.5 148.25,-410.5 121.38,-410.5"/>
<polygon fill="#666666" stroke="#666666" points="148.25,-410.5 148.25,-410.5 232.12,-410.5 232.12,-410.5 148.25,-410.5"/>
<polygon fill="none" stroke="#666666" points="121.38,-190.75 121.38,-446 232.12,-446 232.12,-190.75 121.38,-190.75"/>
</a>
</g>
</g>
<!-- Node2&#45;&gt;Node1 -->
<g id="edge1_Node000001_Node000002" class="edge">
<title>Node2&#45;&gt;Node1</title>
<g id="a_edge1_Node000001_Node000002"><a xlink:title=" ">
<path fill="none" stroke="#63b8ff" d="M176.75,-179.56C176.75,-171 176.75,-162.56 176.75,-154.43"/>
<polygon fill="none" stroke="#63b8ff" points="173.25,-179.36 176.75,-189.36 180.25,-179.36 173.25,-179.36"/>
</a>
</g>
</g>
<!-- Node3 -->
<g id="Node000003" class="node">
<title>Node3</title>
<g id="a_Node000003"><a xlink:title=" ">
<polygon fill="white" stroke="none" points="99.5,-549 0,-549 0,-482 99.5,-482 99.5,-549"/>
<text xml:space="preserve" text-anchor="start" x="4" y="-535.5" font-family="Helvetica,sans-Serif" font-size="10.00">boost::arithmetic&lt;</text>
<text xml:space="preserve" text-anchor="start" x="13.75" y="-522.75" font-family="Helvetica,sans-Serif" font-size="10.00"> UnitInterval &gt;</text>
<text xml:space="preserve" text-anchor="start" x="48.25" y="-506" font-family="Helvetica,sans-Serif" font-size="10.00"> </text>
<text xml:space="preserve" text-anchor="start" x="48.25" y="-489.25" font-family="Helvetica,sans-Serif" font-size="10.00"> </text>
<polygon fill="#bfbfbf" stroke="#bfbfbf" points="0,-517.5 0,-517.5 99.5,-517.5 99.5,-517.5 0,-517.5"/>
<polygon fill="#bfbfbf" stroke="#bfbfbf" points="0,-500.75 0,-500.75 99.5,-500.75 99.5,-500.75 0,-500.75"/>
<polygon fill="none" stroke="#bfbfbf" points="0,-482 0,-549 99.5,-549 99.5,-482 0,-482"/>
</a>
</g>
</g>
<!-- Node3&#45;&gt;Node2 -->
<g id="edge2_Node000002_Node000003" class="edge">
<title>Node3&#45;&gt;Node2</title>
<g id="a_edge2_Node000002_Node000003"><a xlink:title=" ">
<path fill="none" stroke="#8b1a1a" d="M76.86,-472.85C89.9,-452.82 106.03,-428.03 121.49,-404.27"/>
<polygon fill="none" stroke="#8b1a1a" points="74.07,-470.72 71.55,-481.01 79.94,-474.54 74.07,-470.72"/>
</a>
</g>
</g>
<!-- Node4 -->
<g id="Node000004" class="node">
<title>Node4</title>
<g id="a_Node000004"><a xlink:title=" ">
<polygon fill="white" stroke="none" points="236.25,-549 117.25,-549 117.25,-482 236.25,-482 236.25,-549"/>
<text xml:space="preserve" text-anchor="start" x="121.25" y="-535.5" font-family="Helvetica,sans-Serif" font-size="10.00">boost::arithmetic&lt;</text>
<text xml:space="preserve" text-anchor="start" x="121.25" y="-522.75" font-family="Helvetica,sans-Serif" font-size="10.00"> UnitInterval, double &gt;</text>
<text xml:space="preserve" text-anchor="start" x="175.25" y="-506" font-family="Helvetica,sans-Serif" font-size="10.00"> </text>
<text xml:space="preserve" text-anchor="start" x="175.25" y="-489.25" font-family="Helvetica,sans-Serif" font-size="10.00"> </text>
<polygon fill="#bfbfbf" stroke="#bfbfbf" points="117.25,-517.5 117.25,-517.5 236.25,-517.5 236.25,-517.5 117.25,-517.5"/>
<polygon fill="#bfbfbf" stroke="#bfbfbf" points="117.25,-500.75 117.25,-500.75 236.25,-500.75 236.25,-500.75 117.25,-500.75"/>
<polygon fill="none" stroke="#bfbfbf" points="117.25,-482 117.25,-549 236.25,-549 236.25,-482 117.25,-482"/>
</a>
</g>
</g>
<!-- Node4&#45;&gt;Node2 -->
<g id="edge3_Node000002_Node000004" class="edge">
<title>Node4&#45;&gt;Node2</title>
<g id="a_edge3_Node000002_Node000004"><a xlink:title=" ">
<path fill="none" stroke="#8b1a1a" d="M176.75,-470.98C176.75,-463.17 176.75,-454.69 176.75,-445.85"/>
<polygon fill="none" stroke="#8b1a1a" points="173.25,-470.77 176.75,-480.77 180.25,-470.77 173.25,-470.77"/>
</a>
</g>
</g>
<!-- Node5 -->
<g id="Node000005" class="node">
<title>Node5</title>
<g id="a_Node000005"><a xlink:title=" ">
<polygon fill="white" stroke="none" points="369.38,-549 254.12,-549 254.12,-482 369.38,-482 369.38,-549"/>
<text xml:space="preserve" text-anchor="start" x="258.12" y="-535.5" font-family="Helvetica,sans-Serif" font-size="10.00">boost::totally_ordered</text>
<text xml:space="preserve" text-anchor="start" x="271.62" y="-522.75" font-family="Helvetica,sans-Serif" font-size="10.00">&lt; UnitInterval &gt;</text>
<text xml:space="preserve" text-anchor="start" x="310.25" y="-506" font-family="Helvetica,sans-Serif" font-size="10.00"> </text>
<text xml:space="preserve" text-anchor="start" x="310.25" y="-489.25" font-family="Helvetica,sans-Serif" font-size="10.00"> </text>
<polygon fill="#bfbfbf" stroke="#bfbfbf" points="254.12,-517.5 254.12,-517.5 369.38,-517.5 369.38,-517.5 254.12,-517.5"/>
<polygon fill="#bfbfbf" stroke="#bfbfbf" points="254.12,-500.75 254.12,-500.75 369.38,-500.75 369.38,-500.75 254.12,-500.75"/>
<polygon fill="none" stroke="#bfbfbf" points="254.12,-482 254.12,-549 369.38,-549 369.38,-482 254.12,-482"/>
</a>
</g>
</g>
<!-- Node5&#45;&gt;Node2 -->
<g id="edge4_Node000002_Node000005" class="edge">
<title>Node5&#45;&gt;Node2</title>
<g id="a_edge4_Node000002_Node000005"><a xlink:title=" ">
<path fill="none" stroke="#8b1a1a" d="M282.92,-472.83C268.08,-451.38 249.48,-424.49 232,-399.24"/>
<polygon fill="none" stroke="#8b1a1a" points="280.03,-474.8 288.6,-481.03 285.78,-470.82 280.03,-474.8"/>
</a>
</g>
</g>
</g>
</svg>

<g id="navigator" transform="translate(0 0)" fill="#404254">
  <rect fill="#f2f5e9" fill-opacity="0.5" stroke="#606060" stroke-width=".5" x="0" y="0" width="60" height="60"/>
  <use id="zoomplus" xlink:href="#zoomPlus" x="17" y="9" onmousedown="handleZoom(evt,'in')"/>
  <use id="zoomminus" xlink:href="#zoomMin" x="42" y="9" onmousedown="handleZoom(evt,'out')"/>
  <use id="reset" xlink:href="#resetDef" x="30" y="36" onmousedown="handleReset()"/>
   <use id="arrowup" xlink:href="#arrowUp" x="0" y="0" onmousedown="handlePan(0,-1)"/>
  <use id="arrowright" xlink:href="#arrowRight" x="0" y="0" onmousedown="handlePan(1,0)"/>
  <use id="arrowdown" xlink:href="#arrowDown" x="0" y="0" onmousedown="handlePan(0,1)"/>
  <use id="arrowleft" xlink:href="#arrowLeft" x="0" y="0" onmousedown="handlePan(-1,0)"/>
</g>
<svg viewBox="0 0 15 15" width="100%" height="30px" preserveAspectRatio="xMaxYMin meet">
 <g id="arrow_out" transform="scale(0.3 0.3)">
  <a xlink:href="classvanetza_1_1dcc_1_1ChannelLoad__inherit__graph_org.svg" target="_base">
   <rect id="button" ry="5" rx="5" y="6" x="6" height="38" width="38"
        fill="#f2f5e9" fill-opacity="0.5" stroke="#606060" stroke-width="1.0"/>
   <path id="arrow"
     d="M 11.500037,31.436501 C 11.940474,20.09759 22.043105,11.32322 32.158766,21.979434 L 37.068811,17.246167 C 37.068811,17.246167 37.088388,32 37.088388,32 L 22.160133,31.978069 C 22.160133,31.978069 26.997745,27.140456 26.997745,27.140456 C 18.528582,18.264221 13.291696,25.230495 11.500037,31.436501 z"
     style="fill:#404040;"/>
  </a>
 </g>
</svg>

<style type='text/css'>
<![CDATA[
[data-mouse-over-selected='false'] { opacity: 0.7; }
[data-mouse-over-selected='true']  { opacity: 1.0; }
]]>
</style>
<script type="application/ecmascript"><![CDATA[
document.addEventListener('DOMContentLoaded', (event) => {
  highlightEdges();
  highlightAdjacentNodes();
});
]]></script>
</svg>
