<?xml version="1.0" encoding="UTF-8" standalone="no"?>
<!DOCTYPE svg PUBLIC "-//W3C//DTD SVG 1.1//EN"
 "http://www.w3.org/Graphics/SVG/1.1/DTD/svg11.dtd">
<!-- Generated by graphviz version 2.49.3 (0)
 -->
<!-- Title: vanetza::dcc::ChannelLoad Pages: 1 -->
<svg width="345pt" height="508pt"
 viewBox="0.00 0.00 344.50 508.00" xmlns="http://www.w3.org/2000/svg" xmlns:xlink="http://www.w3.org/1999/xlink">
<g id="graph0" class="graph" transform="scale(1 1) rotate(0) translate(4 504)">
<title>vanetza::dcc::ChannelLoad</title>
<!-- Node1 -->
<g id="Node000001" class="node">
<title>Node1</title>
<g id="a_Node000001"><a xlink:title=" ">
<polygon fill="#999999" stroke="transparent" points="225,-139 96,-139 96,0 225,0 225,-139"/>
<text text-anchor="start" x="101.5" y="-126.5" font-family="Helvetica,sans-Serif" font-size="10.00">vanetza::dcc::ChannelLoad</text>
<text text-anchor="start" x="159" y="-111.5" font-family="Helvetica,sans-Serif" font-size="10.00"> </text>
<text text-anchor="start" x="104.5" y="-96.5" font-family="Helvetica,sans-Serif" font-size="10.00">+</text>
<text text-anchor="start" x="119.5" y="-96.5" font-family="Helvetica,sans-Serif" font-size="10.00">ChannelLoad()</text>
<text text-anchor="start" x="104.5" y="-81.5" font-family="Helvetica,sans-Serif" font-size="10.00">+</text>
<text text-anchor="start" x="119.5" y="-81.5" font-family="Helvetica,sans-Serif" font-size="10.00">ChannelLoad()</text>
<text text-anchor="start" x="104.5" y="-66.5" font-family="Helvetica,sans-Serif" font-size="10.00">+</text>
<text text-anchor="start" x="119.5" y="-66.5" font-family="Helvetica,sans-Serif" font-size="10.00">ChannelLoad()</text>
<text text-anchor="start" x="104.5" y="-51.5" font-family="Helvetica,sans-Serif" font-size="10.00">+</text>
<text text-anchor="start" x="119.5" y="-51.5" font-family="Helvetica,sans-Serif" font-size="10.00">UnitInterval()</text>
<text text-anchor="start" x="104.5" y="-36.5" font-family="Helvetica,sans-Serif" font-size="10.00">+</text>
<text text-anchor="start" x="119.5" y="-36.5" font-family="Helvetica,sans-Serif" font-size="10.00">UnitInterval()</text>
<text text-anchor="start" x="104.5" y="-21.5" font-family="Helvetica,sans-Serif" font-size="10.00">+</text>
<text text-anchor="start" x="119.5" y="-21.5" font-family="Helvetica,sans-Serif" font-size="10.00">UnitInterval()</text>
<text text-anchor="start" x="104.5" y="-6.5" font-family="Helvetica,sans-Serif" font-size="10.00">+</text>
<text text-anchor="start" x="119.5" y="-6.5" font-family="Helvetica,sans-Serif" font-size="10.00">create_from_probes()</text>
<polygon fill="#666666" stroke="#666666" points="96.5,-121.5 96.5,-121.5 225.5,-121.5 225.5,-121.5 96.5,-121.5"/>
<polygon fill="#666666" stroke="#666666" points="96.5,-106.5 96.5,-106.5 225.5,-106.5 225.5,-106.5 96.5,-106.5"/>
<polygon fill="none" stroke="#666666" points="96,0 96,-139 225,-139 225,0 96,0"/>
</a>
</g>
</g>
<!-- Node2 -->
<g id="Node000002" class="node">
<title>Node2</title>
<g id="a_Node000002"><a xlink:href="../../d4/d40/classvanetza_1_1UnitInterval.html" target="_top" xlink:title=" ">
<polygon fill="white" stroke="transparent" points="211,-404 110,-404 110,-175 211,-175 211,-404"/>
<text text-anchor="start" x="115.5" y="-391.5" font-family="Helvetica,sans-Serif" font-size="10.00">vanetza::UnitInterval</text>
<text text-anchor="start" x="122" y="-376.5" font-family="Helvetica,sans-Serif" font-size="10.00">&#45;</text>
<text text-anchor="start" x="137.5" y="-376.5" font-family="Helvetica,sans-Serif" font-size="10.00">m_value</text>
<text text-anchor="start" x="120.5" y="-361.5" font-family="Helvetica,sans-Serif" font-size="10.00">+</text>
<text text-anchor="start" x="137.5" y="-361.5" font-family="Helvetica,sans-Serif" font-size="10.00">UnitInterval()</text>
<text text-anchor="start" x="120.5" y="-346.5" font-family="Helvetica,sans-Serif" font-size="10.00">+</text>
<text text-anchor="start" x="137.5" y="-346.5" font-family="Helvetica,sans-Serif" font-size="10.00">UnitInterval()</text>
<text text-anchor="start" x="120.5" y="-331.5" font-family="Helvetica,sans-Serif" font-size="10.00">+</text>
<text text-anchor="start" x="137.5" y="-331.5" font-family="Helvetica,sans-Serif" font-size="10.00">UnitInterval()</text>
<text text-anchor="start" x="120.5" y="-316.5" font-family="Helvetica,sans-Serif" font-size="10.00">+</text>
<text text-anchor="start" x="137.5" y="-316.5" font-family="Helvetica,sans-Serif" font-size="10.00">operator=()</text>
<text text-anchor="start" x="120.5" y="-301.5" font-family="Helvetica,sans-Serif" font-size="10.00">+</text>
<text text-anchor="start" x="137.5" y="-301.5" font-family="Helvetica,sans-Serif" font-size="10.00">operator+=()</text>
<text text-anchor="start" x="120.5" y="-286.5" font-family="Helvetica,sans-Serif" font-size="10.00">+</text>
<text text-anchor="start" x="137.5" y="-286.5" font-family="Helvetica,sans-Serif" font-size="10.00">operator&#45;=()</text>
<text text-anchor="start" x="120.5" y="-271.5" font-family="Helvetica,sans-Serif" font-size="10.00">+</text>
<text text-anchor="start" x="137.5" y="-271.5" font-family="Helvetica,sans-Serif" font-size="10.00">operator*=()</text>
<text text-anchor="start" x="120.5" y="-256.5" font-family="Helvetica,sans-Serif" font-size="10.00">+</text>
<text text-anchor="start" x="137.5" y="-256.5" font-family="Helvetica,sans-Serif" font-size="10.00">operator/=()</text>
<text text-anchor="start" x="120.5" y="-241.5" font-family="Helvetica,sans-Serif" font-size="10.00">+</text>
<text text-anchor="start" x="137.5" y="-241.5" font-family="Helvetica,sans-Serif" font-size="10.00">operator+=()</text>
<text text-anchor="start" x="120.5" y="-226.5" font-family="Helvetica,sans-Serif" font-size="10.00">+</text>
<text text-anchor="start" x="137.5" y="-226.5" font-family="Helvetica,sans-Serif" font-size="10.00">operator&#45;=()</text>
<text text-anchor="start" x="137.5" y="-211.5" font-family="Helvetica,sans-Serif" font-size="10.00">and 6 more...</text>
<text text-anchor="start" x="122" y="-196.5" font-family="Helvetica,sans-Serif" font-size="10.00">&#45;</text>
<text text-anchor="start" x="137.5" y="-196.5" font-family="Helvetica,sans-Serif" font-size="10.00">clamp()</text>
<text text-anchor="start" x="122" y="-181.5" font-family="Helvetica,sans-Serif" font-size="10.00">&#45;</text>
<text text-anchor="start" x="137.5" y="-181.5" font-family="Helvetica,sans-Serif" font-size="10.00">clamp()</text>
<polygon fill="#666666" stroke="#666666" points="110.5,-386.5 110.5,-386.5 211.5,-386.5 211.5,-386.5 110.5,-386.5"/>
<polygon fill="#666666" stroke="#666666" points="110.5,-371.5 110.5,-371.5 135.5,-371.5 135.5,-371.5 110.5,-371.5"/>
<polygon fill="#666666" stroke="#666666" points="135.5,-371.5 135.5,-371.5 211.5,-371.5 211.5,-371.5 135.5,-371.5"/>
<polygon fill="none" stroke="#666666" points="110,-175 110,-404 211,-404 211,-175 110,-175"/>
</a>
</g>
</g>
<!-- Node2&#45;&gt;Node1 -->
<g id="edge1_Node000001_Node000002" class="edge">
<title>Node2&#45;&gt;Node1</title>
<g id="a_edge1_Node000001_Node000002"><a xlink:title=" ">
<path fill="none" stroke="#63b8ff" d="M160.5,-164.47C160.5,-155.78 160.5,-147.22 160.5,-139.02"/>
<polygon fill="none" stroke="#63b8ff" points="157,-164.71 160.5,-174.71 164,-164.71 157,-164.71"/>
</a>
</g>
</g>
<!-- Node3 -->
<g id="Node000003" class="node">
<title>Node3</title>
<g id="a_Node000003"><a xlink:title=" ">
<polygon fill="white" stroke="transparent" points="89,-500 0,-500 0,-440 89,-440 89,-500"/>
<text text-anchor="start" x="5.5" y="-488" font-family="Helvetica,sans-Serif" font-size="10.00">boost::arithmetic&lt;</text>
<text text-anchor="start" x="13.5" y="-477" font-family="Helvetica,sans-Serif" font-size="10.00"> UnitInterval &gt;</text>
<text text-anchor="start" x="43" y="-462" font-family="Helvetica,sans-Serif" font-size="10.00"> </text>
<text text-anchor="start" x="43" y="-447" font-family="Helvetica,sans-Serif" font-size="10.00"> </text>
<polygon fill="#bfbfbf" stroke="#bfbfbf" points="0.5,-472 0.5,-472 89.5,-472 89.5,-472 0.5,-472"/>
<polygon fill="#bfbfbf" stroke="#bfbfbf" points="0.5,-457 0.5,-457 89.5,-457 89.5,-457 0.5,-457"/>
<polygon fill="none" stroke="#bfbfbf" points="0,-440 0,-500 89,-500 89,-440 0,-440"/>
</a>
</g>
</g>
<!-- Node3&#45;&gt;Node2 -->
<g id="edge2_Node000002_Node000003" class="edge">
<title>Node3&#45;&gt;Node2</title>
<g id="a_edge2_Node000002_Node000003"><a xlink:title=" ">
<path fill="none" stroke="#8b1a1a" d="M68.99,-431.31C80.89,-413 95.65,-390.29 109.82,-368.48"/>
<polygon fill="none" stroke="#8b1a1a" points="65.91,-429.63 63.4,-439.92 71.78,-433.45 65.91,-429.63"/>
</a>
</g>
</g>
<!-- Node4 -->
<g id="Node000004" class="node">
<title>Node4</title>
<g id="a_Node000004"><a xlink:title=" ">
<polygon fill="white" stroke="transparent" points="214,-500 107,-500 107,-440 214,-440 214,-500"/>
<text text-anchor="start" x="112.5" y="-488" font-family="Helvetica,sans-Serif" font-size="10.00">boost::arithmetic&lt;</text>
<text text-anchor="start" x="112.5" y="-477" font-family="Helvetica,sans-Serif" font-size="10.00"> UnitInterval, double &gt;</text>
<text text-anchor="start" x="159" y="-462" font-family="Helvetica,sans-Serif" font-size="10.00"> </text>
<text text-anchor="start" x="159" y="-447" font-family="Helvetica,sans-Serif" font-size="10.00"> </text>
<polygon fill="#bfbfbf" stroke="#bfbfbf" points="107.5,-472 107.5,-472 214.5,-472 214.5,-472 107.5,-472"/>
<polygon fill="#bfbfbf" stroke="#bfbfbf" points="107.5,-457 107.5,-457 214.5,-457 214.5,-457 107.5,-457"/>
<polygon fill="none" stroke="#bfbfbf" points="107,-440 107,-500 214,-500 214,-440 107,-440"/>
</a>
</g>
</g>
<!-- Node4&#45;&gt;Node2 -->
<g id="edge3_Node000002_Node000004" class="edge">
<title>Node4&#45;&gt;Node2</title>
<g id="a_edge3_Node000002_Node000004"><a xlink:title=" ">
<path fill="none" stroke="#8b1a1a" d="M160.5,-429.75C160.5,-421.91 160.5,-413.31 160.5,-404.36"/>
<polygon fill="none" stroke="#8b1a1a" points="157,-429.92 160.5,-439.92 164,-429.92 157,-429.92"/>
</a>
</g>
</g>
<!-- Node5 -->
<g id="Node000005" class="node">
<title>Node5</title>
<g id="a_Node000005"><a xlink:title=" ">
<polygon fill="white" stroke="transparent" points="336.5,-500 232.5,-500 232.5,-440 336.5,-440 336.5,-500"/>
<text text-anchor="start" x="237.5" y="-488" font-family="Helvetica,sans-Serif" font-size="10.00">boost::totally_ordered</text>
<text text-anchor="start" x="250" y="-477" font-family="Helvetica,sans-Serif" font-size="10.00">&lt; UnitInterval &gt;</text>
<text text-anchor="start" x="282.5" y="-462" font-family="Helvetica,sans-Serif" font-size="10.00"> </text>
<text text-anchor="start" x="282.5" y="-447" font-family="Helvetica,sans-Serif" font-size="10.00"> </text>
<polygon fill="#bfbfbf" stroke="#bfbfbf" points="232.5,-472 232.5,-472 336.5,-472 336.5,-472 232.5,-472"/>
<polygon fill="#bfbfbf" stroke="#bfbfbf" points="232.5,-457 232.5,-457 336.5,-457 336.5,-457 232.5,-457"/>
<polygon fill="none" stroke="#bfbfbf" points="232.5,-440 232.5,-500 336.5,-500 336.5,-440 232.5,-440"/>
</a>
</g>
</g>
<!-- Node5&#45;&gt;Node2 -->
<g id="edge4_Node000002_Node000005" class="edge">
<title>Node5&#45;&gt;Node2</title>
<g id="a_edge4_Node000002_Node000005"><a xlink:title=" ">
<path fill="none" stroke="#8b1a1a" d="M258.46,-431.52C244.74,-411.77 227.43,-386.85 211.2,-363.48"/>
<polygon fill="none" stroke="#8b1a1a" points="255.72,-433.71 264.3,-439.92 261.47,-429.71 255.72,-433.71"/>
</a>
</g>
</g>
</g>
</svg>
