<?xml version="1.0" encoding="UTF-8" standalone="no"?>
<!DOCTYPE svg PUBLIC "-//W3C//DTD SVG 1.1//EN"
 "http://www.w3.org/Graphics/SVG/1.1/DTD/svg11.dtd">
<!-- Generated by graphviz version 2.49.3 (0)
 -->
<!-- Title: vanetza::detail::EndianConverter&lt; T, ORDER, ORDER &gt; Pages: 1 -->
<svg width="199pt" height="181pt"
 viewBox="0.00 0.00 199.00 181.00" xmlns="http://www.w3.org/2000/svg" xmlns:xlink="http://www.w3.org/1999/xlink">

<svg id="main" version="1.1" xmlns="http://www.w3.org/2000/svg" xmlns:xlink="http://www.w3.org/1999/xlink" xml:space="preserve">

<style type="text/css"><![CDATA[
.node, .edge {opacity: 0.7;}
.node.selected, .edge.selected {opacity: 1;}
.edge:hover path { stroke: red; }
.edge:hover polygon { stroke: red; fill: red; }
]]></style>
<script type="application/ecmascript" xlink:href="../../svg.min.js"/>
<svg id="graph" class="graph">
<g id="graph0" class="graph" transform="scale(1 1) rotate(0) translate(4 177)">
<title>vanetza::detail::EndianConverter&lt; T, ORDER, ORDER &gt;</title>
<!-- Node1 -->
<g id="Node000001" class="node">
<title>Node1</title>
<g id="a_Node000001"><a xlink:title=" ">
<polygon fill="#999999" stroke="transparent" points="152,-60 0,-60 0,0 152,0 152,-60"/>
<text text-anchor="start" x="5" y="-48" font-family="Helvetica,sans-Serif" font-size="10.00">vanetza::detail::EndianConverter</text>
<text text-anchor="start" x="21.5" y="-37" font-family="Helvetica,sans-Serif" font-size="10.00">&lt; T, ORDER, ORDER &gt;</text>
<text text-anchor="start" x="74" y="-22" font-family="Helvetica,sans-Serif" font-size="10.00"> </text>
<text text-anchor="start" x="25" y="-7" font-family="Helvetica,sans-Serif" font-size="10.00">+</text>
<text text-anchor="start" x="57" y="-7" font-family="Helvetica,sans-Serif" font-size="10.00">operator()()</text>
<polygon fill="#666666" stroke="#666666" points="0,-32 0,-32 152,-32 152,-32 0,-32"/>
<polygon fill="#666666" stroke="#666666" points="0,-17 0,-17 152,-17 152,-17 0,-17"/>
<polygon fill="none" stroke="#666666" points="0,0 0,-60 152,-60 152,0 0,0"/>
</a>
</g>
</g>
<!-- Node2 -->
<g id="Node000002" class="node">
<title>Node2</title>
<g id="a_Node000002"><a xlink:href="../../d1/d1a/structvanetza_1_1detail_1_1EndianConverter.html" target="_top" xlink:title=" ">
<polygon fill="white" stroke="transparent" points="152,-173 0,-173 0,-113 152,-113 152,-173"/>
<text text-anchor="start" x="5" y="-161" font-family="Helvetica,sans-Serif" font-size="10.00">vanetza::detail::EndianConverter</text>
<text text-anchor="start" x="37" y="-150" font-family="Helvetica,sans-Serif" font-size="10.00">&lt; T, FROM, TO &gt;</text>
<text text-anchor="start" x="74" y="-135" font-family="Helvetica,sans-Serif" font-size="10.00"> </text>
<text text-anchor="start" x="25" y="-120" font-family="Helvetica,sans-Serif" font-size="10.00">+</text>
<text text-anchor="start" x="57" y="-120" font-family="Helvetica,sans-Serif" font-size="10.00">operator()()</text>
<polygon fill="#bfbfbf" stroke="#bfbfbf" points="0,-145 0,-145 152,-145 152,-145 0,-145"/>
<polygon fill="#bfbfbf" stroke="#bfbfbf" points="0,-130 0,-130 152,-130 152,-130 0,-130"/>
<polygon fill="none" stroke="#bfbfbf" points="0,-113 0,-173 152,-173 152,-113 0,-113"/>
</a>
</g>
</g>
<!-- Node2&#45;&gt;Node1 -->
<g id="edge1_Node000001_Node000002" class="edge">
<title>Node2&#45;&gt;Node1</title>
<g id="a_edge1_Node000001_Node000002"><a xlink:title=" ">
<path fill="none" stroke="orange" d="M76,-102.56C76,-88.65 76,-73.28 76,-60.35"/>
<polygon fill="orange" stroke="orange" points="72.5,-102.84 76,-112.84 79.5,-102.84 72.5,-102.84"/>
</a>
</g>
<text text-anchor="start" x="79.5" y="-83.5" font-family="Helvetica,sans-Serif" font-size="10.00" fill="grey">&lt; T, ORDER, ORDER &gt;</text>
</g>
</g>
</svg>
</svg>

<style type='text/css'>
<![CDATA[
[data-mouse-over-selected='false'] { opacity: 0.7; }
[data-mouse-over-selected='true']  { opacity: 1.0; }
]]>
</style>
<script type="application/ecmascript"><![CDATA[
document.addEventListener('DOMContentLoaded', (event) => {
  highlightEdges();
  highlightAdjacentNodes();
});
]]></script>
</svg>
