<?xml version="1.0" encoding="UTF-8" standalone="no"?>
<!DOCTYPE svg PUBLIC "-//W3C//DTD SVG 1.1//EN"
 "http://www.w3.org/Graphics/SVG/1.1/DTD/svg11.dtd">
<!-- Generated by graphviz version 14.1.2 (0)
 -->
<!-- Title: vanetza::geonet::NullDccFieldGenerator Pages: 1 -->
<svg width="142pt" height="195pt"
 viewBox="0.00 0.00 142.00 195.00" xmlns="http://www.w3.org/2000/svg" xmlns:xlink="http://www.w3.org/1999/xlink">

<svg id="main" version="1.1" xmlns="http://www.w3.org/2000/svg" xmlns:xlink="http://www.w3.org/1999/xlink" xml:space="preserve">

<style type="text/css"><![CDATA[
.node, .edge {opacity: 0.7;}
.node.selected, .edge.selected {opacity: 1;}
.edge:hover path { stroke: red; }
.edge:hover polygon { stroke: red; fill: red; }
]]></style>
<script type="application/ecmascript" xlink:href="../../svg.min.js"/>
<svg id="graph" class="graph">
<g id="graph0" class="graph" transform="scale(1 1) rotate(0) translate(4 190.75)">
<title>vanetza::geonet::NullDccFieldGenerator</title>
<!-- Node1 -->
<g id="Node000001" class="node">
<title>Node1</title>
<g id="a_Node000001"><a xlink:title=" ">
<polygon fill="#999999" stroke="none" points="132.12,-67 1.88,-67 1.88,0 132.12,0 132.12,-67"/>
<text xml:space="preserve" text-anchor="start" x="5.88" y="-53.5" font-family="Helvetica,sans-Serif" font-size="10.00">vanetza::geonet::NullDcc</text>
<text xml:space="preserve" text-anchor="start" x="31" y="-40.75" font-family="Helvetica,sans-Serif" font-size="10.00">FieldGenerator</text>
<text xml:space="preserve" text-anchor="start" x="65.5" y="-24" font-family="Helvetica,sans-Serif" font-size="10.00"> </text>
<text xml:space="preserve" text-anchor="start" x="8.62" y="-7.25" font-family="Helvetica,sans-Serif" font-size="10.00">+</text>
<text xml:space="preserve" text-anchor="start" x="23.62" y="-7.25" font-family="Helvetica,sans-Serif" font-size="10.00">generate_dcc_field()</text>
<polygon fill="#666666" stroke="#666666" points="1.88,-35.5 1.88,-35.5 132.12,-35.5 132.12,-35.5 1.88,-35.5"/>
<polygon fill="#666666" stroke="#666666" points="1.88,-18.75 1.88,-18.75 132.12,-18.75 132.12,-18.75 1.88,-18.75"/>
<polygon fill="none" stroke="#666666" points="1.88,0 1.88,-67 132.12,-67 132.12,0 1.88,0"/>
</a>
</g>
</g>
<!-- Node2 -->
<g id="Node000002" class="node">
<title>Node2</title>
<g id="a_Node000002"><a xlink:href="../../d2/d6f/classvanetza_1_1geonet_1_1DccFieldGenerator.html" target="_top" xlink:title=" ">
<polygon fill="white" stroke="none" points="134,-186.75 0,-186.75 0,-103 134,-103 134,-186.75"/>
<text xml:space="preserve" text-anchor="start" x="4" y="-173.25" font-family="Helvetica,sans-Serif" font-size="10.00">vanetza::geonet::DccField</text>
<text xml:space="preserve" text-anchor="start" x="42.62" y="-160.5" font-family="Helvetica,sans-Serif" font-size="10.00">Generator</text>
<text xml:space="preserve" text-anchor="start" x="65.5" y="-143.75" font-family="Helvetica,sans-Serif" font-size="10.00"> </text>
<text xml:space="preserve" text-anchor="start" x="6" y="-127" font-family="Helvetica,sans-Serif" font-size="10.00">+</text>
<text xml:space="preserve" text-anchor="start" x="20.25" y="-127" font-family="Helvetica,sans-Serif" font-size="10.00">generate_dcc_field()</text>
<text xml:space="preserve" text-anchor="start" x="6" y="-110.25" font-family="Helvetica,sans-Serif" font-size="10.00">+</text>
<text xml:space="preserve" text-anchor="start" x="20.25" y="-110.25" font-family="Helvetica,sans-Serif" font-size="10.00">~DccFieldGenerator()</text>
<polygon fill="#bfbfbf" stroke="#bfbfbf" points="0,-155.25 0,-155.25 134,-155.25 134,-155.25 0,-155.25"/>
<polygon fill="#bfbfbf" stroke="#bfbfbf" points="0,-138.5 0,-138.5 134,-138.5 134,-138.5 0,-138.5"/>
<polygon fill="none" stroke="#bfbfbf" points="0,-103 0,-186.75 134,-186.75 134,-103 0,-103"/>
</a>
</g>
</g>
<!-- Node2&#45;&gt;Node1 -->
<g id="edge1_Node000001_Node000002" class="edge">
<title>Node2&#45;&gt;Node1</title>
<g id="a_edge1_Node000001_Node000002"><a xlink:title=" ">
<path fill="none" stroke="#63b8ff" d="M67,-91.67C67,-83.16 67,-74.57 67,-66.72"/>
<polygon fill="none" stroke="#63b8ff" points="63.5,-91.63 67,-101.63 70.5,-91.63 63.5,-91.63"/>
</a>
</g>
</g>
</g>
</svg>
</svg>

<style type='text/css'>
<![CDATA[
[data-mouse-over-selected='false'] { opacity: 0.7; }
[data-mouse-over-selected='true']  { opacity: 1.0; }
]]>
</style>
<script type="application/ecmascript"><![CDATA[
document.addEventListener('DOMContentLoaded', (event) => {
  highlightEdges();
  highlightAdjacentNodes();
});
]]></script>
</svg>
