<?xml version="1.0" encoding="UTF-8" standalone="no"?>
<!DOCTYPE svg PUBLIC "-//W3C//DTD SVG 1.1//EN"
 "http://www.w3.org/Graphics/SVG/1.1/DTD/svg11.dtd">
<!-- Generated by graphviz version 2.49.3 (0)
 -->
<!-- Title: vanetza::geonet::NullDccFieldGenerator Pages: 1 -->
<svg width="138pt" height="193pt"
 viewBox="0.00 0.00 138.00 193.00" xmlns="http://www.w3.org/2000/svg" xmlns:xlink="http://www.w3.org/1999/xlink">
<g id="graph0" class="graph" transform="scale(1 1) rotate(0) translate(4 189)">
<title>vanetza::geonet::NullDccFieldGenerator</title>
<!-- Node1 -->
<g id="node1" class="node">
<title>Node1</title>
<g id="a_node1"><a xlink:title=" ">
<polygon fill="#999999" stroke="#666666" points="2,-0.5 2,-68.5 128,-68.5 128,-0.5 2,-0.5"/>
<text text-anchor="start" x="10" y="-56.5" font-family="Helvetica,sans-Serif" font-size="10.00">vanetza::geonet::NullDcc</text>
<text text-anchor="middle" x="65" y="-45.5" font-family="Helvetica,sans-Serif" font-size="10.00">FieldGenerator</text>
<polyline fill="none" stroke="#666666" points="2,-38.5 128,-38.5 "/>
<text text-anchor="middle" x="65" y="-26.5" font-family="Helvetica,sans-Serif" font-size="10.00"> </text>
<polyline fill="none" stroke="#666666" points="2,-19.5 128,-19.5 "/>
<text text-anchor="start" x="10" y="-7.5" font-family="Helvetica,sans-Serif" font-size="10.00">+ generate_dcc_field()</text>
</a>
</g>
</g>
<!-- Node2 -->
<g id="node2" class="node">
<title>Node2</title>
<g id="a_node2"><a xlink:href="../../d2/d6f/classvanetza_1_1geonet_1_1DccFieldGenerator.html" target="_top" xlink:title=" ">
<polygon fill="white" stroke="#bfbfbf" points="0,-105.5 0,-184.5 130,-184.5 130,-105.5 0,-105.5"/>
<text text-anchor="start" x="8" y="-172.5" font-family="Helvetica,sans-Serif" font-size="10.00">vanetza::geonet::DccField</text>
<text text-anchor="middle" x="65" y="-161.5" font-family="Helvetica,sans-Serif" font-size="10.00">Generator</text>
<polyline fill="none" stroke="#bfbfbf" points="0,-154.5 130,-154.5 "/>
<text text-anchor="middle" x="65" y="-142.5" font-family="Helvetica,sans-Serif" font-size="10.00"> </text>
<polyline fill="none" stroke="#bfbfbf" points="0,-135.5 130,-135.5 "/>
<text text-anchor="start" x="8" y="-123.5" font-family="Helvetica,sans-Serif" font-size="10.00">+ generate_dcc_field()</text>
<text text-anchor="start" x="8" y="-112.5" font-family="Helvetica,sans-Serif" font-size="10.00">+ ~DccFieldGenerator()</text>
</a>
</g>
</g>
<!-- Node2&#45;&gt;Node1 -->
<g id="edge1" class="edge">
<title>Node2&#45;&gt;Node1</title>
<path fill="none" stroke="#63b8ff" d="M65,-95.35C65,-86.28 65,-77 65,-68.54"/>
<polygon fill="none" stroke="#63b8ff" points="61.5,-95.44 65,-105.44 68.5,-95.44 61.5,-95.44"/>
</g>
</g>
</svg>
