<?xml version="1.0" encoding="UTF-8" standalone="no"?>
<!DOCTYPE svg PUBLIC "-//W3C//DTD SVG 1.1//EN"
 "http://www.w3.org/Graphics/SVG/1.1/DTD/svg11.dtd">
<!-- Generated by graphviz version 2.49.3 (0)
 -->
<!-- Title: vanetza::security::v2::detail::validity_restriction_type&lt; ValidityRestrictionType::Time_Start_And_Duration &gt; Pages: 1 -->
<svg width="215pt" height="251pt"
 viewBox="0.00 0.00 215.00 251.00" xmlns="http://www.w3.org/2000/svg" xmlns:xlink="http://www.w3.org/1999/xlink">
<g id="graph0" class="graph" transform="scale(1 1) rotate(0) translate(4 247)">
<title>vanetza::security::v2::detail::validity_restriction_type&lt; ValidityRestrictionType::Time_Start_And_Duration &gt;</title>
<!-- Node1 -->
<g id="Node000001" class="node">
<title>Node1</title>
<g id="a_Node000001"><a xlink:title=" ">
<polygon fill="#999999" stroke="transparent" points="132,-93 0,-93 0,0 132,0 132,-93"/>
<text text-anchor="start" x="5" y="-80.5" font-family="Helvetica,sans-Serif" font-size="10.00">vanetza::security::</text>
<text text-anchor="start" x="5" y="-69.5" font-family="Helvetica,sans-Serif" font-size="10.00">v2::detail::validity</text>
<text text-anchor="start" x="5" y="-58.5" font-family="Helvetica,sans-Serif" font-size="10.00">_restriction_type&lt; Validity</text>
<text text-anchor="start" x="5" y="-47.5" font-family="Helvetica,sans-Serif" font-size="10.00">RestrictionType::Time_Start</text>
<text text-anchor="start" x="29" y="-36.5" font-family="Helvetica,sans-Serif" font-size="10.00">_And_Duration &gt;</text>
<text text-anchor="start" x="64" y="-21.5" font-family="Helvetica,sans-Serif" font-size="10.00"> </text>
<text text-anchor="start" x="64" y="-6.5" font-family="Helvetica,sans-Serif" font-size="10.00"> </text>
<polygon fill="#666666" stroke="#666666" points="0,-31.5 0,-31.5 132,-31.5 132,-31.5 0,-31.5"/>
<polygon fill="#666666" stroke="#666666" points="0,-16.5 0,-16.5 132,-16.5 132,-16.5 0,-16.5"/>
<polygon fill="none" stroke="#666666" points="0,0 0,-93 132,-93 132,0 0,0"/>
</a>
</g>
</g>
<!-- Node2 -->
<g id="Node000002" class="node">
<title>Node2</title>
<g id="a_Node000002"><a xlink:href="../../df/d49/structvanetza_1_1security_1_1v2_1_1detail_1_1validity__restriction__type.html" target="_top" xlink:title=" ">
<polygon fill="white" stroke="transparent" points="127.5,-243 4.5,-243 4.5,-161 127.5,-161 127.5,-243"/>
<text text-anchor="start" x="10" y="-231" font-family="Helvetica,sans-Serif" font-size="10.00">vanetza::security::</text>
<text text-anchor="start" x="10" y="-220" font-family="Helvetica,sans-Serif" font-size="10.00">v2::detail::validity</text>
<text text-anchor="start" x="10" y="-209" font-family="Helvetica,sans-Serif" font-size="10.00">_restriction_type&lt; Validity</text>
<text text-anchor="start" x="28.5" y="-198" font-family="Helvetica,sans-Serif" font-size="10.00">RestrictionType &gt;</text>
<text text-anchor="start" x="64.5" y="-183" font-family="Helvetica,sans-Serif" font-size="10.00"> </text>
<text text-anchor="start" x="64.5" y="-168" font-family="Helvetica,sans-Serif" font-size="10.00"> </text>
<polygon fill="#bfbfbf" stroke="#bfbfbf" points="5,-193 5,-193 128,-193 128,-193 5,-193"/>
<polygon fill="#bfbfbf" stroke="#bfbfbf" points="5,-178 5,-178 128,-178 128,-178 5,-178"/>
<polygon fill="none" stroke="#bfbfbf" points="4.5,-161 4.5,-243 127.5,-243 127.5,-161 4.5,-161"/>
</a>
</g>
</g>
<!-- Node2&#45;&gt;Node1 -->
<g id="edge1_Node000001_Node000002" class="edge">
<title>Node2&#45;&gt;Node1</title>
<g id="a_edge1_Node000001_Node000002"><a xlink:title=" ">
<path fill="none" stroke="orange" d="M66,-150.66C66,-132.16 66,-111.33 66,-93.25"/>
<polygon fill="orange" stroke="orange" points="62.5,-150.67 66,-160.67 69.5,-150.67 62.5,-150.67"/>
</a>
</g>
<text text-anchor="start" x="69.5" y="-132" font-family="Helvetica,sans-Serif" font-size="10.00" fill="grey">&lt; ValidityRestrictionType</text>
<text text-anchor="start" x="69.5" y="-117" font-family="Helvetica,sans-Serif" font-size="10.00" fill="grey">  ::Time_Start_And_Duration &gt;</text>
</g>
</g>
</svg>
