<?xml version="1.0" encoding="UTF-8" standalone="no"?>
<!DOCTYPE svg PUBLIC "-//W3C//DTD SVG 1.1//EN"
 "http://www.w3.org/Graphics/SVG/1.1/DTD/svg11.dtd">
<!-- Generated by graphviz version 2.42.1 (0)
 -->
<!-- Title: vanetza::dcc::Restrictive Pages: 1 -->
<svg width="134pt" height="193pt"
 viewBox="0.00 0.00 134.00 193.00" xmlns="http://www.w3.org/2000/svg" xmlns:xlink="http://www.w3.org/1999/xlink">
<g id="graph0" class="graph" transform="scale(1 1) rotate(0) translate(4 189)">
<title>vanetza::dcc::Restrictive</title>
<polygon fill="white" stroke="transparent" points="-4,4 -4,-189 130,-189 130,4 -4,4"/>
<!-- Node0 -->
<g id="node1" class="node">
<title>Node0</title>
<g id="a_node1"><a xlink:title=" ">
<polygon fill="#bfbfbf" stroke="black" points="0,-0.5 0,-68.5 126,-68.5 126,-0.5 0,-0.5"/>
<text text-anchor="middle" x="63" y="-56.5" font-family="Helvetica,sans-Serif" font-size="10.00">vanetza::dcc::Restrictive</text>
<polyline fill="none" stroke="black" points="0,-49.5 126,-49.5 "/>
<text text-anchor="middle" x="63" y="-37.5" font-family="Helvetica,sans-Serif" font-size="10.00"> </text>
<polyline fill="none" stroke="black" points="0,-30.5 126,-30.5 "/>
<text text-anchor="start" x="8" y="-18.5" font-family="Helvetica,sans-Serif" font-size="10.00">+ transmission_interval()</text>
<text text-anchor="start" x="8" y="-7.5" font-family="Helvetica,sans-Serif" font-size="10.00">+ name()</text>
</a>
</g>
</g>
<!-- Node1 -->
<g id="node2" class="node">
<title>Node1</title>
<g id="a_node2"><a xlink:href="../../d9/d97/classvanetza_1_1dcc_1_1State.html" target="_top" xlink:title=" ">
<polygon fill="white" stroke="black" points="1,-105.5 1,-184.5 125,-184.5 125,-105.5 1,-105.5"/>
<text text-anchor="middle" x="63" y="-172.5" font-family="Helvetica,sans-Serif" font-size="10.00">vanetza::dcc::State</text>
<polyline fill="none" stroke="black" points="1,-165.5 125,-165.5 "/>
<text text-anchor="middle" x="63" y="-153.5" font-family="Helvetica,sans-Serif" font-size="10.00"> </text>
<polyline fill="none" stroke="black" points="1,-146.5 125,-146.5 "/>
<text text-anchor="start" x="9" y="-134.5" font-family="Helvetica,sans-Serif" font-size="10.00">+ transmission_interval()</text>
<text text-anchor="start" x="9" y="-123.5" font-family="Helvetica,sans-Serif" font-size="10.00">+ name()</text>
<text text-anchor="start" x="9" y="-112.5" font-family="Helvetica,sans-Serif" font-size="10.00">+ ~State()</text>
</a>
</g>
</g>
<!-- Node1&#45;&gt;Node0 -->
<g id="edge1" class="edge">
<title>Node1&#45;&gt;Node0</title>
<path fill="none" stroke="midnightblue" d="M63,-95.35C63,-86.28 63,-77 63,-68.54"/>
<polygon fill="none" stroke="midnightblue" points="59.5,-95.44 63,-105.44 66.5,-95.44 59.5,-95.44"/>
</g>
</g>
</svg>
