<?xml version="1.0" encoding="UTF-8" standalone="no"?>
<!DOCTYPE svg PUBLIC "-//W3C//DTD SVG 1.1//EN"
 "http://www.w3.org/Graphics/SVG/1.1/DTD/svg11.dtd">
<!-- Generated by graphviz version 14.1.2 (0)
 -->
<!-- Title: vanetza::dcc::Restrictive Pages: 1 -->
<svg width="142pt" height="203pt"
 viewBox="0.00 0.00 142.00 203.00" xmlns="http://www.w3.org/2000/svg" xmlns:xlink="http://www.w3.org/1999/xlink">
<g id="graph0" class="graph" transform="scale(1 1) rotate(0) translate(4 198.75)">
<title>vanetza::dcc::Restrictive</title>
<!-- Node1 -->
<g id="Node000001" class="node">
<title>Node1</title>
<g id="a_Node000001"><a xlink:title=" ">
<polygon fill="#999999" stroke="none" points="133.5,-71 0,-71 0,0 133.5,0 133.5,-71"/>
<text xml:space="preserve" text-anchor="start" x="6.75" y="-57.5" font-family="Helvetica,sans-Serif" font-size="10.00">vanetza::dcc::Restrictive</text>
<text xml:space="preserve" text-anchor="start" x="65.25" y="-40.75" font-family="Helvetica,sans-Serif" font-size="10.00"> </text>
<text xml:space="preserve" text-anchor="start" x="4" y="-24" font-family="Helvetica,sans-Serif" font-size="10.00">+</text>
<text xml:space="preserve" text-anchor="start" x="16.25" y="-24" font-family="Helvetica,sans-Serif" font-size="10.00">transmission_interval()</text>
<text xml:space="preserve" text-anchor="start" x="4" y="-7.25" font-family="Helvetica,sans-Serif" font-size="10.00">+</text>
<text xml:space="preserve" text-anchor="start" x="16.25" y="-7.25" font-family="Helvetica,sans-Serif" font-size="10.00">name()</text>
<polygon fill="#666666" stroke="#666666" points="0,-52.25 0,-52.25 133.5,-52.25 133.5,-52.25 0,-52.25"/>
<polygon fill="#666666" stroke="#666666" points="0,-35.5 0,-35.5 133.5,-35.5 133.5,-35.5 0,-35.5"/>
<polygon fill="none" stroke="#666666" points="0,0 0,-71 133.5,-71 133.5,0 0,0"/>
</a>
</g>
</g>
<!-- Node2 -->
<g id="Node000002" class="node">
<title>Node2</title>
<g id="a_Node000002"><a xlink:href="../../d9/d97/classvanetza_1_1dcc_1_1State.html" target="_top" xlink:title=" ">
<polygon fill="white" stroke="none" points="133.5,-194.75 0,-194.75 0,-107 133.5,-107 133.5,-194.75"/>
<text xml:space="preserve" text-anchor="start" x="20.25" y="-181.25" font-family="Helvetica,sans-Serif" font-size="10.00">vanetza::dcc::State</text>
<text xml:space="preserve" text-anchor="start" x="65.25" y="-164.5" font-family="Helvetica,sans-Serif" font-size="10.00"> </text>
<text xml:space="preserve" text-anchor="start" x="4" y="-147.75" font-family="Helvetica,sans-Serif" font-size="10.00">+</text>
<text xml:space="preserve" text-anchor="start" x="16.25" y="-147.75" font-family="Helvetica,sans-Serif" font-size="10.00">transmission_interval()</text>
<text xml:space="preserve" text-anchor="start" x="4" y="-131" font-family="Helvetica,sans-Serif" font-size="10.00">+</text>
<text xml:space="preserve" text-anchor="start" x="16.25" y="-131" font-family="Helvetica,sans-Serif" font-size="10.00">name()</text>
<text xml:space="preserve" text-anchor="start" x="4" y="-114.25" font-family="Helvetica,sans-Serif" font-size="10.00">+</text>
<text xml:space="preserve" text-anchor="start" x="16.25" y="-114.25" font-family="Helvetica,sans-Serif" font-size="10.00">~State()</text>
<polygon fill="#bfbfbf" stroke="#bfbfbf" points="0,-176 0,-176 133.5,-176 133.5,-176 0,-176"/>
<polygon fill="#bfbfbf" stroke="#bfbfbf" points="0,-159.25 0,-159.25 133.5,-159.25 133.5,-159.25 0,-159.25"/>
<polygon fill="none" stroke="#bfbfbf" points="0,-107 0,-194.75 133.5,-194.75 133.5,-107 0,-107"/>
</a>
</g>
</g>
<!-- Node2&#45;&gt;Node1 -->
<g id="edge1_Node000001_Node000002" class="edge">
<title>Node2&#45;&gt;Node1</title>
<g id="a_edge1_Node000001_Node000002"><a xlink:title=" ">
<path fill="none" stroke="#63b8ff" d="M66.75,-95.66C66.75,-87.25 66.75,-78.76 66.75,-70.95"/>
<polygon fill="none" stroke="#63b8ff" points="63.25,-95.5 66.75,-105.5 70.25,-95.5 63.25,-95.5"/>
</a>
</g>
</g>
</g>
</svg>
