<?xml version="1.0" encoding="UTF-8" standalone="no"?>
<!DOCTYPE svg PUBLIC "-//W3C//DTD SVG 1.1//EN"
 "http://www.w3.org/Graphics/SVG/1.1/DTD/svg11.dtd">
<!-- Generated by graphviz version 14.1.2 (0)
 -->
<!-- Title: vanetza::security::v2::header_field_type&lt; HeaderFieldType::Recipient_Info &gt; Pages: 1 -->
<svg width="188pt" height="252pt"
 viewBox="0.00 0.00 188.00 252.00" xmlns="http://www.w3.org/2000/svg" xmlns:xlink="http://www.w3.org/1999/xlink">

<svg id="main" version="1.1" xmlns="http://www.w3.org/2000/svg" xmlns:xlink="http://www.w3.org/1999/xlink" xml:space="preserve">

<style type="text/css"><![CDATA[
.node, .edge {opacity: 0.7;}
.node.selected, .edge.selected {opacity: 1;}
.edge:hover path { stroke: red; }
.edge:hover polygon { stroke: red; fill: red; }
]]></style>
<script type="application/ecmascript" xlink:href="../../svg.min.js"/>
<svg id="graph" class="graph">
<g id="graph0" class="graph" transform="scale(1 1) rotate(0) translate(4 247.75)">
<title>vanetza::security::v2::header_field_type&lt; HeaderFieldType::Recipient_Info &gt;</title>
<!-- Node1 -->
<g id="Node000001" class="node">
<title>Node1</title>
<g id="a_Node000001"><a xlink:title=" ">
<polygon fill="#999999" stroke="none" points="152,-92.5 0,-92.5 0,0 152,0 152,-92.5"/>
<text xml:space="preserve" text-anchor="start" x="4" y="-79" font-family="Helvetica,sans-Serif" font-size="10.00">vanetza::security::</text>
<text xml:space="preserve" text-anchor="start" x="4" y="-66.25" font-family="Helvetica,sans-Serif" font-size="10.00">v2::header_field_type</text>
<text xml:space="preserve" text-anchor="start" x="4" y="-53.5" font-family="Helvetica,sans-Serif" font-size="10.00">&lt; HeaderFieldType::Recipient</text>
<text xml:space="preserve" text-anchor="start" x="58.38" y="-40.75" font-family="Helvetica,sans-Serif" font-size="10.00">_Info &gt;</text>
<text xml:space="preserve" text-anchor="start" x="74.5" y="-24" font-family="Helvetica,sans-Serif" font-size="10.00"> </text>
<text xml:space="preserve" text-anchor="start" x="74.5" y="-7.25" font-family="Helvetica,sans-Serif" font-size="10.00"> </text>
<polygon fill="#666666" stroke="#666666" points="0,-35.5 0,-35.5 152,-35.5 152,-35.5 0,-35.5"/>
<polygon fill="#666666" stroke="#666666" points="0,-18.75 0,-18.75 152,-18.75 152,-18.75 0,-18.75"/>
<polygon fill="none" stroke="#666666" points="0,0 0,-92.5 152,-92.5 152,0 0,0"/>
</a>
</g>
</g>
<!-- Node2 -->
<g id="Node000002" class="node">
<title>Node2</title>
<g id="a_Node000002"><a xlink:href="../../d9/d3a/structvanetza_1_1security_1_1v2_1_1header__field__type.html" target="_top" xlink:title="resolve type for matching HeaderFieldType">
<polygon fill="white" stroke="none" points="132.5,-243.75 19.5,-243.75 19.5,-164 132.5,-164 132.5,-243.75"/>
<text xml:space="preserve" text-anchor="start" x="23.5" y="-230.25" font-family="Helvetica,sans-Serif" font-size="10.00">vanetza::security::</text>
<text xml:space="preserve" text-anchor="start" x="23.5" y="-217.5" font-family="Helvetica,sans-Serif" font-size="10.00">v2::header_field_type</text>
<text xml:space="preserve" text-anchor="start" x="24.25" y="-204.75" font-family="Helvetica,sans-Serif" font-size="10.00">&lt; HeaderFieldType &gt;</text>
<text xml:space="preserve" text-anchor="start" x="74.5" y="-188" font-family="Helvetica,sans-Serif" font-size="10.00"> </text>
<text xml:space="preserve" text-anchor="start" x="74.5" y="-171.25" font-family="Helvetica,sans-Serif" font-size="10.00"> </text>
<polygon fill="#666666" stroke="#666666" points="19.5,-199.5 19.5,-199.5 132.5,-199.5 132.5,-199.5 19.5,-199.5"/>
<polygon fill="#666666" stroke="#666666" points="19.5,-182.75 19.5,-182.75 132.5,-182.75 132.5,-182.75 19.5,-182.75"/>
<polygon fill="none" stroke="#666666" points="19.5,-164 19.5,-243.75 132.5,-243.75 132.5,-164 19.5,-164"/>
</a>
</g>
</g>
<!-- Node2&#45;&gt;Node1 -->
<g id="edge1_Node000001_Node000002" class="edge">
<title>Node2&#45;&gt;Node1</title>
<g id="a_edge1_Node000001_Node000002"><a xlink:title=" ">
<path fill="none" stroke="orange" d="M76,-152.61C76,-133.18 76,-111.13 76,-92.24"/>
<polygon fill="orange" stroke="orange" points="72.5,-152.49 76,-162.49 79.5,-152.49 72.5,-152.49"/>
</a>
</g>
<text xml:space="preserve" text-anchor="start" x="79" y="-133.5" font-family="Helvetica,sans-Serif" font-size="10.00" fill="grey">&lt; HeaderFieldType::</text>
<text xml:space="preserve" text-anchor="start" x="79" y="-116.75" font-family="Helvetica,sans-Serif" font-size="10.00" fill="grey">  Recipient_Info &gt;</text>
</g>
</g>
</svg>
</svg>

<style type='text/css'>
<![CDATA[
[data-mouse-over-selected='false'] { opacity: 0.7; }
[data-mouse-over-selected='true']  { opacity: 1.0; }
]]>
</style>
<script type="application/ecmascript"><![CDATA[
document.addEventListener('DOMContentLoaded', (event) => {
  highlightEdges();
  highlightAdjacentNodes();
});
]]></script>
</svg>
