<?xml version="1.0" encoding="UTF-8" standalone="no"?>
<!DOCTYPE svg PUBLIC "-//W3C//DTD SVG 1.1//EN"
 "http://www.w3.org/Graphics/SVG/1.1/DTD/svg11.dtd">
<!-- Generated by graphviz version 2.49.3 (0)
 -->
<!-- Title: vanetza::security::v2::header_field_type&lt; HeaderFieldType::Recipient_Info &gt; Pages: 1 -->
<svg width="173pt" height="229pt"
 viewBox="0.00 0.00 173.00 229.00" xmlns="http://www.w3.org/2000/svg" xmlns:xlink="http://www.w3.org/1999/xlink">

<svg id="main" version="1.1" xmlns="http://www.w3.org/2000/svg" xmlns:xlink="http://www.w3.org/1999/xlink" xml:space="preserve">

<style type="text/css"><![CDATA[
.node, .edge {opacity: 0.7;}
.node.selected, .edge.selected {opacity: 1;}
.edge:hover path { stroke: red; }
.edge:hover polygon { stroke: red; fill: red; }
]]></style>
<script type="application/ecmascript" xlink:href="../../svg.min.js"/>
<svg id="graph" class="graph">
<g id="graph0" class="graph" transform="scale(1 1) rotate(0) translate(4 225)">
<title>vanetza::security::v2::header_field_type&lt; HeaderFieldType::Recipient_Info &gt;</title>
<!-- Node1 -->
<g id="Node000001" class="node">
<title>Node1</title>
<g id="a_Node000001"><a xlink:title=" ">
<polygon fill="#999999" stroke="transparent" points="140,-82 0,-82 0,0 140,0 140,-82"/>
<text text-anchor="start" x="5" y="-70" font-family="Helvetica,sans-Serif" font-size="10.00">vanetza::security::</text>
<text text-anchor="start" x="5" y="-59" font-family="Helvetica,sans-Serif" font-size="10.00">v2::header_field_type</text>
<text text-anchor="start" x="5" y="-48" font-family="Helvetica,sans-Serif" font-size="10.00">&lt; HeaderFieldType::Recipient</text>
<text text-anchor="start" x="54.5" y="-37" font-family="Helvetica,sans-Serif" font-size="10.00">_Info &gt;</text>
<text text-anchor="start" x="68" y="-22" font-family="Helvetica,sans-Serif" font-size="10.00"> </text>
<text text-anchor="start" x="68" y="-7" font-family="Helvetica,sans-Serif" font-size="10.00"> </text>
<polygon fill="#666666" stroke="#666666" points="0,-32 0,-32 140,-32 140,-32 0,-32"/>
<polygon fill="#666666" stroke="#666666" points="0,-17 0,-17 140,-17 140,-17 0,-17"/>
<polygon fill="none" stroke="#666666" points="0,0 0,-82 140,-82 140,0 0,0"/>
</a>
</g>
</g>
<!-- Node2 -->
<g id="Node000002" class="node">
<title>Node2</title>
<g id="a_Node000002"><a xlink:href="../../d9/d3a/structvanetza_1_1security_1_1v2_1_1header__field__type.html" target="_top" xlink:title="resolve type for matching HeaderFieldType">
<polygon fill="white" stroke="transparent" points="122,-221 18,-221 18,-150 122,-150 122,-221"/>
<text text-anchor="start" x="23" y="-208.5" font-family="Helvetica,sans-Serif" font-size="10.00">vanetza::security::</text>
<text text-anchor="start" x="23" y="-197.5" font-family="Helvetica,sans-Serif" font-size="10.00">v2::header_field_type</text>
<text text-anchor="start" x="24" y="-186.5" font-family="Helvetica,sans-Serif" font-size="10.00">&lt; HeaderFieldType &gt;</text>
<text text-anchor="start" x="68" y="-171.5" font-family="Helvetica,sans-Serif" font-size="10.00"> </text>
<text text-anchor="start" x="68" y="-156.5" font-family="Helvetica,sans-Serif" font-size="10.00"> </text>
<polygon fill="#666666" stroke="#666666" points="18,-181.5 18,-181.5 122,-181.5 122,-181.5 18,-181.5"/>
<polygon fill="#666666" stroke="#666666" points="18,-166.5 18,-166.5 122,-166.5 122,-166.5 18,-166.5"/>
<polygon fill="none" stroke="#666666" points="18,-150 18,-221 122,-221 122,-150 18,-150"/>
</a>
</g>
</g>
<!-- Node2&#45;&gt;Node1 -->
<g id="edge1_Node000001_Node000002" class="edge">
<title>Node2&#45;&gt;Node1</title>
<g id="a_edge1_Node000001_Node000002"><a xlink:title=" ">
<path fill="none" stroke="orange" d="M70,-139.44C70,-121.03 70,-99.91 70,-82.04"/>
<polygon fill="orange" stroke="orange" points="66.5,-139.64 70,-149.64 73.5,-139.64 66.5,-139.64"/>
</a>
</g>
<text text-anchor="start" x="73.5" y="-121" font-family="Helvetica,sans-Serif" font-size="10.00" fill="grey">&lt; HeaderFieldType::</text>
<text text-anchor="start" x="73.5" y="-106" font-family="Helvetica,sans-Serif" font-size="10.00" fill="grey">  Recipient_Info &gt;</text>
</g>
</g>
</svg>
</svg>

<style type='text/css'>
<![CDATA[
[data-mouse-over-selected='false'] { opacity: 0.7; }
[data-mouse-over-selected='true']  { opacity: 1.0; }
]]>
</style>
<script type="application/ecmascript"><![CDATA[
document.addEventListener('DOMContentLoaded', (event) => {
  highlightEdges();
  highlightAdjacentNodes();
});
]]></script>
</svg>
