<?xml version="1.0" encoding="UTF-8" standalone="no"?>
<!DOCTYPE svg PUBLIC "-//W3C//DTD SVG 1.1//EN"
 "http://www.w3.org/Graphics/SVG/1.1/DTD/svg11.dtd">
<!-- Generated by graphviz version 2.49.3 (0)
 -->
<!-- Title: vanetza::asn1::Cpm Pages: 1 -->
<svg width="300pt" height="768pt"
 viewBox="0.00 0.00 300.00 768.00" xmlns="http://www.w3.org/2000/svg" xmlns:xlink="http://www.w3.org/1999/xlink">
<g id="graph0" class="graph" transform="scale(1 1) rotate(0) translate(4 764)">
<title>vanetza::asn1::Cpm</title>
<!-- Node1 -->
<g id="node1" class="node">
<title>Node1</title>
<g id="a_node1"><a xlink:title=" ">
<polygon fill="#999999" stroke="#666666" points="65,-0.5 65,-57.5 169,-57.5 169,-0.5 65,-0.5"/>
<text text-anchor="middle" x="117" y="-45.5" font-family="Helvetica,sans-Serif" font-size="10.00">vanetza::asn1::Cpm</text>
<polyline fill="none" stroke="#666666" points="65,-38.5 169,-38.5 "/>
<text text-anchor="middle" x="117" y="-26.5" font-family="Helvetica,sans-Serif" font-size="10.00"> </text>
<polyline fill="none" stroke="#666666" points="65,-19.5 169,-19.5 "/>
<text text-anchor="start" x="73" y="-7.5" font-family="Helvetica,sans-Serif" font-size="10.00">+ Cpm()</text>
</a>
</g>
</g>
<!-- Node2 -->
<g id="node2" class="node">
<title>Node2</title>
<g id="a_node2"><a xlink:href="../../dc/dbf/classvanetza_1_1asn1_1_1asn1c__per__wrapper.html" target="_top" xlink:title=" ">
<polygon fill="white" stroke="#bfbfbf" points="55,-95.5 55,-207.5 179,-207.5 179,-95.5 55,-95.5"/>
<text text-anchor="start" x="63" y="-195.5" font-family="Helvetica,sans-Serif" font-size="10.00">vanetza::asn1::asn1c</text>
<text text-anchor="middle" x="117" y="-184.5" font-family="Helvetica,sans-Serif" font-size="10.00">_per_wrapper&lt; CPM_t &gt;</text>
<polyline fill="none" stroke="#bfbfbf" points="55,-177.5 179,-177.5 "/>
<text text-anchor="middle" x="117" y="-165.5" font-family="Helvetica,sans-Serif" font-size="10.00"> </text>
<polyline fill="none" stroke="#bfbfbf" points="55,-158.5 179,-158.5 "/>
<text text-anchor="start" x="63" y="-146.5" font-family="Helvetica,sans-Serif" font-size="10.00">+ encode()</text>
<text text-anchor="start" x="63" y="-135.5" font-family="Helvetica,sans-Serif" font-size="10.00">+ decode()</text>
<text text-anchor="start" x="63" y="-124.5" font-family="Helvetica,sans-Serif" font-size="10.00">+ decode()</text>
<text text-anchor="start" x="63" y="-113.5" font-family="Helvetica,sans-Serif" font-size="10.00">+ decode()</text>
<text text-anchor="start" x="63" y="-102.5" font-family="Helvetica,sans-Serif" font-size="10.00">+ size()</text>
</a>
</g>
</g>
<!-- Node2&#45;&gt;Node1 -->
<g id="edge1" class="edge">
<title>Node2&#45;&gt;Node1</title>
<path fill="none" stroke="#63b8ff" d="M117,-85.12C117,-75.48 117,-66.01 117,-57.72"/>
<polygon fill="none" stroke="#63b8ff" points="113.5,-85.19 117,-95.19 120.5,-85.19 113.5,-85.19"/>
</g>
<!-- Node3 -->
<g id="node3" class="node">
<title>Node3</title>
<g id="a_node3"><a xlink:href="../../d0/d68/classvanetza_1_1asn1_1_1asn1c__wrapper__common.html" target="_top" xlink:title=" ">
<polygon fill="white" stroke="#bfbfbf" points="0,-255.5 0,-488.5 146,-488.5 146,-255.5 0,-255.5"/>
<text text-anchor="start" x="8" y="-476.5" font-family="Helvetica,sans-Serif" font-size="10.00">vanetza::asn1::asn1c</text>
<text text-anchor="middle" x="73" y="-465.5" font-family="Helvetica,sans-Serif" font-size="10.00">_wrapper_common&lt; T &gt;</text>
<polyline fill="none" stroke="#bfbfbf" points="0,-458.5 146,-458.5 "/>
<text text-anchor="start" x="8" y="-446.5" font-family="Helvetica,sans-Serif" font-size="10.00"># m_struct</text>
<text text-anchor="start" x="8" y="-435.5" font-family="Helvetica,sans-Serif" font-size="10.00"># m_type</text>
<polyline fill="none" stroke="#bfbfbf" points="0,-428.5 146,-428.5 "/>
<text text-anchor="start" x="8" y="-416.5" font-family="Helvetica,sans-Serif" font-size="10.00">+ asn1c_wrapper_common()</text>
<text text-anchor="start" x="8" y="-405.5" font-family="Helvetica,sans-Serif" font-size="10.00">+ ~asn1c_wrapper_common()</text>
<text text-anchor="start" x="8" y="-394.5" font-family="Helvetica,sans-Serif" font-size="10.00">+ asn1c_wrapper_common()</text>
<text text-anchor="start" x="8" y="-383.5" font-family="Helvetica,sans-Serif" font-size="10.00">+ operator=()</text>
<text text-anchor="start" x="8" y="-372.5" font-family="Helvetica,sans-Serif" font-size="10.00">+ asn1c_wrapper_common()</text>
<text text-anchor="start" x="8" y="-361.5" font-family="Helvetica,sans-Serif" font-size="10.00">+ operator=()</text>
<text text-anchor="start" x="8" y="-350.5" font-family="Helvetica,sans-Serif" font-size="10.00">+ operator*()</text>
<text text-anchor="start" x="8" y="-339.5" font-family="Helvetica,sans-Serif" font-size="10.00">+ operator&#45;&gt;()</text>
<text text-anchor="start" x="8" y="-328.5" font-family="Helvetica,sans-Serif" font-size="10.00">+ operator*()</text>
<text text-anchor="start" x="8" y="-317.5" font-family="Helvetica,sans-Serif" font-size="10.00">+ operator&#45;&gt;()</text>
<text text-anchor="start" x="8" y="-306.5" font-family="Helvetica,sans-Serif" font-size="10.00">+ content()</text>
<text text-anchor="start" x="8" y="-295.5" font-family="Helvetica,sans-Serif" font-size="10.00">+ content()</text>
<text text-anchor="start" x="8" y="-284.5" font-family="Helvetica,sans-Serif" font-size="10.00">+ validate()</text>
<text text-anchor="start" x="8" y="-273.5" font-family="Helvetica,sans-Serif" font-size="10.00">+ validate()</text>
<text text-anchor="start" x="8" y="-262.5" font-family="Helvetica,sans-Serif" font-size="10.00">+ swap()</text>
</a>
</g>
</g>
<!-- Node3&#45;&gt;Node2 -->
<g id="edge2" class="edge">
<title>Node3&#45;&gt;Node2</title>
<path fill="none" stroke="#63b8ff" d="M98.32,-245.28C100.95,-232.18 103.53,-219.41 105.88,-207.73"/>
<polygon fill="none" stroke="#63b8ff" points="94.83,-244.86 96.29,-255.35 101.69,-246.24 94.83,-244.86"/>
</g>
<!-- Node4 -->
<g id="node4" class="node">
<title>Node4</title>
<g id="a_node4"><a xlink:href="../../dc/dbf/classvanetza_1_1asn1_1_1asn1c__per__wrapper.html" target="_top" xlink:title=" ">
<polygon fill="white" stroke="#bfbfbf" points="164,-316 164,-428 274,-428 274,-316 164,-316"/>
<text text-anchor="start" x="172" y="-416" font-family="Helvetica,sans-Serif" font-size="10.00">vanetza::asn1::asn1c</text>
<text text-anchor="middle" x="219" y="-405" font-family="Helvetica,sans-Serif" font-size="10.00">_per_wrapper&lt; T &gt;</text>
<polyline fill="none" stroke="#bfbfbf" points="164,-398 274,-398 "/>
<text text-anchor="middle" x="219" y="-386" font-family="Helvetica,sans-Serif" font-size="10.00"> </text>
<polyline fill="none" stroke="#bfbfbf" points="164,-379 274,-379 "/>
<text text-anchor="start" x="172" y="-367" font-family="Helvetica,sans-Serif" font-size="10.00">+ encode()</text>
<text text-anchor="start" x="172" y="-356" font-family="Helvetica,sans-Serif" font-size="10.00">+ decode()</text>
<text text-anchor="start" x="172" y="-345" font-family="Helvetica,sans-Serif" font-size="10.00">+ decode()</text>
<text text-anchor="start" x="172" y="-334" font-family="Helvetica,sans-Serif" font-size="10.00">+ decode()</text>
<text text-anchor="start" x="172" y="-323" font-family="Helvetica,sans-Serif" font-size="10.00">+ size()</text>
</a>
</g>
</g>
<!-- Node4&#45;&gt;Node2 -->
<g id="edge3" class="edge">
<title>Node4&#45;&gt;Node2</title>
<path fill="none" stroke="orange" d="M189,-306.73C174.31,-275.26 156.8,-237.76 142.73,-207.62"/>
<polygon fill="orange" stroke="orange" points="185.86,-308.28 193.26,-315.86 192.2,-305.32 185.86,-308.28"/>
<text text-anchor="middle" x="181" y="-229" font-family="Helvetica,sans-Serif" font-size="10.00"> &lt; CPM_t &gt;</text>
</g>
<!-- Node5 -->
<g id="node5" class="node">
<title>Node5</title>
<g id="a_node5"><a xlink:href="../../d0/d68/classvanetza_1_1asn1_1_1asn1c__wrapper__common.html" target="_top" xlink:title=" ">
<polygon fill="white" stroke="#bfbfbf" points="146,-526.5 146,-759.5 292,-759.5 292,-526.5 146,-526.5"/>
<text text-anchor="start" x="154" y="-747.5" font-family="Helvetica,sans-Serif" font-size="10.00">vanetza::asn1::asn1c</text>
<text text-anchor="middle" x="219" y="-736.5" font-family="Helvetica,sans-Serif" font-size="10.00">_wrapper_common&lt; T &gt;</text>
<polyline fill="none" stroke="#bfbfbf" points="146,-729.5 292,-729.5 "/>
<text text-anchor="start" x="154" y="-717.5" font-family="Helvetica,sans-Serif" font-size="10.00"># m_struct</text>
<text text-anchor="start" x="154" y="-706.5" font-family="Helvetica,sans-Serif" font-size="10.00"># m_type</text>
<polyline fill="none" stroke="#bfbfbf" points="146,-699.5 292,-699.5 "/>
<text text-anchor="start" x="154" y="-687.5" font-family="Helvetica,sans-Serif" font-size="10.00">+ asn1c_wrapper_common()</text>
<text text-anchor="start" x="154" y="-676.5" font-family="Helvetica,sans-Serif" font-size="10.00">+ ~asn1c_wrapper_common()</text>
<text text-anchor="start" x="154" y="-665.5" font-family="Helvetica,sans-Serif" font-size="10.00">+ asn1c_wrapper_common()</text>
<text text-anchor="start" x="154" y="-654.5" font-family="Helvetica,sans-Serif" font-size="10.00">+ operator=()</text>
<text text-anchor="start" x="154" y="-643.5" font-family="Helvetica,sans-Serif" font-size="10.00">+ asn1c_wrapper_common()</text>
<text text-anchor="start" x="154" y="-632.5" font-family="Helvetica,sans-Serif" font-size="10.00">+ operator=()</text>
<text text-anchor="start" x="154" y="-621.5" font-family="Helvetica,sans-Serif" font-size="10.00">+ operator*()</text>
<text text-anchor="start" x="154" y="-610.5" font-family="Helvetica,sans-Serif" font-size="10.00">+ operator&#45;&gt;()</text>
<text text-anchor="start" x="154" y="-599.5" font-family="Helvetica,sans-Serif" font-size="10.00">+ operator*()</text>
<text text-anchor="start" x="154" y="-588.5" font-family="Helvetica,sans-Serif" font-size="10.00">+ operator&#45;&gt;()</text>
<text text-anchor="start" x="154" y="-577.5" font-family="Helvetica,sans-Serif" font-size="10.00">+ content()</text>
<text text-anchor="start" x="154" y="-566.5" font-family="Helvetica,sans-Serif" font-size="10.00">+ content()</text>
<text text-anchor="start" x="154" y="-555.5" font-family="Helvetica,sans-Serif" font-size="10.00">+ validate()</text>
<text text-anchor="start" x="154" y="-544.5" font-family="Helvetica,sans-Serif" font-size="10.00">+ validate()</text>
<text text-anchor="start" x="154" y="-533.5" font-family="Helvetica,sans-Serif" font-size="10.00">+ swap()</text>
</a>
</g>
</g>
<!-- Node5&#45;&gt;Node4 -->
<g id="edge4" class="edge">
<title>Node5&#45;&gt;Node4</title>
<path fill="none" stroke="#63b8ff" d="M219,-516.35C219,-485.43 219,-453.88 219,-428.28"/>
<polygon fill="none" stroke="#63b8ff" points="215.5,-516.36 219,-526.36 222.5,-516.36 215.5,-516.36"/>
</g>
</g>
</svg>
